<?xml version="1.0" encoding="UTF-8"?>
<!DOCTYPE svg PUBLIC "-//W3C//DTD SVG 1.1//EN" "http://www.w3.org/Graphics/SVG/1.1/DTD/svg11.dtd">
<!-- Creator: CorelDRAW X8 -->
<svg xmlns="http://www.w3.org/2000/svg" xml:space="preserve" width="120.2mm" height="83.7901mm" version="1.1" style="shape-rendering:geometricPrecision; text-rendering:geometricPrecision; image-rendering:optimizeQuality; fill-rule:evenodd; clip-rule:evenodd"
viewBox="0 0 8827338 6153441"
 xmlns:xlink="http://www.w3.org/1999/xlink">
 <defs>
  <style type="text/css">
   <![CDATA[
    .str1 {stroke:black;stroke-width:14687.8}
    .str0 {stroke:black;stroke-width:14687.8}
    .str2 {stroke:red;stroke-width:14687.8}
    .fil3 {fill:none}
    .fil0 {fill:#F7F7F7}
    .fil2 {fill:red}
    .fil1 {fill:black;fill-rule:nonzero}
   ]]>
  </style>
 </defs>
 <g id="Ebene_x0020_1">
  <metadata id="CorelCorpID_0Corel-Layer"/>
  <polygon class="fil0" points="7344,4890441 7344,4413669 8819994,4413669 8819994,5745393 7752525,5463645 7082169,5735677 6479817,5473361 5479133,6056281 4983657,5687097 3448625,6153441 1845597,5570513 1282108,5007025 582597,5172189 "/>
  <rect class="fil0 str0" x="7345" y="7344" width="4406325" height="4406325"/>
  <rect class="fil0 str0" x="6616829" y="7344" width="2203163" height="2203163"/>
  <rect class="fil0 str0" x="6616829" y="2210506" width="2203163" height="2203163"/>
  <rect class="fil0 str0" x="4413666" y="7344" width="2203163" height="2203163"/>
  <rect class="fil0 str0" x="4413668" y="2210506" width="1101581" height="1101581"/>
  <rect class="fil0 str0" x="4413668" y="3312088" width="1101581" height="1101581"/>
  <rect class="fil0 str0" x="5515249" y="2210506" width="1101581" height="1101581"/>
  <rect class="fil0 str0" x="5515249" y="3312088" width="1101581" height="1101581"/>
  <g>
   <path class="fil1" d="M7083550 5218712l-2613443 0 0 -14688 2613443 0 5743 11919 -5743 2769zm5743 -2769l-2204 2769 -3539 0 5743 -2769zm549505 -690449l-549505 690449 -11486 -9150 549505 -690449 11486 9150zm-33627 148427l-114961 -91490 228203 -168762 -113242 260252z"/>
  </g>
  <path class="fil1" d="M4485353 4956139c66,-36947 10017,-65852 29919,-86731 19857,-20820 45502,-31226 76853,-31167 20571,51 39062,4979 55542,14834 16472,9841 29008,23574 37652,41148 8607,17559 12896,37461 12837,59742 -51,22590 -4619,42742 -13733,60565 -9180,17765 -22083,31241 -38827,40355 -16685,9114 -34714,13667 -54044,13615 -20981,-7 -39686,-5133 -56165,-15297 -16473,-10105 -28957,-23948 -37395,-41515 -8446,-17508 -12691,-36014 -12639,-55549zm30367 470c-52,26842 7086,47992 21488,63429 14401,15503 32489,23222 54249,23280 22127,52 40413,-7711 54771,-23258 14306,-15583 21517,-37659 21569,-66315 58,-18132 -2997,-33936 -9055,-47456 -6118,-13527 -15070,-24000 -26835,-31461 -11757,-7462 -24969,-11200 -39635,-11251 -20886,-7 -38812,7087 -53889,21385 -15033,14299 -22605,38181 -22663,71647z"/>
  <path id="1" class="fil1" d="M4837741 5005762l26842 3532c-2967,18499 -10531,32996 -22612,43410 -12124,10472 -26996,15694 -44606,15642 -22025,-58 -39797,-7270 -53155,-21723 -13374,-14460 -20049,-35140 -19998,-62085 59,-17405 2960,-32592 8776,-45642 5750,-13058 14563,-22796 26379,-29324 11809,-6522 24610,-9731 38497,-9724 17515,52 31814,4510 42954,13374 11082,8856 18184,21458 21290,37776l-26541 4040c-2526,-10833 -6984,-19021 -13409,-24470 -6426,-5486 -14196,-8233 -23266,-8233 -13784,-58 -24976,4862 -33576,14703 -8651,9892 -12962,25490 -13013,46839 -59,21657 4083,37410 12367,47206 8291,9849 19072,14769 32438,14828 10729,0 19688,-3261 26893,-9848 7204,-6573 11765,-16671 13740,-30301z"/>
  <path id="2" class="fil1" d="M4947584 5040293l3877 24154c-7667,1601 -14563,2372 -20621,2372 -9951,0 -17618,-1609 -23112,-4722 -5441,-3158 -9275,-7300 -11500,-12434 -2218,-5074 -3312,-15855 -3261,-32232l184 -92746 -20056 -58 58 -21246 20057 7 58 -39892 27209 -16318 -117 56269 27459 51 -8 21246 -27510 0 -184 94251c0,7770 470,12801 1455,15026 932,2233 2489,3995 4663,5339 2174,1293 5288,1968 9327,1968 3055,0 7050,-360 12022,-1035z"/>
  <path id="3" class="fil1" d="M4973955 5064652l294 -161249 24610 51 -59 24463c6279,-11449 12080,-18962 17419,-22590 5339,-3621 11192,-5435 17567,-5435 9172,8 18551,2960 28032,8865l-9437 25336c-6691,-3988 -13374,-5956 -20056,-5963 -5956,0 -11347,1762 -16062,5339 -4766,3620 -8188,8599 -10207,14974 -3063,9686 -4620,20298 -4620,31858l-176 84403 -27305 -52z"/>
  <path id="4" class="fil1" d="M5188220 5012937l28230 3576c-4502,16480 -12741,29280 -24822,38343 -12073,9113 -27466,13615 -46171,13564 -23574,-59 -42279,-7322 -56056,-21878 -13777,-14563 -20614,-34935 -20614,-61152 59,-27099 7116,-48125 21106,-63099 13998,-14974 32130,-22428 54411,-22369 21554,51 39121,7417 52744,22127 13623,14724 20460,35346 20408,61982 -7,1601 -66,4039 -220,7300l-120205 -286c985,17720 5949,31299 14967,40736 8960,9430 20203,14144 33679,14203 9995,0 18551,-2592 25645,-7865 7102,-5236 12749,-13630 16898,-25182zm-89632 -44328l90058 176c-1197,-13571 -4656,-23728 -10303,-30513 -8659,-10583 -19953,-15863 -33841,-15863 -12536,-59 -23052,4134 -31659,12528 -8548,8387 -13322,19579 -14255,33672z"/>
  <path id="5" class="fil1" d="M5361125 5012981l28229 3576c-4501,16480 -12741,29280 -24822,38343 -12073,9113 -27466,13615 -46171,13564 -23574,-59 -42279,-7322 -56056,-21878 -13777,-14563 -20614,-34934 -20614,-61152 59,-27099 7116,-48125 21106,-63099 13998,-14974 32130,-22428 54411,-22369 21554,51 39121,7417 52744,22127 13623,14724 20460,35346 20409,61982 -8,1601 -67,4039 -221,7300l-120204 -286c984,17720 5948,31299 14966,40736 8960,9430 20203,14144 33679,14203 9995,0 18551,-2592 25645,-7865 7102,-5236 12749,-13630 16899,-25182zm-89632 -44328l90057 176c-1197,-13571 -4656,-23728 -10303,-30513 -8658,-10583 -19953,-15863 -33841,-15863 -12536,-59 -23052,4134 -31659,12528 -8548,8387 -13322,19579 -14254,33672z"/>
  <polygon id="6" class="fil1" points="5509353,5064777 5509772,4842236 5537128,4842287 5536665,5064829 "/>
  <path id="7" class="fil1" d="M5689477 5013054l28229 3577c-4501,16479 -12741,29280 -24822,38342 -12073,9114 -27466,13616 -46171,13564 -23574,-59 -42279,-7322 -56056,-21877 -13777,-14563 -20614,-34935 -20614,-61153 59,-27099 7116,-48124 21106,-63098 13998,-14974 32130,-22428 54411,-22370 21554,52 39121,7418 52744,22127 13623,14725 20460,35346 20409,61983 -8,1601 -67,4039 -221,7300l-120204 -287c984,17721 5948,31300 14966,40737 8960,9429 20203,14144 33679,14203 9996,0 18551,-2593 25645,-7866 7102,-5236 12749,-13630 16899,-25182zm-89632 -44327l90058 176c-1198,-13572 -4657,-23728 -10304,-30514 -8658,-10582 -19953,-15863 -33841,-15863 -12536,-58 -23052,4135 -31659,12529 -8548,8387 -13322,19579 -14254,33672z"/>
  <path id="8" class="fil1" d="M5857145 5045110c-10113,8600 -19858,14659 -29236,18176 -9379,3525 -19425,5281 -30154,5281 -17721,-52 -31293,-4414 -40781,-13065 -9525,-8710 -14240,-19748 -14240,-33224 59,-7873 1822,-15077 5449,-21598 3628,-6529 8343,-11758 14145,-15694 5809,-3944 12389,-6896 19696,-8908 5339,-1403 13476,-2747 24301,-4039 22024,-2637 38291,-5743 48705,-9312 102,-3782 213,-6169 213,-7153 7,-11141 -2586,-18962 -7719,-23523 -6991,-6227 -17353,-9334 -31087,-9334 -12851,-59 -22384,2167 -28501,6676 -6110,4509 -10671,12426 -13630,23882l-26681 -3679c2439,-11457 6426,-20681 12022,-27672 5604,-7050 13638,-12433 24154,-16208 10568,-3782 22744,-5647 36632,-5640 13733,51 24925,1660 33524,4928 8600,3260 14923,7358 18970,12279 4031,4927 6829,11096 8438,18609 932,4663 1344,13058 1336,25182l-110 36426c-7,25439 507,41500 1652,48242 1183,6734 3459,13160 6882,19322l-28553 -59c-2798,-5648 -4605,-12279 -5427,-19895zm-2115 -60983c-9951,3987 -24823,7402 -44666,10193 -11251,1601 -19175,3415 -23838,5434 -4663,2027 -8291,4972 -10832,8857 -2483,3885 -3790,8240 -3790,12955 0,7307 2747,13366 8240,18242 5493,4869 13579,7307 24198,7359 10517,7 19895,-2270 28083,-6882 8189,-4560 14247,-10876 18088,-18851 2960,-6169 4458,-15290 4458,-27312l59 -9995z"/>
  <path id="9" class="fil1" d="M5931384 5064873l235 -139953 -24147 -58 59 -21246 24147 59 58 -17148c0,-10833 984,-18911 2901,-24147 2651,-7094 7315,-12852 13946,-17199 6632,-4399 15907,-6573 27878,-6573 7667,0 16171,940 25497,2805l-4156 23831c-5699,-1035 -11038,-1550 -16113,-1557 -8291,-59 -14144,1704 -17618,5280 -3422,3525 -5184,10157 -5192,19844l-51 14871 31454 117 -59 21239 -31402 -59 -287 139952 -27150 -58z"/>
  <path id="10" class="fil1" d="M6087581 4984281c51,-29897 8401,-51965 25042,-66315 13888,-11912 30778,-17817 50724,-17809 22179,51 40260,7358 54301,21870 14042,14570 21026,34670 20974,60271 -59,20724 -3172,37043 -9444,48910 -6220,11919 -15290,21136 -27209,27665 -11919,6580 -24874,9833 -38967,9782 -22538,-59 -40780,-7322 -54660,-21826 -13880,-14460 -20820,-35346 -20761,-62548zm28083 59c-59,20621 4443,36110 13410,46376 9011,10311 20305,15444 33987,15503 13579,0 24874,-5126 33885,-15437 9018,-10310 13534,-26056 13593,-47199 52,-19946 -4450,-35030 -13520,-45341 -9011,-10267 -20254,-15444 -33730,-15444 -13675,-59 -25028,5067 -34039,15275 -9018,10149 -13535,25594 -13586,46267z"/>
  <path id="11" class="fil1" d="M6375820 5006114l26842 3533c-2967,18499 -10531,32996 -22611,43409 -12125,10473 -26997,15694 -44607,15643 -22024,-59 -39797,-7271 -53155,-21723 -13373,-14461 -20049,-35141 -19998,-62086 59,-17405 2960,-32592 8776,-45642 5751,-13057 14563,-22795 26380,-29324 11809,-6521 24609,-9730 38496,-9723 17515,51 31814,4509 42955,13373 11081,8857 18183,21459 21289,37777l-26540 4039c-2527,-10832 -6984,-19021 -13410,-24470 -6426,-5486 -14196,-8232 -23266,-8232 -13784,-59 -24976,4861 -33576,14702 -8651,9892 -12962,25491 -13013,46840 -59,21657 4083,37409 12367,47206 8291,9848 19072,14768 32438,14827 10729,0 19689,-3260 26893,-9848 7204,-6573 11765,-16671 13740,-30301z"/>
  <path id="12" class="fil1" d="M6485663 5040645l3877 24154c-7667,1601 -14563,2372 -20621,2372 -9951,0 -17618,-1608 -23111,-4722 -5442,-3158 -9276,-7300 -11501,-12433 -2218,-5075 -3312,-15855 -3261,-32232l184 -92746 -20056 -59 59 -21246 20056 8 59 -39892 27209 -16318 -118 56268 27459 52 -8 21246 -27510 0 -183 94251c0,7770 470,12800 1454,15025 932,2233 2489,3996 4663,5339 2174,1293 5288,1969 9327,1969 3055,0 7050,-360 12022,-1036z"/>
  <path id="13" class="fil1" d="M6617537 5045286c-10113,8600 -19858,14659 -29236,18177 -9378,3525 -19425,5280 -30154,5280 -17721,-52 -31292,-4414 -40781,-13065 -9525,-8710 -14239,-19748 -14239,-33224 58,-7872 1821,-15077 5449,-21598 3628,-6529 8342,-11758 14144,-15694 5809,-3943 12389,-6896 19696,-8908 5339,-1403 13476,-2747 24301,-4039 22024,-2637 38291,-5743 48705,-9312 103,-3782 213,-6169 213,-7153 7,-11141 -2585,-18962 -7719,-23522 -6991,-6228 -17353,-9335 -31086,-9335 -12852,-58 -22384,2167 -28502,6676 -6110,4509 -10671,12426 -13630,23882l-26680 -3679c2438,-11456 6425,-20680 12021,-27672 5604,-7050 13638,-12433 24154,-16208 10568,-3782 22744,-5647 36632,-5640 13733,52 24925,1660 33525,4928 8599,3261 14922,7359 18969,12279 4032,4928 6830,11097 8438,18609 933,4664 1344,13058 1336,25183l-110 36425c-7,25439 507,41500 1653,48242 1182,6734 3459,13160 6881,19322l-28553 -59c-2798,-5647 -4605,-12279 -5427,-19895zm-2115 -60983c-9951,3988 -24823,7403 -44666,10193 -11251,1601 -19175,3415 -23838,5435 -4663,2027 -8291,4972 -10832,8856 -2482,3885 -3790,8240 -3790,12955 0,7307 2747,13366 8240,18242 5493,4869 13579,7307 24198,7359 10517,7 19895,-2269 28083,-6881 8189,-4561 14247,-10877 18088,-18852 2960,-6169 4458,-15290 4458,-27312l59 -9995z"/>
  <path id="14" class="fil1" d="M6685247 5065042l294 -161250 24617 51 -59 22957c11868,-17713 28972,-26518 51356,-26460 9738,0 18653,1770 26783,5288 8137,3474 14254,8086 18242,13733 4032,5706 6881,12441 8490,20218 984,5074 1498,13938 1439,26577l-176 99121 -27305 -59 176 -98034c0,-11140 -1028,-19483 -3150,-24976 -2123,-5537 -5853,-9944 -11295,-13271 -5390,-3260 -11765,-4920 -19021,-4971 -11654,-8 -21708,3672 -30154,11030 -8445,7410 -12704,21393 -12756,42014l-176 88083 -27305 -51z"/>
  <path id="15" class="fil1" d="M6917850 5040741l3877 24154c-7667,1601 -14562,2372 -20621,2372 -9951,0 -17618,-1609 -23111,-4722 -5442,-3158 -9276,-7300 -11501,-12434 -2218,-5074 -3312,-15855 -3261,-32232l184 -92746 -20056 -58 59 -21246 20056 7 59 -39892 27209 -16318 -118 56269 27459 51 -7 21246 -27511 0 -183 94251c0,7770 470,12801 1454,15026 933,2233 2489,3995 4663,5339 2174,1292 5288,1968 9327,1968 3055,0 7050,-360 12022,-1035z"/>
  <g>
   <path class="fil1" d="M3972802 5218712l-1661325 0 0 -14688 1661325 0 5919 11692 -5919 2996zm5919 -2996l-2203 2996 -3716 0 5919 -2996zm870132 -1183238l-870132 1183238 -11839 -8695 870132 -1183238 11839 8695zm-27951 149609l-118362 -87039 221602 -177347 -103240 264386z"/>
  </g>
  <path class="fil1" d="M2493965 4986403l29537 7462c-6161,24198 -17250,42594 -33267,55292 -16010,12690 -35596,19064 -58751,19064 -23941,0 -43425,-4869 -58450,-14665 -15026,-9738 -26423,-23883 -34252,-42382 -7821,-18550 -11758,-38394 -11758,-59639 0,-23163 4399,-43366 13263,-60624 8857,-17251 21452,-30360 37770,-39327 16325,-8966 34303,-13417 53889,-13417 22282,0 40987,5648 56115,16994 15180,11346 25755,27253 31711,47772l-28913 6837c-5126,-16164 -12639,-27980 -22436,-35339 -9789,-7410 -22127,-11082 -36998,-11082 -17045,0 -31344,4091 -42793,12279 -11456,8181 -19535,19219 -24146,33004 -4664,13836 -6999,28083 -6999,42748 0,18911 2746,35442 8240,49535 5493,14144 14041,24661 25652,31659 11603,6992 24139,10465 37667,10465 16479,0 30359,-4766 41764,-14247 11398,-9532 19116,-23632 23155,-42389z"/>
  <path id="1" class="fil1" d="M2666561 5012261l28289 3731c-4407,16428 -12639,29221 -24661,38291 -12022,9069 -27363,13630 -46068,13630 -23523,0 -42176,-7256 -55960,-21767 -13778,-14453 -20673,-34818 -20673,-60984 0,-27047 6947,-48080 20886,-63003 13938,-14974 32019,-22435 54249,-22435 21503,0 39069,7299 52692,21965 13630,14666 20467,35287 20467,61865 0,1608 -51,4046 -154,7256l-120160 0c1035,17669 6014,31248 15025,40626 8967,9378 20211,14093 33628,14093 10002,0 18551,-2644 25601,-7932 7094,-5280 12690,-13733 16839,-25336zm-89536 -43836l89845 0c-1190,-13571 -4664,-23728 -10311,-30521 -8651,-10516 -19946,-15804 -33782,-15804 -12536,0 -23060,4201 -31608,12595 -8497,8394 -13212,19638 -14144,33730z"/>
  <polygon id="2" class="fil1" points="2728786,5064491 2728786,4841898 2756149,4841898 2756149,5064491 "/>
  <polygon id="3" class="fil1" points="2797855,5064491 2797855,4841898 2825218,4841898 2825218,5064491 "/>
  <path id="4" class="fil1" d="M2943668 4983818c0,-29794 8291,-51870 24925,-66219 13836,-11920 30778,-17875 50724,-17875 22127,0 40259,7248 54352,21759 14041,14453 21092,34509 21092,60051 0,20725 -3114,36999 -9327,48859 -6220,11868 -15290,21092 -27202,27672 -11868,6580 -24874,9848 -38915,9848 -22590,0 -40832,-7204 -54771,-21664 -13938,-14453 -20878,-35280 -20878,-62431zm27980 52c0,20621 4509,36058 13520,46266 9070,10259 20416,15393 34149,15393 13579,0 24874,-5134 33936,-15444 9018,-10311 13527,-26012 13527,-47097 0,-19902 -4560,-34978 -13630,-45186 -9062,-10260 -20364,-15386 -33833,-15386 -13733,0 -25079,5075 -34149,15283 -9011,10208 -13520,25600 -13520,46171z"/>
  <path id="5" class="fil1" d="M3126523 5064491l0 -161353 24558 0 0 24720c6271,-11457 12073,-19021 17412,-22649 5332,-3679 11192,-5485 17559,-5485 9224,0 18602,2900 28142,8651l-9745 25233c-6632,-3731 -13263,-5596 -19895,-5596 -5963,0 -11295,1814 -16010,5391 -4714,3569 -8085,8548 -10105,14922 -3055,9687 -4560,20306 -4560,31865l0 84301 -27356 0z"/>
  <path id="6" class="fil1" d="M3230350 4872984l0 -31086 27356 0 0 31086 -27356 0zm0 191507l0 -161353 27356 0 0 161353 -27356 0z"/>
  <path id="7" class="fil1" d="M3294404 5077857l26423 3730c1087,8189 4193,14145 9275,17934 6786,5023 16061,7564 27826,7564 12639,0 22436,-2541 29324,-7564 6889,-5031 11552,-12125 13990,-21194 1403,-5545 2071,-17207 1969,-34979 -11971,14093 -26842,21143 -44666,21143 -22171,0 -39378,-7983 -51502,-23993 -12177,-15958 -18235,-35125 -18235,-57458 0,-15393 2798,-29589 8342,-42595 5538,-13006 13623,-23008 24191,-30102 10575,-7102 23008,-10619 37307,-10619 19021,0 34722,7769 47052,23309l0 -19895 25182 0 0 139328c0,25131 -2541,42903 -7667,53376 -5082,10465 -13219,18756 -24249,24815 -11089,6066 -24720,9121 -40883,9121 -19227,0 -34715,-4304 -46531,-12955 -11868,-8599 -17567,-21606 -17148,-38966zm22384 -96785c0,21084 4193,36477 12587,46163 8446,9687 18962,14563 31608,14563 12588,0 23112,-4817 31660,-14460 8497,-9635 12741,-24763 12741,-45385 0,-19696 -4399,-34560 -13160,-44563 -8754,-10002 -19322,-14974 -31659,-14974 -12176,0 -22487,4921 -31035,14769 -8497,9840 -12742,24455 -12742,43887z"/>
  <path id="8" class="fil1" d="M3472331 4872984l0 -31086 27356 0 0 31086 -27356 0zm0 191507l0 -161353 27356 0 0 161353 -27356 0z"/>
  <path id="9" class="fil1" d="M3541400 5064491l0 -161353 24558 0 0 22906c11817,-17567 28913,-26320 51246,-26320 9745,0 18653,1755 26790,5228 8137,3474 14247,8086 18287,13733 4046,5648 6895,12382 8504,20152 984,5082 1498,13939 1498,26585l0 99069 -27356 0 0 -98034c0,-11140 -1036,-19483 -3165,-24976 -2123,-5493 -5905,-9892 -11295,-13212 -5383,-3261 -11758,-4920 -19013,-4920 -11604,0 -21606,3679 -30052,11089 -8445,7359 -12646,21400 -12646,42022l0 88031 -27356 0z"/>
  <g>
   <path class="fil1" d="M3480196 4105087l-1661324 0 0 -14688 1661324 0 1146 14600 -1146 88zm1146 -88l-558 88 -588 0 1146 -88zm583309 -92298l-583309 92298 -2291 -14512 583309 -92298 2291 14512zm-125058 86724l-22965 -145115 282270 29713 -259305 115402z"/>
  </g>
  <path class="fil1" d="M2001360 3872778l29537 7461c-6161,24198 -17250,42595 -33267,55292 -16010,12691 -35596,19065 -58751,19065 -23941,0 -43425,-4869 -58450,-14666 -15026,-9738 -26424,-23882 -34252,-42381 -7821,-18551 -11758,-38394 -11758,-59640 0,-23162 4399,-43365 13263,-60623 8857,-17251 21452,-30360 37770,-39327 16325,-8967 34303,-13417 53889,-13417 22282,0 40986,5647 56115,16994 15180,11346 25755,27253 31711,47772l-28913 6837c-5126,-16164 -12639,-27980 -22436,-35339 -9789,-7410 -22127,-11082 -36998,-11082 -17045,0 -31344,4091 -42793,12279 -11456,8181 -19535,19219 -24147,33003 -4663,13836 -6998,28083 -6998,42749 0,18911 2746,35442 8240,49535 5493,14144 14041,24660 25652,31659 11603,6991 24139,10465 37666,10465 16480,0 30360,-4766 41765,-14247 11398,-9532 19116,-23633 23155,-42389z"/>
  <path id="1" class="fil1" d="M2173956 3898636l28289 3730c-4407,16429 -12639,29222 -24661,38291 -12022,9070 -27363,13631 -46068,13631 -23523,0 -42176,-7256 -55961,-21768 -13777,-14452 -20673,-34817 -20673,-60983 0,-27048 6948,-48080 20886,-63003 13939,-14974 32020,-22436 54250,-22436 21502,0 39069,7300 52692,21966 13630,14666 20467,35287 20467,61865 0,1608 -51,4046 -154,7255l-120160 0c1035,17670 6014,31249 15025,40627 8967,9378 20211,14093 33628,14093 10002,0 18550,-2644 25601,-7932 7094,-5280 12690,-13733 16839,-25336zm-89536 -43836l89844 0c-1189,-13571 -4663,-23728 -10310,-30521 -8651,-10516 -19946,-15804 -33782,-15804 -12536,0 -23060,4201 -31608,12595 -8497,8394 -13212,19637 -14144,33730z"/>
  <polygon id="2" class="fil1" points="2236181,3950865 2236181,3728273 2263544,3728273 2263544,3950865 "/>
  <polygon id="3" class="fil1" points="2305250,3950865 2305250,3728273 2332613,3728273 2332613,3950865 "/>
  <path id="4" class="fil1" d="M2450438 3902675l27048 -4348c1505,10825 5750,19116 12697,24918 6940,5758 16686,8659 29119,8659 12595,0 21921,-2541 28031,-7675 6066,-5074 9121,-11082 9121,-17978 0,-6161 -2746,-11037 -8188,-14555 -3833,-2438 -13160,-5493 -27980,-9275 -19998,-5031 -33833,-9379 -41603,-13058 -7726,-3731 -13579,-8813 -17567,-15341 -3995,-6478 -6014,-13675 -6014,-21555 0,-7204 1659,-13835 4927,-19945 3312,-6118 7770,-11193 13418,-15239 4252,-3106 10053,-5750 17361,-7924 7351,-2174 15179,-3261 23573,-3261 12639,0 23728,1807 33261,5486 9591,3628 16634,8607 21194,14820 4509,6272 7667,14614 9378,25079l-26731 3731c-1197,-8394 -4722,-14974 -10524,-19689 -5802,-4715 -13990,-7050 -24609,-7050 -12485,0 -21452,2078 -26791,6220 -5332,4150 -8027,9019 -8027,14563 0,3525 1087,6735 3312,9584 2233,2901 5699,5339 10465,7256 2747,1035 10730,3363 24096,6991 19277,5133 32746,9378 40413,12646 7674,3261 13682,8079 18037,14299 4406,6271 6580,14041 6580,23368 0,9070 -2644,17618 -7983,25652 -5332,8027 -13006,14247 -23001,18654 -10054,4399 -21400,6580 -34046,6580 -20930,0 -36940,-4355 -47927,-13006 -10986,-8710 -17977,-21555 -21040,-38607z"/>
  <path id="5" class="fil1" d="M2616770 4012730l0 -223217 24873 0 0 21195c5853,-8189 12485,-14358 19895,-18448 7359,-4091 16318,-6162 26842,-6162 13777,0 25902,3518 36425,10620 10517,7042 18441,17045 23831,29896 5339,12904 8035,26997 8035,42382 0,16428 -2953,31248 -8865,44460 -5904,13160 -14504,23265 -25799,30308 -11243,6999 -23111,10524 -35544,10524 -9121,0 -17309,-1917 -24514,-5751 -7248,-3840 -13160,-8658 -17823,-14511l0 78704 -27356 0zm24873 -141553c0,20673 4194,35956 12536,45855 8394,9892 18551,14872 30470,14872 12125,0 22487,-5134 31087,-15393 8651,-10260 12954,-26115 12954,-47618 0,-20519 -4200,-35853 -12646,-46061 -8445,-10208 -18492,-15290 -30205,-15290 -11603,0 -21863,5442 -30778,16274 -8967,10884 -13418,26629 -13418,47361z"/>
  <path id="6" class="fil1" d="M2789674 3950865l0 -222592 27356 0 0 80099c12697,-14871 28707,-22274 48088,-22274 11860,0 22178,2328 30983,7043 8754,4715 15026,11192 18808,19483 3782,8292 5647,20365 5647,36118l0 102123 -27355 0 0 -102021c0,-13630 -2953,-23581 -8813,-29794 -5905,-6220 -14196,-9326 -24969,-9326 -8035,0 -15599,2070 -22700,6271 -7094,4194 -12125,9892 -15180,17097 -3004,7153 -4509,17045 -4509,29691l0 88082 -27356 0z"/>
  <path id="7" class="fil1" d="M3072633 3898636l28289 3730c-4406,16429 -12639,29222 -24661,38291 -12022,9070 -27363,13631 -46068,13631 -23522,0 -42176,-7256 -55960,-21768 -13777,-14452 -20673,-34817 -20673,-60983 0,-27048 6947,-48080 20886,-63003 13938,-14974 32019,-22436 54249,-22436 21503,0 39069,7300 52692,21966 13631,14666 20468,35287 20468,61865 0,1608 -52,4046 -155,7255l-120160 0c1035,17670 6015,31249 15026,40627 8966,9378 20210,14093 33627,14093 10003,0 18551,-2644 25601,-7932 7094,-5280 12690,-13733 16839,-25336zm-89536 -43836l89845 0c-1190,-13571 -4663,-23728 -10311,-30521 -8651,-10516 -19946,-15804 -33782,-15804 -12536,0 -23060,4201 -31608,12595 -8497,8394 -13211,19637 -14144,33730z"/>
  <path id="8" class="fil1" d="M3135174 3950865l0 -161352 24558 0 0 24720c6271,-11457 12073,-19021 17412,-22649 5332,-3679 11192,-5486 17559,-5486 9224,0 18602,2901 28142,8651l-9745 25234c-6632,-3731 -13263,-5596 -19895,-5596 -5963,0 -11295,1814 -16009,5390 -4715,3569 -8086,8549 -10106,14923 -3055,9687 -4560,20306 -4560,31865l0 84300 -27356 0z"/>
  <path id="9" class="fil1" d="M3349064 3898636l28289 3730c-4406,16429 -12639,29222 -24661,38291 -12022,9070 -27363,13631 -46068,13631 -23522,0 -42176,-7256 -55960,-21768 -13777,-14452 -20673,-34817 -20673,-60983 0,-27048 6947,-48080 20886,-63003 13938,-14974 32019,-22436 54249,-22436 21503,0 39069,7300 52692,21966 13630,14666 20468,35287 20468,61865 0,1608 -52,4046 -155,7255l-120160 0c1035,17670 6014,31249 15025,40627 8967,9378 20211,14093 33628,14093 10002,0 18551,-2644 25601,-7932 7094,-5280 12690,-13733 16839,-25336zm-89536 -43836l89845 0c-1190,-13571 -4664,-23728 -10311,-30521 -8651,-10516 -19946,-15804 -33782,-15804 -12536,0 -23060,4201 -31608,12595 -8497,8394 -13212,19637 -14144,33730z"/>
  <circle class="fil2" cx="2210507" cy="2210507" r="68041"/>
  <circle class="fil2" cx="7718413" cy="1108925" r="68041"/>
  <circle class="fil2" cx="7718413" cy="3312088" r="68041"/>
  <circle class="fil2" cx="4964460" cy="2761297" r="68041"/>
  <circle class="fil2" cx="4964460" cy="3862878" r="68041"/>
  <circle class="fil2" cx="6066041" cy="2761297" r="68041"/>
  <circle class="fil2" cx="6066041" cy="3862878" r="68041"/>
  <circle class="fil2" cx="5515250" cy="1108925" r="68041"/>
  <line class="fil3 str1" x1="7344" y1="4413669" x2="7344" y2= "4890441" />
  <line class="fil3 str1" x1="8819994" y1="4413669" x2="8819994" y2= "5745393" />
  <circle class="fil3 str2" cx="4964460" cy="3862878" r="774977"/>
 </g>
</svg>
