<?xml version="1.0" encoding="UTF-8"?>
<!DOCTYPE svg PUBLIC "-//W3C//DTD SVG 1.1//EN" "http://www.w3.org/Graphics/SVG/1.1/DTD/svg11.dtd">
<!-- Creator: CorelDRAW X8 -->
<svg xmlns="http://www.w3.org/2000/svg" xml:space="preserve" width="154.485mm" height="136.497mm" version="1.1" style="shape-rendering:geometricPrecision; text-rendering:geometricPrecision; image-rendering:optimizeQuality; fill-rule:evenodd; clip-rule:evenodd"
viewBox="0 0 1593525 1407977"
 xmlns:xlink="http://www.w3.org/1999/xlink">
 <defs>
  <style type="text/css">
   <![CDATA[
    .str1 {stroke:black;stroke-width:2063.01}
    .str0 {stroke:red;stroke-width:2063.01}
    .str2 {stroke:black;stroke-width:2063.01;stroke-dasharray:4126.019751 6189.029626}
    .str3 {stroke:blue;stroke-width:2063.01;stroke-dasharray:4126.019751 6189.029626}
    .fil3 {fill:none}
    .fil2 {fill:#CCCCCC}
    .fil0 {fill:#F7F7F7}
    .fil1 {fill:red}
    .fil4 {fill:black;fill-rule:nonzero}
    .fil5 {fill:blue;fill-rule:nonzero}
    .fil6 {fill:red;fill-rule:nonzero}
   ]]>
  </style>
 </defs>
 <g id="Ebene_x0020_1">
  <metadata id="CorelCorpID_0Corel-Layer"/>
  <path class="fil0 str0" d="M703989 485062c120910,0 218926,98017 218926,218927 0,120910 -98016,218926 -218926,218926 -120910,0 -218927,-98016 -218927,-218926 0,-120910 98017,-218927 218927,-218927z"/>
  <circle class="fil1" cx="703989" cy="703989" r="9557"/>
  <circle class="fil2 str1" cx="371163" cy="395470" r="41749"/>
  <polygon class="fil2 str1" points="208797,600079 288585,500808 389711,575957 438883,703989 347962,750377 239139,721217 "/>
  <polygon class="fil0 str2" points="1363439,348598 1443227,249327 1544353,324476 1593525,452508 1502604,498896 1393781,469736 "/>
  <polygon class="fil2 str1" points="1143951,540932 856345,428673 993654,603092 1070658,622575 "/>
  <polygon class="fil2 str1" points="1295030,827693 1365484,527101 1212237,687698 1203842,766684 "/>
  <circle class="fil3 str3" cx="703989" cy="703989" r="265107"/>
  <circle class="fil3 str3" cx="703989" cy="703989" r="289947"/>
  <circle class="fil3 str3" cx="703989" cy="703989" r="412058"/>
  <circle class="fil3 str3" cx="703989" cy="703989" r="503819"/>
  <path class="fil4" d="M345432 666557l-3842 0 0 -24468c-924,888 -2140,1769 -3639,2650 -1500,880 -2853,1542 -4047,1980l0 -3713c2147,-1004 4025,-2227 5633,-3668 1609,-1434 2751,-2823 3421,-4176l2474 0 0 31395z"/>
  <path class="fil4" d="M1036425 564639l0 3668 -20697 0c-30,-925 124,-1813 451,-2671 531,-1405 1383,-2795 2555,-4156 1172,-1360 2845,-2932 5021,-4716 3385,-2787 5684,-4992 6885,-6623 1208,-1630 1812,-3173 1812,-4629 0,-1520 -546,-2801 -1637,-3849 -1093,-1041 -2518,-1565 -4273,-1565 -1855,0 -3340,553 -4454,1660 -1113,1098 -1674,2627 -1688,4585l-3930 -393c269,-2941 1288,-5183 3050,-6726 1768,-1543 4133,-2313 7110,-2313 2999,0 5378,829 7125,2496 1754,1666 2627,3733 2627,6193 0,1251 -255,2482 -772,3690 -509,1215 -1360,2489 -2546,3828 -1194,1331 -3166,3173 -5917,5502 -2308,1936 -3792,3246 -4447,3937 -655,691 -1193,1383 -1624,2082l15349 0z"/>
  <path class="fil4" d="M360923 402609l3842 -524c444,2182 1186,3754 2241,4716 1056,960 2351,1441 3887,1441 1820,0 3356,-626 4592,-1879 1237,-1251 1856,-2801 1856,-4650 0,-1761 -575,-3217 -1732,-4366 -1150,-1143 -2613,-1717 -4396,-1717 -727,0 -1630,145 -2714,429l429 -3363c255,29 466,43 619,43 1644,0 3115,-429 4432,-1280 1310,-852 1965,-2162 1965,-3930 0,-1405 -480,-2569 -1433,-3494 -955,-924 -2184,-1382 -3691,-1382 -1499,0 -2743,473 -3740,1419 -998,947 -1638,2365 -1922,4258l-3842 -699c473,-2576 1535,-4578 3201,-5997 1660,-1419 3734,-2125 6209,-2125 1703,0 3275,363 4709,1099 1441,728 2539,1724 3296,2984 765,1266 1143,2606 1143,4024 0,1347 -364,2569 -1085,3675 -727,1107 -1805,1988 -3223,2643 1848,422 3282,1310 4308,2656 1018,1339 1528,3027 1528,5043 0,2729 -996,5051 -2984,6950 -1994,1900 -4512,2846 -7554,2846 -2744,0 -5021,-822 -6834,-2460 -1819,-1637 -2853,-3755 -3107,-6360z"/>
  <path class="fil4" d="M1252607 721077l0 -7467 -13581 0 0 -3537 14279 -20261 3144 0 0 20261 4236 0 0 3537 -4236 0 0 7467 -3842 0zm0 -11004l0 -14068 -9803 14068 9803 0z"/>
  <path class="fil4" d="M1456021 393144l4018 -306c298,1958 989,3428 2066,4418 1078,982 2395,1477 3944,1477 1871,0 3436,-698 4709,-2088 1267,-1398 1900,-3247 1900,-5546 0,-2191 -605,-3915 -1820,-5182 -1215,-1266 -2824,-1899 -4825,-1899 -1244,0 -2358,284 -3347,851 -983,568 -1755,1303 -2322,2205l-3625 -524 3013 -16068 15503 0 0 3668 -12438 0 -1667 8434c1870,-1317 3835,-1972 5888,-1972 2722,0 5021,946 6891,2838 1871,1892 2810,4323 2810,7292 0,2832 -822,5276 -2467,7336 -2002,2533 -4738,3799 -8203,3799 -2838,0 -5152,-800 -6950,-2394 -1797,-1593 -2823,-3705 -3078,-6339z"/>
  <g>
   <path class="fil5" d="M458136 702957l245853 0 0 2063 -245853 0 0 -2063zm19254 -9286l0 20636 -38507 -10318 38507 -10318z"/>
  </g>
  <g>
   <path class="fil5" d="M416608 436178l288082 267055 -1403 1512 -288082 -267055 1403 -1512zm20434 6279l-14029 15134 -21225 -33746 35254 18612z"/>
  </g>
  <g>
   <path class="fil5" d="M917372 537319l-212745 167480 -1277 -1621 212745 -167480 1277 1621zm-9385 19207l-12764 -16214 36639 -15712 -23875 31926z"/>
  </g>
  <g>
   <path class="fil5" d="M1184610 765312l-480749 -60300 256 -2047 480749 60300 -256 2047zm-20261 6817l2569 -20475 36924 15030 -39493 5445z"/>
  </g>
  <path class="fil3 str0" d="M703989 1032c388232,0 702957,314724 702957,702957 0,388232 -314725,702957 -702957,702957 -388233,0 -702957,-314725 -702957,-702957 0,-388233 314724,-702957 702957,-702957z"/>
  <path class="fil6" d="M626728 874910l3201 2840c-2333,2619 -4904,4197 -7722,4745 -2816,549 -5671,77 -8559,-1419 -2986,-1547 -5100,-3414 -6341,-5606 -1244,-2186 -1752,-4686 -1533,-7499 224,-2819 1015,-5548 2388,-8197 1498,-2889 3351,-5124 5572,-6704 2220,-1578 4638,-2399 7252,-2463 2615,-63 5145,543 7587,1809 2779,1440 4746,3354 5899,5746 1161,2396 1452,5063 868,8007l-4048 -1016c406,-2347 232,-4306 -513,-5857 -742,-1556 -2044,-2812 -3898,-3773 -2125,-1102 -4173,-1515 -6131,-1234 -1956,280 -3677,1134 -5144,2555 -1475,1424 -2687,3050 -3635,4879 -1222,2358 -1947,4598 -2173,6710 -229,2119 157,3983 1153,5605 994,1622 2333,2866 4021,3740 2055,1065 4094,1367 6129,922 2037,-452 3911,-1711 5627,-3790zm20015 11340l3590 1782c-1332,1983 -3008,3309 -5017,3968 -2011,659 -4257,568 -6743,-283 -3126,-1068 -5275,-2881 -6447,-5436 -1175,-2546 -1166,-5567 24,-9044 1229,-3595 3109,-6074 5639,-7424 2533,-1356 5275,-1526 8230,-515 2857,977 4861,2746 6005,5314 1143,2568 1116,5620 -92,9152 -73,213 -191,535 -351,957l-15970 -5461c-665,2395 -621,4426 151,6082 765,1653 2045,2791 3829,3401 1329,454 2585,492 3763,110 1182,-380 2310,-1249 3389,-2603zm-9907 -9895l11940 4084c459,-1858 459,-3366 17,-4525 -672,-1791 -1932,-3007 -3771,-3635 -1666,-571 -3256,-490 -4773,236 -1511,730 -2649,2009 -3413,3840zm15899 19375l6974 -30477 3747 857 -6974 30477 -3747 -857zm9437 2265l5331 -30807 3787 655 -5331 30807 -3787 -655zm20651 -3533l3834 -321c96,1532 602,2739 1514,3625 910,881 2244,1391 3985,1524 1764,134 3098,-123 4008,-777 903,-647 1395,-1455 1469,-2421 66,-863 -268,-1575 -992,-2126 -511,-382 -1785,-909 -3820,-1597 -2747,-917 -4639,-1673 -5688,-2271 -1042,-604 -1807,-1379 -2297,-2335 -490,-950 -697,-1980 -613,-3084 77,-1008 380,-1920 903,-2740 529,-822 1207,-1486 2041,-1992 629,-390 1470,-698 2516,-925 1053,-226 2161,-295 3337,-206 1770,135 3304,506 4599,1123 1305,610 2239,1382 2811,2301 564,926 918,2128 1046,3612l-3784 239c-78,-1190 -501,-2148 -1263,-2870 -764,-722 -1885,-1137 -3372,-1250 -1749,-132 -3027,63 -3819,587 -791,524 -1220,1177 -1279,1953 -37,494 81,956 362,1377 282,431 742,809 1389,1129 373,173 1466,585 3299,1235 2646,924 4487,1662 5526,2202 1040,538 1830,1277 2374,2194 550,925 772,2037 673,3343 -97,1270 -558,2439 -1391,3507 -833,1068 -1974,1858 -3421,2368 -1454,509 -3066,694 -4838,560 -2931,-223 -5127,-1004 -6573,-2333 -1446,-1337 -2289,-3210 -2536,-5631zm23496 16940l-2376 -31263 3484 -264 226 2967c732,-1209 1595,-2143 2590,-2795 986,-651 2220,-1037 3693,-1148 1929,-147 3665,217 5215,1100 1547,873 2763,2190 3655,3933 885,1750 1413,3696 1577,5849 175,2302 -81,4409 -768,6322 -687,1906 -1784,3413 -3291,4519 -1500,1100 -3125,1720 -4866,1853 -1277,97 -2445,-85 -3495,-545 -1056,-461 -1935,-1072 -2651,-1842l839 11023 -3832 291zm1977 -20090c220,2896 970,4990 2244,6288 1281,1297 2756,1886 4426,1759 1698,-129 3095,-958 4190,-2487 1102,-1529 1536,-3795 1307,-6807 -219,-2874 -970,-4976 -2261,-6316 -1292,-1340 -2753,-1944 -4393,-1819 -1626,122 -3004,994 -4138,2606 -1140,1620 -1595,3872 -1375,6776zm21574 9454l-5332 -30808 3787 -655 1919 11086c1400,-2363 3439,-3771 6122,-4235 1641,-284 3125,-208 4456,233 1324,443 2347,1190 3069,2246 723,1057 1270,2684 1648,4863l2445 14134 -3785 656 -2444 -14120c-327,-1887 -974,-3193 -1934,-3913 -965,-719 -2188,-951 -3678,-692 -1112,192 -2110,660 -2992,1411 -882,751 -1442,1660 -1691,2731 -245,1061 -216,2466 86,4216l2111 12191 -3787 656zm36650 -16010l3964 -594c42,2388 -573,4434 -1844,6125 -1270,1691 -3164,2902 -5689,3628 -3176,912 -5976,657 -8400,-767 -2420,-1416 -4141,-3898 -5156,-7430 -1051,-3651 -929,-6760 374,-9315 1301,-2563 3451,-4272 6452,-5134 2903,-835 5558,-530 7965,920 2410,1451 4133,3969 5164,7557 63,217 151,549 261,986l-16220 4662c825,2346 2024,3985 3605,4902 1574,918 3275,1118 5086,597 1350,-388 2401,-1077 3147,-2064 753,-988 1181,-2346 1291,-4073zm-13788 -2444l12128 -3486c-687,-1786 -1550,-3022 -2576,-3720 -1576,-1084 -3306,-1359 -5174,-822 -1691,486 -2949,1462 -3777,2926 -822,1463 -1022,3164 -601,5102zm23984 6237l-8433 -21036 3202 -1284 1293 3223c218,-1821 579,-3111 1086,-3863 502,-758 1172,-1300 2002,-1632 1203,-483 2577,-595 4121,-344l48 3799c-1059,-139 -2021,-36 -2886,311 -778,311 -1378,827 -1805,1540 -428,711 -607,1537 -537,2473 107,1423 466,2885 1070,4392l4406 10991 -3567 1430zm23665 -19489l3764 -1378c521,2333 329,4461 -577,6372 -906,1911 -2518,3478 -4845,4695 -2927,1532 -5722,1844 -8382,936 -2656,-902 -4840,-2987 -6544,-6244 -1761,-3366 -2266,-6436 -1503,-9201 760,-2771 2524,-4877 5291,-6324 2676,-1401 5338,-1636 7988,-697 2651,937 4845,3058 6576,6366 104,200 257,507 453,913l-14955 7824c1280,2131 2784,3497 4516,4078 1727,583 3433,438 5103,-436 1244,-652 2136,-1537 2669,-2654 539,-1119 685,-2535 446,-4250zm-13998 375l11182 -5850c-1032,-1612 -2125,-2650 -3270,-3127 -1762,-746 -3512,-669 -5234,233 -1560,816 -2596,2024 -3113,3626 -512,1597 -366,3303 435,5118z"/>
  <path class="fil6" d="M542345 1355956l3702 2144c-1764,3032 -3969,5089 -6623,6188 -2650,1099 -5541,1206 -8669,315 -3234,-923 -5679,-2329 -7331,-4232 -1655,-1893 -2650,-4242 -2996,-7043 -342,-2806 -110,-5639 708,-8509 891,-3128 2263,-5688 4125,-7678 1861,-1990 4066,-3275 6616,-3859 2550,-583 5150,-492 7795,262 3010,858 5320,2341 6927,4456 1613,2117 2430,4673 2444,7673l-4169 -189c-70,-2381 -630,-4267 -1670,-5637 -1037,-1378 -2562,-2349 -4572,-2922 -2302,-656 -4391,-654 -6253,13 -1862,663 -3378,1843 -4531,3527 -1163,1690 -2027,3525 -2591,5506 -728,2555 -994,4893 -793,7009 197,2121 946,3871 2245,5263 1299,1391 2858,2343 4686,2864 2226,634 4284,525 6190,-317 1907,-849 3492,-2457 4760,-4834zm22342 8534l3755 1402c-1120,2110 -2651,3602 -4582,4464 -1931,863 -4176,1004 -6736,414 -3219,-742 -5543,-2322 -6973,-4743 -1431,-2413 -1733,-5417 -908,-8999 852,-3702 2467,-6362 4844,-7965 2381,-1610 5091,-2062 8134,-1362 2943,678 5117,2232 6519,4668 1404,2437 1689,5475 852,9113 -51,220 -134,552 -250,989l-16447 -3788c-415,2451 -161,4466 777,6034 931,1567 2322,2567 4158,2989 1369,315 2623,223 3754,-278 1137,-499 2170,-1480 3103,-2938zm-10873 -8822l12298 2832c265,-1896 109,-3394 -450,-4502 -852,-1713 -2232,-2793 -4126,-3229 -1716,-395 -3289,-152 -4723,728 -1428,881 -2428,2272 -2999,4171zm17798 17674l5447 -30787 3785 670 -5448 30786 -3784 -669zm9552 1690l5448 -30786 3784 669 -5447 30787 -3785 -670zm27748 4483l-5590 -23569 4078 525 3076 14081c333,1518 623,3088 861,4711 492,-1141 1145,-2502 1972,-4090l6760 -13073 3912 503 -11402 21385 -3667 -473zm18944 -24684l557 -4330 3811 490 -557 4331 -3811 -491zm-3431 26679l2891 -22477 3810 489 -2890 22479 -3811 -491zm8609 -5620l3835 -320c95,1531 601,2738 1513,3624 910,880 2244,1391 3986,1523 1764,134 3097,-123 4007,-777 904,-646 1396,-1454 1469,-2421 65,-862 -267,-1575 -992,-2125 -511,-382 -1785,-910 -3820,-1597 -2747,-918 -4639,-1674 -5688,-2271 -1043,-605 -1808,-1379 -2297,-2336 -491,-949 -697,-1979 -613,-3082 77,-1009 380,-1921 902,-2742 529,-821 1208,-1484 2041,-1991 629,-390 1470,-698 2516,-925 1053,-226 2161,-295 3337,-207 1770,136 3304,506 4599,1123 1305,610 2239,1383 2811,2301 566,926 918,2129 1047,3612l-3783 239c-79,-1189 -503,-2148 -1265,-2870 -762,-722 -1884,-1137 -3372,-1249 -1748,-133 -3026,63 -3819,586 -790,525 -1219,1178 -1279,1954 -37,494 82,955 362,1378 282,430 742,808 1389,1127 374,174 1467,586 3301,1236 2644,924 4486,1661 5525,2201 1040,538 1830,1277 2374,2194 551,925 773,2037 672,3343 -95,1271 -557,2440 -1390,3508 -832,1068 -1973,1857 -3419,2368 -1456,509 -3068,694 -4839,559 -2932,-222 -5128,-1003 -6574,-2332 -1446,-1336 -2289,-3210 -2536,-5631zm24821 -18301l331 -4354 3831 291 -330 4354 -3832 -291zm-2038 26822l1717 -22599 3832 291 -1718 22599 -3831 -291zm13201 994l-3580 -86 743 -31255 3841 91 -265 11153c1670,-1984 3761,-2946 6278,-2886 1390,33 2708,341 3938,930 1232,590 2231,1407 3015,2438 776,1038 1380,2274 1797,3718 425,1438 613,2978 575,4608 -93,3871 -1124,6845 -3087,8909 -1972,2074 -4296,3073 -6981,3009 -2669,-63 -4738,-1226 -6206,-3481l-68 2852zm230 -11497c-64,2707 259,4673 965,5898 1162,2000 2768,3028 4827,3078 1680,39 3146,-654 4396,-2081 1256,-1425 1919,-3579 1988,-6461 70,-2953 -461,-5143 -1599,-6574 -1138,-1432 -2540,-2172 -4199,-2211 -1680,-40 -3146,653 -4395,2079 -1257,1426 -1917,3515 -1983,6272zm21152 -14901l103 -4366 3841 91 -104 4365 -3840 -90zm-640 26890l539 -22656 3841 91 -539 22657 -3841 -92zm9611 228l742 -31256 3843 91 -743 31257 -3842 -92zm9149 -26904l-103 -4365 3841 -91 103 4366 -3841 90zm638 26892l-537 -22657 3842 -91 536 22657 -3841 91zm17956 -3855l604 3378c-1072,251 -2037,390 -2879,410 -1391,33 -2473,-159 -3255,-585 -775,-425 -1326,-987 -1655,-1700 -332,-713 -519,-2223 -574,-4530l-309 -13052 -2839 67 -70 -2969 2837 -67 -132 -5603 3787 -2396 187 7908 3842 -91 71 2969 -3842 91 315 13270c25,1099 108,1803 253,2113 138,310 362,552 673,734 309,175 748,259 1316,246 422,-11 981,-75 1670,-193zm3903 12050l-521 -3540c850,206 1580,305 2206,291 859,-21 1539,-183 2042,-478 510,-296 922,-708 1237,-1223 231,-391 601,-1355 1104,-2895 68,-213 170,-528 319,-947l-9139 -22526 4105 -97 5038 12971c658,1637 1245,3370 1776,5191 403,-1735 887,-3449 1458,-5138l4518 -13327 3834 -91 -8017 23253c-865,2503 -1545,4223 -2039,5174 -655,1275 -1419,2217 -2285,2827 -873,611 -1921,926 -3144,955 -742,18 -1575,-115 -2492,-400zm31821 -17495l3741 -898c327,1501 1010,2616 2045,3355 1033,732 2429,1034 4170,902 1764,-134 3043,-590 3845,-1374 795,-775 1159,-1649 1085,-2615 -65,-863 -503,-1516 -1302,-1951 -563,-300 -1902,-629 -4018,-1001 -2854,-491 -4838,-952 -5966,-1385 -1121,-440 -1995,-1089 -2623,-1961 -629,-864 -988,-1851 -1073,-2954 -76,-1009 86,-1956 478,-2846 399,-892 968,-1651 1716,-2278 563,-480 1347,-913 2348,-1294 1006,-384 2091,-619 3267,-709 1770,-135 3342,0 4716,414 1382,405 2422,1028 3126,1849 699,831 1230,1965 1582,3412l-3705 808c-256,-1162 -821,-2046 -1684,-2645 -862,-598 -2034,-838 -3522,-725 -1748,133 -2982,520 -3685,1156 -703,639 -1029,1350 -969,2126 37,493 224,932 567,1307 343,382 854,687 1542,905 396,115 1539,356 3449,722 2755,513 4686,964 5795,1340 1110,374 2002,985 2679,1810 684,832 1070,1896 1171,3203 97,1270 -183,2495 -845,3677 -661,1181 -1669,2135 -3023,2859 -1360,723 -2926,1149 -4698,1284 -2931,223 -5219,-216 -6850,-1310 -1632,-1103 -2748,-2827 -3359,-5183zm24849 12926l-4000 -31096 3466 -446 379 2952c669,-1245 1483,-2223 2441,-2926 952,-702 2163,-1150 3629,-1339 1919,-247 3672,26 5265,826 1591,793 2874,2045 3855,3738 975,1702 1603,3618 1879,5761 295,2288 149,4406 -438,6352 -587,1939 -1604,3501 -3051,4684 -1441,1177 -3031,1881 -4763,2104 -1271,164 -2446,43 -3519,-362 -1078,-405 -1988,-970 -2743,-1702l1410 10964 -3810 490zm928 -20166c371,2880 1229,4934 2569,6164 1346,1228 2851,1740 4511,1526 1689,-217 3041,-1118 4055,-2701 1022,-1585 1336,-3870 952,-6866 -369,-2858 -1228,-4919 -2587,-6190 -1360,-1271 -2850,-1799 -4482,-1589 -1617,208 -2948,1150 -3996,2819 -1055,1676 -1393,3949 -1022,6837zm22030 8319l-5448 -30787 3783 -669 1961 11078c1393,-2367 3426,-3783 6106,-4258 1641,-290 3124,-221 4458,216 1326,438 2352,1181 3078,2235 726,1053 1280,2678 1665,4856l2500 14125 -3783 670 -2498 -14111c-334,-1884 -986,-3189 -1948,-3905 -969,-716 -2192,-942 -3682,-679 -1111,197 -2106,669 -2986,1424 -879,753 -1435,1664 -1681,2735 -240,1064 -206,2469 103,4218l2156 12182 -3784 670zm37400 -14501l3988 -383c-83,2388 -806,4398 -2165,6020 -1358,1620 -3314,2729 -5874,3320 -3219,743 -6001,340 -8346,-1211 -2343,-1543 -3929,-4112 -4756,-7693 -854,-3702 -568,-6799 868,-9282 1435,-2490 3673,-4083 6716,-4784 2943,-680 5578,-236 7906,1341 2328,1577 3915,4182 4755,7820 51,220 121,555 208,998l-16445 3796c699,2386 1810,4087 3340,5085 1523,1001 3211,1291 5047,867 1369,-316 2455,-948 3254,-1894 803,-947 1302,-2281 1504,-4000zm-13639 -3171l12296 -2838c-592,-1819 -1388,-3101 -2375,-3852 -1516,-1165 -3230,-1532 -5123,-1095 -1716,396 -3023,1303 -3928,2722 -898,1417 -1188,3105 -870,5063zm23847 8343l-5096 -22083 3360 -776 781 3384c497,-1766 1052,-2985 1668,-3651 614,-671 1359,-1103 2230,-1305 1263,-291 2638,-190 4124,295l-536 3761c-1025,-301 -1992,-346 -2900,-137 -816,189 -1488,606 -2020,1243 -533,638 -837,1426 -911,2362 -113,1423 16,2924 381,4505l2664 11537 -3745 865zm27093 -14472l3965 -585c37,2389 -583,4433 -1857,6121 -1275,1688 -3172,2894 -5699,3614 -3177,906 -5976,644 -8396,-786 -2418,-1422 -4134,-3907 -5140,-7442 -1041,-3654 -913,-6762 396,-9315 1307,-2559 3462,-4262 6464,-5118 2905,-827 5559,-518 7963,939 2406,1456 4123,3979 5147,7569 62,217 148,549 258,986l-16231 4625c820,2347 2014,3990 3593,4909 1573,922 3273,1126 5085,610 1351,-385 2404,-1071 3153,-2057 755,-986 1185,-2344 1299,-4070zm-13782 -2476l12137 -3458c-683,-1787 -1544,-3025 -2568,-3725 -1574,-1089 -3303,-1368 -5172,-835 -1692,482 -2953,1454 -3784,2917 -826,1462 -1029,3162 -613,5101z"/>
 </g>
</svg>
