<?xml version="1.0" encoding="UTF-8"?>
<!DOCTYPE svg PUBLIC "-//W3C//DTD SVG 1.1//EN" "http://www.w3.org/Graphics/SVG/1.1/DTD/svg11.dtd">
<!-- Creator: CorelDRAW X8 -->
<svg xmlns="http://www.w3.org/2000/svg" xml:space="preserve" width="154.485mm" height="136.497mm" version="1.1" style="shape-rendering:geometricPrecision; text-rendering:geometricPrecision; image-rendering:optimizeQuality; fill-rule:evenodd; clip-rule:evenodd"
viewBox="0 0 15935245 14079774"
 xmlns:xlink="http://www.w3.org/1999/xlink">
 <defs>
  <style type="text/css">
   <![CDATA[
    .str1 {stroke:black;stroke-width:20630.1}
    .str0 {stroke:red;stroke-width:20630.1}
    .str2 {stroke:black;stroke-width:20630.1;stroke-dasharray:41260.197507 61890.296260}
    .str3 {stroke:blue;stroke-width:20630.1;stroke-dasharray:41260.197507 61890.296260}
    .fil3 {fill:none}
    .fil2 {fill:#CCCCCC}
    .fil0 {fill:#F7F7F7}
    .fil1 {fill:red}
    .fil4 {fill:black;fill-rule:nonzero}
    .fil5 {fill:blue;fill-rule:nonzero}
    .fil6 {fill:red;fill-rule:nonzero}
   ]]>
  </style>
 </defs>
 <g id="Ebene_x0020_1">
  <metadata id="CorelCorpID_0Corel-Layer"/>
  <path class="fil0 str0" d="M7039887 4850621c1209099,0 2189266,980167 2189266,2189266 0,1209099 -980167,2189266 -2189266,2189266 -1209099,0 -2189266,-980167 -2189266,-2189266 0,-1209099 980167,-2189266 2189266,-2189266z"/>
  <circle class="fil1" cx="7039887" cy="7039887" r="95569"/>
  <circle class="fil2 str1" cx="3711627" cy="3954699" r="417493"/>
  <polygon class="fil2 str1" points="2087972,6000790 2885852,5008080 3897108,5759573 4388827,7039887 3479617,7503765 2391389,7212169 "/>
  <polygon class="fil0 str2" points="13634391,3485981 14432270,2493271 15443527,3244764 15935245,4525078 15026036,4988956 13937808,4697360 "/>
  <polygon class="fil2 str1" points="11439514,5409315 8563451,4286728 9936539,6030921 10706578,6225751 "/>
  <polygon class="fil2 str1" points="12950297,8276930 13654835,5271011 12122370,6876982 12038416,7666836 "/>
  <circle class="fil3 str3" cx="7039887" cy="7039887" r="2651071"/>
  <circle class="fil3 str3" cx="7039887" cy="7039887" r="2899468"/>
  <circle class="fil3 str3" cx="7039887" cy="7039887" r="4120584"/>
  <circle class="fil3 str3" cx="7039887" cy="7039887" r="5038190"/>
  <path class="fil4" d="M3454324 6665575l-38423 0 0 -244684c-9242,8882 -21404,17691 -36392,26500 -14998,8798 -28531,15421 -40466,19794l0 -37124c21466,-10036 40250,-22270 56331,-36680 16081,-14338 27510,-28232 34205,-41766l24745 0 0 313960z"/>
  <path class="fil4" d="M10364252 5646386l0 36680 -206971 0c-299,-9242 1238,-18123 4507,-26706 5313,-14049 13833,-27953 25551,-41559 11718,-13605 28449,-29326 50213,-47160 33844,-27872 56836,-49925 68843,-66233 12089,-16298 18124,-31729 18124,-46284 0,-15204 -5457,-28015 -16370,-38496 -10924,-10407 -25179,-15648 -42725,-15648 -18557,0 -33400,5529 -44541,16597 -11130,10986 -16741,26273 -16885,45851l-39301 -3930c2692,-29408 12884,-51823 30502,-67254 17680,-15432 41332,-23137 71101,-23137 29986,0 53783,8293 71246,24962 17546,16659 26273,37331 26273,61932 0,12512 -2548,24818 -7716,36897 -5095,12151 -13605,24890 -25468,38279 -11934,13317 -31656,31729 -59167,55021 -23074,19361 -37918,32461 -44468,39372 -6550,6911 -11934,13833 -16236,20816l153488 0z"/>
  <path class="fil4" d="M3609225 4026088l38424 -5240c4446,21826 11862,37546 22415,47160 10552,9603 23508,14410 38867,14410 18195,0 33555,-6261 45922,-18784 12368,-12512 18557,-28015 18557,-46500 0,-17618 -5745,-32173 -17319,-43664 -11501,-11429 -26128,-17174 -43963,-17174 -7272,0 -16297,1454 -27139,4291l4292 -33627c2547,289 4662,433 6189,433 16442,0 31151,-4291 44323,-12801 13100,-8520 19651,-21620 19651,-39300 0,-14049 -4807,-25695 -14338,-34937 -9542,-9243 -21837,-13822 -36908,-13822 -14987,0 -27427,4724 -37402,14183 -9975,9469 -16380,23652 -19217,42580l-38424 -6983c4735,-25767 15360,-45778 32018,-59972 16597,-14193 37341,-21249 62087,-21249 17030,0 32750,3631 47088,10986 14410,7282 25396,17247 32967,29841 7643,12657 11429,26056 11429,40239 0,13472 -3641,25695 -10852,36753 -7272,11068 -18051,19877 -32234,26427 18484,4219 32822,13100 43086,26561 10181,13389 15276,30275 15276,50431 0,27293 -9964,50512 -29841,69502 -19939,19001 -45118,28460 -75537,28460 -27438,0 -50214,-8222 -68337,-24602 -18196,-16370 -28532,-37547 -31080,-63602z"/>
  <path class="fil4" d="M12526070 7210766l0 -74670 -135808 0 0 -35371 142791 -202608 31440 0 0 202608 42354 0 0 35371 -42354 0 0 74670 -38423 0zm0 -110041l0 -140676 -98034 140676 98034 0z"/>
  <path class="fil4" d="M14560208 3931437l40177 -3054c2981,19578 9892,34277 20661,44180 10779,9820 23952,14771 39445,14771 18711,0 34359,-6983 47088,-20888 12667,-13977 19000,-32462 19000,-55454 0,-21909 -6044,-39156 -18195,-51823 -12151,-12656 -28243,-18990 -48254,-18990 -12440,0 -23580,2837 -33473,8510 -9830,5684 -17545,13028 -23219,22054l-36247 -5240 30130 -160688 155025 0 0 36680 -124378 0 -16670 84346c18702,-13172 38352,-19722 58879,-19722 27221,0 50213,9459 68915,28377 18711,18928 28098,43230 28098,72927 0,28315 -8221,52762 -24674,73361 -20011,25323 -47377,37990 -82025,37990 -28377,0 -51524,-8004 -69503,-23941 -17969,-15937 -28232,-37052 -30780,-63396z"/>
  <g>
   <path class="fil5" d="M4581357 7029572l2458530 0 0 20630 -2458530 0 0 -20630zm192541 -92866l0 206363 -385071 -103182 385071 -103181z"/>
  </g>
  <g>
   <path class="fil5" d="M4166083 4361781l2880818 2670545 -14028 15122 -2880818 -2670546 14028 -15121zm204342 62787l-140295 151343 -212253 -337457 352548 186114z"/>
  </g>
  <g>
   <path class="fil5" d="M9173720 5373192l-2127448 1674803 -12770 -16216 2127448 -1674803 12770 16216zm-93846 192066l-127649 -162142 366391 -157119 -238742 319261z"/>
  </g>
  <g>
   <path class="fil5" d="M11846102 7653117l-4807494 -602997 2558 -20465 4807494 602997 -2558 20465zm-202608 68172l25684 -204754 369238 150301 -394922 54453z"/>
  </g>
  <path class="fil3 str0" d="M7039887 10315c3882327,0 7029572,3147245 7029572,7029572 0,3882327 -3147245,7029572 -7029572,7029572 -3882327,0 -7029572,-3147245 -7029572,-7029572 0,-3882327 3147245,-7029572 7029572,-7029572z"/>
  <path class="fil6" d="M6267280 8749101l32007 28397c-23322,26190 -49038,41972 -77218,47450 -28160,5487 -56712,773 -85584,-14184 -29862,-15472 -51008,-34142 -63417,-56062 -12440,-21857 -17515,-46861 -15328,-74990 2238,-28191 10150,-55485 23879,-81974 14977,-28892 33514,-51235 55722,-67037 22198,-15782 46376,-23993 72515,-24633 26159,-629 51451,5436 75877,18093 27789,14400 47460,33534 58992,57455 11604,23962 14513,50636 8675,80075l-40476 -10160c4053,-23467 2321,-43065 -5137,-58569 -7417,-15565 -20434,-28119 -38981,-37732 -21249,-11017 -41724,-15153 -61302,-12337 -19568,2795 -36773,11336 -51441,25550 -14751,14235 -26871,30502 -36351,48791 -12223,23580 -19474,45974 -21733,67099 -2290,21187 1568,39826 11532,56052 9944,16215 23333,28655 40208,37392 20548,10655 40940,13678 61292,9222 20372,-4518 39104,-17113 56269,-37898zm200153 113404l35896 17814c-13317,19836 -30079,33091 -50172,39682 -20104,6591 -42570,5683 -67430,-2826 -31254,-10687 -52751,-28810 -64469,-54361 -11749,-25468 -11656,-55670 237,-90442 12296,-35948 31090,-60745 56393,-74238 25334,-13564 52751,-15266 82304,-5157 28572,9768 48604,27459 60044,53143 11439,25685 11160,56196 -918,91515 -733,2135 -1909,5354 -3508,9573l-159697 -54608c-6653,23951 -6210,44262 1506,60817 7654,16535 20455,27913 38289,34009 13296,4549 25850,4920 37630,1104 11821,-3796 23105,-12492 33895,-26025zm-99076 -98953l119407 40838c4590,-18578 4590,-33658 165,-45252 -6715,-17907 -19320,-30069 -37712,-36351 -16659,-5704 -32554,-4899 -47728,2363 -15111,7303 -26489,20093 -34132,38402zm158996 193748l69740 -304768 37464 8571 -69740 304769 -37464 -8572zm94362 22652l53318 -308069 37867 6550 -53308 308069 -37877 -6550zm206518 -35329l38341 -3208c959,15318 6013,27386 15132,36247 9108,8809 22445,13905 39857,15235 17639,1341 30976,-1227 40074,-7767 9036,-6467 13956,-14554 14689,-24209 660,-8634 -2672,-15751 -9913,-21260 -5116,-3816 -17855,-9087 -38207,-15967 -27469,-9170 -46387,-16731 -56877,-22714 -10418,-6045 -18072,-13791 -22972,-23353 -4899,-9501 -6962,-19795 -6127,-30832 774,-10088 3796,-19207 9026,-27407 5291,-8221 12079,-14854 20413,-19919 6292,-3899 14699,-6983 25159,-9252 10531,-2259 21610,-2950 33369,-2053 17700,1341 33039,5055 45995,11223 13048,6106 22383,13822 28108,23013 5643,9263 9181,21280 10460,36123l-37836 2383c-784,-11893 -5013,-21476 -12636,-28697 -7633,-7220 -18845,-11367 -33720,-12501 -17484,-1321 -30264,629 -38186,5869 -7912,5240 -12203,11769 -12791,19537 -371,4940 805,9551 3621,13770 2816,4302 7416,8087 13884,11285 3734,1733 14668,5848 32998,12347 26458,9242 44870,16628 55257,22023 10398,5384 18299,12770 23735,21940 5509,9252 7726,20372 6736,33431 -970,12698 -5580,24395 -13915,35071 -8324,10676 -19733,18577 -34205,23683 -14544,5086 -30666,6932 -48377,5591 -29316,-2228 -51276,-10037 -65738,-23322 -14462,-13369 -22889,-32101 -25354,-56310zm234956 169394l-23756 -312629 34834 -2641 2259 29677c7324,-12089 15958,-21435 25901,-27954 9861,-6509 22198,-10367 36928,-11481 19300,-1464 36660,2167 52153,10996 15473,8737 27634,21909 36557,39332 8850,17504 14121,36958 15761,58496 1754,23013 -805,44087 -7674,63221 -6870,19052 -17845,34122 -32916,45190 -14998,10996 -31244,17196 -48656,18526 -12770,970 -24447,-846 -34947,-5446 -10563,-4611 -19351,-10728 -26510,-18423l8386 110227 -38320 2909zm19774 -200896c2197,28954 9696,49904 22435,62880 12811,12966 27562,18856 44262,17587 16978,-1289 30945,-9582 41900,-24869 11016,-15287 15359,-37949 13069,-68069 -2187,-28738 -9696,-49760 -22611,-63159 -12914,-13399 -27531,-19444 -43932,-18196 -16256,1228 -30037,9944 -41373,26066 -11398,16195 -15958,38723 -13750,67760zm215739 94537l-53318 -308079 37866 -6551 19186 110867c14008,-23632 34390,-37712 61220,-42354 16411,-2837 31254,-2084 44561,2331 13244,4425 23477,11894 30697,22456 7221,10573 12698,26840 16474,48636l24457 141336 -37857 6561 -24436 -141203c-3270,-18866 -9737,-31925 -19341,-39125 -9655,-7190 -21878,-9510 -36783,-6921 -11120,1918 -21094,6601 -29914,14111 -8819,7509 -14420,16597 -16917,27304 -2444,10614 -2155,24663 867,42168l21105 121903 -37867 6560zm366494 -160100l39640 -5941c423,23879 -5724,44344 -18433,61251 -12708,16916 -31646,29026 -56897,36278 -31760,9128 -59755,6570 -83996,-7665 -24199,-14162 -41415,-38980 -51565,-74299 -10500,-36515 -9283,-67605 3745,-93155 13007,-25623 34514,-42715 64520,-51338 29027,-8345 55578,-5302 79653,9201 24096,14513 41322,39692 51637,75568 629,2177 1506,5488 2610,9861l-162204 46624c8252,23457 20248,39847 36051,49017 15741,9181 32750,11182 50863,5973 13503,-3879 24014,-10769 31472,-20641 7530,-9881 11810,-23466 12904,-40734zm-137871 -24436l121274 -34865c-6870,-17855 -15504,-30213 -25757,-37196 -15761,-10841 -33060,-13595 -51740,-8221 -16917,4858 -29491,14616 -37774,29264 -8221,14626 -10222,31636 -6003,51018zm239835 62365l-84326 -210355 32018 -12842 12925 32234c2187,-18216 5797,-31110 10862,-38630 5023,-7581 11718,-13007 20021,-16328 12028,-4828 25767,-5942 41209,-3435l485 37990c-10594,-1393 -20218,-361 -28862,3105 -7777,3115 -13781,8273 -18051,15400 -4281,7118 -6076,15370 -5374,24736 1073,14224 4662,28851 10707,43921l44055 109907 -35669 14297zm236648 -194883l37639 -13780c5210,23322 3291,44602 -5766,63716 -9056,19113 -25179,34782 -48449,46954 -29275,15318 -57218,18433 -83821,9355 -26561,-9015 -48398,-29872 -65438,-62437 -17608,-33658 -22662,-64365 -15029,-92010 7592,-27716 25241,-48769 52906,-63241 26757,-14008 53380,-16360 79879,-6973 26510,9376 48450,30584 65759,63664 1042,2001 2568,5065 4528,9129l-149547 78240c12801,21311 27840,34968 45159,40775 17267,5838 34328,4384 51028,-4353 12440,-6519 21363,-15369 26696,-26541 5384,-11191 6849,-25354 4456,-42498zm-139975 3745l111815 -58497c-10315,-16122 -21249,-26499 -32699,-31275 -17618,-7458 -35123,-6684 -52339,2331 -15596,8159 -25962,20238 -31130,36258 -5117,15978 -3662,33039 4353,51183z"/>
  <path class="fil6" d="M5423447 13559555l37020 21445c-17638,30316 -39692,50895 -66222,61880 -26510,10986 -55413,12059 -86698,3146 -32338,-9221 -56785,-23291 -73309,-42312 -16546,-18938 -26500,-42426 -29955,-70431 -3425,-28067 -1104,-56392 7076,-85089 8912,-31285 22631,-56887 41250,-76785 18608,-19898 40662,-32750 66161,-38589 25498,-5828 51503,-4920 77950,2620 30100,8582 53195,23405 69266,44561 16133,21167 24302,46727 24447,76734l-41694 -1898c-701,-23807 -6302,-42663 -16700,-56372 -10367,-13770 -25622,-23487 -45716,-29212 -23023,-6560 -43911,-6540 -62530,124 -18619,6632 -33782,18433 -45314,35277 -11625,16896 -20269,35247 -25911,55052 -7283,25550 -9934,48934 -7933,70090 1970,21218 9469,38713 22456,52638 12987,13905 28583,23426 46861,28635 22260,6343 42839,5250 61901,-3167 19062,-8489 34916,-24570 47594,-48347zm223424 85347l37546 14018c-11202,21105 -26509,36020 -45819,44644 -19310,8623 -41755,10036 -67357,4136 -32194,-7416 -55433,-23219 -69730,-47429 -14307,-24126 -17329,-54174 -9077,-89988 8520,-37021 24663,-63623 48439,-79653 23807,-16102 50905,-20620 81334,-13616 29429,6777 51173,22312 65191,46676 14039,24374 16897,54752 8521,91133 -506,2197 -1341,5519 -2497,9882l-164473 -37877c-4147,24509 -1609,44664 7767,60343 9315,15669 23219,25664 41580,29893 13699,3146 26231,2228 37547,-2785 11367,-4992 21693,-14802 31028,-29377zm-108731 -88225l122976 28326c2651,-18960 1093,-33947 -4498,-45026 -8520,-17123 -22321,-27922 -41260,-32286 -17154,-3950 -32884,-1516 -47232,7283 -14276,8809 -24272,22713 -29986,41703zm177976 176738l54473 -307862 37846 6694 -54474 307863 -37845 -6695zm95527 16907l54474 -307863 37846 6694 -54474 307863 -37846 -6694zm277475 44829l-55897 -235689 40775 5251 30760 140811c3331,15173 6230,30873 8613,47108 4920,-11408 11449,-25024 19722,-40899l67595 -130733 39125 5034 -114023 213841 -36670 -4724zm189446 -246839l5570 -43303 38104 4900 -5570 43313 -38104 -4910zm-34318 266788l28913 -224775 38104 4900 -28903 224785 -38114 -4910zm86089 -56196l38352 -3208c949,15318 6014,27386 15132,36247 9098,8799 22446,13905 39857,15225 17639,1341 30976,-1227 40074,-7767 9036,-6457 13957,-14544 14689,-24210 650,-8623 -2672,-15751 -9923,-21249 -5106,-3826 -17845,-9097 -38197,-15967 -27469,-9181 -46387,-16742 -56877,-22714 -10428,-6055 -18082,-13791 -22972,-23364 -4909,-9489 -6973,-19784 -6127,-30821 764,-10088 3796,-19207 9016,-27417 5291,-8211 12079,-14844 20413,-19908 6292,-3899 14699,-6984 25159,-9253 10531,-2259 21610,-2950 33369,-2063 17700,1351 33039,5054 45995,11223 13048,6106 22383,13832 28108,23013 5653,9263 9180,21290 10470,36123l-37836 2383c-784,-11883 -5023,-21476 -12646,-28697 -7623,-7220 -18846,-11367 -33720,-12491 -17484,-1331 -30264,629 -38186,5859 -7902,5250 -12193,11779 -12791,19547 -371,4930 815,9541 3621,13770 2816,4302 7416,8087 13884,11275 3744,1743 14668,5859 33008,12357 26448,9242 44860,16618 55258,22012 10397,5385 18299,12770 23735,21940 5508,9253 7726,20373 6725,33432 -959,12708 -5570,24395 -13905,35081 -8324,10676 -19732,18567 -34194,23673 -14555,5096 -30677,6942 -48388,5591 -29315,-2218 -51276,-10026 -65738,-23312 -14462,-13368 -22889,-32101 -25365,-56310zm248212 -183010l3311 -43539 38310 2908 -3301 43540 -38320 -2909zm-20373 268212l17165 -225982 38320 2909 -17175 225982 -38310 -2909zm132002 9944l-35793 -856 7427 -312556 38413 907 -2651 111537c16700,-19846 37609,-29460 62777,-28862 13905,330 27077,3415 39383,9305 12316,5900 22312,14069 30151,24374 7757,10377 13802,22745 17969,37186 4250,14379 6127,29779 5745,46077 -928,38712 -11233,68451 -30862,89091 -19723,20733 -42962,30729 -69813,30089 -26695,-629 -47387,-12264 -62065,-34813l-681 28521zm2300 -114972c-639,27067 2589,46728 9655,58982 11615,20001 27675,30285 48264,30780 16803,392 31461,-6540 43963,-20805 12564,-14256 19196,-35794 19877,-64614 702,-29532 -4600,-51431 -15988,-65738 -11378,-14327 -25396,-21723 -41982,-22115 -16804,-402 -31461,6529 -43953,20795 -12574,14255 -19176,35143 -19836,62715zm211521 -149011l1031 -43653 38413 908 -1041 43653 -38403 -908zm-6396 268903l5385 -226559 38413 907 -5384 226570 -38414 -918zm96106 2280l7426 -312556 38424 907 -7427 312567 -38423 -918zm91494 -269037l-1031 -43654 38413 -907 1031 43653 -38413 908zm6375 268913l-5364 -226570 38413 -908 5364 226570 -38413 908zm179564 -38547l6045 33782c-10728,2506 -20372,3899 -28800,4095 -13904,330 -24725,-1589 -32544,-5849 -7746,-4250 -13265,-9872 -16555,-16999 -3312,-7128 -5189,-22229 -5736,-45294l-3094 -130526 -28387 670 -702 -29686 28377 -671 -1320 -56031 37866 -23962 1867 79085 38424 -918 712 29697 -38424 908 3146 132703c258,10986 1083,18031 2538,21125 1382,3105 3620,5519 6725,7345 3095,1743 7479,2589 13162,2455 4219,-103 9810,-743 16700,-1929zm39032 120500l-5209 -35401c8500,2063 15793,3053 22054,2909 8592,-207 15390,-1826 20424,-4776 5095,-2961 9221,-7076 12367,-12234 2311,-3909 6014,-13543 11037,-28944 681,-2135 1702,-5281 3198,-9469l-91391 -225260 41043 -970 50389 129702c6571,16370 12451,33699 17753,51915 4033,-17349 8871,-34493 14585,-51379l45180 -133270 38341 -908 -80169 232522c-8654,25034 -15451,42230 -20392,51740 -6550,12750 -14194,22177 -22848,28274 -8737,6106 -19217,9263 -31440,9551 -7427,176 -15752,-1155 -24922,-4002zm318209 -174953l37413 -8974c3270,15008 10098,26158 20444,33544 10336,7324 24292,10346 41704,9026 17639,-1341 30430,-5900 38444,-13740 7953,-7757 11594,-16494 10852,-26149 -650,-8633 -5024,-15163 -13018,-19516 -5632,-3001 -19021,-6292 -40177,-10005 -28542,-4910 -48388,-9521 -59662,-13853 -11213,-4395 -19949,-10893 -26231,-19609 -6293,-8644 -9882,-18505 -10728,-29543 -763,-10088 856,-19557 4776,-28459 3992,-8922 9686,-16504 17164,-22775 5632,-4807 13472,-9129 23477,-12946 10057,-3837 20909,-6189 32668,-7086 17701,-1351 33421,0 47160,4136 13822,4054 24220,10284 31265,18495 6984,8304 12296,19650 15813,34122l-37041 8077c-2569,-11625 -8211,-20465 -16845,-26448 -8623,-5983 -20341,-8386 -35215,-7251 -17484,1330 -29821,5198 -36856,11563 -7024,6385 -10284,13492 -9686,21259 372,4931 2239,9315 5663,13069 3435,3817 8541,6870 15421,9047 3961,1155 15390,3558 34494,7220 27551,5127 46861,9645 57950,13399 11099,3745 20021,9851 26788,18103 6839,8314 10707,18959 11708,32028 969,12698 -1826,24953 -8449,36774 -6611,11810 -16689,21341 -30223,28583 -13605,7230 -29263,11491 -46985,12842 -29305,2228 -52194,-2156 -68502,-13100 -16318,-11027 -27479,-28274 -33586,-51833zm248490 129268l-40002 -310968 34659 -4456 3796 29522c6684,-12451 14822,-22229 24405,-29264 9521,-7014 21631,-11501 36288,-13389 19197,-2465 36722,258 52648,8262 15916,7932 28748,20445 38558,37382 9748,17020 16030,36175 18784,57610 2950,22878 1495,44055 -4374,63520 -5869,19392 -16040,35009 -30512,46840 -14410,11770 -30316,18805 -47635,21033 -12708,1640 -24457,433 -35184,-3621 -10780,-4043 -19877,-9696 -27428,-17020l14101 109649 -38104 4900zm9283 -201659c3703,28799 12286,49336 25685,61632 13461,12285 28511,17402 45108,15266 16896,-2176 30408,-11181 40548,-27015 10222,-15844 13368,-38702 9521,-68657 -3683,-28583 -12275,-49192 -25870,-61900 -13596,-12709 -28501,-17990 -44819,-15896 -16164,2084 -29481,11501 -39961,28191 -10542,16762 -13925,39496 -10212,68379zm220299 83180l-54484 -307863 37835 -6694 19609 110783c13926,-23673 34257,-37835 61055,-42580 16411,-2899 31244,-2208 44582,2156 13265,4384 23518,11810 30780,22352 7262,10532 12801,26778 16648,48564l25004 141244 -37836 6704 -24972 -141109c-3342,-18846 -9862,-31895 -19485,-39053 -9686,-7159 -21920,-9418 -36815,-6788 -11109,1971 -21063,6685 -29862,14235 -8788,7530 -14348,16649 -16813,27356 -2404,10635 -2063,24684 1031,42178l21558 121821 -37835 6694zm373993 -145009l39888 -3827c-836,23880 -8066,43984 -21651,60199 -13585,16205 -33143,27294 -58745,33204 -32193,7427 -60013,3394 -83459,-12110 -23425,-15431 -39290,-41126 -47562,-76929 -8541,-37021 -5674,-67997 8685,-92826 14348,-24900 36732,-40827 67161,-47841 29429,-6797 55774,-2352 79055,13410 23281,15772 39156,41827 47552,78209 506,2197 1207,5549 2084,9974l-164453 37960c6994,23858 18103,40868 33400,50853 15225,10005 32111,12904 50472,8664 13688,-3156 24549,-9479 32533,-18938 8036,-9469 13028,-22807 15040,-40002zm-136386 -31708l122955 -28377c-5910,-18196 -13873,-31007 -23745,-38516 -15163,-11656 -32296,-15329 -51235,-10955 -17154,3961 -30223,13028 -39279,27221 -8974,14173 -11873,31049 -8696,50627zm238474 83428l-50967 -220825 33606 -7757 7809 33834c4972,-17660 10521,-29852 16679,-36505 6138,-6715 13585,-11037 22302,-13049 12625,-2919 26375,-1908 41239,2950l-5364 37609c-10253,-3012 -19918,-3466 -28995,-1372 -8160,1888 -14885,6055 -20208,12430 -5322,6374 -8365,14255 -9108,23621 -1124,14225 165,29233 3817,45046l26633 115374 -37443 8644zm270924 -144720l39652 -5849c371,23890 -5828,44334 -18568,61210 -12749,16885 -31718,28944 -56990,36144 -31771,9056 -59766,6436 -83965,-7861 -24178,-14224 -41332,-39073 -51400,-74423 -10408,-36536 -9128,-67615 3961,-93145 13070,-25591 34618,-42621 64645,-51183 29047,-8272 55588,-5178 79632,9387 24055,14565 41229,39795 51462,75692 619,2176 1485,5487 2578,9861l-162307 46253c8201,23466 20145,39898 35928,49089 15730,9222 32729,11264 50853,6096 13512,-3847 24044,-10707 31533,-20568 7550,-9861 11852,-23436 12986,-40703zm-137819 -24756l121367 -34576c-6829,-17876 -15431,-30254 -25674,-37258 -15741,-10883 -33029,-13678 -51720,-8345 -16927,4817 -29532,14544 -37846,29171 -8252,14616 -10284,31615 -6127,51008z"/>
 </g>
</svg>
