<?xml version="1.0" encoding="UTF-8"?>
<!DOCTYPE svg PUBLIC "-//W3C//DTD SVG 1.1//EN" "http://www.w3.org/Graphics/SVG/1.1/DTD/svg11.dtd">
<!-- Creator: CorelDRAW X8 -->
<svg xmlns="http://www.w3.org/2000/svg" xml:space="preserve" width="112.426mm" height="88.3392mm" version="1.1" style="shape-rendering:geometricPrecision; text-rendering:geometricPrecision; image-rendering:optimizeQuality; fill-rule:evenodd; clip-rule:evenodd"
viewBox="0 0 11542913 9069884"
 xmlns:xlink="http://www.w3.org/1999/xlink">
 <defs>
  <style type="text/css">
   <![CDATA[
    .str1 {stroke:black;stroke-width:20534.2}
    .str0 {stroke:red;stroke-width:20534.2}
    .str4 {stroke:black;stroke-width:20534.2;stroke-dasharray:41068.444912 61602.667368}
    .str3 {stroke:black;stroke-width:20534.2;stroke-dasharray:41068.444912 61602.667368}
    .str2 {stroke:blue;stroke-width:20534.2;stroke-dasharray:41068.444912 61602.667368}
    .fil4 {fill:none}
    .fil2 {fill:black}
    .fil3 {fill:#CCCCCC}
    .fil0 {fill:#F7F7F7}
    .fil1 {fill:red}
    .fil5 {fill:black;fill-rule:nonzero}
    .fil6 {fill:blue;fill-rule:nonzero}
    .fil7 {fill:red;fill-rule:nonzero}
   ]]>
  </style>
 </defs>
 <g id="Ebene_x0020_1">
  <metadata id="CorelCorpID_0Corel-Layer"/>
  <path class="fil0 str0" d="M4940103 2355768c1203480,0 2179091,975612 2179091,2179092 0,1203480 -975611,2179092 -2179091,2179092 -1203480,0 -2179092,-975612 -2179092,-2179092 0,-1203480 975612,-2179092 2179092,-2179092z"/>
  <circle class="fil1" cx="4940103" cy="4534860" r="95125"/>
  <circle class="fil2" cx="4160870" cy="2587291" r="95125"/>
  <circle class="fil3 str1" cx="1627310" cy="1464010" r="415553"/>
  <polygon class="fil3 str1" points="11201,3500592 805373,2512496 1811930,3260496 2301363,4534860 1396378,4996582 313208,4706341 "/>
  <polygon class="fil3 str1" points="9319282,2911866 6456586,1794496 7823292,3530582 8589753,3724508 "/>
  <polygon class="fil3 str1" points="10823044,5766153 11524309,2774204 9998965,4372711 9915401,5158895 "/>
  <circle class="fil4 str2" cx="4940103" cy="4534860" r="2638750"/>
  <circle class="fil4 str3" cx="4160870" cy="2587291" r="2430636"/>
  <path class="fil5" d="M1371204 4162287l-38245 0 0 -243546c-9200,8840 -21305,17608 -36223,26376 -14928,8758 -28399,15349 -40278,19703l0 -36952c21366,-9990 40063,-22166 56069,-36510 16006,-14271 27382,-28101 34046,-41571l24631 0 0 312500z"/>
  <path class="fil5" d="M8249018 3147835l0 36510 -206009 0c-298,-9200 1232,-18040 4486,-26582 5288,-13984 13768,-27824 25432,-41366 11663,-13543 28317,-29190 49980,-46941 33687,-27742 56572,-49693 68523,-65926 12033,-16222 18039,-31581 18039,-46068 0,-15134 -5431,-27886 -16294,-38317 -10873,-10359 -25062,-15575 -42526,-15575 -18471,0 -33245,5503 -44333,16520 -11079,10934 -16664,26150 -16808,45637l-39117 -3912c2679,-29271 12823,-51582 30359,-66941 17598,-15360 41141,-23030 70772,-23030 29846,0 53532,8255 70915,24847 17464,16581 26150,37157 26150,61644 0,12454 -2536,24702 -7680,36725 -5072,12095 -13542,24775 -25349,38101 -11879,13255 -31510,31582 -58893,54765 -22967,19271 -37741,32311 -44261,39190 -6520,6879 -11879,13768 -16161,20719l152775 0z"/>
  <path class="fil5" d="M1525385 1535067l38245 -5216c4425,21725 11807,37372 22310,46941 10503,9559 23399,14343 38687,14343 18111,0 33399,-6232 45709,-18696 12310,-12454 18470,-27886 18470,-46284 0,-17536 -5718,-32023 -17238,-43461 -11448,-11376 -26007,-17095 -43759,-17095 -7238,0 -16222,1448 -27012,4271l4271 -33470c2536,287 4640,431 6160,431 16366,0 31007,-4271 44118,-12742 13039,-8480 19559,-21519 19559,-39117 0,-13984 -4785,-25576 -14272,-34775 -9497,-9199 -21735,-13758 -36735,-13758 -14918,0 -27301,4702 -37229,14117 -9928,9426 -16304,23543 -19128,42383l-38245 -6951c4713,-25647 15288,-45565 31870,-59693 16519,-14127 37167,-21150 61797,-21150 16951,0 32598,3614 46870,10934 14343,7249 25277,17167 32813,29703 7608,12598 11376,25935 11376,40052 0,13409 -3624,25576 -10801,36582 -7238,11016 -17967,19785 -32084,26304 18398,4199 32670,13039 42885,26438 10134,13327 15206,30134 15206,50196 0,27167 -9918,50278 -29703,69180 -19846,18912 -44908,28327 -75186,28327 -27310,0 -49980,-8183 -68019,-24487 -18112,-16294 -28399,-37373 -30935,-63307z"/>
  <path class="fil5" d="M10400789 4704945l0 -74324 -135177 0 0 -35206 142128 -201666 31294 0 0 201666 42157 0 0 35206 -42157 0 0 74324 -38245 0zm0 -109530l0 -140023 -97579 140023 97579 0z"/>
  <g>
   <path class="fil6" d="M2492998 4524593l2447105 0 0 20534 -2447105 0 0 -20534zm191646 -92435l0 205404 -383281 -102702 383281 -102702z"/>
  </g>
  <path class="fil7" d="M4171086 6236130l31859 28266c-23214,26068 -48810,41777 -76860,47228 -28029,5463 -56449,771 -85186,-14117 -29723,-15400 -50771,-33984 -63122,-55802 -12383,-21756 -17434,-46643 -15257,-74641 2228,-28060 10103,-55227 23768,-81593 14908,-28758 33358,-50997 55463,-66726 22095,-15709 46161,-23881 72178,-24518 26037,-626 51212,5411 75525,18009 27659,14332 47239,33378 58717,57187 11551,23851 14446,50402 8635,79704l-40288 -10113c4035,-23358 2310,-42865 -5113,-58297 -7382,-15493 -20339,-27988 -38800,-37557 -21150,-10965 -41530,-15082 -61017,-12279 -19477,2782 -36602,11283 -51202,25431 -14682,14169 -26746,30360 -36181,48564 -12167,23470 -19385,45760 -21633,66787 -2280,21089 1560,39642 11478,55792 9898,16140 23225,28522 40022,37218 20452,10606 40750,13614 61007,9179 20277,-4497 38922,-17033 56007,-37722zm199223 112877l35729 17731c-13254,19744 -29939,32937 -49939,39498 -20010,6561 -42372,5657 -67116,-2813 -31109,-10637 -52506,-28676 -64169,-54108 -11695,-25349 -11602,-55412 236,-90022 12238,-35781 30945,-60463 56130,-73892 25216,-13502 52506,-15196 81921,-5134 28440,9723 48379,27331 59765,52896 11386,25565 11109,55935 -914,91090 -729,2125 -1899,5329 -3490,9528l-158956 -54354c-6622,23840 -6181,44056 1499,60535 7618,16458 20360,27783 38112,33850 13234,4528 25729,4898 37454,1099 11766,-3778 22998,-12434 33738,-25904zm-98616 -98492l118852 40647c4569,-18491 4569,-33501 165,-45042 -6684,-17823 -19231,-29928 -37537,-36181 -16581,-5678 -32403,-4877 -47506,2351 -15041,7269 -26366,20001 -33974,38225zm158257 192847l69416 -303352 37291 8532 -69416 303352 -37291 -8532zm93924 22546l53071 -306637 37690 6519 -53060 306638 -37701 -6520zm205558 -35164l38163 -3194c955,15247 5985,27260 15062,36079 9065,8768 22341,13840 39672,15165 17556,1334 30832,-1222 39887,-7732 8994,-6437 13892,-14486 14621,-24096 657,-8594 -2659,-15678 -9867,-21161 -5092,-3799 -17772,-9045 -38029,-15893 -27342,-9128 -46172,-16654 -56613,-22609 -10370,-6016 -17988,-13727 -22865,-23244 -4877,-9456 -6930,-19703 -6099,-30689 770,-10041 3779,-19117 8984,-27279 5267,-8183 12023,-14785 20319,-19826 6263,-3881 14630,-6951 25041,-9210 10483,-2248 21510,-2936 33214,-2043 17619,1335 32886,5031 45781,11171 12988,6078 22280,13758 27978,22906 5616,9219 9138,21181 10411,35955l-37660 2372c-780,-11838 -4990,-21376 -12577,-28563 -7598,-7187 -18758,-11315 -33563,-12444 -17403,-1314 -30124,626 -38009,5842 -7875,5215 -12146,11715 -12731,19446 -370,4918 801,9507 3604,13706 2802,4282 7382,8050 13819,11233 3717,1724 14600,5821 32845,12289 26335,9200 44662,16551 55000,21921 10350,5359 18214,12710 23625,21838 5483,9209 7690,20277 6705,33275 -966,12639 -5555,24282 -13851,34909 -8285,10626 -19641,18491 -34046,23573 -14476,5062 -30524,6899 -48152,5565 -29179,-2218 -51038,-9990 -65433,-23214 -14394,-13307 -22782,-31952 -25236,-56048zm233864 168606l-23645 -311176 34672 -2628 2248 29539c7290,-12034 15884,-21336 25781,-27824 9816,-6479 22095,-10319 36756,-11428 19210,-1458 36490,2156 51911,10945 15401,8696 27506,21807 36387,39149 8809,17423 14055,36787 15688,58224 1745,22906 -801,43882 -7639,62927 -6838,18964 -17762,33964 -32762,44981 -14929,10944 -31099,17115 -48430,18439 -12711,966 -24333,-841 -34785,-5421 -10514,-4589 -19261,-10677 -26387,-18337l8347 109715 -38142 2895zm19682 -199962c2187,28820 9651,49672 22331,62588 12752,12906 27434,18768 44056,17505 16900,-1283 30802,-9538 41705,-24754 10966,-15215 15288,-37772 13009,-67752 -2177,-28604 -9651,-49529 -22506,-62866 -12854,-13337 -27403,-19353 -43727,-18111 -16181,1222 -29898,9898 -41182,25945 -11345,16119 -15883,38543 -13686,67445zm214737 94098l-53071 -306648 37691 -6520 19096 110351c13943,-23522 34231,-37536 60936,-42156 16335,-2824 31109,-2074 44354,2320 13183,4405 23368,11838 30555,22351 7187,10524 12638,26715 16396,48410l24344 140680 -37681 6530 -24323 -140547c-3254,-18778 -9692,-31776 -19250,-38943 -9610,-7156 -21777,-9466 -36613,-6889 -11068,1910 -20996,6571 -29775,14045 -8778,7475 -14353,16520 -16838,27177 -2433,10565 -2145,24549 863,41972l21006 121337 -37690 6530zm364790 -159356l39457 -5914c421,23769 -5698,44138 -18348,60966 -12649,16838 -31499,28892 -56633,36110 -31612,9086 -59477,6540 -83605,-7629 -24087,-14097 -41222,-38799 -51325,-73954 -10452,-36345 -9241,-67290 3727,-92722 12946,-25504 34353,-42516 64220,-51099 28892,-8307 55320,-5278 79283,9158 23984,14446 41130,39508 51397,75217 627,2166 1499,5462 2598,9815l-161451 46407c8214,23348 20155,39662 35884,48790 15668,9137 32598,11129 50627,5944 13440,-3860 23902,-10719 31325,-20544 7495,-9836 11756,-23358 12844,-40545zm-137230 -24323l120710 -34703c-6837,-17772 -15431,-30072 -25637,-37023 -15688,-10791 -32906,-13532 -51499,-8183 -16838,4836 -29354,14549 -37598,29128 -8183,14559 -10175,31489 -5976,50781zm238721 62075l-83934 -209377 31869 -12783 12865 32085c2176,-18132 5770,-30965 10811,-38450 5000,-7547 11664,-12947 19929,-16253 11971,-4805 25647,-5914 41017,-3419l482 37814c-10544,-1386 -20123,-360 -28727,3090 -7742,3101 -13717,8234 -17968,15329 -4260,7084 -6047,15298 -5349,24621 1068,14158 4641,28717 10657,43717l43851 109396 -35503 14230zm235548 -193976l37464 -13717c5185,23214 3276,44395 -5739,63420 -9014,19025 -25062,34620 -48225,46736 -29138,15246 -56951,18347 -83430,9312 -26438,-8974 -48173,-29734 -65135,-62147 -17526,-33502 -22556,-64067 -14959,-91583 7557,-27587 25124,-48542 52660,-62947 26633,-13943 53133,-16284 79509,-6941 26386,9333 48224,30442 65453,63369 1037,1992 2556,5041 4507,9086l-148853 77876c12742,21212 27711,34806 44950,40586 17187,5811 34169,4364 50791,-4333 12382,-6488 21263,-15298 26571,-26417 5360,-11140 6818,-25236 4436,-42300zm-139325 3727l111296 -58225c-10268,-16048 -21151,-26376 -32547,-31130 -17536,-7423 -34960,-6653 -52096,2320 -15523,8122 -25842,20144 -30986,36089 -5092,15904 -3645,32886 4333,50946z"/>
  <path class="fil5" d="M4015036 2433244l119376 -311196 45278 0 126696 311196 -46870 0 -36006 -94314 -131039 0 -33759 94314 -43676 0zm89529 -127785l106049 0 -32454 -86274c-9774,-26222 -17167,-47886 -22311,-64981 -4271,20288 -9989,40206 -17166,59909l-34118 91346z"/>
  <path class="fil7" d="M5363118 4590343l41294 10432c-8614,33830 -24117,59549 -46510,77301 -22382,17741 -49764,26653 -82137,26653 -33470,0 -60709,-6807 -81716,-20503 -21006,-13614 -36941,-33389 -47885,-59252 -10935,-25934 -16438,-53676 -16438,-83379 0,-32382 6150,-60627 18542,-84755 12383,-24117 29991,-42444 52804,-54980 22824,-12536 47958,-18758 75340,-18758 31151,0 57301,7895 78451,23758 21222,15862 36007,38101 44334,66787l-40422 9559c-7166,-22598 -17670,-39118 -31366,-49405 -13686,-10360 -30935,-15493 -51726,-15493 -23830,0 -43820,5718 -59826,17166 -16017,11438 -27311,26869 -33758,46141 -6520,19343 -9785,39261 -9785,59764 0,26438 3840,49550 11520,69252 7679,19775 19630,34477 35863,44262 16222,9774 33748,14630 52660,14630 23039,0 42444,-6663 58389,-19918 15934,-13327 26725,-33040 32372,-59262z"/>
  <g>
   <path class="fil5" d="M2063761 3381709l2093423 -804007 7372 19179 -2093423 804007 -7372 -19179zm145773 -154992l73646 191738 -394627 41551 320981 -233289z"/>
  </g>
  <circle class="fil4 str4" cx="4940103" cy="4534860" r="4524757"/>
  <path class="fil5" d="M3598006 8540101l38153 7279c-2567,15545 -1971,29056 1745,40576 3738,11468 11541,22126 23409,32003 11890,9805 26366,17166 43348,22023 15124,4312 29066,5883 41921,4661 12854,-1232 23193,-4980 31089,-11243 7875,-6252 13183,-14014 15811,-23214 2659,-9332 2269,-18255 -1150,-26838 -3439,-8522 -10760,-16930 -21920,-25319 -7136,-5359 -23512,-15308 -49139,-29774 -25616,-14477 -43070,-26161 -52413,-35165 -12126,-11592 -20052,-23953 -23851,-37013 -3870,-13091 -3799,-26551 123,-40278 4333,-15185 12691,-28080 25001,-38727 12320,-10730 27629,-17126 46089,-19241 18399,-2136 37680,-308 57814,5442 22157,6324 40709,15452 55586,27464 14898,11941 24929,26181 30073,42711 5164,16469 5544,33605 1232,51367l-38872 -7947c3378,-19446 545,-35699 -8470,-48666 -9004,-13050 -25052,-22824 -48040,-29385 -23963,-6848 -42701,-7454 -56140,-1796 -13440,5657 -21962,14661 -25504,27064 -3059,10729 -1684,20688 4056,29856 5688,9097 23491,21941 53604,38358 30093,16510 50371,29159 60792,38009 15062,12968 25062,26746 29826,41438 4794,14631 4866,29939 287,45966 -4548,15945 -13337,29559 -26479,41028 -13142,11468 -29292,18675 -48584,21612 -19292,2926 -39559,1355 -60945,-4754 -27034,-7710 -48533,-18142 -64529,-31222 -16078,-13111 -26972,-29025 -32824,-47876 -5934,-18789 -6253,-38245 -1099,-58399zm425932 141573l37382 13943c-11150,21006 -26376,35863 -45596,44446 -19220,8594 -41551,10011 -67034,4148 -32054,-7372 -55196,-23101 -69437,-47187 -14240,-24005 -17259,-53913 -9065,-89571 8470,-36848 24528,-63327 48193,-79293 23687,-16037 50658,-20544 80946,-13583 29292,6735 50946,22187 64909,46438 13984,24251 16838,54488 8511,90700 -503,2197 -1334,5503 -2484,9836l-163720 -37640c-4117,24405 -1591,44467 7752,60063 9282,15585 23122,25534 41397,29734 13635,3141 26109,2207 37372,-2783 11315,-4969 21592,-14733 30874,-29251zm-108257 -87773l122415 28142c2628,-18861 1078,-33789 -4497,-44806 -8491,-17043 -22218,-27783 -41069,-32115 -17084,-3933 -32741,-1499 -47013,7258 -14209,8769 -24158,22619 -29836,41521zm327778 175136c-16079,9456 -31038,15421 -44816,18070 -13779,2649 -28040,2649 -42886,31 -24395,-4292 -42105,-13522 -53153,-27742 -11037,-14158 -14918,-30514 -11663,-48994 1899,-10843 6150,-20319 12659,-28440 6571,-8111 14323,-14097 23265,-18122 9015,-4004 18728,-6550 29282,-7556 7762,-627 19282,-514 34518,256 31027,1797 54262,1386 69478,-1078 1047,-5113 1704,-8378 1940,-9733 2690,-15267 1017,-26664 -5010,-34200 -8132,-10185 -21736,-16920 -40709,-20257 -17773,-3131 -31448,-2310 -40966,2413 -9569,4723 -17711,14610 -24569,29734l-35915 -11613c6130,-15174 13871,-26981 23286,-35329 9415,-8357 21849,-13809 37331,-16519 15401,-2660 32773,-2321 51890,1047 18984,3337 34077,8265 45196,14867 11048,6571 18840,13686 23224,21448 4364,7751 6777,17002 7249,27752 82,6632 -1314,18306 -4240,34928l-8799 49940c-6140,34887 -9230,57064 -9312,66684 -144,9610 1427,19087 4476,28451l-39374 -6931c-2382,-8583 -3183,-18285 -2382,-29107zm11704 -84005c-14682,3162 -36058,4250 -64128,3275 -15945,-524 -27372,41 -34282,1694 -6910,1643 -12546,4856 -16982,9517 -4425,4734 -7259,10329 -8409,16910 -1745,9908 565,18923 7033,26900 6458,7978 17003,13296 31623,15873 14487,2546 27947,1674 40411,-2680 12383,-4291 22249,-11447 29457,-21437 5554,-7773 9743,-19908 12649,-36387l2628 -13665zm76275 125885l28973 -223711 34046 4415 -4435 34272c10749,-14754 20154,-24200 28214,-28276 8049,-4148 16499,-5595 25329,-4456 12782,1664 25267,7362 37464,17054l-18049 33235c-8522,-6366 -17382,-10144 -26572,-11335 -8275,-1068 -15985,493 -23172,4599 -7177,4107 -12742,10401 -16684,18882 -5976,12875 -9970,27331 -12044,43358l-15144 116881 -37926 -4918zm297017 -51305l36879 8029c-6068,25318 -17998,44549 -35924,57783 -17937,13234 -39210,18891 -63698,17033 -30698,-2341 -54641,-14261 -71746,-35750 -17187,-21510 -24323,-50966 -21479,-88379 1848,-24261 7505,-45134 16910,-62722 9394,-17526 22639,-30237 39795,-38019 17085,-7854 35268,-11048 54632,-9569 24343,1848 43881,9497 58399,23029 14590,13532 23234,31849 25842,54847l-37269 2834c-2393,-15360 -7742,-27177 -16192,-35514 -8377,-8276 -18922,-12927 -31632,-13892 -19221,-1458 -35350,4220 -48451,17023 -13029,12896 -20678,34108 -22947,63862 -2290,30195 1828,52516 12351,67054 10596,14528 25155,22547 43718,23953 15031,1140 27875,-2464 38532,-10873 10740,-8336 18163,-21940 22280,-40729zm63451 89016l7094 -311114 38235 862 -2546 111963c18213,-20380 40832,-30216 67917,-29600 16581,380 30924,3953 43080,10832 12085,6868 20648,16119 25668,27824 5021,11714 7249,28645 6746,50668l-3255 142733 -38235 -873 3245 -142589c441,-19056 -3368,-33060 -11366,-41931 -8049,-8881 -19538,-13481 -34600,-13830 -11232,-257 -21869,2403 -31931,8050 -10041,5626 -17259,13439 -21756,23409 -4425,9897 -6848,23675 -7249,41355l-2813 123113 -38234 -872zm345673 -63964l37659 -6941c2454,15082 8645,26540 18543,34426 9877,7833 23594,11571 40976,11181 17598,-401 30555,-4251 38933,-11623 8316,-7279 12392,-15770 12177,-25411 -196,-8614 -4189,-15339 -11910,-20082 -5432,-3286 -18563,-7259 -39395,-12075 -28112,-6396 -47588,-12033 -58564,-16930 -10924,-4969 -19261,-11889 -25041,-20883 -5791,-8933 -8840,-18923 -9097,-29939 -226,-10072 1879,-19395 6253,-28040 4435,-8655 10513,-15883 18275,-21725 5842,-4476 13871,-8347 24015,-11622 10205,-3275 21109,-5041 32844,-5308 17660,-401 33225,1776 46664,6612 13512,4764 23522,11499 30093,20041 6499,8624 11181,20185 13902,34754l-37249 6068c-1941,-11694 -7074,-20781 -15329,-27187 -8265,-6407 -19774,-9415 -34621,-9076 -17454,400 -29918,3593 -37249,9548 -7320,5965 -10934,12854 -10760,20606 113,4928 1736,9384 4939,13296 3214,3984 8131,7279 14856,9805 3871,1366 15103,4364 33902,9004 27106,6571 46069,12075 56890,16397 10822,4312 19375,10852 25658,19415 6355,8624 9641,19415 9939,32444 287,12680 -3132,24713 -10339,36110 -7198,11386 -17732,20328 -31562,26807 -13911,6468 -29702,9877 -47372,10277 -29251,657 -51767,-4918 -67404,-16663 -15626,-11818 -25811,-29549 -30626,-53286zm240271 142569l-23646 -311176 34672 -2628 2249 29538c7290,-12033 15883,-21335 25770,-27824 9826,-6478 22095,-10318 36767,-11427 19210,-1468 36479,2156 51910,10945 15401,8696 27506,21807 36387,39148 8809,17424 14056,36777 15688,58225 1746,22906 -801,43882 -7638,62917 -6838,18974 -17763,33974 -32763,44990 -14928,10945 -31099,17116 -48430,18440 -12710,965 -24333,-842 -34785,-5421 -10513,-4589 -19261,-10678 -26386,-18347l8347 109724 -38142 2896zm19682 -199963c2187,28820 9651,49673 22331,62589 12751,12905 27433,18768 44056,17505 16899,-1283 30801,-9538 41705,-24754 10965,-15216 15288,-37773 13008,-67753 -2176,-28604 -9651,-49528 -22505,-62865 -12855,-13337 -27403,-19354 -43728,-18121 -16181,1232 -29908,9907 -41181,25955 -11345,16119 -15884,38543 -13686,67444zm214685 92363l-53964 -306483 37670 -6633 19415 110290c13881,-23563 34128,-37629 60812,-42332 16325,-2875 31099,-2166 44364,2187 13194,4374 23399,11766 30617,22270 7218,10493 12721,26663 16530,48358l24764 140608 -37670 6632 -24733 -140464c-3296,-18768 -9775,-31756 -19354,-38892 -9641,-7136 -21807,-9394 -36643,-6786 -11058,1950 -20976,6632 -29734,14137 -8747,7495 -14291,16561 -16756,27218 -2402,10576 -2073,24559 996,41972l21346 121286 -37660 6632zm372193 -144530l39713 -3809c-842,23768 -8029,43779 -21561,59919 -13522,16130 -32988,27167 -58471,33050 -32044,7392 -59734,3367 -83071,-12064 -23306,-15360 -39108,-40935 -47332,-76582 -8501,-36839 -5646,-67681 8645,-92384 14282,-24785 36562,-40627 66850,-47619 29292,-6756 55514,-2341 78687,13358 23173,15688 38974,41633 47331,77845 503,2187 1201,5524 2064,9928l-163689 37773c6972,23748 18019,40678 33245,50617 15165,9959 31962,12844 50237,8635 13625,-3153 24436,-9436 32383,-18861 8008,-9415 12967,-22690 14969,-39806zm-135741 -31571l122383 -28235c-5883,-18121 -13809,-30863 -23634,-38337 -15093,-11612 -32147,-15257 -50987,-10914 -17084,3943 -30093,12978 -39107,27095 -8933,14107 -11818,30904 -8655,50391zm237796 84734l-61931 -216903 33009 -9425 9486 33225c4035,-17804 8933,-30206 14713,-37126 5760,-6992 12947,-11674 21500,-14118 12402,-3542 26129,-3244 41160,832l-3419 37660c-10349,-2475 -19979,-2434 -28891,113 -8019,2289 -14487,6776 -19456,13388 -4970,6612 -7588,14600 -7855,23943 -390,14199 1664,29046 6099,44590l32362 113328 -36777 10493zm267489 -152312l39457 -5853c390,23779 -5770,44139 -18450,60946 -12680,16807 -31551,28830 -56695,36007 -31623,9025 -59488,6437 -83585,-7783 -24066,-14137 -41161,-38871 -51202,-74046 -10380,-36356 -9117,-67301 3891,-92712 12988,-25483 34436,-42455 64313,-50987 28913,-8254 55330,-5184 79273,9302 23953,14487 41058,39580 51263,75310 617,2166 1479,5462 2578,9815l-161533 46130c8173,23348 20072,39693 35791,48841 15658,9168 32578,11191 50617,6037 13440,-3840 23922,-10678 31366,-20493 7516,-9816 11787,-23327 12916,-40514zm-137189 -24569l120772 -34488c-6807,-17782 -15370,-30103 -25575,-37064 -15668,-10821 -32876,-13594 -51480,-8286 -16848,4816 -29384,14498 -37659,29067 -8194,14548 -10216,31468 -6058,50771z"/>
 </g>
</svg>
