<?xml version="1.0" encoding="UTF-8"?>
<!DOCTYPE svg PUBLIC "-//W3C//DTD SVG 1.1//EN" "http://www.w3.org/Graphics/SVG/1.1/DTD/svg11.dtd">
<!-- Creator: CorelDRAW X8 -->
<svg xmlns="http://www.w3.org/2000/svg" xml:space="preserve" width="112.426mm" height="86.9736mm" version="1.1" style="shape-rendering:geometricPrecision; text-rendering:geometricPrecision; image-rendering:optimizeQuality; fill-rule:evenodd; clip-rule:evenodd"
viewBox="0 0 1154291 892968"
 xmlns:xlink="http://www.w3.org/1999/xlink">
 <defs>
  <style type="text/css">
   <![CDATA[
    .str1 {stroke:black;stroke-width:2053.42}
    .str0 {stroke:red;stroke-width:2053.42}
    .str4 {stroke:black;stroke-width:2053.42;stroke-dasharray:4106.844491 6160.266737}
    .str3 {stroke:black;stroke-width:2053.42;stroke-dasharray:4106.844491 6160.266737}
    .str2 {stroke:blue;stroke-width:2053.42;stroke-dasharray:4106.844491 6160.266737}
    .fil4 {fill:none}
    .fil2 {fill:black}
    .fil3 {fill:#CCCCCC}
    .fil0 {fill:#F7F7F7}
    .fil1 {fill:red}
    .fil5 {fill:black;fill-rule:nonzero}
    .fil7 {fill:blue;fill-rule:nonzero}
    .fil6 {fill:red;fill-rule:nonzero}
   ]]>
  </style>
 </defs>
 <g id="Ebene_x0020_1">
  <metadata id="CorelCorpID_0Corel-Layer"/>
  <path class="fil0 str0" d="M494010 228575c120348,0 217909,97561 217909,217909 0,120348 -97561,217909 -217909,217909 -120348,0 -217909,-97561 -217909,-217909 0,-120348 97561,-217909 217909,-217909z"/>
  <circle class="fil1" cx="494010" cy="446484" r="9512"/>
  <circle class="fil2" cx="416087" cy="251727" r="9512"/>
  <circle class="fil3 str1" cx="162731" cy="139399" r="41555"/>
  <polygon class="fil3 str1" points="1120,343057 80537,244247 181193,319047 230136,446484 139638,492656 31321,463632 "/>
  <polygon class="fil3 str1" points="931928,284184 645659,172447 782329,346056 858975,365449 "/>
  <polygon class="fil3 str1" points="1082304,569613 1152431,270418 999897,430269 991540,508887 "/>
  <circle class="fil4 str2" cx="494010" cy="446484" r="410143"/>
  <circle class="fil4 str3" cx="416087" cy="251727" r="235784"/>
  <path class="fil5" d="M137120 409227l-3824 0 0 -24355c-920,884 -2131,1761 -3622,2638 -1493,875 -2840,1534 -4028,1970l0 -3695c2136,-999 4006,-2217 5607,-3651 1600,-1427 2738,-2810 3404,-4157l2463 0 0 31250z"/>
  <path class="fil5" d="M824902 307781l0 3651 -20601 0c-30,-920 123,-1804 449,-2658 528,-1398 1376,-2782 2543,-4136 1166,-1355 2831,-2919 4998,-4695 3368,-2774 5657,-4969 6852,-6592 1203,-1622 1804,-3158 1804,-4607 0,-1513 -543,-2789 -1629,-3832 -1088,-1036 -2507,-1557 -4253,-1557 -1847,0 -3325,550 -4433,1652 -1108,1093 -1667,2615 -1681,4564l-3912 -392c268,-2927 1282,-5158 3036,-6694 1760,-1536 4114,-2303 7077,-2303 2985,0 5353,826 7092,2485 1746,1658 2615,3716 2615,6164 0,1246 -254,2471 -768,3673 -507,1209 -1355,2477 -2535,3810 -1188,1325 -3151,3158 -5889,5476 -2297,1928 -3775,3232 -4427,3919 -652,688 -1188,1377 -1616,2072l15278 0z"/>
  <path class="fil5" d="M152538 146504l3825 -521c442,2172 1181,3737 2231,4694 1050,956 2340,1434 3869,1434 1811,0 3340,-623 4571,-1869 1231,-1246 1847,-2789 1847,-4629 0,-1753 -572,-3202 -1724,-4346 -1145,-1137 -2601,-1709 -4376,-1709 -724,0 -1622,145 -2701,427l427 -3347c253,29 464,43 616,43 1636,0 3100,-427 4412,-1274 1304,-848 1955,-2152 1955,-3912 0,-1398 -478,-2558 -1427,-3477 -949,-920 -2173,-1376 -3673,-1376 -1492,0 -2730,470 -3723,1411 -993,943 -1631,2355 -1913,4239l-3824 -695c471,-2565 1528,-4557 3187,-5970 1652,-1412 3716,-2115 6179,-2115 1695,0 3260,362 4687,1094 1435,725 2528,1716 3282,2970 760,1260 1137,2594 1137,4005 0,1341 -362,2558 -1080,3658 -724,1102 -1797,1979 -3208,2631 1840,420 3267,1304 4288,2644 1014,1332 1521,3013 1521,5019 0,2717 -992,5028 -2970,6918 -1985,1891 -4491,2833 -7519,2833 -2731,0 -4998,-818 -6802,-2449 -1811,-1629 -2840,-3737 -3094,-6331z"/>
  <path class="fil5" d="M1040079 463492l0 -7432 -13518 0 0 -3521 14213 -20166 3129 0 0 20166 4216 0 0 3521 -4216 0 0 7432 -3824 0zm0 -10953l0 -14002 -9758 14002 9758 0z"/>
  <path class="fil6" d="M417109 616611l3185 2826c-2321,2607 -4881,4178 -7685,4723 -2803,546 -5645,77 -8519,-1411 -2972,-1541 -5077,-3399 -6312,-5581 -1239,-2175 -1744,-4664 -1526,-7464 223,-2806 1010,-5522 2377,-8159 1491,-2876 3336,-5100 5546,-6673 2210,-1571 4616,-2388 7218,-2451 2604,-63 5121,541 7552,1800 2766,1434 4724,3338 5872,5719 1155,2385 1445,5040 864,7971l-4029 -1012c403,-2336 231,-4286 -512,-5829 -738,-1550 -2033,-2799 -3879,-3756 -2115,-1097 -4154,-1508 -6102,-1228 -1948,278 -3660,1128 -5120,2543 -1469,1417 -2675,3036 -3619,4856 -1216,2347 -1938,4576 -2163,6679 -228,2109 156,3964 1148,5579 990,1614 2322,2853 4002,3722 2045,1061 4075,1362 6101,918 2028,-450 3892,-1703 5601,-3772zm19922 11288l3573 1773c-1326,1974 -2994,3293 -4994,3949 -2001,656 -4237,566 -6712,-281 -3111,-1064 -5250,-2868 -6417,-5411 -1169,-2535 -1160,-5541 24,-9002 1224,-3578 3094,-6046 5613,-7389 2522,-1350 5251,-1520 8192,-513 2844,972 4838,2733 5977,5289 1138,2557 1111,5594 -92,9109 -73,213 -190,533 -349,953l-15895 -5435c-663,2384 -618,4405 150,6053 761,1646 2035,2778 3811,3385 1323,453 2573,490 3745,110 1177,-378 2300,-1243 3374,-2590zm-9862 -9850l11886 4065c456,-1849 456,-3350 16,-4504 -668,-1783 -1923,-2993 -3754,-3618 -1658,-568 -3240,-488 -4750,235 -1504,727 -2637,2000 -3398,3822zm15826 19285l6942 -30335 3729 853 -6942 30335 -3729 -853zm9392 2255l5307 -30664 3770 652 -5307 30664 -3770 -652zm20556 -3517l3816 -319c96,1525 599,2726 1507,3608 906,877 2234,1384 3967,1516 1756,134 3083,-122 3989,-773 899,-644 1389,-1449 1462,-2410 65,-859 -266,-1567 -987,-2116 -509,-380 -1777,-904 -3803,-1589 -2734,-913 -4617,-1665 -5661,-2261 -1037,-601 -1799,-1373 -2287,-2324 -487,-946 -693,-1971 -610,-3069 77,-1004 378,-1912 899,-2728 527,-818 1202,-1479 2032,-1983 626,-388 1463,-695 2504,-921 1048,-225 2151,-293 3321,-204 1762,133 3289,503 4578,1117 1299,608 2228,1376 2798,2291 562,922 914,2118 1041,3595l-3766 237c-78,-1183 -499,-2137 -1257,-2856 -760,-719 -1876,-1131 -3357,-1244 -1740,-132 -3012,62 -3801,584 -787,521 -1214,1171 -1273,1944 -37,492 80,951 361,1371 280,428 738,805 1382,1123 371,173 1459,583 3284,1229 2633,920 4466,1655 5500,2192 1035,536 1821,1271 2363,2184 548,921 769,2028 670,3328 -97,1264 -555,2428 -1385,3491 -829,1062 -1964,1849 -3405,2357 -1447,506 -3052,690 -4815,556 -2918,-221 -5104,-999 -6543,-2321 -1440,-1331 -2278,-3195 -2524,-5605zm23387 16861l-2365 -31118 3467 -263 225 2954c729,-1203 1588,-2133 2578,-2782 982,-648 2210,-1032 3676,-1143 1921,-146 3649,216 5191,1095 1540,869 2750,2180 3639,3914 880,1743 1405,3679 1568,5823 175,2291 -80,4388 -763,6293 -684,1896 -1777,3396 -3277,4498 -1493,1094 -3110,1711 -4843,1844 -1271,96 -2433,-85 -3478,-542 -1052,-459 -1926,-1068 -2639,-1834l835 10971 -3814 290zm1968 -19996c219,2882 965,4967 2233,6258 1275,1291 2743,1877 4406,1751 1689,-128 3080,-954 4170,-2475 1097,-1522 1529,-3778 1301,-6776 -218,-2860 -965,-4953 -2251,-6286 -1285,-1334 -2740,-1936 -4372,-1811 -1619,122 -2990,989 -4119,2594 -1134,1612 -1588,3854 -1368,6745zm21473 9409l-5307 -30664 3769 -652 1910 11035c1394,-2352 3423,-3754 6094,-4216 1633,-282 3111,-207 4435,232 1318,441 2337,1184 3056,2235 718,1053 1263,2672 1639,4841l2435 14068 -3768 653 -2433 -14054c-325,-1878 -969,-3178 -1925,-3895 -961,-715 -2177,-946 -3661,-689 -1107,191 -2100,657 -2978,1405 -877,747 -1435,1652 -1683,2718 -244,1056 -215,2454 86,4197l2101 12133 -3770 653zm36480 -15935l3945 -592c42,2377 -570,4414 -1835,6097 -1264,1684 -3150,2889 -5663,3611 -3161,909 -5948,654 -8360,-763 -2409,-1410 -4123,-3880 -5133,-7395 -1045,-3635 -924,-6729 373,-9272 1294,-2551 3435,-4252 6422,-5110 2889,-831 5532,-528 7928,915 2399,1445 4113,3951 5140,7522 62,217 150,546 260,982l-16145 4640c821,2335 2015,3967 3588,4879 1567,914 3260,1113 5063,595 1344,-386 2390,-1072 3132,-2055 750,-983 1176,-2335 1285,-4054zm-13723 -2432l12071 -3471c-684,-1777 -1544,-3007 -2564,-3702 -1569,-1079 -3291,-1353 -5150,-818 -1684,483 -2936,1455 -3760,2912 -818,1456 -1017,3149 -597,5079zm23872 6207l-8394 -20938 3187 -1278 1287 3209c217,-1814 577,-3097 1081,-3845 500,-755 1166,-1295 1993,-1626 1197,-480 2564,-591 4101,-342l49 3782c-1055,-139 -2013,-36 -2873,309 -774,310 -1372,823 -1797,1533 -426,708 -605,1529 -535,2462 107,1416 464,2871 1066,4371l4385 10940 -3550 1423zm23554 -19398l3747 -1371c518,2321 327,4439 -574,6342 -902,1902 -2506,3462 -4823,4673 -2913,1525 -5695,1835 -8343,932 -2643,-898 -4817,-2974 -6513,-6215 -1753,-3350 -2256,-6407 -1496,-9158 756,-2759 2512,-4855 5266,-6295 2663,-1394 5313,-1629 7951,-694 2639,933 4822,3044 6545,6337 104,199 256,504 451,908l-14885 7788c1274,2121 2771,3480 4495,4058 1718,582 3416,437 5079,-433 1238,-649 2126,-1530 2657,-2642 536,-1114 682,-2523 443,-4230zm-13932 373l11129 -5822c-1026,-1605 -2115,-2638 -3254,-3113 -1754,-743 -3496,-666 -5210,232 -1552,812 -2584,2014 -3098,3609 -510,1590 -365,3288 433,5094z"/>
  <path class="fil5" d="M401504 236322l11937 -31119 4528 0 12670 31119 -4687 0 -3601 -9431 -13104 0 -3376 9431 -4367 0zm8953 -12778l10604 0 -3245 -8628c-977,-2622 -1717,-4788 -2231,-6498 -427,2029 -999,4021 -1717,5991l-3411 9135z"/>
  <path class="fil6" d="M536312 452032l4129 1043c-861,3383 -2412,5955 -4651,7730 -2238,1775 -4976,2666 -8213,2666 -3348,0 -6071,-681 -8172,-2051 -2101,-1361 -3694,-3338 -4789,-5925 -1093,-2593 -1643,-5367 -1643,-8338 0,-3238 615,-6062 1854,-8475 1238,-2412 2999,-4245 5280,-5498 2283,-1254 4796,-1876 7534,-1876 3115,0 5730,790 7845,2376 2123,1586 3601,3810 4434,6679l-4043 955c-716,-2259 -1766,-3911 -3136,-4940 -1369,-1036 -3094,-1549 -5173,-1549 -2383,0 -4382,571 -5982,1716 -1602,1144 -2731,2687 -3376,4614 -652,1935 -979,3926 -979,5977 0,2644 384,4955 1152,6925 768,1977 1963,3448 3587,4426 1622,978 3374,1463 5266,1463 2304,0 4244,-666 5839,-1992 1593,-1332 2672,-3304 3237,-5926z"/>
  <circle class="fil4 str4" cx="494010" cy="446484" r="445457"/>
  <path class="fil5" d="M361872 840798l3755 716c-250,1530 -193,2860 174,3995 366,1128 1134,2179 2303,3150 1171,965 2595,1690 4269,2168 1487,425 2860,580 4126,459 1266,-121 2282,-490 3060,-1107 776,-616 1298,-1378 1557,-2284 262,-919 224,-1798 -113,-2643 -339,-839 -1059,-1666 -2159,-2493 -701,-526 -2314,-1506 -4836,-2931 -2522,-1425 -4241,-2575 -5159,-3461 -1195,-1142 -1974,-2358 -2350,-3645 -381,-1287 -374,-2614 12,-3964 427,-1495 1250,-2765 2461,-3814 1215,-1055 2722,-1685 4539,-1893 1810,-210 3710,-31 5691,536 2182,622 4008,1521 5473,2704 1467,1176 2454,2577 2960,4204 509,1622 546,3308 121,5057l-3827 -782c333,-1914 55,-3515 -833,-4792 -887,-1284 -2466,-2247 -4729,-2892 -2360,-674 -4204,-734 -5527,-178 -1324,558 -2162,1445 -2511,2665 -302,1057 -167,2037 399,2940 559,894 2313,2159 5277,3777 2963,1624 4958,2870 5985,3741 1482,1277 2467,2633 2936,4080 472,1440 479,2947 29,4524 -449,1571 -1314,2911 -2609,4039 -1293,1130 -2883,1839 -4781,2128 -1901,288 -3896,133 -6001,-467 -2661,-760 -4778,-1788 -6353,-3075 -1583,-1291 -2656,-2858 -3231,-4713 -584,-1850 -615,-3765 -108,-5749zm41933 13939l3679 1374c-1096,2067 -2595,3530 -4489,4376 -1891,845 -4089,983 -6598,406 -3155,-726 -5434,-2273 -6836,-4645 -1402,-2364 -1698,-5308 -892,-8817 834,-3628 2415,-6236 4744,-7808 2332,-1578 4988,-2022 7969,-1336 2884,663 5015,2184 6391,4572 1375,2387 1657,5364 836,8928 -49,217 -130,541 -243,969l-16118 -3705c-406,2402 -156,4376 763,5912 913,1535 2276,2514 4076,2928 1342,308 2570,218 3677,-274 1116,-490 2127,-1451 3041,-2880zm-10658 -8641l12052 2771c258,-1858 105,-3327 -443,-4411 -836,-1678 -2188,-2736 -4043,-3163 -1682,-386 -3222,-148 -4628,715 -1400,864 -2378,2227 -2938,4088zm32270 17243c-1583,931 -3056,1519 -4413,1780 -1356,260 -2760,259 -4221,2 -2402,-423 -4148,-1330 -5233,-2731 -1087,-1393 -1470,-3004 -1150,-4822 188,-1067 606,-2001 1246,-2800 648,-799 1411,-1389 2291,-1785 888,-394 1845,-645 2883,-744 764,-62 1898,-50 3398,26 3055,176 5342,136 6840,-106 104,-504 168,-826 191,-959 265,-1503 101,-2625 -493,-3368 -801,-1002 -2140,-1665 -4008,-1993 -1749,-309 -3096,-227 -4033,238 -942,464 -1743,1438 -2419,2927l-3536 -1144c604,-1494 1367,-2657 2293,-3477 927,-823 2151,-1360 3676,-1628 1516,-260 3226,-228 5108,103 1868,330 3354,815 4449,1464 1088,648 1856,1348 2287,2112 429,763 667,1674 713,2731 9,654 -129,1803 -417,3440l-866 4915c-605,3436 -909,5619 -917,6566 -14,947 141,1878 442,2801l-3877 -683c-235,-845 -313,-1799 -234,-2865zm1151 -8269c-1445,310 -3549,418 -6313,323 -1570,-52 -2694,3 -3374,165 -681,164 -1237,479 -1672,938 -436,466 -714,1017 -828,1663 -173,977 55,1864 692,2649 636,785 1673,1309 3114,1563 1426,251 2751,165 3978,-263 1218,-422 2190,-1129 2899,-2111 548,-765 960,-1960 1246,-3582l258 -1345zm7510 12393l2851 -22024 3352 434 -437 3373c1059,-1452 1985,-2382 2777,-2782 794,-408 1626,-552 2495,-440 1258,164 2488,725 3687,1679l-1775 3271c-839,-626 -1712,-998 -2618,-1115 -812,-105 -1573,48 -2280,454 -707,403 -1254,1024 -1642,1857 -590,1269 -983,2692 -1187,4269l-1490 11508 -3733 -484zm29241 -5052l3630 791c-597,2493 -1770,4385 -3537,5689 -1765,1303 -3859,1859 -6270,1676 -3022,-230 -5379,-1403 -7064,-3520 -1691,-2116 -2393,-5016 -2114,-8700 182,-2388 739,-4443 1664,-6174 925,-1725 2229,-2977 3919,-3743 1680,-774 3472,-1088 5377,-944 2397,183 4320,937 5750,2268 1436,1333 2287,3136 2544,5401l-3669 278c-235,-1512 -763,-2675 -1595,-3497 -824,-813 -1862,-1272 -3114,-1366 -1891,-144 -3479,414 -4769,1676 -1284,1268 -2036,3357 -2259,6287 -225,2972 180,5169 1216,6600 1042,1432 2478,2220 4305,2359 1480,112 2742,-242 3793,-1071 1057,-820 1788,-2160 2193,-4010zm6246 8763l702 -30629 3763 86 -252 11022c1794,-2006 4021,-2975 6687,-2914 1632,37 3044,390 4241,1067 1190,676 2032,1587 2527,2740 494,1152 712,2819 663,4987l-321 14052 -3764 -86 321 -14038c42,-1875 -332,-3253 -1119,-4128 -793,-873 -1924,-1327 -3406,-1361 -1106,-26 -2153,236 -3143,792 -990,554 -1700,1322 -2144,2305 -434,973 -674,2330 -714,4071l-277 12120 -3764 -86zm34030 -6296l3708 -683c240,1485 851,2612 1826,3389 972,770 2322,1139 4033,1100 1733,-40 3008,-419 3833,-1144 819,-718 1220,-1554 1198,-2503 -19,-848 -412,-1509 -1172,-1976 -535,-324 -1828,-716 -3879,-1189 -2768,-629 -4685,-1185 -5765,-1667 -1074,-488 -1896,-1169 -2466,-2055 -569,-878 -870,-1864 -894,-2948 -23,-990 183,-1908 615,-2760 437,-851 1033,-1563 1798,-2137 575,-442 1366,-824 2364,-1146 1005,-322 2078,-496 3233,-523 1740,-40 3272,175 4596,651 1329,469 2314,1132 2962,1974 639,848 1101,1985 1368,3420l-3666 598c-191,-1152 -696,-2046 -1509,-2677 -814,-630 -1948,-926 -3410,-893 -1718,39 -2945,353 -3667,941 -720,587 -1076,1266 -1058,2028 11,485 170,924 486,1309 316,392 800,716 1463,965 381,134 1486,430 3337,887 2669,646 4535,1188 5601,1613 1065,425 1908,1068 2526,1911 626,848 949,1911 978,3195 29,1247 -308,2432 -1016,3554 -711,1121 -1746,2002 -3108,2639 -1370,637 -2924,972 -4663,1012 -2881,66 -5097,-483 -6636,-1639 -1540,-1164 -2542,-2910 -3016,-5246zm23654 14037l-2328 -30635 3414 -260 221 2909c719,-1184 1565,-2100 2538,-2739 967,-638 2176,-1016 3619,-1126 1892,-143 3593,213 5110,1078 1517,857 2710,2147 3582,3854 868,1715 1384,3621 1546,5733 171,2255 -81,4319 -753,6194 -674,1868 -1749,3345 -3226,4429 -1469,1077 -3062,1684 -4768,1814 -1253,95 -2395,-83 -3423,-533 -1036,-451 -1897,-1051 -2598,-1805l821 10802 -3755 285zm1937 -19687c216,2838 951,4891 2200,6162 1254,1271 2700,1848 4335,1724 1665,-127 3033,-939 4106,-2436 1081,-1499 1506,-3720 1282,-6671 -214,-2816 -950,-4877 -2215,-6190 -1266,-1313 -2699,-1905 -4305,-1783 -1593,121 -2945,975 -4055,2554 -1117,1587 -1563,3796 -1348,6640zm21140 9115l-5330 -30169 3707 -656 1918 10858c1365,-2320 3357,-3707 5984,-4171 1609,-284 3061,-217 4368,212 1300,429 2305,1158 3016,2191 711,1032 1253,2624 1630,4758l2446 13842 -3708 655 -2443 -13827c-326,-1846 -964,-3125 -1908,-3828 -948,-700 -2147,-923 -3608,-665 -1089,193 -2064,655 -2925,1394 -862,738 -1407,1631 -1649,2681 -236,1040 -203,2418 100,4131l2110 11939 -3708 655zm36640 -14247l3909 -374c-82,2338 -790,4310 -2122,5898 -1332,1588 -3247,2674 -5757,3253 -3154,728 -5880,333 -8177,-1186 -2296,-1513 -3851,-4030 -4661,-7538 -836,-3629 -556,-6665 850,-9097 1407,-2439 3601,-4000 6582,-4688 2884,-665 5465,-230 7747,1315 2282,1545 3836,4099 4658,7664 51,215 120,543 206,977l-16115 3720c685,2337 1773,4003 3272,4981 1492,982 3147,1266 4946,851 1341,-309 2406,-929 3187,-1856 789,-928 1277,-2235 1475,-3920zm-13365 -3106l12050 -2782c-581,-1783 -1361,-3038 -2328,-3773 -1486,-1143 -3164,-1503 -5020,-1075 -1680,388 -2962,1277 -3849,2667 -880,1391 -1164,3044 -853,4963zm23412 8339l-6099 -21353 3251 -928 934 3270c398,-1753 879,-2972 1449,-3654 568,-689 1274,-1150 2117,-1390 1220,-349 2572,-320 4050,81l-335 3707c-1019,-243 -1967,-239 -2845,12 -788,224 -1426,667 -1915,1319 -489,651 -747,1436 -773,2356 -38,1397 163,2861 600,4390l3186 11157 -3620 1033zm26332 -14995l3885 -575c38,2340 -568,4345 -1816,6001 -1249,1653 -3106,2835 -5581,3543 -3113,889 -5857,634 -8229,-765 -2370,-1392 -4052,-3827 -5041,-7290 -1022,-3579 -898,-6626 382,-9128 1280,-2509 3391,-4179 6332,-5019 2846,-812 5447,-510 7805,916 2358,1426 4041,3896 5045,7414 62,213 147,537 255,966l-15903 4541c805,2299 1977,3908 3524,4808 1541,904 3207,1102 4984,595 1323,-378 2355,-1051 3087,-2017 740,-967 1161,-2297 1271,-3990zm-13506 -2418l11891 -3395c-670,-1751 -1514,-2964 -2518,-3649 -1543,-1064 -3238,-1338 -5068,-815 -1659,473 -2893,1427 -3708,2861 -807,1433 -1006,3099 -597,4998z"/>
  <g>
   <path class="fil5" d="M218671 163057l197832 87732 -832 1876 -197832 -87731 832 -1877zm21267 -680l-8326 18777 -30875 -24927 39201 6150z"/>
  </g>
  <g>
   <path class="fil7" d="M207965 179918l286743 265813 -1396 1505 -286743 -265813 1396 -1505zm20340 6249l-13965 15064 -21126 -33589 35091 18525z"/>
  </g>
 </g>
</svg>
