<?xml version="1.0" encoding="UTF-8"?>
<!DOCTYPE svg PUBLIC "-//W3C//DTD SVG 1.1//EN" "http://www.w3.org/Graphics/SVG/1.1/DTD/svg11.dtd">
<!-- Creator: CorelDRAW X8 -->
<svg xmlns="http://www.w3.org/2000/svg" xml:space="preserve" width="120.2mm" height="83.7901mm" version="1.1" style="shape-rendering:geometricPrecision; text-rendering:geometricPrecision; image-rendering:optimizeQuality; fill-rule:evenodd; clip-rule:evenodd"
viewBox="0 0 882734 615344"
 xmlns:xlink="http://www.w3.org/1999/xlink">
 <defs>
  <style type="text/css">
   <![CDATA[
    .str1 {stroke:black;stroke-width:1468.78}
    .str0 {stroke:black;stroke-width:1468.78}
    .str2 {stroke:red;stroke-width:1468.78}
    .fil3 {fill:none}
    .fil0 {fill:#F7F7F7}
    .fil2 {fill:red}
    .fil1 {fill:black;fill-rule:nonzero}
   ]]>
  </style>
 </defs>
 <g id="Ebene_x0020_1">
  <metadata id="CorelCorpID_0Corel-Layer"/>
  <polygon class="fil0" points="734,489044 734,441367 881999,441367 881999,574539 775253,546365 708217,573568 647982,547336 547913,605628 498366,568710 344863,615344 184560,557051 128211,500702 58260,517219 "/>
  <rect class="fil0 str0" x="735" y="734" width="440633" height="440633"/>
  <rect class="fil0 str0" x="661683" y="734" width="220316" height="220316"/>
  <rect class="fil0 str0" x="661683" y="221051" width="220316" height="220316"/>
  <rect class="fil0 str0" x="441367" y="734" width="220316" height="220316"/>
  <rect class="fil0 str0" x="441367" y="221051" width="110158" height="110158"/>
  <rect class="fil0 str0" x="441367" y="331209" width="110158" height="110158"/>
  <rect class="fil0 str0" x="551525" y="221051" width="110158" height="110158"/>
  <rect class="fil0 str0" x="551525" y="331209" width="110158" height="110158"/>
  <g>
   <path class="fil1" d="M708355 521871l-261344 0 0 -1469 261344 0 574 1192 -574 277zm574 -277l-220 277 -354 0 574 -277zm54951 -69045l-54951 69045 -1148 -915 54950 -69045 1149 915zm-3363 14843l-11496 -9149 22820 -16876 -11324 26025z"/>
  </g>
  <path class="fil1" d="M448535 495614c7,-3695 1002,-6585 2992,-8673 1986,-2082 4550,-3123 7686,-3117 2057,5 3906,498 5554,1484 1647,984 2901,2357 3765,4114 861,1756 1289,3746 1284,5975 -6,2259 -462,4274 -1374,6056 -918,1777 -2208,3124 -3882,4035 -1669,912 -3472,1367 -5405,1362 -2098,-1 -3968,-513 -5616,-1530 -1648,-1010 -2896,-2395 -3740,-4151 -844,-1751 -1269,-3602 -1264,-5555zm3037 47c-5,2684 709,4799 2149,6343 1440,1550 3249,2322 5425,2328 2212,5 4041,-771 5477,-2326 1430,-1558 2152,-3766 2157,-6631 6,-1814 -300,-3394 -906,-4746 -612,-1353 -1507,-2400 -2683,-3146 -1176,-746 -2497,-1120 -3964,-1125 -2088,-1 -3881,708 -5389,2138 -1503,1430 -2260,3818 -2266,7165z"/>
  <path id="1" class="fil1" d="M483774 500576l2684 353c-296,1850 -1053,3300 -2261,4341 -1212,1048 -2699,1570 -4461,1565 -2202,-6 -3979,-727 -5315,-2173 -1337,-1446 -2005,-3514 -2000,-6208 6,-1741 296,-3259 878,-4564 575,-1306 1456,-2280 2638,-2933 1181,-652 2461,-973 3849,-972 1752,5 3182,451 4296,1337 1108,886 1818,2146 2129,3778l-2654 404c-253,-1083 -699,-1902 -1341,-2447 -643,-549 -1420,-823 -2327,-823 -1378,-6 -2497,486 -3357,1470 -866,989 -1297,2549 -1302,4684 -6,2165 409,3741 1237,4720 829,985 1907,1477 3244,1483 1073,0 1969,-326 2689,-985 721,-657 1177,-1667 1374,-3030z"/>
  <path id="2" class="fil1" d="M494758 504029l388 2416c-767,160 -1456,237 -2062,237 -995,0 -1762,-161 -2311,-472 -544,-316 -928,-730 -1150,-1244 -222,-507 -331,-1585 -326,-3223l18 -9274 -2006 -6 6 -2125 2006 1 6 -3989 2721 -1632 -12 5627 2746 5 -1 2124 -2751 0 -18 9426c0,777 47,1280 145,1502 93,223 249,400 466,534 218,129 529,197 933,197 306,0 705,-36 1202,-104z"/>
  <path id="3" class="fil1" d="M497396 506465l29 -16125 2461 5 -6 2447c628,-1145 1208,-1897 1742,-2259 534,-362 1119,-544 1757,-544 917,1 1855,296 2803,887l-944 2533c-669,-398 -1337,-595 -2006,-596 -595,0 -1134,176 -1606,534 -476,362 -818,860 -1020,1497 -307,969 -462,2030 -462,3186l-18 8440 -2730 -5z"/>
  <path id="4" class="fil1" d="M518822 501294l2823 357c-450,1648 -1274,2928 -2482,3835 -1208,911 -2747,1361 -4617,1356 -2358,-6 -4228,-732 -5606,-2188 -1378,-1456 -2061,-3493 -2061,-6115 6,-2710 711,-4812 2110,-6310 1400,-1497 3213,-2243 5441,-2237 2156,5 3912,742 5275,2213 1362,1472 2046,3534 2041,6198 -1,160 -7,404 -22,730l-12021 -29c99,1773 595,3130 1497,4074 896,943 2020,1415 3368,1420 999,0 1855,-259 2564,-786 710,-524 1275,-1363 1690,-2518zm-8963 -4433l9006 18c-120,-1358 -466,-2373 -1031,-3052 -866,-1058 -1995,-1586 -3384,-1586 -1253,-6 -2305,413 -3166,1253 -855,838 -1332,1958 -1425,3367z"/>
  <path id="5" class="fil1" d="M536112 501298l2823 358c-450,1648 -1274,2928 -2482,3834 -1207,911 -2746,1362 -4617,1356 -2357,-5 -4228,-732 -5605,-2187 -1378,-1457 -2062,-3494 -2062,-6116 6,-2709 712,-4812 2111,-6309 1399,-1498 3213,-2243 5441,-2237 2155,5 3912,741 5274,2212 1362,1473 2046,3535 2041,6199 -1,160 -7,403 -22,730l-12020 -29c98,1772 594,3130 1496,4074 896,942 2021,1414 3368,1420 1000,0 1855,-259 2565,-787 710,-523 1275,-1363 1689,-2518zm-8963 -4433l9006 18c-120,-1357 -466,-2373 -1030,-3051 -866,-1059 -1996,-1587 -3384,-1587 -1254,-6 -2306,414 -3166,1253 -855,839 -1332,1958 -1426,3367z"/>
  <polygon id="6" class="fil1" points="550935,506478 550977,484224 553713,484229 553667,506483 "/>
  <path id="7" class="fil1" d="M568948 501305l2823 358c-451,1648 -1275,2928 -2483,3834 -1207,912 -2746,1362 -4617,1357 -2357,-6 -4228,-732 -5605,-2188 -1378,-1456 -2062,-3494 -2062,-6115 6,-2710 712,-4813 2111,-6310 1400,-1498 3213,-2243 5441,-2237 2155,5 3912,742 5274,2213 1363,1472 2046,3534 2041,6198 0,160 -6,404 -22,730l-12020 -29c98,1772 595,3130 1496,4074 896,943 2021,1414 3368,1420 1000,0 1855,-259 2565,-786 710,-524 1275,-1363 1690,-2519zm-8964 -4432l9006 17c-119,-1357 -465,-2373 -1030,-3051 -866,-1058 -1995,-1586 -3384,-1586 -1254,-6 -2305,413 -3166,1252 -855,839 -1332,1958 -1426,3368z"/>
  <path id="8" class="fil1" d="M585714 504511c-1011,860 -1985,1466 -2923,1818 -938,352 -1943,528 -3016,528 -1772,-5 -3129,-442 -4078,-1307 -952,-871 -1424,-1975 -1424,-3322 6,-787 183,-1508 545,-2160 363,-653 835,-1176 1415,-1569 581,-395 1239,-690 1969,-891 534,-140 1348,-275 2430,-404 2203,-264 3830,-574 4871,-931 10,-379 21,-617 21,-716 1,-1114 -258,-1896 -772,-2352 -699,-623 -1735,-933 -3108,-933 -1285,-6 -2239,216 -2850,667 -611,451 -1067,1243 -1363,2389l-2668 -368c243,-1146 642,-2068 1202,-2768 560,-705 1363,-1243 2415,-1620 1057,-379 2275,-565 3663,-564 1374,5 2493,166 3353,492 860,326 1492,736 1897,1228 403,493 683,1110 843,1861 94,467 135,1306 134,2518l-11 3643c-1,2544 51,4150 165,4824 119,674 346,1316 688,1932l-2855 -6c-280,-564 -460,-1227 -543,-1989zm-211 -6098c-995,398 -2482,740 -4467,1019 -1125,160 -1917,341 -2383,543 -467,203 -830,498 -1084,886 -248,389 -379,824 -379,1296 0,730 275,1336 824,1824 550,487 1358,731 2420,736 1052,0 1990,-227 2809,-688 818,-457 1424,-1088 1808,-1886 296,-617 446,-1529 446,-2731l6 -999z"/>
  <path id="9" class="fil1" d="M593138 506487l24 -13995 -2415 -6 6 -2124 2415 5 6 -1714c0,-1084 98,-1891 290,-2415 265,-709 731,-1285 1394,-1720 663,-440 1591,-657 2788,-657 767,0 1617,94 2550,280l-416 2383c-570,-103 -1104,-155 -1611,-155 -829,-6 -1414,170 -1762,528 -342,352 -518,1015 -519,1984l-5 1487 3145 12 -6 2124 -3140 -6 -29 13995 -2715 -6z"/>
  <path id="10" class="fil1" d="M608758 498428c5,-2990 840,-5196 2504,-6631 1389,-1192 3078,-1782 5073,-1781 2218,5 4026,736 5430,2187 1404,1457 2102,3467 2097,6027 -6,2072 -317,3704 -944,4891 -622,1192 -1529,2113 -2721,2766 -1192,658 -2487,984 -3897,978 -2254,-5 -4078,-732 -5466,-2182 -1388,-1446 -2082,-3535 -2076,-6255zm2808 6c-6,2062 445,3611 1341,4638 901,1031 2031,1544 3399,1550 1358,0 2487,-513 3389,-1544 901,-1031 1353,-2605 1359,-4720 5,-1994 -445,-3503 -1352,-4534 -901,-1026 -2026,-1544 -3373,-1544 -1368,-6 -2503,507 -3404,1527 -902,1015 -1353,2560 -1359,4627z"/>
  <path id="11" class="fil1" d="M637582 500611l2684 354c-296,1850 -1053,3299 -2261,4341 -1212,1047 -2700,1569 -4461,1564 -2202,-6 -3979,-727 -5315,-2172 -1337,-1446 -2005,-3514 -2000,-6209 6,-1740 296,-3259 878,-4564 575,-1306 1456,-2280 2638,-2933 1181,-652 2461,-973 3849,-972 1752,5 3182,451 4296,1337 1108,886 1818,2146 2129,3778l-2654 404c-253,-1083 -699,-1902 -1341,-2447 -643,-549 -1420,-823 -2327,-823 -1378,-6 -2498,486 -3357,1470 -866,989 -1297,2549 -1302,4684 -6,2166 409,3741 1237,4721 829,984 1907,1476 3244,1482 1073,0 1969,-326 2689,-984 720,-658 1176,-1668 1374,-3031z"/>
  <path id="12" class="fil1" d="M648566 504065l388 2415c-767,160 -1456,237 -2062,237 -995,0 -1762,-161 -2311,-472 -544,-316 -928,-730 -1150,-1243 -222,-508 -331,-1586 -326,-3224l18 -9274 -2006 -6 6 -2125 2006 1 6 -3989 2721 -1632 -12 5627 2746 5 -1 2125 -2751 0 -18 9425c0,777 47,1280 145,1502 93,224 249,400 466,534 218,130 529,197 933,197 306,0 705,-36 1202,-103z"/>
  <path id="13" class="fil1" d="M661754 504529c-1012,860 -1986,1465 -2924,1817 -938,353 -1942,528 -3015,528 -1772,-5 -3130,-441 -4078,-1306 -953,-871 -1424,-1975 -1424,-3323 6,-787 182,-1507 545,-2159 362,-653 834,-1176 1414,-1570 581,-394 1239,-689 1970,-891 534,-140 1347,-274 2430,-404 2202,-263 3829,-574 4870,-931 10,-378 21,-617 21,-715 1,-1114 -258,-1896 -771,-2352 -700,-623 -1736,-934 -3109,-934 -1285,-6 -2238,217 -2850,668 -611,451 -1067,1242 -1363,2388l-2668 -368c244,-1145 642,-2068 1202,-2767 560,-705 1364,-1243 2415,-1621 1057,-378 2275,-565 3663,-564 1374,5 2493,166 3353,493 860,326 1492,736 1897,1228 403,493 683,1110 844,1861 93,466 134,1306 133,2518l-11 3643c0,2544 51,4150 166,4824 118,673 345,1316 688,1932l-2856 -6c-279,-565 -460,-1228 -542,-1989zm-212 -6099c-995,399 -2482,741 -4466,1020 -1125,160 -1918,341 -2384,543 -467,203 -829,497 -1083,886 -249,388 -379,824 -379,1295 0,731 274,1337 824,1824 549,487 1358,731 2419,736 1052,1 1990,-227 2809,-688 819,-456 1424,-1087 1809,-1885 295,-617 445,-1529 445,-2731l6 -1000z"/>
  <path id="14" class="fil1" d="M668525 506504l29 -16125 2462 5 -6 2296c1187,-1771 2897,-2652 5135,-2646 974,0 1866,177 2679,529 813,347 1425,808 1824,1373 403,571 688,1244 849,2022 98,507 150,1394 144,2658l-18 9912 -2730 -6 17 -9804c0,-1114 -102,-1948 -315,-2497 -212,-554 -585,-995 -1129,-1327 -539,-326 -1177,-492 -1902,-497 -1166,-1 -2171,367 -3016,1103 -844,741 -1270,2139 -1275,4201l-18 8808 -2730 -5z"/>
  <path id="15" class="fil1" d="M691785 504074l388 2415c-767,161 -1457,238 -2062,238 -996,0 -1762,-161 -2312,-473 -544,-315 -927,-730 -1150,-1243 -221,-507 -331,-1585 -326,-3223l19 -9275 -2006 -6 6 -2124 2006 1 5 -3990 2721 -1631 -11 5626 2745 6 0 2124 -2751 0 -19 9425c0,777 47,1280 146,1503 93,223 249,399 466,534 218,129 529,197 933,197 305,0 705,-36 1202,-104z"/>
  <g>
   <path class="fil1" d="M397280 521871l-166132 0 0 -1469 166132 0 592 1170 -592 299zm592 -299l-220 299 -372 0 592 -299zm87013 -118324l-87013 118324 -1184 -870 87013 -118324 1184 870zm-2795 14961l-11836 -8704 22160 -17735 -10324 26439z"/>
  </g>
  <path class="fil1" d="M249397 498640l2953 746c-616,2420 -1725,4260 -3327,5530 -1600,1269 -3559,1906 -5875,1906 -2394,0 -4342,-487 -5845,-1466 -1502,-974 -2642,-2389 -3425,-4239 -782,-1855 -1176,-3839 -1176,-5964 0,-2316 440,-4336 1327,-6062 885,-1725 2145,-3036 3777,-3933 1632,-896 3430,-1341 5389,-1341 2228,0 4098,564 5611,1699 1518,1135 2576,2725 3171,4777l-2891 684c-513,-1616 -1264,-2798 -2244,-3534 -979,-741 -2212,-1108 -3700,-1108 -1704,0 -3134,409 -4279,1228 -1145,818 -1953,1922 -2414,3300 -467,1384 -700,2808 -700,4275 0,1891 274,3544 824,4953 549,1415 1404,2467 2565,3166 1160,700 2414,1047 3767,1047 1648,0 3036,-477 4176,-1425 1140,-953 1912,-2363 2316,-4239z"/>
  <path id="1" class="fil1" d="M266656 501226l2829 373c-441,1643 -1264,2922 -2466,3829 -1202,907 -2736,1363 -4607,1363 -2352,0 -4217,-725 -5596,-2176 -1378,-1446 -2067,-3482 -2067,-6099 0,-2705 694,-4808 2088,-6300 1394,-1498 3202,-2244 5425,-2244 2151,0 3907,730 5270,2197 1363,1466 2046,3529 2046,6186 0,161 -5,405 -15,726l-12016 0c103,1767 601,3125 1502,4063 897,937 2021,1409 3363,1409 1000,0 1855,-264 2560,-793 710,-528 1269,-1374 1684,-2534zm-8954 -4383l8985 0c-119,-1358 -466,-2373 -1031,-3053 -865,-1051 -1995,-1580 -3378,-1580 -1254,0 -2306,420 -3161,1260 -850,839 -1321,1963 -1415,3373z"/>
  <polygon id="2" class="fil1" points="272879,506449 272879,484190 275615,484190 275615,506449 "/>
  <polygon id="3" class="fil1" points="279785,506449 279785,484190 282522,484190 282522,506449 "/>
  <path id="4" class="fil1" d="M294367 498382c0,-2980 829,-5187 2492,-6622 1384,-1192 3078,-1788 5073,-1788 2212,0 4026,725 5435,2176 1404,1446 2109,3451 2109,6005 0,2073 -311,3700 -933,4886 -622,1187 -1529,2109 -2720,2767 -1187,658 -2487,985 -3891,985 -2259,0 -4084,-720 -5477,-2166 -1394,-1445 -2088,-3528 -2088,-6243zm2798 5c0,2062 451,3606 1352,4627 907,1026 2041,1539 3415,1539 1358,0 2487,-513 3393,-1545 902,-1031 1353,-2601 1353,-4709 0,-1990 -456,-3498 -1363,-4519 -906,-1026 -2036,-1538 -3383,-1538 -1374,0 -2508,507 -3415,1528 -901,1021 -1352,2560 -1352,4617z"/>
  <path id="5" class="fil1" d="M312652 506449l0 -16135 2456 0 0 2472c627,-1146 1207,-1902 1741,-2265 533,-368 1120,-549 1756,-549 923,0 1860,290 2814,865l-974 2524c-663,-373 -1326,-560 -1990,-560 -596,0 -1129,182 -1601,539 -471,357 -808,855 -1010,1493 -306,968 -456,2030 -456,3186l0 8430 -2736 0z"/>
  <path id="6" class="fil1" d="M323035 487298l0 -3108 2736 0 0 3108 -2736 0zm0 19151l0 -16135 2736 0 0 16135 -2736 0z"/>
  <path id="7" class="fil1" d="M329440 507786l2643 373c108,819 419,1414 927,1793 679,502 1606,757 2783,757 1264,0 2243,-255 2932,-757 689,-503 1155,-1212 1399,-2119 141,-555 207,-1721 197,-3498 -1197,1409 -2684,2114 -4466,2114 -2218,0 -3938,-798 -5151,-2399 -1217,-1596 -1823,-3513 -1823,-5746 0,-1539 280,-2959 834,-4259 554,-1301 1362,-2301 2419,-3011 1058,-710 2301,-1062 3731,-1062 1902,0 3472,777 4705,2331l0 -1989 2518 0 0 13933c0,2513 -254,4290 -766,5337 -509,1047 -1322,1876 -2425,2482 -1109,606 -2472,912 -4089,912 -1922,0 -3471,-431 -4653,-1296 -1187,-860 -1756,-2160 -1715,-3896zm2239 -9679c0,2109 419,3648 1259,4617 844,968 1896,1456 3160,1456 1259,0 2311,-482 3166,-1446 850,-964 1274,-2477 1274,-4539 0,-1969 -439,-3456 -1316,-4456 -875,-1000 -1932,-1497 -3166,-1497 -1217,0 -2248,492 -3103,1476 -850,985 -1274,2446 -1274,4389z"/>
  <path id="8" class="fil1" d="M347233 487298l0 -3108 2736 0 0 3108 -2736 0zm0 19151l0 -16135 2736 0 0 16135 -2736 0z"/>
  <path id="9" class="fil1" d="M354140 506449l0 -16135 2456 0 0 2290c1181,-1756 2891,-2632 5124,-2632 975,0 1866,176 2679,523 814,348 1425,809 1829,1374 405,564 690,1238 850,2015 99,508 150,1394 150,2658l0 9907 -2735 0 0 -9803c0,-1114 -104,-1949 -317,-2498 -212,-549 -590,-989 -1129,-1321 -539,-326 -1176,-492 -1902,-492 -1160,0 -2160,368 -3005,1109 -844,736 -1264,2140 -1264,4202l0 8803 -2736 0z"/>
  <g>
   <path class="fil1" d="M348020 410509l-166133 0 0 -1469 166133 0 114 1460 -114 9zm114 -9l-56 9 -58 0 114 -9zm58331 -9230l-58331 9230 -229 -1451 58331 -9230 229 1451zm-12506 8672l-2296 -14511 28227 2971 -25931 11540z"/>
  </g>
  <path class="fil1" d="M200136 387278l2954 746c-616,2420 -1725,4259 -3327,5529 -1601,1269 -3560,1907 -5875,1907 -2394,0 -4343,-487 -5845,-1467 -1503,-974 -2642,-2388 -3425,-4238 -782,-1855 -1176,-3839 -1176,-5964 0,-2316 440,-4337 1326,-6062 886,-1726 2145,-3036 3777,-3933 1633,-897 3431,-1342 5389,-1342 2228,0 4099,565 5612,1700 1518,1134 2575,2725 3171,4777l-2892 683c-512,-1616 -1263,-2798 -2243,-3533 -979,-741 -2213,-1109 -3700,-1109 -1705,0 -3134,409 -4279,1228 -1146,818 -1954,1922 -2415,3301 -466,1383 -700,2808 -700,4275 0,1891 275,3544 824,4953 549,1414 1404,2466 2565,3166 1161,699 2414,1046 3767,1046 1648,0 3036,-476 4177,-1424 1139,-954 1911,-2364 2315,-4239z"/>
  <path id="1" class="fil1" d="M217396 389864l2828 373c-440,1642 -1263,2922 -2466,3829 -1202,907 -2736,1363 -4606,1363 -2353,0 -4218,-726 -5596,-2177 -1378,-1445 -2068,-3482 -2068,-6098 0,-2705 695,-4808 2089,-6301 1394,-1497 3202,-2243 5425,-2243 2150,0 3907,730 5269,2196 1363,1467 2047,3529 2047,6187 0,161 -5,405 -16,725l-12016 0c104,1767 602,3125 1503,4063 897,938 2021,1409 3363,1409 1000,0 1855,-264 2560,-793 709,-528 1269,-1373 1684,-2533zm-8954 -4384l8984 0c-119,-1357 -466,-2373 -1031,-3052 -865,-1052 -1994,-1580 -3378,-1580 -1253,0 -2306,420 -3161,1259 -849,839 -1321,1964 -1414,3373z"/>
  <polygon id="2" class="fil1" points="223618,395087 223618,372827 226354,372827 226354,395087 "/>
  <polygon id="3" class="fil1" points="230525,395087 230525,372827 233261,372827 233261,395087 "/>
  <path id="4" class="fil1" d="M245044 390267l2705 -434c150,1082 575,1911 1269,2492 694,575 1669,865 2912,865 1260,0 2192,-254 2803,-767 607,-508 912,-1108 912,-1798 0,-616 -274,-1104 -818,-1455 -384,-244 -1316,-550 -2798,-928 -2000,-503 -3384,-938 -4161,-1306 -772,-373 -1358,-881 -1756,-1534 -400,-648 -602,-1367 -602,-2155 0,-721 166,-1384 493,-1995 331,-612 777,-1119 1342,-1524 425,-310 1005,-575 1736,-792 735,-217 1518,-326 2357,-326 1264,0 2373,180 3326,548 959,363 1664,861 2120,1482 451,628 766,1462 937,2508l-2673 373c-119,-839 -472,-1497 -1052,-1968 -580,-472 -1399,-705 -2461,-705 -1249,0 -2145,207 -2679,622 -533,414 -803,901 -803,1456 0,352 109,673 331,958 224,290 570,534 1047,726 275,103 1073,336 2409,699 1928,513 3275,938 4042,1265 767,326 1368,807 1803,1429 441,628 658,1405 658,2337 0,907 -264,1762 -798,2565 -533,803 -1300,1425 -2300,1866 -1005,440 -2140,658 -3405,658 -2093,0 -3694,-436 -4792,-1301 -1099,-871 -1798,-2155 -2104,-3861z"/>
  <path id="5" class="fil1" d="M261677 401273l0 -22322 2487 0 0 2120c586,-819 1249,-1436 1990,-1845 736,-409 1632,-616 2684,-616 1378,0 2590,352 3643,1062 1051,704 1844,1704 2383,2989 534,1291 803,2700 803,4239 0,1642 -295,3124 -886,4446 -591,1316 -1451,2326 -2580,3030 -1125,700 -2311,1053 -3555,1053 -912,0 -1731,-192 -2451,-575 -725,-384 -1316,-866 -1782,-1451l0 7870 -2736 0zm2487 -14155c0,2067 420,3595 1254,4585 839,989 1855,1487 3047,1487 1212,0 2249,-513 3109,-1539 865,-1026 1295,-2611 1295,-4762 0,-2052 -420,-3585 -1265,-4606 -844,-1021 -1849,-1529 -3020,-1529 -1160,0 -2186,544 -3078,1628 -897,1088 -1342,2663 -1342,4736z"/>
  <path id="6" class="fil1" d="M278967 395087l0 -22260 2736 0 0 8010c1270,-1487 2871,-2227 4809,-2227 1186,0 2218,233 3098,704 876,472 1503,1119 1881,1948 378,830 565,2037 565,3612l0 10213 -2736 0 0 -10203c0,-1363 -295,-2358 -881,-2979 -591,-622 -1420,-933 -2497,-933 -804,0 -1560,207 -2270,628 -710,419 -1213,989 -1518,1709 -300,715 -451,1705 -451,2969l0 8809 -2736 0z"/>
  <path id="7" class="fil1" d="M307263 389864l2829 373c-440,1642 -1264,2922 -2466,3829 -1202,907 -2736,1363 -4607,1363 -2352,0 -4217,-726 -5596,-2177 -1377,-1445 -2067,-3482 -2067,-6098 0,-2705 695,-4808 2089,-6301 1393,-1497 3202,-2243 5425,-2243 2150,0 3906,730 5269,2196 1363,1467 2046,3529 2046,6187 0,161 -5,405 -15,725l-12016 0c104,1767 601,3125 1503,4063 896,938 2021,1409 3362,1409 1001,0 1855,-264 2560,-793 710,-528 1269,-1373 1684,-2533zm-8953 -4384l8984 0c-119,-1357 -466,-2373 -1031,-3052 -865,-1052 -1994,-1580 -3378,-1580 -1254,0 -2306,420 -3161,1259 -850,839 -1321,1964 -1414,3373z"/>
  <path id="8" class="fil1" d="M313517 395087l0 -16136 2456 0 0 2472c627,-1145 1208,-1902 1741,-2265 534,-368 1120,-548 1756,-548 923,0 1861,290 2815,865l-975 2523c-663,-373 -1326,-559 -1989,-559 -597,0 -1130,181 -1601,539 -472,357 -809,855 -1011,1492 -305,969 -456,2031 -456,3187l0 8430 -2736 0z"/>
  <path id="9" class="fil1" d="M334906 389864l2829 373c-440,1642 -1264,2922 -2466,3829 -1202,907 -2736,1363 -4607,1363 -2352,0 -4217,-726 -5596,-2177 -1377,-1445 -2067,-3482 -2067,-6098 0,-2705 695,-4808 2089,-6301 1394,-1497 3202,-2243 5425,-2243 2150,0 3907,730 5269,2196 1363,1467 2047,3529 2047,6187 0,161 -6,405 -16,725l-12016 0c104,1767 602,3125 1503,4063 896,938 2021,1409 3362,1409 1001,0 1855,-264 2560,-793 710,-528 1269,-1373 1684,-2533zm-8953 -4384l8984 0c-119,-1357 -466,-2373 -1031,-3052 -865,-1052 -1994,-1580 -3378,-1580 -1254,0 -2306,420 -3161,1259 -849,839 -1321,1964 -1414,3373z"/>
  <circle class="fil2" cx="221051" cy="221051" r="6804"/>
  <circle class="fil2" cx="771841" cy="110893" r="6804"/>
  <circle class="fil2" cx="771841" cy="331209" r="6804"/>
  <circle class="fil2" cx="496446" cy="276130" r="6804"/>
  <circle class="fil2" cx="496446" cy="386288" r="6804"/>
  <circle class="fil2" cx="606604" cy="276130" r="6804"/>
  <circle class="fil2" cx="606604" cy="386288" r="6804"/>
  <circle class="fil2" cx="551525" cy="110893" r="6804"/>
  <line class="fil3 str1" x1="734" y1="441367" x2="734" y2= "489044" />
  <line class="fil3 str1" x1="881999" y1="441367" x2="881999" y2= "574539" />
  <circle class="fil3 str2" cx="496446" cy="386288" r="77498"/>
 </g>
</svg>
