<?xml version="1.0" encoding="UTF-8"?>
<!DOCTYPE svg PUBLIC "-//W3C//DTD SVG 1.1//EN" "http://www.w3.org/Graphics/SVG/1.1/DTD/svg11.dtd">
<!-- Creator: CorelDRAW X8 -->
<svg xmlns="http://www.w3.org/2000/svg" xml:space="preserve" width="112.426mm" height="88.3392mm" version="1.1" style="shape-rendering:geometricPrecision; text-rendering:geometricPrecision; image-rendering:optimizeQuality; fill-rule:evenodd; clip-rule:evenodd"
viewBox="0 0 1154291 906988"
 xmlns:xlink="http://www.w3.org/1999/xlink">
 <defs>
  <style type="text/css">
   <![CDATA[
    .str1 {stroke:black;stroke-width:2053.42}
    .str0 {stroke:red;stroke-width:2053.42}
    .str4 {stroke:black;stroke-width:2053.42;stroke-dasharray:4106.844491 6160.266737}
    .str3 {stroke:black;stroke-width:2053.42;stroke-dasharray:4106.844491 6160.266737}
    .str2 {stroke:blue;stroke-width:2053.42;stroke-dasharray:4106.844491 6160.266737}
    .fil4 {fill:none}
    .fil2 {fill:black}
    .fil3 {fill:#CCCCCC}
    .fil0 {fill:#F7F7F7}
    .fil1 {fill:red}
    .fil5 {fill:black;fill-rule:nonzero}
    .fil6 {fill:blue;fill-rule:nonzero}
    .fil7 {fill:red;fill-rule:nonzero}
   ]]>
  </style>
 </defs>
 <g id="Ebene_x0020_1">
  <metadata id="CorelCorpID_0Corel-Layer"/>
  <path class="fil0 str0" d="M494010 235577c120348,0 217909,97561 217909,217909 0,120348 -97561,217909 -217909,217909 -120348,0 -217909,-97561 -217909,-217909 0,-120348 97561,-217909 217909,-217909z"/>
  <circle class="fil1" cx="494010" cy="453486" r="9512"/>
  <circle class="fil2" cx="416087" cy="258729" r="9512"/>
  <circle class="fil3 str1" cx="162731" cy="146401" r="41555"/>
  <polygon class="fil3 str1" points="1120,350059 80537,251250 181193,326050 230136,453486 139638,499658 31321,470634 "/>
  <polygon class="fil3 str1" points="931928,291187 645659,179450 782329,353058 858975,372451 "/>
  <polygon class="fil3 str1" points="1082304,576615 1152431,277420 999897,437271 991540,515889 "/>
  <circle class="fil4 str2" cx="494010" cy="453486" r="263875"/>
  <circle class="fil4 str3" cx="416087" cy="258729" r="243064"/>
  <path class="fil5" d="M137120 416229l-3824 0 0 -24355c-920,884 -2131,1761 -3622,2638 -1493,875 -2840,1535 -4028,1970l0 -3695c2136,-999 4006,-2217 5607,-3651 1600,-1427 2738,-2810 3404,-4157l2463 0 0 31250z"/>
  <path class="fil5" d="M824902 314783l0 3651 -20601 0c-30,-919 123,-1803 449,-2658 528,-1398 1376,-2782 2543,-4136 1166,-1355 2831,-2919 4998,-4694 3368,-2775 5657,-4970 6852,-6593 1203,-1622 1804,-3158 1804,-4607 0,-1513 -543,-2788 -1629,-3831 -1088,-1036 -2507,-1558 -4253,-1558 -1847,0 -3325,550 -4433,1652 -1108,1093 -1667,2615 -1681,4564l-3912 -391c268,-2928 1282,-5159 3036,-6695 1760,-1536 4114,-2303 7077,-2303 2985,0 5353,826 7092,2485 1746,1658 2615,3716 2615,6164 0,1246 -254,2471 -768,3673 -507,1209 -1355,2477 -2535,3810 -1188,1326 -3151,3158 -5889,5477 -2297,1927 -3775,3231 -4427,3919 -652,687 -1188,1376 -1616,2071l15278 0z"/>
  <path class="fil5" d="M152538 153507l3825 -522c442,2173 1181,3737 2231,4694 1050,956 2340,1435 3869,1435 1811,0 3340,-624 4571,-1870 1231,-1246 1847,-2789 1847,-4629 0,-1753 -572,-3202 -1724,-4346 -1145,-1137 -2601,-1709 -4376,-1709 -724,0 -1622,145 -2701,427l427 -3347c253,29 464,43 616,43 1636,0 3100,-427 4412,-1274 1304,-848 1955,-2152 1955,-3912 0,-1398 -478,-2557 -1427,-3477 -949,-920 -2173,-1376 -3673,-1376 -1492,0 -2730,470 -3723,1412 -993,942 -1631,2354 -1913,4238l-3824 -695c471,-2565 1528,-4557 3187,-5969 1652,-1413 3716,-2116 6179,-2116 1695,0 3260,362 4687,1094 1435,725 2528,1717 3282,2970 760,1260 1137,2594 1137,4005 0,1341 -362,2558 -1080,3659 -724,1101 -1797,1978 -3208,2630 1840,420 3267,1304 4288,2644 1014,1332 1521,3013 1521,5019 0,2717 -992,5028 -2970,6918 -1985,1892 -4491,2833 -7519,2833 -2731,0 -4998,-818 -6802,-2449 -1811,-1629 -2840,-3737 -3094,-6330z"/>
  <path class="fil5" d="M1040079 470494l0 -7432 -13518 0 0 -3520 14213 -20167 3129 0 0 20167 4216 0 0 3520 -4216 0 0 7432 -3824 0zm0 -10952l0 -14003 -9758 14003 9758 0z"/>
  <g>
   <path class="fil6" d="M249300 452459l244710 0 0 2054 -244710 0 0 -2054zm19164 -9243l0 20540 -38328 -10270 38328 -10270z"/>
  </g>
  <path class="fil7" d="M417109 623613l3185 2827c-2321,2606 -4881,4177 -7685,4722 -2803,547 -5645,77 -8519,-1411 -2972,-1540 -5077,-3399 -6312,-5580 -1239,-2176 -1744,-4665 -1526,-7465 223,-2806 1010,-5522 2377,-8159 1491,-2876 3336,-5100 5546,-6673 2210,-1570 4616,-2388 7218,-2451 2604,-63 5121,541 7552,1801 2766,1433 4724,3337 5872,5718 1155,2385 1445,5040 864,7971l-4029 -1012c403,-2335 231,-4286 -512,-5829 -738,-1550 -2033,-2799 -3879,-3756 -2115,-1097 -4154,-1508 -6102,-1228 -1948,278 -3660,1128 -5120,2543 -1469,1417 -2675,3036 -3619,4857 -1216,2347 -1938,4576 -2163,6678 -228,2109 156,3964 1148,5579 990,1614 2322,2853 4002,3722 2045,1061 4075,1362 6101,918 2028,-450 3892,-1703 5601,-3772zm19922 11288l3573 1773c-1326,1974 -2994,3294 -4994,3950 -2001,656 -4237,565 -6712,-282 -3111,-1063 -5250,-2867 -6417,-5410 -1169,-2535 -1160,-5542 24,-9003 1224,-3578 3094,-6046 5613,-7389 2522,-1350 5251,-1519 8192,-513 2844,972 4838,2733 5977,5289 1138,2557 1111,5594 -92,9109 -73,213 -190,533 -349,953l-15895 -5435c-663,2384 -618,4405 150,6053 761,1646 2035,2778 3811,3385 1323,453 2573,490 3745,110 1177,-378 2300,-1243 3374,-2590zm-9862 -9850l11886 4065c456,-1849 456,-3350 16,-4504 -668,-1782 -1923,-2993 -3754,-3618 -1658,-568 -3240,-488 -4750,235 -1504,727 -2637,2000 -3398,3822zm15826 19285l6942 -30335 3729 853 -6942 30335 -3729 -853zm9392 2255l5307 -30664 3770 652 -5307 30664 -3770 -652zm20556 -3517l3816 -319c96,1525 599,2726 1507,3608 906,877 2234,1384 3967,1516 1756,134 3083,-122 3989,-773 899,-644 1389,-1448 1462,-2409 65,-860 -266,-1568 -987,-2116 -509,-380 -1777,-905 -3803,-1590 -2734,-913 -4617,-1665 -5661,-2261 -1037,-601 -1799,-1372 -2287,-2324 -487,-946 -693,-1970 -610,-3069 77,-1004 378,-1912 899,-2728 527,-818 1202,-1478 2032,-1983 626,-388 1463,-695 2504,-920 1048,-225 2151,-294 3321,-205 1762,134 3289,503 4578,1117 1299,608 2228,1376 2798,2291 562,922 914,2118 1041,3595l-3766 238c-78,-1184 -499,-2138 -1257,-2857 -760,-718 -1876,-1131 -3357,-1244 -1740,-132 -3012,63 -3801,584 -787,522 -1214,1172 -1273,1945 -37,491 80,950 361,1370 280,428 738,805 1382,1124 371,172 1459,582 3284,1229 2633,919 4466,1655 5500,2192 1035,535 1821,1271 2363,2183 548,921 769,2028 670,3328 -97,1264 -555,2428 -1385,3491 -829,1062 -1964,1849 -3405,2357 -1447,506 -3052,690 -4815,557 -2918,-222 -5104,-999 -6543,-2322 -1440,-1330 -2278,-3195 -2524,-5605zm23387 16861l-2365 -31118 3467 -262 225 2953c729,-1203 1588,-2133 2578,-2782 982,-648 2210,-1032 3676,-1143 1921,-145 3649,216 5191,1095 1540,869 2750,2181 3639,3915 880,1742 1405,3678 1568,5822 175,2291 -80,4388 -763,6293 -684,1896 -1777,3396 -3277,4498 -1493,1094 -3110,1711 -4843,1844 -1271,96 -2433,-84 -3478,-542 -1052,-459 -1926,-1068 -2639,-1834l835 10971 -3814 290zm1968 -19996c219,2882 965,4967 2233,6259 1275,1290 2743,1876 4406,1750 1689,-128 3080,-954 4170,-2475 1097,-1522 1529,-3778 1301,-6776 -218,-2860 -965,-4952 -2251,-6286 -1285,-1334 -2740,-1935 -4372,-1811 -1619,122 -2990,990 -4119,2594 -1134,1612 -1588,3855 -1368,6745zm21473 9410l-5307 -30665 3769 -652 1910 11035c1394,-2352 3423,-3754 6094,-4216 1633,-282 3111,-207 4435,232 1318,441 2337,1184 3056,2235 718,1053 1263,2672 1639,4841l2435 14068 -3768 653 -2433 -14054c-325,-1878 -969,-3178 -1925,-3895 -961,-715 -2177,-946 -3661,-689 -1107,191 -2100,658 -2978,1405 -877,747 -1435,1652 -1683,2718 -244,1056 -215,2455 86,4197l2101 12134 -3770 653zm36480 -15936l3945 -591c42,2376 -570,4413 -1835,6096 -1264,1684 -3150,2889 -5663,3611 -3161,909 -5948,654 -8360,-763 -2409,-1409 -4123,-3880 -5133,-7395 -1045,-3635 -924,-6729 373,-9272 1294,-2551 3435,-4252 6422,-5110 2889,-831 5532,-528 7928,916 2399,1444 4113,3950 5140,7521 62,217 150,546 260,982l-16145 4641c821,2334 2015,3966 3588,4878 1567,914 3260,1113 5063,595 1344,-386 2390,-1072 3132,-2055 750,-983 1176,-2335 1285,-4054zm-13723 -2432l12071 -3471c-684,-1777 -1544,-3007 -2564,-3702 -1569,-1079 -3291,-1353 -5150,-818 -1684,483 -2936,1455 -3760,2913 -818,1455 -1017,3149 -597,5078zm23872 6207l-8394 -20938 3187 -1278 1287 3209c217,-1813 577,-3097 1081,-3845 500,-755 1166,-1295 1993,-1626 1197,-480 2564,-591 4101,-341l49 3781c-1055,-139 -2013,-36 -2873,309 -774,310 -1372,823 -1797,1533 -426,708 -605,1530 -535,2462 107,1416 464,2872 1066,4372l4385 10939 -3550 1423zm23554 -19397l3747 -1372c518,2321 327,4439 -574,6342 -902,1902 -2506,3462 -4823,4673 -2913,1525 -5695,1835 -8343,932 -2643,-898 -4817,-2974 -6513,-6215 -1753,-3350 -2256,-6407 -1496,-9158 756,-2759 2512,-4855 5266,-6295 2663,-1394 5313,-1628 7951,-694 2639,933 4822,3044 6545,6337 104,199 256,504 451,908l-14885 7788c1274,2121 2771,3481 4495,4059 1718,581 3416,436 5079,-434 1238,-649 2126,-1529 2657,-2641 536,-1114 682,-2524 443,-4230zm-13932 372l11129 -5822c-1026,-1605 -2115,-2638 -3254,-3113 -1754,-743 -3496,-666 -5210,232 -1552,812 -2584,2014 -3098,3609 -510,1590 -365,3288 433,5094z"/>
  <path class="fil5" d="M401504 243324l11937 -31119 4528 0 12670 31119 -4687 0 -3601 -9431 -13104 0 -3376 9431 -4367 0zm8953 -12778l10604 0 -3245 -8628c-977,-2622 -1717,-4788 -2231,-6498 -427,2029 -999,4021 -1717,5991l-3411 9135z"/>
  <path class="fil7" d="M536312 459034l4129 1043c-861,3383 -2412,5955 -4651,7731 -2238,1774 -4976,2665 -8213,2665 -3348,0 -6071,-681 -8172,-2050 -2101,-1362 -3694,-3339 -4789,-5926 -1093,-2593 -1643,-5367 -1643,-8337 0,-3239 615,-6063 1854,-8476 1238,-2412 2999,-4244 5280,-5498 2283,-1254 4796,-1876 7534,-1876 3115,0 5730,790 7845,2376 2123,1586 3601,3810 4434,6679l-4043 956c-716,-2260 -1766,-3912 -3136,-4941 -1369,-1036 -3094,-1549 -5173,-1549 -2383,0 -4382,572 -5982,1716 -1602,1144 -2731,2687 -3376,4614 -652,1935 -979,3927 -979,5977 0,2644 384,4955 1152,6925 768,1978 1963,3448 3587,4426 1622,978 3374,1463 5266,1463 2304,0 4244,-666 5839,-1991 1593,-1333 2672,-3304 3237,-5927z"/>
  <g>
   <path class="fil5" d="M206376 338171l209342 -80401 738 1918 -209343 80401 -737 -1918zm14577 -15499l7365 19174 -39463 4155 32098 -23329z"/>
  </g>
  <circle class="fil4 str4" cx="494010" cy="453486" r="452476"/>
  <path class="fil5" d="M359801 854010l3815 728c-257,1554 -197,2906 174,4058 374,1146 1154,2212 2341,3200 1189,980 2637,1717 4335,2202 1512,431 2907,588 4192,466 1286,-123 2320,-498 3109,-1124 788,-625 1318,-1401 1581,-2321 266,-934 227,-1826 -115,-2684 -344,-852 -1076,-1693 -2192,-2532 -713,-536 -2351,-1531 -4914,-2978 -2561,-1447 -4307,-2616 -5241,-3516 -1213,-1159 -2005,-2395 -2385,-3701 -387,-1309 -380,-2655 12,-4028 434,-1519 1269,-2808 2500,-3873 1232,-1073 2763,-1712 4609,-1924 1840,-213 3768,-31 5782,544 2215,633 4071,1545 5558,2747 1490,1194 2493,2618 3007,4271 517,1647 555,3360 124,5136l-3887 -794c337,-1945 54,-3570 -848,-4867 -900,-1305 -2505,-2282 -4803,-2938 -2397,-685 -4271,-746 -5615,-180 -1344,566 -2196,1466 -2550,2706 -306,1073 -168,2069 406,2986 568,910 2349,2194 5360,3836 3009,1651 5037,2916 6079,3801 1506,1297 2506,2674 2983,4144 479,1463 487,2994 29,4596 -455,1595 -1334,2956 -2648,4103 -1314,1147 -2929,1868 -4859,2161 -1929,293 -3956,136 -6094,-475 -2704,-771 -4853,-1814 -6453,-3122 -1608,-1312 -2697,-2903 -3282,-4788 -594,-1879 -626,-3824 -110,-5840zm42593 14157l3738 1395c-1115,2100 -2638,3586 -4560,4444 -1922,860 -4155,1001 -6703,415 -3205,-737 -5520,-2310 -6944,-4719 -1424,-2400 -1726,-5391 -906,-8957 847,-3685 2453,-6332 4819,-7929 2369,-1604 5066,-2054 8095,-1358 2929,673 5094,2218 6491,4644 1398,2425 1683,5448 851,9069 -51,220 -134,551 -249,984l-16372 -3764c-411,2441 -159,4447 776,6006 928,1559 2312,2554 4139,2974 1364,314 2611,220 3737,-278 1132,-497 2160,-1474 3088,-2926zm-10826 -8777l12242 2814c262,-1886 107,-3379 -450,-4480 -849,-1705 -2222,-2779 -4107,-3212 -1708,-393 -3274,-150 -4701,726 -1421,877 -2416,2262 -2984,4152zm32778 17514c-1608,945 -3104,1542 -4482,1807 -1378,265 -2804,265 -4288,3 -2440,-429 -4211,-1352 -5316,-2774 -1103,-1416 -1491,-3052 -1166,-4900 190,-1084 615,-2032 1266,-2844 657,-811 1432,-1410 2327,-1812 901,-400 1872,-655 2928,-756 776,-62 1928,-51 3452,26 3102,180 5426,139 6947,-108 105,-511 171,-838 194,-973 269,-1527 102,-2666 -501,-3420 -813,-1019 -2173,-1692 -4071,-2026 -1777,-313 -3144,-231 -4096,242 -957,472 -1771,1461 -2457,2973l-3592 -1161c613,-1518 1388,-2699 2329,-3533 942,-836 2185,-1381 3733,-1652 1540,-266 3277,-232 5189,104 1899,334 3408,827 4520,1487 1104,657 1884,1369 2322,2145 436,775 678,1700 725,2775 8,663 -131,1831 -424,3493l-880 4994c-614,3489 -923,5706 -931,6668 -15,961 143,1909 448,2845l-3938 -693c-238,-858 -318,-1828 -238,-2910zm1170 -8401c-1468,316 -3605,425 -6413,328 -1594,-53 -2737,4 -3428,169 -691,164 -1254,486 -1698,952 -442,473 -726,1033 -841,1691 -174,991 57,1892 704,2690 645,798 1700,1329 3162,1587 1448,255 2795,167 4041,-268 1238,-429 2225,-1145 2946,-2144 555,-777 974,-1990 1264,-3638l263 -1367zm7628 12589l2897 -22371 3405 441 -444 3427c1075,-1475 2016,-2420 2822,-2827 805,-415 1649,-560 2532,-446 1279,166 2527,736 3747,1706l-1805 3323c-852,-637 -1738,-1014 -2657,-1134 -828,-106 -1599,50 -2317,460 -718,411 -1275,1041 -1669,1889 -597,1287 -997,2733 -1204,4335l-1515 11688 -3792 -491zm29701 -5131l3688 803c-606,2532 -1799,4455 -3592,5778 -1794,1324 -3921,1890 -6370,1704 -3070,-234 -5464,-1426 -7174,-3575 -1719,-2151 -2433,-5097 -2148,-8838 185,-2426 750,-4514 1691,-6272 939,-1753 2264,-3024 3979,-3802 1709,-786 3527,-1105 5463,-957 2435,185 4389,950 5840,2303 1459,1353 2324,3185 2585,5484l-3727 284c-240,-1536 -775,-2718 -1620,-3552 -837,-827 -1892,-1292 -3163,-1389 -1922,-146 -3535,422 -4845,1703 -1303,1289 -2068,3410 -2295,6386 -229,3019 183,5251 1236,6705 1059,1453 2515,2255 4371,2395 1503,114 2788,-246 3854,-1087 1073,-834 1816,-2194 2227,-4073zm6346 8902l709 -31112 3823 87 -254 11196c1821,-2038 4083,-3022 6792,-2960 1658,38 3092,395 4308,1083 1208,687 2064,1612 2566,2782 502,1172 725,2865 675,5067l-326 14274 -3823 -88 324 -14259c45,-1905 -336,-3306 -1136,-4193 -805,-888 -1954,-1348 -3460,-1383 -1123,-25 -2187,241 -3193,805 -1004,563 -1726,1344 -2176,2341 -442,990 -685,2368 -725,4136l-281 12311 -3823 -87zm34567 -6397l3766 -694c245,1509 864,2654 1854,3443 988,783 2359,1157 4098,1118 1759,-40 3055,-425 3893,-1162 832,-728 1239,-1577 1218,-2541 -20,-862 -419,-1534 -1191,-2009 -543,-328 -1857,-726 -3940,-1207 -2811,-640 -4759,-1203 -5856,-1693 -1093,-497 -1926,-1189 -2504,-2088 -579,-894 -884,-1893 -910,-2994 -23,-1008 188,-1940 625,-2804 444,-866 1052,-1589 1828,-2173 584,-447 1387,-835 2401,-1162 1021,-328 2111,-504 3285,-531 1766,-40 3322,178 4666,661 1351,477 2352,1150 3009,2005 650,862 1119,2018 1391,3475l-3725 607c-194,-1170 -708,-2078 -1533,-2719 -827,-641 -1978,-942 -3462,-908 -1746,40 -2992,360 -3725,955 -732,597 -1094,1286 -1076,2061 11,493 173,938 494,1329 321,399 813,728 1485,981 387,136 1511,436 3391,900 2710,657 4606,1208 5689,1640 1082,431 1937,1085 2565,1942 636,862 964,1941 994,3244 29,1268 -313,2471 -1034,3611 -719,1138 -1773,2033 -3156,2681 -1391,646 -2970,987 -4737,1027 -2925,66 -5177,-491 -6740,-1666 -1563,-1182 -2582,-2955 -3063,-5329zm24027 14257l-2365 -31117 3468 -263 224 2954c729,-1204 1589,-2134 2578,-2783 982,-648 2209,-1032 3676,-1142 1921,-147 3648,215 5191,1094 1540,870 2751,2181 3639,3915 881,1742 1405,3678 1569,5822 174,2291 -80,4389 -764,6292 -684,1897 -1776,3397 -3276,4499 -1493,1095 -3110,1712 -4843,1844 -1271,97 -2434,-84 -3479,-542 -1051,-459 -1926,-1068 -2639,-1835l835 10973 -3814 289zm1968 -19996c219,2882 965,4967 2233,6259 1275,1290 2744,1877 4406,1750 1690,-128 3080,-953 4170,-2475 1097,-1522 1529,-3777 1301,-6775 -217,-2861 -965,-4953 -2250,-6287 -1286,-1334 -2741,-1935 -4373,-1812 -1618,123 -2991,991 -4118,2596 -1135,1612 -1589,3854 -1369,6744zm21469 9236l-5397 -30648 3767 -663 1942 11029c1388,-2357 3413,-3763 6081,-4233 1632,-288 3110,-217 4436,218 1320,438 2340,1177 3062,2227 722,1049 1272,2667 1653,4836l2477 14061 -3767 663 -2474 -14046c-329,-1877 -977,-3176 -1935,-3890 -964,-713 -2181,-939 -3665,-678 -1105,195 -2097,663 -2973,1414 -875,749 -1429,1656 -1675,2721 -241,1058 -208,2456 99,4198l2135 12128 -3766 663zm37219 -14453l3971 -381c-84,2377 -803,4378 -2156,5992 -1352,1613 -3299,2717 -5847,3305 -3204,740 -5973,337 -8307,-1206 -2331,-1536 -3911,-4094 -4733,-7658 -850,-3684 -565,-6768 864,-9239 1428,-2478 3656,-4062 6685,-4762 2929,-675 5552,-234 7869,1336 2317,1569 3897,4163 4733,7785 50,218 120,552 206,993l-16368 3777c697,2375 1801,4068 3324,5061 1517,996 3196,1285 5024,864 1362,-315 2443,-944 3238,-1886 801,-942 1297,-2269 1497,-3981zm-13574 -3157l12238 -2823c-588,-1812 -1381,-3087 -2363,-3834 -1510,-1161 -3215,-1526 -5099,-1091 -1708,394 -3009,1297 -3911,2709 -893,1411 -1181,3090 -865,5039zm23780 8474l-6194 -21691 3301 -942 949 3322c403,-1780 893,-3020 1471,-3712 576,-700 1295,-1168 2150,-1412 1240,-354 2613,-325 4116,83l-342 3766c-1035,-247 -1998,-243 -2889,11 -802,229 -1449,678 -1945,1339 -497,661 -759,1460 -786,2394 -39,1420 166,2905 610,4459l3236 11333 -3677 1050zm26748 -15232l3946 -585c39,2378 -577,4414 -1845,6095 -1268,1680 -3155,2883 -5669,3600 -3163,903 -5949,644 -8359,-778 -2407,-1414 -4116,-3887 -5120,-7405 -1038,-3635 -912,-6730 389,-9271 1299,-2548 3444,-4245 6431,-5098 2892,-826 5533,-519 7928,930 2395,1449 4105,3958 5126,7531 62,216 148,546 258,981l-16154 4613c818,2335 2008,3970 3580,4884 1565,917 3257,1119 5061,604 1344,-384 2392,-1068 3137,-2049 751,-982 1178,-2333 1291,-4052zm-13719 -2457l12078 -3448c-681,-1779 -1537,-3011 -2558,-3707 -1567,-1082 -3287,-1359 -5148,-828 -1685,481 -2938,1449 -3766,2906 -819,1455 -1021,3147 -606,5077z"/>
 </g>
</svg>
