<?xml version="1.0" encoding="UTF-8"?>
<!DOCTYPE svg PUBLIC "-//W3C//DTD SVG 1.1//EN" "http://www.w3.org/Graphics/SVG/1.1/DTD/svg11.dtd">
<!-- Creator: CorelDRAW X8 -->
<svg xmlns="http://www.w3.org/2000/svg" xml:space="preserve" width="112.426mm" height="86.9736mm" version="1.1" style="shape-rendering:geometricPrecision; text-rendering:geometricPrecision; image-rendering:optimizeQuality; fill-rule:evenodd; clip-rule:evenodd"
viewBox="0 0 11542913 8929676"
 xmlns:xlink="http://www.w3.org/1999/xlink">
 <defs>
  <style type="text/css">
   <![CDATA[
    .str1 {stroke:black;stroke-width:20534.2}
    .str0 {stroke:red;stroke-width:20534.2}
    .str4 {stroke:black;stroke-width:20534.2;stroke-dasharray:41068.444912 61602.667368}
    .str3 {stroke:black;stroke-width:20534.2;stroke-dasharray:41068.444912 61602.667368}
    .str2 {stroke:blue;stroke-width:20534.2;stroke-dasharray:41068.444912 61602.667368}
    .fil4 {fill:none}
    .fil2 {fill:black}
    .fil3 {fill:#CCCCCC}
    .fil0 {fill:#F7F7F7}
    .fil1 {fill:red}
    .fil5 {fill:black;fill-rule:nonzero}
    .fil7 {fill:blue;fill-rule:nonzero}
    .fil6 {fill:red;fill-rule:nonzero}
   ]]>
  </style>
 </defs>
 <g id="Ebene_x0020_1">
  <metadata id="CorelCorpID_0Corel-Layer"/>
  <path class="fil0 str0" d="M4940103 2285746c1203480,0 2179091,975612 2179091,2179092 0,1203480 -975611,2179092 -2179091,2179092 -1203480,0 -2179092,-975612 -2179092,-2179092 0,-1203480 975612,-2179092 2179092,-2179092z"/>
  <circle class="fil1" cx="4940103" cy="4464838" r="95125"/>
  <circle class="fil2" cx="4160870" cy="2517270" r="95125"/>
  <circle class="fil3 str1" cx="1627310" cy="1393988" r="415553"/>
  <polygon class="fil3 str1" points="11201,3430570 805373,2442474 1811930,3190474 2301363,4464838 1396378,4926560 313208,4636319 "/>
  <polygon class="fil3 str1" points="9319282,2841844 6456586,1724474 7823292,3460561 8589753,3654486 "/>
  <polygon class="fil3 str1" points="10823044,5696132 11524309,2704183 9998965,4302690 9915401,5088873 "/>
  <circle class="fil4 str2" cx="4940103" cy="4464838" r="4101434"/>
  <circle class="fil4 str3" cx="4160870" cy="2517270" r="2357842"/>
  <path class="fil5" d="M1371204 4092265l-38245 0 0 -243546c-9200,8840 -21305,17608 -36223,26376 -14928,8758 -28399,15350 -40278,19703l0 -36951c21366,-9990 40063,-22167 56069,-36510 16006,-14272 27382,-28101 34046,-41572l24631 0 0 312500z"/>
  <path class="fil5" d="M8249018 3077813l0 36510 -206009 0c-298,-9199 1232,-18039 4486,-26582 5288,-13984 13768,-27824 25432,-41366 11663,-13542 28317,-29189 49980,-46941 33687,-27742 56572,-49693 68523,-65925 12033,-16222 18039,-31582 18039,-46069 0,-15133 -5431,-27885 -16294,-38317 -10873,-10359 -25062,-15575 -42526,-15575 -18471,0 -33245,5503 -44333,16520 -11079,10934 -16664,26150 -16808,45637l-39117 -3912c2679,-29271 12823,-51581 30359,-66941 17598,-15360 41141,-23029 70772,-23029 29846,0 53532,8255 70915,24846 17464,16582 26150,37157 26150,61644 0,12454 -2536,24703 -7680,36725 -5072,12095 -13542,24775 -25349,38102 -11879,13254 -31510,31581 -58893,54764 -22967,19272 -37741,32311 -44261,39190 -6520,6879 -11879,13768 -16161,20719l152775 0z"/>
  <path class="fil5" d="M1525385 1465045l38245 -5216c4425,21725 11807,37372 22310,46941 10503,9559 23399,14344 38687,14344 18111,0 33399,-6233 45709,-18697 12310,-12454 18470,-27885 18470,-46284 0,-17536 -5718,-32023 -17238,-43461 -11448,-11376 -26007,-17094 -43759,-17094 -7238,0 -16222,1447 -27012,4271l4271 -33471c2536,287 4640,431 6160,431 16366,0 31007,-4271 44118,-12741 13039,-8481 19559,-21520 19559,-39118 0,-13984 -4785,-25575 -14272,-34775 -9497,-9199 -21735,-13758 -36735,-13758 -14918,0 -27301,4703 -37229,14118 -9928,9425 -16304,23542 -19128,42382l-38245 -6951c4713,-25647 15288,-45565 31870,-59693 16519,-14127 37167,-21150 61797,-21150 16951,0 32598,3614 46870,10935 14343,7248 25277,17166 32813,29702 7608,12598 11376,25935 11376,40052 0,13409 -3624,25576 -10801,36582 -7238,11017 -17967,19785 -32084,26304 18398,4200 32670,13040 42885,26438 10134,13327 15206,30134 15206,50196 0,27167 -9918,50278 -29703,69180 -19846,18912 -44908,28327 -75186,28327 -27310,0 -49980,-8183 -68019,-24487 -18112,-16294 -28399,-37372 -30935,-63307z"/>
  <path class="fil5" d="M10400789 4634923l0 -74324 -135177 0 0 -35205 142128 -201667 31294 0 0 201667 42157 0 0 35205 -42157 0 0 74324 -38245 0zm0 -109529l0 -140023 -97579 140023 97579 0z"/>
  <path class="fil6" d="M4171086 6166109l31859 28265c-23214,26068 -48810,41777 -76860,47229 -28029,5462 -56449,770 -85186,-14117 -29723,-15401 -50771,-33985 -63122,-55802 -12383,-21756 -17434,-46644 -15257,-74642 2228,-28060 10103,-55227 23768,-81593 14908,-28758 33358,-50997 55463,-66726 22095,-15709 46161,-23881 72178,-24518 26037,-626 51212,5411 75525,18009 27659,14333 47239,33378 58717,57188 11551,23850 14446,50401 8635,79703l-40288 -10113c4035,-23358 2310,-42865 -5113,-58297 -7382,-15493 -20339,-27988 -38800,-37557 -21150,-10965 -41530,-15082 -61017,-12279 -19477,2782 -36602,11283 -51202,25432 -14682,14168 -26746,30359 -36181,48563 -12167,23471 -19385,45760 -21633,66788 -2280,21088 1560,39641 11478,55791 9898,16140 23225,28522 40022,37218 20452,10606 40750,13614 61007,9179 20277,-4497 38922,-17033 56007,-37721zm199223 112876l35729 17732c-13254,19743 -29939,32937 -49939,39497 -20010,6561 -42372,5657 -67116,-2813 -31109,-10637 -52506,-28676 -64169,-54108 -11695,-25349 -11602,-55411 236,-90022 12238,-35781 30945,-60463 56130,-73892 25216,-13501 52506,-15195 81921,-5134 28440,9723 48379,27331 59765,52897 11386,25565 11109,55935 -914,91089 -729,2126 -1899,5329 -3490,9528l-158956 -54354c-6622,23840 -6181,44056 1499,60535 7618,16458 20360,27783 38112,33851 13234,4527 25729,4897 37454,1098 11766,-3778 22998,-12433 33738,-25904zm-98616 -98492l118852 40647c4569,-18491 4569,-33501 165,-45041 -6684,-17824 -19231,-29929 -37537,-36182 -16581,-5677 -32403,-4877 -47506,2351 -15041,7270 -26366,20001 -33974,38225zm158257 192847l69416 -303352 37291 8532 -69416 303352 -37291 -8532zm93924 22547l53071 -306638 37690 6520 -53060 306637 -37701 -6519zm205558 -35165l38163 -3193c955,15246 5985,27259 15062,36078 9065,8768 22341,13840 39672,15165 17556,1335 30832,-1222 39887,-7731 8994,-6438 13892,-14487 14621,-24097 657,-8594 -2659,-15678 -9867,-21161 -5092,-3798 -17772,-9045 -38029,-15893 -27342,-9128 -46172,-16653 -56613,-22608 -10370,-6017 -17988,-13727 -22865,-23245 -4877,-9456 -6930,-19703 -6099,-30688 770,-10042 3779,-19118 8984,-27280 5267,-8183 12023,-14785 20319,-19826 6263,-3881 14630,-6951 25041,-9210 10483,-2248 21510,-2936 33214,-2043 17619,1335 32886,5031 45781,11171 12988,6078 22280,13758 27978,22906 5616,9220 9138,21181 10411,35955l-37660 2372c-780,-11838 -4990,-21376 -12577,-28563 -7598,-7187 -18758,-11315 -33563,-12444 -17403,-1314 -30124,626 -38009,5842 -7875,5216 -12146,11715 -12731,19446 -370,4918 801,9507 3604,13707 2802,4281 7382,8049 13819,11232 3717,1725 14600,5821 32845,12290 26335,9199 44662,16550 55000,21920 10350,5359 18214,12711 23625,21838 5483,9210 7690,20278 6705,33276 -966,12638 -5555,24281 -13851,34908 -8285,10626 -19641,18491 -34046,23573 -14476,5062 -30524,6900 -48152,5565 -29179,-2218 -51038,-9990 -65433,-23214 -14394,-13306 -22782,-31951 -25236,-56048zm233864 168606l-23645 -311175 34672 -2629 2248 29539c7290,-12033 15884,-21335 25781,-27824 9816,-6479 22095,-10319 36756,-11427 19210,-1458 36490,2156 51911,10944 15401,8697 27506,21808 36387,39149 8809,17423 14055,36787 15688,58225 1745,22906 -801,43881 -7639,62927 -6838,18963 -17762,33963 -32762,44980 -14929,10945 -31099,17115 -48430,18440 -12711,965 -24333,-842 -34785,-5421 -10514,-4590 -19261,-10678 -26387,-18337l8347 109714 -38142 2895zm19682 -199962c2187,28820 9651,49672 22331,62588 12752,12906 27434,18769 44056,17506 16900,-1284 30802,-9538 41705,-24754 10966,-15216 15288,-37773 13009,-67753 -2177,-28604 -9651,-49528 -22506,-62865 -12854,-13337 -27403,-19354 -43727,-18112 -16181,1222 -29898,9898 -41182,25945 -11345,16120 -15883,38543 -13686,67445zm214737 94098l-53071 -306648 37691 -6519 19096 110351c13943,-23522 34231,-37537 60936,-42157 16335,-2824 31109,-2074 44354,2320 13183,4405 23368,11838 30555,22352 7187,10524 12638,26715 16396,48409l24344 140680 -37681 6530 -24323 -140546c-3254,-18779 -9692,-31777 -19250,-38944 -9610,-7156 -21777,-9466 -36613,-6889 -11068,1910 -20996,6571 -29775,14046 -8778,7474 -14353,16519 -16838,27177 -2433,10564 -2145,24548 863,41972l21006 121336 -37690 6530zm364790 -159356l39457 -5914c421,23769 -5698,44139 -18348,60967 -12649,16838 -31499,28891 -56633,36109 -31612,9086 -59477,6540 -83605,-7628 -24087,-14097 -41222,-38800 -51325,-73954 -10452,-36346 -9241,-67291 3727,-92723 12946,-25503 34353,-42516 64220,-51099 28892,-8306 55320,-5277 79283,9158 23984,14446 41130,39508 51397,75217 627,2166 1499,5462 2598,9815l-161451 46408c8214,23347 20155,39661 35884,48789 15668,9138 32598,11130 50627,5945 13440,-3861 23902,-10719 31325,-20545 7495,-9836 11756,-23358 12844,-40545zm-137230 -24322l120710 -34703c-6837,-17773 -15431,-30073 -25637,-37024 -15688,-10790 -32906,-13532 -51499,-8182 -16838,4835 -29354,14548 -37598,29127 -8183,14559 -10175,31490 -5976,50782zm238721 62074l-83934 -209377 31869 -12782 12865 32084c2176,-18131 5770,-30965 10811,-38450 5000,-7546 11664,-12947 19929,-16253 11971,-4805 25647,-5914 41017,-3419l482 37814c-10544,-1386 -20123,-359 -28727,3090 -7742,3101 -13717,8235 -17968,15329 -4260,7085 -6047,15298 -5349,24621 1068,14158 4641,28717 10657,43717l43851 109396 -35503 14230zm235548 -193976l37464 -13717c5185,23214 3276,44395 -5739,63420 -9014,19025 -25062,34621 -48225,46736 -29138,15247 -56951,18347 -83430,9312 -26438,-8973 -48173,-29733 -65135,-62147 -17526,-33501 -22556,-64066 -14959,-91582 7557,-27588 25124,-48543 52660,-62948 26633,-13943 53133,-16284 79509,-6941 26386,9333 48224,30442 65453,63369 1037,1992 2556,5041 4507,9087l-148853 77876c12742,21211 27711,34805 44950,40585 17187,5812 34169,4364 50791,-4332 12382,-6489 21263,-15298 26571,-26418 5360,-11139 6818,-25236 4436,-42300zm-139325 3727l111296 -58225c-10268,-16047 -21151,-26376 -32547,-31130 -17536,-7423 -34960,-6653 -52096,2321 -15523,8121 -25842,20144 -30986,36088 -5092,15904 -3645,32886 4333,50946z"/>
  <path class="fil5" d="M4015036 2363222l119376 -311196 45278 0 126696 311196 -46870 0 -36006 -94314 -131039 0 -33759 94314 -43676 0zm89529 -127784l106049 0 -32454 -86275c-9774,-26222 -17167,-47886 -22311,-64980 -4271,20287 -9989,40206 -17166,59908l-34118 91347z"/>
  <path class="fil6" d="M5363118 4520322l41294 10431c-8614,33830 -24117,59549 -46510,77301 -22382,17742 -49764,26653 -82137,26653 -33470,0 -60709,-6807 -81716,-20503 -21006,-13614 -36941,-33389 -47885,-59251 -10935,-25935 -16438,-53677 -16438,-83380 0,-32382 6150,-60627 18542,-84755 12383,-24117 29991,-42444 52804,-54980 22824,-12536 47958,-18758 75340,-18758 31151,0 57301,7895 78451,23758 21222,15863 36007,38101 44334,66788l-40422 9558c-7166,-22598 -17670,-39117 -31366,-49405 -13686,-10360 -30935,-15493 -51726,-15493 -23830,0 -43820,5719 -59826,17166 -16017,11438 -27311,26870 -33758,46141 -6520,19343 -9785,39261 -9785,59765 0,26438 3840,49549 11520,69251 7679,19775 19630,34477 35863,44262 16222,9774 33748,14631 52660,14631 23039,0 42444,-6664 58389,-19919 15934,-13326 26725,-33039 32372,-59261z"/>
  <circle class="fil4 str4" cx="4940103" cy="4464838" r="4454571"/>
  <path class="fil5" d="M3618715 8407984l37557 7156c-2505,15298 -1930,28604 1735,39949 3666,11284 11346,21787 23030,31500 11714,9651 25955,16899 42690,21684 14877,4251 28604,5801 41264,4589 12659,-1211 22824,-4897 30596,-11068 7762,-6160 12988,-13788 15575,-22844 2618,-9189 2238,-17978 -1129,-26427 -3389,-8389 -10596,-16664 -21592,-24929 -7013,-5267 -23142,-15062 -48358,-29313 -25227,-14250 -42414,-25750 -51592,-34610 -11951,-11417 -19744,-23584 -23502,-36448 -3809,-12875 -3737,-26140 123,-39642 4271,-14949 12495,-27649 24611,-38142 12146,-10544 27218,-16848 45390,-18932 18101,-2095 37096,-309 56911,5359 21818,6222 40073,15216 54724,27044 14671,11755 24538,25770 29600,42043 5092,16212 5462,33081 1211,50566l-38265 -7824c3326,-19138 544,-35144 -8337,-47916 -8871,-12834 -24662,-22465 -47290,-28923 -23594,-6735 -42034,-7341 -55268,-1776 -13235,5575 -21623,14446 -25114,26653 -3018,10565 -1663,20370 3994,29395 5596,8943 23132,21592 52773,37773 29631,16242 49580,28696 59847,37413 14826,12762 24672,26325 29364,40791 4713,14405 4785,29477 288,45248 -4487,15708 -13142,29107 -26089,40390 -12937,11294 -28830,18389 -47814,21274 -19004,2885 -38953,1335 -60011,-4672 -26602,-7597 -47773,-17875 -63523,-30750 -15832,-12905 -26561,-28573 -32310,-47126 -5842,-18501 -6150,-37649 -1089,-57485zm419340 139386l36787 13737c-10965,20668 -25955,35299 -44888,43759 -18912,8450 -40894,9836 -65987,4066 -31550,-7259 -54333,-22732 -68358,-46449 -14015,-23645 -16982,-53081 -8922,-88174 8347,-36284 24148,-62362 47444,-78081 23317,-15781 49878,-20216 79693,-13358 28841,6633 50145,21839 63903,45720 13758,23871 16571,53635 8368,89283 -493,2166 -1304,5410 -2434,9692l-161183 -37054c-4056,24015 -1561,43758 7628,59118 9138,15349 22763,25144 40761,29282 13419,3080 25698,2176 36777,-2742 11160,-4897 21263,-14507 30411,-28799zm-106583 -86408l120515 27711c2588,-18583 1058,-33276 -4425,-44118 -8357,-16776 -21879,-27351 -40432,-31622 -16817,-3861 -32218,-1479 -46284,7145 -13994,8645 -23778,22270 -29374,40884zm322695 172426c-15832,9312 -30555,15195 -44128,17803 -13563,2598 -27598,2587 -42208,21 -24025,-4230 -41479,-13307 -52331,-27311 -10873,-13932 -14703,-30041 -11499,-48224 1878,-10668 6057,-20011 12464,-27999 6478,-7988 14107,-13891 22906,-17844 8881,-3943 18450,-6458 28830,-7444 7638,-616 18984,-503 33984,257 30545,1766 53420,1365 68399,-1058 1037,-5041 1674,-8254 1910,-9589 2649,-15031 1006,-26253 -4938,-33676 -8009,-10021 -21397,-16653 -40073,-19939 -17495,-3080 -30966,-2269 -40329,2382 -9425,4641 -17434,14384 -24189,29272l-35360 -11438c6037,-14939 13665,-26571 22926,-34775 9271,-8224 21510,-13593 36756,-16273 15165,-2608 32260,-2279 51079,1027 18686,3295 33543,8152 44498,14641 10873,6478 18553,13480 22865,21119 4291,7628 6673,16735 7135,27310 82,6541 -1293,18030 -4178,34395l-8656 49159c-6047,34354 -9086,56182 -9168,65658 -144,9467 1407,18779 4415,28009l-38769 -6828c-2351,-8449 -3131,-17998 -2341,-28655zm11510 -82691c-14446,3100 -35483,4178 -63122,3234 -15709,-524 -26941,31 -33748,1653 -6808,1632 -12362,4784 -16715,9374 -4364,4661 -7146,10174 -8286,16632 -1725,9775 555,18635 6920,26490 6366,7854 16736,13090 31140,15626 14261,2516 27516,1653 39785,-2628 12177,-4220 21900,-11284 28984,-21109 5483,-7649 9600,-19600 12465,-35822l2577 -13450zm75104 123934l28511 -220240 33523 4343 -4374 33728c10585,-14518 19846,-23820 27772,-27824 7937,-4076 16253,-5514 24949,-4395 12578,1633 24878,7249 36870,16787l-17752 32711c-8389,-6263 -17116,-9979 -26181,-11150 -8122,-1047 -15730,483 -22804,4538 -7063,4035 -12536,10236 -16417,18573 -5893,12690 -9825,26921 -11869,42691l-14897 115074 -37331 -4836zm292407 -50525l36304 7916c-5975,24929 -17700,43851 -35370,56890 -17649,13029 -38594,18584 -62701,16756 -30216,-2299 -53789,-14024 -70638,-35195 -16910,-21161 -23932,-50165 -21140,-87004 1818,-23881 7382,-44426 16633,-61736 9251,-17249 22290,-29775 39190,-37434 16807,-7741 34723,-10883 53779,-9435 23963,1827 43193,9363 57496,22680 14363,13327 22864,31356 25441,54005l-36694 2782c-2351,-15123 -7629,-26756 -15945,-34970 -8245,-8131 -18625,-12721 -31140,-13665 -18912,-1438 -34795,4148 -47691,16766 -12844,12680 -20360,33563 -22588,62866 -2258,29723 1797,51695 12157,66007 10421,14312 24774,22197 43050,23583 14795,1120 27423,-2423 37926,-10708 10576,-8204 17886,-21602 21931,-40104zm62465 87630l7012 -306288 37640 862 -2526 110218c17937,-20062 40206,-29744 66870,-29138 16324,369 30442,3901 42413,10667 11900,6766 20319,15873 25268,27403 4938,11520 7125,28194 6632,49867l-3214 140526 -37639 -862 3214 -140382c421,-18748 -3327,-32526 -11191,-41274 -7937,-8737 -19241,-13275 -34067,-13614 -11057,-257 -21530,2361 -31427,7916 -9898,5544 -17003,13224 -21438,23049 -4343,9734 -6735,23307 -7136,40709l-2772 121204 -37639 -863zm340293 -62958l37085 -6827c2402,14846 8511,26119 18255,33891 9723,7701 23224,11387 40329,10997 17331,-401 30083,-4189 38338,-11438 8182,-7177 12197,-15544 11981,-25031 -195,-8481 -4127,-15093 -11725,-19764 -5349,-3235 -18275,-7157 -38789,-11890 -27680,-6283 -46849,-11848 -57650,-16663 -10739,-4887 -18963,-11695 -24661,-20555 -5688,-8778 -8697,-18635 -8943,-29477 -226,-9897 1838,-19076 6150,-27598 4374,-8511 10339,-15637 17988,-21376 5750,-4415 13655,-8234 23635,-11458 10051,-3224 20780,-4959 32331,-5226 17403,-400 32721,1745 45956,6509 13295,4692 23142,11315 29620,19734 6397,8480 11017,19856 13686,34199l-36664 5986c-1909,-11520 -6961,-20462 -15092,-26766 -8132,-6304 -19477,-9261 -34097,-8933 -17177,391 -29446,3532 -36664,9405 -7208,5873 -10760,12659 -10586,20288 113,4846 1705,9230 4857,13080 3162,3922 8008,7167 14630,9651 3809,1345 14867,4302 33379,8871 26684,6458 45350,11879 56007,16130 10647,4250 19076,10688 25257,19117 6263,8481 9487,19107 9785,31941 287,12475 -3081,24323 -10165,35545 -7105,11211 -17454,20021 -31078,26386 -13697,6376 -29241,9723 -46634,10124 -28809,657 -50966,-4826 -66356,-16387 -15401,-11643 -25421,-29107 -30165,-52465zm236544 140372l-23275 -306350 34138 -2597 2207 29086c7187,-11838 15647,-20996 25380,-27392 9672,-6376 21757,-10154 36192,-11253 18922,-1437 35925,2125 51099,10780 15165,8563 27095,21469 35822,38533 8676,17156 13840,36212 15452,57331 1715,22547 -800,43194 -7525,61942 -6736,18676 -17485,33450 -32260,44292 -14692,10770 -30616,16838 -47680,18142 -12526,945 -23953,-831 -34231,-5339 -10359,-4507 -18973,-10503 -25975,-18049l8203 108020 -37547 2854zm19374 -196872c2156,28379 9508,48913 21992,61624 12547,12710 27003,18480 43358,17238 16643,-1273 30329,-9394 41059,-24364 10811,-14990 15061,-37197 12813,-66705 -2136,-28163 -9497,-48769 -22146,-61901 -12660,-13131 -26992,-19045 -43050,-17834 -15935,1212 -29446,9754 -40545,25545 -11171,15873 -15637,37958 -13481,66397zm211400 91152l-53307 -301689 37075 -6561 19179 108575c13645,-23193 33573,-37064 59836,-41705 16089,-2844 30617,-2166 43687,2115 12998,4292 23050,11581 30154,21910 7116,10329 12537,26243 16305,47588l24456 138421 -37075 6551 -24435 -138278c-3255,-18460 -9641,-31242 -19077,-38275 -9486,-7003 -21468,-9231 -36078,-6654 -10894,1931 -20647,6551 -29251,13943 -8625,7382 -14076,16304 -16489,26808 -2362,10400 -2033,24179 996,41314l21099 119386 -37075 6551zm366392 -142467l39097 -3747c-821,23388 -7905,43101 -21222,58984 -13316,15884 -32475,26736 -57567,32527 -31541,7279 -58800,3336 -81778,-11859 -22957,-15123 -38502,-40298 -46602,-75381 -8368,-36284 -5565,-66644 8501,-90967 14066,-24394 36006,-40000 65812,-46879 28840,-6653 54652,-2300 77476,13152 22813,15452 38357,40986 46581,76634 503,2156 1191,5431 2054,9774l-161153 37198c6859,23368 17732,40031 32722,49816 14928,9815 31468,12659 49466,8501 13409,-3090 24056,-9282 31870,-18553 7885,-9281 12772,-22351 14743,-39200zm-133647 -31068l120505 -27813c-5811,-17834 -13614,-30381 -23286,-37732 -14856,-11427 -31643,-15031 -50195,-10750 -16808,3881 -29621,12773 -38492,26674 -8799,13902 -11643,30432 -8532,49621zm234121 83400l-60987 -213535 32506 -9282 9343 32701c3974,-17526 8789,-29723 14487,-36541 5678,-6889 12742,-11499 21171,-13902 12197,-3490 25719,-3193 40504,812l-3358 37074c-10185,-2433 -19661,-2392 -28450,113 -7875,2249 -14261,6674 -19148,13193 -4887,6510 -7464,14364 -7731,23563 -380,13974 1632,28604 6006,43902l31859 111563 -36202 10339zm263321 -149951l38850 -5750c380,23399 -5677,43451 -18162,60001 -12485,16530 -31058,28358 -55812,35432 -31130,8891 -58564,6345 -82291,-7649 -23696,-13922 -40514,-38266 -50401,-72897 -10226,-35791 -8984,-66263 3819,-91284 12793,-25083 33902,-41788 63317,-50186 28461,-8121 54467,-5103 78051,9158 23573,14261 40411,38964 50453,74139 616,2136 1468,5370 2546,9661l-159027 45412c8049,22988 19764,39076 35236,48081 15411,9035 32075,11016 49837,5944 13234,-3778 23553,-10503 30873,-20164 7403,-9672 11612,-22968 12711,-39898zm-135064 -24179l118914 -33954c-6705,-17515 -15144,-29641 -25186,-36489 -15421,-10647 -32372,-13378 -50678,-8152 -16592,4733 -28923,14271 -37075,28614 -8070,14323 -10061,30987 -5975,49981z"/>
  <g>
   <path class="fil5" d="M2186710 1630571l1978318 877315 -8316 18768 -1978318 -877314 8316 -18769zm212673 -6797l-83266 187765 -308743 -249265 392009 61500z"/>
  </g>
  <g>
   <path class="fil7" d="M2079655 1799178l2867429 2658134 -13963 15052 -2867430 -2658135 13964 -15051zm203391 62496l-139643 150639 -211266 -335889 350909 185250z"/>
  </g>
 </g>
</svg>
