<svg version="1.1" width="621.6015mm" height="356.71125mm" viewBox="0 0 621.6015 356.71125" xmlns="http://www.w3.org/2000/svg" xmlns:xlink="http://www.w3.org/1999/xlink"><path d="M341.28075 186.21375H343.18575" style="fill:none;stroke:#f00;stroke-width:.09525;stroke-miterlimit:41.994751"/><path d="M341.28075 186.21375V184.30875" style="fill:none;stroke:#0f0;stroke-width:.09525;stroke-miterlimit:41.994751"/><path d="M318.58267 356.4255H343.7382V321.27825H318.58267z" style="fill:rgba(255,0,0,.24705882);stroke:rgba(255,0,0,.24705882);stroke-width:.09525;stroke-miterlimit:41.994751"/><path d="M325.89787 355.11105A.47625 .47625 0 00324.94538 355.11105A.47625 .47625 0 00325.89787 355.11105z" fill="rgba(255,0,0,.24705882)"/><path d="M359.18775 356.36835H456.7809V290.35057H359.18775z" style="fill:rgba(255,0,0,.24705882);stroke:rgba(255,0,0,.24705882);stroke-width:.09525;stroke-miterlimit:41.994751"/><path d="M427.22483 354.49193A.47625 .47625 0 00426.27233 354.49193A.47625 .47625 0 00427.22483 354.49193z" fill="rgba(255,0,0,.24705882)"/><path d="M.28575 356.4255H318.34455V204.53985H.28575z" style="fill:rgba(255,0,0,.24705882);stroke:rgba(255,0,0,.24705882);stroke-width:.09525;stroke-miterlimit:41.994751"/><path d="M3.590925 354.1776A.47625 .47625 0 002.638425 354.1776A.47625 .47625 0 003.590925 354.1776z" fill="rgba(255,0,0,.24705882)"/><path d="M457.20952 356.3874H621.31575V204.50175H457.20952z" style="fill:rgba(255,0,0,.24705882);stroke:rgba(255,0,0,.24705882);stroke-width:.09525;stroke-miterlimit:41.994751"/><path d="M618.5916 354.51098A.47625 .47625 0 00617.6391 354.51098A.47625 .47625 0 00618.5916 354.51098z" fill="rgba(255,0,0,.24705882)"/><path d="M256.4892 161.70593H621.31575V.28575H256.4892z" style="fill:rgba(255,0,0,.24705882);stroke:rgba(255,0,0,.24705882);stroke-width:.09525;stroke-miterlimit:41.994751"/><path d="M619.66793 1.343025A.47625 .47625 0 00618.71542 1.343025A.47625 .47625 0 00619.66793 1.343025z" fill="rgba(255,0,0,.24705882)"/><path d="M343.93822 356.21595H359.04487V326.49795H343.93822z" style="fill:rgba(255,0,0,.24705882);stroke:rgba(255,0,0,.24705882);stroke-width:.09525;stroke-miterlimit:41.994751"/><path d="M353.0346 354.79673A.47625 .47625 0 00352.0821 354.79673A.47625 .47625 0 00353.0346 354.79673z" fill="rgba(255,0,0,.24705882)"/><path d="M220.1037 117.1194H256.27013V.28575H220.1037z" style="fill:rgba(255,0,0,.24705882);stroke:rgba(255,0,0,.24705882);stroke-width:.09525;stroke-miterlimit:41.994751"/><path d="M237.54398 2.428875A.47625 .47625 0 00236.59148 2.428875A.47625 .47625 0 00237.54398 2.428875z" fill="rgba(255,0,0,.24705882)"/><path d="M.381 161.7345H219.78938V.409575H.381z" style="fill:rgba(255,0,0,.24705882);stroke:rgba(255,0,0,.24705882);stroke-width:.09525;stroke-miterlimit:41.994751"/><path d="M2.886075 4.13385A.47625 .47625 0 001.933575 4.13385A.47625 .47625 0 002.886075 4.13385z" fill="rgba(255,0,0,.24705882)"/><path d="M456.99998 161.79165A.47625 .47625 0 00456.04748 161.79165A.47625 .47625 0 00456.99998 161.79165z" fill="rgba(255,0,0,.24705882)"/><path d="M219.93225 171.23093H236.03903V142.08443H219.93225z" style="fill:rgba(255,0,0,.24705882);stroke:rgba(255,0,0,.24705882);stroke-width:.09525;stroke-miterlimit:41.994751"/><path d="M227.36175 161.10585A.47625 .47625 0 00226.40925 161.10585A.47625 .47625 0 00227.36175 161.10585z" fill="rgba(255,0,0,.24705882)"/><path d="M.504825 204.1779H219.75128V161.8107H.504825z" style="fill:rgba(255,0,0,.24705882);stroke:rgba(255,0,0,.24705882);stroke-width:.09525;stroke-miterlimit:41.994751"/><path d="M3.60045 178.73663A.47625 .47625 0 002.64795 178.73663A.47625 .47625 0 003.60045 178.73663z" fill="rgba(255,0,0,.24705882)"/><path d="M362.66438 229.46678H384.3909V204.51128H362.66438z" style="fill:rgba(255,0,0,.24705882);stroke:rgba(255,0,0,.24705882);stroke-width:.09525;stroke-miterlimit:41.994751"/><path d="M374.54205 215.35073A.47625 .47625 0 00373.58955 215.35073A.47625 .47625 0 00374.54205 215.35073z" fill="rgba(255,0,0,.24705882)"/><path d="M318.7446 321.04965H334.99425V303.59985H318.7446z" style="fill:rgba(255,0,0,.24705882);stroke:rgba(255,0,0,.24705882);stroke-width:.09525;stroke-miterlimit:41.994751"/><path d="M324.40245 311.658A.47625 .47625 0 00323.44995 311.658A.47625 .47625 0 00324.40245 311.658z" fill="rgba(255,0,0,.24705882)"/><path d="M335.3181 304.59998H343.70963V290.7411H335.3181z" style="fill:rgba(255,0,0,.24705882);stroke:rgba(255,0,0,.24705882);stroke-width:.09525;stroke-miterlimit:41.994751"/><path d="M342.3285 295.60838A.47625 .47625 0 00341.376 295.60838A.47625 .47625 0 00342.3285 295.60838z" fill="rgba(255,0,0,.24705882)"/><path d="M340.4235 223.61843H362.01667V204.58748H340.4235z" style="fill:rgba(255,0,0,.24705882);stroke:rgba(255,0,0,.24705882);stroke-width:.09525;stroke-miterlimit:41.994751"/><path d="M351.55822 214.53158A.47625 .47625 0 00350.60573 214.53158A.47625 .47625 0 00351.55822 214.53158z" fill="rgba(255,0,0,.24705882)"/><path d="M319.59233 229.6287H339.67102V204.50175H319.59233z" style="fill:rgba(255,0,0,.24705882);stroke:rgba(255,0,0,.24705882);stroke-width:.09525;stroke-miterlimit:41.994751"/><path d="M327.67905 214.52205A.47625 .47625 0 00326.72655 214.52205A.47625 .47625 0 00327.67905 214.52205z" fill="rgba(255,0,0,.24705882)"/><path d="M348.18637 229.2096H355.1301V223.98038H348.18637z" style="fill:rgba(255,0,0,.24705882);stroke:rgba(255,0,0,.24705882);stroke-width:.09525;stroke-miterlimit:41.994751"/><path d="M352.13925 225.48532A.47625 .47625 0 00351.18675 225.48532A.47625 .47625 0 00352.13925 225.48532z" fill="rgba(255,0,0,.24705882)"/><path d="M318.53505 303.21885H335.02283V289.7124H318.53505z" style="fill:rgba(255,0,0,.24705882);stroke:rgba(255,0,0,.24705882);stroke-width:.09525;stroke-miterlimit:41.994751"/><path d="M325.09778 295.17023A.47625 .47625 0 00324.14528 295.17023A.47625 .47625 0 00325.09778 295.17023z" fill="rgba(255,0,0,.24705882)"/><path d="M3.1242 178.73663L2.409825 4.13385" style="fill:none;stroke:rgba(255,0,0,.24705882);stroke-width:.09525;stroke-miterlimit:41.994751"/><path d="M351.08197 214.53158L351.663 225.48532" style="fill:none;stroke:rgba(255,0,0,.24705882);stroke-width:.09525;stroke-miterlimit:41.994751"/><path d="M324.62153 295.17023L341.85225 295.60838" style="fill:none;stroke:rgba(255,0,0,.24705882);stroke-width:.09525;stroke-miterlimit:41.994751"/><path d="M351.08197 214.53158L327.2028 214.52205" style="fill:none;stroke:rgba(255,0,0,.24705882);stroke-width:.09525;stroke-miterlimit:41.994751"/><path d="M351.08197 214.53158L374.0658 215.35073" style="fill:none;stroke:rgba(255,0,0,.24705882);stroke-width:.09525;stroke-miterlimit:41.994751"/><path d="M618.11535 354.51098L426.74858 354.49193" style="fill:none;stroke:rgba(255,0,0,.24705882);stroke-width:.09525;stroke-miterlimit:41.994751"/><path d="M2.409825 4.13385L237.06773 2.428875" style="fill:none;stroke:rgba(255,0,0,.24705882);stroke-width:.09525;stroke-miterlimit:41.994751"/><path d="M352.55835 354.79673L325.42163 355.11105" style="fill:none;stroke:rgba(255,0,0,.24705882);stroke-width:.09525;stroke-miterlimit:41.994751"/><path d="M324.62153 295.17023L323.9262 311.658" style="fill:none;stroke:rgba(255,0,0,.24705882);stroke-width:.09525;stroke-miterlimit:41.994751"/><path d="M323.9262 311.658L325.42163 355.11105" style="fill:none;stroke:rgba(255,0,0,.24705882);stroke-width:.09525;stroke-miterlimit:41.994751"/><path d="M3.114675 354.1776L3.1242 178.73663" style="fill:none;stroke:rgba(255,0,0,.24705882);stroke-width:.09525;stroke-miterlimit:41.994751"/><path d="M426.74858 354.49193L352.55835 354.79673" style="fill:none;stroke:rgba(255,0,0,.24705882);stroke-width:.09525;stroke-miterlimit:41.994751"/><path d="M237.06773 2.428875L619.19168 1.343025" style="fill:none;stroke:rgba(255,0,0,.24705882);stroke-width:.09525;stroke-miterlimit:41.994751"/><path d="M325.42163 355.11105L3.114675 354.1776" style="fill:none;stroke:rgba(255,0,0,.24705882);stroke-width:.09525;stroke-miterlimit:41.994751"/><path d="M618.60113 204.50175L618.11535 354.51098" style="fill:none;stroke:rgba(230,0,24,.24705882);stroke-width:.09525;stroke-miterlimit:41.994751"/><path d="M618.58208 161.82975L619.19168 1.343025" style="fill:none;stroke:rgba(226,0,24,.24705882);stroke-width:.09525;stroke-miterlimit:41.994751"/><path d="M618.58208 161.82975L456.52373 161.79165" style="fill:none;stroke:rgba(226,0,24,.24705882);stroke-width:.09525;stroke-miterlimit:41.994751"/><path d="M619.07738 204.50175A.47625 .47625 0 00618.12487 204.50175A.47625 .47625 0 00619.07738 204.50175z" fill="rgba(206,0,48,.24705882)"/><path d="M618.58208 161.82975L618.60113 204.50175" style="fill:none;stroke:rgba(202,0,52,.24705882);stroke-width:.09525;stroke-miterlimit:41.994751"/><path d="M619.05833 161.82975A.47625 .47625 0 00618.10582 161.82975A.47625 .47625 0 00619.05833 161.82975z" fill="rgba(202,0,52,.24705882)"/><path d="M426.74858 354.49193L425.33888 204.50175" style="fill:none;stroke:rgba(190,0,60,.24705882);stroke-width:.09525;stroke-miterlimit:41.994751"/><path d="M351.663 225.48532L351.55822 240.40148" style="fill:none;stroke:rgba(161,0,89,.24705882);stroke-width:.09525;stroke-miterlimit:41.994751"/><path d="M618.60113 204.50175H457.60005" style="fill:none;stroke:rgba(157,0,97,.24705882);stroke-width:.09525;stroke-miterlimit:41.994751"/><path d="M249.23115 140.00797A.47625 .47625 0 00248.27865 140.00797A.47625 .47625 0 00249.23115 140.00797z" fill="rgba(145,0,109,.24705882)"/><path d="M220.31325 125.5395H236.7915V117.63375H220.31325z" style="fill:rgba(145,0,109,.24705882);stroke:rgba(145,0,109,.24705882);stroke-width:.09525;stroke-miterlimit:41.994751"/><path d="M229.96207 120.65318A.47625 .47625 0 00229.00958 120.65318A.47625 .47625 0 00229.96207 120.65318z" fill="rgba(145,0,109,.24705882)"/><path d="M223.02787 124.5108A.47625 .47625 0 00222.07538 124.5108A.47625 .47625 0 00223.02787 124.5108z" fill="rgba(145,0,109,.24705882)"/><path d="M220.31325 141.06525H232.41V126.492H220.31325z" style="fill:rgba(145,0,109,.24705882);stroke:rgba(145,0,109,.24705882);stroke-width:.09525;stroke-miterlimit:41.994751"/><path d="M227.65702 134.0358A.47625 .47625 0 00226.70452 134.0358A.47625 .47625 0 00227.65702 134.0358z" fill="rgba(145,0,109,.24705882)"/><path d="M239.55375 125.5395H256.032V117.63375H239.55375z" style="fill:rgba(145,0,109,.24705882);stroke:rgba(145,0,109,.24705882);stroke-width:.09525;stroke-miterlimit:41.994751"/><path d="M244.82108 121.45328A.47625 .47625 0 00243.86858 121.45328A.47625 .47625 0 00244.82108 121.45328z" fill="rgba(145,0,109,.24705882)"/><path d="M253.87935 120.72938A.47625 .47625 0 00252.92685 120.72938A.47625 .47625 0 00253.87935 120.72938z" fill="rgba(145,0,109,.24705882)"/><path d="M254.51753 125.1204A.47625 .47625 0 00253.56503 125.1204A.47625 .47625 0 00254.51753 125.1204z" fill="rgba(145,0,109,.24705882)"/><path d="M243.93525 141.06525H256.032V126.39675H243.93525z" style="fill:rgba(145,0,109,.24705882);stroke:rgba(145,0,109,.24705882);stroke-width:.09525;stroke-miterlimit:41.994751"/><path d="M249.67883 130.54012A.47625 .47625 0 00248.72633 130.54012A.47625 .47625 0 00249.67883 130.54012z" fill="rgba(145,0,109,.24705882)"/><path d="M351.13913 204.27315L351.08197 214.53158" style="fill:none;stroke:rgba(145,0,109,.24705882);stroke-width:.09525;stroke-miterlimit:41.994751"/><path d="M249.20258 130.54012L254.04128 125.1204" style="fill:none;stroke:rgba(145,0,109,.24705882);stroke-width:.09525;stroke-miterlimit:41.994751"/><path d="M457.75245 183.65152L456.52373 161.79165" style="fill:none;stroke:rgba(145,0,109,.24705882);stroke-width:.09525;stroke-miterlimit:41.994751"/><path d="M248.7549 140.00797L249.20258 130.54012" style="fill:none;stroke:rgba(145,0,109,.24705882);stroke-width:.09525;stroke-miterlimit:41.994751"/><path d="M3.1242 178.73663L225.69488 181.78463" style="fill:none;stroke:rgba(145,0,109,.24705882);stroke-width:.09525;stroke-miterlimit:41.994751"/><path d="M225.69488 181.78463L226.8855 161.10585" style="fill:none;stroke:rgba(145,0,109,.24705882);stroke-width:.09525;stroke-miterlimit:41.994751"/><path d="M227.18077 134.0358L222.55163 124.5108" style="fill:none;stroke:rgba(145,0,109,.24705882);stroke-width:.09525;stroke-miterlimit:41.994751"/><path d="M222.55163 124.5108L229.48583 120.65318" style="fill:none;stroke:rgba(145,0,109,.24705882);stroke-width:.09525;stroke-miterlimit:41.994751"/><path d="M247.22138 162.01073L226.8855 161.10585" style="fill:none;stroke:rgba(145,0,109,.24705882);stroke-width:.09525;stroke-miterlimit:41.994751"/><path d="M254.04128 125.1204L253.4031 120.72938" style="fill:none;stroke:rgba(145,0,109,.24705882);stroke-width:.09525;stroke-miterlimit:41.994751"/><path d="M253.4031 120.72938L244.34483 121.45328" style="fill:none;stroke:rgba(145,0,109,.24705882);stroke-width:.09525;stroke-miterlimit:41.994751"/><path d="M384.41948 289.88385H456.68565V204.50175H384.41948z" style="fill:rgba(125,0,125,.24705882);stroke:rgba(125,0,125,.24705882);stroke-width:.09525;stroke-miterlimit:41.994751"/><path d="M425.81513 204.50175A.47625 .47625 0 00424.86263 204.50175A.47625 .47625 0 00425.81513 204.50175z" fill="rgba(125,0,125,.24705882)"/><path d="M226.8855 161.10585L227.70465 141.24623" style="fill:none;stroke:rgba(125,0,125,.24705882);stroke-width:.09525;stroke-miterlimit:41.994751"/><path d="M425.33888 204.50175H457.60005" style="fill:none;stroke:rgba(121,0,133,.24705882);stroke-width:.09525;stroke-miterlimit:41.994751"/><path d="M458.0763 204.50175A.47625 .47625 0 00457.1238 204.50175A.47625 .47625 0 00458.0763 204.50175z" fill="rgba(113,0,141,.24705882)"/><path d="M247.22138 162.01073L248.7549 140.00797" style="fill:none;stroke:rgba(89,0,161,.24705882);stroke-width:.09525;stroke-miterlimit:41.994751"/><path d="M425.33888 204.50175L351.13913 204.27315" style="fill:none;stroke:rgba(80,0,174,.24705882);stroke-width:.09525;stroke-miterlimit:41.994751"/><path d="M457.60005 204.50175L457.75245 183.65152" style="fill:none;stroke:rgba(72,0,182,.24705882);stroke-width:.09525;stroke-miterlimit:41.994751"/><path d="M352.25355 289.4457A.47625 .47625 0 00351.30105 289.4457A.47625 .47625 0 00352.25355 289.4457z" fill="rgba(72,0,182,.24705882)"/><path d="M318.27787 289.77908H383.7051V253.04115H318.27787z" style="fill:rgba(72,0,182,.24705882);stroke:rgba(72,0,182,.24705882);stroke-width:.09525;stroke-miterlimit:41.994751"/><path d="M352.70123 264.51878A.47625 .47625 0 00351.74873 264.51878A.47625 .47625 0 00352.70123 264.51878z" fill="rgba(72,0,182,.24705882)"/><path d="M319.70663 252.30773H383.39078V229.50487H319.70663z" style="fill:rgba(72,0,182,.24705882);stroke:rgba(72,0,182,.24705882);stroke-width:.09525;stroke-miterlimit:41.994751"/><path d="M352.03447 240.40148A.47625 .47625 0 00351.08197 240.40148A.47625 .47625 0 00352.03447 240.40148z" fill="rgba(72,0,182,.24705882)"/><path d="M344.32875 326.0598H358.7115V290.5506H344.32875z" style="fill:rgba(72,0,182,.24705882);stroke:rgba(72,0,182,.24705882);stroke-width:.09525;stroke-miterlimit:41.994751"/><path d="M351.82493 311.79135A.47625 .47625 0 00350.87243 311.79135A.47625 .47625 0 00351.82493 311.79135z" fill="rgba(72,0,182,.24705882)"/><path d="M227.70465 141.24623L227.18077 134.0358" style="fill:none;stroke:rgba(72,0,182,.24705882);stroke-width:.09525;stroke-miterlimit:41.994751"/><path d="M351.7773 289.4457L351.34868 311.79135" style="fill:none;stroke:rgba(72,0,182,.24705882);stroke-width:.09525;stroke-miterlimit:41.994751"/><path d="M351.55822 240.40148L352.22498 264.51878" style="fill:none;stroke:rgba(72,0,182,.24705882);stroke-width:.09525;stroke-miterlimit:41.994751"/><path d="M352.22498 264.51878L351.7773 289.4457" style="fill:none;stroke:rgba(72,0,182,.24705882);stroke-width:.09525;stroke-miterlimit:41.994751"/><path d="M255.64148 203.31113H299.33265V162.59175H255.64148z" style="fill:rgba(36,0,218,.24705882);stroke:rgba(36,0,218,.24705882);stroke-width:.09525;stroke-miterlimit:41.994751"/><path d="M281.51137 180.66067A.47625 .47625 0 00280.55888 180.66067A.47625 .47625 0 00281.51137 180.66067z" fill="rgba(36,0,218,.24705882)"/><path d="M236.69625 171.3357H255.67005V141.6558H236.69625z" style="fill:rgba(36,0,218,.24705882);stroke:rgba(36,0,218,.24705882);stroke-width:.09525;stroke-miterlimit:41.994751"/><path d="M247.69763 162.01073A.47625 .47625 0 00246.74513 162.01073A.47625 .47625 0 00247.69763 162.01073z" fill="rgba(36,0,218,.24705882)"/><path d="M236.57243 203.6445H255.55575V171.43095H236.57243z" style="fill:rgba(36,0,218,.24705882);stroke:rgba(36,0,218,.24705882);stroke-width:.09525;stroke-miterlimit:41.994751"/><path d="M247.5357 180.8607A.47625 .47625 0 00246.5832 180.8607A.47625 .47625 0 00247.5357 180.8607z" fill="rgba(36,0,218,.24705882)"/><path d="M299.7327 203.57783H334.3275V162.97275H299.7327z" style="fill:rgba(36,0,218,.24705882);stroke:rgba(36,0,218,.24705882);stroke-width:.09525;stroke-miterlimit:41.994751"/><path d="M318.26835 180.213A.47625 .47625 0 00317.31585 180.213A.47625 .47625 0 00318.26835 180.213z" fill="rgba(36,0,218,.24705882)"/><path d="M457.20952 204.2541H620.85855V161.98215H457.20952z" style="fill:rgba(36,0,218,.24705882);stroke:rgba(36,0,218,.24705882);stroke-width:.09525;stroke-miterlimit:41.994751"/><path d="M458.2287 183.65152A.47625 .47625 0 00457.2762 183.65152A.47625 .47625 0 00458.2287 183.65152z" fill="rgba(36,0,218,.24705882)"/><path d="M220.97048 203.81595H236.38193V171.57382H220.97048z" style="fill:rgba(36,0,218,.24705882);stroke:rgba(36,0,218,.24705882);stroke-width:.09525;stroke-miterlimit:41.994751"/><path d="M226.17113 181.78463A.47625 .47625 0 00225.21863 181.78463A.47625 .47625 0 00226.17113 181.78463z" fill="rgba(36,0,218,.24705882)"/><path d="M396.74482 203.27303H456.7809V162.31553H396.74482z" style="fill:rgba(36,0,218,.24705882);stroke:rgba(36,0,218,.24705882);stroke-width:.09525;stroke-miterlimit:41.994751"/><path d="M418.63328 182.12752A.47625 .47625 0 00417.68078 182.12752A.47625 .47625 0 00418.63328 182.12752z" fill="rgba(36,0,218,.24705882)"/><path d="M351.61538 204.27315A.47625 .47625 0 00350.66288 204.27315A.47625 .47625 0 00351.61538 204.27315z" fill="rgba(36,0,218,.24705882)"/><path d="M363.07395 203.86357H396.24953V162.20122H363.07395z" style="fill:rgba(36,0,218,.24705882);stroke:rgba(36,0,218,.24705882);stroke-width:.09525;stroke-miterlimit:41.994751"/><path d="M376.05653 180.77498A.47625 .47625 0 00375.10403 180.77498A.47625 .47625 0 00376.05653 180.77498z" fill="rgba(36,0,218,.24705882)"/><path d="M334.95615 203.5683H362.99775V162.63938H334.95615z" style="fill:rgba(36,0,218,.24705882);stroke:rgba(36,0,218,.24705882);stroke-width:.09525;stroke-miterlimit:41.994751"/><path d="M351.79635 180.72735A.47625 .47625 0 00350.84385 180.72735A.47625 .47625 0 00351.79635 180.72735z" fill="rgba(36,0,218,.24705882)"/><path d="M317.7921 180.213L281.03512 180.66067" style="fill:none;stroke:rgba(36,0,218,.24705882);stroke-width:.09525;stroke-miterlimit:41.994751"/><path d="M351.3201 180.72735L317.7921 180.213" style="fill:none;stroke:rgba(36,0,218,.24705882);stroke-width:.09525;stroke-miterlimit:41.994751"/><path d="M375.58028 180.77498L351.3201 180.72735" style="fill:none;stroke:rgba(36,0,218,.24705882);stroke-width:.09525;stroke-miterlimit:41.994751"/><path d="M281.03512 180.66067L247.05945 180.8607" style="fill:none;stroke:rgba(36,0,218,.24705882);stroke-width:.09525;stroke-miterlimit:41.994751"/><path d="M418.15703 182.12752L375.58028 180.77498" style="fill:none;stroke:rgba(36,0,218,.24705882);stroke-width:.09525;stroke-miterlimit:41.994751"/><path d="M351.3201 180.72735L351.13913 204.27315" style="fill:none;stroke:rgba(36,0,218,.24705882);stroke-width:.09525;stroke-miterlimit:41.994751"/><path d="M247.05945 180.8607L247.22138 162.01073" style="fill:none;stroke:rgba(36,0,218,.24705882);stroke-width:.09525;stroke-miterlimit:41.994751"/><path d="M457.75245 183.65152L418.15703 182.12752" style="fill:none;stroke:rgba(36,0,218,.24705882);stroke-width:.09525;stroke-miterlimit:41.994751"/><path d="M247.05945 180.8607L225.69488 181.78463" style="fill:none;stroke:rgba(36,0,218,.24705882);stroke-width:.09525;stroke-miterlimit:41.994751"/><path d="M228.1809 141.24623A.47625 .47625 0 00227.2284 141.24623A.47625 .47625 0 00228.1809 141.24623z" fill="rgba(0,0,255,.24705882)"/></svg>