<svg version="1.1" width="403.479mm" height="306.8955mm" viewBox="0 0 403.479 306.8955" xmlns="http://www.w3.org/2000/svg" xmlns:xlink="http://www.w3.org/1999/xlink"><path d="M-131.826 381.47625H-129.921" style="fill:none;stroke:#f00;stroke-width:.09525;stroke-miterlimit:41.994751"/><path d="M-131.826 381.47625V379.57125" style="fill:none;stroke:#0f0;stroke-width:.09525;stroke-miterlimit:41.994751"/><path d="M307.04791 55.07355H353.70134V.314325H307.04791z" style="fill:rgba(255,0,0,.24705882);stroke:rgba(255,0,0,.24705882);stroke-width:.09525;stroke-miterlimit:41.994751"/><path d="M330.86993 28.194A.47625 .47625 0 00329.91743 28.194A.47625 .47625 0 00330.86993 28.194z" fill="rgba(255,0,0,.24705882)"/><path d="M330.37463 78.705075L330.39368 28.194" style="fill:none;stroke:rgba(255,0,0,.24705882);stroke-width:.09525;stroke-miterlimit:41.994751"/><path d="M384.1623 184.03253H403.1742V123.34875H384.1623z" style="fill:rgba(255,0,0,.24705882);stroke:rgba(255,0,0,.24705882);stroke-width:.09525;stroke-miterlimit:41.994751"/><path d="M394.1445 153.68588A.47625 .47625 0 00393.192 153.68588A.47625 .47625 0 00394.1445 153.68588z" fill="rgba(255,0,0,.24705882)"/><path d="M370.20817 102.34613H384.1623V55.07355H370.20817z" style="fill:rgba(255,0,0,.24705882);stroke:rgba(255,0,0,.24705882);stroke-width:.09525;stroke-miterlimit:41.994751"/><path d="M377.66625 78.705075A.47625 .47625 0 00376.71375 78.705075A.47625 .47625 0 00377.66625 78.705075z" fill="rgba(255,0,0,.24705882)"/><path d="M307.04791 167.89717H353.70134V102.34613H307.04791z" style="fill:rgba(255,0,0,.24705882);stroke:rgba(255,0,0,.24705882);stroke-width:.09525;stroke-miterlimit:41.994751"/><path d="M330.85088 135.12165A.47625 .47625 0 00329.89838 135.12165A.47625 .47625 0 00330.85088 135.12165z" fill="rgba(255,0,0,.24705882)"/><path d="M353.70135 102.34613H370.20817V55.07355H353.70135z" style="fill:rgba(255,0,0,.24705882);stroke:rgba(255,0,0,.24705882);stroke-width:.09525;stroke-miterlimit:41.994751"/><path d="M362.42625 78.705075A.47625 .47625 0 00361.47375 78.705075A.47625 .47625 0 00362.42625 78.705075z" fill="rgba(255,0,0,.24705882)"/><path d="M370.20817 123.34875H384.1623V102.34613H370.20817z" style="fill:rgba(255,0,0,.24705882);stroke:rgba(255,0,0,.24705882);stroke-width:.09525;stroke-miterlimit:41.994751"/><path d="M377.66625 112.84268A.47625 .47625 0 00376.71375 112.84268A.47625 .47625 0 00377.66625 112.84268z" fill="rgba(255,0,0,.24705882)"/><path d="M307.04791 102.34613H353.70134V55.07355H307.04791z" style="fill:rgba(255,0,0,.24705882);stroke:rgba(255,0,0,.24705882);stroke-width:.09525;stroke-miterlimit:41.994751"/><path d="M330.85088 78.705075A.47625 .47625 0 00329.89838 78.705075A.47625 .47625 0 00330.85088 78.705075z" fill="rgba(255,0,0,.24705882)"/><path d="M384.1623 123.34875H403.1742V102.34613H384.1623z" style="fill:rgba(255,0,0,.24705882);stroke:rgba(255,0,0,.24705882);stroke-width:.09525;stroke-miterlimit:41.994751"/><path d="M394.1445 112.84268A.47625 .47625 0 00393.192 112.84268A.47625 .47625 0 00394.1445 112.84268z" fill="rgba(255,0,0,.24705882)"/><path d="M377.19 112.84268H393.66825" style="fill:none;stroke:rgba(255,0,0,.24705882);stroke-width:.09525;stroke-miterlimit:41.994751"/><path d="M393.66825 112.84268V153.68588" style="fill:none;stroke:rgba(255,0,0,.24705882);stroke-width:.09525;stroke-miterlimit:41.994751"/><path d="M330.37463 78.705075H361.95" style="fill:none;stroke:rgba(255,0,0,.24705882);stroke-width:.09525;stroke-miterlimit:41.994751"/><path d="M330.37463 135.12165V78.705075" style="fill:none;stroke:rgba(255,0,0,.24705882);stroke-width:.09525;stroke-miterlimit:41.994751"/><path d="M361.95 78.705075H377.19" style="fill:none;stroke:rgba(255,0,0,.24705882);stroke-width:.09525;stroke-miterlimit:41.994751"/><path d="M377.19 78.705075V112.84268" style="fill:none;stroke:rgba(255,0,0,.24705882);stroke-width:.09525;stroke-miterlimit:41.994751"/><path d="M30.61335 306.57165H59.50267V299.17073H30.61335z" style="fill:rgba(52,0,202,.24705882);stroke:rgba(52,0,202,.24705882);stroke-width:.09525;stroke-miterlimit:41.994751"/><path d="M45.5295 302.86643A.47625 .47625 0 0044.577 302.86643A.47625 .47625 0 0045.5295 302.86643z" fill="rgba(52,0,202,.24705882)"/><path d="M30.61335 299.17073H59.50267V217.16048H30.61335z" style="fill:rgba(52,0,202,.24705882);stroke:rgba(52,0,202,.24705882);stroke-width:.09525;stroke-miterlimit:41.994751"/><path d="M45.5295 258.1656A.47625 .47625 0 0044.577 258.1656A.47625 .47625 0 0045.5295 258.1656z" fill="rgba(52,0,202,.24705882)"/><path d="M45.05325 302.86643V258.1656" style="fill:none;stroke:rgba(52,0,202,.24705882);stroke-width:.09525;stroke-miterlimit:41.994751"/><path d="M23.460075 246.2784L45.05325 258.1656" style="fill:none;stroke:rgba(52,0,202,.24705882);stroke-width:.09525;stroke-miterlimit:41.994751"/><path d="M19.29765 299.17073H30.61335V190.119H19.29765z" style="fill:rgba(52,0,202,.24705882);stroke:rgba(52,0,202,.24705882);stroke-width:.09525;stroke-miterlimit:41.994751"/><path d="M23.936325 246.2784A.47625 .47625 0 0022.983825 246.2784A.47625 .47625 0 0023.936325 246.2784z" fill="rgba(52,0,202,.24705882)"/><path d="M45.05325 302.86643L8.001 303.79988" style="fill:none;stroke:rgba(44,0,210,.24705882);stroke-width:.09525;stroke-miterlimit:41.994751"/><path d="M45.05325 258.1656L74.84745 261.05168" style="fill:none;stroke:rgba(40,0,214,.24705882);stroke-width:.09525;stroke-miterlimit:41.994751"/><path d="M23.460075 246.2784L7.191375 241.60163" style="fill:none;stroke:rgba(40,0,214,.24705882);stroke-width:.09525;stroke-miterlimit:41.994751"/><path d="M45.05325 302.86643L76.3905 303.18075" style="fill:none;stroke:rgba(40,0,214,.24705882);stroke-width:.09525;stroke-miterlimit:41.994751"/><path d="M2.8194 306.57165H30.61335V299.17073H2.8194z" style="fill:rgba(36,0,218,.24705882);stroke:rgba(36,0,218,.24705882);stroke-width:.09525;stroke-miterlimit:41.994751"/><path d="M8.47725 303.79988A.47625 .47625 0 007.52475 303.79988A.47625 .47625 0 008.47725 303.79988z" fill="rgba(36,0,218,.24705882)"/><path d="M59.502675 299.17073H80.438625V217.16048H59.502675z" style="fill:rgba(28,0,222,.24705882);stroke:rgba(28,0,222,.24705882);stroke-width:.09525;stroke-miterlimit:41.994751"/><path d="M75.3237 261.05168A.47625 .47625 0 0074.3712 261.05168A.47625 .47625 0 0075.3237 261.05168z" fill="rgba(28,0,222,.24705882)"/><path d="M66.417825 217.16048H80.438625V208.98802H66.417825z" style="fill:rgba(28,0,222,.24705882);stroke:rgba(28,0,222,.24705882);stroke-width:.09525;stroke-miterlimit:41.994751"/><path d="M73.904475 213.07425A.47625 .47625 0 0072.951975 213.07425A.47625 .47625 0 0073.904475 213.07425z" fill="rgba(28,0,222,.24705882)"/><path d="M59.502675 217.16048H66.417825V208.98802H59.502675z" style="fill:rgba(28,0,222,.24705882);stroke:rgba(28,0,222,.24705882);stroke-width:.09525;stroke-miterlimit:41.994751"/><path d="M63.4365 213.07425A.47625 .47625 0 0062.484 213.07425A.47625 .47625 0 0063.4365 213.07425z" fill="rgba(28,0,222,.24705882)"/><path d="M74.84745 261.05168L62.96025 213.07425" style="fill:none;stroke:rgba(28,0,222,.24705882);stroke-width:.09525;stroke-miterlimit:41.994751"/><path d="M73.428225 213.07425L74.84745 261.05168" style="fill:none;stroke:rgba(28,0,222,.24705882);stroke-width:.09525;stroke-miterlimit:41.994751"/><path d="M62.96025 213.07425H73.428225" style="fill:none;stroke:rgba(28,0,222,.24705882);stroke-width:.09525;stroke-miterlimit:41.994751"/><path d="M.371475 299.17073H19.29765V190.119H.371475z" style="fill:rgba(28,0,226,.24705882);stroke:rgba(28,0,226,.24705882);stroke-width:.09525;stroke-miterlimit:41.994751"/><path d="M7.667625 241.60163A.47625 .47625 0 006.715125 241.60163A.47625 .47625 0 007.667625 241.60163z" fill="rgba(28,0,226,.24705882)"/><path d="M59.502675 306.57165H81.13395V299.17073H59.502675z" style="fill:rgba(28,0,226,.24705882);stroke:rgba(28,0,226,.24705882);stroke-width:.09525;stroke-miterlimit:41.994751"/><path d="M76.86675 303.18075A.47625 .47625 0 0075.91425 303.18075A.47625 .47625 0 0076.86675 303.18075z" fill="rgba(28,0,226,.24705882)"/><path d="M73.428225 213.07425L71.49465 204.62558" style="fill:none;stroke:rgba(16,0,234,.24705882);stroke-width:.09525;stroke-miterlimit:41.994751"/><path d="M66.417825 208.98803H80.438625V203.27303H66.417825z" style="fill:rgba(4,0,250,.24705882);stroke:rgba(4,0,250,.24705882);stroke-width:.09525;stroke-miterlimit:41.994751"/><path d="M71.9709 204.62558A.47625 .47625 0 0071.0184 204.62558A.47625 .47625 0 0071.9709 204.62558z" fill="rgba(4,0,250,.24705882)"/><path d="M71.49465 204.62558L64.1604 194.3481" style="fill:none;stroke:rgba(0,0,250,.24705882);stroke-width:.09525;stroke-miterlimit:41.994751"/><path d="M66.417825 203.27303H80.438625V181.42267H66.417825z" style="fill:rgba(0,0,255,.24705882);stroke:rgba(0,0,255,.24705882);stroke-width:.09525;stroke-miterlimit:41.994751"/><path d="M64.63665 194.3481A.47625 .47625 0 0063.68415 194.3481A.47625 .47625 0 0064.63665 194.3481z" fill="rgba(0,0,255,.24705882)"/></svg>