<svg version="1.1" width="1128.7125mm" height="1347.7875mm" viewBox="0 0 1128.7125 1347.7875" xmlns="http://www.w3.org/2000/svg" xmlns:xlink="http://www.w3.org/1999/xlink"><path d="M1027.6523 1365.7897H1029.5573" style="fill:none;stroke:#f00;stroke-width:.09525;stroke-miterlimit:41.994751"/><path d="M1027.6523 1365.7897V1363.8847" style="fill:none;stroke:#0f0;stroke-width:.09525;stroke-miterlimit:41.994751"/><path d="M636.27 700.26847A.47625 .47625 0 00635.3175 700.26847A.47625 .47625 0 00636.27 700.26847z" fill="rgba(255,0,0,.24705882)"/><path d="M649.30973 693.9915A.47625 .47625 0 00648.35723 693.9915A.47625 .47625 0 00649.30973 693.9915z" fill="rgba(194,0,60,.24705882)"/><path d="M729.4245 687.0573A.47625 .47625 0 00728.472 687.0573A.47625 .47625 0 00729.4245 687.0573z" fill="rgba(186,0,68,.24705882)"/><path d="M546.67785 545.3253H571.95718V544.11562H546.67785z" style="fill:rgba(121,0,133,.24705882);stroke:rgba(121,0,133,.24705882);stroke-width:.09525;stroke-miterlimit:41.994751"/><path d="M559.79378 544.7157A.47625 .47625 0 00558.84128 544.7157A.47625 .47625 0 00559.79378 544.7157z" fill="rgba(121,0,133,.24705882)"/><path d="M546.67785 544.11562H571.95718V538.90545H546.67785z" style="fill:rgba(121,0,133,.24705882);stroke:rgba(121,0,133,.24705882);stroke-width:.09525;stroke-miterlimit:41.994751"/><path d="M559.79378 541.50577A.47625 .47625 0 00558.84128 541.50577A.47625 .47625 0 00559.79378 541.50577z" fill="rgba(121,0,133,.24705882)"/><path d="M504.28208 647.98575H515.50253V547.46843H504.28208z" style="fill:rgba(121,0,133,.24705882);stroke:rgba(121,0,133,.24705882);stroke-width:.09525;stroke-miterlimit:41.994751"/><path d="M510.37808 597.72232A.47625 .47625 0 00509.42558 597.72232A.47625 .47625 0 00510.37808 597.72232z" fill="rgba(121,0,133,.24705882)"/><path d="M505.2441 538.90545H571.95718V405.60307H505.2441z" style="fill:rgba(121,0,133,.24705882);stroke:rgba(121,0,133,.24705882);stroke-width:.09525;stroke-miterlimit:41.994751"/><path d="M539.0769 472.2495A.47625 .47625 0 00538.1244 472.2495A.47625 .47625 0 00539.0769 472.2495z" fill="rgba(121,0,133,.24705882)"/><path d="M546.67785 547.46843H571.95718V545.3253H546.67785z" style="fill:rgba(121,0,133,.24705882);stroke:rgba(121,0,133,.24705882);stroke-width:.09525;stroke-miterlimit:41.994751"/><path d="M559.79378 546.3921A.47625 .47625 0 00558.84128 546.3921A.47625 .47625 0 00559.79378 546.3921z" fill="rgba(121,0,133,.24705882)"/><path d="M559.31753 544.7157V541.50577" style="fill:none;stroke:rgba(121,0,133,.24705882);stroke-width:.09525;stroke-miterlimit:41.994751"/><path d="M559.31753 546.3921V544.7157" style="fill:none;stroke:rgba(121,0,133,.24705882);stroke-width:.09525;stroke-miterlimit:41.994751"/><path d="M559.31753 541.50577L538.60065 472.2495" style="fill:none;stroke:rgba(121,0,133,.24705882);stroke-width:.09525;stroke-miterlimit:41.994751"/><path d="M504.92025 304.80952H588.54975V195.63397H504.92025z" style="fill:rgba(117,0,133,.24705882);stroke:rgba(117,0,133,.24705882);stroke-width:.09525;stroke-miterlimit:41.994751"/><path d="M547.21125 250.22175A.47625 .47625 0 00546.25875 250.22175A.47625 .47625 0 00547.21125 250.22175z" fill="rgba(117,0,133,.24705882)"/><path d="M504.92025 195.63397H563.67045V187.69012H504.92025z" style="fill:rgba(117,0,133,.24705882);stroke:rgba(117,0,133,.24705882);stroke-width:.09525;stroke-miterlimit:41.994751"/><path d="M534.7716 191.66205A.47625 .47625 0 00533.8191 191.66205A.47625 .47625 0 00534.7716 191.66205z" fill="rgba(117,0,133,.24705882)"/><path d="M504.92025 17.554575H552.47858V.28575H504.92025z" style="fill:rgba(117,0,133,.24705882);stroke:rgba(117,0,133,.24705882);stroke-width:.09525;stroke-miterlimit:41.994751"/><path d="M529.33283 10.38225A.47625 .47625 0 00528.38032 10.38225A.47625 .47625 0 00529.33283 10.38225z" fill="rgba(117,0,133,.24705882)"/><path d="M504.92025 187.69012H588.54975V17.554575H504.92025z" style="fill:rgba(117,0,133,.24705882);stroke:rgba(117,0,133,.24705882);stroke-width:.09525;stroke-miterlimit:41.994751"/><path d="M547.21125 102.62235A.47625 .47625 0 00546.25875 102.62235A.47625 .47625 0 00547.21125 102.62235z" fill="rgba(117,0,133,.24705882)"/><path d="M546.735 102.62235L528.85658 10.38225" style="fill:none;stroke:rgba(117,0,133,.24705882);stroke-width:.09525;stroke-miterlimit:41.994751"/><path d="M534.29535 191.66205L546.735 250.22175" style="fill:none;stroke:rgba(117,0,133,.24705882);stroke-width:.09525;stroke-miterlimit:41.994751"/><path d="M534.29535 191.66205L546.735 102.62235" style="fill:none;stroke:rgba(117,0,133,.24705882);stroke-width:.09525;stroke-miterlimit:41.994751"/><path d="M511.38773 647.98575L509.90183 597.72232" style="fill:none;stroke:rgba(117,0,137,.24705882);stroke-width:.09525;stroke-miterlimit:41.994751"/><path d="M563.21325 192.19545L546.735 102.62235" style="fill:none;stroke:rgba(113,0,137,.24705882);stroke-width:.09525;stroke-miterlimit:41.994751"/><path d="M534.29535 191.66205L563.21325 192.19545" style="fill:none;stroke:rgba(113,0,137,.24705882);stroke-width:.09525;stroke-miterlimit:41.994751"/><path d="M563.21325 192.19545L546.735 250.22175" style="fill:none;stroke:rgba(113,0,137,.24705882);stroke-width:.09525;stroke-miterlimit:41.994751"/><path d="M548.64953 8.8011L528.85658 10.38225" style="fill:none;stroke:rgba(113,0,141,.24705882);stroke-width:.09525;stroke-miterlimit:41.994751"/><path d="M504.28208 656.64397H515.50253V647.98575H504.28208z" style="fill:rgba(113,0,141,.24705882);stroke:rgba(113,0,141,.24705882);stroke-width:.09525;stroke-miterlimit:41.994751"/><path d="M511.86398 647.98575A.47625 .47625 0 00510.91148 647.98575A.47625 .47625 0 00511.86398 647.98575z" fill="rgba(113,0,141,.24705882)"/><path d="M504.28208 663.63532H515.50253V654.9771H504.28208z" style="fill:rgba(113,0,141,.24705882);stroke:rgba(113,0,141,.24705882);stroke-width:.09525;stroke-miterlimit:41.994751"/><path d="M511.86398 654.9771A.47625 .47625 0 00510.91148 654.9771A.47625 .47625 0 00511.86398 654.9771z" fill="rgba(113,0,141,.24705882)"/><path d="M546.64928 547.46843H573.68121V538.90545H546.64928z" style="fill:rgba(113,0,141,.24705882);stroke:rgba(113,0,141,.24705882);stroke-width:.09525;stroke-miterlimit:41.994751"/><path d="M547.12553 543.65842A.47625 .47625 0 00546.17303 543.65842A.47625 .47625 0 00547.12553 543.65842z" fill="rgba(113,0,141,.24705882)"/><path d="M563.67045 195.63397H588.54975V187.69012H563.67045z" style="fill:rgba(109,0,141,.24705882);stroke:rgba(109,0,141,.24705882);stroke-width:.09525;stroke-miterlimit:41.994751"/><path d="M563.6895 192.19545A.47625 .47625 0 00562.737 192.19545A.47625 .47625 0 00563.6895 192.19545z" fill="rgba(109,0,141,.24705882)"/><path d="M544.92525 547.46843H546.67785V538.90545H544.92525z" style="fill:rgba(109,0,141,.24705882);stroke:rgba(109,0,141,.24705882);stroke-width:.09525;stroke-miterlimit:41.994751"/><path d="M545.4015 544.15372A.47625 .47625 0 00544.449 544.15372A.47625 .47625 0 00545.4015 544.15372z" fill="rgba(109,0,141,.24705882)"/><path d="M981.55125 870.7755H996.79125V775.26833H981.55125z" style="fill:rgba(109,0,145,.24705882);stroke:rgba(109,0,145,.24705882);stroke-width:.09525;stroke-miterlimit:41.994751"/><path d="M989.6475 823.01715A.47625 .47625 0 00988.695 823.01715A.47625 .47625 0 00989.6475 823.01715z" fill="rgba(109,0,145,.24705882)"/><path d="M1064.3426 871.59466H1079.6588V774.71587H1064.3426z" style="fill:rgba(109,0,145,.24705882);stroke:rgba(109,0,145,.24705882);stroke-width:.09525;stroke-miterlimit:41.994751"/><path d="M1072.4769 823.16002A.47625 .47625 0 001071.5244 823.16002A.47625 .47625 0 001072.4769 823.16002z" fill="rgba(109,0,145,.24705882)"/><path d="M552.47858 17.554575H584.66355V.28575H552.47858z" style="fill:rgba(109,0,145,.24705882);stroke:rgba(109,0,145,.24705882);stroke-width:.09525;stroke-miterlimit:41.994751"/><path d="M549.12578 8.8011A.47625 .47625 0 00548.17327 8.8011A.47625 .47625 0 00549.12578 8.8011z" fill="rgba(109,0,145,.24705882)"/><path d="M538.60065 472.2495L560.80343 366.77918" style="fill:none;stroke:rgba(105,0,145,.24705882);stroke-width:.09525;stroke-miterlimit:41.994751"/><path d="M546.735 250.22175L555.59325 327.40282" style="fill:none;stroke:rgba(105,0,145,.24705882);stroke-width:.09525;stroke-miterlimit:41.994751"/><path d="M875.33798 207.4545H907.17052V174.08844H875.33798z" style="fill:rgba(105,0,145,.24705882);stroke:rgba(105,0,145,.24705882);stroke-width:.09525;stroke-miterlimit:41.994751"/><path d="M891.7305 190.7667A.47625 .47625 0 00890.778 190.7667A.47625 .47625 0 00891.7305 190.7667z" fill="rgba(105,0,145,.24705882)"/><path d="M907.14195 195.18632H927.79215V186.42332H907.14195z" style="fill:rgba(105,0,145,.24705882);stroke:rgba(105,0,145,.24705882);stroke-width:.09525;stroke-miterlimit:41.994751"/><path d="M917.9433 190.8048A.47625 .47625 0 00916.9908 190.8048A.47625 .47625 0 00917.9433 190.8048z" fill="rgba(105,0,145,.24705882)"/><path d="M917.46705 190.8048L891.25425 190.7667" style="fill:none;stroke:rgba(105,0,145,.24705882);stroke-width:.09525;stroke-miterlimit:41.994751"/><path d="M1047.369 84.6963H1052.3696V17.554575H1047.369z" style="fill:rgba(105,0,145,.24705882);stroke:rgba(105,0,145,.24705882);stroke-width:.09525;stroke-miterlimit:41.994751"/><path d="M1050.3313 51.120675A.47625 .47625 0 001049.3788 51.120675A.47625 .47625 0 001050.3313 51.120675z" fill="rgba(105,0,145,.24705882)"/><path d="M917.46705 190.8048L965.96835 184.31827" style="fill:none;stroke:rgba(105,0,149,.24705882);stroke-width:.09525;stroke-miterlimit:41.994751"/><path d="M950.22353 1347.3303H954.80505V1052.0362H950.22353z" style="fill:rgba(101,0,149,.24705882);stroke:rgba(101,0,149,.24705882);stroke-width:.09525;stroke-miterlimit:41.994751"/><path d="M952.9953 1199.6737A.47625 .47625 0 00952.0428 1199.6737A.47625 .47625 0 00952.9953 1199.6737z" fill="rgba(101,0,149,.24705882)"/><path d="M933.3738 967.45425H1128.1981V873.43297H933.3738z" style="fill:rgba(101,0,149,.24705882);stroke:rgba(101,0,149,.24705882);stroke-width:.09525;stroke-miterlimit:41.994751"/><path d="M1030.9669 920.43885A.47625 .47625 0 001030.0145 920.43885A.47625 .47625 0 001030.9669 920.43885z" fill="rgba(101,0,149,.24705882)"/><path d="M954.80505 1347.3303H984.7326V1052.0362H954.80505z" style="fill:rgba(101,0,149,.24705882);stroke:rgba(101,0,149,.24705882);stroke-width:.09525;stroke-miterlimit:41.994751"/><path d="M970.24508 1199.6833A.47625 .47625 0 00969.29258 1199.6833A.47625 .47625 0 00970.24508 1199.6833z" fill="rgba(101,0,149,.24705882)"/><path d="M984.7326 1052.0362H1128.1981V967.45425H984.7326z" style="fill:rgba(101,0,149,.24705882);stroke:rgba(101,0,149,.24705882);stroke-width:.09525;stroke-miterlimit:41.994751"/><path d="M1056.9416 1009.7452A.47625 .47625 0 001055.9891 1009.7452A.47625 .47625 0 001056.9416 1009.7452z" fill="rgba(101,0,149,.24705882)"/><path d="M1076.4203 1113.9583H1128.1981V1052.0362H1076.4203z" style="fill:rgba(101,0,149,.24705882);stroke:rgba(101,0,149,.24705882);stroke-width:.09525;stroke-miterlimit:41.994751"/><path d="M1101.6901 1083.9259A.47625 .47625 0 001100.7376 1083.9259A.47625 .47625 0 001101.6901 1083.9259z" fill="rgba(101,0,149,.24705882)"/><path d="M933.3738 1052.0362H984.7326V967.45425H933.3738z" style="fill:rgba(101,0,149,.24705882);stroke:rgba(101,0,149,.24705882);stroke-width:.09525;stroke-miterlimit:41.994751"/><path d="M959.52945 1009.7452A.47625 .47625 0 00958.57695 1009.7452A.47625 .47625 0 00959.52945 1009.7452z" fill="rgba(101,0,149,.24705882)"/><path d="M933.3738 1305.7918H950.22353V1052.0362H933.3738z" style="fill:rgba(101,0,149,.24705882);stroke:rgba(101,0,149,.24705882);stroke-width:.09525;stroke-miterlimit:41.994751"/><path d="M942.27968 1178.9092A.47625 .47625 0 00941.32718 1178.9092A.47625 .47625 0 00942.27968 1178.9092z" fill="rgba(101,0,149,.24705882)"/><path d="M952.51905 1199.6737L959.0532 1009.7452" style="fill:none;stroke:rgba(101,0,149,.24705882);stroke-width:.09525;stroke-miterlimit:41.994751"/><path d="M969.76883 1199.6833L959.0532 1009.7452" style="fill:none;stroke:rgba(101,0,149,.24705882);stroke-width:.09525;stroke-miterlimit:41.994751"/><path d="M941.80343 1178.9092L952.51905 1199.6737" style="fill:none;stroke:rgba(101,0,149,.24705882);stroke-width:.09525;stroke-miterlimit:41.994751"/><path d="M959.0532 1009.7452H1056.4654" style="fill:none;stroke:rgba(101,0,149,.24705882);stroke-width:.09525;stroke-miterlimit:41.994751"/><path d="M952.51905 1199.6737L969.76883 1199.6833" style="fill:none;stroke:rgba(101,0,149,.24705882);stroke-width:.09525;stroke-miterlimit:41.994751"/><path d="M1056.4654 1009.7452L1101.2138 1083.9259" style="fill:none;stroke:rgba(101,0,149,.24705882);stroke-width:.09525;stroke-miterlimit:41.994751"/><path d="M1056.4654 1009.7452L1030.4907 920.43885" style="fill:none;stroke:rgba(101,0,149,.24705882);stroke-width:.09525;stroke-miterlimit:41.994751"/><path d="M941.80343 1178.9092L959.0532 1009.7452" style="fill:none;stroke:rgba(101,0,149,.24705882);stroke-width:.09525;stroke-miterlimit:41.994751"/><path d="M959.0532 1009.7452L1030.4907 920.43885" style="fill:none;stroke:rgba(101,0,149,.24705882);stroke-width:.09525;stroke-miterlimit:41.994751"/><path d="M1076.4203 1347.4732H1128.1981V1124.893H1076.4203z" style="fill:rgba(101,0,149,.24705882);stroke:rgba(101,0,149,.24705882);stroke-width:.09525;stroke-miterlimit:41.994751"/><path d="M1102.7855 1236.1735A.47625 .47625 0 001101.833 1236.1735A.47625 .47625 0 001102.7855 1236.1735z" fill="rgba(101,0,149,.24705882)"/><path d="M933.2214 242.79225H998.7153V215.93175H933.2214z" style="fill:rgba(101,0,153,.24705882);stroke:rgba(101,0,153,.24705882);stroke-width:.09525;stroke-miterlimit:41.994751"/><path d="M966.4446 229.362A.47625 .47625 0 00965.4921 229.362A.47625 .47625 0 00966.4446 229.362z" fill="rgba(101,0,153,.24705882)"/><path d="M933.2214 215.93175H998.7153V152.71432H933.2214z" style="fill:rgba(101,0,153,.24705882);stroke:rgba(101,0,153,.24705882);stroke-width:.09525;stroke-miterlimit:41.994751"/><path d="M966.4446 184.31827A.47625 .47625 0 00965.4921 184.31827A.47625 .47625 0 00966.4446 184.31827z" fill="rgba(101,0,153,.24705882)"/><path d="M965.96835 229.362V184.31827" style="fill:none;stroke:rgba(101,0,153,.24705882);stroke-width:.09525;stroke-miterlimit:41.994751"/><path d="M1059.4943 84.6963H1072.5912V34.985325H1059.4943z" style="fill:rgba(101,0,153,.24705882);stroke:rgba(101,0,153,.24705882);stroke-width:.09525;stroke-miterlimit:41.994751"/><path d="M1066.5238 59.83605A.47625 .47625 0 001065.5713 59.83605A.47625 .47625 0 001066.5238 59.83605z" fill="rgba(101,0,153,.24705882)"/><path d="M937.73625 257.53695H953.73825V231.94328H937.73625z" style="fill:rgba(101,0,153,.24705882);stroke:rgba(101,0,153,.24705882);stroke-width:.09525;stroke-miterlimit:41.994751"/><path d="M945.40388 231.58132A.47625 .47625 0 00944.45137 231.58132A.47625 .47625 0 00945.40388 231.58132z" fill="rgba(101,0,153,.24705882)"/><path d="M1118.8827 176.1744A.47625 .47625 0 001117.9302 176.1744A.47625 .47625 0 001118.8827 176.1744z" fill="rgba(101,0,153,.24705882)"/><path d="M1107.748 257.48932H1123.4833V235.84852H1107.748z" style="fill:rgba(101,0,153,.24705882);stroke:rgba(101,0,153,.24705882);stroke-width:.09525;stroke-miterlimit:41.994751"/><path d="M1115.5109 233.35297A.47625 .47625 0 001114.5584 233.35297A.47625 .47625 0 001115.5109 233.35297z" fill="rgba(101,0,153,.24705882)"/><path d="M1059.4943 235.84852H1123.4833V84.6963H1059.4943z" style="fill:rgba(101,0,153,.24705882);stroke:rgba(101,0,153,.24705882);stroke-width:.09525;stroke-miterlimit:41.994751"/><path d="M1091.9651 160.26765A.47625 .47625 0 001091.0126 160.26765A.47625 .47625 0 001091.9651 160.26765z" fill="rgba(101,0,153,.24705882)"/><path d="M1091.4888 160.26765L1066.0475 59.83605" style="fill:none;stroke:rgba(101,0,153,.24705882);stroke-width:.09525;stroke-miterlimit:41.994751"/><path d="M1091.4888 160.26765L1115.0346 233.35297" style="fill:none;stroke:rgba(101,0,153,.24705882);stroke-width:.09525;stroke-miterlimit:41.994751"/><path d="M939.53648 1304.3059L952.51905 1199.6737" style="fill:none;stroke:rgba(97,0,153,.24705882);stroke-width:.09525;stroke-miterlimit:41.994751"/><path d="M939.53648 1304.3059L941.80343 1178.9092" style="fill:none;stroke:rgba(97,0,153,.24705882);stroke-width:.09525;stroke-miterlimit:41.994751"/><path d="M691.34355 8.9154L548.64953 8.8011" style="fill:none;stroke:rgba(97,0,157,.24705882);stroke-width:.09525;stroke-miterlimit:41.994751"/><path d="M537.30525 327.56475H550.64025V304.80953H537.30525z" style="fill:rgba(93,0,157,.24705882);stroke:rgba(93,0,157,.24705882);stroke-width:.09525;stroke-miterlimit:41.994751"/><path d="M544.449 327.40282A.47625 .47625 0 00543.4965 327.40282A.47625 .47625 0 00544.449 327.40282z" fill="rgba(93,0,157,.24705882)"/><path d="M560.54625 327.56475H573.11925V304.80953H560.54625z" style="fill:rgba(93,0,157,.24705882);stroke:rgba(93,0,157,.24705882);stroke-width:.09525;stroke-miterlimit:41.994751"/><path d="M567.309 327.40282A.47625 .47625 0 00566.3565 327.40282A.47625 .47625 0 00567.309 327.40282z" fill="rgba(93,0,157,.24705882)"/><path d="M550.64025 327.56475H560.54625V304.80953H550.64025z" style="fill:rgba(93,0,157,.24705882);stroke:rgba(93,0,157,.24705882);stroke-width:.09525;stroke-miterlimit:41.994751"/><path d="M556.0695 327.40282A.47625 .47625 0 00555.117 327.40282A.47625 .47625 0 00556.0695 327.40282z" fill="rgba(93,0,157,.24705882)"/><path d="M555.59325 327.40282H566.83275" style="fill:none;stroke:rgba(93,0,157,.24705882);stroke-width:.09525;stroke-miterlimit:41.994751"/><path d="M555.59325 327.40282H543.97275" style="fill:none;stroke:rgba(93,0,157,.24705882);stroke-width:.09525;stroke-miterlimit:41.994751"/><path d="M933.3738 1347.3303H950.22353V1305.7918H933.3738z" style="fill:rgba(93,0,157,.24705882);stroke:rgba(93,0,157,.24705882);stroke-width:.09525;stroke-miterlimit:41.994751"/><path d="M940.01273 1304.3059A.47625 .47625 0 00939.06023 1304.3059A.47625 .47625 0 00940.01273 1304.3059z" fill="rgba(93,0,157,.24705882)"/><path d="M933.3738 1309.3827H950.22353V1267.8442H933.3738z" style="fill:rgba(93,0,157,.24705882);stroke:rgba(93,0,157,.24705882);stroke-width:.09525;stroke-miterlimit:41.994751"/><path d="M940.03178 1266.625A.47625 .47625 0 00939.07928 1266.625A.47625 .47625 0 00940.03178 1266.625z" fill="rgba(93,0,157,.24705882)"/><path d="M560.80343 366.77918L555.59325 327.40282" style="fill:none;stroke:rgba(93,0,157,.24705882);stroke-width:.09525;stroke-miterlimit:41.994751"/><path d="M538.49588 405.60306H549.65918V327.94575H538.49588z" style="fill:rgba(93,0,157,.24705882);stroke:rgba(93,0,157,.24705882);stroke-width:.09525;stroke-miterlimit:41.994751"/><path d="M544.55378 366.77918A.47625 .47625 0 00543.60128 366.77918A.47625 .47625 0 00544.55378 366.77918z" fill="rgba(93,0,157,.24705882)"/><path d="M549.65918 405.60306H571.95718V327.94575H549.65918z" style="fill:rgba(93,0,157,.24705882);stroke:rgba(93,0,157,.24705882);stroke-width:.09525;stroke-miterlimit:41.994751"/><path d="M561.27968 366.77918A.47625 .47625 0 00560.32718 366.77918A.47625 .47625 0 00561.27968 366.77918z" fill="rgba(93,0,157,.24705882)"/><path d="M544.07753 366.77918H560.80343" style="fill:none;stroke:rgba(93,0,157,.24705882);stroke-width:.09525;stroke-miterlimit:41.994751"/><path d="M1011.2883 10.810875L1049.855 51.120675" style="fill:none;stroke:rgba(93,0,161,.24705882);stroke-width:.09525;stroke-miterlimit:41.994751"/><path d="M1103.0617 1120.1209L1101.2138 1083.9259" style="fill:none;stroke:rgba(93,0,161,.24705882);stroke-width:.09525;stroke-miterlimit:41.994751"/><path d="M1102.3092 1236.1735L1103.0617 1120.1209" style="fill:none;stroke:rgba(93,0,161,.24705882);stroke-width:.09525;stroke-miterlimit:41.994751"/><path d="M1128.7125 156.22905A.47625 .47625 0 001127.76 156.22905A.47625 .47625 0 001128.7125 156.22905z" fill="rgba(89,0,161,.24705882)"/><path d="M945.3372 371.03685L944.92763 231.58132" style="fill:none;stroke:rgba(89,0,161,.24705882);stroke-width:.09525;stroke-miterlimit:41.994751"/><path d="M1115.387 371.00827L1115.0346 233.35297" style="fill:none;stroke:rgba(89,0,161,.24705882);stroke-width:.09525;stroke-miterlimit:41.994751"/><path d="M1076.4203 1124.893H1128.1981V1113.9583H1076.4203z" style="fill:rgba(85,0,170,.24705882);stroke:rgba(85,0,170,.24705882);stroke-width:.09525;stroke-miterlimit:41.994751"/><path d="M1103.5379 1120.1209A.47625 .47625 0 001102.5854 1120.1209A.47625 .47625 0 001103.5379 1120.1209z" fill="rgba(85,0,170,.24705882)"/><path d="M1096.118 75.91425A.47625 .47625 0 001095.1655 75.91425A.47625 .47625 0 001096.118 75.91425z" fill="rgba(85,0,170,.24705882)"/><path d="M1096.118 75.91425A.47625 .47625 0 001095.1655 75.91425A.47625 .47625 0 001096.118 75.91425z" fill="rgba(85,0,170,.24705882)"/><path d="M1128.7125 137.0457A.47625 .47625 0 001127.76 137.0457A.47625 .47625 0 001128.7125 137.0457z" fill="rgba(80,0,170,.24705882)"/><path d="M937.73625 863.90797H953.73825V635.79375H937.73625z" style="fill:rgba(80,0,174,.24705882);stroke:rgba(80,0,174,.24705882);stroke-width:.09525;stroke-miterlimit:41.994751"/><path d="M945.81345 749.8461A.47625 .47625 0 00944.86095 749.8461A.47625 .47625 0 00945.81345 749.8461z" fill="rgba(80,0,174,.24705882)"/><path d="M937.73625 484.53675H953.73825V257.53695H937.73625z" style="fill:rgba(80,0,174,.24705882);stroke:rgba(80,0,174,.24705882);stroke-width:.09525;stroke-miterlimit:41.994751"/><path d="M945.81345 371.03685A.47625 .47625 0 00944.86095 371.03685A.47625 .47625 0 00945.81345 371.03685z" fill="rgba(80,0,174,.24705882)"/><path d="M938.18393 882.777H953.24295V864.15562H938.18393z" style="fill:rgba(80,0,174,.24705882);stroke:rgba(80,0,174,.24705882);stroke-width:.09525;stroke-miterlimit:41.994751"/><path d="M946.77548 863.85082A.47625 .47625 0 00945.82298 863.85082A.47625 .47625 0 00946.77548 863.85082z" fill="rgba(80,0,174,.24705882)"/><path d="M937.73625 619.79175H953.73825V500.53875H937.73625z" style="fill:rgba(80,0,174,.24705882);stroke:rgba(80,0,174,.24705882);stroke-width:.09525;stroke-miterlimit:41.994751"/><path d="M945.81345 560.16525A.47625 .47625 0 00944.86095 560.16525A.47625 .47625 0 00945.81345 560.16525z" fill="rgba(80,0,174,.24705882)"/><path d="M937.73625 635.79375H953.73825V619.79175H937.73625z" style="fill:rgba(80,0,174,.24705882);stroke:rgba(80,0,174,.24705882);stroke-width:.09525;stroke-miterlimit:41.994751"/><path d="M945.81345 627.79275A.47625 .47625 0 00944.86095 627.79275A.47625 .47625 0 00945.81345 627.79275z" fill="rgba(80,0,174,.24705882)"/><path d="M937.73625 500.53875H953.73825V484.53675H937.73625z" style="fill:rgba(80,0,174,.24705882);stroke:rgba(80,0,174,.24705882);stroke-width:.09525;stroke-miterlimit:41.994751"/><path d="M945.81345 492.53775A.47625 .47625 0 00944.86095 492.53775A.47625 .47625 0 00945.81345 492.53775z" fill="rgba(80,0,174,.24705882)"/><path d="M945.3372 492.53775V371.03685" style="fill:none;stroke:rgba(80,0,174,.24705882);stroke-width:.09525;stroke-miterlimit:41.994751"/><path d="M945.3372 749.8461L946.29923 863.85082" style="fill:none;stroke:rgba(80,0,174,.24705882);stroke-width:.09525;stroke-miterlimit:41.994751"/><path d="M945.3372 749.8461V627.79275" style="fill:none;stroke:rgba(80,0,174,.24705882);stroke-width:.09525;stroke-miterlimit:41.994751"/><path d="M945.3372 560.16525V492.53775" style="fill:none;stroke:rgba(80,0,174,.24705882);stroke-width:.09525;stroke-miterlimit:41.994751"/><path d="M945.3372 627.79275V560.16525" style="fill:none;stroke:rgba(80,0,174,.24705882);stroke-width:.09525;stroke-miterlimit:41.994751"/><path d="M1107.748 864.58425H1123.4833V635.79375H1107.748z" style="fill:rgba(80,0,174,.24705882);stroke:rgba(80,0,174,.24705882);stroke-width:.09525;stroke-miterlimit:41.994751"/><path d="M1115.8633 750.189A.47625 .47625 0 001114.9108 750.189A.47625 .47625 0 001115.8633 750.189z" fill="rgba(80,0,174,.24705882)"/><path d="M1107.748 619.79175H1123.4833V500.53875H1107.748z" style="fill:rgba(80,0,174,.24705882);stroke:rgba(80,0,174,.24705882);stroke-width:.09525;stroke-miterlimit:41.994751"/><path d="M1115.8633 560.16525A.47625 .47625 0 001114.9108 560.16525A.47625 .47625 0 001115.8633 560.16525z" fill="rgba(80,0,174,.24705882)"/><path d="M1107.748 484.53675H1123.4833V257.48932H1107.748z" style="fill:rgba(80,0,174,.24705882);stroke:rgba(80,0,174,.24705882);stroke-width:.09525;stroke-miterlimit:41.994751"/><path d="M1115.8633 371.00827A.47625 .47625 0 001114.9108 371.00827A.47625 .47625 0 001115.8633 371.00827z" fill="rgba(80,0,174,.24705882)"/><path d="M1107.748 635.79375H1123.4833V619.79175H1107.748z" style="fill:rgba(80,0,174,.24705882);stroke:rgba(80,0,174,.24705882);stroke-width:.09525;stroke-miterlimit:41.994751"/><path d="M1115.8633 627.79275A.47625 .47625 0 001114.9108 627.79275A.47625 .47625 0 001115.8633 627.79275z" fill="rgba(80,0,174,.24705882)"/><path d="M1107.748 500.53875H1123.4833V484.53675H1107.748z" style="fill:rgba(80,0,174,.24705882);stroke:rgba(80,0,174,.24705882);stroke-width:.09525;stroke-miterlimit:41.994751"/><path d="M1115.8633 492.53775A.47625 .47625 0 001114.9108 492.53775A.47625 .47625 0 001115.8633 492.53775z" fill="rgba(80,0,174,.24705882)"/><path d="M1107.748 879.28131H1123.4833V864.58425H1107.748z" style="fill:rgba(80,0,174,.24705882);stroke:rgba(80,0,174,.24705882);stroke-width:.09525;stroke-miterlimit:41.994751"/><path d="M1115.8633 864.15562A.47625 .47625 0 001114.9108 864.15562A.47625 .47625 0 001115.8633 864.15562z" fill="rgba(80,0,174,.24705882)"/><path d="M1115.387 492.53775V371.00827" style="fill:none;stroke:rgba(80,0,174,.24705882);stroke-width:.09525;stroke-miterlimit:41.994751"/><path d="M1115.387 750.189V627.79275" style="fill:none;stroke:rgba(80,0,174,.24705882);stroke-width:.09525;stroke-miterlimit:41.994751"/><path d="M1115.387 560.16525V492.53775" style="fill:none;stroke:rgba(80,0,174,.24705882);stroke-width:.09525;stroke-miterlimit:41.994751"/><path d="M1115.387 627.79275V560.16525" style="fill:none;stroke:rgba(80,0,174,.24705882);stroke-width:.09525;stroke-miterlimit:41.994751"/><path d="M1115.387 864.15562V750.189" style="fill:none;stroke:rgba(80,0,174,.24705882);stroke-width:.09525;stroke-miterlimit:41.994751"/><path d="M945.3372 492.53775L980.17013 492.60442" style="fill:none;stroke:rgba(80,0,174,.24705882);stroke-width:.09525;stroke-miterlimit:41.994751"/><path d="M945.3372 627.79275H979.75103" style="fill:none;stroke:rgba(80,0,174,.24705882);stroke-width:.09525;stroke-miterlimit:41.994751"/><path d="M1115.387 627.79275L1081.6971 627.66892" style="fill:none;stroke:rgba(80,0,174,.24705882);stroke-width:.09525;stroke-miterlimit:41.994751"/><path d="M1115.387 492.53775L1081.8305 492.39487" style="fill:none;stroke:rgba(80,0,174,.24705882);stroke-width:.09525;stroke-miterlimit:41.994751"/><path d="M1011.5836 17.554575H1052.3696V.28575H1011.5836z" style="fill:rgba(80,0,174,.24705882);stroke:rgba(80,0,174,.24705882);stroke-width:.09525;stroke-miterlimit:41.994751"/><path d="M1011.7646 10.810875A.47625 .47625 0 001010.812 10.810875A.47625 .47625 0 001011.7646 10.810875z" fill="rgba(80,0,174,.24705882)"/><path d="M798.02355 17.554575H1011.5836V.28575H798.02355z" style="fill:rgba(80,0,174,.24705882);stroke:rgba(80,0,174,.24705882);stroke-width:.09525;stroke-miterlimit:41.994751"/><path d="M905.28458 10.810875A.47625 .47625 0 00904.33208 10.810875A.47625 .47625 0 00905.28458 10.810875z" fill="rgba(80,0,174,.24705882)"/><path d="M954.1002 500.29114H1006.24V484.91775H954.1002z" style="fill:rgba(80,0,174,.24705882);stroke:rgba(80,0,174,.24705882);stroke-width:.09525;stroke-miterlimit:41.994751"/><path d="M980.64638 492.60442A.47625 .47625 0 00979.69388 492.60442A.47625 .47625 0 00980.64638 492.60442z" fill="rgba(80,0,174,.24705882)"/><path d="M584.66355 17.554575H798.02355V.28575H584.66355z" style="fill:rgba(80,0,174,.24705882);stroke:rgba(80,0,174,.24705882);stroke-width:.09525;stroke-miterlimit:41.994751"/><path d="M691.8198 8.9154A.47625 .47625 0 00690.8673 8.9154A.47625 .47625 0 00691.8198 8.9154z" fill="rgba(80,0,174,.24705882)"/><path d="M904.80833 10.810875H1011.2883" style="fill:none;stroke:rgba(80,0,174,.24705882);stroke-width:.09525;stroke-miterlimit:41.994751"/><path d="M691.34355 8.9154L904.80833 10.810875" style="fill:none;stroke:rgba(80,0,174,.24705882);stroke-width:.09525;stroke-miterlimit:41.994751"/><path d="M1055.6367 635.55562H1107.767V619.78222H1055.6367z" style="fill:rgba(80,0,174,.24705882);stroke:rgba(80,0,174,.24705882);stroke-width:.09525;stroke-miterlimit:41.994751"/><path d="M1082.1734 627.66892A.47625 .47625 0 001081.2209 627.66892A.47625 .47625 0 001082.1734 627.66892z" fill="rgba(80,0,174,.24705882)"/><path d="M953.90018 635.49847H1005.6019V620.08703H953.90018z" style="fill:rgba(80,0,174,.24705882);stroke:rgba(80,0,174,.24705882);stroke-width:.09525;stroke-miterlimit:41.994751"/><path d="M980.22728 627.79275A.47625 .47625 0 00979.27478 627.79275A.47625 .47625 0 00980.22728 627.79275z" fill="rgba(80,0,174,.24705882)"/><path d="M1055.6558 500.15775H1108.0051V484.64149H1055.6558z" style="fill:rgba(80,0,174,.24705882);stroke:rgba(80,0,174,.24705882);stroke-width:.09525;stroke-miterlimit:41.994751"/><path d="M1082.3067 492.39487A.47625 .47625 0 001081.3542 492.39487A.47625 .47625 0 001082.3067 492.39487z" fill="rgba(80,0,174,.24705882)"/><path d="M939.53648 1304.3059L938.95545 1265.9773" style="fill:none;stroke:rgba(72,0,182,.24705882);stroke-width:.09525;stroke-miterlimit:41.994751"/><path d="M945.3372 749.8461L938.95545 1265.9773" style="fill:none;stroke:rgba(64,0,186,.24705882);stroke-width:.09525;stroke-miterlimit:41.994751"/><path d="M626.7069 190.73812L563.21325 192.19545" style="fill:none;stroke:rgba(60,0,194,.24705882);stroke-width:.09525;stroke-miterlimit:41.994751"/><path d="M563.21325 192.19545H564.4515" style="fill:none;stroke:rgba(56,0,194,.24705882);stroke-width:.09525;stroke-miterlimit:41.994751"/><path d="M544.92525 544.15372L546.06825 543.69652" style="fill:none;stroke:rgba(56,0,194,.24705882);stroke-width:.09525;stroke-miterlimit:41.994751"/><path d="M933.16425 1278.1597H944.71807V1264.6247H933.16425z" style="fill:rgba(52,0,202,.24705882);stroke:rgba(52,0,202,.24705882);stroke-width:.09525;stroke-miterlimit:41.994751"/><path d="M939.4317 1265.9773A.47625 .47625 0 00938.4792 1265.9773A.47625 .47625 0 00939.4317 1265.9773z" fill="rgba(52,0,202,.24705882)"/><path d="M945.20385 1170.7368L938.95545 1265.9773" style="fill:none;stroke:rgba(32,0,222,.24705882);stroke-width:.09525;stroke-miterlimit:41.994751"/><path d="M933.16425 1173.7658H957.24345V1167.7174H933.16425z" style="fill:rgba(16,0,238,.24705882);stroke:rgba(16,0,238,.24705882);stroke-width:.09525;stroke-miterlimit:41.994751"/><path d="M945.6801 1170.7368A.47625 .47625 0 00944.7276 1170.7368A.47625 .47625 0 00945.6801 1170.7368z" fill="rgba(16,0,238,.24705882)"/><path d="M933.16425 1207.5795H944.71807V1189.0819H933.16425z" style="fill:rgba(16,0,238,.24705882);stroke:rgba(16,0,238,.24705882);stroke-width:.09525;stroke-miterlimit:41.994751"/><path d="M939.41265 1189.3201A.47625 .47625 0 00938.46015 1189.3201A.47625 .47625 0 00939.41265 1189.3201z" fill="rgba(16,0,238,.24705882)"/><path d="M966.69225 1158.5257H984.98025V1152.4297H966.69225z" style="fill:rgba(16,0,238,.24705882);stroke:rgba(16,0,238,.24705882);stroke-width:.09525;stroke-miterlimit:41.994751"/><path d="M976.3125 1155.4778A.47625 .47625 0 00975.36 1155.4778A.47625 .47625 0 00976.3125 1155.4778z" fill="rgba(16,0,238,.24705882)"/><path d="M945.20385 1170.7368L938.9364 1189.3201" style="fill:none;stroke:rgba(16,0,238,.24705882);stroke-width:.09525;stroke-miterlimit:41.994751"/><path d="M975.83625 1155.4778L945.20385 1170.7368" style="fill:none;stroke:rgba(16,0,238,.24705882);stroke-width:.09525;stroke-miterlimit:41.994751"/><path d="M981.93225 1128.0553L975.83625 1155.4778" style="fill:none;stroke:rgba(12,0,238,.24705882);stroke-width:.09525;stroke-miterlimit:41.994751"/><path d="M978.88425 1146.3242H984.97072V1109.7863H978.88425z" style="fill:rgba(12,0,242,.24705882);stroke:rgba(12,0,242,.24705882);stroke-width:.09525;stroke-miterlimit:41.994751"/><path d="M982.4085 1128.0553A.47625 .47625 0 00981.456 1128.0553A.47625 .47625 0 00982.4085 1128.0553z" fill="rgba(12,0,242,.24705882)"/><path d="M972.78825 1094.5273L981.93225 1128.0553" style="fill:none;stroke:rgba(8,0,242,.24705882);stroke-width:.09525;stroke-miterlimit:41.994751"/><path d="M962.12977 1071.6197H984.98025V1067.1238H962.12977z" style="fill:rgba(8,0,246,.24705882);stroke:rgba(8,0,246,.24705882);stroke-width:.09525;stroke-miterlimit:41.994751"/><path d="M974.0265 1069.3717A.47625 .47625 0 00973.074 1069.3717A.47625 .47625 0 00974.0265 1069.3717z" fill="rgba(8,0,246,.24705882)"/><path d="M960.6153 1022.8707H1112.9772V1004.6208H960.6153z" style="fill:rgba(8,0,246,.24705882);stroke:rgba(8,0,246,.24705882);stroke-width:.09525;stroke-miterlimit:41.994751"/><path d="M1037.2725 1013.7457A.47625 .47625 0 001036.32 1013.7457A.47625 .47625 0 001037.2725 1013.7457z" fill="rgba(8,0,246,.24705882)"/><path d="M707.61225 655.22475H725.64308V597.22702H707.61225z" style="fill:rgba(8,0,246,.24705882);stroke:rgba(8,0,246,.24705882);stroke-width:.09525;stroke-miterlimit:41.994751"/><path d="M717.10868 626.22112A.47625 .47625 0 00716.15617 626.22112A.47625 .47625 0 00717.10868 626.22112z" fill="rgba(8,0,246,.24705882)"/><path d="M1026.5378 258.1656H1035.6533V256.55587H1026.5378z" style="fill:rgba(8,0,246,.24705882);stroke:rgba(8,0,246,.24705882);stroke-width:.09525;stroke-miterlimit:41.994751"/><path d="M1031.5765 257.35597A.47625 .47625 0 001030.6241 257.35597A.47625 .47625 0 001031.5765 257.35597z" fill="rgba(8,0,246,.24705882)"/><path d="M707.61225 350.07232H725.64308V200.787H707.61225z" style="fill:rgba(8,0,246,.24705882);stroke:rgba(8,0,246,.24705882);stroke-width:.09525;stroke-miterlimit:41.994751"/><path d="M717.10868 275.4249A.47625 .47625 0 00716.15617 275.4249A.47625 .47625 0 00717.10868 275.4249z" fill="rgba(8,0,246,.24705882)"/><path d="M707.61225 675.35107H725.64308V655.22475H707.61225z" style="fill:rgba(8,0,246,.24705882);stroke:rgba(8,0,246,.24705882);stroke-width:.09525;stroke-miterlimit:41.994751"/><path d="M717.10868 665.28315A.47625 .47625 0 00716.15617 665.28315A.47625 .47625 0 00717.10868 665.28315z" fill="rgba(8,0,246,.24705882)"/><path d="M707.61225 580.5678H725.64308V552.73575H707.61225z" style="fill:rgba(8,0,246,.24705882);stroke:rgba(8,0,246,.24705882);stroke-width:.09525;stroke-miterlimit:41.994751"/><path d="M717.10868 566.65177A.47625 .47625 0 00716.15617 566.65177A.47625 .47625 0 00717.10868 566.65177z" fill="rgba(8,0,246,.24705882)"/><path d="M707.61225 200.787H725.64308V182.78475H707.61225z" style="fill:rgba(8,0,246,.24705882);stroke:rgba(8,0,246,.24705882);stroke-width:.09525;stroke-miterlimit:41.994751"/><path d="M717.10868 190.73812A.47625 .47625 0 00716.15617 190.73812A.47625 .47625 0 00717.10868 190.73812z" fill="rgba(8,0,246,.24705882)"/><path d="M960.62482 1103.6617H984.95168V1085.3833H960.62482z" style="fill:rgba(8,0,246,.24705882);stroke:rgba(8,0,246,.24705882);stroke-width:.09525;stroke-miterlimit:41.994751"/><path d="M973.2645 1094.5273A.47625 .47625 0 00972.312 1094.5273A.47625 .47625 0 00973.2645 1094.5273z" fill="rgba(8,0,246,.24705882)"/><path d="M707.61225 552.73575H725.64308V540.65805H707.61225z" style="fill:rgba(8,0,246,.24705882);stroke:rgba(8,0,246,.24705882);stroke-width:.09525;stroke-miterlimit:41.994751"/><path d="M717.10868 546.6969A.47625 .47625 0 00716.15617 546.6969A.47625 .47625 0 00717.10868 546.6969z" fill="rgba(8,0,246,.24705882)"/><path d="M962.1393 1083.8212H983.42768V1079.3063H962.1393z" style="fill:rgba(8,0,246,.24705882);stroke:rgba(8,0,246,.24705882);stroke-width:.09525;stroke-miterlimit:41.994751"/><path d="M973.2645 1081.5637A.47625 .47625 0 00972.312 1081.5637A.47625 .47625 0 00973.2645 1081.5637z" fill="rgba(8,0,246,.24705882)"/><path d="M1015.0983 283.17825H1047.0833V258.1656H1015.0983z" style="fill:rgba(8,0,246,.24705882);stroke:rgba(8,0,246,.24705882);stroke-width:.09525;stroke-miterlimit:41.994751"/><path d="M1031.567 270.67192A.47625 .47625 0 001030.6145 270.67192A.47625 .47625 0 001031.567 270.67192z" fill="rgba(8,0,246,.24705882)"/><path d="M962.1393 1071.6577H983.42768V1054.8937H962.1393z" style="fill:rgba(8,0,246,.24705882);stroke:rgba(8,0,246,.24705882);stroke-width:.09525;stroke-miterlimit:41.994751"/><path d="M973.2645 1063.2757A.47625 .47625 0 00972.312 1063.2757A.47625 .47625 0 00973.2645 1063.2757z" fill="rgba(8,0,246,.24705882)"/><path d="M962.1393 1047.2737H983.42768V1022.8897H962.1393z" style="fill:rgba(8,0,246,.24705882);stroke:rgba(8,0,246,.24705882);stroke-width:.09525;stroke-miterlimit:41.994751"/><path d="M973.2645 1035.0817A.47625 .47625 0 00972.312 1035.0817A.47625 .47625 0 00973.2645 1035.0817z" fill="rgba(8,0,246,.24705882)"/><path d="M707.61225 540.65805H725.64308V350.07232H707.61225z" style="fill:rgba(8,0,246,.24705882);stroke:rgba(8,0,246,.24705882);stroke-width:.09525;stroke-miterlimit:41.994751"/><path d="M717.10868 445.36042A.47625 .47625 0 00716.15617 445.36042A.47625 .47625 0 00717.10868 445.36042z" fill="rgba(8,0,246,.24705882)"/><path d="M565.22303 200.787H707.61225V182.78475H565.22303z" style="fill:rgba(8,0,246,.24705882);stroke:rgba(8,0,246,.24705882);stroke-width:.09525;stroke-miterlimit:41.994751"/><path d="M627.18315 190.73812A.47625 .47625 0 00626.23065 190.73812A.47625 .47625 0 00627.18315 190.73812z" fill="rgba(8,0,246,.24705882)"/><path d="M972.78825 1081.5637V1094.5273" style="fill:none;stroke:rgba(8,0,246,.24705882);stroke-width:.09525;stroke-miterlimit:41.994751"/><path d="M972.78825 1081.5637V1063.2757" style="fill:none;stroke:rgba(8,0,246,.24705882);stroke-width:.09525;stroke-miterlimit:41.994751"/><path d="M716.63243 445.36042V275.4249" style="fill:none;stroke:rgba(8,0,246,.24705882);stroke-width:.09525;stroke-miterlimit:41.994751"/><path d="M716.63243 546.6969V445.36042" style="fill:none;stroke:rgba(8,0,246,.24705882);stroke-width:.09525;stroke-miterlimit:41.994751"/><path d="M1031.1003 257.35597L1031.0908 270.67192" style="fill:none;stroke:rgba(8,0,246,.24705882);stroke-width:.09525;stroke-miterlimit:41.994751"/><path d="M716.63243 190.73812V275.4249" style="fill:none;stroke:rgba(8,0,246,.24705882);stroke-width:.09525;stroke-miterlimit:41.994751"/><path d="M972.78825 1063.2757V1035.0817" style="fill:none;stroke:rgba(8,0,246,.24705882);stroke-width:.09525;stroke-miterlimit:41.994751"/><path d="M716.63243 665.28315V626.22112" style="fill:none;stroke:rgba(8,0,246,.24705882);stroke-width:.09525;stroke-miterlimit:41.994751"/><path d="M716.63243 566.65177V546.6969" style="fill:none;stroke:rgba(8,0,246,.24705882);stroke-width:.09525;stroke-miterlimit:41.994751"/><path d="M716.63243 626.22112V566.65177" style="fill:none;stroke:rgba(8,0,246,.24705882);stroke-width:.09525;stroke-miterlimit:41.994751"/><path d="M626.7069 190.73812H716.63243" style="fill:none;stroke:rgba(8,0,246,.24705882);stroke-width:.09525;stroke-miterlimit:41.994751"/><path d="M626.7069 190.73812L564.4515 192.19545" style="fill:none;stroke:rgba(8,0,246,.24705882);stroke-width:.09525;stroke-miterlimit:41.994751"/><path d="M686.19053 548.13518L716.63243 546.6969" style="fill:none;stroke:rgba(8,0,246,.24705882);stroke-width:.09525;stroke-miterlimit:41.994751"/><path d="M664.48305 543.71557H678.89438V534.51442H664.48305z" style="fill:rgba(4,0,246,.24705882);stroke:rgba(4,0,246,.24705882);stroke-width:.09525;stroke-miterlimit:41.994751"/><path d="M672.16973 539.115A.47625 .47625 0 00671.21722 539.115A.47625 .47625 0 00672.16973 539.115z" fill="rgba(4,0,246,.24705882)"/><path d="M664.48305 552.65955H707.88848V543.60127H664.48305z" style="fill:rgba(4,0,246,.24705882);stroke:rgba(4,0,246,.24705882);stroke-width:.09525;stroke-miterlimit:41.994751"/><path d="M686.66678 548.13518A.47625 .47625 0 00685.71428 548.13518A.47625 .47625 0 00686.66678 548.13518z" fill="rgba(4,0,246,.24705882)"/><path d="M544.92525 547.40175H546.91598V539.78175H544.92525z" style="fill:rgba(4,0,246,.24705882);stroke:rgba(4,0,246,.24705882);stroke-width:.09525;stroke-miterlimit:41.994751"/><path d="M546.5445 543.69652A.47625 .47625 0 00545.592 543.69652A.47625 .47625 0 00546.5445 543.69652z" fill="rgba(4,0,246,.24705882)"/><path d="M560.85105 552.65955H664.48305V534.51442H560.85105z" style="fill:rgba(4,0,246,.24705882);stroke:rgba(4,0,246,.24705882);stroke-width:.09525;stroke-miterlimit:41.994751"/><path d="M613.1433 543.69652A.47625 .47625 0 00612.1908 543.69652A.47625 .47625 0 00613.1433 543.69652z" fill="rgba(4,0,246,.24705882)"/><path d="M546.91598 552.65955H560.85105V534.51442H546.91598z" style="fill:rgba(4,0,246,.24705882);stroke:rgba(4,0,246,.24705882);stroke-width:.09525;stroke-miterlimit:41.994751"/><path d="M554.355 543.69652A.47625 .47625 0 00553.4025 543.69652A.47625 .47625 0 00554.355 543.69652z" fill="rgba(4,0,246,.24705882)"/><path d="M563.67045 195.63397H565.22303V187.69012H563.67045z" style="fill:rgba(4,0,246,.24705882);stroke:rgba(4,0,246,.24705882);stroke-width:.09525;stroke-miterlimit:41.994751"/><path d="M564.92775 192.19545A.47625 .47625 0 00563.97525 192.19545A.47625 .47625 0 00564.92775 192.19545z" fill="rgba(4,0,246,.24705882)"/><path d="M671.69348 539.115L612.66705 543.69652" style="fill:none;stroke:rgba(4,0,246,.24705882);stroke-width:.09525;stroke-miterlimit:41.994751"/><path d="M546.06825 543.69652H553.87875" style="fill:none;stroke:rgba(4,0,246,.24705882);stroke-width:.09525;stroke-miterlimit:41.994751"/><path d="M553.87875 543.69652H612.66705" style="fill:none;stroke:rgba(4,0,246,.24705882);stroke-width:.09525;stroke-miterlimit:41.994751"/><path d="M612.66705 543.69652L686.19053 548.13518" style="fill:none;stroke:rgba(4,0,246,.24705882);stroke-width:.09525;stroke-miterlimit:41.994751"/><path d="M1088.5361 1025.9473H1100.6614V1022.8993H1088.5361z" style="fill:rgba(4,0,250,.24705882);stroke:rgba(4,0,250,.24705882);stroke-width:.09525;stroke-miterlimit:41.994751"/><path d="M1095.0702 1024.4233A.47625 .47625 0 001094.1177 1024.4233A.47625 .47625 0 001095.0702 1024.4233z" fill="rgba(4,0,250,.24705882)"/><path d="M1088.5551 1051.7981H1100.709V1048.8358H1088.5551z" style="fill:rgba(4,0,250,.24705882);stroke:rgba(4,0,250,.24705882);stroke-width:.09525;stroke-miterlimit:41.994751"/><path d="M1095.1083 1050.3122A.47625 .47625 0 001094.1558 1050.3122A.47625 .47625 0 001095.1083 1050.3122z" fill="rgba(4,0,250,.24705882)"/><path d="M1079.3921 1048.7597H1109.853V1025.9377H1079.3921z" style="fill:rgba(4,0,250,.24705882);stroke:rgba(4,0,250,.24705882);stroke-width:.09525;stroke-miterlimit:41.994751"/><path d="M1095.0988 1037.3487A.47625 .47625 0 001094.1463 1037.3487A.47625 .47625 0 001095.0988 1037.3487z" fill="rgba(4,0,250,.24705882)"/><path d="M.9525 676.47502A.47625 .47625 0 0016370238e-20 676.47502A.47625 .47625 0 00.9525 676.47502z" fill="rgba(0,0,255,.24705882)"/></svg>