<svg version="1.1" width="1006.4115mm" height="1204.0553mm" viewBox="0 0 1006.4115 1204.0553" xmlns="http://www.w3.org/2000/svg" xmlns:xlink="http://www.w3.org/1999/xlink"><path d="M518.44575 247.65H520.35075" style="fill:none;stroke:#f00;stroke-width:.09525;stroke-miterlimit:41.994751"/><path d="M518.44575 247.65V245.745" style="fill:none;stroke:#0f0;stroke-width:.09525;stroke-miterlimit:41.994751"/><path d="M940.08893 1036.3867H962.60603V996.78173H940.08893z" style="fill:rgba(255,0,0,.24705882);stroke:rgba(255,0,0,.24705882);stroke-width:.09525;stroke-miterlimit:41.994751"/><path d="M951.82373 1016.5842A.47625 .47625 0 00950.87122 1016.5842A.47625 .47625 0 00951.82373 1016.5842z" fill="rgba(255,0,0,.24705882)"/><path d="M928.18269 1042.4827H940.08893V1036.3867H928.18269z" style="fill:rgba(255,0,0,.24705882);stroke:rgba(255,0,0,.24705882);stroke-width:.09525;stroke-miterlimit:41.994751"/><path d="M934.61205 1039.4347A.47625 .47625 0 00933.65955 1039.4347A.47625 .47625 0 00934.61205 1039.4347z" fill="rgba(255,0,0,.24705882)"/><path d="M946.03253 1062.5519H967.73047V1042.5494H946.03253z" style="fill:rgba(255,0,0,.24705882);stroke:rgba(255,0,0,.24705882);stroke-width:.09525;stroke-miterlimit:41.994751"/><path d="M957.35775 1052.5506A.47625 .47625 0 00956.40525 1052.5506A.47625 .47625 0 00957.35775 1052.5506z" fill="rgba(255,0,0,.24705882)"/><path d="M928.18269 1036.3867H940.08893V996.78173H928.18269z" style="fill:rgba(255,0,0,.24705882);stroke:rgba(255,0,0,.24705882);stroke-width:.09525;stroke-miterlimit:41.994751"/><path d="M934.61205 1016.5842A.47625 .47625 0 00933.65955 1016.5842A.47625 .47625 0 00934.61205 1016.5842z" fill="rgba(255,0,0,.24705882)"/><path d="M928.18269 996.78172H962.60603V981.68459H928.18269z" style="fill:rgba(255,0,0,.24705882);stroke:rgba(255,0,0,.24705882);stroke-width:.09525;stroke-miterlimit:41.994751"/><path d="M945.8706 989.2284A.47625 .47625 0 00944.9181 989.2284A.47625 .47625 0 00945.8706 989.2284z" fill="rgba(255,0,0,.24705882)"/><path d="M914.68575 1062.5519H946.03253V1042.5494H914.68575z" style="fill:rgba(255,0,0,.24705882);stroke:rgba(255,0,0,.24705882);stroke-width:.09525;stroke-miterlimit:41.994751"/><path d="M930.84015 1052.5506A.47625 .47625 0 00929.88765 1052.5506A.47625 .47625 0 00930.84015 1052.5506z" fill="rgba(255,0,0,.24705882)"/><path d="M956.8815 1052.5506H930.3639" style="fill:none;stroke:rgba(255,0,0,.24705882);stroke-width:.09525;stroke-miterlimit:41.994751"/><path d="M934.1358 1016.5842H951.34748" style="fill:none;stroke:rgba(255,0,0,.24705882);stroke-width:.09525;stroke-miterlimit:41.994751"/><path d="M934.1358 1016.5842V1039.4347" style="fill:none;stroke:rgba(255,0,0,.24705882);stroke-width:.09525;stroke-miterlimit:41.994751"/><path d="M945.39435 989.2284L934.1358 1016.5842" style="fill:none;stroke:rgba(255,0,0,.24705882);stroke-width:.09525;stroke-miterlimit:41.994751"/><path d="M951.34748 1016.5842L945.39435 989.2284" style="fill:none;stroke:rgba(255,0,0,.24705882);stroke-width:.09525;stroke-miterlimit:41.994751"/><path d="M85.734525 351.11055H109.88994V329.51738H85.734525z" style="fill:rgba(149,0,105,.24705882);stroke:rgba(149,0,105,.24705882);stroke-width:.09525;stroke-miterlimit:41.994751"/><path d="M98.288475 340.3092A.47625 .47625 0 0097.335975 340.3092A.47625 .47625 0 0098.288475 340.3092z" fill="rgba(149,0,105,.24705882)"/><path d="M36.909375 363.5121H46.00575V351.23438H36.909375z" style="fill:rgba(149,0,105,.24705882);stroke:rgba(149,0,105,.24705882);stroke-width:.09525;stroke-miterlimit:41.994751"/><path d="M41.938575 357.36848A.47625 .47625 0 0040.986075 357.36848A.47625 .47625 0 0041.938575 357.36848z" fill="rgba(149,0,105,.24705882)"/><path d="M.28575 375.15165H13.058775V351.21533H.28575z" style="fill:rgba(149,0,105,.24705882);stroke:rgba(149,0,105,.24705882);stroke-width:.09525;stroke-miterlimit:41.994751"/><path d="M7.153275 363.17873A.47625 .47625 0 006.200775 363.17873A.47625 .47625 0 007.153275 363.17873z" fill="rgba(149,0,105,.24705882)"/><path d="M.28575 393.954H13.058775V375.15165H.28575z" style="fill:rgba(149,0,105,.24705882);stroke:rgba(149,0,105,.24705882);stroke-width:.09525;stroke-miterlimit:41.994751"/><path d="M7.153275 384.55283A.47625 .47625 0 006.200775 384.55283A.47625 .47625 0 007.153275 384.55283z" fill="rgba(149,0,105,.24705882)"/><path d="M43.614966 271.87208H48.186966V267.86205H43.614966z" style="fill:rgba(149,0,105,.24705882);stroke:rgba(149,0,105,.24705882);stroke-width:.09525;stroke-miterlimit:41.994751"/><path d="M46.377225 269.8623A.47625 .47625 0 0045.424725 269.8623A.47625 .47625 0 0046.377225 269.8623z" fill="rgba(149,0,105,.24705882)"/><path d="M24.088725 375.15165H36.909375V363.5121H24.088725z" style="fill:rgba(149,0,105,.24705882);stroke:rgba(149,0,105,.24705882);stroke-width:.09525;stroke-miterlimit:41.994751"/><path d="M30.9753 369.33188A.47625 .47625 0 0030.0228 369.33188A.47625 .47625 0 0030.9753 369.33188z" fill="rgba(149,0,105,.24705882)"/><path d="M37.204659 271.96733H42.57675V261.28028H37.204659z" style="fill:rgba(149,0,105,.24705882);stroke:rgba(149,0,105,.24705882);stroke-width:.09525;stroke-miterlimit:41.994751"/><path d="M40.36695 266.6238A.47625 .47625 0 0039.41445 266.6238A.47625 .47625 0 0040.36695 266.6238z" fill="rgba(149,0,105,.24705882)"/><path d="M24.088725 393.954H36.909375V375.15165H24.088725z" style="fill:rgba(149,0,105,.24705882);stroke:rgba(149,0,105,.24705882);stroke-width:.09525;stroke-miterlimit:41.994751"/><path d="M30.9753 384.55283A.47625 .47625 0 0030.0228 384.55283A.47625 .47625 0 0030.9753 384.55283z" fill="rgba(149,0,105,.24705882)"/><path d="M46.472466 351.11055H73.371075V329.51738H46.472466z" style="fill:rgba(149,0,105,.24705882);stroke:rgba(149,0,105,.24705882);stroke-width:.09525;stroke-miterlimit:41.994751"/><path d="M60.398025 340.3092A.47625 .47625 0 0059.445525 340.3092A.47625 .47625 0 0060.398025 340.3092z" fill="rgba(149,0,105,.24705882)"/><path d="M86.401284 229.04768H109.76609V205.86382H86.401284z" style="fill:rgba(149,0,105,.24705882);stroke:rgba(149,0,105,.24705882);stroke-width:.09525;stroke-miterlimit:41.994751"/><path d="M98.5647 217.45575A.47625 .47625 0 0097.6122 217.45575A.47625 .47625 0 0098.5647 217.45575z" fill="rgba(149,0,105,.24705882)"/><path d="M36.909375 393.954H46.00575V363.5121H36.909375z" style="fill:rgba(149,0,105,.24705882);stroke:rgba(149,0,105,.24705882);stroke-width:.09525;stroke-miterlimit:41.994751"/><path d="M41.938575 378.73305A.47625 .47625 0 0040.986075 378.73305A.47625 .47625 0 0041.938575 378.73305z" fill="rgba(149,0,105,.24705882)"/><path d="M86.401284 241.41113H109.76609V229.04768H86.401284z" style="fill:rgba(149,0,105,.24705882);stroke:rgba(149,0,105,.24705882);stroke-width:.09525;stroke-miterlimit:41.994751"/><path d="M98.5647 235.2294A.47625 .47625 0 0097.6122 235.2294A.47625 .47625 0 0098.5647 235.2294z" fill="rgba(149,0,105,.24705882)"/><path d="M.28575 329.40307H27.75585V320.92582H.28575z" style="fill:rgba(149,0,105,.24705882);stroke:rgba(149,0,105,.24705882);stroke-width:.09525;stroke-miterlimit:41.994751"/><path d="M14.49705 325.16445A.47625 .47625 0 0013.54455 325.16445A.47625 .47625 0 0014.49705 325.16445z" fill="rgba(149,0,105,.24705882)"/><path d="M73.371075 351.11055H85.734525V329.51738H73.371075z" style="fill:rgba(149,0,105,.24705882);stroke:rgba(149,0,105,.24705882);stroke-width:.09525;stroke-miterlimit:41.994751"/><path d="M80.02905 340.3092A.47625 .47625 0 0079.07655 340.3092A.47625 .47625 0 0080.02905 340.3092z" fill="rgba(149,0,105,.24705882)"/><path d="M86.401275 271.59585H109.37556V241.73498H86.401275z" style="fill:rgba(149,0,105,.24705882);stroke:rgba(149,0,105,.24705882);stroke-width:.09525;stroke-miterlimit:41.994751"/><path d="M98.364675 256.66065A.47625 .47625 0 0097.412175 256.66065A.47625 .47625 0 0098.364675 256.66065z" fill="rgba(149,0,105,.24705882)"/><path d="M56.588034 271.59585H73.4187V241.73498H56.588034z" style="fill:rgba(149,0,105,.24705882);stroke:rgba(149,0,105,.24705882);stroke-width:.09525;stroke-miterlimit:41.994751"/><path d="M65.484375 256.66065A.47625 .47625 0 0064.531875 256.66065A.47625 .47625 0 0065.484375 256.66065z" fill="rgba(149,0,105,.24705882)"/><path d="M1.0286814 229.0191H24.6126V205.86382H1.0286814z" style="fill:rgba(149,0,105,.24705882);stroke:rgba(149,0,105,.24705882);stroke-width:.09525;stroke-miterlimit:41.994751"/><path d="M13.2969 217.4367A.47625 .47625 0 0012.3444 217.4367A.47625 .47625 0 0013.2969 217.4367z" fill="rgba(149,0,105,.24705882)"/><path d="M37.328466 260.57542H42.567216V259.1181H37.328466z" style="fill:rgba(149,0,105,.24705882);stroke:rgba(149,0,105,.24705882);stroke-width:.09525;stroke-miterlimit:41.994751"/><path d="M40.4241 259.85153A.47625 .47625 0 0039.4716 259.85153A.47625 .47625 0 0040.4241 259.85153z" fill="rgba(149,0,105,.24705882)"/><path d="M73.4187 271.59585H86.401275V241.73498H73.4187z" style="fill:rgba(149,0,105,.24705882);stroke:rgba(149,0,105,.24705882);stroke-width:.09525;stroke-miterlimit:41.994751"/><path d="M80.391 256.66065A.47625 .47625 0 0079.4385 256.66065A.47625 .47625 0 0080.391 256.66065z" fill="rgba(149,0,105,.24705882)"/><path d="M1.9145343 253.41263H24.5364V242.18265H1.9145343z" style="fill:rgba(149,0,105,.24705882);stroke:rgba(149,0,105,.24705882);stroke-width:.09525;stroke-miterlimit:41.994751"/><path d="M13.706475 247.79288A.47625 .47625 0 0012.753975 247.79288A.47625 .47625 0 0013.706475 247.79288z" fill="rgba(149,0,105,.24705882)"/><path d="M85.734525 393.954H109.88994V363.474H85.734525z" style="fill:rgba(149,0,105,.24705882);stroke:rgba(149,0,105,.24705882);stroke-width:.09525;stroke-miterlimit:41.994751"/><path d="M98.288475 378.714A.47625 .47625 0 0097.335975 378.714A.47625 .47625 0 0098.288475 378.714z" fill="rgba(149,0,105,.24705882)"/><path d="M13.058775 393.954H24.088725V375.15165H13.058775z" style="fill:rgba(149,0,105,.24705882);stroke:rgba(149,0,105,.24705882);stroke-width:.09525;stroke-miterlimit:41.994751"/><path d="M19.05 384.55283A.47625 .47625 0 0018.0975 384.55283A.47625 .47625 0 0019.05 384.55283z" fill="rgba(149,0,105,.24705882)"/><path d="M46.472466 393.954H73.371075V363.49305H46.472466z" style="fill:rgba(149,0,105,.24705882);stroke:rgba(149,0,105,.24705882);stroke-width:.09525;stroke-miterlimit:41.994751"/><path d="M60.398025 378.72353A.47625 .47625 0 0059.445525 378.72353A.47625 .47625 0 0060.398025 378.72353z" fill="rgba(149,0,105,.24705882)"/><path d="M46.472466 363.49305H73.371075V351.11055H46.472466z" style="fill:rgba(149,0,105,.24705882);stroke:rgba(149,0,105,.24705882);stroke-width:.09525;stroke-miterlimit:41.994751"/><path d="M60.398025 357.3018A.47625 .47625 0 0059.445525 357.3018A.47625 .47625 0 0060.398025 357.3018z" fill="rgba(149,0,105,.24705882)"/><path d="M36.909375 351.23438H39.94785V345.186H36.909375z" style="fill:rgba(149,0,105,.24705882);stroke:rgba(149,0,105,.24705882);stroke-width:.09525;stroke-miterlimit:41.994751"/><path d="M38.909625 348.20543A.47625 .47625 0 0037.957125 348.20543A.47625 .47625 0 0038.909625 348.20543z" fill="rgba(149,0,105,.24705882)"/><path d="M85.734525 363.474H109.88994V351.11055H85.734525z" style="fill:rgba(149,0,105,.24705882);stroke:rgba(149,0,105,.24705882);stroke-width:.09525;stroke-miterlimit:41.994751"/><path d="M98.288475 357.29228A.47625 .47625 0 0097.335975 357.29228A.47625 .47625 0 0098.288475 357.29228z" fill="rgba(149,0,105,.24705882)"/><path d="M73.332975 393.954H85.734525V363.474H73.332975z" style="fill:rgba(149,0,105,.24705882);stroke:rgba(149,0,105,.24705882);stroke-width:.09525;stroke-miterlimit:41.994751"/><path d="M80.01 378.714A.47625 .47625 0 0079.0575 378.714A.47625 .47625 0 0080.01 378.714z" fill="rgba(149,0,105,.24705882)"/><path d="M39.94785 351.23438H46.00575V345.186H39.94785z" style="fill:rgba(149,0,105,.24705882);stroke:rgba(149,0,105,.24705882);stroke-width:.09525;stroke-miterlimit:41.994751"/><path d="M43.45305 348.20543A.47625 .47625 0 0042.50055 348.20543A.47625 .47625 0 0043.45305 348.20543z" fill="rgba(149,0,105,.24705882)"/><path d="M42.95775 329.40307H45.891431V320.92582H42.95775z" style="fill:rgba(149,0,105,.24705882);stroke:rgba(149,0,105,.24705882);stroke-width:.09525;stroke-miterlimit:41.994751"/><path d="M44.90085 325.16445A.47625 .47625 0 0043.94835 325.16445A.47625 .47625 0 0044.90085 325.16445z" fill="rgba(149,0,105,.24705882)"/><path d="M37.214175 253.41263H54.663966V242.18265H37.214175z" style="fill:rgba(149,0,105,.24705882);stroke:rgba(149,0,105,.24705882);stroke-width:.09525;stroke-miterlimit:41.994751"/><path d="M46.415325 247.79288A.47625 .47625 0 0045.462825 247.79288A.47625 .47625 0 0046.415325 247.79288z" fill="rgba(149,0,105,.24705882)"/><path d="M46.00575 320.7639H103.86059V272.0721H46.00575z" style="fill:rgba(149,0,105,.24705882);stroke:rgba(149,0,105,.24705882);stroke-width:.09525;stroke-miterlimit:41.994751"/><path d="M75.409425 296.418A.47625 .47625 0 0074.456925 296.418A.47625 .47625 0 0075.409425 296.418z" fill="rgba(149,0,105,.24705882)"/><path d="M27.75585 329.40307H33.81375V320.92582H27.75585z" style="fill:rgba(149,0,105,.24705882);stroke:rgba(149,0,105,.24705882);stroke-width:.09525;stroke-miterlimit:41.994751"/><path d="M31.26105 325.16445A.47625 .47625 0 0030.30855 325.16445A.47625 .47625 0 0031.26105 325.16445z" fill="rgba(149,0,105,.24705882)"/><path d="M.28575 345.186H27.75585V329.40308H.28575z" style="fill:rgba(149,0,105,.24705882);stroke:rgba(149,0,105,.24705882);stroke-width:.09525;stroke-miterlimit:41.994751"/><path d="M14.49705 337.28978A.47625 .47625 0 0013.54455 337.28978A.47625 .47625 0 0014.49705 337.28978z" fill="rgba(149,0,105,.24705882)"/><path d="M43.110159 320.7639H46.00575V272.0721H43.110159z" style="fill:rgba(149,0,105,.24705882);stroke:rgba(149,0,105,.24705882);stroke-width:.09525;stroke-miterlimit:41.994751"/><path d="M45.0342 296.418A.47625 .47625 0 0044.0817 296.418A.47625 .47625 0 0045.0342 296.418z" fill="rgba(149,0,105,.24705882)"/><path d="M24.5364 253.41263H37.214175V242.18265H24.5364z" style="fill:rgba(149,0,105,.24705882);stroke:rgba(149,0,105,.24705882);stroke-width:.09525;stroke-miterlimit:41.994751"/><path d="M31.3563 247.79288A.47625 .47625 0 0030.4038 247.79288A.47625 .47625 0 0031.3563 247.79288z" fill="rgba(149,0,105,.24705882)"/><path d="M33.81375 351.23438H36.909375V345.186H33.81375z" style="fill:rgba(149,0,105,.24705882);stroke:rgba(149,0,105,.24705882);stroke-width:.09525;stroke-miterlimit:41.994751"/><path d="M35.842575 348.20543A.47625 .47625 0 0034.890075 348.20543A.47625 .47625 0 0035.842575 348.20543z" fill="rgba(149,0,105,.24705882)"/><path d="M27.75585 351.23438H33.81375V345.186H27.75585z" style="fill:rgba(149,0,105,.24705882);stroke:rgba(149,0,105,.24705882);stroke-width:.09525;stroke-miterlimit:41.994751"/><path d="M31.26105 348.20543A.47625 .47625 0 0030.30855 348.20543A.47625 .47625 0 0031.26105 348.20543z" fill="rgba(149,0,105,.24705882)"/><path d="M33.81375 329.40307H39.94785V320.92582H33.81375z" style="fill:rgba(149,0,105,.24705882);stroke:rgba(149,0,105,.24705882);stroke-width:.09525;stroke-miterlimit:41.994751"/><path d="M37.35705 325.16445A.47625 .47625 0 0036.40455 325.16445A.47625 .47625 0 0037.35705 325.16445z" fill="rgba(149,0,105,.24705882)"/><path d="M46.472466 329.51738H109.88994V320.94488H46.472466z" style="fill:rgba(149,0,105,.24705882);stroke:rgba(149,0,105,.24705882);stroke-width:.09525;stroke-miterlimit:41.994751"/><path d="M78.65745 325.23113A.47625 .47625 0 0077.70495 325.23113A.47625 .47625 0 0078.65745 325.23113z" fill="rgba(149,0,105,.24705882)"/><path d="M24.6126 229.0191H86.4108V205.86382H24.6126z" style="fill:rgba(149,0,105,.24705882);stroke:rgba(149,0,105,.24705882);stroke-width:.09525;stroke-miterlimit:41.994751"/><path d="M55.98795 217.4367A.47625 .47625 0 0055.03545 217.4367A.47625 .47625 0 0055.98795 217.4367z" fill="rgba(149,0,105,.24705882)"/><path d="M39.94785 329.40307H42.95775V320.92582H39.94785z" style="fill:rgba(149,0,105,.24705882);stroke:rgba(149,0,105,.24705882);stroke-width:.09525;stroke-miterlimit:41.994751"/><path d="M41.92905 325.16445A.47625 .47625 0 0040.97655 325.16445A.47625 .47625 0 0041.92905 325.16445z" fill="rgba(149,0,105,.24705882)"/><path d="M.28575 351.23438H27.75585V345.186H.28575z" style="fill:rgba(149,0,105,.24705882);stroke:rgba(149,0,105,.24705882);stroke-width:.09525;stroke-miterlimit:41.994751"/><path d="M14.49705 348.20543A.47625 .47625 0 0013.54455 348.20543A.47625 .47625 0 0014.49705 348.20543z" fill="rgba(149,0,105,.24705882)"/><path d="M33.81375 345.186H39.94785V329.40308H33.81375z" style="fill:rgba(149,0,105,.24705882);stroke:rgba(149,0,105,.24705882);stroke-width:.09525;stroke-miterlimit:41.994751"/><path d="M37.35705 337.28978A.47625 .47625 0 0036.40455 337.28978A.47625 .47625 0 0037.35705 337.28978z" fill="rgba(149,0,105,.24705882)"/><path d="M79.91475 256.66065H97.888425" style="fill:none;stroke:rgba(149,0,105,.24705882);stroke-width:.09525;stroke-miterlimit:41.994751"/><path d="M59.921775 357.3018V340.3092" style="fill:none;stroke:rgba(149,0,105,.24705882);stroke-width:.09525;stroke-miterlimit:41.994751"/><path d="M35.366325 348.20543H38.433375" style="fill:none;stroke:rgba(149,0,105,.24705882);stroke-width:.09525;stroke-miterlimit:41.994751"/><path d="M41.4528 325.16445H44.4246" style="fill:none;stroke:rgba(149,0,105,.24705882);stroke-width:.09525;stroke-miterlimit:41.994751"/><path d="M14.0208 348.20543H30.7848" style="fill:none;stroke:rgba(149,0,105,.24705882);stroke-width:.09525;stroke-miterlimit:41.994751"/><path d="M36.8808 325.16445V337.28978" style="fill:none;stroke:rgba(149,0,105,.24705882);stroke-width:.09525;stroke-miterlimit:41.994751"/><path d="M78.1812 325.23113L59.921775 340.3092" style="fill:none;stroke:rgba(149,0,105,.24705882);stroke-width:.09525;stroke-miterlimit:41.994751"/><path d="M55.5117 217.4367L98.08845 217.45575" style="fill:none;stroke:rgba(149,0,105,.24705882);stroke-width:.09525;stroke-miterlimit:41.994751"/><path d="M65.008125 256.66065H79.91475" style="fill:none;stroke:rgba(149,0,105,.24705882);stroke-width:.09525;stroke-miterlimit:41.994751"/><path d="M18.57375 384.55283H30.49905" style="fill:none;stroke:rgba(149,0,105,.24705882);stroke-width:.09525;stroke-miterlimit:41.994751"/><path d="M6.677025 384.55283V363.17873" style="fill:none;stroke:rgba(149,0,105,.24705882);stroke-width:.09525;stroke-miterlimit:41.994751"/><path d="M6.677025 384.55283H18.57375" style="fill:none;stroke:rgba(149,0,105,.24705882);stroke-width:.09525;stroke-miterlimit:41.994751"/><path d="M44.55795 296.418L45.900975 269.8623" style="fill:none;stroke:rgba(149,0,105,.24705882);stroke-width:.09525;stroke-miterlimit:41.994751"/><path d="M36.8808 325.16445H41.4528" style="fill:none;stroke:rgba(149,0,105,.24705882);stroke-width:.09525;stroke-miterlimit:41.994751"/><path d="M14.0208 348.20543V337.28978" style="fill:none;stroke:rgba(149,0,105,.24705882);stroke-width:.09525;stroke-miterlimit:41.994751"/><path d="M44.55795 296.418H74.933175" style="fill:none;stroke:rgba(149,0,105,.24705882);stroke-width:.09525;stroke-miterlimit:41.994751"/><path d="M74.933175 296.418L65.008125 256.66065" style="fill:none;stroke:rgba(149,0,105,.24705882);stroke-width:.09525;stroke-miterlimit:41.994751"/><path d="M74.933175 296.418L45.900975 269.8623" style="fill:none;stroke:rgba(149,0,105,.24705882);stroke-width:.09525;stroke-miterlimit:41.994751"/><path d="M74.933175 296.418L78.1812 325.23113" style="fill:none;stroke:rgba(149,0,105,.24705882);stroke-width:.09525;stroke-miterlimit:41.994751"/><path d="M74.933175 296.418L79.91475 256.66065" style="fill:none;stroke:rgba(149,0,105,.24705882);stroke-width:.09525;stroke-miterlimit:41.994751"/><path d="M30.88005 247.79288H45.939075" style="fill:none;stroke:rgba(149,0,105,.24705882);stroke-width:.09525;stroke-miterlimit:41.994751"/><path d="M30.7848 348.20543H35.366325" style="fill:none;stroke:rgba(149,0,105,.24705882);stroke-width:.09525;stroke-miterlimit:41.994751"/><path d="M74.933175 296.418L97.888425 256.66065" style="fill:none;stroke:rgba(149,0,105,.24705882);stroke-width:.09525;stroke-miterlimit:41.994751"/><path d="M30.49905 369.33188L41.462325 378.73305" style="fill:none;stroke:rgba(149,0,105,.24705882);stroke-width:.09525;stroke-miterlimit:41.994751"/><path d="M44.4246 325.16445L44.55795 296.418" style="fill:none;stroke:rgba(149,0,105,.24705882);stroke-width:.09525;stroke-miterlimit:41.994751"/><path d="M44.4246 325.16445L78.1812 325.23113" style="fill:none;stroke:rgba(149,0,105,.24705882);stroke-width:.09525;stroke-miterlimit:41.994751"/><path d="M30.7848 325.16445H36.8808" style="fill:none;stroke:rgba(149,0,105,.24705882);stroke-width:.09525;stroke-miterlimit:41.994751"/><path d="M79.53375 378.714L59.921775 378.72353" style="fill:none;stroke:rgba(149,0,105,.24705882);stroke-width:.09525;stroke-miterlimit:41.994751"/><path d="M42.9768 348.20543L59.921775 340.3092" style="fill:none;stroke:rgba(149,0,105,.24705882);stroke-width:.09525;stroke-miterlimit:41.994751"/><path d="M97.812225 357.29228V340.3092" style="fill:none;stroke:rgba(149,0,105,.24705882);stroke-width:.09525;stroke-miterlimit:41.994751"/><path d="M42.9768 348.20543L41.462325 357.36848" style="fill:none;stroke:rgba(149,0,105,.24705882);stroke-width:.09525;stroke-miterlimit:41.994751"/><path d="M30.49905 384.55283V369.33188" style="fill:none;stroke:rgba(149,0,105,.24705882);stroke-width:.09525;stroke-miterlimit:41.994751"/><path d="M41.462325 378.73305L30.49905 384.55283" style="fill:none;stroke:rgba(149,0,105,.24705882);stroke-width:.09525;stroke-miterlimit:41.994751"/><path d="M59.921775 357.3018L41.462325 357.36848" style="fill:none;stroke:rgba(149,0,105,.24705882);stroke-width:.09525;stroke-miterlimit:41.994751"/><path d="M36.8808 337.28978L35.366325 348.20543" style="fill:none;stroke:rgba(149,0,105,.24705882);stroke-width:.09525;stroke-miterlimit:41.994751"/><path d="M38.433375 348.20543L36.8808 337.28978" style="fill:none;stroke:rgba(149,0,105,.24705882);stroke-width:.09525;stroke-miterlimit:41.994751"/><path d="M59.921775 378.72353V357.3018" style="fill:none;stroke:rgba(149,0,105,.24705882);stroke-width:.09525;stroke-miterlimit:41.994751"/><path d="M38.433375 348.20543H42.9768" style="fill:none;stroke:rgba(149,0,105,.24705882);stroke-width:.09525;stroke-miterlimit:41.994751"/><path d="M97.812225 378.714H79.53375" style="fill:none;stroke:rgba(149,0,105,.24705882);stroke-width:.09525;stroke-miterlimit:41.994751"/><path d="M97.812225 378.714V357.29228" style="fill:none;stroke:rgba(149,0,105,.24705882);stroke-width:.09525;stroke-miterlimit:41.994751"/><path d="M41.462325 357.36848L38.433375 348.20543" style="fill:none;stroke:rgba(149,0,105,.24705882);stroke-width:.09525;stroke-miterlimit:41.994751"/><path d="M59.921775 340.3092H79.5528" style="fill:none;stroke:rgba(149,0,105,.24705882);stroke-width:.09525;stroke-miterlimit:41.994751"/><path d="M13.230225 247.79288H30.88005" style="fill:none;stroke:rgba(149,0,105,.24705882);stroke-width:.09525;stroke-miterlimit:41.994751"/><path d="M45.900975 269.8623L39.8907 266.6238" style="fill:none;stroke:rgba(149,0,105,.24705882);stroke-width:.09525;stroke-miterlimit:41.994751"/><path d="M12.82065 217.4367H55.5117" style="fill:none;stroke:rgba(149,0,105,.24705882);stroke-width:.09525;stroke-miterlimit:41.994751"/><path d="M39.94785 259.85153L39.8907 266.6238" style="fill:none;stroke:rgba(149,0,105,.24705882);stroke-width:.09525;stroke-miterlimit:41.994751"/><path d="M97.812225 340.3092L78.1812 325.23113" style="fill:none;stroke:rgba(149,0,105,.24705882);stroke-width:.09525;stroke-miterlimit:41.994751"/><path d="M97.888425 256.66065L98.08845 235.2294" style="fill:none;stroke:rgba(149,0,105,.24705882);stroke-width:.09525;stroke-miterlimit:41.994751"/><path d="M79.5528 340.3092H97.812225" style="fill:none;stroke:rgba(149,0,105,.24705882);stroke-width:.09525;stroke-miterlimit:41.994751"/><path d="M79.5528 340.3092L78.1812 325.23113" style="fill:none;stroke:rgba(149,0,105,.24705882);stroke-width:.09525;stroke-miterlimit:41.994751"/><path d="M14.0208 325.16445H30.7848" style="fill:none;stroke:rgba(149,0,105,.24705882);stroke-width:.09525;stroke-miterlimit:41.994751"/><path d="M98.08845 235.2294V217.45575" style="fill:none;stroke:rgba(149,0,105,.24705882);stroke-width:.09525;stroke-miterlimit:41.994751"/><path d="M41.462325 357.36848V378.73305" style="fill:none;stroke:rgba(149,0,105,.24705882);stroke-width:.09525;stroke-miterlimit:41.994751"/><path d="M55.5117 217.4367L55.3212 235.59135" style="fill:none;stroke:rgba(149,0,105,.24705882);stroke-width:.09525;stroke-miterlimit:41.994751"/><path d="M65.008125 256.66065L55.3212 235.59135" style="fill:none;stroke:rgba(149,0,105,.24705882);stroke-width:.09525;stroke-miterlimit:41.994751"/><path d="M45.939075 247.79288L55.3212 235.59135" style="fill:none;stroke:rgba(149,0,105,.24705882);stroke-width:.09525;stroke-miterlimit:41.994751"/><path d="M37.204659 241.5159H73.43775V229.6668H37.204659z" style="fill:rgba(149,0,105,.24705882);stroke:rgba(149,0,105,.24705882);stroke-width:.09525;stroke-miterlimit:41.994751"/><path d="M55.79745 235.59135A.47625 .47625 0 0054.84495 235.59135A.47625 .47625 0 0055.79745 235.59135z" fill="rgba(149,0,105,.24705882)"/><path d="M13.230225 247.79288L12.449175 235.33418" style="fill:none;stroke:rgba(149,0,105,.24705882);stroke-width:.09525;stroke-miterlimit:41.994751"/><path d="M12.449175 235.33418L12.82065 217.4367" style="fill:none;stroke:rgba(149,0,105,.24705882);stroke-width:.09525;stroke-miterlimit:41.994751"/><path d="M.28575 241.45875H24.612591V229.2096H.28575z" style="fill:rgba(149,0,105,.24705882);stroke:rgba(149,0,105,.24705882);stroke-width:.09525;stroke-miterlimit:41.994751"/><path d="M12.925425 235.33418A.47625 .47625 0 0011.972925 235.33418A.47625 .47625 0 0012.925425 235.33418z" fill="rgba(149,0,105,.24705882)"/><path d="M33.43275 296.2275L44.55795 296.418" style="fill:none;stroke:rgba(137,0,117,.24705882);stroke-width:.09525;stroke-miterlimit:41.994751"/><path d="M26.1366 308.59095H42.95775V284.28315H26.1366z" style="fill:rgba(121,0,129,.24705882);stroke:rgba(121,0,129,.24705882);stroke-width:.09525;stroke-miterlimit:41.994751"/><path d="M33.909 296.2275A.47625 .47625 0 0032.9565 296.2275A.47625 .47625 0 0033.909 296.2275z" fill="rgba(121,0,129,.24705882)"/><path d="M930.61157 1203.7981H959.66282V1195.1208H930.61157z" style="fill:rgba(121,0,133,.24705882);stroke:rgba(121,0,133,.24705882);stroke-width:.09525;stroke-miterlimit:41.994751"/><path d="M945.61343 1199.4547A.47625 .47625 0 00944.66092 1199.4547A.47625 .47625 0 00945.61343 1199.4547z" fill="rgba(121,0,133,.24705882)"/><path d="M25.384125 296.43705L33.43275 296.2275" style="fill:none;stroke:rgba(113,0,141,.24705882);stroke-width:.09525;stroke-miterlimit:41.994751"/><path d="M24.631659 308.59095H26.136591V284.28315H24.631659z" style="fill:rgba(105,0,149,.24705882);stroke:rgba(105,0,149,.24705882);stroke-width:.09525;stroke-miterlimit:41.994751"/><path d="M25.860375 296.43705A.47625 .47625 0 0024.907875 296.43705A.47625 .47625 0 0025.860375 296.43705z" fill="rgba(105,0,149,.24705882)"/><path d="M.3429093 308.54332H24.403069V284.3403H.3429093z" style="fill:rgba(105,0,149,.24705882);stroke:rgba(105,0,149,.24705882);stroke-width:.09525;stroke-miterlimit:41.994751"/><path d="M12.849225 296.43705A.47625 .47625 0 0011.896725 296.43705A.47625 .47625 0 0012.849225 296.43705z" fill="rgba(105,0,149,.24705882)"/><path d="M12.372975 296.43705H25.384125" style="fill:none;stroke:rgba(105,0,149,.24705882);stroke-width:.09525;stroke-miterlimit:41.994751"/><path d="M12.601575 263.09955L12.372975 296.43705" style="fill:none;stroke:rgba(89,0,165,.24705882);stroke-width:.09525;stroke-miterlimit:41.994751"/><path d="M12.372975 296.43705L17.706975 321.43065" style="fill:none;stroke:rgba(89,0,165,.24705882);stroke-width:.09525;stroke-miterlimit:41.994751"/><path d="M797.64255 1053.8555A.47625 .47625 0 00796.69005 1053.8555A.47625 .47625 0 00797.64255 1053.8555z" fill="rgba(76,0,178,.24705882)"/><path d="M738.29228 1049.9122A.47625 .47625 0 00737.33977 1049.9122A.47625 .47625 0 00738.29228 1049.9122z" fill="rgba(76,0,178,.24705882)"/><path d="M757.76138 1050.9695A.47625 .47625 0 00756.80887 1050.9695A.47625 .47625 0 00757.76138 1050.9695z" fill="rgba(76,0,178,.24705882)"/><path d="M762.9906 1061.1231A.47625 .47625 0 00762.0381 1061.1231A.47625 .47625 0 00762.9906 1061.1231z" fill="rgba(76,0,178,.24705882)"/><path d="M769.55333 1042.6256A.47625 .47625 0 00768.60082 1042.6256A.47625 .47625 0 00769.55333 1042.6256z" fill="rgba(76,0,178,.24705882)"/><path d="M810.12982 1002.5539H854.49727V986.8281H810.12982z" style="fill:rgba(72,0,178,.24705882);stroke:rgba(72,0,178,.24705882);stroke-width:.09525;stroke-miterlimit:41.994751"/><path d="M832.7898 994.68623A.47625 .47625 0 00831.8373 994.68623A.47625 .47625 0 00832.7898 994.68623z" fill="rgba(72,0,178,.24705882)"/><path d="M934.24056 1002.5539H963.10131V969.25448H934.24056z" style="fill:rgba(72,0,178,.24705882);stroke:rgba(72,0,178,.24705882);stroke-width:.09525;stroke-miterlimit:41.994751"/><path d="M949.1472 985.90418A.47625 .47625 0 00948.1947 985.90418A.47625 .47625 0 00949.1472 985.90418z" fill="rgba(72,0,178,.24705882)"/><path d="M950.27115 960.59625A.47625 .47625 0 00949.31865 960.59625A.47625 .47625 0 00950.27115 960.59625z" fill="rgba(72,0,178,.24705882)"/><path d="M594.3981 908.304A.47625 .47625 0 00593.4456 908.304A.47625 .47625 0 00594.3981 908.304z" fill="rgba(72,0,178,.24705882)"/><path d="M594.5505 929.03993A.47625 .47625 0 00593.598 929.03993A.47625 .47625 0 00594.5505 929.03993z" fill="rgba(72,0,178,.24705882)"/><path d="M594.10283 958.11975A.47625 .47625 0 00593.15032 958.11975A.47625 .47625 0 00594.10283 958.11975z" fill="rgba(72,0,178,.24705882)"/><path d="M934.24056 969.25447H963.10131V890.12078H934.24056z" style="fill:rgba(72,0,178,.24705882);stroke:rgba(72,0,178,.24705882);stroke-width:.09525;stroke-miterlimit:41.994751"/><path d="M949.1472 929.68763A.47625 .47625 0 00948.1947 929.68763A.47625 .47625 0 00949.1472 929.68763z" fill="rgba(72,0,178,.24705882)"/><path d="M810.12982 986.8281H854.49727V969.25448H810.12982z" style="fill:rgba(72,0,178,.24705882);stroke:rgba(72,0,178,.24705882);stroke-width:.09525;stroke-miterlimit:41.994751"/><path d="M832.7898 978.03653A.47625 .47625 0 00831.8373 978.03653A.47625 .47625 0 00832.7898 978.03653z" fill="rgba(72,0,178,.24705882)"/><path d="M750.09375 909.03743H787.20315V890.12078H750.09375z" style="fill:rgba(72,0,178,.24705882);stroke:rgba(72,0,178,.24705882);stroke-width:.09525;stroke-miterlimit:41.994751"/><path d="M769.1247 899.5791A.47625 .47625 0 00768.1722 899.5791A.47625 .47625 0 00769.1247 899.5791z" fill="rgba(72,0,178,.24705882)"/><path d="M948.67095 929.68763V985.90418" style="fill:none;stroke:rgba(72,0,178,.24705882);stroke-width:.09525;stroke-miterlimit:41.994751"/><path d="M832.31355 994.68623V978.03653" style="fill:none;stroke:rgba(72,0,178,.24705882);stroke-width:.09525;stroke-miterlimit:41.994751"/><path d="M832.31355 978.03653L894.64515 985.9137" style="fill:none;stroke:rgba(72,0,178,.24705882);stroke-width:.09525;stroke-miterlimit:41.994751"/><path d="M894.64515 985.9137L948.67095 985.90418" style="fill:none;stroke:rgba(72,0,178,.24705882);stroke-width:.09525;stroke-miterlimit:41.994751"/><path d="M894.64515 985.9137L832.31355 994.68623" style="fill:none;stroke:rgba(72,0,178,.24705882);stroke-width:.09525;stroke-miterlimit:41.994751"/><path d="M854.49727 1002.5539H935.36453V969.25448H854.49727z" style="fill:rgba(72,0,178,.24705882);stroke:rgba(72,0,178,.24705882);stroke-width:.09525;stroke-miterlimit:41.994751"/><path d="M895.1214 985.9137A.47625 .47625 0 00894.1689 985.9137A.47625 .47625 0 00895.1214 985.9137z" fill="rgba(72,0,178,.24705882)"/><path d="M863.727 984.94215A.47625 .47625 0 00862.7745 984.94215A.47625 .47625 0 00863.727 984.94215z" fill="rgba(72,0,178,.24705882)"/><path d="M770.84873 869.28008L768.64845 899.5791" style="fill:none;stroke:rgba(72,0,178,.24705882);stroke-width:.09525;stroke-miterlimit:41.994751"/><path d="M953.85255 863.37458L948.67095 929.68763" style="fill:none;stroke:rgba(72,0,178,.24705882);stroke-width:.09525;stroke-miterlimit:41.994751"/><path d="M678.561 994.15283A.47625 .47625 0 00677.6085 994.15283A.47625 .47625 0 00678.561 994.15283z" fill="rgba(72,0,178,.24705882)"/><path d="M836.39977 992.95268A.47625 .47625 0 00835.44727 992.95268A.47625 .47625 0 00836.39977 992.95268z" fill="rgba(72,0,178,.24705882)"/><path d="M653.6817 992.6193A.47625 .47625 0 00652.7292 992.6193A.47625 .47625 0 00653.6817 992.6193z" fill="rgba(72,0,178,.24705882)"/><path d="M633.74588 175.70768A.47625 .47625 0 00632.79337 175.70768A.47625 .47625 0 00633.74588 175.70768z" fill="rgba(72,0,178,.24705882)"/><path d="M522.03668 157.63875A.47625 .47625 0 00521.08417 157.63875A.47625 .47625 0 00522.03668 157.63875z" fill="rgba(72,0,178,.24705882)"/><path d="M203.81595 356.7684A.47625 .47625 0 00202.86345 356.7684A.47625 .47625 0 00203.81595 356.7684z" fill="rgba(72,0,178,.24705882)"/><path d="M154.94317 357.93045A.47625 .47625 0 00153.99067 357.93045A.47625 .47625 0 00154.94317 357.93045z" fill="rgba(72,0,178,.24705882)"/><path d="M255.62242 397.3449A.47625 .47625 0 00254.66992 397.3449A.47625 .47625 0 00255.62242 397.3449z" fill="rgba(72,0,178,.24705882)"/><path d="M829.8561 1030.9384A.47625 .47625 0 00828.9036 1030.9384A.47625 .47625 0 00829.8561 1030.9384z" fill="rgba(72,0,178,.24705882)"/><path d="M702.1449 1035.9485A.47625 .47625 0 00701.1924 1035.9485A.47625 .47625 0 00702.1449 1035.9485z" fill="rgba(72,0,178,.24705882)"/><path d="M707.54557 1018.0511A.47625 .47625 0 00706.59307 1018.0511A.47625 .47625 0 00707.54557 1018.0511z" fill="rgba(72,0,178,.24705882)"/><path d="M156.64816 233.6673H170.59275V232.93388H156.64816z" style="fill:rgba(72,0,178,.24705882);stroke:rgba(72,0,178,.24705882);stroke-width:.09525;stroke-miterlimit:41.994751"/><path d="M164.0967 233.30535A.47625 .47625 0 00163.1442 233.30535A.47625 .47625 0 00164.0967 233.30535z" fill="rgba(72,0,178,.24705882)"/><path d="M968.24482 156.68625H971.4738V110.5662H968.24482z" style="fill:rgba(72,0,178,.24705882);stroke:rgba(72,0,178,.24705882);stroke-width:.09525;stroke-miterlimit:41.994751"/><path d="M970.34033 131.70218A.47625 .47625 0 00969.38782 131.70218A.47625 .47625 0 00970.34033 131.70218z" fill="rgba(72,0,178,.24705882)"/><path d="M269.4432 419.99535A.47625 .47625 0 00268.4907 419.99535A.47625 .47625 0 00269.4432 419.99535z" fill="rgba(72,0,178,.24705882)"/><path d="M987.83775 137.922H1004.7827V110.5662H987.83775z" style="fill:rgba(72,0,178,.24705882);stroke:rgba(72,0,178,.24705882);stroke-width:.09525;stroke-miterlimit:41.994751"/><path d="M996.78172 124.2441A.47625 .47625 0 00995.82922 124.2441A.47625 .47625 0 00996.78172 124.2441z" fill="rgba(72,0,178,.24705882)"/><path d="M713.10818 997.04843A.47625 .47625 0 00712.15567 997.04843A.47625 .47625 0 00713.10818 997.04843z" fill="rgba(72,0,178,.24705882)"/><path d="M699.86843 995.4768A.47625 .47625 0 00698.91592 995.4768A.47625 .47625 0 00699.86843 995.4768z" fill="rgba(72,0,178,.24705882)"/><path d="M579.40575 971.10233H609.88575V890.12078H579.40575z" style="fill:rgba(72,0,178,.24705882);stroke:rgba(72,0,178,.24705882);stroke-width:.09525;stroke-miterlimit:41.994751"/><path d="M595.122 930.61155A.47625 .47625 0 00594.1695 930.61155A.47625 .47625 0 00595.122 930.61155z" fill="rgba(72,0,178,.24705882)"/><path d="M963.45375 890.12078H982.7133V850.9254H963.45375z" style="fill:rgba(72,0,178,.24705882);stroke:rgba(72,0,178,.24705882);stroke-width:.09525;stroke-miterlimit:41.994751"/><path d="M973.55978 863.37458A.47625 .47625 0 00972.60727 863.37458A.47625 .47625 0 00973.55978 863.37458z" fill="rgba(72,0,178,.24705882)"/><path d="M609.88575 890.12078H750.09375V850.9254H609.88575z" style="fill:rgba(72,0,178,.24705882);stroke:rgba(72,0,178,.24705882);stroke-width:.09525;stroke-miterlimit:41.994751"/><path d="M680.466 869.28008A.47625 .47625 0 00679.5135 869.28008A.47625 .47625 0 00680.466 869.28008z" fill="rgba(72,0,178,.24705882)"/><path d="M129.921 356.75888A.47625 .47625 0 00128.9685 356.75888A.47625 .47625 0 00129.921 356.75888z" fill="rgba(72,0,178,.24705882)"/><path d="M83.610431 365.2647H107.6325V362.81677H83.610431z" style="fill:rgba(72,0,178,.24705882);stroke:rgba(72,0,178,.24705882);stroke-width:.09525;stroke-miterlimit:41.994751"/><path d="M96.097725 364.03598A.47625 .47625 0 0095.145225 364.03598A.47625 .47625 0 0096.097725 364.03598z" fill="rgba(72,0,178,.24705882)"/><path d="M971.4738 156.68625H987.83775V110.5662H971.4738z" style="fill:rgba(72,0,178,.24705882);stroke:rgba(72,0,178,.24705882);stroke-width:.09525;stroke-miterlimit:41.994751"/><path d="M980.13202 131.70218A.47625 .47625 0 00979.17952 131.70218A.47625 .47625 0 00980.13202 131.70218z" fill="rgba(72,0,178,.24705882)"/><path d="M593.57895 887.48235A.47625 .47625 0 00592.62645 887.48235A.47625 .47625 0 00593.57895 887.48235z" fill="rgba(72,0,178,.24705882)"/><path d="M226.59975 367.2078A.47625 .47625 0 00225.64725 367.2078A.47625 .47625 0 00226.59975 367.2078z" fill="rgba(72,0,178,.24705882)"/><path d="M585.978 875.58563A.47625 .47625 0 00585.0255 875.58563A.47625 .47625 0 00585.978 875.58563z" fill="rgba(72,0,178,.24705882)"/><path d="M613.26712 874.89983A.47625 .47625 0 00612.31462 874.89983A.47625 .47625 0 00613.26712 874.89983z" fill="rgba(72,0,178,.24705882)"/><path d="M971.37857 185.928H985.89466V157.49588H971.37857z" style="fill:rgba(72,0,178,.24705882);stroke:rgba(72,0,178,.24705882);stroke-width:.09525;stroke-miterlimit:41.994751"/><path d="M979.11285 171.70718A.47625 .47625 0 00978.16035 171.70718A.47625 .47625 0 00979.11285 171.70718z" fill="rgba(72,0,178,.24705882)"/><path d="M271.3863 446.75108A.47625 .47625 0 00270.4338 446.75108A.47625 .47625 0 00271.3863 446.75108z" fill="rgba(72,0,178,.24705882)"/><path d="M272.90077 477.8883A.47625 .47625 0 00271.94827 477.8883A.47625 .47625 0 00272.90077 477.8883z" fill="rgba(72,0,178,.24705882)"/><path d="M936.77422 278.0538H949.96635V264.47115H936.77422z" style="fill:rgba(72,0,178,.24705882);stroke:rgba(72,0,178,.24705882);stroke-width:.09525;stroke-miterlimit:41.994751"/><path d="M943.8513 271.26248A.47625 .47625 0 00942.8988 271.26248A.47625 .47625 0 00943.8513 271.26248z" fill="rgba(72,0,178,.24705882)"/><path d="M933.98341 110.5662H1004.7827V106.74667H933.98341z" style="fill:rgba(72,0,178,.24705882);stroke:rgba(72,0,178,.24705882);stroke-width:.09525;stroke-miterlimit:41.994751"/><path d="M969.86408 108.65168A.47625 .47625 0 00968.91157 108.65168A.47625 .47625 0 00969.86408 108.65168z" fill="rgba(72,0,178,.24705882)"/><path d="M273.27225 491.51858A.47625 .47625 0 00272.31975 491.51858A.47625 .47625 0 00273.27225 491.51858z" fill="rgba(72,0,178,.24705882)"/><path d="M808.62488 206.9973A.47625 .47625 0 00807.67237 206.9973A.47625 .47625 0 00808.62488 206.9973z" fill="rgba(72,0,178,.24705882)"/><path d="M836.43787 207.1116A.47625 .47625 0 00835.48537 207.1116A.47625 .47625 0 00836.43787 207.1116z" fill="rgba(72,0,178,.24705882)"/><path d="M867.83228 206.2353A.47625 .47625 0 00866.87977 206.2353A.47625 .47625 0 00867.83228 206.2353z" fill="rgba(72,0,178,.24705882)"/><path d="M332.18437 491.48048A.47625 .47625 0 00331.23188 491.48048A.47625 .47625 0 00332.18437 491.48048z" fill="rgba(72,0,178,.24705882)"/><path d="M867.55605 177.11738A.47625 .47625 0 00866.60355 177.11738A.47625 .47625 0 00867.55605 177.11738z" fill="rgba(72,0,178,.24705882)"/><path d="M834.2757 177.36503A.47625 .47625 0 00833.3232 177.36503A.47625 .47625 0 00834.2757 177.36503z" fill="rgba(72,0,178,.24705882)"/><path d="M800.4429 177.70793A.47625 .47625 0 00799.4904 177.70793A.47625 .47625 0 00800.4429 177.70793z" fill="rgba(72,0,178,.24705882)"/><path d="M24.907875 273.50085H38.166694V249.0978H24.907875z" style="fill:rgba(72,0,178,.24705882);stroke:rgba(72,0,178,.24705882);stroke-width:.09525;stroke-miterlimit:41.994751"/><path d="M32.013525 263.09955A.47625 .47625 0 0031.061025 263.09955A.47625 .47625 0 0032.013525 263.09955z" fill="rgba(72,0,178,.24705882)"/><path d="M579.40575 890.12078H609.88575V850.9254H579.40575z" style="fill:rgba(72,0,178,.24705882);stroke:rgba(72,0,178,.24705882);stroke-width:.09525;stroke-miterlimit:41.994751"/><path d="M595.122 869.28008A.47625 .47625 0 00594.1695 869.28008A.47625 .47625 0 00595.122 869.28008z" fill="rgba(72,0,178,.24705882)"/><path d="M236.16285 348.81503A.47625 .47625 0 00235.21035 348.81503A.47625 .47625 0 00236.16285 348.81503z" fill="rgba(72,0,178,.24705882)"/><path d="M968.86395 313.4868H979.68435V308.46713H968.86395z" style="fill:rgba(72,0,178,.24705882);stroke:rgba(72,0,178,.24705882);stroke-width:.09525;stroke-miterlimit:41.994751"/><path d="M974.7504 310.9722A.47625 .47625 0 00973.7979 310.9722A.47625 .47625 0 00974.7504 310.9722z" fill="rgba(72,0,178,.24705882)"/><path d="M768.45795 177.3174A.47625 .47625 0 00767.50545 177.3174A.47625 .47625 0 00768.45795 177.3174z" fill="rgba(72,0,178,.24705882)"/><path d="M612.92422 199.43445A.47625 .47625 0 00611.97172 199.43445A.47625 .47625 0 00612.92422 199.43445z" fill="rgba(72,0,178,.24705882)"/><path d="M627.4308 205.88288A.47625 .47625 0 00626.4783 205.88288A.47625 .47625 0 00627.4308 205.88288z" fill="rgba(72,0,178,.24705882)"/><path d="M649.90028 209.90243A.47625 .47625 0 00648.94777 209.90243A.47625 .47625 0 00649.90028 209.90243z" fill="rgba(72,0,178,.24705882)"/><path d="M672.98888 209.65478A.47625 .47625 0 00672.03637 209.65478A.47625 .47625 0 00672.98888 209.65478z" fill="rgba(72,0,178,.24705882)"/><path d="M710.49833 209.56905A.47625 .47625 0 00709.54582 209.56905A.47625 .47625 0 00710.49833 209.56905z" fill="rgba(72,0,178,.24705882)"/><path d="M740.63543 209.8548A.47625 .47625 0 00739.68292 209.8548A.47625 .47625 0 00740.63543 209.8548z" fill="rgba(72,0,178,.24705882)"/><path d="M760.41885 204.94943A.47625 .47625 0 00759.46635 204.94943A.47625 .47625 0 00760.41885 204.94943z" fill="rgba(72,0,178,.24705882)"/><path d="M758.39955 192.00495A.47625 .47625 0 00757.44705 192.00495A.47625 .47625 0 00758.39955 192.00495z" fill="rgba(72,0,178,.24705882)"/><path d="M38.166675 273.50085H48.644175V248.95493H38.166675z" style="fill:rgba(72,0,178,.24705882);stroke:rgba(72,0,178,.24705882);stroke-width:.09525;stroke-miterlimit:41.994751"/><path d="M43.881675 263.09955A.47625 .47625 0 0042.929175 263.09955A.47625 .47625 0 0043.881675 263.09955z" fill="rgba(72,0,178,.24705882)"/><path d="M112.79505 226.2759H128.27317V209.86433H112.79505z" style="fill:rgba(72,0,178,.24705882);stroke:rgba(72,0,178,.24705882);stroke-width:.09525;stroke-miterlimit:41.994751"/><path d="M121.01512 218.07488A.47625 .47625 0 00120.06262 218.07488A.47625 .47625 0 00121.01512 218.07488z" fill="rgba(72,0,178,.24705882)"/><path d="M128.27317 234.13403H135.1788V226.2759H128.27317z" style="fill:rgba(72,0,178,.24705882);stroke:rgba(72,0,178,.24705882);stroke-width:.09525;stroke-miterlimit:41.994751"/><path d="M132.19747 230.20973A.47625 .47625 0 00131.24498 230.20973A.47625 .47625 0 00132.19747 230.20973z" fill="rgba(72,0,178,.24705882)"/><path d="M756.10402 177.25073A.47625 .47625 0 00755.15152 177.25073A.47625 .47625 0 00756.10402 177.25073z" fill="rgba(72,0,178,.24705882)"/><path d="M740.9688 177.03165A.47625 .47625 0 00740.0163 177.03165A.47625 .47625 0 00740.9688 177.03165z" fill="rgba(72,0,178,.24705882)"/><path d="M709.54583 176.5173A.47625 .47625 0 00708.59332 176.5173A.47625 .47625 0 00709.54583 176.5173z" fill="rgba(72,0,178,.24705882)"/><path d="M679.45635 175.8696A.47625 .47625 0 00678.50385 175.8696A.47625 .47625 0 00679.45635 175.8696z" fill="rgba(72,0,178,.24705882)"/><path d="M656.59635 176.04105A.47625 .47625 0 00655.64385 176.04105A.47625 .47625 0 00656.59635 176.04105z" fill="rgba(72,0,178,.24705882)"/><path d="M.2952843 273.50085H24.907875V256.70827H.2952843z" style="fill:rgba(72,0,178,.24705882);stroke:rgba(72,0,178,.24705882);stroke-width:.09525;stroke-miterlimit:41.994751"/><path d="M13.077825 263.09955A.47625 .47625 0 0012.125325 263.09955A.47625 .47625 0 0013.077825 263.09955z" fill="rgba(72,0,178,.24705882)"/><path d="M18.183225 321.43065A.47625 .47625 0 0017.230725 321.43065A.47625 .47625 0 0018.183225 321.43065z" fill="rgba(72,0,178,.24705882)"/><path d="M609.78098 172.37393A.47625 .47625 0 00608.82847 172.37393A.47625 .47625 0 00609.78098 172.37393z" fill="rgba(72,0,178,.24705882)"/><path d="M592.9122 158.46743A.47625 .47625 0 00591.9597 158.46743A.47625 .47625 0 00592.9122 158.46743z" fill="rgba(72,0,178,.24705882)"/><path d="M48.834675 269.94803H51.64455V245.57355H48.834675z" style="fill:rgba(72,0,178,.24705882);stroke:rgba(72,0,178,.24705882);stroke-width:.09525;stroke-miterlimit:41.994751"/><path d="M50.720625 257.75603A.47625 .47625 0 0049.768125 257.75603A.47625 .47625 0 0050.720625 257.75603z" fill="rgba(72,0,178,.24705882)"/><path d="M96.10725 226.2759H112.79505V209.86433H96.10725z" style="fill:rgba(72,0,178,.24705882);stroke:rgba(72,0,178,.24705882);stroke-width:.09525;stroke-miterlimit:41.994751"/><path d="M104.9274 218.07488A.47625 .47625 0 00103.9749 218.07488A.47625 .47625 0 00104.9274 218.07488z" fill="rgba(72,0,178,.24705882)"/><path d="M956.43383 308.46713H968.86395V298.57065H956.43383z" style="fill:rgba(72,0,178,.24705882);stroke:rgba(72,0,178,.24705882);stroke-width:.09525;stroke-miterlimit:41.994751"/><path d="M963.1299 303.51413A.47625 .47625 0 00962.1774 303.51413A.47625 .47625 0 00963.1299 303.51413z" fill="rgba(72,0,178,.24705882)"/><path d="M583.56817 155.76233A.47625 .47625 0 00582.61567 155.76233A.47625 .47625 0 00583.56817 155.76233z" fill="rgba(72,0,178,.24705882)"/><path d="M573.34785 162.4203A.47625 .47625 0 00572.39535 162.4203A.47625 .47625 0 00573.34785 162.4203z" fill="rgba(72,0,178,.24705882)"/><path d="M273.27225 552.62145A.47625 .47625 0 00272.31975 552.62145A.47625 .47625 0 00273.27225 552.62145z" fill="rgba(72,0,178,.24705882)"/><path d="M193.60515 233.77208A.47625 .47625 0 00192.65265 233.77208A.47625 .47625 0 00193.60515 233.77208z" fill="rgba(72,0,178,.24705882)"/><path d="M52.130325 245.57355H67.808466V228.3333H52.130325z" style="fill:rgba(72,0,178,.24705882);stroke:rgba(72,0,178,.24705882);stroke-width:.09525;stroke-miterlimit:41.994751"/><path d="M60.44565 236.95343A.47625 .47625 0 0059.49315 236.95343A.47625 .47625 0 0060.44565 236.95343z" fill="rgba(72,0,178,.24705882)"/><path d="M107.98492 250.8123H135.1788V234.13403H107.98492z" style="fill:rgba(72,0,178,.24705882);stroke:rgba(72,0,178,.24705882);stroke-width:.09525;stroke-miterlimit:41.994751"/><path d="M122.05335 243.3828A.47625 .47625 0 00121.10085 243.3828A.47625 .47625 0 00122.05335 243.3828z" fill="rgba(72,0,178,.24705882)"/><path d="M83.610431 250.8123H107.98492V234.13403H83.610431z" style="fill:rgba(72,0,178,.24705882);stroke:rgba(72,0,178,.24705882);stroke-width:.09525;stroke-miterlimit:41.994751"/><path d="M96.269175 243.3828A.47625 .47625 0 0095.316675 243.3828A.47625 .47625 0 0096.269175 243.3828z" fill="rgba(72,0,178,.24705882)"/><path d="M550.32592 168.68775A.47625 .47625 0 00549.37342 168.68775A.47625 .47625 0 00550.32592 168.68775z" fill="rgba(72,0,178,.24705882)"/><path d="M724.13813 1051.4552A.47625 .47625 0 00723.18562 1051.4552A.47625 .47625 0 00724.13813 1051.4552z" fill="rgba(72,0,178,.24705882)"/><path d="M516.80745 119.0244A.47625 .47625 0 00515.85495 119.0244A.47625 .47625 0 00516.80745 119.0244z" fill="rgba(72,0,178,.24705882)"/><path d="M480.34575 114.20475A.47625 .47625 0 00479.39325 114.20475A.47625 .47625 0 00480.34575 114.20475z" fill="rgba(72,0,178,.24705882)"/><path d="M435.81637 111.8235A.47625 .47625 0 00434.86387 111.8235A.47625 .47625 0 00435.81637 111.8235z" fill="rgba(72,0,178,.24705882)"/><path d="M434.29237 81.153A.47625 .47625 0 00433.33987 81.153A.47625 .47625 0 00434.29237 81.153z" fill="rgba(72,0,178,.24705882)"/><path d="M488.80395 80.0862A.47625 .47625 0 00487.85145 80.0862A.47625 .47625 0 00488.80395 80.0862z" fill="rgba(72,0,178,.24705882)"/><path d="M518.72198 76.44765A.47625 .47625 0 00517.76947 76.44765A.47625 .47625 0 00518.72198 76.44765z" fill="rgba(72,0,178,.24705882)"/><path d="M519.06488 54.949725A.47625 .47625 0 00518.11237 54.949725A.47625 .47625 0 00519.06488 54.949725z" fill="rgba(72,0,178,.24705882)"/><path d="M520.49363 28.194A.47625 .47625 0 00519.54112 28.194A.47625 .47625 0 00520.49363 28.194z" fill="rgba(72,0,178,.24705882)"/><path d="M513.50228 2.1336A.47625 .47625 0 00512.54977 2.1336A.47625 .47625 0 00513.50228 2.1336z" fill="rgba(72,0,178,.24705882)"/><path d="M488.69917 .47625A.47625 .47625 0 00487.74667 .47625A.47625 .47625 0 00488.69917 .47625z" fill="rgba(72,0,178,.24705882)"/><path d="M463.22932 5.8293A.47625 .47625 0 00462.27682 5.8293A.47625 .47625 0 00463.22932 5.8293z" fill="rgba(72,0,178,.24705882)"/><path d="M479.6409 19.021425A.47625 .47625 0 00478.6884 19.021425A.47625 .47625 0 00479.6409 19.021425z" fill="rgba(72,0,178,.24705882)"/><path d="M52.130325 228.3333H89.801681V211.38833H52.130325z" style="fill:rgba(72,0,178,.24705882);stroke:rgba(72,0,178,.24705882);stroke-width:.09525;stroke-miterlimit:41.994751"/><path d="M60.44565 219.85605A.47625 .47625 0 0059.49315 219.85605A.47625 .47625 0 0060.44565 219.85605z" fill="rgba(72,0,178,.24705882)"/><path d="M472.87815 34.30905A.47625 .47625 0 00471.92565 34.30905A.47625 .47625 0 00472.87815 34.30905z" fill="rgba(72,0,178,.24705882)"/><path d="M432.3969 27.67965A.47625 .47625 0 00431.4444 27.67965A.47625 .47625 0 00432.3969 27.67965z" fill="rgba(72,0,178,.24705882)"/><path d="M412.98495 19.98345A.47625 .47625 0 00412.03245 19.98345A.47625 .47625 0 00412.98495 19.98345z" fill="rgba(72,0,178,.24705882)"/><path d="M211.1502 236.85818A.47625 .47625 0 00210.1977 236.85818A.47625 .47625 0 00211.1502 236.85818z" fill="rgba(72,0,178,.24705882)"/><path d="M74.094975 394.5636H107.6325V365.2647H74.094975z" style="fill:rgba(72,0,178,.24705882);stroke:rgba(72,0,178,.24705882);stroke-width:.09525;stroke-miterlimit:41.994751"/><path d="M91.34475 379.91415A.47625 .47625 0 0090.39225 379.91415A.47625 .47625 0 0091.34475 379.91415z" fill="rgba(72,0,178,.24705882)"/><path d="M410.53702 36.566475A.47625 .47625 0 00409.58452 36.566475A.47625 .47625 0 00410.53702 36.566475z" fill="rgba(72,0,178,.24705882)"/><path d="M389.9916 40.63365A.47625 .47625 0 00389.0391 40.63365A.47625 .47625 0 00389.9916 40.63365z" fill="rgba(72,0,178,.24705882)"/><path d="M386.6007 16.030575A.47625 .47625 0 00385.6482 16.030575A.47625 .47625 0 00386.6007 16.030575z" fill="rgba(72,0,178,.24705882)"/><path d="M353.2632 553.05008A.47625 .47625 0 00352.3107 553.05008A.47625 .47625 0 00353.2632 553.05008z" fill="rgba(72,0,178,.24705882)"/><path d="M933.98341 156.68625H968.24482V110.5662H933.98341z" style="fill:rgba(72,0,178,.24705882);stroke:rgba(72,0,178,.24705882);stroke-width:.09525;stroke-miterlimit:41.994751"/><path d="M951.59513 131.70218A.47625 .47625 0 00950.64262 131.70218A.47625 .47625 0 00951.59513 131.70218z" fill="rgba(72,0,178,.24705882)"/><path d="M967.67333 443.50305A.47625 .47625 0 00966.72082 443.50305A.47625 .47625 0 00967.67333 443.50305z" fill="rgba(72,0,178,.24705882)"/><path d="M274.60575 200.6346A.47625 .47625 0 00273.65325 200.6346A.47625 .47625 0 00274.60575 200.6346z" fill="rgba(72,0,178,.24705882)"/><path d="M272.86267 162.97275A.47625 .47625 0 00271.91017 162.97275A.47625 .47625 0 00272.86267 162.97275z" fill="rgba(72,0,178,.24705882)"/><path d="M275.2725 151.35225A.47625 .47625 0 00274.32 151.35225A.47625 .47625 0 00275.2725 151.35225z" fill="rgba(72,0,178,.24705882)"/><path d="M280.28265 112.00448A.47625 .47625 0 00279.33015 112.00448A.47625 .47625 0 00280.28265 112.00448z" fill="rgba(72,0,178,.24705882)"/><path d="M156.64816 248.4882H170.59275V233.6673H156.64816z" style="fill:rgba(72,0,178,.24705882);stroke:rgba(72,0,178,.24705882);stroke-width:.09525;stroke-miterlimit:41.994751"/><path d="M164.0967 241.07775A.47625 .47625 0 00163.1442 241.07775A.47625 .47625 0 00164.0967 241.07775z" fill="rgba(72,0,178,.24705882)"/><path d="M291.03637 101.22218A.47625 .47625 0 00290.08387 101.22218A.47625 .47625 0 00291.03637 101.22218z" fill="rgba(72,0,178,.24705882)"/><path d="M318.04927 102.7176A.47625 .47625 0 00317.09677 102.7176A.47625 .47625 0 00318.04927 102.7176z" fill="rgba(72,0,178,.24705882)"/><path d="M353.20605 40.3479A.47625 .47625 0 00352.25355 40.3479A.47625 .47625 0 00353.20605 40.3479z" fill="rgba(72,0,178,.24705882)"/><path d="M335.99437 42.662475A.47625 .47625 0 00335.04187 42.662475A.47625 .47625 0 00335.99437 42.662475z" fill="rgba(72,0,178,.24705882)"/><path d="M355.2063 16.221075A.47625 .47625 0 00354.2538 16.221075A.47625 .47625 0 00355.2063 16.221075z" fill="rgba(72,0,178,.24705882)"/><path d="M238.3536 244.21148A.47625 .47625 0 00237.4011 244.21148A.47625 .47625 0 00238.3536 244.21148z" fill="rgba(72,0,178,.24705882)"/><path d="M83.610431 362.81678H107.6325V250.75515H83.610431z" style="fill:rgba(72,0,178,.24705882);stroke:rgba(72,0,178,.24705882);stroke-width:.09525;stroke-miterlimit:41.994751"/><path d="M96.097725 306.7812A.47625 .47625 0 0095.145225 306.7812A.47625 .47625 0 0096.097725 306.7812z" fill="rgba(72,0,178,.24705882)"/><path d="M156.64816 232.93388H170.59275V222.03728H156.64816z" style="fill:rgba(72,0,178,.24705882);stroke:rgba(72,0,178,.24705882);stroke-width:.09525;stroke-miterlimit:41.994751"/><path d="M164.0967 227.48558A.47625 .47625 0 00163.1442 227.48558A.47625 .47625 0 00164.0967 227.48558z" fill="rgba(72,0,178,.24705882)"/><path d="M321.6402 15.916275A.47625 .47625 0 00320.6877 15.916275A.47625 .47625 0 00321.6402 15.916275z" fill="rgba(72,0,178,.24705882)"/><path d="M292.40797 18.297525A.47625 .47625 0 00291.45547 18.297525A.47625 .47625 0 00292.40797 18.297525z" fill="rgba(72,0,178,.24705882)"/><path d="M96.10725 234.13403H128.27317V226.2759H96.10725z" style="fill:rgba(72,0,178,.24705882);stroke:rgba(72,0,178,.24705882);stroke-width:.09525;stroke-miterlimit:41.994751"/><path d="M112.67122 230.20973A.47625 .47625 0 00111.71872 230.20973A.47625 .47625 0 00112.67122 230.20973z" fill="rgba(72,0,178,.24705882)"/><path d="M269.80515 337.566A.47625 .47625 0 00268.85265 337.566A.47625 .47625 0 00269.80515 337.566z" fill="rgba(72,0,178,.24705882)"/><path d="M67.808475 393.6111H73.485375V365.14088H67.808475z" style="fill:rgba(72,0,178,.24705882);stroke:rgba(72,0,178,.24705882);stroke-width:.09525;stroke-miterlimit:41.994751"/><path d="M71.123175 379.37123A.47625 .47625 0 0070.170675 379.37123A.47625 .47625 0 0071.123175 379.37123z" fill="rgba(72,0,178,.24705882)"/><path d="M293.74147 40.281225A.47625 .47625 0 00292.78897 40.281225A.47625 .47625 0 00293.74147 40.281225z" fill="rgba(72,0,178,.24705882)"/><path d="M968.86395 217.86533H980.97975V187.06148H968.86395z" style="fill:rgba(72,0,178,.24705882);stroke:rgba(72,0,178,.24705882);stroke-width:.09525;stroke-miterlimit:41.994751"/><path d="M975.3981 202.4634A.47625 .47625 0 00974.4456 202.4634A.47625 .47625 0 00975.3981 202.4634z" fill="rgba(72,0,178,.24705882)"/><path d="M51.64455 393.6111H67.808466V365.14088H51.64455z" style="fill:rgba(72,0,178,.24705882);stroke:rgba(72,0,178,.24705882);stroke-width:.09525;stroke-miterlimit:41.994751"/><path d="M60.198 379.37123A.47625 .47625 0 0059.2455 379.37123A.47625 .47625 0 0060.198 379.37123z" fill="rgba(72,0,178,.24705882)"/><path d="M936.77422 264.47115H968.86395V156.72435H936.77422z" style="fill:rgba(72,0,178,.24705882);stroke:rgba(72,0,178,.24705882);stroke-width:.09525;stroke-miterlimit:41.994751"/><path d="M953.3001 210.59775A.47625 .47625 0 00952.3476 210.59775A.47625 .47625 0 00953.3001 210.59775z" fill="rgba(72,0,178,.24705882)"/><path d="M51.64455 365.14088H67.808466V354.50145H51.64455z" style="fill:rgba(72,0,178,.24705882);stroke:rgba(72,0,178,.24705882);stroke-width:.09525;stroke-miterlimit:41.994751"/><path d="M60.198 359.8164A.47625 .47625 0 0059.2455 359.8164A.47625 .47625 0 0060.198 359.8164z" fill="rgba(72,0,178,.24705882)"/><path d="M51.64455 354.50145H67.808466V329.7174H51.64455z" style="fill:rgba(72,0,178,.24705882);stroke:rgba(72,0,178,.24705882);stroke-width:.09525;stroke-miterlimit:41.994751"/><path d="M60.198 342.10943A.47625 .47625 0 0059.2455 342.10943A.47625 .47625 0 0060.198 342.10943z" fill="rgba(72,0,178,.24705882)"/><path d="M51.64455 329.7174H67.808466V269.94803H51.64455z" style="fill:rgba(72,0,178,.24705882);stroke:rgba(72,0,178,.24705882);stroke-width:.09525;stroke-miterlimit:41.994751"/><path d="M60.198 299.82795A.47625 .47625 0 0059.2455 299.82795A.47625 .47625 0 0060.198 299.82795z" fill="rgba(72,0,178,.24705882)"/><path d="M949.96635 278.0538H968.86395V264.47115H949.96635z" style="fill:rgba(72,0,178,.24705882);stroke:rgba(72,0,178,.24705882);stroke-width:.09525;stroke-miterlimit:41.994751"/><path d="M959.8914 271.26248A.47625 .47625 0 00958.9389 271.26248A.47625 .47625 0 00959.8914 271.26248z" fill="rgba(72,0,178,.24705882)"/><path d="M51.64455 269.94803H67.808466V245.57355H51.64455z" style="fill:rgba(72,0,178,.24705882);stroke:rgba(72,0,178,.24705882);stroke-width:.09525;stroke-miterlimit:41.994751"/><path d="M60.198 257.75603A.47625 .47625 0 0059.2455 257.75603A.47625 .47625 0 0060.198 257.75603z" fill="rgba(72,0,178,.24705882)"/><path d="M42.3672 283.41638H48.67275V273.50085H42.3672z" style="fill:rgba(72,0,178,.24705882);stroke:rgba(72,0,178,.24705882);stroke-width:.09525;stroke-miterlimit:41.994751"/><path d="M46.2534 278.45385A.47625 .47625 0 0045.3009 278.45385A.47625 .47625 0 0046.2534 278.45385z" fill="rgba(72,0,178,.24705882)"/><path d="M25.269825 283.33065H42.3672V273.50085H25.269825z" style="fill:rgba(72,0,178,.24705882);stroke:rgba(72,0,178,.24705882);stroke-width:.09525;stroke-miterlimit:41.994751"/><path d="M34.299525 278.41575A.47625 .47625 0 0033.347025 278.41575A.47625 .47625 0 0034.299525 278.41575z" fill="rgba(72,0,178,.24705882)"/><path d="M980.97975 217.86533H1006.1257V187.06148H980.97975z" style="fill:rgba(72,0,178,.24705882);stroke:rgba(72,0,178,.24705882);stroke-width:.09525;stroke-miterlimit:41.994751"/><path d="M994.029 202.4634A.47625 .47625 0 00993.0765 202.4634A.47625 .47625 0 00994.029 202.4634z" fill="rgba(72,0,178,.24705882)"/><path d="M949.96635 298.57065H956.43382V278.0538H949.96635z" style="fill:rgba(72,0,178,.24705882);stroke:rgba(72,0,178,.24705882);stroke-width:.09525;stroke-miterlimit:41.994751"/><path d="M953.6811 288.31223A.47625 .47625 0 00952.7286 288.31223A.47625 .47625 0 00953.6811 288.31223z" fill="rgba(72,0,178,.24705882)"/><path d="M42.3672 308.13375H48.67275V283.41638H42.3672z" style="fill:rgba(72,0,178,.24705882);stroke:rgba(72,0,178,.24705882);stroke-width:.09525;stroke-miterlimit:41.994751"/><path d="M46.2534 295.7703A.47625 .47625 0 0045.3009 295.7703A.47625 .47625 0 0046.2534 295.7703z" fill="rgba(72,0,178,.24705882)"/><path d="M278.79675 17.1069A.47625 .47625 0 00277.84425 17.1069A.47625 .47625 0 00278.79675 17.1069z" fill="rgba(72,0,178,.24705882)"/><path d="M279.49207 52.339875A.47625 .47625 0 00278.53957 52.339875A.47625 .47625 0 00279.49207 52.339875z" fill="rgba(72,0,178,.24705882)"/><path d="M267.10005 249.3264A.47625 .47625 0 00266.14755 249.3264A.47625 .47625 0 00267.10005 249.3264z" fill="rgba(72,0,178,.24705882)"/><path d="M266.29995 301.99013A.47625 .47625 0 00265.34745 301.99013A.47625 .47625 0 00266.29995 301.99013z" fill="rgba(72,0,178,.24705882)"/><path d="M956.43383 313.4868H968.86395V308.46713H956.43383z" style="fill:rgba(72,0,178,.24705882);stroke:rgba(72,0,178,.24705882);stroke-width:.09525;stroke-miterlimit:41.994751"/><path d="M963.1299 310.9722A.47625 .47625 0 00962.1774 310.9722A.47625 .47625 0 00963.1299 310.9722z" fill="rgba(72,0,178,.24705882)"/><path d="M48.67275 329.66978H53.111409V309.22913H48.67275z" style="fill:rgba(72,0,178,.24705882);stroke:rgba(72,0,178,.24705882);stroke-width:.09525;stroke-miterlimit:41.994751"/><path d="M51.368325 319.44945A.47625 .47625 0 0050.415825 319.44945A.47625 .47625 0 0051.368325 319.44945z" fill="rgba(72,0,178,.24705882)"/><path d="M42.3672 329.66978H48.67275V308.13375H42.3672z" style="fill:rgba(72,0,178,.24705882);stroke:rgba(72,0,178,.24705882);stroke-width:.09525;stroke-miterlimit:41.994751"/><path d="M46.2534 318.897A.47625 .47625 0 0045.3009 318.897A.47625 .47625 0 0046.2534 318.897z" fill="rgba(72,0,178,.24705882)"/><path d="M28.28925 329.66978H44.06265V309.22913H28.28925z" style="fill:rgba(72,0,178,.24705882);stroke:rgba(72,0,178,.24705882);stroke-width:.09525;stroke-miterlimit:41.994751"/><path d="M36.6522 319.44945A.47625 .47625 0 0035.6997 319.44945A.47625 .47625 0 0036.6522 319.44945z" fill="rgba(72,0,178,.24705882)"/><path d="M956.43383 298.57065H972.8073V278.0538H956.43383z" style="fill:rgba(72,0,178,.24705882);stroke:rgba(72,0,178,.24705882);stroke-width:.09525;stroke-miterlimit:41.994751"/><path d="M965.10158 288.31223A.47625 .47625 0 00964.14907 288.31223A.47625 .47625 0 00965.10158 288.31223z" fill="rgba(72,0,178,.24705882)"/><path d="M283.52115 85.848825A.47625 .47625 0 00282.56865 85.848825A.47625 .47625 0 00283.52115 85.848825z" fill="rgba(72,0,178,.24705882)"/><path d="M330.8985 122.5296A.47625 .47625 0 00329.946 122.5296A.47625 .47625 0 00330.8985 122.5296z" fill="rgba(72,0,178,.24705882)"/><path d="M331.45095 88.287225A.47625 .47625 0 00330.49845 88.287225A.47625 .47625 0 00331.45095 88.287225z" fill="rgba(72,0,178,.24705882)"/><path d="M750.09375 890.12078H787.20315V850.9254H750.09375z" style="fill:rgba(72,0,178,.24705882);stroke:rgba(72,0,178,.24705882);stroke-width:.09525;stroke-miterlimit:41.994751"/><path d="M771.32498 869.28008A.47625 .47625 0 00770.37248 869.28008A.47625 .47625 0 00771.32498 869.28008z" fill="rgba(72,0,178,.24705882)"/><path d="M627.45938 873.9759A.47625 .47625 0 00626.50687 873.9759A.47625 .47625 0 00627.45938 873.9759z" fill="rgba(72,0,178,.24705882)"/><path d="M655.11045 873.15675A.47625 .47625 0 00654.15795 873.15675A.47625 .47625 0 00655.11045 873.15675z" fill="rgba(72,0,178,.24705882)"/><path d="M934.24058 890.12078H963.45375V850.9254H934.24058z" style="fill:rgba(72,0,178,.24705882);stroke:rgba(72,0,178,.24705882);stroke-width:.09525;stroke-miterlimit:41.994751"/><path d="M954.3288 863.37458A.47625 .47625 0 00953.3763 863.37458A.47625 .47625 0 00954.3288 863.37458z" fill="rgba(72,0,178,.24705882)"/><path d="M691.31498 873.45203A.47625 .47625 0 00690.36247 873.45203A.47625 .47625 0 00691.31498 873.45203z" fill="rgba(72,0,178,.24705882)"/><path d="M28.28925 340.93785H53.111409V329.66977H28.28925z" style="fill:rgba(72,0,178,.24705882);stroke:rgba(72,0,178,.24705882);stroke-width:.09525;stroke-miterlimit:41.994751"/><path d="M41.176575 335.29905A.47625 .47625 0 0040.224075 335.29905A.47625 .47625 0 0041.176575 335.29905z" fill="rgba(72,0,178,.24705882)"/><path d="M969.86407 131.70218L978.6366 171.70718" style="fill:none;stroke:rgba(72,0,178,.24705882);stroke-width:.09525;stroke-miterlimit:41.994751"/><path d="M585.50175 875.58563L594.64575 869.28008" style="fill:none;stroke:rgba(72,0,178,.24705882);stroke-width:.09525;stroke-miterlimit:41.994751"/><path d="M951.11888 131.70218H969.86407" style="fill:none;stroke:rgba(72,0,178,.24705882);stroke-width:.09525;stroke-miterlimit:41.994751"/><path d="M964.62532 288.31223H953.20485" style="fill:none;stroke:rgba(72,0,178,.24705882);stroke-width:.09525;stroke-miterlimit:41.994751"/><path d="M964.62532 288.31223L959.41515 271.26248" style="fill:none;stroke:rgba(72,0,178,.24705882);stroke-width:.09525;stroke-miterlimit:41.994751"/><path d="M951.11888 131.70218L969.38783 108.65168" style="fill:none;stroke:rgba(72,0,178,.24705882);stroke-width:.09525;stroke-miterlimit:41.994751"/><path d="M36.17595 319.44945L45.77715 318.897" style="fill:none;stroke:rgba(72,0,178,.24705882);stroke-width:.09525;stroke-miterlimit:41.994751"/><path d="M962.65365 310.9722H974.27415" style="fill:none;stroke:rgba(72,0,178,.24705882);stroke-width:.09525;stroke-miterlimit:41.994751"/><path d="M45.77715 318.897L50.892075 319.44945" style="fill:none;stroke:rgba(72,0,178,.24705882);stroke-width:.09525;stroke-miterlimit:41.994751"/><path d="M45.77715 318.897V295.7703" style="fill:none;stroke:rgba(72,0,178,.24705882);stroke-width:.09525;stroke-miterlimit:41.994751"/><path d="M45.77715 318.897L40.700325 335.29905" style="fill:none;stroke:rgba(72,0,178,.24705882);stroke-width:.09525;stroke-miterlimit:41.994751"/><path d="M962.65365 310.9722V303.51413" style="fill:none;stroke:rgba(72,0,178,.24705882);stroke-width:.09525;stroke-miterlimit:41.994751"/><path d="M50.892075 319.44945L40.700325 335.29905" style="fill:none;stroke:rgba(72,0,178,.24705882);stroke-width:.09525;stroke-miterlimit:41.994751"/><path d="M266.6238 249.3264L237.87735 244.21148" style="fill:none;stroke:rgba(72,0,178,.24705882);stroke-width:.09525;stroke-miterlimit:41.994751"/><path d="M265.8237 301.99013L266.6238 249.3264" style="fill:none;stroke:rgba(72,0,178,.24705882);stroke-width:.09525;stroke-miterlimit:41.994751"/><path d="M272.796 552.62145L352.78695 553.05008" style="fill:none;stroke:rgba(72,0,178,.24705882);stroke-width:.09525;stroke-miterlimit:41.994751"/><path d="M45.77715 295.7703V278.45385" style="fill:none;stroke:rgba(72,0,178,.24705882);stroke-width:.09525;stroke-miterlimit:41.994751"/><path d="M959.41515 271.26248L953.20485 288.31223" style="fill:none;stroke:rgba(72,0,178,.24705882);stroke-width:.09525;stroke-miterlimit:41.994751"/><path d="M959.41515 271.26248L952.82385 210.59775" style="fill:none;stroke:rgba(72,0,178,.24705882);stroke-width:.09525;stroke-miterlimit:41.994751"/><path d="M45.77715 278.45385L43.405425 263.09955" style="fill:none;stroke:rgba(72,0,178,.24705882);stroke-width:.09525;stroke-miterlimit:41.994751"/><path d="M45.77715 278.45385L33.823275 278.41575" style="fill:none;stroke:rgba(72,0,178,.24705882);stroke-width:.09525;stroke-miterlimit:41.994751"/><path d="M12.601575 263.09955H31.537275" style="fill:none;stroke:rgba(72,0,178,.24705882);stroke-width:.09525;stroke-miterlimit:41.994751"/><path d="M59.72175 257.75603L59.9694 236.95343" style="fill:none;stroke:rgba(72,0,178,.24705882);stroke-width:.09525;stroke-miterlimit:41.994751"/><path d="M59.72175 257.75603V299.82795" style="fill:none;stroke:rgba(72,0,178,.24705882);stroke-width:.09525;stroke-miterlimit:41.994751"/><path d="M952.82385 210.59775L951.11888 131.70218" style="fill:none;stroke:rgba(72,0,178,.24705882);stroke-width:.09525;stroke-miterlimit:41.994751"/><path d="M952.82385 210.59775L974.92185 202.4634" style="fill:none;stroke:rgba(72,0,178,.24705882);stroke-width:.09525;stroke-miterlimit:41.994751"/><path d="M59.72175 342.10943V299.82795" style="fill:none;stroke:rgba(72,0,178,.24705882);stroke-width:.09525;stroke-miterlimit:41.994751"/><path d="M59.72175 342.10943L40.700325 335.29905" style="fill:none;stroke:rgba(72,0,178,.24705882);stroke-width:.09525;stroke-miterlimit:41.994751"/><path d="M272.796 491.51858V552.62145" style="fill:none;stroke:rgba(72,0,178,.24705882);stroke-width:.09525;stroke-miterlimit:41.994751"/><path d="M59.72175 359.8164V342.10943" style="fill:none;stroke:rgba(72,0,178,.24705882);stroke-width:.09525;stroke-miterlimit:41.994751"/><path d="M59.72175 359.8164V379.37123" style="fill:none;stroke:rgba(72,0,178,.24705882);stroke-width:.09525;stroke-miterlimit:41.994751"/><path d="M59.72175 359.8164L95.621475 364.03598" style="fill:none;stroke:rgba(72,0,178,.24705882);stroke-width:.09525;stroke-miterlimit:41.994751"/><path d="M974.92185 202.4634H993.55275" style="fill:none;stroke:rgba(72,0,178,.24705882);stroke-width:.09525;stroke-miterlimit:41.994751"/><path d="M59.72175 379.37123H70.646925" style="fill:none;stroke:rgba(72,0,178,.24705882);stroke-width:.09525;stroke-miterlimit:41.994751"/><path d="M112.19497 230.20973H131.72123" style="fill:none;stroke:rgba(72,0,178,.24705882);stroke-width:.09525;stroke-miterlimit:41.994751"/><path d="M112.19497 230.20973L59.9694 219.85605" style="fill:none;stroke:rgba(72,0,178,.24705882);stroke-width:.09525;stroke-miterlimit:41.994751"/><path d="M269.3289 337.566L265.8237 301.99013" style="fill:none;stroke:rgba(72,0,178,.24705882);stroke-width:.09525;stroke-miterlimit:41.994751"/><path d="M237.87735 244.21148L210.67395 236.85818" style="fill:none;stroke:rgba(72,0,178,.24705882);stroke-width:.09525;stroke-miterlimit:41.994751"/><path d="M95.621475 306.7812L95.792925 243.3828" style="fill:none;stroke:rgba(72,0,178,.24705882);stroke-width:.09525;stroke-miterlimit:41.994751"/><path d="M210.67395 236.85818L193.1289 233.77208" style="fill:none;stroke:rgba(72,0,178,.24705882);stroke-width:.09525;stroke-miterlimit:41.994751"/><path d="M90.8685 379.91415L95.621475 364.03598" style="fill:none;stroke:rgba(72,0,178,.24705882);stroke-width:.09525;stroke-miterlimit:41.994751"/><path d="M59.9694 236.95343V219.85605" style="fill:none;stroke:rgba(72,0,178,.24705882);stroke-width:.09525;stroke-miterlimit:41.994751"/><path d="M95.792925 243.3828H121.5771" style="fill:none;stroke:rgba(72,0,178,.24705882);stroke-width:.09525;stroke-miterlimit:41.994751"/><path d="M59.9694 236.95343L31.537275 263.09955" style="fill:none;stroke:rgba(72,0,178,.24705882);stroke-width:.09525;stroke-miterlimit:41.994751"/><path d="M121.5771 243.3828L112.19497 230.20973" style="fill:none;stroke:rgba(72,0,178,.24705882);stroke-width:.09525;stroke-miterlimit:41.994751"/><path d="M50.244375 257.75603H59.72175" style="fill:none;stroke:rgba(72,0,178,.24705882);stroke-width:.09525;stroke-miterlimit:41.994751"/><path d="M962.65365 303.51413L959.41515 271.26248" style="fill:none;stroke:rgba(72,0,178,.24705882);stroke-width:.09525;stroke-miterlimit:41.994751"/><path d="M962.65365 303.51413L964.62532 288.31223" style="fill:none;stroke:rgba(72,0,178,.24705882);stroke-width:.09525;stroke-miterlimit:41.994751"/><path d="M50.244375 257.75603L43.405425 263.09955" style="fill:none;stroke:rgba(72,0,178,.24705882);stroke-width:.09525;stroke-miterlimit:41.994751"/><path d="M104.45115 218.07488L112.19497 230.20973" style="fill:none;stroke:rgba(72,0,178,.24705882);stroke-width:.09525;stroke-miterlimit:41.994751"/><path d="M104.45115 218.07488H120.53887" style="fill:none;stroke:rgba(72,0,178,.24705882);stroke-width:.09525;stroke-miterlimit:41.994751"/><path d="M43.405425 263.09955L33.823275 278.41575" style="fill:none;stroke:rgba(72,0,178,.24705882);stroke-width:.09525;stroke-miterlimit:41.994751"/><path d="M131.72123 230.20973L163.62045 233.30535" style="fill:none;stroke:rgba(72,0,178,.24705882);stroke-width:.09525;stroke-miterlimit:41.994751"/><path d="M131.72123 230.20973L121.5771 243.3828" style="fill:none;stroke:rgba(72,0,178,.24705882);stroke-width:.09525;stroke-miterlimit:41.994751"/><path d="M43.405425 263.09955L59.9694 236.95343" style="fill:none;stroke:rgba(72,0,178,.24705882);stroke-width:.09525;stroke-miterlimit:41.994751"/><path d="M120.53887 218.07488L112.19497 230.20973" style="fill:none;stroke:rgba(72,0,178,.24705882);stroke-width:.09525;stroke-miterlimit:41.994751"/><path d="M272.42452 477.8883L272.796 491.51858" style="fill:none;stroke:rgba(72,0,178,.24705882);stroke-width:.09525;stroke-miterlimit:41.994751"/><path d="M943.37505 271.26248L952.82385 210.59775" style="fill:none;stroke:rgba(72,0,178,.24705882);stroke-width:.09525;stroke-miterlimit:41.994751"/><path d="M270.91005 446.75108L272.42452 477.8883" style="fill:none;stroke:rgba(72,0,178,.24705882);stroke-width:.09525;stroke-miterlimit:41.994751"/><path d="M235.6866 348.81503L269.3289 337.566" style="fill:none;stroke:rgba(72,0,178,.24705882);stroke-width:.09525;stroke-miterlimit:41.994751"/><path d="M31.537275 263.09955H43.405425" style="fill:none;stroke:rgba(72,0,178,.24705882);stroke-width:.09525;stroke-miterlimit:41.994751"/><path d="M594.64575 869.28008H679.98975" style="fill:none;stroke:rgba(72,0,178,.24705882);stroke-width:.09525;stroke-miterlimit:41.994751"/><path d="M594.64575 869.28008V930.61155" style="fill:none;stroke:rgba(72,0,178,.24705882);stroke-width:.09525;stroke-miterlimit:41.994751"/><path d="M943.37505 271.26248H959.41515" style="fill:none;stroke:rgba(72,0,178,.24705882);stroke-width:.09525;stroke-miterlimit:41.994751"/><path d="M679.98975 869.28008H770.84873" style="fill:none;stroke:rgba(72,0,178,.24705882);stroke-width:.09525;stroke-miterlimit:41.994751"/><path d="M268.96695 419.99535L270.91005 446.75108" style="fill:none;stroke:rgba(72,0,178,.24705882);stroke-width:.09525;stroke-miterlimit:41.994751"/><path d="M996.30547 124.2441L969.38783 108.65168" style="fill:none;stroke:rgba(72,0,178,.24705882);stroke-width:.09525;stroke-miterlimit:41.994751"/><path d="M255.14617 397.3449L268.96695 419.99535" style="fill:none;stroke:rgba(72,0,178,.24705882);stroke-width:.09525;stroke-miterlimit:41.994751"/><path d="M969.86407 131.70218L969.38783 108.65168" style="fill:none;stroke:rgba(72,0,178,.24705882);stroke-width:.09525;stroke-miterlimit:41.994751"/><path d="M969.86407 131.70218H979.65577" style="fill:none;stroke:rgba(72,0,178,.24705882);stroke-width:.09525;stroke-miterlimit:41.994751"/><path d="M979.65577 131.70218L969.38783 108.65168" style="fill:none;stroke:rgba(72,0,178,.24705882);stroke-width:.09525;stroke-miterlimit:41.994751"/><path d="M163.62045 233.30535V227.48558" style="fill:none;stroke:rgba(72,0,178,.24705882);stroke-width:.09525;stroke-miterlimit:41.994751"/><path d="M163.62045 233.30535V241.07775" style="fill:none;stroke:rgba(72,0,178,.24705882);stroke-width:.09525;stroke-miterlimit:41.994751"/><path d="M979.65577 131.70218L978.6366 171.70718" style="fill:none;stroke:rgba(72,0,178,.24705882);stroke-width:.09525;stroke-miterlimit:41.994751"/><path d="M226.1235 367.2078L255.14617 397.3449" style="fill:none;stroke:rgba(72,0,178,.24705882);stroke-width:.09525;stroke-miterlimit:41.994751"/><path d="M979.65577 131.70218L996.30547 124.2441" style="fill:none;stroke:rgba(72,0,178,.24705882);stroke-width:.09525;stroke-miterlimit:41.994751"/><path d="M203.3397 356.7684L235.6866 348.81503" style="fill:none;stroke:rgba(72,0,178,.24705882);stroke-width:.09525;stroke-miterlimit:41.994751"/><path d="M203.3397 356.7684L226.1235 367.2078" style="fill:none;stroke:rgba(72,0,178,.24705882);stroke-width:.09525;stroke-miterlimit:41.994751"/><path d="M17.706975 321.43065L40.700325 335.29905" style="fill:none;stroke:rgba(72,0,178,.24705882);stroke-width:.09525;stroke-miterlimit:41.994751"/><path d="M40.700325 335.29905L36.17595 319.44945" style="fill:none;stroke:rgba(72,0,178,.24705882);stroke-width:.09525;stroke-miterlimit:41.994751"/><path d="M953.85255 863.37458H973.08353" style="fill:none;stroke:rgba(72,0,178,.24705882);stroke-width:.09525;stroke-miterlimit:41.994751"/><path d="M95.621475 364.03598L129.44475 356.75888" style="fill:none;stroke:rgba(72,0,178,.24705882);stroke-width:.09525;stroke-miterlimit:41.994751"/><path d="M95.621475 364.03598V306.7812" style="fill:none;stroke:rgba(72,0,178,.24705882);stroke-width:.09525;stroke-miterlimit:41.994751"/><path d="M129.44475 356.75888L154.46692 357.93045" style="fill:none;stroke:rgba(72,0,178,.24705882);stroke-width:.09525;stroke-miterlimit:41.994751"/><path d="M967.06372 374.53253L967.19708 443.50305" style="fill:none;stroke:rgba(72,0,178,.24705882);stroke-width:.09525;stroke-miterlimit:41.994751"/><path d="M958.49122 403.5171H975.62668V345.54795H958.49122z" style="fill:rgba(72,0,178,.24705882);stroke:rgba(72,0,178,.24705882);stroke-width:.09525;stroke-miterlimit:41.994751"/><path d="M967.53998 374.53253A.47625 .47625 0 00966.58747 374.53253A.47625 .47625 0 00967.53998 374.53253z" fill="rgba(72,0,178,.24705882)"/><path d="M975.6267 403.5171H1005.2495V345.54795H975.6267z" style="fill:rgba(72,0,178,.24705882);stroke:rgba(72,0,178,.24705882);stroke-width:.09525;stroke-miterlimit:41.994751"/><path d="M990.91433 374.53253A.47625 .47625 0 00989.96182 374.53253A.47625 .47625 0 00990.91433 374.53253z" fill="rgba(72,0,178,.24705882)"/><path d="M967.06372 374.53253H990.43808" style="fill:none;stroke:rgba(72,0,178,.24705882);stroke-width:.09525;stroke-miterlimit:41.994751"/><path d="M819.85485 1053.5412A.47625 .47625 0 00818.90235 1053.5412A.47625 .47625 0 00819.85485 1053.5412z" fill="rgba(72,0,182,.24705882)"/><path d="M700.44945 1052.7506A.47625 .47625 0 00699.49695 1052.7506A.47625 .47625 0 00700.44945 1052.7506z" fill="rgba(72,0,182,.24705882)"/><path d="M943.56555 555.62183A.47625 .47625 0 00942.61305 555.62183A.47625 .47625 0 00943.56555 555.62183z" fill="rgba(72,0,182,.24705882)"/><path d="M593.79803 970.03553A.47625 .47625 0 00592.84552 970.03553A.47625 .47625 0 00593.79803 970.03553z" fill="rgba(72,0,182,.24705882)"/><path d="M915.37155 578.57708L943.0893 555.62183" style="fill:none;stroke:rgba(72,0,182,.24705882);stroke-width:.09525;stroke-miterlimit:41.994751"/><path d="M915.8478 578.57708A.47625 .47625 0 00914.8953 578.57708A.47625 .47625 0 00915.8478 578.57708z" fill="rgba(72,0,182,.24705882)"/><path d="M878.15738 583.78725L915.37155 578.57708" style="fill:none;stroke:rgba(72,0,182,.24705882);stroke-width:.09525;stroke-miterlimit:41.994751"/><path d="M967.19708 443.50305L954.58597 477.25965" style="fill:none;stroke:rgba(72,0,182,.24705882);stroke-width:.09525;stroke-miterlimit:41.994751"/><path d="M878.63363 583.78725A.47625 .47625 0 00877.68112 583.78725A.47625 .47625 0 00878.63363 583.78725z" fill="rgba(72,0,182,.24705882)"/><path d="M964.62532 288.31223L977.59838 287.63595" style="fill:none;stroke:rgba(72,0,182,.24705882);stroke-width:.09525;stroke-miterlimit:41.994751"/><path d="M952.82385 210.59775L974.95995 248.12625" style="fill:none;stroke:rgba(72,0,182,.24705882);stroke-width:.09525;stroke-miterlimit:41.994751"/><path d="M959.41515 271.26248L974.95995 248.12625" style="fill:none;stroke:rgba(72,0,182,.24705882);stroke-width:.09525;stroke-miterlimit:41.994751"/><path d="M974.95995 248.12625L974.92185 202.4634" style="fill:none;stroke:rgba(72,0,182,.24705882);stroke-width:.09525;stroke-miterlimit:41.994751"/><path d="M943.0893 555.62183L945.0705 516.1026" style="fill:none;stroke:rgba(72,0,182,.24705882);stroke-width:.09525;stroke-miterlimit:41.994751"/><path d="M955.06223 477.25965A.47625 .47625 0 00954.10972 477.25965A.47625 .47625 0 00955.06223 477.25965z" fill="rgba(72,0,182,.24705882)"/><path d="M945.0705 516.1026L954.58597 477.25965" style="fill:none;stroke:rgba(72,0,182,.24705882);stroke-width:.09525;stroke-miterlimit:41.994751"/><path d="M972.8073 298.57065H981.74175V278.0538H972.8073z" style="fill:rgba(72,0,182,.24705882);stroke:rgba(72,0,182,.24705882);stroke-width:.09525;stroke-miterlimit:41.994751"/><path d="M978.07463 287.63595A.47625 .47625 0 00977.12212 287.63595A.47625 .47625 0 00978.07463 287.63595z" fill="rgba(72,0,182,.24705882)"/><path d="M968.86395 278.0538H980.97975V217.86533H968.86395z" style="fill:rgba(72,0,182,.24705882);stroke:rgba(72,0,182,.24705882);stroke-width:.09525;stroke-miterlimit:41.994751"/><path d="M975.4362 248.12625A.47625 .47625 0 00974.4837 248.12625A.47625 .47625 0 00975.4362 248.12625z" fill="rgba(72,0,182,.24705882)"/><path d="M945.54675 516.1026A.47625 .47625 0 00944.59425 516.1026A.47625 .47625 0 00945.54675 516.1026z" fill="rgba(72,0,182,.24705882)"/><path d="M594.64575 930.61155V981.94178" style="fill:none;stroke:rgba(72,0,182,.24705882);stroke-width:.09525;stroke-miterlimit:41.994751"/><path d="M692.30557 1076.8679A.47625 .47625 0 00691.35307 1076.8679A.47625 .47625 0 00692.30557 1076.8679z" fill="rgba(72,0,182,.24705882)"/><path d="M620.78235 990.6A.47625 .47625 0 00619.82985 990.6A.47625 .47625 0 00620.78235 990.6z" fill="rgba(72,0,182,.24705882)"/><path d="M852.7542 858.11678L953.85255 863.37458" style="fill:none;stroke:rgba(72,0,182,.24705882);stroke-width:.09525;stroke-miterlimit:41.994751"/><path d="M852.7542 858.11678L770.84873 869.28008" style="fill:none;stroke:rgba(72,0,182,.24705882);stroke-width:.09525;stroke-miterlimit:41.994751"/><path d="M609.88575 992.79075H715.60372V971.10233H609.88575z" style="fill:rgba(68,0,182,.24705882);stroke:rgba(68,0,182,.24705882);stroke-width:.09525;stroke-miterlimit:41.994751"/><path d="M663.22575 981.94178A.47625 .47625 0 00662.27325 981.94178A.47625 .47625 0 00663.22575 981.94178z" fill="rgba(68,0,182,.24705882)"/><path d="M579.40575 992.79075H609.88575V971.10233H579.40575z" style="fill:rgba(68,0,182,.24705882);stroke:rgba(68,0,182,.24705882);stroke-width:.09525;stroke-miterlimit:41.994751"/><path d="M595.122 981.94178A.47625 .47625 0 00594.1695 981.94178A.47625 .47625 0 00595.122 981.94178z" fill="rgba(68,0,182,.24705882)"/><path d="M594.64575 981.94178H662.7495" style="fill:none;stroke:rgba(68,0,182,.24705882);stroke-width:.09525;stroke-miterlimit:41.994751"/><path d="M352.78695 553.05008L367.4364 551.24985" style="fill:none;stroke:rgba(68,0,186,.24705882);stroke-width:.09525;stroke-miterlimit:41.994751"/><path d="M846.26767 581.73938L878.15738 583.78725" style="fill:none;stroke:rgba(68,0,186,.24705882);stroke-width:.09525;stroke-miterlimit:41.994751"/><path d="M163.62045 233.30535L172.34535 233.5911" style="fill:none;stroke:rgba(68,0,186,.24705882);stroke-width:.09525;stroke-miterlimit:41.994751"/><path d="M175.68862 357.96855L203.3397 356.7684" style="fill:none;stroke:rgba(68,0,186,.24705882);stroke-width:.09525;stroke-miterlimit:41.994751"/><path d="M172.34535 233.5911L193.1289 233.77208" style="fill:none;stroke:rgba(68,0,186,.24705882);stroke-width:.09525;stroke-miterlimit:41.994751"/><path d="M154.46692 357.93045L175.68862 357.96855" style="fill:none;stroke:rgba(68,0,186,.24705882);stroke-width:.09525;stroke-miterlimit:41.994751"/><path d="M787.20315 890.12078H934.24058V850.9254H787.20315z" style="fill:rgba(68,0,186,.24705882);stroke:rgba(68,0,186,.24705882);stroke-width:.09525;stroke-miterlimit:41.994751"/><path d="M853.23045 858.11678A.47625 .47625 0 00852.27795 858.11678A.47625 .47625 0 00853.23045 858.11678z" fill="rgba(68,0,186,.24705882)"/><path d="M962.65365 310.9722L969.57832 316.16333" style="fill:none;stroke:rgba(68,0,186,.24705882);stroke-width:.09525;stroke-miterlimit:41.994751"/><path d="M969.57832 316.16333L967.06372 374.53253" style="fill:none;stroke:rgba(68,0,186,.24705882);stroke-width:.09525;stroke-miterlimit:41.994751"/><path d="M592.62645 989.21888A.47625 .47625 0 00591.67395 989.21888A.47625 .47625 0 00592.62645 989.21888z" fill="rgba(68,0,186,.24705882)"/><path d="M342.08085 72.71385A.47625 .47625 0 00341.12835 72.71385A.47625 .47625 0 00342.08085 72.71385z" fill="rgba(64,0,186,.24705882)"/><path d="M873.62347 198.67245A.47625 .47625 0 00872.67097 198.67245A.47625 .47625 0 00873.62347 198.67245z" fill="rgba(64,0,186,.24705882)"/><path d="M875.28083 187.0329A.47625 .47625 0 00874.32832 187.0329A.47625 .47625 0 00875.28083 187.0329z" fill="rgba(64,0,186,.24705882)"/><path d="M372.8847 22.583775A.47625 .47625 0 00371.9322 22.583775A.47625 .47625 0 00372.8847 22.583775z" fill="rgba(64,0,186,.24705882)"/><path d="M886.3584 197.23418A.47625 .47625 0 00885.4059 197.23418A.47625 .47625 0 00886.3584 197.23418z" fill="rgba(64,0,186,.24705882)"/><path d="M884.35815 187.44248A.47625 .47625 0 00883.40565 187.44248A.47625 .47625 0 00884.35815 187.44248z" fill="rgba(64,0,186,.24705882)"/><path d="M373.09425 33.7185A.47625 .47625 0 00372.14175 33.7185A.47625 .47625 0 00373.09425 33.7185z" fill="rgba(64,0,186,.24705882)"/><path d="M846.74392 581.73938A.47625 .47625 0 00845.79142 581.73938A.47625 .47625 0 00846.74392 581.73938z" fill="rgba(64,0,190,.24705882)"/><path d="M367.91265 551.24985A.47625 .47625 0 00366.96015 551.24985A.47625 .47625 0 00367.91265 551.24985z" fill="rgba(64,0,190,.24705882)"/><path d="M585.60653 163.03943A.47625 .47625 0 00584.65402 163.03943A.47625 .47625 0 00585.60653 163.03943z" fill="rgba(60,0,190,.24705882)"/><path d="M172.8216 233.5911A.47625 .47625 0 00171.8691 233.5911A.47625 .47625 0 00172.8216 233.5911z" fill="rgba(60,0,190,.24705882)"/><path d="M176.16487 357.96855A.47625 .47625 0 00175.21237 357.96855A.47625 .47625 0 00176.16487 357.96855z" fill="rgba(60,0,190,.24705882)"/><path d="M893.12115 184.1754A.47625 .47625 0 00892.16865 184.1754A.47625 .47625 0 00893.12115 184.1754z" fill="rgba(60,0,190,.24705882)"/><path d="M970.05457 316.16333A.47625 .47625 0 00969.10207 316.16333A.47625 .47625 0 00970.05457 316.16333z" fill="rgba(60,0,194,.24705882)"/><path d="M367.4364 551.24985L399.11655 553.07865" style="fill:none;stroke:rgba(60,0,194,.24705882);stroke-width:.09525;stroke-miterlimit:41.994751"/><path d="M347.48152 130.74015A.47625 .47625 0 00346.52902 130.74015A.47625 .47625 0 00347.48152 130.74015z" fill="rgba(60,0,194,.24705882)"/><path d="M361.7214 36.566475A.47625 .47625 0 00360.7689 36.566475A.47625 .47625 0 00361.7214 36.566475z" fill="rgba(60,0,194,.24705882)"/><path d="M556.641 168.01148A.47625 .47625 0 00555.6885 168.01148A.47625 .47625 0 00556.641 168.01148z" fill="rgba(56,0,194,.24705882)"/><path d="M578.1294 168.7449A.47625 .47625 0 00577.1769 168.7449A.47625 .47625 0 00578.1294 168.7449z" fill="rgba(56,0,194,.24705882)"/><path d="M568.01385 169.71645A.47625 .47625 0 00567.06135 169.71645A.47625 .47625 0 00568.01385 169.71645z" fill="rgba(56,0,194,.24705882)"/><path d="M889.35878 195.80543A.47625 .47625 0 00888.40627 195.80543A.47625 .47625 0 00889.35878 195.80543z" fill="rgba(56,0,194,.24705882)"/><path d="M889.03493 188.37593A.47625 .47625 0 00888.08242 188.37593A.47625 .47625 0 00889.03493 188.37593z" fill="rgba(56,0,194,.24705882)"/><path d="M399.5928 553.07865A.47625 .47625 0 00398.6403 553.07865A.47625 .47625 0 00399.5928 553.07865z" fill="rgba(56,0,198,.24705882)"/><path d="M366.24577 25.841325A.47625 .47625 0 00365.29327 25.841325A.47625 .47625 0 00366.24577 25.841325z" fill="rgba(56,0,198,.24705882)"/><path d="M366.30292 31.60395A.47625 .47625 0 00365.35042 31.60395A.47625 .47625 0 00366.30292 31.60395z" fill="rgba(56,0,198,.24705882)"/><path d="M893.22593 173.6979A.47625 .47625 0 00892.27342 173.6979A.47625 .47625 0 00893.22593 173.6979z" fill="rgba(52,0,202,.24705882)"/><path d="M364.9599 18.8595A.47625 .47625 0 00364.0074 18.8595A.47625 .47625 0 00364.9599 18.8595z" fill="rgba(48,0,206,.24705882)"/><path d="M363.78832 38.261925A.47625 .47625 0 00362.83582 38.261925A.47625 .47625 0 00363.78832 38.261925z" fill="rgba(48,0,206,.24705882)"/><path d="M562.95608 170.83088A.47625 .47625 0 00562.00357 170.83088A.47625 .47625 0 00562.95608 170.83088z" fill="rgba(48,0,206,.24705882)"/><path d="M560.42242 165.74453A.47625 .47625 0 00559.46992 165.74453A.47625 .47625 0 00560.42242 165.74453z" fill="rgba(48,0,206,.24705882)"/><path d="M399.11655 553.07865L434.0733 551.64038" style="fill:none;stroke:rgba(44,0,206,.24705882);stroke-width:.09525;stroke-miterlimit:41.994751"/><path d="M365.94097 44.034075A.47625 .47625 0 00364.98847 44.034075A.47625 .47625 0 00365.94097 44.034075z" fill="rgba(44,0,210,.24705882)"/><path d="M366.83632 8.55345A.47625 .47625 0 00365.88382 8.55345A.47625 .47625 0 00366.83632 8.55345z" fill="rgba(44,0,210,.24705882)"/><path d="M366.26482 57.883425A.47625 .47625 0 00365.31232 57.883425A.47625 .47625 0 00366.26482 57.883425z" fill="rgba(44,0,210,.24705882)"/><path d="M364.16932 130.25438A.47625 .47625 0 00363.21682 130.25438A.47625 .47625 0 00364.16932 130.25438z" fill="rgba(44,0,210,.24705882)"/><path d="M364.236 102.8319A.47625 .47625 0 00363.2835 102.8319A.47625 .47625 0 00364.236 102.8319z" fill="rgba(44,0,210,.24705882)"/><path d="M363.88357 73.17105A.47625 .47625 0 00362.93107 73.17105A.47625 .47625 0 00363.88357 73.17105z" fill="rgba(44,0,210,.24705882)"/><path d="M366.32198 65.9511A.47625 .47625 0 00365.36948 65.9511A.47625 .47625 0 00366.32198 65.9511z" fill="rgba(44,0,210,.24705882)"/><path d="M887.96812 177.80318A.47625 .47625 0 00887.01562 177.80318A.47625 .47625 0 00887.96812 177.80318z" fill="rgba(44,0,210,.24705882)"/><path d="M434.54955 551.64038A.47625 .47625 0 00433.59705 551.64038A.47625 .47625 0 00434.54955 551.64038z" fill="rgba(36,0,218,.24705882)"/><path d="M434.0733 551.64038L488.7087 551.98328" style="fill:none;stroke:rgba(24,0,230,.24705882);stroke-width:.09525;stroke-miterlimit:41.994751"/><path d="M489.18495 551.98328A.47625 .47625 0 00488.23245 551.98328A.47625 .47625 0 00489.18495 551.98328z" fill="rgba(12,0,238,.24705882)"/><path d="M494.75707 461.68628A.47625 .47625 0 00493.80457 461.68628A.47625 .47625 0 00494.75707 461.68628z" fill="rgba(12,0,238,.24705882)"/><path d="M492.60442 516.6741A.47625 .47625 0 00491.65193 516.6741A.47625 .47625 0 00492.60442 516.6741z" fill="rgba(12,0,238,.24705882)"/><path d="M488.7087 551.98328L492.12817 516.6741" style="fill:none;stroke:rgba(12,0,238,.24705882);stroke-width:.09525;stroke-miterlimit:41.994751"/><path d="M494.67135 495.7191L494.28082 461.68628" style="fill:none;stroke:rgba(4,0,246,.24705882);stroke-width:.09525;stroke-miterlimit:41.994751"/><path d="M492.12817 516.6741L494.67135 495.7191" style="fill:none;stroke:rgba(4,0,246,.24705882);stroke-width:.09525;stroke-miterlimit:41.994751"/><path d="M495.1476 495.7191A.47625 .47625 0 00494.1951 495.7191A.47625 .47625 0 00495.1476 495.7191z" fill="rgba(0,0,255,.24705882)"/></svg>