<svg version="1.1" width="160.5915mm" height="174.21225mm" viewBox="0 0 160.5915 174.21225" xmlns="http://www.w3.org/2000/svg" xmlns:xlink="http://www.w3.org/1999/xlink"><path d="M99.34575 3.2385H101.25075" style="fill:none;stroke:#f00;stroke-width:.09525;stroke-miterlimit:41.994751"/><path d="M99.34575 3.2385V1.3335" style="fill:none;stroke:#0f0;stroke-width:.09525;stroke-miterlimit:41.994751"/><path d="M1.80975 173.9265H10.106025V149.5425H1.80975z" style="fill:rgba(255,0,0,.24705882);stroke:rgba(255,0,0,.24705882);stroke-width:.09525;stroke-miterlimit:41.994751"/><path d="M6.4389 161.7345A.47625 .47625 0 005.4864 161.7345A.47625 .47625 0 006.4389 161.7345z" fill="rgba(255,0,0,.24705882)"/><path d="M28.575 164.0205H43.815V159.4485H28.575z" style="fill:rgba(255,0,0,.24705882);stroke:rgba(255,0,0,.24705882);stroke-width:.09525;stroke-miterlimit:41.994751"/><path d="M36.8808 161.7345A.47625 .47625 0 0035.9283 161.7345A.47625 .47625 0 0036.8808 161.7345z" fill="rgba(255,0,0,.24705882)"/><path d="M28.575 172.4025H43.815V167.8305H28.575z" style="fill:rgba(255,0,0,.24705882);stroke:rgba(255,0,0,.24705882);stroke-width:.09525;stroke-miterlimit:41.994751"/><path d="M36.67125 170.1165A.47625 .47625 0 0035.71875 170.1165A.47625 .47625 0 0036.67125 170.1165z" fill="rgba(255,0,0,.24705882)"/><path d="M18.61185 164.0205H28.575V159.4485H18.61185z" style="fill:rgba(255,0,0,.24705882);stroke:rgba(255,0,0,.24705882);stroke-width:.09525;stroke-miterlimit:41.994751"/><path d="M24.069675 161.7345A.47625 .47625 0 0023.117175 161.7345A.47625 .47625 0 0024.069675 161.7345z" fill="rgba(255,0,0,.24705882)"/><path d="M10.106025 143.4465H18.61185V128.94945H10.106025z" style="fill:rgba(255,0,0,.24705882);stroke:rgba(255,0,0,.24705882);stroke-width:.09525;stroke-miterlimit:41.994751"/><path d="M14.83995 136.19798A.47625 .47625 0 0013.88745 136.19798A.47625 .47625 0 0014.83995 136.19798z" fill="rgba(255,0,0,.24705882)"/><path d="M10.106025 149.5425H18.61185V143.4465H10.106025z" style="fill:rgba(255,0,0,.24705882);stroke:rgba(255,0,0,.24705882);stroke-width:.09525;stroke-miterlimit:41.994751"/><path d="M14.83995 146.4945A.47625 .47625 0 0013.88745 146.4945A.47625 .47625 0 0014.83995 146.4945z" fill="rgba(255,0,0,.24705882)"/><path d="M18.61185 172.4025H28.575V167.8305H18.61185z" style="fill:rgba(255,0,0,.24705882);stroke:rgba(255,0,0,.24705882);stroke-width:.09525;stroke-miterlimit:41.994751"/><path d="M24.069675 170.1165A.47625 .47625 0 0023.117175 170.1165A.47625 .47625 0 0024.069675 170.1165z" fill="rgba(255,0,0,.24705882)"/><path d="M10.106025 173.9265H18.61185V149.5425H10.106025z" style="fill:rgba(255,0,0,.24705882);stroke:rgba(255,0,0,.24705882);stroke-width:.09525;stroke-miterlimit:41.994751"/><path d="M14.83995 161.7345A.47625 .47625 0 0013.88745 161.7345A.47625 .47625 0 0014.83995 161.7345z" fill="rgba(255,0,0,.24705882)"/><path d="M18.61185 143.4465H26.19375V128.94945H18.61185z" style="fill:rgba(255,0,0,.24705882);stroke:rgba(255,0,0,.24705882);stroke-width:.09525;stroke-miterlimit:41.994751"/><path d="M22.87905 136.19798A.47625 .47625 0 0021.92655 136.19798A.47625 .47625 0 0022.87905 136.19798z" fill="rgba(255,0,0,.24705882)"/><path d="M18.61185 167.8305H28.575V164.0205H18.61185z" style="fill:rgba(255,0,0,.24705882);stroke:rgba(255,0,0,.24705882);stroke-width:.09525;stroke-miterlimit:41.994751"/><path d="M24.069675 165.9255A.47625 .47625 0 0023.117175 165.9255A.47625 .47625 0 0024.069675 165.9255z" fill="rgba(255,0,0,.24705882)"/><path d="M18.61185 173.9265H28.575V172.4025H18.61185z" style="fill:rgba(255,0,0,.24705882);stroke:rgba(255,0,0,.24705882);stroke-width:.09525;stroke-miterlimit:41.994751"/><path d="M24.069675 173.1645A.47625 .47625 0 0023.117175 173.1645A.47625 .47625 0 0024.069675 173.1645z" fill="rgba(255,0,0,.24705882)"/><path d="M18.61185 155.6385H28.575V151.0665H18.61185z" style="fill:rgba(255,0,0,.24705882);stroke:rgba(255,0,0,.24705882);stroke-width:.09525;stroke-miterlimit:41.994751"/><path d="M24.069675 153.3525A.47625 .47625 0 0023.117175 153.3525A.47625 .47625 0 0024.069675 153.3525z" fill="rgba(255,0,0,.24705882)"/><path d="M18.61185 159.4485H28.575V155.6385H18.61185z" style="fill:rgba(255,0,0,.24705882);stroke:rgba(255,0,0,.24705882);stroke-width:.09525;stroke-miterlimit:41.994751"/><path d="M24.069675 157.5435A.47625 .47625 0 0023.117175 157.5435A.47625 .47625 0 0024.069675 157.5435z" fill="rgba(255,0,0,.24705882)"/><path d="M18.61185 151.0665H28.575V149.5425H18.61185z" style="fill:rgba(255,0,0,.24705882);stroke:rgba(255,0,0,.24705882);stroke-width:.09525;stroke-miterlimit:41.994751"/><path d="M24.069675 150.3045A.47625 .47625 0 0023.117175 150.3045A.47625 .47625 0 0024.069675 150.3045z" fill="rgba(255,0,0,.24705882)"/><path d="M23.593425 165.9255V161.7345" style="fill:none;stroke:rgba(255,0,0,.24705882);stroke-width:.09525;stroke-miterlimit:41.994751"/><path d="M23.593425 157.5435V153.3525" style="fill:none;stroke:rgba(255,0,0,.24705882);stroke-width:.09525;stroke-miterlimit:41.994751"/><path d="M23.593425 170.1165H36.195" style="fill:none;stroke:rgba(255,0,0,.24705882);stroke-width:.09525;stroke-miterlimit:41.994751"/><path d="M23.593425 161.7345V157.5435" style="fill:none;stroke:rgba(255,0,0,.24705882);stroke-width:.09525;stroke-miterlimit:41.994751"/><path d="M23.593425 161.7345H36.40455" style="fill:none;stroke:rgba(255,0,0,.24705882);stroke-width:.09525;stroke-miterlimit:41.994751"/><path d="M23.593425 153.3525V150.3045" style="fill:none;stroke:rgba(255,0,0,.24705882);stroke-width:.09525;stroke-miterlimit:41.994751"/><path d="M23.593425 153.3525L14.3637 161.7345" style="fill:none;stroke:rgba(255,0,0,.24705882);stroke-width:.09525;stroke-miterlimit:41.994751"/><path d="M23.593425 157.5435L14.3637 161.7345" style="fill:none;stroke:rgba(255,0,0,.24705882);stroke-width:.09525;stroke-miterlimit:41.994751"/><path d="M23.593425 173.1645V170.1165" style="fill:none;stroke:rgba(255,0,0,.24705882);stroke-width:.09525;stroke-miterlimit:41.994751"/><path d="M23.593425 161.7345H14.3637" style="fill:none;stroke:rgba(255,0,0,.24705882);stroke-width:.09525;stroke-miterlimit:41.994751"/><path d="M23.593425 165.9255L14.3637 161.7345" style="fill:none;stroke:rgba(255,0,0,.24705882);stroke-width:.09525;stroke-miterlimit:41.994751"/><path d="M14.3637 161.7345L23.593425 173.1645" style="fill:none;stroke:rgba(255,0,0,.24705882);stroke-width:.09525;stroke-miterlimit:41.994751"/><path d="M14.3637 161.7345H5.96265" style="fill:none;stroke:rgba(255,0,0,.24705882);stroke-width:.09525;stroke-miterlimit:41.994751"/><path d="M23.593425 150.3045L14.3637 161.7345" style="fill:none;stroke:rgba(255,0,0,.24705882);stroke-width:.09525;stroke-miterlimit:41.994751"/><path d="M14.3637 146.4945V161.7345" style="fill:none;stroke:rgba(255,0,0,.24705882);stroke-width:.09525;stroke-miterlimit:41.994751"/><path d="M23.593425 170.1165L14.3637 161.7345" style="fill:none;stroke:rgba(255,0,0,.24705882);stroke-width:.09525;stroke-miterlimit:41.994751"/><path d="M14.3637 136.19798V146.4945" style="fill:none;stroke:rgba(255,0,0,.24705882);stroke-width:.09525;stroke-miterlimit:41.994751"/><path d="M14.3637 136.19798H22.4028" style="fill:none;stroke:rgba(255,0,0,.24705882);stroke-width:.09525;stroke-miterlimit:41.994751"/><path d="M23.593425 170.1165V165.9255" style="fill:none;stroke:rgba(255,0,0,.24705882);stroke-width:.09525;stroke-miterlimit:41.994751"/><path d="M18.697575 45.92955H27.26055V33.7185H18.697575z" style="fill:rgba(255,0,0,.24705882);stroke:rgba(255,0,0,.24705882);stroke-width:.09525;stroke-miterlimit:41.994751"/><path d="M23.460075 39.824025A.47625 .47625 0 0022.507575 39.824025A.47625 .47625 0 0023.460075 39.824025z" fill="rgba(255,0,0,.24705882)"/><path d="M99.3648 22.8219H160.30575V3.2766H99.3648z" style="fill:rgba(255,0,0,.24705882);stroke:rgba(255,0,0,.24705882);stroke-width:.09525;stroke-miterlimit:41.994751"/><path d="M130.31152 13.04925A.47625 .47625 0 00129.35903 13.04925A.47625 .47625 0 00130.31152 13.04925z" fill="rgba(255,0,0,.24705882)"/><path d="M75.866625 22.8219H78.04785V16.764H75.866625z" style="fill:rgba(255,0,0,.24705882);stroke:rgba(255,0,0,.24705882);stroke-width:.09525;stroke-miterlimit:41.994751"/><path d="M77.43825 19.79295A.47625 .47625 0 0076.48575 19.79295A.47625 .47625 0 0077.43825 19.79295z" fill="rgba(255,0,0,.24705882)"/><path d="M71.91375 22.8219H75.866625V16.764H71.91375z" style="fill:rgba(255,0,0,.24705882);stroke:rgba(255,0,0,.24705882);stroke-width:.09525;stroke-miterlimit:41.994751"/><path d="M74.3712 19.79295A.47625 .47625 0 0073.4187 19.79295A.47625 .47625 0 0074.3712 19.79295z" fill="rgba(255,0,0,.24705882)"/><path d="M71.91375 33.7185H78.04785V22.8219H71.91375z" style="fill:rgba(255,0,0,.24705882);stroke:rgba(255,0,0,.24705882);stroke-width:.09525;stroke-miterlimit:41.994751"/><path d="M75.45705 28.260675A.47625 .47625 0 0074.50455 28.260675A.47625 .47625 0 0075.45705 28.260675z" fill="rgba(255,0,0,.24705882)"/><path d="M9.363075 45.92955H18.697575V33.7185H9.363075z" style="fill:rgba(255,0,0,.24705882);stroke:rgba(255,0,0,.24705882);stroke-width:.09525;stroke-miterlimit:41.994751"/><path d="M14.506575 39.824025A.47625 .47625 0 0013.554075 39.824025A.47625 .47625 0 0014.506575 39.824025z" fill="rgba(255,0,0,.24705882)"/><path d="M9.363075 58.1025H18.697575V52.0065H9.363075z" style="fill:rgba(255,0,0,.24705882);stroke:rgba(255,0,0,.24705882);stroke-width:.09525;stroke-miterlimit:41.994751"/><path d="M14.506575 55.0545A.47625 .47625 0 0013.554075 55.0545A.47625 .47625 0 0014.506575 55.0545z" fill="rgba(255,0,0,.24705882)"/><path d="M78.04785 32.413575H93.40215V22.8219H78.04785z" style="fill:rgba(255,0,0,.24705882);stroke:rgba(255,0,0,.24705882);stroke-width:.09525;stroke-miterlimit:41.994751"/><path d="M86.20125 27.612975A.47625 .47625 0 0085.24875 27.612975A.47625 .47625 0 0086.20125 27.612975z" fill="rgba(255,0,0,.24705882)"/><path d="M71.91375 16.764H75.866625V.28575H71.91375z" style="fill:rgba(255,0,0,.24705882);stroke:rgba(255,0,0,.24705882);stroke-width:.09525;stroke-miterlimit:41.994751"/><path d="M74.3712 8.524875A.47625 .47625 0 0073.4187 8.524875A.47625 .47625 0 0074.3712 8.524875z" fill="rgba(255,0,0,.24705882)"/><path d="M.28575 45.92955H9.363075V33.7185H.28575z" style="fill:rgba(255,0,0,.24705882);stroke:rgba(255,0,0,.24705882);stroke-width:.09525;stroke-miterlimit:41.994751"/><path d="M5.305425 39.824025A.47625 .47625 0 004.352925 39.824025A.47625 .47625 0 005.305425 39.824025z" fill="rgba(255,0,0,.24705882)"/><path d="M71.91375 52.0065H78.04785V33.7185H71.91375z" style="fill:rgba(255,0,0,.24705882);stroke:rgba(255,0,0,.24705882);stroke-width:.09525;stroke-miterlimit:41.994751"/><path d="M75.45705 42.8625A.47625 .47625 0 0074.50455 42.8625A.47625 .47625 0 0075.45705 42.8625z" fill="rgba(255,0,0,.24705882)"/><path d="M99.3648 32.413575H160.30575V22.8219H99.3648z" style="fill:rgba(255,0,0,.24705882);stroke:rgba(255,0,0,.24705882);stroke-width:.09525;stroke-miterlimit:41.994751"/><path d="M130.31152 27.612975A.47625 .47625 0 00129.35903 27.612975A.47625 .47625 0 00130.31152 27.612975z" fill="rgba(255,0,0,.24705882)"/><path d="M56.67375 52.0065H71.91375V33.7185H56.67375z" style="fill:rgba(255,0,0,.24705882);stroke:rgba(255,0,0,.24705882);stroke-width:.09525;stroke-miterlimit:41.994751"/><path d="M64.77 42.8625A.47625 .47625 0 0063.8175 42.8625A.47625 .47625 0 0064.77 42.8625z" fill="rgba(255,0,0,.24705882)"/><path d="M51.2445 52.0065H56.67375V45.92955H51.2445z" style="fill:rgba(255,0,0,.24705882);stroke:rgba(255,0,0,.24705882);stroke-width:.09525;stroke-miterlimit:41.994751"/><path d="M54.435375 48.968025A.47625 .47625 0 0053.482875 48.968025A.47625 .47625 0 0054.435375 48.968025z" fill="rgba(255,0,0,.24705882)"/><path d="M9.363075 52.0065H18.697575V45.92955H9.363075z" style="fill:rgba(255,0,0,.24705882);stroke:rgba(255,0,0,.24705882);stroke-width:.09525;stroke-miterlimit:41.994751"/><path d="M14.506575 48.968025A.47625 .47625 0 0013.554075 48.968025A.47625 .47625 0 0014.506575 48.968025z" fill="rgba(255,0,0,.24705882)"/><path d="M51.2445 45.92955H56.67375V33.7185H51.2445z" style="fill:rgba(255,0,0,.24705882);stroke:rgba(255,0,0,.24705882);stroke-width:.09525;stroke-miterlimit:41.994751"/><path d="M54.435375 39.824025A.47625 .47625 0 0053.482875 39.824025A.47625 .47625 0 0054.435375 39.824025z" fill="rgba(255,0,0,.24705882)"/><path d="M27.26055 45.92955H51.2445V33.7185H27.26055z" style="fill:rgba(255,0,0,.24705882);stroke:rgba(255,0,0,.24705882);stroke-width:.09525;stroke-miterlimit:41.994751"/><path d="M39.728775 39.824025A.47625 .47625 0 0038.776275 39.824025A.47625 .47625 0 0039.728775 39.824025z" fill="rgba(255,0,0,.24705882)"/><path d="M27.26055 33.7185H51.2445V25.16505H27.26055z" style="fill:rgba(255,0,0,.24705882);stroke:rgba(255,0,0,.24705882);stroke-width:.09525;stroke-miterlimit:41.994751"/><path d="M39.728775 29.441775A.47625 .47625 0 0038.776275 29.441775A.47625 .47625 0 0039.728775 29.441775z" fill="rgba(255,0,0,.24705882)"/><path d="M1.80975 52.0065H9.363075V45.92955H1.80975z" style="fill:rgba(255,0,0,.24705882);stroke:rgba(255,0,0,.24705882);stroke-width:.09525;stroke-miterlimit:41.994751"/><path d="M6.067425 48.968025A.47625 .47625 0 005.114925 48.968025A.47625 .47625 0 006.067425 48.968025z" fill="rgba(255,0,0,.24705882)"/><path d="M27.26055 25.16505H51.2445V18.049875H27.26055z" style="fill:rgba(255,0,0,.24705882);stroke:rgba(255,0,0,.24705882);stroke-width:.09525;stroke-miterlimit:41.994751"/><path d="M39.728775 21.6027A.47625 .47625 0 0038.776275 21.6027A.47625 .47625 0 0039.728775 21.6027z" fill="rgba(255,0,0,.24705882)"/><path d="M18.697575 52.0065H27.26055V45.92955H18.697575z" style="fill:rgba(255,0,0,.24705882);stroke:rgba(255,0,0,.24705882);stroke-width:.09525;stroke-miterlimit:41.994751"/><path d="M23.460075 48.968025A.47625 .47625 0 0022.507575 48.968025A.47625 .47625 0 0023.460075 48.968025z" fill="rgba(255,0,0,.24705882)"/><path d="M99.3648 76.380977H160.30575V32.413575H99.3648z" style="fill:rgba(255,0,0,.24705882);stroke:rgba(255,0,0,.24705882);stroke-width:.09525;stroke-miterlimit:41.994751"/><path d="M130.31152 54.397275A.47625 .47625 0 00129.35903 54.397275A.47625 .47625 0 00130.31152 54.397275z" fill="rgba(255,0,0,.24705882)"/><path d="M18.697575 33.7185H27.26055V27.5082H18.697575z" style="fill:rgba(255,0,0,.24705882);stroke:rgba(255,0,0,.24705882);stroke-width:.09525;stroke-miterlimit:41.994751"/><path d="M23.460075 30.61335A.47625 .47625 0 0022.507575 30.61335A.47625 .47625 0 0023.460075 30.61335z" fill="rgba(255,0,0,.24705882)"/><path d="M46.396275 18.04035H56.67375V2.600325H46.396275z" style="fill:rgba(255,0,0,.24705882);stroke:rgba(255,0,0,.24705882);stroke-width:.09525;stroke-miterlimit:41.994751"/><path d="M52.016025 10.3251A.47625 .47625 0 0051.063525 10.3251A.47625 .47625 0 0052.016025 10.3251z" fill="rgba(255,0,0,.24705882)"/><path d="M9.363075 61.998225H18.697575V58.1025H9.363075z" style="fill:rgba(255,0,0,.24705882);stroke:rgba(255,0,0,.24705882);stroke-width:.09525;stroke-miterlimit:41.994751"/><path d="M14.506575 60.0456A.47625 .47625 0 0013.554075 60.0456A.47625 .47625 0 0014.506575 60.0456z" fill="rgba(255,0,0,.24705882)"/><path d="M93.40215 32.413575H99.3648V22.8219H93.40215z" style="fill:rgba(255,0,0,.24705882);stroke:rgba(255,0,0,.24705882);stroke-width:.09525;stroke-miterlimit:41.994751"/><path d="M96.859725 27.612975A.47625 .47625 0 0095.907225 27.612975A.47625 .47625 0 0096.859725 27.612975z" fill="rgba(255,0,0,.24705882)"/><path d="M51.2445 33.7185H56.67375V18.04035H51.2445z" style="fill:rgba(255,0,0,.24705882);stroke:rgba(255,0,0,.24705882);stroke-width:.09525;stroke-miterlimit:41.994751"/><path d="M54.435375 25.879425A.47625 .47625 0 0053.482875 25.879425A.47625 .47625 0 0054.435375 25.879425z" fill="rgba(255,0,0,.24705882)"/><path d="M18.697575 61.998225H22.0218V58.1025H18.697575z" style="fill:rgba(255,0,0,.24705882);stroke:rgba(255,0,0,.24705882);stroke-width:.09525;stroke-miterlimit:41.994751"/><path d="M20.8407 60.0456A.47625 .47625 0 0019.8882 60.0456A.47625 .47625 0 0020.8407 60.0456z" fill="rgba(255,0,0,.24705882)"/><path d="M1.80975 61.998225H9.363075V58.1025H1.80975z" style="fill:rgba(255,0,0,.24705882);stroke:rgba(255,0,0,.24705882);stroke-width:.09525;stroke-miterlimit:41.994751"/><path d="M6.067425 60.0456A.47625 .47625 0 005.114925 60.0456A.47625 .47625 0 006.067425 60.0456z" fill="rgba(255,0,0,.24705882)"/><path d="M78.04785 22.8219H82.01025V16.764H78.04785z" style="fill:rgba(255,0,0,.24705882);stroke:rgba(255,0,0,.24705882);stroke-width:.09525;stroke-miterlimit:41.994751"/><path d="M80.5053 19.79295A.47625 .47625 0 0079.5528 19.79295A.47625 .47625 0 0080.5053 19.79295z" fill="rgba(255,0,0,.24705882)"/><path d="M78.04785 14.19225H82.01025V8.258175H78.04785z" style="fill:rgba(255,0,0,.24705882);stroke:rgba(255,0,0,.24705882);stroke-width:.09525;stroke-miterlimit:41.994751"/><path d="M80.5053 11.22045A.47625 .47625 0 0079.5528 11.22045A.47625 .47625 0 0080.5053 11.22045z" fill="rgba(255,0,0,.24705882)"/><path d="M78.04785 16.764H82.01025V14.19225H78.04785z" style="fill:rgba(255,0,0,.24705882);stroke:rgba(255,0,0,.24705882);stroke-width:.09525;stroke-miterlimit:41.994751"/><path d="M80.5053 15.478125A.47625 .47625 0 0079.5528 15.478125A.47625 .47625 0 0080.5053 15.478125z" fill="rgba(255,0,0,.24705882)"/><path d="M80.02905 19.79295V15.478125" style="fill:none;stroke:rgba(255,0,0,.24705882);stroke-width:.09525;stroke-miterlimit:41.994751"/><path d="M129.83527 27.612975H96.383475" style="fill:none;stroke:rgba(255,0,0,.24705882);stroke-width:.09525;stroke-miterlimit:41.994751"/><path d="M73.89495 19.79295V8.524875" style="fill:none;stroke:rgba(255,0,0,.24705882);stroke-width:.09525;stroke-miterlimit:41.994751"/><path d="M73.89495 19.79295H76.962" style="fill:none;stroke:rgba(255,0,0,.24705882);stroke-width:.09525;stroke-miterlimit:41.994751"/><path d="M22.983825 39.824025H14.030325" style="fill:none;stroke:rgba(255,0,0,.24705882);stroke-width:.09525;stroke-miterlimit:41.994751"/><path d="M74.9808 28.260675L73.89495 19.79295" style="fill:none;stroke:rgba(255,0,0,.24705882);stroke-width:.09525;stroke-miterlimit:41.994751"/><path d="M74.9808 28.260675L85.725 27.612975" style="fill:none;stroke:rgba(255,0,0,.24705882);stroke-width:.09525;stroke-miterlimit:41.994751"/><path d="M74.9808 28.260675V42.8625" style="fill:none;stroke:rgba(255,0,0,.24705882);stroke-width:.09525;stroke-miterlimit:41.994751"/><path d="M22.983825 39.824025V30.61335" style="fill:none;stroke:rgba(255,0,0,.24705882);stroke-width:.09525;stroke-miterlimit:41.994751"/><path d="M85.725 27.612975H96.383475" style="fill:none;stroke:rgba(255,0,0,.24705882);stroke-width:.09525;stroke-miterlimit:41.994751"/><path d="M14.030325 55.0545V48.968025" style="fill:none;stroke:rgba(255,0,0,.24705882);stroke-width:.09525;stroke-miterlimit:41.994751"/><path d="M76.962 19.79295H80.02905" style="fill:none;stroke:rgba(255,0,0,.24705882);stroke-width:.09525;stroke-miterlimit:41.994751"/><path d="M76.962 19.79295L74.9808 28.260675" style="fill:none;stroke:rgba(255,0,0,.24705882);stroke-width:.09525;stroke-miterlimit:41.994751"/><path d="M14.030325 55.0545V60.0456" style="fill:none;stroke:rgba(255,0,0,.24705882);stroke-width:.09525;stroke-miterlimit:41.994751"/><path d="M4.829175 39.824025H14.030325" style="fill:none;stroke:rgba(255,0,0,.24705882);stroke-width:.09525;stroke-miterlimit:41.994751"/><path d="M74.9808 42.8625H64.29375" style="fill:none;stroke:rgba(255,0,0,.24705882);stroke-width:.09525;stroke-miterlimit:41.994751"/><path d="M80.02905 15.478125V11.22045" style="fill:none;stroke:rgba(255,0,0,.24705882);stroke-width:.09525;stroke-miterlimit:41.994751"/><path d="M129.83527 27.612975V13.04925" style="fill:none;stroke:rgba(255,0,0,.24705882);stroke-width:.09525;stroke-miterlimit:41.994751"/><path d="M64.29375 42.8625L53.959125 48.968025" style="fill:none;stroke:rgba(255,0,0,.24705882);stroke-width:.09525;stroke-miterlimit:41.994751"/><path d="M39.252525 29.441775V21.6027" style="fill:none;stroke:rgba(255,0,0,.24705882);stroke-width:.09525;stroke-miterlimit:41.994751"/><path d="M53.959125 48.968025V39.824025" style="fill:none;stroke:rgba(255,0,0,.24705882);stroke-width:.09525;stroke-miterlimit:41.994751"/><path d="M14.030325 48.968025V39.824025" style="fill:none;stroke:rgba(255,0,0,.24705882);stroke-width:.09525;stroke-miterlimit:41.994751"/><path d="M53.959125 39.824025L64.29375 42.8625" style="fill:none;stroke:rgba(255,0,0,.24705882);stroke-width:.09525;stroke-miterlimit:41.994751"/><path d="M53.959125 39.824025H39.252525" style="fill:none;stroke:rgba(255,0,0,.24705882);stroke-width:.09525;stroke-miterlimit:41.994751"/><path d="M14.030325 48.968025H5.591175" style="fill:none;stroke:rgba(255,0,0,.24705882);stroke-width:.09525;stroke-miterlimit:41.994751"/><path d="M39.252525 39.824025V29.441775" style="fill:none;stroke:rgba(255,0,0,.24705882);stroke-width:.09525;stroke-miterlimit:41.994751"/><path d="M53.959125 25.879425L39.252525 21.6027" style="fill:none;stroke:rgba(255,0,0,.24705882);stroke-width:.09525;stroke-miterlimit:41.994751"/><path d="M53.959125 25.879425L39.252525 29.441775" style="fill:none;stroke:rgba(255,0,0,.24705882);stroke-width:.09525;stroke-miterlimit:41.994751"/><path d="M53.959125 25.879425V39.824025" style="fill:none;stroke:rgba(255,0,0,.24705882);stroke-width:.09525;stroke-miterlimit:41.994751"/><path d="M14.030325 60.0456H5.591175" style="fill:none;stroke:rgba(255,0,0,.24705882);stroke-width:.09525;stroke-miterlimit:41.994751"/><path d="M14.030325 60.0456H20.36445" style="fill:none;stroke:rgba(255,0,0,.24705882);stroke-width:.09525;stroke-miterlimit:41.994751"/><path d="M39.252525 39.824025H22.983825" style="fill:none;stroke:rgba(255,0,0,.24705882);stroke-width:.09525;stroke-miterlimit:41.994751"/><path d="M51.539775 10.3251L53.959125 25.879425" style="fill:none;stroke:rgba(255,0,0,.24705882);stroke-width:.09525;stroke-miterlimit:41.994751"/><path d="M22.983825 30.61335L39.252525 29.441775" style="fill:none;stroke:rgba(255,0,0,.24705882);stroke-width:.09525;stroke-miterlimit:41.994751"/><path d="M129.83527 54.397275V27.612975" style="fill:none;stroke:rgba(255,0,0,.24705882);stroke-width:.09525;stroke-miterlimit:41.994751"/><path d="M22.983825 48.968025V39.824025" style="fill:none;stroke:rgba(255,0,0,.24705882);stroke-width:.09525;stroke-miterlimit:41.994751"/><path d="M14.030325 48.968025H22.983825" style="fill:none;stroke:rgba(255,0,0,.24705882);stroke-width:.09525;stroke-miterlimit:41.994751"/><path d="M5.591175 48.968025L4.829175 39.824025" style="fill:none;stroke:rgba(255,0,0,.24705882);stroke-width:.09525;stroke-miterlimit:41.994751"/><path d="M54.0639 144.96098H67.484625V112.95698H54.0639z" style="fill:rgba(255,0,0,.24705882);stroke:rgba(255,0,0,.24705882);stroke-width:.09525;stroke-miterlimit:41.994751"/><path d="M61.255275 128.95898A.47625 .47625 0 0060.302775 128.95898A.47625 .47625 0 0061.255275 128.95898z" fill="rgba(255,0,0,.24705882)"/><path d="M50.606324 140.88428H54.0639V112.95698H50.606324z" style="fill:rgba(255,0,0,.24705882);stroke:rgba(255,0,0,.24705882);stroke-width:.09525;stroke-miterlimit:41.994751"/><path d="M52.8066 126.92063A.47625 .47625 0 0051.8541 126.92063A.47625 .47625 0 0052.8066 126.92063z" fill="rgba(255,0,0,.24705882)"/><path d="M50.606324 143.4465H54.0639V140.88428H50.606324z" style="fill:rgba(255,0,0,.24705882);stroke:rgba(255,0,0,.24705882);stroke-width:.09525;stroke-miterlimit:41.994751"/><path d="M52.8066 142.16063A.47625 .47625 0 0051.8541 142.16063A.47625 .47625 0 0052.8066 142.16063z" fill="rgba(255,0,0,.24705882)"/><path d="M44.891325 143.4465H50.606325V140.88428H44.891325z" style="fill:rgba(255,0,0,.24705882);stroke:rgba(255,0,0,.24705882);stroke-width:.09525;stroke-miterlimit:41.994751"/><path d="M48.225075 142.16063A.47625 .47625 0 0047.272575 142.16063A.47625 .47625 0 0048.225075 142.16063z" fill="rgba(255,0,0,.24705882)"/><path d="M52.33035 142.16063H47.748825" style="fill:none;stroke:rgba(255,0,0,.24705882);stroke-width:.09525;stroke-miterlimit:41.994751"/><path d="M52.33035 126.92063L60.779025 128.95898" style="fill:none;stroke:rgba(255,0,0,.24705882);stroke-width:.09525;stroke-miterlimit:41.994751"/><path d="M52.33035 142.16063L60.779025 128.95898" style="fill:none;stroke:rgba(255,0,0,.24705882);stroke-width:.09525;stroke-miterlimit:41.994751"/><path d="M52.33035 142.16063V126.92063" style="fill:none;stroke:rgba(255,0,0,.24705882);stroke-width:.09525;stroke-miterlimit:41.994751"/><path d="M64.29375 10.3251L73.89495 8.524875" style="fill:none;stroke:rgba(246,0,8,.24705882);stroke-width:.09525;stroke-miterlimit:41.994751"/><path d="M51.539775 10.3251H64.29375" style="fill:none;stroke:rgba(246,0,8,.24705882);stroke-width:.09525;stroke-miterlimit:41.994751"/><path d="M56.67375 18.04035H71.91375V2.600325H56.67375z" style="fill:rgba(238,0,16,.24705882);stroke:rgba(238,0,16,.24705882);stroke-width:.09525;stroke-miterlimit:41.994751"/><path d="M64.77 10.3251A.47625 .47625 0 0063.8175 10.3251A.47625 .47625 0 0064.77 10.3251z" fill="rgba(238,0,16,.24705882)"/><path d="M23.593425 153.3525H39.0906" style="fill:none;stroke:rgba(230,0,20,.24705882);stroke-width:.09525;stroke-miterlimit:41.994751"/><path d="M12.0396 69.43725L20.36445 60.0456" style="fill:none;stroke:rgba(210,0,44,.24705882);stroke-width:.09525;stroke-miterlimit:41.994751"/><path d="M12.0396 69.43725L14.030325 60.0456" style="fill:none;stroke:rgba(210,0,44,.24705882);stroke-width:.09525;stroke-miterlimit:41.994751"/><path d="M12.0396 69.43725L5.591175 60.0456" style="fill:none;stroke:rgba(210,0,44,.24705882);stroke-width:.09525;stroke-miterlimit:41.994751"/><path d="M28.575 155.6385H43.815V151.0665H28.575z" style="fill:rgba(206,0,44,.24705882);stroke:rgba(206,0,44,.24705882);stroke-width:.09525;stroke-miterlimit:41.994751"/><path d="M39.56685 153.3525A.47625 .47625 0 0038.61435 153.3525A.47625 .47625 0 0039.56685 153.3525z" fill="rgba(206,0,44,.24705882)"/><path d="M14.3637 136.19798L14.0208 123.95835" style="fill:none;stroke:rgba(206,0,48,.24705882);stroke-width:.09525;stroke-miterlimit:41.994751"/><path d="M22.4028 136.19798L14.0208 123.95835" style="fill:none;stroke:rgba(206,0,48,.24705882);stroke-width:.09525;stroke-miterlimit:41.994751"/><path d="M1.80975 76.8858H22.0218V61.998225H1.80975z" style="fill:rgba(165,0,89,.24705882);stroke:rgba(165,0,89,.24705882);stroke-width:.09525;stroke-miterlimit:41.994751"/><path d="M12.51585 69.43725A.47625 .47625 0 0011.56335 69.43725A.47625 .47625 0 0012.51585 69.43725z" fill="rgba(165,0,89,.24705882)"/><path d="M1.80975 128.94945H26.19375V118.9863H1.80975z" style="fill:rgba(153,0,101,.24705882);stroke:rgba(153,0,101,.24705882);stroke-width:.09525;stroke-miterlimit:41.994751"/><path d="M14.49705 123.95835A.47625 .47625 0 0013.54455 123.95835A.47625 .47625 0 0014.49705 123.95835z" fill="rgba(153,0,101,.24705882)"/><path d="M14.106525 80.438625L12.0396 69.43725" style="fill:none;stroke:rgba(133,0,121,.24705882);stroke-width:.09525;stroke-miterlimit:41.994751"/><path d="M14.0208 123.95835L18.392775 117.50993" style="fill:none;stroke:rgba(125,0,125,.24705882);stroke-width:.09525;stroke-miterlimit:41.994751"/><path d="M6.200775 117.50993L14.0208 123.95835" style="fill:none;stroke:rgba(125,0,125,.24705882);stroke-width:.09525;stroke-miterlimit:41.994751"/><path d="M1.80975 118.9863H10.5918V116.04308H1.80975z" style="fill:rgba(101,0,153,.24705882);stroke:rgba(101,0,153,.24705882);stroke-width:.09525;stroke-miterlimit:41.994751"/><path d="M6.677025 117.50993A.47625 .47625 0 005.724525 117.50993A.47625 .47625 0 006.677025 117.50993z" fill="rgba(101,0,153,.24705882)"/><path d="M1.80975 83.99145H26.19375V76.8858H1.80975z" style="fill:rgba(101,0,153,.24705882);stroke:rgba(101,0,153,.24705882);stroke-width:.09525;stroke-miterlimit:41.994751"/><path d="M14.582775 80.438625A.47625 .47625 0 0013.630275 80.438625A.47625 .47625 0 0014.582775 80.438625z" fill="rgba(101,0,153,.24705882)"/><path d="M10.5918 87.620475H26.19375V83.99145H10.5918z" style="fill:rgba(101,0,153,.24705882);stroke:rgba(101,0,153,.24705882);stroke-width:.09525;stroke-miterlimit:41.994751"/><path d="M18.869025 85.8012A.47625 .47625 0 0017.916525 85.8012A.47625 .47625 0 0018.869025 85.8012z" fill="rgba(101,0,153,.24705882)"/><path d="M10.5918 118.9863H26.19375V116.04308H10.5918z" style="fill:rgba(101,0,153,.24705882);stroke:rgba(101,0,153,.24705882);stroke-width:.09525;stroke-miterlimit:41.994751"/><path d="M18.869025 117.50993A.47625 .47625 0 0017.916525 117.50993A.47625 .47625 0 0018.869025 117.50993z" fill="rgba(101,0,153,.24705882)"/><path d="M1.80975 87.620475H10.5918V83.99145H1.80975z" style="fill:rgba(101,0,153,.24705882);stroke:rgba(101,0,153,.24705882);stroke-width:.09525;stroke-miterlimit:41.994751"/><path d="M6.677025 85.8012A.47625 .47625 0 005.724525 85.8012A.47625 .47625 0 006.677025 85.8012z" fill="rgba(101,0,153,.24705882)"/><path d="M14.106525 80.438625L6.200775 85.8012" style="fill:none;stroke:rgba(101,0,153,.24705882);stroke-width:.09525;stroke-miterlimit:41.994751"/><path d="M18.392775 85.8012L14.106525 80.438625" style="fill:none;stroke:rgba(101,0,153,.24705882);stroke-width:.09525;stroke-miterlimit:41.994751"/><path d="M18.392775 85.8012H6.200775" style="fill:none;stroke:rgba(101,0,153,.24705882);stroke-width:.09525;stroke-miterlimit:41.994751"/><path d="M18.392775 117.50993H6.200775" style="fill:none;stroke:rgba(101,0,153,.24705882);stroke-width:.09525;stroke-miterlimit:41.994751"/><path d="M18.392775 101.83178V85.8012" style="fill:none;stroke:rgba(48,0,206,.24705882);stroke-width:.09525;stroke-miterlimit:41.994751"/><path d="M18.392775 117.50993V101.83178" style="fill:none;stroke:rgba(48,0,206,.24705882);stroke-width:.09525;stroke-miterlimit:41.994751"/><path d="M10.5918 116.04308H26.19375V87.620475H10.5918z" style="fill:rgba(0,0,255,.24705882);stroke:rgba(0,0,255,.24705882);stroke-width:.09525;stroke-miterlimit:41.994751"/><path d="M18.869025 101.83178A.47625 .47625 0 0017.916525 101.83178A.47625 .47625 0 0018.869025 101.83178z" fill="rgba(0,0,255,.24705882)"/></svg>