<svg version="1.1" width="507.20625mm" height="696.75375mm" viewBox="0 0 507.20625 696.75375" xmlns="http://www.w3.org/2000/svg" xmlns:xlink="http://www.w3.org/1999/xlink"><path d="M274.1295 181.83225H276.0345" style="fill:none;stroke:#f00;stroke-width:.09525;stroke-miterlimit:41.994751"/><path d="M274.1295 181.83225V179.92725" style="fill:none;stroke:#0f0;stroke-width:.09525;stroke-miterlimit:41.994751"/><path d="M316.67768 261.84225H342.24278V237.83925H316.67768z" style="fill:rgba(255,0,0,.24705882);stroke:rgba(255,0,0,.24705882);stroke-width:.09525;stroke-miterlimit:41.994751"/><path d="M325.92645 250.55512A.47625 .47625 0 00324.97395 250.55512A.47625 .47625 0 00325.92645 250.55512z" fill="rgba(255,0,0,.24705882)"/><path d="M410.53702 321.24015H421.31932V300.98047H410.53702z" style="fill:rgba(255,0,0,.24705882);stroke:rgba(255,0,0,.24705882);stroke-width:.09525;stroke-miterlimit:41.994751"/><path d="M417.06165 310.81027A.47625 .47625 0 00416.10915 310.81027A.47625 .47625 0 00417.06165 310.81027z" fill="rgba(255,0,0,.24705882)"/><path d="M345.99563 254.18415L325.4502 250.55512" style="fill:none;stroke:rgba(255,0,0,.24705882);stroke-width:.09525;stroke-miterlimit:41.994751"/><path d="M97.65983 696.52516H128.93992V650.9004H97.65983z" style="fill:rgba(255,0,0,.24705882);stroke:rgba(255,0,0,.24705882);stroke-width:.09525;stroke-miterlimit:41.994751"/><path d="M113.77613 673.71277A.47625 .47625 0 00112.82363 673.71277A.47625 .47625 0 00113.77613 673.71277z" fill="rgba(255,0,0,.24705882)"/><path d="M342.24277 263.73772H349.39605V247.16422H342.24277z" style="fill:rgba(255,0,0,.24705882);stroke:rgba(255,0,0,.24705882);stroke-width:.09525;stroke-miterlimit:41.994751"/><path d="M346.47188 254.18415A.47625 .47625 0 00345.51938 254.18415A.47625 .47625 0 00346.47188 254.18415z" fill="rgba(255,0,0,.24705882)"/><path d="M362.76915 268.6812L345.99563 254.18415" style="fill:none;stroke:rgba(255,0,0,.24705882);stroke-width:.09525;stroke-miterlimit:41.994751"/><path d="M416.5854 310.81027L404.78393 298.40872" style="fill:none;stroke:rgba(255,0,0,.24705882);stroke-width:.09525;stroke-miterlimit:41.994751"/><path d="M376.14225 314.92507H396.98295V258.26085H376.14225z" style="fill:rgba(255,0,0,.24705882);stroke:rgba(255,0,0,.24705882);stroke-width:.09525;stroke-miterlimit:41.994751"/><path d="M387.34365 268.6812A.47625 .47625 0 00386.39115 268.6812A.47625 .47625 0 00387.34365 268.6812z" fill="rgba(255,0,0,.24705882)"/><path d="M349.39605 271.51012H376.14225V258.26085H349.39605z" style="fill:rgba(255,0,0,.24705882);stroke:rgba(255,0,0,.24705882);stroke-width:.09525;stroke-miterlimit:41.994751"/><path d="M363.2454 268.6812A.47625 .47625 0 00362.2929 268.6812A.47625 .47625 0 00363.2454 268.6812z" fill="rgba(255,0,0,.24705882)"/><path d="M386.8674 268.6812H362.76915" style="fill:none;stroke:rgba(255,0,0,.24705882);stroke-width:.09525;stroke-miterlimit:41.994751"/><path d="M404.78393 298.40872L386.8674 268.6812" style="fill:none;stroke:rgba(255,0,0,.24705882);stroke-width:.09525;stroke-miterlimit:41.994751"/><path d="M396.98295 314.92507H410.53703V285.37852H396.98295z" style="fill:rgba(255,0,0,.24705882);stroke:rgba(255,0,0,.24705882);stroke-width:.09525;stroke-miterlimit:41.994751"/><path d="M405.26018 298.40872A.47625 .47625 0 00404.30768 298.40872A.47625 .47625 0 00405.26018 298.40872z" fill="rgba(255,0,0,.24705882)"/><path d="M445.36043 321.24967L416.5854 310.81027" style="fill:none;stroke:rgba(255,0,0,.24705882);stroke-width:.09525;stroke-miterlimit:41.994751"/><path d="M478.28835 310.72455H493.99508V301.16145H478.28835z" style="fill:rgba(250,0,0,.24705882);stroke:rgba(250,0,0,.24705882);stroke-width:.09525;stroke-miterlimit:41.994751"/><path d="M482.92703 306.03825A.47625 .47625 0 00481.97453 306.03825A.47625 .47625 0 00482.92703 306.03825z" fill="rgba(250,0,0,.24705882)"/><path d="M495.4905 296.97045L482.45078 306.03825" style="fill:none;stroke:rgba(250,0,0,.24705882);stroke-width:.09525;stroke-miterlimit:41.994751"/><path d="M490.5375 292.78897H500.4435V232.17187H490.5375z" style="fill:rgba(250,0,0,.24705882);stroke:rgba(250,0,0,.24705882);stroke-width:.09525;stroke-miterlimit:41.994751"/><path d="M495.96675 262.48042A.47625 .47625 0 00495.01425 262.48042A.47625 .47625 0 00495.96675 262.48042z" fill="rgba(250,0,0,.24705882)"/><path d="M481.84118 232.17187H490.5375V222.504H481.84118z" style="fill:rgba(250,0,0,.24705882);stroke:rgba(250,0,0,.24705882);stroke-width:.09525;stroke-miterlimit:41.994751"/><path d="M486.67035 227.33317A.47625 .47625 0 00485.71785 227.33317A.47625 .47625 0 00486.67035 227.33317z" fill="rgba(250,0,0,.24705882)"/><path d="M490.5375 232.17187H500.4435V222.504H490.5375z" style="fill:rgba(250,0,0,.24705882);stroke:rgba(250,0,0,.24705882);stroke-width:.09525;stroke-miterlimit:41.994751"/><path d="M495.96675 227.33317A.47625 .47625 0 00495.01425 227.33317A.47625 .47625 0 00495.96675 227.33317z" fill="rgba(250,0,0,.24705882)"/><path d="M490.5375 301.16145H500.4435V292.78897H490.5375z" style="fill:rgba(250,0,0,.24705882);stroke:rgba(250,0,0,.24705882);stroke-width:.09525;stroke-miterlimit:41.994751"/><path d="M495.96675 296.97045A.47625 .47625 0 00495.01425 296.97045A.47625 .47625 0 00495.96675 296.97045z" fill="rgba(250,0,0,.24705882)"/><path d="M500.4435 232.17187H506.89192V222.504H500.4435z" style="fill:rgba(250,0,0,.24705882);stroke:rgba(250,0,0,.24705882);stroke-width:.09525;stroke-miterlimit:41.994751"/><path d="M504.14873 227.33317A.47625 .47625 0 00503.19623 227.33317A.47625 .47625 0 00504.14873 227.33317z" fill="rgba(250,0,0,.24705882)"/><path d="M481.84118 222.504H506.89193V179.9082H481.84118z" style="fill:rgba(250,0,0,.24705882);stroke:rgba(250,0,0,.24705882);stroke-width:.09525;stroke-miterlimit:41.994751"/><path d="M496.38585 214.53157A.47625 .47625 0 00495.43335 214.53157A.47625 .47625 0 00496.38585 214.53157z" fill="rgba(250,0,0,.24705882)"/><path d="M495.4905 227.33317L495.9096 214.53157" style="fill:none;stroke:rgba(250,0,0,.24705882);stroke-width:.09525;stroke-miterlimit:41.994751"/><path d="M495.4905 262.48042V227.33317" style="fill:none;stroke:rgba(250,0,0,.24705882);stroke-width:.09525;stroke-miterlimit:41.994751"/><path d="M486.1941 227.33317H495.4905" style="fill:none;stroke:rgba(250,0,0,.24705882);stroke-width:.09525;stroke-miterlimit:41.994751"/><path d="M495.4905 227.33317H503.67248" style="fill:none;stroke:rgba(250,0,0,.24705882);stroke-width:.09525;stroke-miterlimit:41.994751"/><path d="M503.67248 227.33317L495.9096 214.53157" style="fill:none;stroke:rgba(250,0,0,.24705882);stroke-width:.09525;stroke-miterlimit:41.994751"/><path d="M495.4905 296.97045V262.48042" style="fill:none;stroke:rgba(250,0,0,.24705882);stroke-width:.09525;stroke-miterlimit:41.994751"/><path d="M495.9096 214.53157L486.1941 227.33317" style="fill:none;stroke:rgba(250,0,0,.24705882);stroke-width:.09525;stroke-miterlimit:41.994751"/><path d="M482.45078 306.03825L472.059 312.71527" style="fill:none;stroke:rgba(250,0,4,.24705882);stroke-width:.09525;stroke-miterlimit:41.994751"/><path d="M421.31932 326.41222H469.392V316.08712H421.31932z" style="fill:rgba(250,0,4,.24705882);stroke:rgba(250,0,4,.24705882);stroke-width:.09525;stroke-miterlimit:41.994751"/><path d="M445.83668 321.24967A.47625 .47625 0 00444.88418 321.24967A.47625 .47625 0 00445.83668 321.24967z" fill="rgba(250,0,4,.24705882)"/><path d="M469.392 326.41222H493.99508V316.08712H469.392z" style="fill:rgba(250,0,4,.24705882);stroke:rgba(250,0,4,.24705882);stroke-width:.09525;stroke-miterlimit:41.994751"/><path d="M472.53525 321.24967A.47625 .47625 0 00471.58275 321.24967A.47625 .47625 0 00472.53525 321.24967z" fill="rgba(250,0,4,.24705882)"/><path d="M472.059 321.24967H445.36043" style="fill:none;stroke:rgba(250,0,4,.24705882);stroke-width:.09525;stroke-miterlimit:41.994751"/><path d="M472.059 312.71527V321.24967" style="fill:none;stroke:rgba(250,0,4,.24705882);stroke-width:.09525;stroke-miterlimit:41.994751"/><path d="M469.392 316.08712H493.99508V310.72455H469.392z" style="fill:rgba(250,0,4,.24705882);stroke:rgba(250,0,4,.24705882);stroke-width:.09525;stroke-miterlimit:41.994751"/><path d="M472.53525 312.71527A.47625 .47625 0 00471.58275 312.71527A.47625 .47625 0 00472.53525 312.71527z" fill="rgba(250,0,4,.24705882)"/><path d="M307.47653 250.10745L325.4502 250.55512" style="fill:none;stroke:rgba(246,0,4,.24705882);stroke-width:.09525;stroke-miterlimit:41.994751"/><path d="M259.6134 250.93612H264.2235V246.94515H259.6134z" style="fill:rgba(242,0,8,.24705882);stroke:rgba(242,0,8,.24705882);stroke-width:.09525;stroke-miterlimit:41.994751"/><path d="M261.87083 249.04065A.47625 .47625 0 00260.91833 249.04065A.47625 .47625 0 00261.87083 249.04065z" fill="rgba(242,0,8,.24705882)"/><path d="M255.66053 250.09792H259.6134V246.94515H255.66053z" style="fill:rgba(242,0,8,.24705882);stroke:rgba(242,0,8,.24705882);stroke-width:.09525;stroke-miterlimit:41.994751"/><path d="M258.45135 248.5644A.47625 .47625 0 00257.49885 248.5644A.47625 .47625 0 00258.45135 248.5644z" fill="rgba(242,0,8,.24705882)"/><path d="M245.8212 250.93612H251.62193V246.94515H245.8212z" style="fill:rgba(242,0,8,.24705882);stroke:rgba(242,0,8,.24705882);stroke-width:.09525;stroke-miterlimit:41.994751"/><path d="M249.3645 247.08802A.47625 .47625 0 00248.412 247.08802A.47625 .47625 0 00249.3645 247.08802z" fill="rgba(242,0,8,.24705882)"/><path d="M151.69515 249.90742H255.66053V246.94515H151.69515z" style="fill:rgba(242,0,8,.24705882);stroke:rgba(242,0,8,.24705882);stroke-width:.09525;stroke-miterlimit:41.994751"/><path d="M254.46037 247.54522A.47625 .47625 0 00253.50788 247.54522A.47625 .47625 0 00254.46037 247.54522z" fill="rgba(242,0,8,.24705882)"/><path d="M253.98413 247.54522L248.88825 247.08802" style="fill:none;stroke:rgba(242,0,8,.24705882);stroke-width:.09525;stroke-miterlimit:41.994751"/><path d="M261.39458 249.04065L257.9751 248.5644" style="fill:none;stroke:rgba(242,0,8,.24705882);stroke-width:.09525;stroke-miterlimit:41.994751"/><path d="M257.9751 248.5644L253.98413 247.54522" style="fill:none;stroke:rgba(242,0,8,.24705882);stroke-width:.09525;stroke-miterlimit:41.994751"/><path d="M269.2146 250.0122L261.39458 249.04065" style="fill:none;stroke:rgba(242,0,12,.24705882);stroke-width:.09525;stroke-miterlimit:41.994751"/><path d="M248.88825 247.08802L242.86845 248.34532" style="fill:none;stroke:rgba(242,0,12,.24705882);stroke-width:.09525;stroke-miterlimit:41.994751"/><path d="M277.57755 248.02147H287.77883V245.22112H277.57755z" style="fill:rgba(242,0,12,.24705882);stroke:rgba(242,0,12,.24705882);stroke-width:.09525;stroke-miterlimit:41.994751"/><path d="M283.1592 247.51665A.47625 .47625 0 00282.2067 247.51665A.47625 .47625 0 00283.1592 247.51665z" fill="rgba(242,0,12,.24705882)"/><path d="M234.5055 260.02297H244.16385V256.46062H234.5055z" style="fill:rgba(242,0,12,.24705882);stroke:rgba(242,0,12,.24705882);stroke-width:.09525;stroke-miterlimit:41.994751"/><path d="M239.81092 258.23227A.47625 .47625 0 00238.85843 258.23227A.47625 .47625 0 00239.81092 258.23227z" fill="rgba(242,0,12,.24705882)"/><path d="M261.14693 253.73647H264.2235V252.00292H261.14693z" style="fill:rgba(242,0,12,.24705882);stroke:rgba(242,0,12,.24705882);stroke-width:.09525;stroke-miterlimit:41.994751"/><path d="M263.16622 252.8697A.47625 .47625 0 00262.21373 252.8697A.47625 .47625 0 00263.16622 252.8697z" fill="rgba(242,0,12,.24705882)"/><path d="M261.14693 255.47955H264.2235V253.73647H261.14693z" style="fill:rgba(242,0,12,.24705882);stroke:rgba(242,0,12,.24705882);stroke-width:.09525;stroke-miterlimit:41.994751"/><path d="M263.16622 254.60325A.47625 .47625 0 00262.21373 254.60325A.47625 .47625 0 00263.16622 254.60325z" fill="rgba(242,0,12,.24705882)"/><path d="M274.2057 248.02147H277.57755V245.22112H274.2057z" style="fill:rgba(242,0,12,.24705882);stroke:rgba(242,0,12,.24705882);stroke-width:.09525;stroke-miterlimit:41.994751"/><path d="M276.36788 247.51665A.47625 .47625 0 00275.41538 247.51665A.47625 .47625 0 00276.36788 247.51665z" fill="rgba(242,0,12,.24705882)"/><path d="M264.2235 253.73647H268.4526V252.00292H264.2235z" style="fill:rgba(242,0,12,.24705882);stroke:rgba(242,0,12,.24705882);stroke-width:.09525;stroke-miterlimit:41.994751"/><path d="M266.8143 252.8697A.47625 .47625 0 00265.8618 252.8697A.47625 .47625 0 00266.8143 252.8697z" fill="rgba(242,0,12,.24705882)"/><path d="M257.23215 257.07975H261.14693V255.47955H257.23215z" style="fill:rgba(242,0,12,.24705882);stroke:rgba(242,0,12,.24705882);stroke-width:.09525;stroke-miterlimit:41.994751"/><path d="M259.66102 256.27965A.47625 .47625 0 00258.70853 256.27965A.47625 .47625 0 00259.66102 256.27965z" fill="rgba(242,0,12,.24705882)"/><path d="M252.58395 257.07975H257.23215V255.47955H252.58395z" style="fill:rgba(242,0,12,.24705882);stroke:rgba(242,0,12,.24705882);stroke-width:.09525;stroke-miterlimit:41.994751"/><path d="M255.3843 256.27965A.47625 .47625 0 00254.4318 256.27965A.47625 .47625 0 00255.3843 256.27965z" fill="rgba(242,0,12,.24705882)"/><path d="M264.2235 252.00292H274.2057V248.02147H264.2235z" style="fill:rgba(242,0,12,.24705882);stroke:rgba(242,0,12,.24705882);stroke-width:.09525;stroke-miterlimit:41.994751"/><path d="M269.69085 250.0122A.47625 .47625 0 00268.73835 250.0122A.47625 .47625 0 00269.69085 250.0122z" fill="rgba(242,0,12,.24705882)"/><path d="M274.2057 252.00292H277.57755V248.02147H274.2057z" style="fill:rgba(242,0,12,.24705882);stroke:rgba(242,0,12,.24705882);stroke-width:.09525;stroke-miterlimit:41.994751"/><path d="M276.36788 250.0122A.47625 .47625 0 00275.41538 250.0122A.47625 .47625 0 00276.36788 250.0122z" fill="rgba(242,0,12,.24705882)"/><path d="M292.04602 242.07787H296.13225V237.83925H292.04602z" style="fill:rgba(242,0,12,.24705882);stroke:rgba(242,0,12,.24705882);stroke-width:.09525;stroke-miterlimit:41.994751"/><path d="M294.57015 239.9538A.47625 .47625 0 00293.61765 239.9538A.47625 .47625 0 00294.57015 239.9538z" fill="rgba(242,0,12,.24705882)"/><path d="M268.4526 253.73647H274.2057V252.00292H268.4526z" style="fill:rgba(242,0,12,.24705882);stroke:rgba(242,0,12,.24705882);stroke-width:.09525;stroke-miterlimit:41.994751"/><path d="M271.8054 252.8697A.47625 .47625 0 00270.8529 252.8697A.47625 .47625 0 00271.8054 252.8697z" fill="rgba(242,0,12,.24705882)"/><path d="M257.23215 255.47955H261.14693V253.73647H257.23215z" style="fill:rgba(242,0,12,.24705882);stroke:rgba(242,0,12,.24705882);stroke-width:.09525;stroke-miterlimit:41.994751"/><path d="M259.66102 254.60325A.47625 .47625 0 00258.70853 254.60325A.47625 .47625 0 00259.66102 254.60325z" fill="rgba(242,0,12,.24705882)"/><path d="M296.13225 261.84225H298.27537V257.81317H296.13225z" style="fill:rgba(242,0,12,.24705882);stroke:rgba(242,0,12,.24705882);stroke-width:.09525;stroke-miterlimit:41.994751"/><path d="M297.68482 259.82295A.47625 .47625 0 00296.73233 259.82295A.47625 .47625 0 00297.68482 259.82295z" fill="rgba(242,0,12,.24705882)"/><path d="M244.16385 260.02297H252.58395V256.46062H244.16385z" style="fill:rgba(242,0,12,.24705882);stroke:rgba(242,0,12,.24705882);stroke-width:.09525;stroke-miterlimit:41.994751"/><path d="M248.85015 258.23227A.47625 .47625 0 00247.89765 258.23227A.47625 .47625 0 00248.85015 258.23227z" fill="rgba(242,0,12,.24705882)"/><path d="M252.58395 258.76567H257.23215V257.07975H252.58395z" style="fill:rgba(242,0,12,.24705882);stroke:rgba(242,0,12,.24705882);stroke-width:.09525;stroke-miterlimit:41.994751"/><path d="M255.3843 257.91795A.47625 .47625 0 00254.4318 257.91795A.47625 .47625 0 00255.3843 257.91795z" fill="rgba(242,0,12,.24705882)"/><path d="M298.27537 261.84225H316.67768V237.83925H298.27537z" style="fill:rgba(242,0,12,.24705882);stroke:rgba(242,0,12,.24705882);stroke-width:.09525;stroke-miterlimit:41.994751"/><path d="M307.95278 250.10745A.47625 .47625 0 00307.00028 250.10745A.47625 .47625 0 00307.95278 250.10745z" fill="rgba(242,0,12,.24705882)"/><path d="M296.13225 257.81317H298.27537V254.30797H296.13225z" style="fill:rgba(242,0,12,.24705882);stroke:rgba(242,0,12,.24705882);stroke-width:.09525;stroke-miterlimit:41.994751"/><path d="M297.68482 256.06057A.47625 .47625 0 00296.73233 256.06057A.47625 .47625 0 00297.68482 256.06057z" fill="rgba(242,0,12,.24705882)"/><path d="M296.13225 245.22112H298.27537V242.07787H296.13225z" style="fill:rgba(242,0,12,.24705882);stroke:rgba(242,0,12,.24705882);stroke-width:.09525;stroke-miterlimit:41.994751"/><path d="M297.68482 243.6495A.47625 .47625 0 00296.73233 243.6495A.47625 .47625 0 00297.68482 243.6495z" fill="rgba(242,0,12,.24705882)"/><path d="M296.13225 254.30797H298.27537V249.81217H296.13225z" style="fill:rgba(242,0,12,.24705882);stroke:rgba(242,0,12,.24705882);stroke-width:.09525;stroke-miterlimit:41.994751"/><path d="M297.68482 252.06007A.47625 .47625 0 00296.73233 252.06007A.47625 .47625 0 00297.68482 252.06007z" fill="rgba(242,0,12,.24705882)"/><path d="M296.13225 249.81217H298.27537V245.22112H296.13225z" style="fill:rgba(242,0,12,.24705882);stroke:rgba(242,0,12,.24705882);stroke-width:.09525;stroke-miterlimit:41.994751"/><path d="M297.68482 247.51665A.47625 .47625 0 00296.73233 247.51665A.47625 .47625 0 00297.68482 247.51665z" fill="rgba(242,0,12,.24705882)"/><path d="M291.32213 257.81317H296.13225V254.30797H291.32213z" style="fill:rgba(242,0,12,.24705882);stroke:rgba(242,0,12,.24705882);stroke-width:.09525;stroke-miterlimit:41.994751"/><path d="M294.2082 256.06057A.47625 .47625 0 00293.2557 256.06057A.47625 .47625 0 00294.2082 256.06057z" fill="rgba(242,0,12,.24705882)"/><path d="M287.77882 248.35485H296.13225V245.22112H287.77882z" style="fill:rgba(242,0,12,.24705882);stroke:rgba(242,0,12,.24705882);stroke-width:.09525;stroke-miterlimit:41.994751"/><path d="M292.43655 247.51665A.47625 .47625 0 00291.48405 247.51665A.47625 .47625 0 00292.43655 247.51665z" fill="rgba(242,0,12,.24705882)"/><path d="M296.13225 242.07787H298.27537V237.83925H296.13225z" style="fill:rgba(242,0,12,.24705882);stroke:rgba(242,0,12,.24705882);stroke-width:.09525;stroke-miterlimit:41.994751"/><path d="M297.68482 239.9538A.47625 .47625 0 00296.73233 239.9538A.47625 .47625 0 00297.68482 239.9538z" fill="rgba(242,0,12,.24705882)"/><path d="M297.20857 256.06057V252.06007" style="fill:none;stroke:rgba(242,0,12,.24705882);stroke-width:.09525;stroke-miterlimit:41.994751"/><path d="M297.20857 247.51665L307.47653 250.10745" style="fill:none;stroke:rgba(242,0,12,.24705882);stroke-width:.09525;stroke-miterlimit:41.994751"/><path d="M248.3739 258.23227L254.90805 257.91795" style="fill:none;stroke:rgba(242,0,12,.24705882);stroke-width:.09525;stroke-miterlimit:41.994751"/><path d="M248.3739 258.23227H239.33468" style="fill:none;stroke:rgba(242,0,12,.24705882);stroke-width:.09525;stroke-miterlimit:41.994751"/><path d="M275.89163 247.51665V250.0122" style="fill:none;stroke:rgba(242,0,12,.24705882);stroke-width:.09525;stroke-miterlimit:41.994751"/><path d="M254.90805 256.27965V257.91795" style="fill:none;stroke:rgba(242,0,12,.24705882);stroke-width:.09525;stroke-miterlimit:41.994751"/><path d="M275.89163 250.0122H269.2146" style="fill:none;stroke:rgba(242,0,12,.24705882);stroke-width:.09525;stroke-miterlimit:41.994751"/><path d="M259.18478 256.27965H254.90805" style="fill:none;stroke:rgba(242,0,12,.24705882);stroke-width:.09525;stroke-miterlimit:41.994751"/><path d="M297.20857 256.06057H293.73195" style="fill:none;stroke:rgba(242,0,12,.24705882);stroke-width:.09525;stroke-miterlimit:41.994751"/><path d="M282.68295 247.51665H275.89163" style="fill:none;stroke:rgba(242,0,12,.24705882);stroke-width:.09525;stroke-miterlimit:41.994751"/><path d="M297.20857 256.06057L307.47653 250.10745" style="fill:none;stroke:rgba(242,0,12,.24705882);stroke-width:.09525;stroke-miterlimit:41.994751"/><path d="M269.2146 250.0122L266.33805 252.8697" style="fill:none;stroke:rgba(242,0,12,.24705882);stroke-width:.09525;stroke-miterlimit:41.994751"/><path d="M266.33805 252.8697H271.32915" style="fill:none;stroke:rgba(242,0,12,.24705882);stroke-width:.09525;stroke-miterlimit:41.994751"/><path d="M297.20857 256.06057V259.82295" style="fill:none;stroke:rgba(242,0,12,.24705882);stroke-width:.09525;stroke-miterlimit:41.994751"/><path d="M297.20857 243.6495V239.9538" style="fill:none;stroke:rgba(242,0,12,.24705882);stroke-width:.09525;stroke-miterlimit:41.994751"/><path d="M266.33805 252.8697H262.68998" style="fill:none;stroke:rgba(242,0,12,.24705882);stroke-width:.09525;stroke-miterlimit:41.994751"/><path d="M297.20857 259.82295L307.47653 250.10745" style="fill:none;stroke:rgba(242,0,12,.24705882);stroke-width:.09525;stroke-miterlimit:41.994751"/><path d="M297.20857 252.06007L307.47653 250.10745" style="fill:none;stroke:rgba(242,0,12,.24705882);stroke-width:.09525;stroke-miterlimit:41.994751"/><path d="M297.20857 252.06007V247.51665" style="fill:none;stroke:rgba(242,0,12,.24705882);stroke-width:.09525;stroke-miterlimit:41.994751"/><path d="M297.20857 243.6495L307.47653 250.10745" style="fill:none;stroke:rgba(242,0,12,.24705882);stroke-width:.09525;stroke-miterlimit:41.994751"/><path d="M297.20857 247.51665V243.6495" style="fill:none;stroke:rgba(242,0,12,.24705882);stroke-width:.09525;stroke-miterlimit:41.994751"/><path d="M297.20857 247.51665H291.9603" style="fill:none;stroke:rgba(242,0,12,.24705882);stroke-width:.09525;stroke-miterlimit:41.994751"/><path d="M271.32915 252.8697L269.2146 250.0122" style="fill:none;stroke:rgba(242,0,12,.24705882);stroke-width:.09525;stroke-miterlimit:41.994751"/><path d="M291.9603 247.51665H282.68295" style="fill:none;stroke:rgba(242,0,12,.24705882);stroke-width:.09525;stroke-miterlimit:41.994751"/><path d="M262.68998 252.8697V254.60325" style="fill:none;stroke:rgba(242,0,12,.24705882);stroke-width:.09525;stroke-miterlimit:41.994751"/><path d="M297.20857 239.9538L307.47653 250.10745" style="fill:none;stroke:rgba(242,0,12,.24705882);stroke-width:.09525;stroke-miterlimit:41.994751"/><path d="M297.20857 239.9538H294.0939" style="fill:none;stroke:rgba(242,0,12,.24705882);stroke-width:.09525;stroke-miterlimit:41.994751"/><path d="M259.18478 254.60325V256.27965" style="fill:none;stroke:rgba(242,0,12,.24705882);stroke-width:.09525;stroke-miterlimit:41.994751"/><path d="M262.68998 254.60325H259.18478" style="fill:none;stroke:rgba(242,0,12,.24705882);stroke-width:.09525;stroke-miterlimit:41.994751"/><path d="M242.32552 250.93612H245.8212V246.94515H242.32552z" style="fill:rgba(238,0,16,.24705882);stroke:rgba(238,0,16,.24705882);stroke-width:.09525;stroke-miterlimit:41.994751"/><path d="M243.3447 248.34532A.47625 .47625 0 00242.3922 248.34532A.47625 .47625 0 00243.3447 248.34532z" fill="rgba(238,0,16,.24705882)"/><path d="M493.9665 144.1323L495.9096 214.53157" style="fill:none;stroke:rgba(125,0,129,.24705882);stroke-width:.09525;stroke-miterlimit:41.994751"/><path d="M306.2478 80.933925H315.62992V73.0377H306.2478z" style="fill:rgba(40,0,214,.24705882);stroke:rgba(40,0,214,.24705882);stroke-width:.09525;stroke-miterlimit:41.994751"/><path d="M311.82945 76.7334A.47625 .47625 0 00310.87695 76.7334A.47625 .47625 0 00311.82945 76.7334z" fill="rgba(40,0,214,.24705882)"/><path d="M182.3466 54.15915H197.60565V47.1297H182.3466z" style="fill:rgba(40,0,214,.24705882);stroke:rgba(40,0,214,.24705882);stroke-width:.09525;stroke-miterlimit:41.994751"/><path d="M191.6811 52.5399A.47625 .47625 0 00190.7286 52.5399A.47625 .47625 0 00191.6811 52.5399z" fill="rgba(40,0,214,.24705882)"/><path d="M311.3532 76.7334L322.6308 79.867125" style="fill:none;stroke:rgba(40,0,214,.24705882);stroke-width:.09525;stroke-miterlimit:41.994751"/><path d="M167.84955 46.834425L191.20485 52.5399" style="fill:none;stroke:rgba(40,0,214,.24705882);stroke-width:.09525;stroke-miterlimit:41.994751"/><path d="M297.80865 70.456425L311.3532 76.7334" style="fill:none;stroke:rgba(40,0,214,.24705882);stroke-width:.09525;stroke-miterlimit:41.994751"/><path d="M191.20485 52.5399L212.04555 56.892825" style="fill:none;stroke:rgba(40,0,214,.24705882);stroke-width:.09525;stroke-miterlimit:41.994751"/><path d="M153.2763 49.12995H182.3466V40.205025H153.2763z" style="fill:rgba(36,0,214,.24705882);stroke:rgba(36,0,214,.24705882);stroke-width:.09525;stroke-miterlimit:41.994751"/><path d="M168.3258 46.834425A.47625 .47625 0 00167.3733 46.834425A.47625 .47625 0 00168.3258 46.834425z" fill="rgba(36,0,214,.24705882)"/><path d="M315.62993 85.220175H333.44168V75.447525H315.62993z" style="fill:rgba(36,0,214,.24705882);stroke:rgba(36,0,214,.24705882);stroke-width:.09525;stroke-miterlimit:41.994751"/><path d="M323.10705 79.867125A.47625 .47625 0 00322.15455 79.867125A.47625 .47625 0 00323.10705 79.867125z" fill="rgba(36,0,214,.24705882)"/><path d="M150.5331 40.224075L167.84955 46.834425" style="fill:none;stroke:rgba(36,0,214,.24705882);stroke-width:.09525;stroke-miterlimit:41.994751"/><path d="M322.6308 79.867125L343.2429 86.04885" style="fill:none;stroke:rgba(36,0,218,.24705882);stroke-width:.09525;stroke-miterlimit:41.994751"/><path d="M229.5906 76.971525H244.34482V74.018775H229.5906z" style="fill:rgba(36,0,218,.24705882);stroke:rgba(36,0,218,.24705882);stroke-width:.09525;stroke-miterlimit:41.994751"/><path d="M237.44872 75.49515A.47625 .47625 0 00236.49623 75.49515A.47625 .47625 0 00237.44872 75.49515z" fill="rgba(36,0,218,.24705882)"/><path d="M244.34483 84.98205H257.49885V76.971525H244.34483z" style="fill:rgba(36,0,218,.24705882);stroke:rgba(36,0,218,.24705882);stroke-width:.09525;stroke-miterlimit:41.994751"/><path d="M251.40285 80.972025A.47625 .47625 0 00250.45035 80.972025A.47625 .47625 0 00251.40285 80.972025z" fill="rgba(36,0,218,.24705882)"/><path d="M229.5906 84.98205H244.34482V76.971525H229.5906z" style="fill:rgba(36,0,218,.24705882);stroke:rgba(36,0,218,.24705882);stroke-width:.09525;stroke-miterlimit:41.994751"/><path d="M237.44872 80.972025A.47625 .47625 0 00236.49623 80.972025A.47625 .47625 0 00237.44872 80.972025z" fill="rgba(36,0,218,.24705882)"/><path d="M257.04165 53.8734H267.14767V51.30165H257.04165z" style="fill:rgba(36,0,218,.24705882);stroke:rgba(36,0,218,.24705882);stroke-width:.09525;stroke-miterlimit:41.994751"/><path d="M262.57567 52.587525A.47625 .47625 0 00261.62318 52.587525A.47625 .47625 0 00262.57567 52.587525z" fill="rgba(36,0,218,.24705882)"/><path d="M244.34483 51.30165H267.14767V37.73805H244.34483z" style="fill:rgba(36,0,218,.24705882);stroke:rgba(36,0,218,.24705882);stroke-width:.09525;stroke-miterlimit:41.994751"/><path d="M256.2225 44.51985A.47625 .47625 0 00255.27 44.51985A.47625 .47625 0 00256.2225 44.51985z" fill="rgba(36,0,218,.24705882)"/><path d="M229.5906 74.018775H244.34482V53.8734H229.5906z" style="fill:rgba(36,0,218,.24705882);stroke:rgba(36,0,218,.24705882);stroke-width:.09525;stroke-miterlimit:41.994751"/><path d="M237.44872 63.941325A.47625 .47625 0 00236.49623 63.941325A.47625 .47625 0 00237.44872 63.941325z" fill="rgba(36,0,218,.24705882)"/><path d="M197.60565 74.018775H229.5906V51.30165H197.60565z" style="fill:rgba(36,0,218,.24705882);stroke:rgba(36,0,218,.24705882);stroke-width:.09525;stroke-miterlimit:41.994751"/><path d="M212.5218 56.892825A.47625 .47625 0 00211.5693 56.892825A.47625 .47625 0 00212.5218 56.892825z" fill="rgba(36,0,218,.24705882)"/><path d="M257.04165 71.8185H267.14767V53.8734H257.04165z" style="fill:rgba(36,0,218,.24705882);stroke:rgba(36,0,218,.24705882);stroke-width:.09525;stroke-miterlimit:41.994751"/><path d="M262.57567 62.84595A.47625 .47625 0 00261.62318 62.84595A.47625 .47625 0 00262.57567 62.84595z" fill="rgba(36,0,218,.24705882)"/><path d="M289.3695 75.790425H306.2478V69.09435H289.3695z" style="fill:rgba(36,0,218,.24705882);stroke:rgba(36,0,218,.24705882);stroke-width:.09525;stroke-miterlimit:41.994751"/><path d="M298.2849 70.456425A.47625 .47625 0 00297.3324 70.456425A.47625 .47625 0 00298.2849 70.456425z" fill="rgba(36,0,218,.24705882)"/><path d="M229.5906 53.8734H244.34482V51.30165H229.5906z" style="fill:rgba(36,0,218,.24705882);stroke:rgba(36,0,218,.24705882);stroke-width:.09525;stroke-miterlimit:41.994751"/><path d="M237.44872 52.587525A.47625 .47625 0 00236.49623 52.587525A.47625 .47625 0 00237.44872 52.587525z" fill="rgba(36,0,218,.24705882)"/><path d="M244.34483 53.8734H257.04165V51.30165H244.34483z" style="fill:rgba(36,0,218,.24705882);stroke:rgba(36,0,218,.24705882);stroke-width:.09525;stroke-miterlimit:41.994751"/><path d="M251.17425 52.587525A.47625 .47625 0 00250.22175 52.587525A.47625 .47625 0 00251.17425 52.587525z" fill="rgba(36,0,218,.24705882)"/><path d="M257.49885 76.971525H266.75715V71.83755H257.49885z" style="fill:rgba(36,0,218,.24705882);stroke:rgba(36,0,218,.24705882);stroke-width:.09525;stroke-miterlimit:41.994751"/><path d="M262.60425 74.152125A.47625 .47625 0 00261.65175 74.152125A.47625 .47625 0 00262.60425 74.152125z" fill="rgba(36,0,218,.24705882)"/><path d="M267.14767 71.8185H289.3695V69.09435H267.14767z" style="fill:rgba(36,0,218,.24705882);stroke:rgba(36,0,218,.24705882);stroke-width:.09525;stroke-miterlimit:41.994751"/><path d="M278.7396 70.456425A.47625 .47625 0 00277.7871 70.456425A.47625 .47625 0 00278.7396 70.456425z" fill="rgba(36,0,218,.24705882)"/><path d="M257.49885 84.98205H266.75715V76.971525H257.49885z" style="fill:rgba(36,0,218,.24705882);stroke:rgba(36,0,218,.24705882);stroke-width:.09525;stroke-miterlimit:41.994751"/><path d="M262.60425 80.972025A.47625 .47625 0 00261.65175 80.972025A.47625 .47625 0 00262.60425 80.972025z" fill="rgba(36,0,218,.24705882)"/><path d="M267.14767 53.4924H289.3695V51.5493H267.14767z" style="fill:rgba(36,0,218,.24705882);stroke:rgba(36,0,218,.24705882);stroke-width:.09525;stroke-miterlimit:41.994751"/><path d="M278.7396 52.52085A.47625 .47625 0 00277.7871 52.52085A.47625 .47625 0 00278.7396 52.52085z" fill="rgba(36,0,218,.24705882)"/><path d="M267.14767 69.09435H289.3695V53.4924H267.14767z" style="fill:rgba(36,0,218,.24705882);stroke:rgba(36,0,218,.24705882);stroke-width:.09525;stroke-miterlimit:41.994751"/><path d="M278.7396 61.293375A.47625 .47625 0 00277.7871 61.293375A.47625 .47625 0 00278.7396 61.293375z" fill="rgba(36,0,218,.24705882)"/><path d="M250.698 52.587525H262.09942" style="fill:none;stroke:rgba(36,0,218,.24705882);stroke-width:.09525;stroke-miterlimit:41.994751"/><path d="M236.97248 75.49515V63.941325" style="fill:none;stroke:rgba(36,0,218,.24705882);stroke-width:.09525;stroke-miterlimit:41.994751"/><path d="M236.97248 52.587525H250.698" style="fill:none;stroke:rgba(36,0,218,.24705882);stroke-width:.09525;stroke-miterlimit:41.994751"/><path d="M250.698 52.587525L255.74625 44.51985" style="fill:none;stroke:rgba(36,0,218,.24705882);stroke-width:.09525;stroke-miterlimit:41.994751"/><path d="M278.26335 61.293375V52.52085" style="fill:none;stroke:rgba(36,0,218,.24705882);stroke-width:.09525;stroke-miterlimit:41.994751"/><path d="M278.26335 61.293375L262.09942 62.84595" style="fill:none;stroke:rgba(36,0,218,.24705882);stroke-width:.09525;stroke-miterlimit:41.994751"/><path d="M236.97248 63.941325V52.587525" style="fill:none;stroke:rgba(36,0,218,.24705882);stroke-width:.09525;stroke-miterlimit:41.994751"/><path d="M262.09942 52.587525L255.74625 44.51985" style="fill:none;stroke:rgba(36,0,218,.24705882);stroke-width:.09525;stroke-miterlimit:41.994751"/><path d="M262.09942 52.587525V62.84595" style="fill:none;stroke:rgba(36,0,218,.24705882);stroke-width:.09525;stroke-miterlimit:41.994751"/><path d="M262.09942 62.84595L262.128 74.152125" style="fill:none;stroke:rgba(36,0,218,.24705882);stroke-width:.09525;stroke-miterlimit:41.994751"/><path d="M236.97248 80.972025V75.49515" style="fill:none;stroke:rgba(36,0,218,.24705882);stroke-width:.09525;stroke-miterlimit:41.994751"/><path d="M212.04555 56.892825L236.97248 63.941325" style="fill:none;stroke:rgba(36,0,218,.24705882);stroke-width:.09525;stroke-miterlimit:41.994751"/><path d="M236.97248 80.972025H250.9266" style="fill:none;stroke:rgba(36,0,218,.24705882);stroke-width:.09525;stroke-miterlimit:41.994751"/><path d="M262.128 80.972025V74.152125" style="fill:none;stroke:rgba(36,0,218,.24705882);stroke-width:.09525;stroke-miterlimit:41.994751"/><path d="M250.9266 80.972025H262.128" style="fill:none;stroke:rgba(36,0,218,.24705882);stroke-width:.09525;stroke-miterlimit:41.994751"/><path d="M278.26335 70.456425H297.80865" style="fill:none;stroke:rgba(36,0,218,.24705882);stroke-width:.09525;stroke-miterlimit:41.994751"/><path d="M278.26335 70.456425V61.293375" style="fill:none;stroke:rgba(36,0,218,.24705882);stroke-width:.09525;stroke-miterlimit:41.994751"/><path d="M236.97248 52.587525L212.04555 56.892825" style="fill:none;stroke:rgba(36,0,218,.24705882);stroke-width:.09525;stroke-miterlimit:41.994751"/><path d="M278.26335 70.456425L262.09942 62.84595" style="fill:none;stroke:rgba(36,0,218,.24705882);stroke-width:.09525;stroke-miterlimit:41.994751"/><path d="M144.92288 44.48175H153.2763V33.404175H144.92288z" style="fill:rgba(36,0,218,.24705882);stroke:rgba(36,0,218,.24705882);stroke-width:.09525;stroke-miterlimit:41.994751"/><path d="M151.00935 40.224075A.47625 .47625 0 00150.05685 40.224075A.47625 .47625 0 00151.00935 40.224075z" fill="rgba(36,0,218,.24705882)"/><path d="M355.25392 88.211025H362.9787V81.7245H355.25392z" style="fill:rgba(36,0,218,.24705882);stroke:rgba(36,0,218,.24705882);stroke-width:.09525;stroke-miterlimit:41.994751"/><path d="M359.59733 86.04885A.47625 .47625 0 00358.64483 86.04885A.47625 .47625 0 00359.59733 86.04885z" fill="rgba(36,0,218,.24705882)"/><path d="M333.44168 88.211025H355.25393V81.7245H333.44168z" style="fill:rgba(36,0,218,.24705882);stroke:rgba(36,0,218,.24705882);stroke-width:.09525;stroke-miterlimit:41.994751"/><path d="M343.71915 86.04885A.47625 .47625 0 00342.76665 86.04885A.47625 .47625 0 00343.71915 86.04885z" fill="rgba(36,0,218,.24705882)"/><path d="M343.74773 93.05925H355.25392V88.211025H343.74773z" style="fill:rgba(36,0,218,.24705882);stroke:rgba(36,0,218,.24705882);stroke-width:.09525;stroke-miterlimit:41.994751"/><path d="M349.97708 90.630375A.47625 .47625 0 00349.02458 90.630375A.47625 .47625 0 00349.97708 90.630375z" fill="rgba(36,0,218,.24705882)"/><path d="M349.50083 90.630375L343.2429 86.04885" style="fill:none;stroke:rgba(36,0,218,.24705882);stroke-width:.09525;stroke-miterlimit:41.994751"/><path d="M343.2429 86.04885H359.12108" style="fill:none;stroke:rgba(36,0,218,.24705882);stroke-width:.09525;stroke-miterlimit:41.994751"/><path d="M139.80795 35.52825L150.5331 40.224075" style="fill:none;stroke:rgba(36,0,218,.24705882);stroke-width:.09525;stroke-miterlimit:41.994751"/><path d="M120.93893 41.24325H134.6835V29.81325H120.93893z" style="fill:rgba(32,0,218,.24705882);stroke:rgba(32,0,218,.24705882);stroke-width:.09525;stroke-miterlimit:41.994751"/><path d="M128.82563 35.52825A.47625 .47625 0 00127.87313 35.52825A.47625 .47625 0 00128.82563 35.52825z" fill="rgba(32,0,218,.24705882)"/><path d="M120.93893 29.81325H134.6835V29.022675H120.93893z" style="fill:rgba(32,0,218,.24705882);stroke:rgba(32,0,218,.24705882);stroke-width:.09525;stroke-miterlimit:41.994751"/><path d="M128.82563 29.4132A.47625 .47625 0 00127.87313 29.4132A.47625 .47625 0 00128.82563 29.4132z" fill="rgba(32,0,218,.24705882)"/><path d="M120.93893 41.605205H134.6835V41.24325H120.93893z" style="fill:rgba(32,0,218,.24705882);stroke:rgba(32,0,218,.24705882);stroke-width:.09525;stroke-miterlimit:41.994751"/><path d="M128.82563 41.424225A.47625 .47625 0 00127.87313 41.424225A.47625 .47625 0 00128.82563 41.424225z" fill="rgba(32,0,218,.24705882)"/><path d="M134.6835 41.24325H144.92288V29.81325H134.6835z" style="fill:rgba(32,0,218,.24705882);stroke:rgba(32,0,218,.24705882);stroke-width:.09525;stroke-miterlimit:41.994751"/><path d="M140.2842 35.52825A.47625 .47625 0 00139.3317 35.52825A.47625 .47625 0 00140.2842 35.52825z" fill="rgba(32,0,218,.24705882)"/><path d="M128.34938 35.52825H139.80795" style="fill:none;stroke:rgba(32,0,218,.24705882);stroke-width:.09525;stroke-miterlimit:41.994751"/><path d="M128.34938 41.424225V35.52825" style="fill:none;stroke:rgba(32,0,218,.24705882);stroke-width:.09525;stroke-miterlimit:41.994751"/><path d="M128.34938 35.52825V29.4132" style="fill:none;stroke:rgba(32,0,218,.24705882);stroke-width:.09525;stroke-miterlimit:41.994751"/><path d="M111.91875 35.68065L128.34938 41.424225" style="fill:none;stroke:rgba(28,0,222,.24705882);stroke-width:.09525;stroke-miterlimit:41.994751"/><path d="M128.34938 29.4132L111.91875 35.68065" style="fill:none;stroke:rgba(28,0,222,.24705882);stroke-width:.09525;stroke-miterlimit:41.994751"/><path d="M359.12108 86.04885L380.41898 86.35365" style="fill:none;stroke:rgba(28,0,222,.24705882);stroke-width:.09525;stroke-miterlimit:41.994751"/><path d="M128.34938 35.52825L111.91875 35.68065" style="fill:none;stroke:rgba(28,0,222,.24705882);stroke-width:.09525;stroke-miterlimit:41.994751"/><path d="M98.002725 41.605205H120.93893V29.022675H98.002725z" style="fill:rgba(24,0,226,.24705882);stroke:rgba(24,0,226,.24705882);stroke-width:.09525;stroke-miterlimit:41.994751"/><path d="M112.395 35.68065A.47625 .47625 0 00111.4425 35.68065A.47625 .47625 0 00112.395 35.68065z" fill="rgba(24,0,226,.24705882)"/><path d="M362.9787 88.211025H397.5354V81.7245H362.9787z" style="fill:rgba(24,0,230,.24705882);stroke:rgba(24,0,230,.24705882);stroke-width:.09525;stroke-miterlimit:41.994751"/><path d="M380.89523 86.35365A.47625 .47625 0 00379.94273 86.35365A.47625 .47625 0 00380.89523 86.35365z" fill="rgba(24,0,230,.24705882)"/><path d="M82.057875 35.594925L111.91875 35.68065" style="fill:none;stroke:rgba(16,0,234,.24705882);stroke-width:.09525;stroke-miterlimit:41.994751"/><path d="M380.41898 86.35365L405.74595 87.220425" style="fill:none;stroke:rgba(16,0,238,.24705882);stroke-width:.09525;stroke-miterlimit:41.994751"/><path d="M63.103125 41.605205H98.002725V29.022675H63.103125z" style="fill:rgba(12,0,242,.24705882);stroke:rgba(12,0,242,.24705882);stroke-width:.09525;stroke-miterlimit:41.994751"/><path d="M82.534125 35.594925A.47625 .47625 0 0081.581625 35.594925A.47625 .47625 0 0082.534125 35.594925z" fill="rgba(12,0,242,.24705882)"/><path d="M397.5354 88.211025H413.28975V81.7245H397.5354z" style="fill:rgba(8,0,242,.24705882);stroke:rgba(8,0,242,.24705882);stroke-width:.09525;stroke-miterlimit:41.994751"/><path d="M406.2222 87.220425A.47625 .47625 0 00405.2697 87.220425A.47625 .47625 0 00406.2222 87.220425z" fill="rgba(8,0,242,.24705882)"/><path d="M405.74595 87.220425L423.54818 87.239475" style="fill:none;stroke:rgba(4,0,246,.24705882);stroke-width:.09525;stroke-miterlimit:41.994751"/><path d="M31.651575 35.3187L82.057875 35.594925" style="fill:none;stroke:rgba(4,0,246,.24705882);stroke-width:.09525;stroke-miterlimit:41.994751"/><path d="M413.28975 94.7166H433.75898V81.7245H413.28975z" style="fill:rgba(0,0,255,.24705882);stroke:rgba(0,0,255,.24705882);stroke-width:.09525;stroke-miterlimit:41.994751"/><path d="M424.02443 87.239475A.47625 .47625 0 00423.07193 87.239475A.47625 .47625 0 00424.02443 87.239475z" fill="rgba(0,0,255,.24705882)"/><path d="M.2000343 41.605205H63.103125V29.022675H.2000343z" style="fill:rgba(0,0,255,.24705882);stroke:rgba(0,0,255,.24705882);stroke-width:.09525;stroke-miterlimit:41.994751"/><path d="M32.127825 35.3187A.47625 .47625 0 0031.175325 35.3187A.47625 .47625 0 0032.127825 35.3187z" fill="rgba(0,0,255,.24705882)"/><path d="M.2000343 29.022675H63.103125V19.402425H.2000343z" style="fill:rgba(0,0,255,.24705882);stroke:rgba(0,0,255,.24705882);stroke-width:.09525;stroke-miterlimit:41.994751"/><path d="M32.127825 24.21255A.47625 .47625 0 0031.175325 24.21255A.47625 .47625 0 0032.127825 24.21255z" fill="rgba(0,0,255,.24705882)"/><path d="M.2000343 19.402425H63.103125V3.324225H.2000343z" style="fill:rgba(0,0,255,.24705882);stroke:rgba(0,0,255,.24705882);stroke-width:.09525;stroke-miterlimit:41.994751"/><path d="M32.127825 11.363325A.47625 .47625 0 0031.175325 11.363325A.47625 .47625 0 0032.127825 11.363325z" fill="rgba(0,0,255,.24705882)"/><path d="M31.651575 24.21255V35.3187" style="fill:none;stroke:rgba(0,0,255,.24705882);stroke-width:.09525;stroke-miterlimit:41.994751"/><path d="M31.651575 24.21255V11.363325" style="fill:none;stroke:rgba(0,0,255,.24705882);stroke-width:.09525;stroke-miterlimit:41.994751"/><path d="M423.54818 87.239475L444.08407 87.2871" style="fill:none;stroke:rgba(0,0,255,.24705882);stroke-width:.09525;stroke-miterlimit:41.994751"/><path d="M433.75898 94.7166H454.98068V81.7245H433.75898z" style="fill:rgba(0,0,255,.24705882);stroke:rgba(0,0,255,.24705882);stroke-width:.09525;stroke-miterlimit:41.994751"/><path d="M444.56032 87.2871A.47625 .47625 0 00443.60782 87.2871A.47625 .47625 0 00444.56032 87.2871z" fill="rgba(0,0,255,.24705882)"/><path d="M433.75898 46.3296H454.98068V41.62425H433.75898z" style="fill:rgba(0,0,255,.24705882);stroke:rgba(0,0,255,.24705882);stroke-width:.09525;stroke-miterlimit:41.994751"/><path d="M444.56032 43.976925A.47625 .47625 0 00443.60782 43.976925A.47625 .47625 0 00444.56032 43.976925z" fill="rgba(0,0,255,.24705882)"/><path d="M433.75898 56.86425H454.98068V47.7393H433.75898z" style="fill:rgba(0,0,255,.24705882);stroke:rgba(0,0,255,.24705882);stroke-width:.09525;stroke-miterlimit:41.994751"/><path d="M444.56032 52.301775A.47625 .47625 0 00443.60782 52.301775A.47625 .47625 0 00444.56032 52.301775z" fill="rgba(0,0,255,.24705882)"/><path d="M459.2955 81.7245H469.90635V56.86425H459.2955z" style="fill:rgba(0,0,255,.24705882);stroke:rgba(0,0,255,.24705882);stroke-width:.09525;stroke-miterlimit:41.994751"/><path d="M465.07718 69.294375A.47625 .47625 0 00464.12468 69.294375A.47625 .47625 0 00465.07718 69.294375z" fill="rgba(0,0,255,.24705882)"/><path d="M454.98068 81.7245H459.2955V56.86425H454.98068z" style="fill:rgba(0,0,255,.24705882);stroke:rgba(0,0,255,.24705882);stroke-width:.09525;stroke-miterlimit:41.994751"/><path d="M457.6191 69.294375A.47625 .47625 0 00456.6666 69.294375A.47625 .47625 0 00457.6191 69.294375z" fill="rgba(0,0,255,.24705882)"/><path d="M433.75898 81.7245H454.98068V56.86425H433.75898z" style="fill:rgba(0,0,255,.24705882);stroke:rgba(0,0,255,.24705882);stroke-width:.09525;stroke-miterlimit:41.994751"/><path d="M444.56032 69.294375A.47625 .47625 0 00443.60782 69.294375A.47625 .47625 0 00444.56032 69.294375z" fill="rgba(0,0,255,.24705882)"/><path d="M433.75898 47.7393H454.98068V46.3296H433.75898z" style="fill:rgba(0,0,255,.24705882);stroke:rgba(0,0,255,.24705882);stroke-width:.09525;stroke-miterlimit:41.994751"/><path d="M444.56032 47.03445A.47625 .47625 0 00443.60782 47.03445A.47625 .47625 0 00444.56032 47.03445z" fill="rgba(0,0,255,.24705882)"/><path d="M459.2955 56.86425H469.90635V48.768H459.2955z" style="fill:rgba(0,0,255,.24705882);stroke:rgba(0,0,255,.24705882);stroke-width:.09525;stroke-miterlimit:41.994751"/><path d="M465.07718 52.816125A.47625 .47625 0 00464.12468 52.816125A.47625 .47625 0 00465.07718 52.816125z" fill="rgba(0,0,255,.24705882)"/><path d="M433.75898 41.62425H454.98068V.32385H433.75898z" style="fill:rgba(0,0,255,.24705882);stroke:rgba(0,0,255,.24705882);stroke-width:.09525;stroke-miterlimit:41.994751"/><path d="M444.56032 20.97405A.47625 .47625 0 00443.60782 20.97405A.47625 .47625 0 00444.56032 20.97405z" fill="rgba(0,0,255,.24705882)"/><path d="M444.08407 87.2871V69.294375" style="fill:none;stroke:rgba(0,0,255,.24705882);stroke-width:.09525;stroke-miterlimit:41.994751"/><path d="M444.08407 69.294375H457.14285" style="fill:none;stroke:rgba(0,0,255,.24705882);stroke-width:.09525;stroke-miterlimit:41.994751"/><path d="M444.08407 52.301775V47.03445" style="fill:none;stroke:rgba(0,0,255,.24705882);stroke-width:.09525;stroke-miterlimit:41.994751"/><path d="M444.08407 47.03445V43.976925" style="fill:none;stroke:rgba(0,0,255,.24705882);stroke-width:.09525;stroke-miterlimit:41.994751"/><path d="M444.08407 69.294375V52.301775" style="fill:none;stroke:rgba(0,0,255,.24705882);stroke-width:.09525;stroke-miterlimit:41.994751"/><path d="M457.14285 69.294375H464.60093" style="fill:none;stroke:rgba(0,0,255,.24705882);stroke-width:.09525;stroke-miterlimit:41.994751"/><path d="M464.60093 69.294375V52.816125" style="fill:none;stroke:rgba(0,0,255,.24705882);stroke-width:.09525;stroke-miterlimit:41.994751"/><path d="M444.08407 43.976925V20.97405" style="fill:none;stroke:rgba(0,0,255,.24705882);stroke-width:.09525;stroke-miterlimit:41.994751"/><path d="" style="fill:rgba(0,0,255,.24705882);stroke:rgba(0,0,255,.24705882);stroke-width:.09525;stroke-miterlimit:41.994751"/><path d="M501.95797 116.51932A.47625 .47625 0 00501.00547 116.51932A.47625 .47625 0 00501.95797 116.51932z" fill="rgba(0,0,255,.24705882)"/><path d="M486.45128 128.49225H501.48173V104.5464H486.45128z" style="fill:rgba(0,0,255,.24705882);stroke:rgba(0,0,255,.24705882);stroke-width:.09525;stroke-miterlimit:41.994751"/><path d="M494.44275 116.51932A.47625 .47625 0 00493.49025 116.51932A.47625 .47625 0 00494.44275 116.51932z" fill="rgba(0,0,255,.24705882)"/><path d="M482.86034 128.49225H486.45128V104.5464H482.86034z" style="fill:rgba(0,0,255,.24705882);stroke:rgba(0,0,255,.24705882);stroke-width:.09525;stroke-miterlimit:41.994751"/><path d="M485.1273 116.51932A.47625 .47625 0 00484.1748 116.51932A.47625 .47625 0 00485.1273 116.51932z" fill="rgba(0,0,255,.24705882)"/><path d="M486.45128 159.78187H501.48173V128.49225H486.45128z" style="fill:rgba(0,0,255,.24705882);stroke:rgba(0,0,255,.24705882);stroke-width:.09525;stroke-miterlimit:41.994751"/><path d="M494.44275 144.1323A.47625 .47625 0 00493.49025 144.1323A.47625 .47625 0 00494.44275 144.1323z" fill="rgba(0,0,255,.24705882)"/><path d="M493.9665 116.51932H501.48172" style="fill:none;stroke:rgba(0,0,255,.24705882);stroke-width:.09525;stroke-miterlimit:41.994751"/><path d="M484.65105 116.51932H493.9665" style="fill:none;stroke:rgba(0,0,255,.24705882);stroke-width:.09525;stroke-miterlimit:41.994751"/><path d="M493.9665 116.51932V144.1323" style="fill:none;stroke:rgba(0,0,255,.24705882);stroke-width:.09525;stroke-miterlimit:41.994751"/></svg>