<svg version="1.1" width="2314.0988mm" height="436.4355mm" viewBox="0 0 2314.0988 436.4355" xmlns="http://www.w3.org/2000/svg" xmlns:xlink="http://www.w3.org/1999/xlink"><path d="M1268.2538 -926.30625H1270.1588" style="fill:none;stroke:#f00;stroke-width:.09525;stroke-miterlimit:41.994751"/><path d="M1268.2538 -926.30625V-928.21125" style="fill:none;stroke:#0f0;stroke-width:.09525;stroke-miterlimit:41.994751"/><path d="M1664.4652 436.14975H1682.7818V410.66085H1664.4652z" style="fill:rgba(255,0,0,.24705882);stroke:rgba(255,0,0,.24705882);stroke-width:.09525;stroke-miterlimit:41.994751"/><path d="M1674.1045 423.4053A.47625 .47625 0 001673.152 423.4053A.47625 .47625 0 001674.1045 423.4053z" fill="rgba(255,0,0,.24705882)"/><path d="M1634.0138 410.7942H1652.3303V387.38175H1634.0138z" style="fill:rgba(255,0,0,.24705882);stroke:rgba(255,0,0,.24705882);stroke-width:.09525;stroke-miterlimit:41.994751"/><path d="M1643.6531 399.08798A.47625 .47625 0 001642.7006 399.08798A.47625 .47625 0 001643.6531 399.08798z" fill="rgba(255,0,0,.24705882)"/><path d="M1664.4652 410.66085H1682.7818V387.38175H1664.4652z" style="fill:rgba(255,0,0,.24705882);stroke:rgba(255,0,0,.24705882);stroke-width:.09525;stroke-miterlimit:41.994751"/><path d="M1674.1045 399.0213A.47625 .47625 0 001673.152 399.0213A.47625 .47625 0 001674.1045 399.0213z" fill="rgba(255,0,0,.24705882)"/><path d="M1634.0138 436.14975H1652.3303V410.7942H1634.0138z" style="fill:rgba(255,0,0,.24705882);stroke:rgba(255,0,0,.24705882);stroke-width:.09525;stroke-miterlimit:41.994751"/><path d="M1643.6531 423.47198A.47625 .47625 0 001642.7006 423.47198A.47625 .47625 0 001643.6531 423.47198z" fill="rgba(255,0,0,.24705882)"/><path d="M1652.3303 436.14975H1664.4652V410.25128H1652.3303z" style="fill:rgba(255,0,0,.24705882);stroke:rgba(255,0,0,.24705882);stroke-width:.09525;stroke-miterlimit:41.994751"/><path d="M1658.874 423.19575A.47625 .47625 0 001657.9215 423.19575A.47625 .47625 0 001658.874 423.19575z" fill="rgba(255,0,0,.24705882)"/><path d="M1673.6282 423.4053V399.0213" style="fill:none;stroke:rgba(255,0,0,.24705882);stroke-width:.09525;stroke-miterlimit:41.994751"/><path d="M1643.1768 423.47198V399.08798" style="fill:none;stroke:rgba(255,0,0,.24705882);stroke-width:.09525;stroke-miterlimit:41.994751"/><path d="M1643.1768 423.47198L1658.3978 423.19575" style="fill:none;stroke:rgba(255,0,0,.24705882);stroke-width:.09525;stroke-miterlimit:41.994751"/><path d="M1658.3978 423.19575L1673.6282 423.4053" style="fill:none;stroke:rgba(255,0,0,.24705882);stroke-width:.09525;stroke-miterlimit:41.994751"/><path d="M1658.3978 423.19575V404.90775" style="fill:none;stroke:rgba(255,0,0,.24705882);stroke-width:.09525;stroke-miterlimit:41.994751"/><path d="M1652.3303 410.25128H1664.4652V399.57375H1652.3303z" style="fill:rgba(255,0,0,.24705882);stroke:rgba(255,0,0,.24705882);stroke-width:.09525;stroke-miterlimit:41.994751"/><path d="M1658.874 404.90775A.47625 .47625 0 001657.9215 404.90775A.47625 .47625 0 001658.874 404.90775z" fill="rgba(255,0,0,.24705882)"/><path d="M1658.3978 404.90775V393.47775" style="fill:none;stroke:rgba(255,0,0,.24705882);stroke-width:.09525;stroke-miterlimit:41.994751"/><path d="M1652.3303 399.57375H1664.4652V387.38175H1652.3303z" style="fill:rgba(255,0,0,.24705882);stroke:rgba(255,0,0,.24705882);stroke-width:.09525;stroke-miterlimit:41.994751"/><path d="M1658.874 393.47775A.47625 .47625 0 001657.9215 393.47775A.47625 .47625 0 001658.874 393.47775z" fill="rgba(255,0,0,.24705882)"/><path d="M1652.3303 387.38175H1664.4652V350.80575H1652.3303z" style="fill:rgba(255,0,0,.24705882);stroke:rgba(255,0,0,.24705882);stroke-width:.09525;stroke-miterlimit:41.994751"/><path d="M1658.874 369.09375A.47625 .47625 0 001657.9215 369.09375A.47625 .47625 0 001658.874 369.09375z" fill="rgba(255,0,0,.24705882)"/><path d="M1658.3978 393.47775V369.09375" style="fill:none;stroke:rgba(255,0,0,.24705882);stroke-width:.09525;stroke-miterlimit:41.994751"/><path d="M512.34975 401.09775H585.50175V378.23775H512.34975z" style="fill:rgba(97,0,157,.24705882);stroke:rgba(97,0,157,.24705882);stroke-width:.09525;stroke-miterlimit:41.994751"/><path d="M532.79993 389.66775A.47625 .47625 0 00531.84743 389.66775A.47625 .47625 0 00532.79993 389.66775z" fill="rgba(97,0,157,.24705882)"/><path d="M512.34975 427.00575H585.50175V404.14575H512.34975z" style="fill:rgba(97,0,157,.24705882);stroke:rgba(97,0,157,.24705882);stroke-width:.09525;stroke-miterlimit:41.994751"/><path d="M532.79993 413.97555A.47625 .47625 0 00531.84743 413.97555A.47625 .47625 0 00532.79993 413.97555z" fill="rgba(97,0,157,.24705882)"/><path d="M1347.5113 244.12575H1365.7898V199.92975H1347.5113z" style="fill:rgba(93,0,161,.24705882);stroke:rgba(93,0,161,.24705882);stroke-width:.09525;stroke-miterlimit:41.994751"/><path d="M1357.1315 220.599A.47625 .47625 0 001356.179 220.599A.47625 .47625 0 001357.1315 220.599z" fill="rgba(93,0,161,.24705882)"/><path d="M1317.0218 244.12575H1335.3098V199.92975H1317.0218z" style="fill:rgba(93,0,161,.24705882);stroke:rgba(93,0,161,.24705882);stroke-width:.09525;stroke-miterlimit:41.994751"/><path d="M1326.642 220.599A.47625 .47625 0 001325.6895 220.599A.47625 .47625 0 001326.642 220.599z" fill="rgba(93,0,161,.24705882)"/><path d="M1335.3098 244.12575H1347.5113V218.36063H1335.3098z" style="fill:rgba(93,0,161,.24705882);stroke:rgba(93,0,161,.24705882);stroke-width:.09525;stroke-miterlimit:41.994751"/><path d="M1341.8915 231.23843A.47625 .47625 0 001340.939 231.23843A.47625 .47625 0 001341.8915 231.23843z" fill="rgba(93,0,161,.24705882)"/><path d="M1326.1658 220.599L1341.4153 231.23843" style="fill:none;stroke:rgba(93,0,161,.24705882);stroke-width:.09525;stroke-miterlimit:41.994751"/><path d="M1341.4153 231.23843L1356.6553 220.599" style="fill:none;stroke:rgba(93,0,161,.24705882);stroke-width:.09525;stroke-miterlimit:41.994751"/><path d="M1341.4153 231.23843V212.99805" style="fill:none;stroke:rgba(93,0,161,.24705882);stroke-width:.09525;stroke-miterlimit:41.994751"/><path d="M1335.3098 218.36063H1347.5113V207.645H1335.3098z" style="fill:rgba(93,0,161,.24705882);stroke:rgba(93,0,161,.24705882);stroke-width:.09525;stroke-miterlimit:41.994751"/><path d="M1341.8915 212.99805A.47625 .47625 0 001340.939 212.99805A.47625 .47625 0 001341.8915 212.99805z" fill="rgba(93,0,161,.24705882)"/><path d="M1341.4153 212.99805V203.78738" style="fill:none;stroke:rgba(93,0,161,.24705882);stroke-width:.09525;stroke-miterlimit:41.994751"/><path d="M1335.3098 199.92975H1347.5113V158.78175H1335.3098z" style="fill:rgba(93,0,161,.24705882);stroke:rgba(93,0,161,.24705882);stroke-width:.09525;stroke-miterlimit:41.994751"/><path d="M1341.8915 179.35575A.47625 .47625 0 001340.939 179.35575A.47625 .47625 0 001341.8915 179.35575z" fill="rgba(93,0,161,.24705882)"/><path d="M1335.3098 207.645H1347.5113V199.92975H1335.3098z" style="fill:rgba(93,0,161,.24705882);stroke:rgba(93,0,161,.24705882);stroke-width:.09525;stroke-miterlimit:41.994751"/><path d="M1341.8915 203.78738A.47625 .47625 0 001340.939 203.78738A.47625 .47625 0 001341.8915 203.78738z" fill="rgba(93,0,161,.24705882)"/><path d="M1341.4153 203.78738V179.35575" style="fill:none;stroke:rgba(93,0,161,.24705882);stroke-width:.09525;stroke-miterlimit:41.994751"/><path d="M1187.577 80.9625H1202.6265V65.913H1187.577z" style="fill:rgba(80,0,170,.24705882);stroke:rgba(80,0,170,.24705882);stroke-width:.09525;stroke-miterlimit:41.994751"/><path d="M1195.3684 73.6854A.47625 .47625 0 001194.416 73.6854A.47625 .47625 0 001195.3684 73.6854z" fill="rgba(80,0,170,.24705882)"/><path d="" style="fill:none;stroke:rgba(80,0,174,.24705882);stroke-width:.09525;stroke-miterlimit:41.994751"/><path d="M1202.6265 114.39525H1213.4279V80.9625H1202.6265z" style="fill:rgba(76,0,178,.24705882);stroke:rgba(76,0,178,.24705882);stroke-width:.09525;stroke-miterlimit:41.994751"/><path d="M1208.5034 97.678875A.47625 .47625 0 001207.5509 97.678875A.47625 .47625 0 001208.5034 97.678875z" fill="rgba(76,0,178,.24705882)"/><path d="M1164.6218 177.90795H1177.4519V164.88728H1164.6218z" style="fill:rgba(76,0,178,.24705882);stroke:rgba(76,0,178,.24705882);stroke-width:.09525;stroke-miterlimit:41.994751"/><path d="M1171.5178 171.38332A.47625 .47625 0 001170.5654 171.38332A.47625 .47625 0 001171.5178 171.38332z" fill="rgba(76,0,178,.24705882)"/><path d="M1187.577 65.913H1202.6265V49.05375H1187.577z" style="fill:rgba(76,0,178,.24705882);stroke:rgba(76,0,178,.24705882);stroke-width:.09525;stroke-miterlimit:41.994751"/><path d="M1195.3684 57.483375A.47625 .47625 0 001194.416 57.483375A.47625 .47625 0 001195.3684 57.483375z" fill="rgba(76,0,178,.24705882)"/><path d="M1156.2874 240.1824H1176.9471V200.45363H1156.2874z" style="fill:rgba(76,0,178,.24705882);stroke:rgba(76,0,178,.24705882);stroke-width:.09525;stroke-miterlimit:41.994751"/><path d="M1167.0983 220.31325A.47625 .47625 0 001166.1458 220.31325A.47625 .47625 0 001167.0983 220.31325z" fill="rgba(76,0,178,.24705882)"/><path d="M1156.2874 200.45363H1164.6218V177.90795H1156.2874z" style="fill:rgba(76,0,178,.24705882);stroke:rgba(76,0,178,.24705882);stroke-width:.09525;stroke-miterlimit:41.994751"/><path d="M1160.9356 189.17603A.47625 .47625 0 001159.9831 189.17603A.47625 .47625 0 001160.9356 189.17603z" fill="rgba(76,0,178,.24705882)"/><path d="M937.641 227.2665H952.6905V212.217H937.641z" style="fill:rgba(76,0,178,.24705882);stroke:rgba(76,0,178,.24705882);stroke-width:.09525;stroke-miterlimit:41.994751"/><path d="M945.61343 219.77985A.47625 .47625 0 00944.66093 219.77985A.47625 .47625 0 00945.61343 219.77985z" fill="rgba(76,0,178,.24705882)"/><path d="M1146.3338 80.9625H1159.0973V65.913H1146.3338z" style="fill:rgba(76,0,178,.24705882);stroke:rgba(76,0,178,.24705882);stroke-width:.09525;stroke-miterlimit:41.994751"/><path d="M1153.1917 73.6854A.47625 .47625 0 001152.2393 73.6854A.47625 .47625 0 001153.1917 73.6854z" fill="rgba(76,0,178,.24705882)"/><path d="M1187.577 114.38573H1202.6265V80.9625H1187.577z" style="fill:rgba(76,0,178,.24705882);stroke:rgba(76,0,178,.24705882);stroke-width:.09525;stroke-miterlimit:41.994751"/><path d="M1195.3684 97.66935A.47625 .47625 0 001194.416 97.66935A.47625 .47625 0 001195.3684 97.66935z" fill="rgba(76,0,178,.24705882)"/><path d="M1159.0973 80.9625H1187.577V65.913H1159.0973z" style="fill:rgba(76,0,178,.24705882);stroke:rgba(76,0,178,.24705882);stroke-width:.09525;stroke-miterlimit:41.994751"/><path d="M1173.8134 73.6854A.47625 .47625 0 001172.8609 73.6854A.47625 .47625 0 001173.8134 73.6854z" fill="rgba(76,0,178,.24705882)"/><path d="M1230.9348 80.9625H1243.8698V65.913H1230.9348z" style="fill:rgba(76,0,178,.24705882);stroke:rgba(76,0,178,.24705882);stroke-width:.09525;stroke-miterlimit:41.994751"/><path d="M1237.8785 73.6854A.47625 .47625 0 001236.926 73.6854A.47625 .47625 0 001237.8785 73.6854z" fill="rgba(76,0,178,.24705882)"/><path d="M1159.0973 114.43335H1176.7852V80.9625H1159.0973z" style="fill:rgba(76,0,178,.24705882);stroke:rgba(76,0,178,.24705882);stroke-width:.09525;stroke-miterlimit:41.994751"/><path d="M1168.4222 97.697925A.47625 .47625 0 001167.4697 97.697925A.47625 .47625 0 001168.4222 97.697925z" fill="rgba(76,0,178,.24705882)"/><path d="M1159.0973 65.913H1187.577V49.05375H1159.0973z" style="fill:rgba(76,0,178,.24705882);stroke:rgba(76,0,178,.24705882);stroke-width:.09525;stroke-miterlimit:41.994751"/><path d="M1173.8134 57.483375A.47625 .47625 0 001172.8609 57.483375A.47625 .47625 0 001173.8134 57.483375z" fill="rgba(76,0,178,.24705882)"/><path d="M1202.6265 65.913H1230.9348V49.05375H1202.6265z" style="fill:rgba(76,0,178,.24705882);stroke:rgba(76,0,178,.24705882);stroke-width:.09525;stroke-miterlimit:41.994751"/><path d="M1217.2569 57.483375A.47625 .47625 0 001216.3044 57.483375A.47625 .47625 0 001217.2569 57.483375z" fill="rgba(76,0,178,.24705882)"/><path d="M937.641 244.12575H952.6905V227.2665H937.641z" style="fill:rgba(76,0,178,.24705882);stroke:rgba(76,0,178,.24705882);stroke-width:.09525;stroke-miterlimit:41.994751"/><path d="M945.61343 235.69613A.47625 .47625 0 00944.66093 235.69613A.47625 .47625 0 00945.61343 235.69613z" fill="rgba(76,0,178,.24705882)"/><path d="M927.63975 227.2665H937.641V212.217H927.63975z" style="fill:rgba(76,0,178,.24705882);stroke:rgba(76,0,178,.24705882);stroke-width:.09525;stroke-miterlimit:41.994751"/><path d="M933.11663 219.77985A.47625 .47625 0 00932.16413 219.77985A.47625 .47625 0 00933.11663 219.77985z" fill="rgba(76,0,178,.24705882)"/><path d="M937.641 212.217H946.64213V126.77775H937.641z" style="fill:rgba(76,0,178,.24705882);stroke:rgba(76,0,178,.24705882);stroke-width:.09525;stroke-miterlimit:41.994751"/><path d="M942.62258 169.49738A.47625 .47625 0 00941.67008 169.49738A.47625 .47625 0 00942.62258 169.49738z" fill="rgba(76,0,178,.24705882)"/><path d="M1213.4279 114.39525H1230.9348V80.9625H1213.4279z" style="fill:rgba(76,0,178,.24705882);stroke:rgba(76,0,178,.24705882);stroke-width:.09525;stroke-miterlimit:41.994751"/><path d="M1222.6576 97.678875A.47625 .47625 0 001221.7051 97.678875A.47625 .47625 0 001222.6576 97.678875z" fill="rgba(76,0,178,.24705882)"/><path d="M1213.4279 128.25413H1230.9348V114.39525H1213.4279z" style="fill:rgba(76,0,178,.24705882);stroke:rgba(76,0,178,.24705882);stroke-width:.09525;stroke-miterlimit:41.994751"/><path d="M1222.6576 121.31993A.47625 .47625 0 001221.7051 121.31993A.47625 .47625 0 001222.6576 121.31993z" fill="rgba(76,0,178,.24705882)"/><path d="M952.6905 227.2665H967.26375V212.217H952.6905z" style="fill:rgba(76,0,178,.24705882);stroke:rgba(76,0,178,.24705882);stroke-width:.09525;stroke-miterlimit:41.994751"/><path d="M960.45338 219.77985A.47625 .47625 0 00959.50088 219.77985A.47625 .47625 0 00960.45338 219.77985z" fill="rgba(76,0,178,.24705882)"/><path d="M1230.9348 128.25413H1243.8698V114.39525H1230.9348z" style="fill:rgba(76,0,178,.24705882);stroke:rgba(76,0,178,.24705882);stroke-width:.09525;stroke-miterlimit:41.994751"/><path d="M1237.8785 121.31993A.47625 .47625 0 001236.926 121.31993A.47625 .47625 0 001237.8785 121.31993z" fill="rgba(76,0,178,.24705882)"/><path d="M1176.7852 114.43335H1187.577V80.9625H1176.7852z" style="fill:rgba(76,0,178,.24705882);stroke:rgba(76,0,178,.24705882);stroke-width:.09525;stroke-miterlimit:41.994751"/><path d="M1182.6621 97.697925A.47625 .47625 0 001181.7096 97.697925A.47625 .47625 0 001182.6621 97.697925z" fill="rgba(76,0,178,.24705882)"/><path d="M1159.0973 128.26365H1164.6218V114.43335H1159.0973z" style="fill:rgba(76,0,178,.24705882);stroke:rgba(76,0,178,.24705882);stroke-width:.09525;stroke-miterlimit:41.994751"/><path d="M1162.3357 121.3485A.47625 .47625 0 001161.3833 121.3485A.47625 .47625 0 001162.3357 121.3485z" fill="rgba(76,0,178,.24705882)"/><path d="M1164.6218 200.45363H1177.4519V177.90795H1164.6218z" style="fill:rgba(76,0,178,.24705882);stroke:rgba(76,0,178,.24705882);stroke-width:.09525;stroke-miterlimit:41.994751"/><path d="M1171.5178 189.17603A.47625 .47625 0 001170.5654 189.17603A.47625 .47625 0 001171.5178 189.17603z" fill="rgba(76,0,178,.24705882)"/><path d="M967.26375 227.2665H969.65453V212.217H967.26375z" style="fill:rgba(76,0,178,.24705882);stroke:rgba(76,0,178,.24705882);stroke-width:.09525;stroke-miterlimit:41.994751"/><path d="M968.94015 219.77985A.47625 .47625 0 00967.98765 219.77985A.47625 .47625 0 00968.94015 219.77985z" fill="rgba(76,0,178,.24705882)"/><path d="M952.6905 212.217H967.26375V126.77775H952.6905z" style="fill:rgba(76,0,178,.24705882);stroke:rgba(76,0,178,.24705882);stroke-width:.09525;stroke-miterlimit:41.994751"/><path d="M960.45338 169.49738A.47625 .47625 0 00959.50088 169.49738A.47625 .47625 0 00960.45338 169.49738z" fill="rgba(76,0,178,.24705882)"/><path d="M952.6905 244.12575H967.26375V227.2665H952.6905z" style="fill:rgba(76,0,178,.24705882);stroke:rgba(76,0,178,.24705882);stroke-width:.09525;stroke-miterlimit:41.994751"/><path d="M960.45338 235.69613A.47625 .47625 0 00959.50088 235.69613A.47625 .47625 0 00960.45338 235.69613z" fill="rgba(76,0,178,.24705882)"/><path d="M1146.3338 128.26365H1159.0973V114.43335H1146.3338z" style="fill:rgba(76,0,178,.24705882);stroke:rgba(76,0,178,.24705882);stroke-width:.09525;stroke-miterlimit:41.994751"/><path d="M1153.1917 121.3485A.47625 .47625 0 001152.2393 121.3485A.47625 .47625 0 001153.1917 121.3485z" fill="rgba(76,0,178,.24705882)"/><path d="M946.64213 212.217H952.6905V126.77775H946.64213z" style="fill:rgba(76,0,178,.24705882);stroke:rgba(76,0,178,.24705882);stroke-width:.09525;stroke-miterlimit:41.994751"/><path d="M950.14733 169.49738A.47625 .47625 0 00949.19483 169.49738A.47625 .47625 0 00950.14733 169.49738z" fill="rgba(76,0,178,.24705882)"/><path d="M1164.6218 128.26365H1176.7852V114.43335H1164.6218z" style="fill:rgba(76,0,178,.24705882);stroke:rgba(76,0,178,.24705882);stroke-width:.09525;stroke-miterlimit:41.994751"/><path d="M1171.1845 121.3485A.47625 .47625 0 001170.232 121.3485A.47625 .47625 0 001171.1845 121.3485z" fill="rgba(76,0,178,.24705882)"/><path d="M1159.0973 164.88728H1164.6218V128.26365H1159.0973z" style="fill:rgba(76,0,178,.24705882);stroke:rgba(76,0,178,.24705882);stroke-width:.09525;stroke-miterlimit:41.994751"/><path d="M1162.3357 146.5707A.47625 .47625 0 001161.3833 146.5707A.47625 .47625 0 001162.3357 146.5707z" fill="rgba(76,0,178,.24705882)"/><path d="M1202.6265 80.9625H1230.9348V65.913H1202.6265z" style="fill:rgba(76,0,178,.24705882);stroke:rgba(76,0,178,.24705882);stroke-width:.09525;stroke-miterlimit:41.994751"/><path d="M1217.2569 73.6854A.47625 .47625 0 001216.3044 73.6854A.47625 .47625 0 001217.2569 73.6854z" fill="rgba(76,0,178,.24705882)"/><path d="M937.641 126.77775H946.64213V105.44175H937.641z" style="fill:rgba(76,0,178,.24705882);stroke:rgba(76,0,178,.24705882);stroke-width:.09525;stroke-miterlimit:41.994751"/><path d="M942.62258 116.10975A.47625 .47625 0 00941.67008 116.10975A.47625 .47625 0 00942.62258 116.10975z" fill="rgba(76,0,178,.24705882)"/><path d="M1187.577 80.9625H1202.6265V65.913H1187.577z" style="fill:rgba(76,0,178,.24705882);stroke:rgba(76,0,178,.24705882);stroke-width:.09525;stroke-miterlimit:41.994751"/><path d="M1195.3684 73.6854A.47625 .47625 0 001194.416 73.6854A.47625 .47625 0 001195.3684 73.6854z" fill="rgba(76,0,178,.24705882)"/><path d="M1147.0958 164.88728H1159.0973V128.26365H1147.0958z" style="fill:rgba(76,0,178,.24705882);stroke:rgba(76,0,178,.24705882);stroke-width:.09525;stroke-miterlimit:41.994751"/><path d="M1153.5728 146.5707A.47625 .47625 0 001152.6203 146.5707A.47625 .47625 0 001153.5728 146.5707z" fill="rgba(76,0,178,.24705882)"/><path d="M1147.0958 177.90795H1164.6218V164.88728H1147.0958z" style="fill:rgba(76,0,178,.24705882);stroke:rgba(76,0,178,.24705882);stroke-width:.09525;stroke-miterlimit:41.994751"/><path d="M1156.3255 171.38332A.47625 .47625 0 001155.373 171.38332A.47625 .47625 0 001156.3255 171.38332z" fill="rgba(76,0,178,.24705882)"/><path d="M1161.8595 146.5707H1153.0965" style="fill:none;stroke:rgba(76,0,178,.24705882);stroke-width:.09525;stroke-miterlimit:41.994751"/><path d="M1222.1813 97.678875L1216.7807 73.6854" style="fill:none;stroke:rgba(76,0,178,.24705882);stroke-width:.09525;stroke-miterlimit:41.994751"/><path d="M1171.0416 171.38333V189.17603" style="fill:none;stroke:rgba(76,0,178,.24705882);stroke-width:.09525;stroke-miterlimit:41.994751"/><path d="M1194.8922 57.483375H1216.7807" style="fill:none;stroke:rgba(76,0,178,.24705882);stroke-width:.09525;stroke-miterlimit:41.994751"/><path d="M1155.8492 171.38333H1171.0416" style="fill:none;stroke:rgba(76,0,178,.24705882);stroke-width:.09525;stroke-miterlimit:41.994751"/><path d="M1155.8492 171.38333L1153.0965 146.5707" style="fill:none;stroke:rgba(76,0,178,.24705882);stroke-width:.09525;stroke-miterlimit:41.994751"/><path d="M1194.8922 57.483375H1173.3371" style="fill:none;stroke:rgba(76,0,178,.24705882);stroke-width:.09525;stroke-miterlimit:41.994751"/><path d="M1166.622 220.31325L1160.4593 189.17603" style="fill:none;stroke:rgba(76,0,178,.24705882);stroke-width:.09525;stroke-miterlimit:41.994751"/><path d="M1216.7807 73.6854H1237.4023" style="fill:none;stroke:rgba(76,0,178,.24705882);stroke-width:.09525;stroke-miterlimit:41.994751"/><path d="M1216.7807 73.6854L1208.0272 97.678875" style="fill:none;stroke:rgba(76,0,178,.24705882);stroke-width:.09525;stroke-miterlimit:41.994751"/><path d="M1161.8595 146.5707L1155.8492 171.38333" style="fill:none;stroke:rgba(76,0,178,.24705882);stroke-width:.09525;stroke-miterlimit:41.994751"/><path d="M949.67108 169.49738H959.97713" style="fill:none;stroke:rgba(76,0,178,.24705882);stroke-width:.09525;stroke-miterlimit:41.994751"/><path d="M1216.7807 73.6854V57.483375" style="fill:none;stroke:rgba(76,0,178,.24705882);stroke-width:.09525;stroke-miterlimit:41.994751"/><path d="M1170.7082 121.3485L1167.946 97.697925" style="fill:none;stroke:rgba(76,0,178,.24705882);stroke-width:.09525;stroke-miterlimit:41.994751"/><path d="M949.67108 169.49738L945.13718 219.77985" style="fill:none;stroke:rgba(76,0,178,.24705882);stroke-width:.09525;stroke-miterlimit:41.994751"/><path d="M959.97713 235.69613H945.13718" style="fill:none;stroke:rgba(76,0,178,.24705882);stroke-width:.09525;stroke-miterlimit:41.994751"/><path d="M1161.8595 121.3485V146.5707" style="fill:none;stroke:rgba(76,0,178,.24705882);stroke-width:.09525;stroke-miterlimit:41.994751"/><path d="M1161.8595 121.3485H1170.7082" style="fill:none;stroke:rgba(76,0,178,.24705882);stroke-width:.09525;stroke-miterlimit:41.994751"/><path d="M1161.8595 121.3485H1152.7155" style="fill:none;stroke:rgba(76,0,178,.24705882);stroke-width:.09525;stroke-miterlimit:41.994751"/><path d="M959.97713 219.77985V235.69613" style="fill:none;stroke:rgba(76,0,178,.24705882);stroke-width:.09525;stroke-miterlimit:41.994751"/><path d="M1182.1859 97.697925L1173.3371 73.6854" style="fill:none;stroke:rgba(76,0,178,.24705882);stroke-width:.09525;stroke-miterlimit:41.994751"/><path d="M1182.1859 97.697925L1194.8922 97.66935" style="fill:none;stroke:rgba(76,0,178,.24705882);stroke-width:.09525;stroke-miterlimit:41.994751"/><path d="M959.97713 219.77985V169.49738" style="fill:none;stroke:rgba(76,0,178,.24705882);stroke-width:.09525;stroke-miterlimit:41.994751"/><path d="M959.97713 219.77985H968.4639" style="fill:none;stroke:rgba(76,0,178,.24705882);stroke-width:.09525;stroke-miterlimit:41.994751"/><path d="M1222.1813 121.31993H1237.4023" style="fill:none;stroke:rgba(76,0,178,.24705882);stroke-width:.09525;stroke-miterlimit:41.994751"/><path d="M942.14633 169.49738V116.10975" style="fill:none;stroke:rgba(76,0,178,.24705882);stroke-width:.09525;stroke-miterlimit:41.994751"/><path d="M1222.1813 97.678875V121.31993" style="fill:none;stroke:rgba(76,0,178,.24705882);stroke-width:.09525;stroke-miterlimit:41.994751"/><path d="M945.13718 219.77985V235.69613" style="fill:none;stroke:rgba(76,0,178,.24705882);stroke-width:.09525;stroke-miterlimit:41.994751"/><path d="M942.14633 169.49738H949.67108" style="fill:none;stroke:rgba(76,0,178,.24705882);stroke-width:.09525;stroke-miterlimit:41.994751"/><path d="M1152.7155 73.6854H1173.3371" style="fill:none;stroke:rgba(76,0,178,.24705882);stroke-width:.09525;stroke-miterlimit:41.994751"/><path d="M1194.8922 73.6854V57.483375" style="fill:none;stroke:rgba(76,0,178,.24705882);stroke-width:.09525;stroke-miterlimit:41.994751"/><path d="M1194.8922 73.6854H1216.7807" style="fill:none;stroke:rgba(76,0,178,.24705882);stroke-width:.09525;stroke-miterlimit:41.994751"/><path d="M1194.8922 73.6854V97.66935" style="fill:none;stroke:rgba(76,0,178,.24705882);stroke-width:.09525;stroke-miterlimit:41.994751"/><path d="M945.13718 219.77985H932.64038" style="fill:none;stroke:rgba(76,0,178,.24705882);stroke-width:.09525;stroke-miterlimit:41.994751"/><path d="M1167.946 97.697925L1161.8595 121.3485" style="fill:none;stroke:rgba(76,0,178,.24705882);stroke-width:.09525;stroke-miterlimit:41.994751"/><path d="M1167.946 97.697925H1182.1859" style="fill:none;stroke:rgba(76,0,178,.24705882);stroke-width:.09525;stroke-miterlimit:41.994751"/><path d="M1171.0416 189.17603H1160.4593" style="fill:none;stroke:rgba(76,0,178,.24705882);stroke-width:.09525;stroke-miterlimit:41.994751"/><path d="M1208.0272 97.678875H1222.1813" style="fill:none;stroke:rgba(76,0,178,.24705882);stroke-width:.09525;stroke-miterlimit:41.994751"/><path d="M945.13718 219.77985H959.97713" style="fill:none;stroke:rgba(76,0,178,.24705882);stroke-width:.09525;stroke-miterlimit:41.994751"/><path d="M1173.3371 73.6854V57.483375" style="fill:none;stroke:rgba(76,0,178,.24705882);stroke-width:.09525;stroke-miterlimit:41.994751"/><path d="M1173.3371 73.6854L1167.946 97.697925" style="fill:none;stroke:rgba(76,0,178,.24705882);stroke-width:.09525;stroke-miterlimit:41.994751"/><path d="M1173.3371 73.6854H1194.8922" style="fill:none;stroke:rgba(76,0,178,.24705882);stroke-width:.09525;stroke-miterlimit:41.994751"/><path d="M945.13718 219.77985L942.14633 169.49738" style="fill:none;stroke:rgba(76,0,178,.24705882);stroke-width:.09525;stroke-miterlimit:41.994751"/><path d="M1194.8922 97.66935L1208.0272 97.678875" style="fill:none;stroke:rgba(76,0,178,.24705882);stroke-width:.09525;stroke-miterlimit:41.994751"/><path d="M942.14633 116.10975H952.7667" style="fill:none;stroke:rgba(76,0,178,.24705882);stroke-width:.09525;stroke-miterlimit:41.994751"/><path d="M1166.3744 163.10614H1171.8417V157.68638H1166.3744z" style="fill:rgba(76,0,178,.24705882);stroke:rgba(76,0,178,.24705882);stroke-width:.09525;stroke-miterlimit:41.994751"/><path d="M1169.5843 160.401A.47625 .47625 0 001168.6318 160.401A.47625 .47625 0 001169.5843 160.401z" fill="rgba(76,0,178,.24705882)"/><path d="M946.64213 126.77775H958.88175V105.44175H946.64213z" style="fill:rgba(76,0,178,.24705882);stroke:rgba(76,0,178,.24705882);stroke-width:.09525;stroke-miterlimit:41.994751"/><path d="M953.24295 116.10975A.47625 .47625 0 00952.29045 116.10975A.47625 .47625 0 00953.24295 116.10975z" fill="rgba(76,0,178,.24705882)"/><path d="M952.7667 116.10975H965.7207" style="fill:none;stroke:rgba(76,0,178,.24705882);stroke-width:.09525;stroke-miterlimit:41.994751"/><path d="M1163.555 152.18094H1174.8135V140.97H1163.555z" style="fill:rgba(76,0,178,.24705882);stroke:rgba(76,0,178,.24705882);stroke-width:.09525;stroke-miterlimit:41.994751"/><path d="M1169.6605 146.5707A.47625 .47625 0 001168.708 146.5707A.47625 .47625 0 001169.6605 146.5707z" fill="rgba(76,0,178,.24705882)"/><path d="M958.88175 126.77775H972.55965V105.44175H958.88175z" style="fill:rgba(72,0,178,.24705882);stroke:rgba(72,0,178,.24705882);stroke-width:.09525;stroke-miterlimit:41.994751"/><path d="M966.19695 116.10975A.47625 .47625 0 00965.24445 116.10975A.47625 .47625 0 00966.19695 116.10975z" fill="rgba(72,0,178,.24705882)"/><path d="M945.13718 219.77985L942.14633 169.49738" style="fill:none;stroke:rgba(72,0,178,.24705882);stroke-width:.09525;stroke-miterlimit:41.994751"/><path d="M945.13718 219.77985H959.97713" style="fill:none;stroke:rgba(72,0,178,.24705882);stroke-width:.09525;stroke-miterlimit:41.994751"/><path d="M949.67108 169.49738L945.13718 219.77985" style="fill:none;stroke:rgba(72,0,178,.24705882);stroke-width:.09525;stroke-miterlimit:41.994751"/><path d="" style="fill:none;stroke:rgba(72,0,178,.24705882);stroke-width:.09525;stroke-miterlimit:41.994751"/><path d="M965.7207 116.10975H978.6747" style="fill:none;stroke:rgba(72,0,182,.24705882);stroke-width:.09525;stroke-miterlimit:41.994751"/><path d="M972.55965 126.77775H984.78023V105.44175H972.55965z" style="fill:rgba(72,0,182,.24705882);stroke:rgba(72,0,182,.24705882);stroke-width:.09525;stroke-miterlimit:41.994751"/><path d="M979.15095 116.10975A.47625 .47625 0 00978.19845 116.10975A.47625 .47625 0 00979.15095 116.10975z" fill="rgba(72,0,182,.24705882)"/><path d="M978.6747 116.10975H1000.0298" style="fill:none;stroke:rgba(72,0,182,.24705882);stroke-width:.09525;stroke-miterlimit:41.994751"/><path d="M984.78023 126.77775H1015.2793V105.44175H984.78023z" style="fill:rgba(72,0,182,.24705882);stroke:rgba(72,0,182,.24705882);stroke-width:.09525;stroke-miterlimit:41.994751"/><path d="M1000.506 116.10975A.47625 .47625 0 00999.5535 116.10975A.47625 .47625 0 001000.506 116.10975z" fill="rgba(72,0,182,.24705882)"/><path d="M1015.2793 126.77775H1027.4522V105.44175H1015.2793z" style="fill:rgba(72,0,182,.24705882);stroke:rgba(72,0,182,.24705882);stroke-width:.09525;stroke-miterlimit:41.994751"/><path d="M1021.842 116.10975A.47625 .47625 0 001020.8895 116.10975A.47625 .47625 0 001021.842 116.10975z" fill="rgba(72,0,182,.24705882)"/><path d="M1000.0298 116.10975H1021.3658" style="fill:none;stroke:rgba(72,0,182,.24705882);stroke-width:.09525;stroke-miterlimit:41.994751"/><path d="M1163.3454 178.40325H1172.0798V169.75457H1163.3454z" style="fill:rgba(72,0,182,.24705882);stroke:rgba(72,0,182,.24705882);stroke-width:.09525;stroke-miterlimit:41.994751"/><path d="M1168.1841 174.0789A.47625 .47625 0 001167.2316 174.0789A.47625 .47625 0 001168.1841 174.0789z" fill="rgba(72,0,182,.24705882)"/><path d="M279.14918 49.05375H282.22575V33.81375H279.14918z" style="fill:rgba(72,0,182,.24705882);stroke:rgba(72,0,182,.24705882);stroke-width:.09525;stroke-miterlimit:41.994751"/><path d="M281.16848 41.43375A.47625 .47625 0 00280.21598 41.43375A.47625 .47625 0 00281.16848 41.43375z" fill="rgba(72,0,182,.24705882)"/><path d="M279.14918 33.81375H282.22575V30.76575H279.14918z" style="fill:rgba(72,0,182,.24705882);stroke:rgba(72,0,182,.24705882);stroke-width:.09525;stroke-miterlimit:41.994751"/><path d="M281.16848 32.28975A.47625 .47625 0 00280.21598 32.28975A.47625 .47625 0 00281.16848 32.28975z" fill="rgba(72,0,182,.24705882)"/><path d="M282.22575 49.05375H286.79775V33.81375H282.22575z" style="fill:rgba(72,0,182,.24705882);stroke:rgba(72,0,182,.24705882);stroke-width:.09525;stroke-miterlimit:41.994751"/><path d="M284.988 41.43375A.47625 .47625 0 00284.0355 41.43375A.47625 .47625 0 00284.988 41.43375z" fill="rgba(72,0,182,.24705882)"/><path d="M274.60575 49.05375H279.14918V33.81375H274.60575z" style="fill:rgba(72,0,182,.24705882);stroke:rgba(72,0,182,.24705882);stroke-width:.09525;stroke-miterlimit:41.994751"/><path d="M277.35848 41.43375A.47625 .47625 0 00276.40598 41.43375A.47625 .47625 0 00277.35848 41.43375z" fill="rgba(72,0,182,.24705882)"/><path d="M276.88223 41.43375H280.69223" style="fill:none;stroke:rgba(72,0,182,.24705882);stroke-width:.09525;stroke-miterlimit:41.994751"/><path d="M280.69223 41.43375V32.28975" style="fill:none;stroke:rgba(72,0,182,.24705882);stroke-width:.09525;stroke-miterlimit:41.994751"/><path d="M280.69223 41.43375H284.51175" style="fill:none;stroke:rgba(72,0,182,.24705882);stroke-width:.09525;stroke-miterlimit:41.994751"/><path d="M276.88223 41.43375L280.70175 50.57775" style="fill:none;stroke:rgba(72,0,182,.24705882);stroke-width:.09525;stroke-miterlimit:41.994751"/><path d="M284.51175 41.43375L280.70175 50.57775" style="fill:none;stroke:rgba(72,0,182,.24705882);stroke-width:.09525;stroke-miterlimit:41.994751"/><path d="M280.69223 41.43375L280.70175 50.57775" style="fill:none;stroke:rgba(72,0,182,.24705882);stroke-width:.09525;stroke-miterlimit:41.994751"/><path d="M268.50975 73.43775H273.08175V52.10175H268.50975z" style="fill:rgba(72,0,182,.24705882);stroke:rgba(72,0,182,.24705882);stroke-width:.09525;stroke-miterlimit:41.994751"/><path d="M271.272 62.76975A.47625 .47625 0 00270.3195 62.76975A.47625 .47625 0 00271.272 62.76975z" fill="rgba(72,0,182,.24705882)"/><path d="M274.60575 52.10175H286.79775V49.05375H274.60575z" style="fill:rgba(72,0,182,.24705882);stroke:rgba(72,0,182,.24705882);stroke-width:.09525;stroke-miterlimit:41.994751"/><path d="M281.178 50.57775A.47625 .47625 0 00280.2255 50.57775A.47625 .47625 0 00281.178 50.57775z" fill="rgba(72,0,182,.24705882)"/><path d="M273.08175 73.43775H288.32175V52.10175H273.08175z" style="fill:rgba(72,0,182,.24705882);stroke:rgba(72,0,182,.24705882);stroke-width:.09525;stroke-miterlimit:41.994751"/><path d="M281.178 62.76975A.47625 .47625 0 00280.2255 62.76975A.47625 .47625 0 00281.178 62.76975z" fill="rgba(72,0,182,.24705882)"/><path d="M286.79775 52.10175H288.32175V49.05375H286.79775z" style="fill:rgba(72,0,182,.24705882);stroke:rgba(72,0,182,.24705882);stroke-width:.09525;stroke-miterlimit:41.994751"/><path d="M288.036 50.57775A.47625 .47625 0 00287.0835 50.57775A.47625 .47625 0 00288.036 50.57775z" fill="rgba(72,0,182,.24705882)"/><path d="M1187.577 80.9625H1202.6265V65.913H1187.577z" style="fill:rgba(72,0,182,.24705882);stroke:rgba(72,0,182,.24705882);stroke-width:.09525;stroke-miterlimit:41.994751"/><path d="M1195.3684 73.6854A.47625 .47625 0 001194.416 73.6854A.47625 .47625 0 001195.3684 73.6854z" fill="rgba(72,0,182,.24705882)"/><path d="M273.08175 52.10175H274.60575V49.05375H273.08175z" style="fill:rgba(72,0,182,.24705882);stroke:rgba(72,0,182,.24705882);stroke-width:.09525;stroke-miterlimit:41.994751"/><path d="M274.32 50.57775A.47625 .47625 0 00273.3675 50.57775A.47625 .47625 0 00274.32 50.57775z" fill="rgba(72,0,182,.24705882)"/><path d="M292.89375 73.43775H317.27775V52.10175H292.89375z" style="fill:rgba(72,0,182,.24705882);stroke:rgba(72,0,182,.24705882);stroke-width:.09525;stroke-miterlimit:41.994751"/><path d="M305.562 62.76975A.47625 .47625 0 00304.6095 62.76975A.47625 .47625 0 00305.562 62.76975z" fill="rgba(72,0,182,.24705882)"/><path d="M268.50975 97.82175H292.89375V73.43775H268.50975z" style="fill:rgba(72,0,182,.24705882);stroke:rgba(72,0,182,.24705882);stroke-width:.09525;stroke-miterlimit:41.994751"/><path d="M281.16848 86.31555A.47625 .47625 0 00280.21598 86.31555A.47625 .47625 0 00281.16848 86.31555z" fill="rgba(72,0,182,.24705882)"/><path d="M937.641 227.2665H952.6905V212.217H937.641z" style="fill:rgba(72,0,182,.24705882);stroke:rgba(72,0,182,.24705882);stroke-width:.09525;stroke-miterlimit:41.994751"/><path d="M945.61343 219.77985A.47625 .47625 0 00944.66093 219.77985A.47625 .47625 0 00945.61343 219.77985z" fill="rgba(72,0,182,.24705882)"/><path d="M244.12575 73.43775H268.50975V52.10175H244.12575z" style="fill:rgba(72,0,182,.24705882);stroke:rgba(72,0,182,.24705882);stroke-width:.09525;stroke-miterlimit:41.994751"/><path d="M256.794 62.76975A.47625 .47625 0 00255.8415 62.76975A.47625 .47625 0 00256.794 62.76975z" fill="rgba(72,0,182,.24705882)"/><path d="M244.12575 97.82175H268.50975V73.43775H244.12575z" style="fill:rgba(72,0,182,.24705882);stroke:rgba(72,0,182,.24705882);stroke-width:.09525;stroke-miterlimit:41.994751"/><path d="M256.794 85.62975A.47625 .47625 0 00255.8415 85.62975A.47625 .47625 0 00256.794 85.62975z" fill="rgba(72,0,182,.24705882)"/><path d="M288.32175 73.43775H292.89375V52.10175H288.32175z" style="fill:rgba(72,0,182,.24705882);stroke:rgba(72,0,182,.24705882);stroke-width:.09525;stroke-miterlimit:41.994751"/><path d="M291.084 62.76975A.47625 .47625 0 00290.1315 62.76975A.47625 .47625 0 00291.084 62.76975z" fill="rgba(72,0,182,.24705882)"/><path d="M292.89375 97.82175H317.27775V73.43775H292.89375z" style="fill:rgba(72,0,182,.24705882);stroke:rgba(72,0,182,.24705882);stroke-width:.09525;stroke-miterlimit:41.994751"/><path d="M305.562 85.62975A.47625 .47625 0 00304.6095 85.62975A.47625 .47625 0 00305.562 85.62975z" fill="rgba(72,0,182,.24705882)"/><path d="M280.70175 62.76975H290.60775" style="fill:none;stroke:rgba(72,0,182,.24705882);stroke-width:.09525;stroke-miterlimit:41.994751"/><path d="M270.79575 62.76975H280.70175" style="fill:none;stroke:rgba(72,0,182,.24705882);stroke-width:.09525;stroke-miterlimit:41.994751"/><path d="M280.70175 50.57775H287.55975" style="fill:none;stroke:rgba(72,0,182,.24705882);stroke-width:.09525;stroke-miterlimit:41.994751"/><path d="M280.70175 62.76975L273.84375 50.57775" style="fill:none;stroke:rgba(72,0,182,.24705882);stroke-width:.09525;stroke-miterlimit:41.994751"/><path d="M290.60775 62.76975H305.08575" style="fill:none;stroke:rgba(72,0,182,.24705882);stroke-width:.09525;stroke-miterlimit:41.994751"/><path d="M256.31775 62.76975V85.62975" style="fill:none;stroke:rgba(72,0,182,.24705882);stroke-width:.09525;stroke-miterlimit:41.994751"/><path d="M290.60775 62.76975L280.69223 86.31555" style="fill:none;stroke:rgba(72,0,182,.24705882);stroke-width:.09525;stroke-miterlimit:41.994751"/><path d="M280.69223 86.31555L270.79575 62.76975" style="fill:none;stroke:rgba(72,0,182,.24705882);stroke-width:.09525;stroke-miterlimit:41.994751"/><path d="M280.70175 62.76975L280.69223 86.31555" style="fill:none;stroke:rgba(72,0,182,.24705882);stroke-width:.09525;stroke-miterlimit:41.994751"/><path d="M305.08575 62.76975V85.62975" style="fill:none;stroke:rgba(72,0,182,.24705882);stroke-width:.09525;stroke-miterlimit:41.994751"/><path d="M280.70175 50.57775V62.76975" style="fill:none;stroke:rgba(72,0,182,.24705882);stroke-width:.09525;stroke-miterlimit:41.994751"/><path d="M287.55975 50.57775L280.70175 62.76975" style="fill:none;stroke:rgba(72,0,182,.24705882);stroke-width:.09525;stroke-miterlimit:41.994751"/><path d="M270.79575 62.76975H256.31775" style="fill:none;stroke:rgba(72,0,182,.24705882);stroke-width:.09525;stroke-miterlimit:41.994751"/><path d="M273.84375 50.57775H280.70175" style="fill:none;stroke:rgba(72,0,182,.24705882);stroke-width:.09525;stroke-miterlimit:41.994751"/><path d="M273.51986 92.67825H287.72169V78.428887H273.51986z" style="fill:rgba(64,0,186,.24705882);stroke:rgba(64,0,186,.24705882);stroke-width:.09525;stroke-miterlimit:41.994751"/><path d="M281.1018 85.55355A.47625 .47625 0 00280.1493 85.55355A.47625 .47625 0 00281.1018 85.55355z" fill="rgba(64,0,186,.24705882)"/><path d="M780.57375 201.45375H878.10975V189.26175H780.57375z" style="fill:rgba(56,0,198,.24705882);stroke:rgba(56,0,198,.24705882);stroke-width:.09525;stroke-miterlimit:41.994751"/><path d="M835.33298 195.35775A.47625 .47625 0 00834.38048 195.35775A.47625 .47625 0 00835.33298 195.35775z" fill="rgba(56,0,198,.24705882)"/><path d="M780.57375 225.83775H878.10975V201.45375H780.57375z" style="fill:rgba(56,0,198,.24705882);stroke:rgba(56,0,198,.24705882);stroke-width:.09525;stroke-miterlimit:41.994751"/><path d="M835.33298 213.64575A.47625 .47625 0 00834.38048 213.64575A.47625 .47625 0 00835.33298 213.64575z" fill="rgba(56,0,198,.24705882)"/><path d="M780.57375 189.26175H878.10975V164.87775H780.57375z" style="fill:rgba(56,0,198,.24705882);stroke:rgba(56,0,198,.24705882);stroke-width:.09525;stroke-miterlimit:41.994751"/><path d="M835.33298 177.06975A.47625 .47625 0 00834.38048 177.06975A.47625 .47625 0 00835.33298 177.06975z" fill="rgba(56,0,198,.24705882)"/><path d="M834.85673 213.64575V195.35775" style="fill:none;stroke:rgba(56,0,198,.24705882);stroke-width:.09525;stroke-miterlimit:41.994751"/><path d="M834.85673 195.35775V177.06975" style="fill:none;stroke:rgba(56,0,198,.24705882);stroke-width:.09525;stroke-miterlimit:41.994751"/><path d="M834.85673 195.35775L878.55743 197.36753" style="fill:none;stroke:rgba(52,0,198,.24705882);stroke-width:.09525;stroke-miterlimit:41.994751"/><path d="M878.10975 201.45375H879.63375V189.26175H878.10975z" style="fill:rgba(52,0,198,.24705882);stroke:rgba(52,0,198,.24705882);stroke-width:.09525;stroke-miterlimit:41.994751"/><path d="M879.03368 197.36753A.47625 .47625 0 00878.08118 197.36753A.47625 .47625 0 00879.03368 197.36753z" fill="rgba(52,0,198,.24705882)"/><path d="M2258.2156 73.561575H2313.7273V.36195H2258.2156z" style="fill:rgba(32,0,222,.24705882);stroke:rgba(32,0,222,.24705882);stroke-width:.09525;stroke-miterlimit:41.994751"/><path d="M2272.2269 .74295A.47625 .47625 0 002271.2744 .74295A.47625 .47625 0 002272.2269 .74295z" fill="rgba(32,0,222,.24705882)"/><path d="M.28575 231.93375H73.43775V209.07375H.28575z" style="fill:rgba(20,0,234,.24705882);stroke:rgba(20,0,234,.24705882);stroke-width:.09525;stroke-miterlimit:41.994751"/><path d="M34.890075 220.7895A.47625 .47625 0 0033.937575 220.7895A.47625 .47625 0 0034.890075 220.7895z" fill="rgba(20,0,234,.24705882)"/><path d="M.28575 206.02575H73.43775V183.16575H.28575z" style="fill:rgba(20,0,234,.24705882);stroke:rgba(20,0,234,.24705882);stroke-width:.09525;stroke-miterlimit:41.994751"/><path d="M34.890075 194.59575A.47625 .47625 0 0033.937575 194.59575A.47625 .47625 0 0034.890075 194.59575z" fill="rgba(20,0,234,.24705882)"/><path d="M2292.4008 75.0189L2271.7506 .74295" style="fill:none;stroke:rgba(16,0,238,.24705882);stroke-width:.09525;stroke-miterlimit:41.994751"/><path d="M2271.0458 119.16728H2313.7273V76.48575H2271.0458z" style="fill:rgba(0,0,255,.24705882);stroke:rgba(0,0,255,.24705882);stroke-width:.09525;stroke-miterlimit:41.994751"/><path d="M2292.8771 97.7265A.47625 .47625 0 002291.9246 97.7265A.47625 .47625 0 002292.8771 97.7265z" fill="rgba(0,0,255,.24705882)"/><path d="M2271.0458 76.48575H2313.7273V73.561575H2271.0458z" style="fill:rgba(0,0,255,.24705882);stroke:rgba(0,0,255,.24705882);stroke-width:.09525;stroke-miterlimit:41.994751"/><path d="M2292.8771 75.0189A.47625 .47625 0 002291.9246 75.0189A.47625 .47625 0 002292.8771 75.0189z" fill="rgba(0,0,255,.24705882)"/><path d="M2292.4008 97.7265V75.0189" style="fill:none;stroke:rgba(0,0,255,.24705882);stroke-width:.09525;stroke-miterlimit:41.994751"/></svg>