<svg version="1.1" width="530.1615mm" height="2123.1225mm" viewBox="0 0 530.1615 2123.1225" xmlns="http://www.w3.org/2000/svg" xmlns:xlink="http://www.w3.org/1999/xlink"><path d="M378.714 1232.6302H380.619" style="fill:none;stroke:#f00;stroke-width:.09525;stroke-miterlimit:41.994751"/><path d="M378.714 1232.6302V1230.7252" style="fill:none;stroke:#0f0;stroke-width:.09525;stroke-miterlimit:41.994751"/><path d="M185.90895 154.6098H208.22602V135.11212H185.90895z" style="fill:rgba(255,0,0,.24705882);stroke:rgba(255,0,0,.24705882);stroke-width:.09525;stroke-miterlimit:41.994751"/><path d="M197.5485 144.8562A.47625 .47625 0 00196.596 144.8562A.47625 .47625 0 00197.5485 144.8562z" fill="rgba(255,0,0,.24705882)"/><path d="M320.65913 953.39535H345.51938V589.12125H320.65913z" style="fill:rgba(255,0,0,.24705882);stroke:rgba(255,0,0,.24705882);stroke-width:.09525;stroke-miterlimit:41.994751"/><path d="M333.5655 771.2583A.47625 .47625 0 00332.613 771.2583A.47625 .47625 0 00333.5655 771.2583z" fill="rgba(255,0,0,.24705882)"/><path d="M320.65913 589.12125H345.51938V553.52632H320.65913z" style="fill:rgba(255,0,0,.24705882);stroke:rgba(255,0,0,.24705882);stroke-width:.09525;stroke-miterlimit:41.994751"/><path d="M333.5655 571.31903A.47625 .47625 0 00332.613 571.31903A.47625 .47625 0 00333.5655 571.31903z" fill="rgba(255,0,0,.24705882)"/><path d="M302.44732 589.12125H320.65912V553.52632H302.44732z" style="fill:rgba(255,0,0,.24705882);stroke:rgba(255,0,0,.24705882);stroke-width:.09525;stroke-miterlimit:41.994751"/><path d="M312.02947 571.31903A.47625 .47625 0 00311.07698 571.31903A.47625 .47625 0 00312.02947 571.31903z" fill="rgba(255,0,0,.24705882)"/><path d="M302.44732 553.52632H345.51937V491.04232H302.44732z" style="fill:rgba(255,0,0,.24705882);stroke:rgba(255,0,0,.24705882);stroke-width:.09525;stroke-miterlimit:41.994751"/><path d="M324.4596 522.28433A.47625 .47625 0 00323.5071 522.28433A.47625 .47625 0 00324.4596 522.28433z" fill="rgba(255,0,0,.24705882)"/><path d="M302.44732 491.04232H331.78432V471.04935H302.44732z" style="fill:rgba(255,0,0,.24705882);stroke:rgba(255,0,0,.24705882);stroke-width:.09525;stroke-miterlimit:41.994751"/><path d="M317.59207 481.04108A.47625 .47625 0 00316.63957 481.04108A.47625 .47625 0 00317.59207 481.04108z" fill="rgba(255,0,0,.24705882)"/><path d="M331.78433 471.04935H343.23338V456.18082H331.78433z" style="fill:rgba(255,0,0,.24705882);stroke:rgba(255,0,0,.24705882);stroke-width:.09525;stroke-miterlimit:41.994751"/><path d="M337.9851 463.61033A.47625 .47625 0 00337.0326 463.61033A.47625 .47625 0 00337.9851 463.61033z" fill="rgba(255,0,0,.24705882)"/><path d="M302.44732 471.04935H331.78432V456.18082H302.44732z" style="fill:rgba(255,0,0,.24705882);stroke:rgba(255,0,0,.24705882);stroke-width:.09525;stroke-miterlimit:41.994751"/><path d="M317.59207 463.61033A.47625 .47625 0 00316.63957 463.61033A.47625 .47625 0 00317.59207 463.61033z" fill="rgba(255,0,0,.24705882)"/><path d="M302.44732 456.18082H343.23337V424.51972H302.44732z" style="fill:rgba(255,0,0,.24705882);stroke:rgba(255,0,0,.24705882);stroke-width:.09525;stroke-miterlimit:41.994751"/><path d="M323.3166 440.35028A.47625 .47625 0 00322.3641 440.35028A.47625 .47625 0 00323.3166 440.35028z" fill="rgba(255,0,0,.24705882)"/><path d="M283.7307 456.18082H302.44733V424.51972H283.7307z" style="fill:rgba(255,0,0,.24705882);stroke:rgba(255,0,0,.24705882);stroke-width:.09525;stroke-miterlimit:41.994751"/><path d="M293.57002 440.35028A.47625 .47625 0 00292.61753 440.35028A.47625 .47625 0 00293.57002 440.35028z" fill="rgba(255,0,0,.24705882)"/><path d="M283.7307 424.51972H302.44733V375.0945H283.7307z" style="fill:rgba(255,0,0,.24705882);stroke:rgba(255,0,0,.24705882);stroke-width:.09525;stroke-miterlimit:41.994751"/><path d="M293.57002 399.80235A.47625 .47625 0 00292.61753 399.80235A.47625 .47625 0 00293.57002 399.80235z" fill="rgba(255,0,0,.24705882)"/><path d="M243.51615 424.51972H283.7307V375.0945H243.51615z" style="fill:rgba(255,0,0,.24705882);stroke:rgba(255,0,0,.24705882);stroke-width:.09525;stroke-miterlimit:41.994751"/><path d="M264.09967 399.80235A.47625 .47625 0 00263.14718 399.80235A.47625 .47625 0 00264.09967 399.80235z" fill="rgba(255,0,0,.24705882)"/><path d="M243.51615 375.0945H283.7307V364.52175H243.51615z" style="fill:rgba(255,0,0,.24705882);stroke:rgba(255,0,0,.24705882);stroke-width:.09525;stroke-miterlimit:41.994751"/><path d="M264.09967 369.80813A.47625 .47625 0 00263.14718 369.80813A.47625 .47625 0 00264.09967 369.80813z" fill="rgba(255,0,0,.24705882)"/><path d="M228.981 375.0945H243.51615V364.52175H228.981z" style="fill:rgba(255,0,0,.24705882);stroke:rgba(255,0,0,.24705882);stroke-width:.09525;stroke-miterlimit:41.994751"/><path d="M236.72482 369.80813A.47625 .47625 0 00235.77232 369.80813A.47625 .47625 0 00236.72482 369.80813z" fill="rgba(255,0,0,.24705882)"/><path d="M.26670465 41.3385H31.289625V.29523779H.26670465z" style="fill:rgba(255,0,0,.24705882);stroke:rgba(255,0,0,.24705882);stroke-width:.09525;stroke-miterlimit:41.994751"/><path d="M16.259175 20.812125A.47625 .47625 0 0015.306675 20.812125A.47625 .47625 0 0016.259175 20.812125z" fill="rgba(255,0,0,.24705882)"/><path d="M228.981 364.52175H243.51615V298.60875H228.981z" style="fill:rgba(255,0,0,.24705882);stroke:rgba(255,0,0,.24705882);stroke-width:.09525;stroke-miterlimit:41.994751"/><path d="M236.72482 331.56525A.47625 .47625 0 00235.77232 331.56525A.47625 .47625 0 00236.72482 331.56525z" fill="rgba(255,0,0,.24705882)"/><path d="M31.289625 41.3385H66.065409V.29523779H31.289625z" style="fill:rgba(255,0,0,.24705882);stroke:rgba(255,0,0,.24705882);stroke-width:.09525;stroke-miterlimit:41.994751"/><path d="M49.158525 20.812125A.47625 .47625 0 0048.206025 20.812125A.47625 .47625 0 0049.158525 20.812125z" fill="rgba(255,0,0,.24705882)"/><path d="M228.981 298.60875H243.51615V259.26097H228.981z" style="fill:rgba(255,0,0,.24705882);stroke:rgba(255,0,0,.24705882);stroke-width:.09525;stroke-miterlimit:41.994751"/><path d="M236.72482 278.9301A.47625 .47625 0 00235.77232 278.9301A.47625 .47625 0 00236.72482 278.9301z" fill="rgba(255,0,0,.24705882)"/><path d="M31.289625 86.487H66.065409V41.3385H31.289625z" style="fill:rgba(255,0,0,.24705882);stroke:rgba(255,0,0,.24705882);stroke-width:.09525;stroke-miterlimit:41.994751"/><path d="M49.158525 63.91275A.47625 .47625 0 0048.206025 63.91275A.47625 .47625 0 0049.158525 63.91275z" fill="rgba(255,0,0,.24705882)"/><path d="M243.51615 259.26097H253.06973V251.36475H243.51615z" style="fill:rgba(255,0,0,.24705882);stroke:rgba(255,0,0,.24705882);stroke-width:.09525;stroke-miterlimit:41.994751"/><path d="M248.77395 255.3081A.47625 .47625 0 00247.82145 255.3081A.47625 .47625 0 00248.77395 255.3081z" fill="rgba(255,0,0,.24705882)"/><path d="M31.289625 116.18595H66.065409V86.487H31.289625z" style="fill:rgba(255,0,0,.24705882);stroke:rgba(255,0,0,.24705882);stroke-width:.09525;stroke-miterlimit:41.994751"/><path d="M49.158525 101.33647A.47625 .47625 0 0048.206025 101.33647A.47625 .47625 0 0049.158525 101.33647z" fill="rgba(255,0,0,.24705882)"/><path d="M228.981 251.36475H253.06973V216.39847H228.981z" style="fill:rgba(255,0,0,.24705882);stroke:rgba(255,0,0,.24705882);stroke-width:.09525;stroke-miterlimit:41.994751"/><path d="M241.50637 233.87685A.47625 .47625 0 00240.55388 233.87685A.47625 .47625 0 00241.50637 233.87685z" fill="rgba(255,0,0,.24705882)"/><path d="M66.0654 116.18595H88.611075V86.487H66.0654z" style="fill:rgba(255,0,0,.24705882);stroke:rgba(255,0,0,.24705882);stroke-width:.09525;stroke-miterlimit:41.994751"/><path d="M77.81925 101.33647A.47625 .47625 0 0076.86675 101.33647A.47625 .47625 0 0077.81925 101.33647z" fill="rgba(255,0,0,.24705882)"/><path d="M228.981 259.26097H243.51615V251.36475H228.981z" style="fill:rgba(255,0,0,.24705882);stroke:rgba(255,0,0,.24705882);stroke-width:.09525;stroke-miterlimit:41.994751"/><path d="M236.72482 255.3081A.47625 .47625 0 00235.77232 255.3081A.47625 .47625 0 00236.72482 255.3081z" fill="rgba(255,0,0,.24705882)"/><path d="M66.0654 135.11212H88.611075V116.18595H66.0654z" style="fill:rgba(255,0,0,.24705882);stroke:rgba(255,0,0,.24705882);stroke-width:.09525;stroke-miterlimit:41.994751"/><path d="M77.81925 125.64427A.47625 .47625 0 0076.86675 125.64427A.47625 .47625 0 0077.81925 125.64427z" fill="rgba(255,0,0,.24705882)"/><path d="M222.9993 216.39847H228.981V182.82285H222.9993z" style="fill:rgba(255,0,0,.24705882);stroke:rgba(255,0,0,.24705882);stroke-width:.09525;stroke-miterlimit:41.994751"/><path d="M226.4664 199.6059A.47625 .47625 0 00225.5139 199.6059A.47625 .47625 0 00226.4664 199.6059z" fill="rgba(255,0,0,.24705882)"/><path d="M88.611075 135.11212H185.90895V116.18595H88.611075z" style="fill:rgba(255,0,0,.24705882);stroke:rgba(255,0,0,.24705882);stroke-width:.09525;stroke-miterlimit:41.994751"/><path d="M137.74102 125.64427A.47625 .47625 0 00136.78852 125.64427A.47625 .47625 0 00137.74102 125.64427z" fill="rgba(255,0,0,.24705882)"/><path d="M228.981 216.39847H253.06973V182.82285H228.981z" style="fill:rgba(255,0,0,.24705882);stroke:rgba(255,0,0,.24705882);stroke-width:.09525;stroke-miterlimit:41.994751"/><path d="M241.50637 199.6059A.47625 .47625 0 00240.55388 199.6059A.47625 .47625 0 00241.50637 199.6059z" fill="rgba(255,0,0,.24705882)"/><path d="M228.981 182.82285H253.06973V160.54387H228.981z" style="fill:rgba(255,0,0,.24705882);stroke:rgba(255,0,0,.24705882);stroke-width:.09525;stroke-miterlimit:41.994751"/><path d="M241.50637 171.6786A.47625 .47625 0 00240.55388 171.6786A.47625 .47625 0 00241.50637 171.6786z" fill="rgba(255,0,0,.24705882)"/><path d="M88.611075 116.18595H185.90895V87.80145H88.611075z" style="fill:rgba(255,0,0,.24705882);stroke:rgba(255,0,0,.24705882);stroke-width:.09525;stroke-miterlimit:41.994751"/><path d="M137.74102 101.9937A.47625 .47625 0 00136.78852 101.9937A.47625 .47625 0 00137.74102 101.9937z" fill="rgba(255,0,0,.24705882)"/><path d="M208.22602 160.54387H228.981V154.6098H208.22602z" style="fill:rgba(255,0,0,.24705882);stroke:rgba(255,0,0,.24705882);stroke-width:.09525;stroke-miterlimit:41.994751"/><path d="M219.08452 157.57207A.47625 .47625 0 00218.13202 157.57207A.47625 .47625 0 00219.08452 157.57207z" fill="rgba(255,0,0,.24705882)"/><path d="M208.22602 182.82285H228.981V160.54387H208.22602z" style="fill:rgba(255,0,0,.24705882);stroke:rgba(255,0,0,.24705882);stroke-width:.09525;stroke-miterlimit:41.994751"/><path d="M219.08452 171.6786A.47625 .47625 0 00218.13202 171.6786A.47625 .47625 0 00219.08452 171.6786z" fill="rgba(255,0,0,.24705882)"/><path d="M185.90895 116.18595H203.6064V87.80145H185.90895z" style="fill:rgba(255,0,0,.24705882);stroke:rgba(255,0,0,.24705882);stroke-width:.09525;stroke-miterlimit:41.994751"/><path d="M195.23392 101.9937A.47625 .47625 0 00194.28143 101.9937A.47625 .47625 0 00195.23392 101.9937z" fill="rgba(255,0,0,.24705882)"/><path d="M185.90895 135.11212H208.22602V116.18595H185.90895z" style="fill:rgba(255,0,0,.24705882);stroke:rgba(255,0,0,.24705882);stroke-width:.09525;stroke-miterlimit:41.994751"/><path d="M197.5485 125.64427A.47625 .47625 0 00196.596 125.64427A.47625 .47625 0 00197.5485 125.64427z" fill="rgba(255,0,0,.24705882)"/><path d="M208.22602 154.6098H228.981V135.11212H208.22602z" style="fill:rgba(255,0,0,.24705882);stroke:rgba(255,0,0,.24705882);stroke-width:.09525;stroke-miterlimit:41.994751"/><path d="M219.08452 144.8562A.47625 .47625 0 00218.13202 144.8562A.47625 .47625 0 00219.08452 144.8562z" fill="rgba(255,0,0,.24705882)"/><path d="M218.60827 171.6786V157.57207" style="fill:none;stroke:rgba(255,0,0,.24705882);stroke-width:.09525;stroke-miterlimit:41.994751"/><path d="M236.24857 278.9301V331.56525" style="fill:none;stroke:rgba(255,0,0,.24705882);stroke-width:.09525;stroke-miterlimit:41.994751"/><path d="M197.07225 125.64427V144.8562" style="fill:none;stroke:rgba(255,0,0,.24705882);stroke-width:.09525;stroke-miterlimit:41.994751"/><path d="M323.98335 522.28432L317.11582 481.04107" style="fill:none;stroke:rgba(255,0,0,.24705882);stroke-width:.09525;stroke-miterlimit:41.994751"/><path d="M311.55322 571.31903H333.08925" style="fill:none;stroke:rgba(255,0,0,.24705882);stroke-width:.09525;stroke-miterlimit:41.994751"/><path d="M218.60827 171.6786H241.03012" style="fill:none;stroke:rgba(255,0,0,.24705882);stroke-width:.09525;stroke-miterlimit:41.994751"/><path d="M137.26477 101.9937H194.75768" style="fill:none;stroke:rgba(255,0,0,.24705882);stroke-width:.09525;stroke-miterlimit:41.994751"/><path d="M218.60827 157.57207V144.8562" style="fill:none;stroke:rgba(255,0,0,.24705882);stroke-width:.09525;stroke-miterlimit:41.994751"/><path d="M137.26477 125.64427H197.07225" style="fill:none;stroke:rgba(255,0,0,.24705882);stroke-width:.09525;stroke-miterlimit:41.994751"/><path d="M241.03012 171.6786V199.6059" style="fill:none;stroke:rgba(255,0,0,.24705882);stroke-width:.09525;stroke-miterlimit:41.994751"/><path d="M137.26477 125.64427V101.9937" style="fill:none;stroke:rgba(255,0,0,.24705882);stroke-width:.09525;stroke-miterlimit:41.994751"/><path d="M241.03012 199.6059H225.99015" style="fill:none;stroke:rgba(255,0,0,.24705882);stroke-width:.09525;stroke-miterlimit:41.994751"/><path d="M77.343 125.64427H137.26477" style="fill:none;stroke:rgba(255,0,0,.24705882);stroke-width:.09525;stroke-miterlimit:41.994751"/><path d="M77.343 101.33647V125.64427" style="fill:none;stroke:rgba(255,0,0,.24705882);stroke-width:.09525;stroke-miterlimit:41.994751"/><path d="M236.24857 255.3081L241.03012 233.87685" style="fill:none;stroke:rgba(255,0,0,.24705882);stroke-width:.09525;stroke-miterlimit:41.994751"/><path d="M236.24857 255.3081H248.2977" style="fill:none;stroke:rgba(255,0,0,.24705882);stroke-width:.09525;stroke-miterlimit:41.994751"/><path d="M236.24857 255.3081V278.9301" style="fill:none;stroke:rgba(255,0,0,.24705882);stroke-width:.09525;stroke-miterlimit:41.994751"/><path d="M333.08925 571.31903L323.98335 522.28432" style="fill:none;stroke:rgba(255,0,0,.24705882);stroke-width:.09525;stroke-miterlimit:41.994751"/><path d="M48.682275 101.33647H77.343" style="fill:none;stroke:rgba(255,0,0,.24705882);stroke-width:.09525;stroke-miterlimit:41.994751"/><path d="M241.03012 233.87685V199.6059" style="fill:none;stroke:rgba(255,0,0,.24705882);stroke-width:.09525;stroke-miterlimit:41.994751"/><path d="M48.682275 63.91275V101.33647" style="fill:none;stroke:rgba(255,0,0,.24705882);stroke-width:.09525;stroke-miterlimit:41.994751"/><path d="M248.2977 255.3081L241.03012 233.87685" style="fill:none;stroke:rgba(255,0,0,.24705882);stroke-width:.09525;stroke-miterlimit:41.994751"/><path d="M48.682275 20.812125V63.91275" style="fill:none;stroke:rgba(255,0,0,.24705882);stroke-width:.09525;stroke-miterlimit:41.994751"/><path d="M323.98335 522.28432L311.55322 571.31903" style="fill:none;stroke:rgba(255,0,0,.24705882);stroke-width:.09525;stroke-miterlimit:41.994751"/><path d="M15.782925 20.812125H48.682275" style="fill:none;stroke:rgba(255,0,0,.24705882);stroke-width:.09525;stroke-miterlimit:41.994751"/><path d="M236.24857 331.56525V369.80812" style="fill:none;stroke:rgba(255,0,0,.24705882);stroke-width:.09525;stroke-miterlimit:41.994751"/><path d="M337.50885 463.61032L322.84035 440.35028" style="fill:none;stroke:rgba(255,0,0,.24705882);stroke-width:.09525;stroke-miterlimit:41.994751"/><path d="M236.24857 369.80812H263.62342" style="fill:none;stroke:rgba(255,0,0,.24705882);stroke-width:.09525;stroke-miterlimit:41.994751"/><path d="M333.08925 771.2583V571.31903" style="fill:none;stroke:rgba(255,0,0,.24705882);stroke-width:.09525;stroke-miterlimit:41.994751"/><path d="M263.62342 369.80812V399.80235" style="fill:none;stroke:rgba(255,0,0,.24705882);stroke-width:.09525;stroke-miterlimit:41.994751"/><path d="M317.11582 463.61032V481.04107" style="fill:none;stroke:rgba(255,0,0,.24705882);stroke-width:.09525;stroke-miterlimit:41.994751"/><path d="M263.62342 399.80235H293.09377" style="fill:none;stroke:rgba(255,0,0,.24705882);stroke-width:.09525;stroke-miterlimit:41.994751"/><path d="M197.07225 144.8562H218.60827" style="fill:none;stroke:rgba(255,0,0,.24705882);stroke-width:.09525;stroke-miterlimit:41.994751"/><path d="M293.09377 399.80235V440.35028" style="fill:none;stroke:rgba(255,0,0,.24705882);stroke-width:.09525;stroke-miterlimit:41.994751"/><path d="M317.11582 463.61032H337.50885" style="fill:none;stroke:rgba(255,0,0,.24705882);stroke-width:.09525;stroke-miterlimit:41.994751"/><path d="M293.09377 440.35028H322.84035" style="fill:none;stroke:rgba(255,0,0,.24705882);stroke-width:.09525;stroke-miterlimit:41.994751"/><path d="M322.84035 440.35028L317.11582 463.61032" style="fill:none;stroke:rgba(255,0,0,.24705882);stroke-width:.09525;stroke-miterlimit:41.994751"/><path d="M328.90778 971.68335L333.08925 771.2583" style="fill:none;stroke:rgba(255,0,0,.24705882);stroke-width:.09525;stroke-miterlimit:41.994751"/><path d="M427.482 1177.7662H436.626V1150.3342H427.482z" style="fill:rgba(250,0,0,.24705882);stroke:rgba(250,0,0,.24705882);stroke-width:.09525;stroke-miterlimit:41.994751"/><path d="M432.53025 1164.0502A.47625 .47625 0 00431.57775 1164.0502A.47625 .47625 0 00432.53025 1164.0502z" fill="rgba(250,0,0,.24705882)"/><path d="M320.65913 1049.7503H345.51938V996.90555H320.65913z" style="fill:rgba(250,0,4,.24705882);stroke:rgba(250,0,4,.24705882);stroke-width:.09525;stroke-miterlimit:41.994751"/><path d="M333.5655 1023.3279A.47625 .47625 0 00332.613 1023.3279A.47625 .47625 0 00333.5655 1023.3279z" fill="rgba(250,0,4,.24705882)"/><path d="M320.65913 989.96182H337.15643V953.39535H320.65913z" style="fill:rgba(250,0,4,.24705882);stroke:rgba(250,0,4,.24705882);stroke-width:.09525;stroke-miterlimit:41.994751"/><path d="M329.38403 971.68335A.47625 .47625 0 00328.43153 971.68335A.47625 .47625 0 00329.38403 971.68335z" fill="rgba(250,0,4,.24705882)"/><path d="M320.65913 1095.6322H345.51938V1049.7503H320.65913z" style="fill:rgba(250,0,4,.24705882);stroke:rgba(250,0,4,.24705882);stroke-width:.09525;stroke-miterlimit:41.994751"/><path d="M333.5655 1072.6864A.47625 .47625 0 00332.613 1072.6864A.47625 .47625 0 00333.5655 1072.6864z" fill="rgba(250,0,4,.24705882)"/><path d="M345.51937 1095.6322H378.714V1049.7503H345.51937z" style="fill:rgba(250,0,4,.24705882);stroke:rgba(250,0,4,.24705882);stroke-width:.09525;stroke-miterlimit:41.994751"/><path d="M362.5977 1072.6864A.47625 .47625 0 00361.6452 1072.6864A.47625 .47625 0 00362.5977 1072.6864z" fill="rgba(250,0,4,.24705882)"/><path d="M300.2661 1095.6322H320.65913V1072.696H300.2661z" style="fill:rgba(250,0,4,.24705882);stroke:rgba(250,0,4,.24705882);stroke-width:.09525;stroke-miterlimit:41.994751"/><path d="M310.94362 1084.1641A.47625 .47625 0 00309.99113 1084.1641A.47625 .47625 0 00310.94362 1084.1641z" fill="rgba(250,0,4,.24705882)"/><path d="M300.2661 1072.696H320.65913V1049.7502H300.2661z" style="fill:rgba(250,0,4,.24705882);stroke:rgba(250,0,4,.24705882);stroke-width:.09525;stroke-miterlimit:41.994751"/><path d="M310.94362 1061.2183A.47625 .47625 0 00309.99113 1061.2183A.47625 .47625 0 00310.94362 1061.2183z" fill="rgba(250,0,4,.24705882)"/><path d="M229.362 1095.6322H247.90717V1072.696H229.362z" style="fill:rgba(250,0,4,.24705882);stroke:rgba(250,0,4,.24705882);stroke-width:.09525;stroke-miterlimit:41.994751"/><path d="M239.1156 1084.1641A.47625 .47625 0 00238.1631 1084.1641A.47625 .47625 0 00239.1156 1084.1641z" fill="rgba(250,0,4,.24705882)"/><path d="M247.90717 1095.6322H300.2661V1072.696H247.90717z" style="fill:rgba(250,0,4,.24705882);stroke:rgba(250,0,4,.24705882);stroke-width:.09525;stroke-miterlimit:41.994751"/><path d="M274.56765 1084.1641A.47625 .47625 0 00273.61515 1084.1641A.47625 .47625 0 00274.56765 1084.1641z" fill="rgba(250,0,4,.24705882)"/><path d="M333.08925 1072.6864V1023.3279" style="fill:none;stroke:rgba(250,0,4,.24705882);stroke-width:.09525;stroke-miterlimit:41.994751"/><path d="M310.46738 1061.2183L333.08925 1072.6864" style="fill:none;stroke:rgba(250,0,4,.24705882);stroke-width:.09525;stroke-miterlimit:41.994751"/><path d="M333.08925 1072.6864H362.12145" style="fill:none;stroke:rgba(250,0,4,.24705882);stroke-width:.09525;stroke-miterlimit:41.994751"/><path d="M310.46738 1084.1641V1061.2183" style="fill:none;stroke:rgba(250,0,4,.24705882);stroke-width:.09525;stroke-miterlimit:41.994751"/><path d="M333.08925 1072.6864L310.46738 1084.1641" style="fill:none;stroke:rgba(250,0,4,.24705882);stroke-width:.09525;stroke-miterlimit:41.994751"/><path d="M274.0914 1084.1641H310.46738" style="fill:none;stroke:rgba(250,0,4,.24705882);stroke-width:.09525;stroke-miterlimit:41.994751"/><path d="M238.63935 1084.1641H274.0914" style="fill:none;stroke:rgba(250,0,4,.24705882);stroke-width:.09525;stroke-miterlimit:41.994751"/><path d="M450.9135 1164.0503H432.054" style="fill:none;stroke:rgba(250,0,4,.24705882);stroke-width:.09525;stroke-miterlimit:41.994751"/><path d="M436.626 1177.7662H465.201V1150.3342H436.626z" style="fill:rgba(246,0,8,.24705882);stroke:rgba(246,0,8,.24705882);stroke-width:.09525;stroke-miterlimit:41.994751"/><path d="M451.38975 1164.0502A.47625 .47625 0 00450.43725 1164.0502A.47625 .47625 0 00451.38975 1164.0502z" fill="rgba(246,0,8,.24705882)"/><path d="M436.626 1150.3342H465.201V1142.6761H436.626z" style="fill:rgba(246,0,8,.24705882);stroke:rgba(246,0,8,.24705882);stroke-width:.09525;stroke-miterlimit:41.994751"/><path d="M451.38975 1146.5052A.47625 .47625 0 00450.43725 1146.5052A.47625 .47625 0 00451.38975 1146.5052z" fill="rgba(246,0,8,.24705882)"/><path d="M450.9135 1164.0503V1146.5052" style="fill:none;stroke:rgba(246,0,8,.24705882);stroke-width:.09525;stroke-miterlimit:41.994751"/><path d="M337.73745 993.42892L328.90778 971.68335" style="fill:none;stroke:rgba(246,0,8,.24705882);stroke-width:.09525;stroke-miterlimit:41.994751"/><path d="M328.94588 993.42892L328.90778 971.68335" style="fill:none;stroke:rgba(246,0,8,.24705882);stroke-width:.09525;stroke-miterlimit:41.994751"/><path d="M333.08925 1023.3279L337.73745 993.42892" style="fill:none;stroke:rgba(246,0,8,.24705882);stroke-width:.09525;stroke-miterlimit:41.994751"/><path d="M333.08925 1023.3279L328.94588 993.42892" style="fill:none;stroke:rgba(246,0,8,.24705882);stroke-width:.09525;stroke-miterlimit:41.994751"/><path d="M450.9135 1164.0503L476.0976 1154.1824" style="fill:none;stroke:rgba(242,0,8,.24705882);stroke-width:.09525;stroke-miterlimit:41.994751"/><path d="M450.9135 1146.5052L476.0976 1154.1824" style="fill:none;stroke:rgba(242,0,8,.24705882);stroke-width:.09525;stroke-miterlimit:41.994751"/><path d="M336.10868 996.90555H339.36622V989.96182H336.10868z" style="fill:rgba(242,0,8,.24705882);stroke:rgba(242,0,8,.24705882);stroke-width:.09525;stroke-miterlimit:41.994751"/><path d="M338.2137 993.42892A.47625 .47625 0 00337.2612 993.42892A.47625 .47625 0 00338.2137 993.42892z" fill="rgba(242,0,8,.24705882)"/><path d="M326.43128 996.90555H331.46048V989.96182H326.43128z" style="fill:rgba(242,0,8,.24705882);stroke:rgba(242,0,8,.24705882);stroke-width:.09525;stroke-miterlimit:41.994751"/><path d="M329.42212 993.42892A.47625 .47625 0 00328.46963 993.42892A.47625 .47625 0 00329.42212 993.42892z" fill="rgba(242,0,8,.24705882)"/><path d="M465.201 1220.4382H482.4984V1198.3402H465.201z" style="fill:rgba(242,0,12,.24705882);stroke:rgba(242,0,12,.24705882);stroke-width:.09525;stroke-miterlimit:41.994751"/><path d="M474.32595 1209.3892A.47625 .47625 0 00473.37345 1209.3892A.47625 .47625 0 00474.32595 1209.3892z" fill="rgba(242,0,12,.24705882)"/><path d="M482.4984 1220.4382H495.7953V1198.3402H482.4984z" style="fill:rgba(242,0,12,.24705882);stroke:rgba(242,0,12,.24705882);stroke-width:.09525;stroke-miterlimit:41.994751"/><path d="M489.6231 1209.3892A.47625 .47625 0 00488.6706 1209.3892A.47625 .47625 0 00489.6231 1209.3892z" fill="rgba(242,0,12,.24705882)"/><path d="M465.201 1173.4133H482.4984V1165.6981H465.201z" style="fill:rgba(242,0,12,.24705882);stroke:rgba(242,0,12,.24705882);stroke-width:.09525;stroke-miterlimit:41.994751"/><path d="M474.32595 1169.5557A.47625 .47625 0 00473.37345 1169.5557A.47625 .47625 0 00474.32595 1169.5557z" fill="rgba(242,0,12,.24705882)"/><path d="M482.4984 1173.4133H486.9942V1165.6981H482.4984z" style="fill:rgba(242,0,12,.24705882);stroke:rgba(242,0,12,.24705882);stroke-width:.09525;stroke-miterlimit:41.994751"/><path d="M485.22255 1169.5557A.47625 .47625 0 00484.27005 1169.5557A.47625 .47625 0 00485.22255 1169.5557z" fill="rgba(242,0,12,.24705882)"/><path d="M486.9942 1173.3847H492.03292V1165.6981H486.9942z" style="fill:rgba(242,0,12,.24705882);stroke:rgba(242,0,12,.24705882);stroke-width:.09525;stroke-miterlimit:41.994751"/><path d="M489.99457 1169.5367A.47625 .47625 0 00489.04208 1169.5367A.47625 .47625 0 00489.99457 1169.5367z" fill="rgba(242,0,12,.24705882)"/><path d="M486.9942 1187.4532H492.03292V1173.3847H486.9942z" style="fill:rgba(242,0,12,.24705882);stroke:rgba(242,0,12,.24705882);stroke-width:.09525;stroke-miterlimit:41.994751"/><path d="M489.99457 1180.4142A.47625 .47625 0 00489.04208 1180.4142A.47625 .47625 0 00489.99457 1180.4142z" fill="rgba(242,0,12,.24705882)"/><path d="M486.9942 1165.6981H492.03292V1142.6761H486.9942z" style="fill:rgba(242,0,12,.24705882);stroke:rgba(242,0,12,.24705882);stroke-width:.09525;stroke-miterlimit:41.994751"/><path d="M489.99457 1154.1824A.47625 .47625 0 00489.04208 1154.1824A.47625 .47625 0 00489.99457 1154.1824z" fill="rgba(242,0,12,.24705882)"/><path d="M492.03292 1165.6981H529.84717V1142.6761H492.03292z" style="fill:rgba(242,0,12,.24705882);stroke:rgba(242,0,12,.24705882);stroke-width:.09525;stroke-miterlimit:41.994751"/><path d="M511.4163 1154.1824A.47625 .47625 0 00510.4638 1154.1824A.47625 .47625 0 00511.4163 1154.1824z" fill="rgba(242,0,12,.24705882)"/><path d="M465.201 1198.3402H482.4984V1173.4133H465.201z" style="fill:rgba(242,0,12,.24705882);stroke:rgba(242,0,12,.24705882);stroke-width:.09525;stroke-miterlimit:41.994751"/><path d="M474.32595 1185.872A.47625 .47625 0 00473.37345 1185.872A.47625 .47625 0 00474.32595 1185.872z" fill="rgba(242,0,12,.24705882)"/><path d="M465.201 1165.6981H486.9942V1142.6761H465.201z" style="fill:rgba(242,0,12,.24705882);stroke:rgba(242,0,12,.24705882);stroke-width:.09525;stroke-miterlimit:41.994751"/><path d="M476.57385 1154.1824A.47625 .47625 0 00475.62135 1154.1824A.47625 .47625 0 00476.57385 1154.1824z" fill="rgba(242,0,12,.24705882)"/><path d="M489.51833 1154.1824H510.94005" style="fill:none;stroke:rgba(242,0,12,.24705882);stroke-width:.09525;stroke-miterlimit:41.994751"/><path d="M489.51833 1180.4142V1169.5367" style="fill:none;stroke:rgba(242,0,12,.24705882);stroke-width:.09525;stroke-miterlimit:41.994751"/><path d="M473.8497 1185.872V1169.5557" style="fill:none;stroke:rgba(242,0,12,.24705882);stroke-width:.09525;stroke-miterlimit:41.994751"/><path d="M473.8497 1209.3892H489.14685" style="fill:none;stroke:rgba(242,0,12,.24705882);stroke-width:.09525;stroke-miterlimit:41.994751"/><path d="M489.51833 1154.1824H476.0976" style="fill:none;stroke:rgba(242,0,12,.24705882);stroke-width:.09525;stroke-miterlimit:41.994751"/><path d="M473.8497 1169.5557H484.7463" style="fill:none;stroke:rgba(242,0,12,.24705882);stroke-width:.09525;stroke-miterlimit:41.994751"/><path d="M473.8497 1209.3892V1185.872" style="fill:none;stroke:rgba(242,0,12,.24705882);stroke-width:.09525;stroke-miterlimit:41.994751"/><path d="M484.7463 1169.5557L476.0976 1154.1824" style="fill:none;stroke:rgba(242,0,12,.24705882);stroke-width:.09525;stroke-miterlimit:41.994751"/><path d="M489.51833 1169.5367V1154.1824" style="fill:none;stroke:rgba(242,0,12,.24705882);stroke-width:.09525;stroke-miterlimit:41.994751"/><path d="M476.0976 1154.1824L473.8497 1169.5557" style="fill:none;stroke:rgba(242,0,12,.24705882);stroke-width:.09525;stroke-miterlimit:41.994751"/><path d="M489.51833 1180.4142L490.32795 1190.3202" style="fill:none;stroke:rgba(238,0,12,.24705882);stroke-width:.09525;stroke-miterlimit:41.994751"/><path d="M488.62297 1193.1968H492.03292V1187.4532H488.62297z" style="fill:rgba(238,0,12,.24705882);stroke:rgba(238,0,12,.24705882);stroke-width:.09525;stroke-miterlimit:41.994751"/><path d="M490.8042 1190.3202A.47625 .47625 0 00489.8517 1190.3202A.47625 .47625 0 00490.8042 1190.3202z" fill="rgba(238,0,12,.24705882)"/><path d="M492.03292 1193.1968H494.3094V1187.4532H492.03292z" style="fill:rgba(238,0,12,.24705882);stroke:rgba(238,0,12,.24705882);stroke-width:.09525;stroke-miterlimit:41.994751"/><path d="M493.65217 1190.3202A.47625 .47625 0 00492.69968 1190.3202A.47625 .47625 0 00493.65217 1190.3202z" fill="rgba(238,0,12,.24705882)"/><path d="M493.17593 1190.3202H490.32795" style="fill:none;stroke:rgba(238,0,12,.24705882);stroke-width:.09525;stroke-miterlimit:41.994751"/><path d="M493.17593 1190.3202H496.2906" style="fill:none;stroke:rgba(238,0,16,.24705882);stroke-width:.09525;stroke-miterlimit:41.994751"/><path d="M494.3094 1193.1968H498.26227V1187.4532H494.3094z" style="fill:rgba(234,0,20,.24705882);stroke:rgba(234,0,20,.24705882);stroke-width:.09525;stroke-miterlimit:41.994751"/><path d="M496.76685 1190.3202A.47625 .47625 0 00495.81435 1190.3202A.47625 .47625 0 00496.76685 1190.3202z" fill="rgba(234,0,20,.24705882)"/><path d="M496.2906 1190.3202H500.71973" style="fill:none;stroke:rgba(234,0,20,.24705882);stroke-width:.09525;stroke-miterlimit:41.994751"/><path d="M498.26227 1193.1968H503.1867V1187.4532H498.26227z" style="fill:rgba(230,0,20,.24705882);stroke:rgba(230,0,20,.24705882);stroke-width:.09525;stroke-miterlimit:41.994751"/><path d="M501.19598 1190.3202A.47625 .47625 0 00500.24348 1190.3202A.47625 .47625 0 00501.19598 1190.3202z" fill="rgba(230,0,20,.24705882)"/><path d="M500.71973 1190.3202H505.03455" style="fill:none;stroke:rgba(230,0,24,.24705882);stroke-width:.09525;stroke-miterlimit:41.994751"/><path d="M503.1867 1193.1968H506.87287V1187.4532H503.1867z" style="fill:rgba(226,0,28,.24705882);stroke:rgba(226,0,28,.24705882);stroke-width:.09525;stroke-miterlimit:41.994751"/><path d="M505.5108 1190.3202A.47625 .47625 0 00504.5583 1190.3202A.47625 .47625 0 00505.5108 1190.3202z" fill="rgba(226,0,28,.24705882)"/><path d="M505.03455 1185.9387V1190.3202" style="fill:none;stroke:rgba(226,0,28,.24705882);stroke-width:.09525;stroke-miterlimit:41.994751"/><path d="M503.1867 1187.4532H506.87287V1184.4337H503.1867z" style="fill:rgba(222,0,28,.24705882);stroke:rgba(222,0,28,.24705882);stroke-width:.09525;stroke-miterlimit:41.994751"/><path d="M505.5108 1185.9387A.47625 .47625 0 00504.5583 1185.9387A.47625 .47625 0 00505.5108 1185.9387z" fill="rgba(222,0,28,.24705882)"/><path d="M510.20663 1185.9387H505.03455" style="fill:none;stroke:rgba(222,0,32,.24705882);stroke-width:.09525;stroke-miterlimit:41.994751"/><path d="M506.87288 1187.4532H513.53085V1184.4337H506.87288z" style="fill:rgba(222,0,32,.24705882);stroke:rgba(222,0,32,.24705882);stroke-width:.09525;stroke-miterlimit:41.994751"/><path d="M510.68288 1185.9387A.47625 .47625 0 00509.73038 1185.9387A.47625 .47625 0 00510.68288 1185.9387z" fill="rgba(222,0,32,.24705882)"/><path d="M510.20663 1185.9387V1182.7478" style="fill:none;stroke:rgba(218,0,36,.24705882);stroke-width:.09525;stroke-miterlimit:41.994751"/><path d="M506.87288 1181.0619H513.53085V1177.8329H506.87288z" style="fill:rgba(214,0,36,.24705882);stroke:rgba(214,0,36,.24705882);stroke-width:.09525;stroke-miterlimit:41.994751"/><path d="M510.68288 1179.4522A.47625 .47625 0 00509.73038 1179.4522A.47625 .47625 0 00510.68288 1179.4522z" fill="rgba(214,0,36,.24705882)"/><path d="M506.87288 1184.4337H513.53085V1181.0619H506.87288z" style="fill:rgba(214,0,36,.24705882);stroke:rgba(214,0,36,.24705882);stroke-width:.09525;stroke-miterlimit:41.994751"/><path d="M510.68288 1182.7478A.47625 .47625 0 00509.73038 1182.7478A.47625 .47625 0 00510.68288 1182.7478z" fill="rgba(214,0,36,.24705882)"/><path d="M510.20663 1182.7478V1179.4522" style="fill:none;stroke:rgba(214,0,36,.24705882);stroke-width:.09525;stroke-miterlimit:41.994751"/><path d="M510.20663 1179.4522L506.96812 1173.8896" style="fill:none;stroke:rgba(214,0,40,.24705882);stroke-width:.09525;stroke-miterlimit:41.994751"/><path d="M502.83427 1177.8329H511.09245V1169.9462H502.83427z" style="fill:rgba(210,0,44,.24705882);stroke:rgba(210,0,44,.24705882);stroke-width:.09525;stroke-miterlimit:41.994751"/><path d="M507.44437 1173.8896A.47625 .47625 0 00506.49187 1173.8896A.47625 .47625 0 00507.44437 1173.8896z" fill="rgba(210,0,44,.24705882)"/><path d="M489.00398 1190.6726H502.83427V1169.9462H489.00398z" style="fill:rgba(210,0,44,.24705882);stroke:rgba(210,0,44,.24705882);stroke-width:.09525;stroke-miterlimit:41.994751"/><path d="M496.39538 1180.3094A.47625 .47625 0 00495.44288 1180.3094A.47625 .47625 0 00496.39538 1180.3094z" fill="rgba(210,0,44,.24705882)"/><path d="M506.96812 1173.8896L495.91913 1180.3094" style="fill:none;stroke:rgba(210,0,44,.24705882);stroke-width:.09525;stroke-miterlimit:41.994751"/><path d="M288.23602 1891.5412A.47625 .47625 0 00287.28352 1891.5412A.47625 .47625 0 00288.23602 1891.5412z" fill="rgba(0,0,255,.24705882)"/><path d="M397.64017 1852.8411H448.71323V1804.8351H397.64017z" style="fill:rgba(0,0,255,.24705882);stroke:rgba(0,0,255,.24705882);stroke-width:.09525;stroke-miterlimit:41.994751"/><path d="M423.65295 1828.8381A.47625 .47625 0 00422.70045 1828.8381A.47625 .47625 0 00423.65295 1828.8381z" fill="rgba(0,0,255,.24705882)"/><path d="M406.0698 1883.9021A.47625 .47625 0 00405.1173 1883.9021A.47625 .47625 0 00406.0698 1883.9021z" fill="rgba(0,0,255,.24705882)"/><path d="M381.04762 1921.5925A.47625 .47625 0 00380.09512 1921.5925A.47625 .47625 0 00381.04762 1921.5925z" fill="rgba(0,0,255,.24705882)"/><path d="M336.6897 1955.9968A.47625 .47625 0 00335.7372 1955.9968A.47625 .47625 0 00336.6897 1955.9968z" fill="rgba(0,0,255,.24705882)"/><path d="M397.64017 1873.9675H448.71323V1852.8411H397.64017z" style="fill:rgba(0,0,255,.24705882);stroke:rgba(0,0,255,.24705882);stroke-width:.09525;stroke-miterlimit:41.994751"/><path d="M423.65295 1863.4043A.47625 .47625 0 00422.70045 1863.4043A.47625 .47625 0 00423.65295 1863.4043z" fill="rgba(0,0,255,.24705882)"/><path d="M308.55285 1892.1222A.47625 .47625 0 00307.60035 1892.1222A.47625 .47625 0 00308.55285 1892.1222z" fill="rgba(0,0,255,.24705882)"/><path d="M322.54507 1919.6209A.47625 .47625 0 00321.59258 1919.6209A.47625 .47625 0 00322.54507 1919.6209z" fill="rgba(0,0,255,.24705882)"/><path d="M378.31395 1958.9687A.47625 .47625 0 00377.36145 1958.9687A.47625 .47625 0 00378.31395 1958.9687z" fill="rgba(0,0,255,.24705882)"/><path d="M387.92467 2077.7168A.47625 .47625 0 00386.97217 2077.7168A.47625 .47625 0 00387.92467 2077.7168z" fill="rgba(0,0,255,.24705882)"/><path d="M376.72328 2122.6653A.47625 .47625 0 00375.77078 2122.6653A.47625 .47625 0 00376.72328 2122.6653z" fill="rgba(0,0,255,.24705882)"/><path d="M374.4087 1852.8411H397.64017V1804.8351H374.4087z" style="fill:rgba(0,0,255,.24705882);stroke:rgba(0,0,255,.24705882);stroke-width:.09525;stroke-miterlimit:41.994751"/><path d="M386.49592 1828.8381A.47625 .47625 0 00385.54343 1828.8381A.47625 .47625 0 00386.49592 1828.8381z" fill="rgba(0,0,255,.24705882)"/><path d="M334.48942 1985.6672A.47625 .47625 0 00333.53692 1985.6672A.47625 .47625 0 00334.48942 1985.6672z" fill="rgba(0,0,255,.24705882)"/><path d="M362.35958 2094.0332A.47625 .47625 0 00361.40708 2094.0332A.47625 .47625 0 00362.35958 2094.0332z" fill="rgba(0,0,255,.24705882)"/><path d="M347.18625 2056.838A.47625 .47625 0 00346.23375 2056.838A.47625 .47625 0 00347.18625 2056.838z" fill="rgba(0,0,255,.24705882)"/><path d="M381.77152 1989.6868A.47625 .47625 0 00380.81903 1989.6868A.47625 .47625 0 00381.77152 1989.6868z" fill="rgba(0,0,255,.24705882)"/><path d="M339.07095 2024.453A.47625 .47625 0 00338.11845 2024.453A.47625 .47625 0 00339.07095 2024.453z" fill="rgba(0,0,255,.24705882)"/><path d="M384.3528 2018.3951A.47625 .47625 0 00383.4003 2018.3951A.47625 .47625 0 00384.3528 2018.3951z" fill="rgba(0,0,255,.24705882)"/><path d="M386.01968 1828.8381H423.1767" style="fill:none;stroke:rgba(0,0,255,.24705882);stroke-width:.09525;stroke-miterlimit:41.994751"/><path d="M423.1767 1828.8381V1863.4043" style="fill:none;stroke:rgba(0,0,255,.24705882);stroke-width:.09525;stroke-miterlimit:41.994751"/></svg>