<svg version="1.1" width="130.8735mm" height="145.06575mm" viewBox="0 0 130.8735 145.06575" xmlns="http://www.w3.org/2000/svg" xmlns:xlink="http://www.w3.org/1999/xlink"><path d="M258.60375 158.115H260.50875" style="fill:none;stroke:#f00;stroke-width:.09525;stroke-miterlimit:41.994751"/><path d="M258.60375 158.115V156.21" style="fill:none;stroke:#0f0;stroke-width:.09525;stroke-miterlimit:41.994751"/><path d="M102.39375 31.90875H130.58775V8.763H102.39375z" style="fill:rgba(255,0,0,.24705882);stroke:rgba(255,0,0,.24705882);stroke-width:.09525;stroke-miterlimit:41.994751"/><path d="M117.0813 20.335875A.47625 .47625 0 00116.1288 20.335875A.47625 .47625 0 00117.0813 20.335875z" fill="rgba(255,0,0,.24705882)"/><path d="M103.29862 84.29625H130.00673V83.105625H103.29862z" style="fill:rgba(255,0,0,.24705882);stroke:rgba(255,0,0,.24705882);stroke-width:.09525;stroke-miterlimit:41.994751"/><path d="M117.12892 83.696175A.47625 .47625 0 00116.17642 83.696175A.47625 .47625 0 00117.12892 83.696175z" fill="rgba(255,0,0,.24705882)"/><path d="M103.29862 91.44H130.00673V84.29625H103.29862z" style="fill:rgba(255,0,0,.24705882);stroke:rgba(255,0,0,.24705882);stroke-width:.09525;stroke-miterlimit:41.994751"/><path d="M117.12892 87.868125A.47625 .47625 0 00116.17642 87.868125A.47625 .47625 0 00117.12892 87.868125z" fill="rgba(255,0,0,.24705882)"/><path d="M.28575 33.3375H28.47975V.28575H.28575z" style="fill:rgba(255,0,0,.24705882);stroke:rgba(255,0,0,.24705882);stroke-width:.09525;stroke-miterlimit:41.994751"/><path d="M14.859 16.811625A.47625 .47625 0 0013.9065 16.811625A.47625 .47625 0 0014.859 16.811625z" fill="rgba(255,0,0,.24705882)"/><path d="M.28575 40.48125H28.47975V33.3375H.28575z" style="fill:rgba(255,0,0,.24705882);stroke:rgba(255,0,0,.24705882);stroke-width:.09525;stroke-miterlimit:41.994751"/><path d="M14.859 36.909375A.47625 .47625 0 0013.9065 36.909375A.47625 .47625 0 0014.859 36.909375z" fill="rgba(255,0,0,.24705882)"/><path d="M103.29862 123.73928H130.00673V91.44H103.29862z" style="fill:rgba(255,0,0,.24705882);stroke:rgba(255,0,0,.24705882);stroke-width:.09525;stroke-miterlimit:41.994751"/><path d="M117.12892 107.5944A.47625 .47625 0 00116.17642 107.5944A.47625 .47625 0 00117.12892 107.5944z" fill="rgba(255,0,0,.24705882)"/><path d="M102.39375 39.0525H130.58775V31.90875H102.39375z" style="fill:rgba(255,0,0,.24705882);stroke:rgba(255,0,0,.24705882);stroke-width:.09525;stroke-miterlimit:41.994751"/><path d="M117.0813 35.480625A.47625 .47625 0 00116.1288 35.480625A.47625 .47625 0 00117.0813 35.480625z" fill="rgba(255,0,0,.24705882)"/><path d="M102.39375 49.730023H130.58775V39.0525H102.39375z" style="fill:rgba(255,0,0,.24705882);stroke:rgba(255,0,0,.24705882);stroke-width:.09525;stroke-miterlimit:41.994751"/><path d="M117.0813 44.3865A.47625 .47625 0 00116.1288 44.3865A.47625 .47625 0 00117.0813 44.3865z" fill="rgba(255,0,0,.24705882)"/><path d="M116.65267 87.868125V83.696175" style="fill:none;stroke:rgba(255,0,0,.24705882);stroke-width:.09525;stroke-miterlimit:41.994751"/><path d="M14.38275 36.909375V16.811625" style="fill:none;stroke:rgba(255,0,0,.24705882);stroke-width:.09525;stroke-miterlimit:41.994751"/><path d="M116.60505 44.3865V35.480625" style="fill:none;stroke:rgba(255,0,0,.24705882);stroke-width:.09525;stroke-miterlimit:41.994751"/><path d="M116.65267 107.5944V87.868125" style="fill:none;stroke:rgba(255,0,0,.24705882);stroke-width:.09525;stroke-miterlimit:41.994751"/><path d="M116.60505 35.480625V20.335875" style="fill:none;stroke:rgba(255,0,0,.24705882);stroke-width:.09525;stroke-miterlimit:41.994751"/><path d="M116.60505 35.480625H89.63025" style="fill:none;stroke:rgba(250,0,0,.24705882);stroke-width:.09525;stroke-miterlimit:41.994751"/><path d="M35.052 36.909375H14.38275" style="fill:none;stroke:rgba(250,0,0,.24705882);stroke-width:.09525;stroke-miterlimit:41.994751"/><path d="M116.65267 87.868125H96.2787" style="fill:none;stroke:rgba(250,0,0,.24705882);stroke-width:.09525;stroke-miterlimit:41.994751"/><path d="M76.86675 39.0525H102.39375V31.90875H76.86675z" style="fill:rgba(246,0,4,.24705882);stroke:rgba(246,0,4,.24705882);stroke-width:.09525;stroke-miterlimit:41.994751"/><path d="M90.1065 35.480625A.47625 .47625 0 0089.154 35.480625A.47625 .47625 0 0090.1065 35.480625z" fill="rgba(246,0,4,.24705882)"/><path d="M28.47975 40.48125H41.62425V33.3375H28.47975z" style="fill:rgba(246,0,4,.24705882);stroke:rgba(246,0,4,.24705882);stroke-width:.09525;stroke-miterlimit:41.994751"/><path d="M35.52825 36.909375A.47625 .47625 0 0034.57575 36.909375A.47625 .47625 0 0035.52825 36.909375z" fill="rgba(246,0,4,.24705882)"/><path d="M54.00675 91.44H76.86675V84.29625H54.00675z" style="fill:rgba(246,0,4,.24705882);stroke:rgba(246,0,4,.24705882);stroke-width:.09525;stroke-miterlimit:41.994751"/><path d="M65.913 87.868125A.47625 .47625 0 0064.9605 87.868125A.47625 .47625 0 0065.913 87.868125z" fill="rgba(246,0,4,.24705882)"/><path d="M76.86675 84.29625H89.24925V73.81875H76.86675z" style="fill:rgba(246,0,4,.24705882);stroke:rgba(246,0,4,.24705882);stroke-width:.09525;stroke-miterlimit:41.994751"/><path d="M83.53425 79.0575A.47625 .47625 0 0082.58175 79.0575A.47625 .47625 0 0083.53425 79.0575z" fill="rgba(246,0,4,.24705882)"/><path d="M41.62425 50.95875H54.00675V40.48125H41.62425z" style="fill:rgba(246,0,4,.24705882);stroke:rgba(246,0,4,.24705882);stroke-width:.09525;stroke-miterlimit:41.994751"/><path d="M48.29175 45.72A.47625 .47625 0 0047.33925 45.72A.47625 .47625 0 0048.29175 45.72z" fill="rgba(246,0,4,.24705882)"/><path d="M54.00675 130.4925H76.86675V91.44H54.00675z" style="fill:rgba(246,0,4,.24705882);stroke:rgba(246,0,4,.24705882);stroke-width:.09525;stroke-miterlimit:41.994751"/><path d="M65.913 110.96625A.47625 .47625 0 0064.9605 110.96625A.47625 .47625 0 0065.913 110.96625z" fill="rgba(246,0,4,.24705882)"/><path d="M76.86675 91.44H89.24925V84.29625H76.86675z" style="fill:rgba(246,0,4,.24705882);stroke:rgba(246,0,4,.24705882);stroke-width:.09525;stroke-miterlimit:41.994751"/><path d="M83.53425 87.868125A.47625 .47625 0 0082.58175 87.868125A.47625 .47625 0 0083.53425 87.868125z" fill="rgba(246,0,4,.24705882)"/><path d="M54.00675 39.0525H76.86675V31.90875H54.00675z" style="fill:rgba(246,0,4,.24705882);stroke:rgba(246,0,4,.24705882);stroke-width:.09525;stroke-miterlimit:41.994751"/><path d="M65.913 35.480625A.47625 .47625 0 0064.9605 35.480625A.47625 .47625 0 0065.913 35.480625z" fill="rgba(246,0,4,.24705882)"/><path d="M89.24925 91.44H103.29862V84.29625H89.24925z" style="fill:rgba(246,0,4,.24705882);stroke:rgba(246,0,4,.24705882);stroke-width:.09525;stroke-miterlimit:41.994751"/><path d="M96.75495 87.868125A.47625 .47625 0 0095.80245 87.868125A.47625 .47625 0 0096.75495 87.868125z" fill="rgba(246,0,4,.24705882)"/><path d="M54.00675 84.29625H76.86675V73.81875H54.00675z" style="fill:rgba(246,0,4,.24705882);stroke:rgba(246,0,4,.24705882);stroke-width:.09525;stroke-miterlimit:41.994751"/><path d="M65.913 79.0575A.47625 .47625 0 0064.9605 79.0575A.47625 .47625 0 0065.913 79.0575z" fill="rgba(246,0,4,.24705882)"/><path d="M54.00675 50.95875H76.86675V39.0525H54.00675z" style="fill:rgba(246,0,4,.24705882);stroke:rgba(246,0,4,.24705882);stroke-width:.09525;stroke-miterlimit:41.994751"/><path d="M65.913 45.005625A.47625 .47625 0 0064.9605 45.005625A.47625 .47625 0 0065.913 45.005625z" fill="rgba(246,0,4,.24705882)"/><path d="M41.62425 40.48125H54.00675V33.3375H41.62425z" style="fill:rgba(246,0,4,.24705882);stroke:rgba(246,0,4,.24705882);stroke-width:.09525;stroke-miterlimit:41.994751"/><path d="M48.29175 36.909375A.47625 .47625 0 0047.33925 36.909375A.47625 .47625 0 0048.29175 36.909375z" fill="rgba(246,0,4,.24705882)"/><path d="M47.8155 45.72V36.909375" style="fill:none;stroke:rgba(246,0,4,.24705882);stroke-width:.09525;stroke-miterlimit:41.994751"/><path d="M47.8155 36.909375H35.052" style="fill:none;stroke:rgba(246,0,4,.24705882);stroke-width:.09525;stroke-miterlimit:41.994751"/><path d="M47.8155 36.909375L65.43675 35.480625" style="fill:none;stroke:rgba(246,0,4,.24705882);stroke-width:.09525;stroke-miterlimit:41.994751"/><path d="M65.43675 35.480625V45.005625" style="fill:none;stroke:rgba(246,0,4,.24705882);stroke-width:.09525;stroke-miterlimit:41.994751"/><path d="M96.2787 87.868125H83.058" style="fill:none;stroke:rgba(246,0,4,.24705882);stroke-width:.09525;stroke-miterlimit:41.994751"/><path d="M65.43675 35.480625H89.63025" style="fill:none;stroke:rgba(246,0,4,.24705882);stroke-width:.09525;stroke-miterlimit:41.994751"/><path d="M83.058 87.868125V79.0575" style="fill:none;stroke:rgba(246,0,4,.24705882);stroke-width:.09525;stroke-miterlimit:41.994751"/><path d="M83.058 87.868125H65.43675" style="fill:none;stroke:rgba(246,0,4,.24705882);stroke-width:.09525;stroke-miterlimit:41.994751"/><path d="M83.058 79.0575H65.43675" style="fill:none;stroke:rgba(246,0,4,.24705882);stroke-width:.09525;stroke-miterlimit:41.994751"/><path d="M65.43675 87.868125V110.96625" style="fill:none;stroke:rgba(246,0,4,.24705882);stroke-width:.09525;stroke-miterlimit:41.994751"/><path d="M65.43675 87.868125V79.0575" style="fill:none;stroke:rgba(246,0,4,.24705882);stroke-width:.09525;stroke-miterlimit:41.994751"/><path d="M47.8155 45.72V62.38875" style="fill:none;stroke:rgba(230,0,24,.24705882);stroke-width:.09525;stroke-miterlimit:41.994751"/><path d="M83.058 79.0575V62.38875" style="fill:none;stroke:rgba(226,0,24,.24705882);stroke-width:.09525;stroke-miterlimit:41.994751"/><path d="M41.62425 73.81875H54.00675V50.95875H41.62425z" style="fill:rgba(210,0,44,.24705882);stroke:rgba(210,0,44,.24705882);stroke-width:.09525;stroke-miterlimit:41.994751"/><path d="M48.29175 62.38875A.47625 .47625 0 0047.33925 62.38875A.47625 .47625 0 0048.29175 62.38875z" fill="rgba(210,0,44,.24705882)"/><path d="M76.86675 73.81875H89.24925V50.95875H76.86675z" style="fill:rgba(210,0,44,.24705882);stroke:rgba(210,0,44,.24705882);stroke-width:.09525;stroke-miterlimit:41.994751"/><path d="M83.53425 62.38875A.47625 .47625 0 0082.58175 62.38875A.47625 .47625 0 0083.53425 62.38875z" fill="rgba(210,0,44,.24705882)"/><path d="M47.8155 62.38875V80.01" style="fill:none;stroke:rgba(190,0,60,.24705882);stroke-width:.09525;stroke-miterlimit:41.994751"/><path d="M83.058 62.38875V44.815125" style="fill:none;stroke:rgba(190,0,60,.24705882);stroke-width:.09525;stroke-miterlimit:41.994751"/><path d="M76.86675 50.95875H89.24925V38.6715H76.86675z" style="fill:rgba(174,0,80,.24705882);stroke:rgba(174,0,80,.24705882);stroke-width:.09525;stroke-miterlimit:41.994751"/><path d="M83.53425 44.815125A.47625 .47625 0 0082.58175 44.815125A.47625 .47625 0 0083.53425 44.815125z" fill="rgba(174,0,80,.24705882)"/><path d="M41.62425 86.20125H54.00675V73.81875H41.62425z" style="fill:rgba(174,0,80,.24705882);stroke:rgba(174,0,80,.24705882);stroke-width:.09525;stroke-miterlimit:41.994751"/><path d="M48.29175 80.01A.47625 .47625 0 0047.33925 80.01A.47625 .47625 0 0048.29175 80.01z" fill="rgba(174,0,80,.24705882)"/><path d="M83.058 44.815125H65.43675" style="fill:none;stroke:rgba(153,0,101,.24705882);stroke-width:.09525;stroke-miterlimit:41.994751"/><path d="M47.8155 80.01H65.43675" style="fill:none;stroke:rgba(153,0,101,.24705882);stroke-width:.09525;stroke-miterlimit:41.994751"/><path d="M54.00675 50.95875H76.86675V38.6715H54.00675z" style="fill:rgba(133,0,121,.24705882);stroke:rgba(133,0,121,.24705882);stroke-width:.09525;stroke-miterlimit:41.994751"/><path d="M65.913 44.815125A.47625 .47625 0 0064.9605 44.815125A.47625 .47625 0 0065.913 44.815125z" fill="rgba(133,0,121,.24705882)"/><path d="M54.00675 86.20125H76.86675V73.81875H54.00675z" style="fill:rgba(133,0,121,.24705882);stroke:rgba(133,0,121,.24705882);stroke-width:.09525;stroke-miterlimit:41.994751"/><path d="M65.913 80.01A.47625 .47625 0 0064.9605 80.01A.47625 .47625 0 0065.913 80.01z" fill="rgba(133,0,121,.24705882)"/><path d="M65.43675 44.815125H47.8155" style="fill:none;stroke:rgba(117,0,137,.24705882);stroke-width:.09525;stroke-miterlimit:41.994751"/><path d="M65.43675 80.01H83.058" style="fill:none;stroke:rgba(117,0,137,.24705882);stroke-width:.09525;stroke-miterlimit:41.994751"/><path d="M41.62425 50.95875H54.00675V38.6715H41.62425z" style="fill:rgba(101,0,153,.24705882);stroke:rgba(101,0,153,.24705882);stroke-width:.09525;stroke-miterlimit:41.994751"/><path d="M48.29175 44.815125A.47625 .47625 0 0047.33925 44.815125A.47625 .47625 0 0048.29175 44.815125z" fill="rgba(101,0,153,.24705882)"/><path d="M76.86675 86.20125H89.24925V73.81875H76.86675z" style="fill:rgba(101,0,153,.24705882);stroke:rgba(101,0,153,.24705882);stroke-width:.09525;stroke-miterlimit:41.994751"/><path d="M83.53425 80.01A.47625 .47625 0 0082.58175 80.01A.47625 .47625 0 0083.53425 80.01z" fill="rgba(101,0,153,.24705882)"/><path d="M47.8155 44.815125V62.38875" style="fill:none;stroke:rgba(80,0,174,.24705882);stroke-width:.09525;stroke-miterlimit:41.994751"/><path d="M83.058 80.01V62.38875" style="fill:none;stroke:rgba(76,0,174,.24705882);stroke-width:.09525;stroke-miterlimit:41.994751"/><path d="M41.62425 73.81875H54.00675V50.95875H41.62425z" style="fill:rgba(60,0,194,.24705882);stroke:rgba(60,0,194,.24705882);stroke-width:.09525;stroke-miterlimit:41.994751"/><path d="M48.29175 62.38875A.47625 .47625 0 0047.33925 62.38875A.47625 .47625 0 0048.29175 62.38875z" fill="rgba(60,0,194,.24705882)"/><path d="M76.86675 73.81875H89.24925V50.95875H76.86675z" style="fill:rgba(56,0,198,.24705882);stroke:rgba(56,0,198,.24705882);stroke-width:.09525;stroke-miterlimit:41.994751"/><path d="M83.53425 62.38875A.47625 .47625 0 0082.58175 62.38875A.47625 .47625 0 0083.53425 62.38875z" fill="rgba(56,0,198,.24705882)"/><path d="M47.8155 62.38875V80.057625" style="fill:none;stroke:rgba(44,0,210,.24705882);stroke-width:.09525;stroke-miterlimit:41.994751"/><path d="M83.058 62.38875V44.7675" style="fill:none;stroke:rgba(40,0,214,.24705882);stroke-width:.09525;stroke-miterlimit:41.994751"/><path d="M76.86675 50.95875H89.24925V38.57625H76.86675z" style="fill:rgba(28,0,226,.24705882);stroke:rgba(28,0,226,.24705882);stroke-width:.09525;stroke-miterlimit:41.994751"/><path d="M83.53425 44.7675A.47625 .47625 0 0082.58175 44.7675A.47625 .47625 0 0083.53425 44.7675z" fill="rgba(28,0,226,.24705882)"/><path d="M41.62425 86.2965H54.00675V73.81875H41.62425z" style="fill:rgba(28,0,226,.24705882);stroke:rgba(28,0,226,.24705882);stroke-width:.09525;stroke-miterlimit:41.994751"/><path d="M48.29175 80.057625A.47625 .47625 0 0047.33925 80.057625A.47625 .47625 0 0048.29175 80.057625z" fill="rgba(28,0,226,.24705882)"/><path d="M47.8155 80.057625H60.531375" style="fill:none;stroke:rgba(16,0,234,.24705882);stroke-width:.09525;stroke-miterlimit:41.994751"/><path d="M83.058 44.7675H70.399275" style="fill:none;stroke:rgba(16,0,238,.24705882);stroke-width:.09525;stroke-miterlimit:41.994751"/><path d="M54.00675 86.2965H67.056V73.81875H54.00675z" style="fill:rgba(8,0,242,.24705882);stroke:rgba(8,0,242,.24705882);stroke-width:.09525;stroke-miterlimit:41.994751"/><path d="M61.007625 80.057625A.47625 .47625 0 0060.055125 80.057625A.47625 .47625 0 0061.007625 80.057625z" fill="rgba(8,0,242,.24705882)"/><path d="M63.9318 50.95875H76.86675V38.57625H63.9318z" style="fill:rgba(8,0,246,.24705882);stroke:rgba(8,0,246,.24705882);stroke-width:.09525;stroke-miterlimit:41.994751"/><path d="M70.875525 44.7675A.47625 .47625 0 0069.923025 44.7675A.47625 .47625 0 0070.875525 44.7675z" fill="rgba(8,0,246,.24705882)"/><path d="M60.531375 80.057625H71.961375" style="fill:none;stroke:rgba(4,0,250,.24705882);stroke-width:.09525;stroke-miterlimit:41.994751"/><path d="M70.399275 44.7675H52.358925" style="fill:none;stroke:rgba(4,0,250,.24705882);stroke-width:.09525;stroke-miterlimit:41.994751"/><path d="M89.24925 38.57625H100.70782V29.5275H89.24925z" style="fill:rgba(0,0,255,.24705882);stroke:rgba(0,0,255,.24705882);stroke-width:.09525;stroke-miterlimit:41.994751"/><path d="M95.45955 34.051875A.47625 .47625 0 0094.50705 34.051875A.47625 .47625 0 0095.45955 34.051875z" fill="rgba(0,0,255,.24705882)"/><path d="M100.70782 86.2965H106.7562V73.81875H100.70782z" style="fill:rgba(0,0,255,.24705882);stroke:rgba(0,0,255,.24705882);stroke-width:.09525;stroke-miterlimit:41.994751"/><path d="M104.21302 80.057625A.47625 .47625 0 00103.26052 80.057625A.47625 .47625 0 00104.21302 80.057625z" fill="rgba(0,0,255,.24705882)"/><path d="M76.86675 86.2965H86.8299V73.81875H76.86675z" style="fill:rgba(0,0,255,.24705882);stroke:rgba(0,0,255,.24705882);stroke-width:.09525;stroke-miterlimit:41.994751"/><path d="M82.324575 80.057625A.47625 .47625 0 0081.372075 80.057625A.47625 .47625 0 0082.324575 80.057625z" fill="rgba(0,0,255,.24705882)"/><path d="M100.70782 73.81875H106.7562V38.57625H100.70782z" style="fill:rgba(0,0,255,.24705882);stroke:rgba(0,0,255,.24705882);stroke-width:.09525;stroke-miterlimit:41.994751"/><path d="M104.21302 56.1975A.47625 .47625 0 00103.26052 56.1975A.47625 .47625 0 00104.21302 56.1975z" fill="rgba(0,0,255,.24705882)"/><path d="M40.78605 38.57625H63.9318V29.5275H40.78605z" style="fill:rgba(0,0,255,.24705882);stroke:rgba(0,0,255,.24705882);stroke-width:.09525;stroke-miterlimit:41.994751"/><path d="M52.835175 34.051875A.47625 .47625 0 0051.882675 34.051875A.47625 .47625 0 0052.835175 34.051875z" fill="rgba(0,0,255,.24705882)"/><path d="M86.8299 86.2965H100.70782V73.81875H86.8299z" style="fill:rgba(0,0,255,.24705882);stroke:rgba(0,0,255,.24705882);stroke-width:.09525;stroke-miterlimit:41.994751"/><path d="M94.249875 80.057625A.47625 .47625 0 0093.297375 80.057625A.47625 .47625 0 0094.249875 80.057625z" fill="rgba(0,0,255,.24705882)"/><path d="M40.78605 50.95875H63.9318V38.57625H40.78605z" style="fill:rgba(0,0,255,.24705882);stroke:rgba(0,0,255,.24705882);stroke-width:.09525;stroke-miterlimit:41.994751"/><path d="M52.835175 44.7675A.47625 .47625 0 0051.882675 44.7675A.47625 .47625 0 0052.835175 44.7675z" fill="rgba(0,0,255,.24705882)"/><path d="M76.86675 144.78H86.8299V126.6825H76.86675z" style="fill:rgba(0,0,255,.24705882);stroke:rgba(0,0,255,.24705882);stroke-width:.09525;stroke-miterlimit:41.994751"/><path d="M82.324575 135.73125A.47625 .47625 0 0081.372075 135.73125A.47625 .47625 0 0082.324575 135.73125z" fill="rgba(0,0,255,.24705882)"/><path d="M100.70782 38.57625H106.7562V29.5275H100.70782z" style="fill:rgba(0,0,255,.24705882);stroke:rgba(0,0,255,.24705882);stroke-width:.09525;stroke-miterlimit:41.994751"/><path d="M104.21302 34.051875A.47625 .47625 0 00103.26052 34.051875A.47625 .47625 0 00104.21302 34.051875z" fill="rgba(0,0,255,.24705882)"/><path d="M67.056 86.2965H76.86675V73.81875H67.056z" style="fill:rgba(0,0,255,.24705882);stroke:rgba(0,0,255,.24705882);stroke-width:.09525;stroke-miterlimit:41.994751"/><path d="M72.437625 80.057625A.47625 .47625 0 0071.485125 80.057625A.47625 .47625 0 0072.437625 80.057625z" fill="rgba(0,0,255,.24705882)"/><path d="M76.86675 126.6825H86.8299V86.2965H76.86675z" style="fill:rgba(0,0,255,.24705882);stroke:rgba(0,0,255,.24705882);stroke-width:.09525;stroke-miterlimit:41.994751"/><path d="M82.324575 106.4895A.47625 .47625 0 0081.372075 106.4895A.47625 .47625 0 0082.324575 106.4895z" fill="rgba(0,0,255,.24705882)"/><path d="M63.9318 38.57625H89.24925V29.5275H63.9318z" style="fill:rgba(0,0,255,.24705882);stroke:rgba(0,0,255,.24705882);stroke-width:.09525;stroke-miterlimit:41.994751"/><path d="M77.066775 34.051875A.47625 .47625 0 0076.114275 34.051875A.47625 .47625 0 0077.066775 34.051875z" fill="rgba(0,0,255,.24705882)"/><path d="M57.292875 144.78H76.86675V126.6825H57.292875z" style="fill:rgba(0,0,255,.24705882);stroke:rgba(0,0,255,.24705882);stroke-width:.09525;stroke-miterlimit:41.994751"/><path d="M67.560825 135.73125A.47625 .47625 0 0066.608325 135.73125A.47625 .47625 0 0067.560825 135.73125z" fill="rgba(0,0,255,.24705882)"/><path d="M103.73677 34.051875V56.1975" style="fill:none;stroke:rgba(0,0,255,.24705882);stroke-width:.09525;stroke-miterlimit:41.994751"/><path d="M81.848325 106.4895V80.057625" style="fill:none;stroke:rgba(0,0,255,.24705882);stroke-width:.09525;stroke-miterlimit:41.994751"/><path d="M81.848325 135.73125H67.084575" style="fill:none;stroke:rgba(0,0,255,.24705882);stroke-width:.09525;stroke-miterlimit:41.994751"/><path d="M81.848325 135.73125V106.4895" style="fill:none;stroke:rgba(0,0,255,.24705882);stroke-width:.09525;stroke-miterlimit:41.994751"/><path d="M52.358925 44.7675V34.051875" style="fill:none;stroke:rgba(0,0,255,.24705882);stroke-width:.09525;stroke-miterlimit:41.994751"/><path d="M93.773625 80.057625H103.73677" style="fill:none;stroke:rgba(0,0,255,.24705882);stroke-width:.09525;stroke-miterlimit:41.994751"/><path d="M81.848325 80.057625H93.773625" style="fill:none;stroke:rgba(0,0,255,.24705882);stroke-width:.09525;stroke-miterlimit:41.994751"/><path d="M81.848325 80.057625H71.961375" style="fill:none;stroke:rgba(0,0,255,.24705882);stroke-width:.09525;stroke-miterlimit:41.994751"/><path d="M103.73677 56.1975V80.057625" style="fill:none;stroke:rgba(0,0,255,.24705882);stroke-width:.09525;stroke-miterlimit:41.994751"/><path d="M94.9833 34.051875H103.73677" style="fill:none;stroke:rgba(0,0,255,.24705882);stroke-width:.09525;stroke-miterlimit:41.994751"/><path d="M76.590525 34.051875H94.9833" style="fill:none;stroke:rgba(0,0,255,.24705882);stroke-width:.09525;stroke-miterlimit:41.994751"/><path d="M52.358925 34.051875H76.590525" style="fill:none;stroke:rgba(0,0,255,.24705882);stroke-width:.09525;stroke-miterlimit:41.994751"/></svg>