<svg version="1.1" width="170.307mm" height="266.7mm" viewBox="0 0 170.307 266.7" xmlns="http://www.w3.org/2000/svg" xmlns:xlink="http://www.w3.org/1999/xlink"><path d="M85.62975 83.91525H87.53475" style="fill:none;stroke:#f00;stroke-width:.09525;stroke-miterlimit:41.994751"/><path d="M85.62975 83.91525V82.01025" style="fill:none;stroke:#0f0;stroke-width:.09525;stroke-miterlimit:41.994751"/><path d="M44.834176 179.5272H77.6097V155.54325H44.834176z" style="fill:rgba(255,0,0,.24705882);stroke:rgba(255,0,0,.24705882);stroke-width:.09525;stroke-miterlimit:41.994751"/><path d="M61.70295 167.53522A.47625 .47625 0 0060.75045 167.53522A.47625 .47625 0 0061.70295 167.53522z" fill="rgba(255,0,0,.24705882)"/><path d="M44.834176 265.8237H77.6097V204.216H44.834176z" style="fill:rgba(255,0,0,.24705882);stroke:rgba(255,0,0,.24705882);stroke-width:.09525;stroke-miterlimit:41.994751"/><path d="M61.70295 235.01985A.47625 .47625 0 0060.75045 235.01985A.47625 .47625 0 0061.70295 235.01985z" fill="rgba(255,0,0,.24705882)"/><path d="M77.6097 265.8237H135.92175V155.54325H77.6097z" style="fill:rgba(255,0,0,.24705882);stroke:rgba(255,0,0,.24705882);stroke-width:.09525;stroke-miterlimit:41.994751"/><path d="M107.24197 211.06448A.47625 .47625 0 00106.28948 211.06448A.47625 .47625 0 00107.24197 211.06448z" fill="rgba(255,0,0,.24705882)"/><path d="M61.2267 235.01985L106.76573 211.06448" style="fill:none;stroke:rgba(255,0,0,.24705882);stroke-width:.09525;stroke-miterlimit:41.994751"/><path d="M20.507325 211.5693L61.2267 235.01985" style="fill:none;stroke:rgba(255,0,0,.24705882);stroke-width:.09525;stroke-miterlimit:41.994751"/><path d="M.29527267 266.42377H40.719375V156.71482H.29527267z" style="fill:rgba(255,0,0,.24705882);stroke:rgba(255,0,0,.24705882);stroke-width:.09525;stroke-miterlimit:41.994751"/><path d="M20.983575 211.5693A.47625 .47625 0 0020.031075 211.5693A.47625 .47625 0 0020.983575 211.5693z" fill="rgba(255,0,0,.24705882)"/><path d="M.50482384 140.30325H65.81775V126.58725H.50482384z" style="fill:rgba(255,0,0,.24705882);stroke:rgba(255,0,0,.24705882);stroke-width:.09525;stroke-miterlimit:41.994751"/><path d="M18.07845 133.34047A.47625 .47625 0 0017.12595 133.34047A.47625 .47625 0 0018.07845 133.34047z" fill="rgba(255,0,0,.24705882)"/><path d="M.50482384 126.58725H46.00575V106.77525H.50482384z" style="fill:rgba(255,0,0,.24705882);stroke:rgba(255,0,0,.24705882);stroke-width:.09525;stroke-miterlimit:41.994751"/><path d="M18.07845 119.5959A.47625 .47625 0 0017.12595 119.5959A.47625 .47625 0 0018.07845 119.5959z" fill="rgba(255,0,0,.24705882)"/><path d="M17.6022 133.34047V119.5959" style="fill:none;stroke:rgba(255,0,0,.24705882);stroke-width:.09525;stroke-miterlimit:41.994751"/><path d="M46.00575 106.77525H67.34175V83.91525H46.00575z" style="fill:rgba(255,0,0,.24705882);stroke:rgba(255,0,0,.24705882);stroke-width:.09525;stroke-miterlimit:41.994751"/><path d="M55.9689 94.554675A.47625 .47625 0 0055.0164 94.554675A.47625 .47625 0 0055.9689 94.554675z" fill="rgba(255,0,0,.24705882)"/><path d="M17.6022 119.5959L22.526625 98.097975" style="fill:none;stroke:rgba(255,0,0,.24705882);stroke-width:.09525;stroke-miterlimit:41.994751"/><path d="M103.91775 112.87125H135.62648V83.91525H103.91775z" style="fill:rgba(255,0,0,.24705882);stroke:rgba(255,0,0,.24705882);stroke-width:.09525;stroke-miterlimit:41.994751"/><path d="M121.33897 97.4217A.47625 .47625 0 00120.38648 97.4217A.47625 .47625 0 00121.33897 97.4217z" fill="rgba(255,0,0,.24705882)"/><path d="M22.526625 98.097975L55.49265 94.554675" style="fill:none;stroke:rgba(255,0,0,.24705882);stroke-width:.09525;stroke-miterlimit:41.994751"/><path d="M106.76573 211.06448L74.19975 148.86622" style="fill:none;stroke:rgba(255,0,0,.24705882);stroke-width:.09525;stroke-miterlimit:41.994751"/><path d="M61.2267 167.53522L33.042225 148.86622" style="fill:none;stroke:rgba(255,0,0,.24705882);stroke-width:.09525;stroke-miterlimit:41.994751"/><path d="M61.2267 167.53522L74.19975 148.86622" style="fill:none;stroke:rgba(255,0,0,.24705882);stroke-width:.09525;stroke-miterlimit:41.994751"/><path d="M86.306025 82.39125A.47625 .47625 0 0085.353525 82.39125A.47625 .47625 0 0086.306025 82.39125z" fill="rgba(255,0,0,.24705882)"/><path d="M.51435233 106.77525H46.00575V83.91525H.51435233z" style="fill:rgba(255,0,0,.24705882);stroke:rgba(255,0,0,.24705882);stroke-width:.09525;stroke-miterlimit:41.994751"/><path d="M23.002875 98.097975A.47625 .47625 0 0022.050375 98.097975A.47625 .47625 0 0023.002875 98.097975z" fill="rgba(255,0,0,.24705882)"/><path d="M55.49265 94.554675L38.052375 41.20515" style="fill:none;stroke:rgba(255,0,0,.24705882);stroke-width:.09525;stroke-miterlimit:41.994751"/><path d="M97.82175 155.54325H102.43185V149.44725H97.82175z" style="fill:rgba(255,0,0,.24705882);stroke:rgba(255,0,0,.24705882);stroke-width:.09525;stroke-miterlimit:41.994751"/><path d="M101.10787 152.21902A.47625 .47625 0 00100.15538 152.21902A.47625 .47625 0 00101.10787 152.21902z" fill="rgba(255,0,0,.24705882)"/><path d="M17.6022 133.34047L33.042225 148.86622" style="fill:none;stroke:rgba(255,0,0,.24705882);stroke-width:.09525;stroke-miterlimit:41.994751"/><path d="M33.042225 148.86622L20.507325 211.5693" style="fill:none;stroke:rgba(255,0,0,.24705882);stroke-width:.09525;stroke-miterlimit:41.994751"/><path d="M136.95997 41.20515L120.86272 97.4217" style="fill:none;stroke:rgba(250,0,0,.24705882);stroke-width:.09525;stroke-miterlimit:41.994751"/><path d="M100.63162 152.21902L121.24372 146.48497" style="fill:none;stroke:rgba(250,0,0,.24705882);stroke-width:.09525;stroke-miterlimit:41.994751"/><path d="M85.62975 41.20515L85.829775 82.39125" style="fill:none;stroke:rgba(250,0,0,.24705882);stroke-width:.09525;stroke-miterlimit:41.994751"/><path d="M102.43185 155.54325H135.92175V140.30325H102.43185z" style="fill:rgba(250,0,0,.24705882);stroke:rgba(250,0,0,.24705882);stroke-width:.09525;stroke-miterlimit:41.994751"/><path d="M121.71997 146.48497A.47625 .47625 0 00120.76748 146.48497A.47625 .47625 0 00121.71997 146.48497z" fill="rgba(250,0,0,.24705882)"/><path d="M22.526625 98.097975L38.052375 41.20515" style="fill:none;stroke:rgba(250,0,0,.24705882);stroke-width:.09525;stroke-miterlimit:41.994751"/><path d="M8.763 83.91525H67.34175V.333375H8.763z" style="fill:rgba(250,0,4,.24705882);stroke:rgba(250,0,4,.24705882);stroke-width:.09525;stroke-miterlimit:41.994751"/><path d="M38.528625 41.20515A.47625 .47625 0 0037.576125 41.20515A.47625 .47625 0 0038.528625 41.20515z" fill="rgba(250,0,4,.24705882)"/><path d="M67.34175 83.91525H103.91775V.333375H67.34175z" style="fill:rgba(250,0,4,.24705882);stroke:rgba(250,0,4,.24705882);stroke-width:.09525;stroke-miterlimit:41.994751"/><path d="M86.106 41.20515A.47625 .47625 0 0085.1535 41.20515A.47625 .47625 0 0086.106 41.20515z" fill="rgba(250,0,4,.24705882)"/><path d="M103.91775 83.91525H170.0022V.333375H103.91775z" style="fill:rgba(250,0,4,.24705882);stroke:rgba(250,0,4,.24705882);stroke-width:.09525;stroke-miterlimit:41.994751"/><path d="M137.43622 41.20515A.47625 .47625 0 00136.48372 41.20515A.47625 .47625 0 00137.43622 41.20515z" fill="rgba(250,0,4,.24705882)"/><path d="M38.052375 41.20515H85.62975" style="fill:none;stroke:rgba(250,0,4,.24705882);stroke-width:.09525;stroke-miterlimit:41.994751"/><path d="M85.62975 41.20515H136.95997" style="fill:none;stroke:rgba(250,0,4,.24705882);stroke-width:.09525;stroke-miterlimit:41.994751"/><path d="M85.9917 83.0961L85.829775 82.39125" style="fill:none;stroke:rgba(250,0,4,.24705882);stroke-width:.09525;stroke-miterlimit:41.994751"/><path d="M.257175 155.7528H65.81775V140.30325H.257175z" style="fill:rgba(250,0,4,.24705882);stroke:rgba(250,0,4,.24705882);stroke-width:.09525;stroke-miterlimit:41.994751"/><path d="M33.518475 148.86622A.47625 .47625 0 0032.565975 148.86622A.47625 .47625 0 0033.518475 148.86622z" fill="rgba(250,0,4,.24705882)"/><path d="M65.81775 155.7528H82.58175V140.30325H65.81775z" style="fill:rgba(250,0,4,.24705882);stroke:rgba(250,0,4,.24705882);stroke-width:.09525;stroke-miterlimit:41.994751"/><path d="M74.676 148.86622A.47625 .47625 0 0073.7235 148.86622A.47625 .47625 0 0074.676 148.86622z" fill="rgba(250,0,4,.24705882)"/><path d="M33.042225 148.86622H74.19975" style="fill:none;stroke:rgba(250,0,4,.24705882);stroke-width:.09525;stroke-miterlimit:41.994751"/><path d="M106.76573 211.06448L152.71433 202.13955" style="fill:none;stroke:rgba(250,0,4,.24705882);stroke-width:.09525;stroke-miterlimit:41.994751"/><path d="M152.71433 97.3836L120.86272 97.4217" style="fill:none;stroke:rgba(250,0,4,.24705882);stroke-width:.09525;stroke-miterlimit:41.994751"/><path d="M81.05775 83.91525H90.20175V82.39125H81.05775z" style="fill:rgba(250,0,4,.24705882);stroke:rgba(250,0,4,.24705882);stroke-width:.09525;stroke-miterlimit:41.994751"/><path d="M86.46795 83.0961A.47625 .47625 0 0085.51545 83.0961A.47625 .47625 0 0086.46795 83.0961z" fill="rgba(250,0,4,.24705882)"/><path d="M121.24372 146.48497L152.71433 202.13955" style="fill:none;stroke:rgba(250,0,4,.24705882);stroke-width:.09525;stroke-miterlimit:41.994751"/><path d="M136.95997 41.20515L152.71433 97.3836" style="fill:none;stroke:rgba(246,0,4,.24705882);stroke-width:.09525;stroke-miterlimit:41.994751"/><path d="M135.92175 112.33785H169.164V83.91525H135.92175z" style="fill:rgba(246,0,8,.24705882);stroke:rgba(246,0,8,.24705882);stroke-width:.09525;stroke-miterlimit:41.994751"/><path d="M153.19057 97.3836A.47625 .47625 0 00152.23808 97.3836A.47625 .47625 0 00153.19057 97.3836z" fill="rgba(246,0,8,.24705882)"/><path d="M135.92175 139.827H169.164V112.33785H135.92175z" style="fill:rgba(246,0,8,.24705882);stroke:rgba(246,0,8,.24705882);stroke-width:.09525;stroke-miterlimit:41.994751"/><path d="M153.19057 126.08243A.47625 .47625 0 00152.23808 126.08243A.47625 .47625 0 00153.19057 126.08243z" fill="rgba(246,0,8,.24705882)"/><path d="M135.92175 264.44258H169.164V139.827H135.92175z" style="fill:rgba(246,0,8,.24705882);stroke:rgba(246,0,8,.24705882);stroke-width:.09525;stroke-miterlimit:41.994751"/><path d="M153.19057 202.13955A.47625 .47625 0 00152.23808 202.13955A.47625 .47625 0 00153.19057 202.13955z" fill="rgba(246,0,8,.24705882)"/><path d="M152.71433 126.08242V97.3836" style="fill:none;stroke:rgba(246,0,8,.24705882);stroke-width:.09525;stroke-miterlimit:41.994751"/><path d="M152.71433 202.13955V126.08242" style="fill:none;stroke:rgba(246,0,8,.24705882);stroke-width:.09525;stroke-miterlimit:41.994751"/><path d="M85.6107 87.7824L85.9917 83.0961" style="fill:none;stroke:rgba(242,0,12,.24705882);stroke-width:.09525;stroke-miterlimit:41.994751"/><path d="M100.63162 152.21902L100.56495 144.90382" style="fill:none;stroke:rgba(238,0,16,.24705882);stroke-width:.09525;stroke-miterlimit:41.994751"/><path d="M100.56495 144.90382L121.24372 146.48497" style="fill:none;stroke:rgba(238,0,16,.24705882);stroke-width:.09525;stroke-miterlimit:41.994751"/><path d="M81.05775 92.4306H90.20175V83.91525H81.05775z" style="fill:rgba(234,0,20,.24705882);stroke:rgba(234,0,20,.24705882);stroke-width:.09525;stroke-miterlimit:41.994751"/><path d="M86.08695 87.7824A.47625 .47625 0 0085.13445 87.7824A.47625 .47625 0 0086.08695 87.7824z" fill="rgba(234,0,20,.24705882)"/><path d="M85.658325 92.516325L85.6107 87.7824" style="fill:none;stroke:rgba(226,0,28,.24705882);stroke-width:.09525;stroke-miterlimit:41.994751"/><path d="M97.82175 149.44725H102.43185V140.30325H97.82175z" style="fill:rgba(222,0,32,.24705882);stroke:rgba(222,0,32,.24705882);stroke-width:.09525;stroke-miterlimit:41.994751"/><path d="M101.0412 144.90382A.47625 .47625 0 00100.0887 144.90382A.47625 .47625 0 00101.0412 144.90382z" fill="rgba(222,0,32,.24705882)"/><path d="M100.56495 144.90382L97.1169 144.84668" style="fill:none;stroke:rgba(218,0,36,.24705882);stroke-width:.09525;stroke-miterlimit:41.994751"/><path d="M81.05775 93.05925H90.20175V92.4306H81.05775z" style="fill:rgba(218,0,36,.24705882);stroke:rgba(218,0,36,.24705882);stroke-width:.09525;stroke-miterlimit:41.994751"/><path d="M86.134575 92.516325A.47625 .47625 0 0085.182075 92.516325A.47625 .47625 0 0086.134575 92.516325z" fill="rgba(218,0,36,.24705882)"/><path d="M85.62975 96.86925L85.658325 92.516325" style="fill:none;stroke:rgba(214,0,40,.24705882);stroke-width:.09525;stroke-miterlimit:41.994751"/><path d="M103.91775 138.77925H134.39775V114.39525H103.91775z" style="fill:rgba(210,0,40,.24705882);stroke:rgba(210,0,40,.24705882);stroke-width:.09525;stroke-miterlimit:41.994751"/><path d="M121.71997 126.52057A.47625 .47625 0 00120.76748 126.52057A.47625 .47625 0 00121.71997 126.52057z" fill="rgba(210,0,40,.24705882)"/><path d="M65.81775 115.91925H67.34175V109.82325H65.81775z" style="fill:rgba(210,0,40,.24705882);stroke:rgba(210,0,40,.24705882);stroke-width:.09525;stroke-miterlimit:41.994751"/><path d="M67.056 113.21415A.47625 .47625 0 0066.1035 113.21415A.47625 .47625 0 0067.056 113.21415z" fill="rgba(210,0,40,.24705882)"/><path d="M84.10575 154.01925H96.29775V140.30325H84.10575z" style="fill:rgba(210,0,40,.24705882);stroke:rgba(210,0,40,.24705882);stroke-width:.09525;stroke-miterlimit:41.994751"/><path d="M90.65895 147.1422A.47625 .47625 0 0089.70645 147.1422A.47625 .47625 0 0090.65895 147.1422z" fill="rgba(210,0,40,.24705882)"/><path d="M70.104 138.77925H74.96175V134.7216H70.104z" style="fill:rgba(210,0,40,.24705882);stroke:rgba(210,0,40,.24705882);stroke-width:.09525;stroke-miterlimit:41.994751"/><path d="M73.009125 136.75043A.47625 .47625 0 0072.056625 136.75043A.47625 .47625 0 0073.009125 136.75043z" fill="rgba(210,0,40,.24705882)"/><path d="M70.5231 134.7216H74.96175V130.3401H70.5231z" style="fill:rgba(210,0,40,.24705882);stroke:rgba(210,0,40,.24705882);stroke-width:.09525;stroke-miterlimit:41.994751"/><path d="M73.218675 132.53085A.47625 .47625 0 0072.266175 132.53085A.47625 .47625 0 0073.218675 132.53085z" fill="rgba(210,0,40,.24705882)"/><path d="M47.52975 125.06325H65.81775V108.29925H47.52975z" style="fill:rgba(210,0,40,.24705882);stroke:rgba(210,0,40,.24705882);stroke-width:.09525;stroke-miterlimit:41.994751"/><path d="M57.15 113.21415A.47625 .47625 0 0056.1975 113.21415A.47625 .47625 0 0057.15 113.21415z" fill="rgba(210,0,40,.24705882)"/><path d="M90.58275 100.67925H103.53675V93.44025H90.58275z" style="fill:rgba(210,0,40,.24705882);stroke:rgba(210,0,40,.24705882);stroke-width:.09525;stroke-miterlimit:41.994751"/><path d="M97.536 97.05975A.47625 .47625 0 0096.5835 97.05975A.47625 .47625 0 0097.536 97.05975z" fill="rgba(210,0,40,.24705882)"/><path d="M82.77225 102.20325H88.48725V100.67925H82.77225z" style="fill:rgba(210,0,40,.24705882);stroke:rgba(210,0,40,.24705882);stroke-width:.09525;stroke-miterlimit:41.994751"/><path d="M86.1822 101.09835A.47625 .47625 0 0085.2297 101.09835A.47625 .47625 0 0086.1822 101.09835z" fill="rgba(210,0,40,.24705882)"/><path d="M67.72275 100.67925H80.67675V93.44025H67.72275z" style="fill:rgba(210,0,40,.24705882);stroke:rgba(210,0,40,.24705882);stroke-width:.09525;stroke-miterlimit:41.994751"/><path d="M74.676 97.05975A.47625 .47625 0 0073.7235 97.05975A.47625 .47625 0 0074.676 97.05975z" fill="rgba(210,0,40,.24705882)"/><path d="M67.34175 130.3401H103.91775V102.20325H67.34175z" style="fill:rgba(210,0,40,.24705882);stroke:rgba(210,0,40,.24705882);stroke-width:.09525;stroke-miterlimit:41.994751"/><path d="M86.039325 116.27167A.47625 .47625 0 0085.086825 116.27167A.47625 .47625 0 0086.039325 116.27167z" fill="rgba(210,0,40,.24705882)"/><path d="M90.58275 93.44025H103.53675V84.29625H90.58275z" style="fill:rgba(210,0,40,.24705882);stroke:rgba(210,0,40,.24705882);stroke-width:.09525;stroke-miterlimit:41.994751"/><path d="M97.536 88.86825A.47625 .47625 0 0096.5835 88.86825A.47625 .47625 0 0097.536 88.86825z" fill="rgba(210,0,40,.24705882)"/><path d="M67.34175 134.7216H70.5231V130.3401H67.34175z" style="fill:rgba(210,0,40,.24705882);stroke:rgba(210,0,40,.24705882);stroke-width:.09525;stroke-miterlimit:41.994751"/><path d="M69.408675 132.53085A.47625 .47625 0 0068.456175 132.53085A.47625 .47625 0 0069.408675 132.53085z" fill="rgba(210,0,40,.24705882)"/><path d="M74.96175 138.77925H103.91775V130.3401H74.96175z" style="fill:rgba(210,0,40,.24705882);stroke:rgba(210,0,40,.24705882);stroke-width:.09525;stroke-miterlimit:41.994751"/><path d="M89.916 134.55967A.47625 .47625 0 0088.9635 134.55967A.47625 .47625 0 0089.916 134.55967z" fill="rgba(210,0,40,.24705882)"/><path d="M80.67675 100.67925H90.58275V93.05925H80.67675z" style="fill:rgba(210,0,40,.24705882);stroke:rgba(210,0,40,.24705882);stroke-width:.09525;stroke-miterlimit:41.994751"/><path d="M86.106 96.86925A.47625 .47625 0 0085.1535 96.86925A.47625 .47625 0 0086.106 96.86925z" fill="rgba(210,0,40,.24705882)"/><path d="M67.72275 93.44025H80.67675V84.29625H67.72275z" style="fill:rgba(210,0,40,.24705882);stroke:rgba(210,0,40,.24705882);stroke-width:.09525;stroke-miterlimit:41.994751"/><path d="M74.676 88.86825A.47625 .47625 0 0073.7235 88.86825A.47625 .47625 0 0074.676 88.86825z" fill="rgba(210,0,40,.24705882)"/><path d="M96.29775 147.92325H97.82175V141.82725H96.29775z" style="fill:rgba(210,0,40,.24705882);stroke:rgba(210,0,40,.24705882);stroke-width:.09525;stroke-miterlimit:41.994751"/><path d="M97.59315 144.84668A.47625 .47625 0 0096.64065 144.84668A.47625 .47625 0 0097.59315 144.84668z" fill="rgba(210,0,40,.24705882)"/><path d="M72.742425 132.53085L85.563075 116.27167" style="fill:none;stroke:rgba(210,0,40,.24705882);stroke-width:.09525;stroke-miterlimit:41.994751"/><path d="M68.932425 132.53085L85.563075 116.27167" style="fill:none;stroke:rgba(210,0,40,.24705882);stroke-width:.09525;stroke-miterlimit:41.994751"/><path d="M97.05975 97.05975V88.86825" style="fill:none;stroke:rgba(210,0,40,.24705882);stroke-width:.09525;stroke-miterlimit:41.994751"/><path d="M85.62975 96.86925L85.70595 101.09835" style="fill:none;stroke:rgba(210,0,40,.24705882);stroke-width:.09525;stroke-miterlimit:41.994751"/><path d="M74.19975 97.05975V88.86825" style="fill:none;stroke:rgba(210,0,40,.24705882);stroke-width:.09525;stroke-miterlimit:41.994751"/><path d="M85.563075 116.27167L66.57975 113.21415" style="fill:none;stroke:rgba(210,0,40,.24705882);stroke-width:.09525;stroke-miterlimit:41.994751"/><path d="M85.563075 116.27167L85.70595 101.09835" style="fill:none;stroke:rgba(210,0,40,.24705882);stroke-width:.09525;stroke-miterlimit:41.994751"/><path d="M85.563075 116.27167L121.24372 126.52057" style="fill:none;stroke:rgba(210,0,40,.24705882);stroke-width:.09525;stroke-miterlimit:41.994751"/><path d="M74.19975 97.05975L85.62975 96.86925" style="fill:none;stroke:rgba(210,0,40,.24705882);stroke-width:.09525;stroke-miterlimit:41.994751"/><path d="M72.742425 132.53085L89.43975 134.55967" style="fill:none;stroke:rgba(210,0,40,.24705882);stroke-width:.09525;stroke-miterlimit:41.994751"/><path d="M97.1169 144.84668L90.1827 147.1422" style="fill:none;stroke:rgba(210,0,40,.24705882);stroke-width:.09525;stroke-miterlimit:41.994751"/><path d="M85.62975 96.86925L97.05975 97.05975" style="fill:none;stroke:rgba(210,0,40,.24705882);stroke-width:.09525;stroke-miterlimit:41.994751"/><path d="M68.932425 132.53085H72.742425" style="fill:none;stroke:rgba(210,0,40,.24705882);stroke-width:.09525;stroke-miterlimit:41.994751"/><path d="M72.532875 136.75043L72.742425 132.53085" style="fill:none;stroke:rgba(210,0,40,.24705882);stroke-width:.09525;stroke-miterlimit:41.994751"/><path d="M56.67375 113.21415H66.57975" style="fill:none;stroke:rgba(210,0,40,.24705882);stroke-width:.09525;stroke-miterlimit:41.994751"/><path d="M89.43975 134.55967L121.24372 126.52057" style="fill:none;stroke:rgba(210,0,40,.24705882);stroke-width:.09525;stroke-miterlimit:41.994751"/><path d="M72.532875 136.75043L89.43975 134.55967" style="fill:none;stroke:rgba(210,0,40,.24705882);stroke-width:.09525;stroke-miterlimit:41.994751"/><path d="M89.43975 134.55967L85.563075 116.27167" style="fill:none;stroke:rgba(210,0,40,.24705882);stroke-width:.09525;stroke-miterlimit:41.994751"/><path d="M70.0659 135.8265L72.532875 136.75043" style="fill:none;stroke:rgba(145,0,105,.24705882);stroke-width:.09525;stroke-miterlimit:41.994751"/><path d="M73.43775 132.68325H103.91775V102.20325H73.43775z" style="fill:rgba(121,0,133,.24705882);stroke:rgba(121,0,133,.24705882);stroke-width:.09525;stroke-miterlimit:41.994751"/><path d="M89.154 117.44325A.47625 .47625 0 0088.2015 117.44325A.47625 .47625 0 0089.154 117.44325z" fill="rgba(121,0,133,.24705882)"/><path d="M67.34175 131.5212H73.43775V102.20325H67.34175z" style="fill:rgba(121,0,133,.24705882);stroke:rgba(121,0,133,.24705882);stroke-width:.09525;stroke-miterlimit:41.994751"/><path d="M70.866 116.86222A.47625 .47625 0 0069.9135 116.86222A.47625 .47625 0 0070.866 116.86222z" fill="rgba(121,0,133,.24705882)"/><path d="M103.91775 138.77925H134.39775V114.39525H103.91775z" style="fill:rgba(121,0,133,.24705882);stroke:rgba(121,0,133,.24705882);stroke-width:.09525;stroke-miterlimit:41.994751"/><path d="M118.17667 126.36817A.47625 .47625 0 00117.22418 126.36817A.47625 .47625 0 00118.17667 126.36817z" fill="rgba(121,0,133,.24705882)"/><path d="M73.43775 138.77925H88.14435V132.68325H73.43775z" style="fill:rgba(121,0,133,.24705882);stroke:rgba(121,0,133,.24705882);stroke-width:.09525;stroke-miterlimit:41.994751"/><path d="M81.2673 135.73125A.47625 .47625 0 0080.3148 135.73125A.47625 .47625 0 0081.2673 135.73125z" fill="rgba(121,0,133,.24705882)"/><path d="M92.192475 138.77925H103.91775V132.68325H92.192475z" style="fill:rgba(121,0,133,.24705882);stroke:rgba(121,0,133,.24705882);stroke-width:.09525;stroke-miterlimit:41.994751"/><path d="M98.536125 135.73125A.47625 .47625 0 0097.583625 135.73125A.47625 .47625 0 0098.536125 135.73125z" fill="rgba(121,0,133,.24705882)"/><path d="M88.14435 136.017H92.192475V132.68325H88.14435z" style="fill:rgba(121,0,133,.24705882);stroke:rgba(121,0,133,.24705882);stroke-width:.09525;stroke-miterlimit:41.994751"/><path d="M90.649425 134.35012A.47625 .47625 0 0089.696925 134.35012A.47625 .47625 0 0090.649425 134.35012z" fill="rgba(121,0,133,.24705882)"/><path d="M70.38975 116.86222L88.67775 117.44325" style="fill:none;stroke:rgba(121,0,133,.24705882);stroke-width:.09525;stroke-miterlimit:41.994751"/><path d="M88.67775 117.44325L80.79105 135.73125" style="fill:none;stroke:rgba(121,0,133,.24705882);stroke-width:.09525;stroke-miterlimit:41.994751"/><path d="M88.67775 117.44325L90.173175 134.35012" style="fill:none;stroke:rgba(121,0,133,.24705882);stroke-width:.09525;stroke-miterlimit:41.994751"/><path d="M88.67775 117.44325L98.059875 135.73125" style="fill:none;stroke:rgba(121,0,133,.24705882);stroke-width:.09525;stroke-miterlimit:41.994751"/><path d="M98.059875 135.73125L117.70042 126.36817" style="fill:none;stroke:rgba(121,0,133,.24705882);stroke-width:.09525;stroke-miterlimit:41.994751"/><path d="M88.67775 117.44325L117.70042 126.36817" style="fill:none;stroke:rgba(121,0,133,.24705882);stroke-width:.09525;stroke-miterlimit:41.994751"/><path d="M67.34175 132.38797L70.38975 116.86222" style="fill:none;stroke:rgba(113,0,141,.24705882);stroke-width:.09525;stroke-miterlimit:41.994751"/><path d="M67.34175 132.38797L88.67775 117.44325" style="fill:none;stroke:rgba(113,0,141,.24705882);stroke-width:.09525;stroke-miterlimit:41.994751"/><path d="M67.34175 132.68325H73.43775V131.5212H67.34175z" style="fill:rgba(101,0,153,.24705882);stroke:rgba(101,0,153,.24705882);stroke-width:.09525;stroke-miterlimit:41.994751"/><path d="M67.818 132.38797A.47625 .47625 0 0066.8655 132.38797A.47625 .47625 0 0067.818 132.38797z" fill="rgba(101,0,153,.24705882)"/><path d="M66.551175 99.479099H104.45115V84.3534H66.551175z" style="fill:rgba(97,0,157,.24705882);stroke:rgba(97,0,157,.24705882);stroke-width:.09525;stroke-miterlimit:41.994751"/><path d="M85.982175 91.91625A.47625 .47625 0 0085.029675 91.91625A.47625 .47625 0 0085.982175 91.91625z" fill="rgba(97,0,157,.24705882)"/><path d="M70.0659 135.8265L67.34175 132.38797" style="fill:none;stroke:rgba(93,0,161,.24705882);stroke-width:.09525;stroke-miterlimit:41.994751"/><path d="M69.78015 138.77925H70.104V134.7216H69.78015z" style="fill:rgba(80,0,174,.24705882);stroke:rgba(80,0,174,.24705882);stroke-width:.09525;stroke-miterlimit:41.994751"/><path d="M70.54215 135.8265A.47625 .47625 0 0069.58965 135.8265A.47625 .47625 0 0070.54215 135.8265z" fill="rgba(80,0,174,.24705882)"/><path d="M90.306525 138.77925L90.173175 134.35012" style="fill:none;stroke:rgba(64,0,186,.24705882);stroke-width:.09525;stroke-miterlimit:41.994751"/><path d="M85.505925 91.91625L85.59165 101.36505" style="fill:none;stroke:rgba(48,0,206,.24705882);stroke-width:.09525;stroke-miterlimit:41.994751"/><path d="M66.446401 132.68325H105.37508V102.20325H66.446401z" style="fill:rgba(32,0,222,.24705882);stroke:rgba(32,0,222,.24705882);stroke-width:.09525;stroke-miterlimit:41.994751"/><path d="M86.020275 117.44325A.47625 .47625 0 0085.067775 117.44325A.47625 .47625 0 0086.020275 117.44325z" fill="rgba(32,0,222,.24705882)"/><path d="M105.4227 138.42682H134.12153V113.31893H105.4227z" style="fill:rgba(32,0,222,.24705882);stroke:rgba(32,0,222,.24705882);stroke-width:.09525;stroke-miterlimit:41.994751"/><path d="M120.25312 125.87287A.47625 .47625 0 00119.30063 125.87287A.47625 .47625 0 00120.25312 125.87287z" fill="rgba(32,0,222,.24705882)"/><path d="M66.446401 138.77925H87.15375V132.68325H66.446401z" style="fill:rgba(32,0,222,.24705882);stroke:rgba(32,0,222,.24705882);stroke-width:.09525;stroke-miterlimit:41.994751"/><path d="M77.276325 135.73125A.47625 .47625 0 0076.323825 135.73125A.47625 .47625 0 0077.276325 135.73125z" fill="rgba(32,0,222,.24705882)"/><path d="M93.24975 138.77925H105.37508V132.68325H93.24975z" style="fill:rgba(32,0,222,.24705882);stroke:rgba(32,0,222,.24705882);stroke-width:.09525;stroke-miterlimit:41.994751"/><path d="M99.793425 135.73125A.47625 .47625 0 0098.840925 135.73125A.47625 .47625 0 0099.793425 135.73125z" fill="rgba(32,0,222,.24705882)"/><path d="M76.800075 135.73125L85.544025 117.44325" style="fill:none;stroke:rgba(32,0,222,.24705882);stroke-width:.09525;stroke-miterlimit:41.994751"/><path d="M99.317175 135.73125L85.544025 117.44325" style="fill:none;stroke:rgba(32,0,222,.24705882);stroke-width:.09525;stroke-miterlimit:41.994751"/><path d="M99.317175 135.73125L119.77688 125.87287" style="fill:none;stroke:rgba(32,0,222,.24705882);stroke-width:.09525;stroke-miterlimit:41.994751"/><path d="M85.544025 117.44325L119.77688 125.87287" style="fill:none;stroke:rgba(32,0,222,.24705882);stroke-width:.09525;stroke-miterlimit:41.994751"/><path d="M85.544025 117.44325L85.59165 101.36505" style="fill:none;stroke:rgba(16,0,238,.24705882);stroke-width:.09525;stroke-miterlimit:41.994751"/><path d="M90.154125 138.77925L99.317175 135.73125" style="fill:none;stroke:rgba(16,0,238,.24705882);stroke-width:.09525;stroke-miterlimit:41.994751"/><path d="M76.800075 135.73125L90.154125 138.77925" style="fill:none;stroke:rgba(16,0,238,.24705882);stroke-width:.09525;stroke-miterlimit:41.994751"/><path d="M88.60155 136.29322H91.887675V136.42657H88.60155z" style="fill:rgba(12,0,242,.24705882);stroke:rgba(12,0,242,.24705882);stroke-width:.09525;stroke-miterlimit:41.994751"/><path d="M90.782775 138.77925A.47625 .47625 0 0089.830275 138.77925A.47625 .47625 0 0090.782775 138.77925z" fill="rgba(12,0,242,.24705882)"/><path d="M90.306525 138.77925H90.154125" style="fill:none;stroke:rgba(4,0,250,.24705882);stroke-width:.09525;stroke-miterlimit:41.994751"/><path d="M82.762725 102.02228H88.4301V100.71735H82.762725z" style="fill:rgba(0,0,255,.24705882);stroke:rgba(0,0,255,.24705882);stroke-width:.09525;stroke-miterlimit:41.994751"/><path d="M86.0679 101.36505A.47625 .47625 0 0085.1154 101.36505A.47625 .47625 0 0086.0679 101.36505z" fill="rgba(0,0,255,.24705882)"/><path d="M87.15375 138.77925H93.24975V138.01725H87.15375z" style="fill:rgba(0,0,255,.24705882);stroke:rgba(0,0,255,.24705882);stroke-width:.09525;stroke-miterlimit:41.994751"/><path d="M90.630375 138.77925A.47625 .47625 0 0089.677875 138.77925A.47625 .47625 0 0090.630375 138.77925z" fill="rgba(0,0,255,.24705882)"/></svg>