<svg version="1.1" width="260.12775mm" height="208.9785mm" viewBox="0 0 260.12775 208.9785" xmlns="http://www.w3.org/2000/svg" xmlns:xlink="http://www.w3.org/1999/xlink"><path d="M130.683 72.67575H132.588" style="fill:none;stroke:#f00;stroke-width:.09525;stroke-miterlimit:41.994751"/><path d="M130.683 72.67575V70.77075" style="fill:none;stroke:#0f0;stroke-width:.09525;stroke-miterlimit:41.994751"/><path d="M130.06387 190.39523H148.02802V170.85945H130.06387z" style="fill:rgba(255,0,0,.24705882);stroke:rgba(255,0,0,.24705882);stroke-width:.09525;stroke-miterlimit:41.994751"/><path d="M143.256 186.28995A.47625 .47625 0 00142.3035 186.28995A.47625 .47625 0 00143.256 186.28995z" fill="rgba(255,0,0,.24705882)"/><path d="M84.096225 172.33582H95.2881V153.34297H84.096225z" style="fill:rgba(255,0,0,.24705882);stroke:rgba(255,0,0,.24705882);stroke-width:.09525;stroke-miterlimit:41.994751"/><path d="M89.201625 157.6959A.47625 .47625 0 0088.249125 157.6959A.47625 .47625 0 0089.201625 157.6959z" fill="rgba(255,0,0,.24705882)"/><path d="M103.90822 171.831H126.44437V152.10472H103.90822z" style="fill:rgba(255,0,0,.24705882);stroke:rgba(255,0,0,.24705882);stroke-width:.09525;stroke-miterlimit:41.994751"/><path d="M117.64327 162.56318A.47625 .47625 0 00116.69078 162.56318A.47625 .47625 0 00117.64327 162.56318z" fill="rgba(255,0,0,.24705882)"/><path d="M100.7745 150.28545H108.91837V140.26515H100.7745z" style="fill:rgba(255,0,0,.24705882);stroke:rgba(255,0,0,.24705882);stroke-width:.09525;stroke-miterlimit:41.994751"/><path d="M105.22267 144.60855A.47625 .47625 0 00104.27017 144.60855A.47625 .47625 0 00105.22267 144.60855z" fill="rgba(255,0,0,.24705882)"/><path d="M100.14585 150.28545H109.25175V139.81748H100.14585z" style="fill:rgba(255,0,0,.24705882);stroke:rgba(255,0,0,.24705882);stroke-width:.09525;stroke-miterlimit:41.994751"/><path d="M105.22267 144.60855A.47625 .47625 0 00104.27017 144.60855A.47625 .47625 0 00105.22267 144.60855z" fill="rgba(255,0,0,.24705882)"/><path d="M100.7745 150.28545H108.91837V140.26515H100.7745z" style="fill:rgba(255,0,0,.24705882);stroke:rgba(255,0,0,.24705882);stroke-width:.09525;stroke-miterlimit:41.994751"/><path d="M105.22267 144.60855A.47625 .47625 0 00104.27017 144.60855A.47625 .47625 0 00105.22267 144.60855z" fill="rgba(255,0,0,.24705882)"/><path d="M103.94633 191.86208H129.6924V172.57395H103.94633z" style="fill:rgba(255,0,0,.24705882);stroke:rgba(255,0,0,.24705882);stroke-width:.09525;stroke-miterlimit:41.994751"/><path d="M117.25275 185.07075A.47625 .47625 0 00116.30025 185.07075A.47625 .47625 0 00117.25275 185.07075z" fill="rgba(255,0,0,.24705882)"/><path d="M84.096225 207.65452H92.1639V192.5193H84.096225z" style="fill:rgba(255,0,0,.24705882);stroke:rgba(255,0,0,.24705882);stroke-width:.09525;stroke-miterlimit:41.994751"/><path d="M88.392 202.62533A.47625 .47625 0 0087.4395 202.62533A.47625 .47625 0 0088.392 202.62533z" fill="rgba(255,0,0,.24705882)"/><path d="M104.1654 208.7499H131.26403V192.61455H104.1654z" style="fill:rgba(255,0,0,.24705882);stroke:rgba(255,0,0,.24705882);stroke-width:.09525;stroke-miterlimit:41.994751"/><path d="M116.9289 201.9681A.47625 .47625 0 00115.9764 201.9681A.47625 .47625 0 00116.9289 201.9681z" fill="rgba(255,0,0,.24705882)"/><path d="M82.953225 192.47168H104.06062V172.35487H82.953225z" style="fill:rgba(255,0,0,.24705882);stroke:rgba(255,0,0,.24705882);stroke-width:.09525;stroke-miterlimit:41.994751"/><path d="M89.087325 183.25147A.47625 .47625 0 0088.134825 183.25147A.47625 .47625 0 0089.087325 183.25147z" fill="rgba(255,0,0,.24705882)"/><path d="M86.92515 143.91323H91.821V139.73175H86.92515z" style="fill:rgba(255,0,0,.24705882);stroke:rgba(255,0,0,.24705882);stroke-width:.09525;stroke-miterlimit:41.994751"/><path d="M89.70645 141.8844A.47625 .47625 0 0088.75395 141.8844A.47625 .47625 0 0089.70645 141.8844z" fill="rgba(255,0,0,.24705882)"/><path d="M82.7151 151.16175H86.84895V139.73175H82.7151z" style="fill:rgba(255,0,0,.24705882);stroke:rgba(255,0,0,.24705882);stroke-width:.09525;stroke-miterlimit:41.994751"/><path d="M85.582125 141.9606A.47625 .47625 0 0084.629625 141.9606A.47625 .47625 0 0085.582125 141.9606z" fill="rgba(255,0,0,.24705882)"/><path d="M126.93967 169.3164H146.56117V151.77135H126.93967z" style="fill:rgba(255,0,0,.24705882);stroke:rgba(255,0,0,.24705882);stroke-width:.09525;stroke-miterlimit:41.994751"/><path d="M128.98755 157.70542A.47625 .47625 0 00128.03505 157.70542A.47625 .47625 0 00128.98755 157.70542z" fill="rgba(255,0,0,.24705882)"/><path d="M110.51857 151.20937H147.98992V139.72222H110.51857z" style="fill:rgba(255,0,0,.24705882);stroke:rgba(255,0,0,.24705882);stroke-width:.09525;stroke-miterlimit:41.994751"/><path d="M129.13042 145.0467A.47625 .47625 0 00128.17792 145.0467A.47625 .47625 0 00129.13042 145.0467z" fill="rgba(255,0,0,.24705882)"/><path d="M110.25187 144.98955A.47625 .47625 0 00109.29937 144.98955A.47625 .47625 0 00110.25187 144.98955z" fill="rgba(255,0,0,.24705882)"/><path d="M91.849575 151.16175H100.0887V121.539H91.849575z" style="fill:rgba(255,0,0,.24705882);stroke:rgba(255,0,0,.24705882);stroke-width:.09525;stroke-miterlimit:41.994751"/><path d="M96.2025 142.10348A.47625 .47625 0 0095.25 142.10348A.47625 .47625 0 0096.2025 142.10348z" fill="rgba(255,0,0,.24705882)"/><path d="M128.94945 152.1714A.47625 .47625 0 00127.99695 152.1714A.47625 .47625 0 00128.94945 152.1714z" fill="rgba(255,0,0,.24705882)"/><path d="M128.5113 157.70542L117.16702 162.56318" style="fill:none;stroke:rgba(255,0,0,.24705882);stroke-width:.09525;stroke-miterlimit:41.994751"/><path d="M89.2302 141.8844L95.72625 142.10348" style="fill:none;stroke:rgba(255,0,0,.24705882);stroke-width:.09525;stroke-miterlimit:41.994751"/><path d="M109.77562 144.98955L104.74642 144.60855" style="fill:none;stroke:rgba(255,0,0,.24705882);stroke-width:.09525;stroke-miterlimit:41.994751"/><path d="M128.65417 145.0467L109.77562 144.98955" style="fill:none;stroke:rgba(255,0,0,.24705882);stroke-width:.09525;stroke-miterlimit:41.994751"/><path d="M128.65417 145.0467L128.5113 157.70542" style="fill:none;stroke:rgba(255,0,0,.24705882);stroke-width:.09525;stroke-miterlimit:41.994751"/><path d="M116.7765 185.07075L142.77975 186.28995" style="fill:none;stroke:rgba(255,0,0,.24705882);stroke-width:.09525;stroke-miterlimit:41.994751"/><path d="M95.72625 142.10348L104.74642 144.60855" style="fill:none;stroke:rgba(255,0,0,.24705882);stroke-width:.09525;stroke-miterlimit:41.994751"/><path d="M88.611075 183.25147L116.7765 185.07075" style="fill:none;stroke:rgba(255,0,0,.24705882);stroke-width:.09525;stroke-miterlimit:41.994751"/><path d="M116.7765 185.07075L116.45265 201.9681" style="fill:none;stroke:rgba(255,0,0,.24705882);stroke-width:.09525;stroke-miterlimit:41.994751"/><path d="M116.7765 185.07075L117.16702 162.56318" style="fill:none;stroke:rgba(255,0,0,.24705882);stroke-width:.09525;stroke-miterlimit:41.994751"/><path d="M89.2302 141.8844L85.105875 141.9606" style="fill:none;stroke:rgba(255,0,0,.24705882);stroke-width:.09525;stroke-miterlimit:41.994751"/><path d="M88.611075 183.25147L88.725375 157.6959" style="fill:none;stroke:rgba(255,0,0,.24705882);stroke-width:.09525;stroke-miterlimit:41.994751"/><path d="M88.611075 183.25147L87.91575 202.62533" style="fill:none;stroke:rgba(255,0,0,.24705882);stroke-width:.09525;stroke-miterlimit:41.994751"/><path d="M104.74642 144.60855L105.24172 137.45528" style="fill:none;stroke:rgba(250,0,4,.24705882);stroke-width:.09525;stroke-miterlimit:41.994751"/><path d="M100.965 139.57935H109.347V134.81685H100.965z" style="fill:rgba(242,0,8,.24705882);stroke:rgba(242,0,8,.24705882);stroke-width:.09525;stroke-miterlimit:41.994751"/><path d="M105.71797 137.45528A.47625 .47625 0 00104.76547 137.45528A.47625 .47625 0 00105.71797 137.45528z" fill="rgba(242,0,8,.24705882)"/><path d="M105.24172 137.45528L105.0798 132.38797" style="fill:none;stroke:rgba(230,0,24,.24705882);stroke-width:.09525;stroke-miterlimit:41.994751"/><path d="M101.0031 134.09295H109.26127V130.58775H101.0031z" style="fill:rgba(218,0,36,.24705882);stroke:rgba(218,0,36,.24705882);stroke-width:.09525;stroke-miterlimit:41.994751"/><path d="M105.55605 132.38797A.47625 .47625 0 00104.60355 132.38797A.47625 .47625 0 00105.55605 132.38797z" fill="rgba(218,0,36,.24705882)"/><path d="M105.0798 132.38797L105.21315 127.64452" style="fill:none;stroke:rgba(206,0,48,.24705882);stroke-width:.09525;stroke-miterlimit:41.994751"/><path d="M101.02215 129.97815H109.08982V125.9586H101.02215z" style="fill:rgba(194,0,60,.24705882);stroke:rgba(194,0,60,.24705882);stroke-width:.09525;stroke-miterlimit:41.994751"/><path d="M105.6894 127.64452A.47625 .47625 0 00104.7369 127.64452A.47625 .47625 0 00105.6894 127.64452z" fill="rgba(194,0,60,.24705882)"/><path d="M105.21315 127.64452L104.67975 122.08192" style="fill:none;stroke:rgba(178,0,72,.24705882);stroke-width:.09525;stroke-miterlimit:41.994751"/><path d="M104.74642 144.60855L82.677 147.95182" style="fill:none;stroke:rgba(178,0,76,.24705882);stroke-width:.09525;stroke-miterlimit:41.994751"/><path d="M110.28045 85.696425A.47625 .47625 0 00109.32795 85.696425A.47625 .47625 0 00110.28045 85.696425z" fill="rgba(165,0,89,.24705882)"/><path d="M101.12692 117.54802H109.26127V103.35577H101.12692z" style="fill:rgba(165,0,89,.24705882);stroke:rgba(165,0,89,.24705882);stroke-width:.09525;stroke-miterlimit:41.994751"/><path d="M106.93717 109.41367A.47625 .47625 0 00105.98467 109.41367A.47625 .47625 0 00106.93717 109.41367z" fill="rgba(165,0,89,.24705882)"/><path d="M75.30465 94.1832A.47625 .47625 0 0074.35215 94.1832A.47625 .47625 0 0075.30465 94.1832z" fill="rgba(165,0,89,.24705882)"/><path d="M101.1174 125.25375H109.28032V117.5766H101.1174z" style="fill:rgba(165,0,89,.24705882);stroke:rgba(165,0,89,.24705882);stroke-width:.09525;stroke-miterlimit:41.994751"/><path d="M105.156 122.08192A.47625 .47625 0 00104.2035 122.08192A.47625 .47625 0 00105.156 122.08192z" fill="rgba(165,0,89,.24705882)"/><path d="M82.4865 103.33672H109.28985V88.039575H82.4865z" style="fill:rgba(165,0,89,.24705882);stroke:rgba(165,0,89,.24705882);stroke-width:.09525;stroke-miterlimit:41.994751"/><path d="M92.935425 94.668975A.47625 .47625 0 0091.982925 94.668975A.47625 .47625 0 0092.935425 94.668975z" fill="rgba(165,0,89,.24705882)"/><path d="M110.13757 120.63412H139.05548V97.2693H110.13757z" style="fill:rgba(165,0,89,.24705882);stroke:rgba(165,0,89,.24705882);stroke-width:.09525;stroke-miterlimit:41.994751"/><path d="M126.71107 109.75657A.47625 .47625 0 00125.75857 109.75657A.47625 .47625 0 00126.71107 109.75657z" fill="rgba(165,0,89,.24705882)"/><path d="M82.724625 120.6627H101.09835V103.35577H82.724625z" style="fill:rgba(165,0,89,.24705882);stroke:rgba(165,0,89,.24705882);stroke-width:.09525;stroke-miterlimit:41.994751"/><path d="M91.297125 111.00435A.47625 .47625 0 0090.344625 111.00435A.47625 .47625 0 0091.297125 111.00435z" fill="rgba(165,0,89,.24705882)"/><path d="M94.345125 47.634525A.47625 .47625 0 0093.392625 47.634525A.47625 .47625 0 0094.345125 47.634525z" fill="rgba(165,0,89,.24705882)"/><path d="M82.7151 88.03005H109.29937V73.4568H82.7151z" style="fill:rgba(165,0,89,.24705882);stroke:rgba(165,0,89,.24705882);stroke-width:.09525;stroke-miterlimit:41.994751"/><path d="M94.802325 85.448775A.47625 .47625 0 0093.849825 85.448775A.47625 .47625 0 0094.802325 85.448775z" fill="rgba(165,0,89,.24705882)"/><path d="M88.0491 73.428225H100.1268V48.320325H88.0491z" style="fill:rgba(165,0,89,.24705882);stroke:rgba(165,0,89,.24705882);stroke-width:.09525;stroke-miterlimit:41.994751"/><path d="M94.96425 66.54165A.47625 .47625 0 0094.01175 66.54165A.47625 .47625 0 0094.96425 66.54165z" fill="rgba(165,0,89,.24705882)"/><path d="M131.66407 38.261925H153.89542V18.4404H131.66407z" style="fill:rgba(165,0,89,.24705882);stroke:rgba(165,0,89,.24705882);stroke-width:.09525;stroke-miterlimit:41.994751"/><path d="M141.07477 27.765375A.47625 .47625 0 00140.12228 27.765375A.47625 .47625 0 00141.07477 27.765375z" fill="rgba(165,0,89,.24705882)"/><path d="M64.8081 11.591925H77.562075V.36195H64.8081z" style="fill:rgba(165,0,89,.24705882);stroke:rgba(165,0,89,.24705882);stroke-width:.09525;stroke-miterlimit:41.994751"/><path d="M69.2277 5.648325A.47625 .47625 0 0068.2752 5.648325A.47625 .47625 0 0069.2277 5.648325z" fill="rgba(165,0,89,.24705882)"/><path d="M106.42282 18.430875H128.50177V1.704975H106.42282z" style="fill:rgba(165,0,89,.24705882);stroke:rgba(165,0,89,.24705882);stroke-width:.09525;stroke-miterlimit:41.994751"/><path d="M119.24347 6.07695A.47625 .47625 0 00118.29098 6.07695A.47625 .47625 0 00119.24347 6.07695z" fill="rgba(165,0,89,.24705882)"/><path d="M66.00825 46.34865H80.2386V12.544425H66.00825z" style="fill:rgba(165,0,89,.24705882);stroke:rgba(165,0,89,.24705882);stroke-width:.09525;stroke-miterlimit:41.994751"/><path d="M69.7992 28.3845A.47625 .47625 0 0068.8467 28.3845A.47625 .47625 0 0069.7992 28.3845z" fill="rgba(165,0,89,.24705882)"/><path d="M80.305275 46.34865H102.96525V18.4785H80.305275z" style="fill:rgba(165,0,89,.24705882);stroke:rgba(165,0,89,.24705882);stroke-width:.09525;stroke-miterlimit:41.994751"/><path d="M85.47735 31.422975A.47625 .47625 0 0084.52485 31.422975A.47625 .47625 0 0085.47735 31.422975z" fill="rgba(165,0,89,.24705882)"/><path d="M62.84595 32.680275H65.998725V24.317325H62.84595z" style="fill:rgba(165,0,89,.24705882);stroke:rgba(165,0,89,.24705882);stroke-width:.09525;stroke-miterlimit:41.994751"/><path d="M65.084325 28.40355A.47625 .47625 0 0064.131825 28.40355A.47625 .47625 0 0065.084325 28.40355z" fill="rgba(165,0,89,.24705882)"/><path d="M110.13757 96.269175H129.13043V73.47585H110.13757z" style="fill:rgba(165,0,89,.24705882);stroke:rgba(165,0,89,.24705882);stroke-width:.09525;stroke-miterlimit:41.994751"/><path d="M120.31027 85.848825A.47625 .47625 0 00119.35778 85.848825A.47625 .47625 0 00120.31027 85.848825z" fill="rgba(165,0,89,.24705882)"/><path d="M.276225 52.206525H18.773775V37.73805H.276225z" style="fill:rgba(165,0,89,.24705882);stroke:rgba(165,0,89,.24705882);stroke-width:.09525;stroke-miterlimit:41.994751"/><path d="M10.391775 49.16805A.47625 .47625 0 009.439275 49.16805A.47625 .47625 0 0010.391775 49.16805z" fill="rgba(165,0,89,.24705882)"/><path d="M129.13995 84.8106H141.52245V73.5711H129.13995z" style="fill:rgba(165,0,89,.24705882);stroke:rgba(165,0,89,.24705882);stroke-width:.09525;stroke-miterlimit:41.994751"/><path d="M134.6454 78.819375A.47625 .47625 0 00133.6929 78.819375A.47625 .47625 0 00134.6454 78.819375z" fill="rgba(165,0,89,.24705882)"/><path d="M.276225 37.728525H62.8269V19.230975H.276225z" style="fill:rgba(165,0,89,.24705882);stroke:rgba(165,0,89,.24705882);stroke-width:.09525;stroke-miterlimit:41.994751"/><path d="M12.9921 28.698825A.47625 .47625 0 0012.0396 28.698825A.47625 .47625 0 0012.9921 28.698825z" fill="rgba(165,0,89,.24705882)"/><path d="M134.9121 85.086825A.47625 .47625 0 00133.9596 85.086825A.47625 .47625 0 00134.9121 85.086825z" fill="rgba(165,0,89,.24705882)"/><path d="M103.03192 46.034325H129.1209V18.45945H103.03192z" style="fill:rgba(165,0,89,.24705882);stroke:rgba(165,0,89,.24705882);stroke-width:.09525;stroke-miterlimit:41.994751"/><path d="M119.2911 32.48025A.47625 .47625 0 00118.3386 32.48025A.47625 .47625 0 00119.2911 32.48025z" fill="rgba(165,0,89,.24705882)"/><path d="M129.9591 96.250125H142.06538V85.658325H129.9591z" style="fill:rgba(165,0,89,.24705882);stroke:rgba(165,0,89,.24705882);stroke-width:.09525;stroke-miterlimit:41.994751"/><path d="M135.93127 92.402025A.47625 .47625 0 00134.97878 92.402025A.47625 .47625 0 00135.93127 92.402025z" fill="rgba(165,0,89,.24705882)"/><path d="M82.92465 94.0308A.47625 .47625 0 0081.97215 94.0308A.47625 .47625 0 0082.92465 94.0308z" fill="rgba(165,0,89,.24705882)"/><path d="M78.92415 6.19125A.47625 .47625 0 0077.97165 6.19125A.47625 .47625 0 0078.92415 6.19125z" fill="rgba(165,0,89,.24705882)"/><path d="M110.1471 110.05185A.47625 .47625 0 00109.1946 110.05185A.47625 .47625 0 00110.1471 110.05185z" fill="rgba(165,0,89,.24705882)"/><path d="M131.04495 28.44165A.47625 .47625 0 00130.09245 28.44165A.47625 .47625 0 00131.04495 28.44165z" fill="rgba(165,0,89,.24705882)"/><path d="M80.286225 18.4404H106.36567V1.704975H80.286225z" style="fill:rgba(165,0,89,.24705882);stroke:rgba(165,0,89,.24705882);stroke-width:.09525;stroke-miterlimit:41.994751"/><path d="M84.60105 6.53415A.47625 .47625 0 0083.64855 6.53415A.47625 .47625 0 0084.60105 6.53415z" fill="rgba(165,0,89,.24705882)"/><path d="M92.459175 94.668975L90.820875 111.00435" style="fill:none;stroke:rgba(165,0,89,.24705882);stroke-width:.09525;stroke-miterlimit:41.994751"/><path d="M106.46092 109.41367L109.67085 110.05185" style="fill:none;stroke:rgba(165,0,89,.24705882);stroke-width:.09525;stroke-miterlimit:41.994751"/><path d="M118.76722 6.07695L84.1248 6.53415" style="fill:none;stroke:rgba(165,0,89,.24705882);stroke-width:.09525;stroke-miterlimit:41.994751"/><path d="M134.43585 85.086825L135.45503 92.402025" style="fill:none;stroke:rgba(165,0,89,.24705882);stroke-width:.09525;stroke-miterlimit:41.994751"/><path d="M118.81485 32.48025L118.76722 6.07695" style="fill:none;stroke:rgba(165,0,89,.24705882);stroke-width:.09525;stroke-miterlimit:41.994751"/><path d="M118.81485 32.48025L130.5687 28.44165" style="fill:none;stroke:rgba(165,0,89,.24705882);stroke-width:.09525;stroke-miterlimit:41.994751"/><path d="M134.16915 78.819375L134.43585 85.086825" style="fill:none;stroke:rgba(165,0,89,.24705882);stroke-width:.09525;stroke-miterlimit:41.994751"/><path d="M12.51585 28.698825L9.915525 49.16805" style="fill:none;stroke:rgba(165,0,89,.24705882);stroke-width:.09525;stroke-miterlimit:41.994751"/><path d="M119.83402 85.848825L134.16915 78.819375" style="fill:none;stroke:rgba(165,0,89,.24705882);stroke-width:.09525;stroke-miterlimit:41.994751"/><path d="M94.326075 85.448775L109.8042 85.696425" style="fill:none;stroke:rgba(165,0,89,.24705882);stroke-width:.09525;stroke-miterlimit:41.994751"/><path d="M94.326075 85.448775L94.488 66.54165" style="fill:none;stroke:rgba(165,0,89,.24705882);stroke-width:.09525;stroke-miterlimit:41.994751"/><path d="M94.326075 85.448775L92.459175 94.668975" style="fill:none;stroke:rgba(165,0,89,.24705882);stroke-width:.09525;stroke-miterlimit:41.994751"/><path d="M106.46092 109.41367L90.820875 111.00435" style="fill:none;stroke:rgba(165,0,89,.24705882);stroke-width:.09525;stroke-miterlimit:41.994751"/><path d="M84.1248 6.53415L78.4479 6.19125" style="fill:none;stroke:rgba(165,0,89,.24705882);stroke-width:.09525;stroke-miterlimit:41.994751"/><path d="M106.46092 109.41367L104.67975 122.08192" style="fill:none;stroke:rgba(165,0,89,.24705882);stroke-width:.09525;stroke-miterlimit:41.994751"/><path d="M64.608075 28.40355L12.51585 28.698825" style="fill:none;stroke:rgba(165,0,89,.24705882);stroke-width:.09525;stroke-miterlimit:41.994751"/><path d="M78.4479 6.19125L68.75145 5.648325" style="fill:none;stroke:rgba(165,0,89,.24705882);stroke-width:.09525;stroke-miterlimit:41.994751"/><path d="M130.5687 28.44165L140.59852 27.765375" style="fill:none;stroke:rgba(165,0,89,.24705882);stroke-width:.09525;stroke-miterlimit:41.994751"/><path d="M109.67085 110.05185L126.23482 109.75657" style="fill:none;stroke:rgba(165,0,89,.24705882);stroke-width:.09525;stroke-miterlimit:41.994751"/><path d="M93.868875 47.634525L94.488 66.54165" style="fill:none;stroke:rgba(165,0,89,.24705882);stroke-width:.09525;stroke-miterlimit:41.994751"/><path d="M109.8042 85.696425L119.83402 85.848825" style="fill:none;stroke:rgba(165,0,89,.24705882);stroke-width:.09525;stroke-miterlimit:41.994751"/><path d="M69.32295 28.3845L64.608075 28.40355" style="fill:none;stroke:rgba(165,0,89,.24705882);stroke-width:.09525;stroke-miterlimit:41.994751"/><path d="M85.0011 31.422975L69.32295 28.3845" style="fill:none;stroke:rgba(165,0,89,.24705882);stroke-width:.09525;stroke-miterlimit:41.994751"/><path d="M85.0011 31.422975L93.868875 47.634525" style="fill:none;stroke:rgba(165,0,89,.24705882);stroke-width:.09525;stroke-miterlimit:41.994751"/><path d="M85.0011 31.422975L84.1248 6.53415" style="fill:none;stroke:rgba(165,0,89,.24705882);stroke-width:.09525;stroke-miterlimit:41.994751"/><path d="M85.0011 31.422975L118.81485 32.48025" style="fill:none;stroke:rgba(165,0,89,.24705882);stroke-width:.09525;stroke-miterlimit:41.994751"/><path d="M74.8284 94.1832L75.752325 116.4336" style="fill:none;stroke:rgba(161,0,89,.24705882);stroke-width:.09525;stroke-miterlimit:41.994751"/><path d="M156.21 23.9649L140.59852 27.765375" style="fill:none;stroke:rgba(161,0,93,.24705882);stroke-width:.09525;stroke-miterlimit:41.994751"/><path d="M155.66707 34.718625L140.59852 27.765375" style="fill:none;stroke:rgba(161,0,93,.24705882);stroke-width:.09525;stroke-miterlimit:41.994751"/><path d="M76.228575 116.4336A.47625 .47625 0 0075.276075 116.4336A.47625 .47625 0 0076.228575 116.4336z" fill="rgba(161,0,93,.24705882)"/><path d="M156.68625 23.9649A.47625 .47625 0 00155.73375 23.9649A.47625 .47625 0 00156.68625 23.9649z" fill="rgba(157,0,97,.24705882)"/><path d="M90.820875 111.00435L86.953725 124.08218" style="fill:none;stroke:rgba(157,0,97,.24705882);stroke-width:.09525;stroke-miterlimit:41.994751"/><path d="M156.14332 34.718625A.47625 .47625 0 00155.19082 34.718625A.47625 .47625 0 00156.14332 34.718625z" fill="rgba(157,0,97,.24705882)"/><path d="M82.677 125.37757H91.059V121.158H82.677z" style="fill:rgba(149,0,105,.24705882);stroke:rgba(149,0,105,.24705882);stroke-width:.09525;stroke-miterlimit:41.994751"/><path d="M87.429975 124.08218A.47625 .47625 0 0086.477475 124.08218A.47625 .47625 0 0087.429975 124.08218z" fill="rgba(149,0,105,.24705882)"/><path d="M86.953725 124.08218L87.010875 127.8636" style="fill:none;stroke:rgba(141,0,113,.24705882);stroke-width:.09525;stroke-miterlimit:41.994751"/><path d="M156.21 23.9649L164.211 24.203025" style="fill:none;stroke:rgba(137,0,113,.24705882);stroke-width:.09525;stroke-miterlimit:41.994751"/><path d="M155.66707 34.718625L165.02062 35.613975" style="fill:none;stroke:rgba(133,0,121,.24705882);stroke-width:.09525;stroke-miterlimit:41.994751"/><path d="M82.84845 129.44475H90.9447V125.8062H82.84845z" style="fill:rgba(133,0,121,.24705882);stroke:rgba(133,0,121,.24705882);stroke-width:.09525;stroke-miterlimit:41.994751"/><path d="M87.487125 127.8636A.47625 .47625 0 0086.534625 127.8636A.47625 .47625 0 0087.487125 127.8636z" fill="rgba(133,0,121,.24705882)"/><path d="M87.010875 127.8636L87.144225 131.98792" style="fill:none;stroke:rgba(121,0,133,.24705882);stroke-width:.09525;stroke-miterlimit:41.994751"/><path d="M164.68725 24.203025A.47625 .47625 0 00163.73475 24.203025A.47625 .47625 0 00164.68725 24.203025z" fill="rgba(121,0,133,.24705882)"/><path d="M165.49687 35.613975A.47625 .47625 0 00164.54438 35.613975A.47625 .47625 0 00165.49687 35.613975z" fill="rgba(113,0,141,.24705882)"/><path d="M82.84845 134.7597H91.059V129.94005H82.84845z" style="fill:rgba(109,0,145,.24705882);stroke:rgba(109,0,145,.24705882);stroke-width:.09525;stroke-miterlimit:41.994751"/><path d="M87.620475 131.98792A.47625 .47625 0 0086.667975 131.98792A.47625 .47625 0 0087.620475 131.98792z" fill="rgba(109,0,145,.24705882)"/><path d="M72.666225 12.7635L85.0011 31.422975" style="fill:none;stroke:rgba(97,0,153,.24705882);stroke-width:.09525;stroke-miterlimit:41.994751"/><path d="M87.144225 131.98792L87.07755 137.0076" style="fill:none;stroke:rgba(97,0,153,.24705882);stroke-width:.09525;stroke-miterlimit:41.994751"/><path d="M83.15325 147.95182A.47625 .47625 0 0082.20075 147.95182A.47625 .47625 0 0083.15325 147.95182z" fill="rgba(97,0,157,.24705882)"/><path d="M164.211 24.203025L173.355 24.1554" style="fill:none;stroke:rgba(93,0,157,.24705882);stroke-width:.09525;stroke-miterlimit:41.994751"/><path d="M173.21212 34.623375L165.02062 35.613975" style="fill:none;stroke:rgba(93,0,161,.24705882);stroke-width:.09525;stroke-miterlimit:41.994751"/><path d="M83.00085 139.73175H91.059V135.45502H83.00085z" style="fill:rgba(89,0,165,.24705882);stroke:rgba(89,0,165,.24705882);stroke-width:.09525;stroke-miterlimit:41.994751"/><path d="M87.5538 137.0076A.47625 .47625 0 0086.6013 137.0076A.47625 .47625 0 0087.5538 137.0076z" fill="rgba(89,0,165,.24705882)"/><path d="M85.0011 31.422975L101.06977 23.802975" style="fill:none;stroke:rgba(80,0,170,.24705882);stroke-width:.09525;stroke-miterlimit:41.994751"/><path d="M87.07755 137.0076L87.487125 139.83652" style="fill:none;stroke:rgba(76,0,174,.24705882);stroke-width:.09525;stroke-miterlimit:41.994751"/><path d="M173.68837 34.623375A.47625 .47625 0 00172.73587 34.623375A.47625 .47625 0 00173.68837 34.623375z" fill="rgba(72,0,182,.24705882)"/><path d="M184.88025 35.2806L173.21212 34.623375" style="fill:none;stroke:rgba(68,0,182,.24705882);stroke-width:.09525;stroke-miterlimit:41.994751"/><path d="M111.52822 109.73753H119.35777V106.86097H111.52822z" style="fill:rgba(68,0,182,.24705882);stroke:rgba(68,0,182,.24705882);stroke-width:.09525;stroke-miterlimit:41.994751"/><path d="M114.31905 108.4326A.47625 .47625 0 00113.36655 108.4326A.47625 .47625 0 00114.31905 108.4326z" fill="rgba(68,0,182,.24705882)"/><path d="M170.75467 104.04157H194.67195V84.210525H170.75467z" style="fill:rgba(68,0,182,.24705882);stroke:rgba(68,0,182,.24705882);stroke-width:.09525;stroke-miterlimit:41.994751"/><path d="M186.43282 93.716475A.47625 .47625 0 00185.48032 93.716475A.47625 .47625 0 00186.43282 93.716475z" fill="rgba(68,0,182,.24705882)"/><path d="M135.55027 111.30915A.47625 .47625 0 00134.59778 111.30915A.47625 .47625 0 00135.55027 111.30915z" fill="rgba(68,0,182,.24705882)"/><path d="M139.47457 130.28295A.47625 .47625 0 00138.52208 130.28295A.47625 .47625 0 00139.47457 130.28295z" fill="rgba(68,0,182,.24705882)"/><path d="M173.83125 24.1554A.47625 .47625 0 00172.87875 24.1554A.47625 .47625 0 00173.83125 24.1554z" fill="rgba(68,0,182,.24705882)"/><path d="M126.20625 111.18532A.47625 .47625 0 00125.25375 111.18532A.47625 .47625 0 00126.20625 111.18532z" fill="rgba(68,0,182,.24705882)"/><path d="M92.25915 121.59615H109.1946V73.70445H92.25915z" style="fill:rgba(68,0,182,.24705882);stroke:rgba(68,0,182,.24705882);stroke-width:.09525;stroke-miterlimit:41.994751"/><path d="M101.97465 93.278325A.47625 .47625 0 00101.02215 93.278325A.47625 .47625 0 00101.97465 93.278325z" fill="rgba(68,0,182,.24705882)"/><path d="M175.17427 59.87415H194.48145V19.1643H175.17427z" style="fill:rgba(68,0,182,.24705882);stroke:rgba(68,0,182,.24705882);stroke-width:.09525;stroke-miterlimit:41.994751"/><path d="M185.3565 35.2806A.47625 .47625 0 00184.404 35.2806A.47625 .47625 0 00185.3565 35.2806z" fill="rgba(68,0,182,.24705882)"/><path d="M92.249625 140.3223H108.98505V121.60567H92.249625z" style="fill:rgba(68,0,182,.24705882);stroke:rgba(68,0,182,.24705882);stroke-width:.09525;stroke-miterlimit:41.994751"/><path d="M101.14597 130.2258A.47625 .47625 0 00100.19347 130.2258A.47625 .47625 0 00101.14597 130.2258z" fill="rgba(68,0,182,.24705882)"/><path d="M115.30012 111.38535A.47625 .47625 0 00114.34762 111.38535A.47625 .47625 0 00115.30012 111.38535z" fill="rgba(68,0,182,.24705882)"/><path d="M93.583125 150.876H109.347V140.33182H93.583125z" style="fill:rgba(68,0,182,.24705882);stroke:rgba(68,0,182,.24705882);stroke-width:.09525;stroke-miterlimit:41.994751"/><path d="M100.5459 144.86572A.47625 .47625 0 0099.5934 144.86572A.47625 .47625 0 00100.5459 144.86572z" fill="rgba(68,0,182,.24705882)"/><path d="M110.82337 92.992575A.47625 .47625 0 00109.87087 92.992575A.47625 .47625 0 00110.82337 92.992575z" fill="rgba(68,0,182,.24705882)"/><path d="M82.210275 104.0892A.47625 .47625 0 0081.257775 104.0892A.47625 .47625 0 0082.210275 104.0892z" fill="rgba(68,0,182,.24705882)"/><path d="M83.353275 150.80933H93.564075V140.3604H83.353275z" style="fill:rgba(68,0,182,.24705882);stroke:rgba(68,0,182,.24705882);stroke-width:.09525;stroke-miterlimit:41.994751"/><path d="M87.76335 144.7038A.47625 .47625 0 0086.81085 144.7038A.47625 .47625 0 0087.76335 144.7038z" fill="rgba(68,0,182,.24705882)"/><path d="M141.24622 136.02652H147.55177V117.13845H141.24622z" style="fill:rgba(68,0,182,.24705882);stroke:rgba(68,0,182,.24705882);stroke-width:.09525;stroke-miterlimit:41.994751"/><path d="M144.5133 130.05435A.47625 .47625 0 00143.5608 130.05435A.47625 .47625 0 00144.5133 130.05435z" fill="rgba(68,0,182,.24705882)"/><path d="M111.41392 103.26053H141.18908V84.762975H111.41392z" style="fill:rgba(68,0,182,.24705882);stroke:rgba(68,0,182,.24705882);stroke-width:.09525;stroke-miterlimit:41.994751"/><path d="M123.57735 92.64015A.47625 .47625 0 00122.62485 92.64015A.47625 .47625 0 00123.57735 92.64015z" fill="rgba(68,0,182,.24705882)"/><path d="M84.096225 119.75782H92.230575V74.094975H84.096225z" style="fill:rgba(68,0,182,.24705882);stroke:rgba(68,0,182,.24705882);stroke-width:.09525;stroke-miterlimit:41.994751"/><path d="M86.344125 103.9368A.47625 .47625 0 0085.391625 103.9368A.47625 .47625 0 0086.344125 103.9368z" fill="rgba(68,0,182,.24705882)"/><path d="M197.52945 111.2901A.47625 .47625 0 00196.57695 111.2901A.47625 .47625 0 00197.52945 111.2901z" fill="rgba(68,0,182,.24705882)"/><path d="M111.52822 135.83603H137.64577V112.86173H111.52822z" style="fill:rgba(68,0,182,.24705882);stroke:rgba(68,0,182,.24705882);stroke-width:.09525;stroke-miterlimit:41.994751"/><path d="M122.53912 130.66395A.47625 .47625 0 00121.58662 130.66395A.47625 .47625 0 00122.53912 130.66395z" fill="rgba(68,0,182,.24705882)"/><path d="M43.519725 120.26265H81.753075V93.21165H43.519725z" style="fill:rgba(68,0,182,.24705882);stroke:rgba(68,0,182,.24705882);stroke-width:.09525;stroke-miterlimit:41.994751"/><path d="M57.28335 105.03217A.47625 .47625 0 0056.33085 105.03217A.47625 .47625 0 0057.28335 105.03217z" fill="rgba(68,0,182,.24705882)"/><path d="M187.2615 111.64253A.47625 .47625 0 00186.309 111.64253A.47625 .47625 0 00187.2615 111.64253z" fill="rgba(68,0,182,.24705882)"/><path d="M43.3197 93.164025H81.543525V73.01865H43.3197z" style="fill:rgba(68,0,182,.24705882);stroke:rgba(68,0,182,.24705882);stroke-width:.09525;stroke-miterlimit:41.994751"/><path d="M58.7502 81.36255A.47625 .47625 0 0057.7977 81.36255A.47625 .47625 0 0058.7502 81.36255z" fill="rgba(68,0,182,.24705882)"/><path d="M176.10772 111.52822A.47625 .47625 0 00175.15523 111.52822A.47625 .47625 0 00176.10772 111.52822z" fill="rgba(68,0,182,.24705882)"/><path d="M171.02137 130.29247A.47625 .47625 0 00170.06887 130.29247A.47625 .47625 0 00171.02137 130.29247z" fill="rgba(68,0,182,.24705882)"/><path d="M193.44322 109.73753H199.99642V106.8705H193.44322z" style="fill:rgba(68,0,182,.24705882);stroke:rgba(68,0,182,.24705882);stroke-width:.09525;stroke-miterlimit:41.994751"/><path d="M197.48182 108.88027A.47625 .47625 0 00196.52933 108.88027A.47625 .47625 0 00197.48182 108.88027z" fill="rgba(68,0,182,.24705882)"/><path d="M183.91823 109.73753H190.05232V106.8705H183.91823z" style="fill:rgba(68,0,182,.24705882);stroke:rgba(68,0,182,.24705882);stroke-width:.09525;stroke-miterlimit:41.994751"/><path d="M187.5663 108.37545A.47625 .47625 0 00186.6138 108.37545A.47625 .47625 0 00187.5663 108.37545z" fill="rgba(68,0,182,.24705882)"/><path d="M162.58222 136.02652H168.88778V116.98605H162.58222z" style="fill:rgba(68,0,182,.24705882);stroke:rgba(68,0,182,.24705882);stroke-width:.09525;stroke-miterlimit:41.994751"/><path d="M166.09695 130.02578A.47625 .47625 0 00165.14445 130.02578A.47625 .47625 0 00166.09695 130.02578z" fill="rgba(68,0,182,.24705882)"/><path d="M172.48822 109.73753H180.31778V106.86097H172.48822z" style="fill:rgba(68,0,182,.24705882);stroke:rgba(68,0,182,.24705882);stroke-width:.09525;stroke-miterlimit:41.994751"/><path d="M175.6029 108.08017A.47625 .47625 0 00174.6504 108.08017A.47625 .47625 0 00175.6029 108.08017z" fill="rgba(68,0,182,.24705882)"/><path d="M87.963375 139.83652A.47625 .47625 0 0087.010875 139.83652A.47625 .47625 0 0087.963375 139.83652z" fill="rgba(68,0,182,.24705882)"/><path d="M175.09807 83.486625H194.10045V60.455175H175.09807z" style="fill:rgba(68,0,182,.24705882);stroke:rgba(68,0,182,.24705882);stroke-width:.09525;stroke-miterlimit:41.994751"/><path d="M186.35662 70.856475A.47625 .47625 0 00185.40412 70.856475A.47625 .47625 0 00186.35662 70.856475z" fill="rgba(68,0,182,.24705882)"/><path d="M141.24622 116.97652H155.54325V111.49012H141.24622z" style="fill:rgba(68,0,182,.24705882);stroke:rgba(68,0,182,.24705882);stroke-width:.09525;stroke-miterlimit:41.994751"/><path d="M145.86585 113.20462A.47625 .47625 0 00144.91335 113.20462A.47625 .47625 0 00145.86585 113.20462z" fill="rgba(68,0,182,.24705882)"/><path d="M132.48323 109.728H137.63625V106.86097H132.48323z" style="fill:rgba(68,0,182,.24705882);stroke:rgba(68,0,182,.24705882);stroke-width:.09525;stroke-miterlimit:41.994751"/><path d="M135.58837 109.02315A.47625 .47625 0 00134.63587 109.02315A.47625 .47625 0 00135.58837 109.02315z" fill="rgba(68,0,182,.24705882)"/><path d="M155.59087 116.97652H168.88777V111.5187H155.59087z" style="fill:rgba(68,0,182,.24705882);stroke:rgba(68,0,182,.24705882);stroke-width:.09525;stroke-miterlimit:41.994751"/><path d="M165.67785 113.69992A.47625 .47625 0 00164.72535 113.69992A.47625 .47625 0 00165.67785 113.69992z" fill="rgba(68,0,182,.24705882)"/><path d="M122.95822 109.728H128.88278V106.86097H122.95822z" style="fill:rgba(68,0,182,.24705882);stroke:rgba(68,0,182,.24705882);stroke-width:.09525;stroke-miterlimit:41.994751"/><path d="M126.17767 108.22305A.47625 .47625 0 00125.22518 108.22305A.47625 .47625 0 00126.17767 108.22305z" fill="rgba(68,0,182,.24705882)"/><path d="M194.26237 79.638525H259.82295V61.140975H194.26237z" style="fill:rgba(68,0,182,.24705882);stroke:rgba(68,0,182,.24705882);stroke-width:.09525;stroke-miterlimit:41.994751"/><path d="M248.1834 70.61835A.47625 .47625 0 00247.2309 70.61835A.47625 .47625 0 00248.1834 70.61835z" fill="rgba(68,0,182,.24705882)"/><path d="M241.06822 61.102875H259.56577V46.662975H241.06822z" style="fill:rgba(68,0,182,.24705882);stroke:rgba(68,0,182,.24705882);stroke-width:.09525;stroke-miterlimit:41.994751"/><path d="M249.60262 50.57775A.47625 .47625 0 00248.65013 50.57775A.47625 .47625 0 00249.60262 50.57775z" fill="rgba(68,0,182,.24705882)"/><path d="M141.24622 111.30915H168.88777V84.743925H141.24622z" style="fill:rgba(68,0,182,.24705882);stroke:rgba(68,0,182,.24705882);stroke-width:.09525;stroke-miterlimit:41.994751"/><path d="M153.8097 94.059375A.47625 .47625 0 00152.8572 94.059375A.47625 .47625 0 00153.8097 94.059375z" fill="rgba(68,0,182,.24705882)"/><path d="M85.867875 103.9368L101.4984 93.278325" style="fill:none;stroke:rgba(68,0,182,.24705882);stroke-width:.09525;stroke-miterlimit:41.994751"/><path d="M186.78525 111.64253L187.09005 108.37545" style="fill:none;stroke:rgba(68,0,182,.24705882);stroke-width:.09525;stroke-miterlimit:41.994751"/><path d="M153.33345 94.059375L185.95657 93.716475" style="fill:none;stroke:rgba(68,0,182,.24705882);stroke-width:.09525;stroke-miterlimit:41.994751"/><path d="M247.70715 70.61835L249.12637 50.57775" style="fill:none;stroke:rgba(68,0,182,.24705882);stroke-width:.09525;stroke-miterlimit:41.994751"/><path d="M153.33345 94.059375L165.2016 113.69992" style="fill:none;stroke:rgba(68,0,182,.24705882);stroke-width:.09525;stroke-miterlimit:41.994751"/><path d="M153.33345 94.059375L145.3896 113.20462" style="fill:none;stroke:rgba(68,0,182,.24705882);stroke-width:.09525;stroke-miterlimit:41.994751"/><path d="M185.88037 70.856475L247.70715 70.61835" style="fill:none;stroke:rgba(68,0,182,.24705882);stroke-width:.09525;stroke-miterlimit:41.994751"/><path d="M185.88037 70.856475L184.88025 35.2806" style="fill:none;stroke:rgba(68,0,182,.24705882);stroke-width:.09525;stroke-miterlimit:41.994751"/><path d="M165.2016 113.69992L165.6207 130.02578" style="fill:none;stroke:rgba(68,0,182,.24705882);stroke-width:.09525;stroke-miterlimit:41.994751"/><path d="M135.11212 109.02315L135.07403 111.30915" style="fill:none;stroke:rgba(68,0,182,.24705882);stroke-width:.09525;stroke-miterlimit:41.994751"/><path d="M145.3896 113.20462L144.03705 130.05435" style="fill:none;stroke:rgba(68,0,182,.24705882);stroke-width:.09525;stroke-miterlimit:41.994751"/><path d="M87.487125 139.83652L87.2871 144.7038" style="fill:none;stroke:rgba(68,0,182,.24705882);stroke-width:.09525;stroke-miterlimit:41.994751"/><path d="M165.6207 130.02578L170.54512 130.29247" style="fill:none;stroke:rgba(68,0,182,.24705882);stroke-width:.09525;stroke-miterlimit:41.994751"/><path d="M122.06287 130.66395L125.73 111.18532" style="fill:none;stroke:rgba(68,0,182,.24705882);stroke-width:.09525;stroke-miterlimit:41.994751"/><path d="M138.99832 130.28295L122.06287 130.66395" style="fill:none;stroke:rgba(68,0,182,.24705882);stroke-width:.09525;stroke-miterlimit:41.994751"/><path d="M122.06287 130.66395L113.8428 108.4326" style="fill:none;stroke:rgba(68,0,182,.24705882);stroke-width:.09525;stroke-miterlimit:41.994751"/><path d="M122.06287 130.66395L135.07403 111.30915" style="fill:none;stroke:rgba(68,0,182,.24705882);stroke-width:.09525;stroke-miterlimit:41.994751"/><path d="M175.63147 111.52822L175.12665 108.08017" style="fill:none;stroke:rgba(68,0,182,.24705882);stroke-width:.09525;stroke-miterlimit:41.994751"/><path d="M56.8071 105.03217L58.27395 81.36255" style="fill:none;stroke:rgba(68,0,182,.24705882);stroke-width:.09525;stroke-miterlimit:41.994751"/><path d="M185.95657 93.716475L185.88037 70.856475" style="fill:none;stroke:rgba(68,0,182,.24705882);stroke-width:.09525;stroke-miterlimit:41.994751"/><path d="M85.867875 103.9368L81.734025 104.0892" style="fill:none;stroke:rgba(68,0,182,.24705882);stroke-width:.09525;stroke-miterlimit:41.994751"/><path d="M197.0532 111.2901L197.00557 108.88027" style="fill:none;stroke:rgba(68,0,182,.24705882);stroke-width:.09525;stroke-miterlimit:41.994751"/><path d="M144.03705 130.05435L138.99832 130.28295" style="fill:none;stroke:rgba(68,0,182,.24705882);stroke-width:.09525;stroke-miterlimit:41.994751"/><path d="M123.1011 92.64015L153.33345 94.059375" style="fill:none;stroke:rgba(68,0,182,.24705882);stroke-width:.09525;stroke-miterlimit:41.994751"/><path d="M81.734025 104.0892L56.8071 105.03217" style="fill:none;stroke:rgba(68,0,182,.24705882);stroke-width:.09525;stroke-miterlimit:41.994751"/><path d="M100.06965 144.86572L87.2871 144.7038" style="fill:none;stroke:rgba(68,0,182,.24705882);stroke-width:.09525;stroke-miterlimit:41.994751"/><path d="M110.34712 92.992575L123.1011 92.64015" style="fill:none;stroke:rgba(68,0,182,.24705882);stroke-width:.09525;stroke-miterlimit:41.994751"/><path d="M100.06965 144.86572L100.66972 130.2258" style="fill:none;stroke:rgba(68,0,182,.24705882);stroke-width:.09525;stroke-miterlimit:41.994751"/><path d="M100.66972 130.2258L101.4984 93.278325" style="fill:none;stroke:rgba(68,0,182,.24705882);stroke-width:.09525;stroke-miterlimit:41.994751"/><path d="M125.73 111.18532L125.70143 108.22305" style="fill:none;stroke:rgba(68,0,182,.24705882);stroke-width:.09525;stroke-miterlimit:41.994751"/><path d="M101.4984 93.278325L110.34712 92.992575" style="fill:none;stroke:rgba(68,0,182,.24705882);stroke-width:.09525;stroke-miterlimit:41.994751"/><path d="M184.88025 35.2806L173.355 24.1554" style="fill:none;stroke:rgba(68,0,182,.24705882);stroke-width:.09525;stroke-miterlimit:41.994751"/><path d="M187.30912 130.4544L197.0532 111.2901" style="fill:none;stroke:rgba(68,0,186,.24705882);stroke-width:.09525;stroke-miterlimit:41.994751"/><path d="M187.30912 130.4544L186.78525 111.64253" style="fill:none;stroke:rgba(68,0,186,.24705882);stroke-width:.09525;stroke-miterlimit:41.994751"/><path d="M170.54512 130.29247L187.30912 130.4544" style="fill:none;stroke:rgba(68,0,186,.24705882);stroke-width:.09525;stroke-miterlimit:41.994751"/><path d="M187.30912 130.4544L175.63147 111.52822" style="fill:none;stroke:rgba(68,0,186,.24705882);stroke-width:.09525;stroke-miterlimit:41.994751"/><path d="M172.48822 136.18845H199.36777V113.33797H172.48822z" style="fill:rgba(68,0,186,.24705882);stroke:rgba(68,0,186,.24705882);stroke-width:.09525;stroke-miterlimit:41.994751"/><path d="M187.78537 130.4544A.47625 .47625 0 00186.83288 130.4544A.47625 .47625 0 00187.78537 130.4544z" fill="rgba(68,0,186,.24705882)"/><path d="M73.142475 12.7635A.47625 .47625 0 0072.189975 12.7635A.47625 .47625 0 0073.142475 12.7635z" fill="rgba(32,0,222,.24705882)"/><path d="M75.819 31.461075H109.28985V9.344025H75.819z" style="fill:rgba(0,0,255,.24705882);stroke:rgba(0,0,255,.24705882);stroke-width:.09525;stroke-miterlimit:41.994751"/><path d="M101.54602 23.802975A.47625 .47625 0 00100.59352 23.802975A.47625 .47625 0 00101.54602 23.802975z" fill="rgba(0,0,255,.24705882)"/></svg>