<svg version="1.1" width="298.60875mm" height="329.27925mm" viewBox="0 0 298.60875 329.27925" xmlns="http://www.w3.org/2000/svg" xmlns:xlink="http://www.w3.org/1999/xlink"><path d="M141.5415 24.9555H143.4465" style="fill:none;stroke:#f00;stroke-width:.09525;stroke-miterlimit:41.994751"/><path d="M141.5415 24.9555V23.0505" style="fill:none;stroke:#0f0;stroke-width:.09525;stroke-miterlimit:41.994751"/><path d="M54.244875 199.1106A.47625 .47625 0 0053.292375 199.1106A.47625 .47625 0 0054.244875 199.1106z" fill="rgba(255,0,0,.24705882)"/><path d="M47.03445 216.50325H47.805975V211.93125H47.03445z" style="fill:rgba(255,0,0,.24705882);stroke:rgba(255,0,0,.24705882);stroke-width:.09525;stroke-miterlimit:41.994751"/><path d="M47.977425 214.39822A.47625 .47625 0 0047.024925 214.39822A.47625 .47625 0 0047.977425 214.39822z" fill="rgba(255,0,0,.24705882)"/><path d="M50.8635 204.80655H56.9595V198.6915H50.8635z" style="fill:rgba(255,0,0,.24705882);stroke:rgba(255,0,0,.24705882);stroke-width:.09525;stroke-miterlimit:41.994751"/><path d="M54.3687 201.83475A.47625 .47625 0 0053.4162 201.83475A.47625 .47625 0 0054.3687 201.83475z" fill="rgba(255,0,0,.24705882)"/><path d="M47.8155 216.9795H60.0075V204.7875H47.8155z" style="fill:rgba(255,0,0,.24705882);stroke:rgba(255,0,0,.24705882);stroke-width:.09525;stroke-miterlimit:41.994751"/><path d="M54.397275 213.6648A.47625 .47625 0 0053.444775 213.6648A.47625 .47625 0 0054.397275 213.6648z" fill="rgba(255,0,0,.24705882)"/><path d="M22.6695 235.2675H47.0535V210.8835H22.6695z" style="fill:rgba(255,0,0,.24705882);stroke:rgba(255,0,0,.24705882);stroke-width:.09525;stroke-miterlimit:41.994751"/><path d="M37.6809 225.22815A.47625 .47625 0 0036.7284 225.22815A.47625 .47625 0 0037.6809 225.22815z" fill="rgba(255,0,0,.24705882)"/><path d="M53.768625 199.1106L53.89245 201.83475" style="fill:none;stroke:rgba(255,0,0,.24705882);stroke-width:.09525;stroke-miterlimit:41.994751"/><path d="M53.89245 201.83475L53.921025 213.6648" style="fill:none;stroke:rgba(255,0,0,.24705882);stroke-width:.09525;stroke-miterlimit:41.994751"/><path d="M47.501175 214.39822L37.20465 225.22815" style="fill:none;stroke:rgba(255,0,0,.24705882);stroke-width:.09525;stroke-miterlimit:41.994751"/><path d="M47.501175 214.39822L53.921025 213.6648" style="fill:none;stroke:rgba(255,0,0,.24705882);stroke-width:.09525;stroke-miterlimit:41.994751"/><path d="M49.0728 328.9935H70.104V291.6555H49.0728z" style="fill:rgba(255,0,0,.24705882);stroke:rgba(255,0,0,.24705882);stroke-width:.09525;stroke-miterlimit:41.994751"/><path d="M62.6745 309.6387A.47625 .47625 0 0061.722 309.6387A.47625 .47625 0 0062.6745 309.6387z" fill="rgba(255,0,0,.24705882)"/><path d="M70.0278 301.5234H95.23095V291.6555H70.0278z" style="fill:rgba(255,0,0,.24705882);stroke:rgba(255,0,0,.24705882);stroke-width:.09525;stroke-miterlimit:41.994751"/><path d="M73.504425 294.894A.47625 .47625 0 0072.551925 294.894A.47625 .47625 0 0073.504425 294.894z" fill="rgba(255,0,0,.24705882)"/><path d="M70.075425 328.86967H95.469075V316.82055H70.075425z" style="fill:rgba(255,0,0,.24705882);stroke:rgba(255,0,0,.24705882);stroke-width:.09525;stroke-miterlimit:41.994751"/><path d="M70.61835 321.89737A.47625 .47625 0 0069.66585 321.89737A.47625 .47625 0 0070.61835 321.89737z" fill="rgba(255,0,0,.24705882)"/><path d="M73.028175 294.894L62.19825 309.6387" style="fill:none;stroke:rgba(255,0,0,.24705882);stroke-width:.09525;stroke-miterlimit:41.994751"/><path d="M62.19825 309.6387L70.1421 321.89737" style="fill:none;stroke:rgba(255,0,0,.24705882);stroke-width:.09525;stroke-miterlimit:41.994751"/><path d="M73.97115 309.39105L62.19825 309.6387" style="fill:none;stroke:rgba(250,0,4,.24705882);stroke-width:.09525;stroke-miterlimit:41.994751"/><path d="M70.5231 315.22987H75.390375V303.11408H70.5231z" style="fill:rgba(246,0,8,.24705882);stroke:rgba(246,0,8,.24705882);stroke-width:.09525;stroke-miterlimit:41.994751"/><path d="M74.4474 309.39105A.47625 .47625 0 0073.4949 309.39105A.47625 .47625 0 0074.4474 309.39105z" fill="rgba(246,0,8,.24705882)"/><path d="M80.2005 309.72442L73.97115 309.39105" style="fill:none;stroke:rgba(238,0,16,.24705882);stroke-width:.09525;stroke-miterlimit:41.994751"/><path d="M75.2856 315.2394H82.42935V303.10455H75.2856z" style="fill:rgba(230,0,24,.24705882);stroke:rgba(230,0,24,.24705882);stroke-width:.09525;stroke-miterlimit:41.994751"/><path d="M80.67675 309.72442A.47625 .47625 0 0079.72425 309.72442A.47625 .47625 0 0080.67675 309.72442z" fill="rgba(230,0,24,.24705882)"/><path d="M86.7156 309.72442H80.2005" style="fill:none;stroke:rgba(218,0,32,.24705882);stroke-width:.09525;stroke-miterlimit:41.994751"/><path d="M53.77815 198.6915L53.768625 199.1106" style="fill:none;stroke:rgba(218,0,36,.24705882);stroke-width:.09525;stroke-miterlimit:41.994751"/><path d="M83.07705 315.1251H87.8967V303.1998H83.07705z" style="fill:rgba(210,0,44,.24705882);stroke:rgba(210,0,44,.24705882);stroke-width:.09525;stroke-miterlimit:41.994751"/><path d="M87.19185 309.72442A.47625 .47625 0 0086.23935 309.72442A.47625 .47625 0 0087.19185 309.72442z" fill="rgba(210,0,44,.24705882)"/><path d="M91.7448 309.59107L86.7156 309.72442" style="fill:none;stroke:rgba(202,0,48,.24705882);stroke-width:.09525;stroke-miterlimit:41.994751"/><path d="M88.011 315.26797H95.00235V303.1617H88.011z" style="fill:rgba(194,0,56,.24705882);stroke:rgba(194,0,56,.24705882);stroke-width:.09525;stroke-miterlimit:41.994751"/><path d="M92.22105 309.59107A.47625 .47625 0 0091.26855 309.59107A.47625 .47625 0 0092.22105 309.59107z" fill="rgba(194,0,56,.24705882)"/><path d="M96.040575 310.00065L91.7448 309.59107" style="fill:none;stroke:rgba(190,0,64,.24705882);stroke-width:.09525;stroke-miterlimit:41.994751"/><path d="M200.8251 29.4513H220.05608V15.363825H200.8251z" style="fill:rgba(182,0,72,.24705882);stroke:rgba(182,0,72,.24705882);stroke-width:.09525;stroke-miterlimit:41.994751"/><path d="M212.85518 22.012275A.47625 .47625 0 00211.90268 22.012275A.47625 .47625 0 00212.85518 22.012275z" fill="rgba(182,0,72,.24705882)"/><path d="M212.37893 22.012275L189.42368 15.03045" style="fill:none;stroke:rgba(182,0,72,.24705882);stroke-width:.09525;stroke-miterlimit:41.994751"/><path d="M225.79965 29.1465L212.37893 22.012275" style="fill:none;stroke:rgba(182,0,72,.24705882);stroke-width:.09525;stroke-miterlimit:41.994751"/><path d="M154.35263 28.67025H200.8251V.3429H154.35263z" style="fill:rgba(182,0,72,.24705882);stroke:rgba(182,0,72,.24705882);stroke-width:.09525;stroke-miterlimit:41.994751"/><path d="M189.89992 15.03045A.47625 .47625 0 00188.94743 15.03045A.47625 .47625 0 00189.89992 15.03045z" fill="rgba(182,0,72,.24705882)"/><path d="M27.22245 185.7375H82.7913V149.11387H27.22245z" style="fill:rgba(182,0,72,.24705882);stroke:rgba(182,0,72,.24705882);stroke-width:.09525;stroke-miterlimit:41.994751"/><path d="M50.0253 165.8874A.47625 .47625 0 0049.0728 165.8874A.47625 .47625 0 0050.0253 165.8874z" fill="rgba(182,0,72,.24705882)"/><path d="M22.488525 240.38242H82.095975V223.8375H22.488525z" style="fill:rgba(182,0,72,.24705882);stroke:rgba(182,0,72,.24705882);stroke-width:.09525;stroke-miterlimit:41.994751"/><path d="M74.590275 235.89615A.47625 .47625 0 0073.637775 235.89615A.47625 .47625 0 0074.590275 235.89615z" fill="rgba(182,0,72,.24705882)"/><path d="M101.92703 27.384375H154.3431V2.4765H101.92703z" style="fill:rgba(182,0,72,.24705882);stroke:rgba(182,0,72,.24705882);stroke-width:.09525;stroke-miterlimit:41.994751"/><path d="M119.39588 14.544675A.47625 .47625 0 00118.44338 14.544675A.47625 .47625 0 00119.39588 14.544675z" fill="rgba(182,0,72,.24705882)"/><path d="M40.586025 17.31645H55.30215V8.17245H40.586025z" style="fill:rgba(182,0,72,.24705882);stroke:rgba(182,0,72,.24705882);stroke-width:.09525;stroke-miterlimit:41.994751"/><path d="M46.65345 14.7828A.47625 .47625 0 0045.70095 14.7828A.47625 .47625 0 0046.65345 14.7828z" fill="rgba(182,0,72,.24705882)"/><path d="M25.54605 255.36525H76.285725V240.23955H25.54605z" style="fill:rgba(182,0,72,.24705882);stroke:rgba(182,0,72,.24705882);stroke-width:.09525;stroke-miterlimit:41.994751"/><path d="M60.798075 251.3076A.47625 .47625 0 0059.845575 251.3076A.47625 .47625 0 0060.798075 251.3076z" fill="rgba(182,0,72,.24705882)"/><path d="M.24765 88.858725H18.5928V63.627H.24765z" style="fill:rgba(182,0,72,.24705882);stroke:rgba(182,0,72,.24705882);stroke-width:.09525;stroke-miterlimit:41.994751"/><path d="M10.4775 77.181075A.47625 .47625 0 009.525 77.181075A.47625 .47625 0 0010.4775 77.181075z" fill="rgba(182,0,72,.24705882)"/><path d="M4.276725 240.43005H22.507575V186.25185H4.276725z" style="fill:rgba(182,0,72,.24705882);stroke:rgba(182,0,72,.24705882);stroke-width:.09525;stroke-miterlimit:41.994751"/><path d="M18.011775 236.65815A.47625 .47625 0 0017.059275 236.65815A.47625 .47625 0 0018.011775 236.65815z" fill="rgba(182,0,72,.24705882)"/><path d="M53.8353 100.7745H64.77V70.323075H53.8353z" style="fill:rgba(182,0,72,.24705882);stroke:rgba(182,0,72,.24705882);stroke-width:.09525;stroke-miterlimit:41.994751"/><path d="M59.9313 74.65695A.47625 .47625 0 0058.9788 74.65695A.47625 .47625 0 0059.9313 74.65695z" fill="rgba(182,0,72,.24705882)"/><path d="M70.437375 188.45212A.47625 .47625 0 0069.484875 188.45212A.47625 .47625 0 0070.437375 188.45212z" fill="rgba(182,0,72,.24705882)"/><path d="M8.277225 255.93675H25.54605V240.38242H8.277225z" style="fill:rgba(182,0,72,.24705882);stroke:rgba(182,0,72,.24705882);stroke-width:.09525;stroke-miterlimit:41.994751"/><path d="M21.9837 252.06007A.47625 .47625 0 0021.0312 252.06007A.47625 .47625 0 0021.9837 252.06007z" fill="rgba(182,0,72,.24705882)"/><path d="M3.476625 186.2709H27.212925V172.212H3.476625z" style="fill:rgba(182,0,72,.24705882);stroke:rgba(182,0,72,.24705882);stroke-width:.09525;stroke-miterlimit:41.994751"/><path d="M16.4973 183.58485A.47625 .47625 0 0015.5448 183.58485A.47625 .47625 0 0016.4973 183.58485z" fill="rgba(182,0,72,.24705882)"/><path d="M38.95725 84.29625H53.4543V71.38035H38.95725z" style="fill:rgba(182,0,72,.24705882);stroke:rgba(182,0,72,.24705882);stroke-width:.09525;stroke-miterlimit:41.994751"/><path d="M47.329725 75.87615A.47625 .47625 0 0046.377225 75.87615A.47625 .47625 0 0047.329725 75.87615z" fill="rgba(182,0,72,.24705882)"/><path d="M128.86373 196.8627H140.18895V186.59475H128.86373z" style="fill:rgba(182,0,72,.24705882);stroke:rgba(182,0,72,.24705882);stroke-width:.09525;stroke-miterlimit:41.994751"/><path d="M134.9883 191.4525A.47625 .47625 0 00134.0358 191.4525A.47625 .47625 0 00134.9883 191.4525z" fill="rgba(182,0,72,.24705882)"/><path d="M18.5928 82.4103H38.947725V70.342125H18.5928z" style="fill:rgba(182,0,72,.24705882);stroke:rgba(182,0,72,.24705882);stroke-width:.09525;stroke-miterlimit:41.994751"/><path d="M28.55595 76.60005A.47625 .47625 0 0027.60345 76.60005A.47625 .47625 0 0028.55595 76.60005z" fill="rgba(182,0,72,.24705882)"/><path d="M72.21855 224.09467H84.172425V185.74702H72.21855z" style="fill:rgba(182,0,72,.24705882);stroke:rgba(182,0,72,.24705882);stroke-width:.09525;stroke-miterlimit:41.994751"/><path d="M78.457425 192.5955A.47625 .47625 0 0077.504925 192.5955A.47625 .47625 0 0078.457425 192.5955z" fill="rgba(182,0,72,.24705882)"/><path d="M128.83515 223.6089H140.16037V196.8627H128.83515z" style="fill:rgba(182,0,72,.24705882);stroke:rgba(182,0,72,.24705882);stroke-width:.09525;stroke-miterlimit:41.994751"/><path d="M134.874 210.85492A.47625 .47625 0 00133.9215 210.85492A.47625 .47625 0 00134.874 210.85492z" fill="rgba(182,0,72,.24705882)"/><path d="M176.784 291.66502H182.77523V279.654H176.784z" style="fill:rgba(182,0,72,.24705882);stroke:rgba(182,0,72,.24705882);stroke-width:.09525;stroke-miterlimit:41.994751"/><path d="M181.46078 286.61677A.47625 .47625 0 00180.50828 286.61677A.47625 .47625 0 00181.46078 286.61677z" fill="rgba(182,0,72,.24705882)"/><path d="M223.1517 292.62705H260.93738V257.61315H223.1517z" style="fill:rgba(182,0,72,.24705882);stroke:rgba(182,0,72,.24705882);stroke-width:.09525;stroke-miterlimit:41.994751"/><path d="M238.55363 275.49158A.47625 .47625 0 00237.60113 275.49158A.47625 .47625 0 00238.55363 275.49158z" fill="rgba(182,0,72,.24705882)"/><path d="M220.05608 37.938075H231.33368V21.65985H220.05608z" style="fill:rgba(182,0,72,.24705882);stroke:rgba(182,0,72,.24705882);stroke-width:.09525;stroke-miterlimit:41.994751"/><path d="M226.2759 29.1465A.47625 .47625 0 00225.3234 29.1465A.47625 .47625 0 00226.2759 29.1465z" fill="rgba(182,0,72,.24705882)"/><path d="M95.3643 315.15367H107.9754V304.28565H95.3643z" style="fill:rgba(182,0,72,.24705882);stroke:rgba(182,0,72,.24705882);stroke-width:.09525;stroke-miterlimit:41.994751"/><path d="M96.516825 310.00065A.47625 .47625 0 0095.564325 310.00065A.47625 .47625 0 0096.516825 310.00065z" fill="rgba(182,0,72,.24705882)"/><path d="M247.97385 48.929925H264.2235V33.4899H247.97385z" style="fill:rgba(182,0,72,.24705882);stroke:rgba(182,0,72,.24705882);stroke-width:.09525;stroke-miterlimit:41.994751"/><path d="M256.09868 40.624125A.47625 .47625 0 00255.14618 40.624125A.47625 .47625 0 00256.09868 40.624125z" fill="rgba(182,0,72,.24705882)"/><path d="M42.148125 149.10435H53.749575V84.305775H42.148125z" style="fill:rgba(182,0,72,.24705882);stroke:rgba(182,0,72,.24705882);stroke-width:.09525;stroke-miterlimit:41.994751"/><path d="M48.63465 122.4153A.47625 .47625 0 0047.68215 122.4153A.47625 .47625 0 0048.63465 122.4153z" fill="rgba(182,0,72,.24705882)"/><path d="M107.95635 315.60135H116.9289V304.21897H107.95635z" style="fill:rgba(182,0,72,.24705882);stroke:rgba(182,0,72,.24705882);stroke-width:.09525;stroke-miterlimit:41.994751"/><path d="M112.0521 311.277A.47625 .47625 0 00111.0996 311.277A.47625 .47625 0 00112.0521 311.277z" fill="rgba(182,0,72,.24705882)"/><path d="M230.70503 257.62267H245.4783V250.48845H230.70503z" style="fill:rgba(182,0,72,.24705882);stroke:rgba(182,0,72,.24705882);stroke-width:.09525;stroke-miterlimit:41.994751"/><path d="M238.48695 254.04127A.47625 .47625 0 00237.53445 254.04127A.47625 .47625 0 00238.48695 254.04127z" fill="rgba(182,0,72,.24705882)"/><path d="M84.18195 198.3105H128.86372V186.60427H84.18195z" style="fill:rgba(182,0,72,.24705882);stroke:rgba(182,0,72,.24705882);stroke-width:.09525;stroke-miterlimit:41.994751"/><path d="M103.54628 191.82397A.47625 .47625 0 00102.59378 191.82397A.47625 .47625 0 00103.54628 191.82397z" fill="rgba(182,0,72,.24705882)"/><path d="M68.8848 192.60502A.47625 .47625 0 0067.9323 192.60502A.47625 .47625 0 0068.8848 192.60502z" fill="rgba(182,0,72,.24705882)"/><path d="M39.481125 71.38035H51.692175V17.31645H39.481125z" style="fill:rgba(182,0,72,.24705882);stroke:rgba(182,0,72,.24705882);stroke-width:.09525;stroke-miterlimit:41.994751"/><path d="M46.92015 45.73905A.47625 .47625 0 0045.96765 45.73905A.47625 .47625 0 0046.92015 45.73905z" fill="rgba(182,0,72,.24705882)"/><path d="M54.2163 75.0189A.47625 .47625 0 0053.2638 75.0189A.47625 .47625 0 0054.2163 75.0189z" fill="rgba(182,0,72,.24705882)"/><path d="M55.30215 19.8501H101.9175V6.30555H55.30215z" style="fill:rgba(182,0,72,.24705882);stroke:rgba(182,0,72,.24705882);stroke-width:.09525;stroke-miterlimit:41.994751"/><path d="M82.343625 14.5161A.47625 .47625 0 0081.391125 14.5161A.47625 .47625 0 0082.343625 14.5161z" fill="rgba(182,0,72,.24705882)"/><path d="M182.74665 293.0271H223.23743V280.92082H182.74665z" style="fill:rgba(182,0,72,.24705882);stroke:rgba(182,0,72,.24705882);stroke-width:.09525;stroke-miterlimit:41.994751"/><path d="M221.52293 287.9217A.47625 .47625 0 00220.57043 287.9217A.47625 .47625 0 00221.52293 287.9217z" fill="rgba(182,0,72,.24705882)"/><path d="M50.5968 154.4955A.47625 .47625 0 0049.6443 154.4955A.47625 .47625 0 0050.5968 154.4955z" fill="rgba(182,0,72,.24705882)"/><path d="M46.853475 75.87615L28.0797 76.60005" style="fill:none;stroke:rgba(182,0,72,.24705882);stroke-width:.09525;stroke-miterlimit:41.994751"/><path d="M118.91963 14.544675L189.42368 15.03045" style="fill:none;stroke:rgba(182,0,72,.24705882);stroke-width:.09525;stroke-miterlimit:41.994751"/><path d="M81.867375 14.5161L46.1772 14.7828" style="fill:none;stroke:rgba(182,0,72,.24705882);stroke-width:.09525;stroke-miterlimit:41.994751"/><path d="M46.4439 45.73905L46.853475 75.87615" style="fill:none;stroke:rgba(182,0,72,.24705882);stroke-width:.09525;stroke-miterlimit:41.994751"/><path d="M46.4439 45.73905L46.1772 14.7828" style="fill:none;stroke:rgba(182,0,72,.24705882);stroke-width:.09525;stroke-miterlimit:41.994751"/><path d="M50.12055 154.4955L49.54905 165.8874" style="fill:none;stroke:rgba(182,0,72,.24705882);stroke-width:.09525;stroke-miterlimit:41.994751"/><path d="M221.04668 287.9217L180.98453 286.61677" style="fill:none;stroke:rgba(182,0,72,.24705882);stroke-width:.09525;stroke-miterlimit:41.994751"/><path d="M53.74005 75.0189L59.45505 74.65695" style="fill:none;stroke:rgba(182,0,72,.24705882);stroke-width:.09525;stroke-miterlimit:41.994751"/><path d="M28.0797 76.60005L10.00125 77.181075" style="fill:none;stroke:rgba(182,0,72,.24705882);stroke-width:.09525;stroke-miterlimit:41.994751"/><path d="M16.02105 183.58485L49.54905 165.8874" style="fill:none;stroke:rgba(182,0,72,.24705882);stroke-width:.09525;stroke-miterlimit:41.994751"/><path d="M17.535525 236.65815L16.02105 183.58485" style="fill:none;stroke:rgba(182,0,72,.24705882);stroke-width:.09525;stroke-miterlimit:41.994751"/><path d="M46.853475 75.87615L48.1584 122.4153" style="fill:none;stroke:rgba(182,0,72,.24705882);stroke-width:.09525;stroke-miterlimit:41.994751"/><path d="M46.853475 75.87615L53.74005 75.0189" style="fill:none;stroke:rgba(182,0,72,.24705882);stroke-width:.09525;stroke-miterlimit:41.994751"/><path d="M17.535525 236.65815L21.50745 252.06007" style="fill:none;stroke:rgba(182,0,72,.24705882);stroke-width:.09525;stroke-miterlimit:41.994751"/><path d="M60.321825 251.3076L21.50745 252.06007" style="fill:none;stroke:rgba(182,0,72,.24705882);stroke-width:.09525;stroke-miterlimit:41.994751"/><path d="M74.114025 235.89615L17.535525 236.65815" style="fill:none;stroke:rgba(182,0,72,.24705882);stroke-width:.09525;stroke-miterlimit:41.994751"/><path d="M74.114025 235.89615L60.321825 251.3076" style="fill:none;stroke:rgba(182,0,72,.24705882);stroke-width:.09525;stroke-miterlimit:41.994751"/><path d="M238.0107 254.04127L238.07738 275.49158" style="fill:none;stroke:rgba(182,0,72,.24705882);stroke-width:.09525;stroke-miterlimit:41.994751"/><path d="M118.91963 14.544675L81.867375 14.5161" style="fill:none;stroke:rgba(182,0,72,.24705882);stroke-width:.09525;stroke-miterlimit:41.994751"/><path d="M77.981175 192.5955L49.54905 165.8874" style="fill:none;stroke:rgba(182,0,72,.24705882);stroke-width:.09525;stroke-miterlimit:41.994751"/><path d="M77.981175 192.5955L74.114025 235.89615" style="fill:none;stroke:rgba(182,0,72,.24705882);stroke-width:.09525;stroke-miterlimit:41.994751"/><path d="M134.39775 210.85492L134.51205 191.4525" style="fill:none;stroke:rgba(182,0,72,.24705882);stroke-width:.09525;stroke-miterlimit:41.994751"/><path d="M103.07003 191.82397L77.981175 192.5955" style="fill:none;stroke:rgba(182,0,72,.24705882);stroke-width:.09525;stroke-miterlimit:41.994751"/><path d="M69.961125 188.45212L77.981175 192.5955" style="fill:none;stroke:rgba(182,0,72,.24705882);stroke-width:.09525;stroke-miterlimit:41.994751"/><path d="M69.961125 188.45212L68.40855 192.60502" style="fill:none;stroke:rgba(182,0,72,.24705882);stroke-width:.09525;stroke-miterlimit:41.994751"/><path d="M238.07738 275.49158L221.04668 287.9217" style="fill:none;stroke:rgba(182,0,72,.24705882);stroke-width:.09525;stroke-miterlimit:41.994751"/><path d="M111.57585 311.277L96.040575 310.00065" style="fill:none;stroke:rgba(182,0,72,.24705882);stroke-width:.09525;stroke-miterlimit:41.994751"/><path d="M48.1584 122.4153L49.54905 165.8874" style="fill:none;stroke:rgba(182,0,72,.24705882);stroke-width:.09525;stroke-miterlimit:41.994751"/><path d="M48.1584 122.4153L50.12055 154.4955" style="fill:none;stroke:rgba(182,0,72,.24705882);stroke-width:.09525;stroke-miterlimit:41.994751"/><path d="M103.07003 191.82397L134.51205 191.4525" style="fill:none;stroke:rgba(182,0,72,.24705882);stroke-width:.09525;stroke-miterlimit:41.994751"/><path d="M278.511 60.97905H298.30395V36.02355H278.511z" style="fill:rgba(182,0,72,.24705882);stroke:rgba(182,0,72,.24705882);stroke-width:.09525;stroke-miterlimit:41.994751"/><path d="M290.35057 45.92955A.47625 .47625 0 00289.39808 45.92955A.47625 .47625 0 00290.35057 45.92955z" fill="rgba(182,0,72,.24705882)"/><path d="M3.248025 171.17377H27.03195V149.33295H3.248025z" style="fill:rgba(182,0,72,.24705882);stroke:rgba(182,0,72,.24705882);stroke-width:.09525;stroke-miterlimit:41.994751"/><path d="M13.716 156.50527A.47625 .47625 0 0012.7635 156.50527A.47625 .47625 0 0013.716 156.50527z" fill="rgba(182,0,72,.24705882)"/><path d="M225.79965 29.1465L236.55338 36.147375" style="fill:none;stroke:rgba(182,0,72,.24705882);stroke-width:.09525;stroke-miterlimit:41.994751"/><path d="M255.62243 40.624125L236.55338 36.147375" style="fill:none;stroke:rgba(182,0,72,.24705882);stroke-width:.09525;stroke-miterlimit:41.994751"/><path d="M274.5867 41.6052L255.62243 40.624125" style="fill:none;stroke:rgba(182,0,72,.24705882);stroke-width:.09525;stroke-miterlimit:41.994751"/><path d="M274.5867 41.6052L289.87432 45.92955" style="fill:none;stroke:rgba(182,0,72,.24705882);stroke-width:.09525;stroke-miterlimit:41.994751"/><path d="M49.54905 165.8874L27.193875 156.7434" style="fill:none;stroke:rgba(182,0,72,.24705882);stroke-width:.09525;stroke-miterlimit:41.994751"/><path d="M231.29558 43.64355H247.85955V30.91815H231.29558z" style="fill:rgba(182,0,72,.24705882);stroke:rgba(182,0,72,.24705882);stroke-width:.09525;stroke-miterlimit:41.994751"/><path d="M237.02963 36.147375A.47625 .47625 0 00236.07713 36.147375A.47625 .47625 0 00237.02963 36.147375z" fill="rgba(182,0,72,.24705882)"/><path d="M264.05205 51.22545H278.40623V29.232225H264.05205z" style="fill:rgba(182,0,72,.24705882);stroke:rgba(182,0,72,.24705882);stroke-width:.09525;stroke-miterlimit:41.994751"/><path d="M275.06295 41.6052A.47625 .47625 0 00274.11045 41.6052A.47625 .47625 0 00275.06295 41.6052z" fill="rgba(182,0,72,.24705882)"/><path d="M27.193875 156.7434L13.23975 156.50527" style="fill:none;stroke:rgba(182,0,72,.24705882);stroke-width:.09525;stroke-miterlimit:41.994751"/><path d="M49.54905 165.8874L48.6537 186.01372" style="fill:none;stroke:rgba(178,0,72,.24705882);stroke-width:.09525;stroke-miterlimit:41.994751"/><path d="M27.670125 156.7434A.47625 .47625 0 0026.717625 156.7434A.47625 .47625 0 0027.670125 156.7434z" fill="rgba(178,0,72,.24705882)"/><path d="M238.70603 246.7356L238.0107 254.04127" style="fill:none;stroke:rgba(178,0,76,.24705882);stroke-width:.09525;stroke-miterlimit:41.994751"/><path d="M50.834925 222.95167H69.1515V210.07387H50.834925z" style="fill:rgba(178,0,76,.24705882);stroke:rgba(178,0,76,.24705882);stroke-width:.09525;stroke-miterlimit:41.994751"/><path d="M58.5597 216.95092A.47625 .47625 0 0057.6072 216.95092A.47625 .47625 0 0058.5597 216.95092z" fill="rgba(178,0,76,.24705882)"/><path d="M32.623125 209.60715H44.034075V186.93765H32.623125z" style="fill:rgba(178,0,76,.24705882);stroke:rgba(178,0,76,.24705882);stroke-width:.09525;stroke-miterlimit:41.994751"/><path d="M38.1762 193.04317A.47625 .47625 0 0037.2237 193.04317A.47625 .47625 0 0038.1762 193.04317z" fill="rgba(178,0,76,.24705882)"/><path d="M49.12995 186.01372A.47625 .47625 0 0048.17745 186.01372A.47625 .47625 0 0049.12995 186.01372z" fill="rgba(178,0,76,.24705882)"/><path d="M44.091225 197.83425H56.835675V186.92812H44.091225z" style="fill:rgba(178,0,76,.24705882);stroke:rgba(178,0,76,.24705882);stroke-width:.09525;stroke-miterlimit:41.994751"/><path d="M48.891825 192.91935A.47625 .47625 0 0047.939325 192.91935A.47625 .47625 0 0048.891825 192.91935z" fill="rgba(178,0,76,.24705882)"/><path d="M32.6136 223.02787H49.996725V211.2645H32.6136z" style="fill:rgba(178,0,76,.24705882);stroke:rgba(178,0,76,.24705882);stroke-width:.09525;stroke-miterlimit:41.994751"/><path d="M38.9382 216.9033A.47625 .47625 0 0037.9857 216.9033A.47625 .47625 0 0038.9382 216.9033z" fill="rgba(178,0,76,.24705882)"/><path d="M36.0807 211.27402H40.566975V209.60715H36.0807z" style="fill:rgba(178,0,76,.24705882);stroke:rgba(178,0,76,.24705882);stroke-width:.09525;stroke-miterlimit:41.994751"/><path d="M38.72865 210.58822A.47625 .47625 0 0037.77615 210.58822A.47625 .47625 0 0038.72865 210.58822z" fill="rgba(178,0,76,.24705882)"/><path d="M49.9872 219.24645H50.8635V214.6935H49.9872z" style="fill:rgba(178,0,76,.24705882);stroke:rgba(178,0,76,.24705882);stroke-width:.09525;stroke-miterlimit:41.994751"/><path d="M51.254025 217.02712A.47625 .47625 0 0050.301525 217.02712A.47625 .47625 0 0051.254025 217.02712z" fill="rgba(178,0,76,.24705882)"/><path d="M44.796075 210.05482H68.913375V198.74865H44.796075z" style="fill:rgba(178,0,76,.24705882);stroke:rgba(178,0,76,.24705882);stroke-width:.09525;stroke-miterlimit:41.994751"/><path d="M56.6547 207.86407A.47625 .47625 0 0055.7022 207.86407A.47625 .47625 0 0056.6547 207.86407z" fill="rgba(178,0,76,.24705882)"/><path d="M48.6537 186.01372L48.415575 192.91935" style="fill:none;stroke:rgba(178,0,76,.24705882);stroke-width:.09525;stroke-miterlimit:41.994751"/><path d="M48.415575 192.91935L37.69995 193.04317" style="fill:none;stroke:rgba(178,0,76,.24705882);stroke-width:.09525;stroke-miterlimit:41.994751"/><path d="M58.08345 216.95092L56.17845 207.86407" style="fill:none;stroke:rgba(178,0,76,.24705882);stroke-width:.09525;stroke-miterlimit:41.994751"/><path d="M38.2524 210.58822L38.46195 216.9033" style="fill:none;stroke:rgba(178,0,76,.24705882);stroke-width:.09525;stroke-miterlimit:41.994751"/><path d="M50.777775 217.02712L58.08345 216.95092" style="fill:none;stroke:rgba(178,0,76,.24705882);stroke-width:.09525;stroke-miterlimit:41.994751"/><path d="M38.46195 216.9033L50.777775 217.02712" style="fill:none;stroke:rgba(178,0,76,.24705882);stroke-width:.09525;stroke-miterlimit:41.994751"/><path d="M37.69995 193.04317L38.2524 210.58822" style="fill:none;stroke:rgba(178,0,76,.24705882);stroke-width:.09525;stroke-miterlimit:41.994751"/><path d="M53.77815 198.6915L56.17845 207.86407" style="fill:none;stroke:rgba(178,0,76,.24705882);stroke-width:.09525;stroke-miterlimit:41.994751"/><path d="M54.2544 198.6915A.47625 .47625 0 0053.3019 198.6915A.47625 .47625 0 0054.2544 198.6915z" fill="rgba(178,0,76,.24705882)"/><path d="M133.6929 248.35485L134.39775 210.85492" style="fill:none;stroke:rgba(178,0,76,.24705882);stroke-width:.09525;stroke-miterlimit:41.994751"/><path d="M133.6929 248.35485L111.57585 311.277" style="fill:none;stroke:rgba(178,0,76,.24705882);stroke-width:.09525;stroke-miterlimit:41.994751"/><path d="M180.98453 286.61677L160.03905 286.36912" style="fill:none;stroke:rgba(174,0,80,.24705882);stroke-width:.09525;stroke-miterlimit:41.994751"/><path d="M160.03905 286.36912L111.57585 311.277" style="fill:none;stroke:rgba(174,0,80,.24705882);stroke-width:.09525;stroke-miterlimit:41.994751"/><path d="M231.69563 250.28842H244.92585V243.14467H231.69563z" style="fill:rgba(174,0,80,.24705882);stroke:rgba(174,0,80,.24705882);stroke-width:.09525;stroke-miterlimit:41.994751"/><path d="M239.18228 246.7356A.47625 .47625 0 00238.22978 246.7356A.47625 .47625 0 00239.18228 246.7356z" fill="rgba(174,0,80,.24705882)"/><path d="M109.2327 256.89878H154.62885V223.54223H109.2327z" style="fill:rgba(170,0,80,.24705882);stroke:rgba(170,0,80,.24705882);stroke-width:.09525;stroke-miterlimit:41.994751"/><path d="M134.16915 248.35485A.47625 .47625 0 00133.21665 248.35485A.47625 .47625 0 00134.16915 248.35485z" fill="rgba(170,0,80,.24705882)"/><path d="M68.40855 192.60502L67.713225 193.36702" style="fill:none;stroke:rgba(170,0,80,.24705882);stroke-width:.09525;stroke-miterlimit:41.994751"/><path d="M155.6004 256.81305H166.51605V220.55138H155.6004z" style="fill:rgba(170,0,85,.24705882);stroke:rgba(170,0,85,.24705882);stroke-width:.09525;stroke-miterlimit:41.994751"/><path d="M161.72498 235.1913A.47625 .47625 0 00160.77248 235.1913A.47625 .47625 0 00161.72498 235.1913z" fill="rgba(170,0,85,.24705882)"/><path d="M160.03905 286.36912L133.6929 248.35485" style="fill:none;stroke:rgba(170,0,85,.24705882);stroke-width:.09525;stroke-miterlimit:41.994751"/><path d="M160.03905 286.36912L161.24873 235.1913" style="fill:none;stroke:rgba(170,0,85,.24705882);stroke-width:.09525;stroke-miterlimit:41.994751"/><path d="M116.6241 314.08687H176.57445V256.63207H116.6241z" style="fill:rgba(165,0,85,.24705882);stroke:rgba(165,0,85,.24705882);stroke-width:.09525;stroke-miterlimit:41.994751"/><path d="M160.5153 286.36912A.47625 .47625 0 00159.5628 286.36912A.47625 .47625 0 00160.5153 286.36912z" fill="rgba(165,0,85,.24705882)"/><path d="M238.70603 246.7356L238.62983 239.40135" style="fill:none;stroke:rgba(165,0,89,.24705882);stroke-width:.09525;stroke-miterlimit:41.994751"/><path d="M68.189475 193.36702A.47625 .47625 0 0067.236975 193.36702A.47625 .47625 0 0068.189475 193.36702z" fill="rgba(161,0,93,.24705882)"/><path d="M66.170175 195.25297A.47625 .47625 0 0065.217675 195.25297A.47625 .47625 0 0066.170175 195.25297z" fill="rgba(161,0,93,.24705882)"/><path d="M68.113275 195.34822A.47625 .47625 0 0067.160775 195.34822A.47625 .47625 0 0068.113275 195.34822z" fill="rgba(161,0,93,.24705882)"/><path d="M67.713225 193.36702L67.637025 195.34822" style="fill:none;stroke:rgba(161,0,93,.24705882);stroke-width:.09525;stroke-miterlimit:41.994751"/><path d="M67.637025 195.34822L65.693925 195.25297" style="fill:none;stroke:rgba(161,0,93,.24705882);stroke-width:.09525;stroke-miterlimit:41.994751"/><path d="M232.78148 243.47805H244.54485V234.97222H232.78148z" style="fill:rgba(157,0,93,.24705882);stroke:rgba(157,0,93,.24705882);stroke-width:.09525;stroke-miterlimit:41.994751"/><path d="M239.10608 239.40135A.47625 .47625 0 00238.15358 239.40135A.47625 .47625 0 00239.10608 239.40135z" fill="rgba(157,0,93,.24705882)"/><path d="M65.693925 195.25297L65.2653 195.13867" style="fill:none;stroke:rgba(153,0,101,.24705882);stroke-width:.09525;stroke-miterlimit:41.994751"/><path d="M238.62983 239.40135L238.86795 230.48595" style="fill:none;stroke:rgba(149,0,105,.24705882);stroke-width:.09525;stroke-miterlimit:41.994751"/><path d="M65.74155 195.13867A.47625 .47625 0 0064.78905 195.13867A.47625 .47625 0 0065.74155 195.13867z" fill="rgba(149,0,105,.24705882)"/><path d="M62.5602 192.0621A.47625 .47625 0 0061.6077 192.0621A.47625 .47625 0 0062.5602 192.0621z" fill="rgba(149,0,105,.24705882)"/><path d="M62.874525 195.10057A.47625 .47625 0 0061.922025 195.10057A.47625 .47625 0 0062.874525 195.10057z" fill="rgba(149,0,105,.24705882)"/><path d="M62.398275 195.10057L62.08395 192.0621" style="fill:none;stroke:rgba(149,0,105,.24705882);stroke-width:.09525;stroke-miterlimit:41.994751"/><path d="M65.2653 195.13867L62.398275 195.10057" style="fill:none;stroke:rgba(149,0,105,.24705882);stroke-width:.09525;stroke-miterlimit:41.994751"/><path d="M232.22903 234.26737H245.94503V226.78072H232.22903z" style="fill:rgba(141,0,113,.24705882);stroke:rgba(141,0,113,.24705882);stroke-width:.09525;stroke-miterlimit:41.994751"/><path d="M239.3442 230.48595A.47625 .47625 0 00238.3917 230.48595A.47625 .47625 0 00239.3442 230.48595z" fill="rgba(141,0,113,.24705882)"/><path d="M62.08395 192.0621L61.9887 191.92875" style="fill:none;stroke:rgba(137,0,117,.24705882);stroke-width:.09525;stroke-miterlimit:41.994751"/><path d="M238.86795 230.48595L238.79175 223.66605" style="fill:none;stroke:rgba(133,0,121,.24705882);stroke-width:.09525;stroke-miterlimit:41.994751"/><path d="M230.59073 226.7331H247.46903V217.7415H230.59073z" style="fill:rgba(125,0,125,.24705882);stroke:rgba(125,0,125,.24705882);stroke-width:.09525;stroke-miterlimit:41.994751"/><path d="M239.268 223.66605A.47625 .47625 0 00238.3155 223.66605A.47625 .47625 0 00239.268 223.66605z" fill="rgba(125,0,125,.24705882)"/><path d="M62.27445 190.12852A.47625 .47625 0 0061.32195 190.12852A.47625 .47625 0 0062.27445 190.12852z" fill="rgba(125,0,125,.24705882)"/><path d="M62.46495 191.92875A.47625 .47625 0 0061.51245 191.92875A.47625 .47625 0 0062.46495 191.92875z" fill="rgba(125,0,125,.24705882)"/><path d="M61.9887 191.92875L61.7982 190.12852" style="fill:none;stroke:rgba(125,0,125,.24705882);stroke-width:.09525;stroke-miterlimit:41.994751"/><path d="M61.7982 190.12852L57.7215 190.119" style="fill:none;stroke:rgba(125,0,129,.24705882);stroke-width:.09525;stroke-miterlimit:41.994751"/><path d="M58.19775 190.119A.47625 .47625 0 0057.24525 190.119A.47625 .47625 0 0058.19775 190.119z" fill="rgba(125,0,129,.24705882)"/><path d="M238.79175 223.66605L238.89652 215.3412" style="fill:none;stroke:rgba(117,0,133,.24705882);stroke-width:.09525;stroke-miterlimit:41.994751"/><path d="M57.43575 190.35712L57.7215 190.119" style="fill:none;stroke:rgba(117,0,137,.24705882);stroke-width:.09525;stroke-miterlimit:41.994751"/><path d="M50.12055 154.4955L22.107525 149.63775" style="fill:none;stroke:rgba(113,0,141,.24705882);stroke-width:.09525;stroke-miterlimit:41.994751"/><path d="M155.89568 255.32715H167.0685V216.76995H155.89568z" style="fill:rgba(109,0,141,.24705882);stroke:rgba(109,0,141,.24705882);stroke-width:.09525;stroke-miterlimit:41.994751"/><path d="M166.3827 246.75465A.47625 .47625 0 00165.4302 246.75465A.47625 .47625 0 00166.3827 246.75465z" fill="rgba(109,0,141,.24705882)"/><path d="M230.14305 217.4367H247.41188V209.65477H230.14305z" style="fill:rgba(109,0,141,.24705882);stroke:rgba(109,0,141,.24705882);stroke-width:.09525;stroke-miterlimit:41.994751"/><path d="M239.37277 215.3412A.47625 .47625 0 00238.42028 215.3412A.47625 .47625 0 00239.37277 215.3412z" fill="rgba(109,0,141,.24705882)"/><path d="M31.880175 223.69462H69.85635V197.95807H31.880175z" style="fill:rgba(109,0,145,.24705882);stroke:rgba(109,0,145,.24705882);stroke-width:.09525;stroke-miterlimit:41.994751"/><path d="M48.872775 210.78825A.47625 .47625 0 0047.920275 210.78825A.47625 .47625 0 0048.872775 210.78825z" fill="rgba(109,0,145,.24705882)"/><path d="M57.912 190.35712A.47625 .47625 0 0056.9595 190.35712A.47625 .47625 0 0057.912 190.35712z" fill="rgba(109,0,145,.24705882)"/><path d="M48.396525 210.78825L57.43575 190.35712" style="fill:none;stroke:rgba(109,0,145,.24705882);stroke-width:.09525;stroke-miterlimit:41.994751"/><path d="M50.12055 154.4955L48.339375 194.3481" style="fill:none;stroke:rgba(101,0,153,.24705882);stroke-width:.09525;stroke-miterlimit:41.994751"/><path d="M238.89652 215.3412L238.97273 206.17815" style="fill:none;stroke:rgba(101,0,153,.24705882);stroke-width:.09525;stroke-miterlimit:41.994751"/><path d="M3.133725 172.01197H23.71725V149.62822H3.133725z" style="fill:rgba(97,0,153,.24705882);stroke:rgba(97,0,153,.24705882);stroke-width:.09525;stroke-miterlimit:41.994751"/><path d="M12.430125 158.90557A.47625 .47625 0 0011.477625 158.90557A.47625 .47625 0 0012.430125 158.90557z" fill="rgba(97,0,153,.24705882)"/><path d="M230.41928 209.65477H247.31663V201.6252H230.41928z" style="fill:rgba(93,0,161,.24705882);stroke:rgba(93,0,161,.24705882);stroke-width:.09525;stroke-miterlimit:41.994751"/><path d="M239.44898 206.17815A.47625 .47625 0 00238.49648 206.17815A.47625 .47625 0 00239.44898 206.17815z" fill="rgba(93,0,161,.24705882)"/><path d="M45.1485 110.51857L48.1584 122.4153" style="fill:none;stroke:rgba(89,0,161,.24705882);stroke-width:.09525;stroke-miterlimit:41.994751"/><path d="M289.87432 45.92955L150.4569 96.2025" style="fill:none;stroke:rgba(89,0,165,.24705882);stroke-width:.09525;stroke-miterlimit:41.994751"/><path d="M238.97273 206.17815L239.1537 199.04392" style="fill:none;stroke:rgba(85,0,170,.24705882);stroke-width:.09525;stroke-miterlimit:41.994751"/><path d="M230.97172 201.75855H247.29757V194.51002H230.97172z" style="fill:rgba(76,0,178,.24705882);stroke:rgba(76,0,178,.24705882);stroke-width:.09525;stroke-miterlimit:41.994751"/><path d="M239.62995 199.04392A.47625 .47625 0 00238.67745 199.04392A.47625 .47625 0 00239.62995 199.04392z" fill="rgba(76,0,178,.24705882)"/><path d="M22.107525 149.63775L11.953875 158.90557" style="fill:none;stroke:rgba(68,0,182,.24705882);stroke-width:.09525;stroke-miterlimit:41.994751"/><path d="M239.1537 199.04392L239.2299 189.93802" style="fill:none;stroke:rgba(68,0,186,.24705882);stroke-width:.09525;stroke-miterlimit:41.994751"/><path d="M231.16223 194.62432H246.76418V188.8998H231.16223z" style="fill:rgba(56,0,194,.24705882);stroke:rgba(56,0,194,.24705882);stroke-width:.09525;stroke-miterlimit:41.994751"/><path d="M239.70615 189.93802A.47625 .47625 0 00238.75365 189.93802A.47625 .47625 0 00239.70615 189.93802z" fill="rgba(56,0,194,.24705882)"/><path d="M239.2299 189.93802L239.47755 183.78487" style="fill:none;stroke:rgba(52,0,198,.24705882);stroke-width:.09525;stroke-miterlimit:41.994751"/><path d="M231.0765 188.62357H247.0404V177.15547H231.0765z" style="fill:rgba(52,0,202,.24705882);stroke:rgba(52,0,202,.24705882);stroke-width:.09525;stroke-miterlimit:41.994751"/><path d="M239.9538 183.78487A.47625 .47625 0 00239.0013 183.78487A.47625 .47625 0 00239.9538 183.78487z" fill="rgba(52,0,202,.24705882)"/><path d="M239.47755 183.78487L239.77283 173.49787" style="fill:none;stroke:rgba(44,0,206,.24705882);stroke-width:.09525;stroke-miterlimit:41.994751"/><path d="M22.583775 149.63775A.47625 .47625 0 0021.631275 149.63775A.47625 .47625 0 0022.583775 149.63775z" fill="rgba(44,0,210,.24705882)"/><path d="M231.33368 176.95545H247.85955V167.38282H231.33368z" style="fill:rgba(40,0,214,.24705882);stroke:rgba(40,0,214,.24705882);stroke-width:.09525;stroke-miterlimit:41.994751"/><path d="M240.24908 173.49787A.47625 .47625 0 00239.29658 173.49787A.47625 .47625 0 00240.24908 173.49787z" fill="rgba(40,0,214,.24705882)"/><path d="M239.77283 173.49787L240.0681 162.24885" style="fill:none;stroke:rgba(36,0,218,.24705882);stroke-width:.09525;stroke-miterlimit:41.994751"/><path d="M230.40023 167.4495H248.45963V157.95307H230.40023z" style="fill:rgba(28,0,222,.24705882);stroke:rgba(28,0,222,.24705882);stroke-width:.09525;stroke-miterlimit:41.994751"/><path d="M240.54435 162.24885A.47625 .47625 0 00239.59185 162.24885A.47625 .47625 0 00240.54435 162.24885z" fill="rgba(28,0,222,.24705882)"/><path d="M240.0681 162.24885L240.30623 152.53335" style="fill:none;stroke:rgba(24,0,230,.24705882);stroke-width:.09525;stroke-miterlimit:41.994751"/><path d="M48.815625 194.3481A.47625 .47625 0 0047.863125 194.3481A.47625 .47625 0 0048.815625 194.3481z" fill="rgba(20,0,234,.24705882)"/><path d="M230.98125 158.47695H247.8024V148.38997H230.98125z" style="fill:rgba(20,0,234,.24705882);stroke:rgba(20,0,234,.24705882);stroke-width:.09525;stroke-miterlimit:41.994751"/><path d="M240.78248 152.53335A.47625 .47625 0 00239.82998 152.53335A.47625 .47625 0 00240.78248 152.53335z" fill="rgba(20,0,234,.24705882)"/><path d="M240.30623 152.53335L241.2492 146.08492" style="fill:none;stroke:rgba(16,0,238,.24705882);stroke-width:.09525;stroke-miterlimit:41.994751"/><path d="M129.82575 141.32242H191.70968V103.24147H129.82575z" style="fill:rgba(16,0,238,.24705882);stroke:rgba(16,0,238,.24705882);stroke-width:.09525;stroke-miterlimit:41.994751"/><path d="M154.75268 116.71935A.47625 .47625 0 00153.80018 116.71935A.47625 .47625 0 00154.75268 116.71935z" fill="rgba(16,0,238,.24705882)"/><path d="M54.46395 115.91925H119.72925V103.33672H54.46395z" style="fill:rgba(16,0,238,.24705882);stroke:rgba(16,0,238,.24705882);stroke-width:.09525;stroke-miterlimit:41.994751"/><path d="M105.66083 109.62322A.47625 .47625 0 00104.70833 109.62322A.47625 .47625 0 00105.66083 109.62322z" fill="rgba(16,0,238,.24705882)"/><path d="M235.24845 148.00897H246.83085V143.92275H235.24845z" style="fill:rgba(12,0,238,.24705882);stroke:rgba(12,0,238,.24705882);stroke-width:.09525;stroke-miterlimit:41.994751"/><path d="M241.72545 146.08492A.47625 .47625 0 00240.77295 146.08492A.47625 .47625 0 00241.72545 146.08492z" fill="rgba(12,0,238,.24705882)"/><path d="M154.27643 116.71935L193.44323 139.28407" style="fill:none;stroke:rgba(12,0,238,.24705882);stroke-width:.09525;stroke-miterlimit:41.994751"/><path d="M154.27643 116.71935L126.9111 111.05197" style="fill:none;stroke:rgba(12,0,242,.24705882);stroke-width:.09525;stroke-miterlimit:41.994751"/><path d="M126.9111 111.05197L105.18458 109.62322" style="fill:none;stroke:rgba(12,0,242,.24705882);stroke-width:.09525;stroke-miterlimit:41.994751"/><path d="M191.81445 140.63662H234.00068V132.50227H191.81445z" style="fill:rgba(12,0,242,.24705882);stroke:rgba(12,0,242,.24705882);stroke-width:.09525;stroke-miterlimit:41.994751"/><path d="M193.91948 139.28407A.47625 .47625 0 00192.96698 139.28407A.47625 .47625 0 00193.91948 139.28407z" fill="rgba(12,0,242,.24705882)"/><path d="M119.77688 115.41442H130.27343V107.8992H119.77688z" style="fill:rgba(12,0,242,.24705882);stroke:rgba(12,0,242,.24705882);stroke-width:.09525;stroke-miterlimit:41.994751"/><path d="M127.38735 111.05197A.47625 .47625 0 00126.43485 111.05197A.47625 .47625 0 00127.38735 111.05197z" fill="rgba(12,0,242,.24705882)"/><path d="M241.2492 146.08492L242.00168 135.28357" style="fill:none;stroke:rgba(8,0,246,.24705882);stroke-width:.09525;stroke-miterlimit:41.994751"/><path d="M193.44323 139.28407L242.00168 135.28357" style="fill:none;stroke:rgba(8,0,246,.24705882);stroke-width:.09525;stroke-miterlimit:41.994751"/><path d="M154.27643 116.71935L150.4569 96.2025" style="fill:none;stroke:rgba(8,0,246,.24705882);stroke-width:.09525;stroke-miterlimit:41.994751"/><path d="M105.18458 109.62322L45.1485 110.51857" style="fill:none;stroke:rgba(8,0,246,.24705882);stroke-width:.09525;stroke-miterlimit:41.994751"/><path d="M234.63885 143.83702H247.65V130.6449H234.63885z" style="fill:rgba(4,0,250,.24705882);stroke:rgba(4,0,250,.24705882);stroke-width:.09525;stroke-miterlimit:41.994751"/><path d="M242.47793 135.28357A.47625 .47625 0 00241.52543 135.28357A.47625 .47625 0 00242.47793 135.28357z" fill="rgba(4,0,250,.24705882)"/><path d="M45.62475 110.51857A.47625 .47625 0 0044.67225 110.51857A.47625 .47625 0 0045.62475 110.51857z" fill="rgba(0,0,255,.24705882)"/><path d="M150.93315 96.2025A.47625 .47625 0 00149.98065 96.2025A.47625 .47625 0 00150.93315 96.2025z" fill="rgba(0,0,255,.24705882)"/></svg>