<svg version="1.1" width="192.50025mm" height="172.68825mm" viewBox="0 0 192.50025 172.68825" xmlns="http://www.w3.org/2000/svg" xmlns:xlink="http://www.w3.org/1999/xlink"><path d="M76.581 4.3815H78.486" style="fill:none;stroke:#f00;stroke-width:.09525;stroke-miterlimit:41.994751"/><path d="M76.581 4.3815V2.4765" style="fill:none;stroke:#0f0;stroke-width:.09525;stroke-miterlimit:41.994751"/><path d="M41.367075 168.6687A.47625 .47625 0 0040.414575 168.6687A.47625 .47625 0 0041.367075 168.6687z" fill="rgba(255,0,0,.24705882)"/><path d="M64.97955 156.90533A.47625 .47625 0 0064.02705 156.90533A.47625 .47625 0 0064.97955 156.90533z" fill="rgba(255,0,0,.24705882)"/><path d="M52.74945 138.92213A.47625 .47625 0 0051.79695 138.92213A.47625 .47625 0 0052.74945 138.92213z" fill="rgba(255,0,0,.24705882)"/><path d="M52.416075 150.69503A.47625 .47625 0 0051.463575 150.69503A.47625 .47625 0 0052.416075 150.69503z" fill="rgba(255,0,0,.24705882)"/><path d="M73.6854 165.19208A.47625 .47625 0 0072.7329 165.19208A.47625 .47625 0 0073.6854 165.19208z" fill="rgba(255,0,0,.24705882)"/><path d="M74.00925 149.44725A.47625 .47625 0 0073.05675 149.44725A.47625 .47625 0 0074.00925 149.44725z" fill="rgba(255,0,0,.24705882)"/><path d="M79.771875 156.73388A.47625 .47625 0 0078.819375 156.73388A.47625 .47625 0 0079.771875 156.73388z" fill="rgba(255,0,0,.24705882)"/><path d="M101.28885 95.91675A.47625 .47625 0 00100.33635 95.91675A.47625 .47625 0 00101.28885 95.91675z" fill="rgba(255,0,0,.24705882)"/><path d="M11.363325 39.900225A.47625 .47625 0 0010.410825 39.900225A.47625 .47625 0 0011.363325 39.900225z" fill="rgba(255,0,0,.24705882)"/><path d="M7.096125 75.03795A.47625 .47625 0 006.143625 75.03795A.47625 .47625 0 007.096125 75.03795z" fill="rgba(255,0,0,.24705882)"/><path d="M7.153275 67.598925A.47625 .47625 0 006.200775 67.598925A.47625 .47625 0 007.153275 67.598925z" fill="rgba(255,0,0,.24705882)"/><path d="M5.972175 18.4785A.47625 .47625 0 005.019675 18.4785A.47625 .47625 0 005.972175 18.4785z" fill="rgba(255,0,0,.24705882)"/><path d="M90.92565 95.57385A.47625 .47625 0 0089.97315 95.57385A.47625 .47625 0 0090.92565 95.57385z" fill="rgba(255,0,0,.24705882)"/><path d="M6.696075 31.308675A.47625 .47625 0 005.743575 31.308675A.47625 .47625 0 006.696075 31.308675z" fill="rgba(255,0,0,.24705882)"/><path d="M6.429375 39.157275A.47625 .47625 0 005.476875 39.157275A.47625 .47625 0 006.429375 39.157275z" fill="rgba(255,0,0,.24705882)"/><path d="M95.126175 95.61195A.47625 .47625 0 0094.173675 95.61195A.47625 .47625 0 0095.126175 95.61195z" fill="rgba(255,0,0,.24705882)"/><path d="M111.34725 103.60343A.47625 .47625 0 00110.39475 103.60343A.47625 .47625 0 00111.34725 103.60343z" fill="rgba(255,0,0,.24705882)"/><path d="M8.82015 50.34915A.47625 .47625 0 007.86765 50.34915A.47625 .47625 0 008.82015 50.34915z" fill="rgba(255,0,0,.24705882)"/><path d="M11.9634 20.51685A.47625 .47625 0 0011.0109 20.51685A.47625 .47625 0 0011.9634 20.51685z" fill="rgba(255,0,0,.24705882)"/><path d="M7.134225 77.5335A.47625 .47625 0 006.181725 77.5335A.47625 .47625 0 007.134225 77.5335z" fill="rgba(250,0,0,.24705882)"/><path d="M125.6919 107.7087A.47625 .47625 0 00124.7394 107.7087A.47625 .47625 0 00125.6919 107.7087z" fill="rgba(246,0,4,.24705882)"/><path d="M151.87613 122.28195A.47625 .47625 0 00150.92363 122.28195A.47625 .47625 0 00151.87613 122.28195z" fill="rgba(246,0,4,.24705882)"/><path d="M138.73163 129.87338A.47625 .47625 0 00137.77913 129.87338A.47625 .47625 0 00138.73163 129.87338z" fill="rgba(246,0,4,.24705882)"/><path d="M140.8557 136.31227A.47625 .47625 0 00139.9032 136.31227A.47625 .47625 0 00140.8557 136.31227z" fill="rgba(246,0,4,.24705882)"/><path d="M12.0396 22.202775A.47625 .47625 0 0011.0871 22.202775A.47625 .47625 0 0012.0396 22.202775z" fill="rgba(246,0,8,.24705882)"/><path d="M6.391275 40.471725A.47625 .47625 0 005.438775 40.471725A.47625 .47625 0 006.391275 40.471725z" fill="rgba(246,0,8,.24705882)"/><path d="M52.71135 117.40515A.47625 .47625 0 0051.75885 117.40515A.47625 .47625 0 0052.71135 117.40515z" fill="rgba(234,0,16,.24705882)"/><path d="M80.610075 95.621475A.47625 .47625 0 0079.657575 95.621475A.47625 .47625 0 0080.610075 95.621475z" fill="rgba(234,0,20,.24705882)"/><path d="M135.28357 140.8176A.47625 .47625 0 00134.33107 140.8176A.47625 .47625 0 00135.28357 140.8176z" fill="rgba(222,0,32,.24705882)"/><path d="M71.11365 96.288225A.47625 .47625 0 0070.16115 96.288225A.47625 .47625 0 0071.11365 96.288225z" fill="rgba(214,0,40,.24705882)"/><path d="M58.454925 95.526225A.47625 .47625 0 0057.502425 95.526225A.47625 .47625 0 0058.454925 95.526225z" fill="rgba(214,0,40,.24705882)"/><path d="M64.94145 62.817375A.47625 .47625 0 0063.98895 62.817375A.47625 .47625 0 0064.94145 62.817375z" fill="rgba(214,0,40,.24705882)"/><path d="M39.83355 48.206025A.47625 .47625 0 0038.88105 48.206025A.47625 .47625 0 0039.83355 48.206025z" fill="rgba(214,0,40,.24705882)"/><path d="M53.082825 94.88805A.47625 .47625 0 0052.130325 94.88805A.47625 .47625 0 0053.082825 94.88805z" fill="rgba(214,0,40,.24705882)"/><path d="M107.72775 71.961375A.47625 .47625 0 00106.77525 71.961375A.47625 .47625 0 00107.72775 71.961375z" fill="rgba(214,0,40,.24705882)"/><path d="M21.24075 66.532125A.47625 .47625 0 0020.28825 66.532125A.47625 .47625 0 0021.24075 66.532125z" fill="rgba(214,0,40,.24705882)"/><path d="M20.583525 79.4766A.47625 .47625 0 0019.631025 79.4766A.47625 .47625 0 0020.583525 79.4766z" fill="rgba(214,0,40,.24705882)"/><path d="M40.281225 65.4939A.47625 .47625 0 0039.328725 65.4939A.47625 .47625 0 0040.281225 65.4939z" fill="rgba(214,0,40,.24705882)"/><path d="M52.4637 108.02303A.47625 .47625 0 0051.5112 108.02303A.47625 .47625 0 0052.4637 108.02303z" fill="rgba(214,0,40,.24705882)"/><path d="M65.913 47.196375A.47625 .47625 0 0064.9605 47.196375A.47625 .47625 0 0065.913 47.196375z" fill="rgba(214,0,40,.24705882)"/><path d="M65.693925 76.952475A.47625 .47625 0 0064.741425 76.952475A.47625 .47625 0 0065.693925 76.952475z" fill="rgba(214,0,40,.24705882)"/><path d="M102.76522 72.59955A.47625 .47625 0 00101.81273 72.59955A.47625 .47625 0 00102.76522 72.59955z" fill="rgba(210,0,40,.24705882)"/><path d="M87.106125 73.8378A.47625 .47625 0 0086.153625 73.8378A.47625 .47625 0 0087.106125 73.8378z" fill="rgba(210,0,40,.24705882)"/><path d="M104.15587 68.8086A.47625 .47625 0 00103.20338 68.8086A.47625 .47625 0 00104.15587 68.8086z" fill="rgba(210,0,40,.24705882)"/><path d="M75.580875 75.7047A.47625 .47625 0 0074.628375 75.7047A.47625 .47625 0 0075.580875 75.7047z" fill="rgba(210,0,40,.24705882)"/><path d="M75.352275 67.484625A.47625 .47625 0 0074.399775 67.484625A.47625 .47625 0 0075.352275 67.484625z" fill="rgba(210,0,40,.24705882)"/><path d="M86.4489 68.1609A.47625 .47625 0 0085.4964 68.1609A.47625 .47625 0 0086.4489 68.1609z" fill="rgba(210,0,40,.24705882)"/><path d="M133.0833 133.22618A.47625 .47625 0 00132.1308 133.22618A.47625 .47625 0 00133.0833 133.22618z" fill="rgba(206,0,48,.24705882)"/><path d="M131.3307 140.15085A.47625 .47625 0 00130.3782 140.15085A.47625 .47625 0 00131.3307 140.15085z" fill="rgba(206,0,48,.24705882)"/><path d="M107.2896 85.6107A.47625 .47625 0 00106.3371 85.6107A.47625 .47625 0 00107.2896 85.6107z" fill="rgba(206,0,48,.24705882)"/><path d="M65.6844 42.4815A.47625 .47625 0 0064.7319 42.4815A.47625 .47625 0 0065.6844 42.4815z" fill="rgba(194,0,56,.24705882)"/><path d="M40.071675 40.2717A.47625 .47625 0 0039.119175 40.2717A.47625 .47625 0 0040.071675 40.2717z" fill="rgba(190,0,64,.24705882)"/><path d="M107.31817 104.13683A.47625 .47625 0 00106.36568 104.13683A.47625 .47625 0 00107.31817 104.13683z" fill="rgba(182,0,72,.24705882)"/><path d="M129.21615 135.5598A.47625 .47625 0 00128.26365 135.5598A.47625 .47625 0 00129.21615 135.5598z" fill="rgba(182,0,72,.24705882)"/><path d="M22.107525 132.15938A.47625 .47625 0 0021.155025 132.15938A.47625 .47625 0 0022.107525 132.15938z" fill="rgba(174,0,80,.24705882)"/><path d="M6.715125 44.958A.47625 .47625 0 005.762625 44.958A.47625 .47625 0 006.715125 44.958z" fill="rgba(174,0,80,.24705882)"/><path d="M21.6789 94.021275A.47625 .47625 0 0020.7264 94.021275A.47625 .47625 0 0021.6789 94.021275z" fill="rgba(174,0,80,.24705882)"/><path d="M15.859125 71.637525A.47625 .47625 0 0014.906625 71.637525A.47625 .47625 0 0015.859125 71.637525z" fill="rgba(174,0,80,.24705882)"/><path d="M69.7611 36.7665A.47625 .47625 0 0068.8086 36.7665A.47625 .47625 0 0069.7611 36.7665z" fill="rgba(174,0,80,.24705882)"/><path d="M70.23735 44.453175A.47625 .47625 0 0069.28485 44.453175A.47625 .47625 0 0070.23735 44.453175z" fill="rgba(174,0,80,.24705882)"/><path d="M69.66585 50.377725A.47625 .47625 0 0068.71335 50.377725A.47625 .47625 0 0069.66585 50.377725z" fill="rgba(174,0,80,.24705882)"/><path d="M70.075425 55.216425A.47625 .47625 0 0069.122925 55.216425A.47625 .47625 0 0070.075425 55.216425z" fill="rgba(174,0,80,.24705882)"/><path d="M69.942075 63.95085A.47625 .47625 0 0068.989575 63.95085A.47625 .47625 0 0069.942075 63.95085z" fill="rgba(174,0,80,.24705882)"/><path d="M76.285725 63.922275A.47625 .47625 0 0075.333225 63.922275A.47625 .47625 0 0076.285725 63.922275z" fill="rgba(174,0,80,.24705882)"/><path d="M84.71535 63.846075A.47625 .47625 0 0083.76285 63.846075A.47625 .47625 0 0084.71535 63.846075z" fill="rgba(174,0,80,.24705882)"/><path d="M96.37395 63.8937A.47625 .47625 0 0095.42145 63.8937A.47625 .47625 0 0096.37395 63.8937z" fill="rgba(174,0,80,.24705882)"/><path d="M103.05097 63.91275A.47625 .47625 0 00102.09848 63.91275A.47625 .47625 0 00103.05097 63.91275z" fill="rgba(174,0,80,.24705882)"/><path d="M21.9456 114.19523A.47625 .47625 0 0020.9931 114.19523A.47625 .47625 0 0021.9456 114.19523z" fill="rgba(174,0,80,.24705882)"/><path d="M107.61345 63.8937A.47625 .47625 0 00106.66095 63.8937A.47625 .47625 0 00107.61345 63.8937z" fill="rgba(174,0,80,.24705882)"/><path d="M22.031325 71.732775A.47625 .47625 0 0021.078825 71.732775A.47625 .47625 0 0022.031325 71.732775z" fill="rgba(174,0,80,.24705882)"/><path d="M12.8397 71.580375A.47625 .47625 0 0011.8872 71.580375A.47625 .47625 0 0012.8397 71.580375z" fill="rgba(174,0,80,.24705882)"/><path d="M95.278575 59.407425A.47625 .47625 0 0094.326075 59.407425A.47625 .47625 0 0095.278575 59.407425z" fill="rgba(174,0,80,.24705882)"/><path d="M65.770125 35.785425A.47625 .47625 0 0064.817625 35.785425A.47625 .47625 0 0065.770125 35.785425z" fill="rgba(174,0,80,.24705882)"/><path d="M66.036825 27.803475A.47625 .47625 0 0065.084325 27.803475A.47625 .47625 0 0066.036825 27.803475z" fill="rgba(174,0,80,.24705882)"/><path d="M28.908375 60.531375A.47625 .47625 0 0027.955875 60.531375A.47625 .47625 0 0028.908375 60.531375z" fill="rgba(174,0,80,.24705882)"/><path d="M35.64255 60.493275A.47625 .47625 0 0034.69005 60.493275A.47625 .47625 0 0035.64255 60.493275z" fill="rgba(174,0,80,.24705882)"/><path d="M35.366325 54.073425A.47625 .47625 0 0034.413825 54.073425A.47625 .47625 0 0035.366325 54.073425z" fill="rgba(174,0,80,.24705882)"/><path d="M35.709225 47.26305A.47625 .47625 0 0034.756725 47.26305A.47625 .47625 0 0035.709225 47.26305z" fill="rgba(174,0,80,.24705882)"/><path d="M6.886575 63.76035A.47625 .47625 0 005.934075 63.76035A.47625 .47625 0 006.886575 63.76035z" fill="rgba(174,0,80,.24705882)"/><path d="M35.64255 40.090725A.47625 .47625 0 0034.69005 40.090725A.47625 .47625 0 0035.64255 40.090725z" fill="rgba(174,0,80,.24705882)"/><path d="M35.747325 32.261175A.47625 .47625 0 0034.794825 32.261175A.47625 .47625 0 0035.747325 32.261175z" fill="rgba(174,0,80,.24705882)"/><path d="M39.519225 36.21405A.47625 .47625 0 0038.566725 36.21405A.47625 .47625 0 0039.519225 36.21405z" fill="rgba(174,0,80,.24705882)"/><path d="M40.205025 28.813125A.47625 .47625 0 0039.252525 28.813125A.47625 .47625 0 0040.205025 28.813125z" fill="rgba(174,0,80,.24705882)"/><path d="M.9525 73.152A.47625 .47625 0 0073829831e-22 73.152A.47625 .47625 0 00.9525 73.152z" fill="rgba(174,0,80,.24705882)"/><path d="M79.771875 51.692175A.47625 .47625 0 0078.819375 51.692175A.47625 .47625 0 0079.771875 51.692175z" fill="rgba(174,0,80,.24705882)"/><path d="M7.267575 81.4578A.47625 .47625 0 006.315075 81.4578A.47625 .47625 0 007.267575 81.4578z" fill="rgba(174,0,80,.24705882)"/><path d="M22.164675 59.293125A.47625 .47625 0 0021.212175 59.293125A.47625 .47625 0 0022.164675 59.293125z" fill="rgba(174,0,80,.24705882)"/><path d="M16.011525 43.995975A.47625 .47625 0 0015.059025 43.995975A.47625 .47625 0 0016.011525 43.995975z" fill="rgba(174,0,80,.24705882)"/><path d="M74.2188 53.47335A.47625 .47625 0 0073.2663 53.47335A.47625 .47625 0 0074.2188 53.47335z" fill="rgba(174,0,80,.24705882)"/><path d="M22.278975 144.59903A.47625 .47625 0 0021.326475 144.59903A.47625 .47625 0 0022.278975 144.59903z" fill="rgba(174,0,80,.24705882)"/><path d="M23.52675 44.1579A.47625 .47625 0 0022.57425 44.1579A.47625 .47625 0 0023.52675 44.1579z" fill="rgba(174,0,80,.24705882)"/><path d="M87.868125 46.720125A.47625 .47625 0 0086.915625 46.720125A.47625 .47625 0 0087.868125 46.720125z" fill="rgba(174,0,80,.24705882)"/><path d="M87.410925 56.36895A.47625 .47625 0 0086.458425 56.36895A.47625 .47625 0 0087.410925 56.36895z" fill="rgba(174,0,80,.24705882)"/><path d="M22.30755 80.1624A.47625 .47625 0 0021.35505 80.1624A.47625 .47625 0 0022.30755 80.1624z" fill="rgba(174,0,80,.24705882)"/><path d="M100.18395 43.672125A.47625 .47625 0 0099.23145 43.672125A.47625 .47625 0 00100.18395 43.672125z" fill="rgba(174,0,80,.24705882)"/><path d="M99.717225 30.00375A.47625 .47625 0 0098.764725 30.00375A.47625 .47625 0 0099.717225 30.00375z" fill="rgba(174,0,80,.24705882)"/><path d="M100.965 12.620625A.47625 .47625 0 00100.0125 12.620625A.47625 .47625 0 00100.965 12.620625z" fill="rgba(174,0,80,.24705882)"/><path d="M101.75557 5.076825A.47625 .47625 0 00100.80308 5.076825A.47625 .47625 0 00101.75557 5.076825z" fill="rgba(174,0,80,.24705882)"/><path d="M113.3094 44.129325A.47625 .47625 0 00112.3569 44.129325A.47625 .47625 0 00113.3094 44.129325z" fill="rgba(174,0,80,.24705882)"/><path d="M88.211025 4.429125A.47625 .47625 0 0087.258525 4.429125A.47625 .47625 0 0088.211025 4.429125z" fill="rgba(174,0,80,.24705882)"/><path d="M24.25065 25.35555A.47625 .47625 0 0023.29815 25.35555A.47625 .47625 0 0024.25065 25.35555z" fill="rgba(174,0,80,.24705882)"/><path d="M25.079325 8.8011A.47625 .47625 0 0024.126825 8.8011A.47625 .47625 0 0025.079325 8.8011z" fill="rgba(174,0,80,.24705882)"/><path d="M88.153875 13.173075A.47625 .47625 0 0087.201375 13.173075A.47625 .47625 0 0088.153875 13.173075z" fill="rgba(174,0,80,.24705882)"/><path d="M43.748325 11.477625A.47625 .47625 0 0042.795825 11.477625A.47625 .47625 0 0043.748325 11.477625z" fill="rgba(174,0,80,.24705882)"/><path d="M52.435125 22.393275A.47625 .47625 0 0051.482625 22.393275A.47625 .47625 0 0052.435125 22.393275z" fill="rgba(174,0,80,.24705882)"/><path d="M71.247 7.362825A.47625 .47625 0 0070.2945 7.362825A.47625 .47625 0 0071.247 7.362825z" fill="rgba(174,0,80,.24705882)"/><path d="M52.90185 10.734675A.47625 .47625 0 0051.94935 10.734675A.47625 .47625 0 0052.90185 10.734675z" fill="rgba(174,0,80,.24705882)"/><path d="M78.266925 22.86A.47625 .47625 0 0077.314425 22.86A.47625 .47625 0 0078.266925 22.86z" fill="rgba(174,0,80,.24705882)"/><path d="M79.067025 36.0807A.47625 .47625 0 0078.114525 36.0807A.47625 .47625 0 0079.067025 36.0807z" fill="rgba(174,0,80,.24705882)"/><path d="M6.68655 40.1955A.47625 .47625 0 005.73405 40.1955A.47625 .47625 0 006.68655 40.1955z" fill="rgba(174,0,80,.24705882)"/><path d="M7.2009 76.86675A.47625 .47625 0 006.2484 76.86675A.47625 .47625 0 007.2009 76.86675z" fill="rgba(170,0,80,.24705882)"/><path d="M12.030075 21.974175A.47625 .47625 0 0011.077575 21.974175A.47625 .47625 0 0012.030075 21.974175z" fill="rgba(170,0,80,.24705882)"/><path d="M12.85875 26.489025A.47625 .47625 0 0011.90625 26.489025A.47625 .47625 0 0012.85875 26.489025z" fill="rgba(170,0,85,.24705882)"/><path d="M15.763875 25.669875A.47625 .47625 0 0014.811375 25.669875A.47625 .47625 0 0015.763875 25.669875z" fill="rgba(170,0,85,.24705882)"/><path d="M77.3049 7.972425A.47625 .47625 0 0076.3524 7.972425A.47625 .47625 0 0077.3049 7.972425z" fill="rgba(170,0,85,.24705882)"/><path d="M46.682025 165.47783A.47625 .47625 0 0045.729525 165.47783A.47625 .47625 0 0046.682025 165.47783z" fill="rgba(170,0,85,.24705882)"/><path d="M49.958625 160.03905A.47625 .47625 0 0049.006125 160.03905A.47625 .47625 0 0049.958625 160.03905z" fill="rgba(170,0,85,.24705882)"/><path d="M50.739675 150.98078A.47625 .47625 0 0049.787175 150.98078A.47625 .47625 0 0050.739675 150.98078z" fill="rgba(170,0,85,.24705882)"/><path d="M127.05397 39.8526A.47625 .47625 0 00126.10148 39.8526A.47625 .47625 0 00127.05397 39.8526z" fill="rgba(170,0,85,.24705882)"/><path d="M70.92315 119.8626A.47625 .47625 0 0069.97065 119.8626A.47625 .47625 0 0070.92315 119.8626z" fill="rgba(170,0,85,.24705882)"/><path d="M92.98305 119.3292A.47625 .47625 0 0092.03055 119.3292A.47625 .47625 0 0092.98305 119.3292z" fill="rgba(170,0,85,.24705882)"/><path d="M107.7468 114.27143A.47625 .47625 0 00106.7943 114.27143A.47625 .47625 0 00107.7468 114.27143z" fill="rgba(170,0,85,.24705882)"/><path d="M107.87062 119.5197A.47625 .47625 0 00106.91813 119.5197A.47625 .47625 0 00107.87062 119.5197z" fill="rgba(170,0,85,.24705882)"/><path d="M71.11365 138.55065A.47625 .47625 0 0070.16115 138.55065A.47625 .47625 0 0071.11365 138.55065z" fill="rgba(170,0,85,.24705882)"/><path d="M50.53965 144.64665A.47625 .47625 0 0049.58715 144.64665A.47625 .47625 0 0050.53965 144.64665z" fill="rgba(170,0,85,.24705882)"/><path d="M70.2945 159.32468A.47625 .47625 0 0069.342 159.32468A.47625 .47625 0 0070.2945 159.32468z" fill="rgba(170,0,85,.24705882)"/><path d="M71.0184 144.8562A.47625 .47625 0 0070.0659 144.8562A.47625 .47625 0 0071.0184 144.8562z" fill="rgba(170,0,85,.24705882)"/><path d="M38.1762 171.62145A.47625 .47625 0 0037.2237 171.62145A.47625 .47625 0 0038.1762 171.62145z" fill="rgba(170,0,85,.24705882)"/><path d="M37.233225 158.17215A.47625 .47625 0 0036.280725 158.17215A.47625 .47625 0 0037.233225 158.17215z" fill="rgba(170,0,85,.24705882)"/><path d="M53.330475 55.787925A.47625 .47625 0 0052.377975 55.787925A.47625 .47625 0 0053.330475 55.787925z" fill="rgba(170,0,85,.24705882)"/><path d="M51.939825 69.58965A.47625 .47625 0 0050.987325 69.58965A.47625 .47625 0 0051.939825 69.58965z" fill="rgba(170,0,85,.24705882)"/><path d="M35.309175 144.6657A.47625 .47625 0 0034.356675 144.6657A.47625 .47625 0 0035.309175 144.6657z" fill="rgba(170,0,85,.24705882)"/><path d="M54.95925 172.15485A.47625 .47625 0 0054.00675 172.15485A.47625 .47625 0 0054.95925 172.15485z" fill="rgba(170,0,85,.24705882)"/><path d="M70.485 170.86898A.47625 .47625 0 0069.5325 170.86898A.47625 .47625 0 0070.485 170.86898z" fill="rgba(170,0,85,.24705882)"/><path d="M52.52085 83.0199A.47625 .47625 0 0051.56835 83.0199A.47625 .47625 0 0052.52085 83.0199z" fill="rgba(170,0,85,.24705882)"/><path d="M86.0298 144.61808A.47625 .47625 0 0085.0773 144.61808A.47625 .47625 0 0086.0298 144.61808z" fill="rgba(170,0,85,.24705882)"/><path d="M120.02452 40.767A.47625 .47625 0 00119.07203 40.767A.47625 .47625 0 00120.02452 40.767z" fill="rgba(170,0,85,.24705882)"/><path d="M86.591775 157.9245A.47625 .47625 0 0085.639275 157.9245A.47625 .47625 0 0086.591775 157.9245z" fill="rgba(170,0,85,.24705882)"/><path d="M86.077425 172.212A.47625 .47625 0 0085.124925 172.212A.47625 .47625 0 0086.077425 172.212z" fill="rgba(170,0,85,.24705882)"/><path d="M16.5354 80.2005A.47625 .47625 0 0015.5829 80.2005A.47625 .47625 0 0016.5354 80.2005z" fill="rgba(165,0,85,.24705882)"/><path d="M53.749575 34.356675A.47625 .47625 0 0052.797075 34.356675A.47625 .47625 0 0053.749575 34.356675z" fill="rgba(165,0,89,.24705882)"/><path d="M54.0258 47.9298A.47625 .47625 0 0053.0733 47.9298A.47625 .47625 0 0054.0258 47.9298z" fill="rgba(165,0,89,.24705882)"/><path d="M142.27492 128.6256A.47625 .47625 0 00141.32243 128.6256A.47625 .47625 0 00142.27492 128.6256z" fill="rgba(161,0,89,.24705882)"/><path d="M186.82335 113.5761A.47625 .47625 0 00185.87085 113.5761A.47625 .47625 0 00186.82335 113.5761z" fill="rgba(161,0,89,.24705882)"/><path d="M165.47782 138.48398A.47625 .47625 0 00164.52533 138.48398A.47625 .47625 0 00165.47782 138.48398z" fill="rgba(161,0,89,.24705882)"/><path d="M187.12815 138.3792A.47625 .47625 0 00186.17565 138.3792A.47625 .47625 0 00187.12815 138.3792z" fill="rgba(161,0,89,.24705882)"/><path d="M165.3159 114.11903A.47625 .47625 0 00164.3634 114.11903A.47625 .47625 0 00165.3159 114.11903z" fill="rgba(161,0,89,.24705882)"/><path d="M126.33007 120.4341A.47625 .47625 0 00125.37758 120.4341A.47625 .47625 0 00126.33007 120.4341z" fill="rgba(161,0,89,.24705882)"/><path d="M130.0353 128.87325A.47625 .47625 0 00129.0828 128.87325A.47625 .47625 0 00130.0353 128.87325z" fill="rgba(161,0,89,.24705882)"/><path d="M145.83728 115.00485A.47625 .47625 0 00144.88478 115.00485A.47625 .47625 0 00145.83728 115.00485z" fill="rgba(161,0,89,.24705882)"/><path d="M59.235975 164.23005A.47625 .47625 0 0058.283475 164.23005A.47625 .47625 0 0059.235975 164.23005z" fill="rgba(161,0,93,.24705882)"/><path d="M159.51517 132.8166A.47625 .47625 0 00158.56268 132.8166A.47625 .47625 0 00159.51517 132.8166z" fill="rgba(149,0,105,.24705882)"/><path d="M159.31515 138.08393A.47625 .47625 0 00158.36265 138.08393A.47625 .47625 0 00159.31515 138.08393z" fill="rgba(149,0,105,.24705882)"/><path d="M71.64705 53.1876A.47625 .47625 0 0070.69455 53.1876A.47625 .47625 0 0071.64705 53.1876z" fill="rgba(141,0,113,.24705882)"/><path d="M95.34525 61.66485A.47625 .47625 0 0094.39275 61.66485A.47625 .47625 0 0095.34525 61.66485z" fill="rgba(141,0,113,.24705882)"/><path d="M148.57095 138.57923A.47625 .47625 0 00147.61845 138.57923A.47625 .47625 0 00148.57095 138.57923z" fill="rgba(121,0,133,.24705882)"/><path d="M16.764 80.10525A.47625 .47625 0 0015.8115 80.10525A.47625 .47625 0 0016.764 80.10525z" fill="rgba(93,0,161,.24705882)"/><path d="M59.464575 164.0205A.47625 .47625 0 0058.512075 164.0205A.47625 .47625 0 0059.464575 164.0205z" fill="rgba(89,0,165,.24705882)"/><path d="M135.08355 137.70293A.47625 .47625 0 00134.13105 137.70293A.47625 .47625 0 00135.08355 137.70293z" fill="rgba(85,0,170,.24705882)"/><path d="M123.1392 102.04133A.47625 .47625 0 00122.1867 102.04133A.47625 .47625 0 00123.1392 102.04133z" fill="rgba(85,0,170,.24705882)"/><path d="M81.353025 39.900225A.47625 .47625 0 0080.400525 39.900225A.47625 .47625 0 0081.353025 39.900225z" fill="rgba(85,0,170,.24705882)"/><path d="M98.9076 28.78455A.47625 .47625 0 0097.9551 28.78455A.47625 .47625 0 0098.9076 28.78455z" fill="rgba(85,0,170,.24705882)"/><path d="M89.220675 28.8798A.47625 .47625 0 0088.268175 28.8798A.47625 .47625 0 0089.220675 28.8798z" fill="rgba(85,0,170,.24705882)"/><path d="M7.0866 79.7433A.47625 .47625 0 006.1341 79.7433A.47625 .47625 0 007.0866 79.7433z" fill="rgba(85,0,170,.24705882)"/><path d="M16.002 80.152875A.47625 .47625 0 0015.0495 80.152875A.47625 .47625 0 0016.002 80.152875z" fill="rgba(85,0,170,.24705882)"/><path d="M79.657575 28.51785A.47625 .47625 0 0078.705075 28.51785A.47625 .47625 0 0079.657575 28.51785z" fill="rgba(85,0,170,.24705882)"/><path d="M89.2302 21.116925A.47625 .47625 0 0088.2777 21.116925A.47625 .47625 0 0089.2302 21.116925z" fill="rgba(85,0,170,.24705882)"/><path d="M83.57235 84.991575A.47625 .47625 0 0082.61985 84.991575A.47625 .47625 0 0083.57235 84.991575z" fill="rgba(85,0,170,.24705882)"/><path d="M97.374075 21.116925A.47625 .47625 0 0096.421575 21.116925A.47625 .47625 0 0097.374075 21.116925z" fill="rgba(85,0,170,.24705882)"/><path d="M109.92802 21.326475A.47625 .47625 0 00108.97553 21.326475A.47625 .47625 0 00109.92802 21.326475z" fill="rgba(85,0,170,.24705882)"/><path d="M111.73777 29.136975A.47625 .47625 0 00110.78528 29.136975A.47625 .47625 0 00111.73777 29.136975z" fill="rgba(85,0,170,.24705882)"/><path d="M108.91837 39.52875A.47625 .47625 0 00107.96588 39.52875A.47625 .47625 0 00108.91837 39.52875z" fill="rgba(85,0,170,.24705882)"/><path d="M80.019525 7.324725A.47625 .47625 0 0079.067025 7.324725A.47625 .47625 0 0080.019525 7.324725z" fill="rgba(85,0,170,.24705882)"/><path d="M89.8017 39.37635A.47625 .47625 0 0088.8492 39.37635A.47625 .47625 0 0089.8017 39.37635z" fill="rgba(85,0,170,.24705882)"/><path d="M100.4697 39.18585A.47625 .47625 0 0099.5172 39.18585A.47625 .47625 0 00100.4697 39.18585z" fill="rgba(85,0,170,.24705882)"/><path d="M103.08907 28.78455A.47625 .47625 0 00102.13658 28.78455A.47625 .47625 0 00103.08907 28.78455z" fill="rgba(85,0,170,.24705882)"/><path d="M81.372075 49.634775A.47625 .47625 0 0080.419575 49.634775A.47625 .47625 0 0081.372075 49.634775z" fill="rgba(85,0,170,.24705882)"/><path d="M48.701325 159.58185A.47625 .47625 0 0047.748825 159.58185A.47625 .47625 0 0048.701325 159.58185z" fill="rgba(85,0,170,.24705882)"/><path d="M105.05122 120.79605A.47625 .47625 0 00104.09873 120.79605A.47625 .47625 0 00105.05122 120.79605z" fill="rgba(85,0,170,.24705882)"/><path d="M125.98718 120.33885A.47625 .47625 0 00125.03468 120.33885A.47625 .47625 0 00125.98718 120.33885z" fill="rgba(85,0,170,.24705882)"/><path d="M7.267575 43.672125A.47625 .47625 0 006.315075 43.672125A.47625 .47625 0 007.267575 43.672125z" fill="rgba(85,0,170,.24705882)"/><path d="M71.38035 50.034825A.47625 .47625 0 0070.42785 50.034825A.47625 .47625 0 0071.38035 50.034825z" fill="rgba(85,0,170,.24705882)"/><path d="M83.410425 119.51018A.47625 .47625 0 0082.457925 119.51018A.47625 .47625 0 0083.410425 119.51018z" fill="rgba(85,0,170,.24705882)"/><path d="M43.815 7.191375A.47625 .47625 0 0042.8625 7.191375A.47625 .47625 0 0043.815 7.191375z" fill="rgba(85,0,170,.24705882)"/><path d="M43.805475 22.42185A.47625 .47625 0 0042.852975 22.42185A.47625 .47625 0 0043.805475 22.42185z" fill="rgba(85,0,170,.24705882)"/><path d="M83.058 61.8363A.47625 .47625 0 0082.1055 61.8363A.47625 .47625 0 0083.058 61.8363z" fill="rgba(85,0,170,.24705882)"/><path d="M52.778025 7.267575A.47625 .47625 0 0051.825525 7.267575A.47625 .47625 0 0052.778025 7.267575z" fill="rgba(85,0,170,.24705882)"/><path d="M71.38035 7.362825A.47625 .47625 0 0070.42785 7.362825A.47625 .47625 0 0071.38035 7.362825z" fill="rgba(85,0,170,.24705882)"/><path d="M6.64845 58.9026A.47625 .47625 0 005.69595 58.9026A.47625 .47625 0 006.64845 58.9026z" fill="rgba(85,0,170,.24705882)"/><path d="M25.2222 7.18185A.47625 .47625 0 0024.2697 7.18185A.47625 .47625 0 0025.2222 7.18185z" fill="rgba(85,0,170,.24705882)"/><path d="M130.2258 137.8077A.47625 .47625 0 00129.2733 137.8077A.47625 .47625 0 00130.2258 137.8077z" fill="rgba(85,0,170,.24705882)"/><path d="M131.61645 120.7008A.47625 .47625 0 00130.66395 120.7008A.47625 .47625 0 00131.61645 120.7008z" fill="rgba(85,0,170,.24705882)"/><path d="M159.27705 120.55793A.47625 .47625 0 00158.32455 120.55793A.47625 .47625 0 00159.27705 120.55793z" fill="rgba(85,0,170,.24705882)"/><path d="M145.17052 120.34838A.47625 .47625 0 00144.21803 120.34838A.47625 .47625 0 00145.17052 120.34838z" fill="rgba(85,0,170,.24705882)"/><path d="M161.82022 103.07955A.47625 .47625 0 00160.86773 103.07955A.47625 .47625 0 00161.82022 103.07955z" fill="rgba(85,0,170,.24705882)"/><path d="M25.27935 44.13885A.47625 .47625 0 0024.32685 44.13885A.47625 .47625 0 0025.27935 44.13885z" fill="rgba(85,0,170,.24705882)"/><path d="M146.56117 104.37495A.47625 .47625 0 00145.60868 104.37495A.47625 .47625 0 00146.56117 104.37495z" fill="rgba(85,0,170,.24705882)"/><path d="M58.9026 163.9824A.47625 .47625 0 0057.9501 163.9824A.47625 .47625 0 0058.9026 163.9824z" fill="rgba(80,0,174,.24705882)"/><path d="M122.96775 99.145725A.47625 .47625 0 00122.01525 99.145725A.47625 .47625 0 00122.96775 99.145725z" fill="rgba(68,0,182,.24705882)"/><path d="M119.91022 101.9937A.47625 .47625 0 00118.95773 101.9937A.47625 .47625 0 00119.91022 101.9937z" fill="rgba(68,0,182,.24705882)"/><path d="M122.7582 104.83215A.47625 .47625 0 00121.8057 104.83215A.47625 .47625 0 00122.7582 104.83215z" fill="rgba(68,0,182,.24705882)"/><path d="M109.93755 35.1282A.47625 .47625 0 00108.98505 35.1282A.47625 .47625 0 00109.93755 35.1282z" fill="rgba(4,0,246,.24705882)"/><path d="M82.991325 46.301025A.47625 .47625 0 0082.038825 46.301025A.47625 .47625 0 0082.991325 46.301025z" fill="rgba(4,0,246,.24705882)"/><path d="M79.11465 12.2301A.47625 .47625 0 0078.16215 12.2301A.47625 .47625 0 0079.11465 12.2301z" fill="rgba(4,0,246,.24705882)"/><path d="M81.40065 29.022675A.47625 .47625 0 0080.44815 29.022675A.47625 .47625 0 0081.40065 29.022675z" fill="rgba(4,0,246,.24705882)"/><path d="M80.629125 .43815A.47625 .47625 0 0079.676625 .43815A.47625 .47625 0 0080.629125 .43815z" fill="rgba(4,0,246,.24705882)"/><path d="M110.06137 1.0668A.47625 .47625 0 00109.10888 1.0668A.47625 .47625 0 00110.06137 1.0668z" fill="rgba(4,0,246,.24705882)"/><path d="M105.90847 46.8249A.47625 .47625 0 00104.95598 46.8249A.47625 .47625 0 00105.90847 46.8249z" fill="rgba(4,0,246,.24705882)"/><path d="M110.43285 16.0401A.47625 .47625 0 00109.48035 16.0401A.47625 .47625 0 00110.43285 16.0401z" fill="rgba(4,0,246,.24705882)"/><path d="M80.9244 29.022675L82.515075 46.301025" style="fill:none;stroke:rgba(4,0,246,.24705882);stroke-width:.09525;stroke-miterlimit:41.994751"/><path d="M109.4613 35.1282L105.43223 46.8249" style="fill:none;stroke:rgba(4,0,246,.24705882);stroke-width:.09525;stroke-miterlimit:41.994751"/><path d="M105.43223 46.8249L82.515075 46.301025" style="fill:none;stroke:rgba(4,0,246,.24705882);stroke-width:.09525;stroke-miterlimit:41.994751"/><path d="M109.9566 16.0401L109.4613 35.1282" style="fill:none;stroke:rgba(4,0,246,.24705882);stroke-width:.09525;stroke-miterlimit:41.994751"/><path d="M78.6384 12.2301L80.152875 .43815" style="fill:none;stroke:rgba(4,0,246,.24705882);stroke-width:.09525;stroke-miterlimit:41.994751"/><path d="M109.58513 1.0668L109.9566 16.0401" style="fill:none;stroke:rgba(4,0,246,.24705882);stroke-width:.09525;stroke-miterlimit:41.994751"/><path d="M78.6384 12.2301L80.9244 29.022675" style="fill:none;stroke:rgba(4,0,246,.24705882);stroke-width:.09525;stroke-miterlimit:41.994751"/><path d="M80.152875 .43815L109.58513 1.0668" style="fill:none;stroke:rgba(4,0,246,.24705882);stroke-width:.09525;stroke-miterlimit:41.994751"/><path d="M83.124675 120.3198A.47625 .47625 0 0082.172175 120.3198A.47625 .47625 0 0083.124675 120.3198z" fill="rgba(4,0,250,.24705882)"/><path d="M82.7532 64.398525L82.515075 46.301025" style="fill:none;stroke:rgba(4,0,250,.24705882);stroke-width:.09525;stroke-miterlimit:41.994751"/><path d="M83.029425 111.29963L82.648425 120.3198" style="fill:none;stroke:rgba(4,0,250,.24705882);stroke-width:.09525;stroke-miterlimit:41.994751"/><path d="M82.648425 120.3198L90.69705 120.52935" style="fill:none;stroke:rgba(4,0,250,.24705882);stroke-width:.09525;stroke-miterlimit:41.994751"/><path d="M83.372325 101.60318A.47625 .47625 0 0082.419825 101.60318A.47625 .47625 0 0083.372325 101.60318z" fill="rgba(4,0,250,.24705882)"/><path d="M89.0016 84.6963A.47625 .47625 0 0088.0491 84.6963A.47625 .47625 0 0089.0016 84.6963z" fill="rgba(4,0,250,.24705882)"/><path d="M88.79205 80.9625A.47625 .47625 0 0087.83955 80.9625A.47625 .47625 0 0088.79205 80.9625z" fill="rgba(4,0,250,.24705882)"/><path d="M124.36792 120.53888A.47625 .47625 0 00123.41542 120.53888A.47625 .47625 0 00124.36792 120.53888z" fill="rgba(4,0,250,.24705882)"/><path d="M77.485875 97.5741A.47625 .47625 0 0076.533375 97.5741A.47625 .47625 0 0077.485875 97.5741z" fill="rgba(4,0,250,.24705882)"/><path d="M77.51445 80.533875A.47625 .47625 0 0076.56195 80.533875A.47625 .47625 0 0077.51445 80.533875z" fill="rgba(4,0,250,.24705882)"/><path d="M83.143725 77.01915A.47625 .47625 0 0082.191225 77.01915A.47625 .47625 0 0083.143725 77.01915z" fill="rgba(4,0,250,.24705882)"/><path d="M100.584 120.74843A.47625 .47625 0 0099.6315 120.74843A.47625 .47625 0 00100.584 120.74843z" fill="rgba(4,0,250,.24705882)"/><path d="M77.3811 88.801575A.47625 .47625 0 0076.4286 88.801575A.47625 .47625 0 0077.3811 88.801575z" fill="rgba(4,0,250,.24705882)"/><path d="M77.4954 93.2307A.47625 .47625 0 0076.5429 93.2307A.47625 .47625 0 0077.4954 93.2307z" fill="rgba(4,0,250,.24705882)"/><path d="M83.505675 111.29963A.47625 .47625 0 0082.553175 111.29963A.47625 .47625 0 0083.505675 111.29963z" fill="rgba(4,0,250,.24705882)"/><path d="M91.1733 120.52935A.47625 .47625 0 0090.2208 120.52935A.47625 .47625 0 0091.1733 120.52935z" fill="rgba(4,0,250,.24705882)"/><path d="M77.43825 84.0105A.47625 .47625 0 0076.48575 84.0105A.47625 .47625 0 0077.43825 84.0105z" fill="rgba(4,0,250,.24705882)"/><path d="M88.839675 88.039575A.47625 .47625 0 0087.887175 88.039575A.47625 .47625 0 0088.839675 88.039575z" fill="rgba(4,0,250,.24705882)"/><path d="M89.0016 93.40215A.47625 .47625 0 0088.0491 93.40215A.47625 .47625 0 0089.0016 93.40215z" fill="rgba(4,0,250,.24705882)"/><path d="M83.22945 64.398525A.47625 .47625 0 0082.27695 64.398525A.47625 .47625 0 0083.22945 64.398525z" fill="rgba(4,0,250,.24705882)"/><path d="M88.820625 97.6122A.47625 .47625 0 0087.868125 97.6122A.47625 .47625 0 0088.820625 97.6122z" fill="rgba(4,0,250,.24705882)"/><path d="M88.3158 80.9625L82.667475 77.01915" style="fill:none;stroke:rgba(4,0,250,.24705882);stroke-width:.09525;stroke-miterlimit:41.994751"/><path d="M77.009625 97.5741L82.896075 101.60318" style="fill:none;stroke:rgba(4,0,250,.24705882);stroke-width:.09525;stroke-miterlimit:41.994751"/><path d="M88.344375 97.6122L88.52535 93.40215" style="fill:none;stroke:rgba(4,0,250,.24705882);stroke-width:.09525;stroke-miterlimit:41.994751"/><path d="M82.667475 77.01915L82.7532 64.398525" style="fill:none;stroke:rgba(4,0,250,.24705882);stroke-width:.09525;stroke-miterlimit:41.994751"/><path d="M88.52535 93.40215L88.363425 88.039575" style="fill:none;stroke:rgba(4,0,250,.24705882);stroke-width:.09525;stroke-miterlimit:41.994751"/><path d="M82.896075 101.60318L88.344375 97.6122" style="fill:none;stroke:rgba(4,0,250,.24705882);stroke-width:.09525;stroke-miterlimit:41.994751"/><path d="M88.363425 88.039575L88.52535 84.6963" style="fill:none;stroke:rgba(4,0,250,.24705882);stroke-width:.09525;stroke-miterlimit:41.994751"/><path d="M76.90485 88.801575L77.01915 93.2307" style="fill:none;stroke:rgba(4,0,250,.24705882);stroke-width:.09525;stroke-miterlimit:41.994751"/><path d="M82.667475 77.01915L77.0382 80.533875" style="fill:none;stroke:rgba(4,0,250,.24705882);stroke-width:.09525;stroke-miterlimit:41.994751"/><path d="M90.69705 120.52935L100.10775 120.74843" style="fill:none;stroke:rgba(4,0,250,.24705882);stroke-width:.09525;stroke-miterlimit:41.994751"/><path d="M88.52535 84.6963L88.3158 80.9625" style="fill:none;stroke:rgba(4,0,250,.24705882);stroke-width:.09525;stroke-miterlimit:41.994751"/><path d="M77.01915 93.2307L77.009625 97.5741" style="fill:none;stroke:rgba(4,0,250,.24705882);stroke-width:.09525;stroke-miterlimit:41.994751"/><path d="M76.962 84.0105L76.90485 88.801575" style="fill:none;stroke:rgba(4,0,250,.24705882);stroke-width:.09525;stroke-miterlimit:41.994751"/><path d="M100.10775 120.74843L123.89167 120.53888" style="fill:none;stroke:rgba(4,0,250,.24705882);stroke-width:.09525;stroke-miterlimit:41.994751"/><path d="M77.0382 80.533875L76.962 84.0105" style="fill:none;stroke:rgba(4,0,250,.24705882);stroke-width:.09525;stroke-miterlimit:41.994751"/><path d="M82.896075 101.60318L83.029425 111.29963" style="fill:none;stroke:rgba(4,0,250,.24705882);stroke-width:.09525;stroke-miterlimit:41.994751"/><path d="M59.007375 9.58215L78.6384 12.2301" style="fill:none;stroke:rgba(0,0,250,.24705882);stroke-width:.09525;stroke-miterlimit:41.994751"/><path d="M123.89167 120.53888L139.47458 120.49125" style="fill:none;stroke:rgba(0,0,250,.24705882);stroke-width:.09525;stroke-miterlimit:41.994751"/><path d="M92.859225 28.832175L80.9244 29.022675" style="fill:none;stroke:rgba(0,0,250,.24705882);stroke-width:.09525;stroke-miterlimit:41.994751"/><path d="M156.82912 134.61683A.47625 .47625 0 00155.87662 134.61683A.47625 .47625 0 00156.82912 134.61683z" fill="rgba(0,0,255,.24705882)"/><path d="M153.89542 121.12943A.47625 .47625 0 00152.94293 121.12943A.47625 .47625 0 00153.89542 121.12943z" fill="rgba(0,0,255,.24705882)"/><path d="M156.14333 108.0135A.47625 .47625 0 00155.19083 108.0135A.47625 .47625 0 00156.14333 108.0135z" fill="rgba(0,0,255,.24705882)"/><path d="M139.95083 120.49125A.47625 .47625 0 00138.99833 120.49125A.47625 .47625 0 00139.95083 120.49125z" fill="rgba(0,0,255,.24705882)"/><path d="M153.41917 121.12943L156.35287 134.61683" style="fill:none;stroke:rgba(0,0,255,.24705882);stroke-width:.09525;stroke-miterlimit:41.994751"/><path d="M155.66708 108.0135L153.41917 121.12943" style="fill:none;stroke:rgba(0,0,255,.24705882);stroke-width:.09525;stroke-miterlimit:41.994751"/><path d="M139.47458 120.49125L153.41917 121.12943" style="fill:none;stroke:rgba(0,0,255,.24705882);stroke-width:.09525;stroke-miterlimit:41.994751"/><path d="M156.35287 134.61683L165.68738 132.71183" style="fill:none;stroke:rgba(0,0,255,.24705882);stroke-width:.09525;stroke-miterlimit:41.994751"/><path d="M156.35287 134.61683L165.6588 144.14183" style="fill:none;stroke:rgba(0,0,255,.24705882);stroke-width:.09525;stroke-miterlimit:41.994751"/><path d="M155.66708 108.0135L165.57308 119.75783" style="fill:none;stroke:rgba(0,0,255,.24705882);stroke-width:.09525;stroke-miterlimit:41.994751"/><path d="M155.66708 108.0135L165.5826 108.44213" style="fill:none;stroke:rgba(0,0,255,.24705882);stroke-width:.09525;stroke-miterlimit:41.994751"/><path d="M192.41452 108.3183A.47625 .47625 0 00191.46202 108.3183A.47625 .47625 0 00192.41452 108.3183z" fill="rgba(0,0,255,.24705882)"/><path d="M192.56692 129.40665A.47625 .47625 0 00191.61443 129.40665A.47625 .47625 0 00192.56692 129.40665z" fill="rgba(0,0,255,.24705882)"/><path d="M192.58598 119.88165A.47625 .47625 0 00191.63348 119.88165A.47625 .47625 0 00192.58598 119.88165z" fill="rgba(0,0,255,.24705882)"/><path d="M192.39548 137.541A.47625 .47625 0 00191.44298 137.541A.47625 .47625 0 00192.39548 137.541z" fill="rgba(0,0,255,.24705882)"/><path d="M98.078925 28.78455A.47625 .47625 0 0097.126425 28.78455A.47625 .47625 0 0098.078925 28.78455z" fill="rgba(0,0,255,.24705882)"/><path d="M25.12695 9.92505A.47625 .47625 0 0024.17445 9.92505A.47625 .47625 0 0025.12695 9.92505z" fill="rgba(0,0,255,.24705882)"/><path d="M192.53835 144.10373A.47625 .47625 0 00191.58585 144.10373A.47625 .47625 0 00192.53835 144.10373z" fill="rgba(0,0,255,.24705882)"/><path d="M24.63165 28.36545A.47625 .47625 0 0023.67915 28.36545A.47625 .47625 0 0024.63165 28.36545z" fill="rgba(0,0,255,.24705882)"/><path d="M182.28945 144.38948A.47625 .47625 0 00181.33695 144.38948A.47625 .47625 0 00182.28945 144.38948z" fill="rgba(0,0,255,.24705882)"/><path d="M41.081325 9.515475A.47625 .47625 0 0040.128825 9.515475A.47625 .47625 0 0041.081325 9.515475z" fill="rgba(0,0,255,.24705882)"/><path d="M185.68035 108.36593A.47625 .47625 0 00184.72785 108.36593A.47625 .47625 0 00185.68035 108.36593z" fill="rgba(0,0,255,.24705882)"/><path d="M172.56442 144.31328A.47625 .47625 0 00171.61193 144.31328A.47625 .47625 0 00172.56442 144.31328z" fill="rgba(0,0,255,.24705882)"/><path d="M166.13505 144.14183A.47625 .47625 0 00165.18255 144.14183A.47625 .47625 0 00166.13505 144.14183z" fill="rgba(0,0,255,.24705882)"/><path d="M23.802975 42.69105A.47625 .47625 0 0022.850475 42.69105A.47625 .47625 0 0023.802975 42.69105z" fill="rgba(0,0,255,.24705882)"/><path d="M166.16362 132.71183A.47625 .47625 0 00165.21113 132.71183A.47625 .47625 0 00166.16362 132.71183z" fill="rgba(0,0,255,.24705882)"/><path d="M177.927 108.42308A.47625 .47625 0 00176.9745 108.42308A.47625 .47625 0 00177.927 108.42308z" fill="rgba(0,0,255,.24705882)"/><path d="M59.483625 9.58215A.47625 .47625 0 0058.531125 9.58215A.47625 .47625 0 0059.483625 9.58215z" fill="rgba(0,0,255,.24705882)"/><path d="M181.19407 132.83565A.47625 .47625 0 00180.24158 132.83565A.47625 .47625 0 00181.19407 132.83565z" fill="rgba(0,0,255,.24705882)"/><path d="M11.382375 43.83405A.47625 .47625 0 0010.429875 43.83405A.47625 .47625 0 0011.382375 43.83405z" fill="rgba(0,0,255,.24705882)"/><path d="M174.22177 132.71183A.47625 .47625 0 00173.26927 132.71183A.47625 .47625 0 00174.22177 132.71183z" fill="rgba(0,0,255,.24705882)"/><path d="M166.05885 108.44213A.47625 .47625 0 00165.10635 108.44213A.47625 .47625 0 00166.05885 108.44213z" fill="rgba(0,0,255,.24705882)"/><path d="M181.09882 125.93955A.47625 .47625 0 00180.14632 125.93955A.47625 .47625 0 00181.09882 125.93955z" fill="rgba(0,0,255,.24705882)"/><path d="M93.335475 28.832175A.47625 .47625 0 0092.382975 28.832175A.47625 .47625 0 0093.335475 28.832175z" fill="rgba(0,0,255,.24705882)"/><path d="M173.355 119.83403A.47625 .47625 0 00172.4025 119.83403A.47625 .47625 0 00173.355 119.83403z" fill="rgba(0,0,255,.24705882)"/><path d="M166.04933 119.75783A.47625 .47625 0 00165.09683 119.75783A.47625 .47625 0 00166.04933 119.75783z" fill="rgba(0,0,255,.24705882)"/><path d="M181.14645 119.7864A.47625 .47625 0 00180.19395 119.7864A.47625 .47625 0 00181.14645 119.7864z" fill="rgba(0,0,255,.24705882)"/><path d="M192.10973 119.88165L192.09068 129.40665" style="fill:none;stroke:rgba(0,0,255,.24705882);stroke-width:.09525;stroke-miterlimit:41.994751"/><path d="M180.6702 119.7864L172.87875 119.83403" style="fill:none;stroke:rgba(0,0,255,.24705882);stroke-width:.09525;stroke-miterlimit:41.994751"/><path d="M172.87875 119.83403L165.57308 119.75783" style="fill:none;stroke:rgba(0,0,255,.24705882);stroke-width:.09525;stroke-miterlimit:41.994751"/><path d="M180.62257 125.93955L180.6702 119.7864" style="fill:none;stroke:rgba(0,0,255,.24705882);stroke-width:.09525;stroke-miterlimit:41.994751"/><path d="M173.74552 132.71183L180.71783 132.83565" style="fill:none;stroke:rgba(0,0,255,.24705882);stroke-width:.09525;stroke-miterlimit:41.994751"/><path d="M180.71783 132.83565L180.62257 125.93955" style="fill:none;stroke:rgba(0,0,255,.24705882);stroke-width:.09525;stroke-miterlimit:41.994751"/><path d="M165.68738 132.71183H173.74552" style="fill:none;stroke:rgba(0,0,255,.24705882);stroke-width:.09525;stroke-miterlimit:41.994751"/><path d="M172.08818 144.31328L165.6588 144.14183" style="fill:none;stroke:rgba(0,0,255,.24705882);stroke-width:.09525;stroke-miterlimit:41.994751"/><path d="M181.8132 144.38948L172.08818 144.31328" style="fill:none;stroke:rgba(0,0,255,.24705882);stroke-width:.09525;stroke-miterlimit:41.994751"/><path d="M192.0621 144.10373L181.8132 144.38948" style="fill:none;stroke:rgba(0,0,255,.24705882);stroke-width:.09525;stroke-miterlimit:41.994751"/><path d="M191.91923 137.541L192.0621 144.10373" style="fill:none;stroke:rgba(0,0,255,.24705882);stroke-width:.09525;stroke-miterlimit:41.994751"/><path d="M192.09068 129.40665L191.91923 137.541" style="fill:none;stroke:rgba(0,0,255,.24705882);stroke-width:.09525;stroke-miterlimit:41.994751"/><path d="M191.93827 108.3183L192.10973 119.88165" style="fill:none;stroke:rgba(0,0,255,.24705882);stroke-width:.09525;stroke-miterlimit:41.994751"/><path d="M185.2041 108.36593L191.93827 108.3183" style="fill:none;stroke:rgba(0,0,255,.24705882);stroke-width:.09525;stroke-miterlimit:41.994751"/><path d="M177.45075 108.42308L185.2041 108.36593" style="fill:none;stroke:rgba(0,0,255,.24705882);stroke-width:.09525;stroke-miterlimit:41.994751"/><path d="M165.5826 108.44213L177.45075 108.42308" style="fill:none;stroke:rgba(0,0,255,.24705882);stroke-width:.09525;stroke-miterlimit:41.994751"/><path d="M92.859225 28.832175L97.602675 28.78455" style="fill:none;stroke:rgba(0,0,255,.24705882);stroke-width:.09525;stroke-miterlimit:41.994751"/><path d="M10.906125 43.83405L23.326725 42.69105" style="fill:none;stroke:rgba(0,0,255,.24705882);stroke-width:.09525;stroke-miterlimit:41.994751"/><path d="M23.326725 42.69105L24.1554 28.36545" style="fill:none;stroke:rgba(0,0,255,.24705882);stroke-width:.09525;stroke-miterlimit:41.994751"/><path d="M24.1554 28.36545L24.6507 9.92505" style="fill:none;stroke:rgba(0,0,255,.24705882);stroke-width:.09525;stroke-miterlimit:41.994751"/><path d="M24.6507 9.92505L40.605075 9.515475" style="fill:none;stroke:rgba(0,0,255,.24705882);stroke-width:.09525;stroke-miterlimit:41.994751"/><path d="M40.605075 9.515475L59.007375 9.58215" style="fill:none;stroke:rgba(0,0,255,.24705882);stroke-width:.09525;stroke-miterlimit:41.994751"/></svg>