<svg version="1.1" width="409.0035mm" height="248.31675mm" viewBox="0 0 409.0035 248.31675" xmlns="http://www.w3.org/2000/svg" xmlns:xlink="http://www.w3.org/1999/xlink"><path d="M-865.34625 -357.1875H-863.44125" style="fill:none;stroke:#f00;stroke-width:.09525;stroke-miterlimit:41.994751"/><path d="M-865.34625 -357.1875V-359.0925" style="fill:none;stroke:#0f0;stroke-width:.09525;stroke-miterlimit:41.994751"/><path d="M245.65928 141.0462A.47625 .47625 0 00244.70678 141.0462A.47625 .47625 0 00245.65928 141.0462z" fill="rgba(255,0,0,.24705882)"/><path d="M273.39607 223.51365A.47625 .47625 0 00272.44357 223.51365A.47625 .47625 0 00273.39607 223.51365z" fill="rgba(255,0,0,.24705882)"/><path d="M311.29605 223.58033A.47625 .47625 0 00310.34355 223.58033A.47625 .47625 0 00311.29605 223.58033z" fill="rgba(255,0,0,.24705882)"/><path d="M247.1547 103.54628A.47625 .47625 0 00246.2022 103.54628A.47625 .47625 0 00247.1547 103.54628z" fill="rgba(255,0,0,.24705882)"/><path d="M294.82732 191.95733A.47625 .47625 0 00293.87482 191.95733A.47625 .47625 0 00294.82732 191.95733z" fill="rgba(255,0,0,.24705882)"/><path d="M198.1581 194.0052A.47625 .47625 0 00197.2056 194.0052A.47625 .47625 0 00198.1581 194.0052z" fill="rgba(255,0,0,.24705882)"/><path d="M313.96305 130.34963A.47625 .47625 0 00313.01055 130.34963A.47625 .47625 0 00313.96305 130.34963z" fill="rgba(255,0,0,.24705882)"/><path d="M143.88465 197.34848A.47625 .47625 0 00142.93215 197.34848A.47625 .47625 0 00143.88465 197.34848z" fill="rgba(255,0,0,.24705882)"/><path d="M231.94327 209.8929A.47625 .47625 0 00230.99077 209.8929A.47625 .47625 0 00231.94327 209.8929z" fill="rgba(255,0,0,.24705882)"/><path d="M217.10332 52.59705A.47625 .47625 0 00216.15082 52.59705A.47625 .47625 0 00217.10332 52.59705z" fill="rgba(255,0,0,.24705882)"/><path d="M183.89918 106.88003A.47625 .47625 0 00182.94668 106.88003A.47625 .47625 0 00183.89918 106.88003z" fill="rgba(255,0,0,.24705882)"/><path d="M157.62922 57.426225A.47625 .47625 0 00156.67672 57.426225A.47625 .47625 0 00157.62922 57.426225z" fill="rgba(255,0,0,.24705882)"/><path d="M246.67845 103.54628L245.18303 141.0462" style="fill:none;stroke:rgba(255,0,0,.24705882);stroke-width:.09525;stroke-miterlimit:41.994751"/><path d="M231.46702 209.8929L197.68185 194.0052" style="fill:none;stroke:rgba(255,0,0,.24705882);stroke-width:.09525;stroke-miterlimit:41.994751"/><path d="M157.15297 57.426225L216.62707 52.59705" style="fill:none;stroke:rgba(255,0,0,.24705882);stroke-width:.09525;stroke-miterlimit:41.994751"/><path d="M157.15297 57.426225L183.42293 106.88003" style="fill:none;stroke:rgba(255,0,0,.24705882);stroke-width:.09525;stroke-miterlimit:41.994751"/><path d="M294.35107 191.95733L313.4868 130.34963" style="fill:none;stroke:rgba(255,0,0,.24705882);stroke-width:.09525;stroke-miterlimit:41.994751"/><path d="M246.67845 103.54628L313.4868 130.34963" style="fill:none;stroke:rgba(255,0,0,.24705882);stroke-width:.09525;stroke-miterlimit:41.994751"/><path d="M183.42293 106.88003L245.18303 141.0462" style="fill:none;stroke:rgba(255,0,0,.24705882);stroke-width:.09525;stroke-miterlimit:41.994751"/><path d="M183.42293 106.88003L246.67845 103.54628" style="fill:none;stroke:rgba(255,0,0,.24705882);stroke-width:.09525;stroke-miterlimit:41.994751"/><path d="M272.91982 223.51365L231.46702 209.8929" style="fill:none;stroke:rgba(255,0,0,.24705882);stroke-width:.09525;stroke-miterlimit:41.994751"/><path d="M294.35107 191.95733L231.46702 209.8929" style="fill:none;stroke:rgba(255,0,0,.24705882);stroke-width:.09525;stroke-miterlimit:41.994751"/><path d="M216.62707 52.59705L246.67845 103.54628" style="fill:none;stroke:rgba(255,0,0,.24705882);stroke-width:.09525;stroke-miterlimit:41.994751"/><path d="M272.91982 223.51365L310.8198 223.58033" style="fill:none;stroke:rgba(255,0,0,.24705882);stroke-width:.09525;stroke-miterlimit:41.994751"/><path d="M183.42293 106.88003L197.68185 194.0052" style="fill:none;stroke:rgba(255,0,0,.24705882);stroke-width:.09525;stroke-miterlimit:41.994751"/><path d="M173.02162 2.943225A.47625 .47625 0 00172.06912 2.943225A.47625 .47625 0 00173.02162 2.943225z" fill="rgba(250,0,0,.24705882)"/><path d="M21.336 140.0556A.47625 .47625 0 0020.3835 140.0556A.47625 .47625 0 0021.336 140.0556z" fill="rgba(250,0,0,.24705882)"/><path d="M9.2964 135.32168A.47625 .47625 0 008.3439 135.32168A.47625 .47625 0 009.2964 135.32168z" fill="rgba(250,0,0,.24705882)"/><path d="M364.6551 71.694675A.47625 .47625 0 00363.7026 71.694675A.47625 .47625 0 00364.6551 71.694675z" fill="rgba(250,0,0,.24705882)"/><path d="M396.61147 128.41605A.47625 .47625 0 00395.65897 128.41605A.47625 .47625 0 00396.61147 128.41605z" fill="rgba(250,0,0,.24705882)"/><path d="M9.401175 152.1714A.47625 .47625 0 008.448675 152.1714A.47625 .47625 0 009.401175 152.1714z" fill="rgba(250,0,0,.24705882)"/><path d="M385.46722 178.69853A.47625 .47625 0 00384.51472 178.69853A.47625 .47625 0 00385.46722 178.69853z" fill="rgba(250,0,0,.24705882)"/><path d="M30.222825 188.0616A.47625 .47625 0 0029.270325 188.0616A.47625 .47625 0 0030.222825 188.0616z" fill="rgba(250,0,0,.24705882)"/><path d="M315.5061 50.4444A.47625 .47625 0 00314.5536 50.4444A.47625 .47625 0 00315.5061 50.4444z" fill="rgba(250,0,0,.24705882)"/><path d="M352.49168 200.11073A.47625 .47625 0 00351.53918 200.11073A.47625 .47625 0 00352.49168 200.11073z" fill="rgba(250,0,0,.24705882)"/><path d="M78.285975 157.8102A.47625 .47625 0 0077.333475 157.8102A.47625 .47625 0 0078.285975 157.8102z" fill="rgba(250,0,0,.24705882)"/><path d="M32.261175 140.3985A.47625 .47625 0 0031.308675 140.3985A.47625 .47625 0 0032.261175 140.3985z" fill="rgba(250,0,0,.24705882)"/><path d="M32.1945 121.09133A.47625 .47625 0 0031.242 121.09133A.47625 .47625 0 0032.1945 121.09133z" fill="rgba(250,0,0,.24705882)"/><path d="M141.90345 130.9497A.47625 .47625 0 00140.95095 130.9497A.47625 .47625 0 00141.90345 130.9497z" fill="rgba(250,0,0,.24705882)"/><path d="M363.7026 19.86915A.47625 .47625 0 00362.7501 19.86915A.47625 .47625 0 00363.7026 19.86915z" fill="rgba(250,0,0,.24705882)"/><path d="M112.36642 121.3104A.47625 .47625 0 00111.41393 121.3104A.47625 .47625 0 00112.36642 121.3104z" fill="rgba(250,0,0,.24705882)"/><path d="M325.374 .51435A.47625 .47625 0 00324.4215 .51435A.47625 .47625 0 00325.374 .51435z" fill="rgba(250,0,0,.24705882)"/><path d="M52.82565 104.25113A.47625 .47625 0 0051.87315 104.25113A.47625 .47625 0 0052.82565 104.25113z" fill="rgba(250,0,0,.24705882)"/><path d="M257.76555 2.409825A.47625 .47625 0 00256.81305 2.409825A.47625 .47625 0 00257.76555 2.409825z" fill="rgba(250,0,0,.24705882)"/><path d="M23.0124 74.92365A.47625 .47625 0 0022.0599 74.92365A.47625 .47625 0 0023.0124 74.92365z" fill="rgba(250,0,0,.24705882)"/><path d="M23.688675 121.26278A.47625 .47625 0 0022.736175 121.26278A.47625 .47625 0 0023.688675 121.26278z" fill="rgba(250,0,0,.24705882)"/><path d="M25.1079 27.22245A.47625 .47625 0 0024.1554 27.22245A.47625 .47625 0 0025.1079 27.22245z" fill="rgba(250,0,0,.24705882)"/><path d="M64.67475 2.87655A.47625 .47625 0 0063.72225 2.87655A.47625 .47625 0 0064.67475 2.87655z" fill="rgba(250,0,0,.24705882)"/><path d="M111.89017 121.3104L141.4272 130.9497" style="fill:none;stroke:rgba(250,0,0,.24705882);stroke-width:.09525;stroke-miterlimit:41.994751"/><path d="M31.71825 121.09133L52.3494 104.25113" style="fill:none;stroke:rgba(250,0,0,.24705882);stroke-width:.09525;stroke-miterlimit:41.994751"/><path d="M31.784925 140.3985L77.809725 157.8102" style="fill:none;stroke:rgba(250,0,0,.24705882);stroke-width:.09525;stroke-miterlimit:41.994751"/><path d="M24.63165 27.22245L64.1985 2.87655" style="fill:none;stroke:rgba(250,0,0,.24705882);stroke-width:.09525;stroke-miterlimit:41.994751"/><path d="M257.2893 2.409825L172.54537 2.943225" style="fill:none;stroke:rgba(250,0,0,.24705882);stroke-width:.09525;stroke-miterlimit:41.994751"/><path d="M257.2893 2.409825L324.89775 .51435" style="fill:none;stroke:rgba(250,0,0,.24705882);stroke-width:.09525;stroke-miterlimit:41.994751"/><path d="M22.53615 74.92365L24.63165 27.22245" style="fill:none;stroke:rgba(250,0,0,.24705882);stroke-width:.09525;stroke-miterlimit:41.994751"/><path d="M52.3494 104.25113L22.53615 74.92365" style="fill:none;stroke:rgba(250,0,0,.24705882);stroke-width:.09525;stroke-miterlimit:41.994751"/><path d="M20.85975 140.0556L31.784925 140.3985" style="fill:none;stroke:rgba(250,0,0,.24705882);stroke-width:.09525;stroke-miterlimit:41.994751"/><path d="M363.22635 19.86915L324.89775 .51435" style="fill:none;stroke:rgba(250,0,0,.24705882);stroke-width:.09525;stroke-miterlimit:41.994751"/><path d="M8.924925 152.1714L8.82015 135.32168" style="fill:none;stroke:rgba(250,0,0,.24705882);stroke-width:.09525;stroke-miterlimit:41.994751"/><path d="M64.1985 2.87655L172.54537 2.943225" style="fill:none;stroke:rgba(250,0,0,.24705882);stroke-width:.09525;stroke-miterlimit:41.994751"/><path d="M363.22635 19.86915L364.17885 71.694675" style="fill:none;stroke:rgba(250,0,0,.24705882);stroke-width:.09525;stroke-miterlimit:41.994751"/><path d="M77.809725 157.8102L52.3494 104.25113" style="fill:none;stroke:rgba(250,0,0,.24705882);stroke-width:.09525;stroke-miterlimit:41.994751"/><path d="M315.02985 50.4444L324.89775 .51435" style="fill:none;stroke:rgba(250,0,0,.24705882);stroke-width:.09525;stroke-miterlimit:41.994751"/><path d="M77.809725 157.8102L111.89017 121.3104" style="fill:none;stroke:rgba(250,0,0,.24705882);stroke-width:.09525;stroke-miterlimit:41.994751"/><path d="M29.746575 188.0616L77.809725 157.8102" style="fill:none;stroke:rgba(250,0,0,.24705882);stroke-width:.09525;stroke-miterlimit:41.994751"/><path d="M384.99097 178.69853L352.01543 200.11073" style="fill:none;stroke:rgba(250,0,0,.24705882);stroke-width:.09525;stroke-miterlimit:41.994751"/><path d="M8.924925 152.1714L29.746575 188.0616" style="fill:none;stroke:rgba(250,0,0,.24705882);stroke-width:.09525;stroke-miterlimit:41.994751"/><path d="M396.13522 128.41605L384.99097 178.69853" style="fill:none;stroke:rgba(250,0,0,.24705882);stroke-width:.09525;stroke-miterlimit:41.994751"/><path d="M396.13522 128.41605L364.17885 71.694675" style="fill:none;stroke:rgba(250,0,0,.24705882);stroke-width:.09525;stroke-miterlimit:41.994751"/><path d="M31.71825 121.09133L23.212425 121.26278" style="fill:none;stroke:rgba(250,0,0,.24705882);stroke-width:.09525;stroke-miterlimit:41.994751"/><path d="M183.42293 106.88003L141.4272 95.4405" style="fill:none;stroke:rgba(250,0,4,.24705882);stroke-width:.09525;stroke-miterlimit:41.994751"/><path d="M157.15297 57.426225L173.82173 23.26005" style="fill:none;stroke:rgba(250,0,4,.24705882);stroke-width:.09525;stroke-miterlimit:41.994751"/><path d="M197.68185 194.0052L174.39323 132.45465" style="fill:none;stroke:rgba(250,0,4,.24705882);stroke-width:.09525;stroke-miterlimit:41.994751"/><path d="M126.21578 194.5005L197.68185 194.0052" style="fill:none;stroke:rgba(250,0,4,.24705882);stroke-width:.09525;stroke-miterlimit:41.994751"/><path d="M183.42293 106.88003L174.39323 132.45465" style="fill:none;stroke:rgba(250,0,4,.24705882);stroke-width:.09525;stroke-miterlimit:41.994751"/><path d="M366.26482 133.96913L313.4868 130.34963" style="fill:none;stroke:rgba(250,0,4,.24705882);stroke-width:.09525;stroke-miterlimit:41.994751"/><path d="M147.09457 177.93653L197.68185 194.0052" style="fill:none;stroke:rgba(250,0,4,.24705882);stroke-width:.09525;stroke-miterlimit:41.994751"/><path d="M316.7634 199.08203L294.35107 191.95733" style="fill:none;stroke:rgba(250,0,4,.24705882);stroke-width:.09525;stroke-miterlimit:41.994751"/><path d="M262.37565 70.80885L246.67845 103.54628" style="fill:none;stroke:rgba(250,0,4,.24705882);stroke-width:.09525;stroke-miterlimit:41.994751"/><path d="M157.15297 57.426225L141.4272 95.4405" style="fill:none;stroke:rgba(250,0,4,.24705882);stroke-width:.09525;stroke-miterlimit:41.994751"/><path d="M313.4868 130.34963L321.23062 89.40165" style="fill:none;stroke:rgba(250,0,4,.24705882);stroke-width:.09525;stroke-miterlimit:41.994751"/><path d="M313.4868 130.34963L344.29065 174.14558" style="fill:none;stroke:rgba(250,0,4,.24705882);stroke-width:.09525;stroke-miterlimit:41.994751"/><path d="M321.23062 89.40165L315.02985 50.4444" style="fill:none;stroke:rgba(250,0,4,.24705882);stroke-width:.09525;stroke-miterlimit:41.994751"/><path d="M174.39323 132.45465L141.4272 130.9497" style="fill:none;stroke:rgba(250,0,4,.24705882);stroke-width:.09525;stroke-miterlimit:41.994751"/><path d="M321.23062 89.40165L364.17885 71.694675" style="fill:none;stroke:rgba(250,0,4,.24705882);stroke-width:.09525;stroke-miterlimit:41.994751"/><path d="M147.09457 177.93653L111.89017 121.3104" style="fill:none;stroke:rgba(250,0,4,.24705882);stroke-width:.09525;stroke-miterlimit:41.994751"/><path d="M64.1985 2.87655L78.54315 29.69895" style="fill:none;stroke:rgba(250,0,4,.24705882);stroke-width:.09525;stroke-miterlimit:41.994751"/><path d="M366.26482 133.96913L396.13522 128.41605" style="fill:none;stroke:rgba(250,0,4,.24705882);stroke-width:.09525;stroke-miterlimit:41.994751"/><path d="M173.82173 23.26005L172.54537 2.943225" style="fill:none;stroke:rgba(250,0,4,.24705882);stroke-width:.09525;stroke-miterlimit:41.994751"/><path d="M316.7634 199.08203L352.01543 200.11073" style="fill:none;stroke:rgba(250,0,4,.24705882);stroke-width:.09525;stroke-miterlimit:41.994751"/><path d="M315.02985 50.4444L262.37565 70.80885" style="fill:none;stroke:rgba(250,0,4,.24705882);stroke-width:.09525;stroke-miterlimit:41.994751"/><path d="M77.809725 157.8102L126.21578 194.5005" style="fill:none;stroke:rgba(250,0,4,.24705882);stroke-width:.09525;stroke-miterlimit:41.994751"/><path d="M141.4272 130.9497L147.09457 177.93653" style="fill:none;stroke:rgba(250,0,4,.24705882);stroke-width:.09525;stroke-miterlimit:41.994751"/><path d="M141.4272 95.4405L111.89017 121.3104" style="fill:none;stroke:rgba(250,0,4,.24705882);stroke-width:.09525;stroke-miterlimit:41.994751"/><path d="M352.01543 200.11073L344.29065 174.14558" style="fill:none;stroke:rgba(250,0,4,.24705882);stroke-width:.09525;stroke-miterlimit:41.994751"/><path d="M147.57082 177.93653A.47625 .47625 0 00146.61832 177.93653A.47625 .47625 0 00147.57082 177.93653z" fill="rgba(246,0,8,.24705882)"/><path d="M141.90345 95.4405A.47625 .47625 0 00140.95095 95.4405A.47625 .47625 0 00141.90345 95.4405z" fill="rgba(246,0,8,.24705882)"/><path d="M174.86948 132.45465A.47625 .47625 0 00173.91698 132.45465A.47625 .47625 0 00174.86948 132.45465z" fill="rgba(246,0,8,.24705882)"/><path d="M174.29798 23.26005A.47625 .47625 0 00173.34548 23.26005A.47625 .47625 0 00174.29798 23.26005z" fill="rgba(246,0,8,.24705882)"/><path d="M126.69203 194.5005A.47625 .47625 0 00125.73953 194.5005A.47625 .47625 0 00126.69203 194.5005z" fill="rgba(246,0,8,.24705882)"/><path d="M344.7669 174.14558A.47625 .47625 0 00343.8144 174.14558A.47625 .47625 0 00344.7669 174.14558z" fill="rgba(246,0,8,.24705882)"/><path d="M249.58357 51.6636A.47625 .47625 0 00248.63107 51.6636A.47625 .47625 0 00249.58357 51.6636z" fill="rgba(246,0,8,.24705882)"/><path d="M317.23965 199.08203A.47625 .47625 0 00316.28715 199.08203A.47625 .47625 0 00317.23965 199.08203z" fill="rgba(246,0,8,.24705882)"/><path d="M366.74107 133.96913A.47625 .47625 0 00365.78857 133.96913A.47625 .47625 0 00366.74107 133.96913z" fill="rgba(246,0,8,.24705882)"/><path d="M321.70687 89.40165A.47625 .47625 0 00320.75437 89.40165A.47625 .47625 0 00321.70687 89.40165z" fill="rgba(246,0,8,.24705882)"/><path d="M262.8519 70.80885A.47625 .47625 0 00261.8994 70.80885A.47625 .47625 0 00262.8519 70.80885z" fill="rgba(246,0,8,.24705882)"/><path d="M79.0194 29.69895A.47625 .47625 0 0078.0669 29.69895A.47625 .47625 0 0079.0194 29.69895z" fill="rgba(246,0,8,.24705882)"/><path d="M246.87847 196.33883L245.18303 141.0462" style="fill:none;stroke:rgba(202,0,52,.24705882);stroke-width:.09525;stroke-miterlimit:41.994751"/><path d="M247.35472 196.33883A.47625 .47625 0 00246.40222 196.33883A.47625 .47625 0 00247.35472 196.33883z" fill="rgba(149,0,105,.24705882)"/><path d="M250.0122 229.10483L246.87847 196.33883" style="fill:none;stroke:rgba(121,0,133,.24705882);stroke-width:.09525;stroke-miterlimit:41.994751"/><path d="M143.41793 137.90295A.47625 .47625 0 00142.46543 137.90295A.47625 .47625 0 00143.41793 137.90295z" fill="rgba(93,0,157,.24705882)"/><path d="M140.2461 103.33673A.47625 .47625 0 00139.2936 103.33673A.47625 .47625 0 00140.2461 103.33673z" fill="rgba(93,0,157,.24705882)"/><path d="M141.55103 170.48798A.47625 .47625 0 00140.59853 170.48798A.47625 .47625 0 00141.55103 170.48798z" fill="rgba(93,0,157,.24705882)"/><path d="M171.76432 137.83628A.47625 .47625 0 00170.81182 137.83628A.47625 .47625 0 00171.76432 137.83628z" fill="rgba(93,0,157,.24705882)"/><path d="M142.94168 137.90295L141.07478 170.48798" style="fill:none;stroke:rgba(93,0,157,.24705882);stroke-width:.09525;stroke-miterlimit:41.994751"/><path d="M142.94168 137.90295L171.28807 137.83628" style="fill:none;stroke:rgba(93,0,157,.24705882);stroke-width:.09525;stroke-miterlimit:41.994751"/><path d="M139.76985 103.33673L142.94168 137.90295" style="fill:none;stroke:rgba(93,0,157,.24705882);stroke-width:.09525;stroke-miterlimit:41.994751"/><path d="M124.80607 138.04583L142.94168 137.90295" style="fill:none;stroke:rgba(93,0,161,.24705882);stroke-width:.09525;stroke-miterlimit:41.994751"/><path d="M371.5893 128.84468A.47625 .47625 0 00370.6368 128.84468A.47625 .47625 0 00371.5893 128.84468z" fill="rgba(93,0,161,.24705882)"/><path d="M366.66487 217.76055A.47625 .47625 0 00365.71238 217.76055A.47625 .47625 0 00366.66487 217.76055z" fill="rgba(93,0,161,.24705882)"/><path d="M334.01318 199.39635A.47625 .47625 0 00333.06068 199.39635A.47625 .47625 0 00334.01318 199.39635z" fill="rgba(93,0,161,.24705882)"/><path d="M369.82717 171.43095A.47625 .47625 0 00368.87467 171.43095A.47625 .47625 0 00369.82717 171.43095z" fill="rgba(93,0,161,.24705882)"/><path d="M352.78695 28.165425A.47625 .47625 0 00351.83445 28.165425A.47625 .47625 0 00352.78695 28.165425z" fill="rgba(93,0,161,.24705882)"/><path d="M281.2542 52.578A.47625 .47625 0 00280.3017 52.578A.47625 .47625 0 00281.2542 52.578z" fill="rgba(93,0,161,.24705882)"/><path d="M352.20593 65.70345A.47625 .47625 0 00351.25343 65.70345A.47625 .47625 0 00352.20593 65.70345z" fill="rgba(93,0,161,.24705882)"/><path d="M371.11305 128.84468L369.35092 171.43095" style="fill:none;stroke:rgba(93,0,161,.24705882);stroke-width:.09525;stroke-miterlimit:41.994751"/><path d="M351.72968 65.70345L352.3107 28.165425" style="fill:none;stroke:rgba(93,0,161,.24705882);stroke-width:.09525;stroke-miterlimit:41.994751"/><path d="M351.72968 65.70345L371.11305 128.84468" style="fill:none;stroke:rgba(93,0,161,.24705882);stroke-width:.09525;stroke-miterlimit:41.994751"/><path d="M369.35092 171.43095L366.18863 217.76055" style="fill:none;stroke:rgba(93,0,161,.24705882);stroke-width:.09525;stroke-miterlimit:41.994751"/><path d="M369.35092 171.43095L333.53693 199.39635" style="fill:none;stroke:rgba(93,0,161,.24705882);stroke-width:.09525;stroke-miterlimit:41.994751"/><path d="M351.72968 65.70345L280.77795 52.578" style="fill:none;stroke:rgba(93,0,161,.24705882);stroke-width:.09525;stroke-miterlimit:41.994751"/><path d="M377.10427 76.98105L351.72968 65.70345" style="fill:none;stroke:rgba(93,0,161,.24705882);stroke-width:.09525;stroke-miterlimit:41.994751"/><path d="M107.73728 138.35063A.47625 .47625 0 00106.78478 138.35063A.47625 .47625 0 00107.73728 138.35063z" fill="rgba(93,0,161,.24705882)"/><path d="M409.06065 2.99085A.47625 .47625 0 00408.10815 2.99085A.47625 .47625 0 00409.06065 2.99085z" fill="rgba(93,0,161,.24705882)"/><path d="M407.67953 76.67625A.47625 .47625 0 00406.72703 76.67625A.47625 .47625 0 00407.67953 76.67625z" fill="rgba(93,0,161,.24705882)"/><path d="M11.5443 136.57898A.47625 .47625 0 0010.5918 136.57898A.47625 .47625 0 0011.5443 136.57898z" fill="rgba(93,0,161,.24705882)"/><path d="M250.48845 229.10483A.47625 .47625 0 00249.53595 229.10483A.47625 .47625 0 00250.48845 229.10483z" fill="rgba(93,0,161,.24705882)"/><path d="M119.8245 242.63985A.47625 .47625 0 00118.872 242.63985A.47625 .47625 0 00119.8245 242.63985z" fill="rgba(93,0,161,.24705882)"/><path d="M248.02147 247.89765A.47625 .47625 0 00247.06897 247.89765A.47625 .47625 0 00248.02147 247.89765z" fill="rgba(93,0,161,.24705882)"/><path d="M377.58052 76.98105A.47625 .47625 0 00376.62802 76.98105A.47625 .47625 0 00377.58052 76.98105z" fill="rgba(93,0,161,.24705882)"/><path d="M404.7744 245.44973A.47625 .47625 0 00403.8219 245.44973A.47625 .47625 0 00404.7744 245.44973z" fill="rgba(93,0,161,.24705882)"/><path d="M19.6596 238.60125A.47625 .47625 0 0018.7071 238.60125A.47625 .47625 0 0019.6596 238.60125z" fill="rgba(93,0,161,.24705882)"/><path d="M388.72477 41.557575A.47625 .47625 0 00387.77227 41.557575A.47625 .47625 0 00388.72477 41.557575z" fill="rgba(93,0,161,.24705882)"/><path d="M125.28232 138.04583A.47625 .47625 0 00124.32982 138.04583A.47625 .47625 0 00125.28232 138.04583z" fill="rgba(93,0,161,.24705882)"/><path d="M.9906 5.1435A.47625 .47625 0 00.0381 5.1435A.47625 .47625 0 00.9906 5.1435z" fill="rgba(93,0,161,.24705882)"/><path d="M404.29815 245.44973L407.20328 76.67625" style="fill:none;stroke:rgba(93,0,161,.24705882);stroke-width:.09525;stroke-miterlimit:41.994751"/><path d="M247.54522 247.89765L404.29815 245.44973" style="fill:none;stroke:rgba(93,0,161,.24705882);stroke-width:.09525;stroke-miterlimit:41.994751"/><path d="M388.24852 41.557575L408.5844 2.99085" style="fill:none;stroke:rgba(93,0,161,.24705882);stroke-width:.09525;stroke-miterlimit:41.994751"/><path d="M407.20328 76.67625L377.10427 76.98105" style="fill:none;stroke:rgba(93,0,161,.24705882);stroke-width:.09525;stroke-miterlimit:41.994751"/><path d="M407.20328 76.67625L408.5844 2.99085" style="fill:none;stroke:rgba(93,0,161,.24705882);stroke-width:.09525;stroke-miterlimit:41.994751"/><path d="M107.26103 138.35063L124.80607 138.04583" style="fill:none;stroke:rgba(93,0,161,.24705882);stroke-width:.09525;stroke-miterlimit:41.994751"/><path d="M.51435 5.1435L11.06805 136.57898" style="fill:none;stroke:rgba(93,0,161,.24705882);stroke-width:.09525;stroke-miterlimit:41.994751"/><path d="M408.5844 2.99085L.51435 5.1435" style="fill:none;stroke:rgba(93,0,161,.24705882);stroke-width:.09525;stroke-miterlimit:41.994751"/><path d="M119.34825 242.63985L19.18335 238.60125" style="fill:none;stroke:rgba(93,0,161,.24705882);stroke-width:.09525;stroke-miterlimit:41.994751"/><path d="M119.34825 242.63985L247.54522 247.89765" style="fill:none;stroke:rgba(93,0,161,.24705882);stroke-width:.09525;stroke-miterlimit:41.994751"/><path d="M119.34825 242.63985L107.26103 138.35063" style="fill:none;stroke:rgba(93,0,161,.24705882);stroke-width:.09525;stroke-miterlimit:41.994751"/><path d="M250.0122 229.10483L247.54522 247.89765" style="fill:none;stroke:rgba(93,0,161,.24705882);stroke-width:.09525;stroke-miterlimit:41.994751"/><path d="M11.06805 136.57898L19.18335 238.60125" style="fill:none;stroke:rgba(93,0,161,.24705882);stroke-width:.09525;stroke-miterlimit:41.994751"/><path d="M11.06805 136.57898L107.26103 138.35063" style="fill:none;stroke:rgba(93,0,161,.24705882);stroke-width:.09525;stroke-miterlimit:41.994751"/><path d="M363.86453 4.43865A.47625 .47625 0 00362.91203 4.43865A.47625 .47625 0 00363.86453 4.43865z" fill="rgba(0,0,255,.24705882)"/><path d="M21.96465 4.85775A.47625 .47625 0 0021.01215 4.85775A.47625 .47625 0 0021.96465 4.85775z" fill="rgba(0,0,255,.24705882)"/><path d="M399.69757 222.52305A.47625 .47625 0 00398.74507 222.52305A.47625 .47625 0 00399.69757 222.52305z" fill="rgba(0,0,255,.24705882)"/><path d="M388.36282 247.82145A.47625 .47625 0 00387.41033 247.82145A.47625 .47625 0 00388.36282 247.82145z" fill="rgba(0,0,255,.24705882)"/><path d="M400.1262 207.40688A.47625 .47625 0 00399.1737 207.40688A.47625 .47625 0 00400.1262 207.40688z" fill="rgba(0,0,255,.24705882)"/><path d="M47.72025 247.83098A.47625 .47625 0 0046.76775 247.83098A.47625 .47625 0 0047.72025 247.83098z" fill="rgba(0,0,255,.24705882)"/><path d="M21.974175 247.03088A.47625 .47625 0 0021.021675 247.03088A.47625 .47625 0 0021.974175 247.03088z" fill="rgba(0,0,255,.24705882)"/><path d="M49.6443 122.85345A.47625 .47625 0 0048.6918 122.85345A.47625 .47625 0 0049.6443 122.85345z" fill="rgba(0,0,255,.24705882)"/><path d="M391.46797 137.29335A.47625 .47625 0 00390.51547 137.29335A.47625 .47625 0 00391.46797 137.29335z" fill="rgba(0,0,255,.24705882)"/><path d="M22.4409 126.13958A.47625 .47625 0 0021.4884 126.13958A.47625 .47625 0 0022.4409 126.13958z" fill="rgba(0,0,255,.24705882)"/><path d="M388.05803 223.48508A.47625 .47625 0 00387.10553 223.48508A.47625 .47625 0 00388.05803 223.48508z" fill="rgba(0,0,255,.24705882)"/><path d="M400.26907 52.93995A.47625 .47625 0 00399.31658 52.93995A.47625 .47625 0 00400.26907 52.93995z" fill="rgba(0,0,255,.24705882)"/><path d="M359.5116 52.435125A.47625 .47625 0 00358.5591 52.435125A.47625 .47625 0 00359.5116 52.435125z" fill="rgba(0,0,255,.24705882)"/><path d="M399.0213 33.537525A.47625 .47625 0 00398.0688 33.537525A.47625 .47625 0 00399.0213 33.537525z" fill="rgba(0,0,255,.24705882)"/><path d="M339.82343 3.6195A.47625 .47625 0 00338.87093 3.6195A.47625 .47625 0 00339.82343 3.6195z" fill="rgba(0,0,255,.24705882)"/><path d="M373.98007 35.433A.47625 .47625 0 00373.02758 35.433A.47625 .47625 0 00373.98007 35.433z" fill="rgba(0,0,255,.24705882)"/><path d="M359.03535 52.435125L373.50383 35.433" style="fill:none;stroke:rgba(0,0,255,.24705882);stroke-width:.09525;stroke-miterlimit:41.994751"/><path d="M21.497925 247.03088L21.96465 126.13958" style="fill:none;stroke:rgba(0,0,255,.24705882);stroke-width:.09525;stroke-miterlimit:41.994751"/><path d="M363.38828 4.43865L359.03535 52.435125" style="fill:none;stroke:rgba(0,0,255,.24705882);stroke-width:.09525;stroke-miterlimit:41.994751"/><path d="M399.79282 52.93995L398.54505 33.537525" style="fill:none;stroke:rgba(0,0,255,.24705882);stroke-width:.09525;stroke-miterlimit:41.994751"/><path d="M387.58178 223.48508L387.88657 247.82145" style="fill:none;stroke:rgba(0,0,255,.24705882);stroke-width:.09525;stroke-miterlimit:41.994751"/><path d="M21.96465 126.13958L21.4884 4.85775" style="fill:none;stroke:rgba(0,0,255,.24705882);stroke-width:.09525;stroke-miterlimit:41.994751"/><path d="M399.22132 222.52305L387.58178 223.48508" style="fill:none;stroke:rgba(0,0,255,.24705882);stroke-width:.09525;stroke-miterlimit:41.994751"/><path d="M49.16805 122.85345L21.96465 126.13958" style="fill:none;stroke:rgba(0,0,255,.24705882);stroke-width:.09525;stroke-miterlimit:41.994751"/><path d="M390.99172 137.29335L399.79282 52.93995" style="fill:none;stroke:rgba(0,0,255,.24705882);stroke-width:.09525;stroke-miterlimit:41.994751"/><path d="M21.4884 4.85775L339.34718 3.6195" style="fill:none;stroke:rgba(0,0,255,.24705882);stroke-width:.09525;stroke-miterlimit:41.994751"/><path d="M21.497925 247.03088L47.244 247.83098" style="fill:none;stroke:rgba(0,0,255,.24705882);stroke-width:.09525;stroke-miterlimit:41.994751"/><path d="M390.99172 137.29335L359.03535 52.435125" style="fill:none;stroke:rgba(0,0,255,.24705882);stroke-width:.09525;stroke-miterlimit:41.994751"/><path d="M47.244 247.83098L49.16805 122.85345" style="fill:none;stroke:rgba(0,0,255,.24705882);stroke-width:.09525;stroke-miterlimit:41.994751"/><path d="M390.99172 137.29335L399.64995 207.40688" style="fill:none;stroke:rgba(0,0,255,.24705882);stroke-width:.09525;stroke-miterlimit:41.994751"/><path d="M339.34718 3.6195L363.38828 4.43865" style="fill:none;stroke:rgba(0,0,255,.24705882);stroke-width:.09525;stroke-miterlimit:41.994751"/><path d="M399.64995 207.40688L399.22132 222.52305" style="fill:none;stroke:rgba(0,0,255,.24705882);stroke-width:.09525;stroke-miterlimit:41.994751"/><path d="M387.88657 247.82145L47.244 247.83098" style="fill:none;stroke:rgba(0,0,255,.24705882);stroke-width:.09525;stroke-miterlimit:41.994751"/></svg>