<svg version="1.1" width="196.4055mm" height="255.0795mm" viewBox="0 0 196.4055 255.0795" xmlns="http://www.w3.org/2000/svg" xmlns:xlink="http://www.w3.org/1999/xlink"><path d="M59.72175 209.07375H61.62675" style="fill:none;stroke:#f00;stroke-width:.09525;stroke-miterlimit:41.994751"/><path d="M59.72175 209.07375V207.16875" style="fill:none;stroke:#0f0;stroke-width:.09525;stroke-miterlimit:41.994751"/><path d="M132.55943 204.94942A.47625 .47625 0 00131.60693 204.94942A.47625 .47625 0 00132.55943 204.94942z" fill="rgba(255,0,0,.24705882)"/><path d="M132.87375 234.98175H155.73375V210.82635H132.87375z" style="fill:rgba(255,0,0,.24705882);stroke:rgba(255,0,0,.24705882);stroke-width:.09525;stroke-miterlimit:41.994751"/><path d="M146.84692 224.46615A.47625 .47625 0 00145.89443 224.46615A.47625 .47625 0 00146.84692 224.46615z" fill="rgba(255,0,0,.24705882)"/><path d="M121.40565 198.501A.47625 .47625 0 00120.45315 198.501A.47625 .47625 0 00121.40565 198.501z" fill="rgba(255,0,0,.24705882)"/><path d="M154.3812 241.90643A.47625 .47625 0 00153.4287 241.90643A.47625 .47625 0 00154.3812 241.90643z" fill="rgba(255,0,0,.24705882)"/><path d="M110.01375 223.55175H131.99745V198.40575H110.01375z" style="fill:rgba(255,0,0,.24705882);stroke:rgba(255,0,0,.24705882);stroke-width:.09525;stroke-miterlimit:41.994751"/><path d="M124.74892 208.34033A.47625 .47625 0 00123.79643 208.34033A.47625 .47625 0 00124.74892 208.34033z" fill="rgba(255,0,0,.24705882)"/><path d="M110.01375 254.79375H131.34975V225.07575H110.01375z" style="fill:rgba(255,0,0,.24705882);stroke:rgba(255,0,0,.24705882);stroke-width:.09525;stroke-miterlimit:41.994751"/><path d="M123.83452 239.88712A.47625 .47625 0 00122.88203 239.88712A.47625 .47625 0 00123.83452 239.88712z" fill="rgba(255,0,0,.24705882)"/><path d="M115.41442 224.38995A.47625 .47625 0 00114.46193 224.38995A.47625 .47625 0 00115.41442 224.38995z" fill="rgba(255,0,0,.24705882)"/><path d="M151.0665 241.60163A.47625 .47625 0 00150.114 241.60163A.47625 .47625 0 00151.0665 241.60163z" fill="rgba(255,0,0,.24705882)"/><path d="M121.62472 181.356A.47625 .47625 0 00120.67222 181.356A.47625 .47625 0 00121.62472 181.356z" fill="rgba(255,0,0,.24705882)"/><path d="M133.0452 238.91557A.47625 .47625 0 00132.0927 238.91557A.47625 .47625 0 00133.0452 238.91557z" fill="rgba(255,0,0,.24705882)"/><path d="M119.15775 198.40575H122.96775V184.15635H119.15775z" style="fill:rgba(255,0,0,.24705882);stroke:rgba(255,0,0,.24705882);stroke-width:.09525;stroke-miterlimit:41.994751"/><path d="M121.48185 188.87122A.47625 .47625 0 00120.52935 188.87122A.47625 .47625 0 00121.48185 188.87122z" fill="rgba(255,0,0,.24705882)"/><path d="M132.14032 210.82635H155.73375V198.40575H132.14032z" style="fill:rgba(255,0,0,.24705882);stroke:rgba(255,0,0,.24705882);stroke-width:.09525;stroke-miterlimit:41.994751"/><path d="M146.27542 205.18755A.47625 .47625 0 00145.32292 205.18755A.47625 .47625 0 00146.27542 205.18755z" fill="rgba(255,0,0,.24705882)"/><path d="M132.87375 244.12575H150.21877V234.98175H132.87375z" style="fill:rgba(255,0,0,.24705882);stroke:rgba(255,0,0,.24705882);stroke-width:.09525;stroke-miterlimit:41.994751"/><path d="M145.07527 238.78222A.47625 .47625 0 00144.12277 238.78222A.47625 .47625 0 00145.07527 238.78222z" fill="rgba(255,0,0,.24705882)"/><path d="M145.79917 205.18755L132.08318 204.94942" style="fill:none;stroke:rgba(255,0,0,.24705882);stroke-width:.09525;stroke-miterlimit:41.994751"/><path d="M121.0056 188.87122L121.14847 181.356" style="fill:none;stroke:rgba(255,0,0,.24705882);stroke-width:.09525;stroke-miterlimit:41.994751"/><path d="M144.59902 238.78222L146.37068 224.46615" style="fill:none;stroke:rgba(255,0,0,.24705882);stroke-width:.09525;stroke-miterlimit:41.994751"/><path d="M132.08318 204.94942L124.27268 208.34032" style="fill:none;stroke:rgba(255,0,0,.24705882);stroke-width:.09525;stroke-miterlimit:41.994751"/><path d="M146.37068 224.46615L145.79917 205.18755" style="fill:none;stroke:rgba(255,0,0,.24705882);stroke-width:.09525;stroke-miterlimit:41.994751"/><path d="M120.9294 198.501L121.0056 188.87122" style="fill:none;stroke:rgba(255,0,0,.24705882);stroke-width:.09525;stroke-miterlimit:41.994751"/><path d="M153.90495 241.90642L150.59025 241.60162" style="fill:none;stroke:rgba(255,0,0,.24705882);stroke-width:.09525;stroke-miterlimit:41.994751"/><path d="M124.27268 208.34032L120.9294 198.501" style="fill:none;stroke:rgba(255,0,0,.24705882);stroke-width:.09525;stroke-miterlimit:41.994751"/><path d="M124.27268 208.34032L114.93818 224.38995" style="fill:none;stroke:rgba(255,0,0,.24705882);stroke-width:.09525;stroke-miterlimit:41.994751"/><path d="M123.35828 239.88712L132.56895 238.91557" style="fill:none;stroke:rgba(255,0,0,.24705882);stroke-width:.09525;stroke-miterlimit:41.994751"/><path d="M132.56895 238.91557L144.59902 238.78222" style="fill:none;stroke:rgba(255,0,0,.24705882);stroke-width:.09525;stroke-miterlimit:41.994751"/><path d="M114.93818 224.38995L123.35828 239.88712" style="fill:none;stroke:rgba(255,0,0,.24705882);stroke-width:.09525;stroke-miterlimit:41.994751"/><path d="M150.59025 241.60162L144.59902 238.78222" style="fill:none;stroke:rgba(255,0,0,.24705882);stroke-width:.09525;stroke-miterlimit:41.994751"/><path d="M120.1293 181.37505L121.14847 181.356" style="fill:none;stroke:rgba(234,0,16,.24705882);stroke-width:.09525;stroke-miterlimit:41.994751"/><path d="M34.204275 85.067775A.47625 .47625 0 0033.251775 85.067775A.47625 .47625 0 0034.204275 85.067775z" fill="rgba(222,0,28,.24705882)"/><path d="M6.38175 135.72172H36.86175V123.35827H6.38175z" style="fill:rgba(222,0,28,.24705882);stroke:rgba(222,0,28,.24705882);stroke-width:.09525;stroke-miterlimit:41.994751"/><path d="M28.25115 129.16852A.47625 .47625 0 0027.29865 129.16852A.47625 .47625 0 0028.25115 129.16852z" fill="rgba(222,0,28,.24705882)"/><path d="M6.38175 90.973275H32.97555V80.29575H6.38175z" style="fill:rgba(222,0,28,.24705882);stroke:rgba(222,0,28,.24705882);stroke-width:.09525;stroke-miterlimit:41.994751"/><path d="M15.33525 87.048975A.47625 .47625 0 0014.38275 87.048975A.47625 .47625 0 0015.33525 87.048975z" fill="rgba(222,0,28,.24705882)"/><path d="M6.38175 106.97527H33.366075V96.29775H6.38175z" style="fill:rgba(222,0,28,.24705882);stroke:rgba(222,0,28,.24705882);stroke-width:.09525;stroke-miterlimit:41.994751"/><path d="M14.582775 100.38397A.47625 .47625 0 0013.630275 100.38397A.47625 .47625 0 0014.582775 100.38397z" fill="rgba(222,0,28,.24705882)"/><path d="M6.38175 96.29775H36.86175V90.973275H6.38175z" style="fill:rgba(222,0,28,.24705882);stroke:rgba(222,0,28,.24705882);stroke-width:.09525;stroke-miterlimit:41.994751"/><path d="M29.9085 93.32595A.47625 .47625 0 0028.956 93.32595A.47625 .47625 0 0029.9085 93.32595z" fill="rgba(222,0,28,.24705882)"/><path d="M6.38175 74.4474H36.86175V.28575H6.38175z" style="fill:rgba(222,0,28,.24705882);stroke:rgba(222,0,28,.24705882);stroke-width:.09525;stroke-miterlimit:41.994751"/><path d="M21.9075 47.56785A.47625 .47625 0 0020.955 47.56785A.47625 .47625 0 0021.9075 47.56785z" fill="rgba(222,0,28,.24705882)"/><path d="M6.38175 123.35827H32.737425V112.80457H6.38175z" style="fill:rgba(222,0,28,.24705882);stroke:rgba(222,0,28,.24705882);stroke-width:.09525;stroke-miterlimit:41.994751"/><path d="M17.1831 117.03367A.47625 .47625 0 0016.2306 117.03367A.47625 .47625 0 0017.1831 117.03367z" fill="rgba(222,0,28,.24705882)"/><path d="M6.38175 222.78975H22.1742V135.77887H6.38175z" style="fill:rgba(222,0,28,.24705882);stroke:rgba(222,0,28,.24705882);stroke-width:.09525;stroke-miterlimit:41.994751"/><path d="M14.525625 162.20122A.47625 .47625 0 0013.573125 162.20122A.47625 .47625 0 0014.525625 162.20122z" fill="rgba(222,0,28,.24705882)"/><path d="M6.38175 112.68075H36.86175V106.97527H6.38175z" style="fill:rgba(222,0,28,.24705882);stroke:rgba(222,0,28,.24705882);stroke-width:.09525;stroke-miterlimit:41.994751"/><path d="M31.003875 110.02327A.47625 .47625 0 0030.051375 110.02327A.47625 .47625 0 0031.003875 110.02327z" fill="rgba(222,0,28,.24705882)"/><path d="M6.38175 80.29575H36.86175V74.628375H6.38175z" style="fill:rgba(222,0,28,.24705882);stroke:rgba(222,0,28,.24705882);stroke-width:.09525;stroke-miterlimit:41.994751"/><path d="M29.517975 77.28585A.47625 .47625 0 0028.565475 77.28585A.47625 .47625 0 0029.517975 77.28585z" fill="rgba(222,0,28,.24705882)"/><path d="M14.859 87.048975L29.041725 77.28585" style="fill:none;stroke:rgba(222,0,28,.24705882);stroke-width:.09525;stroke-miterlimit:41.994751"/><path d="M14.106525 100.38397L29.43225 93.32595" style="fill:none;stroke:rgba(222,0,28,.24705882);stroke-width:.09525;stroke-miterlimit:41.994751"/><path d="M21.43125 47.56785L14.859 87.048975" style="fill:none;stroke:rgba(222,0,28,.24705882);stroke-width:.09525;stroke-miterlimit:41.994751"/><path d="M30.527625 110.02327L14.106525 100.38397" style="fill:none;stroke:rgba(222,0,28,.24705882);stroke-width:.09525;stroke-miterlimit:41.994751"/><path d="M27.7749 129.16852L16.70685 117.03367" style="fill:none;stroke:rgba(222,0,28,.24705882);stroke-width:.09525;stroke-miterlimit:41.994751"/><path d="M14.859 87.048975L33.728025 85.067775" style="fill:none;stroke:rgba(222,0,28,.24705882);stroke-width:.09525;stroke-miterlimit:41.994751"/><path d="M29.43225 93.32595L14.859 87.048975" style="fill:none;stroke:rgba(222,0,28,.24705882);stroke-width:.09525;stroke-miterlimit:41.994751"/><path d="M16.70685 117.03367L30.527625 110.02327" style="fill:none;stroke:rgba(222,0,28,.24705882);stroke-width:.09525;stroke-miterlimit:41.994751"/><path d="M16.70685 117.03367L14.049375 162.20122" style="fill:none;stroke:rgba(222,0,28,.24705882);stroke-width:.09525;stroke-miterlimit:41.994751"/><path d="M14.106525 100.38397L16.70685 117.03367" style="fill:none;stroke:rgba(222,0,28,.24705882);stroke-width:.09525;stroke-miterlimit:41.994751"/><path d="M14.859 87.048975L14.106525 100.38397" style="fill:none;stroke:rgba(222,0,28,.24705882);stroke-width:.09525;stroke-miterlimit:41.994751"/><path d="M14.106525 100.38397L33.899475 101.36505" style="fill:none;stroke:rgba(222,0,32,.24705882);stroke-width:.09525;stroke-miterlimit:41.994751"/><path d="M34.375725 101.36505A.47625 .47625 0 0033.423225 101.36505A.47625 .47625 0 0034.375725 101.36505z" fill="rgba(222,0,32,.24705882)"/><path d="M16.70685 117.03367L33.58515 118.6434" style="fill:none;stroke:rgba(222,0,32,.24705882);stroke-width:.09525;stroke-miterlimit:41.994751"/><path d="M34.0614 118.6434A.47625 .47625 0 0033.1089 118.6434A.47625 .47625 0 0034.0614 118.6434z" fill="rgba(222,0,32,.24705882)"/><path d="M112.84267 166.39222A.47625 .47625 0 00111.89018 166.39222A.47625 .47625 0 00112.84267 166.39222z" fill="rgba(214,0,36,.24705882)"/><path d="M72.67575 185.45175H97.44075V165.735H72.67575z" style="fill:rgba(214,0,36,.24705882);stroke:rgba(214,0,36,.24705882);stroke-width:.09525;stroke-miterlimit:41.994751"/><path d="M84.02955 177.6984A.47625 .47625 0 0083.07705 177.6984A.47625 .47625 0 0084.02955 177.6984z" fill="rgba(214,0,36,.24705882)"/><path d="M72.8472 160.30575H107.72775V151.16175H72.8472z" style="fill:rgba(214,0,36,.24705882);stroke:rgba(214,0,36,.24705882);stroke-width:.09525;stroke-miterlimit:41.994751"/><path d="M86.629875 155.66707A.47625 .47625 0 0085.677375 155.66707A.47625 .47625 0 0086.629875 155.66707z" fill="rgba(214,0,36,.24705882)"/><path d="M73.332975 155.5623A.47625 .47625 0 0072.380475 155.5623A.47625 .47625 0 0073.332975 155.5623z" fill="rgba(214,0,36,.24705882)"/><path d="M98.155125 175.46955A.47625 .47625 0 0097.202625 175.46955A.47625 .47625 0 0098.155125 175.46955z" fill="rgba(214,0,36,.24705882)"/><path d="M97.82175 185.07075H116.87175V166.78275H97.82175z" style="fill:rgba(214,0,36,.24705882);stroke:rgba(214,0,36,.24705882);stroke-width:.09525;stroke-miterlimit:41.994751"/><path d="M108.57547 173.78363A.47625 .47625 0 00107.62297 173.78363A.47625 .47625 0 00108.57547 173.78363z" fill="rgba(214,0,36,.24705882)"/><path d="M120.60555 181.37505A.47625 .47625 0 00119.65305 181.37505A.47625 .47625 0 00120.60555 181.37505z" fill="rgba(214,0,36,.24705882)"/><path d="M107.72775 160.30575H116.87175V151.16175H107.72775z" style="fill:rgba(214,0,36,.24705882);stroke:rgba(214,0,36,.24705882);stroke-width:.09525;stroke-miterlimit:41.994751"/><path d="M112.49977 155.77185A.47625 .47625 0 00111.54728 155.77185A.47625 .47625 0 00112.49977 155.77185z" fill="rgba(214,0,36,.24705882)"/><path d="M97.44075 195.35775H116.87175V185.45175H97.44075z" style="fill:rgba(214,0,36,.24705882);stroke:rgba(214,0,36,.24705882);stroke-width:.09525;stroke-miterlimit:41.994751"/><path d="M107.00385 192.39548A.47625 .47625 0 00106.05135 192.39548A.47625 .47625 0 00107.00385 192.39548z" fill="rgba(214,0,36,.24705882)"/><path d="M107.72775 166.02075H116.87175V160.30575H107.72775z" style="fill:rgba(214,0,36,.24705882);stroke:rgba(214,0,36,.24705882);stroke-width:.09525;stroke-miterlimit:41.994751"/><path d="M112.59502 163.04895A.47625 .47625 0 00111.64253 163.04895A.47625 .47625 0 00112.59502 163.04895z" fill="rgba(214,0,36,.24705882)"/><path d="M117.348 181.19407A.47625 .47625 0 00116.3955 181.19407A.47625 .47625 0 00117.348 181.19407z" fill="rgba(214,0,36,.24705882)"/><path d="M72.67575 195.35775H97.44075V185.45175H72.67575z" style="fill:rgba(214,0,36,.24705882);stroke:rgba(214,0,36,.24705882);stroke-width:.09525;stroke-miterlimit:41.994751"/><path d="M85.277325 189.55703A.47625 .47625 0 0084.324825 189.55703A.47625 .47625 0 0085.277325 189.55703z" fill="rgba(214,0,36,.24705882)"/><path d="M120.1293 181.37505L116.87175 181.19407" style="fill:none;stroke:rgba(214,0,36,.24705882);stroke-width:.09525;stroke-miterlimit:41.994751"/><path d="M97.678875 175.46955L83.5533 177.6984" style="fill:none;stroke:rgba(214,0,36,.24705882);stroke-width:.09525;stroke-miterlimit:41.994751"/><path d="M112.11877 163.04895L112.36643 166.39222" style="fill:none;stroke:rgba(214,0,36,.24705882);stroke-width:.09525;stroke-miterlimit:41.994751"/><path d="M83.5533 177.6984L84.801075 189.55702" style="fill:none;stroke:rgba(214,0,36,.24705882);stroke-width:.09525;stroke-miterlimit:41.994751"/><path d="M84.801075 189.55702L106.5276 192.39547" style="fill:none;stroke:rgba(214,0,36,.24705882);stroke-width:.09525;stroke-miterlimit:41.994751"/><path d="M112.36643 166.39222L108.09922 173.78362" style="fill:none;stroke:rgba(214,0,36,.24705882);stroke-width:.09525;stroke-miterlimit:41.994751"/><path d="M112.02353 155.77185L112.11877 163.04895" style="fill:none;stroke:rgba(214,0,36,.24705882);stroke-width:.09525;stroke-miterlimit:41.994751"/><path d="M86.153625 155.66707L112.02353 155.77185" style="fill:none;stroke:rgba(214,0,36,.24705882);stroke-width:.09525;stroke-miterlimit:41.994751"/><path d="M108.09922 173.78362L97.678875 175.46955" style="fill:none;stroke:rgba(214,0,36,.24705882);stroke-width:.09525;stroke-miterlimit:41.994751"/><path d="M72.856725 155.5623L86.153625 155.66707" style="fill:none;stroke:rgba(214,0,36,.24705882);stroke-width:.09525;stroke-miterlimit:41.994751"/><path d="M108.09922 173.78362L116.87175 181.19407" style="fill:none;stroke:rgba(214,0,36,.24705882);stroke-width:.09525;stroke-miterlimit:41.994751"/><path d="M33.728025 85.067775L36.86175 85.734525" style="fill:none;stroke:rgba(206,0,44,.24705882);stroke-width:.09525;stroke-miterlimit:41.994751"/><path d="M3.25755 104.53687L14.106525 100.38397" style="fill:none;stroke:rgba(206,0,44,.24705882);stroke-width:.09525;stroke-miterlimit:41.994751"/><path d="M33.899475 101.36505L36.86175 101.13645" style="fill:none;stroke:rgba(206,0,48,.24705882);stroke-width:.09525;stroke-miterlimit:41.994751"/><path d="M33.58515 118.6434L37.01415 117.98617" style="fill:none;stroke:rgba(206,0,48,.24705882);stroke-width:.09525;stroke-miterlimit:41.994751"/><path d="M64.855725 155.38132L72.856725 155.5623" style="fill:none;stroke:rgba(206,0,48,.24705882);stroke-width:.09525;stroke-miterlimit:41.994751"/><path d="M59.72175 160.30575H65.351025V151.16175H59.72175z" style="fill:rgba(194,0,60,.24705882);stroke:rgba(194,0,60,.24705882);stroke-width:.09525;stroke-miterlimit:41.994751"/><path d="M65.331975 155.38133A.47625 .47625 0 0064.379475 155.38133A.47625 .47625 0 0065.331975 155.38133z" fill="rgba(194,0,60,.24705882)"/><path d="M58.76925 155.50515L64.855725 155.38132" style="fill:none;stroke:rgba(194,0,60,.24705882);stroke-width:.09525;stroke-miterlimit:41.994751"/><path d="M37.338 85.734525A.47625 .47625 0 0036.3855 85.734525A.47625 .47625 0 0037.338 85.734525z" fill="rgba(190,0,60,.24705882)"/><path d="M36.86175 85.734525L46.4439 87.3252" style="fill:none;stroke:rgba(190,0,60,.24705882);stroke-width:.09525;stroke-miterlimit:41.994751"/><path d="M37.338 101.13645A.47625 .47625 0 0036.3855 101.13645A.47625 .47625 0 0037.338 101.13645z" fill="rgba(190,0,60,.24705882)"/><path d="M36.86175 101.13645L50.2158 111.83302" style="fill:none;stroke:rgba(190,0,60,.24705882);stroke-width:.09525;stroke-miterlimit:41.994751"/><path d="M94.39275 79.53375H103.91775V56.67375H94.39275z" style="fill:rgba(190,0,60,.24705882);stroke:rgba(190,0,60,.24705882);stroke-width:.09525;stroke-miterlimit:41.994751"/><path d="M97.7265 69.942075A.47625 .47625 0 0096.774 69.942075A.47625 .47625 0 0097.7265 69.942075z" fill="rgba(190,0,60,.24705882)"/><path d="M152.10472 146.12302A.47625 .47625 0 00151.15222 146.12302A.47625 .47625 0 00152.10472 146.12302z" fill="rgba(190,0,60,.24705882)"/><path d="M142.01775 60.48375H164.87775V47.52975H142.01775z" style="fill:rgba(190,0,60,.24705882);stroke:rgba(190,0,60,.24705882);stroke-width:.09525;stroke-miterlimit:41.994751"/><path d="M149.9235 55.64505A.47625 .47625 0 00148.971 55.64505A.47625 .47625 0 00149.9235 55.64505z" fill="rgba(190,0,60,.24705882)"/><path d="M139.92225 122.20575H155.73375V100.86975H139.92225z" style="fill:rgba(190,0,60,.24705882);stroke:rgba(190,0,60,.24705882);stroke-width:.09525;stroke-miterlimit:41.994751"/><path d="M151.34272 104.72737A.47625 .47625 0 00150.39022 104.72737A.47625 .47625 0 00151.34272 104.72737z" fill="rgba(190,0,60,.24705882)"/><path d="M125.82525 122.20575H139.92225V100.86975H125.82525z" style="fill:rgba(190,0,60,.24705882);stroke:rgba(190,0,60,.24705882);stroke-width:.09525;stroke-miterlimit:41.994751"/><path d="M134.42632 114.681A.47625 .47625 0 00133.47383 114.681A.47625 .47625 0 00134.42632 114.681z" fill="rgba(190,0,60,.24705882)"/><path d="M141.83677 122.8725A.47625 .47625 0 00140.88428 122.8725A.47625 .47625 0 00141.83677 122.8725z" fill="rgba(190,0,60,.24705882)"/><path d="M125.49187 122.70105A.47625 .47625 0 00124.53938 122.70105A.47625 .47625 0 00125.49187 122.70105z" fill="rgba(190,0,60,.24705882)"/><path d="M59.921775 85.4964A.47625 .47625 0 0058.969275 85.4964A.47625 .47625 0 0059.921775 85.4964z" fill="rgba(190,0,60,.24705882)"/><path d="M.28575 160.30575H6.38175V62.76975H.28575z" style="fill:rgba(190,0,60,.24705882);stroke:rgba(190,0,60,.24705882);stroke-width:.09525;stroke-miterlimit:41.994751"/><path d="M3.7338 104.53688A.47625 .47625 0 002.7813 104.53688A.47625 .47625 0 003.7338 104.53688z" fill="rgba(190,0,60,.24705882)"/><path d="M59.026425 122.20575H125.82525V100.86975H59.026425z" style="fill:rgba(190,0,60,.24705882);stroke:rgba(190,0,60,.24705882);stroke-width:.09525;stroke-miterlimit:41.994751"/><path d="M101.47935 112.25213A.47625 .47625 0 00100.52685 112.25213A.47625 .47625 0 00101.47935 112.25213z" fill="rgba(190,0,60,.24705882)"/><path d="M59.102625 111.77587A.47625 .47625 0 0058.150125 111.77587A.47625 .47625 0 0059.102625 111.77587z" fill="rgba(190,0,60,.24705882)"/><path d="M36.7665 122.20575H58.264425V100.86975H36.7665z" style="fill:rgba(190,0,60,.24705882);stroke:rgba(190,0,60,.24705882);stroke-width:.09525;stroke-miterlimit:41.994751"/><path d="M50.69205 111.83302A.47625 .47625 0 0049.73955 111.83302A.47625 .47625 0 0050.69205 111.83302z" fill="rgba(190,0,60,.24705882)"/><path d="M36.7665 100.86975H58.19775V62.76975H36.7665z" style="fill:rgba(190,0,60,.24705882);stroke:rgba(190,0,60,.24705882);stroke-width:.09525;stroke-miterlimit:41.994751"/><path d="M46.92015 87.3252A.47625 .47625 0 0045.96765 87.3252A.47625 .47625 0 0046.92015 87.3252z" fill="rgba(190,0,60,.24705882)"/><path d="M59.72175 79.53375H94.39275V56.67375H59.72175z" style="fill:rgba(190,0,60,.24705882);stroke:rgba(190,0,60,.24705882);stroke-width:.09525;stroke-miterlimit:41.994751"/><path d="M80.229075 67.18935A.47625 .47625 0 0079.276575 67.18935A.47625 .47625 0 0080.229075 67.18935z" fill="rgba(190,0,60,.24705882)"/><path d="M105.44175 99.34575H123.72975V62.76975H105.44175z" style="fill:rgba(190,0,60,.24705882);stroke:rgba(190,0,60,.24705882);stroke-width:.09525;stroke-miterlimit:41.994751"/><path d="M114.74768 90.0684A.47625 .47625 0 00113.79518 90.0684A.47625 .47625 0 00114.74768 90.0684z" fill="rgba(190,0,60,.24705882)"/><path d="M36.86175 153.44775H58.19775V122.20575H36.86175z" style="fill:rgba(190,0,60,.24705882);stroke:rgba(190,0,60,.24705882);stroke-width:.09525;stroke-miterlimit:41.994751"/><path d="M46.04385 133.59765A.47625 .47625 0 0045.09135 133.59765A.47625 .47625 0 0046.04385 133.59765z" fill="rgba(190,0,60,.24705882)"/><path d="M156.972 104.5083A.47625 .47625 0 00156.0195 104.5083A.47625 .47625 0 00156.972 104.5083z" fill="rgba(190,0,60,.24705882)"/><path d="M36.86175 160.30575H58.19775V153.44775H36.86175z" style="fill:rgba(190,0,60,.24705882);stroke:rgba(190,0,60,.24705882);stroke-width:.09525;stroke-miterlimit:41.994751"/><path d="M48.1203 154.94317A.47625 .47625 0 0047.1678 154.94317A.47625 .47625 0 0048.1203 154.94317z" fill="rgba(190,0,60,.24705882)"/><path d="M59.2455 155.50515A.47625 .47625 0 0058.293 155.50515A.47625 .47625 0 0059.2455 155.50515z" fill="rgba(190,0,60,.24705882)"/><path d="M157.25775 124.49175H196.11975V100.86975H157.25775z" style="fill:rgba(190,0,60,.24705882);stroke:rgba(190,0,60,.24705882);stroke-width:.09525;stroke-miterlimit:41.994751"/><path d="M176.42205 106.36568A.47625 .47625 0 00175.46955 106.36568A.47625 .47625 0 00176.42205 106.36568z" fill="rgba(190,0,60,.24705882)"/><path d="M126.88253 78.9051A.47625 .47625 0 00125.93003 78.9051A.47625 .47625 0 00126.88253 78.9051z" fill="rgba(190,0,60,.24705882)"/><path d="M133.64527 100.03155A.47625 .47625 0 00132.69278 100.03155A.47625 .47625 0 00133.64527 100.03155z" fill="rgba(190,0,60,.24705882)"/><path d="M130.31153 74.9046A.47625 .47625 0 00129.35903 74.9046A.47625 .47625 0 00130.31153 74.9046z" fill="rgba(190,0,60,.24705882)"/><path d="M125.25375 66.627375H141.25575V47.52975H125.25375z" style="fill:rgba(190,0,60,.24705882);stroke:rgba(190,0,60,.24705882);stroke-width:.09525;stroke-miterlimit:41.994751"/><path d="M134.3406 59.95035A.47625 .47625 0 00133.3881 59.95035A.47625 .47625 0 00134.3406 59.95035z" fill="rgba(190,0,60,.24705882)"/><path d="M125.82525 99.34575H139.92225V81.05775H125.82525z" style="fill:rgba(190,0,60,.24705882);stroke:rgba(190,0,60,.24705882);stroke-width:.09525;stroke-miterlimit:41.994751"/><path d="M132.86422 89.849325A.47625 .47625 0 00131.91172 89.849325A.47625 .47625 0 00132.86422 89.849325z" fill="rgba(190,0,60,.24705882)"/><path d="M141.25575 78.77175H164.87775V60.48375H141.25575z" style="fill:rgba(190,0,60,.24705882);stroke:rgba(190,0,60,.24705882);stroke-width:.09525;stroke-miterlimit:41.994751"/><path d="M147.34222 69.370575A.47625 .47625 0 00146.38972 69.370575A.47625 .47625 0 00147.34222 69.370575z" fill="rgba(190,0,60,.24705882)"/><path d="M135.46455 71.637525A.47625 .47625 0 00134.51205 71.637525A.47625 .47625 0 00135.46455 71.637525z" fill="rgba(190,0,60,.24705882)"/><path d="M139.92225 99.34575H155.73375V81.05775H139.92225z" style="fill:rgba(190,0,60,.24705882);stroke:rgba(190,0,60,.24705882);stroke-width:.09525;stroke-miterlimit:41.994751"/><path d="M146.6469 90.820875A.47625 .47625 0 00145.6944 90.820875A.47625 .47625 0 00146.6469 90.820875z" fill="rgba(190,0,60,.24705882)"/><path d="M87.91575 99.34575H105.44175V81.05775H87.91575z" style="fill:rgba(190,0,60,.24705882);stroke:rgba(190,0,60,.24705882);stroke-width:.09525;stroke-miterlimit:41.994751"/><path d="M97.774125 90.611325A.47625 .47625 0 0096.821625 90.611325A.47625 .47625 0 0097.774125 90.611325z" fill="rgba(190,0,60,.24705882)"/><path d="M37.4904 117.98618A.47625 .47625 0 0036.5379 117.98618A.47625 .47625 0 0037.4904 117.98618z" fill="rgba(190,0,60,.24705882)"/><path d="M150.01875 47.291625A.47625 .47625 0 00149.06625 47.291625A.47625 .47625 0 00150.01875 47.291625z" fill="rgba(190,0,60,.24705882)"/><path d="M97.183575 80.60055A.47625 .47625 0 0096.231075 80.60055A.47625 .47625 0 0097.183575 80.60055z" fill="rgba(190,0,60,.24705882)"/><path d="M147.35175 46.00575H164.87775V30.76575H147.35175z" style="fill:rgba(190,0,60,.24705882);stroke:rgba(190,0,60,.24705882);stroke-width:.09525;stroke-miterlimit:41.994751"/><path d="M150.04733 39.30015A.47625 .47625 0 00149.09483 39.30015A.47625 .47625 0 00150.04733 39.30015z" fill="rgba(190,0,60,.24705882)"/><path d="M87.95385 90.230325A.47625 .47625 0 0087.00135 90.230325A.47625 .47625 0 0087.95385 90.230325z" fill="rgba(190,0,60,.24705882)"/><path d="M125.25375 46.00575H147.35175V30.76575H125.25375z" style="fill:rgba(190,0,60,.24705882);stroke:rgba(190,0,60,.24705882);stroke-width:.09525;stroke-miterlimit:41.994751"/><path d="M138.32205 39.243A.47625 .47625 0 00137.36955 39.243A.47625 .47625 0 00138.32205 39.243z" fill="rgba(190,0,60,.24705882)"/><path d="M59.72175 99.34575H86.39175V81.05775H59.72175z" style="fill:rgba(190,0,60,.24705882);stroke:rgba(190,0,60,.24705882);stroke-width:.09525;stroke-miterlimit:41.994751"/><path d="M75.009375 89.24925A.47625 .47625 0 0074.056875 89.24925A.47625 .47625 0 0075.009375 89.24925z" fill="rgba(190,0,60,.24705882)"/><path d="M151.99995 122.38672A.47625 .47625 0 00151.04745 122.38672A.47625 .47625 0 00151.99995 122.38672z" fill="rgba(190,0,60,.24705882)"/><path d="M149.63775 142.66545H153.44775V122.20575H149.63775z" style="fill:rgba(190,0,60,.24705882);stroke:rgba(190,0,60,.24705882);stroke-width:.09525;stroke-miterlimit:41.994751"/><path d="M152.0571 132.82612A.47625 .47625 0 00151.1046 132.82612A.47625 .47625 0 00152.0571 132.82612z" fill="rgba(190,0,60,.24705882)"/><path d="M37.01415 117.98617L50.2158 111.83302" style="fill:none;stroke:rgba(190,0,60,.24705882);stroke-width:.09525;stroke-miterlimit:41.994751"/><path d="M134.9883 71.637525L146.86597 69.370575" style="fill:none;stroke:rgba(190,0,60,.24705882);stroke-width:.09525;stroke-miterlimit:41.994751"/><path d="M133.95007 114.681L125.01562 122.70105" style="fill:none;stroke:rgba(190,0,60,.24705882);stroke-width:.09525;stroke-miterlimit:41.994751"/><path d="M134.9883 71.637525L133.86435 59.95035" style="fill:none;stroke:rgba(190,0,60,.24705882);stroke-width:.09525;stroke-miterlimit:41.994751"/><path d="M101.0031 112.25212L133.95007 114.681" style="fill:none;stroke:rgba(190,0,60,.24705882);stroke-width:.09525;stroke-miterlimit:41.994751"/><path d="M50.2158 111.83302L58.626375 111.77587" style="fill:none;stroke:rgba(190,0,60,.24705882);stroke-width:.09525;stroke-miterlimit:41.994751"/><path d="M50.2158 111.83302L45.5676 133.59765" style="fill:none;stroke:rgba(190,0,60,.24705882);stroke-width:.09525;stroke-miterlimit:41.994751"/><path d="M151.58085 132.82612L151.62847 146.12302" style="fill:none;stroke:rgba(190,0,60,.24705882);stroke-width:.09525;stroke-miterlimit:41.994751"/><path d="M97.25025 69.942075L79.752825 67.18935" style="fill:none;stroke:rgba(190,0,60,.24705882);stroke-width:.09525;stroke-miterlimit:41.994751"/><path d="M151.5237 122.38672L150.86647 104.72737" style="fill:none;stroke:rgba(190,0,60,.24705882);stroke-width:.09525;stroke-miterlimit:41.994751"/><path d="M151.5237 122.38672L151.58085 132.82612" style="fill:none;stroke:rgba(190,0,60,.24705882);stroke-width:.09525;stroke-miterlimit:41.994751"/><path d="M74.533125 89.24925L87.4776 90.230325" style="fill:none;stroke:rgba(190,0,60,.24705882);stroke-width:.09525;stroke-miterlimit:41.994751"/><path d="M137.8458 39.243L149.57108 39.30015" style="fill:none;stroke:rgba(190,0,60,.24705882);stroke-width:.09525;stroke-miterlimit:41.994751"/><path d="M87.4776 90.230325L97.297875 90.611325" style="fill:none;stroke:rgba(190,0,60,.24705882);stroke-width:.09525;stroke-miterlimit:41.994751"/><path d="M96.707325 80.60055L97.25025 69.942075" style="fill:none;stroke:rgba(190,0,60,.24705882);stroke-width:.09525;stroke-miterlimit:41.994751"/><path d="M149.5425 47.291625L149.57108 39.30015" style="fill:none;stroke:rgba(190,0,60,.24705882);stroke-width:.09525;stroke-miterlimit:41.994751"/><path d="M97.297875 90.611325L96.707325 80.60055" style="fill:none;stroke:rgba(190,0,60,.24705882);stroke-width:.09525;stroke-miterlimit:41.994751"/><path d="M149.44725 55.64505L149.5425 47.291625" style="fill:none;stroke:rgba(190,0,60,.24705882);stroke-width:.09525;stroke-miterlimit:41.994751"/><path d="M97.297875 90.611325L114.27143 90.0684" style="fill:none;stroke:rgba(190,0,60,.24705882);stroke-width:.09525;stroke-miterlimit:41.994751"/><path d="M132.38797 89.849325L146.17065 90.820875" style="fill:none;stroke:rgba(190,0,60,.24705882);stroke-width:.09525;stroke-miterlimit:41.994751"/><path d="M46.4439 87.3252L59.445525 85.4964" style="fill:none;stroke:rgba(190,0,60,.24705882);stroke-width:.09525;stroke-miterlimit:41.994751"/><path d="M58.626375 111.77587L101.0031 112.25212" style="fill:none;stroke:rgba(190,0,60,.24705882);stroke-width:.09525;stroke-miterlimit:41.994751"/><path d="M146.86597 69.370575L149.44725 55.64505" style="fill:none;stroke:rgba(190,0,60,.24705882);stroke-width:.09525;stroke-miterlimit:41.994751"/><path d="M132.38797 89.849325L126.40628 78.9051" style="fill:none;stroke:rgba(190,0,60,.24705882);stroke-width:.09525;stroke-miterlimit:41.994751"/><path d="M133.16903 100.03155L132.38797 89.849325" style="fill:none;stroke:rgba(190,0,60,.24705882);stroke-width:.09525;stroke-miterlimit:41.994751"/><path d="M129.83528 74.9046L134.9883 71.637525" style="fill:none;stroke:rgba(190,0,60,.24705882);stroke-width:.09525;stroke-miterlimit:41.994751"/><path d="M133.16903 100.03155L133.95007 114.681" style="fill:none;stroke:rgba(190,0,60,.24705882);stroke-width:.09525;stroke-miterlimit:41.994751"/><path d="M126.40628 78.9051L129.83528 74.9046" style="fill:none;stroke:rgba(190,0,60,.24705882);stroke-width:.09525;stroke-miterlimit:41.994751"/><path d="M126.40628 78.9051L114.27143 90.0684" style="fill:none;stroke:rgba(190,0,60,.24705882);stroke-width:.09525;stroke-miterlimit:41.994751"/><path d="M133.95007 114.681L150.86647 104.72737" style="fill:none;stroke:rgba(190,0,60,.24705882);stroke-width:.09525;stroke-miterlimit:41.994751"/><path d="M114.27143 90.0684L132.38797 89.849325" style="fill:none;stroke:rgba(190,0,60,.24705882);stroke-width:.09525;stroke-miterlimit:41.994751"/><path d="M59.445525 85.4964L74.533125 89.24925" style="fill:none;stroke:rgba(190,0,60,.24705882);stroke-width:.09525;stroke-miterlimit:41.994751"/><path d="M47.64405 154.94317L58.76925 155.50515" style="fill:none;stroke:rgba(190,0,60,.24705882);stroke-width:.09525;stroke-miterlimit:41.994751"/><path d="M156.49575 104.5083L175.9458 106.36567" style="fill:none;stroke:rgba(190,0,60,.24705882);stroke-width:.09525;stroke-miterlimit:41.994751"/><path d="M45.5676 133.59765L47.64405 154.94317" style="fill:none;stroke:rgba(190,0,60,.24705882);stroke-width:.09525;stroke-miterlimit:41.994751"/><path d="M150.86647 104.72737L156.49575 104.5083" style="fill:none;stroke:rgba(190,0,60,.24705882);stroke-width:.09525;stroke-miterlimit:41.994751"/><path d="M46.4439 87.3252L50.2158 111.83302" style="fill:none;stroke:rgba(190,0,60,.24705882);stroke-width:.09525;stroke-miterlimit:41.994751"/><path d="M133.95007 114.681L141.36052 122.8725" style="fill:none;stroke:rgba(190,0,60,.24705882);stroke-width:.09525;stroke-miterlimit:41.994751"/><path d="M151.62847 146.12302L151.5999 147.828" style="fill:none;stroke:rgba(186,0,64,.24705882);stroke-width:.09525;stroke-miterlimit:41.994751"/><path d="M152.07615 147.828A.47625 .47625 0 00151.12365 147.828A.47625 .47625 0 00152.07615 147.828z" fill="rgba(182,0,68,.24705882)"/><path d="M175.9458 106.36567L178.06987 100.86975" style="fill:none;stroke:rgba(182,0,72,.24705882);stroke-width:.09525;stroke-miterlimit:41.994751"/><path d="M164.88727 38.46195L149.57108 39.30015" style="fill:none;stroke:rgba(182,0,72,.24705882);stroke-width:.09525;stroke-miterlimit:41.994751"/><path d="M141.56055 131.54025L141.36052 122.8725" style="fill:none;stroke:rgba(178,0,72,.24705882);stroke-width:.09525;stroke-miterlimit:41.994751"/><path d="M125.01562 122.70105L124.69178 133.5024" style="fill:none;stroke:rgba(178,0,76,.24705882);stroke-width:.09525;stroke-miterlimit:41.994751"/><path d="M178.54612 100.86975A.47625 .47625 0 00177.59363 100.86975A.47625 .47625 0 00178.54612 100.86975z" fill="rgba(170,0,85,.24705882)"/><path d="M178.06987 100.86975L178.14607 68.78955" style="fill:none;stroke:rgba(170,0,85,.24705882);stroke-width:.09525;stroke-miterlimit:41.994751"/><path d="M176.30775 40.29075H180.11775V36.48075H176.30775z" style="fill:rgba(170,0,85,.24705882);stroke:rgba(170,0,85,.24705882);stroke-width:.09525;stroke-miterlimit:41.994751"/><path d="M178.81282 38.204775A.47625 .47625 0 00177.86032 38.204775A.47625 .47625 0 00178.81282 38.204775z" fill="rgba(170,0,85,.24705882)"/><path d="M165.36352 38.46195A.47625 .47625 0 00164.41102 38.46195A.47625 .47625 0 00165.36352 38.46195z" fill="rgba(170,0,85,.24705882)"/><path d="M176.30775 100.86975H180.11775V40.29075H176.30775z" style="fill:rgba(170,0,85,.24705882);stroke:rgba(170,0,85,.24705882);stroke-width:.09525;stroke-miterlimit:41.994751"/><path d="M178.62232 68.78955A.47625 .47625 0 00177.66983 68.78955A.47625 .47625 0 00178.62232 68.78955z" fill="rgba(170,0,85,.24705882)"/><path d="M164.87775 40.29075H176.30775V36.48075H164.87775z" style="fill:rgba(170,0,85,.24705882);stroke:rgba(170,0,85,.24705882);stroke-width:.09525;stroke-miterlimit:41.994751"/><path d="M170.36415 38.280975A.47625 .47625 0 00169.41165 38.280975A.47625 .47625 0 00170.36415 38.280975z" fill="rgba(170,0,85,.24705882)"/><path d="M178.14607 68.78955L178.33657 38.204775" style="fill:none;stroke:rgba(170,0,85,.24705882);stroke-width:.09525;stroke-miterlimit:41.994751"/><path d="M178.33657 38.204775L169.8879 38.280975" style="fill:none;stroke:rgba(170,0,85,.24705882);stroke-width:.09525;stroke-miterlimit:41.994751"/><path d="M169.8879 38.280975L164.88727 38.46195" style="fill:none;stroke:rgba(170,0,85,.24705882);stroke-width:.09525;stroke-miterlimit:41.994751"/><path d="M142.0368 131.54025A.47625 .47625 0 00141.0843 131.54025A.47625 .47625 0 00142.0368 131.54025z" fill="rgba(165,0,85,.24705882)"/><path d="M151.51418 147.828H151.5999" style="fill:none;stroke:rgba(165,0,85,.24705882);stroke-width:.09525;stroke-miterlimit:41.994751"/><path d="M125.16803 133.5024A.47625 .47625 0 00124.21553 133.5024A.47625 .47625 0 00125.16803 133.5024z" fill="rgba(161,0,89,.24705882)"/><path d="M153.97163 241.81117L153.90495 241.90642" style="fill:none;stroke:rgba(157,0,93,.24705882);stroke-width:.09525;stroke-miterlimit:41.994751"/><path d="M140.4366 138.96975L141.56055 131.54025" style="fill:none;stroke:rgba(157,0,97,.24705882);stroke-width:.09525;stroke-miterlimit:41.994751"/><path d="M124.69178 133.5024L124.74892 142.59877" style="fill:none;stroke:rgba(149,0,101,.24705882);stroke-width:.09525;stroke-miterlimit:41.994751"/><path d="M151.99043 147.828A.47625 .47625 0 00151.03793 147.828A.47625 .47625 0 00151.99043 147.828z" fill="rgba(149,0,101,.24705882)"/><path d="M140.91285 138.96975A.47625 .47625 0 00139.96035 138.96975A.47625 .47625 0 00140.91285 138.96975z" fill="rgba(145,0,105,.24705882)"/><path d="M125.22517 142.59877A.47625 .47625 0 00124.27268 142.59877A.47625 .47625 0 00125.22517 142.59877z" fill="rgba(137,0,113,.24705882)"/><path d="M140.44612 149.36153L140.4366 138.96975" style="fill:none;stroke:rgba(133,0,117,.24705882);stroke-width:.09525;stroke-miterlimit:41.994751"/><path d="M124.74892 142.59877L124.7775 151.74277" style="fill:none;stroke:rgba(125,0,125,.24705882);stroke-width:.09525;stroke-miterlimit:41.994751"/><path d="M140.92237 149.36153A.47625 .47625 0 00139.96988 149.36153A.47625 .47625 0 00140.92237 149.36153z" fill="rgba(121,0,129,.24705882)"/><path d="M151.51418 147.828H151.76182" style="fill:none;stroke:rgba(121,0,133,.24705882);stroke-width:.09525;stroke-miterlimit:41.994751"/><path d="M125.25375 151.74277A.47625 .47625 0 00124.30125 151.74277A.47625 .47625 0 00125.25375 151.74277z" fill="rgba(113,0,137,.24705882)"/><path d="M140.76045 157.89592L140.44612 149.36153" style="fill:none;stroke:rgba(109,0,141,.24705882);stroke-width:.09525;stroke-miterlimit:41.994751"/><path d="M124.7775 151.74277L124.95847 158.04832" style="fill:none;stroke:rgba(105,0,145,.24705882);stroke-width:.09525;stroke-miterlimit:41.994751"/><path d="M125.43472 158.04832A.47625 .47625 0 00124.48222 158.04832A.47625 .47625 0 00125.43472 158.04832z" fill="rgba(97,0,153,.24705882)"/><path d="M141.2367 157.89593A.47625 .47625 0 00140.2842 157.89593A.47625 .47625 0 00141.2367 157.89593z" fill="rgba(97,0,153,.24705882)"/><path d="M140.88428 166.1922L140.76045 157.89592" style="fill:none;stroke:rgba(89,0,165,.24705882);stroke-width:.09525;stroke-miterlimit:41.994751"/><path d="M152.23807 147.828A.47625 .47625 0 00151.28557 147.828A.47625 .47625 0 00152.23807 147.828z" fill="rgba(89,0,165,.24705882)"/><path d="M124.95847 158.04832L125.1966 166.85895" style="fill:none;stroke:rgba(85,0,165,.24705882);stroke-width:.09525;stroke-miterlimit:41.994751"/><path d="M141.36052 166.1922A.47625 .47625 0 00140.40803 166.1922A.47625 .47625 0 00141.36052 166.1922z" fill="rgba(76,0,174,.24705882)"/><path d="M125.67285 166.85895A.47625 .47625 0 00124.72035 166.85895A.47625 .47625 0 00125.67285 166.85895z" fill="rgba(72,0,178,.24705882)"/><path d="M140.10323 173.30737L140.88428 166.1922" style="fill:none;stroke:rgba(68,0,182,.24705882);stroke-width:.09525;stroke-miterlimit:41.994751"/><path d="M125.1966 166.85895L125.3109 172.88827" style="fill:none;stroke:rgba(68,0,186,.24705882);stroke-width:.09525;stroke-miterlimit:41.994751"/><path d="M149.24722 193.21463A.47625 .47625 0 00148.29472 193.21463A.47625 .47625 0 00149.24722 193.21463z" fill="rgba(60,0,190,.24705882)"/><path d="M110.01375 193.07175H155.73375V174.02175H110.01375z" style="fill:rgba(60,0,190,.24705882);stroke:rgba(60,0,190,.24705882);stroke-width:.09525;stroke-miterlimit:41.994751"/><path d="M136.06462 185.72798A.47625 .47625 0 00135.11212 185.72798A.47625 .47625 0 00136.06462 185.72798z" fill="rgba(60,0,190,.24705882)"/><path d="M157.25775 174.78375H171.73575V154.97175H157.25775z" style="fill:rgba(60,0,190,.24705882);stroke:rgba(60,0,190,.24705882);stroke-width:.09525;stroke-miterlimit:41.994751"/><path d="M164.96348 164.00145A.47625 .47625 0 00164.01098 164.00145A.47625 .47625 0 00164.96348 164.00145z" fill="rgba(60,0,190,.24705882)"/><path d="M165.2778 175.02187A.47625 .47625 0 00164.3253 175.02187A.47625 .47625 0 00165.2778 175.02187z" fill="rgba(60,0,190,.24705882)"/><path d="M172.49775 175.16475H179.73675V168.9735H172.49775z" style="fill:rgba(60,0,190,.24705882);stroke:rgba(60,0,190,.24705882);stroke-width:.09525;stroke-miterlimit:41.994751"/><path d="M179.451 172.75492A.47625 .47625 0 00178.4985 172.75492A.47625 .47625 0 00179.451 172.75492z" fill="rgba(60,0,190,.24705882)"/><path d="M109.12793 205.95907A.47625 .47625 0 00108.17543 205.95907A.47625 .47625 0 00109.12793 205.95907z" fill="rgba(60,0,190,.24705882)"/><path d="M172.49775 168.5925H179.73675V162.1155H172.49775z" style="fill:rgba(60,0,190,.24705882);stroke:rgba(60,0,190,.24705882);stroke-width:.09525;stroke-miterlimit:41.994751"/><path d="M179.62245 166.05885A.47625 .47625 0 00178.66995 166.05885A.47625 .47625 0 00179.62245 166.05885z" fill="rgba(60,0,190,.24705882)"/><path d="M172.49775 161.7345H179.73675V154.97175H172.49775z" style="fill:rgba(60,0,190,.24705882);stroke:rgba(60,0,190,.24705882);stroke-width:.09525;stroke-miterlimit:41.994751"/><path d="M179.47005 158.43885A.47625 .47625 0 00178.51755 158.43885A.47625 .47625 0 00179.47005 158.43885z" fill="rgba(60,0,190,.24705882)"/><path d="M109.13745 212.57895A.47625 .47625 0 00108.18495 212.57895A.47625 .47625 0 00109.13745 212.57895z" fill="rgba(60,0,190,.24705882)"/><path d="M140.41755 224.31375H155.73375V193.07175H140.41755z" style="fill:rgba(60,0,190,.24705882);stroke:rgba(60,0,190,.24705882);stroke-width:.09525;stroke-miterlimit:41.994751"/><path d="M149.22817 209.6262A.47625 .47625 0 00148.27568 209.6262A.47625 .47625 0 00149.22817 209.6262z" fill="rgba(60,0,190,.24705882)"/><path d="M180.11775 175.54575H191.54775V154.97175H180.11775z" style="fill:rgba(60,0,190,.24705882);stroke:rgba(60,0,190,.24705882);stroke-width:.09525;stroke-miterlimit:41.994751"/><path d="M186.9567 166.10647A.47625 .47625 0 00186.0042 166.10647A.47625 .47625 0 00186.9567 166.10647z" fill="rgba(60,0,190,.24705882)"/><path d="M128.30175 224.31375H137.44575V215.16975H128.30175z" style="fill:rgba(60,0,190,.24705882);stroke:rgba(60,0,190,.24705882);stroke-width:.09525;stroke-miterlimit:41.994751"/><path d="M133.34047 219.59887A.47625 .47625 0 00132.38798 219.59887A.47625 .47625 0 00133.34047 219.59887z" fill="rgba(60,0,190,.24705882)"/><path d="M180.11775 184.68975H191.54775V175.54575H180.11775z" style="fill:rgba(60,0,190,.24705882);stroke:rgba(60,0,190,.24705882);stroke-width:.09525;stroke-miterlimit:41.994751"/><path d="M186.47092 180.27015A.47625 .47625 0 00185.51843 180.27015A.47625 .47625 0 00186.47092 180.27015z" fill="rgba(60,0,190,.24705882)"/><path d="M117.63375 224.31375H126.77775V215.16975H117.63375z" style="fill:rgba(60,0,190,.24705882);stroke:rgba(60,0,190,.24705882);stroke-width:.09525;stroke-miterlimit:41.994751"/><path d="M122.7582 219.4941A.47625 .47625 0 00121.8057 219.4941A.47625 .47625 0 00122.7582 219.4941z" fill="rgba(60,0,190,.24705882)"/><path d="M167.16375 184.68975H180.11775V175.54575H167.16375z" style="fill:rgba(60,0,190,.24705882);stroke:rgba(60,0,190,.24705882);stroke-width:.09525;stroke-miterlimit:41.994751"/><path d="M173.0883 180.34635A.47625 .47625 0 00172.1358 180.34635A.47625 .47625 0 00173.0883 180.34635z" fill="rgba(60,0,190,.24705882)"/><path d="M149.63775 173.45025H153.44775V164.87775H149.63775z" style="fill:rgba(60,0,190,.24705882);stroke:rgba(60,0,190,.24705882);stroke-width:.09525;stroke-miterlimit:41.994751"/><path d="M152.0571 166.69702A.47625 .47625 0 00151.1046 166.69702A.47625 .47625 0 00152.0571 166.69702z" fill="rgba(60,0,190,.24705882)"/><path d="M154.44788 241.81117A.47625 .47625 0 00153.49538 241.81117A.47625 .47625 0 00154.44788 241.81117z" fill="rgba(60,0,190,.24705882)"/><path d="M157.25775 184.68975H167.16375V175.54575H157.25775z" style="fill:rgba(60,0,190,.24705882);stroke:rgba(60,0,190,.24705882);stroke-width:.09525;stroke-miterlimit:41.994751"/><path d="M165.1635 179.9844A.47625 .47625 0 00164.211 179.9844A.47625 .47625 0 00165.1635 179.9844z" fill="rgba(60,0,190,.24705882)"/><path d="M157.25775 215.93175H171.73575V196.11975H157.25775z" style="fill:rgba(60,0,190,.24705882);stroke:rgba(60,0,190,.24705882);stroke-width:.09525;stroke-miterlimit:41.994751"/><path d="M165.1254 207.13065A.47625 .47625 0 00164.1729 207.13065A.47625 .47625 0 00165.1254 207.13065z" fill="rgba(60,0,190,.24705882)"/><path d="M148.87575 239.55375H155.73375V225.83775H148.87575z" style="fill:rgba(60,0,190,.24705882);stroke:rgba(60,0,190,.24705882);stroke-width:.09525;stroke-miterlimit:41.994751"/><path d="M153.80017 235.70565A.47625 .47625 0 00152.84768 235.70565A.47625 .47625 0 00153.80017 235.70565z" fill="rgba(60,0,190,.24705882)"/><path d="M165.5064 195.74827A.47625 .47625 0 00164.5539 195.74827A.47625 .47625 0 00165.5064 195.74827z" fill="rgba(60,0,190,.24705882)"/><path d="M172.49775 202.1205H179.73675V195.73875H172.49775z" style="fill:rgba(60,0,190,.24705882);stroke:rgba(60,0,190,.24705882);stroke-width:.09525;stroke-miterlimit:41.994751"/><path d="M179.61293 198.79627A.47625 .47625 0 00178.66043 198.79627A.47625 .47625 0 00179.61293 198.79627z" fill="rgba(60,0,190,.24705882)"/><path d="M172.49775 215.93175H179.73675V209.3595H172.49775z" style="fill:rgba(60,0,190,.24705882);stroke:rgba(60,0,190,.24705882);stroke-width:.09525;stroke-miterlimit:41.994751"/><path d="M179.13667 212.6742A.47625 .47625 0 00178.18418 212.6742A.47625 .47625 0 00179.13667 212.6742z" fill="rgba(60,0,190,.24705882)"/><path d="M172.49775 208.9785H179.73675V202.5015H172.49775z" style="fill:rgba(60,0,190,.24705882);stroke:rgba(60,0,190,.24705882);stroke-width:.09525;stroke-miterlimit:41.994751"/><path d="M179.11762 205.76857A.47625 .47625 0 00178.16512 205.76857A.47625 .47625 0 00179.11762 205.76857z" fill="rgba(60,0,190,.24705882)"/><path d="M116.10975 244.12575H148.87575V225.83775H116.10975z" style="fill:rgba(60,0,190,.24705882);stroke:rgba(60,0,190,.24705882);stroke-width:.09525;stroke-miterlimit:41.994751"/><path d="M139.23645 235.5723A.47625 .47625 0 00138.28395 235.5723A.47625 .47625 0 00139.23645 235.5723z" fill="rgba(60,0,190,.24705882)"/><path d="M110.01375 244.12575H116.10975V225.83775H110.01375z" style="fill:rgba(60,0,190,.24705882);stroke:rgba(60,0,190,.24705882);stroke-width:.09525;stroke-miterlimit:41.994751"/><path d="M114.8715 237.2487A.47625 .47625 0 00113.919 237.2487A.47625 .47625 0 00114.8715 237.2487z" fill="rgba(60,0,190,.24705882)"/><path d="M114.2619 225.49485A.47625 .47625 0 00113.3094 225.49485A.47625 .47625 0 00114.2619 225.49485z" fill="rgba(60,0,190,.24705882)"/><path d="M180.11775 215.93175H191.54775V195.35775H180.11775z" style="fill:rgba(60,0,190,.24705882);stroke:rgba(60,0,190,.24705882);stroke-width:.09525;stroke-miterlimit:41.994751"/><path d="M186.87097 204.95895A.47625 .47625 0 00185.91848 204.95895A.47625 .47625 0 00186.87097 204.95895z" fill="rgba(60,0,190,.24705882)"/><path d="M111.53775 224.31375H116.10975V215.16975H111.53775z" style="fill:rgba(60,0,190,.24705882);stroke:rgba(60,0,190,.24705882);stroke-width:.09525;stroke-miterlimit:41.994751"/><path d="M114.34762 218.62732A.47625 .47625 0 00113.39513 218.62732A.47625 .47625 0 00114.34762 218.62732z" fill="rgba(60,0,190,.24705882)"/><path d="M180.11775 195.35775H191.54775V186.21375H180.11775z" style="fill:rgba(60,0,190,.24705882);stroke:rgba(60,0,190,.24705882);stroke-width:.09525;stroke-miterlimit:41.994751"/><path d="M187.0329 190.33808A.47625 .47625 0 00186.0804 190.33808A.47625 .47625 0 00187.0329 190.33808z" fill="rgba(60,0,190,.24705882)"/><path d="M110.01375 215.16975H140.4366V193.07175H110.01375z" style="fill:rgba(60,0,190,.24705882);stroke:rgba(60,0,190,.24705882);stroke-width:.09525;stroke-miterlimit:41.994751"/><path d="M127.73025 207.00682A.47625 .47625 0 00126.77775 207.00682A.47625 .47625 0 00127.73025 207.00682z" fill="rgba(60,0,190,.24705882)"/><path d="M167.16375 195.35775H180.11775V186.21375H167.16375z" style="fill:rgba(60,0,190,.24705882);stroke:rgba(60,0,190,.24705882);stroke-width:.09525;stroke-miterlimit:41.994751"/><path d="M174.88852 190.78575A.47625 .47625 0 00173.93603 190.78575A.47625 .47625 0 00174.88852 190.78575z" fill="rgba(60,0,190,.24705882)"/><path d="M125.78715 172.88827A.47625 .47625 0 00124.83465 172.88827A.47625 .47625 0 00125.78715 172.88827z" fill="rgba(60,0,190,.24705882)"/><path d="M140.57948 173.30737A.47625 .47625 0 00139.62698 173.30737A.47625 .47625 0 00140.57948 173.30737z" fill="rgba(60,0,190,.24705882)"/><path d="M157.25775 195.35775H167.16375V186.21375H157.25775z" style="fill:rgba(60,0,190,.24705882);stroke:rgba(60,0,190,.24705882);stroke-width:.09525;stroke-miterlimit:41.994751"/><path d="M165.44925 190.90957A.47625 .47625 0 00164.49675 190.90957A.47625 .47625 0 00165.44925 190.90957z" fill="rgba(60,0,190,.24705882)"/><path d="M151.99043 174.05032A.47625 .47625 0 00151.03793 174.05032A.47625 .47625 0 00151.99043 174.05032z" fill="rgba(60,0,190,.24705882)"/><path d="M157.10535 180.07012A.47625 .47625 0 00156.15285 180.07012A.47625 .47625 0 00157.10535 180.07012z" fill="rgba(60,0,190,.24705882)"/><path d="M156.98152 190.70955A.47625 .47625 0 00156.02902 190.70955A.47625 .47625 0 00156.98152 190.70955z" fill="rgba(60,0,190,.24705882)"/><path d="M127.254 207.00682L135.58837 185.72797" style="fill:none;stroke:rgba(60,0,190,.24705882);stroke-width:.09525;stroke-miterlimit:41.994751"/><path d="M113.78565 225.49485L114.39525 237.2487" style="fill:none;stroke:rgba(60,0,190,.24705882);stroke-width:.09525;stroke-miterlimit:41.994751"/><path d="M135.58837 185.72797L140.10323 173.30737" style="fill:none;stroke:rgba(60,0,190,.24705882);stroke-width:.09525;stroke-miterlimit:41.994751"/><path d="M156.50527 190.70955L164.973 190.90957" style="fill:none;stroke:rgba(60,0,190,.24705882);stroke-width:.09525;stroke-miterlimit:41.994751"/><path d="M135.58837 185.72797L151.51418 174.05032" style="fill:none;stroke:rgba(60,0,190,.24705882);stroke-width:.09525;stroke-miterlimit:41.994751"/><path d="M156.6291 180.07012L164.68725 179.9844" style="fill:none;stroke:rgba(60,0,190,.24705882);stroke-width:.09525;stroke-miterlimit:41.994751"/><path d="M135.58837 185.72797L156.6291 180.07012" style="fill:none;stroke:rgba(60,0,190,.24705882);stroke-width:.09525;stroke-miterlimit:41.994751"/><path d="M151.51418 174.05032L151.58085 166.69702" style="fill:none;stroke:rgba(60,0,190,.24705882);stroke-width:.09525;stroke-miterlimit:41.994751"/><path d="M135.58837 185.72797L156.50527 190.70955" style="fill:none;stroke:rgba(60,0,190,.24705882);stroke-width:.09525;stroke-miterlimit:41.994751"/><path d="M164.973 190.90957L174.41227 190.78575" style="fill:none;stroke:rgba(60,0,190,.24705882);stroke-width:.09525;stroke-miterlimit:41.994751"/><path d="M164.973 190.90957L165.03015 195.74827" style="fill:none;stroke:rgba(60,0,190,.24705882);stroke-width:.09525;stroke-miterlimit:41.994751"/><path d="M164.48723 164.00145L164.80155 175.02187" style="fill:none;stroke:rgba(60,0,190,.24705882);stroke-width:.09525;stroke-miterlimit:41.994751"/><path d="M127.254 207.00682L113.87138 218.62732" style="fill:none;stroke:rgba(60,0,190,.24705882);stroke-width:.09525;stroke-miterlimit:41.994751"/><path d="M127.254 207.00682L122.28195 219.4941" style="fill:none;stroke:rgba(60,0,190,.24705882);stroke-width:.09525;stroke-miterlimit:41.994751"/><path d="M127.254 207.00682L108.6612 212.57895" style="fill:none;stroke:rgba(60,0,190,.24705882);stroke-width:.09525;stroke-miterlimit:41.994751"/><path d="M127.254 207.00682L108.65168 205.95907" style="fill:none;stroke:rgba(60,0,190,.24705882);stroke-width:.09525;stroke-miterlimit:41.994751"/><path d="M174.41227 190.78575L186.55665 190.33808" style="fill:none;stroke:rgba(60,0,190,.24705882);stroke-width:.09525;stroke-miterlimit:41.994751"/><path d="M113.87138 218.62732L113.78565 225.49485" style="fill:none;stroke:rgba(60,0,190,.24705882);stroke-width:.09525;stroke-miterlimit:41.994751"/><path d="M186.55665 190.33808L186.39472 204.95895" style="fill:none;stroke:rgba(60,0,190,.24705882);stroke-width:.09525;stroke-miterlimit:41.994751"/><path d="M135.58837 185.72797L125.3109 172.88827" style="fill:none;stroke:rgba(60,0,190,.24705882);stroke-width:.09525;stroke-miterlimit:41.994751"/><path d="M186.39472 204.95895L178.64137 205.76857" style="fill:none;stroke:rgba(60,0,190,.24705882);stroke-width:.09525;stroke-miterlimit:41.994751"/><path d="M114.39525 237.2487L138.7602 235.5723" style="fill:none;stroke:rgba(60,0,190,.24705882);stroke-width:.09525;stroke-miterlimit:41.994751"/><path d="M186.39472 204.95895L178.66043 212.6742" style="fill:none;stroke:rgba(60,0,190,.24705882);stroke-width:.09525;stroke-miterlimit:41.994751"/><path d="M138.7602 235.5723L153.32393 235.70565" style="fill:none;stroke:rgba(60,0,190,.24705882);stroke-width:.09525;stroke-miterlimit:41.994751"/><path d="M186.39472 204.95895L179.13668 198.79627" style="fill:none;stroke:rgba(60,0,190,.24705882);stroke-width:.09525;stroke-miterlimit:41.994751"/><path d="M153.32393 235.70565L153.97163 241.81117" style="fill:none;stroke:rgba(60,0,190,.24705882);stroke-width:.09525;stroke-miterlimit:41.994751"/><path d="M165.03015 195.74827L164.64915 207.13065" style="fill:none;stroke:rgba(60,0,190,.24705882);stroke-width:.09525;stroke-miterlimit:41.994751"/><path d="M164.68725 179.9844L172.61205 180.34635" style="fill:none;stroke:rgba(60,0,190,.24705882);stroke-width:.09525;stroke-miterlimit:41.994751"/><path d="M186.48045 166.10647L178.97475 172.75492" style="fill:none;stroke:rgba(60,0,190,.24705882);stroke-width:.09525;stroke-miterlimit:41.994751"/><path d="M179.1462 166.05885L186.48045 166.10647" style="fill:none;stroke:rgba(60,0,190,.24705882);stroke-width:.09525;stroke-miterlimit:41.994751"/><path d="M164.68725 179.9844L164.80155 175.02187" style="fill:none;stroke:rgba(60,0,190,.24705882);stroke-width:.09525;stroke-miterlimit:41.994751"/><path d="M172.61205 180.34635L185.99468 180.27015" style="fill:none;stroke:rgba(60,0,190,.24705882);stroke-width:.09525;stroke-miterlimit:41.994751"/><path d="M132.86423 219.59887L127.254 207.00682" style="fill:none;stroke:rgba(60,0,190,.24705882);stroke-width:.09525;stroke-miterlimit:41.994751"/><path d="M185.99468 180.27015L186.48045 166.10647" style="fill:none;stroke:rgba(60,0,190,.24705882);stroke-width:.09525;stroke-miterlimit:41.994751"/><path d="M148.77097 193.21462L135.58837 185.72797" style="fill:none;stroke:rgba(60,0,190,.24705882);stroke-width:.09525;stroke-miterlimit:41.994751"/><path d="M148.75192 209.6262L148.77097 193.21462" style="fill:none;stroke:rgba(60,0,190,.24705882);stroke-width:.09525;stroke-miterlimit:41.994751"/><path d="M186.48045 166.10647L178.9938 158.43885" style="fill:none;stroke:rgba(60,0,190,.24705882);stroke-width:.09525;stroke-miterlimit:41.994751"/><path d="M151.76182 147.828H151.78087" style="fill:none;stroke:rgba(56,0,194,.24705882);stroke-width:.09525;stroke-miterlimit:41.994751"/><path d="M103.91775 209.45475L108.65168 205.95907" style="fill:none;stroke:rgba(52,0,198,.24705882);stroke-width:.09525;stroke-miterlimit:41.994751"/><path d="M103.91775 209.45475L108.6612 212.57895" style="fill:none;stroke:rgba(52,0,198,.24705882);stroke-width:.09525;stroke-miterlimit:41.994751"/><path d="M104.394 209.45475A.47625 .47625 0 00103.4415 209.45475A.47625 .47625 0 00104.394 209.45475z" fill="rgba(48,0,206,.24705882)"/><path d="M155.26702 160.72485L164.48723 164.00145" style="fill:none;stroke:rgba(40,0,214,.24705882);stroke-width:.09525;stroke-miterlimit:41.994751"/><path d="M151.57133 164.38245L151.58085 166.69702" style="fill:none;stroke:rgba(40,0,214,.24705882);stroke-width:.09525;stroke-miterlimit:41.994751"/><path d="M97.82175 209.61667L103.91775 209.45475" style="fill:none;stroke:rgba(40,0,214,.24705882);stroke-width:.09525;stroke-miterlimit:41.994751"/><path d="M98.298 209.61667A.47625 .47625 0 0097.3455 209.61667A.47625 .47625 0 0098.298 209.61667z" fill="rgba(32,0,222,.24705882)"/><path d="M152.25712 147.828A.47625 .47625 0 00151.30462 147.828A.47625 .47625 0 00152.25712 147.828z" fill="rgba(28,0,226,.24705882)"/><path d="M151.78087 147.828L151.6761 149.29485" style="fill:none;stroke:rgba(24,0,230,.24705882);stroke-width:.09525;stroke-miterlimit:41.994751"/><path d="M149.63775 158.78175H153.44775V151.257H149.63775z" style="fill:rgba(16,0,234,.24705882);stroke:rgba(16,0,234,.24705882);stroke-width:.09525;stroke-miterlimit:41.994751"/><path d="M152.08567 154.9146A.47625 .47625 0 00151.13317 154.9146A.47625 .47625 0 00152.08567 154.9146z" fill="rgba(16,0,234,.24705882)"/><path d="M152.04757 164.38245A.47625 .47625 0 00151.09508 164.38245A.47625 .47625 0 00152.04757 164.38245z" fill="rgba(16,0,234,.24705882)"/><path d="M153.44775 162.59175H157.25775V158.78175H153.44775z" style="fill:rgba(16,0,234,.24705882);stroke:rgba(16,0,234,.24705882);stroke-width:.09525;stroke-miterlimit:41.994751"/><path d="M155.74327 160.72485A.47625 .47625 0 00154.79077 160.72485A.47625 .47625 0 00155.74327 160.72485z" fill="rgba(16,0,234,.24705882)"/><path d="M149.63775 162.59175H153.44775V158.78175H149.63775z" style="fill:rgba(16,0,234,.24705882);stroke:rgba(16,0,234,.24705882);stroke-width:.09525;stroke-miterlimit:41.994751"/><path d="M152.03805 160.22955A.47625 .47625 0 00151.08555 160.22955A.47625 .47625 0 00152.03805 160.22955z" fill="rgba(16,0,234,.24705882)"/><path d="M152.15235 149.29485A.47625 .47625 0 00151.19985 149.29485A.47625 .47625 0 00152.15235 149.29485z" fill="rgba(16,0,234,.24705882)"/><path d="M151.5618 160.22955L151.57133 164.38245" style="fill:none;stroke:rgba(16,0,234,.24705882);stroke-width:.09525;stroke-miterlimit:41.994751"/><path d="M151.5618 160.22955L155.26702 160.72485" style="fill:none;stroke:rgba(16,0,234,.24705882);stroke-width:.09525;stroke-miterlimit:41.994751"/><path d="M151.60942 154.9146L151.5618 160.22955" style="fill:none;stroke:rgba(16,0,234,.24705882);stroke-width:.09525;stroke-miterlimit:41.994751"/><path d="M151.6761 149.29485L151.60942 154.9146" style="fill:none;stroke:rgba(16,0,234,.24705882);stroke-width:.09525;stroke-miterlimit:41.994751"/><path d="M85.62975 208.81658L97.82175 209.61667" style="fill:none;stroke:rgba(16,0,238,.24705882);stroke-width:.09525;stroke-miterlimit:41.994751"/><path d="M86.106 208.81658A.47625 .47625 0 0085.1535 208.81658A.47625 .47625 0 0086.106 208.81658z" fill="rgba(0,0,250,.24705882)"/><path d="M77.809725 208.98802L85.62975 208.81658" style="fill:none;stroke:rgba(0,0,255,.24705882);stroke-width:.09525;stroke-miterlimit:41.994751"/><path d="M71.904225 215.16975H85.620225V202.97775H71.904225z" style="fill:rgba(0,0,255,.24705882);stroke:rgba(0,0,255,.24705882);stroke-width:.09525;stroke-miterlimit:41.994751"/><path d="M78.285975 208.98802A.47625 .47625 0 0077.333475 208.98802A.47625 .47625 0 0078.285975 208.98802z" fill="rgba(0,0,255,.24705882)"/></svg>