<svg version="1.1" width="167.259mm" height="185.928mm" viewBox="0 0 167.259 185.928" xmlns="http://www.w3.org/2000/svg" xmlns:xlink="http://www.w3.org/1999/xlink"><path d="M92.67825 74.58075H94.58325" style="fill:none;stroke:#f00;stroke-width:.09525;stroke-miterlimit:41.994751"/><path d="M92.67825 74.58075V72.67575" style="fill:none;stroke:#0f0;stroke-width:.09525;stroke-miterlimit:41.994751"/><path d="M136.04558 34.72815H145.4658V25.612725H136.04558z" style="fill:rgba(255,0,0,.24705882);stroke:rgba(255,0,0,.24705882);stroke-width:.09525;stroke-miterlimit:41.994751"/><path d="M144.86572 32.1183A.47625 .47625 0 00143.91323 32.1183A.47625 .47625 0 00144.86572 32.1183z" fill="rgba(255,0,0,.24705882)"/><path d="M2.009775 31.90875H27.98445V2.667H2.009775z" style="fill:rgba(255,0,0,.24705882);stroke:rgba(255,0,0,.24705882);stroke-width:.09525;stroke-miterlimit:41.994751"/><path d="M16.78305 31.22295A.47625 .47625 0 0015.83055 31.22295A.47625 .47625 0 0016.78305 31.22295z" fill="rgba(255,0,0,.24705882)"/><path d="M45.85335 180.46065H114.69053V134.6835H45.85335z" style="fill:rgba(255,0,0,.24705882);stroke:rgba(255,0,0,.24705882);stroke-width:.09525;stroke-miterlimit:41.994751"/><path d="M80.495775 147.78037A.47625 .47625 0 0079.543275 147.78037A.47625 .47625 0 0080.495775 147.78037z" fill="rgba(255,0,0,.24705882)"/><path d="M116.0526 181.14645H132.207V139.96035H116.0526z" style="fill:rgba(255,0,0,.24705882);stroke:rgba(255,0,0,.24705882);stroke-width:.09525;stroke-miterlimit:41.994751"/><path d="M117.9957 150.71407A.47625 .47625 0 00117.0432 150.71407A.47625 .47625 0 00117.9957 150.71407z" fill="rgba(255,0,0,.24705882)"/><path d="M1.65735 184.16587H13.363575V162.08693H1.65735z" style="fill:rgba(255,0,0,.24705882);stroke:rgba(255,0,0,.24705882);stroke-width:.09525;stroke-miterlimit:41.994751"/><path d="M5.591175 180.79402A.47625 .47625 0 004.638675 180.79402A.47625 .47625 0 005.591175 180.79402z" fill="rgba(255,0,0,.24705882)"/><path d="M16.3449 182.9943H45.138975V162.48698H16.3449z" style="fill:rgba(255,0,0,.24705882);stroke:rgba(255,0,0,.24705882);stroke-width:.09525;stroke-miterlimit:41.994751"/><path d="M43.405425 178.06987A.47625 .47625 0 0042.452925 178.06987A.47625 .47625 0 0043.405425 178.06987z" fill="rgba(255,0,0,.24705882)"/><path d="M150.9522 183.55627H165.4683V118.31955H150.9522z" style="fill:rgba(255,0,0,.24705882);stroke:rgba(255,0,0,.24705882);stroke-width:.09525;stroke-miterlimit:41.994751"/><path d="M163.43948 178.59375A.47625 .47625 0 00162.48698 178.59375A.47625 .47625 0 00163.43948 178.59375z" fill="rgba(255,0,0,.24705882)"/><path d="M156.03855 117.55755H165.354V34.604325H156.03855z" style="fill:rgba(255,0,0,.24705882);stroke:rgba(255,0,0,.24705882);stroke-width:.09525;stroke-miterlimit:41.994751"/><path d="M161.66782 73.885425A.47625 .47625 0 00160.71533 73.885425A.47625 .47625 0 00161.66782 73.885425z" fill="rgba(255,0,0,.24705882)"/><path d="M2.7813 160.25813H28.2321V130.32105H2.7813z" style="fill:rgba(255,0,0,.24705882);stroke:rgba(255,0,0,.24705882);stroke-width:.09525;stroke-miterlimit:41.994751"/><path d="M14.335125 139.2936A.47625 .47625 0 0013.382625 139.2936A.47625 .47625 0 0014.335125 139.2936z" fill="rgba(255,0,0,.24705882)"/><path d="M1.819275 129.59715H28.203525V32.28975H1.819275z" style="fill:rgba(255,0,0,.24705882);stroke:rgba(255,0,0,.24705882);stroke-width:.09525;stroke-miterlimit:41.994751"/><path d="M15.3924 97.221675A.47625 .47625 0 0014.4399 97.221675A.47625 .47625 0 0015.3924 97.221675z" fill="rgba(255,0,0,.24705882)"/><path d="M132.68325 160.67722H149.37105V118.6053H132.68325z" style="fill:rgba(255,0,0,.24705882);stroke:rgba(255,0,0,.24705882);stroke-width:.09525;stroke-miterlimit:41.994751"/><path d="M142.84643 150.14257A.47625 .47625 0 00141.89393 150.14257A.47625 .47625 0 00142.84643 150.14257z" fill="rgba(255,0,0,.24705882)"/><path d="M132.83565 181.4322H150.16163V161.53447H132.83565z" style="fill:rgba(255,0,0,.24705882);stroke:rgba(255,0,0,.24705882);stroke-width:.09525;stroke-miterlimit:41.994751"/><path d="M143.51317 177.5079A.47625 .47625 0 00142.56068 177.5079A.47625 .47625 0 00143.51317 177.5079z" fill="rgba(255,0,0,.24705882)"/><path d="M29.50845 161.95358H45.51045V117.89093H29.50845z" style="fill:rgba(255,0,0,.24705882);stroke:rgba(255,0,0,.24705882);stroke-width:.09525;stroke-miterlimit:41.994751"/><path d="M45.1485 149.47582A.47625 .47625 0 0044.196 149.47582A.47625 .47625 0 0045.1485 149.47582z" fill="rgba(255,0,0,.24705882)"/><path d="M145.78965 34.109025H165.43972V1.6764H145.78965z" style="fill:rgba(255,0,0,.24705882);stroke:rgba(255,0,0,.24705882);stroke-width:.09525;stroke-miterlimit:41.994751"/><path d="M161.07727 20.193A.47625 .47625 0 00160.12477 20.193A.47625 .47625 0 00161.07727 20.193z" fill="rgba(255,0,0,.24705882)"/><path d="M108.5088 139.47457H132.00698V117.35752H108.5088z" style="fill:rgba(255,0,0,.24705882);stroke:rgba(255,0,0,.24705882);stroke-width:.09525;stroke-miterlimit:41.994751"/><path d="M117.71947 137.67435A.47625 .47625 0 00116.76698 137.67435A.47625 .47625 0 00117.71947 137.67435z" fill="rgba(255,0,0,.24705882)"/><path d="M32.0802 25.01265H145.34197V1.96215H32.0802z" style="fill:rgba(255,0,0,.24705882);stroke:rgba(255,0,0,.24705882);stroke-width:.09525;stroke-miterlimit:41.994751"/><path d="M145.03717 21.193125A.47625 .47625 0 00144.08468 21.193125A.47625 .47625 0 00145.03717 21.193125z" fill="rgba(255,0,0,.24705882)"/><path d="M161.19158 73.885425L162.96323 178.59375" style="fill:none;stroke:rgba(255,0,0,.24705882);stroke-width:.09525;stroke-miterlimit:41.994751"/><path d="M14.91615 97.221675L16.3068 31.22295" style="fill:none;stroke:rgba(255,0,0,.24705882);stroke-width:.09525;stroke-miterlimit:41.994751"/><path d="M160.60102 20.193L144.56092 21.193125" style="fill:none;stroke:rgba(255,0,0,.24705882);stroke-width:.09525;stroke-miterlimit:41.994751"/><path d="M16.3068 31.22295L144.56092 21.193125" style="fill:none;stroke:rgba(255,0,0,.24705882);stroke-width:.09525;stroke-miterlimit:41.994751"/><path d="M117.24322 137.67435L117.51945 150.71407" style="fill:none;stroke:rgba(255,0,0,.24705882);stroke-width:.09525;stroke-miterlimit:41.994751"/><path d="M44.67225 149.47582L13.858875 139.2936" style="fill:none;stroke:rgba(255,0,0,.24705882);stroke-width:.09525;stroke-miterlimit:41.994751"/><path d="M44.67225 149.47582L42.929175 178.06987" style="fill:none;stroke:rgba(255,0,0,.24705882);stroke-width:.09525;stroke-miterlimit:41.994751"/><path d="M143.03692 177.5079L142.37018 150.14257" style="fill:none;stroke:rgba(255,0,0,.24705882);stroke-width:.09525;stroke-miterlimit:41.994751"/><path d="M161.19158 73.885425L160.60102 20.193" style="fill:none;stroke:rgba(255,0,0,.24705882);stroke-width:.09525;stroke-miterlimit:41.994751"/><path d="M144.56092 21.193125L144.38948 32.1183" style="fill:none;stroke:rgba(255,0,0,.24705882);stroke-width:.09525;stroke-miterlimit:41.994751"/><path d="M14.91615 97.221675L13.858875 139.2936" style="fill:none;stroke:rgba(255,0,0,.24705882);stroke-width:.09525;stroke-miterlimit:41.994751"/><path d="M42.929175 178.06987L5.114925 180.79402" style="fill:none;stroke:rgba(255,0,0,.24705882);stroke-width:.09525;stroke-miterlimit:41.994751"/><path d="M117.51945 150.71407L142.37018 150.14257" style="fill:none;stroke:rgba(255,0,0,.24705882);stroke-width:.09525;stroke-miterlimit:41.994751"/><path d="M5.114925 180.79402L13.858875 139.2936" style="fill:none;stroke:rgba(255,0,0,.24705882);stroke-width:.09525;stroke-miterlimit:41.994751"/><path d="M117.51945 150.71407L80.019525 147.78037" style="fill:none;stroke:rgba(255,0,0,.24705882);stroke-width:.09525;stroke-miterlimit:41.994751"/><path d="M80.019525 147.78037L44.67225 149.47582" style="fill:none;stroke:rgba(255,0,0,.24705882);stroke-width:.09525;stroke-miterlimit:41.994751"/><path d="M162.96323 178.59375L143.03692 177.5079" style="fill:none;stroke:rgba(255,0,0,.24705882);stroke-width:.09525;stroke-miterlimit:41.994751"/><path d="M117.24322 137.67435L117.22418 111.07102" style="fill:none;stroke:rgba(246,0,4,.24705882);stroke-width:.09525;stroke-miterlimit:41.994751"/><path d="M128.9304 98.936175A.47625 .47625 0 00127.9779 98.936175A.47625 .47625 0 00128.9304 98.936175z" fill="rgba(238,0,12,.24705882)"/><path d="M81.78165 61.2267H91.38285V40.224075H81.78165z" style="fill:rgba(238,0,12,.24705882);stroke:rgba(238,0,12,.24705882);stroke-width:.09525;stroke-miterlimit:41.994751"/><path d="M87.61095 46.15815A.47625 .47625 0 0086.65845 46.15815A.47625 .47625 0 0087.61095 46.15815z" fill="rgba(238,0,12,.24705882)"/><path d="M42.205275 88.10625H45.9105V85.0773H42.205275z" style="fill:rgba(238,0,12,.24705882);stroke:rgba(238,0,12,.24705882);stroke-width:.09525;stroke-miterlimit:41.994751"/><path d="M44.472225 86.6775A.47625 .47625 0 0043.519725 86.6775A.47625 .47625 0 0044.472225 86.6775z" fill="rgba(238,0,12,.24705882)"/><path d="M34.15665 83.83905H54.206775V64.6176H34.15665z" style="fill:rgba(238,0,12,.24705882);stroke:rgba(238,0,12,.24705882);stroke-width:.09525;stroke-miterlimit:41.994751"/><path d="M44.224575 70.485A.47625 .47625 0 0043.272075 70.485A.47625 .47625 0 0044.224575 70.485z" fill="rgba(238,0,12,.24705882)"/><path d="M66.227325 88.058625H70.094475V85.4583H66.227325z" style="fill:rgba(238,0,12,.24705882);stroke:rgba(238,0,12,.24705882);stroke-width:.09525;stroke-miterlimit:41.994751"/><path d="M68.75145 86.73465A.47625 .47625 0 0067.79895 86.73465A.47625 .47625 0 0068.75145 86.73465z" fill="rgba(238,0,12,.24705882)"/><path d="M90.678 87.963375H94.249875V85.886925H90.678z" style="fill:rgba(238,0,12,.24705882);stroke:rgba(238,0,12,.24705882);stroke-width:.09525;stroke-miterlimit:41.994751"/><path d="M93.202125 86.77275A.47625 .47625 0 0092.249625 86.77275A.47625 .47625 0 0093.202125 86.77275z" fill="rgba(238,0,12,.24705882)"/><path d="M102.57473 103.94633H105.22267V94.0308H102.57473z" style="fill:rgba(238,0,12,.24705882);stroke:rgba(238,0,12,.24705882);stroke-width:.09525;stroke-miterlimit:41.994751"/><path d="M105.27983 98.96475A.47625 .47625 0 00104.32733 98.96475A.47625 .47625 0 00105.27983 98.96475z" fill="rgba(238,0,12,.24705882)"/><path d="M105.39413 108.2802H127.9779V86.3727H105.39413z" style="fill:rgba(238,0,12,.24705882);stroke:rgba(238,0,12,.24705882);stroke-width:.09525;stroke-miterlimit:41.994751"/><path d="M117.54802 98.955225A.47625 .47625 0 00116.59553 98.955225A.47625 .47625 0 00117.54802 98.955225z" fill="rgba(238,0,12,.24705882)"/><path d="M57.502425 85.143975H79.30515V64.246125H57.502425z" style="fill:rgba(238,0,12,.24705882);stroke:rgba(238,0,12,.24705882);stroke-width:.09525;stroke-miterlimit:41.994751"/><path d="M69.122925 70.570725A.47625 .47625 0 0068.170425 70.570725A.47625 .47625 0 0069.122925 70.570725z" fill="rgba(238,0,12,.24705882)"/><path d="M111.95685 114.0333H121.70092V108.6231H111.95685z" style="fill:rgba(238,0,12,.24705882);stroke:rgba(238,0,12,.24705882);stroke-width:.09525;stroke-miterlimit:41.994751"/><path d="M117.70042 111.07102A.47625 .47625 0 00116.74793 111.07102A.47625 .47625 0 00117.70042 111.07102z" fill="rgba(238,0,12,.24705882)"/><path d="M127.83503 85.4202H152.11425V64.341375H127.83503z" style="fill:rgba(238,0,12,.24705882);stroke:rgba(238,0,12,.24705882);stroke-width:.09525;stroke-miterlimit:41.994751"/><path d="M141.1224 74.5236A.47625 .47625 0 00140.1699 74.5236A.47625 .47625 0 00141.1224 74.5236z" fill="rgba(238,0,12,.24705882)"/><path d="M33.594675 105.83227H54.568725V88.992075H33.594675z" style="fill:rgba(238,0,12,.24705882);stroke:rgba(238,0,12,.24705882);stroke-width:.09525;stroke-miterlimit:41.994751"/><path d="M44.44365 99.11715A.47625 .47625 0 0043.49115 99.11715A.47625 .47625 0 0044.44365 99.11715z" fill="rgba(238,0,12,.24705882)"/><path d="M34.3662 60.893325H43.14825V42.3291H34.3662z" style="fill:rgba(238,0,12,.24705882);stroke:rgba(238,0,12,.24705882);stroke-width:.09525;stroke-miterlimit:41.994751"/><path d="M38.11905 45.519975A.47625 .47625 0 0037.16655 45.519975A.47625 .47625 0 0038.11905 45.519975z" fill="rgba(238,0,12,.24705882)"/><path d="M69.370575 63.3984H78.96225V40.357425H69.370575z" style="fill:rgba(238,0,12,.24705882);stroke:rgba(238,0,12,.24705882);stroke-width:.09525;stroke-miterlimit:41.994751"/><path d="M75.428475 62.855475A.47625 .47625 0 0074.475975 62.855475A.47625 .47625 0 0075.428475 62.855475z" fill="rgba(238,0,12,.24705882)"/><path d="M106.57523 85.78215H127.1778V60.664725H106.57523z" style="fill:rgba(238,0,12,.24705882);stroke:rgba(238,0,12,.24705882);stroke-width:.09525;stroke-miterlimit:41.994751"/><path d="M117.63375 74.399775A.47625 .47625 0 00116.68125 74.399775A.47625 .47625 0 00117.63375 74.399775z" fill="rgba(238,0,12,.24705882)"/><path d="M75.38085 42.414825A.47625 .47625 0 0074.42835 42.414825A.47625 .47625 0 0075.38085 42.414825z" fill="rgba(238,0,12,.24705882)"/><path d="M56.969025 60.579H67.294125V42.4815H56.969025z" style="fill:rgba(238,0,12,.24705882);stroke:rgba(238,0,12,.24705882);stroke-width:.09525;stroke-miterlimit:41.994751"/><path d="M62.7888 50.358675A.47625 .47625 0 0061.8363 50.358675A.47625 .47625 0 0062.7888 50.358675z" fill="rgba(238,0,12,.24705882)"/><path d="M59.9694 63.8937H64.341375V61.064775H59.9694z" style="fill:rgba(238,0,12,.24705882);stroke:rgba(238,0,12,.24705882);stroke-width:.09525;stroke-miterlimit:41.994751"/><path d="M62.38875 62.684025A.47625 .47625 0 0061.43625 62.684025A.47625 .47625 0 0062.38875 62.684025z" fill="rgba(238,0,12,.24705882)"/><path d="M105.63225 60.17895H126.32055V39.138225H105.63225z" style="fill:rgba(238,0,12,.24705882);stroke:rgba(238,0,12,.24705882);stroke-width:.09525;stroke-miterlimit:41.994751"/><path d="M117.5004 47.2059A.47625 .47625 0 00116.5479 47.2059A.47625 .47625 0 00117.5004 47.2059z" fill="rgba(238,0,12,.24705882)"/><path d="M135.83603 109.6899H150.59025V87.8586H135.83603z" style="fill:rgba(238,0,12,.24705882);stroke:rgba(238,0,12,.24705882);stroke-width:.09525;stroke-miterlimit:41.994751"/><path d="M142.16062 98.8695A.47625 .47625 0 00141.20812 98.8695A.47625 .47625 0 00142.16062 98.8695z" fill="rgba(238,0,12,.24705882)"/><path d="M81.8769 85.086825H103.5558V64.7319H81.8769z" style="fill:rgba(238,0,12,.24705882);stroke:rgba(238,0,12,.24705882);stroke-width:.09525;stroke-miterlimit:41.994751"/><path d="M92.954475 69.55155A.47625 .47625 0 0092.001975 69.55155A.47625 .47625 0 0092.954475 69.55155z" fill="rgba(238,0,12,.24705882)"/><path d="M50.65395 70.646925A.47625 .47625 0 0049.70145 70.646925A.47625 .47625 0 0050.65395 70.646925z" fill="rgba(238,0,12,.24705882)"/><path d="M45.005625 62.645925H54.644925V39.138225H45.005625z" style="fill:rgba(238,0,12,.24705882);stroke:rgba(238,0,12,.24705882);stroke-width:.09525;stroke-miterlimit:41.994751"/><path d="M51.75885 44.396025A.47625 .47625 0 0050.80635 44.396025A.47625 .47625 0 0051.75885 44.396025z" fill="rgba(238,0,12,.24705882)"/><path d="M93.97365 64.3509H103.65105V51.958875H93.97365z" style="fill:rgba(238,0,12,.24705882);stroke:rgba(238,0,12,.24705882);stroke-width:.09525;stroke-miterlimit:41.994751"/><path d="M99.5172 63.236475A.47625 .47625 0 0098.5647 63.236475A.47625 .47625 0 0099.5172 63.236475z" fill="rgba(238,0,12,.24705882)"/><path d="M56.911875 110.39475H78.9813V88.458675H56.911875z" style="fill:rgba(238,0,12,.24705882);stroke:rgba(238,0,12,.24705882);stroke-width:.09525;stroke-miterlimit:41.994751"/><path d="M68.665725 98.917125A.47625 .47625 0 0067.713225 98.917125A.47625 .47625 0 0068.665725 98.917125z" fill="rgba(238,0,12,.24705882)"/><path d="M93.906975 51.41595H103.58438V39.157275H93.906975z" style="fill:rgba(238,0,12,.24705882);stroke:rgba(238,0,12,.24705882);stroke-width:.09525;stroke-miterlimit:41.994751"/><path d="M99.61245 41.91A.47625 .47625 0 0098.65995 41.91A.47625 .47625 0 0099.61245 41.91z" fill="rgba(238,0,12,.24705882)"/><path d="M84.5439 64.4271H88.56345V61.693425H84.5439z" style="fill:rgba(238,0,12,.24705882);stroke:rgba(238,0,12,.24705882);stroke-width:.09525;stroke-miterlimit:41.994751"/><path d="M87.163275 63.750825A.47625 .47625 0 0086.210775 63.750825A.47625 .47625 0 0087.163275 63.750825z" fill="rgba(238,0,12,.24705882)"/><path d="M82.5627 107.88015H101.45078V88.48725H82.5627z" style="fill:rgba(238,0,12,.24705882);stroke:rgba(238,0,12,.24705882);stroke-width:.09525;stroke-miterlimit:41.994751"/><path d="M92.059125 99.6315A.47625 .47625 0 0091.106625 99.6315A.47625 .47625 0 0092.059125 99.6315z" fill="rgba(238,0,12,.24705882)"/><path d="M68.189475 98.917125L68.2752 86.73465" style="fill:none;stroke:rgba(238,0,12,.24705882);stroke-width:.09525;stroke-miterlimit:41.994751"/><path d="M68.646675 70.570725L74.952225 62.855475" style="fill:none;stroke:rgba(238,0,12,.24705882);stroke-width:.09525;stroke-miterlimit:41.994751"/><path d="M128.45415 98.936175L117.07178 98.955225" style="fill:none;stroke:rgba(238,0,12,.24705882);stroke-width:.09525;stroke-miterlimit:41.994751"/><path d="M68.189475 98.917125L43.9674 99.11715" style="fill:none;stroke:rgba(238,0,12,.24705882);stroke-width:.09525;stroke-miterlimit:41.994751"/><path d="M99.04095 63.236475L99.1362 41.91" style="fill:none;stroke:rgba(238,0,12,.24705882);stroke-width:.09525;stroke-miterlimit:41.994751"/><path d="M92.478225 69.55155L86.687025 63.750825" style="fill:none;stroke:rgba(238,0,12,.24705882);stroke-width:.09525;stroke-miterlimit:41.994751"/><path d="M92.478225 69.55155L99.04095 63.236475" style="fill:none;stroke:rgba(238,0,12,.24705882);stroke-width:.09525;stroke-miterlimit:41.994751"/><path d="M50.1777 70.646925L51.2826 44.396025" style="fill:none;stroke:rgba(238,0,12,.24705882);stroke-width:.09525;stroke-miterlimit:41.994751"/><path d="M61.9125 62.684025L62.31255 50.358675" style="fill:none;stroke:rgba(238,0,12,.24705882);stroke-width:.09525;stroke-miterlimit:41.994751"/><path d="M43.995975 86.6775L43.748325 70.485" style="fill:none;stroke:rgba(238,0,12,.24705882);stroke-width:.09525;stroke-miterlimit:41.994751"/><path d="M61.9125 62.684025L68.646675 70.570725" style="fill:none;stroke:rgba(238,0,12,.24705882);stroke-width:.09525;stroke-miterlimit:41.994751"/><path d="M117.02415 47.2059L117.1575 74.399775" style="fill:none;stroke:rgba(238,0,12,.24705882);stroke-width:.09525;stroke-miterlimit:41.994751"/><path d="M91.582875 99.6315L104.80358 98.96475" style="fill:none;stroke:rgba(238,0,12,.24705882);stroke-width:.09525;stroke-miterlimit:41.994751"/><path d="M74.952225 62.855475L74.9046 42.414825" style="fill:none;stroke:rgba(238,0,12,.24705882);stroke-width:.09525;stroke-miterlimit:41.994751"/><path d="M117.1575 74.399775L117.07178 98.955225" style="fill:none;stroke:rgba(238,0,12,.24705882);stroke-width:.09525;stroke-miterlimit:41.994751"/><path d="M86.687025 63.750825L87.1347 46.15815" style="fill:none;stroke:rgba(238,0,12,.24705882);stroke-width:.09525;stroke-miterlimit:41.994751"/><path d="M140.64615 74.5236L117.1575 74.399775" style="fill:none;stroke:rgba(238,0,12,.24705882);stroke-width:.09525;stroke-miterlimit:41.994751"/><path d="M91.582875 99.6315L68.189475 98.917125" style="fill:none;stroke:rgba(238,0,12,.24705882);stroke-width:.09525;stroke-miterlimit:41.994751"/><path d="M43.9674 99.11715L43.995975 86.6775" style="fill:none;stroke:rgba(238,0,12,.24705882);stroke-width:.09525;stroke-miterlimit:41.994751"/><path d="M92.725875 86.77275L91.582875 99.6315" style="fill:none;stroke:rgba(238,0,12,.24705882);stroke-width:.09525;stroke-miterlimit:41.994751"/><path d="M117.07178 98.955225L104.80358 98.96475" style="fill:none;stroke:rgba(238,0,12,.24705882);stroke-width:.09525;stroke-miterlimit:41.994751"/><path d="M43.748325 70.485L50.1777 70.646925" style="fill:none;stroke:rgba(238,0,12,.24705882);stroke-width:.09525;stroke-miterlimit:41.994751"/><path d="M68.646675 70.570725L68.2752 86.73465" style="fill:none;stroke:rgba(238,0,12,.24705882);stroke-width:.09525;stroke-miterlimit:41.994751"/><path d="M92.725875 86.77275L92.478225 69.55155" style="fill:none;stroke:rgba(238,0,12,.24705882);stroke-width:.09525;stroke-miterlimit:41.994751"/><path d="M117.07178 98.955225L117.22418 111.07102" style="fill:none;stroke:rgba(238,0,12,.24705882);stroke-width:.09525;stroke-miterlimit:41.994751"/><path d="M43.748325 70.485L37.8714 70.304025" style="fill:none;stroke:rgba(238,0,16,.24705882);stroke-width:.09525;stroke-miterlimit:41.994751"/><path d="M37.8714 70.304025L37.6428 45.519975" style="fill:none;stroke:rgba(238,0,16,.24705882);stroke-width:.09525;stroke-miterlimit:41.994751"/><path d="M38.34765 70.304025A.47625 .47625 0 0037.39515 70.304025A.47625 .47625 0 0038.34765 70.304025z" fill="rgba(238,0,16,.24705882)"/><path d="M117.02415 47.2059L129.60667 48.5013" style="fill:none;stroke:rgba(234,0,16,.24705882);stroke-width:.09525;stroke-miterlimit:41.994751"/><path d="M130.08292 48.5013A.47625 .47625 0 00129.13043 48.5013A.47625 .47625 0 00130.08292 48.5013z" fill="rgba(230,0,20,.24705882)"/><path d="M140.71283 86.6775L140.64615 74.5236" style="fill:none;stroke:rgba(230,0,24,.24705882);stroke-width:.09525;stroke-miterlimit:41.994751"/><path d="M141.68437 98.8695L140.71283 86.6775" style="fill:none;stroke:rgba(230,0,24,.24705882);stroke-width:.09525;stroke-miterlimit:41.994751"/><path d="M129.60667 48.5013L134.36918 50.04435" style="fill:none;stroke:rgba(218,0,32,.24705882);stroke-width:.09525;stroke-miterlimit:41.994751"/><path d="M131.6736 98.764725L141.68437 98.8695" style="fill:none;stroke:rgba(218,0,32,.24705882);stroke-width:.09525;stroke-miterlimit:41.994751"/><path d="M131.6736 98.764725L128.45415 98.936175" style="fill:none;stroke:rgba(218,0,32,.24705882);stroke-width:.09525;stroke-miterlimit:41.994751"/><path d="M141.18908 86.6775A.47625 .47625 0 00140.23658 86.6775A.47625 .47625 0 00141.18908 86.6775z" fill="rgba(218,0,36,.24705882)"/><path d="M134.84543 50.04435A.47625 .47625 0 00133.89293 50.04435A.47625 .47625 0 00134.84543 50.04435z" fill="rgba(210,0,44,.24705882)"/><path d="M129.74955 109.9947H135.43597V87.830025H129.74955z" style="fill:rgba(202,0,52,.24705882);stroke:rgba(202,0,52,.24705882);stroke-width:.09525;stroke-miterlimit:41.994751"/><path d="M132.14985 98.764725A.47625 .47625 0 00131.19735 98.764725A.47625 .47625 0 00132.14985 98.764725z" fill="rgba(202,0,52,.24705882)"/><path d="M134.36918 50.04435L138.25538 53.825775" style="fill:none;stroke:rgba(190,0,64,.24705882);stroke-width:.09525;stroke-miterlimit:41.994751"/><path d="M138.73163 53.825775A.47625 .47625 0 00137.77913 53.825775A.47625 .47625 0 00138.73163 53.825775z" fill="rgba(170,0,85,.24705882)"/><path d="M138.25538 53.825775L140.71283 58.08345" style="fill:none;stroke:rgba(149,0,101,.24705882);stroke-width:.09525;stroke-miterlimit:41.994751"/><path d="M13.858875 139.2936L32.623125 112.68075" style="fill:none;stroke:rgba(145,0,109,.24705882);stroke-width:.09525;stroke-miterlimit:41.994751"/><path d="M44.59605 123.15825A.47625 .47625 0 0043.64355 123.15825A.47625 .47625 0 0044.59605 123.15825z" fill="rgba(137,0,117,.24705882)"/><path d="M141.18908 58.08345A.47625 .47625 0 00140.23658 58.08345A.47625 .47625 0 00141.18908 58.08345z" fill="rgba(133,0,121,.24705882)"/><path d="M.89535 185.03265A.47625 .47625 0 00-.05715 185.03265A.47625 .47625 0 00.89535 185.03265z" fill="rgba(129,0,125,.24705882)"/><path d="M166.9161 .47625A.47625 .47625 0 00165.9636 .47625A.47625 .47625 0 00166.9161 .47625z" fill="rgba(129,0,125,.24705882)"/><path d="M167.15422 185.11838A.47625 .47625 0 00166.20173 185.11838A.47625 .47625 0 00167.15422 185.11838z" fill="rgba(129,0,125,.24705882)"/><path d="M123.5964 185.68988H126.01575V184.04205H123.5964z" style="fill:rgba(129,0,125,.24705882);stroke:rgba(129,0,125,.24705882);stroke-width:.09525;stroke-miterlimit:41.994751"/><path d="M124.32982 185.14695A.47625 .47625 0 00123.37733 185.14695A.47625 .47625 0 00124.32982 185.14695z" fill="rgba(129,0,125,.24705882)"/><path d="M31.52775 .8763A.47625 .47625 0 0030.57525 .8763A.47625 .47625 0 0031.52775 .8763z" fill="rgba(129,0,125,.24705882)"/><path d="M107.88015 185.55652H110.43285V184.05157H107.88015z" style="fill:rgba(129,0,125,.24705882);stroke:rgba(129,0,125,.24705882);stroke-width:.09525;stroke-miterlimit:41.994751"/><path d="M110.58525 184.98503A.47625 .47625 0 00109.63275 184.98503A.47625 .47625 0 00110.58525 184.98503z" fill="rgba(129,0,125,.24705882)"/><path d="M167.32567 114.15712A.47625 .47625 0 00166.37318 114.15712A.47625 .47625 0 00167.32567 114.15712z" fill="rgba(129,0,125,.24705882)"/><path d="M1.1049 1.590675A.47625 .47625 0 00.1524 1.590675A.47625 .47625 0 001.1049 1.590675z" fill="rgba(129,0,125,.24705882)"/><path d="M166.84942 114.15712L166.43985 .47625" style="fill:none;stroke:rgba(129,0,125,.24705882);stroke-width:.09525;stroke-miterlimit:41.994751"/><path d="M166.84942 114.15712L166.67798 185.11838" style="fill:none;stroke:rgba(129,0,125,.24705882);stroke-width:.09525;stroke-miterlimit:41.994751"/><path d="M166.67798 185.11838L123.85358 185.14695" style="fill:none;stroke:rgba(129,0,125,.24705882);stroke-width:.09525;stroke-miterlimit:41.994751"/><path d="M166.43985 .47625L31.0515 .8763" style="fill:none;stroke:rgba(129,0,125,.24705882);stroke-width:.09525;stroke-miterlimit:41.994751"/><path d="M110.109 184.98503L123.85358 185.14695" style="fill:none;stroke:rgba(129,0,125,.24705882);stroke-width:.09525;stroke-miterlimit:41.994751"/><path d="M.4191 185.03265L110.109 184.98503" style="fill:none;stroke:rgba(129,0,125,.24705882);stroke-width:.09525;stroke-miterlimit:41.994751"/><path d="M.62865 1.590675L.4191 185.03265" style="fill:none;stroke:rgba(129,0,125,.24705882);stroke-width:.09525;stroke-miterlimit:41.994751"/><path d="M41.405175 112.79505L44.1198 123.15825" style="fill:none;stroke:rgba(125,0,129,.24705882);stroke-width:.09525;stroke-miterlimit:41.994751"/><path d="M44.1198 123.15825L116.13833 119.24347" style="fill:none;stroke:rgba(125,0,129,.24705882);stroke-width:.09525;stroke-miterlimit:41.994751"/><path d="M140.71283 58.08345V61.502925" style="fill:none;stroke:rgba(125,0,129,.24705882);stroke-width:.09525;stroke-miterlimit:41.994751"/><path d="M166.84942 114.15712L156.21 113.90947" style="fill:none;stroke:rgba(121,0,133,.24705882);stroke-width:.09525;stroke-miterlimit:41.994751"/><path d="M117.59565 111.43297A.47625 .47625 0 00116.64315 111.43297A.47625 .47625 0 00117.59565 111.43297z" fill="rgba(113,0,141,.24705882)"/><path d="M129.87338 109.07077H152.64765V81.1911H129.87338z" style="fill:rgba(113,0,141,.24705882);stroke:rgba(113,0,141,.24705882);stroke-width:.09525;stroke-miterlimit:41.994751"/><path d="M141.74152 96.516825A.47625 .47625 0 00140.78903 96.516825A.47625 .47625 0 00141.74152 96.516825z" fill="rgba(113,0,141,.24705882)"/><path d="M50.19675 42.567225A.47625 .47625 0 0049.24425 42.567225A.47625 .47625 0 0050.19675 42.567225z" fill="rgba(113,0,141,.24705882)"/><path d="M141.18908 61.502925A.47625 .47625 0 00140.23658 61.502925A.47625 .47625 0 00141.18908 61.502925z" fill="rgba(113,0,141,.24705882)"/><path d="M75.447525 70.61835A.47625 .47625 0 0074.495025 70.61835A.47625 .47625 0 0075.447525 70.61835z" fill="rgba(113,0,141,.24705882)"/><path d="M129.7686 80.79105H151.64753V62.741175H129.7686z" style="fill:rgba(113,0,141,.24705882);stroke:rgba(113,0,141,.24705882);stroke-width:.09525;stroke-miterlimit:41.994751"/><path d="M141.15097 68.475225A.47625 .47625 0 00140.19848 68.475225A.47625 .47625 0 00141.15097 68.475225z" fill="rgba(113,0,141,.24705882)"/><path d="M76.581 53.425725A.47625 .47625 0 0075.6285 53.425725A.47625 .47625 0 0076.581 53.425725z" fill="rgba(113,0,141,.24705882)"/><path d="M63.198375 67.9323A.47625 .47625 0 0062.245875 67.9323A.47625 .47625 0 0063.198375 67.9323z" fill="rgba(113,0,141,.24705882)"/><path d="M156.41003 113.3475A.47625 .47625 0 00155.45753 113.3475A.47625 .47625 0 00156.41003 113.3475z" fill="rgba(113,0,141,.24705882)"/><path d="M63.07455 52.054125A.47625 .47625 0 0062.12205 52.054125A.47625 .47625 0 0063.07455 52.054125z" fill="rgba(113,0,141,.24705882)"/><path d="M32.48025 61.179075H43.081575V42.23385H32.48025z" style="fill:rgba(113,0,141,.24705882);stroke:rgba(113,0,141,.24705882);stroke-width:.09525;stroke-miterlimit:41.994751"/><path d="M38.27145 53.425725A.47625 .47625 0 0037.31895 53.425725A.47625 .47625 0 0038.27145 53.425725z" fill="rgba(113,0,141,.24705882)"/><path d="M105.85133 80.90535H129.36855V64.493775H105.85133z" style="fill:rgba(113,0,141,.24705882);stroke:rgba(113,0,141,.24705882);stroke-width:.09525;stroke-miterlimit:41.994751"/><path d="M117.9957 67.998975A.47625 .47625 0 00117.0432 67.998975A.47625 .47625 0 00117.9957 67.998975z" fill="rgba(113,0,141,.24705882)"/><path d="M93.345 86.8299A.47625 .47625 0 0092.3925 86.8299A.47625 .47625 0 0093.345 86.8299z" fill="rgba(113,0,141,.24705882)"/><path d="M106.16565 64.1604H127.5588V39.03345H106.16565z" style="fill:rgba(113,0,141,.24705882);stroke:rgba(113,0,141,.24705882);stroke-width:.09525;stroke-miterlimit:41.994751"/><path d="M117.8433 47.49165A.47625 .47625 0 00116.8908 47.49165A.47625 .47625 0 00117.8433 47.49165z" fill="rgba(113,0,141,.24705882)"/><path d="M106.92765 109.6137H129.3876V81.333975H106.92765z" style="fill:rgba(113,0,141,.24705882);stroke:rgba(113,0,141,.24705882);stroke-width:.09525;stroke-miterlimit:41.994751"/><path d="M117.30038 95.8596A.47625 .47625 0 00116.34788 95.8596A.47625 .47625 0 00117.30038 95.8596z" fill="rgba(113,0,141,.24705882)"/><path d="M93.011625 70.151625A.47625 .47625 0 0092.059125 70.151625A.47625 .47625 0 0093.011625 70.151625z" fill="rgba(113,0,141,.24705882)"/><path d="M56.86425 86.667975H79.72425V63.15075H56.86425z" style="fill:rgba(113,0,141,.24705882);stroke:rgba(113,0,141,.24705882);stroke-width:.09525;stroke-miterlimit:41.994751"/><path d="M69.1515 70.9041A.47625 .47625 0 0068.199 70.9041A.47625 .47625 0 0069.1515 70.9041z" fill="rgba(113,0,141,.24705882)"/><path d="M103.53675 103.84155H106.59428V94.307025H103.53675z" style="fill:rgba(113,0,141,.24705882);stroke:rgba(113,0,141,.24705882);stroke-width:.09525;stroke-miterlimit:41.994751"/><path d="M105.16553 98.8695A.47625 .47625 0 00104.21303 98.8695A.47625 .47625 0 00105.16553 98.8695z" fill="rgba(113,0,141,.24705882)"/><path d="M102.4128 60.931425A.47625 .47625 0 00101.4603 60.931425A.47625 .47625 0 00102.4128 60.931425z" fill="rgba(113,0,141,.24705882)"/><path d="M87.106125 69.66585A.47625 .47625 0 0086.153625 69.66585A.47625 .47625 0 0087.106125 69.66585z" fill="rgba(113,0,141,.24705882)"/><path d="M57.197625 109.06125H79.1718V87.3252H57.197625z" style="fill:rgba(113,0,141,.24705882);stroke:rgba(113,0,141,.24705882);stroke-width:.09525;stroke-miterlimit:41.994751"/><path d="M69.1134 99.431475A.47625 .47625 0 0068.1609 99.431475A.47625 .47625 0 0069.1134 99.431475z" fill="rgba(113,0,141,.24705882)"/><path d="M87.4014 50.911125A.47625 .47625 0 0086.4489 50.911125A.47625 .47625 0 0087.4014 50.911125z" fill="rgba(113,0,141,.24705882)"/><path d="M35.8521 64.036575H39.843075V61.77915H35.8521z" style="fill:rgba(113,0,141,.24705882);stroke:rgba(113,0,141,.24705882);stroke-width:.09525;stroke-miterlimit:41.994751"/><path d="M38.19525 62.684025A.47625 .47625 0 0037.24275 62.684025A.47625 .47625 0 0038.19525 62.684025z" fill="rgba(113,0,141,.24705882)"/><path d="M32.775525 110.39475H55.483125V88.06815H32.775525z" style="fill:rgba(113,0,141,.24705882);stroke:rgba(113,0,141,.24705882);stroke-width:.09525;stroke-miterlimit:41.994751"/><path d="M44.958 99.2505A.47625 .47625 0 0044.0055 99.2505A.47625 .47625 0 0044.958 99.2505z" fill="rgba(113,0,141,.24705882)"/><path d="M44.9961 64.52235H55.044975V39.614475H44.9961z" style="fill:rgba(113,0,141,.24705882);stroke:rgba(113,0,141,.24705882);stroke-width:.09525;stroke-miterlimit:41.994751"/><path d="M50.949225 60.988575A.47625 .47625 0 0049.996725 60.988575A.47625 .47625 0 0050.949225 60.988575z" fill="rgba(113,0,141,.24705882)"/><path d="M135.56932 114.20475A.47625 .47625 0 00134.61683 114.20475A.47625 .47625 0 00135.56932 114.20475z" fill="rgba(113,0,141,.24705882)"/><path d="M153.48585 114.13807H156.63862V112.65217H153.48585z" style="fill:rgba(113,0,141,.24705882);stroke:rgba(113,0,141,.24705882);stroke-width:.09525;stroke-miterlimit:41.994751"/><path d="M156.68625 113.90947A.47625 .47625 0 00155.73375 113.90947A.47625 .47625 0 00156.68625 113.90947z" fill="rgba(113,0,141,.24705882)"/><path d="M157.06725 35.03295A.47625 .47625 0 00156.11475 35.03295A.47625 .47625 0 00157.06725 35.03295z" fill="rgba(113,0,141,.24705882)"/><path d="M116.61458 119.24347A.47625 .47625 0 00115.66208 119.24347A.47625 .47625 0 00116.61458 119.24347z" fill="rgba(113,0,141,.24705882)"/><path d="M140.1318 34.985325A.47625 .47625 0 00139.1793 34.985325A.47625 .47625 0 00140.1318 34.985325z" fill="rgba(113,0,141,.24705882)"/><path d="M29.1465 34.9758A.47625 .47625 0 0028.194 34.9758A.47625 .47625 0 0029.1465 34.9758z" fill="rgba(113,0,141,.24705882)"/><path d="M32.48025 85.296375H54.397275V64.798575H32.48025z" style="fill:rgba(113,0,141,.24705882);stroke:rgba(113,0,141,.24705882);stroke-width:.09525;stroke-miterlimit:41.994751"/><path d="M44.8818 67.789425A.47625 .47625 0 0043.9293 67.789425A.47625 .47625 0 0044.8818 67.789425z" fill="rgba(113,0,141,.24705882)"/><path d="M41.881425 112.79505A.47625 .47625 0 0040.928925 112.79505A.47625 .47625 0 0041.881425 112.79505z" fill="rgba(113,0,141,.24705882)"/><path d="M29.841825 113.49038A.47625 .47625 0 0028.889325 113.49038A.47625 .47625 0 0029.841825 113.49038z" fill="rgba(113,0,141,.24705882)"/><path d="M44.9199 86.763225A.47625 .47625 0 0043.9674 86.763225A.47625 .47625 0 0044.9199 86.763225z" fill="rgba(113,0,141,.24705882)"/><path d="M141.26528 96.516825L116.82413 95.8596" style="fill:none;stroke:rgba(113,0,141,.24705882);stroke-width:.09525;stroke-miterlimit:41.994751"/><path d="M140.71283 61.502925L140.67472 68.475225" style="fill:none;stroke:rgba(113,0,141,.24705882);stroke-width:.09525;stroke-miterlimit:41.994751"/><path d="M44.40555 67.789425L50.472975 60.988575" style="fill:none;stroke:rgba(113,0,141,.24705882);stroke-width:.09525;stroke-miterlimit:41.994751"/><path d="M28.67025 34.9758L29.365575 113.49038" style="fill:none;stroke:rgba(113,0,141,.24705882);stroke-width:.09525;stroke-miterlimit:41.994751"/><path d="M116.13833 119.24347L135.09307 114.20475" style="fill:none;stroke:rgba(113,0,141,.24705882);stroke-width:.09525;stroke-miterlimit:41.994751"/><path d="M139.65555 34.985325L28.67025 34.9758" style="fill:none;stroke:rgba(113,0,141,.24705882);stroke-width:.09525;stroke-miterlimit:41.994751"/><path d="M68.67525 70.9041L74.971275 70.61835" style="fill:none;stroke:rgba(113,0,141,.24705882);stroke-width:.09525;stroke-miterlimit:41.994751"/><path d="M156.591 35.03295L139.65555 34.985325" style="fill:none;stroke:rgba(113,0,141,.24705882);stroke-width:.09525;stroke-miterlimit:41.994751"/><path d="M117.1194 111.43297L116.82413 95.8596" style="fill:none;stroke:rgba(113,0,141,.24705882);stroke-width:.09525;stroke-miterlimit:41.994751"/><path d="M156.21 113.90947L155.93378 113.3475" style="fill:none;stroke:rgba(113,0,141,.24705882);stroke-width:.09525;stroke-miterlimit:41.994751"/><path d="M44.40555 67.789425L37.719 62.684025" style="fill:none;stroke:rgba(113,0,141,.24705882);stroke-width:.09525;stroke-miterlimit:41.994751"/><path d="M44.48175 99.2505L44.44365 86.763225" style="fill:none;stroke:rgba(113,0,141,.24705882);stroke-width:.09525;stroke-miterlimit:41.994751"/><path d="M50.472975 60.988575L49.7205 42.567225" style="fill:none;stroke:rgba(113,0,141,.24705882);stroke-width:.09525;stroke-miterlimit:41.994751"/><path d="M68.63715 99.431475L68.67525 70.9041" style="fill:none;stroke:rgba(113,0,141,.24705882);stroke-width:.09525;stroke-miterlimit:41.994751"/><path d="M68.63715 99.431475L44.48175 99.2505" style="fill:none;stroke:rgba(113,0,141,.24705882);stroke-width:.09525;stroke-miterlimit:41.994751"/><path d="M86.629875 69.66585L86.92515 50.911125" style="fill:none;stroke:rgba(113,0,141,.24705882);stroke-width:.09525;stroke-miterlimit:41.994751"/><path d="M68.67525 70.9041L62.722125 67.9323" style="fill:none;stroke:rgba(113,0,141,.24705882);stroke-width:.09525;stroke-miterlimit:41.994751"/><path d="M44.44365 86.763225L44.40555 67.789425" style="fill:none;stroke:rgba(113,0,141,.24705882);stroke-width:.09525;stroke-miterlimit:41.994751"/><path d="M117.1194 111.43297L116.13833 119.24347" style="fill:none;stroke:rgba(113,0,141,.24705882);stroke-width:.09525;stroke-miterlimit:41.994751"/><path d="M29.365575 113.49038L41.405175 112.79505" style="fill:none;stroke:rgba(113,0,141,.24705882);stroke-width:.09525;stroke-miterlimit:41.994751"/><path d="M92.535375 70.151625L86.629875 69.66585" style="fill:none;stroke:rgba(113,0,141,.24705882);stroke-width:.09525;stroke-miterlimit:41.994751"/><path d="M92.535375 70.151625L101.93655 60.931425" style="fill:none;stroke:rgba(113,0,141,.24705882);stroke-width:.09525;stroke-miterlimit:41.994751"/><path d="M116.82413 95.8596L104.68928 98.8695" style="fill:none;stroke:rgba(113,0,141,.24705882);stroke-width:.09525;stroke-miterlimit:41.994751"/><path d="M116.82413 95.8596L117.51945 67.998975" style="fill:none;stroke:rgba(113,0,141,.24705882);stroke-width:.09525;stroke-miterlimit:41.994751"/><path d="M92.86875 86.8299L92.535375 70.151625" style="fill:none;stroke:rgba(113,0,141,.24705882);stroke-width:.09525;stroke-miterlimit:41.994751"/><path d="M74.971275 70.61835L76.10475 53.425725" style="fill:none;stroke:rgba(113,0,141,.24705882);stroke-width:.09525;stroke-miterlimit:41.994751"/><path d="M117.51945 67.998975L117.36705 47.49165" style="fill:none;stroke:rgba(113,0,141,.24705882);stroke-width:.09525;stroke-miterlimit:41.994751"/><path d="M117.51945 67.998975L140.67472 68.475225" style="fill:none;stroke:rgba(113,0,141,.24705882);stroke-width:.09525;stroke-miterlimit:41.994751"/><path d="M37.719 62.684025L37.7952 53.425725" style="fill:none;stroke:rgba(113,0,141,.24705882);stroke-width:.09525;stroke-miterlimit:41.994751"/><path d="M62.722125 67.9323L62.5983 52.054125" style="fill:none;stroke:rgba(113,0,141,.24705882);stroke-width:.09525;stroke-miterlimit:41.994751"/><path d="M155.93378 113.3475L156.591 35.03295" style="fill:none;stroke:rgba(113,0,141,.24705882);stroke-width:.09525;stroke-miterlimit:41.994751"/><path d="M155.93378 113.3475L135.09307 114.20475" style="fill:none;stroke:rgba(113,0,141,.24705882);stroke-width:.09525;stroke-miterlimit:41.994751"/><path d="M140.67472 68.475225L141.26528 96.516825" style="fill:none;stroke:rgba(113,0,141,.24705882);stroke-width:.09525;stroke-miterlimit:41.994751"/><path d="M92.86875 86.8299L92.344875 98.1075" style="fill:none;stroke:rgba(113,0,141,.24705882);stroke-width:.09525;stroke-miterlimit:41.994751"/><path d="M92.344875 98.1075L68.63715 99.431475" style="fill:none;stroke:rgba(113,0,141,.24705882);stroke-width:.09525;stroke-miterlimit:41.994751"/><path d="M104.68928 98.8695L92.344875 98.1075" style="fill:none;stroke:rgba(113,0,141,.24705882);stroke-width:.09525;stroke-miterlimit:41.994751"/><path d="M82.400775 109.82325H103.3272V88.44915H82.400775z" style="fill:rgba(109,0,145,.24705882);stroke:rgba(109,0,145,.24705882);stroke-width:.09525;stroke-miterlimit:41.994751"/><path d="M92.821125 98.1075A.47625 .47625 0 0091.868625 98.1075A.47625 .47625 0 0092.821125 98.1075z" fill="rgba(109,0,145,.24705882)"/><path d="M53.89245 111.91875A.47625 .47625 0 0052.93995 111.91875A.47625 .47625 0 0053.89245 111.91875z" fill="rgba(44,0,210,.24705882)"/><path d="M33.099375 112.68075A.47625 .47625 0 0032.146875 112.68075A.47625 .47625 0 0033.099375 112.68075z" fill="rgba(32,0,218,.24705882)"/><path d="M103.251 114.20475A.47625 .47625 0 00102.2985 114.20475A.47625 .47625 0 00103.251 114.20475z" fill="rgba(0,0,255,.24705882)"/></svg>