<svg version="1.1" width="98.77425mm" height="224.409mm" viewBox="0 0 98.77425 224.409" xmlns="http://www.w3.org/2000/svg" xmlns:xlink="http://www.w3.org/1999/xlink"><path d="M49.7205 126.58725H51.6255" style="fill:none;stroke:#f00;stroke-width:.09525;stroke-miterlimit:41.994751"/><path d="M49.7205 126.58725V124.68225" style="fill:none;stroke:#0f0;stroke-width:.09525;stroke-miterlimit:41.994751"/><path d="M.9525 42.00525H26.0985V29.05125H.9525z" style="fill:rgba(255,0,0,.24705882);stroke:rgba(255,0,0,.24705882);stroke-width:.09525;stroke-miterlimit:41.994751"/><path d="M14.00175 35.52825A.47625 .47625 0 0013.04925 35.52825A.47625 .47625 0 0014.00175 35.52825z" fill="rgba(255,0,0,.24705882)"/><path d="M53.1495 70.570725H55.41645V66.50355H53.1495z" style="fill:rgba(255,0,0,.24705882);stroke:rgba(255,0,0,.24705882);stroke-width:.09525;stroke-miterlimit:41.994751"/><path d="M54.759225 66.50355A.47625 .47625 0 0053.806725 66.50355A.47625 .47625 0 0054.759225 66.50355z" fill="rgba(255,0,0,.24705882)"/><path d="M55.41645 82.77225H68.0085V66.50355H55.41645z" style="fill:rgba(255,0,0,.24705882);stroke:rgba(255,0,0,.24705882);stroke-width:.09525;stroke-miterlimit:41.994751"/><path d="M62.188725 74.6379A.47625 .47625 0 0061.236225 74.6379A.47625 .47625 0 0062.188725 74.6379z" fill="rgba(255,0,0,.24705882)"/><path d="M37.5285 83.91525H49.7205V66.50355H37.5285z" style="fill:rgba(255,0,0,.24705882);stroke:rgba(255,0,0,.24705882);stroke-width:.09525;stroke-miterlimit:41.994751"/><path d="M44.10075 74.6379A.47625 .47625 0 0043.14825 74.6379A.47625 .47625 0 0044.10075 74.6379z" fill="rgba(255,0,0,.24705882)"/><path d="M49.7205 138.77925H68.0085V114.39525H49.7205z" style="fill:rgba(255,0,0,.24705882);stroke:rgba(255,0,0,.24705882);stroke-width:.09525;stroke-miterlimit:41.994751"/><path d="M59.34075 126.65393A.47625 .47625 0 0058.38825 126.65393A.47625 .47625 0 0059.34075 126.65393z" fill="rgba(255,0,0,.24705882)"/><path d="M53.1495 82.77225H55.41645V70.570725H53.1495z" style="fill:rgba(255,0,0,.24705882);stroke:rgba(255,0,0,.24705882);stroke-width:.09525;stroke-miterlimit:41.994751"/><path d="M54.759225 76.666725A.47625 .47625 0 0053.806725 76.666725A.47625 .47625 0 0054.759225 76.666725z" fill="rgba(255,0,0,.24705882)"/><path d="M37.5285 66.50355H49.7205V42.00525H37.5285z" style="fill:rgba(255,0,0,.24705882);stroke:rgba(255,0,0,.24705882);stroke-width:.09525;stroke-miterlimit:41.994751"/><path d="M44.10075 54.2544A.47625 .47625 0 0043.14825 54.2544A.47625 .47625 0 0044.10075 54.2544z" fill="rgba(255,0,0,.24705882)"/><path d="M68.0085 224.12325H87.53475V211.93125H68.0085z" style="fill:rgba(255,0,0,.24705882);stroke:rgba(255,0,0,.24705882);stroke-width:.09525;stroke-miterlimit:41.994751"/><path d="M77.70495 217.11285A.47625 .47625 0 0076.75245 217.11285A.47625 .47625 0 0077.70495 217.11285z" fill="rgba(255,0,0,.24705882)"/><path d="M37.5285 42.00525H49.7205V29.05125H37.5285z" style="fill:rgba(255,0,0,.24705882);stroke:rgba(255,0,0,.24705882);stroke-width:.09525;stroke-miterlimit:41.994751"/><path d="M44.10075 35.52825A.47625 .47625 0 0043.14825 35.52825A.47625 .47625 0 0044.10075 35.52825z" fill="rgba(255,0,0,.24705882)"/><path d="M.9525 83.91525H13.1445V66.38925H.9525z" style="fill:rgba(255,0,0,.24705882);stroke:rgba(255,0,0,.24705882);stroke-width:.09525;stroke-miterlimit:41.994751"/><path d="M7.52475 75.15225A.47625 .47625 0 006.57225 75.15225A.47625 .47625 0 007.52475 75.15225z" fill="rgba(255,0,0,.24705882)"/><path d="M25.3365 83.91525H37.5285V66.50355H25.3365z" style="fill:rgba(255,0,0,.24705882);stroke:rgba(255,0,0,.24705882);stroke-width:.09525;stroke-miterlimit:41.994751"/><path d="M31.90875 74.6379A.47625 .47625 0 0030.95625 74.6379A.47625 .47625 0 0031.90875 74.6379z" fill="rgba(255,0,0,.24705882)"/><path d="M37.5285 29.05125H49.7205V16.85925H37.5285z" style="fill:rgba(255,0,0,.24705882);stroke:rgba(255,0,0,.24705882);stroke-width:.09525;stroke-miterlimit:41.994751"/><path d="M44.10075 22.95525A.47625 .47625 0 0043.14825 22.95525A.47625 .47625 0 0044.10075 22.95525z" fill="rgba(255,0,0,.24705882)"/><path d="M13.1445 83.91525H25.3365V66.38925H13.1445z" style="fill:rgba(255,0,0,.24705882);stroke:rgba(255,0,0,.24705882);stroke-width:.09525;stroke-miterlimit:41.994751"/><path d="M19.71675 75.15225A.47625 .47625 0 0018.76425 75.15225A.47625 .47625 0 0019.71675 75.15225z" fill="rgba(255,0,0,.24705882)"/><path d="M37.5285 16.85925H49.7205V.3048H37.5285z" style="fill:rgba(255,0,0,.24705882);stroke:rgba(255,0,0,.24705882);stroke-width:.09525;stroke-miterlimit:41.994751"/><path d="M44.10075 8.582025A.47625 .47625 0 0043.14825 8.582025A.47625 .47625 0 0044.10075 8.582025z" fill="rgba(255,0,0,.24705882)"/><path d="M86.2965 211.93125H98.4885V175.35525H86.2965z" style="fill:rgba(255,0,0,.24705882);stroke:rgba(255,0,0,.24705882);stroke-width:.09525;stroke-miterlimit:41.994751"/><path d="M92.916375 193.64325A.47625 .47625 0 0091.963875 193.64325A.47625 .47625 0 0092.916375 193.64325z" fill="rgba(255,0,0,.24705882)"/><path d="M2.7813 16.85925H37.5285V.3048H2.7813z" style="fill:rgba(255,0,0,.24705882);stroke:rgba(255,0,0,.24705882);stroke-width:.09525;stroke-miterlimit:41.994751"/><path d="M20.63115 8.582025A.47625 .47625 0 0019.67865 8.582025A.47625 .47625 0 0020.63115 8.582025z" fill="rgba(255,0,0,.24705882)"/><path d="M32.1945 42.00525H37.5285V29.05125H32.1945z" style="fill:rgba(255,0,0,.24705882);stroke:rgba(255,0,0,.24705882);stroke-width:.09525;stroke-miterlimit:41.994751"/><path d="M35.33775 35.52825A.47625 .47625 0 0034.38525 35.52825A.47625 .47625 0 0035.33775 35.52825z" fill="rgba(255,0,0,.24705882)"/><path d="M49.7205 82.77225H53.1495V66.50355H49.7205z" style="fill:rgba(255,0,0,.24705882);stroke:rgba(255,0,0,.24705882);stroke-width:.09525;stroke-miterlimit:41.994751"/><path d="M51.91125 74.6379A.47625 .47625 0 0050.95875 74.6379A.47625 .47625 0 0051.91125 74.6379z" fill="rgba(255,0,0,.24705882)"/><path d="M26.0985 42.00525H32.1945V29.05125H26.0985z" style="fill:rgba(255,0,0,.24705882);stroke:rgba(255,0,0,.24705882);stroke-width:.09525;stroke-miterlimit:41.994751"/><path d="M29.62275 35.52825A.47625 .47625 0 0028.67025 35.52825A.47625 .47625 0 0029.62275 35.52825z" fill="rgba(255,0,0,.24705882)"/><path d="M87.53475 224.12325H97.3455V211.93125H87.53475z" style="fill:rgba(255,0,0,.24705882);stroke:rgba(255,0,0,.24705882);stroke-width:.09525;stroke-miterlimit:41.994751"/><path d="M89.811225 214.21725A.47625 .47625 0 0088.858725 214.21725A.47625 .47625 0 0089.811225 214.21725z" fill="rgba(255,0,0,.24705882)"/><path d="M19.2405 75.15225L31.4325 74.6379" style="fill:none;stroke:rgba(255,0,0,.24705882);stroke-width:.09525;stroke-miterlimit:41.994751"/><path d="M54.282975 76.666725L61.712475 74.6379" style="fill:none;stroke:rgba(255,0,0,.24705882);stroke-width:.09525;stroke-miterlimit:41.994751"/><path d="M29.1465 35.52825H13.5255" style="fill:none;stroke:rgba(255,0,0,.24705882);stroke-width:.09525;stroke-miterlimit:41.994751"/><path d="M34.8615 35.52825H29.1465" style="fill:none;stroke:rgba(255,0,0,.24705882);stroke-width:.09525;stroke-miterlimit:41.994751"/><path d="M89.334975 214.21725L92.440125 193.64325" style="fill:none;stroke:rgba(255,0,0,.24705882);stroke-width:.09525;stroke-miterlimit:41.994751"/><path d="M89.334975 214.21725L77.2287 217.11285" style="fill:none;stroke:rgba(255,0,0,.24705882);stroke-width:.09525;stroke-miterlimit:41.994751"/><path d="M51.435 74.6379H43.6245" style="fill:none;stroke:rgba(255,0,0,.24705882);stroke-width:.09525;stroke-miterlimit:41.994751"/><path d="M54.282975 66.50355L61.712475 74.6379" style="fill:none;stroke:rgba(255,0,0,.24705882);stroke-width:.09525;stroke-miterlimit:41.994751"/><path d="M51.435 74.6379L54.282975 76.666725" style="fill:none;stroke:rgba(255,0,0,.24705882);stroke-width:.09525;stroke-miterlimit:41.994751"/><path d="M43.6245 74.6379V54.2544" style="fill:none;stroke:rgba(255,0,0,.24705882);stroke-width:.09525;stroke-miterlimit:41.994751"/><path d="M54.282975 76.666725V66.50355" style="fill:none;stroke:rgba(255,0,0,.24705882);stroke-width:.09525;stroke-miterlimit:41.994751"/><path d="M43.6245 35.52825H34.8615" style="fill:none;stroke:rgba(255,0,0,.24705882);stroke-width:.09525;stroke-miterlimit:41.994751"/><path d="M43.6245 74.6379H31.4325" style="fill:none;stroke:rgba(255,0,0,.24705882);stroke-width:.09525;stroke-miterlimit:41.994751"/><path d="M43.6245 54.2544V35.52825" style="fill:none;stroke:rgba(255,0,0,.24705882);stroke-width:.09525;stroke-miterlimit:41.994751"/><path d="M19.2405 75.15225H7.0485" style="fill:none;stroke:rgba(255,0,0,.24705882);stroke-width:.09525;stroke-miterlimit:41.994751"/><path d="M54.282975 66.50355L51.435 74.6379" style="fill:none;stroke:rgba(255,0,0,.24705882);stroke-width:.09525;stroke-miterlimit:41.994751"/><path d="M43.6245 35.52825V22.95525" style="fill:none;stroke:rgba(255,0,0,.24705882);stroke-width:.09525;stroke-miterlimit:41.994751"/><path d="M43.6245 8.582025H20.1549" style="fill:none;stroke:rgba(255,0,0,.24705882);stroke-width:.09525;stroke-miterlimit:41.994751"/><path d="M43.6245 22.95525V8.582025" style="fill:none;stroke:rgba(255,0,0,.24705882);stroke-width:.09525;stroke-miterlimit:41.994751"/><path d="M92.440125 193.64325V163.16325" style="fill:none;stroke:rgba(255,0,0,.24705882);stroke-width:.09525;stroke-miterlimit:41.994751"/><path d="M19.2405 66.00825V75.15225" style="fill:none;stroke:rgba(255,0,0,.24705882);stroke-width:.09525;stroke-miterlimit:41.994751"/><path d="M29.1465 35.52825V42.38625" style="fill:none;stroke:rgba(255,0,0,.24705882);stroke-width:.09525;stroke-miterlimit:41.994751"/><path d="M87.53475 175.35525H97.3455V150.97125H87.53475z" style="fill:rgba(255,0,0,.24705882);stroke:rgba(255,0,0,.24705882);stroke-width:.09525;stroke-miterlimit:41.994751"/><path d="M92.916375 163.16325A.47625 .47625 0 0091.963875 163.16325A.47625 .47625 0 0092.916375 163.16325z" fill="rgba(255,0,0,.24705882)"/><path d="M25.3365 65.62725H26.0985V42.76725H25.3365z" style="fill:rgba(250,0,4,.24705882);stroke:rgba(250,0,4,.24705882);stroke-width:.09525;stroke-miterlimit:41.994751"/><path d="M26.19375 54.19725A.47625 .47625 0 0025.24125 54.19725A.47625 .47625 0 0026.19375 54.19725z" fill="rgba(250,0,4,.24705882)"/><path d="M13.1445 65.62725H25.3365V42.76725H13.1445z" style="fill:rgba(250,0,4,.24705882);stroke:rgba(250,0,4,.24705882);stroke-width:.09525;stroke-miterlimit:41.994751"/><path d="M19.71675 54.19725A.47625 .47625 0 0018.76425 54.19725A.47625 .47625 0 0019.71675 54.19725z" fill="rgba(250,0,4,.24705882)"/><path d="M1.7145 65.62725H13.1445V42.76725H1.7145z" style="fill:rgba(250,0,4,.24705882);stroke:rgba(250,0,4,.24705882);stroke-width:.09525;stroke-miterlimit:41.994751"/><path d="M7.90575 54.19725A.47625 .47625 0 006.95325 54.19725A.47625 .47625 0 007.90575 54.19725z" fill="rgba(250,0,4,.24705882)"/><path d="M32.1945 65.62725H36.7665V42.76725H32.1945z" style="fill:rgba(250,0,4,.24705882);stroke:rgba(250,0,4,.24705882);stroke-width:.09525;stroke-miterlimit:41.994751"/><path d="M34.95675 54.19725A.47625 .47625 0 0034.00425 54.19725A.47625 .47625 0 0034.95675 54.19725z" fill="rgba(250,0,4,.24705882)"/><path d="M26.0985 65.62725H32.1945V42.76725H26.0985z" style="fill:rgba(250,0,4,.24705882);stroke:rgba(250,0,4,.24705882);stroke-width:.09525;stroke-miterlimit:41.994751"/><path d="M29.62275 54.19725A.47625 .47625 0 0028.67025 54.19725A.47625 .47625 0 0029.62275 54.19725z" fill="rgba(250,0,4,.24705882)"/><path d="M25.7175 54.19725H29.1465" style="fill:none;stroke:rgba(250,0,4,.24705882);stroke-width:.09525;stroke-miterlimit:41.994751"/><path d="M19.2405 54.19725H25.7175" style="fill:none;stroke:rgba(250,0,4,.24705882);stroke-width:.09525;stroke-miterlimit:41.994751"/><path d="M7.4295 54.19725H19.2405" style="fill:none;stroke:rgba(250,0,4,.24705882);stroke-width:.09525;stroke-miterlimit:41.994751"/><path d="M29.1465 54.19725H34.4805" style="fill:none;stroke:rgba(250,0,4,.24705882);stroke-width:.09525;stroke-miterlimit:41.994751"/><path d="M19.2405 54.19725V66.00825" style="fill:none;stroke:rgba(250,0,4,.24705882);stroke-width:.09525;stroke-miterlimit:41.994751"/><path d="M29.1465 42.38625V54.19725" style="fill:none;stroke:rgba(250,0,4,.24705882);stroke-width:.09525;stroke-miterlimit:41.994751"/><path d="M26.0985 42.76725H32.1945V42.00525H26.0985z" style="fill:rgba(250,0,4,.24705882);stroke:rgba(250,0,4,.24705882);stroke-width:.09525;stroke-miterlimit:41.994751"/><path d="M29.62275 42.38625A.47625 .47625 0 0028.67025 42.38625A.47625 .47625 0 0029.62275 42.38625z" fill="rgba(250,0,4,.24705882)"/><path d="M13.1445 66.38925H25.3365V65.62725H13.1445z" style="fill:rgba(250,0,4,.24705882);stroke:rgba(250,0,4,.24705882);stroke-width:.09525;stroke-miterlimit:41.994751"/><path d="M19.71675 66.00825A.47625 .47625 0 0018.76425 66.00825A.47625 .47625 0 0019.71675 66.00825z" fill="rgba(250,0,4,.24705882)"/><path d="M61.712475 74.6379L58.8645 86.39175" style="fill:none;stroke:rgba(246,0,4,.24705882);stroke-width:.09525;stroke-miterlimit:41.994751"/><path d="M54.282975 76.666725L58.8645 86.39175" style="fill:none;stroke:rgba(246,0,4,.24705882);stroke-width:.09525;stroke-miterlimit:41.994751"/><path d="M58.8645 86.39175L51.435 74.6379" style="fill:none;stroke:rgba(246,0,4,.24705882);stroke-width:.09525;stroke-miterlimit:41.994751"/><path d="M58.8645 126.65393V108.29925" style="fill:none;stroke:rgba(246,0,4,.24705882);stroke-width:.09525;stroke-miterlimit:41.994751"/><path d="M74.7141 126.65393H58.8645" style="fill:none;stroke:rgba(242,0,12,.24705882);stroke-width:.09525;stroke-miterlimit:41.994751"/><path d="M49.7205 114.39525H68.0085V102.20325H49.7205z" style="fill:rgba(238,0,12,.24705882);stroke:rgba(238,0,12,.24705882);stroke-width:.09525;stroke-miterlimit:41.994751"/><path d="M59.34075 108.29925A.47625 .47625 0 0058.38825 108.29925A.47625 .47625 0 0059.34075 108.29925z" fill="rgba(238,0,12,.24705882)"/><path d="M49.7205 90.01125H68.0085V82.77225H49.7205z" style="fill:rgba(238,0,12,.24705882);stroke:rgba(238,0,12,.24705882);stroke-width:.09525;stroke-miterlimit:41.994751"/><path d="M59.34075 86.39175A.47625 .47625 0 0058.38825 86.39175A.47625 .47625 0 0059.34075 86.39175z" fill="rgba(238,0,12,.24705882)"/><path d="M92.440125 163.16325L93.011625 144.73237" style="fill:none;stroke:rgba(238,0,16,.24705882);stroke-width:.09525;stroke-miterlimit:41.994751"/><path d="M58.8645 108.29925V96.10725" style="fill:none;stroke:rgba(234,0,16,.24705882);stroke-width:.09525;stroke-miterlimit:41.994751"/><path d="M58.8645 96.10725V86.39175" style="fill:none;stroke:rgba(234,0,16,.24705882);stroke-width:.09525;stroke-miterlimit:41.994751"/><path d="M49.7205 102.20325H68.0085V90.01125H49.7205z" style="fill:rgba(230,0,20,.24705882);stroke:rgba(230,0,20,.24705882);stroke-width:.09525;stroke-miterlimit:41.994751"/><path d="M59.34075 96.10725A.47625 .47625 0 0058.38825 96.10725A.47625 .47625 0 0059.34075 96.10725z" fill="rgba(230,0,20,.24705882)"/><path d="M87.53475 150.97125H97.3455V138.77925H87.53475z" style="fill:rgba(226,0,28,.24705882);stroke:rgba(226,0,28,.24705882);stroke-width:.09525;stroke-miterlimit:41.994751"/><path d="M93.487875 144.73237A.47625 .47625 0 0092.535375 144.73237A.47625 .47625 0 0093.487875 144.73237z" fill="rgba(226,0,28,.24705882)"/><path d="M68.0085 138.77925H80.190975V114.39525H68.0085z" style="fill:rgba(226,0,28,.24705882);stroke:rgba(226,0,28,.24705882);stroke-width:.09525;stroke-miterlimit:41.994751"/><path d="M75.19035 126.65393A.47625 .47625 0 0074.23785 126.65393A.47625 .47625 0 0075.19035 126.65393z" fill="rgba(226,0,28,.24705882)"/><path d="M77.2287 217.11285H58.8645" style="fill:none;stroke:rgba(222,0,32,.24705882);stroke-width:.09525;stroke-miterlimit:41.994751"/><path d="M92.440125 126.65393L93.011625 144.73237" style="fill:none;stroke:rgba(218,0,36,.24705882);stroke-width:.09525;stroke-miterlimit:41.994751"/><path d="M83.867625 126.65393H74.7141" style="fill:none;stroke:rgba(218,0,36,.24705882);stroke-width:.09525;stroke-miterlimit:41.994751"/><path d="M97.3455 138.77925H98.4885V114.39525H97.3455z" style="fill:rgba(206,0,44,.24705882);stroke:rgba(206,0,44,.24705882);stroke-width:.09525;stroke-miterlimit:41.994751"/><path d="M98.39325 126.65393A.47625 .47625 0 0097.44075 126.65393A.47625 .47625 0 0098.39325 126.65393z" fill="rgba(206,0,44,.24705882)"/><path d="M80.190975 138.77925H87.53475V114.39525H80.190975z" style="fill:rgba(206,0,44,.24705882);stroke:rgba(206,0,44,.24705882);stroke-width:.09525;stroke-miterlimit:41.994751"/><path d="M84.343875 126.65393A.47625 .47625 0 0083.391375 126.65393A.47625 .47625 0 0084.343875 126.65393z" fill="rgba(206,0,44,.24705882)"/><path d="M87.53475 138.77925H97.3455V114.39525H87.53475z" style="fill:rgba(206,0,44,.24705882);stroke:rgba(206,0,44,.24705882);stroke-width:.09525;stroke-miterlimit:41.994751"/><path d="M92.916375 126.65393A.47625 .47625 0 0091.963875 126.65393A.47625 .47625 0 0092.916375 126.65393z" fill="rgba(206,0,44,.24705882)"/><path d="M83.867625 126.65393H92.440125" style="fill:none;stroke:rgba(206,0,44,.24705882);stroke-width:.09525;stroke-miterlimit:41.994751"/><path d="M92.440125 126.65393H97.917" style="fill:none;stroke:rgba(206,0,44,.24705882);stroke-width:.09525;stroke-miterlimit:41.994751"/><path d="M54.282975 66.50355V66.513075" style="fill:none;stroke:rgba(206,0,44,.24705882);stroke-width:.09525;stroke-miterlimit:41.994751"/><path d="M49.7205 224.12325H68.0085V211.93125H49.7205z" style="fill:rgba(190,0,64,.24705882);stroke:rgba(190,0,64,.24705882);stroke-width:.09525;stroke-miterlimit:41.994751"/><path d="M59.34075 217.11285A.47625 .47625 0 0058.38825 217.11285A.47625 .47625 0 0059.34075 217.11285z" fill="rgba(190,0,64,.24705882)"/><path d="M53.1495 70.570725H55.41645V66.50355H53.1495z" style="fill:rgba(161,0,93,.24705882);stroke:rgba(161,0,93,.24705882);stroke-width:.09525;stroke-miterlimit:41.994751"/><path d="M54.759225 66.513075A.47625 .47625 0 0053.806725 66.513075A.47625 .47625 0 0054.759225 66.513075z" fill="rgba(161,0,93,.24705882)"/><path d="M28.78455 66.751199H38.185725V42.167176H28.78455z" style="fill:rgba(133,0,117,.24705882);stroke:rgba(133,0,117,.24705882);stroke-width:.09525;stroke-miterlimit:41.994751"/><path d="M33.96615 54.454425A.47625 .47625 0 0033.01365 54.454425A.47625 .47625 0 0033.96615 54.454425z" fill="rgba(133,0,117,.24705882)"/><path d="M24.069675 47.615475L33.4899 54.454425" style="fill:none;stroke:rgba(125,0,125,.24705882);stroke-width:.09525;stroke-miterlimit:41.994751"/><path d="M24.069675 59.902725L33.4899 54.454425" style="fill:none;stroke:rgba(125,0,125,.24705882);stroke-width:.09525;stroke-miterlimit:41.994751"/><path d="M.200025 53.05425H19.3548V42.167176H.200025z" style="fill:rgba(121,0,133,.24705882);stroke:rgba(121,0,133,.24705882);stroke-width:.09525;stroke-miterlimit:41.994751"/><path d="M10.258425 47.615475A.47625 .47625 0 009.305925 47.615475A.47625 .47625 0 0010.258425 47.615475z" fill="rgba(121,0,133,.24705882)"/><path d="M19.354801 53.05425H28.78455V42.167176H19.354801z" style="fill:rgba(121,0,133,.24705882);stroke:rgba(121,0,133,.24705882);stroke-width:.09525;stroke-miterlimit:41.994751"/><path d="M24.545925 47.615475A.47625 .47625 0 0023.593425 47.615475A.47625 .47625 0 0024.545925 47.615475z" fill="rgba(121,0,133,.24705882)"/><path d="M19.354801 66.751199H28.78455V53.05425H19.354801z" style="fill:rgba(121,0,133,.24705882);stroke:rgba(121,0,133,.24705882);stroke-width:.09525;stroke-miterlimit:41.994751"/><path d="M24.545925 59.902725A.47625 .47625 0 0023.593425 59.902725A.47625 .47625 0 0024.545925 59.902725z" fill="rgba(121,0,133,.24705882)"/><path d="M24.069675 47.615475H9.782175" style="fill:none;stroke:rgba(121,0,133,.24705882);stroke-width:.09525;stroke-miterlimit:41.994751"/><path d="M24.069675 59.902725V47.615475" style="fill:none;stroke:rgba(121,0,133,.24705882);stroke-width:.09525;stroke-miterlimit:41.994751"/><path d="M54.282975 66.513075V66.50355" style="fill:none;stroke:rgba(89,0,165,.24705882);stroke-width:.09525;stroke-miterlimit:41.994751"/><path d="M11.572875 54.19725H26.393775V39.71925H11.572875z" style="fill:rgba(16,0,238,.24705882);stroke:rgba(16,0,238,.24705882);stroke-width:.09525;stroke-miterlimit:41.994751"/><path d="M19.459575 46.95825A.47625 .47625 0 0018.507075 46.95825A.47625 .47625 0 0019.459575 46.95825z" fill="rgba(16,0,238,.24705882)"/><path d="M11.572875 39.71925H26.393775V35.90925H11.572875z" style="fill:rgba(16,0,238,.24705882);stroke:rgba(16,0,238,.24705882);stroke-width:.09525;stroke-miterlimit:41.994751"/><path d="M19.459575 37.81425A.47625 .47625 0 0018.507075 37.81425A.47625 .47625 0 0019.459575 37.81425z" fill="rgba(16,0,238,.24705882)"/><path d="M53.1495 70.570725H55.41645V66.50355H53.1495z" style="fill:rgba(16,0,238,.24705882);stroke:rgba(16,0,238,.24705882);stroke-width:.09525;stroke-miterlimit:41.994751"/><path d="M54.759225 66.50355A.47625 .47625 0 0053.806725 66.50355A.47625 .47625 0 0054.759225 66.50355z" fill="rgba(16,0,238,.24705882)"/><path d="M49.7205 64.75095H53.1495V41.214675H49.7205z" style="fill:rgba(16,0,238,.24705882);stroke:rgba(16,0,238,.24705882);stroke-width:.09525;stroke-miterlimit:41.994751"/><path d="M51.91125 52.97805A.47625 .47625 0 0050.95875 52.97805A.47625 .47625 0 0051.91125 52.97805z" fill="rgba(16,0,238,.24705882)"/><path d="M53.1495 64.75095H55.41645V41.214675H53.1495z" style="fill:rgba(16,0,238,.24705882);stroke:rgba(16,0,238,.24705882);stroke-width:.09525;stroke-miterlimit:41.994751"/><path d="M54.759225 52.97805A.47625 .47625 0 0053.806725 52.97805A.47625 .47625 0 0054.759225 52.97805z" fill="rgba(16,0,238,.24705882)"/><path d="M55.41645 64.75095H61.9125V41.214675H55.41645z" style="fill:rgba(16,0,238,.24705882);stroke:rgba(16,0,238,.24705882);stroke-width:.09525;stroke-miterlimit:41.994751"/><path d="M59.140725 52.97805A.47625 .47625 0 0058.188225 52.97805A.47625 .47625 0 0059.140725 52.97805z" fill="rgba(16,0,238,.24705882)"/><path d="M11.572875 35.90925H26.393775V29.05125H11.572875z" style="fill:rgba(16,0,238,.24705882);stroke:rgba(16,0,238,.24705882);stroke-width:.09525;stroke-miterlimit:41.994751"/><path d="M19.459575 32.48025A.47625 .47625 0 0018.507075 32.48025A.47625 .47625 0 0019.459575 32.48025z" fill="rgba(16,0,238,.24705882)"/><path d="M49.7205 41.214675H61.9125V35.90925H49.7205z" style="fill:rgba(16,0,238,.24705882);stroke:rgba(16,0,238,.24705882);stroke-width:.09525;stroke-miterlimit:41.994751"/><path d="M56.29275 38.5572A.47625 .47625 0 0055.34025 38.5572A.47625 .47625 0 0056.29275 38.5572z" fill="rgba(16,0,238,.24705882)"/><path d="M.200025 39.71925H11.572875V35.90925H.200025z" style="fill:rgba(16,0,238,.24705882);stroke:rgba(16,0,238,.24705882);stroke-width:.09525;stroke-miterlimit:41.994751"/><path d="M6.3627 37.81425A.47625 .47625 0 005.4102 37.81425A.47625 .47625 0 006.3627 37.81425z" fill="rgba(16,0,238,.24705882)"/><path d="M49.7205 35.90925H61.9125V29.05125H49.7205z" style="fill:rgba(16,0,238,.24705882);stroke:rgba(16,0,238,.24705882);stroke-width:.09525;stroke-miterlimit:41.994751"/><path d="M56.29275 32.48025A.47625 .47625 0 0055.34025 32.48025A.47625 .47625 0 0056.29275 32.48025z" fill="rgba(16,0,238,.24705882)"/><path d="M61.9125 35.90925H74.1045V29.05125H61.9125z" style="fill:rgba(16,0,238,.24705882);stroke:rgba(16,0,238,.24705882);stroke-width:.09525;stroke-miterlimit:41.994751"/><path d="M68.48475 32.48025A.47625 .47625 0 0067.53225 32.48025A.47625 .47625 0 0068.48475 32.48025z" fill="rgba(16,0,238,.24705882)"/><path d="M.200025 35.90925H11.572875V29.05125H.200025z" style="fill:rgba(16,0,238,.24705882);stroke:rgba(16,0,238,.24705882);stroke-width:.09525;stroke-miterlimit:41.994751"/><path d="M6.3627 32.48025A.47625 .47625 0 005.4102 32.48025A.47625 .47625 0 006.3627 32.48025z" fill="rgba(16,0,238,.24705882)"/><path d="M26.393775 35.90925H49.7205V29.05125H26.393775z" style="fill:rgba(16,0,238,.24705882);stroke:rgba(16,0,238,.24705882);stroke-width:.09525;stroke-miterlimit:41.994751"/><path d="M38.53815 32.48025A.47625 .47625 0 0037.58565 32.48025A.47625 .47625 0 0038.53815 32.48025z" fill="rgba(16,0,238,.24705882)"/><path d="M18.983325 32.48025H5.88645" style="fill:none;stroke:rgba(16,0,238,.24705882);stroke-width:.09525;stroke-miterlimit:41.994751"/><path d="M55.8165 38.5572L58.664475 52.97805" style="fill:none;stroke:rgba(16,0,238,.24705882);stroke-width:.09525;stroke-miterlimit:41.994751"/><path d="M5.88645 37.81425H18.983325" style="fill:none;stroke:rgba(16,0,238,.24705882);stroke-width:.09525;stroke-miterlimit:41.994751"/><path d="M18.983325 46.95825V37.81425" style="fill:none;stroke:rgba(16,0,238,.24705882);stroke-width:.09525;stroke-miterlimit:41.994751"/><path d="M5.88645 32.48025V37.81425" style="fill:none;stroke:rgba(16,0,238,.24705882);stroke-width:.09525;stroke-miterlimit:41.994751"/><path d="M38.0619 32.48025H18.983325" style="fill:none;stroke:rgba(16,0,238,.24705882);stroke-width:.09525;stroke-miterlimit:41.994751"/><path d="M55.8165 32.48025H38.0619" style="fill:none;stroke:rgba(16,0,238,.24705882);stroke-width:.09525;stroke-miterlimit:41.994751"/><path d="M55.8165 32.48025H68.0085" style="fill:none;stroke:rgba(16,0,238,.24705882);stroke-width:.09525;stroke-miterlimit:41.994751"/><path d="M55.8165 38.5572V32.48025" style="fill:none;stroke:rgba(16,0,238,.24705882);stroke-width:.09525;stroke-miterlimit:41.994751"/><path d="M18.983325 37.81425V32.48025" style="fill:none;stroke:rgba(16,0,238,.24705882);stroke-width:.09525;stroke-miterlimit:41.994751"/><path d="M55.8165 38.5572L54.282975 52.97805" style="fill:none;stroke:rgba(16,0,238,.24705882);stroke-width:.09525;stroke-miterlimit:41.994751"/><path d="M51.435 52.97805L55.8165 38.5572" style="fill:none;stroke:rgba(16,0,238,.24705882);stroke-width:.09525;stroke-miterlimit:41.994751"/><path d="M54.282975 52.97805H58.664475" style="fill:none;stroke:rgba(16,0,238,.24705882);stroke-width:.09525;stroke-miterlimit:41.994751"/><path d="M54.282975 52.97805H51.435" style="fill:none;stroke:rgba(16,0,238,.24705882);stroke-width:.09525;stroke-miterlimit:41.994751"/><path d="M54.282975 65.62725V52.97805" style="fill:none;stroke:rgba(8,0,246,.24705882);stroke-width:.09525;stroke-miterlimit:41.994751"/><path d="M54.282975 66.50355V66.4845" style="fill:none;stroke:rgba(8,0,246,.24705882);stroke-width:.09525;stroke-miterlimit:41.994751"/><path d="M53.1495 66.50355H55.41645V64.75095H53.1495z" style="fill:rgba(0,0,255,.24705882);stroke:rgba(0,0,255,.24705882);stroke-width:.09525;stroke-miterlimit:41.994751"/><path d="M54.759225 65.62725A.47625 .47625 0 0053.806725 65.62725A.47625 .47625 0 0054.759225 65.62725z" fill="rgba(0,0,255,.24705882)"/><path d="M53.1495 70.570725H55.41645V66.50355H53.1495z" style="fill:rgba(0,0,255,.24705882);stroke:rgba(0,0,255,.24705882);stroke-width:.09525;stroke-miterlimit:41.994751"/><path d="M54.759225 66.4845A.47625 .47625 0 0053.806725 66.4845A.47625 .47625 0 0054.759225 66.4845z" fill="rgba(0,0,255,.24705882)"/><path d="M54.282975 66.4845V65.62725" style="fill:none;stroke:rgba(0,0,255,.24705882);stroke-width:.09525;stroke-miterlimit:41.994751"/></svg>