<svg version="1.1" width="460.0575mm" height="401.66925mm" viewBox="0 0 460.0575 401.66925" xmlns="http://www.w3.org/2000/svg" xmlns:xlink="http://www.w3.org/1999/xlink"><path d="M65.43675 288.6075H67.34175" style="fill:none;stroke:#f00;stroke-width:.09525;stroke-miterlimit:41.994751"/><path d="M65.43675 288.6075V286.7025" style="fill:none;stroke:#0f0;stroke-width:.09525;stroke-miterlimit:41.994751"/><path d="M225.95205 96.393H269.1765V32.4231H225.95205z" style="fill:rgba(255,0,0,.24705882);stroke:rgba(255,0,0,.24705882);stroke-width:.09525;stroke-miterlimit:41.994751"/><path d="M266.9667 67.141725A.47625 .47625 0 00266.0142 67.141725A.47625 .47625 0 00266.9667 67.141725z" fill="rgba(255,0,0,.24705882)"/><path d="M285.18802 94.6023H298.26585V32.9565H285.18802z" style="fill:rgba(255,0,0,.24705882);stroke:rgba(255,0,0,.24705882);stroke-width:.09525;stroke-miterlimit:41.994751"/><path d="M293.96055 64.9605A.47625 .47625 0 00293.00805 64.9605A.47625 .47625 0 00293.96055 64.9605z" fill="rgba(255,0,0,.24705882)"/><path d="M83.505675 292.989H104.394V262.128H83.505675z" style="fill:rgba(255,0,0,.24705882);stroke:rgba(255,0,0,.24705882);stroke-width:.09525;stroke-miterlimit:41.994751"/><path d="M94.287975 285.51188A.47625 .47625 0 0093.335475 285.51188A.47625 .47625 0 0094.287975 285.51188z" fill="rgba(255,0,0,.24705882)"/><path d="M283.82595 64.855725A.47625 .47625 0 00282.87345 64.855725A.47625 .47625 0 00283.82595 64.855725z" fill="rgba(255,0,0,.24705882)"/><path d="M184.30875 175.93628H229.02863V136.46468H184.30875z" style="fill:rgba(255,0,0,.24705882);stroke:rgba(255,0,0,.24705882);stroke-width:.09525;stroke-miterlimit:41.994751"/><path d="M198.12 144.8943A.47625 .47625 0 00197.1675 144.8943A.47625 .47625 0 00198.12 144.8943z" fill="rgba(255,0,0,.24705882)"/><path d="M96.29775 325.51688H127.635V293.1795H96.29775z" style="fill:rgba(255,0,0,.24705882);stroke:rgba(255,0,0,.24705882);stroke-width:.09525;stroke-miterlimit:41.994751"/><path d="M112.52835 298.06583A.47625 .47625 0 00111.57585 298.06583A.47625 .47625 0 00112.52835 298.06583z" fill="rgba(255,0,0,.24705882)"/><path d="M196.64362 292.989H214.0839V266.1666H196.64362z" style="fill:rgba(255,0,0,.24705882);stroke:rgba(255,0,0,.24705882);stroke-width:.09525;stroke-miterlimit:41.994751"/><path d="M208.20697 284.35935A.47625 .47625 0 00207.25448 284.35935A.47625 .47625 0 00208.20697 284.35935z" fill="rgba(255,0,0,.24705882)"/><path d="M96.29775 354.38715H127.635V325.49783H96.29775z" style="fill:rgba(255,0,0,.24705882);stroke:rgba(255,0,0,.24705882);stroke-width:.09525;stroke-miterlimit:41.994751"/><path d="M112.395 331.65098A.47625 .47625 0 00111.4425 331.65098A.47625 .47625 0 00112.395 331.65098z" fill="rgba(255,0,0,.24705882)"/><path d="M19.269075 306.22875H83.53425V262.128H19.269075z" style="fill:rgba(255,0,0,.24705882);stroke:rgba(255,0,0,.24705882);stroke-width:.09525;stroke-miterlimit:41.994751"/><path d="M33.7566 284.12123A.47625 .47625 0 0032.8041 284.12123A.47625 .47625 0 0033.7566 284.12123z" fill="rgba(255,0,0,.24705882)"/><path d="M171.08805 136.2456H228.08565V52.29225H171.08805z" style="fill:rgba(255,0,0,.24705882);stroke:rgba(255,0,0,.24705882);stroke-width:.09525;stroke-miterlimit:41.994751"/><path d="M202.29195 71.066025A.47625 .47625 0 00201.33945 71.066025A.47625 .47625 0 00202.29195 71.066025z" fill="rgba(255,0,0,.24705882)"/><path d="M299.67555 96.393H345.65273V39.0525H299.67555z" style="fill:rgba(255,0,0,.24705882);stroke:rgba(255,0,0,.24705882);stroke-width:.09525;stroke-miterlimit:41.994751"/><path d="M341.06167 69.13245A.47625 .47625 0 00340.10917 69.13245A.47625 .47625 0 00341.06167 69.13245z" fill="rgba(255,0,0,.24705882)"/><path d="M184.30875 266.1666H214.884V176.11725H184.30875z" style="fill:rgba(255,0,0,.24705882);stroke:rgba(255,0,0,.24705882);stroke-width:.09525;stroke-miterlimit:41.994751"/><path d="M199.25347 227.14268A.47625 .47625 0 00198.30097 227.14268A.47625 .47625 0 00199.25347 227.14268z" fill="rgba(255,0,0,.24705882)"/><path d="M113.8809 292.989H196.69125V266.15708H113.8809z" style="fill:rgba(255,0,0,.24705882);stroke:rgba(255,0,0,.24705882);stroke-width:.09525;stroke-miterlimit:41.994751"/><path d="M118.31002 286.91205A.47625 .47625 0 00117.35753 286.91205A.47625 .47625 0 00118.31002 286.91205z" fill="rgba(255,0,0,.24705882)"/><path d="M283.3497 64.855725L293.4843 64.9605" style="fill:none;stroke:rgba(255,0,0,.24705882);stroke-width:.09525;stroke-miterlimit:41.994751"/><path d="M198.77722 227.14268L207.73073 284.35935" style="fill:none;stroke:rgba(255,0,0,.24705882);stroke-width:.09525;stroke-miterlimit:41.994751"/><path d="M33.28035 284.12123L93.811725 285.51188" style="fill:none;stroke:rgba(255,0,0,.24705882);stroke-width:.09525;stroke-miterlimit:41.994751"/><path d="M201.8157 71.066025L266.49045 67.141725" style="fill:none;stroke:rgba(255,0,0,.24705882);stroke-width:.09525;stroke-miterlimit:41.994751"/><path d="M117.83378 286.91205L207.73073 284.35935" style="fill:none;stroke:rgba(255,0,0,.24705882);stroke-width:.09525;stroke-miterlimit:41.994751"/><path d="M201.8157 71.066025L197.64375 144.8943" style="fill:none;stroke:rgba(255,0,0,.24705882);stroke-width:.09525;stroke-miterlimit:41.994751"/><path d="M112.0521 298.06583L111.91875 331.65098" style="fill:none;stroke:rgba(255,0,0,.24705882);stroke-width:.09525;stroke-miterlimit:41.994751"/><path d="M293.4843 64.9605L340.58542 69.13245" style="fill:none;stroke:rgba(255,0,0,.24705882);stroke-width:.09525;stroke-miterlimit:41.994751"/><path d="M112.0521 298.06583L93.811725 285.51188" style="fill:none;stroke:rgba(255,0,0,.24705882);stroke-width:.09525;stroke-miterlimit:41.994751"/><path d="M112.0521 298.06583L117.83378 286.91205" style="fill:none;stroke:rgba(255,0,0,.24705882);stroke-width:.09525;stroke-miterlimit:41.994751"/><path d="M179.0319 45.28185L201.8157 71.066025" style="fill:none;stroke:rgba(255,0,0,.24705882);stroke-width:.09525;stroke-miterlimit:41.994751"/><path d="M111.91875 331.65098L136.6647 334.92758" style="fill:none;stroke:rgba(255,0,0,.24705882);stroke-width:.09525;stroke-miterlimit:41.994751"/><path d="M93.811725 285.51188L108.46117 256.65113" style="fill:none;stroke:rgba(255,0,0,.24705882);stroke-width:.09525;stroke-miterlimit:41.994751"/><path d="M135.35978 301.7901L112.0521 298.06583" style="fill:none;stroke:rgba(255,0,0,.24705882);stroke-width:.09525;stroke-miterlimit:41.994751"/><path d="M207.73073 284.35935L218.34157 200.85368" style="fill:none;stroke:rgba(255,0,0,.24705882);stroke-width:.09525;stroke-miterlimit:41.994751"/><path d="M207.73073 284.35935L220.6752 300.59948" style="fill:none;stroke:rgba(255,0,0,.24705882);stroke-width:.09525;stroke-miterlimit:41.994751"/><path d="M33.28035 284.12123L35.71875 246.44985" style="fill:none;stroke:rgba(255,0,0,.24705882);stroke-width:.09525;stroke-miterlimit:41.994751"/><path d="M198.77722 227.14268L180.38445 232.15283" style="fill:none;stroke:rgba(255,0,0,.24705882);stroke-width:.09525;stroke-miterlimit:41.994751"/><path d="M198.77722 227.14268L165.45878 162.93465" style="fill:none;stroke:rgba(255,0,0,.24705882);stroke-width:.09525;stroke-miterlimit:41.994751"/><path d="M198.77722 227.14268L218.34157 200.85368" style="fill:none;stroke:rgba(255,0,0,.24705882);stroke-width:.09525;stroke-miterlimit:41.994751"/><path d="M33.28035 284.12123L97.21215 237.9726" style="fill:none;stroke:rgba(255,0,0,.24705882);stroke-width:.09525;stroke-miterlimit:41.994751"/><path d="M6.696075 242.52555L33.28035 284.12123" style="fill:none;stroke:rgba(255,0,0,.24705882);stroke-width:.09525;stroke-miterlimit:41.994751"/><path d="M266.49045 67.141725L268.86217 5.838825" style="fill:none;stroke:rgba(255,0,0,.24705882);stroke-width:.09525;stroke-miterlimit:41.994751"/><path d="M197.64375 144.8943L165.45878 162.93465" style="fill:none;stroke:rgba(255,0,0,.24705882);stroke-width:.09525;stroke-miterlimit:41.994751"/><path d="M221.73248 168.65918L197.64375 144.8943" style="fill:none;stroke:rgba(255,0,0,.24705882);stroke-width:.09525;stroke-miterlimit:41.994751"/><path d="M166.71607 259.08953L117.83378 286.91205" style="fill:none;stroke:rgba(255,0,0,.24705882);stroke-width:.09525;stroke-miterlimit:41.994751"/><path d="M340.58542 69.13245L360.6927 85.3059" style="fill:none;stroke:rgba(255,0,0,.24705882);stroke-width:.09525;stroke-miterlimit:41.994751"/><path d="M.28575 234.66743H19.402425V177.19358H.28575z" style="fill:rgba(250,0,0,.24705882);stroke:rgba(250,0,0,.24705882);stroke-width:.09525;stroke-miterlimit:41.994751"/><path d="M6.858 179.91773A.47625 .47625 0 005.9055 179.91773A.47625 .47625 0 006.858 179.91773z" fill="rgba(250,0,0,.24705882)"/><path d="M341.376 174.879H353.949V142.3035H341.376z" style="fill:rgba(250,0,0,.24705882);stroke:rgba(250,0,0,.24705882);stroke-width:.09525;stroke-miterlimit:41.994751"/><path d="M347.7768 167.20185A.47625 .47625 0 00346.8243 167.20185A.47625 .47625 0 00347.7768 167.20185z" fill="rgba(250,0,0,.24705882)"/><path d="M173.36453 393.7635H198.40575V348.996H173.36453z" style="fill:rgba(250,0,0,.24705882);stroke:rgba(250,0,0,.24705882);stroke-width:.09525;stroke-miterlimit:41.994751"/><path d="M187.13768 372.11318A.47625 .47625 0 00186.18518 372.11318A.47625 .47625 0 00187.13768 372.11318z" fill="rgba(250,0,0,.24705882)"/><path d="M106.5276 232.2957A.47625 .47625 0 00105.5751 232.2957A.47625 .47625 0 00106.5276 232.2957z" fill="rgba(250,0,0,.24705882)"/><path d="M84.420075 245.65928H110.2995V216.2175H84.420075z" style="fill:rgba(250,0,0,.24705882);stroke:rgba(250,0,0,.24705882);stroke-width:.09525;stroke-miterlimit:41.994751"/><path d="M97.6884 237.9726A.47625 .47625 0 0096.7359 237.9726A.47625 .47625 0 0097.6884 237.9726z" fill="rgba(250,0,0,.24705882)"/><path d="M83.886675 266.1285H153.22868V245.65928H83.886675z" style="fill:rgba(250,0,0,.24705882);stroke:rgba(250,0,0,.24705882);stroke-width:.09525;stroke-miterlimit:41.994751"/><path d="M108.93742 256.65113A.47625 .47625 0 00107.98493 256.65113A.47625 .47625 0 00108.93742 256.65113z" fill="rgba(250,0,0,.24705882)"/><path d="M153.20963 266.09993H184.20398V245.6307H153.20963z" style="fill:rgba(250,0,0,.24705882);stroke:rgba(250,0,0,.24705882);stroke-width:.09525;stroke-miterlimit:41.994751"/><path d="M167.19232 259.08953A.47625 .47625 0 00166.23982 259.08953A.47625 .47625 0 00167.19232 259.08953z" fill="rgba(250,0,0,.24705882)"/><path d="M167.54475 245.60213H184.19445V207.76883H167.54475z" style="fill:rgba(250,0,0,.24705882);stroke:rgba(250,0,0,.24705882);stroke-width:.09525;stroke-miterlimit:41.994751"/><path d="M180.8607 232.15283A.47625 .47625 0 00179.9082 232.15283A.47625 .47625 0 00180.8607 232.15283z" fill="rgba(250,0,0,.24705882)"/><path d="M153.25725 245.72595H167.53522V207.7212H153.25725z" style="fill:rgba(250,0,0,.24705882);stroke:rgba(250,0,0,.24705882);stroke-width:.09525;stroke-miterlimit:41.994751"/><path d="M159.64853 233.35298A.47625 .47625 0 00158.69603 233.35298A.47625 .47625 0 00159.64853 233.35298z" fill="rgba(250,0,0,.24705882)"/><path d="M153.25725 207.74978H184.27065V170.24033H153.25725z" style="fill:rgba(250,0,0,.24705882);stroke:rgba(250,0,0,.24705882);stroke-width:.09525;stroke-miterlimit:41.994751"/><path d="M156.77197 204.79703A.47625 .47625 0 00155.81948 204.79703A.47625 .47625 0 00156.77197 204.79703z" fill="rgba(250,0,0,.24705882)"/><path d="M136.06463 170.21175H183.7563V155.87663H136.06463z" style="fill:rgba(250,0,0,.24705882);stroke:rgba(250,0,0,.24705882);stroke-width:.09525;stroke-miterlimit:41.994751"/><path d="M165.93502 162.93465A.47625 .47625 0 00164.98253 162.93465A.47625 .47625 0 00165.93502 162.93465z" fill="rgba(250,0,0,.24705882)"/><path d="M116.06213 170.21175H136.0932V155.93378H116.06213z" style="fill:rgba(250,0,0,.24705882);stroke:rgba(250,0,0,.24705882);stroke-width:.09525;stroke-miterlimit:41.994751"/><path d="M129.4257 162.2679A.47625 .47625 0 00128.4732 162.2679A.47625 .47625 0 00129.4257 162.2679z" fill="rgba(250,0,0,.24705882)"/><path d="M116.06213 155.91473H183.74678V137.06475H116.06213z" style="fill:rgba(250,0,0,.24705882);stroke:rgba(250,0,0,.24705882);stroke-width:.09525;stroke-miterlimit:41.994751"/><path d="M148.971 143.69415A.47625 .47625 0 00148.0185 143.69415A.47625 .47625 0 00148.971 143.69415z" fill="rgba(250,0,0,.24705882)"/><path d="M213.21713 187.85205H228.08565V157.353H213.21713z" style="fill:rgba(250,0,0,.24705882);stroke:rgba(250,0,0,.24705882);stroke-width:.09525;stroke-miterlimit:41.994751"/><path d="M222.20873 168.65918A.47625 .47625 0 00221.25623 168.65918A.47625 .47625 0 00222.20873 168.65918z" fill="rgba(250,0,0,.24705882)"/><path d="M213.2076 252.9078H228.04755V187.88063H213.2076z" style="fill:rgba(250,0,0,.24705882);stroke:rgba(250,0,0,.24705882);stroke-width:.09525;stroke-miterlimit:41.994751"/><path d="M218.81782 200.85368A.47625 .47625 0 00217.86532 200.85368A.47625 .47625 0 00218.81782 200.85368z" fill="rgba(250,0,0,.24705882)"/><path d="M264.033 32.48025H273.939V2.00025H264.033z" style="fill:rgba(250,0,0,.24705882);stroke:rgba(250,0,0,.24705882);stroke-width:.09525;stroke-miterlimit:41.994751"/><path d="M269.33842 5.838825A.47625 .47625 0 00268.38592 5.838825A.47625 .47625 0 00269.33842 5.838825z" fill="rgba(250,0,0,.24705882)"/><path d="M171.51668 52.578H226.01873V21.31695H171.51668z" style="fill:rgba(250,0,0,.24705882);stroke:rgba(250,0,0,.24705882);stroke-width:.09525;stroke-miterlimit:41.994751"/><path d="M179.50815 45.28185A.47625 .47625 0 00178.55565 45.28185A.47625 .47625 0 00179.50815 45.28185z" fill="rgba(250,0,0,.24705882)"/><path d="M98.002725 29.718H166.497V.28575H98.002725z" style="fill:rgba(250,0,0,.24705882);stroke:rgba(250,0,0,.24705882);stroke-width:.09525;stroke-miterlimit:41.994751"/><path d="M138.13155 16.144875A.47625 .47625 0 00137.17905 16.144875A.47625 .47625 0 00138.13155 16.144875z" fill="rgba(250,0,0,.24705882)"/><path d="M52.578 131.13068H98.01225V114.99533H52.578z" style="fill:rgba(250,0,0,.24705882);stroke:rgba(250,0,0,.24705882);stroke-width:.09525;stroke-miterlimit:41.994751"/><path d="M97.355025 126.67298A.47625 .47625 0 0096.402525 126.67298A.47625 .47625 0 0097.355025 126.67298z" fill="rgba(250,0,0,.24705882)"/><path d="M103.48913 152.5905H116.0907V136.68375H103.48913z" style="fill:rgba(250,0,0,.24705882);stroke:rgba(250,0,0,.24705882);stroke-width:.09525;stroke-miterlimit:41.994751"/><path d="M107.72775 144.98955A.47625 .47625 0 00106.77525 144.98955A.47625 .47625 0 00107.72775 144.98955z" fill="rgba(250,0,0,.24705882)"/><path d="M40.82415 177.83175H77.676375V152.54288H40.82415z" style="fill:rgba(250,0,0,.24705882);stroke:rgba(250,0,0,.24705882);stroke-width:.09525;stroke-miterlimit:41.994751"/><path d="M65.293875 154.0002A.47625 .47625 0 0064.341375 154.0002A.47625 .47625 0 0065.293875 154.0002z" fill="rgba(250,0,0,.24705882)"/><path d="M369.951 174.879H381.56198V126.873H369.951z" style="fill:rgba(250,0,0,.24705882);stroke:rgba(250,0,0,.24705882);stroke-width:.09525;stroke-miterlimit:41.994751"/><path d="M375.15165 137.4648A.47625 .47625 0 00374.19915 137.4648A.47625 .47625 0 00375.15165 137.4648z" fill="rgba(250,0,0,.24705882)"/><path d="M10.753725 176.85068H40.86225V136.68375H10.753725z" style="fill:rgba(250,0,0,.24705882);stroke:rgba(250,0,0,.24705882);stroke-width:.09525;stroke-miterlimit:41.994751"/><path d="M36.242625 155.26703A.47625 .47625 0 0035.290125 155.26703A.47625 .47625 0 0036.242625 155.26703z" fill="rgba(250,0,0,.24705882)"/><path d="M29.69895 260.84213H84.401025V177.66983H29.69895z" style="fill:rgba(250,0,0,.24705882);stroke:rgba(250,0,0,.24705882);stroke-width:.09525;stroke-miterlimit:41.994751"/><path d="M36.195 246.44985A.47625 .47625 0 0035.2425 246.44985A.47625 .47625 0 0036.195 246.44985z" fill="rgba(250,0,0,.24705882)"/><path d="M.28575 306.22875H19.250025V234.63885H.28575z" style="fill:rgba(250,0,0,.24705882);stroke:rgba(250,0,0,.24705882);stroke-width:.09525;stroke-miterlimit:41.994751"/><path d="M7.172325 242.52555A.47625 .47625 0 006.219825 242.52555A.47625 .47625 0 007.172325 242.52555z" fill="rgba(250,0,0,.24705882)"/><path d="M345.48128 97.05975H459.77175V29.9085H345.48128z" style="fill:rgba(250,0,0,.24705882);stroke:rgba(250,0,0,.24705882);stroke-width:.09525;stroke-miterlimit:41.994751"/><path d="M361.16895 85.3059A.47625 .47625 0 00360.21645 85.3059A.47625 .47625 0 00361.16895 85.3059z" fill="rgba(250,0,0,.24705882)"/><path d="M127.92075 306.22875H214.94115V293.0271H127.92075z" style="fill:rgba(250,0,0,.24705882);stroke:rgba(250,0,0,.24705882);stroke-width:.09525;stroke-miterlimit:41.994751"/><path d="M135.83603 301.7901A.47625 .47625 0 00134.88353 301.7901A.47625 .47625 0 00135.83603 301.7901z" fill="rgba(250,0,0,.24705882)"/><path d="M127.80645 337.46123H140.87475V306.14303H127.80645z" style="fill:rgba(250,0,0,.24705882);stroke:rgba(250,0,0,.24705882);stroke-width:.09525;stroke-miterlimit:41.994751"/><path d="M137.14095 334.92758A.47625 .47625 0 00136.18845 334.92758A.47625 .47625 0 00137.14095 334.92758z" fill="rgba(250,0,0,.24705882)"/><path d="M232.62908 393.7635H296.70375V364.72178H232.62908z" style="fill:rgba(250,0,0,.24705882);stroke:rgba(250,0,0,.24705882);stroke-width:.09525;stroke-miterlimit:41.994751"/><path d="M284.7975 372.49418A.47625 .47625 0 00283.845 372.49418A.47625 .47625 0 00284.7975 372.49418z" fill="rgba(250,0,0,.24705882)"/><path d="M199.54875 382.60973H232.6005V348.996H199.54875z" style="fill:rgba(250,0,0,.24705882);stroke:rgba(250,0,0,.24705882);stroke-width:.09525;stroke-miterlimit:41.994751"/><path d="M221.14193 372.66563A.47625 .47625 0 00220.18943 372.66563A.47625 .47625 0 00221.14193 372.66563z" fill="rgba(250,0,0,.24705882)"/><path d="M213.83625 350.64383H228.12375V252.91733H213.83625z" style="fill:rgba(250,0,0,.24705882);stroke:rgba(250,0,0,.24705882);stroke-width:.09525;stroke-miterlimit:41.994751"/><path d="M221.15145 300.59948A.47625 .47625 0 00220.19895 300.59948A.47625 .47625 0 00221.15145 300.59948z" fill="rgba(250,0,0,.24705882)"/><path d="M361.25468 141.37005A.47625 .47625 0 00360.30218 141.37005A.47625 .47625 0 00361.25468 141.37005z" fill="rgba(250,0,0,.24705882)"/><path d="M228.15233 208.9785H248.24055V193.929H228.15233z" style="fill:rgba(250,0,0,.24705882);stroke:rgba(250,0,0,.24705882);stroke-width:.09525;stroke-miterlimit:41.994751"/><path d="M239.24895 200.9394A.47625 .47625 0 00238.29645 200.9394A.47625 .47625 0 00239.24895 200.9394z" fill="rgba(250,0,0,.24705882)"/><path d="M126.4158 393.7635H141.2748V359.54018H126.4158z" style="fill:rgba(250,0,0,.24705882);stroke:rgba(250,0,0,.24705882);stroke-width:.09525;stroke-miterlimit:41.994751"/><path d="M139.12215 386.64832A.47625 .47625 0 00138.16965 386.64832A.47625 .47625 0 00139.12215 386.64832z" fill="rgba(250,0,0,.24705882)"/><path d="M326.98373 174.3837H340.614V153.26678H326.98373z" style="fill:rgba(250,0,0,.24705882);stroke:rgba(250,0,0,.24705882);stroke-width:.09525;stroke-miterlimit:41.994751"/><path d="M334.98473 160.95345A.47625 .47625 0 00334.03223 160.95345A.47625 .47625 0 00334.98473 160.95345z" fill="rgba(250,0,0,.24705882)"/><path d="M301.24717 193.86233H316.23V138.25538H301.24717z" style="fill:rgba(250,0,0,.24705882);stroke:rgba(250,0,0,.24705882);stroke-width:.09525;stroke-miterlimit:41.994751"/><path d="M309.41962 148.76145A.47625 .47625 0 00308.46713 148.76145A.47625 .47625 0 00309.41962 148.76145z" fill="rgba(250,0,0,.24705882)"/><path d="M248.21197 208.9785H316.20142V193.98615H248.21197z" style="fill:rgba(250,0,0,.24705882);stroke:rgba(250,0,0,.24705882);stroke-width:.09525;stroke-miterlimit:41.994751"/><path d="M307.07648 202.11098A.47625 .47625 0 00306.12398 202.11098A.47625 .47625 0 00307.07648 202.11098z" fill="rgba(250,0,0,.24705882)"/><path d="M341.39505 140.76045H371.33213V132.61658H341.39505z" style="fill:rgba(250,0,0,.24705882);stroke:rgba(250,0,0,.24705882);stroke-width:.09525;stroke-miterlimit:41.994751"/><path d="M362.05478 137.55052A.47625 .47625 0 00361.10228 137.55052A.47625 .47625 0 00362.05478 137.55052z" fill="rgba(250,0,0,.24705882)"/><path d="M141.29385 397.764H173.3931V348.996H141.29385z" style="fill:rgba(250,0,0,.24705882);stroke:rgba(250,0,0,.24705882);stroke-width:.09525;stroke-miterlimit:41.994751"/><path d="M156.6672 373.61813A.47625 .47625 0 00155.7147 373.61813A.47625 .47625 0 00156.6672 373.61813z" fill="rgba(250,0,0,.24705882)"/><path d="M317.36347 214.40775H340.2711V174.39323H317.36347z" style="fill:rgba(250,0,0,.24705882);stroke:rgba(250,0,0,.24705882);stroke-width:.09525;stroke-miterlimit:41.994751"/><path d="M330.99375 202.43483A.47625 .47625 0 00330.04125 202.43483A.47625 .47625 0 00330.99375 202.43483z" fill="rgba(250,0,0,.24705882)"/><path d="M346.69095 141.2367A.47625 .47625 0 00345.73845 141.2367A.47625 .47625 0 00346.69095 141.2367z" fill="rgba(250,0,0,.24705882)"/><path d="M330.5175 202.43482L334.50848 160.95345" style="fill:none;stroke:rgba(250,0,0,.24705882);stroke-width:.09525;stroke-miterlimit:41.994751"/><path d="M159.17228 233.35298L166.71607 259.08953" style="fill:none;stroke:rgba(250,0,0,.24705882);stroke-width:.09525;stroke-miterlimit:41.994751"/><path d="M347.30055 167.20185L346.2147 141.2367" style="fill:none;stroke:rgba(250,0,0,.24705882);stroke-width:.09525;stroke-miterlimit:41.994751"/><path d="M220.66568 372.66563L284.32125 372.49418" style="fill:none;stroke:rgba(250,0,0,.24705882);stroke-width:.09525;stroke-miterlimit:41.994751"/><path d="M238.7727 200.9394L306.60023 202.11097" style="fill:none;stroke:rgba(250,0,0,.24705882);stroke-width:.09525;stroke-miterlimit:41.994751"/><path d="M220.6752 300.59948L220.66568 372.66563" style="fill:none;stroke:rgba(250,0,0,.24705882);stroke-width:.09525;stroke-miterlimit:41.994751"/><path d="M220.6752 300.59948L135.35978 301.7901" style="fill:none;stroke:rgba(250,0,0,.24705882);stroke-width:.09525;stroke-miterlimit:41.994751"/><path d="M136.6647 334.92758L135.35978 301.7901" style="fill:none;stroke:rgba(250,0,0,.24705882);stroke-width:.09525;stroke-miterlimit:41.994751"/><path d="M138.6459 386.64832L156.19095 373.61813" style="fill:none;stroke:rgba(250,0,0,.24705882);stroke-width:.09525;stroke-miterlimit:41.994751"/><path d="M35.71875 246.44985L35.766375 155.26703" style="fill:none;stroke:rgba(250,0,0,.24705882);stroke-width:.09525;stroke-miterlimit:41.994751"/><path d="M35.71875 246.44985L97.21215 237.9726" style="fill:none;stroke:rgba(250,0,0,.24705882);stroke-width:.09525;stroke-miterlimit:41.994751"/><path d="M186.66143 372.11318L156.19095 373.61813" style="fill:none;stroke:rgba(250,0,0,.24705882);stroke-width:.09525;stroke-miterlimit:41.994751"/><path d="M97.21215 237.9726L106.05135 232.2957" style="fill:none;stroke:rgba(250,0,0,.24705882);stroke-width:.09525;stroke-miterlimit:41.994751"/><path d="M108.46117 256.65113L97.21215 237.9726" style="fill:none;stroke:rgba(250,0,0,.24705882);stroke-width:.09525;stroke-miterlimit:41.994751"/><path d="M166.71607 259.08953L108.46117 256.65113" style="fill:none;stroke:rgba(250,0,0,.24705882);stroke-width:.09525;stroke-miterlimit:41.994751"/><path d="M166.71607 259.08953L180.38445 232.15283" style="fill:none;stroke:rgba(250,0,0,.24705882);stroke-width:.09525;stroke-miterlimit:41.994751"/><path d="M374.6754 137.4648L361.57853 137.55052" style="fill:none;stroke:rgba(250,0,0,.24705882);stroke-width:.09525;stroke-miterlimit:41.994751"/><path d="M64.817625 154.0002L35.766375 155.26703" style="fill:none;stroke:rgba(250,0,0,.24705882);stroke-width:.09525;stroke-miterlimit:41.994751"/><path d="M159.17228 233.35298L156.29573 204.79703" style="fill:none;stroke:rgba(250,0,0,.24705882);stroke-width:.09525;stroke-miterlimit:41.994751"/><path d="M165.45878 162.93465L156.29573 204.79703" style="fill:none;stroke:rgba(250,0,0,.24705882);stroke-width:.09525;stroke-miterlimit:41.994751"/><path d="M165.45878 162.93465L128.94945 162.2679" style="fill:none;stroke:rgba(250,0,0,.24705882);stroke-width:.09525;stroke-miterlimit:41.994751"/><path d="M165.45878 162.93465L148.49475 143.69415" style="fill:none;stroke:rgba(250,0,0,.24705882);stroke-width:.09525;stroke-miterlimit:41.994751"/><path d="M330.5175 202.43482L306.60023 202.11097" style="fill:none;stroke:rgba(250,0,0,.24705882);stroke-width:.09525;stroke-miterlimit:41.994751"/><path d="M128.94945 162.2679L107.2515 144.98955" style="fill:none;stroke:rgba(250,0,0,.24705882);stroke-width:.09525;stroke-miterlimit:41.994751"/><path d="M218.34157 200.85368L221.73248 168.65918" style="fill:none;stroke:rgba(250,0,0,.24705882);stroke-width:.09525;stroke-miterlimit:41.994751"/><path d="M35.766375 155.26703L6.38175 179.91773" style="fill:none;stroke:rgba(250,0,0,.24705882);stroke-width:.09525;stroke-miterlimit:41.994751"/><path d="M361.57853 137.55052L346.2147 141.2367" style="fill:none;stroke:rgba(250,0,0,.24705882);stroke-width:.09525;stroke-miterlimit:41.994751"/><path d="M361.57853 137.55052L360.77843 141.37005" style="fill:none;stroke:rgba(250,0,0,.24705882);stroke-width:.09525;stroke-miterlimit:41.994751"/><path d="M218.34157 200.85368L238.7727 200.9394" style="fill:none;stroke:rgba(250,0,0,.24705882);stroke-width:.09525;stroke-miterlimit:41.994751"/><path d="M306.60023 202.11097L308.94338 148.76145" style="fill:none;stroke:rgba(250,0,0,.24705882);stroke-width:.09525;stroke-miterlimit:41.994751"/><path d="M6.38175 179.91773L6.696075 242.52555" style="fill:none;stroke:rgba(250,0,0,.24705882);stroke-width:.09525;stroke-miterlimit:41.994751"/><path d="M138.6459 386.64832L122.3391 391.91565" style="fill:none;stroke:rgba(250,0,0,.24705882);stroke-width:.09525;stroke-miterlimit:41.994751"/><path d="M159.64853 44.929425L179.0319 45.28185" style="fill:none;stroke:rgba(250,0,0,.24705882);stroke-width:.09525;stroke-miterlimit:41.994751"/><path d="M159.64853 44.929425L137.6553 16.144875" style="fill:none;stroke:rgba(250,0,0,.24705882);stroke-width:.09525;stroke-miterlimit:41.994751"/><path d="M117.90045 397.764H126.39675V380.01893H117.90045z" style="fill:rgba(250,0,0,.24705882);stroke:rgba(250,0,0,.24705882);stroke-width:.09525;stroke-miterlimit:41.994751"/><path d="M122.81535 391.91565A.47625 .47625 0 00121.86285 391.91565A.47625 .47625 0 00122.81535 391.91565z" fill="rgba(250,0,0,.24705882)"/><path d="M151.73325 51.425475H171.65002V37.4523H151.73325z" style="fill:rgba(250,0,0,.24705882);stroke:rgba(250,0,0,.24705882);stroke-width:.09525;stroke-miterlimit:41.994751"/><path d="M160.12477 44.929425A.47625 .47625 0 00159.17228 44.929425A.47625 .47625 0 00160.12477 44.929425z" fill="rgba(250,0,0,.24705882)"/><path d="M64.817625 154.0002L86.134575 136.19798" style="fill:none;stroke:rgba(250,0,4,.24705882);stroke-width:.09525;stroke-miterlimit:41.994751"/><path d="M107.2515 144.98955L86.134575 136.19798" style="fill:none;stroke:rgba(250,0,4,.24705882);stroke-width:.09525;stroke-miterlimit:41.994751"/><path d="M86.134575 136.19798L96.878775 126.67298" style="fill:none;stroke:rgba(250,0,4,.24705882);stroke-width:.09525;stroke-miterlimit:41.994751"/><path d="M207.73073 284.35935L240.87772 254.26988" style="fill:none;stroke:rgba(250,0,4,.24705882);stroke-width:.09525;stroke-miterlimit:41.994751"/><path d="M15.33525 377.1519H58.5978V347.56725H15.33525z" style="fill:rgba(250,0,4,.24705882);stroke:rgba(250,0,4,.24705882);stroke-width:.09525;stroke-miterlimit:41.994751"/><path d="M38.19525 363.04538A.47625 .47625 0 0037.24275 363.04538A.47625 .47625 0 0038.19525 363.04538z" fill="rgba(250,0,4,.24705882)"/><path d="M130.0734 45.3771L159.64853 44.929425" style="fill:none;stroke:rgba(250,0,4,.24705882);stroke-width:.09525;stroke-miterlimit:41.994751"/><path d="M40.8813 152.5905H103.65105V131.04495H40.8813z" style="fill:rgba(250,0,4,.24705882);stroke:rgba(250,0,4,.24705882);stroke-width:.09525;stroke-miterlimit:41.994751"/><path d="M86.610825 136.19798A.47625 .47625 0 0085.658325 136.19798A.47625 .47625 0 0086.610825 136.19798z" fill="rgba(250,0,4,.24705882)"/><path d="M128.74943 51.72075H151.7523V39.0525H128.74943z" style="fill:rgba(250,0,4,.24705882);stroke:rgba(250,0,4,.24705882);stroke-width:.09525;stroke-miterlimit:41.994751"/><path d="M130.54965 45.3771A.47625 .47625 0 00129.59715 45.3771A.47625 .47625 0 00130.54965 45.3771z" fill="rgba(250,0,4,.24705882)"/><path d="M137.2362 358.18763L138.6459 386.64832" style="fill:none;stroke:rgba(250,0,4,.24705882);stroke-width:.09525;stroke-miterlimit:41.994751"/><path d="M136.6647 334.92758L137.2362 358.18763" style="fill:none;stroke:rgba(250,0,4,.24705882);stroke-width:.09525;stroke-miterlimit:41.994751"/><path d="M105.87037 366.96968L111.91875 331.65098" style="fill:none;stroke:rgba(250,0,4,.24705882);stroke-width:.09525;stroke-miterlimit:41.994751"/><path d="M238.78223 300.7233L220.6752 300.59948" style="fill:none;stroke:rgba(250,0,4,.24705882);stroke-width:.09525;stroke-miterlimit:41.994751"/><path d="M306.60023 202.11097L283.77833 216.6366" style="fill:none;stroke:rgba(250,0,4,.24705882);stroke-width:.09525;stroke-miterlimit:41.994751"/><path d="M240.87772 254.26988L238.7727 200.9394" style="fill:none;stroke:rgba(250,0,4,.24705882);stroke-width:.09525;stroke-miterlimit:41.994751"/><path d="M240.87772 254.26988L218.34157 200.85368" style="fill:none;stroke:rgba(250,0,4,.24705882);stroke-width:.09525;stroke-miterlimit:41.994751"/><path d="M122.3391 391.91565L92.3544 391.1727" style="fill:none;stroke:rgba(250,0,4,.24705882);stroke-width:.09525;stroke-miterlimit:41.994751"/><path d="M127.72073 359.65448H140.87475V337.3374H127.72073z" style="fill:rgba(250,0,4,.24705882);stroke:rgba(250,0,4,.24705882);stroke-width:.09525;stroke-miterlimit:41.994751"/><path d="M137.71245 358.18763A.47625 .47625 0 00136.75995 358.18763A.47625 .47625 0 00137.71245 358.18763z" fill="rgba(250,0,4,.24705882)"/><path d="M37.719 363.04538L64.2366 356.26358" style="fill:none;stroke:rgba(246,0,4,.24705882);stroke-width:.09525;stroke-miterlimit:41.994751"/><path d="M37.719 363.04538L58.721625 380.59995" style="fill:none;stroke:rgba(246,0,4,.24705882);stroke-width:.09525;stroke-miterlimit:41.994751"/><path d="M106.05135 232.2957L112.9665 232.31475" style="fill:none;stroke:rgba(246,0,4,.24705882);stroke-width:.09525;stroke-miterlimit:41.994751"/><path d="M273.62467 268.70025H294.64635V261.0612H273.62467z" style="fill:rgba(246,0,8,.24705882);stroke:rgba(246,0,8,.24705882);stroke-width:.09525;stroke-miterlimit:41.994751"/><path d="M293.54145 264.5664A.47625 .47625 0 00292.58895 264.5664A.47625 .47625 0 00293.54145 264.5664z" fill="rgba(246,0,8,.24705882)"/><path d="M378.23775 316.05855H396.14475V304.85715H378.23775z" style="fill:rgba(246,0,8,.24705882);stroke:rgba(246,0,8,.24705882);stroke-width:.09525;stroke-miterlimit:41.994751"/><path d="M388.97242 309.9816A.47625 .47625 0 00388.01993 309.9816A.47625 .47625 0 00388.97242 309.9816z" fill="rgba(246,0,8,.24705882)"/><path d="M297.3705 305.3715H316.51575V255.36525H297.3705z" style="fill:rgba(246,0,8,.24705882);stroke:rgba(246,0,8,.24705882);stroke-width:.09525;stroke-miterlimit:41.994751"/><path d="M308.52427 280.97798A.47625 .47625 0 00307.57178 280.97798A.47625 .47625 0 00308.52427 280.97798z" fill="rgba(246,0,8,.24705882)"/><path d="M267.36675 244.3353H311.76278V209.36903H267.36675z" style="fill:rgba(246,0,8,.24705882);stroke:rgba(246,0,8,.24705882);stroke-width:.09525;stroke-miterlimit:41.994751"/><path d="M284.25458 216.6366A.47625 .47625 0 00283.30208 216.6366A.47625 .47625 0 00284.25458 216.6366z" fill="rgba(246,0,8,.24705882)"/><path d="M267.0429 261.11835H296.418V244.3353H267.0429z" style="fill:rgba(246,0,8,.24705882);stroke:rgba(246,0,8,.24705882);stroke-width:.09525;stroke-miterlimit:41.994751"/><path d="M284.50223 251.33618A.47625 .47625 0 00283.54973 251.33618A.47625 .47625 0 00284.50223 251.33618z" fill="rgba(246,0,8,.24705882)"/><path d="M396.1638 326.80275H410.337V317.84925H396.1638z" style="fill:rgba(246,0,8,.24705882);stroke:rgba(246,0,8,.24705882);stroke-width:.09525;stroke-miterlimit:41.994751"/><path d="M403.15515 322.37363A.47625 .47625 0 00402.20265 322.37363A.47625 .47625 0 00403.15515 322.37363z" fill="rgba(246,0,8,.24705882)"/><path d="M288.86467 306.22875H294.59873V290.57918H288.86467z" style="fill:rgba(246,0,8,.24705882);stroke:rgba(246,0,8,.24705882);stroke-width:.09525;stroke-miterlimit:41.994751"/><path d="M292.3794 294.53205A.47625 .47625 0 00291.4269 294.53205A.47625 .47625 0 00292.3794 294.53205z" fill="rgba(246,0,8,.24705882)"/><path d="M396.15428 314.8965H410.337V305.943H396.15428z" style="fill:rgba(246,0,8,.24705882);stroke:rgba(246,0,8,.24705882);stroke-width:.09525;stroke-miterlimit:41.994751"/><path d="M403.11705 310.41023A.47625 .47625 0 00402.16455 310.41023A.47625 .47625 0 00403.11705 310.41023z" fill="rgba(246,0,8,.24705882)"/><path d="M396.15428 302.99025H410.337V294.03675H396.15428z" style="fill:rgba(246,0,8,.24705882);stroke:rgba(246,0,8,.24705882);stroke-width:.09525;stroke-miterlimit:41.994751"/><path d="M403.18373 298.40873A.47625 .47625 0 00402.23123 298.40873A.47625 .47625 0 00403.18373 298.40873z" fill="rgba(246,0,8,.24705882)"/><path d="M266.76667 306.2097H288.84562V297.18H266.76667z" style="fill:rgba(246,0,8,.24705882);stroke:rgba(246,0,8,.24705882);stroke-width:.09525;stroke-miterlimit:41.994751"/><path d="M287.29305 300.58043A.47625 .47625 0 00286.34055 300.58043A.47625 .47625 0 00287.29305 300.58043z" fill="rgba(246,0,8,.24705882)"/><path d="M378.23775 326.80275H396.14475V316.04903H378.23775z" style="fill:rgba(246,0,8,.24705882);stroke:rgba(246,0,8,.24705882);stroke-width:.09525;stroke-miterlimit:41.994751"/><path d="M389.0391 322.18313A.47625 .47625 0 00388.0866 322.18313A.47625 .47625 0 00389.0391 322.18313z" fill="rgba(246,0,8,.24705882)"/><path d="M286.73108 285.31185H296.418V268.7574H286.73108z" style="fill:rgba(246,0,8,.24705882);stroke:rgba(246,0,8,.24705882);stroke-width:.09525;stroke-miterlimit:41.994751"/><path d="M293.92245 280.9113A.47625 .47625 0 00292.96995 280.9113A.47625 .47625 0 00293.92245 280.9113z" fill="rgba(246,0,8,.24705882)"/><path d="M228.42855 306.22875H266.7762V293.42715H228.42855z" style="fill:rgba(246,0,8,.24705882);stroke:rgba(246,0,8,.24705882);stroke-width:.09525;stroke-miterlimit:41.994751"/><path d="M239.25848 300.7233A.47625 .47625 0 00238.30598 300.7233A.47625 .47625 0 00239.25848 300.7233z" fill="rgba(246,0,8,.24705882)"/><path d="M228.04755 293.6367H258.68948V209.1309H228.04755z" style="fill:rgba(246,0,8,.24705882);stroke:rgba(246,0,8,.24705882);stroke-width:.09525;stroke-miterlimit:41.994751"/><path d="M241.35397 254.26988A.47625 .47625 0 00240.40148 254.26988A.47625 .47625 0 00241.35397 254.26988z" fill="rgba(246,0,8,.24705882)"/><path d="M378.23775 304.89525H396.14475V288.4551H378.23775z" style="fill:rgba(246,0,8,.24705882);stroke:rgba(246,0,8,.24705882);stroke-width:.09525;stroke-miterlimit:41.994751"/><path d="M389.0391 297.7515A.47625 .47625 0 00388.0866 297.7515A.47625 .47625 0 00389.0391 297.7515z" fill="rgba(246,0,8,.24705882)"/><path d="M316.5348 274.1295H335.79435V257.556H316.5348z" style="fill:rgba(246,0,8,.24705882);stroke:rgba(246,0,8,.24705882);stroke-width:.09525;stroke-miterlimit:41.994751"/><path d="M325.69785 264.0711A.47625 .47625 0 00324.74535 264.0711A.47625 .47625 0 00325.69785 264.0711z" fill="rgba(246,0,8,.24705882)"/><path d="M378.23775 288.46463H394.9065V274.5105H378.23775z" style="fill:rgba(246,0,8,.24705882);stroke:rgba(246,0,8,.24705882);stroke-width:.09525;stroke-miterlimit:41.994751"/><path d="M385.97205 282.50198A.47625 .47625 0 00385.01955 282.50198A.47625 .47625 0 00385.97205 282.50198z" fill="rgba(246,0,8,.24705882)"/><path d="M319.7733 305.3715H335.56575V277.46325H319.7733z" style="fill:rgba(246,0,8,.24705882);stroke:rgba(246,0,8,.24705882);stroke-width:.09525;stroke-miterlimit:41.994751"/><path d="M327.66953 297.5991A.47625 .47625 0 00326.71703 297.5991A.47625 .47625 0 00327.66953 297.5991z" fill="rgba(246,0,8,.24705882)"/><path d="M394.91602 288.51225H410.5275V275.05343H394.91602z" style="fill:rgba(246,0,8,.24705882);stroke:rgba(246,0,8,.24705882);stroke-width:.09525;stroke-miterlimit:41.994751"/><path d="M401.25015 282.45435A.47625 .47625 0 00400.29765 282.45435A.47625 .47625 0 00401.25015 282.45435z" fill="rgba(246,0,8,.24705882)"/><path d="M322.42125 257.49885H335.75625V214.884H322.42125z" style="fill:rgba(246,0,8,.24705882);stroke:rgba(246,0,8,.24705882);stroke-width:.09525;stroke-miterlimit:41.994751"/><path d="M329.84123 225.7806A.47625 .47625 0 00328.88873 225.7806A.47625 .47625 0 00329.84123 225.7806z" fill="rgba(246,0,8,.24705882)"/><path d="M394.81125 275.06295H410.5275V264.25207H394.81125z" style="fill:rgba(246,0,8,.24705882);stroke:rgba(246,0,8,.24705882);stroke-width:.09525;stroke-miterlimit:41.994751"/><path d="M404.0505 268.61453A.47625 .47625 0 00403.098 268.61453A.47625 .47625 0 00404.0505 268.61453z" fill="rgba(246,0,8,.24705882)"/><path d="M362.9025 251.63145H377.09475V228.30473H362.9025z" style="fill:rgba(246,0,8,.24705882);stroke:rgba(246,0,8,.24705882);stroke-width:.09525;stroke-miterlimit:41.994751"/><path d="M370.72253 242.95418A.47625 .47625 0 00369.77003 242.95418A.47625 .47625 0 00370.72253 242.95418z" fill="rgba(246,0,8,.24705882)"/><path d="M378.23775 263.28053H401.3835V221.5515H378.23775z" style="fill:rgba(246,0,8,.24705882);stroke:rgba(246,0,8,.24705882);stroke-width:.09525;stroke-miterlimit:41.994751"/><path d="M392.14425 242.90655A.47625 .47625 0 00391.19175 242.90655A.47625 .47625 0 00392.14425 242.90655z" fill="rgba(246,0,8,.24705882)"/><path d="M335.76578 269.9385H362.93108V257.556H335.76578z" style="fill:rgba(246,0,8,.24705882);stroke:rgba(246,0,8,.24705882);stroke-width:.09525;stroke-miterlimit:41.994751"/><path d="M350.47237 263.06145A.47625 .47625 0 00349.51988 263.06145A.47625 .47625 0 00350.47237 263.06145z" fill="rgba(246,0,8,.24705882)"/><path d="M335.7753 228.31425H377.09475V214.884H335.7753z" style="fill:rgba(246,0,8,.24705882);stroke:rgba(246,0,8,.24705882);stroke-width:.09525;stroke-miterlimit:41.994751"/><path d="M369.21758 221.56103A.47625 .47625 0 00368.26508 221.56103A.47625 .47625 0 00369.21758 221.56103z" fill="rgba(246,0,8,.24705882)"/><path d="M362.92155 269.9385H377.09475V251.63145H362.92155z" style="fill:rgba(246,0,8,.24705882);stroke:rgba(246,0,8,.24705882);stroke-width:.09525;stroke-miterlimit:41.994751"/><path d="M369.7986 263.77583A.47625 .47625 0 00368.8461 263.77583A.47625 .47625 0 00369.7986 263.77583z" fill="rgba(246,0,8,.24705882)"/><path d="M293.4462 280.9113L308.04802 280.97798" style="fill:none;stroke:rgba(246,0,8,.24705882);stroke-width:.09525;stroke-miterlimit:41.994751"/><path d="M388.56285 297.7515L388.49617 309.9816" style="fill:none;stroke:rgba(246,0,8,.24705882);stroke-width:.09525;stroke-miterlimit:41.994751"/><path d="M283.77833 216.6366L284.02598 251.33618" style="fill:none;stroke:rgba(246,0,8,.24705882);stroke-width:.09525;stroke-miterlimit:41.994751"/><path d="M370.24628 242.95418L368.74133 221.56103" style="fill:none;stroke:rgba(246,0,8,.24705882);stroke-width:.09525;stroke-miterlimit:41.994751"/><path d="M349.99613 263.06145L369.32235 263.77582" style="fill:none;stroke:rgba(246,0,8,.24705882);stroke-width:.09525;stroke-miterlimit:41.994751"/><path d="M368.74133 221.56103L329.36498 225.7806" style="fill:none;stroke:rgba(246,0,8,.24705882);stroke-width:.09525;stroke-miterlimit:41.994751"/><path d="M238.78223 300.7233L240.87772 254.26988" style="fill:none;stroke:rgba(246,0,8,.24705882);stroke-width:.09525;stroke-miterlimit:41.994751"/><path d="M391.668 242.90655L403.57425 268.61453" style="fill:none;stroke:rgba(246,0,8,.24705882);stroke-width:.09525;stroke-miterlimit:41.994751"/><path d="M329.36498 225.7806L325.2216 264.0711" style="fill:none;stroke:rgba(246,0,8,.24705882);stroke-width:.09525;stroke-miterlimit:41.994751"/><path d="M403.57425 268.61453L400.7739 282.45435" style="fill:none;stroke:rgba(246,0,8,.24705882);stroke-width:.09525;stroke-miterlimit:41.994751"/><path d="M327.19328 297.5991L325.2216 264.0711" style="fill:none;stroke:rgba(246,0,8,.24705882);stroke-width:.09525;stroke-miterlimit:41.994751"/><path d="M400.7739 282.45435L385.4958 282.50198" style="fill:none;stroke:rgba(246,0,8,.24705882);stroke-width:.09525;stroke-miterlimit:41.994751"/><path d="M325.2216 264.0711L349.99613 263.06145" style="fill:none;stroke:rgba(246,0,8,.24705882);stroke-width:.09525;stroke-miterlimit:41.994751"/><path d="M385.4958 282.50198L388.56285 297.7515" style="fill:none;stroke:rgba(246,0,8,.24705882);stroke-width:.09525;stroke-miterlimit:41.994751"/><path d="M369.32235 263.77582L370.24628 242.95418" style="fill:none;stroke:rgba(246,0,8,.24705882);stroke-width:.09525;stroke-miterlimit:41.994751"/><path d="M293.4462 280.9113L293.0652 264.5664" style="fill:none;stroke:rgba(246,0,8,.24705882);stroke-width:.09525;stroke-miterlimit:41.994751"/><path d="M284.02598 251.33618L286.8168 300.58042" style="fill:none;stroke:rgba(246,0,8,.24705882);stroke-width:.09525;stroke-miterlimit:41.994751"/><path d="M388.49617 309.9816L388.56285 322.18313" style="fill:none;stroke:rgba(246,0,8,.24705882);stroke-width:.09525;stroke-miterlimit:41.994751"/><path d="M293.0652 264.5664L284.02598 251.33618" style="fill:none;stroke:rgba(246,0,8,.24705882);stroke-width:.09525;stroke-miterlimit:41.994751"/><path d="M286.8168 300.58042L238.78223 300.7233" style="fill:none;stroke:rgba(246,0,8,.24705882);stroke-width:.09525;stroke-miterlimit:41.994751"/><path d="M308.04802 280.97798L325.2216 264.0711" style="fill:none;stroke:rgba(246,0,8,.24705882);stroke-width:.09525;stroke-miterlimit:41.994751"/><path d="M388.56285 322.18313L402.6789 322.37363" style="fill:none;stroke:rgba(246,0,8,.24705882);stroke-width:.09525;stroke-miterlimit:41.994751"/><path d="M291.90315 294.53205L293.4462 280.9113" style="fill:none;stroke:rgba(246,0,8,.24705882);stroke-width:.09525;stroke-miterlimit:41.994751"/><path d="M402.70748 298.40873L388.56285 297.7515" style="fill:none;stroke:rgba(246,0,8,.24705882);stroke-width:.09525;stroke-miterlimit:41.994751"/><path d="M291.90315 294.53205L286.8168 300.58042" style="fill:none;stroke:rgba(246,0,8,.24705882);stroke-width:.09525;stroke-miterlimit:41.994751"/><path d="M402.6408 310.41023L388.49617 309.9816" style="fill:none;stroke:rgba(246,0,8,.24705882);stroke-width:.09525;stroke-miterlimit:41.994751"/><path d="M377.25668 243.63998L391.668 242.90655" style="fill:none;stroke:rgba(246,0,8,.24705882);stroke-width:.09525;stroke-miterlimit:41.994751"/><path d="M370.24628 242.95418L377.25668 243.63998" style="fill:none;stroke:rgba(246,0,8,.24705882);stroke-width:.09525;stroke-miterlimit:41.994751"/><path d="M377.73293 243.63998A.47625 .47625 0 00376.78043 243.63998A.47625 .47625 0 00377.73293 243.63998z" fill="rgba(246,0,8,.24705882)"/><path d="M361.57853 137.55052L361.6071 127.5969" style="fill:none;stroke:rgba(246,0,8,.24705882);stroke-width:.09525;stroke-miterlimit:41.994751"/><path d="M85.13445 401.44065H118.19572V371.95125H85.13445z" style="fill:rgba(246,0,8,.24705882);stroke:rgba(246,0,8,.24705882);stroke-width:.09525;stroke-miterlimit:41.994751"/><path d="M92.83065 391.1727A.47625 .47625 0 0091.87815 391.1727A.47625 .47625 0 0092.83065 391.1727z" fill="rgba(246,0,8,.24705882)"/><path d="M105.87037 366.96968L137.2362 358.18763" style="fill:none;stroke:rgba(246,0,8,.24705882);stroke-width:.09525;stroke-miterlimit:41.994751"/><path d="M96.878775 126.67298L101.52697 126.7968" style="fill:none;stroke:rgba(246,0,8,.24705882);stroke-width:.09525;stroke-miterlimit:41.994751"/><path d="M92.3544 391.1727L58.721625 380.59995" style="fill:none;stroke:rgba(246,0,8,.24705882);stroke-width:.09525;stroke-miterlimit:41.994751"/><path d="M105.87037 366.96968L92.3544 391.1727" style="fill:none;stroke:rgba(246,0,8,.24705882);stroke-width:.09525;stroke-miterlimit:41.994751"/><path d="M58.569225 365.78858H96.22155V347.56725H58.569225z" style="fill:rgba(246,0,8,.24705882);stroke:rgba(246,0,8,.24705882);stroke-width:.09525;stroke-miterlimit:41.994751"/><path d="M64.71285 356.26358A.47625 .47625 0 0063.76035 356.26358A.47625 .47625 0 0064.71285 356.26358z" fill="rgba(246,0,8,.24705882)"/><path d="M360.77843 141.37005L360.74985 141.68438" style="fill:none;stroke:rgba(246,0,8,.24705882);stroke-width:.09525;stroke-miterlimit:41.994751"/><path d="M15.33525 401.44065H85.163025V365.36948H15.33525z" style="fill:rgba(246,0,8,.24705882);stroke:rgba(246,0,8,.24705882);stroke-width:.09525;stroke-miterlimit:41.994751"/><path d="M59.197875 380.59995A.47625 .47625 0 0058.245375 380.59995A.47625 .47625 0 0059.197875 380.59995z" fill="rgba(246,0,8,.24705882)"/><path d="M262.42327 236.07713L284.02598 251.33618" style="fill:none;stroke:rgba(246,0,8,.24705882);stroke-width:.09525;stroke-miterlimit:41.994751"/><path d="M262.13752 272.31023L238.78223 300.7233" style="fill:none;stroke:rgba(246,0,8,.24705882);stroke-width:.09525;stroke-miterlimit:41.994751"/><path d="M262.42327 236.07713L283.77833 216.6366" style="fill:none;stroke:rgba(246,0,8,.24705882);stroke-width:.09525;stroke-miterlimit:41.994751"/><path d="M262.42327 236.07713L240.87772 254.26988" style="fill:none;stroke:rgba(246,0,8,.24705882);stroke-width:.09525;stroke-miterlimit:41.994751"/><path d="M240.87772 254.26988L262.13752 272.31023" style="fill:none;stroke:rgba(246,0,8,.24705882);stroke-width:.09525;stroke-miterlimit:41.994751"/><path d="M284.02598 251.33618L262.13752 272.31023" style="fill:none;stroke:rgba(246,0,8,.24705882);stroke-width:.09525;stroke-miterlimit:41.994751"/><path d="M203.90168 393.6492H217.0557V383.45745H203.90168z" style="fill:rgba(246,0,8,.24705882);stroke:rgba(246,0,8,.24705882);stroke-width:.09525;stroke-miterlimit:41.994751"/><path d="M210.16913 388.5057A.47625 .47625 0 00209.21663 388.5057A.47625 .47625 0 00210.16913 388.5057z" fill="rgba(246,0,8,.24705882)"/><path d="M125.64428 45.329475L130.0734 45.3771" style="fill:none;stroke:rgba(246,0,8,.24705882);stroke-width:.09525;stroke-miterlimit:41.994751"/><path d="M64.2366 356.26358L105.87037 366.96968" style="fill:none;stroke:rgba(246,0,8,.24705882);stroke-width:.09525;stroke-miterlimit:41.994751"/><path d="M96.250125 372.13223H127.23495V354.4824H96.250125z" style="fill:rgba(246,0,8,.24705882);stroke:rgba(246,0,8,.24705882);stroke-width:.09525;stroke-miterlimit:41.994751"/><path d="M106.34662 366.96968A.47625 .47625 0 00105.39413 366.96968A.47625 .47625 0 00106.34662 366.96968z" fill="rgba(246,0,8,.24705882)"/><path d="M259.3086 288.036H267.2334V256.9845H259.3086z" style="fill:rgba(242,0,12,.24705882);stroke:rgba(242,0,12,.24705882);stroke-width:.09525;stroke-miterlimit:41.994751"/><path d="M262.61377 272.31023A.47625 .47625 0 00261.66127 272.31023A.47625 .47625 0 00262.61377 272.31023z" fill="rgba(242,0,12,.24705882)"/><path d="M258.68948 250.8885H266.5095V219.837H258.68948z" style="fill:rgba(242,0,12,.24705882);stroke:rgba(242,0,12,.24705882);stroke-width:.09525;stroke-miterlimit:41.994751"/><path d="M262.89952 236.07713A.47625 .47625 0 00261.94702 236.07713A.47625 .47625 0 00262.89952 236.07713z" fill="rgba(242,0,12,.24705882)"/><path d="M113.44275 232.31475A.47625 .47625 0 00112.49025 232.31475A.47625 .47625 0 00113.44275 232.31475z" fill="rgba(242,0,12,.24705882)"/><path d="M352.806 132.55943H371.094V117.54803H352.806z" style="fill:rgba(242,0,12,.24705882);stroke:rgba(242,0,12,.24705882);stroke-width:.09525;stroke-miterlimit:41.994751"/><path d="M362.08335 127.5969A.47625 .47625 0 00361.13085 127.5969A.47625 .47625 0 00362.08335 127.5969z" fill="rgba(242,0,12,.24705882)"/><path d="M98.078925 130.94018H103.05097V121.82475H98.078925z" style="fill:rgba(242,0,12,.24705882);stroke:rgba(242,0,12,.24705882);stroke-width:.09525;stroke-miterlimit:41.994751"/><path d="M102.00322 126.7968A.47625 .47625 0 00101.05072 126.7968A.47625 .47625 0 00102.00322 126.7968z" fill="rgba(242,0,12,.24705882)"/><path d="M282.702 64.608075L283.3497 64.855725" style="fill:none;stroke:rgba(242,0,12,.24705882);stroke-width:.09525;stroke-miterlimit:41.994751"/><path d="M122.39625 51.72075H127.99695V39.0525H122.39625z" style="fill:rgba(238,0,12,.24705882);stroke:rgba(238,0,12,.24705882);stroke-width:.09525;stroke-miterlimit:41.994751"/><path d="M126.12053 45.329475A.47625 .47625 0 00125.16803 45.329475A.47625 .47625 0 00126.12053 45.329475z" fill="rgba(238,0,12,.24705882)"/><path d="M361.2261 141.68438A.47625 .47625 0 00360.2736 141.68438A.47625 .47625 0 00361.2261 141.68438z" fill="rgba(238,0,16,.24705882)"/><path d="M112.9665 232.31475L116.7384 232.5243" style="fill:none;stroke:rgba(238,0,16,.24705882);stroke-width:.09525;stroke-miterlimit:41.994751"/><path d="M291.90315 294.53205L296.59897 294.73208" style="fill:none;stroke:rgba(238,0,16,.24705882);stroke-width:.09525;stroke-miterlimit:41.994751"/><path d="M293.0652 264.5664L296.57993 265.7475" style="fill:none;stroke:rgba(238,0,16,.24705882);stroke-width:.09525;stroke-miterlimit:41.994751"/><path d="M308.04802 280.97798L296.57993 265.7475" style="fill:none;stroke:rgba(238,0,16,.24705882);stroke-width:.09525;stroke-miterlimit:41.994751"/><path d="M308.04802 280.97798L296.59897 294.73208" style="fill:none;stroke:rgba(238,0,16,.24705882);stroke-width:.09525;stroke-miterlimit:41.994751"/><path d="M360.74985 141.68438L360.51173 147.066" style="fill:none;stroke:rgba(234,0,16,.24705882);stroke-width:.09525;stroke-miterlimit:41.994751"/><path d="M101.52697 126.7968L106.1085 126.55868" style="fill:none;stroke:rgba(234,0,20,.24705882);stroke-width:.09525;stroke-miterlimit:41.994751"/><path d="M122.17718 45.272325L125.64428 45.329475" style="fill:none;stroke:rgba(234,0,20,.24705882);stroke-width:.09525;stroke-miterlimit:41.994751"/><path d="M117.21465 232.5243A.47625 .47625 0 00116.26215 232.5243A.47625 .47625 0 00117.21465 232.5243z" fill="rgba(234,0,20,.24705882)"/><path d="M360.98798 147.066A.47625 .47625 0 00360.03548 147.066A.47625 .47625 0 00360.98798 147.066z" fill="rgba(230,0,20,.24705882)"/><path d="M275.4249 65.065275L266.49045 67.141725" style="fill:none;stroke:rgba(230,0,20,.24705882);stroke-width:.09525;stroke-miterlimit:41.994751"/><path d="M360.6927 85.3059L362.11192 105.90848" style="fill:none;stroke:rgba(230,0,24,.24705882);stroke-width:.09525;stroke-miterlimit:41.994751"/><path d="M116.7384 232.5243L119.30062 232.38143" style="fill:none;stroke:rgba(230,0,24,.24705882);stroke-width:.09525;stroke-miterlimit:41.994751"/><path d="M361.6071 127.5969L361.85475 114.82388" style="fill:none;stroke:rgba(230,0,24,.24705882);stroke-width:.09525;stroke-miterlimit:41.994751"/><path d="M360.51173 147.066L362.00715 158.12453" style="fill:none;stroke:rgba(230,0,24,.24705882);stroke-width:.09525;stroke-miterlimit:41.994751"/><path d="M99.53625 91.34475H122.31052V31.33725H99.53625z" style="fill:rgba(230,0,24,.24705882);stroke:rgba(230,0,24,.24705882);stroke-width:.09525;stroke-miterlimit:41.994751"/><path d="M111.88065 46.624875A.47625 .47625 0 00110.92815 46.624875A.47625 .47625 0 00111.88065 46.624875z" fill="rgba(230,0,24,.24705882)"/><path d="M99.53625 120.30075H122.31052V92.86875H99.53625z" style="fill:rgba(230,0,24,.24705882);stroke:rgba(230,0,24,.24705882);stroke-width:.09525;stroke-miterlimit:41.994751"/><path d="M113.98567 100.70783A.47625 .47625 0 00113.03317 100.70783A.47625 .47625 0 00113.98567 100.70783z" fill="rgba(230,0,24,.24705882)"/><path d="M107.15625 130.96875H122.31052V120.26265H107.15625z" style="fill:rgba(230,0,24,.24705882);stroke:rgba(230,0,24,.24705882);stroke-width:.09525;stroke-miterlimit:41.994751"/><path d="M114.02378 126.21578A.47625 .47625 0 00113.07128 126.21578A.47625 .47625 0 00114.02378 126.21578z" fill="rgba(230,0,24,.24705882)"/><path d="M122.65342 45.272325A.47625 .47625 0 00121.70093 45.272325A.47625 .47625 0 00122.65342 45.272325z" fill="rgba(230,0,24,.24705882)"/><path d="M102.80333 130.86398H107.14673V121.82475H102.80333z" style="fill:rgba(230,0,24,.24705882);stroke:rgba(230,0,24,.24705882);stroke-width:.09525;stroke-miterlimit:41.994751"/><path d="M106.58475 126.55868A.47625 .47625 0 00105.63225 126.55868A.47625 .47625 0 00106.58475 126.55868z" fill="rgba(230,0,24,.24705882)"/><path d="M106.1085 126.55868L113.54753 126.21578" style="fill:none;stroke:rgba(230,0,24,.24705882);stroke-width:.09525;stroke-miterlimit:41.994751"/><path d="M113.54753 126.21578L113.50942 100.70783" style="fill:none;stroke:rgba(230,0,24,.24705882);stroke-width:.09525;stroke-miterlimit:41.994751"/><path d="M113.50942 100.70783L111.4044 46.624875" style="fill:none;stroke:rgba(230,0,24,.24705882);stroke-width:.09525;stroke-miterlimit:41.994751"/><path d="M111.4044 46.624875L122.17718 45.272325" style="fill:none;stroke:rgba(230,0,24,.24705882);stroke-width:.09525;stroke-miterlimit:41.994751"/><path d="M297.05617 265.7475A.47625 .47625 0 00296.10368 265.7475A.47625 .47625 0 00297.05617 265.7475z" fill="rgba(230,0,24,.24705882)"/><path d="M297.07522 294.73208A.47625 .47625 0 00296.12273 294.73208A.47625 .47625 0 00297.07522 294.73208z" fill="rgba(230,0,24,.24705882)"/><path d="M110.69955 244.1067H153.2001V236.31525H110.69955z" style="fill:rgba(226,0,28,.24705882);stroke:rgba(226,0,28,.24705882);stroke-width:.09525;stroke-miterlimit:41.994751"/><path d="M120.48172 241.6302A.47625 .47625 0 00119.52923 241.6302A.47625 .47625 0 00120.48172 241.6302z" fill="rgba(226,0,28,.24705882)"/><path d="M110.62335 228.11423H123.75832V216.5985H110.62335z" style="fill:rgba(226,0,28,.24705882);stroke:rgba(226,0,28,.24705882);stroke-width:.09525;stroke-miterlimit:41.994751"/><path d="M121.11038 221.6658A.47625 .47625 0 00120.15788 221.6658A.47625 .47625 0 00121.11038 221.6658z" fill="rgba(226,0,28,.24705882)"/><path d="M118.71008 236.2962H123.92025V228.36188H118.71008z" style="fill:rgba(226,0,28,.24705882);stroke:rgba(226,0,28,.24705882);stroke-width:.09525;stroke-miterlimit:41.994751"/><path d="M119.77687 232.38143A.47625 .47625 0 00118.82438 232.38143A.47625 .47625 0 00119.77687 232.38143z" fill="rgba(226,0,28,.24705882)"/><path d="M119.30062 232.38143L120.63413 221.6658" style="fill:none;stroke:rgba(226,0,28,.24705882);stroke-width:.09525;stroke-miterlimit:41.994751"/><path d="M120.00548 241.6302L119.30062 232.38143" style="fill:none;stroke:rgba(226,0,28,.24705882);stroke-width:.09525;stroke-miterlimit:41.994751"/><path d="M362.4834 158.12453A.47625 .47625 0 00361.5309 158.12453A.47625 .47625 0 00362.4834 158.12453z" fill="rgba(226,0,28,.24705882)"/><path d="M283.17825 64.608075A.47625 .47625 0 00282.22575 64.608075A.47625 .47625 0 00283.17825 64.608075z" fill="rgba(226,0,28,.24705882)"/><path d="M275.12963 64.97955L282.702 64.608075" style="fill:none;stroke:rgba(226,0,28,.24705882);stroke-width:.09525;stroke-miterlimit:41.994751"/><path d="M275.60588 64.97955A.47625 .47625 0 00274.65338 64.97955A.47625 .47625 0 00275.60588 64.97955z" fill="rgba(222,0,28,.24705882)"/><path d="M370.38915 193.13843A.47625 .47625 0 00369.43665 193.13843A.47625 .47625 0 00370.38915 193.13843z" fill="rgba(218,0,36,.24705882)"/><path d="M361.7595 193.57658A.47625 .47625 0 00360.807 193.57658A.47625 .47625 0 00361.7595 193.57658z" fill="rgba(218,0,36,.24705882)"/><path d="M369.20805 200.4441A.47625 .47625 0 00368.25555 200.4441A.47625 .47625 0 00369.20805 200.4441z" fill="rgba(218,0,36,.24705882)"/><path d="M361.28325 193.57657L369.9129 193.13843" style="fill:none;stroke:rgba(218,0,36,.24705882);stroke-width:.09525;stroke-miterlimit:41.994751"/><path d="M369.9129 193.13843L368.7318 200.4441" style="fill:none;stroke:rgba(218,0,36,.24705882);stroke-width:.09525;stroke-miterlimit:41.994751"/><path d="M341.4522 201.6633L330.5175 202.43482" style="fill:none;stroke:rgba(218,0,36,.24705882);stroke-width:.09525;stroke-miterlimit:41.994751"/><path d="M353.02508 117.9576H371.094V112.0902H353.02508z" style="fill:rgba(218,0,36,.24705882);stroke:rgba(218,0,36,.24705882);stroke-width:.09525;stroke-miterlimit:41.994751"/><path d="M362.331 114.82388A.47625 .47625 0 00361.3785 114.82388A.47625 .47625 0 00362.331 114.82388z" fill="rgba(218,0,36,.24705882)"/><path d="M368.7318 200.4441L362.01668 200.52983" style="fill:none;stroke:rgba(218,0,36,.24705882);stroke-width:.09525;stroke-miterlimit:41.994751"/><path d="M275.4249 65.065275L275.12963 64.97955" style="fill:none;stroke:rgba(214,0,36,.24705882);stroke-width:.09525;stroke-miterlimit:41.994751"/><path d="M362.49293 200.52983A.47625 .47625 0 00361.54043 200.52983A.47625 .47625 0 00362.49293 200.52983z" fill="rgba(214,0,40,.24705882)"/><path d="M361.85475 114.82388L362.11192 105.90848" style="fill:none;stroke:rgba(214,0,40,.24705882);stroke-width:.09525;stroke-miterlimit:41.994751"/><path d="M352.806 110.85195H371.094V99.53625H352.806z" style="fill:rgba(210,0,44,.24705882);stroke:rgba(210,0,44,.24705882);stroke-width:.09525;stroke-miterlimit:41.994751"/><path d="M362.58817 105.90848A.47625 .47625 0 00361.63567 105.90848A.47625 .47625 0 00362.58817 105.90848z" fill="rgba(210,0,44,.24705882)"/><path d="M275.90115 65.065275A.47625 .47625 0 00274.94865 65.065275A.47625 .47625 0 00275.90115 65.065275z" fill="rgba(210,0,44,.24705882)"/><path d="M362.00715 158.12453L362.04525 160.04857" style="fill:none;stroke:rgba(206,0,44,.24705882);stroke-width:.09525;stroke-miterlimit:41.994751"/><path d="M234.11498 364.0836H269.04315V352.28213H234.11498z" style="fill:rgba(206,0,48,.24705882);stroke:rgba(206,0,48,.24705882);stroke-width:.09525;stroke-miterlimit:41.994751"/><path d="M248.2596 357.92093A.47625 .47625 0 00247.3071 357.92093A.47625 .47625 0 00248.2596 357.92093z" fill="rgba(206,0,48,.24705882)"/><path d="M361.69283 186.67095L361.28325 193.57657" style="fill:none;stroke:rgba(202,0,52,.24705882);stroke-width:.09525;stroke-miterlimit:41.994751"/><path d="M362.01668 200.52983L342.95715 201.63473" style="fill:none;stroke:rgba(198,0,56,.24705882);stroke-width:.09525;stroke-miterlimit:41.994751"/><path d="M362.45483 173.4312A.47625 .47625 0 00361.50233 173.4312A.47625 .47625 0 00362.45483 173.4312z" fill="rgba(190,0,64,.24705882)"/><path d="M362.5215 160.04858A.47625 .47625 0 00361.569 160.04858A.47625 .47625 0 00362.5215 160.04858z" fill="rgba(190,0,64,.24705882)"/><path d="M362.04525 160.04857L361.97858 173.4312" style="fill:none;stroke:rgba(190,0,64,.24705882);stroke-width:.09525;stroke-miterlimit:41.994751"/><path d="M341.92845 201.6633A.47625 .47625 0 00340.97595 201.6633A.47625 .47625 0 00341.92845 201.6633z" fill="rgba(182,0,68,.24705882)"/><path d="M362.16908 186.67095A.47625 .47625 0 00361.21658 186.67095A.47625 .47625 0 00362.16908 186.67095z" fill="rgba(182,0,68,.24705882)"/><path d="M342.95715 201.63473L341.4522 201.6633" style="fill:none;stroke:rgba(182,0,72,.24705882);stroke-width:.09525;stroke-miterlimit:41.994751"/><path d="M343.4334 201.63473A.47625 .47625 0 00342.4809 201.63473A.47625 .47625 0 00343.4334 201.63473z" fill="rgba(182,0,72,.24705882)"/><path d="M361.97858 173.4312L362.04525 175.2981" style="fill:none;stroke:rgba(174,0,80,.24705882);stroke-width:.09525;stroke-miterlimit:41.994751"/><path d="M361.6071 179.89868L361.69283 186.67095" style="fill:none;stroke:rgba(170,0,85,.24705882);stroke-width:.09525;stroke-miterlimit:41.994751"/><path d="M362.5215 175.2981A.47625 .47625 0 00361.569 175.2981A.47625 .47625 0 00362.5215 175.2981z" fill="rgba(157,0,97,.24705882)"/><path d="M362.08335 179.89868A.47625 .47625 0 00361.13085 179.89868A.47625 .47625 0 00362.08335 179.89868z" fill="rgba(157,0,97,.24705882)"/><path d="M362.04525 175.2981L361.6071 179.89868" style="fill:none;stroke:rgba(157,0,97,.24705882);stroke-width:.09525;stroke-miterlimit:41.994751"/><path d="M268.85265 193.78613L283.77833 216.6366" style="fill:none;stroke:rgba(129,0,125,.24705882);stroke-width:.09525;stroke-miterlimit:41.994751"/><path d="M269.3289 193.78613A.47625 .47625 0 00268.3764 193.78613A.47625 .47625 0 00269.3289 193.78613z" fill="rgba(12,0,242,.24705882)"/><path d="M266.61427 135.7122A.47625 .47625 0 00265.66177 135.7122A.47625 .47625 0 00266.61427 135.7122z" fill="rgba(12,0,242,.24705882)"/><path d="M268.2621 180.43208A.47625 .47625 0 00267.3096 180.43208A.47625 .47625 0 00268.2621 180.43208z" fill="rgba(12,0,242,.24705882)"/><path d="M295.37025 133.41668A.47625 .47625 0 00294.41775 133.41668A.47625 .47625 0 00295.37025 133.41668z" fill="rgba(12,0,242,.24705882)"/><path d="M266.13802 135.7122L267.78585 180.43207" style="fill:none;stroke:rgba(12,0,242,.24705882);stroke-width:.09525;stroke-miterlimit:41.994751"/><path d="M267.78585 180.43207L268.85265 193.78613" style="fill:none;stroke:rgba(12,0,242,.24705882);stroke-width:.09525;stroke-miterlimit:41.994751"/><path d="M294.894 133.41668L266.13802 135.7122" style="fill:none;stroke:rgba(12,0,242,.24705882);stroke-width:.09525;stroke-miterlimit:41.994751"/><path d="M316.41098 133.95007L294.894 133.41668" style="fill:none;stroke:rgba(4,0,246,.24705882);stroke-width:.09525;stroke-miterlimit:41.994751"/><path d="M334.899 130.4163A.47625 .47625 0 00333.9465 130.4163A.47625 .47625 0 00334.899 130.4163z" fill="rgba(0,0,255,.24705882)"/><path d="M336.93735 120.32933A.47625 .47625 0 00335.98485 120.32933A.47625 .47625 0 00336.93735 120.32933z" fill="rgba(0,0,255,.24705882)"/><path d="M336.4611 120.32933L334.42275 130.4163" style="fill:none;stroke:rgba(0,0,255,.24705882);stroke-width:.09525;stroke-miterlimit:41.994751"/><path d="M334.42275 130.4163L316.41098 133.95007" style="fill:none;stroke:rgba(0,0,255,.24705882);stroke-width:.09525;stroke-miterlimit:41.994751"/><path d="M316.88723 133.95008A.47625 .47625 0 00315.93473 133.95008A.47625 .47625 0 00316.88723 133.95008z" fill="rgba(0,0,255,.24705882)"/></svg>