<svg version="1.1" width="270.03375mm" height="270.03375mm" viewBox="0 0 270.03375 270.03375" xmlns="http://www.w3.org/2000/svg" xmlns:xlink="http://www.w3.org/1999/xlink"><path d="M134.96925 135.0645H136.87425" style="fill:none;stroke:#f00;stroke-width:.09525;stroke-miterlimit:41.994751"/><path d="M134.96925 135.0645V133.1595" style="fill:none;stroke:#0f0;stroke-width:.09525;stroke-miterlimit:41.994751"/><path d="M156.30525 198.3105H172.30725V183.0705H156.30525z" style="fill:rgba(0,0,0,.24705882);stroke:rgba(0,0,0,.24705882);stroke-width:.09525;stroke-miterlimit:41.994751"/><path d="M164.7825 190.6905A.47625 .47625 0 00163.83 190.6905A.47625 .47625 0 00164.7825 190.6905z" fill="rgba(0,0,0,.24705882)"/><path d="M198.97725 199.0725H268.80502V140.3985H198.97725z" style="fill:rgba(0,0,0,.24705882);stroke:rgba(0,0,0,.24705882);stroke-width:.09525;stroke-miterlimit:41.994751"/><path d="M234.37215 169.7355A.47625 .47625 0 00233.41965 169.7355A.47625 .47625 0 00234.37215 169.7355z" fill="rgba(0,0,0,.24705882)"/><path d="M198.97725 269.83373H268.80502V199.0725H198.97725z" style="fill:rgba(0,0,0,.24705882);stroke:rgba(0,0,0,.24705882);stroke-width:.09525;stroke-miterlimit:41.994751"/><path d="M234.37215 234.44835A.47625 .47625 0 00233.41965 234.44835A.47625 .47625 0 00234.37215 234.44835z" fill="rgba(0,0,0,.24705882)"/><path d="M140.30325 269.83373H198.97725V199.0725H140.30325z" style="fill:rgba(0,0,0,.24705882);stroke:rgba(0,0,0,.24705882);stroke-width:.09525;stroke-miterlimit:41.994751"/><path d="M170.1165 234.44835A.47625 .47625 0 00169.164 234.44835A.47625 .47625 0 00170.1165 234.44835z" fill="rgba(0,0,0,.24705882)"/><path d="M172.30725 114.4905H182.97525V113.7285H172.30725z" style="fill:rgba(0,0,0,.24705882);stroke:rgba(0,0,0,.24705882);stroke-width:.09525;stroke-miterlimit:41.994751"/><path d="M178.1175 114.1095A.47625 .47625 0 00177.165 114.1095A.47625 .47625 0 00178.1175 114.1095z" fill="rgba(0,0,0,.24705882)"/><path d="M129.63525 269.83373H140.30325V199.0725H129.63525z" style="fill:rgba(0,0,0,.24705882);stroke:rgba(0,0,0,.24705882);stroke-width:.09525;stroke-miterlimit:41.994751"/><path d="M135.4455 234.44835A.47625 .47625 0 00134.493 234.44835A.47625 .47625 0 00135.4455 234.44835z" fill="rgba(0,0,0,.24705882)"/><path d="M172.30725 155.6385H182.97525V138.1125H172.30725z" style="fill:rgba(0,0,0,.24705882);stroke:rgba(0,0,0,.24705882);stroke-width:.09525;stroke-miterlimit:41.994751"/><path d="M178.1175 146.8755A.47625 .47625 0 00177.165 146.8755A.47625 .47625 0 00178.1175 146.8755z" fill="rgba(0,0,0,.24705882)"/><path d="M70.96125 269.83373H129.63525V199.0725H70.96125z" style="fill:rgba(0,0,0,.24705882);stroke:rgba(0,0,0,.24705882);stroke-width:.09525;stroke-miterlimit:41.994751"/><path d="M100.7745 234.44835A.47625 .47625 0 0099.822 234.44835A.47625 .47625 0 00100.7745 234.44835z" fill="rgba(0,0,0,.24705882)"/><path d="M.200025 269.83373H70.96125V199.0725H.200025z" style="fill:rgba(0,0,0,.24705882);stroke:rgba(0,0,0,.24705882);stroke-width:.09525;stroke-miterlimit:41.994751"/><path d="M36.06165 234.44835A.47625 .47625 0 0035.10915 234.44835A.47625 .47625 0 0036.06165 234.44835z" fill="rgba(0,0,0,.24705882)"/><path d="M172.30725 156.4005H182.97525V155.6385H172.30725z" style="fill:rgba(0,0,0,.24705882);stroke:rgba(0,0,0,.24705882);stroke-width:.09525;stroke-miterlimit:41.994751"/><path d="M178.1175 156.0195A.47625 .47625 0 00177.165 156.0195A.47625 .47625 0 00178.1175 156.0195z" fill="rgba(0,0,0,.24705882)"/><path d="M172.30725 198.3105H182.97525V156.4005H172.30725z" style="fill:rgba(0,0,0,.24705882);stroke:rgba(0,0,0,.24705882);stroke-width:.09525;stroke-miterlimit:41.994751"/><path d="M178.1175 177.3555A.47625 .47625 0 00177.165 177.3555A.47625 .47625 0 00178.1175 177.3555z" fill="rgba(0,0,0,.24705882)"/><path d="M.200025 199.0725H70.96125V140.3985H.200025z" style="fill:rgba(0,0,0,.24705882);stroke:rgba(0,0,0,.24705882);stroke-width:.09525;stroke-miterlimit:41.994751"/><path d="M36.06165 169.7355A.47625 .47625 0 0035.10915 169.7355A.47625 .47625 0 0036.06165 169.7355z" fill="rgba(0,0,0,.24705882)"/><path d="M.200025 140.3985H70.96125V129.7305H.200025z" style="fill:rgba(0,0,0,.24705882);stroke:rgba(0,0,0,.24705882);stroke-width:.09525;stroke-miterlimit:41.994751"/><path d="M36.06165 135.0645A.47625 .47625 0 0035.10915 135.0645A.47625 .47625 0 0036.06165 135.0645z" fill="rgba(0,0,0,.24705882)"/><path d="M.200025 129.7305H70.96125V71.0565H.200025z" style="fill:rgba(0,0,0,.24705882);stroke:rgba(0,0,0,.24705882);stroke-width:.09525;stroke-miterlimit:41.994751"/><path d="M36.06165 100.3935A.47625 .47625 0 0035.10915 100.3935A.47625 .47625 0 0036.06165 100.3935z" fill="rgba(0,0,0,.24705882)"/><path d="M.200025 71.0565H70.96125V.295275H.200025z" style="fill:rgba(0,0,0,.24705882);stroke:rgba(0,0,0,.24705882);stroke-width:.09525;stroke-miterlimit:41.994751"/><path d="M36.06165 35.671125A.47625 .47625 0 0035.10915 35.671125A.47625 .47625 0 0036.06165 35.671125z" fill="rgba(0,0,0,.24705882)"/><path d="M156.30525 183.0705H172.30725V172.4025H156.30525z" style="fill:rgba(0,0,0,.24705882);stroke:rgba(0,0,0,.24705882);stroke-width:.09525;stroke-miterlimit:41.994751"/><path d="M164.7825 177.7365A.47625 .47625 0 00163.83 177.7365A.47625 .47625 0 00164.7825 177.7365z" fill="rgba(0,0,0,.24705882)"/><path d="M70.96125 71.0565H129.63525V.295275H70.96125z" style="fill:rgba(0,0,0,.24705882);stroke:rgba(0,0,0,.24705882);stroke-width:.09525;stroke-miterlimit:41.994751"/><path d="M100.7745 35.671125A.47625 .47625 0 0099.822 35.671125A.47625 .47625 0 00100.7745 35.671125z" fill="rgba(0,0,0,.24705882)"/><path d="M129.63525 71.0565H140.30325V.295275H129.63525z" style="fill:rgba(0,0,0,.24705882);stroke:rgba(0,0,0,.24705882);stroke-width:.09525;stroke-miterlimit:41.994751"/><path d="M135.4455 35.671125A.47625 .47625 0 00134.493 35.671125A.47625 .47625 0 00135.4455 35.671125z" fill="rgba(0,0,0,.24705882)"/><path d="M140.30325 71.0565H198.97725V.295275H140.30325z" style="fill:rgba(0,0,0,.24705882);stroke:rgba(0,0,0,.24705882);stroke-width:.09525;stroke-miterlimit:41.994751"/><path d="M170.1165 35.671125A.47625 .47625 0 00169.164 35.671125A.47625 .47625 0 00170.1165 35.671125z" fill="rgba(0,0,0,.24705882)"/><path d="M155.54325 183.0705H156.30525V172.4025H155.54325z" style="fill:rgba(0,0,0,.24705882);stroke:rgba(0,0,0,.24705882);stroke-width:.09525;stroke-miterlimit:41.994751"/><path d="M156.4005 177.7365A.47625 .47625 0 00155.448 177.7365A.47625 .47625 0 00156.4005 177.7365z" fill="rgba(0,0,0,.24705882)"/><path d="M114.42383 155.6385H155.5242V138.1125H114.42383z" style="fill:rgba(0,0,0,.24705882);stroke:rgba(0,0,0,.24705882);stroke-width:.09525;stroke-miterlimit:41.994751"/><path d="M135.45502 146.8755A.47625 .47625 0 00134.50252 146.8755A.47625 .47625 0 00135.45502 146.8755z" fill="rgba(0,0,0,.24705882)"/><path d="M198.97725 71.0565H269.73847V.295275H198.97725z" style="fill:rgba(0,0,0,.24705882);stroke:rgba(0,0,0,.24705882);stroke-width:.09525;stroke-miterlimit:41.994751"/><path d="M234.83887 35.671125A.47625 .47625 0 00233.88637 35.671125A.47625 .47625 0 00234.83887 35.671125z" fill="rgba(0,0,0,.24705882)"/><path d="M129.63525 198.3105H140.30325V183.0705H129.63525z" style="fill:rgba(0,0,0,.24705882);stroke:rgba(0,0,0,.24705882);stroke-width:.09525;stroke-miterlimit:41.994751"/><path d="M135.4455 190.6905A.47625 .47625 0 00134.493 190.6905A.47625 .47625 0 00135.4455 190.6905z" fill="rgba(0,0,0,.24705882)"/><path d="M198.97725 129.7305H269.73847V71.0565H198.97725z" style="fill:rgba(0,0,0,.24705882);stroke:rgba(0,0,0,.24705882);stroke-width:.09525;stroke-miterlimit:41.994751"/><path d="M234.83887 100.3935A.47625 .47625 0 00233.88637 100.3935A.47625 .47625 0 00234.83887 100.3935z" fill="rgba(0,0,0,.24705882)"/><path d="M156.30525 138.1125H182.97525V132.0165H156.30525z" style="fill:rgba(0,0,0,.24705882);stroke:rgba(0,0,0,.24705882);stroke-width:.09525;stroke-miterlimit:41.994751"/><path d="M170.1165 135.0645A.47625 .47625 0 00169.164 135.0645A.47625 .47625 0 00170.1165 135.0645z" fill="rgba(0,0,0,.24705882)"/><path d="M198.97725 140.3985H269.73847V129.7305H198.97725z" style="fill:rgba(0,0,0,.24705882);stroke:rgba(0,0,0,.24705882);stroke-width:.09525;stroke-miterlimit:41.994751"/><path d="M234.83887 135.0645A.47625 .47625 0 00233.88637 135.0645A.47625 .47625 0 00234.83887 135.0645z" fill="rgba(0,0,0,.24705882)"/><path d="M140.30325 198.3105H155.54325V183.0705H140.30325z" style="fill:rgba(0,0,0,.24705882);stroke:rgba(0,0,0,.24705882);stroke-width:.09525;stroke-miterlimit:41.994751"/><path d="M148.40902 190.6905A.47625 .47625 0 00147.45652 190.6905A.47625 .47625 0 00148.40902 190.6905z" fill="rgba(0,0,0,.24705882)"/><path d="M114.39525 183.0705H155.54325V172.4025H114.39525z" style="fill:rgba(0,0,0,.24705882);stroke:rgba(0,0,0,.24705882);stroke-width:.09525;stroke-miterlimit:41.994751"/><path d="M135.45502 177.7365A.47625 .47625 0 00134.50252 177.7365A.47625 .47625 0 00135.45502 177.7365z" fill="rgba(0,0,0,.24705882)"/><path d="M71.72325 87.0585H113.63325V71.8185H71.72325z" style="fill:rgba(0,0,0,.24705882);stroke:rgba(0,0,0,.24705882);stroke-width:.09525;stroke-miterlimit:41.994751"/><path d="M93.1545 79.4385A.47625 .47625 0 0092.202 79.4385A.47625 .47625 0 0093.1545 79.4385z" fill="rgba(0,0,0,.24705882)"/><path d="M198.21525 140.3985H198.97725V129.7305H198.21525z" style="fill:rgba(0,0,0,.24705882);stroke:rgba(0,0,0,.24705882);stroke-width:.09525;stroke-miterlimit:41.994751"/><path d="M199.0725 135.0645A.47625 .47625 0 00198.12 135.0645A.47625 .47625 0 00199.0725 135.0645z" fill="rgba(0,0,0,.24705882)"/><path d="M97.63125 113.7285H113.63325V97.7265H97.63125z" style="fill:rgba(0,0,0,.24705882);stroke:rgba(0,0,0,.24705882);stroke-width:.09525;stroke-miterlimit:41.994751"/><path d="M106.1085 105.7275A.47625 .47625 0 00105.156 105.7275A.47625 .47625 0 00106.1085 105.7275z" fill="rgba(0,0,0,.24705882)"/><path d="M71.72325 113.7285H86.96325V97.7265H71.72325z" style="fill:rgba(0,0,0,.24705882);stroke:rgba(0,0,0,.24705882);stroke-width:.09525;stroke-miterlimit:41.994751"/><path d="M79.8195 105.7275A.47625 .47625 0 0078.867 105.7275A.47625 .47625 0 0079.8195 105.7275z" fill="rgba(0,0,0,.24705882)"/><path d="M86.96325 114.4905H97.63125V113.7285H86.96325z" style="fill:rgba(0,0,0,.24705882);stroke:rgba(0,0,0,.24705882);stroke-width:.09525;stroke-miterlimit:41.994751"/><path d="M92.7735 114.1095A.47625 .47625 0 0091.821 114.1095A.47625 .47625 0 0092.7735 114.1095z" fill="rgba(0,0,0,.24705882)"/><path d="M114.39525 172.4025H155.54325V156.4005H114.39525z" style="fill:rgba(0,0,0,.24705882);stroke:rgba(0,0,0,.24705882);stroke-width:.09525;stroke-miterlimit:41.994751"/><path d="M135.45502 164.4015A.47625 .47625 0 00134.50252 164.4015A.47625 .47625 0 00135.45502 164.4015z" fill="rgba(0,0,0,.24705882)"/><path d="M114.39525 198.3105H129.63525V183.0705H114.39525z" style="fill:rgba(0,0,0,.24705882);stroke:rgba(0,0,0,.24705882);stroke-width:.09525;stroke-miterlimit:41.994751"/><path d="M122.4915 190.6905A.47625 .47625 0 00121.539 190.6905A.47625 .47625 0 00122.4915 190.6905z" fill="rgba(0,0,0,.24705882)"/><path d="M86.96325 113.7285H97.63125V97.7265H86.96325z" style="fill:rgba(0,0,0,.24705882);stroke:rgba(0,0,0,.24705882);stroke-width:.09525;stroke-miterlimit:41.994751"/><path d="M92.7735 105.7275A.47625 .47625 0 0091.821 105.7275A.47625 .47625 0 0092.7735 105.7275z" fill="rgba(0,0,0,.24705882)"/><path d="M113.63325 183.0705H114.39525V172.4025H113.63325z" style="fill:rgba(0,0,0,.24705882);stroke:rgba(0,0,0,.24705882);stroke-width:.09525;stroke-miterlimit:41.994751"/><path d="M114.4905 177.7365A.47625 .47625 0 00113.538 177.7365A.47625 .47625 0 00114.4905 177.7365z" fill="rgba(0,0,0,.24705882)"/><path d="M71.72325 97.7265H113.63325V87.0585H71.72325z" style="fill:rgba(0,0,0,.24705882);stroke:rgba(0,0,0,.24705882);stroke-width:.09525;stroke-miterlimit:41.994751"/><path d="M93.1545 92.3925A.47625 .47625 0 0092.202 92.3925A.47625 .47625 0 0093.1545 92.3925z" fill="rgba(0,0,0,.24705882)"/><path d="M71.72325 183.0705H113.63325V172.4025H71.72325z" style="fill:rgba(0,0,0,.24705882);stroke:rgba(0,0,0,.24705882);stroke-width:.09525;stroke-miterlimit:41.994751"/><path d="M93.1545 177.7365A.47625 .47625 0 0092.202 177.7365A.47625 .47625 0 0093.1545 177.7365z" fill="rgba(0,0,0,.24705882)"/><path d="M113.63325 97.7265H114.39525V87.0585H113.63325z" style="fill:rgba(0,0,0,.24705882);stroke:rgba(0,0,0,.24705882);stroke-width:.09525;stroke-miterlimit:41.994751"/><path d="M114.4905 92.3925A.47625 .47625 0 00113.538 92.3925A.47625 .47625 0 00114.4905 92.3925z" fill="rgba(0,0,0,.24705882)"/><path d="M114.39525 87.0585H129.63525V71.8185H114.39525z" style="fill:rgba(0,0,0,.24705882);stroke:rgba(0,0,0,.24705882);stroke-width:.09525;stroke-miterlimit:41.994751"/><path d="M122.4915 79.4385A.47625 .47625 0 00121.539 79.4385A.47625 .47625 0 00122.4915 79.4385z" fill="rgba(0,0,0,.24705882)"/><path d="M71.72325 198.3105H113.63325V183.0705H71.72325z" style="fill:rgba(0,0,0,.24705882);stroke:rgba(0,0,0,.24705882);stroke-width:.09525;stroke-miterlimit:41.994751"/><path d="M93.1545 190.6905A.47625 .47625 0 0092.202 190.6905A.47625 .47625 0 0093.1545 190.6905z" fill="rgba(0,0,0,.24705882)"/><path d="M86.96325 172.4025H97.63125V156.4005H86.96325z" style="fill:rgba(0,0,0,.24705882);stroke:rgba(0,0,0,.24705882);stroke-width:.09525;stroke-miterlimit:41.994751"/><path d="M92.7735 164.4015A.47625 .47625 0 0091.821 164.4015A.47625 .47625 0 0092.7735 164.4015z" fill="rgba(0,0,0,.24705882)"/><path d="M140.30325 87.0585H155.54325V71.8185H140.30325z" style="fill:rgba(0,0,0,.24705882);stroke:rgba(0,0,0,.24705882);stroke-width:.09525;stroke-miterlimit:41.994751"/><path d="M148.3995 79.4385A.47625 .47625 0 00147.447 79.4385A.47625 .47625 0 00148.3995 79.4385z" fill="rgba(0,0,0,.24705882)"/><path d="M114.39525 113.7285H155.54325V97.7265H114.39525z" style="fill:rgba(0,0,0,.24705882);stroke:rgba(0,0,0,.24705882);stroke-width:.09525;stroke-miterlimit:41.994751"/><path d="M135.4455 105.7275A.47625 .47625 0 00134.493 105.7275A.47625 .47625 0 00135.4455 105.7275z" fill="rgba(0,0,0,.24705882)"/><path d="M129.63525 71.8185H140.30325V71.0565H129.63525z" style="fill:rgba(0,0,0,.24705882);stroke:rgba(0,0,0,.24705882);stroke-width:.09525;stroke-miterlimit:41.994751"/><path d="M135.4455 71.4375A.47625 .47625 0 00134.493 71.4375A.47625 .47625 0 00135.4455 71.4375z" fill="rgba(0,0,0,.24705882)"/><path d="M114.42383 138.1125H155.5242V132.0165H114.42383z" style="fill:rgba(0,0,0,.24705882);stroke:rgba(0,0,0,.24705882);stroke-width:.09525;stroke-miterlimit:41.994751"/><path d="M135.45502 135.0645A.47625 .47625 0 00134.50252 135.0645A.47625 .47625 0 00135.45502 135.0645z" fill="rgba(0,0,0,.24705882)"/><path d="M172.30725 132.0165H182.97525V114.4905H172.30725z" style="fill:rgba(0,0,0,.24705882);stroke:rgba(0,0,0,.24705882);stroke-width:.09525;stroke-miterlimit:41.994751"/><path d="M178.1175 123.2535A.47625 .47625 0 00177.165 123.2535A.47625 .47625 0 00178.1175 123.2535z" fill="rgba(0,0,0,.24705882)"/><path d="M129.63525 87.0585H140.30325V71.8185H129.63525z" style="fill:rgba(0,0,0,.24705882);stroke:rgba(0,0,0,.24705882);stroke-width:.09525;stroke-miterlimit:41.994751"/><path d="M135.4455 79.4385A.47625 .47625 0 00134.493 79.4385A.47625 .47625 0 00135.4455 79.4385z" fill="rgba(0,0,0,.24705882)"/><path d="M129.63525 97.7265H140.30325V87.0585H129.63525z" style="fill:rgba(0,0,0,.24705882);stroke:rgba(0,0,0,.24705882);stroke-width:.09525;stroke-miterlimit:41.994751"/><path d="M135.4455 92.3925A.47625 .47625 0 00134.493 92.3925A.47625 .47625 0 00135.4455 92.3925z" fill="rgba(0,0,0,.24705882)"/><path d="M86.96325 156.4005H97.63125V155.6385H86.96325z" style="fill:rgba(0,0,0,.24705882);stroke:rgba(0,0,0,.24705882);stroke-width:.09525;stroke-miterlimit:41.994751"/><path d="M92.7735 156.0195A.47625 .47625 0 0091.821 156.0195A.47625 .47625 0 0092.7735 156.0195z" fill="rgba(0,0,0,.24705882)"/><path d="M140.30325 97.7265H155.54325V87.0585H140.30325z" style="fill:rgba(0,0,0,.24705882);stroke:rgba(0,0,0,.24705882);stroke-width:.09525;stroke-miterlimit:41.994751"/><path d="M148.3995 92.3925A.47625 .47625 0 00147.447 92.3925A.47625 .47625 0 00148.3995 92.3925z" fill="rgba(0,0,0,.24705882)"/><path d="M71.72325 172.4025H86.96325V156.4005H71.72325z" style="fill:rgba(0,0,0,.24705882);stroke:rgba(0,0,0,.24705882);stroke-width:.09525;stroke-miterlimit:41.994751"/><path d="M79.8195 164.4015A.47625 .47625 0 0078.867 164.4015A.47625 .47625 0 0079.8195 164.4015z" fill="rgba(0,0,0,.24705882)"/><path d="M114.39525 97.7265H129.63525V87.0585H114.39525z" style="fill:rgba(0,0,0,.24705882);stroke:rgba(0,0,0,.24705882);stroke-width:.09525;stroke-miterlimit:41.994751"/><path d="M122.4915 92.3925A.47625 .47625 0 00121.539 92.3925A.47625 .47625 0 00122.4915 92.3925z" fill="rgba(0,0,0,.24705882)"/><path d="M97.63125 172.4025H113.63325V156.4005H97.63125z" style="fill:rgba(0,0,0,.24705882);stroke:rgba(0,0,0,.24705882);stroke-width:.09525;stroke-miterlimit:41.994751"/><path d="M106.1085 164.4015A.47625 .47625 0 00105.156 164.4015A.47625 .47625 0 00106.1085 164.4015z" fill="rgba(0,0,0,.24705882)"/><path d="M155.54325 97.7265H156.30525V87.0585H155.54325z" style="fill:rgba(0,0,0,.24705882);stroke:rgba(0,0,0,.24705882);stroke-width:.09525;stroke-miterlimit:41.994751"/><path d="M156.4005 92.3925A.47625 .47625 0 00155.448 92.3925A.47625 .47625 0 00156.4005 92.3925z" fill="rgba(0,0,0,.24705882)"/><path d="M86.96325 155.6385H97.63125V138.1125H86.96325z" style="fill:rgba(0,0,0,.24705882);stroke:rgba(0,0,0,.24705882);stroke-width:.09525;stroke-miterlimit:41.994751"/><path d="M92.7735 146.8755A.47625 .47625 0 0091.821 146.8755A.47625 .47625 0 0092.7735 146.8755z" fill="rgba(0,0,0,.24705882)"/><path d="M155.5242 138.1125H156.30525V132.0165H155.5242z" style="fill:rgba(0,0,0,.24705882);stroke:rgba(0,0,0,.24705882);stroke-width:.09525;stroke-miterlimit:41.994751"/><path d="M156.39097 135.0645A.47625 .47625 0 00155.43847 135.0645A.47625 .47625 0 00156.39097 135.0645z" fill="rgba(0,0,0,.24705882)"/><path d="M156.30525 113.7285H172.30725V97.7265H156.30525z" style="fill:rgba(0,0,0,.24705882);stroke:rgba(0,0,0,.24705882);stroke-width:.09525;stroke-miterlimit:41.994751"/><path d="M164.7825 105.7275A.47625 .47625 0 00163.83 105.7275A.47625 .47625 0 00164.7825 105.7275z" fill="rgba(0,0,0,.24705882)"/><path d="M182.97525 113.7285H198.21525V97.7265H182.97525z" style="fill:rgba(0,0,0,.24705882);stroke:rgba(0,0,0,.24705882);stroke-width:.09525;stroke-miterlimit:41.994751"/><path d="M191.0715 105.7275A.47625 .47625 0 00190.119 105.7275A.47625 .47625 0 00191.0715 105.7275z" fill="rgba(0,0,0,.24705882)"/><path d="M71.72325 140.3985H86.96325V129.7305H71.72325z" style="fill:rgba(0,0,0,.24705882);stroke:rgba(0,0,0,.24705882);stroke-width:.09525;stroke-miterlimit:41.994751"/><path d="M79.8195 135.0645A.47625 .47625 0 0078.867 135.0645A.47625 .47625 0 0079.8195 135.0645z" fill="rgba(0,0,0,.24705882)"/><path d="M156.30525 87.0585H198.21525V71.8185H156.30525z" style="fill:rgba(0,0,0,.24705882);stroke:rgba(0,0,0,.24705882);stroke-width:.09525;stroke-miterlimit:41.994751"/><path d="M177.84127 79.4385A.47625 .47625 0 00176.88878 79.4385A.47625 .47625 0 00177.84127 79.4385z" fill="rgba(0,0,0,.24705882)"/><path d="M156.30525 97.7265H198.21525V87.0585H156.30525z" style="fill:rgba(0,0,0,.24705882);stroke:rgba(0,0,0,.24705882);stroke-width:.09525;stroke-miterlimit:41.994751"/><path d="M177.84127 92.3925A.47625 .47625 0 00176.88878 92.3925A.47625 .47625 0 00177.84127 92.3925z" fill="rgba(0,0,0,.24705882)"/><path d="M172.30725 113.7285H182.97525V97.7265H172.30725z" style="fill:rgba(0,0,0,.24705882);stroke:rgba(0,0,0,.24705882);stroke-width:.09525;stroke-miterlimit:41.994751"/><path d="M178.1175 105.7275A.47625 .47625 0 00177.165 105.7275A.47625 .47625 0 00178.1175 105.7275z" fill="rgba(0,0,0,.24705882)"/><path d="M70.96125 140.3985H71.72325V129.7305H70.96125z" style="fill:rgba(0,0,0,.24705882);stroke:rgba(0,0,0,.24705882);stroke-width:.09525;stroke-miterlimit:41.994751"/><path d="M71.8185 135.0645A.47625 .47625 0 0070.866 135.0645A.47625 .47625 0 0071.8185 135.0645z" fill="rgba(0,0,0,.24705882)"/><path d="M71.72325 129.7305H86.96325V114.4905H71.72325z" style="fill:rgba(0,0,0,.24705882);stroke:rgba(0,0,0,.24705882);stroke-width:.09525;stroke-miterlimit:41.994751"/><path d="M79.8195 122.1105A.47625 .47625 0 0078.867 122.1105A.47625 .47625 0 0079.8195 122.1105z" fill="rgba(0,0,0,.24705882)"/><path d="M156.30525 132.0165H172.30725V114.4905H156.30525z" style="fill:rgba(0,0,0,.24705882);stroke:rgba(0,0,0,.24705882);stroke-width:.09525;stroke-miterlimit:41.994751"/><path d="M164.7825 123.2535A.47625 .47625 0 00163.83 123.2535A.47625 .47625 0 00164.7825 123.2535z" fill="rgba(0,0,0,.24705882)"/><path d="M71.72325 155.6385H86.96325V140.3985H71.72325z" style="fill:rgba(0,0,0,.24705882);stroke:rgba(0,0,0,.24705882);stroke-width:.09525;stroke-miterlimit:41.994751"/><path d="M79.8195 148.0185A.47625 .47625 0 0078.867 148.0185A.47625 .47625 0 0079.8195 148.0185z" fill="rgba(0,0,0,.24705882)"/><path d="M182.97525 140.3985H198.21525V129.7305H182.97525z" style="fill:rgba(0,0,0,.24705882);stroke:rgba(0,0,0,.24705882);stroke-width:.09525;stroke-miterlimit:41.994751"/><path d="M191.0715 135.0645A.47625 .47625 0 00190.119 135.0645A.47625 .47625 0 00191.0715 135.0645z" fill="rgba(0,0,0,.24705882)"/><path d="M114.42383 132.0165H155.5242V114.4905H114.42383z" style="fill:rgba(0,0,0,.24705882);stroke:rgba(0,0,0,.24705882);stroke-width:.09525;stroke-miterlimit:41.994751"/><path d="M135.45502 123.2535A.47625 .47625 0 00134.50252 123.2535A.47625 .47625 0 00135.45502 123.2535z" fill="rgba(0,0,0,.24705882)"/><path d="M86.96325 132.0165H97.63125V114.4905H86.96325z" style="fill:rgba(0,0,0,.24705882);stroke:rgba(0,0,0,.24705882);stroke-width:.09525;stroke-miterlimit:41.994751"/><path d="M92.7735 123.2535A.47625 .47625 0 0091.821 123.2535A.47625 .47625 0 0092.7735 123.2535z" fill="rgba(0,0,0,.24705882)"/><path d="M182.97525 129.7305H198.21525V114.4905H182.97525z" style="fill:rgba(0,0,0,.24705882);stroke:rgba(0,0,0,.24705882);stroke-width:.09525;stroke-miterlimit:41.994751"/><path d="M191.0715 122.1105A.47625 .47625 0 00190.119 122.1105A.47625 .47625 0 00191.0715 122.1105z" fill="rgba(0,0,0,.24705882)"/><path d="M113.63325 138.1125H114.42382V132.0165H113.63325z" style="fill:rgba(0,0,0,.24705882);stroke:rgba(0,0,0,.24705882);stroke-width:.09525;stroke-miterlimit:41.994751"/><path d="M114.50955 135.0645A.47625 .47625 0 00113.55705 135.0645A.47625 .47625 0 00114.50955 135.0645z" fill="rgba(0,0,0,.24705882)"/><path d="M156.30525 155.6385H172.30725V138.1125H156.30525z" style="fill:rgba(0,0,0,.24705882);stroke:rgba(0,0,0,.24705882);stroke-width:.09525;stroke-miterlimit:41.994751"/><path d="M164.7825 146.8755A.47625 .47625 0 00163.83 146.8755A.47625 .47625 0 00164.7825 146.8755z" fill="rgba(0,0,0,.24705882)"/><path d="M97.63125 155.6385H113.63325V138.1125H97.63125z" style="fill:rgba(0,0,0,.24705882);stroke:rgba(0,0,0,.24705882);stroke-width:.09525;stroke-miterlimit:41.994751"/><path d="M106.1085 146.8755A.47625 .47625 0 00105.156 146.8755A.47625 .47625 0 00106.1085 146.8755z" fill="rgba(0,0,0,.24705882)"/><path d="M129.63525 199.0725H140.30325V198.3105H129.63525z" style="fill:rgba(0,0,0,.24705882);stroke:rgba(0,0,0,.24705882);stroke-width:.09525;stroke-miterlimit:41.994751"/><path d="M135.4455 198.6915A.47625 .47625 0 00134.493 198.6915A.47625 .47625 0 00135.4455 198.6915z" fill="rgba(0,0,0,.24705882)"/><path d="M97.63125 132.0165H113.63325V114.4905H97.63125z" style="fill:rgba(0,0,0,.24705882);stroke:rgba(0,0,0,.24705882);stroke-width:.09525;stroke-miterlimit:41.994751"/><path d="M106.1085 123.2535A.47625 .47625 0 00105.156 123.2535A.47625 .47625 0 00106.1085 123.2535z" fill="rgba(0,0,0,.24705882)"/><path d="M156.30525 172.4025H172.30725V156.4005H156.30525z" style="fill:rgba(0,0,0,.24705882);stroke:rgba(0,0,0,.24705882);stroke-width:.09525;stroke-miterlimit:41.994751"/><path d="M164.7825 164.4015A.47625 .47625 0 00163.83 164.4015A.47625 .47625 0 00164.7825 164.4015z" fill="rgba(0,0,0,.24705882)"/><path d="M182.97525 155.6385H198.21525V140.3985H182.97525z" style="fill:rgba(0,0,0,.24705882);stroke:rgba(0,0,0,.24705882);stroke-width:.09525;stroke-miterlimit:41.994751"/><path d="M191.0715 148.0185A.47625 .47625 0 00190.119 148.0185A.47625 .47625 0 00191.0715 148.0185z" fill="rgba(0,0,0,.24705882)"/><path d="M86.96325 138.1125H113.63325V132.0165H86.96325z" style="fill:rgba(0,0,0,.24705882);stroke:rgba(0,0,0,.24705882);stroke-width:.09525;stroke-miterlimit:41.994751"/><path d="M100.7745 135.0645A.47625 .47625 0 0099.822 135.0645A.47625 .47625 0 00100.7745 135.0645z" fill="rgba(0,0,0,.24705882)"/><path d="M182.97525 198.3105H198.21525V156.4005H182.97525z" style="fill:rgba(0,0,0,.24705882);stroke:rgba(0,0,0,.24705882);stroke-width:.09525;stroke-miterlimit:41.994751"/><path d="M191.0715 177.3555A.47625 .47625 0 00190.119 177.3555A.47625 .47625 0 00191.0715 177.3555z" fill="rgba(0,0,0,.24705882)"/><path d="M134.97877 135.0645V123.2535" style="fill:none;stroke:rgba(0,0,0,.24705882);stroke-width:.09525;stroke-miterlimit:41.994751"/><path d="M92.67825 92.3925L79.34325 105.7275" style="fill:none;stroke:rgba(0,0,0,.24705882);stroke-width:.09525;stroke-miterlimit:41.994751"/><path d="M100.29825 135.0645L105.63225 123.2535" style="fill:none;stroke:rgba(0,0,0,.24705882);stroke-width:.09525;stroke-miterlimit:41.994751"/><path d="M100.29825 135.0645L92.29725 123.2535" style="fill:none;stroke:rgba(0,0,0,.24705882);stroke-width:.09525;stroke-miterlimit:41.994751"/><path d="M100.29825 135.0645H79.34325" style="fill:none;stroke:rgba(0,0,0,.24705882);stroke-width:.09525;stroke-miterlimit:41.994751"/><path d="M164.30625 164.4015L177.64125 177.3555" style="fill:none;stroke:rgba(0,0,0,.24705882);stroke-width:.09525;stroke-miterlimit:41.994751"/><path d="M190.59525 148.0185L177.64125 146.8755" style="fill:none;stroke:rgba(0,0,0,.24705882);stroke-width:.09525;stroke-miterlimit:41.994751"/><path d="M190.59525 148.0185V135.0645" style="fill:none;stroke:rgba(0,0,0,.24705882);stroke-width:.09525;stroke-miterlimit:41.994751"/><path d="M92.29725 123.2535V114.1095" style="fill:none;stroke:rgba(0,0,0,.24705882);stroke-width:.09525;stroke-miterlimit:41.994751"/><path d="M92.29725 123.2535H105.63225" style="fill:none;stroke:rgba(0,0,0,.24705882);stroke-width:.09525;stroke-miterlimit:41.994751"/><path d="M114.0333 135.0645H100.29825" style="fill:none;stroke:rgba(0,0,0,.24705882);stroke-width:.09525;stroke-miterlimit:41.994751"/><path d="M92.29725 123.2535L79.34325 135.0645" style="fill:none;stroke:rgba(0,0,0,.24705882);stroke-width:.09525;stroke-miterlimit:41.994751"/><path d="M79.34325 148.0185L92.29725 146.8755" style="fill:none;stroke:rgba(0,0,0,.24705882);stroke-width:.09525;stroke-miterlimit:41.994751"/><path d="M190.59525 135.0645L177.64125 146.8755" style="fill:none;stroke:rgba(0,0,0,.24705882);stroke-width:.09525;stroke-miterlimit:41.994751"/><path d="M190.59525 135.0645V122.1105" style="fill:none;stroke:rgba(0,0,0,.24705882);stroke-width:.09525;stroke-miterlimit:41.994751"/><path d="M190.59525 135.0645H198.59625" style="fill:none;stroke:rgba(0,0,0,.24705882);stroke-width:.09525;stroke-miterlimit:41.994751"/><path d="M190.59525 135.0645H169.64025" style="fill:none;stroke:rgba(0,0,0,.24705882);stroke-width:.09525;stroke-miterlimit:41.994751"/><path d="M79.34325 122.1105L92.29725 123.2535" style="fill:none;stroke:rgba(0,0,0,.24705882);stroke-width:.09525;stroke-miterlimit:41.994751"/><path d="M79.34325 135.0645V148.0185" style="fill:none;stroke:rgba(0,0,0,.24705882);stroke-width:.09525;stroke-miterlimit:41.994751"/><path d="M177.64125 105.7275H190.59525" style="fill:none;stroke:rgba(0,0,0,.24705882);stroke-width:.09525;stroke-miterlimit:41.994751"/><path d="M177.64125 105.7275H164.30625" style="fill:none;stroke:rgba(0,0,0,.24705882);stroke-width:.09525;stroke-miterlimit:41.994751"/><path d="M79.34325 135.0645V122.1105" style="fill:none;stroke:rgba(0,0,0,.24705882);stroke-width:.09525;stroke-miterlimit:41.994751"/><path d="M177.36503 92.3925L177.64125 105.7275" style="fill:none;stroke:rgba(0,0,0,.24705882);stroke-width:.09525;stroke-miterlimit:41.994751"/><path d="M177.36503 92.3925V79.4385" style="fill:none;stroke:rgba(0,0,0,.24705882);stroke-width:.09525;stroke-miterlimit:41.994751"/><path d="M177.36503 92.3925H155.92425" style="fill:none;stroke:rgba(0,0,0,.24705882);stroke-width:.09525;stroke-miterlimit:41.994751"/><path d="M79.34325 135.0645H71.34225" style="fill:none;stroke:rgba(0,0,0,.24705882);stroke-width:.09525;stroke-miterlimit:41.994751"/><path d="M92.29725 146.8755L100.29825 135.0645" style="fill:none;stroke:rgba(0,0,0,.24705882);stroke-width:.09525;stroke-miterlimit:41.994751"/><path d="M92.29725 146.8755H105.63225" style="fill:none;stroke:rgba(0,0,0,.24705882);stroke-width:.09525;stroke-miterlimit:41.994751"/><path d="M92.29725 146.8755L79.34325 135.0645" style="fill:none;stroke:rgba(0,0,0,.24705882);stroke-width:.09525;stroke-miterlimit:41.994751"/><path d="M105.63225 164.4015L92.67825 177.7365" style="fill:none;stroke:rgba(0,0,0,.24705882);stroke-width:.09525;stroke-miterlimit:41.994751"/><path d="M79.34325 164.4015L92.67825 177.7365" style="fill:none;stroke:rgba(0,0,0,.24705882);stroke-width:.09525;stroke-miterlimit:41.994751"/><path d="M122.01525 92.3925H134.96925" style="fill:none;stroke:rgba(0,0,0,.24705882);stroke-width:.09525;stroke-miterlimit:41.994751"/><path d="M122.01525 92.3925L134.96925 105.7275" style="fill:none;stroke:rgba(0,0,0,.24705882);stroke-width:.09525;stroke-miterlimit:41.994751"/><path d="M122.01525 92.3925H114.01425" style="fill:none;stroke:rgba(0,0,0,.24705882);stroke-width:.09525;stroke-miterlimit:41.994751"/><path d="M92.29725 156.0195V146.8755" style="fill:none;stroke:rgba(0,0,0,.24705882);stroke-width:.09525;stroke-miterlimit:41.994751"/><path d="M147.92325 92.3925H155.92425" style="fill:none;stroke:rgba(0,0,0,.24705882);stroke-width:.09525;stroke-miterlimit:41.994751"/><path d="M134.97877 135.0645H155.91472" style="fill:none;stroke:rgba(0,0,0,.24705882);stroke-width:.09525;stroke-miterlimit:41.994751"/><path d="M134.96925 92.3925H147.92325" style="fill:none;stroke:rgba(0,0,0,.24705882);stroke-width:.09525;stroke-miterlimit:41.994751"/><path d="M134.96925 92.3925V79.4385" style="fill:none;stroke:rgba(0,0,0,.24705882);stroke-width:.09525;stroke-miterlimit:41.994751"/><path d="M134.97877 135.0645H114.0333" style="fill:none;stroke:rgba(0,0,0,.24705882);stroke-width:.09525;stroke-miterlimit:41.994751"/><path d="M134.96925 79.4385V71.4375" style="fill:none;stroke:rgba(0,0,0,.24705882);stroke-width:.09525;stroke-miterlimit:41.994751"/><path d="M134.96925 79.4385H147.92325" style="fill:none;stroke:rgba(0,0,0,.24705882);stroke-width:.09525;stroke-miterlimit:41.994751"/><path d="M134.96925 79.4385H122.01525" style="fill:none;stroke:rgba(0,0,0,.24705882);stroke-width:.09525;stroke-miterlimit:41.994751"/><path d="M92.29725 164.4015H105.63225" style="fill:none;stroke:rgba(0,0,0,.24705882);stroke-width:.09525;stroke-miterlimit:41.994751"/><path d="M92.29725 164.4015H79.34325" style="fill:none;stroke:rgba(0,0,0,.24705882);stroke-width:.09525;stroke-miterlimit:41.994751"/><path d="M134.96925 105.7275L147.92325 92.3925" style="fill:none;stroke:rgba(0,0,0,.24705882);stroke-width:.09525;stroke-miterlimit:41.994751"/><path d="M134.96925 105.7275V92.3925" style="fill:none;stroke:rgba(0,0,0,.24705882);stroke-width:.09525;stroke-miterlimit:41.994751"/><path d="M92.29725 164.4015V156.0195" style="fill:none;stroke:rgba(0,0,0,.24705882);stroke-width:.09525;stroke-miterlimit:41.994751"/><path d="M147.92325 79.4385V92.3925" style="fill:none;stroke:rgba(0,0,0,.24705882);stroke-width:.09525;stroke-miterlimit:41.994751"/><path d="M92.67825 177.7365L92.29725 164.4015" style="fill:none;stroke:rgba(0,0,0,.24705882);stroke-width:.09525;stroke-miterlimit:41.994751"/><path d="M122.01525 79.4385V92.3925" style="fill:none;stroke:rgba(0,0,0,.24705882);stroke-width:.09525;stroke-miterlimit:41.994751"/><path d="M92.67825 177.7365V190.6905" style="fill:none;stroke:rgba(0,0,0,.24705882);stroke-width:.09525;stroke-miterlimit:41.994751"/><path d="M114.01425 92.3925H92.67825" style="fill:none;stroke:rgba(0,0,0,.24705882);stroke-width:.09525;stroke-miterlimit:41.994751"/><path d="M114.01425 177.7365H92.67825" style="fill:none;stroke:rgba(0,0,0,.24705882);stroke-width:.09525;stroke-miterlimit:41.994751"/><path d="M92.67825 92.3925L92.29725 105.7275" style="fill:none;stroke:rgba(0,0,0,.24705882);stroke-width:.09525;stroke-miterlimit:41.994751"/><path d="M100.29825 135.0645L105.63225 146.8755" style="fill:none;stroke:rgba(0,0,0,.24705882);stroke-width:.09525;stroke-miterlimit:41.994751"/><path d="M122.01525 190.6905L134.97877 177.7365" style="fill:none;stroke:rgba(0,0,0,.24705882);stroke-width:.09525;stroke-miterlimit:41.994751"/><path d="M92.29725 105.7275H79.34325" style="fill:none;stroke:rgba(0,0,0,.24705882);stroke-width:.09525;stroke-miterlimit:41.994751"/><path d="M92.29725 105.7275H105.63225" style="fill:none;stroke:rgba(0,0,0,.24705882);stroke-width:.09525;stroke-miterlimit:41.994751"/><path d="M134.97877 177.7365H114.01425" style="fill:none;stroke:rgba(0,0,0,.24705882);stroke-width:.09525;stroke-miterlimit:41.994751"/><path d="M92.29725 114.1095V105.7275" style="fill:none;stroke:rgba(0,0,0,.24705882);stroke-width:.09525;stroke-miterlimit:41.994751"/><path d="M134.97877 177.7365V164.4015" style="fill:none;stroke:rgba(0,0,0,.24705882);stroke-width:.09525;stroke-miterlimit:41.994751"/><path d="M134.97877 177.7365L147.93277 190.6905" style="fill:none;stroke:rgba(0,0,0,.24705882);stroke-width:.09525;stroke-miterlimit:41.994751"/><path d="M105.63225 105.7275L92.67825 92.3925" style="fill:none;stroke:rgba(0,0,0,.24705882);stroke-width:.09525;stroke-miterlimit:41.994751"/><path d="M134.97877 177.7365L134.96925 190.6905" style="fill:none;stroke:rgba(0,0,0,.24705882);stroke-width:.09525;stroke-miterlimit:41.994751"/><path d="M198.59625 135.0645H234.36262" style="fill:none;stroke:rgba(0,0,0,.24705882);stroke-width:.09525;stroke-miterlimit:41.994751"/><path d="M134.97877 177.7365H155.92425" style="fill:none;stroke:rgba(0,0,0,.24705882);stroke-width:.09525;stroke-miterlimit:41.994751"/><path d="M92.67825 79.4385V92.3925" style="fill:none;stroke:rgba(0,0,0,.24705882);stroke-width:.09525;stroke-miterlimit:41.994751"/><path d="M134.96925 190.6905V198.6915" style="fill:none;stroke:rgba(0,0,0,.24705882);stroke-width:.09525;stroke-miterlimit:41.994751"/><path d="M234.36262 135.0645V100.3935" style="fill:none;stroke:rgba(0,0,0,.24705882);stroke-width:.09525;stroke-miterlimit:41.994751"/><path d="M134.96925 190.6905H122.01525" style="fill:none;stroke:rgba(0,0,0,.24705882);stroke-width:.09525;stroke-miterlimit:41.994751"/><path d="M169.64025 135.0645L177.64125 123.2535" style="fill:none;stroke:rgba(0,0,0,.24705882);stroke-width:.09525;stroke-miterlimit:41.994751"/><path d="M169.64025 135.0645L177.64125 146.8755" style="fill:none;stroke:rgba(0,0,0,.24705882);stroke-width:.09525;stroke-miterlimit:41.994751"/><path d="M169.64025 135.0645L164.30625 146.8755" style="fill:none;stroke:rgba(0,0,0,.24705882);stroke-width:.09525;stroke-miterlimit:41.994751"/><path d="M169.64025 135.0645L164.30625 123.2535" style="fill:none;stroke:rgba(0,0,0,.24705882);stroke-width:.09525;stroke-miterlimit:41.994751"/><path d="M169.64025 135.0645H155.91472" style="fill:none;stroke:rgba(0,0,0,.24705882);stroke-width:.09525;stroke-miterlimit:41.994751"/><path d="M134.96925 190.6905H147.93277" style="fill:none;stroke:rgba(0,0,0,.24705882);stroke-width:.09525;stroke-miterlimit:41.994751"/><path d="M234.36262 100.3935V35.671125" style="fill:none;stroke:rgba(0,0,0,.24705882);stroke-width:.09525;stroke-miterlimit:41.994751"/><path d="M134.97877 146.8755V135.0645" style="fill:none;stroke:rgba(0,0,0,.24705882);stroke-width:.09525;stroke-miterlimit:41.994751"/><path d="M234.36262 35.671125H169.64025" style="fill:none;stroke:rgba(0,0,0,.24705882);stroke-width:.09525;stroke-miterlimit:41.994751"/><path d="M164.30625 177.7365V190.6905" style="fill:none;stroke:rgba(0,0,0,.24705882);stroke-width:.09525;stroke-miterlimit:41.994751"/><path d="M169.64025 35.671125H134.96925" style="fill:none;stroke:rgba(0,0,0,.24705882);stroke-width:.09525;stroke-miterlimit:41.994751"/><path d="M164.30625 177.7365V164.4015" style="fill:none;stroke:rgba(0,0,0,.24705882);stroke-width:.09525;stroke-miterlimit:41.994751"/><path d="M134.96925 35.671125V71.4375" style="fill:none;stroke:rgba(0,0,0,.24705882);stroke-width:.09525;stroke-miterlimit:41.994751"/><path d="M134.96925 35.671125H100.29825" style="fill:none;stroke:rgba(0,0,0,.24705882);stroke-width:.09525;stroke-miterlimit:41.994751"/><path d="M164.30625 177.7365H155.92425" style="fill:none;stroke:rgba(0,0,0,.24705882);stroke-width:.09525;stroke-miterlimit:41.994751"/><path d="M100.29825 35.671125H35.5854" style="fill:none;stroke:rgba(0,0,0,.24705882);stroke-width:.09525;stroke-miterlimit:41.994751"/><path d="M177.64125 177.3555H190.59525" style="fill:none;stroke:rgba(0,0,0,.24705882);stroke-width:.09525;stroke-miterlimit:41.994751"/><path d="M35.5854 35.671125V100.3935" style="fill:none;stroke:rgba(0,0,0,.24705882);stroke-width:.09525;stroke-miterlimit:41.994751"/><path d="M177.64125 177.3555L164.30625 190.6905" style="fill:none;stroke:rgba(0,0,0,.24705882);stroke-width:.09525;stroke-miterlimit:41.994751"/><path d="M35.5854 100.3935V135.0645" style="fill:none;stroke:rgba(0,0,0,.24705882);stroke-width:.09525;stroke-miterlimit:41.994751"/><path d="M177.64125 177.3555L164.30625 177.7365" style="fill:none;stroke:rgba(0,0,0,.24705882);stroke-width:.09525;stroke-miterlimit:41.994751"/><path d="M35.5854 135.0645H71.34225" style="fill:none;stroke:rgba(0,0,0,.24705882);stroke-width:.09525;stroke-miterlimit:41.994751"/><path d="M35.5854 135.0645V169.7355" style="fill:none;stroke:rgba(0,0,0,.24705882);stroke-width:.09525;stroke-miterlimit:41.994751"/><path d="M177.64125 177.3555V156.0195" style="fill:none;stroke:rgba(0,0,0,.24705882);stroke-width:.09525;stroke-miterlimit:41.994751"/><path d="M35.5854 169.7355V234.44835" style="fill:none;stroke:rgba(0,0,0,.24705882);stroke-width:.09525;stroke-miterlimit:41.994751"/><path d="M177.64125 146.8755H164.30625" style="fill:none;stroke:rgba(0,0,0,.24705882);stroke-width:.09525;stroke-miterlimit:41.994751"/><path d="M35.5854 234.44835H100.29825" style="fill:none;stroke:rgba(0,0,0,.24705882);stroke-width:.09525;stroke-miterlimit:41.994751"/><path d="M177.64125 146.8755V156.0195" style="fill:none;stroke:rgba(0,0,0,.24705882);stroke-width:.09525;stroke-miterlimit:41.994751"/><path d="M100.29825 234.44835H134.96925" style="fill:none;stroke:rgba(0,0,0,.24705882);stroke-width:.09525;stroke-miterlimit:41.994751"/><path d="M177.64125 114.1095V105.7275" style="fill:none;stroke:rgba(0,0,0,.24705882);stroke-width:.09525;stroke-miterlimit:41.994751"/><path d="M134.96925 234.44835V198.6915" style="fill:none;stroke:rgba(0,0,0,.24705882);stroke-width:.09525;stroke-miterlimit:41.994751"/><path d="M134.96925 234.44835H169.64025" style="fill:none;stroke:rgba(0,0,0,.24705882);stroke-width:.09525;stroke-miterlimit:41.994751"/><path d="M177.64125 123.2535H164.30625" style="fill:none;stroke:rgba(0,0,0,.24705882);stroke-width:.09525;stroke-miterlimit:41.994751"/><path d="M169.64025 234.44835H233.8959" style="fill:none;stroke:rgba(0,0,0,.24705882);stroke-width:.09525;stroke-miterlimit:41.994751"/><path d="M177.64125 123.2535L190.59525 122.1105" style="fill:none;stroke:rgba(0,0,0,.24705882);stroke-width:.09525;stroke-miterlimit:41.994751"/><path d="M233.8959 234.44835V169.7355" style="fill:none;stroke:rgba(0,0,0,.24705882);stroke-width:.09525;stroke-miterlimit:41.994751"/><path d="M177.64125 123.2535V114.1095" style="fill:none;stroke:rgba(0,0,0,.24705882);stroke-width:.09525;stroke-miterlimit:41.994751"/><path d="M233.8959 169.7355L234.36262 135.0645" style="fill:none;stroke:rgba(0,0,0,.24705882);stroke-width:.09525;stroke-miterlimit:41.994751"/></svg>