<svg version="1.1" width="73.533mm" height="152.87625mm" viewBox="0 0 73.533 152.87625" xmlns="http://www.w3.org/2000/svg" xmlns:xlink="http://www.w3.org/1999/xlink"><path d="M24.47925 110.01375H26.38425" style="fill:none;stroke:#f00;stroke-width:.09525;stroke-miterlimit:41.994751"/><path d="M24.47925 110.01375V108.10875" style="fill:none;stroke:#0f0;stroke-width:.09525;stroke-miterlimit:41.994751"/><path d="M24.5364 152.6667H48.891825V95.545275H24.5364z" style="fill:rgba(0,0,0,.24705882);stroke:rgba(0,0,0,.24705882);stroke-width:.09525;stroke-miterlimit:41.994751"/><path d="M37.423725 124.46318A.47625 .47625 0 0036.471225 124.46318A.47625 .47625 0 0037.423725 124.46318z" fill="rgba(0,0,0,.24705882)"/><path d="M24.526875 47.8155H48.82515V.3048H24.526875z" style="fill:rgba(0,0,0,.24705882);stroke:rgba(0,0,0,.24705882);stroke-width:.09525;stroke-miterlimit:41.994751"/><path d="M36.528375 17.81175A.47625 .47625 0 0035.575875 17.81175A.47625 .47625 0 0036.528375 17.81175z" fill="rgba(0,0,0,.24705882)"/><path d="M.219075 30.76575H24.507825V.381H.219075z" style="fill:rgba(0,0,0,.24705882);stroke:rgba(0,0,0,.24705882);stroke-width:.09525;stroke-miterlimit:41.994751"/><path d="M14.277975 16.640175A.47625 .47625 0 0013.325475 16.640175A.47625 .47625 0 0014.277975 16.640175z" fill="rgba(0,0,0,.24705882)"/><path d="M48.90135 152.63813H73.24725V110.02328H48.90135z" style="fill:rgba(0,0,0,.24705882);stroke:rgba(0,0,0,.24705882);stroke-width:.09525;stroke-miterlimit:41.994751"/><path d="M60.112275 132.30225A.47625 .47625 0 0059.159775 132.30225A.47625 .47625 0 0060.112275 132.30225z" fill="rgba(0,0,0,.24705882)"/><path d="M.2667 152.39048H24.488775V110.01375H.2667z" style="fill:rgba(0,0,0,.24705882);stroke:rgba(0,0,0,.24705882);stroke-width:.09525;stroke-miterlimit:41.994751"/><path d="M14.0589 132.18795A.47625 .47625 0 0013.1064 132.18795A.47625 .47625 0 0014.0589 132.18795z" fill="rgba(0,0,0,.24705882)"/><path d="M48.853725 30.76575H73.2282V.32385H48.853725z" style="fill:rgba(0,0,0,.24705882);stroke:rgba(0,0,0,.24705882);stroke-width:.09525;stroke-miterlimit:41.994751"/><path d="M61.407675 16.63065A.47625 .47625 0 0060.455175 16.63065A.47625 .47625 0 0061.407675 16.63065z" fill="rgba(0,0,0,.24705882)"/><path d="M24.47925 95.545275H48.86325V47.825025H24.47925z" style="fill:rgba(0,0,0,.24705882);stroke:rgba(0,0,0,.24705882);stroke-width:.09525;stroke-miterlimit:41.994751"/><path d="M37.0332 72.33285A.47625 .47625 0 0036.0807 72.33285A.47625 .47625 0 0037.0332 72.33285z" fill="rgba(0,0,0,.24705882)"/><path d="M60.931425 16.63065L36.052125 17.81175" style="fill:none;stroke:rgba(0,0,0,.24705882);stroke-width:.09525;stroke-miterlimit:41.994751"/><path d="M13.801725 16.640175L36.052125 17.81175" style="fill:none;stroke:rgba(0,0,0,.24705882);stroke-width:.09525;stroke-miterlimit:41.994751"/><path d="M59.636025 132.30225L36.947475 124.46318" style="fill:none;stroke:rgba(0,0,0,.24705882);stroke-width:.09525;stroke-miterlimit:41.994751"/><path d="M13.58265 132.18795L36.947475 124.46318" style="fill:none;stroke:rgba(0,0,0,.24705882);stroke-width:.09525;stroke-miterlimit:41.994751"/><path d="M36.55695 72.33285L36.052125 17.81175" style="fill:none;stroke:rgba(0,0,0,.24705882);stroke-width:.09525;stroke-miterlimit:41.994751"/><path d="M36.55695 72.33285L36.947475 124.46318" style="fill:none;stroke:rgba(0,0,0,.24705882);stroke-width:.09525;stroke-miterlimit:41.994751"/></svg>