<svg version="1.1" width="239.268mm" height="184.785mm" viewBox="0 0 239.268 184.785" xmlns="http://www.w3.org/2000/svg" xmlns:xlink="http://www.w3.org/1999/xlink"><path d="M53.5305 63.91275H55.4355" style="fill:none;stroke:#f00;stroke-width:.09525;stroke-miterlimit:41.994751"/><path d="M53.5305 63.91275V62.00775" style="fill:none;stroke:#0f0;stroke-width:.09525;stroke-miterlimit:41.994751"/><path d="M179.61293 135.2931H185.60415V83.53425H179.61293z" style="fill:rgba(255,0,0,.24705882);stroke:rgba(255,0,0,.24705882);stroke-width:.09525;stroke-miterlimit:41.994751"/><path d="M185.49937 96.554925A.47625 .47625 0 00184.54688 96.554925A.47625 .47625 0 00185.49937 96.554925z" fill="rgba(255,0,0,.24705882)"/><path d="M163.35375 97.850325L185.02312 96.554925" style="fill:none;stroke:rgba(255,0,0,.24705882);stroke-width:.09525;stroke-miterlimit:41.994751"/><path d="M127.04445 83.543775H185.55652V79.80045H127.04445z" style="fill:rgba(255,0,0,.24705882);stroke:rgba(255,0,0,.24705882);stroke-width:.09525;stroke-miterlimit:41.994751"/><path d="M184.61355 82.0293A.47625 .47625 0 00183.66105 82.0293A.47625 .47625 0 00184.61355 82.0293z" fill="rgba(255,0,0,.24705882)"/><path d="M184.1373 82.0293L188.94743 81.74355" style="fill:none;stroke:rgba(255,0,0,.24705882);stroke-width:.09525;stroke-miterlimit:41.994751"/><path d="M105.3465 184.39447H142.4178V166.4208H105.3465z" style="fill:rgba(255,0,0,.24705882);stroke:rgba(255,0,0,.24705882);stroke-width:.09525;stroke-miterlimit:41.994751"/><path d="M119.04345 173.44072A.47625 .47625 0 00118.09095 173.44072A.47625 .47625 0 00119.04345 173.44072z" fill="rgba(255,0,0,.24705882)"/><path d="M120.87225 24.0411H185.3184V17.478375H120.87225z" style="fill:rgba(255,0,0,.24705882);stroke:rgba(255,0,0,.24705882);stroke-width:.09525;stroke-miterlimit:41.994751"/><path d="M151.15222 20.793075A.47625 .47625 0 00150.19973 20.793075A.47625 .47625 0 00151.15222 20.793075z" fill="rgba(255,0,0,.24705882)"/><path d="M111.252 35.594925H120.71033V26.04135H111.252z" style="fill:rgba(255,0,0,.24705882);stroke:rgba(255,0,0,.24705882);stroke-width:.09525;stroke-miterlimit:41.994751"/><path d="M117.16702 33.47085A.47625 .47625 0 00116.21453 33.47085A.47625 .47625 0 00117.16702 33.47085z" fill="rgba(255,0,0,.24705882)"/><path d="M185.64225 66.932175H191.8335V37.3761H185.64225z" style="fill:rgba(255,0,0,.24705882);stroke:rgba(255,0,0,.24705882);stroke-width:.09525;stroke-miterlimit:41.994751"/><path d="M190.39522 59.055A.47625 .47625 0 00189.44272 59.055A.47625 .47625 0 00190.39522 59.055z" fill="rgba(255,0,0,.24705882)"/><path d="M42.57675 170.9547H86.96325V159.85808H42.57675z" style="fill:rgba(255,0,0,.24705882);stroke:rgba(255,0,0,.24705882);stroke-width:.09525;stroke-miterlimit:41.994751"/><path d="M46.148625 163.61093A.47625 .47625 0 0045.196125 163.61093A.47625 .47625 0 0046.148625 163.61093z" fill="rgba(255,0,0,.24705882)"/><path d="M185.7756 37.366575H191.8335V17.592675H185.7756z" style="fill:rgba(255,0,0,.24705882);stroke:rgba(255,0,0,.24705882);stroke-width:.09525;stroke-miterlimit:41.994751"/><path d="M189.23318 21.336A.47625 .47625 0 00188.28068 21.336A.47625 .47625 0 00189.23318 21.336z" fill="rgba(255,0,0,.24705882)"/><path d="M111.252 46.281975H120.87225V35.60445H111.252z" style="fill:rgba(255,0,0,.24705882);stroke:rgba(255,0,0,.24705882);stroke-width:.09525;stroke-miterlimit:41.994751"/><path d="M117.56707 41.16705A.47625 .47625 0 00116.61458 41.16705A.47625 .47625 0 00117.56707 41.16705z" fill="rgba(255,0,0,.24705882)"/><path d="M110.59477 83.696175H122.02478V46.34865H110.59477z" style="fill:rgba(255,0,0,.24705882);stroke:rgba(255,0,0,.24705882);stroke-width:.09525;stroke-miterlimit:41.994751"/><path d="M117.79568 67.789425A.47625 .47625 0 00116.84318 67.789425A.47625 .47625 0 00117.79568 67.789425z" fill="rgba(255,0,0,.24705882)"/><path d="M42.69105 159.76282H48.663225V151.46655H42.69105z" style="fill:rgba(255,0,0,.24705882);stroke:rgba(255,0,0,.24705882);stroke-width:.09525;stroke-miterlimit:41.994751"/><path d="M46.015275 154.29547A.47625 .47625 0 0045.062775 154.29547A.47625 .47625 0 0046.015275 154.29547z" fill="rgba(255,0,0,.24705882)"/><path d="M142.43685 184.49925H173.51693V170.1165H142.43685z" style="fill:rgba(255,0,0,.24705882);stroke:rgba(255,0,0,.24705882);stroke-width:.09525;stroke-miterlimit:41.994751"/><path d="M165.43973 173.53598A.47625 .47625 0 00164.48723 173.53598A.47625 .47625 0 00165.43973 173.53598z" fill="rgba(255,0,0,.24705882)"/><path d="M94.01175 184.49925H105.18457V170.89755H94.01175z" style="fill:rgba(255,0,0,.24705882);stroke:rgba(255,0,0,.24705882);stroke-width:.09525;stroke-miterlimit:41.994751"/><path d="M97.4217 173.30737A.47625 .47625 0 0096.4692 173.30737A.47625 .47625 0 0097.4217 173.30737z" fill="rgba(255,0,0,.24705882)"/><path d="M64.608075 25.96515H120.78653V17.649825H64.608075z" style="fill:rgba(255,0,0,.24705882);stroke:rgba(255,0,0,.24705882);stroke-width:.09525;stroke-miterlimit:41.994751"/><path d="M118.51005 21.0693A.47625 .47625 0 00117.55755 21.0693A.47625 .47625 0 00118.51005 21.0693z" fill="rgba(255,0,0,.24705882)"/><path d="M26.46045 167.3352H42.4815V134.73112H26.46045z" style="fill:rgba(255,0,0,.24705882);stroke:rgba(255,0,0,.24705882);stroke-width:.09525;stroke-miterlimit:41.994751"/><path d="M28.25115 153.6192A.47625 .47625 0 0027.29865 153.6192A.47625 .47625 0 0028.25115 153.6192z" fill="rgba(255,0,0,.24705882)"/><path d="M185.65177 83.91525H191.8335V66.9417H185.65177z" style="fill:rgba(255,0,0,.24705882);stroke:rgba(255,0,0,.24705882);stroke-width:.09525;stroke-miterlimit:41.994751"/><path d="M189.42368 81.74355A.47625 .47625 0 00188.47118 81.74355A.47625 .47625 0 00189.42368 81.74355z" fill="rgba(255,0,0,.24705882)"/><path d="M87.029925 170.88802H105.39413V155.45752H87.029925z" style="fill:rgba(255,0,0,.24705882);stroke:rgba(255,0,0,.24705882);stroke-width:.09525;stroke-miterlimit:41.994751"/><path d="M97.5741 163.4109A.47625 .47625 0 0096.6216 163.4109A.47625 .47625 0 0097.5741 163.4109z" fill="rgba(255,0,0,.24705882)"/><path d="M189.91897 59.055L188.75693 21.336" style="fill:none;stroke:rgba(255,0,0,.24705882);stroke-width:.09525;stroke-miterlimit:41.994751"/><path d="M45.672375 163.61093L97.09785 163.4109" style="fill:none;stroke:rgba(255,0,0,.24705882);stroke-width:.09525;stroke-miterlimit:41.994751"/><path d="M97.09785 163.4109L96.94545 173.30737" style="fill:none;stroke:rgba(255,0,0,.24705882);stroke-width:.09525;stroke-miterlimit:41.994751"/><path d="M27.7749 153.6192L45.539025 154.29547" style="fill:none;stroke:rgba(255,0,0,.24705882);stroke-width:.09525;stroke-miterlimit:41.994751"/><path d="M45.539025 154.29547L45.672375 163.61093" style="fill:none;stroke:rgba(255,0,0,.24705882);stroke-width:.09525;stroke-miterlimit:41.994751"/><path d="M164.96348 173.53598L96.94545 173.30737" style="fill:none;stroke:rgba(255,0,0,.24705882);stroke-width:.09525;stroke-miterlimit:41.994751"/><path d="M150.67597 20.793075L188.75693 21.336" style="fill:none;stroke:rgba(255,0,0,.24705882);stroke-width:.09525;stroke-miterlimit:41.994751"/><path d="M117.31943 67.789425L117.09082 41.16705" style="fill:none;stroke:rgba(255,0,0,.24705882);stroke-width:.09525;stroke-miterlimit:41.994751"/><path d="M164.96348 173.53598L118.5672 173.44072" style="fill:none;stroke:rgba(255,0,0,.24705882);stroke-width:.09525;stroke-miterlimit:41.994751"/><path d="M150.67597 20.793075L118.0338 21.0693" style="fill:none;stroke:rgba(255,0,0,.24705882);stroke-width:.09525;stroke-miterlimit:41.994751"/><path d="M116.69078 33.47085L117.09082 41.16705" style="fill:none;stroke:rgba(255,0,0,.24705882);stroke-width:.09525;stroke-miterlimit:41.994751"/><path d="M188.94743 81.74355L189.91897 59.055" style="fill:none;stroke:rgba(255,0,0,.24705882);stroke-width:.09525;stroke-miterlimit:41.994751"/><path d="M118.0338 21.0693L116.69078 33.47085" style="fill:none;stroke:rgba(255,0,0,.24705882);stroke-width:.09525;stroke-miterlimit:41.994751"/><path d="M118.5672 173.44072L96.94545 173.30737" style="fill:none;stroke:rgba(255,0,0,.24705882);stroke-width:.09525;stroke-miterlimit:41.994751"/><path d="M18.0975 153.543L27.7749 153.6192" style="fill:none;stroke:rgba(255,0,0,.24705882);stroke-width:.09525;stroke-miterlimit:41.994751"/><path d="M121.3866 33.6042L116.69078 33.47085" style="fill:none;stroke:rgba(255,0,0,.24705882);stroke-width:.09525;stroke-miterlimit:41.994751"/><path d="M117.02415 98.383725L117.31943 67.789425" style="fill:none;stroke:rgba(255,0,0,.24705882);stroke-width:.09525;stroke-miterlimit:41.994751"/><path d="M87.106125 98.3361L164.96348 173.53598" style="fill:none;stroke:rgba(255,0,0,.24705882);stroke-width:.09525;stroke-miterlimit:41.994751"/><path d="M164.96348 173.53598L173.736 180.0987" style="fill:none;stroke:rgba(255,0,0,.24705882);stroke-width:.09525;stroke-miterlimit:41.994751"/><path d="M164.96348 173.53598L164.64915 169.164" style="fill:none;stroke:rgba(255,0,0,.24705882);stroke-width:.09525;stroke-miterlimit:41.994751"/><path d="M117.31943 67.789425L132.8928 68.494275" style="fill:none;stroke:rgba(255,0,0,.24705882);stroke-width:.09525;stroke-miterlimit:41.994751"/><path d="M130.09245 46.482H140.63662V25.7175H130.09245z" style="fill:rgba(255,0,0,.24705882);stroke:rgba(255,0,0,.24705882);stroke-width:.09525;stroke-miterlimit:41.994751"/><path d="M135.04545 33.880425A.47625 .47625 0 00134.09295 33.880425A.47625 .47625 0 00135.04545 33.880425z" fill="rgba(255,0,0,.24705882)"/><path d="M178.10798 184.49925H187.13768V170.307H178.10798z" style="fill:rgba(255,0,0,.24705882);stroke:rgba(255,0,0,.24705882);stroke-width:.09525;stroke-miterlimit:41.994751"/><path d="M181.86082 180.19395A.47625 .47625 0 00180.90832 180.19395A.47625 .47625 0 00181.86082 180.19395z" fill="rgba(255,0,0,.24705882)"/><path d="M49.0728 51.8922H63.246V21.059775H49.0728z" style="fill:rgba(255,0,0,.24705882);stroke:rgba(255,0,0,.24705882);stroke-width:.09525;stroke-miterlimit:41.994751"/><path d="M52.7685 27.441525A.47625 .47625 0 0051.816 27.441525A.47625 .47625 0 0052.7685 27.441525z" fill="rgba(255,0,0,.24705882)"/><path d="M164.5539 46.42485A.47625 .47625 0 00163.6014 46.42485A.47625 .47625 0 00164.5539 46.42485z" fill="rgba(255,0,0,.24705882)"/><path d="M180.07013 42.9387A.47625 .47625 0 00179.11763 42.9387A.47625 .47625 0 00180.07013 42.9387z" fill="rgba(255,0,0,.24705882)"/><path d="M156.68625 78.381225H163.54425V63.293625H156.68625z" style="fill:rgba(255,0,0,.24705882);stroke:rgba(255,0,0,.24705882);stroke-width:.09525;stroke-miterlimit:41.994751"/><path d="M160.68675 77.1525A.47625 .47625 0 00159.73425 77.1525A.47625 .47625 0 00160.68675 77.1525z" fill="rgba(255,0,0,.24705882)"/><path d="M165.0873 41.995725H184.11825V25.765125H165.0873z" style="fill:rgba(255,0,0,.24705882);stroke:rgba(255,0,0,.24705882);stroke-width:.09525;stroke-miterlimit:41.994751"/><path d="M173.8122 33.8709A.47625 .47625 0 00172.8597 33.8709A.47625 .47625 0 00173.8122 33.8709z" fill="rgba(255,0,0,.24705882)"/><path d="M121.86285 33.6042A.47625 .47625 0 00120.91035 33.6042A.47625 .47625 0 00121.86285 33.6042z" fill="rgba(255,0,0,.24705882)"/><path d="M188.69025 112.21402H227.09505V85.82025H188.69025z" style="fill:rgba(255,0,0,.24705882);stroke:rgba(255,0,0,.24705882);stroke-width:.09525;stroke-miterlimit:41.994751"/><path d="M211.71218 104.5464A.47625 .47625 0 00210.75968 104.5464A.47625 .47625 0 00211.71218 104.5464z" fill="rgba(255,0,0,.24705882)"/><path d="M122.89155 42.00525H130.09245V26.603325H122.89155z" style="fill:rgba(255,0,0,.24705882);stroke:rgba(255,0,0,.24705882);stroke-width:.09525;stroke-miterlimit:41.994751"/><path d="M127.1016 33.823275A.47625 .47625 0 00126.1491 33.823275A.47625 .47625 0 00127.1016 33.823275z" fill="rgba(255,0,0,.24705882)"/><path d="M150.78075 44.2341H163.36328V40.928925H150.78075z" style="fill:rgba(255,0,0,.24705882);stroke:rgba(255,0,0,.24705882);stroke-width:.09525;stroke-miterlimit:41.994751"/><path d="M160.61055 41.309925A.47625 .47625 0 00159.65805 41.309925A.47625 .47625 0 00160.61055 41.309925z" fill="rgba(255,0,0,.24705882)"/><path d="M156.68625 49.149H163.42042V44.338875H156.68625z" style="fill:rgba(255,0,0,.24705882);stroke:rgba(255,0,0,.24705882);stroke-width:.09525;stroke-miterlimit:41.994751"/><path d="M160.91535 46.23435A.47625 .47625 0 00159.96285 46.23435A.47625 .47625 0 00160.91535 46.23435z" fill="rgba(255,0,0,.24705882)"/><path d="M140.90332 40.7289H163.54425V25.898475H140.90332z" style="fill:rgba(255,0,0,.24705882);stroke:rgba(255,0,0,.24705882);stroke-width:.09525;stroke-miterlimit:41.994751"/><path d="M160.80105 34.394775A.47625 .47625 0 00159.84855 34.394775A.47625 .47625 0 00160.80105 34.394775z" fill="rgba(255,0,0,.24705882)"/><path d="M156.73388 61.24575A.47625 .47625 0 00155.78138 61.24575A.47625 .47625 0 00156.73388 61.24575z" fill="rgba(255,0,0,.24705882)"/><path d="M122.10098 71.427975H134.40727V63.49365H122.10098z" style="fill:rgba(255,0,0,.24705882);stroke:rgba(255,0,0,.24705882);stroke-width:.09525;stroke-miterlimit:41.994751"/><path d="M133.36905 68.494275A.47625 .47625 0 00132.41655 68.494275A.47625 .47625 0 00133.36905 68.494275z" fill="rgba(255,0,0,.24705882)"/><path d="M156.76245 63.217425H163.54425V49.1871H156.76245z" style="fill:rgba(255,0,0,.24705882);stroke:rgba(255,0,0,.24705882);stroke-width:.09525;stroke-miterlimit:41.994751"/><path d="M161.60115 61.217175A.47625 .47625 0 00160.64865 61.217175A.47625 .47625 0 00161.60115 61.217175z" fill="rgba(255,0,0,.24705882)"/><path d="M176.37443 70.1802H184.11825V43.653075H176.37443z" style="fill:rgba(255,0,0,.24705882);stroke:rgba(255,0,0,.24705882);stroke-width:.09525;stroke-miterlimit:41.994751"/><path d="M180.11775 47.0916A.47625 .47625 0 00179.16525 47.0916A.47625 .47625 0 00180.11775 47.0916z" fill="rgba(255,0,0,.24705882)"/><path d="M156.19095 135.28357H179.49863V83.848575H156.19095z" style="fill:rgba(255,0,0,.24705882);stroke:rgba(255,0,0,.24705882);stroke-width:.09525;stroke-miterlimit:41.994751"/><path d="M163.83 97.850325A.47625 .47625 0 00162.8775 97.850325A.47625 .47625 0 00163.83 97.850325z" fill="rgba(255,0,0,.24705882)"/><path d="M.295275 167.03992H26.355675V134.7978H.295275z" style="fill:rgba(255,0,0,.24705882);stroke:rgba(255,0,0,.24705882);stroke-width:.09525;stroke-miterlimit:41.994751"/><path d="M18.57375 153.543A.47625 .47625 0 0017.62125 153.543A.47625 .47625 0 0018.57375 153.543z" fill="rgba(255,0,0,.24705882)"/><path d="M9.04875 108.51832H48.796575V89.05875H9.04875z" style="fill:rgba(255,0,0,.24705882);stroke:rgba(255,0,0,.24705882);stroke-width:.09525;stroke-miterlimit:41.994751"/><path d="M17.364075 98.174175A.47625 .47625 0 0016.411575 98.174175A.47625 .47625 0 0017.364075 98.174175z" fill="rgba(255,0,0,.24705882)"/><path d="M173.55503 184.49925H178.08893V175.72672H173.55503z" style="fill:rgba(255,0,0,.24705882);stroke:rgba(255,0,0,.24705882);stroke-width:.09525;stroke-miterlimit:41.994751"/><path d="M174.21225 180.0987A.47625 .47625 0 00173.25975 180.0987A.47625 .47625 0 00174.21225 180.0987z" fill="rgba(255,0,0,.24705882)"/><path d="M.238125 134.65492H27.33675V108.55642H.238125z" style="fill:rgba(255,0,0,.24705882);stroke:rgba(255,0,0,.24705882);stroke-width:.09525;stroke-miterlimit:41.994751"/><path d="M17.745075 121.26277A.47625 .47625 0 0016.792575 121.26277A.47625 .47625 0 0017.745075 121.26277z" fill="rgba(255,0,0,.24705882)"/><path d="M130.1115 61.7982H140.4366V46.57725H130.1115z" style="fill:rgba(255,0,0,.24705882);stroke:rgba(255,0,0,.24705882);stroke-width:.09525;stroke-miterlimit:41.994751"/><path d="M136.41705 57.15A.47625 .47625 0 00135.46455 57.15A.47625 .47625 0 00136.41705 57.15z" fill="rgba(255,0,0,.24705882)"/><path d="M165.09682 78.58125H176.37443V60.340875H165.09682z" style="fill:rgba(255,0,0,.24705882);stroke:rgba(255,0,0,.24705882);stroke-width:.09525;stroke-miterlimit:41.994751"/><path d="M172.45013 71.2851A.47625 .47625 0 00171.49763 71.2851A.47625 .47625 0 00172.45013 71.2851z" fill="rgba(255,0,0,.24705882)"/><path d="M141.5415 62.512575H154.98127V59.083575H141.5415z" style="fill:rgba(255,0,0,.24705882);stroke:rgba(255,0,0,.24705882);stroke-width:.09525;stroke-miterlimit:41.994751"/><path d="M147.72323 61.064775A.47625 .47625 0 00146.77073 61.064775A.47625 .47625 0 00147.72323 61.064775z" fill="rgba(255,0,0,.24705882)"/><path d="M141.44625 59.007375H155.16225V43.52925H141.44625z" style="fill:rgba(255,0,0,.24705882);stroke:rgba(255,0,0,.24705882);stroke-width:.09525;stroke-miterlimit:41.994751"/><path d="M148.6662 48.32985A.47625 .47625 0 00147.7137 48.32985A.47625 .47625 0 00148.6662 48.32985z" fill="rgba(255,0,0,.24705882)"/><path d="M188.69025 176.1363H238.93462V161.80118H188.69025z" style="fill:rgba(255,0,0,.24705882);stroke:rgba(255,0,0,.24705882);stroke-width:.09525;stroke-miterlimit:41.994751"/><path d="M201.29183 170.60227A.47625 .47625 0 00200.33933 170.60227A.47625 .47625 0 00201.29183 170.60227z" fill="rgba(255,0,0,.24705882)"/><path d="M165.1254 169.164A.47625 .47625 0 00164.1729 169.164A.47625 .47625 0 00165.1254 169.164z" fill="rgba(255,0,0,.24705882)"/><path d="M226.97123 134.39775H238.97272V111.24247H226.97123z" style="fill:rgba(255,0,0,.24705882);stroke:rgba(255,0,0,.24705882);stroke-width:.09525;stroke-miterlimit:41.994751"/><path d="M231.7623 123.41542A.47625 .47625 0 00230.8098 123.41542A.47625 .47625 0 00231.7623 123.41542z" fill="rgba(255,0,0,.24705882)"/><path d="M136.35037 78.114525H155.0289V62.607825H136.35037z" style="fill:rgba(255,0,0,.24705882);stroke:rgba(255,0,0,.24705882);stroke-width:.09525;stroke-miterlimit:41.994751"/><path d="M147.60892 76.247625A.47625 .47625 0 00146.65643 76.247625A.47625 .47625 0 00147.60892 76.247625z" fill="rgba(255,0,0,.24705882)"/><path d="M87.639525 88.1253A.47625 .47625 0 0086.687025 88.1253A.47625 .47625 0 0087.639525 88.1253z" fill="rgba(255,0,0,.24705882)"/><path d="M64.77 88.2396H109.6137V78.7908H64.77z" style="fill:rgba(255,0,0,.24705882);stroke:rgba(255,0,0,.24705882);stroke-width:.09525;stroke-miterlimit:41.994751"/><path d="M87.639525 82.5627A.47625 .47625 0 0086.687025 82.5627A.47625 .47625 0 0087.639525 82.5627z" fill="rgba(255,0,0,.24705882)"/><path d="M143.89418 168.3639H156.18143V83.5914H143.89418z" style="fill:rgba(255,0,0,.24705882);stroke:rgba(255,0,0,.24705882);stroke-width:.09525;stroke-miterlimit:41.994751"/><path d="M154.60028 99.317175A.47625 .47625 0 00153.64778 99.317175A.47625 .47625 0 00154.60028 99.317175z" fill="rgba(255,0,0,.24705882)"/><path d="M64.950975 134.62635H110.5662V89.05875H64.950975z" style="fill:rgba(255,0,0,.24705882);stroke:rgba(255,0,0,.24705882);stroke-width:.09525;stroke-miterlimit:41.994751"/><path d="M87.582375 98.3361A.47625 .47625 0 0086.629875 98.3361A.47625 .47625 0 0087.582375 98.3361z" fill="rgba(255,0,0,.24705882)"/><path d="M188.69025 184.023H238.98225V176.22202H188.69025z" style="fill:rgba(255,0,0,.24705882);stroke:rgba(255,0,0,.24705882);stroke-width:.09525;stroke-miterlimit:41.994751"/><path d="M202.33005 181.80367A.47625 .47625 0 00201.37755 181.80367A.47625 .47625 0 00202.33005 181.80367z" fill="rgba(255,0,0,.24705882)"/><path d="M165.09682 60.33135H176.37443V43.64355H165.09682z" style="fill:rgba(255,0,0,.24705882);stroke:rgba(255,0,0,.24705882);stroke-width:.09525;stroke-miterlimit:41.994751"/><path d="M172.1358 46.929675A.47625 .47625 0 00171.1833 46.929675A.47625 .47625 0 00172.1358 46.929675z" fill="rgba(255,0,0,.24705882)"/><path d="M110.6043 129.7305H143.87512V83.5914H110.6043z" style="fill:rgba(255,0,0,.24705882);stroke:rgba(255,0,0,.24705882);stroke-width:.09525;stroke-miterlimit:41.994751"/><path d="M117.5004 98.383725A.47625 .47625 0 00116.5479 98.383725A.47625 .47625 0 00117.5004 98.383725z" fill="rgba(255,0,0,.24705882)"/><path d="M156.19095 168.2496H185.5851V135.2931H156.19095z" style="fill:rgba(255,0,0,.24705882);stroke:rgba(255,0,0,.24705882);stroke-width:.09525;stroke-miterlimit:41.994751"/><path d="M164.10622 137.87437A.47625 .47625 0 00163.15373 137.87437A.47625 .47625 0 00164.10622 137.87437z" fill="rgba(255,0,0,.24705882)"/><path d="M227.1141 109.63275H238.98225V104.86072H227.1141z" style="fill:rgba(255,0,0,.24705882);stroke:rgba(255,0,0,.24705882);stroke-width:.09525;stroke-miterlimit:41.994751"/><path d="M232.76243 106.93717A.47625 .47625 0 00231.80993 106.93717A.47625 .47625 0 00232.76243 106.93717z" fill="rgba(255,0,0,.24705882)"/><path d="M122.47245 61.331475H130.05435V44.29125H122.47245z" style="fill:rgba(255,0,0,.24705882);stroke:rgba(255,0,0,.24705882);stroke-width:.09525;stroke-miterlimit:41.994751"/><path d="M125.36805 58.31205A.47625 .47625 0 00124.41555 58.31205A.47625 .47625 0 00125.36805 58.31205z" fill="rgba(255,0,0,.24705882)"/><path d="M48.86325 123.15825H64.912875V70.9803H48.86325z" style="fill:rgba(255,0,0,.24705882);stroke:rgba(255,0,0,.24705882);stroke-width:.09525;stroke-miterlimit:41.994751"/><path d="M64.36995 98.574225A.47625 .47625 0 0063.41745 98.574225A.47625 .47625 0 0064.36995 98.574225z" fill="rgba(255,0,0,.24705882)"/><path d="M134.5692 33.880425L135.9408 57.15" style="fill:none;stroke:rgba(255,0,0,.24705882);stroke-width:.09525;stroke-miterlimit:41.994751"/><path d="M171.65955 46.929675L179.6415 47.0916" style="fill:none;stroke:rgba(255,0,0,.24705882);stroke-width:.09525;stroke-miterlimit:41.994751"/><path d="M87.163275 82.5627V88.1253" style="fill:none;stroke:rgba(255,0,0,.24705882);stroke-width:.09525;stroke-miterlimit:41.994751"/><path d="M164.64915 169.164L163.62998 137.87437" style="fill:none;stroke:rgba(255,0,0,.24705882);stroke-width:.09525;stroke-miterlimit:41.994751"/><path d="M231.28605 123.41542L211.23593 104.5464" style="fill:none;stroke:rgba(255,0,0,.24705882);stroke-width:.09525;stroke-miterlimit:41.994751"/><path d="M147.13268 76.247625L147.24698 61.064775" style="fill:none;stroke:rgba(255,0,0,.24705882);stroke-width:.09525;stroke-miterlimit:41.994751"/><path d="M117.02415 98.383725L87.106125 98.3361" style="fill:none;stroke:rgba(255,0,0,.24705882);stroke-width:.09525;stroke-miterlimit:41.994751"/><path d="M135.9408 57.15L124.8918 58.31205" style="fill:none;stroke:rgba(255,0,0,.24705882);stroke-width:.09525;stroke-miterlimit:41.994751"/><path d="M147.24698 61.064775L148.18995 48.32985" style="fill:none;stroke:rgba(255,0,0,.24705882);stroke-width:.09525;stroke-miterlimit:41.994751"/><path d="M87.106125 98.3361L63.8937 98.574225" style="fill:none;stroke:rgba(255,0,0,.24705882);stroke-width:.09525;stroke-miterlimit:41.994751"/><path d="M117.02415 98.383725L154.12403 99.317175" style="fill:none;stroke:rgba(255,0,0,.24705882);stroke-width:.09525;stroke-miterlimit:41.994751"/><path d="M87.106125 98.3361L87.163275 88.1253" style="fill:none;stroke:rgba(255,0,0,.24705882);stroke-width:.09525;stroke-miterlimit:41.994751"/><path d="M173.736 180.0987L181.38457 180.19395" style="fill:none;stroke:rgba(255,0,0,.24705882);stroke-width:.09525;stroke-miterlimit:41.994751"/><path d="M163.35375 97.850325L154.12403 99.317175" style="fill:none;stroke:rgba(255,0,0,.24705882);stroke-width:.09525;stroke-miterlimit:41.994751"/><path d="M16.887825 98.174175L63.8937 98.574225" style="fill:none;stroke:rgba(255,0,0,.24705882);stroke-width:.09525;stroke-miterlimit:41.994751"/><path d="M163.35375 97.850325L163.62998 137.87437" style="fill:none;stroke:rgba(255,0,0,.24705882);stroke-width:.09525;stroke-miterlimit:41.994751"/><path d="M161.1249 61.217175L160.4391 46.23435" style="fill:none;stroke:rgba(255,0,0,.24705882);stroke-width:.09525;stroke-miterlimit:41.994751"/><path d="M161.1249 61.217175L156.25763 61.24575" style="fill:none;stroke:rgba(255,0,0,.24705882);stroke-width:.09525;stroke-miterlimit:41.994751"/><path d="M161.1249 61.217175L160.2105 77.1525" style="fill:none;stroke:rgba(255,0,0,.24705882);stroke-width:.09525;stroke-miterlimit:41.994751"/><path d="M160.4391 46.23435L164.07765 46.42485" style="fill:none;stroke:rgba(255,0,0,.24705882);stroke-width:.09525;stroke-miterlimit:41.994751"/><path d="M160.4391 46.23435L160.1343 41.309925" style="fill:none;stroke:rgba(255,0,0,.24705882);stroke-width:.09525;stroke-miterlimit:41.994751"/><path d="M164.07765 46.42485L171.65955 46.929675" style="fill:none;stroke:rgba(255,0,0,.24705882);stroke-width:.09525;stroke-miterlimit:41.994751"/><path d="M179.6415 47.0916L179.59388 42.9387" style="fill:none;stroke:rgba(255,0,0,.24705882);stroke-width:.09525;stroke-miterlimit:41.994751"/><path d="M164.96348 173.53598L173.67885 173.45025" style="fill:none;stroke:rgba(255,0,0,.24705882);stroke-width:.09525;stroke-miterlimit:41.994751"/><path d="M200.81558 170.60227L201.8538 181.80367" style="fill:none;stroke:rgba(255,0,0,.24705882);stroke-width:.09525;stroke-miterlimit:41.994751"/><path d="M171.65955 46.929675L171.97388 71.2851" style="fill:none;stroke:rgba(255,0,0,.24705882);stroke-width:.09525;stroke-miterlimit:41.994751"/><path d="M160.3248 34.394775L134.5692 33.880425" style="fill:none;stroke:rgba(255,0,0,.24705882);stroke-width:.09525;stroke-miterlimit:41.994751"/><path d="M160.1343 41.309925L160.3248 34.394775" style="fill:none;stroke:rgba(255,0,0,.24705882);stroke-width:.09525;stroke-miterlimit:41.994751"/><path d="M121.3866 33.6042L126.62535 33.823275" style="fill:none;stroke:rgba(255,0,0,.24705882);stroke-width:.09525;stroke-miterlimit:41.994751"/><path d="M126.62535 33.823275L134.5692 33.880425" style="fill:none;stroke:rgba(255,0,0,.24705882);stroke-width:.09525;stroke-miterlimit:41.994751"/><path d="M211.23593 104.5464L232.28618 106.93717" style="fill:none;stroke:rgba(255,0,0,.24705882);stroke-width:.09525;stroke-miterlimit:41.994751"/><path d="M156.25763 61.24575L147.24698 61.064775" style="fill:none;stroke:rgba(255,0,0,.24705882);stroke-width:.09525;stroke-miterlimit:41.994751"/><path d="M17.268825 121.26277L16.887825 98.174175" style="fill:none;stroke:rgba(255,0,0,.24705882);stroke-width:.09525;stroke-miterlimit:41.994751"/><path d="M179.59388 42.9387L173.33595 33.8709" style="fill:none;stroke:rgba(255,0,0,.24705882);stroke-width:.09525;stroke-miterlimit:41.994751"/><path d="M17.268825 121.26277L18.0975 153.543" style="fill:none;stroke:rgba(255,0,0,.24705882);stroke-width:.09525;stroke-miterlimit:41.994751"/><path d="M61.998225 11.953875L52.29225 27.441525" style="fill:none;stroke:rgba(255,0,0,.24705882);stroke-width:.09525;stroke-miterlimit:41.994751"/><path d="M48.768 20.82165H64.379475V1.0668H48.768z" style="fill:rgba(255,0,0,.24705882);stroke:rgba(255,0,0,.24705882);stroke-width:.09525;stroke-miterlimit:41.994751"/><path d="M62.474475 11.953875A.47625 .47625 0 0061.521975 11.953875A.47625 .47625 0 0062.474475 11.953875z" fill="rgba(255,0,0,.24705882)"/><path d="M211.23593 104.5464L212.31225 131.42595" style="fill:none;stroke:rgba(255,0,0,.24705882);stroke-width:.09525;stroke-miterlimit:41.994751"/><path d="M231.28605 123.41542L212.31225 131.42595" style="fill:none;stroke:rgba(255,0,0,.24705882);stroke-width:.09525;stroke-miterlimit:41.994751"/><path d="M174.1551 173.45025A.47625 .47625 0 00173.2026 173.45025A.47625 .47625 0 00174.1551 173.45025z" fill="rgba(255,0,0,.24705882)"/><path d="M81.200625 11.71575L61.998225 11.953875" style="fill:none;stroke:rgba(255,0,0,.24705882);stroke-width:.09525;stroke-miterlimit:41.994751"/><path d="M188.79503 135.57885H227.00933V112.2807H188.79503z" style="fill:rgba(255,0,0,.24705882);stroke:rgba(255,0,0,.24705882);stroke-width:.09525;stroke-miterlimit:41.994751"/><path d="M212.7885 131.42595A.47625 .47625 0 00211.836 131.42595A.47625 .47625 0 00212.7885 131.42595z" fill="rgba(255,0,0,.24705882)"/><path d="M212.93138 148.29472L200.81558 170.60227" style="fill:none;stroke:rgba(250,0,0,.24705882);stroke-width:.09525;stroke-miterlimit:41.994751"/><path d="M112.97603 6.962775L118.0338 21.0693" style="fill:none;stroke:rgba(250,0,0,.24705882);stroke-width:.09525;stroke-miterlimit:41.994751"/><path d="M212.31225 131.42595L212.93138 148.29472" style="fill:none;stroke:rgba(250,0,0,.24705882);stroke-width:.09525;stroke-miterlimit:41.994751"/><path d="M64.7319 17.478375H82.191225V.28575H64.7319z" style="fill:rgba(250,0,0,.24705882);stroke:rgba(250,0,0,.24705882);stroke-width:.09525;stroke-miterlimit:41.994751"/><path d="M81.676875 11.71575A.47625 .47625 0 0080.724375 11.71575A.47625 .47625 0 0081.676875 11.71575z" fill="rgba(250,0,0,.24705882)"/><path d="M188.75693 21.336L187.34723 4.619625" style="fill:none;stroke:rgba(250,0,0,.24705882);stroke-width:.09525;stroke-miterlimit:41.994751"/><path d="M189.32842 161.87737H238.98225V135.92175H189.32842z" style="fill:rgba(250,0,4,.24705882);stroke:rgba(250,0,4,.24705882);stroke-width:.09525;stroke-miterlimit:41.994751"/><path d="M213.40762 148.29472A.47625 .47625 0 00212.45513 148.29472A.47625 .47625 0 00213.40762 148.29472z" fill="rgba(250,0,4,.24705882)"/><path d="M52.29225 27.441525L55.940325 57.311925" style="fill:none;stroke:rgba(250,0,4,.24705882);stroke-width:.09525;stroke-miterlimit:41.994751"/><path d="M126.62535 33.823275L127.1016 42.700575" style="fill:none;stroke:rgba(250,0,4,.24705882);stroke-width:.09525;stroke-miterlimit:41.994751"/><path d="M112.97603 6.962775L81.200625 11.71575" style="fill:none;stroke:rgba(250,0,4,.24705882);stroke-width:.09525;stroke-miterlimit:41.994751"/><path d="M150.67597 20.793075L149.39963 3.686175" style="fill:none;stroke:rgba(250,0,4,.24705882);stroke-width:.09525;stroke-miterlimit:41.994751"/><path d="M82.362675 17.516475H119.253V.28575H82.362675z" style="fill:rgba(250,0,4,.24705882);stroke:rgba(250,0,4,.24705882);stroke-width:.09525;stroke-miterlimit:41.994751"/><path d="M113.45228 6.962775A.47625 .47625 0 00112.49978 6.962775A.47625 .47625 0 00113.45228 6.962775z" fill="rgba(250,0,4,.24705882)"/><path d="M152.4381 17.554575H191.77635V.32385H152.4381z" style="fill:rgba(250,0,4,.24705882);stroke:rgba(250,0,4,.24705882);stroke-width:.09525;stroke-miterlimit:41.994751"/><path d="M187.82348 4.619625A.47625 .47625 0 00186.87098 4.619625A.47625 .47625 0 00187.82348 4.619625z" fill="rgba(250,0,4,.24705882)"/><path d="M149.39963 3.686175L112.97603 6.962775" style="fill:none;stroke:rgba(250,0,4,.24705882);stroke-width:.09525;stroke-miterlimit:41.994751"/><path d="M48.9585 61.74105H63.246V52.301775H48.9585z" style="fill:rgba(250,0,4,.24705882);stroke:rgba(250,0,4,.24705882);stroke-width:.09525;stroke-miterlimit:41.994751"/><path d="M56.416575 57.311925A.47625 .47625 0 0055.464075 57.311925A.47625 .47625 0 0056.416575 57.311925z" fill="rgba(250,0,4,.24705882)"/><path d="M127.57785 42.700575A.47625 .47625 0 00126.62535 42.700575A.47625 .47625 0 00127.57785 42.700575z" fill="rgba(250,0,4,.24705882)"/><path d="M187.34723 4.619625L149.39963 3.686175" style="fill:none;stroke:rgba(250,0,4,.24705882);stroke-width:.09525;stroke-miterlimit:41.994751"/><path d="M119.3292 17.526H152.19998V.390525H119.3292z" style="fill:rgba(246,0,4,.24705882);stroke:rgba(246,0,4,.24705882);stroke-width:.09525;stroke-miterlimit:41.994751"/><path d="M149.87588 3.686175A.47625 .47625 0 00148.92338 3.686175A.47625 .47625 0 00149.87588 3.686175z" fill="rgba(246,0,4,.24705882)"/><path d="M87.1347 75.295125L87.163275 82.5627" style="fill:none;stroke:rgba(246,0,4,.24705882);stroke-width:.09525;stroke-miterlimit:41.994751"/><path d="M173.67885 173.45025L177.26977 173.48835" style="fill:none;stroke:rgba(242,0,12,.24705882);stroke-width:.09525;stroke-miterlimit:41.994751"/><path d="M80.419575 78.705075H94.20225V72.742425H80.419575z" style="fill:rgba(242,0,12,.24705882);stroke:rgba(242,0,12,.24705882);stroke-width:.09525;stroke-miterlimit:41.994751"/><path d="M87.61095 75.295125A.47625 .47625 0 0086.65845 75.295125A.47625 .47625 0 0087.61095 75.295125z" fill="rgba(242,0,12,.24705882)"/><path d="M87.2871 71.256525L87.1347 75.295125" style="fill:none;stroke:rgba(238,0,16,.24705882);stroke-width:.09525;stroke-miterlimit:41.994751"/><path d="M127.1016 42.700575L127.0635 51.349275" style="fill:none;stroke:rgba(234,0,20,.24705882);stroke-width:.09525;stroke-miterlimit:41.994751"/><path d="M84.22005 69.8373H90.01125V44.48175H84.22005z" style="fill:rgba(234,0,20,.24705882);stroke:rgba(234,0,20,.24705882);stroke-width:.09525;stroke-miterlimit:41.994751"/><path d="M87.42045 47.244A.47625 .47625 0 0086.46795 47.244A.47625 .47625 0 0087.42045 47.244z" fill="rgba(234,0,20,.24705882)"/><path d="M79.248 50.57775H84.18195V44.491275H79.248z" style="fill:rgba(234,0,20,.24705882);stroke:rgba(234,0,20,.24705882);stroke-width:.09525;stroke-miterlimit:41.994751"/><path d="M82.248375 47.5488A.47625 .47625 0 0081.295875 47.5488A.47625 .47625 0 0082.248375 47.5488z" fill="rgba(234,0,20,.24705882)"/><path d="M64.8462 71.027925H82.42935V52.5018H64.8462z" style="fill:rgba(234,0,20,.24705882);stroke:rgba(234,0,20,.24705882);stroke-width:.09525;stroke-miterlimit:41.994751"/><path d="M72.9996 62.017275A.47625 .47625 0 0072.0471 62.017275A.47625 .47625 0 0072.9996 62.017275z" fill="rgba(234,0,20,.24705882)"/><path d="M84.381975 42.95775H90.2589V34.109025H84.381975z" style="fill:rgba(234,0,20,.24705882);stroke:rgba(234,0,20,.24705882);stroke-width:.09525;stroke-miterlimit:41.994751"/><path d="M87.068025 40.4622A.47625 .47625 0 0086.115525 40.4622A.47625 .47625 0 0087.068025 40.4622z" fill="rgba(234,0,20,.24705882)"/><path d="M81.067275 34.089975H90.20175V26.26995H81.067275z" style="fill:rgba(234,0,20,.24705882);stroke:rgba(234,0,20,.24705882);stroke-width:.09525;stroke-miterlimit:41.994751"/><path d="M87.144225 29.2608A.47625 .47625 0 0086.191725 29.2608A.47625 .47625 0 0087.144225 29.2608z" fill="rgba(234,0,20,.24705882)"/><path d="" style="fill:rgba(234,0,20,.24705882);stroke:rgba(234,0,20,.24705882);stroke-width:.09525;stroke-miterlimit:41.994751"/><path d="M92.06865 29.289375A.47625 .47625 0 0091.11615 29.289375A.47625 .47625 0 0092.06865 29.289375z" fill="rgba(234,0,20,.24705882)"/><path d="M91.6305 47.615475A.47625 .47625 0 0090.678 47.615475A.47625 .47625 0 0091.6305 47.615475z" fill="rgba(234,0,20,.24705882)"/><path d="M80.743425 51.273075A.47625 .47625 0 0079.790925 51.273075A.47625 .47625 0 0080.743425 51.273075z" fill="rgba(234,0,20,.24705882)"/><path d="M87.76335 71.256525A.47625 .47625 0 0086.81085 71.256525A.47625 .47625 0 0087.76335 71.256525z" fill="rgba(234,0,20,.24705882)"/><path d="M91.821 71.1327H109.71847V49.09185H91.821z" style="fill:rgba(234,0,20,.24705882);stroke:rgba(234,0,20,.24705882);stroke-width:.09525;stroke-miterlimit:41.994751"/><path d="M100.66972 62.12205A.47625 .47625 0 0099.717225 62.12205A.47625 .47625 0 00100.66972 62.12205z" fill="rgba(234,0,20,.24705882)"/><path d="M91.849575 48.929925H102.09848V44.796075H91.849575z" style="fill:rgba(234,0,20,.24705882);stroke:rgba(234,0,20,.24705882);stroke-width:.09525;stroke-miterlimit:41.994751"/><path d="M100.6983 47.444025A.47625 .47625 0 0099.7458 47.444025A.47625 .47625 0 00100.6983 47.444025z" fill="rgba(234,0,20,.24705882)"/><path d="M73.218675 50.530125H79.22895V39.49065H73.218675z" style="fill:rgba(234,0,20,.24705882);stroke:rgba(234,0,20,.24705882);stroke-width:.09525;stroke-miterlimit:41.994751"/><path d="M76.723875 47.5107A.47625 .47625 0 0075.771375 47.5107A.47625 .47625 0 0076.723875 47.5107z" fill="rgba(234,0,20,.24705882)"/><path d="M73.1901 39.481125H79.19085V26.222325H73.1901z" style="fill:rgba(234,0,20,.24705882);stroke:rgba(234,0,20,.24705882);stroke-width:.09525;stroke-miterlimit:41.994751"/><path d="M76.609575 29.422725A.47625 .47625 0 0075.657075 29.422725A.47625 .47625 0 0076.609575 29.422725z" fill="rgba(234,0,20,.24705882)"/><path d="M102.108 48.948975H109.728V44.78655H102.108z" style="fill:rgba(234,0,20,.24705882);stroke:rgba(234,0,20,.24705882);stroke-width:.09525;stroke-miterlimit:41.994751"/><path d="M106.16565 47.177325A.47625 .47625 0 00105.21315 47.177325A.47625 .47625 0 00106.16565 47.177325z" fill="rgba(234,0,20,.24705882)"/><path d="M106.44187 44.281725A.47625 .47625 0 00105.48938 44.281725A.47625 .47625 0 00106.44187 44.281725z" fill="rgba(234,0,20,.24705882)"/><path d="M100.84117 42.91965H109.69942V26.2128H100.84117z" style="fill:rgba(234,0,20,.24705882);stroke:rgba(234,0,20,.24705882);stroke-width:.09525;stroke-miterlimit:41.994751"/><path d="M106.3371 36.4998A.47625 .47625 0 00105.3846 36.4998A.47625 .47625 0 00106.3371 36.4998z" fill="rgba(234,0,20,.24705882)"/><path d="M177.74602 173.48835A.47625 .47625 0 00176.79352 173.48835A.47625 .47625 0 00177.74602 173.48835z" fill="rgba(234,0,20,.24705882)"/><path d="M71.76135 29.079825A.47625 .47625 0 0070.80885 29.079825A.47625 .47625 0 0071.76135 29.079825z" fill="rgba(234,0,20,.24705882)"/><path d="M91.8972 42.814875H100.80307V26.26995H91.8972z" style="fill:rgba(234,0,20,.24705882);stroke:rgba(234,0,20,.24705882);stroke-width:.09525;stroke-miterlimit:41.994751"/><path d="M98.1456 28.1559A.47625 .47625 0 0097.1931 28.1559A.47625 .47625 0 0098.1456 28.1559z" fill="rgba(234,0,20,.24705882)"/><path d="M91.5924 29.289375L97.66935 28.1559" style="fill:none;stroke:rgba(234,0,20,.24705882);stroke-width:.09525;stroke-miterlimit:41.994751"/><path d="M80.267175 51.273075L72.52335 62.017275" style="fill:none;stroke:rgba(234,0,20,.24705882);stroke-width:.09525;stroke-miterlimit:41.994751"/><path d="M105.96563 44.281725L105.86085 36.4998" style="fill:none;stroke:rgba(234,0,20,.24705882);stroke-width:.09525;stroke-miterlimit:41.994751"/><path d="M76.247625 47.5107L76.133325 29.422725" style="fill:none;stroke:rgba(234,0,20,.24705882);stroke-width:.09525;stroke-miterlimit:41.994751"/><path d="M100.22205 47.444025L100.19348 62.12205" style="fill:none;stroke:rgba(234,0,20,.24705882);stroke-width:.09525;stroke-miterlimit:41.994751"/><path d="M81.772125 47.5488L76.247625 47.5107" style="fill:none;stroke:rgba(234,0,20,.24705882);stroke-width:.09525;stroke-miterlimit:41.994751"/><path d="M81.772125 47.5488L80.267175 51.273075" style="fill:none;stroke:rgba(234,0,20,.24705882);stroke-width:.09525;stroke-miterlimit:41.994751"/><path d="M100.22205 47.444025L105.6894 47.177325" style="fill:none;stroke:rgba(234,0,20,.24705882);stroke-width:.09525;stroke-miterlimit:41.994751"/><path d="M76.133325 29.422725L71.2851 29.079825" style="fill:none;stroke:rgba(234,0,20,.24705882);stroke-width:.09525;stroke-miterlimit:41.994751"/><path d="M91.5924 29.289375L86.667975 29.2608" style="fill:none;stroke:rgba(234,0,20,.24705882);stroke-width:.09525;stroke-miterlimit:41.994751"/><path d="M86.9442 47.244L91.15425 47.615475" style="fill:none;stroke:rgba(234,0,20,.24705882);stroke-width:.09525;stroke-miterlimit:41.994751"/><path d="M86.9442 47.244L81.772125 47.5488" style="fill:none;stroke:rgba(234,0,20,.24705882);stroke-width:.09525;stroke-miterlimit:41.994751"/><path d="M86.9442 47.244L87.2871 71.256525" style="fill:none;stroke:rgba(234,0,20,.24705882);stroke-width:.09525;stroke-miterlimit:41.994751"/><path d="M105.6894 47.177325L105.96563 44.281725" style="fill:none;stroke:rgba(234,0,20,.24705882);stroke-width:.09525;stroke-miterlimit:41.994751"/><path d="M91.15425 47.615475L100.22205 47.444025" style="fill:none;stroke:rgba(234,0,20,.24705882);stroke-width:.09525;stroke-miterlimit:41.994751"/><path d="M86.667975 29.2608L86.591775 40.4622" style="fill:none;stroke:rgba(234,0,20,.24705882);stroke-width:.09525;stroke-miterlimit:41.994751"/><path d="M105.86085 36.4998L97.66935 28.1559" style="fill:none;stroke:rgba(234,0,20,.24705882);stroke-width:.09525;stroke-miterlimit:41.994751"/><path d="M71.2851 29.079825L67.7799 29.022675" style="fill:none;stroke:rgba(230,0,24,.24705882);stroke-width:.09525;stroke-miterlimit:41.994751"/><path d="M232.1814 97.05975L232.28618 106.93717" style="fill:none;stroke:rgba(230,0,24,.24705882);stroke-width:.09525;stroke-miterlimit:41.994751"/><path d="M64.836675 31.48965H70.513575V26.546175H64.836675z" style="fill:rgba(226,0,24,.24705882);stroke:rgba(226,0,24,.24705882);stroke-width:.09525;stroke-miterlimit:41.994751"/><path d="M68.25615 29.022675A.47625 .47625 0 0067.30365 29.022675A.47625 .47625 0 0068.25615 29.022675z" fill="rgba(226,0,24,.24705882)"/><path d="M177.26977 173.48835L179.4891 173.56455" style="fill:none;stroke:rgba(226,0,28,.24705882);stroke-width:.09525;stroke-miterlimit:41.994751"/><path d="M127.53975 51.349275A.47625 .47625 0 00126.58725 51.349275A.47625 .47625 0 00127.53975 51.349275z" fill="rgba(222,0,32,.24705882)"/><path d="M179.96535 173.56455A.47625 .47625 0 00179.01285 173.56455A.47625 .47625 0 00179.96535 173.56455z" fill="rgba(218,0,36,.24705882)"/><path d="M204.77798 181.9275L200.81558 170.60227" style="fill:none;stroke:rgba(218,0,36,.24705882);stroke-width:.09525;stroke-miterlimit:41.994751"/><path d="M236.5629 122.66295L212.31225 131.42595" style="fill:none;stroke:rgba(218,0,36,.24705882);stroke-width:.09525;stroke-miterlimit:41.994751"/><path d="M127.0635 51.349275L126.73013 59.064525" style="fill:none;stroke:rgba(218,0,36,.24705882);stroke-width:.09525;stroke-miterlimit:41.994751"/><path d="M236.7153 145.02765L212.93138 148.29472" style="fill:none;stroke:rgba(214,0,36,.24705882);stroke-width:.09525;stroke-miterlimit:41.994751"/><path d="M133.68338 61.81725H140.56995V54.4068H133.68338z" style="fill:rgba(210,0,40,.24705882);stroke:rgba(210,0,40,.24705882);stroke-width:.09525;stroke-miterlimit:41.994751"/><path d="M136.98855 58.245375A.47625 .47625 0 00136.03605 58.245375A.47625 .47625 0 00136.98855 58.245375z" fill="rgba(210,0,40,.24705882)"/><path d="M122.54865 61.788675H133.58813V54.34965H122.54865z" style="fill:rgba(210,0,40,.24705882);stroke:rgba(210,0,40,.24705882);stroke-width:.09525;stroke-miterlimit:41.994751"/><path d="M127.20637 59.064525A.47625 .47625 0 00126.25388 59.064525A.47625 .47625 0 00127.20637 59.064525z" fill="rgba(210,0,40,.24705882)"/><path d="M126.73013 59.064525L136.5123 58.245375" style="fill:none;stroke:rgba(210,0,40,.24705882);stroke-width:.09525;stroke-miterlimit:41.994751"/><path d="M67.7799 29.022675L67.922775 38.88105" style="fill:none;stroke:rgba(210,0,40,.24705882);stroke-width:.09525;stroke-miterlimit:41.994751"/><path d="M179.4891 173.56455L184.85168 173.4693" style="fill:none;stroke:rgba(210,0,44,.24705882);stroke-width:.09525;stroke-miterlimit:41.994751"/><path d="M136.5123 58.245375L136.54087 53.9877" style="fill:none;stroke:rgba(210,0,44,.24705882);stroke-width:.09525;stroke-miterlimit:41.994751"/><path d="M137.01712 53.9877A.47625 .47625 0 00136.06463 53.9877A.47625 .47625 0 00137.01712 53.9877z" fill="rgba(206,0,44,.24705882)"/><path d="M182.59425 175.69815H187.12815V171.1833H182.59425z" style="fill:rgba(202,0,48,.24705882);stroke:rgba(202,0,48,.24705882);stroke-width:.09525;stroke-miterlimit:41.994751"/><path d="M185.32792 173.4693A.47625 .47625 0 00184.37543 173.4693A.47625 .47625 0 00185.32792 173.4693z" fill="rgba(202,0,48,.24705882)"/><path d="M232.65765 97.05975A.47625 .47625 0 00231.70515 97.05975A.47625 .47625 0 00232.65765 97.05975z" fill="rgba(202,0,48,.24705882)"/><path d="M184.85168 173.4693L184.8612 176.0601" style="fill:none;stroke:rgba(198,0,52,.24705882);stroke-width:.09525;stroke-miterlimit:41.994751"/><path d="M136.54087 53.9877L136.78852 47.9679" style="fill:none;stroke:rgba(198,0,56,.24705882);stroke-width:.09525;stroke-miterlimit:41.994751"/><path d="M18.0975 153.543L28.4226 163.54425" style="fill:none;stroke:rgba(198,0,56,.24705882);stroke-width:.09525;stroke-miterlimit:41.994751"/><path d="M185.33745 176.0601A.47625 .47625 0 00184.38495 176.0601A.47625 .47625 0 00185.33745 176.0601z" fill="rgba(198,0,56,.24705882)"/><path d="M68.399025 38.88105A.47625 .47625 0 0067.446525 38.88105A.47625 .47625 0 0068.399025 38.88105z" fill="rgba(194,0,56,.24705882)"/><path d="M184.8612 176.0601L184.80405 177.33645" style="fill:none;stroke:rgba(194,0,60,.24705882);stroke-width:.09525;stroke-miterlimit:41.994751"/><path d="M232.19092 92.535375L232.1814 97.05975" style="fill:none;stroke:rgba(194,0,60,.24705882);stroke-width:.09525;stroke-miterlimit:41.994751"/><path d="M185.2803 177.33645A.47625 .47625 0 00184.3278 177.33645A.47625 .47625 0 00185.2803 177.33645z" fill="rgba(190,0,64,.24705882)"/><path d="M28.241625 127.7493L17.268825 121.26277" style="fill:none;stroke:rgba(190,0,64,.24705882);stroke-width:.09525;stroke-miterlimit:41.994751"/><path d="M137.26477 47.9679A.47625 .47625 0 00136.31227 47.9679A.47625 .47625 0 00137.26477 47.9679z" fill="rgba(190,0,64,.24705882)"/><path d="M184.80405 177.33645L184.91835 181.60365" style="fill:none;stroke:rgba(186,0,68,.24705882);stroke-width:.09525;stroke-miterlimit:41.994751"/><path d="M67.922775 38.88105L68.113275 44.55795" style="fill:none;stroke:rgba(186,0,68,.24705882);stroke-width:.09525;stroke-miterlimit:41.994751"/><path d="M28.260675 100.4316L16.887825 98.174175" style="fill:none;stroke:rgba(182,0,68,.24705882);stroke-width:.09525;stroke-miterlimit:41.994751"/><path d="M47.75835 101.16502L63.8937 98.574225" style="fill:none;stroke:rgba(182,0,68,.24705882);stroke-width:.09525;stroke-miterlimit:41.994751"/><path d="M136.78852 47.9679L136.8933 43.33875" style="fill:none;stroke:rgba(182,0,72,.24705882);stroke-width:.09525;stroke-miterlimit:41.994751"/><path d="M234.60075 100.89832H238.98225V92.440125H234.60075z" style="fill:rgba(182,0,72,.24705882);stroke:rgba(182,0,72,.24705882);stroke-width:.09525;stroke-miterlimit:41.994751"/><path d="M237.37252 99.9363A.47625 .47625 0 00236.42003 99.9363A.47625 .47625 0 00237.37252 99.9363z" fill="rgba(182,0,72,.24705882)"/><path d="M182.66093 183.97537H187.13768V179.80343H182.66093z" style="fill:rgba(182,0,72,.24705882);stroke:rgba(182,0,72,.24705882);stroke-width:.09525;stroke-miterlimit:41.994751"/><path d="M185.3946 181.60365A.47625 .47625 0 00184.4421 181.60365A.47625 .47625 0 00185.3946 181.60365z" fill="rgba(182,0,72,.24705882)"/><path d="M234.2007 92.4306H238.94415V88.153875H234.2007z" style="fill:rgba(182,0,72,.24705882);stroke:rgba(182,0,72,.24705882);stroke-width:.09525;stroke-miterlimit:41.994751"/><path d="M237.23917 90.249375A.47625 .47625 0 00236.28668 90.249375A.47625 .47625 0 00237.23917 90.249375z" fill="rgba(182,0,72,.24705882)"/><path d="M232.66717 92.535375A.47625 .47625 0 00231.71467 92.535375A.47625 .47625 0 00232.66717 92.535375z" fill="rgba(182,0,72,.24705882)"/><path d="M188.49975 181.84177A.47625 .47625 0 00187.54725 181.84177A.47625 .47625 0 00188.49975 181.84177z" fill="rgba(182,0,72,.24705882)"/><path d="M234.64837 123.70117H238.87748V100.97452H234.64837z" style="fill:rgba(182,0,72,.24705882);stroke:rgba(182,0,72,.24705882);stroke-width:.09525;stroke-miterlimit:41.994751"/><path d="M237.03915 122.66295A.47625 .47625 0 00236.08665 122.66295A.47625 .47625 0 00237.03915 122.66295z" fill="rgba(182,0,72,.24705882)"/><path d="M234.52455 183.86107H238.83938V145.68487H234.52455z" style="fill:rgba(182,0,72,.24705882);stroke:rgba(182,0,72,.24705882);stroke-width:.09525;stroke-miterlimit:41.994751"/><path d="M237.37252 181.71795A.47625 .47625 0 00236.42003 181.71795A.47625 .47625 0 00237.37252 181.71795z" fill="rgba(182,0,72,.24705882)"/><path d="M230.06685 92.173425H234.19117V88.1253H230.06685z" style="fill:rgba(182,0,72,.24705882);stroke:rgba(182,0,72,.24705882);stroke-width:.09525;stroke-miterlimit:41.994751"/><path d="M232.68623 90.363675A.47625 .47625 0 00231.73373 90.363675A.47625 .47625 0 00232.68623 90.363675z" fill="rgba(182,0,72,.24705882)"/><path d="M234.64837 145.59915H238.8489V123.80595H234.64837z" style="fill:rgba(182,0,72,.24705882);stroke:rgba(182,0,72,.24705882);stroke-width:.09525;stroke-miterlimit:41.994751"/><path d="M237.19155 145.02765A.47625 .47625 0 00236.23905 145.02765A.47625 .47625 0 00237.19155 145.02765z" fill="rgba(182,0,72,.24705882)"/><path d="M188.71882 183.88965H234.41977V179.58435H188.71882z" style="fill:rgba(182,0,72,.24705882);stroke:rgba(182,0,72,.24705882);stroke-width:.09525;stroke-miterlimit:41.994751"/><path d="M205.25423 181.9275A.47625 .47625 0 00204.30173 181.9275A.47625 .47625 0 00205.25423 181.9275z" fill="rgba(182,0,72,.24705882)"/><path d="M184.91835 181.60365L188.0235 181.84177" style="fill:none;stroke:rgba(182,0,72,.24705882);stroke-width:.09525;stroke-miterlimit:41.994751"/><path d="M236.89628 99.9363L236.76292 90.249375" style="fill:none;stroke:rgba(182,0,72,.24705882);stroke-width:.09525;stroke-miterlimit:41.994751"/><path d="M232.20998 90.363675L232.19092 92.535375" style="fill:none;stroke:rgba(182,0,72,.24705882);stroke-width:.09525;stroke-miterlimit:41.994751"/><path d="M236.7153 145.02765L236.5629 122.66295" style="fill:none;stroke:rgba(182,0,72,.24705882);stroke-width:.09525;stroke-miterlimit:41.994751"/><path d="M236.76292 90.249375L232.20998 90.363675" style="fill:none;stroke:rgba(182,0,72,.24705882);stroke-width:.09525;stroke-miterlimit:41.994751"/><path d="M204.77798 181.9275L236.89628 181.71795" style="fill:none;stroke:rgba(182,0,72,.24705882);stroke-width:.09525;stroke-miterlimit:41.994751"/><path d="M236.5629 122.66295L236.89628 99.9363" style="fill:none;stroke:rgba(182,0,72,.24705882);stroke-width:.09525;stroke-miterlimit:41.994751"/><path d="M188.0235 181.84177L204.77798 181.9275" style="fill:none;stroke:rgba(182,0,72,.24705882);stroke-width:.09525;stroke-miterlimit:41.994751"/><path d="M236.89628 181.71795L236.7153 145.02765" style="fill:none;stroke:rgba(182,0,72,.24705882);stroke-width:.09525;stroke-miterlimit:41.994751"/><path d="M137.36955 43.33875A.47625 .47625 0 00136.41705 43.33875A.47625 .47625 0 00137.36955 43.33875z" fill="rgba(174,0,76,.24705882)"/><path d="M136.8933 43.33875L136.94092 28.794075" style="fill:none;stroke:rgba(174,0,76,.24705882);stroke-width:.09525;stroke-miterlimit:41.994751"/><path d="M122.39625 41.824275H133.35V25.7175H122.39625z" style="fill:rgba(174,0,76,.24705882);stroke:rgba(174,0,76,.24705882);stroke-width:.09525;stroke-miterlimit:41.994751"/><path d="M127.14923 29.403675A.47625 .47625 0 00126.19673 29.403675A.47625 .47625 0 00127.14923 29.403675z" fill="rgba(174,0,76,.24705882)"/><path d="M160.9725 78.04785H177.4317V56.1975H160.9725z" style="fill:rgba(174,0,76,.24705882);stroke:rgba(174,0,76,.24705882);stroke-width:.09525;stroke-miterlimit:41.994751"/><path d="M162.97275 64.44615A.47625 .47625 0 00162.02025 64.44615A.47625 .47625 0 00162.97275 64.44615z" fill="rgba(174,0,76,.24705882)"/><path d="M141.43672 33.909H178.41277V25.85085H141.43672z" style="fill:rgba(174,0,76,.24705882);stroke:rgba(174,0,76,.24705882);stroke-width:.09525;stroke-miterlimit:41.994751"/><path d="M156.45765 28.679775A.47625 .47625 0 00155.50515 28.679775A.47625 .47625 0 00156.45765 28.679775z" fill="rgba(174,0,76,.24705882)"/><path d="M160.87725 53.51145H184.11825V35.194875H160.87725z" style="fill:rgba(174,0,76,.24705882);stroke:rgba(174,0,76,.24705882);stroke-width:.09525;stroke-miterlimit:41.994751"/><path d="M181.52745 45.158025A.47625 .47625 0 00180.57495 45.158025A.47625 .47625 0 00181.52745 45.158025z" fill="rgba(174,0,76,.24705882)"/><path d="M178.43183 33.861375H183.88965V25.860375H178.43183z" style="fill:rgba(174,0,76,.24705882);stroke:rgba(174,0,76,.24705882);stroke-width:.09525;stroke-miterlimit:41.994751"/><path d="M181.6227 28.546425A.47625 .47625 0 00180.6702 28.546425A.47625 .47625 0 00181.6227 28.546425z" fill="rgba(174,0,76,.24705882)"/><path d="M181.56555 54.864A.47625 .47625 0 00180.61305 54.864A.47625 .47625 0 00181.56555 54.864z" fill="rgba(174,0,76,.24705882)"/><path d="M177.2793 68.8467H184.11825V55.845075H177.2793z" style="fill:rgba(174,0,76,.24705882);stroke:rgba(174,0,76,.24705882);stroke-width:.09525;stroke-miterlimit:41.994751"/><path d="M181.49887 59.4741A.47625 .47625 0 00180.54638 59.4741A.47625 .47625 0 00181.49887 59.4741z" fill="rgba(174,0,76,.24705882)"/><path d="M133.43572 41.957625H141.22717V26.2509H133.43572z" style="fill:rgba(174,0,76,.24705882);stroke:rgba(174,0,76,.24705882);stroke-width:.09525;stroke-miterlimit:41.994751"/><path d="M137.41717 28.794075A.47625 .47625 0 00136.46467 28.794075A.47625 .47625 0 00137.41717 28.794075z" fill="rgba(174,0,76,.24705882)"/><path d="M141.44625 54.359175H147.81848V35.918775H141.44625z" style="fill:rgba(174,0,76,.24705882);stroke:rgba(174,0,76,.24705882);stroke-width:.09525;stroke-miterlimit:41.994751"/><path d="M145.81822 52.93995A.47625 .47625 0 00144.86572 52.93995A.47625 .47625 0 00145.81822 52.93995z" fill="rgba(174,0,76,.24705882)"/><path d="M136.15035 78.50505H150.77123V56.397525H136.15035z" style="fill:rgba(174,0,76,.24705882);stroke:rgba(174,0,76,.24705882);stroke-width:.09525;stroke-miterlimit:41.994751"/><path d="M144.52283 68.37045A.47625 .47625 0 00143.57033 68.37045A.47625 .47625 0 00144.52283 68.37045z" fill="rgba(174,0,76,.24705882)"/><path d="M151.0284 78.571725H159.30562V56.1975H151.0284z" style="fill:rgba(174,0,76,.24705882);stroke:rgba(174,0,76,.24705882);stroke-width:.09525;stroke-miterlimit:41.994751"/><path d="M158.16262 66.6369A.47625 .47625 0 00157.21013 66.6369A.47625 .47625 0 00158.16262 66.6369z" fill="rgba(174,0,76,.24705882)"/><path d="M156.61957 34.3662A.47625 .47625 0 00155.66708 34.3662A.47625 .47625 0 00156.61957 34.3662z" fill="rgba(174,0,76,.24705882)"/><path d="M181.64175 34.280475A.47625 .47625 0 00180.68925 34.280475A.47625 .47625 0 00181.64175 34.280475z" fill="rgba(174,0,76,.24705882)"/><path d="M148.08517 54.435375H157.48635V35.814H148.08517z" style="fill:rgba(174,0,76,.24705882);stroke:rgba(174,0,76,.24705882);stroke-width:.09525;stroke-miterlimit:41.994751"/><path d="M153.79065 49.577625A.47625 .47625 0 00152.83815 49.577625A.47625 .47625 0 00153.79065 49.577625z" fill="rgba(174,0,76,.24705882)"/><path d="M156.14333 34.3662L153.3144 49.577625" style="fill:none;stroke:rgba(174,0,76,.24705882);stroke-width:.09525;stroke-miterlimit:41.994751"/><path d="M144.04658 68.37045L157.68637 66.6369" style="fill:none;stroke:rgba(174,0,76,.24705882);stroke-width:.09525;stroke-miterlimit:41.994751"/><path d="M136.94092 28.794075L126.67298 29.403675" style="fill:none;stroke:rgba(174,0,76,.24705882);stroke-width:.09525;stroke-miterlimit:41.994751"/><path d="M136.94092 28.794075L155.9814 28.679775" style="fill:none;stroke:rgba(174,0,76,.24705882);stroke-width:.09525;stroke-miterlimit:41.994751"/><path d="M181.14645 28.546425L181.1655 34.280475" style="fill:none;stroke:rgba(174,0,76,.24705882);stroke-width:.09525;stroke-miterlimit:41.994751"/><path d="M155.9814 28.679775L181.14645 28.546425" style="fill:none;stroke:rgba(174,0,76,.24705882);stroke-width:.09525;stroke-miterlimit:41.994751"/><path d="M155.9814 28.679775L156.14333 34.3662" style="fill:none;stroke:rgba(174,0,76,.24705882);stroke-width:.09525;stroke-miterlimit:41.994751"/><path d="M153.3144 49.577625L145.34197 52.93995" style="fill:none;stroke:rgba(174,0,76,.24705882);stroke-width:.09525;stroke-miterlimit:41.994751"/><path d="M181.02263 59.4741L162.4965 64.44615" style="fill:none;stroke:rgba(174,0,76,.24705882);stroke-width:.09525;stroke-miterlimit:41.994751"/><path d="M181.0512 45.158025L181.0893 54.864" style="fill:none;stroke:rgba(174,0,76,.24705882);stroke-width:.09525;stroke-miterlimit:41.994751"/><path d="M145.34197 52.93995L144.04658 68.37045" style="fill:none;stroke:rgba(174,0,76,.24705882);stroke-width:.09525;stroke-miterlimit:41.994751"/><path d="M181.0893 54.864L181.02263 59.4741" style="fill:none;stroke:rgba(174,0,76,.24705882);stroke-width:.09525;stroke-miterlimit:41.994751"/><path d="M181.1655 34.280475L181.0512 45.158025" style="fill:none;stroke:rgba(174,0,76,.24705882);stroke-width:.09525;stroke-miterlimit:41.994751"/><path d="M68.589525 44.55795A.47625 .47625 0 0067.637025 44.55795A.47625 .47625 0 0068.589525 44.55795z" fill="rgba(174,0,80,.24705882)"/><path d="M65.160525 50.453925H70.65645V44.853225H65.160525z" style="fill:rgba(174,0,80,.24705882);stroke:rgba(174,0,80,.24705882);stroke-width:.09525;stroke-miterlimit:41.994751"/><path d="M68.17995 47.8536A.47625 .47625 0 0067.22745 47.8536A.47625 .47625 0 0068.17995 47.8536z" fill="rgba(174,0,80,.24705882)"/><path d="M68.113275 44.55795L67.7037 47.8536" style="fill:none;stroke:rgba(174,0,80,.24705882);stroke-width:.09525;stroke-miterlimit:41.994751"/><path d="M67.7037 47.8536L72.6186 47.64405" style="fill:none;stroke:rgba(170,0,85,.24705882);stroke-width:.09525;stroke-miterlimit:41.994751"/><path d="M43.462575 171.59287H46.50105V109.07077H43.462575z" style="fill:rgba(165,0,89,.24705882);stroke:rgba(165,0,89,.24705882);stroke-width:.09525;stroke-miterlimit:41.994751"/><path d="M45.28185 165.47782A.47625 .47625 0 0044.32935 165.47782A.47625 .47625 0 0045.28185 165.47782z" fill="rgba(165,0,89,.24705882)"/><path d="M44.8056 165.47782L38.0619 164.72535" style="fill:none;stroke:rgba(165,0,89,.24705882);stroke-width:.09525;stroke-miterlimit:41.994751"/><path d="M33.7185 171.58335H43.4721V129.21615H33.7185z" style="fill:rgba(165,0,89,.24705882);stroke:rgba(165,0,89,.24705882);stroke-width:.09525;stroke-miterlimit:41.994751"/><path d="M38.53815 164.72535A.47625 .47625 0 0037.58565 164.72535A.47625 .47625 0 0038.53815 164.72535z" fill="rgba(165,0,89,.24705882)"/><path d="M30.660975 163.55377L38.0619 164.72535" style="fill:none;stroke:rgba(165,0,89,.24705882);stroke-width:.09525;stroke-miterlimit:41.994751"/><path d="M28.374975 171.58335H33.7185V129.21615H28.374975z" style="fill:rgba(165,0,89,.24705882);stroke:rgba(165,0,89,.24705882);stroke-width:.09525;stroke-miterlimit:41.994751"/><path d="M31.137225 163.55377A.47625 .47625 0 0030.184725 163.55377A.47625 .47625 0 0031.137225 163.55377z" fill="rgba(165,0,89,.24705882)"/><path d="M73.09485 47.64405A.47625 .47625 0 0072.14235 47.64405A.47625 .47625 0 0073.09485 47.64405z" fill="rgba(161,0,89,.24705882)"/><path d="M72.6186 47.64405L75.447525 47.4726" style="fill:none;stroke:rgba(157,0,93,.24705882);stroke-width:.09525;stroke-miterlimit:41.994751"/><path d="M127.20637 46.863A.47625 .47625 0 00126.25388 46.863A.47625 .47625 0 00127.20637 46.863z" fill="rgba(157,0,97,.24705882)"/><path d="M38.0619 164.72535L38.166675 128.59702" style="fill:none;stroke:rgba(153,0,97,.24705882);stroke-width:.09525;stroke-miterlimit:41.994751"/><path d="M126.67298 29.403675L126.74918 57.35955" style="fill:none;stroke:rgba(153,0,101,.24705882);stroke-width:.09525;stroke-miterlimit:41.994751"/><path d="M82.248375 71.15175H109.71848V61.0743H82.248375z" style="fill:rgba(153,0,101,.24705882);stroke:rgba(153,0,101,.24705882);stroke-width:.09525;stroke-miterlimit:41.994751"/><path d="M98.764725 66.894075A.47625 .47625 0 0097.812225 66.894075A.47625 .47625 0 0098.764725 66.894075z" fill="rgba(153,0,101,.24705882)"/><path d="M72.513825 42.891075H92.516325V26.2509H72.513825z" style="fill:rgba(153,0,101,.24705882);stroke:rgba(153,0,101,.24705882);stroke-width:.09525;stroke-miterlimit:41.994751"/><path d="M83.200875 33.73755A.47625 .47625 0 0082.248375 33.73755A.47625 .47625 0 0083.200875 33.73755z" fill="rgba(153,0,101,.24705882)"/><path d="M86.5251 50.50155H91.87815V44.5389H86.5251z" style="fill:rgba(153,0,101,.24705882);stroke:rgba(153,0,101,.24705882);stroke-width:.09525;stroke-miterlimit:41.994751"/><path d="M90.04935 47.45355A.47625 .47625 0 0089.09685 47.45355A.47625 .47625 0 0090.04935 47.45355z" fill="rgba(153,0,101,.24705882)"/><path d="M89.85885 50.9778A.47625 .47625 0 0088.90635 50.9778A.47625 .47625 0 0089.85885 50.9778z" fill="rgba(153,0,101,.24705882)"/><path d="M64.779525 62.169675H80.63865V52.130325H64.779525z" style="fill:rgba(153,0,101,.24705882);stroke:rgba(153,0,101,.24705882);stroke-width:.09525;stroke-miterlimit:41.994751"/><path d="M73.409175 56.778525A.47625 .47625 0 0072.456675 56.778525A.47625 .47625 0 0073.409175 56.778525z" fill="rgba(153,0,101,.24705882)"/><path d="M89.9922 44.1579A.47625 .47625 0 0089.0397 44.1579A.47625 .47625 0 0089.9922 44.1579z" fill="rgba(153,0,101,.24705882)"/><path d="M74.475975 50.4063H78.23835V44.577H74.475975z" style="fill:rgba(153,0,101,.24705882);stroke:rgba(153,0,101,.24705882);stroke-width:.09525;stroke-miterlimit:41.994751"/><path d="M75.923775 47.4726A.47625 .47625 0 0074.971275 47.4726A.47625 .47625 0 0075.923775 47.4726z" fill="rgba(153,0,101,.24705882)"/><path d="M91.887675 50.549175H103.4034V44.5389H91.887675z" style="fill:rgba(153,0,101,.24705882);stroke:rgba(153,0,101,.24705882);stroke-width:.09525;stroke-miterlimit:41.994751"/><path d="M97.736025 47.272575A.47625 .47625 0 0096.783525 47.272575A.47625 .47625 0 0097.736025 47.272575z" fill="rgba(153,0,101,.24705882)"/><path d="M92.22105 61.102875H109.71848V52.1208H92.22105z" style="fill:rgba(153,0,101,.24705882);stroke:rgba(153,0,101,.24705882);stroke-width:.09525;stroke-miterlimit:41.994751"/><path d="M98.5647 56.797575A.47625 .47625 0 0097.6122 56.797575A.47625 .47625 0 0098.5647 56.797575z" fill="rgba(153,0,101,.24705882)"/><path d="M64.82715 71.142225H80.610075V62.188725H64.82715z" style="fill:rgba(153,0,101,.24705882);stroke:rgba(153,0,101,.24705882);stroke-width:.09525;stroke-miterlimit:41.994751"/><path d="M68.932425 66.684525A.47625 .47625 0 0067.979925 66.684525A.47625 .47625 0 0068.932425 66.684525z" fill="rgba(153,0,101,.24705882)"/><path d="M82.23885 61.05525H92.211525V52.111275H82.23885z" style="fill:rgba(153,0,101,.24705882);stroke:rgba(153,0,101,.24705882);stroke-width:.09525;stroke-miterlimit:41.994751"/><path d="M89.087325 57.902475A.47625 .47625 0 0088.134825 57.902475A.47625 .47625 0 0089.087325 57.902475z" fill="rgba(153,0,101,.24705882)"/><path d="M94.12605 44.510325H100.18395V26.203275H94.12605z" style="fill:rgba(153,0,101,.24705882);stroke:rgba(153,0,101,.24705882);stroke-width:.09525;stroke-miterlimit:41.994751"/><path d="M97.536 29.041725A.47625 .47625 0 0096.5835 29.041725A.47625 .47625 0 0097.536 29.041725z" fill="rgba(153,0,101,.24705882)"/><path d="M82.3722 66.589275A.47625 .47625 0 0081.4197 66.589275A.47625 .47625 0 0082.3722 66.589275z" fill="rgba(153,0,101,.24705882)"/><path d="M78.266925 50.472975H86.515575V44.5389H78.266925z" style="fill:rgba(153,0,101,.24705882);stroke:rgba(153,0,101,.24705882);stroke-width:.09525;stroke-miterlimit:41.994751"/><path d="M80.610075 47.7774A.47625 .47625 0 0079.657575 47.7774A.47625 .47625 0 0080.610075 47.7774z" fill="rgba(153,0,101,.24705882)"/><path d="M89.5731 47.45355L89.3826 50.9778" style="fill:none;stroke:rgba(153,0,101,.24705882);stroke-width:.09525;stroke-miterlimit:41.994751"/><path d="M98.288475 66.894075L81.89595 66.589275" style="fill:none;stroke:rgba(153,0,101,.24705882);stroke-width:.09525;stroke-miterlimit:41.994751"/><path d="M88.611075 57.902475L98.08845 56.797575" style="fill:none;stroke:rgba(153,0,101,.24705882);stroke-width:.09525;stroke-miterlimit:41.994751"/><path d="M68.456175 66.684525L72.932925 56.778525" style="fill:none;stroke:rgba(153,0,101,.24705882);stroke-width:.09525;stroke-miterlimit:41.994751"/><path d="M82.724625 33.73755L89.51595 44.1579" style="fill:none;stroke:rgba(153,0,101,.24705882);stroke-width:.09525;stroke-miterlimit:41.994751"/><path d="M98.08845 56.797575L98.288475 66.894075" style="fill:none;stroke:rgba(153,0,101,.24705882);stroke-width:.09525;stroke-miterlimit:41.994751"/><path d="M81.89595 66.589275L68.456175 66.684525" style="fill:none;stroke:rgba(153,0,101,.24705882);stroke-width:.09525;stroke-miterlimit:41.994751"/><path d="M89.3826 50.9778L88.611075 57.902475" style="fill:none;stroke:rgba(153,0,101,.24705882);stroke-width:.09525;stroke-miterlimit:41.994751"/><path d="M97.259775 47.272575L97.05975 29.041725" style="fill:none;stroke:rgba(153,0,101,.24705882);stroke-width:.09525;stroke-miterlimit:41.994751"/><path d="M89.5731 47.45355L89.51595 44.1579" style="fill:none;stroke:rgba(153,0,101,.24705882);stroke-width:.09525;stroke-miterlimit:41.994751"/><path d="M80.133825 47.7774L89.5731 47.45355" style="fill:none;stroke:rgba(153,0,101,.24705882);stroke-width:.09525;stroke-miterlimit:41.994751"/><path d="M75.447525 47.4726L80.133825 47.7774" style="fill:none;stroke:rgba(153,0,101,.24705882);stroke-width:.09525;stroke-miterlimit:41.994751"/><path d="M89.5731 47.45355L97.259775 47.272575" style="fill:none;stroke:rgba(153,0,101,.24705882);stroke-width:.09525;stroke-miterlimit:41.994751"/><path d="M47.653575 165.8874L44.8056 165.47782" style="fill:none;stroke:rgba(153,0,101,.24705882);stroke-width:.09525;stroke-miterlimit:41.994751"/><path d="M97.05975 29.041725L106.82288 28.9941" style="fill:none;stroke:rgba(153,0,101,.24705882);stroke-width:.09525;stroke-miterlimit:41.994751"/><path d="M30.660975 163.55377L28.4226 163.54425" style="fill:none;stroke:rgba(153,0,101,.24705882);stroke-width:.09525;stroke-miterlimit:41.994751"/><path d="M100.4316 31.784925H109.70895V26.19375H100.4316z" style="fill:rgba(149,0,105,.24705882);stroke:rgba(149,0,105,.24705882);stroke-width:.09525;stroke-miterlimit:41.994751"/><path d="M107.29913 28.9941A.47625 .47625 0 00106.34663 28.9941A.47625 .47625 0 00107.29913 28.9941z" fill="rgba(149,0,105,.24705882)"/><path d="M38.642925 128.59702A.47625 .47625 0 0037.690425 128.59702A.47625 .47625 0 0038.642925 128.59702z" fill="rgba(145,0,105,.24705882)"/><path d="M31.83255 127.65405L38.166675 128.59702" style="fill:none;stroke:rgba(145,0,105,.24705882);stroke-width:.09525;stroke-miterlimit:41.994751"/><path d="M28.4226 128.7018H43.253025V126.54915H28.4226z" style="fill:rgba(145,0,109,.24705882);stroke:rgba(145,0,109,.24705882);stroke-width:.09525;stroke-miterlimit:41.994751"/><path d="M32.3088 127.65405A.47625 .47625 0 0031.3563 127.65405A.47625 .47625 0 0032.3088 127.65405z" fill="rgba(145,0,109,.24705882)"/><path d="M48.129825 165.8874A.47625 .47625 0 0047.177325 165.8874A.47625 .47625 0 0048.129825 165.8874z" fill="rgba(141,0,113,.24705882)"/><path d="M28.89885 163.54425A.47625 .47625 0 0027.94635 163.54425A.47625 .47625 0 0028.89885 163.54425z" fill="rgba(141,0,113,.24705882)"/><path d="M38.166675 128.59702L37.271325 101.52697" style="fill:none;stroke:rgba(141,0,113,.24705882);stroke-width:.09525;stroke-miterlimit:41.994751"/><path d="M28.241625 127.7493L31.83255 127.65405" style="fill:none;stroke:rgba(137,0,117,.24705882);stroke-width:.09525;stroke-miterlimit:41.994751"/><path d="M122.47245 61.81725H133.25475V55.787925H122.47245z" style="fill:rgba(133,0,121,.24705882);stroke:rgba(133,0,121,.24705882);stroke-width:.09525;stroke-miterlimit:41.994751"/><path d="M127.22543 57.35955A.47625 .47625 0 00126.27293 57.35955A.47625 .47625 0 00127.22543 57.35955z" fill="rgba(133,0,121,.24705882)"/><path d="M133.34047 61.74105H140.56043V56.0832H133.34047z" style="fill:rgba(133,0,121,.24705882);stroke:rgba(133,0,121,.24705882);stroke-width:.09525;stroke-miterlimit:41.994751"/><path d="M137.75055 58.08345A.47625 .47625 0 00136.79805 58.08345A.47625 .47625 0 00137.75055 58.08345z" fill="rgba(133,0,121,.24705882)"/><path d="M126.74918 57.35955L137.2743 58.08345" style="fill:none;stroke:rgba(133,0,121,.24705882);stroke-width:.09525;stroke-miterlimit:41.994751"/><path d="M106.82288 28.9941L106.62285 39.271575" style="fill:none;stroke:rgba(133,0,121,.24705882);stroke-width:.09525;stroke-miterlimit:41.994751"/><path d="M33.7947 126.58725H42.471975V84.2391H33.7947z" style="fill:rgba(133,0,121,.24705882);stroke:rgba(133,0,121,.24705882);stroke-width:.09525;stroke-miterlimit:41.994751"/><path d="M37.747575 101.52697A.47625 .47625 0 0036.795075 101.52697A.47625 .47625 0 0037.747575 101.52697z" fill="rgba(133,0,121,.24705882)"/><path d="M37.271325 101.52697L46.12005 101.35553" style="fill:none;stroke:rgba(133,0,121,.24705882);stroke-width:.09525;stroke-miterlimit:41.994751"/><path d="M42.5577 106.7181H47.49165V84.201H42.5577z" style="fill:rgba(133,0,121,.24705882);stroke:rgba(133,0,121,.24705882);stroke-width:.09525;stroke-miterlimit:41.994751"/><path d="M46.5963 101.35553A.47625 .47625 0 0045.6438 101.35553A.47625 .47625 0 0046.5963 101.35553z" fill="rgba(133,0,121,.24705882)"/><path d="M29.803725 100.47922L37.271325 101.52697" style="fill:none;stroke:rgba(133,0,121,.24705882);stroke-width:.09525;stroke-miterlimit:41.994751"/><path d="M28.4226 126.61582H33.766125V85.010625H28.4226z" style="fill:rgba(133,0,121,.24705882);stroke:rgba(133,0,121,.24705882);stroke-width:.09525;stroke-miterlimit:41.994751"/><path d="M30.279975 100.47922A.47625 .47625 0 0029.327475 100.47922A.47625 .47625 0 0030.279975 100.47922z" fill="rgba(133,0,121,.24705882)"/><path d="M28.717875 127.7493A.47625 .47625 0 0027.765375 127.7493A.47625 .47625 0 0028.717875 127.7493z" fill="rgba(125,0,129,.24705882)"/><path d="M137.2743 58.08345L136.94092 49.349025" style="fill:none;stroke:rgba(125,0,129,.24705882);stroke-width:.09525;stroke-miterlimit:41.994751"/><path d="M47.75835 101.16502L46.12005 101.35553" style="fill:none;stroke:rgba(125,0,129,.24705882);stroke-width:.09525;stroke-miterlimit:41.994751"/><path d="M28.260675 100.4316L29.803725 100.47922" style="fill:none;stroke:rgba(125,0,129,.24705882);stroke-width:.09525;stroke-miterlimit:41.994751"/><path d="M107.0991 39.271575A.47625 .47625 0 00106.1466 39.271575A.47625 .47625 0 00107.0991 39.271575z" fill="rgba(117,0,137,.24705882)"/><path d="M137.41717 49.349025A.47625 .47625 0 00136.46467 49.349025A.47625 .47625 0 00137.41717 49.349025z" fill="rgba(117,0,137,.24705882)"/><path d="M28.736925 100.4316A.47625 .47625 0 0027.784425 100.4316A.47625 .47625 0 0028.736925 100.4316z" fill="rgba(113,0,141,.24705882)"/><path d="M48.2346 101.16502A.47625 .47625 0 0047.2821 101.16502A.47625 .47625 0 0048.2346 101.16502z" fill="rgba(113,0,141,.24705882)"/><path d="M136.94092 49.349025L137.541 30.356175" style="fill:none;stroke:rgba(105,0,145,.24705882);stroke-width:.09525;stroke-miterlimit:41.994751"/><path d="M106.62285 39.271575L106.76573 47.64405" style="fill:none;stroke:rgba(105,0,145,.24705882);stroke-width:.09525;stroke-miterlimit:41.994751"/><path d="M178.5366 34.0995H184.0992V25.7175H178.5366z" style="fill:rgba(97,0,157,.24705882);stroke:rgba(97,0,157,.24705882);stroke-width:.09525;stroke-miterlimit:41.994751"/><path d="M180.58447 29.918025A.47625 .47625 0 00179.63198 29.918025A.47625 .47625 0 00180.58447 29.918025z" fill="rgba(97,0,157,.24705882)"/><path d="M129.56858 41.91H140.6271V25.908H129.56858z" style="fill:rgba(97,0,157,.24705882);stroke:rgba(97,0,157,.24705882);stroke-width:.09525;stroke-miterlimit:41.994751"/><path d="M138.01725 30.356175A.47625 .47625 0 00137.06475 30.356175A.47625 .47625 0 00138.01725 30.356175z" fill="rgba(97,0,157,.24705882)"/><path d="M145.40865 56.007A.47625 .47625 0 00144.45615 56.007A.47625 .47625 0 00145.40865 56.007z" fill="rgba(97,0,157,.24705882)"/><path d="M181.1274 54.95925A.47625 .47625 0 00180.1749 54.95925A.47625 .47625 0 00181.1274 54.95925z" fill="rgba(97,0,157,.24705882)"/><path d="M140.69378 33.747075H178.46993V25.77465H140.69378z" style="fill:rgba(97,0,157,.24705882);stroke:rgba(97,0,157,.24705882);stroke-width:.09525;stroke-miterlimit:41.994751"/><path d="M157.06725 30.203775A.47625 .47625 0 00156.11475 30.203775A.47625 .47625 0 00157.06725 30.203775z" fill="rgba(97,0,157,.24705882)"/><path d="M137.5791 78.514575H158.61982V56.86425H137.5791z" style="fill:rgba(97,0,157,.24705882);stroke:rgba(97,0,157,.24705882);stroke-width:.09525;stroke-miterlimit:41.994751"/><path d="M145.923 70.704075A.47625 .47625 0 00144.9705 70.704075A.47625 .47625 0 00145.923 70.704075z" fill="rgba(97,0,157,.24705882)"/><path d="M181.48935 34.5948A.47625 .47625 0 00180.53685 34.5948A.47625 .47625 0 00181.48935 34.5948z" fill="rgba(97,0,157,.24705882)"/><path d="M141.48435 54.7116H148.34235V35.814H141.48435z" style="fill:rgba(97,0,157,.24705882);stroke:rgba(97,0,157,.24705882);stroke-width:.09525;stroke-miterlimit:41.994751"/><path d="M145.37055 45.405675A.47625 .47625 0 00144.41805 45.405675A.47625 .47625 0 00145.37055 45.405675z" fill="rgba(97,0,157,.24705882)"/><path d="M156.64815 34.57575A.47625 .47625 0 00155.69565 34.57575A.47625 .47625 0 00156.64815 34.57575z" fill="rgba(97,0,157,.24705882)"/><path d="M160.98202 54.5211H184.11825V35.5854H160.98202z" style="fill:rgba(97,0,157,.24705882);stroke:rgba(97,0,157,.24705882);stroke-width:.09525;stroke-miterlimit:41.994751"/><path d="M172.43107 45.6438A.47625 .47625 0 00171.47858 45.6438A.47625 .47625 0 00172.43107 45.6438z" fill="rgba(97,0,157,.24705882)"/><path d="M161.15348 78.58125H184.11825V55.6641H161.15348z" style="fill:rgba(97,0,157,.24705882);stroke:rgba(97,0,157,.24705882);stroke-width:.09525;stroke-miterlimit:41.994751"/><path d="M168.9735 69.9135A.47625 .47625 0 00168.021 69.9135A.47625 .47625 0 00168.9735 69.9135z" fill="rgba(97,0,157,.24705882)"/><path d="M148.57095 54.61635H159.2199V36.1569H148.57095z" style="fill:rgba(97,0,157,.24705882);stroke:rgba(97,0,157,.24705882);stroke-width:.09525;stroke-miterlimit:41.994751"/><path d="M156.96248 46.358175A.47625 .47625 0 00156.00998 46.358175A.47625 .47625 0 00156.96248 46.358175z" fill="rgba(97,0,157,.24705882)"/><path d="M122.48198 41.690925H129.11138V25.860375H122.48198z" style="fill:rgba(97,0,157,.24705882);stroke:rgba(97,0,157,.24705882);stroke-width:.09525;stroke-miterlimit:41.994751"/><path d="M126.10147 30.546675A.47625 .47625 0 00125.14898 30.546675A.47625 .47625 0 00126.10147 30.546675z" fill="rgba(97,0,157,.24705882)"/><path d="M171.95482 45.6438L181.0131 34.5948" style="fill:none;stroke:rgba(97,0,157,.24705882);stroke-width:.09525;stroke-miterlimit:41.994751"/><path d="M180.65115 54.95925L171.95482 45.6438" style="fill:none;stroke:rgba(97,0,157,.24705882);stroke-width:.09525;stroke-miterlimit:41.994751"/><path d="M156.591 30.203775L180.10823 29.918025" style="fill:none;stroke:rgba(97,0,157,.24705882);stroke-width:.09525;stroke-miterlimit:41.994751"/><path d="M156.1719 34.57575L156.591 30.203775" style="fill:none;stroke:rgba(97,0,157,.24705882);stroke-width:.09525;stroke-miterlimit:41.994751"/><path d="M125.62523 30.546675L137.541 30.356175" style="fill:none;stroke:rgba(97,0,157,.24705882);stroke-width:.09525;stroke-miterlimit:41.994751"/><path d="M168.49725 69.9135L180.65115 54.95925" style="fill:none;stroke:rgba(97,0,157,.24705882);stroke-width:.09525;stroke-miterlimit:41.994751"/><path d="M156.48623 46.358175L144.8943 45.405675" style="fill:none;stroke:rgba(97,0,157,.24705882);stroke-width:.09525;stroke-miterlimit:41.994751"/><path d="M156.591 30.203775L137.541 30.356175" style="fill:none;stroke:rgba(97,0,157,.24705882);stroke-width:.09525;stroke-miterlimit:41.994751"/><path d="M144.9324 56.007L145.44675 70.704075" style="fill:none;stroke:rgba(97,0,157,.24705882);stroke-width:.09525;stroke-miterlimit:41.994751"/><path d="M180.65115 54.95925L181.0131 34.5948" style="fill:none;stroke:rgba(97,0,157,.24705882);stroke-width:.09525;stroke-miterlimit:41.994751"/><path d="M181.0131 34.5948L180.10823 29.918025" style="fill:none;stroke:rgba(97,0,157,.24705882);stroke-width:.09525;stroke-miterlimit:41.994751"/><path d="M144.8943 45.405675L144.9324 56.007" style="fill:none;stroke:rgba(97,0,157,.24705882);stroke-width:.09525;stroke-miterlimit:41.994751"/><path d="M156.1719 34.57575L156.48623 46.358175" style="fill:none;stroke:rgba(97,0,157,.24705882);stroke-width:.09525;stroke-miterlimit:41.994751"/><path d="M103.87013 50.568225H109.728V44.662725H103.87013z" style="fill:rgba(93,0,157,.24705882);stroke:rgba(93,0,157,.24705882);stroke-width:.09525;stroke-miterlimit:41.994751"/><path d="M107.24197 47.64405A.47625 .47625 0 00106.28948 47.64405A.47625 .47625 0 00107.24197 47.64405z" fill="rgba(93,0,157,.24705882)"/><path d="M106.76573 47.64405L96.79305 47.52975" style="fill:none;stroke:rgba(85,0,170,.24705882);stroke-width:.09525;stroke-miterlimit:41.994751"/><path d="M79.2099 51.0159A.47625 .47625 0 0078.2574 51.0159A.47625 .47625 0 0079.2099 51.0159z" fill="rgba(76,0,178,.24705882)"/><path d="M91.821 50.530125H100.10775V44.491275H91.821z" style="fill:rgba(76,0,178,.24705882);stroke:rgba(76,0,178,.24705882);stroke-width:.09525;stroke-miterlimit:41.994751"/><path d="M97.2693 47.52975A.47625 .47625 0 0096.3168 47.52975A.47625 .47625 0 0097.2693 47.52975z" fill="rgba(76,0,178,.24705882)"/><path d="M90.2589 44.3103A.47625 .47625 0 0089.3064 44.3103A.47625 .47625 0 0090.2589 44.3103z" fill="rgba(76,0,178,.24705882)"/><path d="M80.01 42.95775H102.09848V26.19375H80.01z" style="fill:rgba(76,0,178,.24705882);stroke:rgba(76,0,178,.24705882);stroke-width:.09525;stroke-miterlimit:41.994751"/><path d="M91.23045 34.109025A.47625 .47625 0 0090.27795 34.109025A.47625 .47625 0 0091.23045 34.109025z" fill="rgba(76,0,178,.24705882)"/><path d="M83.486625 71.11365H109.70895V52.149375H83.486625z" style="fill:rgba(76,0,178,.24705882);stroke:rgba(76,0,178,.24705882);stroke-width:.09525;stroke-miterlimit:41.994751"/><path d="M97.47885 61.598175A.47625 .47625 0 0096.52635 61.598175A.47625 .47625 0 0097.47885 61.598175z" fill="rgba(76,0,178,.24705882)"/><path d="M70.99935 50.530125H81.429225V44.529375H70.99935z" style="fill:rgba(76,0,178,.24705882);stroke:rgba(76,0,178,.24705882);stroke-width:.09525;stroke-miterlimit:41.994751"/><path d="M76.038075 47.234475A.47625 .47625 0 0075.085575 47.234475A.47625 .47625 0 0076.038075 47.234475z" fill="rgba(76,0,178,.24705882)"/><path d="M81.448275 50.5206H91.792425V44.48175H81.448275z" style="fill:rgba(76,0,178,.24705882);stroke:rgba(76,0,178,.24705882);stroke-width:.09525;stroke-miterlimit:41.994751"/><path d="M89.811225 47.68215A.47625 .47625 0 0088.858725 47.68215A.47625 .47625 0 0089.811225 47.68215z" fill="rgba(76,0,178,.24705882)"/><path d="M83.086575 66.855975A.47625 .47625 0 0082.134075 66.855975A.47625 .47625 0 0083.086575 66.855975z" fill="rgba(76,0,178,.24705882)"/><path d="M72.39 44.529375H78.486V26.203275H72.39z" style="fill:rgba(76,0,178,.24705882);stroke:rgba(76,0,178,.24705882);stroke-width:.09525;stroke-miterlimit:41.994751"/><path d="M75.8571 28.984575A.47625 .47625 0 0074.9046 28.984575A.47625 .47625 0 0075.8571 28.984575z" fill="rgba(76,0,178,.24705882)"/><path d="M64.817625 71.15175H81.905475V52.130325H64.817625z" style="fill:rgba(76,0,178,.24705882);stroke:rgba(76,0,178,.24705882);stroke-width:.09525;stroke-miterlimit:41.994751"/><path d="M76.02855 67.60845A.47625 .47625 0 0075.07605 67.60845A.47625 .47625 0 0076.02855 67.60845z" fill="rgba(76,0,178,.24705882)"/><path d="M76.2762 59.26455A.47625 .47625 0 0075.3237 59.26455A.47625 .47625 0 0076.2762 59.26455z" fill="rgba(76,0,178,.24705882)"/><path d="M82.610325 66.855975L97.0026 61.598175" style="fill:none;stroke:rgba(76,0,178,.24705882);stroke-width:.09525;stroke-miterlimit:41.994751"/><path d="M89.334975 47.68215L89.78265 44.3103" style="fill:none;stroke:rgba(76,0,178,.24705882);stroke-width:.09525;stroke-miterlimit:41.994751"/><path d="M75.38085 28.984575L75.561825 47.234475" style="fill:none;stroke:rgba(76,0,178,.24705882);stroke-width:.09525;stroke-miterlimit:41.994751"/><path d="M89.78265 44.3103L90.7542 34.109025" style="fill:none;stroke:rgba(76,0,178,.24705882);stroke-width:.09525;stroke-miterlimit:41.994751"/><path d="M75.79995 59.26455L75.5523 67.60845" style="fill:none;stroke:rgba(76,0,178,.24705882);stroke-width:.09525;stroke-miterlimit:41.994751"/><path d="M75.561825 47.234475L89.334975 47.68215" style="fill:none;stroke:rgba(76,0,178,.24705882);stroke-width:.09525;stroke-miterlimit:41.994751"/><path d="M78.73365 51.0159L75.79995 59.26455" style="fill:none;stroke:rgba(76,0,178,.24705882);stroke-width:.09525;stroke-miterlimit:41.994751"/><path d="M75.561825 47.234475L78.73365 51.0159" style="fill:none;stroke:rgba(76,0,178,.24705882);stroke-width:.09525;stroke-miterlimit:41.994751"/><path d="M96.79305 47.52975L89.334975 47.68215" style="fill:none;stroke:rgba(76,0,178,.24705882);stroke-width:.09525;stroke-miterlimit:41.994751"/><path d="M82.610325 66.855975L75.5523 67.60845" style="fill:none;stroke:rgba(76,0,178,.24705882);stroke-width:.09525;stroke-miterlimit:41.994751"/><path d="M125.62523 30.546675L125.98718 58.702575" style="fill:none;stroke:rgba(76,0,178,.24705882);stroke-width:.09525;stroke-miterlimit:41.994751"/><path d="M75.38085 28.984575L67.818 29.289375" style="fill:none;stroke:rgba(72,0,178,.24705882);stroke-width:.09525;stroke-miterlimit:41.994751"/><path d="M64.77 31.8897H70.8279V26.222325H64.77z" style="fill:rgba(72,0,182,.24705882);stroke:rgba(72,0,182,.24705882);stroke-width:.09525;stroke-miterlimit:41.994751"/><path d="M68.29425 29.289375A.47625 .47625 0 0067.34175 29.289375A.47625 .47625 0 0068.29425 29.289375z" fill="rgba(72,0,182,.24705882)"/><path d="M67.818 29.289375L67.598925 34.737675" style="fill:none;stroke:rgba(64,0,190,.24705882);stroke-width:.09525;stroke-miterlimit:41.994751"/><path d="M68.075175 34.737675A.47625 .47625 0 0067.122675 34.737675A.47625 .47625 0 0068.075175 34.737675z" fill="rgba(56,0,194,.24705882)"/><path d="M129.70193 61.81725H140.68425V54.2925H129.70193z" style="fill:rgba(56,0,198,.24705882);stroke:rgba(56,0,198,.24705882);stroke-width:.09525;stroke-miterlimit:41.994751"/><path d="M137.48385 58.0644A.47625 .47625 0 00136.53135 58.0644A.47625 .47625 0 00137.48385 58.0644z" fill="rgba(56,0,198,.24705882)"/><path d="M122.40578 61.7982H129.6924V54.263925H122.40578z" style="fill:rgba(56,0,198,.24705882);stroke:rgba(56,0,198,.24705882);stroke-width:.09525;stroke-miterlimit:41.994751"/><path d="M126.46343 58.702575A.47625 .47625 0 00125.51093 58.702575A.47625 .47625 0 00126.46343 58.702575z" fill="rgba(56,0,198,.24705882)"/><path d="M137.0076 58.0644L125.98718 58.702575" style="fill:none;stroke:rgba(56,0,198,.24705882);stroke-width:.09525;stroke-miterlimit:41.994751"/><path d="M67.732275 40.509825L67.598925 34.737675" style="fill:none;stroke:rgba(44,0,206,.24705882);stroke-width:.09525;stroke-miterlimit:41.994751"/><path d="M137.0076 58.0644L136.95045 40.224075" style="fill:none;stroke:rgba(36,0,218,.24705882);stroke-width:.09525;stroke-miterlimit:41.994751"/><path d="M68.208525 40.509825A.47625 .47625 0 0067.256025 40.509825A.47625 .47625 0 0068.208525 40.509825z" fill="rgba(36,0,218,.24705882)"/><path d="M67.818 47.444025L67.732275 40.509825" style="fill:none;stroke:rgba(24,0,226,.24705882);stroke-width:.09525;stroke-miterlimit:41.994751"/><path d="M145.09432 55.34025A.47625 .47625 0 00144.14183 55.34025A.47625 .47625 0 00145.09432 55.34025z" fill="rgba(20,0,234,.24705882)"/><path d="M181.4322 55.3212A.47625 .47625 0 00180.4797 55.3212A.47625 .47625 0 00181.4322 55.3212z" fill="rgba(20,0,234,.24705882)"/><path d="M177.93653 54.61635H184.10873V35.290125H177.93653z" style="fill:rgba(20,0,234,.24705882);stroke:rgba(20,0,234,.24705882);stroke-width:.09525;stroke-miterlimit:41.994751"/><path d="M181.56555 44.662725A.47625 .47625 0 00180.61305 44.662725A.47625 .47625 0 00181.56555 44.662725z" fill="rgba(20,0,234,.24705882)"/><path d="M161.0106 54.606825H177.927V35.433H161.0106z" style="fill:rgba(20,0,234,.24705882);stroke:rgba(20,0,234,.24705882);stroke-width:.09525;stroke-miterlimit:41.994751"/><path d="M168.04958 45.158025A.47625 .47625 0 00167.09708 45.158025A.47625 .47625 0 00168.04958 45.158025z" fill="rgba(20,0,234,.24705882)"/><path d="M160.8963 78.58125H184.11825V56.2737H160.8963z" style="fill:rgba(20,0,234,.24705882);stroke:rgba(20,0,234,.24705882);stroke-width:.09525;stroke-miterlimit:41.994751"/><path d="M169.72598 67.53225A.47625 .47625 0 00168.77348 67.53225A.47625 .47625 0 00169.72598 67.53225z" fill="rgba(20,0,234,.24705882)"/><path d="M141.48435 54.6735H159.28657V35.433H141.48435z" style="fill:rgba(20,0,234,.24705882);stroke:rgba(20,0,234,.24705882);stroke-width:.09525;stroke-miterlimit:41.994751"/><path d="M148.4376 47.98695A.47625 .47625 0 00147.4851 47.98695A.47625 .47625 0 00148.4376 47.98695z" fill="rgba(20,0,234,.24705882)"/><path d="M181.5465 34.2138A.47625 .47625 0 00180.594 34.2138A.47625 .47625 0 00181.5465 34.2138z" fill="rgba(20,0,234,.24705882)"/><path d="M136.12178 78.54315H159.32468V56.1975H136.12178z" style="fill:rgba(20,0,234,.24705882);stroke:rgba(20,0,234,.24705882);stroke-width:.09525;stroke-miterlimit:41.994751"/><path d="M146.01825 69.732525A.47625 .47625 0 00145.06575 69.732525A.47625 .47625 0 00146.01825 69.732525z" fill="rgba(20,0,234,.24705882)"/><path d="M158.05785 33.909H184.10873V25.73655H158.05785z" style="fill:rgba(20,0,234,.24705882);stroke:rgba(20,0,234,.24705882);stroke-width:.09525;stroke-miterlimit:41.994751"/><path d="M180.71783 29.5656A.47625 .47625 0 00179.76533 29.5656A.47625 .47625 0 00180.71783 29.5656z" fill="rgba(20,0,234,.24705882)"/><path d="M140.60805 33.909H158.02927V25.7175H140.60805z" style="fill:rgba(20,0,234,.24705882);stroke:rgba(20,0,234,.24705882);stroke-width:.09525;stroke-miterlimit:41.994751"/><path d="M156.7053 29.5275A.47625 .47625 0 00155.7528 29.5275A.47625 .47625 0 00156.7053 29.5275z" fill="rgba(20,0,234,.24705882)"/><path d="M156.81007 34.242375A.47625 .47625 0 00155.85757 34.242375A.47625 .47625 0 00156.81007 34.242375z" fill="rgba(20,0,234,.24705882)"/><path d="M122.4153 41.576625H140.60805V33.937575H122.4153z" style="fill:rgba(20,0,234,.24705882);stroke:rgba(20,0,234,.24705882);stroke-width:.09525;stroke-miterlimit:41.994751"/><path d="M137.4267 40.224075A.47625 .47625 0 00136.4742 40.224075A.47625 .47625 0 00137.4267 40.224075z" fill="rgba(20,0,234,.24705882)"/><path d="M122.40578 33.909H140.61757V25.765125H122.40578z" style="fill:rgba(20,0,234,.24705882);stroke:rgba(20,0,234,.24705882);stroke-width:.09525;stroke-miterlimit:41.994751"/><path d="M138.38872 29.337A.47625 .47625 0 00137.43623 29.337A.47625 .47625 0 00138.38872 29.337z" fill="rgba(20,0,234,.24705882)"/><path d="M180.95595 55.3212L169.24973 67.53225" style="fill:none;stroke:rgba(20,0,234,.24705882);stroke-width:.09525;stroke-miterlimit:41.994751"/><path d="M167.57333 45.158025L181.0893 44.662725" style="fill:none;stroke:rgba(20,0,234,.24705882);stroke-width:.09525;stroke-miterlimit:41.994751"/><path d="M156.22905 29.5275L156.33382 34.242375" style="fill:none;stroke:rgba(20,0,234,.24705882);stroke-width:.09525;stroke-miterlimit:41.994751"/><path d="M136.95045 40.224075L137.91248 29.337" style="fill:none;stroke:rgba(20,0,234,.24705882);stroke-width:.09525;stroke-miterlimit:41.994751"/><path d="M156.22905 29.5275L180.24158 29.5656" style="fill:none;stroke:rgba(20,0,234,.24705882);stroke-width:.09525;stroke-miterlimit:41.994751"/><path d="M156.33382 34.242375L147.96135 47.98695" style="fill:none;stroke:rgba(20,0,234,.24705882);stroke-width:.09525;stroke-miterlimit:41.994751"/><path d="M180.24158 29.5656L181.07025 34.2138" style="fill:none;stroke:rgba(20,0,234,.24705882);stroke-width:.09525;stroke-miterlimit:41.994751"/><path d="M181.07025 34.2138L181.0893 44.662725" style="fill:none;stroke:rgba(20,0,234,.24705882);stroke-width:.09525;stroke-miterlimit:41.994751"/><path d="M137.91248 29.337L156.22905 29.5275" style="fill:none;stroke:rgba(20,0,234,.24705882);stroke-width:.09525;stroke-miterlimit:41.994751"/><path d="M181.0893 44.662725L180.95595 55.3212" style="fill:none;stroke:rgba(20,0,234,.24705882);stroke-width:.09525;stroke-miterlimit:41.994751"/><path d="M144.61808 55.34025L145.542 69.732525" style="fill:none;stroke:rgba(20,0,234,.24705882);stroke-width:.09525;stroke-miterlimit:41.994751"/><path d="M147.96135 47.98695L144.61808 55.34025" style="fill:none;stroke:rgba(20,0,234,.24705882);stroke-width:.09525;stroke-miterlimit:41.994751"/><path d="M64.78905 50.5587H70.866V44.5389H64.78905z" style="fill:rgba(16,0,238,.24705882);stroke:rgba(16,0,238,.24705882);stroke-width:.09525;stroke-miterlimit:41.994751"/><path d="M68.29425 47.444025A.47625 .47625 0 0067.34175 47.444025A.47625 .47625 0 0068.29425 47.444025z" fill="rgba(16,0,238,.24705882)"/><path d="M81.448275 47.748825L67.818 47.444025" style="fill:none;stroke:rgba(8,0,246,.24705882);stroke-width:.09525;stroke-miterlimit:41.994751"/><path d="M64.78905 71.123175H83.11515V52.1208H64.78905z" style="fill:rgba(0,0,255,.24705882);stroke:rgba(0,0,255,.24705882);stroke-width:.09525;stroke-miterlimit:41.994751"/><path d="M73.13295 61.0362A.47625 .47625 0 0072.18045 61.0362A.47625 .47625 0 0073.13295 61.0362z" fill="rgba(0,0,255,.24705882)"/><path d="M102.73665 50.57775H109.728V44.48175H102.73665z" style="fill:rgba(0,0,255,.24705882);stroke:rgba(0,0,255,.24705882);stroke-width:.09525;stroke-miterlimit:41.994751"/><path d="M106.24185 48.13935A.47625 .47625 0 00105.28935 48.13935A.47625 .47625 0 00106.24185 48.13935z" fill="rgba(0,0,255,.24705882)"/><path d="M72.39 42.95775H92.56395V26.203275H72.39z" style="fill:rgba(0,0,255,.24705882);stroke:rgba(0,0,255,.24705882);stroke-width:.09525;stroke-miterlimit:41.994751"/><path d="M82.61985 34.91865A.47625 .47625 0 0081.66735 34.91865A.47625 .47625 0 0082.61985 34.91865z" fill="rgba(0,0,255,.24705882)"/><path d="M84.82965 71.1327H109.6899V52.1208H84.82965z" style="fill:rgba(0,0,255,.24705882);stroke:rgba(0,0,255,.24705882);stroke-width:.09525;stroke-miterlimit:41.994751"/><path d="M95.6691 61.3791A.47625 .47625 0 0094.7166 61.3791A.47625 .47625 0 0095.6691 61.3791z" fill="rgba(0,0,255,.24705882)"/><path d="M74.31405 50.5587H86.868V44.510325H74.31405z" style="fill:rgba(0,0,255,.24705882);stroke:rgba(0,0,255,.24705882);stroke-width:.09525;stroke-miterlimit:41.994751"/><path d="M81.924525 47.748825A.47625 .47625 0 0080.972025 47.748825A.47625 .47625 0 0081.924525 47.748825z" fill="rgba(0,0,255,.24705882)"/><path d="M90.0684 51.3588A.47625 .47625 0 0089.1159 51.3588A.47625 .47625 0 0090.0684 51.3588z" fill="rgba(0,0,255,.24705882)"/><path d="M89.982675 43.8912A.47625 .47625 0 0089.030175 43.8912A.47625 .47625 0 0089.982675 43.8912z" fill="rgba(0,0,255,.24705882)"/><path d="M94.1451 42.891075H109.728V26.19375H94.1451z" style="fill:rgba(0,0,255,.24705882);stroke:rgba(0,0,255,.24705882);stroke-width:.09525;stroke-miterlimit:41.994751"/><path d="M102.73665 34.470975A.47625 .47625 0 00101.78415 34.470975A.47625 .47625 0 00102.73665 34.470975z" fill="rgba(0,0,255,.24705882)"/><path d="M105.75607 44.196A.47625 .47625 0 00104.80358 44.196A.47625 .47625 0 00105.75607 44.196z" fill="rgba(0,0,255,.24705882)"/><path d="M91.76385 50.57775H102.72713V44.491275H91.76385z" style="fill:rgba(0,0,255,.24705882);stroke:rgba(0,0,255,.24705882);stroke-width:.09525;stroke-miterlimit:41.994751"/><path d="M98.212275 47.539275A.47625 .47625 0 0097.259775 47.539275A.47625 .47625 0 0098.212275 47.539275z" fill="rgba(0,0,255,.24705882)"/><path d="M86.877525 50.50155H91.7448V44.510325H86.877525z" style="fill:rgba(0,0,255,.24705882);stroke:rgba(0,0,255,.24705882);stroke-width:.09525;stroke-miterlimit:41.994751"/><path d="M90.0684 47.4345A.47625 .47625 0 0089.1159 47.4345A.47625 .47625 0 0090.0684 47.4345z" fill="rgba(0,0,255,.24705882)"/><path d="M84.0486 67.408425A.47625 .47625 0 0083.0961 67.408425A.47625 .47625 0 0084.0486 67.408425z" fill="rgba(0,0,255,.24705882)"/><path d="M89.506425 43.8912L82.1436 34.91865" style="fill:none;stroke:rgba(0,0,255,.24705882);stroke-width:.09525;stroke-miterlimit:41.994751"/><path d="M83.57235 67.408425L95.19285 61.3791" style="fill:none;stroke:rgba(0,0,255,.24705882);stroke-width:.09525;stroke-miterlimit:41.994751"/><path d="M72.6567 61.0362L83.57235 67.408425" style="fill:none;stroke:rgba(0,0,255,.24705882);stroke-width:.09525;stroke-miterlimit:41.994751"/><path d="M97.736025 47.539275L89.59215 47.4345" style="fill:none;stroke:rgba(0,0,255,.24705882);stroke-width:.09525;stroke-miterlimit:41.994751"/><path d="M89.59215 47.4345V51.3588" style="fill:none;stroke:rgba(0,0,255,.24705882);stroke-width:.09525;stroke-miterlimit:41.994751"/><path d="M105.27983 44.196L105.7656 48.13935" style="fill:none;stroke:rgba(0,0,255,.24705882);stroke-width:.09525;stroke-miterlimit:41.994751"/><path d="M89.59215 47.4345L89.506425 43.8912" style="fill:none;stroke:rgba(0,0,255,.24705882);stroke-width:.09525;stroke-miterlimit:41.994751"/><path d="M102.2604 34.470975L105.27983 44.196" style="fill:none;stroke:rgba(0,0,255,.24705882);stroke-width:.09525;stroke-miterlimit:41.994751"/><path d="M89.59215 47.4345L81.448275 47.748825" style="fill:none;stroke:rgba(0,0,255,.24705882);stroke-width:.09525;stroke-miterlimit:41.994751"/><path d="M105.7656 48.13935L97.736025 47.539275" style="fill:none;stroke:rgba(0,0,255,.24705882);stroke-width:.09525;stroke-miterlimit:41.994751"/><path d="M89.59215 51.3588L95.19285 61.3791" style="fill:none;stroke:rgba(0,0,255,.24705882);stroke-width:.09525;stroke-miterlimit:41.994751"/></svg>