<svg version="1.1" width="181.9275mm" height="194.1195mm" viewBox="0 0 181.9275 194.1195" xmlns="http://www.w3.org/2000/svg" xmlns:xlink="http://www.w3.org/1999/xlink"><path d="M41.43375 42.95775H43.33875" style="fill:none;stroke:#f00;stroke-width:.09525;stroke-miterlimit:41.994751"/><path d="M41.43375 42.95775V41.05275" style="fill:none;stroke:#0f0;stroke-width:.09525;stroke-miterlimit:41.994751"/><path d="M78.77175 103.251H96.173925V73.914H78.77175z" style="fill:rgba(255,0,0,.24705882);stroke:rgba(255,0,0,.24705882);stroke-width:.09525;stroke-miterlimit:41.994751"/><path d="M89.93505 88.401525A.47625 .47625 0 0088.98255 88.401525A.47625 .47625 0 0089.93505 88.401525z" fill="rgba(255,0,0,.24705882)"/><path d="M48.768 103.251H63.37935V94.58325H48.768z" style="fill:rgba(255,0,0,.24705882);stroke:rgba(255,0,0,.24705882);stroke-width:.09525;stroke-miterlimit:41.994751"/><path d="M56.969025 98.231325A.47625 .47625 0 0056.016525 98.231325A.47625 .47625 0 0056.969025 98.231325z" fill="rgba(255,0,0,.24705882)"/><path d="M64.29375 94.58325H78.77175V73.914H64.29375z" style="fill:rgba(255,0,0,.24705882);stroke:rgba(255,0,0,.24705882);stroke-width:.09525;stroke-miterlimit:41.994751"/><path d="M72.894825 84.762975A.47625 .47625 0 0071.942325 84.762975A.47625 .47625 0 0072.894825 84.762975z" fill="rgba(255,0,0,.24705882)"/><path d="M64.29375 103.251H78.77175V94.58325H64.29375z" style="fill:rgba(255,0,0,.24705882);stroke:rgba(255,0,0,.24705882);stroke-width:.09525;stroke-miterlimit:41.994751"/><path d="M72.59955 97.678875A.47625 .47625 0 0071.64705 97.678875A.47625 .47625 0 0072.59955 97.678875z" fill="rgba(255,0,0,.24705882)"/><path d="M48.768 94.58325H64.29375V73.914H48.768z" style="fill:rgba(255,0,0,.24705882);stroke:rgba(255,0,0,.24705882);stroke-width:.09525;stroke-miterlimit:41.994751"/><path d="M57.1119 85.372575A.47625 .47625 0 0056.1594 85.372575A.47625 .47625 0 0057.1119 85.372575z" fill="rgba(255,0,0,.24705882)"/><path d="M78.77175 73.914H117.63375V52.67325H78.77175z" style="fill:rgba(255,0,0,.24705882);stroke:rgba(255,0,0,.24705882);stroke-width:.09525;stroke-miterlimit:41.994751"/><path d="M103.77487 64.8462A.47625 .47625 0 00102.82238 64.8462A.47625 .47625 0 00103.77487 64.8462z" fill="rgba(255,0,0,.24705882)"/><path d="M96.22155 98.679H105.44175V73.914H96.22155z" style="fill:rgba(255,0,0,.24705882);stroke:rgba(255,0,0,.24705882);stroke-width:.09525;stroke-miterlimit:41.994751"/><path d="M101.44125 91.487625A.47625 .47625 0 00100.48875 91.487625A.47625 .47625 0 00101.44125 91.487625z" fill="rgba(255,0,0,.24705882)"/><path d="M96.22155 103.251H105.44175V98.679H96.22155z" style="fill:rgba(255,0,0,.24705882);stroke:rgba(255,0,0,.24705882);stroke-width:.09525;stroke-miterlimit:41.994751"/><path d="M100.25062 100.5078A.47625 .47625 0 0099.298125 100.5078A.47625 .47625 0 00100.25062 100.5078z" fill="rgba(255,0,0,.24705882)"/><path d="M105.44175 98.679H117.63375V73.914H105.44175z" style="fill:rgba(255,0,0,.24705882);stroke:rgba(255,0,0,.24705882);stroke-width:.09525;stroke-miterlimit:41.994751"/><path d="M112.38547 93.9927A.47625 .47625 0 00111.43298 93.9927A.47625 .47625 0 00112.38547 93.9927z" fill="rgba(255,0,0,.24705882)"/><path d="M56.492775 98.231325L56.63565 85.372575" style="fill:none;stroke:rgba(255,0,0,.24705882);stroke-width:.09525;stroke-miterlimit:41.994751"/><path d="M103.29863 64.8462L89.4588 88.401525" style="fill:none;stroke:rgba(255,0,0,.24705882);stroke-width:.09525;stroke-miterlimit:41.994751"/><path d="M111.90923 93.9927L103.29863 64.8462" style="fill:none;stroke:rgba(255,0,0,.24705882);stroke-width:.09525;stroke-miterlimit:41.994751"/><path d="M100.965 91.487625L103.29863 64.8462" style="fill:none;stroke:rgba(255,0,0,.24705882);stroke-width:.09525;stroke-miterlimit:41.994751"/><path d="M100.965 91.487625L99.774375 100.5078" style="fill:none;stroke:rgba(255,0,0,.24705882);stroke-width:.09525;stroke-miterlimit:41.994751"/><path d="M100.965 91.487625L111.90923 93.9927" style="fill:none;stroke:rgba(255,0,0,.24705882);stroke-width:.09525;stroke-miterlimit:41.994751"/><path d="M72.418575 84.762975L89.4588 88.401525" style="fill:none;stroke:rgba(255,0,0,.24705882);stroke-width:.09525;stroke-miterlimit:41.994751"/><path d="M72.418575 84.762975L72.1233 97.678875" style="fill:none;stroke:rgba(255,0,0,.24705882);stroke-width:.09525;stroke-miterlimit:41.994751"/><path d="M56.63565 85.372575L72.418575 84.762975" style="fill:none;stroke:rgba(255,0,0,.24705882);stroke-width:.09525;stroke-miterlimit:41.994751"/><path d="M99.774375 100.5078L89.4588 88.401525" style="fill:none;stroke:rgba(255,0,0,.24705882);stroke-width:.09525;stroke-miterlimit:41.994751"/><path d="M72.1233 97.678875L89.4588 88.401525" style="fill:none;stroke:rgba(255,0,0,.24705882);stroke-width:.09525;stroke-miterlimit:41.994751"/><path d="M100.965 91.487625L89.4588 88.401525" style="fill:none;stroke:rgba(255,0,0,.24705882);stroke-width:.09525;stroke-miterlimit:41.994751"/><path d="M72.1233 97.678875L62.7888 97.736025" style="fill:none;stroke:rgba(250,0,4,.24705882);stroke-width:.09525;stroke-miterlimit:41.994751"/><path d="M111.90923 93.9927L111.33773 99.91725" style="fill:none;stroke:rgba(250,0,4,.24705882);stroke-width:.09525;stroke-miterlimit:41.994751"/><path d="M62.484 100.86975H63.37935V94.77375H62.484z" style="fill:rgba(246,0,8,.24705882);stroke:rgba(246,0,8,.24705882);stroke-width:.09525;stroke-miterlimit:41.994751"/><path d="M63.26505 97.736025A.47625 .47625 0 0062.31255 97.736025A.47625 .47625 0 0063.26505 97.736025z" fill="rgba(246,0,8,.24705882)"/><path d="M105.45128 100.4697H117.63375V99.583875H105.45128z" style="fill:rgba(246,0,8,.24705882);stroke:rgba(246,0,8,.24705882);stroke-width:.09525;stroke-miterlimit:41.994751"/><path d="M111.81397 99.91725A.47625 .47625 0 00110.86148 99.91725A.47625 .47625 0 00111.81397 99.91725z" fill="rgba(246,0,8,.24705882)"/><path d="M103.29863 64.8462L107.27055 56.63565" style="fill:none;stroke:rgba(242,0,12,.24705882);stroke-width:.09525;stroke-miterlimit:41.994751"/><path d="M60.988575 97.74555L62.7888 97.736025" style="fill:none;stroke:rgba(238,0,16,.24705882);stroke-width:.09525;stroke-miterlimit:41.994751"/><path d="M111.33773 99.91725L111.28057 101.81273" style="fill:none;stroke:rgba(238,0,16,.24705882);stroke-width:.09525;stroke-miterlimit:41.994751"/><path d="M60.6552 100.86975H61.55055V94.77375H60.6552z" style="fill:rgba(230,0,24,.24705882);stroke:rgba(230,0,24,.24705882);stroke-width:.09525;stroke-miterlimit:41.994751"/><path d="M61.464825 97.74555A.47625 .47625 0 0060.512325 97.74555A.47625 .47625 0 0061.464825 97.74555z" fill="rgba(230,0,24,.24705882)"/><path d="M105.47033 102.2985H117.63375V101.35553H105.47033z" style="fill:rgba(230,0,24,.24705882);stroke:rgba(230,0,24,.24705882);stroke-width:.09525;stroke-miterlimit:41.994751"/><path d="M111.75682 101.81273A.47625 .47625 0 00110.80433 101.81273A.47625 .47625 0 00111.75682 101.81273z" fill="rgba(230,0,24,.24705882)"/><path d="M102.21278 58.46445H108.94695V52.67325H102.21278z" style="fill:rgba(226,0,28,.24705882);stroke:rgba(226,0,28,.24705882);stroke-width:.09525;stroke-miterlimit:41.994751"/><path d="M107.7468 56.63565A.47625 .47625 0 00106.7943 56.63565A.47625 .47625 0 00107.7468 56.63565z" fill="rgba(226,0,28,.24705882)"/><path d="M111.98543 62.017275L107.27055 56.63565" style="fill:none;stroke:rgba(222,0,32,.24705882);stroke-width:.09525;stroke-miterlimit:41.994751"/><path d="M58.42635 97.526475L60.988575 97.74555" style="fill:none;stroke:rgba(222,0,32,.24705882);stroke-width:.09525;stroke-miterlimit:41.994751"/><path d="M111.28057 101.81273L111.69968 104.47973" style="fill:none;stroke:rgba(218,0,32,.24705882);stroke-width:.09525;stroke-miterlimit:41.994751"/><path d="M112.46167 62.017275A.47625 .47625 0 00111.50918 62.017275A.47625 .47625 0 00112.46167 62.017275z" fill="rgba(218,0,32,.24705882)"/><path d="M107.27055 56.63565L102.0318 55.349775" style="fill:none;stroke:rgba(210,0,40,.24705882);stroke-width:.09525;stroke-miterlimit:41.994751"/><path d="M105.44175 104.9655H117.63375V104.07968H105.44175z" style="fill:rgba(210,0,44,.24705882);stroke:rgba(210,0,44,.24705882);stroke-width:.09525;stroke-miterlimit:41.994751"/><path d="M112.17593 104.47973A.47625 .47625 0 00111.22343 104.47973A.47625 .47625 0 00112.17593 104.47973z" fill="rgba(210,0,44,.24705882)"/><path d="M57.940575 100.86975H59.1312V94.77375H57.940575z" style="fill:rgba(210,0,44,.24705882);stroke:rgba(210,0,44,.24705882);stroke-width:.09525;stroke-miterlimit:41.994751"/><path d="M58.9026 97.526475A.47625 .47625 0 0057.9501 97.526475A.47625 .47625 0 0058.9026 97.526475z" fill="rgba(210,0,44,.24705882)"/><path d="M78.77175 69.027675H81.924525V58.1787H78.77175z" style="fill:rgba(206,0,48,.24705882);stroke:rgba(206,0,48,.24705882);stroke-width:.09525;stroke-miterlimit:41.994751"/><path d="M81.962625 58.50255A.47625 .47625 0 0081.010125 58.50255A.47625 .47625 0 0081.962625 58.50255z" fill="rgba(206,0,48,.24705882)"/><path d="M85.24875 55.79745L81.486375 58.50255" style="fill:none;stroke:rgba(206,0,48,.24705882);stroke-width:.09525;stroke-miterlimit:41.994751"/><path d="M85.143975 56.473725H91.563825V52.67325H85.143975z" style="fill:rgba(202,0,48,.24705882);stroke:rgba(202,0,48,.24705882);stroke-width:.09525;stroke-miterlimit:41.994751"/><path d="M85.725 55.79745A.47625 .47625 0 0084.7725 55.79745A.47625 .47625 0 0085.725 55.79745z" fill="rgba(202,0,48,.24705882)"/><path d="M102.0318 55.349775L85.24875 55.79745" style="fill:none;stroke:rgba(202,0,52,.24705882);stroke-width:.09525;stroke-miterlimit:41.994751"/><path d="M111.69968 104.47973L111.46155 107.15625" style="fill:none;stroke:rgba(198,0,56,.24705882);stroke-width:.09525;stroke-miterlimit:41.994751"/><path d="M91.811475 56.473725H102.21278V52.67325H91.811475z" style="fill:rgba(198,0,56,.24705882);stroke:rgba(198,0,56,.24705882);stroke-width:.09525;stroke-miterlimit:41.994751"/><path d="M102.50805 55.349775A.47625 .47625 0 00101.55555 55.349775A.47625 .47625 0 00102.50805 55.349775z" fill="rgba(198,0,56,.24705882)"/><path d="M54.80685 97.640775L58.42635 97.526475" style="fill:none;stroke:rgba(194,0,56,.24705882);stroke-width:.09525;stroke-miterlimit:41.994751"/><path d="M105.44175 107.66107H117.63375V106.7943H105.44175z" style="fill:rgba(190,0,64,.24705882);stroke:rgba(190,0,64,.24705882);stroke-width:.09525;stroke-miterlimit:41.994751"/><path d="M111.9378 107.15625A.47625 .47625 0 00110.9853 107.15625A.47625 .47625 0 00111.9378 107.15625z" fill="rgba(190,0,64,.24705882)"/><path d="M54.282975 100.86975H55.178325V94.77375H54.282975z" style="fill:rgba(182,0,72,.24705882);stroke:rgba(182,0,72,.24705882);stroke-width:.09525;stroke-miterlimit:41.994751"/><path d="M55.2831 97.640775A.47625 .47625 0 0054.3306 97.640775A.47625 .47625 0 0055.2831 97.640775z" fill="rgba(182,0,72,.24705882)"/><path d="M111.46155 107.15625L111.8235 109.9947" style="fill:none;stroke:rgba(178,0,76,.24705882);stroke-width:.09525;stroke-miterlimit:41.994751"/><path d="M52.86375 97.507425L54.80685 97.640775" style="fill:none;stroke:rgba(174,0,80,.24705882);stroke-width:.09525;stroke-miterlimit:41.994751"/><path d="M105.44175 110.36618H117.63375V109.4994H105.44175z" style="fill:rgba(165,0,85,.24705882);stroke:rgba(165,0,85,.24705882);stroke-width:.09525;stroke-miterlimit:41.994751"/><path d="M112.29975 109.9947A.47625 .47625 0 00111.34725 109.9947A.47625 .47625 0 00112.29975 109.9947z" fill="rgba(165,0,85,.24705882)"/><path d="M52.4637 100.86975H53.349525V94.77375H52.4637z" style="fill:rgba(165,0,85,.24705882);stroke:rgba(165,0,85,.24705882);stroke-width:.09525;stroke-miterlimit:41.994751"/><path d="M53.34 97.507425A.47625 .47625 0 0052.3875 97.507425A.47625 .47625 0 0053.34 97.507425z" fill="rgba(165,0,85,.24705882)"/><path d="M111.8235 109.9947V113.12843" style="fill:none;stroke:rgba(157,0,97,.24705882);stroke-width:.09525;stroke-miterlimit:41.994751"/><path d="M53.81625 92.973525L52.86375 97.507425" style="fill:none;stroke:rgba(153,0,101,.24705882);stroke-width:.09525;stroke-miterlimit:41.994751"/><path d="M54.4449 102.09848L52.86375 97.507425" style="fill:none;stroke:rgba(153,0,101,.24705882);stroke-width:.09525;stroke-miterlimit:41.994751"/><path d="M47.52975 133.25475H105.06075V103.91775H47.52975z" style="fill:rgba(145,0,109,.24705882);stroke:rgba(145,0,109,.24705882);stroke-width:.09525;stroke-miterlimit:41.994751"/><path d="M68.494275 118.97678A.47625 .47625 0 0067.541775 118.97678A.47625 .47625 0 0068.494275 118.97678z" fill="rgba(145,0,109,.24705882)"/><path d="M143.91323 149.34248A.47625 .47625 0 00142.96073 149.34248A.47625 .47625 0 00143.91323 149.34248z" fill="rgba(145,0,109,.24705882)"/><path d="M105.44175 114.58575H117.63375V103.91775H105.44175z" style="fill:rgba(145,0,109,.24705882);stroke:rgba(145,0,109,.24705882);stroke-width:.09525;stroke-miterlimit:41.994751"/><path d="M112.29975 113.12843A.47625 .47625 0 00111.34725 113.12843A.47625 .47625 0 00112.29975 113.12843z" fill="rgba(145,0,109,.24705882)"/><path d="M128.30175 146.38972H145.52295V134.77875H128.30175z" style="fill:rgba(145,0,109,.24705882);stroke:rgba(145,0,109,.24705882);stroke-width:.09525;stroke-miterlimit:41.994751"/><path d="M133.96912 142.29398A.47625 .47625 0 00133.01663 142.29398A.47625 .47625 0 00133.96912 142.29398z" fill="rgba(145,0,109,.24705882)"/><path d="M128.30175 193.83375H136.6647V186.03277H128.30175z" style="fill:rgba(145,0,109,.24705882);stroke:rgba(145,0,109,.24705882);stroke-width:.09525;stroke-miterlimit:41.994751"/><path d="M132.71182 189.2427A.47625 .47625 0 00131.75932 189.2427A.47625 .47625 0 00132.71182 189.2427z" fill="rgba(145,0,109,.24705882)"/><path d="M158.78175 146.3802H181.64175V133.25475H158.78175z" style="fill:rgba(145,0,109,.24705882);stroke:rgba(145,0,109,.24705882);stroke-width:.09525;stroke-miterlimit:41.994751"/><path d="M172.06912 139.43648A.47625 .47625 0 00171.11662 139.43648A.47625 .47625 0 00172.06912 139.43648z" fill="rgba(145,0,109,.24705882)"/><path d="M67.15125 28.86075H76.29525V.28575H67.15125z" style="fill:rgba(145,0,109,.24705882);stroke:rgba(145,0,109,.24705882);stroke-width:.09525;stroke-miterlimit:41.994751"/><path d="M72.0852 20.51685A.47625 .47625 0 0071.1327 20.51685A.47625 .47625 0 0072.0852 20.51685z" fill="rgba(145,0,109,.24705882)"/><path d="M76.29525 28.86075H118.58625V.28575H76.29525z" style="fill:rgba(145,0,109,.24705882);stroke:rgba(145,0,109,.24705882);stroke-width:.09525;stroke-miterlimit:41.994751"/><path d="M92.6973 14.478A.47625 .47625 0 0091.7448 14.478A.47625 .47625 0 0092.6973 14.478z" fill="rgba(145,0,109,.24705882)"/><path d="M165.3159 182.6133A.47625 .47625 0 00164.3634 182.6133A.47625 .47625 0 00165.3159 182.6133z" fill="rgba(145,0,109,.24705882)"/><path d="M166.1541 149.48535A.47625 .47625 0 00165.2016 149.48535A.47625 .47625 0 00166.1541 149.48535z" fill="rgba(145,0,109,.24705882)"/><path d="M.28575 133.25475H47.52975V103.91775H.28575z" style="fill:rgba(145,0,109,.24705882);stroke:rgba(145,0,109,.24705882);stroke-width:.09525;stroke-miterlimit:41.994751"/><path d="M43.49115 113.28083A.47625 .47625 0 0042.53865 113.28083A.47625 .47625 0 0043.49115 113.28083z" fill="rgba(145,0,109,.24705882)"/><path d="M140.08418 183.57532A.47625 .47625 0 00139.13168 183.57532A.47625 .47625 0 00140.08418 183.57532z" fill="rgba(145,0,109,.24705882)"/><path d="M145.4277 184.04205A.47625 .47625 0 00144.4752 184.04205A.47625 .47625 0 00145.4277 184.04205z" fill="rgba(145,0,109,.24705882)"/><path d="M163.24898 193.83375H181.64175V185.84228H163.24898z" style="fill:rgba(145,0,109,.24705882);stroke:rgba(145,0,109,.24705882);stroke-width:.09525;stroke-miterlimit:41.994751"/><path d="M174.13605 189.90945A.47625 .47625 0 00173.18355 189.90945A.47625 .47625 0 00174.13605 189.90945z" fill="rgba(145,0,109,.24705882)"/><path d="M118.58625 133.25475H158.78175V103.91775H118.58625z" style="fill:rgba(145,0,109,.24705882);stroke:rgba(145,0,109,.24705882);stroke-width:.09525;stroke-miterlimit:41.994751"/><path d="M130.35915 119.64353A.47625 .47625 0 00129.40665 119.64353A.47625 .47625 0 00130.35915 119.64353z" fill="rgba(145,0,109,.24705882)"/><path d="M165.66832 177.34598A.47625 .47625 0 00164.71582 177.34598A.47625 .47625 0 00165.66832 177.34598z" fill="rgba(145,0,109,.24705882)"/><path d="M136.73138 193.83375H163.2585V185.95658H136.73138z" style="fill:rgba(145,0,109,.24705882);stroke:rgba(145,0,109,.24705882);stroke-width:.09525;stroke-miterlimit:41.994751"/><path d="M152.00948 189.49988A.47625 .47625 0 00151.05698 189.49988A.47625 .47625 0 00152.00948 189.49988z" fill="rgba(145,0,109,.24705882)"/><path d="M105.06075 133.25475H118.58625V114.96675H105.06075z" style="fill:rgba(145,0,109,.24705882);stroke:rgba(145,0,109,.24705882);stroke-width:.09525;stroke-miterlimit:41.994751"/><path d="M112.33785 120.0531A.47625 .47625 0 00111.38535 120.0531A.47625 .47625 0 00112.33785 120.0531z" fill="rgba(145,0,109,.24705882)"/><path d="M141.72248 153.9621A.47625 .47625 0 00140.76998 153.9621A.47625 .47625 0 00141.72248 153.9621z" fill="rgba(145,0,109,.24705882)"/><path d="M140.07465 161.82022A.47625 .47625 0 00139.12215 161.82022A.47625 .47625 0 00140.07465 161.82022z" fill="rgba(145,0,109,.24705882)"/><path d="M128.30175 185.95658H136.76947V146.55165H128.30175z" style="fill:rgba(145,0,109,.24705882);stroke:rgba(145,0,109,.24705882);stroke-width:.09525;stroke-miterlimit:41.994751"/><path d="M133.2738 152.60003A.47625 .47625 0 00132.3213 152.60003A.47625 .47625 0 00133.2738 152.60003z" fill="rgba(145,0,109,.24705882)"/><path d="M.28575 59.15025H67.15125V.28575H.28575z" style="fill:rgba(145,0,109,.24705882);stroke:rgba(145,0,109,.24705882);stroke-width:.09525;stroke-miterlimit:41.994751"/><path d="M55.121175 41.690925A.47625 .47625 0 0054.168675 41.690925A.47625 .47625 0 0055.121175 41.690925z" fill="rgba(145,0,109,.24705882)"/><path d="M158.78175 133.25475H181.64175V31.975425H158.78175z" style="fill:rgba(145,0,109,.24705882);stroke:rgba(145,0,109,.24705882);stroke-width:.09525;stroke-miterlimit:41.994751"/><path d="M170.60227 122.29148A.47625 .47625 0 00169.64978 122.29148A.47625 .47625 0 00170.60227 122.29148z" fill="rgba(145,0,109,.24705882)"/><path d="M145.6182 146.56117H158.78175V134.77875H145.6182z" style="fill:rgba(145,0,109,.24705882);stroke:rgba(145,0,109,.24705882);stroke-width:.09525;stroke-miterlimit:41.994751"/><path d="M153.21915 140.0937A.47625 .47625 0 00152.26665 140.0937A.47625 .47625 0 00153.21915 140.0937z" fill="rgba(145,0,109,.24705882)"/><path d="M168.18293 185.52795H181.64175V146.5707H168.18293z" style="fill:rgba(145,0,109,.24705882);stroke:rgba(145,0,109,.24705882);stroke-width:.09525;stroke-miterlimit:41.994751"/><path d="M175.2219 156.23857A.47625 .47625 0 00174.2694 156.23857A.47625 .47625 0 00175.2219 156.23857z" fill="rgba(145,0,109,.24705882)"/><path d="M118.58625 103.91775H158.78175V28.86075H118.58625z" style="fill:rgba(145,0,109,.24705882);stroke:rgba(145,0,109,.24705882);stroke-width:.09525;stroke-miterlimit:41.994751"/><path d="M132.86422 72.3138A.47625 .47625 0 00131.91172 72.3138A.47625 .47625 0 00132.86422 72.3138z" fill="rgba(145,0,109,.24705882)"/><path d="M.28575 103.90823H38.38575V59.15025H.28575z" style="fill:rgba(145,0,109,.24705882);stroke:rgba(145,0,109,.24705882);stroke-width:.09525;stroke-miterlimit:41.994751"/><path d="M19.2405 90.573225A.47625 .47625 0 0018.288 90.573225A.47625 .47625 0 0019.2405 90.573225z" fill="rgba(145,0,109,.24705882)"/><path d="M118.58625 28.86075H153.99068V.28575H118.58625z" style="fill:rgba(145,0,109,.24705882);stroke:rgba(145,0,109,.24705882);stroke-width:.09525;stroke-miterlimit:41.994751"/><path d="M124.94895 23.1648A.47625 .47625 0 00123.99645 23.1648A.47625 .47625 0 00124.94895 23.1648z" fill="rgba(145,0,109,.24705882)"/><path d="M166.27792 173.61218A.47625 .47625 0 00165.32542 173.61218A.47625 .47625 0 00166.27792 173.61218z" fill="rgba(145,0,109,.24705882)"/><path d="M71.60895 20.51685L92.22105 14.478" style="fill:none;stroke:rgba(145,0,109,.24705882);stroke-width:.09525;stroke-miterlimit:41.994751"/><path d="M174.74565 156.23857L165.80167 173.61218" style="fill:none;stroke:rgba(145,0,109,.24705882);stroke-width:.09525;stroke-miterlimit:41.994751"/><path d="M170.12602 122.29148L132.38797 72.3138" style="fill:none;stroke:rgba(145,0,109,.24705882);stroke-width:.09525;stroke-miterlimit:41.994751"/><path d="M129.8829 119.64353L132.38797 72.3138" style="fill:none;stroke:rgba(145,0,109,.24705882);stroke-width:.09525;stroke-miterlimit:41.994751"/><path d="M129.8829 119.64353L170.12602 122.29148" style="fill:none;stroke:rgba(145,0,109,.24705882);stroke-width:.09525;stroke-miterlimit:41.994751"/><path d="M111.8616 120.0531L129.8829 119.64353" style="fill:none;stroke:rgba(145,0,109,.24705882);stroke-width:.09525;stroke-miterlimit:41.994751"/><path d="M165.80167 173.61218L165.19207 177.34598" style="fill:none;stroke:rgba(145,0,109,.24705882);stroke-width:.09525;stroke-miterlimit:41.994751"/><path d="M141.24623 153.9621L139.5984 161.82022" style="fill:none;stroke:rgba(145,0,109,.24705882);stroke-width:.09525;stroke-miterlimit:41.994751"/><path d="M141.24623 153.9621L132.79755 152.60003" style="fill:none;stroke:rgba(145,0,109,.24705882);stroke-width:.09525;stroke-miterlimit:41.994751"/><path d="M143.43698 149.34248L141.24623 153.9621" style="fill:none;stroke:rgba(145,0,109,.24705882);stroke-width:.09525;stroke-miterlimit:41.994751"/><path d="M143.43698 149.34248L133.49287 142.29398" style="fill:none;stroke:rgba(145,0,109,.24705882);stroke-width:.09525;stroke-miterlimit:41.994751"/><path d="M144.95145 184.04205L139.60793 183.57532" style="fill:none;stroke:rgba(145,0,109,.24705882);stroke-width:.09525;stroke-miterlimit:41.994751"/><path d="M139.60793 183.57532L132.23557 189.2427" style="fill:none;stroke:rgba(145,0,109,.24705882);stroke-width:.09525;stroke-miterlimit:41.994751"/><path d="M139.60793 183.57532L151.53323 189.49988" style="fill:none;stroke:rgba(145,0,109,.24705882);stroke-width:.09525;stroke-miterlimit:41.994751"/><path d="M43.0149 113.28083L68.018025 118.97678" style="fill:none;stroke:rgba(145,0,109,.24705882);stroke-width:.09525;stroke-miterlimit:41.994751"/><path d="M165.19207 177.34598L164.83965 182.6133" style="fill:none;stroke:rgba(145,0,109,.24705882);stroke-width:.09525;stroke-miterlimit:41.994751"/><path d="M165.19207 177.34598L174.74565 156.23857" style="fill:none;stroke:rgba(145,0,109,.24705882);stroke-width:.09525;stroke-miterlimit:41.994751"/><path d="M165.19207 177.34598L173.6598 189.90945" style="fill:none;stroke:rgba(145,0,109,.24705882);stroke-width:.09525;stroke-miterlimit:41.994751"/><path d="M164.83965 182.6133L173.6598 189.90945" style="fill:none;stroke:rgba(145,0,109,.24705882);stroke-width:.09525;stroke-miterlimit:41.994751"/><path d="M133.49287 142.29398L141.24623 153.9621" style="fill:none;stroke:rgba(145,0,109,.24705882);stroke-width:.09525;stroke-miterlimit:41.994751"/><path d="M165.67785 149.48535L171.59287 139.43648" style="fill:none;stroke:rgba(145,0,109,.24705882);stroke-width:.09525;stroke-miterlimit:41.994751"/><path d="M165.67785 149.48535L174.74565 156.23857" style="fill:none;stroke:rgba(145,0,109,.24705882);stroke-width:.09525;stroke-miterlimit:41.994751"/><path d="M132.38797 72.3138L124.4727 23.1648" style="fill:none;stroke:rgba(145,0,109,.24705882);stroke-width:.09525;stroke-miterlimit:41.994751"/><path d="M133.49287 142.29398L152.7429 140.0937" style="fill:none;stroke:rgba(145,0,109,.24705882);stroke-width:.09525;stroke-miterlimit:41.994751"/><path d="M68.018025 118.97678L111.8616 120.0531" style="fill:none;stroke:rgba(145,0,109,.24705882);stroke-width:.09525;stroke-miterlimit:41.994751"/><path d="M132.23557 189.2427L144.95145 184.04205" style="fill:none;stroke:rgba(145,0,109,.24705882);stroke-width:.09525;stroke-miterlimit:41.994751"/><path d="M132.23557 189.2427L132.79755 152.60003" style="fill:none;stroke:rgba(145,0,109,.24705882);stroke-width:.09525;stroke-miterlimit:41.994751"/><path d="M54.644925 41.690925L71.60895 20.51685" style="fill:none;stroke:rgba(145,0,109,.24705882);stroke-width:.09525;stroke-miterlimit:41.994751"/><path d="M171.59287 139.43648L170.12602 122.29148" style="fill:none;stroke:rgba(145,0,109,.24705882);stroke-width:.09525;stroke-miterlimit:41.994751"/><path d="M171.59287 139.43648L174.74565 156.23857" style="fill:none;stroke:rgba(145,0,109,.24705882);stroke-width:.09525;stroke-miterlimit:41.994751"/><path d="M54.644925 41.690925L18.76425 90.573225" style="fill:none;stroke:rgba(145,0,109,.24705882);stroke-width:.09525;stroke-miterlimit:41.994751"/><path d="M173.6598 189.90945L151.53323 189.49988" style="fill:none;stroke:rgba(145,0,109,.24705882);stroke-width:.09525;stroke-miterlimit:41.994751"/><path d="M173.6598 189.90945L174.74565 156.23857" style="fill:none;stroke:rgba(145,0,109,.24705882);stroke-width:.09525;stroke-miterlimit:41.994751"/><path d="M151.53323 189.49988L132.23557 189.2427" style="fill:none;stroke:rgba(145,0,109,.24705882);stroke-width:.09525;stroke-miterlimit:41.994751"/><path d="M151.53323 189.49988L144.95145 184.04205" style="fill:none;stroke:rgba(145,0,109,.24705882);stroke-width:.09525;stroke-miterlimit:41.994751"/><path d="M92.22105 14.478L124.4727 23.1648" style="fill:none;stroke:rgba(145,0,109,.24705882);stroke-width:.09525;stroke-miterlimit:41.994751"/><path d="M18.76425 90.573225L43.0149 113.28083" style="fill:none;stroke:rgba(145,0,109,.24705882);stroke-width:.09525;stroke-miterlimit:41.994751"/><path d="M132.79755 152.60003L133.49287 142.29398" style="fill:none;stroke:rgba(145,0,109,.24705882);stroke-width:.09525;stroke-miterlimit:41.994751"/><path d="M132.79755 152.60003L139.5984 161.82022" style="fill:none;stroke:rgba(145,0,109,.24705882);stroke-width:.09525;stroke-miterlimit:41.994751"/><path d="M152.7429 140.0937L171.59287 139.43648" style="fill:none;stroke:rgba(145,0,109,.24705882);stroke-width:.09525;stroke-miterlimit:41.994751"/><path d="M111.8235 113.12843L111.8616 120.0531" style="fill:none;stroke:rgba(145,0,109,.24705882);stroke-width:.09525;stroke-miterlimit:41.994751"/><path d="M165.67785 149.48535L158.16262 149.90445" style="fill:none;stroke:rgba(145,0,109,.24705882);stroke-width:.09525;stroke-miterlimit:41.994751"/><path d="M158.16262 149.90445L152.7429 140.0937" style="fill:none;stroke:rgba(145,0,109,.24705882);stroke-width:.09525;stroke-miterlimit:41.994751"/><path d="M158.16262 149.90445L171.59287 139.43648" style="fill:none;stroke:rgba(145,0,109,.24705882);stroke-width:.09525;stroke-miterlimit:41.994751"/><path d="M49.253775 97.51695L52.86375 97.507425" style="fill:none;stroke:rgba(145,0,109,.24705882);stroke-width:.09525;stroke-miterlimit:41.994751"/><path d="M158.63887 149.90445A.47625 .47625 0 00157.68637 149.90445A.47625 .47625 0 00158.63887 149.90445z" fill="rgba(145,0,109,.24705882)"/><path d="M144.63713 181.1274H160.6677V151.35225H144.63713z" style="fill:rgba(145,0,109,.24705882);stroke:rgba(145,0,109,.24705882);stroke-width:.09525;stroke-miterlimit:41.994751"/><path d="M153.60015 165.18255A.47625 .47625 0 00152.64765 165.18255A.47625 .47625 0 00153.60015 165.18255z" fill="rgba(145,0,109,.24705882)"/><path d="M148.26615 149.4663A.47625 .47625 0 00147.31365 149.4663A.47625 .47625 0 00148.26615 149.4663z" fill="rgba(145,0,109,.24705882)"/><path d="M141.85582 176.7459A.47625 .47625 0 00140.90332 176.7459A.47625 .47625 0 00141.85582 176.7459z" fill="rgba(145,0,109,.24705882)"/><path d="M158.01022 183.36577A.47625 .47625 0 00157.05773 183.36577A.47625 .47625 0 00158.01022 183.36577z" fill="rgba(145,0,109,.24705882)"/><path d="M165.2778 155.1051A.47625 .47625 0 00164.3253 155.1051A.47625 .47625 0 00165.2778 155.1051z" fill="rgba(145,0,109,.24705882)"/><path d="M142.70355 171.96435A.47625 .47625 0 00141.75105 171.96435A.47625 .47625 0 00142.70355 171.96435z" fill="rgba(145,0,109,.24705882)"/><path d="M154.82887 182.8419A.47625 .47625 0 00153.87637 182.8419A.47625 .47625 0 00154.82887 182.8419z" fill="rgba(145,0,109,.24705882)"/><path d="M164.3253 160.5915A.47625 .47625 0 00163.3728 160.5915A.47625 .47625 0 00164.3253 160.5915z" fill="rgba(145,0,109,.24705882)"/><path d="M164.80155 155.1051L153.1239 165.18255" style="fill:none;stroke:rgba(145,0,109,.24705882);stroke-width:.09525;stroke-miterlimit:41.994751"/><path d="M18.76425 90.573225L42.110025 76.10475" style="fill:none;stroke:rgba(145,0,109,.24705882);stroke-width:.09525;stroke-miterlimit:41.994751"/><path d="M163.84905 160.5915L164.80155 155.1051" style="fill:none;stroke:rgba(145,0,109,.24705882);stroke-width:.09525;stroke-miterlimit:41.994751"/><path d="M154.35262 182.8419L157.53397 183.36577" style="fill:none;stroke:rgba(145,0,109,.24705882);stroke-width:.09525;stroke-miterlimit:41.994751"/><path d="M154.35262 182.8419L153.1239 165.18255" style="fill:none;stroke:rgba(145,0,109,.24705882);stroke-width:.09525;stroke-miterlimit:41.994751"/><path d="M71.4756 46.57725L71.60895 20.51685" style="fill:none;stroke:rgba(145,0,109,.24705882);stroke-width:.09525;stroke-miterlimit:41.994751"/><path d="M71.4756 46.57725L54.644925 41.690925" style="fill:none;stroke:rgba(145,0,109,.24705882);stroke-width:.09525;stroke-miterlimit:41.994751"/><path d="M142.2273 171.96435L153.1239 165.18255" style="fill:none;stroke:rgba(145,0,109,.24705882);stroke-width:.09525;stroke-miterlimit:41.994751"/><path d="M43.0149 113.28083L43.386375 97.9551" style="fill:none;stroke:rgba(145,0,109,.24705882);stroke-width:.09525;stroke-miterlimit:41.994751"/><path d="M141.37957 176.7459L142.2273 171.96435" style="fill:none;stroke:rgba(145,0,109,.24705882);stroke-width:.09525;stroke-miterlimit:41.994751"/><path d="M120.32932 53.997225L132.38797 72.3138" style="fill:none;stroke:rgba(145,0,109,.24705882);stroke-width:.09525;stroke-miterlimit:41.994751"/><path d="M153.1239 165.18255L163.84905 160.5915" style="fill:none;stroke:rgba(145,0,109,.24705882);stroke-width:.09525;stroke-miterlimit:41.994751"/><path d="M43.14825 64.131825L54.644925 41.690925" style="fill:none;stroke:rgba(145,0,109,.24705882);stroke-width:.09525;stroke-miterlimit:41.994751"/><path d="M43.14825 64.131825L18.76425 90.573225" style="fill:none;stroke:rgba(145,0,109,.24705882);stroke-width:.09525;stroke-miterlimit:41.994751"/><path d="M153.1239 165.18255L157.53397 183.36577" style="fill:none;stroke:rgba(145,0,109,.24705882);stroke-width:.09525;stroke-miterlimit:41.994751"/><path d="M54.644925 41.690925L71.637525 63.465075" style="fill:none;stroke:rgba(145,0,109,.24705882);stroke-width:.09525;stroke-miterlimit:41.994751"/><path d="M54.644925 41.690925L56.969025 63.807975" style="fill:none;stroke:rgba(145,0,109,.24705882);stroke-width:.09525;stroke-miterlimit:41.994751"/><path d="M153.1239 165.18255L141.37957 176.7459" style="fill:none;stroke:rgba(145,0,109,.24705882);stroke-width:.09525;stroke-miterlimit:41.994751"/><path d="M153.1239 165.18255L147.7899 149.4663" style="fill:none;stroke:rgba(145,0,109,.24705882);stroke-width:.09525;stroke-miterlimit:41.994751"/><path d="M153.1239 165.18255L158.16262 149.90445" style="fill:none;stroke:rgba(145,0,109,.24705882);stroke-width:.09525;stroke-miterlimit:41.994751"/><path d="M18.76425 90.573225L43.14825 88.52535" style="fill:none;stroke:rgba(145,0,109,.24705882);stroke-width:.09525;stroke-miterlimit:41.994751"/><path d="M18.76425 90.573225L43.386375 97.9551" style="fill:none;stroke:rgba(145,0,109,.24705882);stroke-width:.09525;stroke-miterlimit:41.994751"/><path d="M95.23095 60.1218A.47625 .47625 0 0094.27845 60.1218A.47625 .47625 0 0095.23095 60.1218z" fill="rgba(141,0,113,.24705882)"/><path d="M48.358425 88.392A.47625 .47625 0 0047.405925 88.392A.47625 .47625 0 0048.358425 88.392z" fill="rgba(141,0,113,.24705882)"/><path d="M38.4048 103.87965H47.52975V90.973275H38.4048z" style="fill:rgba(141,0,113,.24705882);stroke:rgba(141,0,113,.24705882);stroke-width:.09525;stroke-miterlimit:41.994751"/><path d="M43.862625 97.9551A.47625 .47625 0 0042.910125 97.9551A.47625 .47625 0 0043.862625 97.9551z" fill="rgba(141,0,113,.24705882)"/><path d="M94.96425 68.29425H117.82425V48.006H94.96425z" style="fill:rgba(141,0,113,.24705882);stroke:rgba(141,0,113,.24705882);stroke-width:.09525;stroke-miterlimit:41.994751"/><path d="M108.04207 58.493025A.47625 .47625 0 00107.08958 58.493025A.47625 .47625 0 00108.04207 58.493025z" fill="rgba(141,0,113,.24705882)"/><path d="M58.95975 90.96375H66.57975V69.05625H58.95975z" style="fill:rgba(141,0,113,.24705882);stroke:rgba(141,0,113,.24705882);stroke-width:.09525;stroke-miterlimit:41.994751"/><path d="M61.01715 87.22995A.47625 .47625 0 0060.06465 87.22995A.47625 .47625 0 0061.01715 87.22995z" fill="rgba(141,0,113,.24705882)"/><path d="M38.395275 85.582125H47.52975V68.29425H38.395275z" style="fill:rgba(141,0,113,.24705882);stroke:rgba(141,0,113,.24705882);stroke-width:.09525;stroke-miterlimit:41.994751"/><path d="M42.586275 76.10475A.47625 .47625 0 0041.633775 76.10475A.47625 .47625 0 0042.586275 76.10475z" fill="rgba(141,0,113,.24705882)"/><path d="M67.15125 69.05625H76.29525V59.15025H67.15125z" style="fill:rgba(141,0,113,.24705882);stroke:rgba(141,0,113,.24705882);stroke-width:.09525;stroke-miterlimit:41.994751"/><path d="M72.113775 63.465075A.47625 .47625 0 0071.161275 63.465075A.47625 .47625 0 0072.113775 63.465075z" fill="rgba(141,0,113,.24705882)"/><path d="M38.38575 90.96375H47.52975V85.5726H38.38575z" style="fill:rgba(141,0,113,.24705882);stroke:rgba(141,0,113,.24705882);stroke-width:.09525;stroke-miterlimit:41.994751"/><path d="M43.6245 88.52535A.47625 .47625 0 0042.672 88.52535A.47625 .47625 0 0043.6245 88.52535z" fill="rgba(141,0,113,.24705882)"/><path d="M48.10125 94.77375H58.95975V90.96375H48.10125z" style="fill:rgba(141,0,113,.24705882);stroke:rgba(141,0,113,.24705882);stroke-width:.09525;stroke-miterlimit:41.994751"/><path d="M54.2925 92.973525A.47625 .47625 0 0053.34 92.973525A.47625 .47625 0 0054.2925 92.973525z" fill="rgba(141,0,113,.24705882)"/><path d="M47.52975 68.29425H67.15125V59.15025H47.52975z" style="fill:rgba(141,0,113,.24705882);stroke:rgba(141,0,113,.24705882);stroke-width:.09525;stroke-miterlimit:41.994751"/><path d="M57.445275 63.807975A.47625 .47625 0 0056.492775 63.807975A.47625 .47625 0 0057.445275 63.807975z" fill="rgba(141,0,113,.24705882)"/><path d="M58.95975 103.27957H66.57975V90.96375H58.95975z" style="fill:rgba(141,0,113,.24705882);stroke:rgba(141,0,113,.24705882);stroke-width:.09525;stroke-miterlimit:41.994751"/><path d="M63.0174 97.031175A.47625 .47625 0 0062.0649 97.031175A.47625 .47625 0 0063.0174 97.031175z" fill="rgba(141,0,113,.24705882)"/><path d="M75.72375 94.20225H94.39275V69.05625H75.72375z" style="fill:rgba(141,0,113,.24705882);stroke:rgba(141,0,113,.24705882);stroke-width:.09525;stroke-miterlimit:41.994751"/><path d="M86.286975 89.601675A.47625 .47625 0 0085.334475 89.601675A.47625 .47625 0 0086.286975 89.601675z" fill="rgba(141,0,113,.24705882)"/><path d="M48.10125 90.96375H58.95975V69.05625H48.10125z" style="fill:rgba(141,0,113,.24705882);stroke:rgba(141,0,113,.24705882);stroke-width:.09525;stroke-miterlimit:41.994751"/><path d="M54.416325 88.1253A.47625 .47625 0 0053.463825 88.1253A.47625 .47625 0 0054.416325 88.1253z" fill="rgba(141,0,113,.24705882)"/><path d="M75.72375 103.27957H94.39275V94.20225H75.72375z" style="fill:rgba(141,0,113,.24705882);stroke:rgba(141,0,113,.24705882);stroke-width:.09525;stroke-miterlimit:41.994751"/><path d="M86.953725 98.097975A.47625 .47625 0 0086.001225 98.097975A.47625 .47625 0 0086.953725 98.097975z" fill="rgba(141,0,113,.24705882)"/><path d="M67.160775 59.15025H76.29525V28.984575H67.160775z" style="fill:rgba(141,0,113,.24705882);stroke:rgba(141,0,113,.24705882);stroke-width:.09525;stroke-miterlimit:41.994751"/><path d="M71.95185 46.57725A.47625 .47625 0 0070.99935 46.57725A.47625 .47625 0 0071.95185 46.57725z" fill="rgba(141,0,113,.24705882)"/><path d="M48.10125 103.27957H58.95975V100.86975H48.10125z" style="fill:rgba(141,0,113,.24705882);stroke:rgba(141,0,113,.24705882);stroke-width:.09525;stroke-miterlimit:41.994751"/><path d="M54.92115 102.09848A.47625 .47625 0 0053.96865 102.09848A.47625 .47625 0 0054.92115 102.09848z" fill="rgba(141,0,113,.24705882)"/><path d="M66.57975 97.536H75.72375V69.05625H66.57975z" style="fill:rgba(141,0,113,.24705882);stroke:rgba(141,0,113,.24705882);stroke-width:.09525;stroke-miterlimit:41.994751"/><path d="M71.504175 88.71585A.47625 .47625 0 0070.551675 88.71585A.47625 .47625 0 0071.504175 88.71585z" fill="rgba(141,0,113,.24705882)"/><path d="M86.106 68.589525A.47625 .47625 0 0085.1535 68.589525A.47625 .47625 0 0086.106 68.589525z" fill="rgba(141,0,113,.24705882)"/><path d="M95.1738 96.707325A.47625 .47625 0 0094.2213 96.707325A.47625 .47625 0 0095.1738 96.707325z" fill="rgba(141,0,113,.24705882)"/><path d="M77.05725 68.29425H94.39275V51.26355H77.05725z" style="fill:rgba(141,0,113,.24705882);stroke:rgba(141,0,113,.24705882);stroke-width:.09525;stroke-miterlimit:41.994751"/><path d="M86.572725 60.3504A.47625 .47625 0 0085.620225 60.3504A.47625 .47625 0 0086.572725 60.3504z" fill="rgba(141,0,113,.24705882)"/><path d="M77.05725 51.14925H94.39275V29.62275H77.05725z" style="fill:rgba(141,0,113,.24705882);stroke:rgba(141,0,113,.24705882);stroke-width:.09525;stroke-miterlimit:41.994751"/><path d="M86.858475 40.59555A.47625 .47625 0 0085.905975 40.59555A.47625 .47625 0 0086.858475 40.59555z" fill="rgba(141,0,113,.24705882)"/><path d="M118.3005 57.43575H122.20575V50.587275H118.3005z" style="fill:rgba(141,0,113,.24705882);stroke:rgba(141,0,113,.24705882);stroke-width:.09525;stroke-miterlimit:41.994751"/><path d="M120.80557 53.997225A.47625 .47625 0 00119.85308 53.997225A.47625 .47625 0 00120.80557 53.997225z" fill="rgba(141,0,113,.24705882)"/><path d="M118.55768 54.102A.47625 .47625 0 00117.60518 54.102A.47625 .47625 0 00118.55768 54.102z" fill="rgba(141,0,113,.24705882)"/><path d="M94.96425 103.27957H117.82425V68.932425H94.96425z" style="fill:rgba(141,0,113,.24705882);stroke:rgba(141,0,113,.24705882);stroke-width:.09525;stroke-miterlimit:41.994751"/><path d="M104.013 97.1931A.47625 .47625 0 00103.0605 97.1931A.47625 .47625 0 00104.013 97.1931z" fill="rgba(141,0,113,.24705882)"/><path d="M95.240475 39.614475A.47625 .47625 0 0094.287975 39.614475A.47625 .47625 0 0095.240475 39.614475z" fill="rgba(141,0,113,.24705882)"/><path d="M38.38575 68.29425H47.52975V59.15025H38.38575z" style="fill:rgba(141,0,113,.24705882);stroke:rgba(141,0,113,.24705882);stroke-width:.09525;stroke-miterlimit:41.994751"/><path d="M43.6245 64.131825A.47625 .47625 0 0042.672 64.131825A.47625 .47625 0 0043.6245 64.131825z" fill="rgba(141,0,113,.24705882)"/><path d="M94.77375 47.244H117.82425V29.62275H94.77375z" style="fill:rgba(141,0,113,.24705882);stroke:rgba(141,0,113,.24705882);stroke-width:.09525;stroke-miterlimit:41.994751"/><path d="M107.69917 39.233475A.47625 .47625 0 00106.74668 39.233475A.47625 .47625 0 00107.69917 39.233475z" fill="rgba(141,0,113,.24705882)"/><path d="M118.08143 54.102L120.32932 53.997225" style="fill:none;stroke:rgba(141,0,113,.24705882);stroke-width:.09525;stroke-miterlimit:41.994751"/><path d="M85.62975 68.589525L85.810725 89.601675" style="fill:none;stroke:rgba(141,0,113,.24705882);stroke-width:.09525;stroke-miterlimit:41.994751"/><path d="M47.882175 88.392L43.14825 88.52535" style="fill:none;stroke:rgba(141,0,113,.24705882);stroke-width:.09525;stroke-miterlimit:41.994751"/><path d="M53.940075 88.1253L60.5409 87.22995" style="fill:none;stroke:rgba(141,0,113,.24705882);stroke-width:.09525;stroke-miterlimit:41.994751"/><path d="M94.764225 39.614475L86.382225 40.59555" style="fill:none;stroke:rgba(141,0,113,.24705882);stroke-width:.09525;stroke-miterlimit:41.994751"/><path d="M107.56583 58.493025L94.7547 60.1218" style="fill:none;stroke:rgba(141,0,113,.24705882);stroke-width:.09525;stroke-miterlimit:41.994751"/><path d="M107.22293 39.233475L94.764225 39.614475" style="fill:none;stroke:rgba(141,0,113,.24705882);stroke-width:.09525;stroke-miterlimit:41.994751"/><path d="M94.7547 60.1218L86.096475 60.3504" style="fill:none;stroke:rgba(141,0,113,.24705882);stroke-width:.09525;stroke-miterlimit:41.994751"/><path d="M71.637525 63.465075L71.4756 46.57725" style="fill:none;stroke:rgba(141,0,113,.24705882);stroke-width:.09525;stroke-miterlimit:41.994751"/><path d="M43.14825 64.131825L56.969025 63.807975" style="fill:none;stroke:rgba(141,0,113,.24705882);stroke-width:.09525;stroke-miterlimit:41.994751"/><path d="M42.110025 76.10475L43.14825 88.52535" style="fill:none;stroke:rgba(141,0,113,.24705882);stroke-width:.09525;stroke-miterlimit:41.994751"/><path d="M43.14825 64.131825L42.110025 76.10475" style="fill:none;stroke:rgba(141,0,113,.24705882);stroke-width:.09525;stroke-miterlimit:41.994751"/><path d="M47.882175 88.392L53.940075 88.1253" style="fill:none;stroke:rgba(141,0,113,.24705882);stroke-width:.09525;stroke-miterlimit:41.994751"/><path d="M118.08143 54.102L107.56583 58.493025" style="fill:none;stroke:rgba(141,0,113,.24705882);stroke-width:.09525;stroke-miterlimit:41.994751"/><path d="M86.382225 40.59555L86.096475 60.3504" style="fill:none;stroke:rgba(141,0,113,.24705882);stroke-width:.09525;stroke-miterlimit:41.994751"/><path d="M43.14825 88.52535L43.386375 97.9551" style="fill:none;stroke:rgba(141,0,113,.24705882);stroke-width:.09525;stroke-miterlimit:41.994751"/><path d="M56.969025 63.807975L71.637525 63.465075" style="fill:none;stroke:rgba(141,0,113,.24705882);stroke-width:.09525;stroke-miterlimit:41.994751"/><path d="M86.096475 60.3504L85.62975 68.589525" style="fill:none;stroke:rgba(141,0,113,.24705882);stroke-width:.09525;stroke-miterlimit:41.994751"/><path d="M94.69755 96.707325L103.53675 97.1931" style="fill:none;stroke:rgba(141,0,113,.24705882);stroke-width:.09525;stroke-miterlimit:41.994751"/><path d="M53.940075 88.1253L53.81625 92.973525" style="fill:none;stroke:rgba(141,0,113,.24705882);stroke-width:.09525;stroke-miterlimit:41.994751"/><path d="M85.810725 89.601675L71.027925 88.71585" style="fill:none;stroke:rgba(141,0,113,.24705882);stroke-width:.09525;stroke-miterlimit:41.994751"/><path d="M85.810725 89.601675L86.477475 98.097975" style="fill:none;stroke:rgba(141,0,113,.24705882);stroke-width:.09525;stroke-miterlimit:41.994751"/><path d="M62.54115 97.031175L60.5409 87.22995" style="fill:none;stroke:rgba(141,0,113,.24705882);stroke-width:.09525;stroke-miterlimit:41.994751"/><path d="M71.027925 88.71585L60.5409 87.22995" style="fill:none;stroke:rgba(141,0,113,.24705882);stroke-width:.09525;stroke-miterlimit:41.994751"/><path d="M86.477475 98.097975L94.69755 96.707325" style="fill:none;stroke:rgba(141,0,113,.24705882);stroke-width:.09525;stroke-miterlimit:41.994751"/><path d="M71.15175 100.6983L71.027925 88.71585" style="fill:none;stroke:rgba(141,0,113,.24705882);stroke-width:.09525;stroke-miterlimit:41.994751"/><path d="M68.86575 103.15575H73.43775V97.536H68.86575z" style="fill:rgba(141,0,113,.24705882);stroke:rgba(141,0,113,.24705882);stroke-width:.09525;stroke-miterlimit:41.994751"/><path d="M71.628 100.6983A.47625 .47625 0 0070.6755 100.6983A.47625 .47625 0 0071.628 100.6983z" fill="rgba(141,0,113,.24705882)"/><path d="M139.5984 161.82022L141.0462 164.35388" style="fill:none;stroke:rgba(133,0,121,.24705882);stroke-width:.09525;stroke-miterlimit:41.994751"/><path d="M141.0462 164.35388L132.79755 152.60003" style="fill:none;stroke:rgba(133,0,121,.24705882);stroke-width:.09525;stroke-miterlimit:41.994751"/><path d="M141.0462 164.35388L153.1239 165.18255" style="fill:none;stroke:rgba(133,0,121,.24705882);stroke-width:.09525;stroke-miterlimit:41.994751"/><path d="M119.98643 84.18195L132.38797 72.3138" style="fill:none;stroke:rgba(133,0,121,.24705882);stroke-width:.09525;stroke-miterlimit:41.994751"/><path d="M60.5409 87.22995L62.188725 68.71335" style="fill:none;stroke:rgba(129,0,125,.24705882);stroke-width:.09525;stroke-miterlimit:41.994751"/><path d="M62.188725 68.71335L56.969025 63.807975" style="fill:none;stroke:rgba(129,0,125,.24705882);stroke-width:.09525;stroke-miterlimit:41.994751"/><path d="M48.10125 100.86975H50.19675V94.77375H48.10125z" style="fill:rgba(125,0,129,.24705882);stroke:rgba(125,0,129,.24705882);stroke-width:.09525;stroke-miterlimit:41.994751"/><path d="M49.730025 97.51695A.47625 .47625 0 0048.777525 97.51695A.47625 .47625 0 0049.730025 97.51695z" fill="rgba(125,0,129,.24705882)"/><path d="M141.52245 164.35388A.47625 .47625 0 00140.56995 164.35388A.47625 .47625 0 00141.52245 164.35388z" fill="rgba(121,0,133,.24705882)"/><path d="M62.664975 68.71335A.47625 .47625 0 0061.712475 68.71335A.47625 .47625 0 0062.664975 68.71335z" fill="rgba(117,0,133,.24705882)"/><path d="M118.58625 85.429725H121.0056V82.419825H118.58625z" style="fill:rgba(117,0,133,.24705882);stroke:rgba(117,0,133,.24705882);stroke-width:.09525;stroke-miterlimit:41.994751"/><path d="M120.46268 84.18195A.47625 .47625 0 00119.51018 84.18195A.47625 .47625 0 00120.46268 84.18195z" fill="rgba(117,0,133,.24705882)"/><path d="M170.12602 122.29148L156.49575 155.66708" style="fill:none;stroke:rgba(93,0,161,.24705882);stroke-width:.09525;stroke-miterlimit:41.994751"/><path d="M70.894575 100.76497L71.15175 100.6983" style="fill:none;stroke:rgba(72,0,178,.24705882);stroke-width:.09525;stroke-miterlimit:41.994751"/><path d="M54.644925 41.690925L97.374075 86.039325" style="fill:none;stroke:rgba(72,0,182,.24705882);stroke-width:.09525;stroke-miterlimit:41.994751"/><path d="M129.8829 119.64353L97.374075 86.039325" style="fill:none;stroke:rgba(72,0,182,.24705882);stroke-width:.09525;stroke-miterlimit:41.994751"/><path d="M54.644925 41.690925L66.474975 86.134575" style="fill:none;stroke:rgba(72,0,182,.24705882);stroke-width:.09525;stroke-miterlimit:41.994751"/><path d="M54.644925 41.690925L97.40265 44.224575" style="fill:none;stroke:rgba(72,0,182,.24705882);stroke-width:.09525;stroke-miterlimit:41.994751"/><path d="M137.06475 185.65177H168.0972V146.58975H137.06475z" style="fill:rgba(40,0,214,.24705882);stroke:rgba(40,0,214,.24705882);stroke-width:.09525;stroke-miterlimit:41.994751"/><path d="M156.972 155.66708A.47625 .47625 0 00156.0195 155.66708A.47625 .47625 0 00156.972 155.66708z" fill="rgba(40,0,214,.24705882)"/><path d="M68.961 102.96525H73.3425V98.679H68.961z" style="fill:rgba(12,0,242,.24705882);stroke:rgba(12,0,242,.24705882);stroke-width:.09525;stroke-miterlimit:41.994751"/><path d="M71.942325 101.39363A.47625 .47625 0 0070.989825 101.39363A.47625 .47625 0 0071.942325 101.39363z" fill="rgba(12,0,242,.24705882)"/><path d="M68.961 102.96525H73.3425V98.679H68.961z" style="fill:rgba(8,0,246,.24705882);stroke:rgba(8,0,246,.24705882);stroke-width:.09525;stroke-miterlimit:41.994751"/><path d="M71.370825 100.76497A.47625 .47625 0 0070.418325 100.76497A.47625 .47625 0 0071.370825 100.76497z" fill="rgba(8,0,246,.24705882)"/><path d="M71.466075 101.39363L97.374075 86.039325" style="fill:none;stroke:rgba(4,0,250,.24705882);stroke-width:.09525;stroke-miterlimit:41.994751"/><path d="M71.466075 101.39363L66.474975 86.134575" style="fill:none;stroke:rgba(4,0,250,.24705882);stroke-width:.09525;stroke-miterlimit:41.994751"/><path d="M66.474975 86.134575L70.894575 100.76497" style="fill:none;stroke:rgba(4,0,250,.24705882);stroke-width:.09525;stroke-miterlimit:41.994751"/><path d="M75.91425 104.10825H118.96725V68.10375H75.91425z" style="fill:rgba(0,0,255,.24705882);stroke:rgba(0,0,255,.24705882);stroke-width:.09525;stroke-miterlimit:41.994751"/><path d="M97.850325 86.039325A.47625 .47625 0 0096.897825 86.039325A.47625 .47625 0 0097.850325 86.039325z" fill="rgba(0,0,255,.24705882)"/><path d="M97.374075 86.039325L66.474975 86.134575" style="fill:none;stroke:rgba(0,0,255,.24705882);stroke-width:.09525;stroke-miterlimit:41.994751"/><path d="M47.14875 104.10825H75.91425V68.10375H47.14875z" style="fill:rgba(0,0,255,.24705882);stroke:rgba(0,0,255,.24705882);stroke-width:.09525;stroke-miterlimit:41.994751"/><path d="M66.951225 86.134575A.47625 .47625 0 0065.998725 86.134575A.47625 .47625 0 0066.951225 86.134575z" fill="rgba(0,0,255,.24705882)"/><path d="M97.40265 44.224575L97.374075 86.039325" style="fill:none;stroke:rgba(0,0,255,.24705882);stroke-width:.09525;stroke-miterlimit:41.994751"/><path d="M75.91425 68.10375H118.96725V28.67025H75.91425z" style="fill:rgba(0,0,255,.24705882);stroke:rgba(0,0,255,.24705882);stroke-width:.09525;stroke-miterlimit:41.994751"/><path d="M97.8789 44.224575A.47625 .47625 0 0096.9264 44.224575A.47625 .47625 0 0097.8789 44.224575z" fill="rgba(0,0,255,.24705882)"/></svg>