<svg version="1.1" width="297.27525mm" height="241.83975mm" viewBox="0 0 297.27525 241.83975" xmlns="http://www.w3.org/2000/svg" xmlns:xlink="http://www.w3.org/1999/xlink"><path d="M4.66725 1.42875H6.57225" style="fill:none;stroke:#f00;stroke-width:.09525;stroke-miterlimit:41.994751"/><path d="M4.66725 1.42875V-.47625" style="fill:none;stroke:#0f0;stroke-width:.09525;stroke-miterlimit:41.994751"/><path d="M233.29583 24.28875H247.3833V15.154275H233.29583z" style="fill:rgba(255,0,0,.24705882);stroke:rgba(255,0,0,.24705882);stroke-width:.09525;stroke-miterlimit:41.994751"/><path d="M239.36325 21.4884A.47625 .47625 0 00238.41075 21.4884A.47625 .47625 0 00239.36325 21.4884z" fill="rgba(255,0,0,.24705882)"/><path d="M232.07663 19.745325L238.887 21.4884" style="fill:none;stroke:rgba(242,0,8,.24705882);stroke-width:.09525;stroke-miterlimit:41.994751"/><path d="M225.0186 22.86H232.55288V16.764H225.0186z" style="fill:rgba(234,0,20,.24705882);stroke:rgba(234,0,20,.24705882);stroke-width:.09525;stroke-miterlimit:41.994751"/><path d="M232.55288 19.745325A.47625 .47625 0 00231.60038 19.745325A.47625 .47625 0 00232.55288 19.745325z" fill="rgba(234,0,20,.24705882)"/><path d="M208.81658 22.86H214.90305V10.620375H208.81658z" style="fill:rgba(234,0,20,.24705882);stroke:rgba(234,0,20,.24705882);stroke-width:.09525;stroke-miterlimit:41.994751"/><path d="M212.35987 19.935825A.47625 .47625 0 00211.40738 19.935825A.47625 .47625 0 00212.35987 19.935825z" fill="rgba(234,0,20,.24705882)"/><path d="M214.96973 22.86H224.99003V16.830675H214.96973z" style="fill:rgba(234,0,20,.24705882);stroke:rgba(234,0,20,.24705882);stroke-width:.09525;stroke-miterlimit:41.994751"/><path d="M224.26612 19.916775A.47625 .47625 0 00223.31363 19.916775A.47625 .47625 0 00224.26612 19.916775z" fill="rgba(234,0,20,.24705882)"/><path d="M211.88362 19.935825L223.78987 19.916775" style="fill:none;stroke:rgba(234,0,20,.24705882);stroke-width:.09525;stroke-miterlimit:41.994751"/><path d="M223.78987 19.916775L232.07663 19.745325" style="fill:none;stroke:rgba(234,0,20,.24705882);stroke-width:.09525;stroke-miterlimit:41.994751"/><path d="M239.7633 33.81375L238.887 21.4884" style="fill:none;stroke:rgba(226,0,24,.24705882);stroke-width:.09525;stroke-miterlimit:41.994751"/><path d="M240.23955 33.81375A.47625 .47625 0 00239.28705 33.81375A.47625 .47625 0 00240.23955 33.81375z" fill="rgba(202,0,52,.24705882)"/><path d="M239.82998 42.31005L239.7633 33.81375" style="fill:none;stroke:rgba(178,0,76,.24705882);stroke-width:.09525;stroke-miterlimit:41.994751"/><path d="M131.2545 220.1799A.47625 .47625 0 00130.302 220.1799A.47625 .47625 0 00131.2545 220.1799z" fill="rgba(153,0,101,.24705882)"/><path d="M237.01058 193.95758A.47625 .47625 0 00236.05808 193.95758A.47625 .47625 0 00237.01058 193.95758z" fill="rgba(153,0,101,.24705882)"/><path d="M81.17205 64.912875A.47625 .47625 0 0080.21955 64.912875A.47625 .47625 0 0081.17205 64.912875z" fill="rgba(153,0,101,.24705882)"/><path d="M87.620475 24.44115A.47625 .47625 0 0086.667975 24.44115A.47625 .47625 0 0087.620475 24.44115z" fill="rgba(153,0,101,.24705882)"/><path d="M165.40162 97.05975A.47625 .47625 0 00164.44913 97.05975A.47625 .47625 0 00165.40162 97.05975z" fill="rgba(153,0,101,.24705882)"/><path d="M166.6113 74.77125A.47625 .47625 0 00165.6588 74.77125A.47625 .47625 0 00166.6113 74.77125z" fill="rgba(153,0,101,.24705882)"/><path d="M144.8181 70.189725A.47625 .47625 0 00143.8656 70.189725A.47625 .47625 0 00144.8181 70.189725z" fill="rgba(153,0,101,.24705882)"/><path d="M156.82913 5.35305A.47625 .47625 0 00155.87663 5.35305A.47625 .47625 0 00156.82913 5.35305z" fill="rgba(153,0,101,.24705882)"/><path d="M98.27895 241.4397A.47625 .47625 0 0097.32645 241.4397A.47625 .47625 0 0098.27895 241.4397z" fill="rgba(153,0,101,.24705882)"/><path d="M195.77685 3.095625A.47625 .47625 0 00194.82435 3.095625A.47625 .47625 0 00195.77685 3.095625z" fill="rgba(153,0,101,.24705882)"/><path d="M117.54802 240.53483A.47625 .47625 0 00116.59552 240.53483A.47625 .47625 0 00117.54802 240.53483z" fill="rgba(153,0,101,.24705882)"/><path d="M220.11322 1.628775A.47625 .47625 0 00219.16073 1.628775A.47625 .47625 0 00220.11322 1.628775z" fill="rgba(153,0,101,.24705882)"/><path d="M131.0259 231.3813A.47625 .47625 0 00130.0734 231.3813A.47625 .47625 0 00131.0259 231.3813z" fill="rgba(153,0,101,.24705882)"/><path d="M245.94502 .447675A.47625 .47625 0 00244.99253 .447675A.47625 .47625 0 00245.94502 .447675z" fill="rgba(153,0,101,.24705882)"/><path d="M147.42795 217.94153A.47625 .47625 0 00146.47545 217.94153A.47625 .47625 0 00147.42795 217.94153z" fill="rgba(153,0,101,.24705882)"/><path d="M82.038825 83.0199A.47625 .47625 0 0081.086325 83.0199A.47625 .47625 0 0082.038825 83.0199z" fill="rgba(153,0,101,.24705882)"/><path d="M152.04757 194.60528A.47625 .47625 0 00151.09508 194.60528A.47625 .47625 0 00152.04757 194.60528z" fill="rgba(153,0,101,.24705882)"/><path d="M263.24243 4.7625A.47625 .47625 0 00262.28993 4.7625A.47625 .47625 0 00263.24243 4.7625z" fill="rgba(153,0,101,.24705882)"/><path d="M82.762725 209.86433A.47625 .47625 0 0081.810225 209.86433A.47625 .47625 0 0082.762725 209.86433z" fill="rgba(153,0,101,.24705882)"/><path d="M270.00518 29.4513A.47625 .47625 0 00269.05268 29.4513A.47625 .47625 0 00270.00518 29.4513z" fill="rgba(153,0,101,.24705882)"/><path d="M94.96425 6.4008A.47625 .47625 0 0094.01175 6.4008A.47625 .47625 0 0094.96425 6.4008z" fill="rgba(153,0,101,.24705882)"/><path d="M264.93788 55.22595A.47625 .47625 0 00263.98538 55.22595A.47625 .47625 0 00264.93788 55.22595z" fill="rgba(153,0,101,.24705882)"/><path d="M114.6048 213.04567A.47625 .47625 0 00113.6523 213.04567A.47625 .47625 0 00114.6048 213.04567z" fill="rgba(153,0,101,.24705882)"/><path d="M257.6322 72.39A.47625 .47625 0 00256.6797 72.39A.47625 .47625 0 00257.6322 72.39z" fill="rgba(153,0,101,.24705882)"/><path d="M132.49275 10.353675A.47625 .47625 0 00131.54025 10.353675A.47625 .47625 0 00132.49275 10.353675z" fill="rgba(153,0,101,.24705882)"/><path d="M120.97702 8.97255A.47625 .47625 0 00120.02452 8.97255A.47625 .47625 0 00120.97702 8.97255z" fill="rgba(153,0,101,.24705882)"/><path d="M240.9444 78.04785A.47625 .47625 0 00239.9919 78.04785A.47625 .47625 0 00240.9444 78.04785z" fill="rgba(153,0,101,.24705882)"/><path d="M75.428475 224.23755A.47625 .47625 0 0074.475975 224.23755A.47625 .47625 0 0075.428475 224.23755z" fill="rgba(153,0,101,.24705882)"/><path d="M205.45425 80.5815A.47625 .47625 0 00204.50175 80.5815A.47625 .47625 0 00205.45425 80.5815z" fill="rgba(153,0,101,.24705882)"/><path d="M64.1985 202.41577A.47625 .47625 0 0063.246 202.41577A.47625 .47625 0 0064.1985 202.41577z" fill="rgba(153,0,101,.24705882)"/><path d="M131.11163 67.694175A.47625 .47625 0 00130.15913 67.694175A.47625 .47625 0 00131.11163 67.694175z" fill="rgba(153,0,101,.24705882)"/><path d="M61.236225 180.1368A.47625 .47625 0 0060.283725 180.1368A.47625 .47625 0 0061.236225 180.1368z" fill="rgba(153,0,101,.24705882)"/><path d="M96.90735 156.42908A.47625 .47625 0 0095.95485 156.42908A.47625 .47625 0 0096.90735 156.42908z" fill="rgba(153,0,101,.24705882)"/><path d="M103.91775 101.63175A.47625 .47625 0 00102.96525 101.63175A.47625 .47625 0 00103.91775 101.63175z" fill="rgba(153,0,101,.24705882)"/><path d="M230.8098 86.134575A.47625 .47625 0 00229.8573 86.134575A.47625 .47625 0 00230.8098 86.134575z" fill="rgba(153,0,101,.24705882)"/><path d="M12.525375 65.4558A.47625 .47625 0 0011.572875 65.4558A.47625 .47625 0 0012.525375 65.4558z" fill="rgba(153,0,101,.24705882)"/><path d="M.942975 101.86035A.47625 .47625 0 00-.009525 101.86035A.47625 .47625 0 00.942975 101.86035z" fill="rgba(153,0,101,.24705882)"/><path d="M272.34833 101.37458A.47625 .47625 0 00271.39583 101.37458A.47625 .47625 0 00272.34833 101.37458z" fill="rgba(153,0,101,.24705882)"/><path d="M8.410575 134.54063A.47625 .47625 0 007.458075 134.54063A.47625 .47625 0 008.410575 134.54063z" fill="rgba(153,0,101,.24705882)"/><path d="M163.46805 228.60952A.47625 .47625 0 00162.51555 228.60952A.47625 .47625 0 00163.46805 228.60952z" fill="rgba(153,0,101,.24705882)"/><path d="M28.298775 161.13443A.47625 .47625 0 0027.346275 161.13443A.47625 .47625 0 0028.298775 161.13443z" fill="rgba(153,0,101,.24705882)"/><path d="M274.61527 122.86298A.47625 .47625 0 00273.66278 122.86298A.47625 .47625 0 00274.61527 122.86298z" fill="rgba(153,0,101,.24705882)"/><path d="M181.6608 223.71367A.47625 .47625 0 00180.7083 223.71367A.47625 .47625 0 00181.6608 223.71367z" fill="rgba(153,0,101,.24705882)"/><path d="M281.68283 150.65693A.47625 .47625 0 00280.73033 150.65693A.47625 .47625 0 00281.68283 150.65693z" fill="rgba(153,0,101,.24705882)"/><path d="M297.35145 172.48823A.47625 .47625 0 00296.39895 172.48823A.47625 .47625 0 00297.35145 172.48823z" fill="rgba(153,0,101,.24705882)"/><path d="M199.62495 210.17865A.47625 .47625 0 00198.67245 210.17865A.47625 .47625 0 00199.62495 210.17865z" fill="rgba(153,0,101,.24705882)"/><path d="M290.44583 194.0052A.47625 .47625 0 00289.49333 194.0052A.47625 .47625 0 00290.44583 194.0052z" fill="rgba(153,0,101,.24705882)"/><path d="M175.0314 185.7375A.47625 .47625 0 00174.0789 185.7375A.47625 .47625 0 00175.0314 185.7375z" fill="rgba(153,0,101,.24705882)"/><path d="M268.16685 198.3486A.47625 .47625 0 00267.21435 198.3486A.47625 .47625 0 00268.16685 198.3486z" fill="rgba(153,0,101,.24705882)"/><path d="M203.92073 190.09995A.47625 .47625 0 00202.96823 190.09995A.47625 .47625 0 00203.92073 190.09995z" fill="rgba(153,0,101,.24705882)"/><path d="M82.286475 209.86433L63.72225 202.41577" style="fill:none;stroke:rgba(153,0,101,.24705882);stroke-width:.09525;stroke-miterlimit:41.994751"/><path d="M269.52893 29.4513L262.76618 4.7625" style="fill:none;stroke:rgba(153,0,101,.24705882);stroke-width:.09525;stroke-miterlimit:41.994751"/><path d="M236.53433 193.95758L203.44448 190.09995" style="fill:none;stroke:rgba(153,0,101,.24705882);stroke-width:.09525;stroke-miterlimit:41.994751"/><path d="M267.6906 198.3486L289.96958 194.0052" style="fill:none;stroke:rgba(153,0,101,.24705882);stroke-width:.09525;stroke-miterlimit:41.994751"/><path d="M289.96958 194.0052L296.8752 172.48823" style="fill:none;stroke:rgba(153,0,101,.24705882);stroke-width:.09525;stroke-miterlimit:41.994751"/><path d="M174.55515 185.7375L203.44448 190.09995" style="fill:none;stroke:rgba(153,0,101,.24705882);stroke-width:.09525;stroke-miterlimit:41.994751"/><path d="M296.8752 172.48823L281.20658 150.65693" style="fill:none;stroke:rgba(153,0,101,.24705882);stroke-width:.09525;stroke-miterlimit:41.994751"/><path d="M199.1487 210.17865L236.53433 193.95758" style="fill:none;stroke:rgba(153,0,101,.24705882);stroke-width:.09525;stroke-miterlimit:41.994751"/><path d="M274.13903 122.86298L281.20658 150.65693" style="fill:none;stroke:rgba(153,0,101,.24705882);stroke-width:.09525;stroke-miterlimit:41.994751"/><path d="M181.18455 223.71367L199.1487 210.17865" style="fill:none;stroke:rgba(153,0,101,.24705882);stroke-width:.09525;stroke-miterlimit:41.994751"/><path d="M7.934325 134.54063L.466725 101.86035" style="fill:none;stroke:rgba(153,0,101,.24705882);stroke-width:.09525;stroke-miterlimit:41.994751"/><path d="M27.822525 161.13443L7.934325 134.54063" style="fill:none;stroke:rgba(153,0,101,.24705882);stroke-width:.09525;stroke-miterlimit:41.994751"/><path d="M162.9918 228.60952L181.18455 223.71367" style="fill:none;stroke:rgba(153,0,101,.24705882);stroke-width:.09525;stroke-miterlimit:41.994751"/><path d="M271.87208 101.37458L274.13903 122.86298" style="fill:none;stroke:rgba(153,0,101,.24705882);stroke-width:.09525;stroke-miterlimit:41.994751"/><path d="M.466725 101.86035L12.049125 65.4558" style="fill:none;stroke:rgba(153,0,101,.24705882);stroke-width:.09525;stroke-miterlimit:41.994751"/><path d="M81.562575 83.0199L103.4415 101.63175" style="fill:none;stroke:rgba(153,0,101,.24705882);stroke-width:.09525;stroke-miterlimit:41.994751"/><path d="M230.33355 86.134575L204.978 80.5815" style="fill:none;stroke:rgba(153,0,101,.24705882);stroke-width:.09525;stroke-miterlimit:41.994751"/><path d="M12.049125 65.4558L80.6958 64.912875" style="fill:none;stroke:rgba(153,0,101,.24705882);stroke-width:.09525;stroke-miterlimit:41.994751"/><path d="M230.33355 86.134575L240.46815 78.04785" style="fill:none;stroke:rgba(153,0,101,.24705882);stroke-width:.09525;stroke-miterlimit:41.994751"/><path d="M103.4415 101.63175L96.4311 156.42908" style="fill:none;stroke:rgba(153,0,101,.24705882);stroke-width:.09525;stroke-miterlimit:41.994751"/><path d="M146.9517 217.94153L162.9918 228.60952" style="fill:none;stroke:rgba(153,0,101,.24705882);stroke-width:.09525;stroke-miterlimit:41.994751"/><path d="M96.4311 156.42908L60.759975 180.1368" style="fill:none;stroke:rgba(153,0,101,.24705882);stroke-width:.09525;stroke-miterlimit:41.994751"/><path d="M245.46877 .447675L219.63698 1.628775" style="fill:none;stroke:rgba(153,0,101,.24705882);stroke-width:.09525;stroke-miterlimit:41.994751"/><path d="M60.759975 180.1368L27.822525 161.13443" style="fill:none;stroke:rgba(153,0,101,.24705882);stroke-width:.09525;stroke-miterlimit:41.994751"/><path d="M60.759975 180.1368L63.72225 202.41577" style="fill:none;stroke:rgba(153,0,101,.24705882);stroke-width:.09525;stroke-miterlimit:41.994751"/><path d="M130.54965 231.3813L146.9517 217.94153" style="fill:none;stroke:rgba(153,0,101,.24705882);stroke-width:.09525;stroke-miterlimit:41.994751"/><path d="M63.72225 202.41577L74.952225 224.23755" style="fill:none;stroke:rgba(153,0,101,.24705882);stroke-width:.09525;stroke-miterlimit:41.994751"/><path d="M204.978 80.5815L166.13505 74.77125" style="fill:none;stroke:rgba(153,0,101,.24705882);stroke-width:.09525;stroke-miterlimit:41.994751"/><path d="M74.952225 224.23755L97.8027 241.4397" style="fill:none;stroke:rgba(153,0,101,.24705882);stroke-width:.09525;stroke-miterlimit:41.994751"/><path d="M219.63698 1.628775L195.3006 3.095625" style="fill:none;stroke:rgba(153,0,101,.24705882);stroke-width:.09525;stroke-miterlimit:41.994751"/><path d="M117.07177 240.53483L130.54965 231.3813" style="fill:none;stroke:rgba(153,0,101,.24705882);stroke-width:.09525;stroke-miterlimit:41.994751"/><path d="M240.46815 78.04785L257.15595 72.39" style="fill:none;stroke:rgba(153,0,101,.24705882);stroke-width:.09525;stroke-miterlimit:41.994751"/><path d="M151.57133 194.60528L146.9517 217.94153" style="fill:none;stroke:rgba(153,0,101,.24705882);stroke-width:.09525;stroke-miterlimit:41.994751"/><path d="M195.3006 3.095625L156.35288 5.35305" style="fill:none;stroke:rgba(153,0,101,.24705882);stroke-width:.09525;stroke-miterlimit:41.994751"/><path d="M132.0165 10.353675L120.50077 8.97255" style="fill:none;stroke:rgba(153,0,101,.24705882);stroke-width:.09525;stroke-miterlimit:41.994751"/><path d="M130.63538 67.694175L132.0165 10.353675" style="fill:none;stroke:rgba(153,0,101,.24705882);stroke-width:.09525;stroke-miterlimit:41.994751"/><path d="M94.488 6.4008L87.144225 24.44115" style="fill:none;stroke:rgba(153,0,101,.24705882);stroke-width:.09525;stroke-miterlimit:41.994751"/><path d="M257.15595 72.39L271.87208 101.37458" style="fill:none;stroke:rgba(153,0,101,.24705882);stroke-width:.09525;stroke-miterlimit:41.994751"/><path d="M257.15595 72.39L264.46163 55.22595" style="fill:none;stroke:rgba(153,0,101,.24705882);stroke-width:.09525;stroke-miterlimit:41.994751"/><path d="M87.144225 24.44115L80.6958 64.912875" style="fill:none;stroke:rgba(153,0,101,.24705882);stroke-width:.09525;stroke-miterlimit:41.994751"/><path d="M80.6958 64.912875L81.562575 83.0199" style="fill:none;stroke:rgba(153,0,101,.24705882);stroke-width:.09525;stroke-miterlimit:41.994751"/><path d="M236.53433 193.95758L267.6906 198.3486" style="fill:none;stroke:rgba(153,0,101,.24705882);stroke-width:.09525;stroke-miterlimit:41.994751"/><path d="M120.50077 8.97255L94.488 6.4008" style="fill:none;stroke:rgba(153,0,101,.24705882);stroke-width:.09525;stroke-miterlimit:41.994751"/><path d="M264.46163 55.22595L269.52893 29.4513" style="fill:none;stroke:rgba(153,0,101,.24705882);stroke-width:.09525;stroke-miterlimit:41.994751"/><path d="M114.12855 213.04567L130.77825 220.1799" style="fill:none;stroke:rgba(153,0,101,.24705882);stroke-width:.09525;stroke-miterlimit:41.994751"/><path d="M130.63538 67.694175L103.4415 101.63175" style="fill:none;stroke:rgba(153,0,101,.24705882);stroke-width:.09525;stroke-miterlimit:41.994751"/><path d="M130.77825 220.1799L130.54965 231.3813" style="fill:none;stroke:rgba(153,0,101,.24705882);stroke-width:.09525;stroke-miterlimit:41.994751"/><path d="M130.77825 220.1799L146.9517 217.94153" style="fill:none;stroke:rgba(153,0,101,.24705882);stroke-width:.09525;stroke-miterlimit:41.994751"/><path d="M166.13505 74.77125L164.92538 97.05975" style="fill:none;stroke:rgba(153,0,101,.24705882);stroke-width:.09525;stroke-miterlimit:41.994751"/><path d="M151.57133 194.60528L174.55515 185.7375" style="fill:none;stroke:rgba(153,0,101,.24705882);stroke-width:.09525;stroke-miterlimit:41.994751"/><path d="M262.76618 4.7625L245.46877 .447675" style="fill:none;stroke:rgba(153,0,101,.24705882);stroke-width:.09525;stroke-miterlimit:41.994751"/><path d="M82.286475 209.86433L114.12855 213.04567" style="fill:none;stroke:rgba(153,0,101,.24705882);stroke-width:.09525;stroke-miterlimit:41.994751"/><path d="M82.286475 209.86433L74.952225 224.23755" style="fill:none;stroke:rgba(153,0,101,.24705882);stroke-width:.09525;stroke-miterlimit:41.994751"/><path d="M166.13505 74.77125L144.34185 70.189725" style="fill:none;stroke:rgba(153,0,101,.24705882);stroke-width:.09525;stroke-miterlimit:41.994751"/><path d="M130.63538 67.694175L80.6958 64.912875" style="fill:none;stroke:rgba(153,0,101,.24705882);stroke-width:.09525;stroke-miterlimit:41.994751"/><path d="M97.8027 241.4397L117.07177 240.53483" style="fill:none;stroke:rgba(153,0,101,.24705882);stroke-width:.09525;stroke-miterlimit:41.994751"/><path d="M156.35288 5.35305L132.0165 10.353675" style="fill:none;stroke:rgba(153,0,101,.24705882);stroke-width:.09525;stroke-miterlimit:41.994751"/><path d="M144.34185 70.189725L130.63538 67.694175" style="fill:none;stroke:rgba(153,0,101,.24705882);stroke-width:.09525;stroke-miterlimit:41.994751"/><path d="M144.34185 70.189725L144.15135 54.54015" style="fill:none;stroke:rgba(153,0,101,.24705882);stroke-width:.09525;stroke-miterlimit:41.994751"/><path d="M138.77925 54.00675H159.26752V34.95675H138.77925z" style="fill:rgba(153,0,101,.24705882);stroke:rgba(153,0,101,.24705882);stroke-width:.09525;stroke-miterlimit:41.994751"/><path d="M146.4183 45.09135A.47625 .47625 0 00145.4658 45.09135A.47625 .47625 0 00146.4183 45.09135z" fill="rgba(153,0,101,.24705882)"/><path d="M163.95382 34.1757H173.5836V15.22095H163.95382z" style="fill:rgba(153,0,101,.24705882);stroke:rgba(153,0,101,.24705882);stroke-width:.09525;stroke-miterlimit:41.994751"/><path d="M168.80205 30.108525A.47625 .47625 0 00167.84955 30.108525A.47625 .47625 0 00168.80205 30.108525z" fill="rgba(153,0,101,.24705882)"/><path d="M200.42505 50.168175A.47625 .47625 0 00199.47255 50.168175A.47625 .47625 0 00200.42505 50.168175z" fill="rgba(153,0,101,.24705882)"/><path d="M173.5836 34.166175H185.25173V15.18285H173.5836z" style="fill:rgba(153,0,101,.24705882);stroke:rgba(153,0,101,.24705882);stroke-width:.09525;stroke-miterlimit:41.994751"/><path d="M176.88877 29.613225A.47625 .47625 0 00175.93627 29.613225A.47625 .47625 0 00176.88877 29.613225z" fill="rgba(153,0,101,.24705882)"/><path d="M200.52983 54.00675H216.74138V36.147375H200.52983z" style="fill:rgba(153,0,101,.24705882);stroke:rgba(153,0,101,.24705882);stroke-width:.09525;stroke-miterlimit:41.994751"/><path d="M210.58822 50.530125A.47625 .47625 0 00209.63573 50.530125A.47625 .47625 0 00210.58822 50.530125z" fill="rgba(153,0,101,.24705882)"/><path d="M163.9443 24.374475A.47625 .47625 0 00162.9918 24.374475A.47625 .47625 0 00163.9443 24.374475z" fill="rgba(153,0,101,.24705882)"/><path d="M216.76042 53.9115H233.00055V36.1569H216.76042z" style="fill:rgba(153,0,101,.24705882);stroke:rgba(153,0,101,.24705882);stroke-width:.09525;stroke-miterlimit:41.994751"/><path d="M221.3991 43.98645A.47625 .47625 0 00220.4466 43.98645A.47625 .47625 0 00221.3991 43.98645z" fill="rgba(153,0,101,.24705882)"/><path d="M201.14895 36.147375H231.3432V20.2692H201.14895z" style="fill:rgba(153,0,101,.24705882);stroke:rgba(153,0,101,.24705882);stroke-width:.09525;stroke-miterlimit:41.994751"/><path d="M214.75065 29.041725A.47625 .47625 0 00213.79815 29.041725A.47625 .47625 0 00214.75065 29.041725z" fill="rgba(153,0,101,.24705882)"/><path d="M176.58398 34.432875A.47625 .47625 0 00175.63148 34.432875A.47625 .47625 0 00176.58398 34.432875z" fill="rgba(153,0,101,.24705882)"/><path d="M233.0196 53.7972H246.64987V41.957625H233.0196z" style="fill:rgba(153,0,101,.24705882);stroke:rgba(153,0,101,.24705882);stroke-width:.09525;stroke-miterlimit:41.994751"/><path d="M240.30623 42.31005A.47625 .47625 0 00239.35373 42.31005A.47625 .47625 0 00240.30623 42.31005z" fill="rgba(153,0,101,.24705882)"/><path d="M181.07025 53.96865H199.66305V34.99485H181.07025z" style="fill:rgba(153,0,101,.24705882);stroke:rgba(153,0,101,.24705882);stroke-width:.09525;stroke-miterlimit:41.994751"/><path d="M191.02388 44.4627A.47625 .47625 0 00190.07138 44.4627A.47625 .47625 0 00191.02388 44.4627z" fill="rgba(153,0,101,.24705882)"/><path d="M159.28657 54.00675H181.07025V34.95675H159.28657z" style="fill:rgba(153,0,101,.24705882);stroke:rgba(153,0,101,.24705882);stroke-width:.09525;stroke-miterlimit:41.994751"/><path d="M176.53635 44.4627A.47625 .47625 0 00175.58385 44.4627A.47625 .47625 0 00176.53635 44.4627z" fill="rgba(153,0,101,.24705882)"/><path d="M144.6276 54.54015A.47625 .47625 0 00143.6751 54.54015A.47625 .47625 0 00144.6276 54.54015z" fill="rgba(153,0,101,.24705882)"/><path d="M138.7983 34.19475H163.0299V15.1638H138.7983z" style="fill:rgba(153,0,101,.24705882);stroke:rgba(153,0,101,.24705882);stroke-width:.09525;stroke-miterlimit:41.994751"/><path d="M151.93327 25.08885A.47625 .47625 0 00150.98077 25.08885A.47625 .47625 0 00151.93327 25.08885z" fill="rgba(153,0,101,.24705882)"/><path d="M176.41252 29.613225L168.3258 30.108525" style="fill:none;stroke:rgba(153,0,101,.24705882);stroke-width:.09525;stroke-miterlimit:41.994751"/><path d="M176.0601 44.4627H190.54763" style="fill:none;stroke:rgba(153,0,101,.24705882);stroke-width:.09525;stroke-miterlimit:41.994751"/><path d="M144.15135 54.54015L145.94205 45.09135" style="fill:none;stroke:rgba(153,0,101,.24705882);stroke-width:.09525;stroke-miterlimit:41.994751"/><path d="M145.94205 45.09135L176.0601 44.4627" style="fill:none;stroke:rgba(153,0,101,.24705882);stroke-width:.09525;stroke-miterlimit:41.994751"/><path d="M129.72098 160.58198L96.4311 156.42908" style="fill:none;stroke:rgba(153,0,101,.24705882);stroke-width:.09525;stroke-miterlimit:41.994751"/><path d="M190.54763 44.4627L199.9488 50.168175" style="fill:none;stroke:rgba(153,0,101,.24705882);stroke-width:.09525;stroke-miterlimit:41.994751"/><path d="M168.3258 30.108525L163.46805 24.374475" style="fill:none;stroke:rgba(153,0,101,.24705882);stroke-width:.09525;stroke-miterlimit:41.994751"/><path d="M81.562575 83.0199L70.380225 84.362925" style="fill:none;stroke:rgba(153,0,101,.24705882);stroke-width:.09525;stroke-miterlimit:41.994751"/><path d="M214.2744 29.041725L220.92285 43.98645" style="fill:none;stroke:rgba(153,0,101,.24705882);stroke-width:.09525;stroke-miterlimit:41.994751"/><path d="M52.854225 147.13268L60.759975 180.1368" style="fill:none;stroke:rgba(153,0,101,.24705882);stroke-width:.09525;stroke-miterlimit:41.994751"/><path d="M176.10773 34.432875L176.0601 44.4627" style="fill:none;stroke:rgba(153,0,101,.24705882);stroke-width:.09525;stroke-miterlimit:41.994751"/><path d="M220.92285 43.98645L239.82998 42.31005" style="fill:none;stroke:rgba(153,0,101,.24705882);stroke-width:.09525;stroke-miterlimit:41.994751"/><path d="M176.10773 34.432875L176.41252 29.613225" style="fill:none;stroke:rgba(153,0,101,.24705882);stroke-width:.09525;stroke-miterlimit:41.994751"/><path d="M210.11198 50.530125L220.92285 43.98645" style="fill:none;stroke:rgba(153,0,101,.24705882);stroke-width:.09525;stroke-miterlimit:41.994751"/><path d="M163.46805 24.374475L151.45702 25.08885" style="fill:none;stroke:rgba(153,0,101,.24705882);stroke-width:.09525;stroke-miterlimit:41.994751"/><path d="M199.9488 50.168175L210.11198 50.530125" style="fill:none;stroke:rgba(153,0,101,.24705882);stroke-width:.09525;stroke-miterlimit:41.994751"/><path d="M67.60845 112.91888A.47625 .47625 0 0066.65595 112.91888A.47625 .47625 0 0067.60845 112.91888z" fill="rgba(149,0,101,.24705882)"/><path d="M137.82675 175.15523H151.00935V165.354H137.82675z" style="fill:rgba(149,0,101,.24705882);stroke:rgba(149,0,101,.24705882);stroke-width:.09525;stroke-miterlimit:41.994751"/><path d="M144.8562 170.94518A.47625 .47625 0 00143.9037 170.94518A.47625 .47625 0 00144.8562 170.94518z" fill="rgba(149,0,101,.24705882)"/><path d="M35.14725 146.19923H57.20715V114.9858H35.14725z" style="fill:rgba(149,0,101,.24705882);stroke:rgba(149,0,101,.24705882);stroke-width:.09525;stroke-miterlimit:41.994751"/><path d="M53.559075 137.11238A.47625 .47625 0 0052.606575 137.11238A.47625 .47625 0 0053.559075 137.11238z" fill="rgba(149,0,101,.24705882)"/><path d="M67.60845 112.91888A.47625 .47625 0 0066.65595 112.91888A.47625 .47625 0 0067.60845 112.91888z" fill="rgba(149,0,101,.24705882)"/><path d="M67.60845 112.91888A.47625 .47625 0 0066.65595 112.91888A.47625 .47625 0 0067.60845 112.91888z" fill="rgba(149,0,101,.24705882)"/><path d="M38.6715 114.63338A.47625 .47625 0 0037.719 114.63338A.47625 .47625 0 0038.6715 114.63338z" fill="rgba(149,0,101,.24705882)"/><path d="M67.60845 112.91888A.47625 .47625 0 0066.65595 112.91888A.47625 .47625 0 0067.60845 112.91888z" fill="rgba(149,0,101,.24705882)"/><path d="M58.054875 127.87313H69.961125V114.9858H58.054875z" style="fill:rgba(149,0,101,.24705882);stroke:rgba(149,0,101,.24705882);stroke-width:.09525;stroke-miterlimit:41.994751"/><path d="M64.1223 122.32005A.47625 .47625 0 0063.1698 122.32005A.47625 .47625 0 0064.1223 122.32005z" fill="rgba(149,0,101,.24705882)"/><path d="M158.62935 162.47745H175.0695V145.72298H158.62935z" style="fill:rgba(149,0,101,.24705882);stroke:rgba(149,0,101,.24705882);stroke-width:.09525;stroke-miterlimit:41.994751"/><path d="M169.06875 160.61055A.47625 .47625 0 00168.11625 160.61055A.47625 .47625 0 00169.06875 160.61055z" fill="rgba(149,0,101,.24705882)"/><path d="M35.156775 114.17618H48.167925V101.86988H35.156775z" style="fill:rgba(149,0,101,.24705882);stroke:rgba(149,0,101,.24705882);stroke-width:.09525;stroke-miterlimit:41.994751"/><path d="M38.890575 110.3757A.47625 .47625 0 0037.938075 110.3757A.47625 .47625 0 0038.890575 110.3757z" fill="rgba(149,0,101,.24705882)"/><path d="M35.156775 101.86988H48.10125V89.17305H35.156775z" style="fill:rgba(149,0,101,.24705882);stroke:rgba(149,0,101,.24705882);stroke-width:.09525;stroke-miterlimit:41.994751"/><path d="M39.328725 100.0125A.47625 .47625 0 0038.376225 100.0125A.47625 .47625 0 0039.328725 100.0125z" fill="rgba(149,0,101,.24705882)"/><path d="M35.14725 89.17305H48.1203V82.229325H35.14725z" style="fill:rgba(149,0,101,.24705882);stroke:rgba(149,0,101,.24705882);stroke-width:.09525;stroke-miterlimit:41.994751"/><path d="M39.271575 84.801075A.47625 .47625 0 0038.319075 84.801075A.47625 .47625 0 0039.271575 84.801075z" fill="rgba(149,0,101,.24705882)"/><path d="M57.20715 146.16112H69.7611V128.7018H57.20715z" style="fill:rgba(149,0,101,.24705882);stroke:rgba(149,0,101,.24705882);stroke-width:.09525;stroke-miterlimit:41.994751"/><path d="M63.045975 137.63625A.47625 .47625 0 0062.093475 137.63625A.47625 .47625 0 0063.045975 137.63625z" fill="rgba(149,0,101,.24705882)"/><path d="M67.60845 112.91888A.47625 .47625 0 0066.65595 112.91888A.47625 .47625 0 0067.60845 112.91888z" fill="rgba(149,0,101,.24705882)"/><path d="M48.1203 92.964H69.9897V82.210275H48.1203z" style="fill:rgba(149,0,101,.24705882);stroke:rgba(149,0,101,.24705882);stroke-width:.09525;stroke-miterlimit:41.994751"/><path d="M60.017025 84.963A.47625 .47625 0 0059.064525 84.963A.47625 .47625 0 0060.017025 84.963z" fill="rgba(149,0,101,.24705882)"/><path d="M48.148875 102.61283H70.00875V92.964H48.148875z" style="fill:rgba(149,0,101,.24705882);stroke:rgba(149,0,101,.24705882);stroke-width:.09525;stroke-miterlimit:41.994751"/><path d="M58.759725 98.955225A.47625 .47625 0 0057.807225 98.955225A.47625 .47625 0 0058.759725 98.955225z" fill="rgba(149,0,101,.24705882)"/><path d="M70.856475 84.362925A.47625 .47625 0 0069.903975 84.362925A.47625 .47625 0 0070.856475 84.362925z" fill="rgba(149,0,101,.24705882)"/><path d="M151.88565 157.15298A.47625 .47625 0 00150.93315 157.15298A.47625 .47625 0 00151.88565 157.15298z" fill="rgba(149,0,101,.24705882)"/><path d="M155.4861 115.87163A.47625 .47625 0 00154.5336 115.87163A.47625 .47625 0 00155.4861 115.87163z" fill="rgba(149,0,101,.24705882)"/><path d="M151.76182 163.91573H157.68637V146.23732H151.76182z" style="fill:rgba(149,0,101,.24705882);stroke:rgba(149,0,101,.24705882);stroke-width:.09525;stroke-miterlimit:41.994751"/><path d="M155.0289 157.11488A.47625 .47625 0 00154.0764 157.11488A.47625 .47625 0 00155.0289 157.11488z" fill="rgba(149,0,101,.24705882)"/><path d="M48.1965 114.1857H70.00875V102.74618H48.1965z" style="fill:rgba(149,0,101,.24705882);stroke:rgba(149,0,101,.24705882);stroke-width:.09525;stroke-miterlimit:41.994751"/><path d="M67.60845 112.91888A.47625 .47625 0 0066.65595 112.91888A.47625 .47625 0 0067.60845 112.91888z" fill="rgba(149,0,101,.24705882)"/><path d="M152.00948 171.78338A.47625 .47625 0 00151.05698 171.78338A.47625 .47625 0 00152.00948 171.78338z" fill="rgba(149,0,101,.24705882)"/><path d="M64.246125 128.18745A.47625 .47625 0 0063.293625 128.18745A.47625 .47625 0 0064.246125 128.18745z" fill="rgba(149,0,101,.24705882)"/><path d="M130.02577 119.79593H154.71457V103.94633H130.02577z" style="fill:rgba(149,0,101,.24705882);stroke:rgba(149,0,101,.24705882);stroke-width:.09525;stroke-miterlimit:41.994751"/><path d="M142.10348 112.2807A.47625 .47625 0 00141.15098 112.2807A.47625 .47625 0 00142.10348 112.2807z" fill="rgba(149,0,101,.24705882)"/><path d="M151.78088 175.1457H175.04093V167.07802H151.78088z" style="fill:rgba(149,0,101,.24705882);stroke:rgba(149,0,101,.24705882);stroke-width:.09525;stroke-miterlimit:41.994751"/><path d="M165.49687 171.44048A.47625 .47625 0 00164.54438 171.44048A.47625 .47625 0 00165.49687 171.44048z" fill="rgba(149,0,101,.24705882)"/><path d="M137.95057 172.0596A.47625 .47625 0 00136.99808 172.0596A.47625 .47625 0 00137.95057 172.0596z" fill="rgba(149,0,101,.24705882)"/><path d="M53.330475 147.13268A.47625 .47625 0 0052.377975 147.13268A.47625 .47625 0 0053.330475 147.13268z" fill="rgba(149,0,101,.24705882)"/><path d="M129.93052 175.15523H137.13143V165.57308H129.93052z" style="fill:rgba(149,0,101,.24705882);stroke:rgba(149,0,101,.24705882);stroke-width:.09525;stroke-miterlimit:41.994751"/><path d="M133.41667 171.01185A.47625 .47625 0 00132.46418 171.01185A.47625 .47625 0 00133.41667 171.01185z" fill="rgba(149,0,101,.24705882)"/><path d="M130.19723 160.58198A.47625 .47625 0 00129.24473 160.58198A.47625 .47625 0 00130.19723 160.58198z" fill="rgba(149,0,101,.24705882)"/><path d="M158.63887 145.72298H175.0695V142.43685H158.63887z" style="fill:rgba(149,0,101,.24705882);stroke:rgba(149,0,101,.24705882);stroke-width:.09525;stroke-miterlimit:41.994751"/><path d="M169.28782 142.85595A.47625 .47625 0 00168.33533 142.85595A.47625 .47625 0 00169.28782 142.85595z" fill="rgba(149,0,101,.24705882)"/><path d="M129.921 136.79805H157.734V120.5865H129.921z" style="fill:rgba(149,0,101,.24705882);stroke:rgba(149,0,101,.24705882);stroke-width:.09525;stroke-miterlimit:41.994751"/><path d="M149.0091 130.1496A.47625 .47625 0 00148.0566 130.1496A.47625 .47625 0 00149.0091 130.1496z" fill="rgba(149,0,101,.24705882)"/><path d="M144.37995 170.94518L137.47432 172.0596" style="fill:none;stroke:rgba(149,0,101,.24705882);stroke-width:.09525;stroke-miterlimit:41.994751"/><path d="M168.81158 142.85595L168.5925 160.61055" style="fill:none;stroke:rgba(149,0,101,.24705882);stroke-width:.09525;stroke-miterlimit:41.994751"/><path d="M38.414325 110.3757L38.852475 100.0125" style="fill:none;stroke:rgba(149,0,101,.24705882);stroke-width:.09525;stroke-miterlimit:41.994751"/><path d="M38.414325 110.3757L38.19525 114.63338" style="fill:none;stroke:rgba(149,0,101,.24705882);stroke-width:.09525;stroke-miterlimit:41.994751"/><path d="M38.414325 110.3757L67.1322 112.91888" style="fill:none;stroke:rgba(149,0,101,.24705882);stroke-width:.09525;stroke-miterlimit:41.994751"/><path d="M53.082825 137.11238L52.854225 147.13268" style="fill:none;stroke:rgba(149,0,101,.24705882);stroke-width:.09525;stroke-miterlimit:41.994751"/><path d="M53.082825 137.11238L62.569725 137.63625" style="fill:none;stroke:rgba(149,0,101,.24705882);stroke-width:.09525;stroke-miterlimit:41.994751"/><path d="M38.19525 114.63338L53.082825 137.11238" style="fill:none;stroke:rgba(149,0,101,.24705882);stroke-width:.09525;stroke-miterlimit:41.994751"/><path d="M155.00985 115.87163L141.62723 112.2807" style="fill:none;stroke:rgba(149,0,101,.24705882);stroke-width:.09525;stroke-miterlimit:41.994751"/><path d="M151.4094 157.15298L154.55265 157.11488" style="fill:none;stroke:rgba(149,0,101,.24705882);stroke-width:.09525;stroke-miterlimit:41.994751"/><path d="M63.769875 128.18745L62.569725 137.63625" style="fill:none;stroke:rgba(149,0,101,.24705882);stroke-width:.09525;stroke-miterlimit:41.994751"/><path d="M63.769875 128.18745L63.64605 122.32005" style="fill:none;stroke:rgba(149,0,101,.24705882);stroke-width:.09525;stroke-miterlimit:41.994751"/><path d="M137.47432 172.0596L132.94043 171.01185" style="fill:none;stroke:rgba(149,0,101,.24705882);stroke-width:.09525;stroke-miterlimit:41.994751"/><path d="M38.795325 84.801075L38.852475 100.0125" style="fill:none;stroke:rgba(149,0,101,.24705882);stroke-width:.09525;stroke-miterlimit:41.994751"/><path d="M38.795325 84.801075L59.540775 84.963" style="fill:none;stroke:rgba(149,0,101,.24705882);stroke-width:.09525;stroke-miterlimit:41.994751"/><path d="M70.380225 84.362925L59.540775 84.963" style="fill:none;stroke:rgba(149,0,101,.24705882);stroke-width:.09525;stroke-miterlimit:41.994751"/><path d="M151.53323 171.78338L144.37995 170.94518" style="fill:none;stroke:rgba(149,0,101,.24705882);stroke-width:.09525;stroke-miterlimit:41.994751"/><path d="M151.53323 171.78338L165.02062 171.44048" style="fill:none;stroke:rgba(149,0,101,.24705882);stroke-width:.09525;stroke-miterlimit:41.994751"/><path d="M58.283475 98.955225L59.540775 84.963" style="fill:none;stroke:rgba(149,0,101,.24705882);stroke-width:.09525;stroke-miterlimit:41.994751"/><path d="M58.283475 98.955225L67.1322 112.91888" style="fill:none;stroke:rgba(149,0,101,.24705882);stroke-width:.09525;stroke-miterlimit:41.994751"/><path d="M165.0111 130.88303L148.53285 130.1496" style="fill:none;stroke:rgba(149,0,105,.24705882);stroke-width:.09525;stroke-miterlimit:41.994751"/><path d="M164.53485 117.07178L155.00985 115.87163" style="fill:none;stroke:rgba(149,0,105,.24705882);stroke-width:.09525;stroke-miterlimit:41.994751"/><path d="M141.07477 158.71508L144.37995 170.94518" style="fill:none;stroke:rgba(149,0,105,.24705882);stroke-width:.09525;stroke-miterlimit:41.994751"/><path d="M129.72098 160.58198L141.07477 158.71508" style="fill:none;stroke:rgba(149,0,105,.24705882);stroke-width:.09525;stroke-miterlimit:41.994751"/><path d="M165.0111 130.88303L168.81158 142.85595" style="fill:none;stroke:rgba(149,0,105,.24705882);stroke-width:.09525;stroke-miterlimit:41.994751"/><path d="M151.4094 157.15298L141.07477 158.71508" style="fill:none;stroke:rgba(149,0,105,.24705882);stroke-width:.09525;stroke-miterlimit:41.994751"/><path d="M145.1229 143.43698L148.53285 130.1496" style="fill:none;stroke:rgba(149,0,105,.24705882);stroke-width:.09525;stroke-miterlimit:41.994751"/><path d="M129.921 145.56105H157.72448V136.80758H129.921z" style="fill:rgba(149,0,105,.24705882);stroke:rgba(149,0,105,.24705882);stroke-width:.09525;stroke-miterlimit:41.994751"/><path d="M145.59915 143.43698A.47625 .47625 0 00144.64665 143.43698A.47625 .47625 0 00145.59915 143.43698z" fill="rgba(149,0,105,.24705882)"/><path d="M155.54325 120.53888H175.05998V103.91775H155.54325z" style="fill:rgba(149,0,105,.24705882);stroke:rgba(149,0,105,.24705882);stroke-width:.09525;stroke-miterlimit:41.994751"/><path d="M165.0111 117.07178A.47625 .47625 0 00164.0586 117.07178A.47625 .47625 0 00165.0111 117.07178z" fill="rgba(149,0,105,.24705882)"/><path d="M158.3817 141.9225H175.0695V121.3485H158.3817z" style="fill:rgba(149,0,105,.24705882);stroke:rgba(149,0,105,.24705882);stroke-width:.09525;stroke-miterlimit:41.994751"/><path d="M165.48735 130.88303A.47625 .47625 0 00164.53485 130.88303A.47625 .47625 0 00165.48735 130.88303z" fill="rgba(149,0,105,.24705882)"/><path d="M131.09258 164.23958H150.74265V146.35163H131.09258z" style="fill:rgba(149,0,105,.24705882);stroke:rgba(149,0,105,.24705882);stroke-width:.09525;stroke-miterlimit:41.994751"/><path d="M141.55102 158.71508A.47625 .47625 0 00140.59852 158.71508A.47625 .47625 0 00141.55102 158.71508z" fill="rgba(149,0,105,.24705882)"/><path d="M164.53485 117.07178L165.0111 130.88303" style="fill:none;stroke:rgba(149,0,105,.24705882);stroke-width:.09525;stroke-miterlimit:41.994751"/><path d="M145.1229 143.43698L141.07477 158.71508" style="fill:none;stroke:rgba(149,0,105,.24705882);stroke-width:.09525;stroke-miterlimit:41.994751"/><path d="M230.32402 90.58275L230.33355 86.134575" style="fill:none;stroke:rgba(149,0,105,.24705882);stroke-width:.09525;stroke-miterlimit:41.994751"/><path d="M190.54763 44.4627L192.68123 34.6329" style="fill:none;stroke:rgba(149,0,105,.24705882);stroke-width:.09525;stroke-miterlimit:41.994751"/><path d="M120.50077 8.97255L120.36742 14.80185" style="fill:none;stroke:rgba(149,0,105,.24705882);stroke-width:.09525;stroke-miterlimit:41.994751"/><path d="M193.15748 34.6329A.47625 .47625 0 00192.20498 34.6329A.47625 .47625 0 00193.15748 34.6329z" fill="rgba(145,0,105,.24705882)"/><path d="M230.80027 90.58275A.47625 .47625 0 00229.84777 90.58275A.47625 .47625 0 00230.80027 90.58275z" fill="rgba(145,0,109,.24705882)"/><path d="M164.92538 97.05975L165.28732 103.65105" style="fill:none;stroke:rgba(145,0,109,.24705882);stroke-width:.09525;stroke-miterlimit:41.994751"/><path d="M121.21515 41.748075A.47625 .47625 0 00120.26265 41.748075A.47625 .47625 0 00121.21515 41.748075z" fill="rgba(145,0,109,.24705882)"/><path d="M120.84367 14.80185A.47625 .47625 0 00119.89118 14.80185A.47625 .47625 0 00120.84367 14.80185z" fill="rgba(145,0,109,.24705882)"/><path d="M120.7389 41.748075L120.36742 14.80185" style="fill:none;stroke:rgba(145,0,109,.24705882);stroke-width:.09525;stroke-miterlimit:41.994751"/><path d="M168.5925 160.61055L159.0675 160.38195" style="fill:none;stroke:rgba(145,0,109,.24705882);stroke-width:.09525;stroke-miterlimit:41.994751"/><path d="M165.28732 103.65105L164.53485 117.07178" style="fill:none;stroke:rgba(141,0,109,.24705882);stroke-width:.09525;stroke-miterlimit:41.994751"/><path d="M67.1322 112.91888L67.008375 113.538" style="fill:none;stroke:rgba(141,0,113,.24705882);stroke-width:.09525;stroke-miterlimit:41.994751"/><path d="M230.6574 93.468825L230.32402 90.58275" style="fill:none;stroke:rgba(137,0,113,.24705882);stroke-width:.09525;stroke-miterlimit:41.994751"/><path d="M159.54375 160.38195A.47625 .47625 0 00158.59125 160.38195A.47625 .47625 0 00159.54375 160.38195z" fill="rgba(137,0,117,.24705882)"/><path d="M165.76357 103.65105A.47625 .47625 0 00164.81107 103.65105A.47625 .47625 0 00165.76357 103.65105z" fill="rgba(137,0,117,.24705882)"/><path d="M235.21035 114.4905H256.4892V93.6879H235.21035z" style="fill:rgba(133,0,121,.24705882);stroke:rgba(133,0,121,.24705882);stroke-width:.09525;stroke-miterlimit:41.994751"/><path d="M241.0968 107.96588A.47625 .47625 0 00240.1443 107.96588A.47625 .47625 0 00241.0968 107.96588z" fill="rgba(133,0,121,.24705882)"/><path d="M241.04917 114.63338A.47625 .47625 0 00240.09667 114.63338A.47625 .47625 0 00241.04917 114.63338z" fill="rgba(133,0,121,.24705882)"/><path d="M231.13365 93.468825A.47625 .47625 0 00230.18115 93.468825A.47625 .47625 0 00231.13365 93.468825z" fill="rgba(133,0,121,.24705882)"/><path d="M241.20158 173.9265H256.50825V148.7805H241.20158z" style="fill:rgba(133,0,121,.24705882);stroke:rgba(133,0,121,.24705882);stroke-width:.09525;stroke-miterlimit:41.994751"/><path d="M247.71667 162.7251A.47625 .47625 0 00246.76417 162.7251A.47625 .47625 0 00247.71667 162.7251z" fill="rgba(133,0,121,.24705882)"/><path d="M224.64712 114.19523H235.1913V93.85935H224.64712z" style="fill:rgba(133,0,121,.24705882);stroke:rgba(133,0,121,.24705882);stroke-width:.09525;stroke-miterlimit:41.994751"/><path d="M231.55275 101.05073A.47625 .47625 0 00230.60025 101.05073A.47625 .47625 0 00231.55275 101.05073z" fill="rgba(133,0,121,.24705882)"/><path d="M224.50425 173.91698H241.23967V148.79955H224.50425z" style="fill:rgba(133,0,121,.24705882);stroke:rgba(133,0,121,.24705882);stroke-width:.09525;stroke-miterlimit:41.994751"/><path d="M230.60977 160.87725A.47625 .47625 0 00229.65727 160.87725A.47625 .47625 0 00230.60977 160.87725z" fill="rgba(133,0,121,.24705882)"/><path d="M229.73347 148.31377A.47625 .47625 0 00228.78098 148.31377A.47625 .47625 0 00229.73347 148.31377z" fill="rgba(133,0,121,.24705882)"/><path d="M230.6193 141.87488A.47625 .47625 0 00229.6668 141.87488A.47625 .47625 0 00230.6193 141.87488z" fill="rgba(133,0,121,.24705882)"/><path d="M224.50425 148.0185H256.50825V115.30965H224.50425z" style="fill:rgba(133,0,121,.24705882);stroke:rgba(133,0,121,.24705882);stroke-width:.09525;stroke-miterlimit:41.994751"/><path d="M240.5634 131.1021A.47625 .47625 0 00239.6109 131.1021A.47625 .47625 0 00240.5634 131.1021z" fill="rgba(133,0,121,.24705882)"/><path d="M240.08715 131.1021L240.57292 114.63338" style="fill:none;stroke:rgba(133,0,121,.24705882);stroke-width:.09525;stroke-miterlimit:41.994751"/><path d="M230.14305 141.87488L240.08715 131.1021" style="fill:none;stroke:rgba(133,0,121,.24705882);stroke-width:.09525;stroke-miterlimit:41.994751"/><path d="M247.24042 162.7251L230.13352 160.87725" style="fill:none;stroke:rgba(133,0,121,.24705882);stroke-width:.09525;stroke-miterlimit:41.994751"/><path d="M229.25723 148.31377L230.13352 160.87725" style="fill:none;stroke:rgba(133,0,121,.24705882);stroke-width:.09525;stroke-miterlimit:41.994751"/><path d="M240.57292 114.63338L240.62055 107.96588" style="fill:none;stroke:rgba(133,0,121,.24705882);stroke-width:.09525;stroke-miterlimit:41.994751"/><path d="M229.25723 148.31377L230.14305 141.87488" style="fill:none;stroke:rgba(133,0,121,.24705882);stroke-width:.09525;stroke-miterlimit:41.994751"/><path d="M231.0765 101.05073L230.6574 93.468825" style="fill:none;stroke:rgba(133,0,121,.24705882);stroke-width:.09525;stroke-miterlimit:41.994751"/><path d="M240.62055 107.96588L231.0765 101.05073" style="fill:none;stroke:rgba(133,0,121,.24705882);stroke-width:.09525;stroke-miterlimit:41.994751"/><path d="M67.484625 113.538A.47625 .47625 0 0066.532125 113.538A.47625 .47625 0 0067.484625 113.538z" fill="rgba(129,0,121,.24705882)"/><path d="M192.68123 34.6329L193.4337 27.574875" style="fill:none;stroke:rgba(117,0,137,.24705882);stroke-width:.09525;stroke-miterlimit:41.994751"/><path d="M193.90995 27.574875A.47625 .47625 0 00192.95745 27.574875A.47625 .47625 0 00193.90995 27.574875z" fill="rgba(85,0,170,.24705882)"/><path d="M159.0675 160.38195L158.496 160.41053" style="fill:none;stroke:rgba(72,0,178,.24705882);stroke-width:.09525;stroke-miterlimit:41.994751"/><path d="M67.008375 113.538L67.198875 114.20475" style="fill:none;stroke:rgba(64,0,190,.24705882);stroke-width:.09525;stroke-miterlimit:41.994751"/><path d="M193.4337 27.574875L193.67182 19.364325" style="fill:none;stroke:rgba(48,0,206,.24705882);stroke-width:.09525;stroke-miterlimit:41.994751"/><path d="M185.59463 19.56435H199.54875V15.14475H185.59463z" style="fill:rgba(12,0,242,.24705882);stroke:rgba(12,0,242,.24705882);stroke-width:.09525;stroke-miterlimit:41.994751"/><path d="M194.14807 19.364325A.47625 .47625 0 00193.19557 19.364325A.47625 .47625 0 00194.14807 19.364325z" fill="rgba(12,0,242,.24705882)"/><path d="M193.67182 19.364325L180.68925 17.706975" style="fill:none;stroke:rgba(12,0,242,.24705882);stroke-width:.09525;stroke-miterlimit:41.994751"/><path d="M158.97225 160.41053A.47625 .47625 0 00158.01975 160.41053A.47625 .47625 0 00158.97225 160.41053z" fill="rgba(12,0,242,.24705882)"/><path d="M157.15297 53.978175H171.6024V36.51885H157.15297z" style="fill:rgba(12,0,242,.24705882);stroke:rgba(12,0,242,.24705882);stroke-width:.09525;stroke-miterlimit:41.994751"/><path d="M166.84942 46.42485A.47625 .47625 0 00165.89693 46.42485A.47625 .47625 0 00166.84942 46.42485z" fill="rgba(12,0,242,.24705882)"/><path d="M176.87925 36.433125H185.59462V15.173325H176.87925z" style="fill:rgba(12,0,242,.24705882);stroke:rgba(12,0,242,.24705882);stroke-width:.09525;stroke-miterlimit:41.994751"/><path d="M181.1655 17.706975A.47625 .47625 0 00180.213 17.706975A.47625 .47625 0 00181.1655 17.706975z" fill="rgba(12,0,242,.24705882)"/><path d="M171.70718 54.00675H199.73925V36.547425H171.70718z" style="fill:rgba(12,0,242,.24705882);stroke:rgba(12,0,242,.24705882);stroke-width:.09525;stroke-miterlimit:41.994751"/><path d="M181.10835 46.015275A.47625 .47625 0 00180.15585 46.015275A.47625 .47625 0 00181.10835 46.015275z" fill="rgba(12,0,242,.24705882)"/><path d="M200.50125 45.691425A.47625 .47625 0 00199.54875 45.691425A.47625 .47625 0 00200.50125 45.691425z" fill="rgba(12,0,242,.24705882)"/><path d="M138.82688 54.00675H157.11488V36.48075H138.82688z" style="fill:rgba(12,0,242,.24705882);stroke:rgba(12,0,242,.24705882);stroke-width:.09525;stroke-miterlimit:41.994751"/><path d="M146.3421 46.3677A.47625 .47625 0 00145.3896 46.3677A.47625 .47625 0 00146.3421 46.3677z" fill="rgba(12,0,242,.24705882)"/><path d="M200.58697 53.978175H232.22902V39.7002H200.58697z" style="fill:rgba(12,0,242,.24705882);stroke:rgba(12,0,242,.24705882);stroke-width:.09525;stroke-miterlimit:41.994751"/><path d="M210.58822 45.51045A.47625 .47625 0 00209.63573 45.51045A.47625 .47625 0 00210.58822 45.51045z" fill="rgba(12,0,242,.24705882)"/><path d="M200.51077 39.690675H232.24808V15.154275H200.51077z" style="fill:rgba(12,0,242,.24705882);stroke:rgba(12,0,242,.24705882);stroke-width:.09525;stroke-miterlimit:41.994751"/><path d="M209.7405 24.126825A.47625 .47625 0 00208.788 24.126825A.47625 .47625 0 00209.7405 24.126825z" fill="rgba(12,0,242,.24705882)"/><path d="M138.77925 35.6616H157.09582V15.14475H138.77925z" style="fill:rgba(12,0,242,.24705882);stroke:rgba(12,0,242,.24705882);stroke-width:.09525;stroke-miterlimit:41.994751"/><path d="M147.18982 24.584025A.47625 .47625 0 00146.23732 24.584025A.47625 .47625 0 00147.18982 24.584025z" fill="rgba(12,0,242,.24705882)"/><path d="M158.115 35.71875H176.11725V15.14475H158.115z" style="fill:rgba(12,0,242,.24705882);stroke:rgba(12,0,242,.24705882);stroke-width:.09525;stroke-miterlimit:41.994751"/><path d="M166.6875 23.7363A.47625 .47625 0 00165.735 23.7363A.47625 .47625 0 00166.6875 23.7363z" fill="rgba(12,0,242,.24705882)"/><path d="M166.5732 36.06165A.47625 .47625 0 00165.6207 36.06165A.47625 .47625 0 00166.5732 36.06165z" fill="rgba(12,0,242,.24705882)"/><path d="M145.86585 36.261675A.47625 .47625 0 00144.91335 36.261675A.47625 .47625 0 00145.86585 36.261675z" fill="rgba(12,0,242,.24705882)"/><path d="M180.6321 46.015275L166.37318 46.42485" style="fill:none;stroke:rgba(12,0,242,.24705882);stroke-width:.09525;stroke-miterlimit:41.994751"/><path d="M145.86585 46.3677L145.3896 36.261675" style="fill:none;stroke:rgba(12,0,242,.24705882);stroke-width:.09525;stroke-miterlimit:41.994751"/><path d="M200.025 45.691425L210.11198 45.51045" style="fill:none;stroke:rgba(12,0,242,.24705882);stroke-width:.09525;stroke-miterlimit:41.994751"/><path d="M180.6321 46.015275L200.025 45.691425" style="fill:none;stroke:rgba(12,0,242,.24705882);stroke-width:.09525;stroke-miterlimit:41.994751"/><path d="M180.68925 17.706975L180.6321 46.015275" style="fill:none;stroke:rgba(12,0,242,.24705882);stroke-width:.09525;stroke-miterlimit:41.994751"/><path d="M210.11198 45.51045L209.26425 24.126825" style="fill:none;stroke:rgba(12,0,242,.24705882);stroke-width:.09525;stroke-miterlimit:41.994751"/><path d="M166.09695 36.06165L166.37318 46.42485" style="fill:none;stroke:rgba(12,0,242,.24705882);stroke-width:.09525;stroke-miterlimit:41.994751"/><path d="M166.37318 46.42485L145.86585 46.3677" style="fill:none;stroke:rgba(12,0,242,.24705882);stroke-width:.09525;stroke-miterlimit:41.994751"/><path d="M166.09695 36.06165L166.21125 23.7363" style="fill:none;stroke:rgba(12,0,242,.24705882);stroke-width:.09525;stroke-miterlimit:41.994751"/><path d="M145.3896 36.261675L146.71357 24.584025" style="fill:none;stroke:rgba(12,0,242,.24705882);stroke-width:.09525;stroke-miterlimit:41.994751"/><path d="M158.496 160.41053L157.734 160.16288" style="fill:none;stroke:rgba(8,0,246,.24705882);stroke-width:.09525;stroke-miterlimit:41.994751"/><path d="M163.9824 154.31453A.47625 .47625 0 00163.0299 154.31453A.47625 .47625 0 00163.9824 154.31453z" fill="rgba(8,0,246,.24705882)"/><path d="M145.82775 174.6885H163.16325V163.73475H145.82775z" style="fill:rgba(8,0,246,.24705882);stroke:rgba(8,0,246,.24705882);stroke-width:.09525;stroke-miterlimit:41.994751"/><path d="M159.91522 168.75443A.47625 .47625 0 00158.96273 168.75443A.47625 .47625 0 00159.91522 168.75443z" fill="rgba(8,0,246,.24705882)"/><path d="M130.8735 174.6885H145.81823V163.73475H130.8735z" style="fill:rgba(8,0,246,.24705882);stroke:rgba(8,0,246,.24705882);stroke-width:.09525;stroke-miterlimit:41.994751"/><path d="M139.35075 168.96398A.47625 .47625 0 00138.39825 168.96398A.47625 .47625 0 00139.35075 168.96398z" fill="rgba(8,0,246,.24705882)"/><path d="M145.1991 163.2585H157.89593V158.29597H145.1991z" style="fill:rgba(8,0,246,.24705882);stroke:rgba(8,0,246,.24705882);stroke-width:.09525;stroke-miterlimit:41.994751"/><path d="M158.21025 160.16288A.47625 .47625 0 00157.25775 160.16288A.47625 .47625 0 00158.21025 160.16288z" fill="rgba(8,0,246,.24705882)"/><path d="M139.43648 163.3728A.47625 .47625 0 00138.48398 163.3728A.47625 .47625 0 00139.43648 163.3728z" fill="rgba(8,0,246,.24705882)"/><path d="M131.445 163.1442H145.18005V158.29598H131.445z" style="fill:rgba(8,0,246,.24705882);stroke:rgba(8,0,246,.24705882);stroke-width:.09525;stroke-miterlimit:41.994751"/><path d="M139.70317 158.54363A.47625 .47625 0 00138.75068 158.54363A.47625 .47625 0 00139.70317 158.54363z" fill="rgba(8,0,246,.24705882)"/><path d="M164.39198 173.0121H174.117V143.5608H164.39198z" style="fill:rgba(8,0,246,.24705882);stroke:rgba(8,0,246,.24705882);stroke-width:.09525;stroke-miterlimit:41.994751"/><path d="M169.71645 154.33357A.47625 .47625 0 00168.76395 154.33357A.47625 .47625 0 00169.71645 154.33357z" fill="rgba(8,0,246,.24705882)"/><path d="M130.8735 158.28645H162.73462V117.20513H130.8735z" style="fill:rgba(8,0,246,.24705882);stroke:rgba(8,0,246,.24705882);stroke-width:.09525;stroke-miterlimit:41.994751"/><path d="M145.62772 137.43623A.47625 .47625 0 00144.67523 137.43623A.47625 .47625 0 00145.62772 137.43623z" fill="rgba(8,0,246,.24705882)"/><path d="M157.734 160.16288L145.15148 137.43623" style="fill:none;stroke:rgba(8,0,246,.24705882);stroke-width:.09525;stroke-miterlimit:41.994751"/><path d="M157.734 160.16288L163.50615 154.31453" style="fill:none;stroke:rgba(8,0,246,.24705882);stroke-width:.09525;stroke-miterlimit:41.994751"/><path d="M163.50615 154.31453L169.2402 154.33357" style="fill:none;stroke:rgba(8,0,246,.24705882);stroke-width:.09525;stroke-miterlimit:41.994751"/><path d="M139.22692 158.54363L138.96023 163.3728" style="fill:none;stroke:rgba(8,0,246,.24705882);stroke-width:.09525;stroke-miterlimit:41.994751"/><path d="M139.22692 158.54363L157.734 160.16288" style="fill:none;stroke:rgba(8,0,246,.24705882);stroke-width:.09525;stroke-miterlimit:41.994751"/><path d="M138.96023 163.3728L138.8745 168.96398" style="fill:none;stroke:rgba(8,0,246,.24705882);stroke-width:.09525;stroke-miterlimit:41.994751"/><path d="M138.8745 168.96398L159.43897 168.75443" style="fill:none;stroke:rgba(8,0,246,.24705882);stroke-width:.09525;stroke-miterlimit:41.994751"/><path d="M67.675125 114.20475A.47625 .47625 0 0066.722625 114.20475A.47625 .47625 0 0067.675125 114.20475z" fill="rgba(0,0,255,.24705882)"/><path d="M67.198875 114.20475L67.34175 115.52873" style="fill:none;stroke:rgba(0,0,255,.24705882);stroke-width:.09525;stroke-miterlimit:41.994751"/><path d="M64.874775 146.20875H69.999225V114.8334H64.874775z" style="fill:rgba(0,0,255,.24705882);stroke:rgba(0,0,255,.24705882);stroke-width:.09525;stroke-miterlimit:41.994751"/><path d="M67.818 115.52873A.47625 .47625 0 0066.8655 115.52873A.47625 .47625 0 0067.818 115.52873z" fill="rgba(0,0,255,.24705882)"/><path d="M35.1663 146.20875H64.86525V121.85333H35.1663z" style="fill:rgba(0,0,255,.24705882);stroke:rgba(0,0,255,.24705882);stroke-width:.09525;stroke-miterlimit:41.994751"/><path d="M53.77815 129.87338A.47625 .47625 0 0052.82565 129.87338A.47625 .47625 0 0053.77815 129.87338z" fill="rgba(0,0,255,.24705882)"/><path d="M35.175825 121.85333H64.86525V109.63275H35.175825z" style="fill:rgba(0,0,255,.24705882);stroke:rgba(0,0,255,.24705882);stroke-width:.09525;stroke-miterlimit:41.994751"/><path d="M49.73955 114.97628A.47625 .47625 0 0048.78705 114.97628A.47625 .47625 0 0049.73955 114.97628z" fill="rgba(0,0,255,.24705882)"/><path d="M49.2633 114.97628L53.3019 129.87338" style="fill:none;stroke:rgba(0,0,255,.24705882);stroke-width:.09525;stroke-miterlimit:41.994751"/><path d="M67.34175 115.52873L53.3019 129.87338" style="fill:none;stroke:rgba(0,0,255,.24705882);stroke-width:.09525;stroke-miterlimit:41.994751"/></svg>