<svg version="1.1" width="242.1255mm" height="243.55425mm" viewBox="0 0 242.1255 243.55425" xmlns="http://www.w3.org/2000/svg" xmlns:xlink="http://www.w3.org/1999/xlink"><path d="M129.921 94.96425H131.826" style="fill:none;stroke:#f00;stroke-width:.09525;stroke-miterlimit:41.994751"/><path d="M129.921 94.96425V93.05925" style="fill:none;stroke:#0f0;stroke-width:.09525;stroke-miterlimit:41.994751"/><path d="M71.0946 104.48925H115.61445V73.6092H71.0946z" style="fill:rgba(255,0,0,.24705882);stroke:rgba(255,0,0,.24705882);stroke-width:.09525;stroke-miterlimit:41.994751"/><path d="M81.81975 92.459175A.47625 .47625 0 0080.86725 92.459175A.47625 .47625 0 0081.81975 92.459175z" fill="rgba(255,0,0,.24705882)"/><path d="M57.235725 104.65117H68.7324V58.99785H57.235725z" style="fill:rgba(255,0,0,.24705882);stroke:rgba(255,0,0,.24705882);stroke-width:.09525;stroke-miterlimit:41.994751"/><path d="M63.122175 90.54465A.47625 .47625 0 0062.169675 90.54465A.47625 .47625 0 0063.122175 90.54465z" fill="rgba(255,0,0,.24705882)"/><path d="M46.777275 104.74642H56.626125V56.02605H46.777275z" style="fill:rgba(255,0,0,.24705882);stroke:rgba(255,0,0,.24705882);stroke-width:.09525;stroke-miterlimit:41.994751"/><path d="M49.6443 62.398275A.47625 .47625 0 0048.6918 62.398275A.47625 .47625 0 0049.6443 62.398275z" fill="rgba(255,0,0,.24705882)"/><path d="M46.7868 55.34025H60.340875V48.186975H46.7868z" style="fill:rgba(255,0,0,.24705882);stroke:rgba(255,0,0,.24705882);stroke-width:.09525;stroke-miterlimit:41.994751"/><path d="M59.636025 51.2826A.47625 .47625 0 0058.683525 51.2826A.47625 .47625 0 0059.636025 51.2826z" fill="rgba(255,0,0,.24705882)"/><path d="M81.89595 73.36155H115.57635V67.49415H81.89595z" style="fill:rgba(255,0,0,.24705882);stroke:rgba(255,0,0,.24705882);stroke-width:.09525;stroke-miterlimit:41.994751"/><path d="M88.706325 70.932675A.47625 .47625 0 0087.753825 70.932675A.47625 .47625 0 0088.706325 70.932675z" fill="rgba(255,0,0,.24705882)"/><path d="M82.1436 65.0367H114.00472V49.09185H82.1436z" style="fill:rgba(255,0,0,.24705882);stroke:rgba(255,0,0,.24705882);stroke-width:.09525;stroke-miterlimit:41.994751"/><path d="M93.678375 58.550175A.47625 .47625 0 0092.725875 58.550175A.47625 .47625 0 0093.678375 58.550175z" fill="rgba(255,0,0,.24705882)"/><path d="M88.230075 70.932675L93.202125 58.550175" style="fill:none;stroke:rgba(255,0,0,.24705882);stroke-width:.09525;stroke-miterlimit:41.994751"/><path d="M81.3435 92.459175L88.230075 70.932675" style="fill:none;stroke:rgba(255,0,0,.24705882);stroke-width:.09525;stroke-miterlimit:41.994751"/><path d="M62.645925 90.54465L81.3435 92.459175" style="fill:none;stroke:rgba(255,0,0,.24705882);stroke-width:.09525;stroke-miterlimit:41.994751"/><path d="M49.16805 62.398275L62.645925 90.54465" style="fill:none;stroke:rgba(255,0,0,.24705882);stroke-width:.09525;stroke-miterlimit:41.994751"/><path d="M59.159775 51.2826L49.16805 62.398275" style="fill:none;stroke:rgba(255,0,0,.24705882);stroke-width:.09525;stroke-miterlimit:41.994751"/><path d="M59.159775 51.2826L74.437875 52.3875" style="fill:none;stroke:rgba(238,0,16,.24705882);stroke-width:.09525;stroke-miterlimit:41.994751"/><path d="M70.837425 54.987825H77.5335V47.996475H70.837425z" style="fill:rgba(222,0,32,.24705882);stroke:rgba(222,0,32,.24705882);stroke-width:.09525;stroke-miterlimit:41.994751"/><path d="M74.914125 52.3875A.47625 .47625 0 0073.961625 52.3875A.47625 .47625 0 0074.914125 52.3875z" fill="rgba(222,0,32,.24705882)"/><path d="M230.05732 82.0293H241.79212V71.34225H230.05732z" style="fill:rgba(214,0,40,.24705882);stroke:rgba(214,0,40,.24705882);stroke-width:.09525;stroke-miterlimit:41.994751"/><path d="M239.67757 76.990575A.47625 .47625 0 00238.72508 76.990575A.47625 .47625 0 00239.67757 76.990575z" fill="rgba(214,0,40,.24705882)"/><path d="M239.20132 76.990575L226.93312 76.742925" style="fill:none;stroke:rgba(206,0,44,.24705882);stroke-width:.09525;stroke-miterlimit:41.994751"/><path d="M227.40937 76.742925A.47625 .47625 0 00226.45687 76.742925A.47625 .47625 0 00227.40937 76.742925z" fill="rgba(202,0,48,.24705882)"/><path d="M74.437875 52.3875L73.485375 77.181075" style="fill:none;stroke:rgba(194,0,56,.24705882);stroke-width:.09525;stroke-miterlimit:41.994751"/><path d="M226.93312 76.742925L221.99917 76.71435" style="fill:none;stroke:rgba(194,0,56,.24705882);stroke-width:.09525;stroke-miterlimit:41.994751"/><path d="M222.47542 76.71435A.47625 .47625 0 00221.52292 76.71435A.47625 .47625 0 00222.47542 76.71435z" fill="rgba(190,0,64,.24705882)"/><path d="M118.31955 27.498675H144.2085V.28575H118.31955z" style="fill:rgba(178,0,72,.24705882);stroke:rgba(178,0,72,.24705882);stroke-width:.09525;stroke-miterlimit:41.994751"/><path d="M124.79655 2.4765A.47625 .47625 0 00123.84405 2.4765A.47625 .47625 0 00124.79655 2.4765z" fill="rgba(178,0,72,.24705882)"/><path d="M221.99917 76.71435L214.22677 76.971525" style="fill:none;stroke:rgba(178,0,72,.24705882);stroke-width:.09525;stroke-miterlimit:41.994751"/><path d="M87.99195 175.08855A.47625 .47625 0 0087.03945 175.08855A.47625 .47625 0 0087.99195 175.08855z" fill="rgba(178,0,72,.24705882)"/><path d="M87.5157 175.08855L86.39175 198.83437" style="fill:none;stroke:rgba(178,0,76,.24705882);stroke-width:.09525;stroke-miterlimit:41.994751"/><path d="M89.639775 151.61895L87.5157 175.08855" style="fill:none;stroke:rgba(178,0,76,.24705882);stroke-width:.09525;stroke-miterlimit:41.994751"/><path d="M86.868 198.83437A.47625 .47625 0 0085.9155 198.83437A.47625 .47625 0 0086.868 198.83437z" fill="rgba(178,0,76,.24705882)"/><path d="M.200025 107.7087H42.491025V74.399775H.200025z" style="fill:rgba(178,0,76,.24705882);stroke:rgba(178,0,76,.24705882);stroke-width:.09525;stroke-miterlimit:41.994751"/><path d="M4.791075 89.125425A.47625 .47625 0 003.838575 89.125425A.47625 .47625 0 004.791075 89.125425z" fill="rgba(178,0,76,.24705882)"/><path d="M76.933425 153.01913H103.03193V133.49287H76.933425z" style="fill:rgba(178,0,76,.24705882);stroke:rgba(178,0,76,.24705882);stroke-width:.09525;stroke-miterlimit:41.994751"/><path d="M90.116025 151.61895A.47625 .47625 0 0089.163525 151.61895A.47625 .47625 0 0090.116025 151.61895z" fill="rgba(178,0,76,.24705882)"/><path d="M127.98742 35.899725L124.3203 2.4765" style="fill:none;stroke:rgba(174,0,80,.24705882);stroke-width:.09525;stroke-miterlimit:41.994751"/><path d="M124.3203 2.4765L96.45015 10.38225" style="fill:none;stroke:rgba(174,0,80,.24705882);stroke-width:.09525;stroke-miterlimit:41.994751"/><path d="M158.6484 98.059875H192.8622V54.492525H158.6484z" style="fill:rgba(174,0,80,.24705882);stroke:rgba(174,0,80,.24705882);stroke-width:.09525;stroke-miterlimit:41.994751"/><path d="M187.62345 77.638275A.47625 .47625 0 00186.67095 77.638275A.47625 .47625 0 00187.62345 77.638275z" fill="rgba(174,0,80,.24705882)"/><path d="M4.314825 89.125425L25.155525 100.17442" style="fill:none;stroke:rgba(174,0,80,.24705882);stroke-width:.09525;stroke-miterlimit:41.994751"/><path d="M29.08935 72.799575L4.314825 89.125425" style="fill:none;stroke:rgba(174,0,80,.24705882);stroke-width:.09525;stroke-miterlimit:41.994751"/><path d="M86.39175 198.83437L61.09335 210.62633" style="fill:none;stroke:rgba(174,0,80,.24705882);stroke-width:.09525;stroke-miterlimit:41.994751"/><path d="M87.4776 131.58787L89.639775 151.61895" style="fill:none;stroke:rgba(174,0,80,.24705882);stroke-width:.09525;stroke-miterlimit:41.994751"/><path d="M82.057875 131.22592H114.25238V110.92815H82.057875z" style="fill:rgba(174,0,80,.24705882);stroke:rgba(174,0,80,.24705882);stroke-width:.09525;stroke-miterlimit:41.994751"/><path d="M103.35577 120.3579A.47625 .47625 0 00102.40328 120.3579A.47625 .47625 0 00103.35577 120.3579z" fill="rgba(174,0,80,.24705882)"/><path d="M102.87953 120.3579L131.39737 115.9383" style="fill:none;stroke:rgba(174,0,80,.24705882);stroke-width:.09525;stroke-miterlimit:41.994751"/><path d="M87.4776 131.58787L102.87953 120.3579" style="fill:none;stroke:rgba(170,0,80,.24705882);stroke-width:.09525;stroke-miterlimit:41.994751"/><path d="M187.1472 77.638275L156.95295 77.390625" style="fill:none;stroke:rgba(170,0,80,.24705882);stroke-width:.09525;stroke-miterlimit:41.994751"/><path d="M214.22677 76.971525L187.1472 77.638275" style="fill:none;stroke:rgba(170,0,80,.24705882);stroke-width:.09525;stroke-miterlimit:41.994751"/><path d="M33.251775 129.8829H45.7581V111.80445H33.251775z" style="fill:rgba(170,0,80,.24705882);stroke:rgba(170,0,80,.24705882);stroke-width:.09525;stroke-miterlimit:41.994751"/><path d="M44.4627 117.0432A.47625 .47625 0 0043.5102 117.0432A.47625 .47625 0 0044.4627 117.0432z" fill="rgba(170,0,80,.24705882)"/><path d="M136.22655 106.7943H158.52457V86.496525H136.22655z" style="fill:rgba(170,0,80,.24705882);stroke:rgba(170,0,80,.24705882);stroke-width:.09525;stroke-miterlimit:41.994751"/><path d="M141.33195 93.66885A.47625 .47625 0 00140.37945 93.66885A.47625 .47625 0 00141.33195 93.66885z" fill="rgba(170,0,80,.24705882)"/><path d="M33.6423 45.0723H78.476475V11.9634H33.6423z" style="fill:rgba(170,0,80,.24705882);stroke:rgba(170,0,80,.24705882);stroke-width:.09525;stroke-miterlimit:41.994751"/><path d="M71.60895 22.126575A.47625 .47625 0 0070.65645 22.126575A.47625 .47625 0 0071.60895 22.126575z" fill="rgba(170,0,80,.24705882)"/><path d="M25.155525 100.17442L43.98645 117.0432" style="fill:none;stroke:rgba(170,0,80,.24705882);stroke-width:.09525;stroke-miterlimit:41.994751"/><path d="M131.39737 115.9383L140.8557 93.66885" style="fill:none;stroke:rgba(170,0,80,.24705882);stroke-width:.09525;stroke-miterlimit:41.994751"/><path d="M25.631775 100.17442A.47625 .47625 0 0024.679275 100.17442A.47625 .47625 0 0025.631775 100.17442z" fill="rgba(170,0,85,.24705882)"/><path d="M119.11012 132.3594H146.66595V106.88002H119.11012z" style="fill:rgba(170,0,85,.24705882);stroke:rgba(170,0,85,.24705882);stroke-width:.09525;stroke-miterlimit:41.994751"/><path d="M131.87362 115.9383A.47625 .47625 0 00130.92112 115.9383A.47625 .47625 0 00131.87362 115.9383z" fill="rgba(170,0,85,.24705882)"/><path d="M43.98645 117.0432L69.0753 116.90985" style="fill:none;stroke:rgba(170,0,85,.24705882);stroke-width:.09525;stroke-miterlimit:41.994751"/><path d="M140.8557 93.66885L156.95295 77.390625" style="fill:none;stroke:rgba(170,0,85,.24705882);stroke-width:.09525;stroke-miterlimit:41.994751"/><path d="M11.001375 73.428225H42.929175V46.50105H11.001375z" style="fill:rgba(170,0,85,.24705882);stroke:rgba(170,0,85,.24705882);stroke-width:.09525;stroke-miterlimit:41.994751"/><path d="M29.5656 72.799575A.47625 .47625 0 0028.6131 72.799575A.47625 .47625 0 0029.5656 72.799575z" fill="rgba(170,0,85,.24705882)"/><path d="M87.95385 131.58787A.47625 .47625 0 0087.00135 131.58787A.47625 .47625 0 0087.95385 131.58787z" fill="rgba(170,0,85,.24705882)"/><path d="M96.45015 10.38225L71.1327 22.126575" style="fill:none;stroke:rgba(170,0,85,.24705882);stroke-width:.09525;stroke-miterlimit:41.994751"/><path d="M69.0753 116.90985L87.4776 131.58787" style="fill:none;stroke:rgba(170,0,85,.24705882);stroke-width:.09525;stroke-miterlimit:41.994751"/><path d="M118.46242 49.05375H145.0467V29.69895H118.46242z" style="fill:rgba(170,0,85,.24705882);stroke:rgba(170,0,85,.24705882);stroke-width:.09525;stroke-miterlimit:41.994751"/><path d="M128.46367 35.899725A.47625 .47625 0 00127.51117 35.899725A.47625 .47625 0 00128.46367 35.899725z" fill="rgba(170,0,85,.24705882)"/><path d="M119.253 106.43235H135.61695V49.1109H119.253z" style="fill:rgba(170,0,85,.24705882);stroke:rgba(170,0,85,.24705882);stroke-width:.09525;stroke-miterlimit:41.994751"/><path d="M130.17817 74.54265A.47625 .47625 0 00129.22567 74.54265A.47625 .47625 0 00130.17817 74.54265z" fill="rgba(170,0,85,.24705882)"/><path d="M52.44465 213.53145H91.144725V191.69063H52.44465z" style="fill:rgba(170,0,85,.24705882);stroke:rgba(170,0,85,.24705882);stroke-width:.09525;stroke-miterlimit:41.994751"/><path d="M61.5696 210.62633A.47625 .47625 0 0060.6171 210.62633A.47625 .47625 0 0061.5696 210.62633z" fill="rgba(170,0,85,.24705882)"/><path d="M46.072425 129.60667H79.49565V109.55655H46.072425z" style="fill:rgba(170,0,85,.24705882);stroke:rgba(170,0,85,.24705882);stroke-width:.09525;stroke-miterlimit:41.994751"/><path d="M69.55155 116.90985A.47625 .47625 0 0068.59905 116.90985A.47625 .47625 0 0069.55155 116.90985z" fill="rgba(170,0,85,.24705882)"/><path d="M156.95295 77.390625L129.70192 74.54265" style="fill:none;stroke:rgba(170,0,85,.24705882);stroke-width:.09525;stroke-miterlimit:41.994751"/><path d="M129.70192 74.54265L117.71947 74.456925" style="fill:none;stroke:rgba(170,0,85,.24705882);stroke-width:.09525;stroke-miterlimit:41.994751"/><path d="M61.09335 210.62633L63.693675 234.696" style="fill:none;stroke:rgba(170,0,85,.24705882);stroke-width:.09525;stroke-miterlimit:41.994751"/><path d="M136.14083 86.2584H158.54363V49.6062H136.14083z" style="fill:rgba(170,0,85,.24705882);stroke:rgba(170,0,85,.24705882);stroke-width:.09525;stroke-miterlimit:41.994751"/><path d="M157.4292 77.390625A.47625 .47625 0 00156.4767 77.390625A.47625 .47625 0 00157.4292 77.390625z" fill="rgba(170,0,85,.24705882)"/><path d="M83.8581 44.9961H115.69065V25.707975H83.8581z" style="fill:rgba(170,0,85,.24705882);stroke:rgba(170,0,85,.24705882);stroke-width:.09525;stroke-miterlimit:41.994751"/><path d="M103.66057 31.14675A.47625 .47625 0 00102.70808 31.14675A.47625 .47625 0 00103.66057 31.14675z" fill="rgba(170,0,85,.24705882)"/><path d="M68.9991 104.5083H80.781525V70.58025H68.9991z" style="fill:rgba(170,0,85,.24705882);stroke:rgba(170,0,85,.24705882);stroke-width:.09525;stroke-miterlimit:41.994751"/><path d="M73.961625 77.181075A.47625 .47625 0 0073.009125 77.181075A.47625 .47625 0 0073.961625 77.181075z" fill="rgba(170,0,85,.24705882)"/><path d="M81.21015 105.58462H97.907475V70.437375H81.21015z" style="fill:rgba(170,0,85,.24705882);stroke:rgba(170,0,85,.24705882);stroke-width:.09525;stroke-miterlimit:41.994751"/><path d="M89.535 75.504675A.47625 .47625 0 0088.5825 75.504675A.47625 .47625 0 0089.535 75.504675z" fill="rgba(170,0,85,.24705882)"/><path d="M56.7309 243.27802H72.971025V216.70327H56.7309z" style="fill:rgba(170,0,85,.24705882);stroke:rgba(170,0,85,.24705882);stroke-width:.09525;stroke-miterlimit:41.994751"/><path d="M64.169925 234.696A.47625 .47625 0 0063.217425 234.696A.47625 .47625 0 0064.169925 234.696z" fill="rgba(170,0,85,.24705882)"/><path d="M69.218175 94.58325A.47625 .47625 0 0068.265675 94.58325A.47625 .47625 0 0069.218175 94.58325z" fill="rgba(170,0,85,.24705882)"/><path d="M97.183575 46.482A.47625 .47625 0 0096.231075 46.482A.47625 .47625 0 0097.183575 46.482z" fill="rgba(170,0,85,.24705882)"/><path d="M81.28635 70.208775H92.592525V54.530625H81.28635z" style="fill:rgba(170,0,85,.24705882);stroke:rgba(170,0,85,.24705882);stroke-width:.09525;stroke-miterlimit:41.994751"/><path d="M82.476975 59.293125A.47625 .47625 0 0081.524475 59.293125A.47625 .47625 0 0082.476975 59.293125z" fill="rgba(170,0,85,.24705882)"/><path d="M92.8116 70.23735H98.0694V47.805975H92.8116z" style="fill:rgba(170,0,85,.24705882);stroke:rgba(170,0,85,.24705882);stroke-width:.09525;stroke-miterlimit:41.994751"/><path d="M97.945575 49.7205A.47625 .47625 0 0096.993075 49.7205A.47625 .47625 0 0097.945575 49.7205z" fill="rgba(170,0,85,.24705882)"/><path d="M47.120175 81.153H67.5513V60.02655H47.120175z" style="fill:rgba(170,0,85,.24705882);stroke:rgba(170,0,85,.24705882);stroke-width:.09525;stroke-miterlimit:41.994751"/><path d="M57.5691 68.475225A.47625 .47625 0 0056.6166 68.475225A.47625 .47625 0 0057.5691 68.475225z" fill="rgba(170,0,85,.24705882)"/><path d="M46.65345 59.34075H56.340375V47.786925H46.65345z" style="fill:rgba(170,0,85,.24705882);stroke:rgba(170,0,85,.24705882);stroke-width:.09525;stroke-miterlimit:41.994751"/><path d="M52.8066 50.46345A.47625 .47625 0 0051.8541 50.46345A.47625 .47625 0 0052.8066 50.46345z" fill="rgba(170,0,85,.24705882)"/><path d="M98.040825 105.6132H116.14785V70.665975H98.040825z" style="fill:rgba(170,0,85,.24705882);stroke:rgba(170,0,85,.24705882);stroke-width:.09525;stroke-miterlimit:41.994751"/><path d="M110.16615 74.9808A.47625 .47625 0 00109.21365 74.9808A.47625 .47625 0 00110.16615 74.9808z" fill="rgba(170,0,85,.24705882)"/><path d="M83.0199 75.409425A.47625 .47625 0 0082.0674 75.409425A.47625 .47625 0 0083.0199 75.409425z" fill="rgba(170,0,85,.24705882)"/><path d="M46.8249 104.775H67.1322V85.220175H46.8249z" style="fill:rgba(170,0,85,.24705882);stroke:rgba(170,0,85,.24705882);stroke-width:.09525;stroke-miterlimit:41.994751"/><path d="M56.873775 92.25915A.47625 .47625 0 0055.921275 92.25915A.47625 .47625 0 0056.873775 92.25915z" fill="rgba(170,0,85,.24705882)"/><path d="M118.19572 74.456925A.47625 .47625 0 00117.24322 74.456925A.47625 .47625 0 00118.19572 74.456925z" fill="rgba(170,0,85,.24705882)"/><path d="M98.117025 70.551675H116.205V48.434625H98.117025z" style="fill:rgba(170,0,85,.24705882);stroke:rgba(170,0,85,.24705882);stroke-width:.09525;stroke-miterlimit:41.994751"/><path d="M110.5281 50.7873A.47625 .47625 0 00109.5756 50.7873A.47625 .47625 0 00110.5281 50.7873z" fill="rgba(170,0,85,.24705882)"/><path d="M81.238725 54.42585H92.44965V47.825025H81.238725z" style="fill:rgba(170,0,85,.24705882);stroke:rgba(170,0,85,.24705882);stroke-width:.09525;stroke-miterlimit:41.994751"/><path d="M82.915125 49.3395A.47625 .47625 0 0081.962625 49.3395A.47625 .47625 0 0082.915125 49.3395z" fill="rgba(170,0,85,.24705882)"/><path d="M194.17665 82.35315H216.49372V71.0184H194.17665z" style="fill:rgba(170,0,85,.24705882);stroke:rgba(170,0,85,.24705882);stroke-width:.09525;stroke-miterlimit:41.994751"/><path d="M214.70302 76.971525A.47625 .47625 0 00213.75052 76.971525A.47625 .47625 0 00214.70302 76.971525z" fill="rgba(170,0,85,.24705882)"/><path d="M73.485375 77.181075L57.09285 68.475225" style="fill:none;stroke:rgba(170,0,85,.24705882);stroke-width:.09525;stroke-miterlimit:41.994751"/><path d="M82.54365 75.409425L82.000725 59.293125" style="fill:none;stroke:rgba(170,0,85,.24705882);stroke-width:.09525;stroke-miterlimit:41.994751"/><path d="M82.438875 49.3395L97.469325 49.7205" style="fill:none;stroke:rgba(170,0,85,.24705882);stroke-width:.09525;stroke-miterlimit:41.994751"/><path d="M82.438875 49.3395L82.000725 59.293125" style="fill:none;stroke:rgba(170,0,85,.24705882);stroke-width:.09525;stroke-miterlimit:41.994751"/><path d="M110.05185 50.7873L109.6899 74.9808" style="fill:none;stroke:rgba(170,0,85,.24705882);stroke-width:.09525;stroke-miterlimit:41.994751"/><path d="M89.05875 75.504675L109.6899 74.9808" style="fill:none;stroke:rgba(170,0,85,.24705882);stroke-width:.09525;stroke-miterlimit:41.994751"/><path d="M109.6899 74.9808L117.71947 74.456925" style="fill:none;stroke:rgba(170,0,85,.24705882);stroke-width:.09525;stroke-miterlimit:41.994751"/><path d="M96.707325 46.482L103.18433 31.14675" style="fill:none;stroke:rgba(170,0,85,.24705882);stroke-width:.09525;stroke-miterlimit:41.994751"/><path d="M97.469325 49.7205L110.05185 50.7873" style="fill:none;stroke:rgba(170,0,85,.24705882);stroke-width:.09525;stroke-miterlimit:41.994751"/><path d="M82.54365 75.409425L89.05875 75.504675" style="fill:none;stroke:rgba(170,0,85,.24705882);stroke-width:.09525;stroke-miterlimit:41.994751"/><path d="M57.09285 68.475225L52.33035 50.46345" style="fill:none;stroke:rgba(170,0,85,.24705882);stroke-width:.09525;stroke-miterlimit:41.994751"/><path d="M68.741925 94.58325L56.397525 92.25915" style="fill:none;stroke:rgba(170,0,85,.24705882);stroke-width:.09525;stroke-miterlimit:41.994751"/><path d="M85.639275 20.8407H112.87125V.74295H85.639275z" style="fill:rgba(170,0,85,.24705882);stroke:rgba(170,0,85,.24705882);stroke-width:.09525;stroke-miterlimit:41.994751"/><path d="M96.9264 10.38225A.47625 .47625 0 0095.9739 10.38225A.47625 .47625 0 0096.9264 10.38225z" fill="rgba(170,0,85,.24705882)"/><path d="M71.1327 22.126575L38.928675 43.233975" style="fill:none;stroke:rgba(165,0,89,.24705882);stroke-width:.09525;stroke-miterlimit:41.994751"/><path d="M38.928675 43.233975L29.08935 72.799575" style="fill:none;stroke:rgba(165,0,89,.24705882);stroke-width:.09525;stroke-miterlimit:41.994751"/><path d="M52.33035 50.46345L59.817 52.511325" style="fill:none;stroke:rgba(161,0,89,.24705882);stroke-width:.09525;stroke-miterlimit:41.994751"/><path d="M39.404925 43.233975A.47625 .47625 0 0038.452425 43.233975A.47625 .47625 0 0039.404925 43.233975z" fill="rgba(157,0,93,.24705882)"/><path d="M29.08935 72.799575L44.577 72.7329" style="fill:none;stroke:rgba(157,0,93,.24705882);stroke-width:.09525;stroke-miterlimit:41.994751"/><path d="M44.577 72.7329L57.09285 68.475225" style="fill:none;stroke:rgba(157,0,93,.24705882);stroke-width:.09525;stroke-miterlimit:41.994751"/><path d="M60.29325 52.511325A.47625 .47625 0 0059.34075 52.511325A.47625 .47625 0 0060.29325 52.511325z" fill="rgba(157,0,97,.24705882)"/><path d="M59.817 52.511325L65.532 52.739925" style="fill:none;stroke:rgba(149,0,105,.24705882);stroke-width:.09525;stroke-miterlimit:41.994751"/><path d="M45.05325 72.7329A.47625 .47625 0 0044.10075 72.7329A.47625 .47625 0 0045.05325 72.7329z" fill="rgba(149,0,105,.24705882)"/><path d="M71.1327 22.126575L60.9219 46.205775" style="fill:none;stroke:rgba(141,0,113,.24705882);stroke-width:.09525;stroke-miterlimit:41.994751"/><path d="M66.00825 52.739925A.47625 .47625 0 0065.05575 52.739925A.47625 .47625 0 0066.00825 52.739925z" fill="rgba(141,0,113,.24705882)"/><path d="M65.532 52.739925L73.847325 52.892325" style="fill:none;stroke:rgba(133,0,121,.24705882);stroke-width:.09525;stroke-miterlimit:41.994751"/><path d="M69.58965 57.0738H78.590775V48.625125H69.58965z" style="fill:rgba(125,0,125,.24705882);stroke:rgba(125,0,125,.24705882);stroke-width:.09525;stroke-miterlimit:41.994751"/><path d="M74.323575 52.892325A.47625 .47625 0 0073.371075 52.892325A.47625 .47625 0 0074.323575 52.892325z" fill="rgba(125,0,125,.24705882)"/><path d="M61.39815 46.205775A.47625 .47625 0 0060.44565 46.205775A.47625 .47625 0 0061.39815 46.205775z" fill="rgba(113,0,141,.24705882)"/><path d="M73.847325 52.892325L74.42835 70.989825" style="fill:none;stroke:rgba(105,0,149,.24705882);stroke-width:.09525;stroke-miterlimit:41.994751"/><path d="M46.101 82.69605H69.13245V71.180325H46.101z" style="fill:rgba(85,0,170,.24705882);stroke:rgba(85,0,170,.24705882);stroke-width:.09525;stroke-miterlimit:41.994751"/><path d="M54.778275 78.65745A.47625 .47625 0 0053.825775 78.65745A.47625 .47625 0 0054.778275 78.65745z" fill="rgba(85,0,170,.24705882)"/><path d="M92.630625 72.266175A.47625 .47625 0 0091.678125 72.266175A.47625 .47625 0 0092.630625 72.266175z" fill="rgba(85,0,170,.24705882)"/><path d="M78.971775 105.63225H88.592025V64.0842H78.971775z" style="fill:rgba(85,0,170,.24705882);stroke:rgba(85,0,170,.24705882);stroke-width:.09525;stroke-miterlimit:41.994751"/><path d="M85.582125 76.4286A.47625 .47625 0 0084.629625 76.4286A.47625 .47625 0 0085.582125 76.4286z" fill="rgba(85,0,170,.24705882)"/><path d="M91.1733 64.0842H114.4143V49.139475H91.1733z" style="fill:rgba(85,0,170,.24705882);stroke:rgba(85,0,170,.24705882);stroke-width:.09525;stroke-miterlimit:41.994751"/><path d="M103.30815 58.6359A.47625 .47625 0 00102.35565 58.6359A.47625 .47625 0 00103.30815 58.6359z" fill="rgba(85,0,170,.24705882)"/><path d="M69.2658 105.63225H78.781275V71.256525H69.2658z" style="fill:rgba(85,0,170,.24705882);stroke:rgba(85,0,170,.24705882);stroke-width:.09525;stroke-miterlimit:41.994751"/><path d="M75.733275 77.1906A.47625 .47625 0 0074.780775 77.1906A.47625 .47625 0 0075.733275 77.1906z" fill="rgba(85,0,170,.24705882)"/><path d="M90.820875 102.82237H114.88102V66.92265H90.820875z" style="fill:rgba(85,0,170,.24705882);stroke:rgba(85,0,170,.24705882);stroke-width:.09525;stroke-miterlimit:41.994751"/><path d="M102.9843 80.857725A.47625 .47625 0 00102.0318 80.857725A.47625 .47625 0 00102.9843 80.857725z" fill="rgba(85,0,170,.24705882)"/><path d="M47.30115 104.3559H66.722625V84.648675H47.30115z" style="fill:rgba(85,0,170,.24705882);stroke:rgba(85,0,170,.24705882);stroke-width:.09525;stroke-miterlimit:41.994751"/><path d="M57.3786 96.764475A.47625 .47625 0 0056.4261 96.764475A.47625 .47625 0 0057.3786 96.764475z" fill="rgba(85,0,170,.24705882)"/><path d="M74.9046 70.989825A.47625 .47625 0 0073.9521 70.989825A.47625 .47625 0 0074.9046 70.989825z" fill="rgba(85,0,170,.24705882)"/><path d="M54.864 83.867625A.47625 .47625 0 0053.9115 83.867625A.47625 .47625 0 0054.864 83.867625z" fill="rgba(85,0,170,.24705882)"/><path d="M80.210025 64.0842H88.56345V47.72025H80.210025z" style="fill:rgba(85,0,170,.24705882);stroke:rgba(85,0,170,.24705882);stroke-width:.09525;stroke-miterlimit:41.994751"/><path d="M85.467825 58.340625A.47625 .47625 0 0084.515325 58.340625A.47625 .47625 0 0085.467825 58.340625z" fill="rgba(85,0,170,.24705882)"/><path d="M90.23985 58.19775A.47625 .47625 0 0089.28735 58.19775A.47625 .47625 0 0090.23985 58.19775z" fill="rgba(85,0,170,.24705882)"/><path d="M103.20337 65.389125A.47625 .47625 0 00102.25087 65.389125A.47625 .47625 0 00103.20337 65.389125z" fill="rgba(85,0,170,.24705882)"/><path d="M91.430475 72.189975A.47625 .47625 0 0090.477975 72.189975A.47625 .47625 0 0091.430475 72.189975z" fill="rgba(85,0,170,.24705882)"/><path d="M54.38775 83.867625L56.90235 96.764475" style="fill:none;stroke:rgba(85,0,170,.24705882);stroke-width:.09525;stroke-miterlimit:41.994751"/><path d="M102.50805 80.857725L92.154375 72.266175" style="fill:none;stroke:rgba(85,0,170,.24705882);stroke-width:.09525;stroke-miterlimit:41.994751"/><path d="M102.50805 80.857725L102.72712 65.389125" style="fill:none;stroke:rgba(85,0,170,.24705882);stroke-width:.09525;stroke-miterlimit:41.994751"/><path d="M89.7636 58.19775L102.8319 58.6359" style="fill:none;stroke:rgba(85,0,170,.24705882);stroke-width:.09525;stroke-miterlimit:41.994751"/><path d="M102.72712 65.389125L102.8319 58.6359" style="fill:none;stroke:rgba(85,0,170,.24705882);stroke-width:.09525;stroke-miterlimit:41.994751"/><path d="M75.257025 77.1906L54.302025 78.65745" style="fill:none;stroke:rgba(85,0,170,.24705882);stroke-width:.09525;stroke-miterlimit:41.994751"/><path d="M90.954225 72.189975L92.154375 72.266175" style="fill:none;stroke:rgba(85,0,170,.24705882);stroke-width:.09525;stroke-miterlimit:41.994751"/><path d="M85.105875 76.4286L84.991575 58.340625" style="fill:none;stroke:rgba(85,0,170,.24705882);stroke-width:.09525;stroke-miterlimit:41.994751"/><path d="M89.7636 58.19775L84.991575 58.340625" style="fill:none;stroke:rgba(85,0,170,.24705882);stroke-width:.09525;stroke-miterlimit:41.994751"/><path d="M74.42835 70.989825L75.257025 77.1906" style="fill:none;stroke:rgba(85,0,170,.24705882);stroke-width:.09525;stroke-miterlimit:41.994751"/><path d="M54.302025 78.65745L54.38775 83.867625" style="fill:none;stroke:rgba(85,0,170,.24705882);stroke-width:.09525;stroke-miterlimit:41.994751"/><path d="M85.105875 76.4286L75.257025 77.1906" style="fill:none;stroke:rgba(85,0,170,.24705882);stroke-width:.09525;stroke-miterlimit:41.994751"/><path d="M90.954225 72.189975L90.297 72.075675" style="fill:none;stroke:rgba(44,0,210,.24705882);stroke-width:.09525;stroke-miterlimit:41.994751"/><path d="M90.77325 72.075675A.47625 .47625 0 0089.82075 72.075675A.47625 .47625 0 0090.77325 72.075675z" fill="rgba(8,0,246,.24705882)"/><path d="M90.297 72.075675L90.096975 72.209025" style="fill:none;stroke:rgba(4,0,250,.24705882);stroke-width:.09525;stroke-miterlimit:41.994751"/><path d="M48.52035 101.88893H70.42785V53.9496H48.52035z" style="fill:rgba(0,0,255,.24705882);stroke:rgba(0,0,255,.24705882);stroke-width:.09525;stroke-miterlimit:41.994751"/><path d="M55.768875 73.313925A.47625 .47625 0 0054.816375 73.313925A.47625 .47625 0 0055.768875 73.313925z" fill="rgba(0,0,255,.24705882)"/><path d="M90.46845 103.29862H115.43347V50.3682H90.46845z" style="fill:rgba(0,0,255,.24705882);stroke:rgba(0,0,255,.24705882);stroke-width:.09525;stroke-miterlimit:41.994751"/><path d="M113.35702 78.400275A.47625 .47625 0 00112.40453 78.400275A.47625 .47625 0 00113.35702 78.400275z" fill="rgba(0,0,255,.24705882)"/><path d="M90.573225 72.209025A.47625 .47625 0 0089.620725 72.209025A.47625 .47625 0 0090.573225 72.209025z" fill="rgba(0,0,255,.24705882)"/><path d="M90.096975 72.209025L112.88077 78.400275" style="fill:none;stroke:rgba(0,0,255,.24705882);stroke-width:.09525;stroke-miterlimit:41.994751"/><path d="M90.096975 72.209025L55.292625 73.313925" style="fill:none;stroke:rgba(0,0,255,.24705882);stroke-width:.09525;stroke-miterlimit:41.994751"/></svg>