<svg version="1.1" width="321.564mm" height="267.6525mm" viewBox="0 0 321.564 267.6525" xmlns="http://www.w3.org/2000/svg" xmlns:xlink="http://www.w3.org/1999/xlink"><path d="M116.3955 195.16725H118.3005" style="fill:none;stroke:#f00;stroke-width:.09525;stroke-miterlimit:41.994751"/><path d="M116.3955 195.16725V193.26225" style="fill:none;stroke:#0f0;stroke-width:.09525;stroke-miterlimit:41.994751"/><path d="M127.08255 70.3326A.47625 .47625 0 00126.13005 70.3326A.47625 .47625 0 00127.08255 70.3326z" fill="rgba(255,0,0,.24705882)"/><path d="M50.492025 82.12455L126.6063 70.3326" style="fill:none;stroke:rgba(255,0,0,.24705882);stroke-width:.09525;stroke-miterlimit:41.994751"/><path d="M24.02205 104.44163H78.571725V49.977675H24.02205z" style="fill:rgba(255,0,0,.24705882);stroke:rgba(255,0,0,.24705882);stroke-width:.09525;stroke-miterlimit:41.994751"/><path d="M50.968275 82.12455A.47625 .47625 0 0050.015775 82.12455A.47625 .47625 0 0050.968275 82.12455z" fill="rgba(255,0,0,.24705882)"/><path d="M78.476475 167.84003H131.94983V56.873775H78.476475z" style="fill:rgba(255,0,0,.24705882);stroke:rgba(255,0,0,.24705882);stroke-width:.09525;stroke-miterlimit:41.994751"/><path d="M106.66095 133.71195A.47625 .47625 0 00105.70845 133.71195A.47625 .47625 0 00106.66095 133.71195z" fill="rgba(255,0,0,.24705882)"/><path d="M50.492025 82.12455L106.1847 133.71195" style="fill:none;stroke:rgba(255,0,0,.24705882);stroke-width:.09525;stroke-miterlimit:41.994751"/><path d="M131.445 163.88715L106.1847 133.71195" style="fill:none;stroke:rgba(242,0,12,.24705882);stroke-width:.09525;stroke-miterlimit:41.994751"/><path d="M131.92125 163.88715A.47625 .47625 0 00130.96875 163.88715A.47625 .47625 0 00131.92125 163.88715z" fill="rgba(230,0,24,.24705882)"/><path d="M101.31743 237.46778L106.1847 133.71195" style="fill:none;stroke:rgba(230,0,24,.24705882);stroke-width:.09525;stroke-miterlimit:41.994751"/><path d="M126.6063 70.3326L221.37052 67.53225" style="fill:none;stroke:rgba(230,0,24,.24705882);stroke-width:.09525;stroke-miterlimit:41.994751"/><path d="M131.445 163.88715L133.77863 163.68713" style="fill:none;stroke:rgba(226,0,28,.24705882);stroke-width:.09525;stroke-miterlimit:41.994751"/><path d="M134.25487 163.68713A.47625 .47625 0 00133.30238 163.68713A.47625 .47625 0 00134.25487 163.68713z" fill="rgba(218,0,32,.24705882)"/><path d="M216.9795 141.9225H321.2592V82.972275H216.9795z" style="fill:rgba(218,0,32,.24705882);stroke:rgba(218,0,32,.24705882);stroke-width:.09525;stroke-miterlimit:41.994751"/><path d="M260.76592 138.55065A.47625 .47625 0 00259.81342 138.55065A.47625 .47625 0 00260.76592 138.55065z" fill="rgba(218,0,32,.24705882)"/><path d="M260.28967 138.55065L249.50737 30.6705" style="fill:none;stroke:rgba(218,0,36,.24705882);stroke-width:.09525;stroke-miterlimit:41.994751"/><path d="M245.18302 169.59263L260.28967 138.55065" style="fill:none;stroke:rgba(214,0,40,.24705882);stroke-width:.09525;stroke-miterlimit:41.994751"/><path d="M223.4946 80.90535H271.12912V.36195H223.4946z" style="fill:rgba(214,0,40,.24705882);stroke:rgba(214,0,40,.24705882);stroke-width:.09525;stroke-miterlimit:41.994751"/><path d="M249.98362 30.6705A.47625 .47625 0 00249.03113 30.6705A.47625 .47625 0 00249.98362 30.6705z" fill="rgba(214,0,40,.24705882)"/><path d="M221.37052 67.53225L260.28967 138.55065" style="fill:none;stroke:rgba(210,0,40,.24705882);stroke-width:.09525;stroke-miterlimit:41.994751"/><path d="M192.64312 255.82245H282.79725V231.74325H192.64312z" style="fill:rgba(210,0,44,.24705882);stroke:rgba(210,0,44,.24705882);stroke-width:.09525;stroke-miterlimit:41.994751"/><path d="M218.3892 237.88688A.47625 .47625 0 00217.4367 237.88688A.47625 .47625 0 00218.3892 237.88688z" fill="rgba(210,0,44,.24705882)"/><path d="M71.3232 261.08025H152.16188V168.9735H71.3232z" style="fill:rgba(210,0,44,.24705882);stroke:rgba(210,0,44,.24705882);stroke-width:.09525;stroke-miterlimit:41.994751"/><path d="M101.79367 237.46778A.47625 .47625 0 00100.84118 237.46778A.47625 .47625 0 00101.79367 237.46778z" fill="rgba(210,0,44,.24705882)"/><path d="M209.31187 114.1095L260.28967 138.55065" style="fill:none;stroke:rgba(210,0,44,.24705882);stroke-width:.09525;stroke-miterlimit:41.994751"/><path d="M138.48397 163.65855L133.77863 163.68713" style="fill:none;stroke:rgba(210,0,44,.24705882);stroke-width:.09525;stroke-miterlimit:41.994751"/><path d="M217.91295 237.88688L245.18302 169.59263" style="fill:none;stroke:rgba(210,0,44,.24705882);stroke-width:.09525;stroke-miterlimit:41.994751"/><path d="M229.0953 216.28418H321.0306V142.54163H229.0953z" style="fill:rgba(210,0,44,.24705882);stroke:rgba(210,0,44,.24705882);stroke-width:.09525;stroke-miterlimit:41.994751"/><path d="M245.65927 169.59263A.47625 .47625 0 00244.70677 169.59263A.47625 .47625 0 00245.65927 169.59263z" fill="rgba(210,0,44,.24705882)"/><path d="M221.37052 67.53225L249.50737 30.6705" style="fill:none;stroke:rgba(210,0,44,.24705882);stroke-width:.09525;stroke-miterlimit:41.994751"/><path d="M101.31743 237.46778L184.64212 235.65803" style="fill:none;stroke:rgba(202,0,48,.24705882);stroke-width:.09525;stroke-miterlimit:41.994751"/><path d="M184.64212 235.65803L217.91295 237.88688" style="fill:none;stroke:rgba(202,0,48,.24705882);stroke-width:.09525;stroke-miterlimit:41.994751"/><path d="M131.66407 82.838925H223.9137V46.224825H131.66407z" style="fill:rgba(202,0,48,.24705882);stroke:rgba(202,0,48,.24705882);stroke-width:.09525;stroke-miterlimit:41.994751"/><path d="M221.84677 67.53225A.47625 .47625 0 00220.89427 67.53225A.47625 .47625 0 00221.84677 67.53225z" fill="rgba(202,0,48,.24705882)"/><path d="M245.18302 169.59263L226.39972 160.5534" style="fill:none;stroke:rgba(202,0,48,.24705882);stroke-width:.09525;stroke-miterlimit:41.994751"/><path d="M209.31187 114.1095L221.37052 67.53225" style="fill:none;stroke:rgba(202,0,52,.24705882);stroke-width:.09525;stroke-miterlimit:41.994751"/><path d="M152.4762 254.25083H191.47155V226.71405H152.4762z" style="fill:rgba(198,0,56,.24705882);stroke:rgba(198,0,56,.24705882);stroke-width:.09525;stroke-miterlimit:41.994751"/><path d="M185.11837 235.65803A.47625 .47625 0 00184.16587 235.65803A.47625 .47625 0 00185.11837 235.65803z" fill="rgba(198,0,56,.24705882)"/><path d="M184.64212 235.65803L200.9013 225.94253" style="fill:none;stroke:rgba(198,0,56,.24705882);stroke-width:.09525;stroke-miterlimit:41.994751"/><path d="M167.45902 134.55015A.47625 .47625 0 00166.50653 134.55015A.47625 .47625 0 00167.45902 134.55015z" fill="rgba(198,0,56,.24705882)"/><path d="M152.3238 162.8013A.47625 .47625 0 00151.3713 162.8013A.47625 .47625 0 00152.3238 162.8013z" fill="rgba(198,0,56,.24705882)"/><path d="M197.94855 230.93363H210.5025V219.55125H197.94855z" style="fill:rgba(198,0,56,.24705882);stroke:rgba(198,0,56,.24705882);stroke-width:.09525;stroke-miterlimit:41.994751"/><path d="M201.37755 225.94253A.47625 .47625 0 00200.42505 225.94253A.47625 .47625 0 00201.37755 225.94253z" fill="rgba(198,0,56,.24705882)"/><path d="M146.1516 162.8394A.47625 .47625 0 00145.1991 162.8394A.47625 .47625 0 00146.1516 162.8394z" fill="rgba(198,0,56,.24705882)"/><path d="M146.9136 135.68363A.47625 .47625 0 00145.9611 135.68363A.47625 .47625 0 00146.9136 135.68363z" fill="rgba(198,0,56,.24705882)"/><path d="M140.44612 158.17215H151.4475V108.72788H140.44612z" style="fill:rgba(198,0,56,.24705882);stroke:rgba(198,0,56,.24705882);stroke-width:.09525;stroke-miterlimit:41.994751"/><path d="M145.24672 113.48085A.47625 .47625 0 00144.29423 113.48085A.47625 .47625 0 00145.24672 113.48085z" fill="rgba(198,0,56,.24705882)"/><path d="M195.6435 218.02725H215.4555V178.40325H195.6435z" style="fill:rgba(198,0,56,.24705882);stroke:rgba(198,0,56,.24705882);stroke-width:.09525;stroke-miterlimit:41.994751"/><path d="M208.34033 190.12853A.47625 .47625 0 00207.38783 190.12853A.47625 .47625 0 00208.34033 190.12853z" fill="rgba(198,0,56,.24705882)"/><path d="M138.96022 163.65855A.47625 .47625 0 00138.00772 163.65855A.47625 .47625 0 00138.96022 163.65855z" fill="rgba(198,0,56,.24705882)"/><path d="M195.6435 176.87925H215.4555V162.23933H195.6435z" style="fill:rgba(198,0,56,.24705882);stroke:rgba(198,0,56,.24705882);stroke-width:.09525;stroke-miterlimit:41.994751"/><path d="M203.97787 168.34485A.47625 .47625 0 00203.02537 168.34485A.47625 .47625 0 00203.97787 168.34485z" fill="rgba(198,0,56,.24705882)"/><path d="M131.6355 218.02725H194.1195V175.42193H131.6355z" style="fill:rgba(198,0,56,.24705882);stroke:rgba(198,0,56,.24705882);stroke-width:.09525;stroke-miterlimit:41.994751"/><path d="M177.55552 191.50013A.47625 .47625 0 00176.60303 191.50013A.47625 .47625 0 00177.55552 191.50013z" fill="rgba(198,0,56,.24705882)"/><path d="M216.80805 182.31803H227.6856V142.90358H216.80805z" style="fill:rgba(198,0,56,.24705882);stroke:rgba(198,0,56,.24705882);stroke-width:.09525;stroke-miterlimit:41.994751"/><path d="M226.87597 160.5534A.47625 .47625 0 00225.92347 160.5534A.47625 .47625 0 00226.87597 160.5534z" fill="rgba(198,0,56,.24705882)"/><path d="M203.96835 162.23933H215.4555V152.49525H203.96835z" style="fill:rgba(198,0,56,.24705882);stroke:rgba(198,0,56,.24705882);stroke-width:.09525;stroke-miterlimit:41.994751"/><path d="M208.91182 158.25788A.47625 .47625 0 00207.95933 158.25788A.47625 .47625 0 00208.91182 158.25788z" fill="rgba(198,0,56,.24705882)"/><path d="M151.64753 120.49125H217.42718V108.36593H151.64753z" style="fill:rgba(198,0,56,.24705882);stroke:rgba(198,0,56,.24705882);stroke-width:.09525;stroke-miterlimit:41.994751"/><path d="M209.78812 114.1095A.47625 .47625 0 00208.83562 114.1095A.47625 .47625 0 00209.78812 114.1095z" fill="rgba(198,0,56,.24705882)"/><path d="M152.9715 150.97125H192.49072V122.01525H152.9715z" style="fill:rgba(198,0,56,.24705882);stroke:rgba(198,0,56,.24705882);stroke-width:.09525;stroke-miterlimit:41.994751"/><path d="M185.2803 130.54013A.47625 .47625 0 00184.3278 130.54013A.47625 .47625 0 00185.2803 130.54013z" fill="rgba(198,0,56,.24705882)"/><path d="M138.684 184.7469A.47625 .47625 0 00137.7315 184.7469A.47625 .47625 0 00138.684 184.7469z" fill="rgba(198,0,56,.24705882)"/><path d="M152.9715 173.83125H194.1195V152.49525H152.9715z" style="fill:rgba(198,0,56,.24705882);stroke:rgba(198,0,56,.24705882);stroke-width:.09525;stroke-miterlimit:41.994751"/><path d="M179.08905 169.44975A.47625 .47625 0 00178.13655 169.44975A.47625 .47625 0 00179.08905 169.44975z" fill="rgba(198,0,56,.24705882)"/><path d="M226.39972 160.5534L208.43558 158.25788" style="fill:none;stroke:rgba(198,0,56,.24705882);stroke-width:.09525;stroke-miterlimit:41.994751"/><path d="M203.50162 168.34485L208.43558 158.25788" style="fill:none;stroke:rgba(198,0,56,.24705882);stroke-width:.09525;stroke-miterlimit:41.994751"/><path d="M178.6128 169.44975L203.50162 168.34485" style="fill:none;stroke:rgba(198,0,56,.24705882);stroke-width:.09525;stroke-miterlimit:41.994751"/><path d="M178.6128 169.44975L184.80405 130.54013" style="fill:none;stroke:rgba(198,0,56,.24705882);stroke-width:.09525;stroke-miterlimit:41.994751"/><path d="M145.67535 162.8394L146.43735 135.68363" style="fill:none;stroke:rgba(198,0,56,.24705882);stroke-width:.09525;stroke-miterlimit:41.994751"/><path d="M138.20775 184.7469L177.07927 191.50013" style="fill:none;stroke:rgba(198,0,56,.24705882);stroke-width:.09525;stroke-miterlimit:41.994751"/><path d="M151.84755 162.8013L178.6128 169.44975" style="fill:none;stroke:rgba(198,0,56,.24705882);stroke-width:.09525;stroke-miterlimit:41.994751"/><path d="M145.67535 162.8394L151.84755 162.8013" style="fill:none;stroke:rgba(198,0,56,.24705882);stroke-width:.09525;stroke-miterlimit:41.994751"/><path d="M178.6128 169.44975L177.07927 191.50013" style="fill:none;stroke:rgba(198,0,56,.24705882);stroke-width:.09525;stroke-miterlimit:41.994751"/><path d="M177.07927 191.50013L207.86408 190.12853" style="fill:none;stroke:rgba(198,0,56,.24705882);stroke-width:.09525;stroke-miterlimit:41.994751"/><path d="M146.43735 135.68363L144.77048 113.48085" style="fill:none;stroke:rgba(198,0,56,.24705882);stroke-width:.09525;stroke-miterlimit:41.994751"/><path d="M144.77048 113.48085L209.31187 114.1095" style="fill:none;stroke:rgba(198,0,56,.24705882);stroke-width:.09525;stroke-miterlimit:41.994751"/><path d="M166.98278 134.55015L184.80405 130.54013" style="fill:none;stroke:rgba(198,0,56,.24705882);stroke-width:.09525;stroke-miterlimit:41.994751"/><path d="M138.48397 163.65855L145.67535 162.8394" style="fill:none;stroke:rgba(198,0,56,.24705882);stroke-width:.09525;stroke-miterlimit:41.994751"/><path d="M184.80405 130.54013L192.69075 127.4826" style="fill:none;stroke:rgba(194,0,56,.24705882);stroke-width:.09525;stroke-miterlimit:41.994751"/><path d="M192.405 133.44525H196.596V122.01525H192.405z" style="fill:rgba(194,0,60,.24705882);stroke:rgba(194,0,60,.24705882);stroke-width:.09525;stroke-miterlimit:41.994751"/><path d="M193.167 127.4826A.47625 .47625 0 00192.2145 127.4826A.47625 .47625 0 00193.167 127.4826z" fill="rgba(194,0,60,.24705882)"/><path d="M184.12777 225.11385L184.64212 235.65803" style="fill:none;stroke:rgba(190,0,64,.24705882);stroke-width:.09525;stroke-miterlimit:41.994751"/><path d="M23.612475 250.25033L101.31743 237.46778" style="fill:none;stroke:rgba(186,0,68,.24705882);stroke-width:.09525;stroke-miterlimit:41.994751"/><path d="M152.29522 135.85508L166.98278 134.55015" style="fill:none;stroke:rgba(186,0,68,.24705882);stroke-width:.09525;stroke-miterlimit:41.994751"/><path d="M146.43735 135.68363L152.29522 135.85508" style="fill:none;stroke:rgba(186,0,68,.24705882);stroke-width:.09525;stroke-miterlimit:41.994751"/><path d="M106.1847 133.71195L68.551425 132.78803" style="fill:none;stroke:rgba(186,0,68,.24705882);stroke-width:.09525;stroke-miterlimit:41.994751"/><path d="M192.69075 127.4826L198.13905 127.5588" style="fill:none;stroke:rgba(182,0,72,.24705882);stroke-width:.09525;stroke-miterlimit:41.994751"/><path d="M184.60402 225.11385A.47625 .47625 0 00183.65152 225.11385A.47625 .47625 0 00184.60402 225.11385z" fill="rgba(182,0,72,.24705882)"/><path d="M152.77147 135.85508A.47625 .47625 0 00151.81897 135.85508A.47625 .47625 0 00152.77147 135.85508z" fill="rgba(170,0,80,.24705882)"/><path d="M196.8246 133.44525H200.5965V122.01525H196.8246z" style="fill:rgba(170,0,85,.24705882);stroke:rgba(170,0,85,.24705882);stroke-width:.09525;stroke-miterlimit:41.994751"/><path d="M198.6153 127.5588A.47625 .47625 0 00197.6628 127.5588A.47625 .47625 0 00198.6153 127.5588z" fill="rgba(170,0,85,.24705882)"/><path d="M.20955 267.45248H71.628V221.67533H.20955z" style="fill:rgba(165,0,89,.24705882);stroke:rgba(165,0,89,.24705882);stroke-width:.09525;stroke-miterlimit:41.994751"/><path d="M24.088725 250.25033A.47625 .47625 0 0023.136225 250.25033A.47625 .47625 0 0024.088725 250.25033z" fill="rgba(165,0,89,.24705882)"/><path d="M198.13905 127.5588L203.4159 127.73025" style="fill:none;stroke:rgba(157,0,93,.24705882);stroke-width:.09525;stroke-miterlimit:41.994751"/><path d="M201.07275 133.44525H204.03502V122.01525H201.07275z" style="fill:rgba(149,0,105,.24705882);stroke:rgba(149,0,105,.24705882);stroke-width:.09525;stroke-miterlimit:41.994751"/><path d="M203.89215 127.73025A.47625 .47625 0 00202.93965 127.73025A.47625 .47625 0 00203.89215 127.73025z" fill="rgba(149,0,105,.24705882)"/><path d="M204.0255 136.49325H215.4555V122.01525H204.0255z" style="fill:rgba(149,0,105,.24705882);stroke:rgba(149,0,105,.24705882);stroke-width:.09525;stroke-miterlimit:41.994751"/><path d="M210.52155 128.14935A.47625 .47625 0 00209.56905 128.14935A.47625 .47625 0 00210.52155 128.14935z" fill="rgba(149,0,105,.24705882)"/><path d="M203.4159 127.73025L210.0453 128.14935" style="fill:none;stroke:rgba(149,0,105,.24705882);stroke-width:.09525;stroke-miterlimit:41.994751"/><path d="M210.0453 128.14935L209.83575 138.8745" style="fill:none;stroke:rgba(145,0,109,.24705882);stroke-width:.09525;stroke-miterlimit:41.994751"/><path d="M204.0255 141.33195H215.4555V136.69327H204.0255z" style="fill:rgba(141,0,113,.24705882);stroke:rgba(141,0,113,.24705882);stroke-width:.09525;stroke-miterlimit:41.994751"/><path d="M210.312 138.8745A.47625 .47625 0 00209.3595 138.8745A.47625 .47625 0 00210.312 138.8745z" fill="rgba(141,0,113,.24705882)"/><path d="M26.984325 180.65115L23.612475 250.25033" style="fill:none;stroke:rgba(141,0,113,.24705882);stroke-width:.09525;stroke-miterlimit:41.994751"/><path d="M209.83575 138.8745L209.95958 143.4084" style="fill:none;stroke:rgba(133,0,121,.24705882);stroke-width:.09525;stroke-miterlimit:41.994751"/><path d="M184.33732 219.74175L184.12777 225.11385" style="fill:none;stroke:rgba(125,0,129,.24705882);stroke-width:.09525;stroke-miterlimit:41.994751"/><path d="M204.0255 145.20863H215.4555V141.49388H204.0255z" style="fill:rgba(125,0,129,.24705882);stroke:rgba(125,0,129,.24705882);stroke-width:.09525;stroke-miterlimit:41.994751"/><path d="M210.43582 143.4084A.47625 .47625 0 00209.48333 143.4084A.47625 .47625 0 00210.43582 143.4084z" fill="rgba(125,0,129,.24705882)"/><path d="M9.191625 220.8657H47.520225V111.73778H9.191625z" style="fill:rgba(121,0,133,.24705882);stroke:rgba(121,0,133,.24705882);stroke-width:.09525;stroke-miterlimit:41.994751"/><path d="M27.460575 180.65115A.47625 .47625 0 0026.508075 180.65115A.47625 .47625 0 0027.460575 180.65115z" fill="rgba(121,0,133,.24705882)"/><path d="M69.027675 132.78803A.47625 .47625 0 0068.075175 132.78803A.47625 .47625 0 0069.027675 132.78803z" fill="rgba(117,0,137,.24705882)"/><path d="M209.95958 143.4084L209.9691 149.55203" style="fill:none;stroke:rgba(113,0,137,.24705882);stroke-width:.09525;stroke-miterlimit:41.994751"/><path d="M52.530375 152.48573L26.984325 180.65115" style="fill:none;stroke:rgba(109,0,141,.24705882);stroke-width:.09525;stroke-miterlimit:41.994751"/><path d="M68.551425 132.78803L52.530375 152.48573" style="fill:none;stroke:rgba(109,0,145,.24705882);stroke-width:.09525;stroke-miterlimit:41.994751"/><path d="M204.0255 150.97125H215.4555V146.69453H204.0255z" style="fill:rgba(105,0,149,.24705882);stroke:rgba(105,0,149,.24705882);stroke-width:.09525;stroke-miterlimit:41.994751"/><path d="M210.44535 149.55203A.47625 .47625 0 00209.49285 149.55203A.47625 .47625 0 00210.44535 149.55203z" fill="rgba(105,0,149,.24705882)"/><path d="M209.9691 149.55203L205.21613 164.3253" style="fill:none;stroke:rgba(101,0,153,.24705882);stroke-width:.09525;stroke-miterlimit:41.994751"/><path d="M48.377475 156.56243H63.3984V134.84543H48.377475z" style="fill:rgba(101,0,153,.24705882);stroke:rgba(101,0,153,.24705882);stroke-width:.09525;stroke-miterlimit:41.994751"/><path d="M53.006625 152.48573A.47625 .47625 0 0052.054125 152.48573A.47625 .47625 0 0053.006625 152.48573z" fill="rgba(101,0,153,.24705882)"/><path d="M192.5955 196.69125H215.4555V182.97525H192.5955z" style="fill:rgba(97,0,157,.24705882);stroke:rgba(97,0,157,.24705882);stroke-width:.09525;stroke-miterlimit:41.994751"/><path d="M210.78825 190.74765A.47625 .47625 0 00209.83575 190.74765A.47625 .47625 0 00210.78825 190.74765z" fill="rgba(97,0,157,.24705882)"/><path d="M152.9715 218.02725H191.0715V182.97525H152.9715z" style="fill:rgba(97,0,157,.24705882);stroke:rgba(97,0,157,.24705882);stroke-width:.09525;stroke-miterlimit:41.994751"/><path d="M172.10722 199.5678A.47625 .47625 0 00171.15473 199.5678A.47625 .47625 0 00172.10722 199.5678z" fill="rgba(97,0,157,.24705882)"/><path d="M152.9715 181.45125H215.4555V151.73325H152.9715z" style="fill:rgba(97,0,157,.24705882);stroke:rgba(97,0,157,.24705882);stroke-width:.09525;stroke-miterlimit:41.994751"/><path d="M205.69237 164.3253A.47625 .47625 0 00204.73988 164.3253A.47625 .47625 0 00205.69237 164.3253z" fill="rgba(97,0,157,.24705882)"/><path d="M191.72872 190.39523A.47625 .47625 0 00190.77623 190.39523A.47625 .47625 0 00191.72872 190.39523z" fill="rgba(97,0,157,.24705882)"/><path d="M131.6355 218.02725H151.4475V175.35525H131.6355z" style="fill:rgba(97,0,157,.24705882);stroke:rgba(97,0,157,.24705882);stroke-width:.09525;stroke-miterlimit:41.994751"/><path d="M142.47495 197.38658A.47625 .47625 0 00141.52245 197.38658A.47625 .47625 0 00142.47495 197.38658z" fill="rgba(97,0,157,.24705882)"/><path d="M192.5955 218.02725H215.4555V198.21525H192.5955z" style="fill:rgba(97,0,157,.24705882);stroke:rgba(97,0,157,.24705882);stroke-width:.09525;stroke-miterlimit:41.994751"/><path d="M210.1977 203.38733A.47625 .47625 0 00209.2452 203.38733A.47625 .47625 0 00210.1977 203.38733z" fill="rgba(97,0,157,.24705882)"/><path d="M172.64062 199.71068A.47625 .47625 0 00171.68813 199.71068A.47625 .47625 0 00172.64062 199.71068z" fill="rgba(97,0,157,.24705882)"/><path d="M171.63098 199.5678L141.9987 197.38658" style="fill:none;stroke:rgba(97,0,157,.24705882);stroke-width:.09525;stroke-miterlimit:41.994751"/><path d="M209.72145 203.38733L210.312 190.74765" style="fill:none;stroke:rgba(97,0,157,.24705882);stroke-width:.09525;stroke-miterlimit:41.994751"/><path d="M191.25248 190.39523L210.312 190.74765" style="fill:none;stroke:rgba(97,0,157,.24705882);stroke-width:.09525;stroke-miterlimit:41.994751"/><path d="M171.63098 199.5678L191.25248 190.39523" style="fill:none;stroke:rgba(97,0,157,.24705882);stroke-width:.09525;stroke-miterlimit:41.994751"/><path d="M205.21613 164.3253L180.87975 182.17515" style="fill:none;stroke:rgba(97,0,157,.24705882);stroke-width:.09525;stroke-miterlimit:41.994751"/><path d="M180.87975 182.17515L171.63098 199.5678" style="fill:none;stroke:rgba(97,0,157,.24705882);stroke-width:.09525;stroke-miterlimit:41.994751"/><path d="M191.25248 190.39523L180.87975 182.17515" style="fill:none;stroke:rgba(97,0,157,.24705882);stroke-width:.09525;stroke-miterlimit:41.994751"/><path d="M181.356 182.17515A.47625 .47625 0 00180.4035 182.17515A.47625 .47625 0 00181.356 182.17515z" fill="rgba(97,0,157,.24705882)"/><path d="M171.63098 199.5678L184.33732 219.74175" style="fill:none;stroke:rgba(85,0,170,.24705882);stroke-width:.09525;stroke-miterlimit:41.994751"/><path d="M184.81357 219.74175A.47625 .47625 0 00183.86107 219.74175A.47625 .47625 0 00184.81357 219.74175z" fill="rgba(72,0,182,.24705882)"/><path d="M178.6128 157.82925L180.87975 182.17515" style="fill:none;stroke:rgba(48,0,206,.24705882);stroke-width:.09525;stroke-miterlimit:41.994751"/><path d="M164.39198 182.97525H203.31113V122.01525H164.39198z" style="fill:rgba(0,0,255,.24705882);stroke:rgba(0,0,255,.24705882);stroke-width:.09525;stroke-miterlimit:41.994751"/><path d="M179.08905 157.82925A.47625 .47625 0 00178.13655 157.82925A.47625 .47625 0 00179.08905 157.82925z" fill="rgba(0,0,255,.24705882)"/></svg>