<svg version="1.1" width="114.1095mm" height="156.68625mm" viewBox="0 0 114.1095 156.68625" xmlns="http://www.w3.org/2000/svg" xmlns:xlink="http://www.w3.org/1999/xlink"><path d="M58.95975 58.95975H60.86475" style="fill:none;stroke:#f00;stroke-width:.09525;stroke-miterlimit:41.994751"/><path d="M58.95975 58.95975V57.05475" style="fill:none;stroke:#0f0;stroke-width:.09525;stroke-miterlimit:41.994751"/><path d="M.28575 116.87175H27.71775V103.91775H.28575z" style="fill:rgba(255,0,0,.24705882);stroke:rgba(255,0,0,.24705882);stroke-width:.09525;stroke-miterlimit:41.994751"/><path d="M14.72565 110.20425A.47625 .47625 0 0013.77315 110.20425A.47625 .47625 0 0014.72565 110.20425z" fill="rgba(255,0,0,.24705882)"/><path d="M68.456175 118.39575H77.24775V103.91775H68.456175z" style="fill:rgba(255,0,0,.24705882);stroke:rgba(255,0,0,.24705882);stroke-width:.09525;stroke-miterlimit:41.994751"/><path d="M72.761475 108.26115A.47625 .47625 0 0071.808975 108.26115A.47625 .47625 0 0072.761475 108.26115z" fill="rgba(255,0,0,.24705882)"/><path d="M29.24175 90.96375H77.24775V77.2287H29.24175z" style="fill:rgba(255,0,0,.24705882);stroke:rgba(255,0,0,.24705882);stroke-width:.09525;stroke-miterlimit:41.994751"/><path d="M54.1401 83.439A.47625 .47625 0 0053.1876 83.439A.47625 .47625 0 0054.1401 83.439z" fill="rgba(255,0,0,.24705882)"/><path d="M.28575 103.91775H27.71775V90.96375H.28575z" style="fill:rgba(255,0,0,.24705882);stroke:rgba(255,0,0,.24705882);stroke-width:.09525;stroke-miterlimit:41.994751"/><path d="M15.94485 97.812225A.47625 .47625 0 0014.99235 97.812225A.47625 .47625 0 0015.94485 97.812225z" fill="rgba(255,0,0,.24705882)"/><path d="M.28575 90.96375H27.71775V78.00975H.28575z" style="fill:rgba(255,0,0,.24705882);stroke:rgba(255,0,0,.24705882);stroke-width:.09525;stroke-miterlimit:41.994751"/><path d="M14.449425 86.401275A.47625 .47625 0 0013.496925 86.401275A.47625 .47625 0 0014.449425 86.401275z" fill="rgba(255,0,0,.24705882)"/><path d="M27.71775 103.91775H29.24175V90.96375H27.71775z" style="fill:rgba(255,0,0,.24705882);stroke:rgba(255,0,0,.24705882);stroke-width:.09525;stroke-miterlimit:41.994751"/><path d="M28.956 97.564575A.47625 .47625 0 0028.0035 97.564575A.47625 .47625 0 0028.956 97.564575z" fill="rgba(255,0,0,.24705882)"/><path d="M29.24175 103.91775H77.24775V90.96375H29.24175z" style="fill:rgba(255,0,0,.24705882);stroke:rgba(255,0,0,.24705882);stroke-width:.09525;stroke-miterlimit:41.994751"/><path d="M53.863875 97.126425A.47625 .47625 0 0052.911375 97.126425A.47625 .47625 0 0053.863875 97.126425z" fill="rgba(255,0,0,.24705882)"/><path d="M29.24175 77.2287H77.24775V63.53175H29.24175z" style="fill:rgba(255,0,0,.24705882);stroke:rgba(255,0,0,.24705882);stroke-width:.09525;stroke-miterlimit:41.994751"/><path d="M54.282975 68.52285A.47625 .47625 0 0053.330475 68.52285A.47625 .47625 0 0054.282975 68.52285z" fill="rgba(255,0,0,.24705882)"/><path d="M53.66385 83.439L53.806725 68.52285" style="fill:none;stroke:rgba(255,0,0,.24705882);stroke-width:.09525;stroke-miterlimit:41.994751"/><path d="M53.387625 97.126425L28.47975 97.564575" style="fill:none;stroke:rgba(255,0,0,.24705882);stroke-width:.09525;stroke-miterlimit:41.994751"/><path d="M53.387625 97.126425L53.66385 83.439" style="fill:none;stroke:rgba(255,0,0,.24705882);stroke-width:.09525;stroke-miterlimit:41.994751"/><path d="M15.4686 97.812225L14.2494 110.20425" style="fill:none;stroke:rgba(255,0,0,.24705882);stroke-width:.09525;stroke-miterlimit:41.994751"/><path d="M28.47975 97.564575L15.4686 97.812225" style="fill:none;stroke:rgba(255,0,0,.24705882);stroke-width:.09525;stroke-miterlimit:41.994751"/><path d="M15.4686 97.812225L13.973175 86.401275" style="fill:none;stroke:rgba(255,0,0,.24705882);stroke-width:.09525;stroke-miterlimit:41.994751"/><path d="M74.96175 44.0436L53.806725 68.52285" style="fill:none;stroke:rgba(255,0,0,.24705882);stroke-width:.09525;stroke-miterlimit:41.994751"/><path d="M50.4825 56.48325L53.806725 68.52285" style="fill:none;stroke:rgba(255,0,0,.24705882);stroke-width:.09525;stroke-miterlimit:41.994751"/><path d="M66.19875 45.596175L53.806725 68.52285" style="fill:none;stroke:rgba(255,0,0,.24705882);stroke-width:.09525;stroke-miterlimit:41.994751"/><path d="M70.485 43.71975L53.806725 68.52285" style="fill:none;stroke:rgba(255,0,0,.24705882);stroke-width:.09525;stroke-miterlimit:41.994751"/><path d="M60.48375 44.0436L53.806725 68.52285" style="fill:none;stroke:rgba(255,0,0,.24705882);stroke-width:.09525;stroke-miterlimit:41.994751"/><path d="M53.806725 68.52285L38.452425 42.852975" style="fill:none;stroke:rgba(255,0,0,.24705882);stroke-width:.09525;stroke-miterlimit:41.994751"/><path d="M48.29175 63.53175H52.67325V49.43475H48.29175z" style="fill:rgba(255,0,0,.24705882);stroke:rgba(255,0,0,.24705882);stroke-width:.09525;stroke-miterlimit:41.994751"/><path d="M50.95875 56.48325A.47625 .47625 0 0050.00625 56.48325A.47625 .47625 0 0050.95875 56.48325z" fill="rgba(255,0,0,.24705882)"/><path d="M64.10325 27.670125H68.29425V23.90775H64.10325z" style="fill:rgba(255,0,0,.24705882);stroke:rgba(255,0,0,.24705882);stroke-width:.09525;stroke-miterlimit:41.994751"/><path d="M66.675 25.784175A.47625 .47625 0 0065.7225 25.784175A.47625 .47625 0 0066.675 25.784175z" fill="rgba(255,0,0,.24705882)"/><path d="M72.67575 63.53175H77.24775V23.90775H72.67575z" style="fill:rgba(255,0,0,.24705882);stroke:rgba(255,0,0,.24705882);stroke-width:.09525;stroke-miterlimit:41.994751"/><path d="M75.438 44.0436A.47625 .47625 0 0074.4855 44.0436A.47625 .47625 0 0075.438 44.0436z" fill="rgba(255,0,0,.24705882)"/><path d="M64.10325 63.53175H68.29425V27.670125H64.10325z" style="fill:rgba(255,0,0,.24705882);stroke:rgba(255,0,0,.24705882);stroke-width:.09525;stroke-miterlimit:41.994751"/><path d="M66.675 45.596175A.47625 .47625 0 0065.7225 45.596175A.47625 .47625 0 0066.675 45.596175z" fill="rgba(255,0,0,.24705882)"/><path d="M56.86425 63.53175H64.10325V23.90775H56.86425z" style="fill:rgba(255,0,0,.24705882);stroke:rgba(255,0,0,.24705882);stroke-width:.09525;stroke-miterlimit:41.994751"/><path d="M60.96 44.0436A.47625 .47625 0 0060.0075 44.0436A.47625 .47625 0 0060.96 44.0436z" fill="rgba(255,0,0,.24705882)"/><path d="M48.29175 43.33875H52.67325V23.90775H48.29175z" style="fill:rgba(255,0,0,.24705882);stroke:rgba(255,0,0,.24705882);stroke-width:.09525;stroke-miterlimit:41.994751"/><path d="M50.95875 33.62325A.47625 .47625 0 0050.00625 33.62325A.47625 .47625 0 0050.95875 33.62325z" fill="rgba(255,0,0,.24705882)"/><path d="M68.29425 63.53175H72.67575V23.90775H68.29425z" style="fill:rgba(255,0,0,.24705882);stroke:rgba(255,0,0,.24705882);stroke-width:.09525;stroke-miterlimit:41.994751"/><path d="M70.96125 43.71975A.47625 .47625 0 0070.00875 43.71975A.47625 .47625 0 0070.96125 43.71975z" fill="rgba(255,0,0,.24705882)"/><path d="M72.67575 23.90775H77.24775V4.752975H72.67575z" style="fill:rgba(255,0,0,.24705882);stroke:rgba(255,0,0,.24705882);stroke-width:.09525;stroke-miterlimit:41.994751"/><path d="M75.438 14.3256A.47625 .47625 0 0074.4855 14.3256A.47625 .47625 0 0075.438 14.3256z" fill="rgba(255,0,0,.24705882)"/><path d="M48.29175 49.43475H49.05375V43.33875H48.29175z" style="fill:rgba(255,0,0,.24705882);stroke:rgba(255,0,0,.24705882);stroke-width:.09525;stroke-miterlimit:41.994751"/><path d="M49.149 46.38675A.47625 .47625 0 0048.1965 46.38675A.47625 .47625 0 0049.149 46.38675z" fill="rgba(255,0,0,.24705882)"/><path d="M66.19875 25.784175L60.48375 44.0436" style="fill:none;stroke:rgba(255,0,0,.24705882);stroke-width:.09525;stroke-miterlimit:41.994751"/><path d="M70.485 43.71975L74.96175 44.0436" style="fill:none;stroke:rgba(255,0,0,.24705882);stroke-width:.09525;stroke-miterlimit:41.994751"/><path d="M74.96175 44.0436V14.3256" style="fill:none;stroke:rgba(255,0,0,.24705882);stroke-width:.09525;stroke-miterlimit:41.994751"/><path d="M48.67275 46.38675L50.4825 33.62325" style="fill:none;stroke:rgba(255,0,0,.24705882);stroke-width:.09525;stroke-miterlimit:41.994751"/><path d="M70.485 43.71975L66.19875 25.784175" style="fill:none;stroke:rgba(255,0,0,.24705882);stroke-width:.09525;stroke-miterlimit:41.994751"/><path d="M66.19875 45.596175V25.784175" style="fill:none;stroke:rgba(255,0,0,.24705882);stroke-width:.09525;stroke-miterlimit:41.994751"/><path d="M60.48375 44.0436L66.19875 45.596175" style="fill:none;stroke:rgba(255,0,0,.24705882);stroke-width:.09525;stroke-miterlimit:41.994751"/><path d="M70.485 43.71975L66.19875 45.596175" style="fill:none;stroke:rgba(255,0,0,.24705882);stroke-width:.09525;stroke-miterlimit:41.994751"/><path d="M50.4825 56.48325L48.67275 46.38675" style="fill:none;stroke:rgba(255,0,0,.24705882);stroke-width:.09525;stroke-miterlimit:41.994751"/><path d="M38.452425 42.852975L50.4825 56.48325" style="fill:none;stroke:rgba(255,0,0,.24705882);stroke-width:.09525;stroke-miterlimit:41.994751"/><path d="M48.67275 46.38675L38.452425 42.852975" style="fill:none;stroke:rgba(255,0,0,.24705882);stroke-width:.09525;stroke-miterlimit:41.994751"/><path d="M50.4825 33.62325L38.452425 42.852975" style="fill:none;stroke:rgba(255,0,0,.24705882);stroke-width:.09525;stroke-miterlimit:41.994751"/><path d="M29.24175 63.53175H48.29175V23.90775H29.24175z" style="fill:rgba(255,0,0,.24705882);stroke:rgba(255,0,0,.24705882);stroke-width:.09525;stroke-miterlimit:41.994751"/><path d="M38.928675 42.852975A.47625 .47625 0 0037.976175 42.852975A.47625 .47625 0 0038.928675 42.852975z" fill="rgba(255,0,0,.24705882)"/><path d="M54.778275 56.48325L53.806725 68.52285" style="fill:none;stroke:rgba(255,0,0,.24705882);stroke-width:.09525;stroke-miterlimit:41.994751"/><path d="M53.66385 83.439L88.9635 95.4405" style="fill:none;stroke:rgba(255,0,0,.24705882);stroke-width:.09525;stroke-miterlimit:41.994751"/><path d="M72.285225 108.26115L88.9635 95.4405" style="fill:none;stroke:rgba(255,0,0,.24705882);stroke-width:.09525;stroke-miterlimit:41.994751"/><path d="M53.387625 97.126425L88.9635 95.4405" style="fill:none;stroke:rgba(255,0,0,.24705882);stroke-width:.09525;stroke-miterlimit:41.994751"/><path d="M56.007 46.38675L60.48375 44.0436" style="fill:none;stroke:rgba(250,0,0,.24705882);stroke-width:.09525;stroke-miterlimit:41.994751"/><path d="M54.778275 56.48325L60.48375 44.0436" style="fill:none;stroke:rgba(250,0,0,.24705882);stroke-width:.09525;stroke-miterlimit:41.994751"/><path d="M54.778275 24.774525L60.48375 44.0436" style="fill:none;stroke:rgba(250,0,0,.24705882);stroke-width:.09525;stroke-miterlimit:41.994751"/><path d="M54.778275 34.490025L60.48375 44.0436" style="fill:none;stroke:rgba(250,0,0,.24705882);stroke-width:.09525;stroke-miterlimit:41.994751"/><path d="M50.4825 56.48325H54.778275" style="fill:none;stroke:rgba(250,0,0,.24705882);stroke-width:.09525;stroke-miterlimit:41.994751"/><path d="M50.4825 33.62325L54.778275 24.774525" style="fill:none;stroke:rgba(250,0,0,.24705882);stroke-width:.09525;stroke-miterlimit:41.994751"/><path d="M50.4825 33.62325L54.778275 34.490025" style="fill:none;stroke:rgba(250,0,0,.24705882);stroke-width:.09525;stroke-miterlimit:41.994751"/><path d="M52.67325 63.53175H56.86425V49.43475H52.67325z" style="fill:rgba(250,0,4,.24705882);stroke:rgba(250,0,4,.24705882);stroke-width:.09525;stroke-miterlimit:41.994751"/><path d="M55.254525 56.48325A.47625 .47625 0 0054.302025 56.48325A.47625 .47625 0 0055.254525 56.48325z" fill="rgba(250,0,4,.24705882)"/><path d="M52.67325 25.6413H56.86425V23.90775H52.67325z" style="fill:rgba(250,0,4,.24705882);stroke:rgba(250,0,4,.24705882);stroke-width:.09525;stroke-miterlimit:41.994751"/><path d="M55.254525 24.774525A.47625 .47625 0 0054.302025 24.774525A.47625 .47625 0 0055.254525 24.774525z" fill="rgba(250,0,4,.24705882)"/><path d="M52.67325 43.33875H56.86425V25.6413H52.67325z" style="fill:rgba(250,0,4,.24705882);stroke:rgba(250,0,4,.24705882);stroke-width:.09525;stroke-miterlimit:41.994751"/><path d="M55.254525 34.490025A.47625 .47625 0 0054.302025 34.490025A.47625 .47625 0 0055.254525 34.490025z" fill="rgba(250,0,4,.24705882)"/><path d="M55.14975 49.43475H56.86425V43.33875H55.14975z" style="fill:rgba(250,0,4,.24705882);stroke:rgba(250,0,4,.24705882);stroke-width:.09525;stroke-miterlimit:41.994751"/><path d="M56.48325 46.38675A.47625 .47625 0 0055.53075 46.38675A.47625 .47625 0 0056.48325 46.38675z" fill="rgba(250,0,4,.24705882)"/><path d="M56.007 46.38675L54.778275 56.48325" style="fill:none;stroke:rgba(250,0,4,.24705882);stroke-width:.09525;stroke-miterlimit:41.994751"/><path d="M54.778275 34.490025V24.774525" style="fill:none;stroke:rgba(250,0,4,.24705882);stroke-width:.09525;stroke-miterlimit:41.994751"/><path d="M56.007 46.38675L54.778275 34.490025" style="fill:none;stroke:rgba(250,0,4,.24705882);stroke-width:.09525;stroke-miterlimit:41.994751"/><path d="M77.24775 129.70193H113.82375V109.40415H77.24775z" style="fill:rgba(250,0,4,.24705882);stroke:rgba(250,0,4,.24705882);stroke-width:.09525;stroke-miterlimit:41.994751"/><path d="M95.659575 115.68113A.47625 .47625 0 0094.707075 115.68113A.47625 .47625 0 0095.659575 115.68113z" fill="rgba(250,0,4,.24705882)"/><path d="M77.24775 77.2287H113.82375V7.0104H77.24775z" style="fill:rgba(250,0,4,.24705882);stroke:rgba(250,0,4,.24705882);stroke-width:.09525;stroke-miterlimit:41.994751"/><path d="M95.659575 49.425225A.47625 .47625 0 0094.707075 49.425225A.47625 .47625 0 0095.659575 49.425225z" fill="rgba(250,0,4,.24705882)"/><path d="M77.24775 109.40415H113.82375V77.2287H77.24775z" style="fill:rgba(250,0,4,.24705882);stroke:rgba(250,0,4,.24705882);stroke-width:.09525;stroke-miterlimit:41.994751"/><path d="M89.43975 95.4405A.47625 .47625 0 0088.48725 95.4405A.47625 .47625 0 0089.43975 95.4405z" fill="rgba(250,0,4,.24705882)"/><path d="M95.183325 115.68113L88.9635 95.4405" style="fill:none;stroke:rgba(250,0,4,.24705882);stroke-width:.09525;stroke-miterlimit:41.994751"/><path d="M88.9635 95.4405L95.183325 49.425225" style="fill:none;stroke:rgba(250,0,4,.24705882);stroke-width:.09525;stroke-miterlimit:41.994751"/><path d="M38.452425 42.852975L38.76675 23.241" style="fill:none;stroke:rgba(250,0,4,.24705882);stroke-width:.09525;stroke-miterlimit:41.994751"/><path d="M49.05375 10.668H71.91375V6.096H49.05375z" style="fill:rgba(242,0,8,.24705882);stroke:rgba(242,0,8,.24705882);stroke-width:.09525;stroke-miterlimit:41.994751"/><path d="M60.96 8.382A.47625 .47625 0 0060.0075 8.382A.47625 .47625 0 0060.96 8.382z" fill="rgba(242,0,8,.24705882)"/><path d="M48.29175 10.668H49.05375V6.096H48.29175z" style="fill:rgba(242,0,8,.24705882);stroke:rgba(242,0,8,.24705882);stroke-width:.09525;stroke-miterlimit:41.994751"/><path d="M49.149 8.382A.47625 .47625 0 0048.1965 8.382A.47625 .47625 0 0049.149 8.382z" fill="rgba(242,0,8,.24705882)"/><path d="M16.602075 14.38275H48.29175V10.668H16.602075z" style="fill:rgba(242,0,8,.24705882);stroke:rgba(242,0,8,.24705882);stroke-width:.09525;stroke-miterlimit:41.994751"/><path d="M32.927925 12.525375A.47625 .47625 0 0031.975425 12.525375A.47625 .47625 0 0032.927925 12.525375z" fill="rgba(242,0,8,.24705882)"/><path d="M56.86425 23.14575H64.10325V22.57425H56.86425z" style="fill:rgba(242,0,8,.24705882);stroke:rgba(242,0,8,.24705882);stroke-width:.09525;stroke-miterlimit:41.994751"/><path d="M60.96 22.86A.47625 .47625 0 0060.0075 22.86A.47625 .47625 0 0060.96 22.86z" fill="rgba(242,0,8,.24705882)"/><path d="M68.29425 23.14575H71.91375V22.57425H68.29425z" style="fill:rgba(242,0,8,.24705882);stroke:rgba(242,0,8,.24705882);stroke-width:.09525;stroke-miterlimit:41.994751"/><path d="M70.58025 22.86A.47625 .47625 0 0069.62775 22.86A.47625 .47625 0 0070.58025 22.86z" fill="rgba(242,0,8,.24705882)"/><path d="M1.04775 8.28675H16.602075V2.19075H1.04775z" style="fill:rgba(242,0,8,.24705882);stroke:rgba(242,0,8,.24705882);stroke-width:.09525;stroke-miterlimit:41.994751"/><path d="M9.305925 5.23875A.47625 .47625 0 008.353425 5.23875A.47625 .47625 0 009.305925 5.23875z" fill="rgba(242,0,8,.24705882)"/><path d="M16.602075 6.096H48.29175V2.19075H16.602075z" style="fill:rgba(242,0,8,.24705882);stroke:rgba(242,0,8,.24705882);stroke-width:.09525;stroke-miterlimit:41.994751"/><path d="M32.927925 4.143375A.47625 .47625 0 0031.975425 4.143375A.47625 .47625 0 0032.927925 4.143375z" fill="rgba(242,0,8,.24705882)"/><path d="M16.602075 10.668H48.29175V6.096H16.602075z" style="fill:rgba(242,0,8,.24705882);stroke:rgba(242,0,8,.24705882);stroke-width:.09525;stroke-miterlimit:41.994751"/><path d="M32.927925 8.382A.47625 .47625 0 0031.975425 8.382A.47625 .47625 0 0032.927925 8.382z" fill="rgba(242,0,8,.24705882)"/><path d="M64.10325 23.14575H68.29425V22.57425H64.10325z" style="fill:rgba(242,0,8,.24705882);stroke:rgba(242,0,8,.24705882);stroke-width:.09525;stroke-miterlimit:41.994751"/><path d="M66.675 22.86A.47625 .47625 0 0065.7225 22.86A.47625 .47625 0 0066.675 22.86z" fill="rgba(242,0,8,.24705882)"/><path d="M12.47775 14.38275H16.602075V8.28675H12.47775z" style="fill:rgba(242,0,8,.24705882);stroke:rgba(242,0,8,.24705882);stroke-width:.09525;stroke-miterlimit:41.994751"/><path d="M14.76375 11.325225A.47625 .47625 0 0013.81125 11.325225A.47625 .47625 0 0014.76375 11.325225z" fill="rgba(242,0,8,.24705882)"/><path d="M29.24175 23.90775H48.29175V22.57425H29.24175z" style="fill:rgba(242,0,8,.24705882);stroke:rgba(242,0,8,.24705882);stroke-width:.09525;stroke-miterlimit:41.994751"/><path d="M39.243 23.241A.47625 .47625 0 0038.2905 23.241A.47625 .47625 0 0039.243 23.241z" fill="rgba(242,0,8,.24705882)"/><path d="M29.24175 18.00225H48.29175V16.28775H29.24175z" style="fill:rgba(242,0,8,.24705882);stroke:rgba(242,0,8,.24705882);stroke-width:.09525;stroke-miterlimit:41.994751"/><path d="M39.243 17.145A.47625 .47625 0 0038.2905 17.145A.47625 .47625 0 0039.243 17.145z" fill="rgba(242,0,8,.24705882)"/><path d="M49.05375 6.096H71.91375V.28575H49.05375z" style="fill:rgba(242,0,8,.24705882);stroke:rgba(242,0,8,.24705882);stroke-width:.09525;stroke-miterlimit:41.994751"/><path d="M60.96 3.190875A.47625 .47625 0 0060.0075 3.190875A.47625 .47625 0 0060.96 3.190875z" fill="rgba(242,0,8,.24705882)"/><path d="M49.05375 23.14575H52.67325V22.57425H49.05375z" style="fill:rgba(242,0,8,.24705882);stroke:rgba(242,0,8,.24705882);stroke-width:.09525;stroke-miterlimit:41.994751"/><path d="M51.33975 22.86A.47625 .47625 0 0050.38725 22.86A.47625 .47625 0 0051.33975 22.86z" fill="rgba(242,0,8,.24705882)"/><path d="M29.24175 22.57425H48.29175V18.00225H29.24175z" style="fill:rgba(242,0,8,.24705882);stroke:rgba(242,0,8,.24705882);stroke-width:.09525;stroke-miterlimit:41.994751"/><path d="M39.243 20.28825A.47625 .47625 0 0038.2905 20.28825A.47625 .47625 0 0039.243 20.28825z" fill="rgba(242,0,8,.24705882)"/><path d="M49.05375 22.57425H71.91375V18.00225H49.05375z" style="fill:rgba(242,0,8,.24705882);stroke:rgba(242,0,8,.24705882);stroke-width:.09525;stroke-miterlimit:41.994751"/><path d="M60.96 20.28825A.47625 .47625 0 0060.0075 20.28825A.47625 .47625 0 0060.96 20.28825z" fill="rgba(242,0,8,.24705882)"/><path d="M49.05375 18.00225H71.91375V10.668H49.05375z" style="fill:rgba(242,0,8,.24705882);stroke:rgba(242,0,8,.24705882);stroke-width:.09525;stroke-miterlimit:41.994751"/><path d="M60.96 14.335125A.47625 .47625 0 0060.0075 14.335125A.47625 .47625 0 0060.96 14.335125z" fill="rgba(242,0,8,.24705882)"/><path d="M52.67325 23.14575H56.86425V22.57425H52.67325z" style="fill:rgba(242,0,8,.24705882);stroke:rgba(242,0,8,.24705882);stroke-width:.09525;stroke-miterlimit:41.994751"/><path d="M55.245 22.86A.47625 .47625 0 0054.2925 22.86A.47625 .47625 0 0055.245 22.86z" fill="rgba(242,0,8,.24705882)"/><path d="M48.29175 22.57425H49.05375V18.00225H48.29175z" style="fill:rgba(242,0,8,.24705882);stroke:rgba(242,0,8,.24705882);stroke-width:.09525;stroke-miterlimit:41.994751"/><path d="M49.149 20.28825A.47625 .47625 0 0048.1965 20.28825A.47625 .47625 0 0049.149 20.28825z" fill="rgba(242,0,8,.24705882)"/><path d="M48.67275 8.382H60.48375" style="fill:none;stroke:rgba(242,0,8,.24705882);stroke-width:.09525;stroke-miterlimit:41.994751"/><path d="M66.19875 22.86H70.104" style="fill:none;stroke:rgba(242,0,8,.24705882);stroke-width:.09525;stroke-miterlimit:41.994751"/><path d="M48.67275 20.28825H38.76675" style="fill:none;stroke:rgba(242,0,8,.24705882);stroke-width:.09525;stroke-miterlimit:41.994751"/><path d="M60.48375 14.335125V8.382" style="fill:none;stroke:rgba(242,0,8,.24705882);stroke-width:.09525;stroke-miterlimit:41.994751"/><path d="M60.48375 8.382V3.190875" style="fill:none;stroke:rgba(242,0,8,.24705882);stroke-width:.09525;stroke-miterlimit:41.994751"/><path d="M60.48375 20.28825H48.67275" style="fill:none;stroke:rgba(242,0,8,.24705882);stroke-width:.09525;stroke-miterlimit:41.994751"/><path d="M60.48375 20.28825V14.335125" style="fill:none;stroke:rgba(242,0,8,.24705882);stroke-width:.09525;stroke-miterlimit:41.994751"/><path d="M54.76875 22.86L60.48375 20.28825" style="fill:none;stroke:rgba(242,0,8,.24705882);stroke-width:.09525;stroke-miterlimit:41.994751"/><path d="M50.8635 22.86H54.76875" style="fill:none;stroke:rgba(242,0,8,.24705882);stroke-width:.09525;stroke-miterlimit:41.994751"/><path d="M50.8635 22.86L60.48375 20.28825" style="fill:none;stroke:rgba(242,0,8,.24705882);stroke-width:.09525;stroke-miterlimit:41.994751"/><path d="M38.76675 20.28825V17.145" style="fill:none;stroke:rgba(242,0,8,.24705882);stroke-width:.09525;stroke-miterlimit:41.994751"/><path d="M38.76675 20.28825V23.241" style="fill:none;stroke:rgba(242,0,8,.24705882);stroke-width:.09525;stroke-miterlimit:41.994751"/><path d="M66.19875 22.86L60.48375 20.28825" style="fill:none;stroke:rgba(242,0,8,.24705882);stroke-width:.09525;stroke-miterlimit:41.994751"/><path d="M60.48375 22.86V20.28825" style="fill:none;stroke:rgba(242,0,8,.24705882);stroke-width:.09525;stroke-miterlimit:41.994751"/><path d="M32.451675 8.382L8.829675 5.23875" style="fill:none;stroke:rgba(242,0,8,.24705882);stroke-width:.09525;stroke-miterlimit:41.994751"/><path d="M32.451675 12.525375L14.2875 11.325225" style="fill:none;stroke:rgba(242,0,8,.24705882);stroke-width:.09525;stroke-miterlimit:41.994751"/><path d="M32.451675 8.382H48.67275" style="fill:none;stroke:rgba(242,0,8,.24705882);stroke-width:.09525;stroke-miterlimit:41.994751"/><path d="M32.451675 8.382V4.143375" style="fill:none;stroke:rgba(242,0,8,.24705882);stroke-width:.09525;stroke-miterlimit:41.994751"/><path d="M60.48375 22.86H66.19875" style="fill:none;stroke:rgba(242,0,8,.24705882);stroke-width:.09525;stroke-miterlimit:41.994751"/><path d="M32.451675 8.382L14.2875 11.325225" style="fill:none;stroke:rgba(242,0,8,.24705882);stroke-width:.09525;stroke-miterlimit:41.994751"/><path d="M54.76875 22.86H60.48375" style="fill:none;stroke:rgba(242,0,8,.24705882);stroke-width:.09525;stroke-miterlimit:41.994751"/><path d="M32.451675 4.143375L8.829675 5.23875" style="fill:none;stroke:rgba(242,0,8,.24705882);stroke-width:.09525;stroke-miterlimit:41.994751"/><path d="M32.451675 12.525375V8.382" style="fill:none;stroke:rgba(242,0,8,.24705882);stroke-width:.09525;stroke-miterlimit:41.994751"/><path d="M70.104 22.86L60.48375 20.28825" style="fill:none;stroke:rgba(242,0,8,.24705882);stroke-width:.09525;stroke-miterlimit:41.994751"/><path d="M28.86075 70.380225L53.806725 68.52285" style="fill:none;stroke:rgba(242,0,12,.24705882);stroke-width:.09525;stroke-miterlimit:41.994751"/><path d="M97.17405 140.86523L95.183325 115.68113" style="fill:none;stroke:rgba(238,0,16,.24705882);stroke-width:.09525;stroke-miterlimit:41.994751"/><path d="M16.28775 63.53175H28.47975V58.95975H16.28775z" style="fill:rgba(230,0,20,.24705882);stroke:rgba(230,0,20,.24705882);stroke-width:.09525;stroke-miterlimit:41.994751"/><path d="M22.945725 61.58865A.47625 .47625 0 0021.993225 61.58865A.47625 .47625 0 0022.945725 61.58865z" fill="rgba(230,0,20,.24705882)"/><path d="M22.38375 65.43675L22.469475 61.58865" style="fill:none;stroke:rgba(230,0,24,.24705882);stroke-width:.09525;stroke-miterlimit:41.994751"/><path d="M10.19175 28.47975H16.28775V16.28775H10.19175z" style="fill:rgba(230,0,24,.24705882);stroke:rgba(230,0,24,.24705882);stroke-width:.09525;stroke-miterlimit:41.994751"/><path d="M13.716 22.38375A.47625 .47625 0 0012.7635 22.38375A.47625 .47625 0 0013.716 22.38375z" fill="rgba(230,0,24,.24705882)"/><path d="M.28575 76.48575H15.52575V71.91375H.28575z" style="fill:rgba(230,0,24,.24705882);stroke:rgba(230,0,24,.24705882);stroke-width:.09525;stroke-miterlimit:41.994751"/><path d="M8.382 74.19975A.47625 .47625 0 007.4295 74.19975A.47625 .47625 0 008.382 74.19975z" fill="rgba(230,0,24,.24705882)"/><path d="M16.28775 77.2287H28.47975V71.91375H16.28775z" style="fill:rgba(230,0,24,.24705882);stroke:rgba(230,0,24,.24705882);stroke-width:.09525;stroke-miterlimit:41.994751"/><path d="M22.86 74.571225A.47625 .47625 0 0021.9075 74.571225A.47625 .47625 0 0022.86 74.571225z" fill="rgba(230,0,24,.24705882)"/><path d="M1.61925 28.47975H5.61975V16.28775H1.61925z" style="fill:rgba(230,0,24,.24705882);stroke:rgba(230,0,24,.24705882);stroke-width:.09525;stroke-miterlimit:41.994751"/><path d="M4.09575 22.38375A.47625 .47625 0 003.14325 22.38375A.47625 .47625 0 004.09575 22.38375z" fill="rgba(230,0,24,.24705882)"/><path d="M5.61975 28.47975H10.19175V16.28775H5.61975z" style="fill:rgba(230,0,24,.24705882);stroke:rgba(230,0,24,.24705882);stroke-width:.09525;stroke-miterlimit:41.994751"/><path d="M8.382 22.38375A.47625 .47625 0 007.4295 22.38375A.47625 .47625 0 008.382 22.38375z" fill="rgba(230,0,24,.24705882)"/><path d="M28.47975 77.2287H29.24175V63.53175H28.47975z" style="fill:rgba(230,0,24,.24705882);stroke:rgba(230,0,24,.24705882);stroke-width:.09525;stroke-miterlimit:41.994751"/><path d="M29.337 70.380225A.47625 .47625 0 0028.3845 70.380225A.47625 .47625 0 0029.337 70.380225z" fill="rgba(230,0,24,.24705882)"/><path d="M16.28775 67.34175H28.47975V63.53175H16.28775z" style="fill:rgba(230,0,24,.24705882);stroke:rgba(230,0,24,.24705882);stroke-width:.09525;stroke-miterlimit:41.994751"/><path d="M22.86 65.43675A.47625 .47625 0 0021.9075 65.43675A.47625 .47625 0 0022.86 65.43675z" fill="rgba(230,0,24,.24705882)"/><path d="M5.61975 29.24175H10.19175V28.47975H5.61975z" style="fill:rgba(230,0,24,.24705882);stroke:rgba(230,0,24,.24705882);stroke-width:.09525;stroke-miterlimit:41.994751"/><path d="M8.382 28.86075A.47625 .47625 0 007.4295 28.86075A.47625 .47625 0 008.382 28.86075z" fill="rgba(230,0,24,.24705882)"/><path d="M10.19175 67.34175H15.52575V29.24175H10.19175z" style="fill:rgba(230,0,24,.24705882);stroke:rgba(230,0,24,.24705882);stroke-width:.09525;stroke-miterlimit:41.994751"/><path d="M13.335 48.29175A.47625 .47625 0 0012.3825 48.29175A.47625 .47625 0 0013.335 48.29175z" fill="rgba(230,0,24,.24705882)"/><path d="M5.61975 67.34175H10.19175V29.24175H5.61975z" style="fill:rgba(230,0,24,.24705882);stroke:rgba(230,0,24,.24705882);stroke-width:.09525;stroke-miterlimit:41.994751"/><path d="M8.382 48.29175A.47625 .47625 0 007.4295 48.29175A.47625 .47625 0 008.382 48.29175z" fill="rgba(230,0,24,.24705882)"/><path d="M.28575 67.34175H5.61975V29.24175H.28575z" style="fill:rgba(230,0,24,.24705882);stroke:rgba(230,0,24,.24705882);stroke-width:.09525;stroke-miterlimit:41.994751"/><path d="M3.429 48.29175A.47625 .47625 0 002.4765 48.29175A.47625 .47625 0 003.429 48.29175z" fill="rgba(230,0,24,.24705882)"/><path d="M.28575 71.91375H15.52575V67.34175H.28575z" style="fill:rgba(230,0,24,.24705882);stroke:rgba(230,0,24,.24705882);stroke-width:.09525;stroke-miterlimit:41.994751"/><path d="M8.382 69.62775A.47625 .47625 0 007.4295 69.62775A.47625 .47625 0 008.382 69.62775z" fill="rgba(230,0,24,.24705882)"/><path d="M16.28775 71.91375H28.47975V67.34175H16.28775z" style="fill:rgba(230,0,24,.24705882);stroke:rgba(230,0,24,.24705882);stroke-width:.09525;stroke-miterlimit:41.994751"/><path d="M22.86 69.62775A.47625 .47625 0 0021.9075 69.62775A.47625 .47625 0 0022.86 69.62775z" fill="rgba(230,0,24,.24705882)"/><path d="M77.24775 156.42907H113.82375V129.70193H77.24775z" style="fill:rgba(230,0,24,.24705882);stroke:rgba(230,0,24,.24705882);stroke-width:.09525;stroke-miterlimit:41.994751"/><path d="M97.6503 140.86523A.47625 .47625 0 0096.6978 140.86523A.47625 .47625 0 0097.6503 140.86523z" fill="rgba(230,0,24,.24705882)"/><path d="M15.52575 71.91375H16.28775V67.34175H15.52575z" style="fill:rgba(230,0,24,.24705882);stroke:rgba(230,0,24,.24705882);stroke-width:.09525;stroke-miterlimit:41.994751"/><path d="M16.383 69.62775A.47625 .47625 0 0015.4305 69.62775A.47625 .47625 0 0016.383 69.62775z" fill="rgba(230,0,24,.24705882)"/><path d="M22.38375 74.571225V69.62775" style="fill:none;stroke:rgba(230,0,24,.24705882);stroke-width:.09525;stroke-miterlimit:41.994751"/><path d="M2.95275 48.29175H7.90575" style="fill:none;stroke:rgba(230,0,24,.24705882);stroke-width:.09525;stroke-miterlimit:41.994751"/><path d="M7.90575 22.38375H13.23975" style="fill:none;stroke:rgba(230,0,24,.24705882);stroke-width:.09525;stroke-miterlimit:41.994751"/><path d="M15.90675 69.62775H7.90575" style="fill:none;stroke:rgba(230,0,24,.24705882);stroke-width:.09525;stroke-miterlimit:41.994751"/><path d="M22.38375 69.62775L28.86075 70.380225" style="fill:none;stroke:rgba(230,0,24,.24705882);stroke-width:.09525;stroke-miterlimit:41.994751"/><path d="M22.38375 69.62775H15.90675" style="fill:none;stroke:rgba(230,0,24,.24705882);stroke-width:.09525;stroke-miterlimit:41.994751"/><path d="M7.90575 69.62775V74.19975" style="fill:none;stroke:rgba(230,0,24,.24705882);stroke-width:.09525;stroke-miterlimit:41.994751"/><path d="M7.90575 69.62775L2.95275 48.29175" style="fill:none;stroke:rgba(230,0,24,.24705882);stroke-width:.09525;stroke-miterlimit:41.994751"/><path d="M7.90575 48.29175V28.86075" style="fill:none;stroke:rgba(230,0,24,.24705882);stroke-width:.09525;stroke-miterlimit:41.994751"/><path d="M7.90575 28.86075V22.38375" style="fill:none;stroke:rgba(230,0,24,.24705882);stroke-width:.09525;stroke-miterlimit:41.994751"/><path d="M22.38375 65.43675L28.86075 70.380225" style="fill:none;stroke:rgba(230,0,24,.24705882);stroke-width:.09525;stroke-miterlimit:41.994751"/><path d="M7.90575 22.38375H3.6195" style="fill:none;stroke:rgba(230,0,24,.24705882);stroke-width:.09525;stroke-miterlimit:41.994751"/><path d="M7.90575 48.29175H12.85875" style="fill:none;stroke:rgba(230,0,24,.24705882);stroke-width:.09525;stroke-miterlimit:41.994751"/><path d="M7.90575 48.29175V69.62775" style="fill:none;stroke:rgba(230,0,24,.24705882);stroke-width:.09525;stroke-miterlimit:41.994751"/><path d="M12.85875 48.29175L7.90575 69.62775" style="fill:none;stroke:rgba(230,0,24,.24705882);stroke-width:.09525;stroke-miterlimit:41.994751"/><path d="M22.38375 74.571225L28.86075 70.380225" style="fill:none;stroke:rgba(230,0,24,.24705882);stroke-width:.09525;stroke-miterlimit:41.994751"/><path d="M22.38375 69.62775V65.43675" style="fill:none;stroke:rgba(230,0,24,.24705882);stroke-width:.09525;stroke-miterlimit:41.994751"/><path d="M54.606825 109.75657L53.387625 97.126425" style="fill:none;stroke:rgba(226,0,24,.24705882);stroke-width:.09525;stroke-miterlimit:41.994751"/><path d="M10.8966 11.2395L14.2875 11.325225" style="fill:none;stroke:rgba(226,0,28,.24705882);stroke-width:.09525;stroke-miterlimit:41.994751"/><path d="M66.19875 22.86L66.35115 23.56485" style="fill:none;stroke:rgba(214,0,40,.24705882);stroke-width:.09525;stroke-miterlimit:41.994751"/><path d="M54.76875 22.86L54.7497 23.536275" style="fill:none;stroke:rgba(214,0,40,.24705882);stroke-width:.09525;stroke-miterlimit:41.994751"/><path d="M9.42975 14.38275H12.47775V8.28675H9.42975z" style="fill:rgba(210,0,44,.24705882);stroke:rgba(210,0,44,.24705882);stroke-width:.09525;stroke-miterlimit:41.994751"/><path d="M11.37285 11.2395A.47625 .47625 0 0010.42035 11.2395A.47625 .47625 0 0011.37285 11.2395z" fill="rgba(210,0,44,.24705882)"/><path d="M22.469475 61.58865L22.240875 55.425975" style="fill:none;stroke:rgba(210,0,44,.24705882);stroke-width:.09525;stroke-miterlimit:41.994751"/><path d="M45.72 118.39575H68.456175V106.16565H45.72z" style="fill:rgba(202,0,52,.24705882);stroke:rgba(202,0,52,.24705882);stroke-width:.09525;stroke-miterlimit:41.994751"/><path d="M55.083075 109.75657A.47625 .47625 0 0054.130575 109.75657A.47625 .47625 0 0055.083075 109.75657z" fill="rgba(202,0,52,.24705882)"/><path d="M53.387625 97.126425L39.081075 109.47082" style="fill:none;stroke:rgba(198,0,56,.24705882);stroke-width:.09525;stroke-miterlimit:41.994751"/><path d="M8.2296 11.325225L10.8966 11.2395" style="fill:none;stroke:rgba(190,0,60,.24705882);stroke-width:.09525;stroke-miterlimit:41.994751"/><path d="M16.28775 58.95975H28.47975V52.86375H16.28775z" style="fill:rgba(186,0,68,.24705882);stroke:rgba(186,0,68,.24705882);stroke-width:.09525;stroke-miterlimit:41.994751"/><path d="M22.717125 55.425975A.47625 .47625 0 0021.764625 55.425975A.47625 .47625 0 0022.717125 55.425975z" fill="rgba(186,0,68,.24705882)"/><path d="M64.10325 23.90775H68.29425V23.14575H64.10325z" style="fill:rgba(182,0,72,.24705882);stroke:rgba(182,0,72,.24705882);stroke-width:.09525;stroke-miterlimit:41.994751"/><path d="M66.8274 23.56485A.47625 .47625 0 0065.8749 23.56485A.47625 .47625 0 0066.8274 23.56485z" fill="rgba(182,0,72,.24705882)"/><path d="M52.67325 23.90775H56.86425V23.14575H52.67325z" style="fill:rgba(182,0,72,.24705882);stroke:rgba(182,0,72,.24705882);stroke-width:.09525;stroke-miterlimit:41.994751"/><path d="M55.22595 23.536275A.47625 .47625 0 0054.27345 23.536275A.47625 .47625 0 0055.22595 23.536275z" fill="rgba(182,0,72,.24705882)"/><path d="M7.14375 14.38275H9.42975V8.28675H7.14375z" style="fill:rgba(174,0,80,.24705882);stroke:rgba(174,0,80,.24705882);stroke-width:.09525;stroke-miterlimit:41.994751"/><path d="M8.70585 11.325225A.47625 .47625 0 007.75335 11.325225A.47625 .47625 0 008.70585 11.325225z" fill="rgba(174,0,80,.24705882)"/><path d="M39.081075 109.47082L54.606825 109.75657" style="fill:none;stroke:rgba(170,0,80,.24705882);stroke-width:.09525;stroke-miterlimit:41.994751"/><path d="M22.240875 55.425975L22.012275 49.3014" style="fill:none;stroke:rgba(161,0,93,.24705882);stroke-width:.09525;stroke-miterlimit:41.994751"/><path d="M4.3434 11.33475L8.2296 11.325225" style="fill:none;stroke:rgba(161,0,93,.24705882);stroke-width:.09525;stroke-miterlimit:41.994751"/><path d="M1.04775 14.38275H7.14375V8.28675H1.04775z" style="fill:rgba(149,0,105,.24705882);stroke:rgba(149,0,105,.24705882);stroke-width:.09525;stroke-miterlimit:41.994751"/><path d="M4.81965 11.33475A.47625 .47625 0 003.86715 11.33475A.47625 .47625 0 004.81965 11.33475z" fill="rgba(149,0,105,.24705882)"/><path d="M1.04775 8.28675H7.14375V2.19075H1.04775z" style="fill:rgba(149,0,105,.24705882);stroke:rgba(149,0,105,.24705882);stroke-width:.09525;stroke-miterlimit:41.994751"/><path d="M4.81965 5.476875A.47625 .47625 0 003.86715 5.476875A.47625 .47625 0 004.81965 5.476875z" fill="rgba(149,0,105,.24705882)"/><path d="M4.3434 5.476875V11.33475" style="fill:none;stroke:rgba(149,0,105,.24705882);stroke-width:.09525;stroke-miterlimit:41.994751"/><path d="M4.3434 5.476875L7.4295 5.191125" style="fill:none;stroke:rgba(145,0,109,.24705882);stroke-width:.09525;stroke-miterlimit:41.994751"/><path d="M29.24175 118.39575H45.72V103.91775H29.24175z" style="fill:rgba(141,0,113,.24705882);stroke:rgba(141,0,113,.24705882);stroke-width:.09525;stroke-miterlimit:41.994751"/><path d="M39.557325 109.47082A.47625 .47625 0 0038.604825 109.47082A.47625 .47625 0 0039.557325 109.47082z" fill="rgba(141,0,113,.24705882)"/><path d="M16.28775 52.86375H28.47975V46.76775H16.28775z" style="fill:rgba(137,0,113,.24705882);stroke:rgba(137,0,113,.24705882);stroke-width:.09525;stroke-miterlimit:41.994751"/><path d="M22.488525 49.3014A.47625 .47625 0 0021.536025 49.3014A.47625 .47625 0 0022.488525 49.3014z" fill="rgba(137,0,113,.24705882)"/><path d="M7.14375 8.28675H7.90575V2.19075H7.14375z" style="fill:rgba(137,0,113,.24705882);stroke:rgba(137,0,113,.24705882);stroke-width:.09525;stroke-miterlimit:41.994751"/><path d="M7.90575 5.191125A.47625 .47625 0 006.95325 5.191125A.47625 .47625 0 007.90575 5.191125z" fill="rgba(137,0,113,.24705882)"/><path d="M66.35115 23.56485L66.19875 45.596175" style="fill:none;stroke:rgba(129,0,125,.24705882);stroke-width:.09525;stroke-miterlimit:41.994751"/><path d="M7.4295 5.191125L9.344025 5.305425" style="fill:none;stroke:rgba(125,0,125,.24705882);stroke-width:.09525;stroke-miterlimit:41.994751"/><path d="M7.90575 8.28675H10.19175V2.19075H7.90575z" style="fill:rgba(113,0,137,.24705882);stroke:rgba(113,0,137,.24705882);stroke-width:.09525;stroke-miterlimit:41.994751"/><path d="M9.820275 5.305425A.47625 .47625 0 008.867775 5.305425A.47625 .47625 0 009.820275 5.305425z" fill="rgba(113,0,137,.24705882)"/><path d="M22.012275 49.3014L21.917025 43.5864" style="fill:none;stroke:rgba(113,0,137,.24705882);stroke-width:.09525;stroke-miterlimit:41.994751"/><path d="M9.344025 5.305425L10.95375 5.04825" style="fill:none;stroke:rgba(101,0,149,.24705882);stroke-width:.09525;stroke-miterlimit:41.994751"/><path d="M16.28775 46.76775H28.47975V40.67175H16.28775z" style="fill:rgba(93,0,161,.24705882);stroke:rgba(93,0,161,.24705882);stroke-width:.09525;stroke-miterlimit:41.994751"/><path d="M22.393275 43.5864A.47625 .47625 0 0021.440775 43.5864A.47625 .47625 0 0022.393275 43.5864z" fill="rgba(93,0,161,.24705882)"/><path d="M10.19175 8.28675H11.71575V2.19075H10.19175z" style="fill:rgba(89,0,165,.24705882);stroke:rgba(89,0,165,.24705882);stroke-width:.09525;stroke-miterlimit:41.994751"/><path d="M11.43 5.04825A.47625 .47625 0 0010.4775 5.04825A.47625 .47625 0 0011.43 5.04825z" fill="rgba(89,0,165,.24705882)"/><path d="M21.917025 43.5864L18.19275 28.47975" style="fill:none;stroke:rgba(80,0,174,.24705882);stroke-width:.09525;stroke-miterlimit:41.994751"/><path d="M26.57475 34.57575L21.917025 43.5864" style="fill:none;stroke:rgba(80,0,174,.24705882);stroke-width:.09525;stroke-miterlimit:41.994751"/><path d="M22.38375 28.47975L21.917025 43.5864" style="fill:none;stroke:rgba(80,0,174,.24705882);stroke-width:.09525;stroke-miterlimit:41.994751"/><path d="M10.95375 5.04825L13.04925 5.23875" style="fill:none;stroke:rgba(80,0,174,.24705882);stroke-width:.09525;stroke-miterlimit:41.994751"/><path d="M15.14475 15.52575H20.09775V8.28675H15.14475z" style="fill:rgba(68,0,186,.24705882);stroke:rgba(68,0,186,.24705882);stroke-width:.09525;stroke-miterlimit:41.994751"/><path d="M18.0975 11.90625A.47625 .47625 0 0017.145 11.90625A.47625 .47625 0 0018.0975 11.90625z" fill="rgba(68,0,186,.24705882)"/><path d="M15.14475 2.19075H20.09775V.28575H15.14475z" style="fill:rgba(68,0,186,.24705882);stroke:rgba(68,0,186,.24705882);stroke-width:.09525;stroke-miterlimit:41.994751"/><path d="M18.0975 1.23825A.47625 .47625 0 0017.145 1.23825A.47625 .47625 0 0018.0975 1.23825z" fill="rgba(68,0,186,.24705882)"/><path d="M24.66975 15.52575H48.29175V10.668H24.66975z" style="fill:rgba(68,0,186,.24705882);stroke:rgba(68,0,186,.24705882);stroke-width:.09525;stroke-miterlimit:41.994751"/><path d="M36.957 13.096875A.47625 .47625 0 0036.0045 13.096875A.47625 .47625 0 0036.957 13.096875z" fill="rgba(68,0,186,.24705882)"/><path d="M24.66975 28.47975H28.47975V16.28775H24.66975z" style="fill:rgba(68,0,186,.24705882);stroke:rgba(68,0,186,.24705882);stroke-width:.09525;stroke-miterlimit:41.994751"/><path d="M27.051 22.38375A.47625 .47625 0 0026.0985 22.38375A.47625 .47625 0 0027.051 22.38375z" fill="rgba(68,0,186,.24705882)"/><path d="M24.66975 10.668H48.29175V6.096H24.66975z" style="fill:rgba(68,0,186,.24705882);stroke:rgba(68,0,186,.24705882);stroke-width:.09525;stroke-miterlimit:41.994751"/><path d="M36.957 8.382A.47625 .47625 0 0036.0045 8.382A.47625 .47625 0 0036.957 8.382z" fill="rgba(68,0,186,.24705882)"/><path d="M20.09775 16.28775H24.66975V15.52575H20.09775z" style="fill:rgba(68,0,186,.24705882);stroke:rgba(68,0,186,.24705882);stroke-width:.09525;stroke-miterlimit:41.994751"/><path d="M22.86 15.90675A.47625 .47625 0 0021.9075 15.90675A.47625 .47625 0 0022.86 15.90675z" fill="rgba(68,0,186,.24705882)"/><path d="M24.66975 40.67175H28.47975V28.47975H24.66975z" style="fill:rgba(68,0,186,.24705882);stroke:rgba(68,0,186,.24705882);stroke-width:.09525;stroke-miterlimit:41.994751"/><path d="M27.051 34.57575A.47625 .47625 0 0026.0985 34.57575A.47625 .47625 0 0027.051 34.57575z" fill="rgba(68,0,186,.24705882)"/><path d="M20.09775 15.52575H24.66975V.28575H20.09775z" style="fill:rgba(68,0,186,.24705882);stroke:rgba(68,0,186,.24705882);stroke-width:.09525;stroke-miterlimit:41.994751"/><path d="M22.86 7.90575A.47625 .47625 0 0021.9075 7.90575A.47625 .47625 0 0022.86 7.90575z" fill="rgba(68,0,186,.24705882)"/><path d="M24.66975 6.096H48.29175V.28575H24.66975z" style="fill:rgba(68,0,186,.24705882);stroke:rgba(68,0,186,.24705882);stroke-width:.09525;stroke-miterlimit:41.994751"/><path d="M36.957 3.190875A.47625 .47625 0 0036.0045 3.190875A.47625 .47625 0 0036.957 3.190875z" fill="rgba(68,0,186,.24705882)"/><path d="M20.09775 40.67175H24.66975V16.28775H20.09775z" style="fill:rgba(68,0,186,.24705882);stroke:rgba(68,0,186,.24705882);stroke-width:.09525;stroke-miterlimit:41.994751"/><path d="M22.86 28.47975A.47625 .47625 0 0021.9075 28.47975A.47625 .47625 0 0022.86 28.47975z" fill="rgba(68,0,186,.24705882)"/><path d="M48.29175 10.668H49.05375V6.096H48.29175z" style="fill:rgba(68,0,186,.24705882);stroke:rgba(68,0,186,.24705882);stroke-width:.09525;stroke-miterlimit:41.994751"/><path d="M49.149 8.382A.47625 .47625 0 0048.1965 8.382A.47625 .47625 0 0049.149 8.382z" fill="rgba(68,0,186,.24705882)"/><path d="M11.71575 8.28675H14.38275V2.19075H11.71575z" style="fill:rgba(68,0,186,.24705882);stroke:rgba(68,0,186,.24705882);stroke-width:.09525;stroke-miterlimit:41.994751"/><path d="M13.5255 5.23875A.47625 .47625 0 0012.573 5.23875A.47625 .47625 0 0013.5255 5.23875z" fill="rgba(68,0,186,.24705882)"/><path d="M49.05375 10.668H71.91375V6.096H49.05375z" style="fill:rgba(68,0,186,.24705882);stroke:rgba(68,0,186,.24705882);stroke-width:.09525;stroke-miterlimit:41.994751"/><path d="M60.96 8.382A.47625 .47625 0 0060.0075 8.382A.47625 .47625 0 0060.96 8.382z" fill="rgba(68,0,186,.24705882)"/><path d="M16.28775 40.67175H20.09775V16.28775H16.28775z" style="fill:rgba(68,0,186,.24705882);stroke:rgba(68,0,186,.24705882);stroke-width:.09525;stroke-miterlimit:41.994751"/><path d="M18.669 28.47975A.47625 .47625 0 0017.7165 28.47975A.47625 .47625 0 0018.669 28.47975z" fill="rgba(68,0,186,.24705882)"/><path d="M14.38275 8.28675H15.14475V2.19075H14.38275z" style="fill:rgba(68,0,186,.24705882);stroke:rgba(68,0,186,.24705882);stroke-width:.09525;stroke-miterlimit:41.994751"/><path d="M15.24 5.23875A.47625 .47625 0 0014.2875 5.23875A.47625 .47625 0 0015.24 5.23875z" fill="rgba(68,0,186,.24705882)"/><path d="M49.05375 6.096H71.91375V.28575H49.05375z" style="fill:rgba(68,0,186,.24705882);stroke:rgba(68,0,186,.24705882);stroke-width:.09525;stroke-miterlimit:41.994751"/><path d="M60.96 3.190875A.47625 .47625 0 0060.0075 3.190875A.47625 .47625 0 0060.96 3.190875z" fill="rgba(68,0,186,.24705882)"/><path d="M49.05375 23.14575H71.91375V10.668H49.05375z" style="fill:rgba(68,0,186,.24705882);stroke:rgba(68,0,186,.24705882);stroke-width:.09525;stroke-miterlimit:41.994751"/><path d="M60.96 16.906875A.47625 .47625 0 0060.0075 16.906875A.47625 .47625 0 0060.96 16.906875z" fill="rgba(68,0,186,.24705882)"/><path d="M15.14475 8.28675H20.09775V2.19075H15.14475z" style="fill:rgba(68,0,186,.24705882);stroke:rgba(68,0,186,.24705882);stroke-width:.09525;stroke-miterlimit:41.994751"/><path d="M18.0975 5.23875A.47625 .47625 0 0017.145 5.23875A.47625 .47625 0 0018.0975 5.23875z" fill="rgba(68,0,186,.24705882)"/><path d="M18.19275 28.47975H22.38375" style="fill:none;stroke:rgba(68,0,186,.24705882);stroke-width:.09525;stroke-miterlimit:41.994751"/><path d="M36.48075 8.382V3.190875" style="fill:none;stroke:rgba(68,0,186,.24705882);stroke-width:.09525;stroke-miterlimit:41.994751"/><path d="M17.62125 5.23875H14.76375" style="fill:none;stroke:rgba(68,0,186,.24705882);stroke-width:.09525;stroke-miterlimit:41.994751"/><path d="M17.62125 5.23875L22.38375 7.90575" style="fill:none;stroke:rgba(68,0,186,.24705882);stroke-width:.09525;stroke-miterlimit:41.994751"/><path d="M17.62125 1.23825L22.38375 7.90575" style="fill:none;stroke:rgba(68,0,186,.24705882);stroke-width:.09525;stroke-miterlimit:41.994751"/><path d="M60.48375 8.382V16.906875" style="fill:none;stroke:rgba(68,0,186,.24705882);stroke-width:.09525;stroke-miterlimit:41.994751"/><path d="M17.62125 11.90625V5.23875" style="fill:none;stroke:rgba(68,0,186,.24705882);stroke-width:.09525;stroke-miterlimit:41.994751"/><path d="M60.48375 8.382V3.190875" style="fill:none;stroke:rgba(68,0,186,.24705882);stroke-width:.09525;stroke-miterlimit:41.994751"/><path d="M22.38375 15.90675V7.90575" style="fill:none;stroke:rgba(68,0,186,.24705882);stroke-width:.09525;stroke-miterlimit:41.994751"/><path d="M22.38375 7.90575L36.48075 13.096875" style="fill:none;stroke:rgba(68,0,186,.24705882);stroke-width:.09525;stroke-miterlimit:41.994751"/><path d="M48.67275 8.382H60.48375" style="fill:none;stroke:rgba(68,0,186,.24705882);stroke-width:.09525;stroke-miterlimit:41.994751"/><path d="M13.04925 5.23875H14.76375" style="fill:none;stroke:rgba(68,0,186,.24705882);stroke-width:.09525;stroke-miterlimit:41.994751"/><path d="M36.48075 3.190875L22.38375 7.90575" style="fill:none;stroke:rgba(68,0,186,.24705882);stroke-width:.09525;stroke-miterlimit:41.994751"/><path d="M22.38375 7.90575L17.62125 11.90625" style="fill:none;stroke:rgba(68,0,186,.24705882);stroke-width:.09525;stroke-miterlimit:41.994751"/><path d="M36.48075 8.382H48.67275" style="fill:none;stroke:rgba(68,0,186,.24705882);stroke-width:.09525;stroke-miterlimit:41.994751"/><path d="M22.38375 28.47975L26.57475 34.57575" style="fill:none;stroke:rgba(68,0,186,.24705882);stroke-width:.09525;stroke-miterlimit:41.994751"/><path d="M22.38375 28.47975V15.90675" style="fill:none;stroke:rgba(68,0,186,.24705882);stroke-width:.09525;stroke-miterlimit:41.994751"/><path d="M17.62125 5.23875V1.23825" style="fill:none;stroke:rgba(68,0,186,.24705882);stroke-width:.09525;stroke-miterlimit:41.994751"/><path d="M26.57475 34.57575V22.38375" style="fill:none;stroke:rgba(68,0,186,.24705882);stroke-width:.09525;stroke-miterlimit:41.994751"/><path d="M36.48075 8.382L22.38375 7.90575" style="fill:none;stroke:rgba(68,0,186,.24705882);stroke-width:.09525;stroke-miterlimit:41.994751"/><path d="M26.57475 22.38375L22.38375 28.47975" style="fill:none;stroke:rgba(68,0,186,.24705882);stroke-width:.09525;stroke-miterlimit:41.994751"/><path d="M36.48075 13.096875V8.382" style="fill:none;stroke:rgba(68,0,186,.24705882);stroke-width:.09525;stroke-miterlimit:41.994751"/><path d="M29.24175 28.47975H34.38525V16.28775H29.24175z" style="fill:rgba(60,0,190,.24705882);stroke:rgba(60,0,190,.24705882);stroke-width:.09525;stroke-miterlimit:41.994751"/><path d="M32.28975 22.49805A.47625 .47625 0 0031.33725 22.49805A.47625 .47625 0 0032.28975 22.49805z" fill="rgba(60,0,190,.24705882)"/><path d="M38.57625 28.47975H48.29175V16.28775H38.57625z" style="fill:rgba(60,0,190,.24705882);stroke:rgba(60,0,190,.24705882);stroke-width:.09525;stroke-miterlimit:41.994751"/><path d="M43.91025 22.49805A.47625 .47625 0 0042.95775 22.49805A.47625 .47625 0 0043.91025 22.49805z" fill="rgba(60,0,190,.24705882)"/><path d="M34.38525 28.47975H38.57625V16.28775H34.38525z" style="fill:rgba(60,0,190,.24705882);stroke:rgba(60,0,190,.24705882);stroke-width:.09525;stroke-miterlimit:41.994751"/><path d="M36.957 22.49805A.47625 .47625 0 0036.0045 22.49805A.47625 .47625 0 0036.957 22.49805z" fill="rgba(60,0,190,.24705882)"/><path d="M31.8135 22.49805H36.48075" style="fill:none;stroke:rgba(60,0,190,.24705882);stroke-width:.09525;stroke-miterlimit:41.994751"/><path d="M36.48075 22.49805H43.434" style="fill:none;stroke:rgba(60,0,190,.24705882);stroke-width:.09525;stroke-miterlimit:41.994751"/><path d="M66.35115 23.56485L60.48375 16.906875" style="fill:none;stroke:rgba(36,0,218,.24705882);stroke-width:.09525;stroke-miterlimit:41.994751"/><path d="M36.48075 22.49805L36.452175 15.8877" style="fill:none;stroke:rgba(36,0,218,.24705882);stroke-width:.09525;stroke-miterlimit:41.994751"/><path d="M26.57475 22.38375L29.01315 23.52675" style="fill:none;stroke:rgba(32,0,222,.24705882);stroke-width:.09525;stroke-miterlimit:41.994751"/><path d="M29.01315 23.52675L31.8135 22.49805" style="fill:none;stroke:rgba(28,0,222,.24705882);stroke-width:.09525;stroke-miterlimit:41.994751"/><path d="M34.38525 16.28775H38.57625V15.52575H34.38525z" style="fill:rgba(8,0,246,.24705882);stroke:rgba(8,0,246,.24705882);stroke-width:.09525;stroke-miterlimit:41.994751"/><path d="M36.928425 15.8877A.47625 .47625 0 0035.975925 15.8877A.47625 .47625 0 0036.928425 15.8877z" fill="rgba(8,0,246,.24705882)"/><path d="M64.10325 23.90775H68.29425V23.14575H64.10325z" style="fill:rgba(0,0,255,.24705882);stroke:rgba(0,0,255,.24705882);stroke-width:.09525;stroke-miterlimit:41.994751"/><path d="M66.8274 23.56485A.47625 .47625 0 0065.8749 23.56485A.47625 .47625 0 0066.8274 23.56485z" fill="rgba(0,0,255,.24705882)"/><path d="M28.47975 28.47975H29.24175V16.28775H28.47975z" style="fill:rgba(0,0,255,.24705882);stroke:rgba(0,0,255,.24705882);stroke-width:.09525;stroke-miterlimit:41.994751"/><path d="M29.4894 23.52675A.47625 .47625 0 0028.5369 23.52675A.47625 .47625 0 0029.4894 23.52675z" fill="rgba(0,0,255,.24705882)"/></svg>