<svg version="1.1" width="244.0305mm" height="250.8885mm" viewBox="0 0 244.0305 250.8885" xmlns="http://www.w3.org/2000/svg" xmlns:xlink="http://www.w3.org/1999/xlink"><path d="M120.9675 122.4915H122.8725" style="fill:none;stroke:#f00;stroke-width:.09525;stroke-miterlimit:41.994751"/><path d="M120.9675 122.4915V120.5865" style="fill:none;stroke:#0f0;stroke-width:.09525;stroke-miterlimit:41.994751"/><path d="M24.7269 233.6673A.47625 .47625 0 0023.7744 233.6673A.47625 .47625 0 0024.7269 233.6673z" fill="rgba(255,0,0,.24705882)"/><path d="M153.40965 113.44275A.47625 .47625 0 00152.45715 113.44275A.47625 .47625 0 00153.40965 113.44275z" fill="rgba(255,0,0,.24705882)"/><path d="M152.75242 97.93605A.47625 .47625 0 00151.79993 97.93605A.47625 .47625 0 00152.75242 97.93605z" fill="rgba(255,0,0,.24705882)"/><path d="M110.1471 6.753225A.47625 .47625 0 00109.1946 6.753225A.47625 .47625 0 00110.1471 6.753225z" fill="rgba(255,0,0,.24705882)"/><path d="M141.63675 49.215675A.47625 .47625 0 00140.68425 49.215675A.47625 .47625 0 00141.63675 49.215675z" fill="rgba(255,0,0,.24705882)"/><path d="M75.2475 5.8293A.47625 .47625 0 0074.295 5.8293A.47625 .47625 0 0075.2475 5.8293z" fill="rgba(255,0,0,.24705882)"/><path d="M53.178075 15.668625A.47625 .47625 0 0052.225575 15.668625A.47625 .47625 0 0053.178075 15.668625z" fill="rgba(255,0,0,.24705882)"/><path d="M117.9195 178.28895A.47625 .47625 0 00116.967 178.28895A.47625 .47625 0 00117.9195 178.28895z" fill="rgba(255,0,0,.24705882)"/><path d="M122.78677 154.77173A.47625 .47625 0 00121.83428 154.77173A.47625 .47625 0 00122.78677 154.77173z" fill="rgba(255,0,0,.24705882)"/><path d="M101.47935 158.7246A.47625 .47625 0 00100.52685 158.7246A.47625 .47625 0 00101.47935 158.7246z" fill="rgba(255,0,0,.24705882)"/><path d="M68.151375 137.26477A.47625 .47625 0 0067.198875 137.26477A.47625 .47625 0 0068.151375 137.26477z" fill="rgba(255,0,0,.24705882)"/><path d="M131.99745 144.95145A.47625 .47625 0 00131.04495 144.95145A.47625 .47625 0 00131.99745 144.95145z" fill="rgba(255,0,0,.24705882)"/><path d="M59.1693 99.945825A.47625 .47625 0 0058.2168 99.945825A.47625 .47625 0 0059.1693 99.945825z" fill="rgba(255,0,0,.24705882)"/><path d="M155.11462 144.42757A.47625 .47625 0 00154.16213 144.42757A.47625 .47625 0 00155.11462 144.42757z" fill="rgba(255,0,0,.24705882)"/><path d="M50.149125 107.03242A.47625 .47625 0 0049.196625 107.03242A.47625 .47625 0 0050.149125 107.03242z" fill="rgba(255,0,0,.24705882)"/><path d="M54.04485 42.129075A.47625 .47625 0 0053.09235 42.129075A.47625 .47625 0 0054.04485 42.129075z" fill="rgba(255,0,0,.24705882)"/><path d="M169.6212 1.057275A.47625 .47625 0 00168.6687 1.057275A.47625 .47625 0 00169.6212 1.057275z" fill="rgba(255,0,0,.24705882)"/><path d="M119.9769 116.8908A.47625 .47625 0 00119.0244 116.8908A.47625 .47625 0 00119.9769 116.8908z" fill="rgba(255,0,0,.24705882)"/><path d="M222.86595 .466725A.47625 .47625 0 00221.91345 .466725A.47625 .47625 0 00222.86595 .466725z" fill="rgba(255,0,0,.24705882)"/><path d="M217.3986 119.12918A.47625 .47625 0 00216.4461 119.12918A.47625 .47625 0 00217.3986 119.12918z" fill="rgba(255,0,0,.24705882)"/><path d="M243.6495 17.897475A.47625 .47625 0 00242.697 17.897475A.47625 .47625 0 00243.6495 17.897475z" fill="rgba(255,0,0,.24705882)"/><path d="M196.9389 145.37055A.47625 .47625 0 00195.9864 145.37055A.47625 .47625 0 00196.9389 145.37055z" fill="rgba(255,0,0,.24705882)"/><path d="M55.387875 66.9417A.47625 .47625 0 0054.435375 66.9417A.47625 .47625 0 0055.387875 66.9417z" fill="rgba(255,0,0,.24705882)"/><path d="M213.9315 155.08605A.47625 .47625 0 00212.979 155.08605A.47625 .47625 0 00213.9315 155.08605z" fill="rgba(255,0,0,.24705882)"/><path d="M5.934075 93.583125A.47625 .47625 0 004.981575 93.583125A.47625 .47625 0 005.934075 93.583125z" fill="rgba(255,0,0,.24705882)"/><path d="M212.15985 221.15145A.47625 .47625 0 00211.20735 221.15145A.47625 .47625 0 00212.15985 221.15145z" fill="rgba(255,0,0,.24705882)"/><path d="M157.1244 151.08555A.47625 .47625 0 00156.1719 151.08555A.47625 .47625 0 00157.1244 151.08555z" fill="rgba(255,0,0,.24705882)"/><path d="M244.1067 59.197875A.47625 .47625 0 00243.1542 59.197875A.47625 .47625 0 00244.1067 59.197875z" fill="rgba(255,0,0,.24705882)"/><path d="M185.26125 241.4397A.47625 .47625 0 00184.30875 241.4397A.47625 .47625 0 00185.26125 241.4397z" fill="rgba(255,0,0,.24705882)"/><path d="M127.30163 246.9261A.47625 .47625 0 00126.34913 246.9261A.47625 .47625 0 00127.30163 246.9261z" fill="rgba(255,0,0,.24705882)"/><path d="M.8763 133.33095A.47625 .47625 0 00-.0762 133.33095A.47625 .47625 0 00.8763 133.33095z" fill="rgba(255,0,0,.24705882)"/><path d="M52.1208 250.44083A.47625 .47625 0 0051.1683 250.44083A.47625 .47625 0 0052.1208 250.44083z" fill="rgba(255,0,0,.24705882)"/><path d="M5.4102 182.28945A.47625 .47625 0 004.4577 182.28945A.47625 .47625 0 005.4102 182.28945z" fill="rgba(255,0,0,.24705882)"/><path d="M128.84467 17.84985A.47625 .47625 0 00127.89218 17.84985A.47625 .47625 0 00128.84467 17.84985z" fill="rgba(255,0,0,.24705882)"/><path d="M222.3897 .466725L243.17325 17.897475" style="fill:none;stroke:rgba(255,0,0,.24705882);stroke-width:.09525;stroke-miterlimit:41.994751"/><path d="M169.14495 1.057275L222.3897 .466725" style="fill:none;stroke:rgba(255,0,0,.24705882);stroke-width:.09525;stroke-miterlimit:41.994751"/><path d="M24.25065 233.6673L4.93395 182.28945" style="fill:none;stroke:rgba(255,0,0,.24705882);stroke-width:.09525;stroke-miterlimit:41.994751"/><path d="M4.93395 182.28945L.40005 133.33095" style="fill:none;stroke:rgba(255,0,0,.24705882);stroke-width:.09525;stroke-miterlimit:41.994751"/><path d="M126.82538 246.9261L51.64455 250.44083" style="fill:none;stroke:rgba(255,0,0,.24705882);stroke-width:.09525;stroke-miterlimit:41.994751"/><path d="M.40005 133.33095L5.457825 93.583125" style="fill:none;stroke:rgba(255,0,0,.24705882);stroke-width:.09525;stroke-miterlimit:41.994751"/><path d="M184.785 241.4397L126.82538 246.9261" style="fill:none;stroke:rgba(255,0,0,.24705882);stroke-width:.09525;stroke-miterlimit:41.994751"/><path d="M156.64815 151.08555L154.63837 144.42757" style="fill:none;stroke:rgba(255,0,0,.24705882);stroke-width:.09525;stroke-miterlimit:41.994751"/><path d="M152.9334 113.44275L119.50065 116.8908" style="fill:none;stroke:rgba(255,0,0,.24705882);stroke-width:.09525;stroke-miterlimit:41.994751"/><path d="M211.6836 221.15145L184.785 241.4397" style="fill:none;stroke:rgba(255,0,0,.24705882);stroke-width:.09525;stroke-miterlimit:41.994751"/><path d="M.40005 133.33095L67.675125 137.26478" style="fill:none;stroke:rgba(255,0,0,.24705882);stroke-width:.09525;stroke-miterlimit:41.994751"/><path d="M213.45525 155.08605L211.6836 221.15145" style="fill:none;stroke:rgba(255,0,0,.24705882);stroke-width:.09525;stroke-miterlimit:41.994751"/><path d="M5.457825 93.583125L58.69305 99.945825" style="fill:none;stroke:rgba(255,0,0,.24705882);stroke-width:.09525;stroke-miterlimit:41.994751"/><path d="M196.46265 145.37055L213.45525 155.08605" style="fill:none;stroke:rgba(255,0,0,.24705882);stroke-width:.09525;stroke-miterlimit:41.994751"/><path d="M243.63045 59.197875L216.92235 119.12918" style="fill:none;stroke:rgba(255,0,0,.24705882);stroke-width:.09525;stroke-miterlimit:41.994751"/><path d="M216.92235 119.12918L196.46265 145.37055" style="fill:none;stroke:rgba(255,0,0,.24705882);stroke-width:.09525;stroke-miterlimit:41.994751"/><path d="M243.17325 17.897475L243.63045 59.197875" style="fill:none;stroke:rgba(255,0,0,.24705882);stroke-width:.09525;stroke-miterlimit:41.994751"/><path d="M154.63837 144.42757L152.9334 113.44275" style="fill:none;stroke:rgba(255,0,0,.24705882);stroke-width:.09525;stroke-miterlimit:41.994751"/><path d="M154.63837 144.42757L196.46265 145.37055" style="fill:none;stroke:rgba(255,0,0,.24705882);stroke-width:.09525;stroke-miterlimit:41.994751"/><path d="M51.64455 250.44083L24.25065 233.6673" style="fill:none;stroke:rgba(255,0,0,.24705882);stroke-width:.09525;stroke-miterlimit:41.994751"/><path d="M152.9334 113.44275L152.27617 97.93605" style="fill:none;stroke:rgba(255,0,0,.24705882);stroke-width:.09525;stroke-miterlimit:41.994751"/><path d="M53.5686 42.129075L52.701825 15.668625" style="fill:none;stroke:rgba(255,0,0,.24705882);stroke-width:.09525;stroke-miterlimit:41.994751"/><path d="M54.911625 66.9417L53.5686 42.129075" style="fill:none;stroke:rgba(255,0,0,.24705882);stroke-width:.09525;stroke-miterlimit:41.994751"/><path d="M109.67085 6.753225L128.36843 17.84985" style="fill:none;stroke:rgba(255,0,0,.24705882);stroke-width:.09525;stroke-miterlimit:41.994751"/><path d="M49.672875 107.03243L67.675125 137.26478" style="fill:none;stroke:rgba(255,0,0,.24705882);stroke-width:.09525;stroke-miterlimit:41.994751"/><path d="M54.911625 66.9417L58.69305 99.945825" style="fill:none;stroke:rgba(255,0,0,.24705882);stroke-width:.09525;stroke-miterlimit:41.994751"/><path d="M131.5212 144.95145L154.63837 144.42757" style="fill:none;stroke:rgba(255,0,0,.24705882);stroke-width:.09525;stroke-miterlimit:41.994751"/><path d="M58.69305 99.945825L49.672875 107.03243" style="fill:none;stroke:rgba(255,0,0,.24705882);stroke-width:.09525;stroke-miterlimit:41.994751"/><path d="M122.31052 154.77173L131.5212 144.95145" style="fill:none;stroke:rgba(255,0,0,.24705882);stroke-width:.09525;stroke-miterlimit:41.994751"/><path d="M101.0031 158.7246L117.44325 178.28895" style="fill:none;stroke:rgba(255,0,0,.24705882);stroke-width:.09525;stroke-miterlimit:41.994751"/><path d="M117.44325 178.28895L122.31052 154.77173" style="fill:none;stroke:rgba(255,0,0,.24705882);stroke-width:.09525;stroke-miterlimit:41.994751"/><path d="M101.0031 158.7246L67.675125 137.26478" style="fill:none;stroke:rgba(255,0,0,.24705882);stroke-width:.09525;stroke-miterlimit:41.994751"/><path d="M128.36843 17.84985L141.1605 49.215675" style="fill:none;stroke:rgba(255,0,0,.24705882);stroke-width:.09525;stroke-miterlimit:41.994751"/><path d="M128.36843 17.84985L169.14495 1.057275" style="fill:none;stroke:rgba(255,0,0,.24705882);stroke-width:.09525;stroke-miterlimit:41.994751"/><path d="M74.77125 5.8293L52.701825 15.668625" style="fill:none;stroke:rgba(255,0,0,.24705882);stroke-width:.09525;stroke-miterlimit:41.994751"/><path d="M109.67085 6.753225L74.77125 5.8293" style="fill:none;stroke:rgba(255,0,0,.24705882);stroke-width:.09525;stroke-miterlimit:41.994751"/><path d="M152.27617 97.93605L141.1605 49.215675" style="fill:none;stroke:rgba(255,0,0,.24705882);stroke-width:.09525;stroke-miterlimit:41.994751"/><path d="M49.672875 107.03243L40.386 106.88955" style="fill:none;stroke:rgba(255,0,0,.24705882);stroke-width:.09525;stroke-miterlimit:41.994751"/><path d="M53.5686 42.129075L57.9882 42.1386" style="fill:none;stroke:rgba(255,0,0,.24705882);stroke-width:.09525;stroke-miterlimit:41.994751"/><path d="M156.64815 151.08555L155.36228 171.40238" style="fill:none;stroke:rgba(255,0,0,.24705882);stroke-width:.09525;stroke-miterlimit:41.994751"/><path d="M23.33625 120.2055H40.10025V102.6795H23.33625z" style="fill:rgba(255,0,0,.24705882);stroke:rgba(255,0,0,.24705882);stroke-width:.09525;stroke-miterlimit:41.994751"/><path d="M30.15615 109.63275A.47625 .47625 0 0029.20365 109.63275A.47625 .47625 0 0030.15615 109.63275z" fill="rgba(255,0,0,.24705882)"/><path d="M58.46445 42.1386A.47625 .47625 0 0057.51195 42.1386A.47625 .47625 0 0058.46445 42.1386z" fill="rgba(255,0,0,.24705882)"/><path d="M78.6765 26.012775A.47625 .47625 0 0077.724 26.012775A.47625 .47625 0 0078.6765 26.012775z" fill="rgba(255,0,0,.24705882)"/><path d="M133.731 223.0755H168.04005V188.62358H133.731z" style="fill:rgba(255,0,0,.24705882);stroke:rgba(255,0,0,.24705882);stroke-width:.09525;stroke-miterlimit:41.994751"/><path d="M157.13392 205.34947A.47625 .47625 0 00156.18142 205.34947A.47625 .47625 0 00157.13392 205.34947z" fill="rgba(255,0,0,.24705882)"/><path d="M98.4885 49.3395H112.5855V23.4315H98.4885z" style="fill:rgba(255,0,0,.24705882);stroke:rgba(255,0,0,.24705882);stroke-width:.09525;stroke-miterlimit:41.994751"/><path d="M107.11815 33.12795A.47625 .47625 0 00106.16565 33.12795A.47625 .47625 0 00107.11815 33.12795z" fill="rgba(255,0,0,.24705882)"/><path d="M146.1135 188.0235H167.4495V155.28608H146.1135z" style="fill:rgba(255,0,0,.24705882);stroke:rgba(255,0,0,.24705882);stroke-width:.09525;stroke-miterlimit:41.994751"/><path d="M155.83853 171.40238A.47625 .47625 0 00154.88603 171.40238A.47625 .47625 0 00155.83853 171.40238z" fill="rgba(255,0,0,.24705882)"/><path d="M98.517075 33.423225A.47625 .47625 0 0097.564575 33.423225A.47625 .47625 0 0098.517075 33.423225z" fill="rgba(255,0,0,.24705882)"/><path d="M40.86225 106.88955A.47625 .47625 0 0039.90975 106.88955A.47625 .47625 0 0040.86225 106.88955z" fill="rgba(255,0,0,.24705882)"/><path d="M78.31455 36.737925A.47625 .47625 0 0077.36205 36.737925A.47625 .47625 0 0078.31455 36.737925z" fill="rgba(255,0,0,.24705882)"/><path d="M12.36345 113.56658A.47625 .47625 0 0011.41095 113.56658A.47625 .47625 0 0012.36345 113.56658z" fill="rgba(255,0,0,.24705882)"/><path d="M8.9535 120.2055H21.9075V113.538H8.9535z" style="fill:rgba(255,0,0,.24705882);stroke:rgba(255,0,0,.24705882);stroke-width:.09525;stroke-miterlimit:41.994751"/><path d="M12.792075 117.44325A.47625 .47625 0 0011.839575 117.44325A.47625 .47625 0 0012.792075 117.44325z" fill="rgba(255,0,0,.24705882)"/><path d="M70.570725 29.422725A.47625 .47625 0 0069.618225 29.422725A.47625 .47625 0 0070.570725 29.422725z" fill="rgba(255,0,0,.24705882)"/><path d="M8.9535 112.776H22.6695V102.6795H8.9535z" style="fill:rgba(255,0,0,.24705882);stroke:rgba(255,0,0,.24705882);stroke-width:.09525;stroke-miterlimit:41.994751"/><path d="M12.963525 109.6899A.47625 .47625 0 0012.011025 109.6899A.47625 .47625 0 0012.963525 109.6899z" fill="rgba(255,0,0,.24705882)"/><path d="M168.12578 223.0755H190.3095V188.66168H168.12578z" style="fill:rgba(255,0,0,.24705882);stroke:rgba(255,0,0,.24705882);stroke-width:.09525;stroke-miterlimit:41.994751"/><path d="M176.87925 204.46365A.47625 .47625 0 00175.92675 204.46365A.47625 .47625 0 00176.87925 204.46365z" fill="rgba(255,0,0,.24705882)"/><path d="M70.6755 36.3855H97.7265V29.1465H70.6755z" style="fill:rgba(255,0,0,.24705882);stroke:rgba(255,0,0,.24705882);stroke-width:.09525;stroke-miterlimit:41.994751"/><path d="M78.514575 33.08985A.47625 .47625 0 0077.562075 33.08985A.47625 .47625 0 0078.514575 33.08985z" fill="rgba(255,0,0,.24705882)"/><path d="M168.2115 188.43308H182.48947V154.4955H168.2115z" style="fill:rgba(255,0,0,.24705882);stroke:rgba(255,0,0,.24705882);stroke-width:.09525;stroke-miterlimit:41.994751"/><path d="M177.45075 181.2798A.47625 .47625 0 00176.49825 181.2798A.47625 .47625 0 00177.45075 181.2798z" fill="rgba(255,0,0,.24705882)"/><path d="M70.6755 49.3395H97.7265V37.1475H70.6755z" style="fill:rgba(255,0,0,.24705882);stroke:rgba(255,0,0,.24705882);stroke-width:.09525;stroke-miterlimit:41.994751"/><path d="M78.076425 43.900725A.47625 .47625 0 0077.123925 43.900725A.47625 .47625 0 0078.076425 43.900725z" fill="rgba(255,0,0,.24705882)"/><path d="M182.6133 188.43308H190.3095V154.4955H182.6133z" style="fill:rgba(255,0,0,.24705882);stroke:rgba(255,0,0,.24705882);stroke-width:.09525;stroke-miterlimit:41.994751"/><path d="M187.3377 181.737A.47625 .47625 0 00186.3852 181.737A.47625 .47625 0 00187.3377 181.737z" fill="rgba(255,0,0,.24705882)"/><path d="M58.4835 31.7373H69.6468V23.4315H58.4835z" style="fill:rgba(255,0,0,.24705882);stroke:rgba(255,0,0,.24705882);stroke-width:.09525;stroke-miterlimit:41.994751"/><path d="M66.322575 29.0322A.47625 .47625 0 0065.370075 29.0322A.47625 .47625 0 0066.322575 29.0322z" fill="rgba(255,0,0,.24705882)"/><path d="M70.6755 28.956H78.00975V23.612475H70.6755z" style="fill:rgba(255,0,0,.24705882);stroke:rgba(255,0,0,.24705882);stroke-width:.09525;stroke-miterlimit:41.994751"/><path d="M75.87615 28.63215A.47625 .47625 0 0074.92365 28.63215A.47625 .47625 0 0075.87615 28.63215z" fill="rgba(255,0,0,.24705882)"/><path d="M58.4835 49.3395H69.9135V31.861125H58.4835z" style="fill:rgba(255,0,0,.24705882);stroke:rgba(255,0,0,.24705882);stroke-width:.09525;stroke-miterlimit:41.994751"/><path d="M66.989325 42.00525A.47625 .47625 0 0066.036825 42.00525A.47625 .47625 0 0066.989325 42.00525z" fill="rgba(255,0,0,.24705882)"/><path d="M157.30537 188.4426A.47625 .47625 0 00156.35288 188.4426A.47625 .47625 0 00157.30537 188.4426z" fill="rgba(255,0,0,.24705882)"/><path d="M65.846325 29.0322L70.094475 29.422725" style="fill:none;stroke:rgba(255,0,0,.24705882);stroke-width:.09525;stroke-miterlimit:41.994751"/><path d="M156.82913 188.4426L156.65767 205.34947" style="fill:none;stroke:rgba(255,0,0,.24705882);stroke-width:.09525;stroke-miterlimit:41.994751"/><path d="M176.403 204.46365L176.9745 181.2798" style="fill:none;stroke:rgba(255,0,0,.24705882);stroke-width:.09525;stroke-miterlimit:41.994751"/><path d="M57.9882 42.1386L66.513075 42.00525" style="fill:none;stroke:rgba(255,0,0,.24705882);stroke-width:.09525;stroke-miterlimit:41.994751"/><path d="M156.65767 205.34947L176.403 204.46365" style="fill:none;stroke:rgba(255,0,0,.24705882);stroke-width:.09525;stroke-miterlimit:41.994751"/><path d="M176.9745 181.2798L186.86145 181.737" style="fill:none;stroke:rgba(255,0,0,.24705882);stroke-width:.09525;stroke-miterlimit:41.994751"/><path d="M66.513075 42.00525L65.846325 29.0322" style="fill:none;stroke:rgba(255,0,0,.24705882);stroke-width:.09525;stroke-miterlimit:41.994751"/><path d="M98.040825 33.423225L106.6419 33.12795" style="fill:none;stroke:rgba(255,0,0,.24705882);stroke-width:.09525;stroke-miterlimit:41.994751"/><path d="M78.038325 33.08985L75.3999 28.63215" style="fill:none;stroke:rgba(255,0,0,.24705882);stroke-width:.09525;stroke-miterlimit:41.994751"/><path d="M75.3999 28.63215L70.094475 29.422725" style="fill:none;stroke:rgba(255,0,0,.24705882);stroke-width:.09525;stroke-miterlimit:41.994751"/><path d="M155.36228 171.40238L156.82913 188.4426" style="fill:none;stroke:rgba(255,0,0,.24705882);stroke-width:.09525;stroke-miterlimit:41.994751"/><path d="M78.038325 33.08985L98.040825 33.423225" style="fill:none;stroke:rgba(255,0,0,.24705882);stroke-width:.09525;stroke-miterlimit:41.994751"/><path d="M78.038325 33.08985L77.8383 36.737925" style="fill:none;stroke:rgba(255,0,0,.24705882);stroke-width:.09525;stroke-miterlimit:41.994751"/><path d="M77.8383 36.737925L77.600175 43.900725" style="fill:none;stroke:rgba(255,0,0,.24705882);stroke-width:.09525;stroke-miterlimit:41.994751"/><path d="M40.386 106.88955L29.6799 109.63275" style="fill:none;stroke:rgba(255,0,0,.24705882);stroke-width:.09525;stroke-miterlimit:41.994751"/><path d="M11.8872 113.56658L12.315825 117.44325" style="fill:none;stroke:rgba(255,0,0,.24705882);stroke-width:.09525;stroke-miterlimit:41.994751"/><path d="M75.3999 28.63215L78.20025 26.012775" style="fill:none;stroke:rgba(255,0,0,.24705882);stroke-width:.09525;stroke-miterlimit:41.994751"/><path d="M29.6799 109.63275L12.487275 109.6899" style="fill:none;stroke:rgba(255,0,0,.24705882);stroke-width:.09525;stroke-miterlimit:41.994751"/><path d="M12.487275 109.6899L11.8872 113.56658" style="fill:none;stroke:rgba(255,0,0,.24705882);stroke-width:.09525;stroke-miterlimit:41.994751"/><path d="M23.33625 113.89995L29.6799 109.63275" style="fill:none;stroke:rgba(250,0,4,.24705882);stroke-width:.09525;stroke-miterlimit:41.994751"/><path d="M111.05197 179.1843L117.44325 178.28895" style="fill:none;stroke:rgba(246,0,4,.24705882);stroke-width:.09525;stroke-miterlimit:41.994751"/><path d="M23.8125 113.89995A.47625 .47625 0 0022.86 113.89995A.47625 .47625 0 0023.8125 113.89995z" fill="rgba(246,0,8,.24705882)"/><path d="M111.52822 179.1843A.47625 .47625 0 00110.57573 179.1843A.47625 .47625 0 00111.52822 179.1843z" fill="rgba(242,0,12,.24705882)"/><path d="M186.86145 181.737L187.4139 189.357" style="fill:none;stroke:rgba(238,0,16,.24705882);stroke-width:.09525;stroke-miterlimit:41.994751"/><path d="M23.33625 113.89995V113.83328" style="fill:none;stroke:rgba(230,0,24,.24705882);stroke-width:.09525;stroke-miterlimit:41.994751"/><path d="M187.89015 189.357A.47625 .47625 0 00186.93765 189.357A.47625 .47625 0 00187.89015 189.357z" fill="rgba(222,0,28,.24705882)"/><path d="M107.58487 179.2986L111.05197 179.1843" style="fill:none;stroke:rgba(218,0,36,.24705882);stroke-width:.09525;stroke-miterlimit:41.994751"/><path d="M23.8125 113.83328A.47625 .47625 0 0022.86 113.83328A.47625 .47625 0 0023.8125 113.83328z" fill="rgba(210,0,44,.24705882)"/><path d="M108.06112 179.2986A.47625 .47625 0 00107.10863 179.2986A.47625 .47625 0 00108.06112 179.2986z" fill="rgba(194,0,56,.24705882)"/><path d="M78.20025 26.012775L86.92515 26.1747" style="fill:none;stroke:rgba(194,0,60,.24705882);stroke-width:.09525;stroke-miterlimit:41.994751"/><path d="M187.81395 196.11023L187.4139 189.357" style="fill:none;stroke:rgba(178,0,76,.24705882);stroke-width:.09525;stroke-miterlimit:41.994751"/><path d="M104.03205 179.451L107.58487 179.2986" style="fill:none;stroke:rgba(174,0,80,.24705882);stroke-width:.09525;stroke-miterlimit:41.994751"/><path d="M66.894075 192.30023H75.99045V182.67998H66.894075z" style="fill:rgba(149,0,105,.24705882);stroke:rgba(149,0,105,.24705882);stroke-width:.09525;stroke-miterlimit:41.994751"/><path d="M71.5137 186.03278A.47625 .47625 0 0070.5612 186.03278A.47625 .47625 0 0071.5137 186.03278z" fill="rgba(149,0,105,.24705882)"/><path d="M66.875025 182.67045H79.790925V175.08855H66.875025z" style="fill:rgba(149,0,105,.24705882);stroke:rgba(149,0,105,.24705882);stroke-width:.09525;stroke-miterlimit:41.994751"/><path d="M71.580375 179.76532A.47625 .47625 0 0070.627875 179.76532A.47625 .47625 0 0071.580375 179.76532z" fill="rgba(149,0,105,.24705882)"/><path d="M104.5083 179.451A.47625 .47625 0 00103.5558 179.451A.47625 .47625 0 00104.5083 179.451z" fill="rgba(149,0,105,.24705882)"/><path d="M101.93655 179.69865A.47625 .47625 0 00100.98405 179.69865A.47625 .47625 0 00101.93655 179.69865z" fill="rgba(149,0,105,.24705882)"/><path d="M79.80045 182.67045H92.001975V175.09807H79.80045z" style="fill:rgba(149,0,105,.24705882);stroke:rgba(149,0,105,.24705882);stroke-width:.09525;stroke-miterlimit:41.994751"/><path d="M83.2104 178.5747A.47625 .47625 0 0082.2579 178.5747A.47625 .47625 0 0083.2104 178.5747z" fill="rgba(149,0,105,.24705882)"/><path d="M76.800075 192.54788H91.239975V183.48007H76.800075z" style="fill:rgba(149,0,105,.24705882);stroke:rgba(149,0,105,.24705882);stroke-width:.09525;stroke-miterlimit:41.994751"/><path d="M83.5914 188.28068A.47625 .47625 0 0082.6389 188.28068A.47625 .47625 0 0083.5914 188.28068z" fill="rgba(149,0,105,.24705882)"/><path d="M92.0115 192.57645H101.13645V175.09807H92.0115z" style="fill:rgba(149,0,105,.24705882);stroke:rgba(149,0,105,.24705882);stroke-width:.09525;stroke-miterlimit:41.994751"/><path d="M96.9645 180.0225A.47625 .47625 0 0096.012 180.0225A.47625 .47625 0 0096.9645 180.0225z" fill="rgba(149,0,105,.24705882)"/><path d="M71.104125 179.76532L82.73415 178.5747" style="fill:none;stroke:rgba(149,0,105,.24705882);stroke-width:.09525;stroke-miterlimit:41.994751"/><path d="M71.03745 186.03278L71.104125 179.76532" style="fill:none;stroke:rgba(149,0,105,.24705882);stroke-width:.09525;stroke-miterlimit:41.994751"/><path d="M82.73415 178.5747L96.48825 180.0225" style="fill:none;stroke:rgba(149,0,105,.24705882);stroke-width:.09525;stroke-miterlimit:41.994751"/><path d="M82.73415 178.5747L83.11515 188.28068" style="fill:none;stroke:rgba(149,0,105,.24705882);stroke-width:.09525;stroke-miterlimit:41.994751"/><path d="M96.48825 180.0225L101.4603 179.69865" style="fill:none;stroke:rgba(149,0,105,.24705882);stroke-width:.09525;stroke-miterlimit:41.994751"/><path d="M101.4603 179.69865L104.03205 179.451" style="fill:none;stroke:rgba(149,0,105,.24705882);stroke-width:.09525;stroke-miterlimit:41.994751"/><path d="M23.33625 114.3V113.83328" style="fill:none;stroke:rgba(145,0,105,.24705882);stroke-width:.09525;stroke-miterlimit:41.994751"/><path d="M188.2902 196.11023A.47625 .47625 0 00187.3377 196.11023A.47625 .47625 0 00188.2902 196.11023z" fill="rgba(133,0,121,.24705882)"/><path d="M87.4014 26.1747A.47625 .47625 0 0086.4489 26.1747A.47625 .47625 0 0087.4014 26.1747z" fill="rgba(133,0,121,.24705882)"/><path d="M23.8125 114.3A.47625 .47625 0 0022.86 114.3A.47625 .47625 0 0023.8125 114.3z" fill="rgba(85,0,170,.24705882)"/><path d="M187.81395 196.11023L187.20435 205.52093" style="fill:none;stroke:rgba(72,0,178,.24705882);stroke-width:.09525;stroke-miterlimit:41.994751"/><path d="M86.92515 26.1747L96.935925 26.431875" style="fill:none;stroke:rgba(64,0,186,.24705882);stroke-width:.09525;stroke-miterlimit:41.994751"/><path d="M23.33625 114.3L22.6314 114.27143" style="fill:none;stroke:rgba(48,0,206,.24705882);stroke-width:.09525;stroke-miterlimit:41.994751"/><path d="M146.1135 223.0755H167.4495V188.595H146.1135z" style="fill:rgba(16,0,238,.24705882);stroke:rgba(16,0,238,.24705882);stroke-width:.09525;stroke-miterlimit:41.994751"/><path d="M160.12477 213.741A.47625 .47625 0 00159.17228 213.741A.47625 .47625 0 00160.12477 213.741z" fill="rgba(16,0,238,.24705882)"/><path d="M146.1135 188.56643H167.4495V155.2575H146.1135z" style="fill:rgba(16,0,238,.24705882);stroke:rgba(16,0,238,.24705882);stroke-width:.09525;stroke-miterlimit:41.994751"/><path d="M157.91497 175.3743A.47625 .47625 0 00156.96248 175.3743A.47625 .47625 0 00157.91497 175.3743z" fill="rgba(16,0,238,.24705882)"/><path d="M187.6806 205.52093A.47625 .47625 0 00186.7281 205.52093A.47625 .47625 0 00187.6806 205.52093z" fill="rgba(16,0,238,.24705882)"/><path d="M8.9535 119.5959H22.412325V103.15575H8.9535z" style="fill:rgba(16,0,238,.24705882);stroke:rgba(16,0,238,.24705882);stroke-width:.09525;stroke-miterlimit:41.994751"/><path d="M15.173325 111.33773A.47625 .47625 0 0014.220825 111.33773A.47625 .47625 0 0015.173325 111.33773z" fill="rgba(16,0,238,.24705882)"/><path d="M167.68762 205.4352H184.49925V188.595H167.68762z" style="fill:rgba(16,0,238,.24705882);stroke:rgba(16,0,238,.24705882);stroke-width:.09525;stroke-miterlimit:41.994751"/><path d="M176.12678 195.5292A.47625 .47625 0 00175.17428 195.5292A.47625 .47625 0 00176.12678 195.5292z" fill="rgba(16,0,238,.24705882)"/><path d="M23.10765 114.27142A.47625 .47625 0 0022.15515 114.27142A.47625 .47625 0 0023.10765 114.27142z" fill="rgba(16,0,238,.24705882)"/><path d="M167.50665 223.0755H190.3095V205.48282H167.50665z" style="fill:rgba(16,0,238,.24705882);stroke:rgba(16,0,238,.24705882);stroke-width:.09525;stroke-miterlimit:41.994751"/><path d="M186.89002 216.31275A.47625 .47625 0 00185.93752 216.31275A.47625 .47625 0 00186.89002 216.31275z" fill="rgba(16,0,238,.24705882)"/><path d="M133.731 223.0755H145.98968V188.595H133.731z" style="fill:rgba(16,0,238,.24705882);stroke:rgba(16,0,238,.24705882);stroke-width:.09525;stroke-miterlimit:41.994751"/><path d="M138.46492 210.20722A.47625 .47625 0 00137.51243 210.20722A.47625 .47625 0 00138.46492 210.20722z" fill="rgba(16,0,238,.24705882)"/><path d="M175.65053 195.5292L159.64853 213.741" style="fill:none;stroke:rgba(16,0,238,.24705882);stroke-width:.09525;stroke-miterlimit:41.994751"/><path d="M159.64853 213.741L157.43873 175.3743" style="fill:none;stroke:rgba(16,0,238,.24705882);stroke-width:.09525;stroke-miterlimit:41.994751"/><path d="M159.64853 213.741L137.98868 210.20722" style="fill:none;stroke:rgba(16,0,238,.24705882);stroke-width:.09525;stroke-miterlimit:41.994751"/><path d="M186.41377 216.31275L159.64853 213.741" style="fill:none;stroke:rgba(16,0,238,.24705882);stroke-width:.09525;stroke-miterlimit:41.994751"/><path d="M22.6314 114.27143L14.697075 111.33773" style="fill:none;stroke:rgba(16,0,238,.24705882);stroke-width:.09525;stroke-miterlimit:41.994751"/><path d="M187.20435 205.52093L186.41377 216.31275" style="fill:none;stroke:rgba(16,0,238,.24705882);stroke-width:.09525;stroke-miterlimit:41.994751"/><path d="M70.6755 49.3395H91.91625V29.251275H70.6755z" style="fill:rgba(0,0,255,.24705882);stroke:rgba(0,0,255,.24705882);stroke-width:.09525;stroke-miterlimit:41.994751"/><path d="M88.096725 36.985575A.47625 .47625 0 0087.144225 36.985575A.47625 .47625 0 0088.096725 36.985575z" fill="rgba(0,0,255,.24705882)"/><path d="M97.412175 26.431875A.47625 .47625 0 0096.459675 26.431875A.47625 .47625 0 0097.412175 26.431875z" fill="rgba(0,0,255,.24705882)"/><path d="M92.06865 49.3395H111.38535V29.337H92.06865z" style="fill:rgba(0,0,255,.24705882);stroke:rgba(0,0,255,.24705882);stroke-width:.09525;stroke-miterlimit:41.994751"/><path d="M98.1837 35.7759A.47625 .47625 0 0097.2312 35.7759A.47625 .47625 0 0098.1837 35.7759z" fill="rgba(0,0,255,.24705882)"/><path d="M97.0026 29.08935H111.14723V23.622H97.0026z" style="fill:rgba(0,0,255,.24705882);stroke:rgba(0,0,255,.24705882);stroke-width:.09525;stroke-miterlimit:41.994751"/><path d="M98.1837 26.355675A.47625 .47625 0 0097.2312 26.355675A.47625 .47625 0 0098.1837 26.355675z" fill="rgba(0,0,255,.24705882)"/><path d="M97.70745 26.355675V35.7759" style="fill:none;stroke:rgba(0,0,255,.24705882);stroke-width:.09525;stroke-miterlimit:41.994751"/><path d="M97.70745 26.355675L96.935925 26.431875" style="fill:none;stroke:rgba(0,0,255,.24705882);stroke-width:.09525;stroke-miterlimit:41.994751"/><path d="M97.70745 35.7759L87.620475 36.985575" style="fill:none;stroke:rgba(0,0,255,.24705882);stroke-width:.09525;stroke-miterlimit:41.994751"/></svg>