<svg version="1.1" width="153.3525mm" height="96.774mm" viewBox="0 0 153.3525 96.774" xmlns="http://www.w3.org/2000/svg" xmlns:xlink="http://www.w3.org/1999/xlink"><path d="M83.15325 72.771H85.05825" style="fill:none;stroke:#f00;stroke-width:.09525;stroke-miterlimit:41.994751"/><path d="M83.15325 72.771V70.866" style="fill:none;stroke:#0f0;stroke-width:.09525;stroke-miterlimit:41.994751"/><path d="M38.00475 26.8605H53.81625V.333375H38.00475z" style="fill:rgba(255,0,0,.24705882);stroke:rgba(255,0,0,.24705882);stroke-width:.09525;stroke-miterlimit:41.994751"/><path d="M49.253775 22.736175A.47625 .47625 0 0048.301275 22.736175A.47625 .47625 0 0049.253775 22.736175z" fill="rgba(255,0,0,.24705882)"/><path d="M98.0694 20.7645H136.49325V.561975H98.0694z" style="fill:rgba(255,0,0,.24705882);stroke:rgba(255,0,0,.24705882);stroke-width:.09525;stroke-miterlimit:41.994751"/><path d="M114.09997 13.782675A.47625 .47625 0 00113.14748 13.782675A.47625 .47625 0 00114.09997 13.782675z" fill="rgba(255,0,0,.24705882)"/><path d="M81.62925 96.48825H136.49325V74.1045H81.62925z" style="fill:rgba(255,0,0,.24705882);stroke:rgba(255,0,0,.24705882);stroke-width:.09525;stroke-miterlimit:41.994751"/><path d="M110.81385 86.134575A.47625 .47625 0 00109.86135 86.134575A.47625 .47625 0 00110.81385 86.134575z" fill="rgba(255,0,0,.24705882)"/><path d="M81.62925 20.7645H97.97415V.485775H81.62925z" style="fill:rgba(255,0,0,.24705882);stroke:rgba(255,0,0,.24705882);stroke-width:.09525;stroke-miterlimit:41.994751"/><path d="M88.25865 14.201775A.47625 .47625 0 0087.30615 14.201775A.47625 .47625 0 0088.25865 14.201775z" fill="rgba(255,0,0,.24705882)"/><path d="M136.49325 96.41205H153.03817V74.1045H136.49325z" style="fill:rgba(255,0,0,.24705882);stroke:rgba(255,0,0,.24705882);stroke-width:.09525;stroke-miterlimit:41.994751"/><path d="M142.92262 81.257775A.47625 .47625 0 00141.97012 81.257775A.47625 .47625 0 00142.92262 81.257775z" fill="rgba(255,0,0,.24705882)"/><path d="M.866775 46.08195A.47625 .47625 0 00-.085725 46.08195A.47625 .47625 0 00.866775 46.08195z" fill="rgba(255,0,0,.24705882)"/><path d="M53.81625 96.478725H81.62925V68.0085H53.81625z" style="fill:rgba(255,0,0,.24705882);stroke:rgba(255,0,0,.24705882);stroke-width:.09525;stroke-miterlimit:41.994751"/><path d="M67.76085 80.972025A.47625 .47625 0 0066.80835 80.972025A.47625 .47625 0 0067.76085 80.972025z" fill="rgba(255,0,0,.24705882)"/><path d="M136.49325 20.7645H152.92387V.47625H136.49325z" style="fill:rgba(255,0,0,.24705882);stroke:rgba(255,0,0,.24705882);stroke-width:.09525;stroke-miterlimit:41.994751"/><path d="M142.37017 15.621A.47625 .47625 0 00141.41768 15.621A.47625 .47625 0 00142.37017 15.621z" fill="rgba(255,0,0,.24705882)"/><path d="M136.49325 74.08545H153.0096V20.7645H136.49325z" style="fill:rgba(255,0,0,.24705882);stroke:rgba(255,0,0,.24705882);stroke-width:.09525;stroke-miterlimit:41.994751"/><path d="M142.9131 54.816375A.47625 .47625 0 00141.9606 54.816375A.47625 .47625 0 00142.9131 54.816375z" fill="rgba(255,0,0,.24705882)"/><path d="M38.147625 96.421575H53.81625V68.0085H38.147625z" style="fill:rgba(255,0,0,.24705882);stroke:rgba(255,0,0,.24705882);stroke-width:.09525;stroke-miterlimit:41.994751"/><path d="M47.41545 76.0095A.47625 .47625 0 0046.46295 76.0095A.47625 .47625 0 0047.41545 76.0095z" fill="rgba(255,0,0,.24705882)"/><path d="M53.81625 26.8605H81.62925V.381H53.81625z" style="fill:rgba(255,0,0,.24705882);stroke:rgba(255,0,0,.24705882);stroke-width:.09525;stroke-miterlimit:41.994751"/><path d="M75.22845 13.611225A.47625 .47625 0 0074.27595 13.611225A.47625 .47625 0 0075.22845 13.611225z" fill="rgba(255,0,0,.24705882)"/><path d="M38.0619 68.0085H53.81625V26.8605H38.0619z" style="fill:rgba(255,0,0,.24705882);stroke:rgba(255,0,0,.24705882);stroke-width:.09525;stroke-miterlimit:41.994751"/><path d="M47.215425 48.78705A.47625 .47625 0 0046.262925 48.78705A.47625 .47625 0 0047.215425 48.78705z" fill="rgba(255,0,0,.24705882)"/><path d="M87.7824 14.201775L74.7522 13.611225" style="fill:none;stroke:rgba(255,0,0,.24705882);stroke-width:.09525;stroke-miterlimit:41.994751"/><path d="M46.739175 48.78705L46.9392 76.0095" style="fill:none;stroke:rgba(255,0,0,.24705882);stroke-width:.09525;stroke-miterlimit:41.994751"/><path d="M48.777525 22.736175L46.739175 48.78705" style="fill:none;stroke:rgba(255,0,0,.24705882);stroke-width:.09525;stroke-miterlimit:41.994751"/><path d="M74.7522 13.611225L48.777525 22.736175" style="fill:none;stroke:rgba(255,0,0,.24705882);stroke-width:.09525;stroke-miterlimit:41.994751"/><path d="M141.89392 15.621L113.62372 13.782675" style="fill:none;stroke:rgba(255,0,0,.24705882);stroke-width:.09525;stroke-miterlimit:41.994751"/><path d="M67.2846 80.972025L46.9392 76.0095" style="fill:none;stroke:rgba(255,0,0,.24705882);stroke-width:.09525;stroke-miterlimit:41.994751"/><path d="M67.2846 80.972025L110.3376 86.134575" style="fill:none;stroke:rgba(255,0,0,.24705882);stroke-width:.09525;stroke-miterlimit:41.994751"/><path d="M110.3376 86.134575L142.44637 81.257775" style="fill:none;stroke:rgba(255,0,0,.24705882);stroke-width:.09525;stroke-miterlimit:41.994751"/><path d="M142.43685 54.816375L141.89392 15.621" style="fill:none;stroke:rgba(255,0,0,.24705882);stroke-width:.09525;stroke-miterlimit:41.994751"/><path d="M.390525 46.08195L46.739175 48.78705" style="fill:none;stroke:rgba(255,0,0,.24705882);stroke-width:.09525;stroke-miterlimit:41.994751"/><path d="M142.44637 81.257775L142.43685 54.816375" style="fill:none;stroke:rgba(255,0,0,.24705882);stroke-width:.09525;stroke-miterlimit:41.994751"/><path d="M113.62372 13.782675L87.7824 14.201775" style="fill:none;stroke:rgba(255,0,0,.24705882);stroke-width:.09525;stroke-miterlimit:41.994751"/><path d="M110.3376 86.134575L109.05173 75.752325" style="fill:none;stroke:rgba(246,0,4,.24705882);stroke-width:.09525;stroke-miterlimit:41.994751"/><path d="M88.25865 21.078825L87.7824 14.201775" style="fill:none;stroke:rgba(246,0,4,.24705882);stroke-width:.09525;stroke-miterlimit:41.994751"/><path d="M94.39275 40.005H102.20325V21.336H94.39275z" style="fill:rgba(238,0,12,.24705882);stroke:rgba(238,0,12,.24705882);stroke-width:.09525;stroke-miterlimit:41.994751"/><path d="M98.726625 31.3563A.47625 .47625 0 0097.774125 31.3563A.47625 .47625 0 0098.726625 31.3563z" fill="rgba(238,0,12,.24705882)"/><path d="M104.48925 77.13345H113.63325V74.1045H104.48925z" style="fill:rgba(238,0,12,.24705882);stroke:rgba(238,0,12,.24705882);stroke-width:.09525;stroke-miterlimit:41.994751"/><path d="M109.52797 75.752325A.47625 .47625 0 00108.57548 75.752325A.47625 .47625 0 00109.52797 75.752325z" fill="rgba(238,0,12,.24705882)"/><path d="M94.7547 30.9753A.47625 .47625 0 0093.8022 30.9753A.47625 .47625 0 0094.7547 30.9753z" fill="rgba(238,0,12,.24705882)"/><path d="M94.27845 30.9753L98.250375 31.3563" style="fill:none;stroke:rgba(238,0,12,.24705882);stroke-width:.09525;stroke-miterlimit:41.994751"/><path d="M88.4682 30.470475L94.27845 30.9753" style="fill:none;stroke:rgba(238,0,12,.24705882);stroke-width:.09525;stroke-miterlimit:41.994751"/><path d="M109.05173 75.752325L108.8136 73.828275" style="fill:none;stroke:rgba(238,0,12,.24705882);stroke-width:.09525;stroke-miterlimit:41.994751"/><path d="M54.38775 49.911H76.29525V27.432H54.38775z" style="fill:rgba(238,0,12,.24705882);stroke:rgba(238,0,12,.24705882);stroke-width:.09525;stroke-miterlimit:41.994751"/><path d="M71.027925 40.06215A.47625 .47625 0 0070.075425 40.06215A.47625 .47625 0 0071.027925 40.06215z" fill="rgba(238,0,12,.24705882)"/><path d="M88.7349 21.078825A.47625 .47625 0 0087.7824 21.078825A.47625 .47625 0 0088.7349 21.078825z" fill="rgba(238,0,12,.24705882)"/><path d="M82.39125 40.55745H93.82125V33.7185H82.39125z" style="fill:rgba(238,0,12,.24705882);stroke:rgba(238,0,12,.24705882);stroke-width:.09525;stroke-miterlimit:41.994751"/><path d="M88.782525 37.09035A.47625 .47625 0 0087.830025 37.09035A.47625 .47625 0 0088.782525 37.09035z" fill="rgba(238,0,12,.24705882)"/><path d="M102.77475 40.005H135.92175V21.336H102.77475z" style="fill:rgba(238,0,12,.24705882);stroke:rgba(238,0,12,.24705882);stroke-width:.09525;stroke-miterlimit:41.994751"/><path d="M120.79605 32.9946A.47625 .47625 0 00119.84355 32.9946A.47625 .47625 0 00120.79605 32.9946z" fill="rgba(238,0,12,.24705882)"/><path d="M109.28985 73.828275A.47625 .47625 0 00108.33735 73.828275A.47625 .47625 0 00109.28985 73.828275z" fill="rgba(238,0,12,.24705882)"/><path d="M54.38775 67.437H81.62925V50.4825H54.38775z" style="fill:rgba(238,0,12,.24705882);stroke:rgba(238,0,12,.24705882);stroke-width:.09525;stroke-miterlimit:41.994751"/><path d="M75.142725 58.3311A.47625 .47625 0 0074.190225 58.3311A.47625 .47625 0 0075.142725 58.3311z" fill="rgba(238,0,12,.24705882)"/><path d="M82.343625 58.150125A.47625 .47625 0 0081.391125 58.150125A.47625 .47625 0 0082.343625 58.150125z" fill="rgba(238,0,12,.24705882)"/><path d="M76.29525 46.6725H82.39125V27.432H76.29525z" style="fill:rgba(238,0,12,.24705882);stroke:rgba(238,0,12,.24705882);stroke-width:.09525;stroke-miterlimit:41.994751"/><path d="M79.867125 39.747825A.47625 .47625 0 0078.914625 39.747825A.47625 .47625 0 0079.867125 39.747825z" fill="rgba(238,0,12,.24705882)"/><path d="M117.44325 73.533H135.92175V49.911H117.44325z" style="fill:rgba(238,0,12,.24705882);stroke:rgba(238,0,12,.24705882);stroke-width:.09525;stroke-miterlimit:41.994751"/><path d="M120.98655 56.892825A.47625 .47625 0 00120.03405 56.892825A.47625 .47625 0 00120.98655 56.892825z" fill="rgba(238,0,12,.24705882)"/><path d="M82.39125 49.911H93.82125V40.55745H82.39125z" style="fill:rgba(238,0,12,.24705882);stroke:rgba(238,0,12,.24705882);stroke-width:.09525;stroke-miterlimit:41.994751"/><path d="M89.677875 45.558075A.47625 .47625 0 0088.725375 45.558075A.47625 .47625 0 0089.677875 45.558075z" fill="rgba(238,0,12,.24705882)"/><path d="M107.7468 49.911H135.92175V40.5765H107.7468z" style="fill:rgba(238,0,12,.24705882);stroke:rgba(238,0,12,.24705882);stroke-width:.09525;stroke-miterlimit:41.994751"/><path d="M121.22467 46.1391A.47625 .47625 0 00120.27218 46.1391A.47625 .47625 0 00121.22467 46.1391z" fill="rgba(238,0,12,.24705882)"/><path d="M93.82125 49.911H99.91725V40.5765H93.82125z" style="fill:rgba(238,0,12,.24705882);stroke:rgba(238,0,12,.24705882);stroke-width:.09525;stroke-miterlimit:41.994751"/><path d="M97.850325 45.196125A.47625 .47625 0 0096.897825 45.196125A.47625 .47625 0 0097.850325 45.196125z" fill="rgba(238,0,12,.24705882)"/><path d="M121.30087 40.29075A.47625 .47625 0 00120.34838 40.29075A.47625 .47625 0 00121.30087 40.29075z" fill="rgba(238,0,12,.24705882)"/><path d="M82.20075 73.533H99.91725V49.911H82.20075z" style="fill:rgba(238,0,12,.24705882);stroke:rgba(238,0,12,.24705882);stroke-width:.09525;stroke-miterlimit:41.994751"/><path d="M89.373075 58.150125A.47625 .47625 0 0088.420575 58.150125A.47625 .47625 0 0089.373075 58.150125z" fill="rgba(238,0,12,.24705882)"/><path d="M99.91725 73.533H117.44325V49.911H99.91725z" style="fill:rgba(238,0,12,.24705882);stroke:rgba(238,0,12,.24705882);stroke-width:.09525;stroke-miterlimit:41.994751"/><path d="M107.29912 57.55005A.47625 .47625 0 00106.34663 57.55005A.47625 .47625 0 00107.29912 57.55005z" fill="rgba(238,0,12,.24705882)"/><path d="M82.39125 33.7185H93.82125V21.336H82.39125z" style="fill:rgba(238,0,12,.24705882);stroke:rgba(238,0,12,.24705882);stroke-width:.09525;stroke-miterlimit:41.994751"/><path d="M88.94445 30.470475A.47625 .47625 0 0087.99195 30.470475A.47625 .47625 0 0088.94445 30.470475z" fill="rgba(238,0,12,.24705882)"/><path d="M120.5103 56.892825L120.74842 46.1391" style="fill:none;stroke:rgba(238,0,12,.24705882);stroke-width:.09525;stroke-miterlimit:41.994751"/><path d="M88.306275 37.09035L79.390875 39.747825" style="fill:none;stroke:rgba(238,0,12,.24705882);stroke-width:.09525;stroke-miterlimit:41.994751"/><path d="M106.82287 57.55005L120.5103 56.892825" style="fill:none;stroke:rgba(238,0,12,.24705882);stroke-width:.09525;stroke-miterlimit:41.994751"/><path d="M88.896825 58.150125H81.867375" style="fill:none;stroke:rgba(238,0,12,.24705882);stroke-width:.09525;stroke-miterlimit:41.994751"/><path d="M88.896825 58.150125L89.201625 45.558075" style="fill:none;stroke:rgba(238,0,12,.24705882);stroke-width:.09525;stroke-miterlimit:41.994751"/><path d="M89.201625 45.558075L97.374075 45.196125" style="fill:none;stroke:rgba(238,0,12,.24705882);stroke-width:.09525;stroke-miterlimit:41.994751"/><path d="M89.201625 45.558075L88.306275 37.09035" style="fill:none;stroke:rgba(238,0,12,.24705882);stroke-width:.09525;stroke-miterlimit:41.994751"/><path d="M89.201625 45.558075L79.390875 39.747825" style="fill:none;stroke:rgba(238,0,12,.24705882);stroke-width:.09525;stroke-miterlimit:41.994751"/><path d="M88.4682 30.470475L88.25865 21.078825" style="fill:none;stroke:rgba(238,0,12,.24705882);stroke-width:.09525;stroke-miterlimit:41.994751"/><path d="M79.390875 39.747825L70.551675 40.06215" style="fill:none;stroke:rgba(238,0,12,.24705882);stroke-width:.09525;stroke-miterlimit:41.994751"/><path d="M120.3198 32.9946L120.82462 40.29075" style="fill:none;stroke:rgba(238,0,12,.24705882);stroke-width:.09525;stroke-miterlimit:41.994751"/><path d="M81.867375 58.150125L74.666475 58.3311" style="fill:none;stroke:rgba(238,0,12,.24705882);stroke-width:.09525;stroke-miterlimit:41.994751"/><path d="M88.4682 30.470475L79.390875 39.747825" style="fill:none;stroke:rgba(238,0,12,.24705882);stroke-width:.09525;stroke-miterlimit:41.994751"/><path d="M106.82287 57.55005L88.896825 58.150125" style="fill:none;stroke:rgba(238,0,12,.24705882);stroke-width:.09525;stroke-miterlimit:41.994751"/><path d="M108.8136 73.828275L106.82287 57.55005" style="fill:none;stroke:rgba(238,0,12,.24705882);stroke-width:.09525;stroke-miterlimit:41.994751"/><path d="M88.306275 37.09035L88.4682 30.470475" style="fill:none;stroke:rgba(238,0,12,.24705882);stroke-width:.09525;stroke-miterlimit:41.994751"/><path d="M120.82462 40.29075L120.74842 46.1391" style="fill:none;stroke:rgba(238,0,12,.24705882);stroke-width:.09525;stroke-miterlimit:41.994751"/><path d="M97.374075 45.196125H100.46017" style="fill:none;stroke:rgba(234,0,16,.24705882);stroke-width:.09525;stroke-miterlimit:41.994751"/><path d="M99.91725 49.911H102.20325V40.5765H99.91725z" style="fill:rgba(230,0,20,.24705882);stroke:rgba(230,0,20,.24705882);stroke-width:.09525;stroke-miterlimit:41.994751"/><path d="M100.93642 45.196125A.47625 .47625 0 0099.983925 45.196125A.47625 .47625 0 00100.93642 45.196125z" fill="rgba(230,0,20,.24705882)"/><path d="M100.46017 45.196125L104.99408 45.05325" style="fill:none;stroke:rgba(214,0,40,.24705882);stroke-width:.09525;stroke-miterlimit:41.994751"/><path d="M102.20325 49.911H106.77525V40.5765H102.20325z" style="fill:rgba(198,0,56,.24705882);stroke:rgba(198,0,56,.24705882);stroke-width:.09525;stroke-miterlimit:41.994751"/><path d="M105.47033 45.05325A.47625 .47625 0 00104.51783 45.05325A.47625 .47625 0 00105.47033 45.05325z" fill="rgba(198,0,56,.24705882)"/><path d="M109.36605 45.024675L104.99408 45.05325" style="fill:none;stroke:rgba(178,0,76,.24705882);stroke-width:.09525;stroke-miterlimit:41.994751"/><path d="M106.77525 49.911H111.34725V40.5765H106.77525z" style="fill:rgba(161,0,93,.24705882);stroke:rgba(161,0,93,.24705882);stroke-width:.09525;stroke-miterlimit:41.994751"/><path d="M109.8423 45.024675A.47625 .47625 0 00108.8898 45.024675A.47625 .47625 0 00109.8423 45.024675z" fill="rgba(161,0,93,.24705882)"/><path d="M.390525 46.08195L52.797075 47.767875" style="fill:none;stroke:rgba(149,0,105,.24705882);stroke-width:.09525;stroke-miterlimit:41.994751"/><path d="M112.98555 44.891325L109.36605 45.024675" style="fill:none;stroke:rgba(145,0,105,.24705882);stroke-width:.09525;stroke-miterlimit:41.994751"/><path d="M111.34725 49.911H114.77625V40.5765H111.34725z" style="fill:rgba(133,0,121,.24705882);stroke:rgba(133,0,121,.24705882);stroke-width:.09525;stroke-miterlimit:41.994751"/><path d="M113.4618 44.891325A.47625 .47625 0 00112.5093 44.891325A.47625 .47625 0 00113.4618 44.891325z" fill="rgba(133,0,121,.24705882)"/><path d="M74.7522 13.611225L62.836425 38.7477" style="fill:none;stroke:rgba(125,0,125,.24705882);stroke-width:.09525;stroke-miterlimit:41.994751"/><path d="M112.98555 44.891325L116.34788 45.4152" style="fill:none;stroke:rgba(121,0,133,.24705882);stroke-width:.09525;stroke-miterlimit:41.994751"/><path d="M114.77625 49.911H117.06225V40.5765H114.77625z" style="fill:rgba(109,0,145,.24705882);stroke:rgba(109,0,145,.24705882);stroke-width:.09525;stroke-miterlimit:41.994751"/><path d="M116.82412 45.4152A.47625 .47625 0 00115.87163 45.4152A.47625 .47625 0 00116.82412 45.4152z" fill="rgba(109,0,145,.24705882)"/><path d="M116.34788 45.4152L121.47233 45.596175" style="fill:none;stroke:rgba(105,0,149,.24705882);stroke-width:.09525;stroke-miterlimit:41.994751"/><path d="M76.29525 46.6725H82.39125V34.070925H76.29525z" style="fill:rgba(101,0,153,.24705882);stroke:rgba(101,0,153,.24705882);stroke-width:.09525;stroke-miterlimit:41.994751"/><path d="M79.600425 41.7957A.47625 .47625 0 0078.647925 41.7957A.47625 .47625 0 0079.600425 41.7957z" fill="rgba(101,0,153,.24705882)"/><path d="M82.39125 46.6725H90.77325V34.08045H82.39125z" style="fill:rgba(101,0,153,.24705882);stroke:rgba(101,0,153,.24705882);stroke-width:.09525;stroke-miterlimit:41.994751"/><path d="M86.877525 42.586275A.47625 .47625 0 0085.925025 42.586275A.47625 .47625 0 0086.877525 42.586275z" fill="rgba(101,0,153,.24705882)"/><path d="M99.91725 40.5765H117.06225V21.336H99.91725z" style="fill:rgba(101,0,153,.24705882);stroke:rgba(101,0,153,.24705882);stroke-width:.09525;stroke-miterlimit:41.994751"/><path d="M108.26115 34.737675A.47625 .47625 0 00107.30865 34.737675A.47625 .47625 0 00108.26115 34.737675z" fill="rgba(101,0,153,.24705882)"/><path d="M90.77325 73.533H99.91725V49.911H90.77325z" style="fill:rgba(101,0,153,.24705882);stroke:rgba(101,0,153,.24705882);stroke-width:.09525;stroke-miterlimit:41.994751"/><path d="M97.069275 53.368575A.47625 .47625 0 0096.116775 53.368575A.47625 .47625 0 0097.069275 53.368575z" fill="rgba(101,0,153,.24705882)"/><path d="M99.91725 73.533H117.06225V49.911H99.91725z" style="fill:rgba(101,0,153,.24705882);stroke:rgba(101,0,153,.24705882);stroke-width:.09525;stroke-miterlimit:41.994751"/><path d="M110.67097 52.67325A.47625 .47625 0 00109.71848 52.67325A.47625 .47625 0 00110.67097 52.67325z" fill="rgba(101,0,153,.24705882)"/><path d="M54.38775 60.8076H76.29525V48.015525H54.38775z" style="fill:rgba(101,0,153,.24705882);stroke:rgba(101,0,153,.24705882);stroke-width:.09525;stroke-miterlimit:41.994751"/><path d="M70.875525 52.987575A.47625 .47625 0 0069.923025 52.987575A.47625 .47625 0 0070.875525 52.987575z" fill="rgba(101,0,153,.24705882)"/><path d="M54.38775 47.977425H76.29525V34.11855H54.38775z" style="fill:rgba(101,0,153,.24705882);stroke:rgba(101,0,153,.24705882);stroke-width:.09525;stroke-miterlimit:41.994751"/><path d="M71.580375 42.50055A.47625 .47625 0 0070.627875 42.50055A.47625 .47625 0 0071.580375 42.50055z" fill="rgba(101,0,153,.24705882)"/><path d="M117.06225 73.533H135.92175V49.911H117.06225z" style="fill:rgba(101,0,153,.24705882);stroke:rgba(101,0,153,.24705882);stroke-width:.09525;stroke-miterlimit:41.994751"/><path d="M122.3772 53.978175A.47625 .47625 0 00121.4247 53.978175A.47625 .47625 0 00122.3772 53.978175z" fill="rgba(101,0,153,.24705882)"/><path d="M117.06225 49.911H135.92175V40.5765H117.06225z" style="fill:rgba(101,0,153,.24705882);stroke:rgba(101,0,153,.24705882);stroke-width:.09525;stroke-miterlimit:41.994751"/><path d="M121.94858 45.596175A.47625 .47625 0 00120.99608 45.596175A.47625 .47625 0 00121.94858 45.596175z" fill="rgba(101,0,153,.24705882)"/><path d="M90.77325 40.5765H99.91725V21.336H90.77325z" style="fill:rgba(101,0,153,.24705882);stroke:rgba(101,0,153,.24705882);stroke-width:.09525;stroke-miterlimit:41.994751"/><path d="M97.28835 34.5186A.47625 .47625 0 0096.33585 34.5186A.47625 .47625 0 0097.28835 34.5186z" fill="rgba(101,0,153,.24705882)"/><path d="M76.29525 60.8076H82.39125V49.911H76.29525z" style="fill:rgba(101,0,153,.24705882);stroke:rgba(101,0,153,.24705882);stroke-width:.09525;stroke-miterlimit:41.994751"/><path d="M79.8195 53.721A.47625 .47625 0 0078.867 53.721A.47625 .47625 0 0079.8195 53.721z" fill="rgba(101,0,153,.24705882)"/><path d="M82.39125 49.911H90.77325V46.6725H82.39125z" style="fill:rgba(101,0,153,.24705882);stroke:rgba(101,0,153,.24705882);stroke-width:.09525;stroke-miterlimit:41.994751"/><path d="M86.820375 48.1584A.47625 .47625 0 0085.867875 48.1584A.47625 .47625 0 0086.820375 48.1584z" fill="rgba(101,0,153,.24705882)"/><path d="M82.39125 60.8076H90.77325V49.911H82.39125z" style="fill:rgba(101,0,153,.24705882);stroke:rgba(101,0,153,.24705882);stroke-width:.09525;stroke-miterlimit:41.994751"/><path d="M86.744175 53.5686A.47625 .47625 0 0085.791675 53.5686A.47625 .47625 0 0086.744175 53.5686z" fill="rgba(101,0,153,.24705882)"/><path d="M90.77325 49.911H99.91725V40.5765H90.77325z" style="fill:rgba(101,0,153,.24705882);stroke:rgba(101,0,153,.24705882);stroke-width:.09525;stroke-miterlimit:41.994751"/><path d="M97.335975 44.0436A.47625 .47625 0 0096.383475 44.0436A.47625 .47625 0 0097.335975 44.0436z" fill="rgba(101,0,153,.24705882)"/><path d="M117.06225 40.5765H135.92175V21.336H117.06225z" style="fill:rgba(101,0,153,.24705882);stroke:rgba(101,0,153,.24705882);stroke-width:.09525;stroke-miterlimit:41.994751"/><path d="M121.82475 34.604325A.47625 .47625 0 00120.87225 34.604325A.47625 .47625 0 00121.82475 34.604325z" fill="rgba(101,0,153,.24705882)"/><path d="M121.3485 34.604325L121.47233 45.596175" style="fill:none;stroke:rgba(101,0,153,.24705882);stroke-width:.09525;stroke-miterlimit:41.994751"/><path d="M96.859725 44.0436L96.8121 34.5186" style="fill:none;stroke:rgba(101,0,153,.24705882);stroke-width:.09525;stroke-miterlimit:41.994751"/><path d="M86.401275 42.586275L86.344125 48.1584" style="fill:none;stroke:rgba(101,0,153,.24705882);stroke-width:.09525;stroke-miterlimit:41.994751"/><path d="M86.344125 48.1584L96.593025 53.368575" style="fill:none;stroke:rgba(101,0,153,.24705882);stroke-width:.09525;stroke-miterlimit:41.994751"/><path d="M107.7849 34.737675L121.3485 34.604325" style="fill:none;stroke:rgba(101,0,153,.24705882);stroke-width:.09525;stroke-miterlimit:41.994751"/><path d="M96.593025 53.368575L86.267925 53.5686" style="fill:none;stroke:rgba(101,0,153,.24705882);stroke-width:.09525;stroke-miterlimit:41.994751"/><path d="M86.401275 42.586275L96.859725 44.0436" style="fill:none;stroke:rgba(101,0,153,.24705882);stroke-width:.09525;stroke-miterlimit:41.994751"/><path d="M96.8121 34.5186L86.401275 42.586275" style="fill:none;stroke:rgba(101,0,153,.24705882);stroke-width:.09525;stroke-miterlimit:41.994751"/><path d="M86.344125 48.1584L86.267925 53.5686" style="fill:none;stroke:rgba(101,0,153,.24705882);stroke-width:.09525;stroke-miterlimit:41.994751"/><path d="M70.399275 52.987575L71.104125 42.50055" style="fill:none;stroke:rgba(101,0,153,.24705882);stroke-width:.09525;stroke-miterlimit:41.994751"/><path d="M86.344125 48.1584L96.859725 44.0436" style="fill:none;stroke:rgba(101,0,153,.24705882);stroke-width:.09525;stroke-miterlimit:41.994751"/><path d="M86.267925 53.5686L79.34325 53.721" style="fill:none;stroke:rgba(101,0,153,.24705882);stroke-width:.09525;stroke-miterlimit:41.994751"/><path d="M96.8121 34.5186L107.7849 34.737675" style="fill:none;stroke:rgba(101,0,153,.24705882);stroke-width:.09525;stroke-miterlimit:41.994751"/><path d="M79.34325 53.721L70.399275 52.987575" style="fill:none;stroke:rgba(101,0,153,.24705882);stroke-width:.09525;stroke-miterlimit:41.994751"/><path d="M79.124175 41.7957L86.401275 42.586275" style="fill:none;stroke:rgba(101,0,153,.24705882);stroke-width:.09525;stroke-miterlimit:41.994751"/><path d="M121.90095 53.978175L121.47233 45.596175" style="fill:none;stroke:rgba(101,0,153,.24705882);stroke-width:.09525;stroke-miterlimit:41.994751"/><path d="M96.593025 53.368575L96.859725 44.0436" style="fill:none;stroke:rgba(101,0,153,.24705882);stroke-width:.09525;stroke-miterlimit:41.994751"/><path d="M71.104125 42.50055L79.124175 41.7957" style="fill:none;stroke:rgba(101,0,153,.24705882);stroke-width:.09525;stroke-miterlimit:41.994751"/><path d="M110.19473 52.67325L96.593025 53.368575" style="fill:none;stroke:rgba(101,0,153,.24705882);stroke-width:.09525;stroke-miterlimit:41.994751"/><path d="M121.90095 53.978175L110.19473 52.67325" style="fill:none;stroke:rgba(101,0,153,.24705882);stroke-width:.09525;stroke-miterlimit:41.994751"/><path d="M52.797075 47.767875L70.399275 52.987575" style="fill:none;stroke:rgba(68,0,186,.24705882);stroke-width:.09525;stroke-miterlimit:41.994751"/><path d="M71.104125 42.50055L52.797075 47.767875" style="fill:none;stroke:rgba(68,0,186,.24705882);stroke-width:.09525;stroke-miterlimit:41.994751"/><path d="M53.273325 47.767875A.47625 .47625 0 0052.320825 47.767875A.47625 .47625 0 0053.273325 47.767875z" fill="rgba(40,0,214,.24705882)"/><path d="M53.81625 68.0085H136.49325V26.965275H53.81625z" style="fill:rgba(0,0,255,.24705882);stroke:rgba(0,0,255,.24705882);stroke-width:.09525;stroke-miterlimit:41.994751"/><path d="M63.312675 38.7477A.47625 .47625 0 0062.360175 38.7477A.47625 .47625 0 0063.312675 38.7477z" fill="rgba(0,0,255,.24705882)"/></svg>