<svg version="1.1" width="280.32075mm" height="307.467mm" viewBox="0 0 280.32075 307.467" xmlns="http://www.w3.org/2000/svg" xmlns:xlink="http://www.w3.org/1999/xlink"><path d="M138.303 69.43725H140.208" style="fill:none;stroke:#f00;stroke-width:.09525;stroke-miterlimit:41.994751"/><path d="M138.303 69.43725V67.53225" style="fill:none;stroke:#0f0;stroke-width:.09525;stroke-miterlimit:41.994751"/><path d="M68.961 20.28825H80.772V7.33425H68.961z" style="fill:rgba(255,0,0,.24705882);stroke:rgba(255,0,0,.24705882);stroke-width:.09525;stroke-miterlimit:41.994751"/><path d="M75.34275 13.81125A.47625 .47625 0 0074.39025 13.81125A.47625 .47625 0 0075.34275 13.81125z" fill="rgba(255,0,0,.24705882)"/><path d="M49.911 7.33425H68.961V1.61925H49.911z" style="fill:rgba(255,0,0,.24705882);stroke:rgba(255,0,0,.24705882);stroke-width:.09525;stroke-miterlimit:41.994751"/><path d="M59.91225 4.47675A.47625 .47625 0 0058.95975 4.47675A.47625 .47625 0 0059.91225 4.47675z" fill="rgba(255,0,0,.24705882)"/><path d="M49.911 25.62225H68.961V20.28825H49.911z" style="fill:rgba(255,0,0,.24705882);stroke:rgba(255,0,0,.24705882);stroke-width:.09525;stroke-miterlimit:41.994751"/><path d="M59.91225 22.95525A.47625 .47625 0 0058.95975 22.95525A.47625 .47625 0 0059.91225 22.95525z" fill="rgba(255,0,0,.24705882)"/><path d="M80.772 20.28825H107.823V7.33425H80.772z" style="fill:rgba(255,0,0,.24705882);stroke:rgba(255,0,0,.24705882);stroke-width:.09525;stroke-miterlimit:41.994751"/><path d="M94.77375 13.81125A.47625 .47625 0 0093.82125 13.81125A.47625 .47625 0 0094.77375 13.81125z" fill="rgba(255,0,0,.24705882)"/><path d="M49.911 20.28825H68.961V7.33425H49.911z" style="fill:rgba(255,0,0,.24705882);stroke:rgba(255,0,0,.24705882);stroke-width:.09525;stroke-miterlimit:41.994751"/><path d="M59.91225 13.81125A.47625 .47625 0 0058.95975 13.81125A.47625 .47625 0 0059.91225 13.81125z" fill="rgba(255,0,0,.24705882)"/><path d="M59.436 13.81125V4.47675" style="fill:none;stroke:rgba(255,0,0,.24705882);stroke-width:.09525;stroke-miterlimit:41.994751"/><path d="M59.436 13.81125V22.95525" style="fill:none;stroke:rgba(255,0,0,.24705882);stroke-width:.09525;stroke-miterlimit:41.994751"/><path d="M94.2975 13.81125H74.8665" style="fill:none;stroke:rgba(255,0,0,.24705882);stroke-width:.09525;stroke-miterlimit:41.994751"/><path d="M74.8665 13.81125H59.436" style="fill:none;stroke:rgba(255,0,0,.24705882);stroke-width:.09525;stroke-miterlimit:41.994751"/><path d="M110.109 13.81125H94.2975" style="fill:none;stroke:rgba(246,0,8,.24705882);stroke-width:.09525;stroke-miterlimit:41.994751"/><path d="M94.2975 13.81125V23.8125" style="fill:none;stroke:rgba(238,0,16,.24705882);stroke-width:.09525;stroke-miterlimit:41.994751"/><path d="M94.2975 13.81125V3.81" style="fill:none;stroke:rgba(238,0,16,.24705882);stroke-width:.09525;stroke-miterlimit:41.994751"/><path d="M107.823 20.28825H112.395V7.33425H107.823z" style="fill:rgba(234,0,20,.24705882);stroke:rgba(234,0,20,.24705882);stroke-width:.09525;stroke-miterlimit:41.994751"/><path d="M110.58525 13.81125A.47625 .47625 0 00109.63275 13.81125A.47625 .47625 0 00110.58525 13.81125z" fill="rgba(234,0,20,.24705882)"/><path d="M127.0635 13.81125H110.109" style="fill:none;stroke:rgba(226,0,24,.24705882);stroke-width:.09525;stroke-miterlimit:41.994751"/><path d="M112.395 20.28825H141.732V7.33425H112.395z" style="fill:rgba(218,0,32,.24705882);stroke:rgba(218,0,32,.24705882);stroke-width:.09525;stroke-miterlimit:41.994751"/><path d="M127.53975 13.81125A.47625 .47625 0 00126.58725 13.81125A.47625 .47625 0 00127.53975 13.81125z" fill="rgba(218,0,32,.24705882)"/><path d="M135.636 32.48025H141.732V21.81225H135.636z" style="fill:rgba(218,0,32,.24705882);stroke:rgba(218,0,32,.24705882);stroke-width:.09525;stroke-miterlimit:41.994751"/><path d="M139.16025 27.0891A.47625 .47625 0 00138.20775 27.0891A.47625 .47625 0 00139.16025 27.0891z" fill="rgba(218,0,32,.24705882)"/><path d="M141.732 7.33425H149.352V3.90525H141.732z" style="fill:rgba(218,0,32,.24705882);stroke:rgba(218,0,32,.24705882);stroke-width:.09525;stroke-miterlimit:41.994751"/><path d="M146.01825 5.61975A.47625 .47625 0 00145.06575 5.61975A.47625 .47625 0 00146.01825 5.61975z" fill="rgba(218,0,32,.24705882)"/><path d="M141.732 32.48025H149.352V21.81225H141.732z" style="fill:rgba(218,0,32,.24705882);stroke:rgba(218,0,32,.24705882);stroke-width:.09525;stroke-miterlimit:41.994751"/><path d="M146.01825 27.0891A.47625 .47625 0 00145.06575 27.0891A.47625 .47625 0 00146.01825 27.0891z" fill="rgba(218,0,32,.24705882)"/><path d="M141.732 21.81225H149.352V20.28825H141.732z" style="fill:rgba(218,0,32,.24705882);stroke:rgba(218,0,32,.24705882);stroke-width:.09525;stroke-miterlimit:41.994751"/><path d="M146.01825 21.05025A.47625 .47625 0 00145.06575 21.05025A.47625 .47625 0 00146.01825 21.05025z" fill="rgba(218,0,32,.24705882)"/><path d="M141.732 20.28825H149.352V7.33425H141.732z" style="fill:rgba(218,0,32,.24705882);stroke:rgba(218,0,32,.24705882);stroke-width:.09525;stroke-miterlimit:41.994751"/><path d="M146.01825 13.81125A.47625 .47625 0 00145.06575 13.81125A.47625 .47625 0 00146.01825 13.81125z" fill="rgba(218,0,32,.24705882)"/><path d="M145.542 21.05025V13.81125" style="fill:none;stroke:rgba(218,0,32,.24705882);stroke-width:.09525;stroke-miterlimit:41.994751"/><path d="M145.542 13.81125V5.61975" style="fill:none;stroke:rgba(218,0,32,.24705882);stroke-width:.09525;stroke-miterlimit:41.994751"/><path d="M145.542 27.0891V21.05025" style="fill:none;stroke:rgba(218,0,32,.24705882);stroke-width:.09525;stroke-miterlimit:41.994751"/><path d="M145.542 13.81125H127.0635" style="fill:none;stroke:rgba(218,0,32,.24705882);stroke-width:.09525;stroke-miterlimit:41.994751"/><path d="M138.684 27.0891H145.542" style="fill:none;stroke:rgba(218,0,32,.24705882);stroke-width:.09525;stroke-miterlimit:41.994751"/><path d="M80.772 7.33425H107.823V.28575H80.772z" style="fill:rgba(218,0,36,.24705882);stroke:rgba(218,0,36,.24705882);stroke-width:.09525;stroke-miterlimit:41.994751"/><path d="M94.77375 3.81A.47625 .47625 0 0093.82125 3.81A.47625 .47625 0 0094.77375 3.81z" fill="rgba(218,0,36,.24705882)"/><path d="M80.772 27.33675H107.823V20.28825H80.772z" style="fill:rgba(218,0,36,.24705882);stroke:rgba(218,0,36,.24705882);stroke-width:.09525;stroke-miterlimit:41.994751"/><path d="M94.77375 23.8125A.47625 .47625 0 0093.82125 23.8125A.47625 .47625 0 0094.77375 23.8125z" fill="rgba(218,0,36,.24705882)"/><path d="M127.56833 27.0891H138.684" style="fill:none;stroke:rgba(190,0,64,.24705882);stroke-width:.09525;stroke-miterlimit:41.994751"/><path d="M119.49112 32.48025H135.636V21.81225H119.49112z" style="fill:rgba(161,0,93,.24705882);stroke:rgba(161,0,93,.24705882);stroke-width:.09525;stroke-miterlimit:41.994751"/><path d="M128.04458 27.0891A.47625 .47625 0 00127.09208 27.0891A.47625 .47625 0 00128.04458 27.0891z" fill="rgba(161,0,93,.24705882)"/><path d="M108.51833 27.0891H127.56833" style="fill:none;stroke:rgba(133,0,121,.24705882);stroke-width:.09525;stroke-miterlimit:41.994751"/><path d="M90.678 38.19525H97.536V32.48025H90.678z" style="fill:rgba(109,0,145,.24705882);stroke:rgba(109,0,145,.24705882);stroke-width:.09525;stroke-miterlimit:41.994751"/><path d="M94.58325 35.33775A.47625 .47625 0 0093.63075 35.33775A.47625 .47625 0 0094.58325 35.33775z" fill="rgba(109,0,145,.24705882)"/><path d="M69.342 29.43225H69.723V24.86025H69.342z" style="fill:rgba(109,0,145,.24705882);stroke:rgba(109,0,145,.24705882);stroke-width:.09525;stroke-miterlimit:41.994751"/><path d="M70.00875 27.14625A.47625 .47625 0 0069.05625 27.14625A.47625 .47625 0 0070.00875 27.14625z" fill="rgba(109,0,145,.24705882)"/><path d="M55.626 42.76725H69.342V32.86125H55.626z" style="fill:rgba(109,0,145,.24705882);stroke:rgba(109,0,145,.24705882);stroke-width:.09525;stroke-miterlimit:41.994751"/><path d="M62.96025 37.81425A.47625 .47625 0 0062.00775 37.81425A.47625 .47625 0 0062.96025 37.81425z" fill="rgba(109,0,145,.24705882)"/><path d="M69.723 32.48025H90.678V29.43225H69.723z" style="fill:rgba(109,0,145,.24705882);stroke:rgba(109,0,145,.24705882);stroke-width:.09525;stroke-miterlimit:41.994751"/><path d="M80.67675 30.95625A.47625 .47625 0 0079.72425 30.95625A.47625 .47625 0 0080.67675 30.95625z" fill="rgba(109,0,145,.24705882)"/><path d="M90.678 32.48025H97.536V21.81225H90.678z" style="fill:rgba(109,0,145,.24705882);stroke:rgba(109,0,145,.24705882);stroke-width:.09525;stroke-miterlimit:41.994751"/><path d="M94.58325 27.0891A.47625 .47625 0 0093.63075 27.0891A.47625 .47625 0 0094.58325 27.0891z" fill="rgba(109,0,145,.24705882)"/><path d="M69.342 42.76725H85.9155V32.86125H69.342z" style="fill:rgba(109,0,145,.24705882);stroke:rgba(109,0,145,.24705882);stroke-width:.09525;stroke-miterlimit:41.994751"/><path d="M78.105 37.81425A.47625 .47625 0 0077.1525 37.81425A.47625 .47625 0 0078.105 37.81425z" fill="rgba(109,0,145,.24705882)"/><path d="M97.536 32.48025H119.49112V21.81225H97.536z" style="fill:rgba(109,0,145,.24705882);stroke:rgba(109,0,145,.24705882);stroke-width:.09525;stroke-miterlimit:41.994751"/><path d="M108.99457 27.0891A.47625 .47625 0 00108.04208 27.0891A.47625 .47625 0 00108.99457 27.0891z" fill="rgba(109,0,145,.24705882)"/><path d="M55.626 32.86125H69.342V29.43225H55.626z" style="fill:rgba(109,0,145,.24705882);stroke:rgba(109,0,145,.24705882);stroke-width:.09525;stroke-miterlimit:41.994751"/><path d="M62.96025 31.14675A.47625 .47625 0 0062.00775 31.14675A.47625 .47625 0 0062.96025 31.14675z" fill="rgba(109,0,145,.24705882)"/><path d="M55.626 24.86025H69.342V21.81225H55.626z" style="fill:rgba(109,0,145,.24705882);stroke:rgba(109,0,145,.24705882);stroke-width:.09525;stroke-miterlimit:41.994751"/><path d="M62.96025 23.33625A.47625 .47625 0 0062.00775 23.33625A.47625 .47625 0 0062.96025 23.33625z" fill="rgba(109,0,145,.24705882)"/><path d="M69.723 24.86025H90.678V21.81225H69.723z" style="fill:rgba(109,0,145,.24705882);stroke:rgba(109,0,145,.24705882);stroke-width:.09525;stroke-miterlimit:41.994751"/><path d="M80.67675 23.33625A.47625 .47625 0 0079.72425 23.33625A.47625 .47625 0 0080.67675 23.33625z" fill="rgba(109,0,145,.24705882)"/><path d="M55.626 29.43225H69.342V24.86025H55.626z" style="fill:rgba(109,0,145,.24705882);stroke:rgba(109,0,145,.24705882);stroke-width:.09525;stroke-miterlimit:41.994751"/><path d="M62.96025 27.14625A.47625 .47625 0 0062.00775 27.14625A.47625 .47625 0 0062.96025 27.14625z" fill="rgba(109,0,145,.24705882)"/><path d="M69.723 29.43225H90.678V24.86025H69.723z" style="fill:rgba(109,0,145,.24705882);stroke:rgba(109,0,145,.24705882);stroke-width:.09525;stroke-miterlimit:41.994751"/><path d="M80.67675 27.14625A.47625 .47625 0 0079.72425 27.14625A.47625 .47625 0 0080.67675 27.14625z" fill="rgba(109,0,145,.24705882)"/><path d="M80.2005 27.14625L94.107 27.0891" style="fill:none;stroke:rgba(109,0,145,.24705882);stroke-width:.09525;stroke-miterlimit:41.994751"/><path d="M62.484 37.81425H77.62875" style="fill:none;stroke:rgba(109,0,145,.24705882);stroke-width:.09525;stroke-miterlimit:41.994751"/><path d="M80.2005 27.14625V23.33625" style="fill:none;stroke:rgba(109,0,145,.24705882);stroke-width:.09525;stroke-miterlimit:41.994751"/><path d="M62.484 31.14675V27.14625" style="fill:none;stroke:rgba(109,0,145,.24705882);stroke-width:.09525;stroke-miterlimit:41.994751"/><path d="M69.5325 27.14625H62.484" style="fill:none;stroke:rgba(109,0,145,.24705882);stroke-width:.09525;stroke-miterlimit:41.994751"/><path d="M80.2005 23.33625L94.107 27.0891" style="fill:none;stroke:rgba(109,0,145,.24705882);stroke-width:.09525;stroke-miterlimit:41.994751"/><path d="M62.484 27.14625V23.33625" style="fill:none;stroke:rgba(109,0,145,.24705882);stroke-width:.09525;stroke-miterlimit:41.994751"/><path d="M62.484 37.81425V31.14675" style="fill:none;stroke:rgba(109,0,145,.24705882);stroke-width:.09525;stroke-miterlimit:41.994751"/><path d="M80.2005 30.95625L94.107 27.0891" style="fill:none;stroke:rgba(109,0,145,.24705882);stroke-width:.09525;stroke-miterlimit:41.994751"/><path d="M80.2005 30.95625V27.14625" style="fill:none;stroke:rgba(109,0,145,.24705882);stroke-width:.09525;stroke-miterlimit:41.994751"/><path d="M80.2005 27.14625H69.5325" style="fill:none;stroke:rgba(109,0,145,.24705882);stroke-width:.09525;stroke-miterlimit:41.994751"/><path d="M94.107 27.0891V35.33775" style="fill:none;stroke:rgba(109,0,145,.24705882);stroke-width:.09525;stroke-miterlimit:41.994751"/><path d="M94.107 27.0891H108.51833" style="fill:none;stroke:rgba(109,0,145,.24705882);stroke-width:.09525;stroke-miterlimit:41.994751"/><path d="M94.107 27.0891V20.2692" style="fill:none;stroke:rgba(97,0,157,.24705882);stroke-width:.09525;stroke-miterlimit:41.994751"/><path d="M94.107 35.33775V43.91025" style="fill:none;stroke:rgba(89,0,165,.24705882);stroke-width:.09525;stroke-miterlimit:41.994751"/><path d="M90.678 21.81225H97.536V18.00225H90.678z" style="fill:rgba(85,0,170,.24705882);stroke:rgba(85,0,170,.24705882);stroke-width:.09525;stroke-miterlimit:41.994751"/><path d="M94.58325 20.2692A.47625 .47625 0 0093.63075 20.2692A.47625 .47625 0 0094.58325 20.2692z" fill="rgba(85,0,170,.24705882)"/><path d="M90.678 49.62525H97.536V38.19525H90.678z" style="fill:rgba(68,0,186,.24705882);stroke:rgba(68,0,186,.24705882);stroke-width:.09525;stroke-miterlimit:41.994751"/><path d="M94.58325 43.91025A.47625 .47625 0 0093.63075 43.91025A.47625 .47625 0 0094.58325 43.91025z" fill="rgba(68,0,186,.24705882)"/><path d="M.20002267 306.2478H14.097V198.21525H.20002267z" style="fill:rgba(0,0,255,.24705882);stroke:rgba(0,0,255,.24705882);stroke-width:.09525;stroke-miterlimit:41.994751"/><path d="M7.62 252.89827A.47625 .47625 0 006.6675 252.89827A.47625 .47625 0 007.62 252.89827z" fill="rgba(0,0,255,.24705882)"/><path d="M22.479 306.2478H89.916V198.21525H22.479z" style="fill:rgba(0,0,255,.24705882);stroke:rgba(0,0,255,.24705882);stroke-width:.09525;stroke-miterlimit:41.994751"/><path d="M56.67375 252.89827A.47625 .47625 0 0055.72125 252.89827A.47625 .47625 0 0056.67375 252.89827z" fill="rgba(0,0,255,.24705882)"/><path d="M89.916 306.2478H98.298V198.21525H89.916z" style="fill:rgba(0,0,255,.24705882);stroke:rgba(0,0,255,.24705882);stroke-width:.09525;stroke-miterlimit:41.994751"/><path d="M94.58325 252.89827A.47625 .47625 0 0093.63075 252.89827A.47625 .47625 0 0094.58325 252.89827z" fill="rgba(0,0,255,.24705882)"/><path d="M161.925 257.27025H163.449V248.88825H161.925z" style="fill:rgba(0,0,255,.24705882);stroke:rgba(0,0,255,.24705882);stroke-width:.09525;stroke-miterlimit:41.994751"/><path d="M163.16325 253.07925A.47625 .47625 0 00162.21075 253.07925A.47625 .47625 0 00163.16325 253.07925z" fill="rgba(0,0,255,.24705882)"/><path d="M98.298 306.2478H161.925V257.27025H98.298z" style="fill:rgba(0,0,255,.24705882);stroke:rgba(0,0,255,.24705882);stroke-width:.09525;stroke-miterlimit:41.994751"/><path d="M130.58775 281.75902A.47625 .47625 0 00129.63525 281.75902A.47625 .47625 0 00130.58775 281.75902z" fill="rgba(0,0,255,.24705882)"/><path d="M98.298 248.88825H161.925V198.21525H98.298z" style="fill:rgba(0,0,255,.24705882);stroke:rgba(0,0,255,.24705882);stroke-width:.09525;stroke-miterlimit:41.994751"/><path d="M130.58775 223.55175A.47625 .47625 0 00129.63525 223.55175A.47625 .47625 0 00130.58775 223.55175z" fill="rgba(0,0,255,.24705882)"/><path d="M163.449 257.27025H280.035V248.88825H163.449z" style="fill:rgba(0,0,255,.24705882);stroke:rgba(0,0,255,.24705882);stroke-width:.09525;stroke-miterlimit:41.994751"/><path d="M222.21825 253.07925A.47625 .47625 0 00221.26575 253.07925A.47625 .47625 0 00222.21825 253.07925z" fill="rgba(0,0,255,.24705882)"/><path d="M163.449 307.18125H280.035V257.27025H163.449z" style="fill:rgba(0,0,255,.24705882);stroke:rgba(0,0,255,.24705882);stroke-width:.09525;stroke-miterlimit:41.994751"/><path d="M222.21825 282.22575A.47625 .47625 0 00221.26575 282.22575A.47625 .47625 0 00222.21825 282.22575z" fill="rgba(0,0,255,.24705882)"/><path d="M163.449 248.88825H280.035V170.02125H163.449z" style="fill:rgba(0,0,255,.24705882);stroke:rgba(0,0,255,.24705882);stroke-width:.09525;stroke-miterlimit:41.994751"/><path d="M222.21825 209.45475A.47625 .47625 0 00221.26575 209.45475A.47625 .47625 0 00222.21825 209.45475z" fill="rgba(0,0,255,.24705882)"/><path d="M98.298 257.27025H161.925V248.88825H98.298z" style="fill:rgba(0,0,255,.24705882);stroke:rgba(0,0,255,.24705882);stroke-width:.09525;stroke-miterlimit:41.994751"/><path d="M130.58775 253.07925A.47625 .47625 0 00129.63525 253.07925A.47625 .47625 0 00130.58775 253.07925z" fill="rgba(0,0,255,.24705882)"/><path d="M14.097 306.2478H22.479V198.21525H14.097z" style="fill:rgba(0,0,255,.24705882);stroke:rgba(0,0,255,.24705882);stroke-width:.09525;stroke-miterlimit:41.994751"/><path d="M18.76425 252.89827A.47625 .47625 0 0017.81175 252.89827A.47625 .47625 0 0018.76425 252.89827z" fill="rgba(0,0,255,.24705882)"/><path d="M130.1115 281.75902V253.07925" style="fill:none;stroke:rgba(0,0,255,.24705882);stroke-width:.09525;stroke-miterlimit:41.994751"/><path d="M56.1975 252.89827H94.107" style="fill:none;stroke:rgba(0,0,255,.24705882);stroke-width:.09525;stroke-miterlimit:41.994751"/><path d="M221.742 253.07925V209.45475" style="fill:none;stroke:rgba(0,0,255,.24705882);stroke-width:.09525;stroke-miterlimit:41.994751"/><path d="M18.288 252.89827H56.1975" style="fill:none;stroke:rgba(0,0,255,.24705882);stroke-width:.09525;stroke-miterlimit:41.994751"/><path d="M221.742 253.07925V282.22575" style="fill:none;stroke:rgba(0,0,255,.24705882);stroke-width:.09525;stroke-miterlimit:41.994751"/><path d="M130.1115 253.07925L94.107 252.89827" style="fill:none;stroke:rgba(0,0,255,.24705882);stroke-width:.09525;stroke-miterlimit:41.994751"/><path d="M130.1115 253.07925V223.55175" style="fill:none;stroke:rgba(0,0,255,.24705882);stroke-width:.09525;stroke-miterlimit:41.994751"/><path d="M130.1115 253.07925H162.687" style="fill:none;stroke:rgba(0,0,255,.24705882);stroke-width:.09525;stroke-miterlimit:41.994751"/><path d="M7.14375 252.89827H18.288" style="fill:none;stroke:rgba(0,0,255,.24705882);stroke-width:.09525;stroke-miterlimit:41.994751"/><path d="M130.1115 223.55175L94.107 252.89827" style="fill:none;stroke:rgba(0,0,255,.24705882);stroke-width:.09525;stroke-miterlimit:41.994751"/><path d="M94.107 252.89827L130.1115 281.75902" style="fill:none;stroke:rgba(0,0,255,.24705882);stroke-width:.09525;stroke-miterlimit:41.994751"/><path d="M162.687 253.07925H221.742" style="fill:none;stroke:rgba(0,0,255,.24705882);stroke-width:.09525;stroke-miterlimit:41.994751"/></svg>