<svg version="1.1" width="345.85275mm" height="217.26525mm" viewBox="0 0 345.85275 217.26525" xmlns="http://www.w3.org/2000/svg" xmlns:xlink="http://www.w3.org/1999/xlink"><path d="M283.6545 69.342H285.5595" style="fill:none;stroke:#f00;stroke-width:.09525;stroke-miterlimit:41.994751"/><path d="M283.6545 69.342V67.437" style="fill:none;stroke:#0f0;stroke-width:.09525;stroke-miterlimit:41.994751"/><path d="M119.34825 159.8295H171.73575V113.157H119.34825z" style="fill:rgba(255,0,0,.24705882);stroke:rgba(255,0,0,.24705882);stroke-width:.09525;stroke-miterlimit:41.994751"/><path d="M146.01825 136.49325A.47625 .47625 0 00145.06575 136.49325A.47625 .47625 0 00146.01825 136.49325z" fill="rgba(255,0,0,.24705882)"/><path d="M119.34825 216.9795H171.92625V159.8295H119.34825z" style="fill:rgba(255,0,0,.24705882);stroke:rgba(255,0,0,.24705882);stroke-width:.09525;stroke-miterlimit:41.994751"/><path d="M146.1135 188.4045A.47625 .47625 0 00145.161 188.4045A.47625 .47625 0 00146.1135 188.4045z" fill="rgba(255,0,0,.24705882)"/><path d="M328.89825 83.6295H345.567V55.0545H328.89825z" style="fill:rgba(255,0,0,.24705882);stroke:rgba(255,0,0,.24705882);stroke-width:.09525;stroke-miterlimit:41.994751"/><path d="M337.70887 69.342A.47625 .47625 0 00336.75637 69.342A.47625 .47625 0 00337.70887 69.342z" fill="rgba(255,0,0,.24705882)"/><path d="M328.89825 112.2045H345.567V83.6295H328.89825z" style="fill:rgba(255,0,0,.24705882);stroke:rgba(255,0,0,.24705882);stroke-width:.09525;stroke-miterlimit:41.994751"/><path d="M337.70887 97.917A.47625 .47625 0 00336.75637 97.917A.47625 .47625 0 00337.70887 97.917z" fill="rgba(255,0,0,.24705882)"/><path d="M328.89825 55.0545H345.567V26.4795H328.89825z" style="fill:rgba(255,0,0,.24705882);stroke:rgba(255,0,0,.24705882);stroke-width:.09525;stroke-miterlimit:41.994751"/><path d="M337.70887 40.767A.47625 .47625 0 00336.75637 40.767A.47625 .47625 0 00337.70887 40.767z" fill="rgba(255,0,0,.24705882)"/><path d="M328.89825 26.4795H345.567V.28575H328.89825z" style="fill:rgba(255,0,0,.24705882);stroke:rgba(255,0,0,.24705882);stroke-width:.09525;stroke-miterlimit:41.994751"/><path d="M337.70887 13.382625A.47625 .47625 0 00336.75637 13.382625A.47625 .47625 0 00337.70887 13.382625z" fill="rgba(255,0,0,.24705882)"/><path d="M197.9295 102.6795H200.31075V100.29825H197.9295z" style="fill:rgba(255,0,0,.24705882);stroke:rgba(255,0,0,.24705882);stroke-width:.09525;stroke-miterlimit:41.994751"/><path d="M199.59637 101.48888A.47625 .47625 0 00198.64387 101.48888A.47625 .47625 0 00199.59637 101.48888z" fill="rgba(255,0,0,.24705882)"/><path d="M.28575 97.917H119.34825V.28575H.28575z" style="fill:rgba(255,0,0,.24705882);stroke:rgba(255,0,0,.24705882);stroke-width:.09525;stroke-miterlimit:41.994751"/><path d="M60.29325 49.101375A.47625 .47625 0 0059.34075 49.101375A.47625 .47625 0 0060.29325 49.101375z" fill="rgba(255,0,0,.24705882)"/><path d="M233.64825 216.9795H289.941V159.8295H233.64825z" style="fill:rgba(255,0,0,.24705882);stroke:rgba(255,0,0,.24705882);stroke-width:.09525;stroke-miterlimit:41.994751"/><path d="M262.27087 188.4045A.47625 .47625 0 00261.31838 188.4045A.47625 .47625 0 00262.27087 188.4045z" fill="rgba(255,0,0,.24705882)"/><path d="M289.941 112.2045H328.89825V.28575H289.941z" style="fill:rgba(255,0,0,.24705882);stroke:rgba(255,0,0,.24705882);stroke-width:.09525;stroke-miterlimit:41.994751"/><path d="M309.89587 56.245125A.47625 .47625 0 00308.94338 56.245125A.47625 .47625 0 00309.89587 56.245125z" fill="rgba(255,0,0,.24705882)"/><path d="M289.941 216.9795H345.567V159.8295H289.941z" style="fill:rgba(255,0,0,.24705882);stroke:rgba(255,0,0,.24705882);stroke-width:.09525;stroke-miterlimit:41.994751"/><path d="M318.23025 188.4045A.47625 .47625 0 00317.27775 188.4045A.47625 .47625 0 00318.23025 188.4045z" fill="rgba(255,0,0,.24705882)"/><path d="M290.79825 159.8295H345.567V112.2045H290.79825z" style="fill:rgba(255,0,0,.24705882);stroke:rgba(255,0,0,.24705882);stroke-width:.09525;stroke-miterlimit:41.994751"/><path d="M318.65887 136.017A.47625 .47625 0 00317.70637 136.017A.47625 .47625 0 00318.65887 136.017z" fill="rgba(255,0,0,.24705882)"/><path d="M119.34825 100.29825H199.19632V.28575H119.34825z" style="fill:rgba(255,0,0,.24705882);stroke:rgba(255,0,0,.24705882);stroke-width:.09525;stroke-miterlimit:41.994751"/><path d="M159.7533 50.292A.47625 .47625 0 00158.8008 50.292A.47625 .47625 0 00159.7533 50.292z" fill="rgba(255,0,0,.24705882)"/><path d="M171.92625 216.9795H233.64825V159.8295H171.92625z" style="fill:rgba(255,0,0,.24705882);stroke:rgba(255,0,0,.24705882);stroke-width:.09525;stroke-miterlimit:41.994751"/><path d="M203.2635 188.4045A.47625 .47625 0 00202.311 188.4045A.47625 .47625 0 00203.2635 188.4045z" fill="rgba(255,0,0,.24705882)"/><path d="M119.34825 113.157H171.73575V100.29825H119.34825z" style="fill:rgba(255,0,0,.24705882);stroke:rgba(255,0,0,.24705882);stroke-width:.09525;stroke-miterlimit:41.994751"/><path d="M146.01825 106.72763A.47625 .47625 0 00145.06575 106.72763A.47625 .47625 0 00146.01825 106.72763z" fill="rgba(255,0,0,.24705882)"/><path d="M216.9795 99.945825H289.941V.28575H216.9795z" style="fill:rgba(255,0,0,.24705882);stroke:rgba(255,0,0,.24705882);stroke-width:.09525;stroke-miterlimit:41.994751"/><path d="M253.9365 50.111025A.47625 .47625 0 00252.984 50.111025A.47625 .47625 0 00253.9365 50.111025z" fill="rgba(255,0,0,.24705882)"/><path d="M199.19632 100.29825H216.9795V.28575H199.19632z" style="fill:rgba(255,0,0,.24705882);stroke:rgba(255,0,0,.24705882);stroke-width:.09525;stroke-miterlimit:41.994751"/><path d="M208.56892 50.292A.47625 .47625 0 00207.61642 50.292A.47625 .47625 0 00208.56892 50.292z" fill="rgba(255,0,0,.24705882)"/><path d="M216.9795 112.2045H289.941V99.945825H216.9795z" style="fill:rgba(255,0,0,.24705882);stroke:rgba(255,0,0,.24705882);stroke-width:.09525;stroke-miterlimit:41.994751"/><path d="M253.9365 106.0704A.47625 .47625 0 00252.984 106.0704A.47625 .47625 0 00253.9365 106.0704z" fill="rgba(255,0,0,.24705882)"/><path d="M.28575 216.9795H119.34825V97.917H.28575z" style="fill:rgba(255,0,0,.24705882);stroke:rgba(255,0,0,.24705882);stroke-width:.09525;stroke-miterlimit:41.994751"/><path d="M60.29325 157.44825A.47625 .47625 0 0059.34075 157.44825A.47625 .47625 0 0060.29325 157.44825z" fill="rgba(255,0,0,.24705882)"/><path d="M171.73575 112.2045H197.9295V100.29825H171.73575z" style="fill:rgba(255,0,0,.24705882);stroke:rgba(255,0,0,.24705882);stroke-width:.09525;stroke-miterlimit:41.994751"/><path d="M185.30887 106.25138A.47625 .47625 0 00184.35637 106.25138A.47625 .47625 0 00185.30887 106.25138z" fill="rgba(255,0,0,.24705882)"/><path d="M309.41962 56.245125L337.23262 13.382625" style="fill:none;stroke:rgba(255,0,0,.24705882);stroke-width:.09525;stroke-miterlimit:41.994751"/><path d="M253.46025 106.0704V50.111025" style="fill:none;stroke:rgba(255,0,0,.24705882);stroke-width:.09525;stroke-miterlimit:41.994751"/><path d="M145.63725 188.4045H202.78725" style="fill:none;stroke:rgba(255,0,0,.24705882);stroke-width:.09525;stroke-miterlimit:41.994751"/><path d="M59.817 157.44825L159.27705 50.292" style="fill:none;stroke:rgba(255,0,0,.24705882);stroke-width:.09525;stroke-miterlimit:41.994751"/><path d="M337.23262 69.342V97.917" style="fill:none;stroke:rgba(255,0,0,.24705882);stroke-width:.09525;stroke-miterlimit:41.994751"/><path d="M145.542 136.49325V106.72763" style="fill:none;stroke:rgba(255,0,0,.24705882);stroke-width:.09525;stroke-miterlimit:41.994751"/><path d="M59.817 157.44825V49.101375" style="fill:none;stroke:rgba(255,0,0,.24705882);stroke-width:.09525;stroke-miterlimit:41.994751"/><path d="M59.817 157.44825L145.63725 188.4045" style="fill:none;stroke:rgba(255,0,0,.24705882);stroke-width:.09525;stroke-miterlimit:41.994751"/><path d="M59.817 157.44825L145.542 136.49325" style="fill:none;stroke:rgba(255,0,0,.24705882);stroke-width:.09525;stroke-miterlimit:41.994751"/><path d="M337.23262 40.767V69.342" style="fill:none;stroke:rgba(255,0,0,.24705882);stroke-width:.09525;stroke-miterlimit:41.994751"/><path d="M337.23262 13.382625V40.767" style="fill:none;stroke:rgba(255,0,0,.24705882);stroke-width:.09525;stroke-miterlimit:41.994751"/><path d="M159.27705 50.292L59.817 49.101375" style="fill:none;stroke:rgba(255,0,0,.24705882);stroke-width:.09525;stroke-miterlimit:41.994751"/><path d="M159.27705 50.292L184.83262 106.25138" style="fill:none;stroke:rgba(255,0,0,.24705882);stroke-width:.09525;stroke-miterlimit:41.994751"/><path d="M208.09267 50.292L253.46025 50.111025" style="fill:none;stroke:rgba(255,0,0,.24705882);stroke-width:.09525;stroke-miterlimit:41.994751"/><path d="M159.27705 50.292H208.09267" style="fill:none;stroke:rgba(255,0,0,.24705882);stroke-width:.09525;stroke-miterlimit:41.994751"/><path d="M184.83262 106.25138L199.12012 101.48888" style="fill:none;stroke:rgba(255,0,0,.24705882);stroke-width:.09525;stroke-miterlimit:41.994751"/><path d="M261.79462 188.4045H317.754" style="fill:none;stroke:rgba(255,0,0,.24705882);stroke-width:.09525;stroke-miterlimit:41.994751"/><path d="M317.754 188.4045L318.18262 136.017" style="fill:none;stroke:rgba(255,0,0,.24705882);stroke-width:.09525;stroke-miterlimit:41.994751"/><path d="M253.46025 106.0704L309.41962 56.245125" style="fill:none;stroke:rgba(255,0,0,.24705882);stroke-width:.09525;stroke-miterlimit:41.994751"/><path d="M159.27705 50.292L199.12012 101.48888" style="fill:none;stroke:rgba(255,0,0,.24705882);stroke-width:.09525;stroke-miterlimit:41.994751"/><path d="M309.41962 56.245125L318.18262 136.017" style="fill:none;stroke:rgba(255,0,0,.24705882);stroke-width:.09525;stroke-miterlimit:41.994751"/><path d="M202.78725 188.4045H261.79462" style="fill:none;stroke:rgba(255,0,0,.24705882);stroke-width:.09525;stroke-miterlimit:41.994751"/><path d="M318.18262 136.017L337.23262 97.917" style="fill:none;stroke:rgba(255,0,0,.24705882);stroke-width:.09525;stroke-miterlimit:41.994751"/><path d="M208.09267 50.292L199.12012 101.48888" style="fill:none;stroke:rgba(255,0,0,.24705882);stroke-width:.09525;stroke-miterlimit:41.994751"/><path d="M208.09267 50.292L253.46025 106.0704" style="fill:none;stroke:rgba(255,0,0,.24705882);stroke-width:.09525;stroke-miterlimit:41.994751"/><path d="M309.41962 56.245125L337.23262 97.917" style="fill:none;stroke:rgba(255,0,0,.24705882);stroke-width:.09525;stroke-miterlimit:41.994751"/><path d="M253.46025 50.111025L309.41962 56.245125" style="fill:none;stroke:rgba(255,0,0,.24705882);stroke-width:.09525;stroke-miterlimit:41.994751"/><path d="M309.41962 56.245125L337.23262 69.342" style="fill:none;stroke:rgba(255,0,0,.24705882);stroke-width:.09525;stroke-miterlimit:41.994751"/><path d="M145.542 106.72763L159.27705 50.292" style="fill:none;stroke:rgba(255,0,0,.24705882);stroke-width:.09525;stroke-miterlimit:41.994751"/><path d="M145.542 106.72763L184.83262 106.25138" style="fill:none;stroke:rgba(255,0,0,.24705882);stroke-width:.09525;stroke-miterlimit:41.994751"/><path d="M309.41962 56.245125L337.23262 40.767" style="fill:none;stroke:rgba(255,0,0,.24705882);stroke-width:.09525;stroke-miterlimit:41.994751"/><path d="M145.542 106.72763L59.817 157.44825" style="fill:none;stroke:rgba(255,0,0,.24705882);stroke-width:.09525;stroke-miterlimit:41.994751"/><path d="M145.63725 188.4045L145.542 136.49325" style="fill:none;stroke:rgba(255,0,0,.24705882);stroke-width:.09525;stroke-miterlimit:41.994751"/><path d="M208.09267 50.292L203.88262 101.48888" style="fill:none;stroke:rgba(250,0,0,.24705882);stroke-width:.09525;stroke-miterlimit:41.994751"/><path d="M208.09267 50.292L211.02637 101.48888" style="fill:none;stroke:rgba(250,0,0,.24705882);stroke-width:.09525;stroke-miterlimit:41.994751"/><path d="M253.46025 106.0704L211.02637 101.48888" style="fill:none;stroke:rgba(250,0,0,.24705882);stroke-width:.09525;stroke-miterlimit:41.994751"/><path d="M203.88262 101.48888H199.12012" style="fill:none;stroke:rgba(250,0,0,.24705882);stroke-width:.09525;stroke-miterlimit:41.994751"/><path d="M207.4545 102.6795H214.59825V100.29825H207.4545z" style="fill:rgba(246,0,4,.24705882);stroke:rgba(246,0,4,.24705882);stroke-width:.09525;stroke-miterlimit:41.994751"/><path d="M211.50262 101.48888A.47625 .47625 0 00210.55012 101.48888A.47625 .47625 0 00211.50262 101.48888z" fill="rgba(246,0,4,.24705882)"/><path d="M200.31075 102.6795H207.4545V100.29825H200.31075z" style="fill:rgba(246,0,4,.24705882);stroke:rgba(246,0,4,.24705882);stroke-width:.09525;stroke-miterlimit:41.994751"/><path d="M204.35887 101.48888A.47625 .47625 0 00203.40637 101.48888A.47625 .47625 0 00204.35887 101.48888z" fill="rgba(246,0,4,.24705882)"/><path d="M211.02637 101.48888H203.88262" style="fill:none;stroke:rgba(246,0,4,.24705882);stroke-width:.09525;stroke-miterlimit:41.994751"/><path d="M211.02637 101.48888L207.4545 105.06075" style="fill:none;stroke:rgba(242,0,12,.24705882);stroke-width:.09525;stroke-miterlimit:41.994751"/><path d="M203.88262 101.48888L207.4545 105.06075" style="fill:none;stroke:rgba(242,0,12,.24705882);stroke-width:.09525;stroke-miterlimit:41.994751"/><path d="M200.31075 107.442H214.59825V102.6795H200.31075z" style="fill:rgba(234,0,20,.24705882);stroke:rgba(234,0,20,.24705882);stroke-width:.09525;stroke-miterlimit:41.994751"/><path d="M207.93075 105.06075A.47625 .47625 0 00206.97825 105.06075A.47625 .47625 0 00207.93075 105.06075z" fill="rgba(234,0,20,.24705882)"/><path d="M212.35987 109.71848L207.4545 105.06075" style="fill:none;stroke:rgba(230,0,24,.24705882);stroke-width:.09525;stroke-miterlimit:41.994751"/><path d="M207.4545 105.06075L202.8825 109.71848" style="fill:none;stroke:rgba(230,0,24,.24705882);stroke-width:.09525;stroke-miterlimit:41.994751"/><path d="M207.78787 109.71848L207.4545 105.06075" style="fill:none;stroke:rgba(230,0,24,.24705882);stroke-width:.09525;stroke-miterlimit:41.994751"/><path d="M240.792 134.96925H253.07925V131.2545H240.792z" style="fill:rgba(226,0,24,.24705882);stroke:rgba(226,0,24,.24705882);stroke-width:.09525;stroke-miterlimit:41.994751"/><path d="M247.41187 133.11187A.47625 .47625 0 00246.45937 133.11187A.47625 .47625 0 00247.41187 133.11187z" fill="rgba(226,0,24,.24705882)"/><path d="M200.31075 112.1664H205.45425V107.442H200.31075z" style="fill:rgba(226,0,24,.24705882);stroke:rgba(226,0,24,.24705882);stroke-width:.09525;stroke-miterlimit:41.994751"/><path d="M203.35875 109.71848A.47625 .47625 0 00202.40625 109.71848A.47625 .47625 0 00203.35875 109.71848z" fill="rgba(226,0,24,.24705882)"/><path d="M223.96132 131.2545H236.0295V116.967H223.96132z" style="fill:rgba(226,0,24,.24705882);stroke:rgba(226,0,24,.24705882);stroke-width:.09525;stroke-miterlimit:41.994751"/><path d="M230.47642 124.11075A.47625 .47625 0 00229.52392 124.11075A.47625 .47625 0 00230.47642 124.11075z" fill="rgba(226,0,24,.24705882)"/><path d="M224.12325 139.6365H236.0295V134.96925H224.12325z" style="fill:rgba(226,0,24,.24705882);stroke:rgba(226,0,24,.24705882);stroke-width:.09525;stroke-miterlimit:41.994751"/><path d="M230.55262 137.30288A.47625 .47625 0 00229.60012 137.30288A.47625 .47625 0 00230.55262 137.30288z" fill="rgba(226,0,24,.24705882)"/><path d="M207.4545 152.68575H224.12325V143.16075H207.4545z" style="fill:rgba(226,0,24,.24705882);stroke:rgba(226,0,24,.24705882);stroke-width:.09525;stroke-miterlimit:41.994751"/><path d="M216.26512 147.92325A.47625 .47625 0 00215.31262 147.92325A.47625 .47625 0 00216.26512 147.92325z" fill="rgba(226,0,24,.24705882)"/><path d="M224.12325 134.96925H236.0295V131.2545H224.12325z" style="fill:rgba(226,0,24,.24705882);stroke:rgba(226,0,24,.24705882);stroke-width:.09525;stroke-miterlimit:41.994751"/><path d="M230.55262 133.11187A.47625 .47625 0 00229.60012 133.11187A.47625 .47625 0 00230.55262 133.11187z" fill="rgba(226,0,24,.24705882)"/><path d="M255.06997 120.777H271.74825V116.79555H255.06997z" style="fill:rgba(226,0,24,.24705882);stroke:rgba(226,0,24,.24705882);stroke-width:.09525;stroke-miterlimit:41.994751"/><path d="M263.25195 118.78628A.47625 .47625 0 00262.29945 118.78628A.47625 .47625 0 00263.25195 118.78628z" fill="rgba(226,0,24,.24705882)"/><path d="M205.45425 131.92125H207.4545V116.967H205.45425z" style="fill:rgba(226,0,24,.24705882);stroke:rgba(226,0,24,.24705882);stroke-width:.09525;stroke-miterlimit:41.994751"/><path d="M206.93062 124.44413A.47625 .47625 0 00205.97812 124.44413A.47625 .47625 0 00206.93062 124.44413z" fill="rgba(226,0,24,.24705882)"/><path d="M255.06997 125.44425H271.74825V120.777H255.06997z" style="fill:rgba(226,0,24,.24705882);stroke:rgba(226,0,24,.24705882);stroke-width:.09525;stroke-miterlimit:41.994751"/><path d="M263.25195 123.11063A.47625 .47625 0 00262.29945 123.11063A.47625 .47625 0 00263.25195 123.11063z" fill="rgba(226,0,24,.24705882)"/><path d="M253.07925 152.68575H271.74825V145.52295H253.07925z" style="fill:rgba(226,0,24,.24705882);stroke:rgba(226,0,24,.24705882);stroke-width:.09525;stroke-miterlimit:41.994751"/><path d="M262.89 149.10435A.47625 .47625 0 00261.9375 149.10435A.47625 .47625 0 00262.89 149.10435z" fill="rgba(226,0,24,.24705882)"/><path d="M205.45425 140.7795H207.4545V131.92125H205.45425z" style="fill:rgba(226,0,24,.24705882);stroke:rgba(226,0,24,.24705882);stroke-width:.09525;stroke-miterlimit:41.994751"/><path d="M206.93062 136.35038A.47625 .47625 0 00205.97812 136.35038A.47625 .47625 0 00206.93062 136.35038z" fill="rgba(226,0,24,.24705882)"/><path d="M236.0295 138.39825H240.792V136.017H236.0295z" style="fill:rgba(226,0,24,.24705882);stroke:rgba(226,0,24,.24705882);stroke-width:.09525;stroke-miterlimit:41.994751"/><path d="M238.887 137.20763A.47625 .47625 0 00237.9345 137.20763A.47625 .47625 0 00238.887 137.20763z" fill="rgba(226,0,24,.24705882)"/><path d="M240.792 139.6365H253.07925V134.96925H240.792z" style="fill:rgba(226,0,24,.24705882);stroke:rgba(226,0,24,.24705882);stroke-width:.09525;stroke-miterlimit:41.994751"/><path d="M247.41187 137.30288A.47625 .47625 0 00246.45937 137.30288A.47625 .47625 0 00247.41187 137.30288z" fill="rgba(226,0,24,.24705882)"/><path d="M271.74825 152.68575H286.03575V145.542H271.74825z" style="fill:rgba(226,0,24,.24705882);stroke:rgba(226,0,24,.24705882);stroke-width:.09525;stroke-miterlimit:41.994751"/><path d="M279.36825 149.11388A.47625 .47625 0 00278.41575 149.11388A.47625 .47625 0 00279.36825 149.11388z" fill="rgba(226,0,24,.24705882)"/><path d="M255.06997 131.2545H271.74825V125.44425H255.06997z" style="fill:rgba(226,0,24,.24705882);stroke:rgba(226,0,24,.24705882);stroke-width:.09525;stroke-miterlimit:41.994751"/><path d="M263.25195 128.34938A.47625 .47625 0 00262.29945 128.34938A.47625 .47625 0 00263.25195 128.34938z" fill="rgba(226,0,24,.24705882)"/><path d="M205.45425 112.1664H210.1215V107.442H205.45425z" style="fill:rgba(226,0,24,.24705882);stroke:rgba(226,0,24,.24705882);stroke-width:.09525;stroke-miterlimit:41.994751"/><path d="M208.26412 109.71848A.47625 .47625 0 00207.31162 109.71848A.47625 .47625 0 00208.26412 109.71848z" fill="rgba(226,0,24,.24705882)"/><path d="M176.49825 152.68575H205.45425V116.967H176.49825z" style="fill:rgba(226,0,24,.24705882);stroke:rgba(226,0,24,.24705882);stroke-width:.09525;stroke-miterlimit:41.994751"/><path d="M191.4525 134.82638A.47625 .47625 0 00190.5 134.82638A.47625 .47625 0 00191.4525 134.82638z" fill="rgba(226,0,24,.24705882)"/><path d="M253.07925 145.52295H271.74825V131.2545H253.07925z" style="fill:rgba(226,0,24,.24705882);stroke:rgba(226,0,24,.24705882);stroke-width:.09525;stroke-miterlimit:41.994751"/><path d="M262.89 138.38873A.47625 .47625 0 00261.9375 138.38873A.47625 .47625 0 00262.89 138.38873z" fill="rgba(226,0,24,.24705882)"/><path d="M210.1215 112.1664H214.59825V107.442H210.1215z" style="fill:rgba(226,0,24,.24705882);stroke:rgba(226,0,24,.24705882);stroke-width:.09525;stroke-miterlimit:41.994751"/><path d="M212.83612 109.71848A.47625 .47625 0 00211.88362 109.71848A.47625 .47625 0 00212.83612 109.71848z" fill="rgba(226,0,24,.24705882)"/><path d="M207.4545 116.967H209.83575V112.2045H207.4545z" style="fill:rgba(226,0,24,.24705882);stroke:rgba(226,0,24,.24705882);stroke-width:.09525;stroke-miterlimit:41.994751"/><path d="M209.12137 114.58575A.47625 .47625 0 00208.16887 114.58575A.47625 .47625 0 00209.12137 114.58575z" fill="rgba(226,0,24,.24705882)"/><path d="M224.12325 152.68575H236.0295V139.6365H224.12325z" style="fill:rgba(226,0,24,.24705882);stroke:rgba(226,0,24,.24705882);stroke-width:.09525;stroke-miterlimit:41.994751"/><path d="M230.55262 146.16113A.47625 .47625 0 00229.60012 146.16113A.47625 .47625 0 00230.55262 146.16113z" fill="rgba(226,0,24,.24705882)"/><path d="M240.792 152.68575H253.07925V139.6365H240.792z" style="fill:rgba(226,0,24,.24705882);stroke:rgba(226,0,24,.24705882);stroke-width:.09525;stroke-miterlimit:41.994751"/><path d="M247.41187 146.16113A.47625 .47625 0 00246.45937 146.16113A.47625 .47625 0 00247.41187 146.16113z" fill="rgba(226,0,24,.24705882)"/><path d="M210.1215 131.2545H223.96132V116.967H210.1215z" style="fill:rgba(226,0,24,.24705882);stroke:rgba(226,0,24,.24705882);stroke-width:.09525;stroke-miterlimit:41.994751"/><path d="M217.52242 124.11075A.47625 .47625 0 00216.56993 124.11075A.47625 .47625 0 00217.52242 124.11075z" fill="rgba(226,0,24,.24705882)"/><path d="M207.4545 131.2545H210.1215V116.967H207.4545z" style="fill:rgba(226,0,24,.24705882);stroke:rgba(226,0,24,.24705882);stroke-width:.09525;stroke-miterlimit:41.994751"/><path d="M209.26425 124.11075A.47625 .47625 0 00208.31175 124.11075A.47625 .47625 0 00209.26425 124.11075z" fill="rgba(226,0,24,.24705882)"/><path d="M205.45425 152.68575H207.4545V140.7795H205.45425z" style="fill:rgba(226,0,24,.24705882);stroke:rgba(226,0,24,.24705882);stroke-width:.09525;stroke-miterlimit:41.994751"/><path d="M206.93062 146.73263A.47625 .47625 0 00205.97812 146.73263A.47625 .47625 0 00206.93062 146.73263z" fill="rgba(226,0,24,.24705882)"/><path d="M206.45437 136.35038V124.44413" style="fill:none;stroke:rgba(226,0,24,.24705882);stroke-width:.09525;stroke-miterlimit:41.994751"/><path d="M206.45437 146.73263V136.35038" style="fill:none;stroke:rgba(226,0,24,.24705882);stroke-width:.09525;stroke-miterlimit:41.994751"/><path d="M217.04618 124.11075H230.00017" style="fill:none;stroke:rgba(226,0,24,.24705882);stroke-width:.09525;stroke-miterlimit:41.994751"/><path d="M208.788 124.11075L208.64512 114.58575" style="fill:none;stroke:rgba(226,0,24,.24705882);stroke-width:.09525;stroke-miterlimit:41.994751"/><path d="M208.788 124.11075H217.04618" style="fill:none;stroke:rgba(226,0,24,.24705882);stroke-width:.09525;stroke-miterlimit:41.994751"/><path d="M262.41375 138.38873L246.93562 137.30288" style="fill:none;stroke:rgba(226,0,24,.24705882);stroke-width:.09525;stroke-miterlimit:41.994751"/><path d="M262.41375 138.38873L246.93562 133.11187" style="fill:none;stroke:rgba(226,0,24,.24705882);stroke-width:.09525;stroke-miterlimit:41.994751"/><path d="M262.41375 138.38873L262.7757 128.34938" style="fill:none;stroke:rgba(226,0,24,.24705882);stroke-width:.09525;stroke-miterlimit:41.994751"/><path d="M230.07637 146.16113L215.78887 147.92325" style="fill:none;stroke:rgba(226,0,24,.24705882);stroke-width:.09525;stroke-miterlimit:41.994751"/><path d="M262.41375 138.38873L246.93562 146.16113" style="fill:none;stroke:rgba(226,0,24,.24705882);stroke-width:.09525;stroke-miterlimit:41.994751"/><path d="M246.93562 137.30288V133.11187" style="fill:none;stroke:rgba(226,0,24,.24705882);stroke-width:.09525;stroke-miterlimit:41.994751"/><path d="M246.93562 137.30288L238.41075 137.20763" style="fill:none;stroke:rgba(226,0,24,.24705882);stroke-width:.09525;stroke-miterlimit:41.994751"/><path d="M190.97625 134.82638L206.45437 146.73263" style="fill:none;stroke:rgba(226,0,24,.24705882);stroke-width:.09525;stroke-miterlimit:41.994751"/><path d="M262.7757 123.11063V118.78628" style="fill:none;stroke:rgba(226,0,24,.24705882);stroke-width:.09525;stroke-miterlimit:41.994751"/><path d="M207.78787 109.71848H212.35987" style="fill:none;stroke:rgba(226,0,24,.24705882);stroke-width:.09525;stroke-miterlimit:41.994751"/><path d="M262.7757 128.34938V123.11063" style="fill:none;stroke:rgba(226,0,24,.24705882);stroke-width:.09525;stroke-miterlimit:41.994751"/><path d="M262.41375 149.10435V138.38873" style="fill:none;stroke:rgba(226,0,24,.24705882);stroke-width:.09525;stroke-miterlimit:41.994751"/><path d="M230.07637 146.16113V137.30288" style="fill:none;stroke:rgba(226,0,24,.24705882);stroke-width:.09525;stroke-miterlimit:41.994751"/><path d="M207.78787 109.71848L208.64512 114.58575" style="fill:none;stroke:rgba(226,0,24,.24705882);stroke-width:.09525;stroke-miterlimit:41.994751"/><path d="M202.8825 109.71848H207.78787" style="fill:none;stroke:rgba(226,0,24,.24705882);stroke-width:.09525;stroke-miterlimit:41.994751"/><path d="M206.45437 146.73263L215.78887 147.92325" style="fill:none;stroke:rgba(226,0,24,.24705882);stroke-width:.09525;stroke-miterlimit:41.994751"/><path d="M262.41375 149.10435L278.892 149.11388" style="fill:none;stroke:rgba(226,0,24,.24705882);stroke-width:.09525;stroke-miterlimit:41.994751"/><path d="M230.00017 124.11075L230.07637 133.11187" style="fill:none;stroke:rgba(226,0,24,.24705882);stroke-width:.09525;stroke-miterlimit:41.994751"/><path d="M246.93562 146.16113V137.30288" style="fill:none;stroke:rgba(226,0,24,.24705882);stroke-width:.09525;stroke-miterlimit:41.994751"/><path d="M246.93562 146.16113L262.41375 149.10435" style="fill:none;stroke:rgba(226,0,24,.24705882);stroke-width:.09525;stroke-miterlimit:41.994751"/><path d="M206.45437 124.44413L190.97625 134.82638" style="fill:none;stroke:rgba(226,0,24,.24705882);stroke-width:.09525;stroke-miterlimit:41.994751"/><path d="M206.45437 124.44413L208.788 124.11075" style="fill:none;stroke:rgba(226,0,24,.24705882);stroke-width:.09525;stroke-miterlimit:41.994751"/><path d="M206.45437 136.35038L190.97625 134.82638" style="fill:none;stroke:rgba(226,0,24,.24705882);stroke-width:.09525;stroke-miterlimit:41.994751"/><path d="M230.07637 137.30288L238.41075 137.20763" style="fill:none;stroke:rgba(226,0,24,.24705882);stroke-width:.09525;stroke-miterlimit:41.994751"/><path d="M230.07637 137.30288V133.11187" style="fill:none;stroke:rgba(226,0,24,.24705882);stroke-width:.09525;stroke-miterlimit:41.994751"/><path d="M262.7757 123.11063L252.69825 122.92013" style="fill:none;stroke:rgba(226,0,24,.24705882);stroke-width:.09525;stroke-miterlimit:41.994751"/><path d="M250.317 124.11075H255.0795V121.7295H250.317z" style="fill:rgba(226,0,24,.24705882);stroke:rgba(226,0,24,.24705882);stroke-width:.09525;stroke-miterlimit:41.994751"/><path d="M253.1745 122.92013A.47625 .47625 0 00252.222 122.92013A.47625 .47625 0 00253.1745 122.92013z" fill="rgba(226,0,24,.24705882)"/><path d="M246.74512 124.11075L252.69825 122.92013" style="fill:none;stroke:rgba(226,0,28,.24705882);stroke-width:.09525;stroke-miterlimit:41.994751"/><path d="M247.93575 128.87325H250.317V126.492H247.93575z" style="fill:rgba(226,0,28,.24705882);stroke:rgba(226,0,28,.24705882);stroke-width:.09525;stroke-miterlimit:41.994751"/><path d="M249.60262 127.68263A.47625 .47625 0 00248.65013 127.68263A.47625 .47625 0 00249.60262 127.68263z" fill="rgba(226,0,28,.24705882)"/><path d="M241.98262 126.492H243.17325V125.30138H241.98262z" style="fill:rgba(226,0,28,.24705882);stroke:rgba(226,0,28,.24705882);stroke-width:.09525;stroke-miterlimit:41.994751"/><path d="M243.05895 125.89193A.47625 .47625 0 00242.10645 125.89193A.47625 .47625 0 00243.05895 125.89193z" fill="rgba(226,0,28,.24705882)"/><path d="M243.17325 126.492H250.317V121.7295H243.17325z" style="fill:rgba(226,0,28,.24705882);stroke:rgba(226,0,28,.24705882);stroke-width:.09525;stroke-miterlimit:41.994751"/><path d="M247.22137 124.11075A.47625 .47625 0 00246.26887 124.11075A.47625 .47625 0 00247.22137 124.11075z" fill="rgba(226,0,28,.24705882)"/><path d="M240.792 128.87325H243.17325V126.492H240.792z" style="fill:rgba(226,0,28,.24705882);stroke:rgba(226,0,28,.24705882);stroke-width:.09525;stroke-miterlimit:41.994751"/><path d="M242.45887 127.68263A.47625 .47625 0 00241.50637 127.68263A.47625 .47625 0 00242.45887 127.68263z" fill="rgba(226,0,28,.24705882)"/><path d="M242.5827 125.89193L246.74512 124.11075" style="fill:none;stroke:rgba(226,0,28,.24705882);stroke-width:.09525;stroke-miterlimit:41.994751"/><path d="M242.5827 125.89193L241.98262 127.68263" style="fill:none;stroke:rgba(226,0,28,.24705882);stroke-width:.09525;stroke-miterlimit:41.994751"/><path d="M249.12637 127.68263L246.74512 124.11075" style="fill:none;stroke:rgba(226,0,28,.24705882);stroke-width:.09525;stroke-miterlimit:41.994751"/><path d="M278.892 149.11388L272.93887 144.35138" style="fill:none;stroke:rgba(226,0,28,.24705882);stroke-width:.09525;stroke-miterlimit:41.994751"/><path d="M262.41375 149.10435L272.93887 144.35138" style="fill:none;stroke:rgba(226,0,28,.24705882);stroke-width:.09525;stroke-miterlimit:41.994751"/><path d="M262.41375 138.38873L272.93887 144.35138" style="fill:none;stroke:rgba(226,0,28,.24705882);stroke-width:.09525;stroke-miterlimit:41.994751"/><path d="M271.74825 145.542H274.1295V143.16075H271.74825z" style="fill:rgba(222,0,32,.24705882);stroke:rgba(222,0,32,.24705882);stroke-width:.09525;stroke-miterlimit:41.994751"/><path d="M273.41512 144.35138A.47625 .47625 0 00272.46263 144.35138A.47625 .47625 0 00273.41512 144.35138z" fill="rgba(222,0,32,.24705882)"/><path d="M244.36387 119.8245L246.74512 124.11075" style="fill:none;stroke:rgba(214,0,36,.24705882);stroke-width:.09525;stroke-miterlimit:41.994751"/><path d="M215.78887 147.92325V137.20763" style="fill:none;stroke:rgba(214,0,40,.24705882);stroke-width:.09525;stroke-miterlimit:41.994751"/><path d="M230.07637 137.30288L215.78887 137.20763" style="fill:none;stroke:rgba(214,0,40,.24705882);stroke-width:.09525;stroke-miterlimit:41.994751"/><path d="M206.45437 136.35038L215.78887 137.20763" style="fill:none;stroke:rgba(214,0,40,.24705882);stroke-width:.09525;stroke-miterlimit:41.994751"/><path d="M217.04618 124.11075L215.78887 137.20763" style="fill:none;stroke:rgba(214,0,40,.24705882);stroke-width:.09525;stroke-miterlimit:41.994751"/><path d="M208.788 124.11075L215.78887 137.20763" style="fill:none;stroke:rgba(214,0,40,.24705882);stroke-width:.09525;stroke-miterlimit:41.994751"/><path d="M230.07637 146.16113L215.78887 137.20763" style="fill:none;stroke:rgba(214,0,40,.24705882);stroke-width:.09525;stroke-miterlimit:41.994751"/><path d="M230.07637 133.11187L215.78887 137.20763" style="fill:none;stroke:rgba(214,0,40,.24705882);stroke-width:.09525;stroke-miterlimit:41.994751"/><path d="M240.792 120.30075H243.17325V119.34825H240.792z" style="fill:rgba(206,0,48,.24705882);stroke:rgba(206,0,48,.24705882);stroke-width:.09525;stroke-miterlimit:41.994751"/><path d="M242.45887 119.8245A.47625 .47625 0 00241.50637 119.8245A.47625 .47625 0 00242.45887 119.8245z" fill="rgba(206,0,48,.24705882)"/><path d="M243.17325 120.30075H245.5545V119.34825H243.17325z" style="fill:rgba(206,0,48,.24705882);stroke:rgba(206,0,48,.24705882);stroke-width:.09525;stroke-miterlimit:41.994751"/><path d="M244.84012 119.8245A.47625 .47625 0 00243.88762 119.8245A.47625 .47625 0 00244.84012 119.8245z" fill="rgba(206,0,48,.24705882)"/><path d="M280.08263 134.28345L278.892 149.11388" style="fill:none;stroke:rgba(198,0,56,.24705882);stroke-width:.09525;stroke-miterlimit:41.994751"/><path d="M209.83575 140.7795H221.742V133.63575H209.83575z" style="fill:rgba(198,0,56,.24705882);stroke:rgba(198,0,56,.24705882);stroke-width:.09525;stroke-miterlimit:41.994751"/><path d="M216.26512 137.20763A.47625 .47625 0 00215.31262 137.20763A.47625 .47625 0 00216.26512 137.20763z" fill="rgba(198,0,56,.24705882)"/><path d="M274.1295 145.542H286.03575V123.03443H274.1295z" style="fill:rgba(170,0,85,.24705882);stroke:rgba(170,0,85,.24705882);stroke-width:.09525;stroke-miterlimit:41.994751"/><path d="M280.55888 134.28345A.47625 .47625 0 00279.60638 134.28345A.47625 .47625 0 00280.55888 134.28345z" fill="rgba(170,0,85,.24705882)"/><path d="M280.08263 134.28345L278.7396 119.31015" style="fill:none;stroke:rgba(145,0,109,.24705882);stroke-width:.09525;stroke-miterlimit:41.994751"/><path d="M200.31075 112.2045H214.59825V107.442H200.31075z" style="fill:rgba(133,0,121,.24705882);stroke:rgba(133,0,121,.24705882);stroke-width:.09525;stroke-miterlimit:41.994751"/><path d="M207.93075 109.82325A.47625 .47625 0 00206.97825 109.82325A.47625 .47625 0 00207.93075 109.82325z" fill="rgba(133,0,121,.24705882)"/><path d="M274.1295 123.03443H286.03575V116.967H274.1295z" style="fill:rgba(121,0,133,.24705882);stroke:rgba(121,0,133,.24705882);stroke-width:.09525;stroke-miterlimit:41.994751"/><path d="M279.21585 119.31015A.47625 .47625 0 00278.26335 119.31015A.47625 .47625 0 00279.21585 119.31015z" fill="rgba(121,0,133,.24705882)"/><path d="M278.7396 119.31015L272.93887 118.15763" style="fill:none;stroke:rgba(117,0,137,.24705882);stroke-width:.09525;stroke-miterlimit:41.994751"/><path d="M271.74825 119.34825H274.1295V116.967H271.74825z" style="fill:rgba(109,0,141,.24705882);stroke:rgba(109,0,141,.24705882);stroke-width:.09525;stroke-miterlimit:41.994751"/><path d="M273.41512 118.15763A.47625 .47625 0 00272.46263 118.15763A.47625 .47625 0 00273.41512 118.15763z" fill="rgba(109,0,141,.24705882)"/><path d="M256.27013 120.08168L272.93887 118.15763" style="fill:none;stroke:rgba(109,0,141,.24705882);stroke-width:.09525;stroke-miterlimit:41.994751"/><path d="M255.0795 152.68575H257.46075V150.3045H255.0795z" style="fill:rgba(109,0,141,.24705882);stroke:rgba(109,0,141,.24705882);stroke-width:.09525;stroke-miterlimit:41.994751"/><path d="M256.74638 151.49513A.47625 .47625 0 00255.79388 151.49513A.47625 .47625 0 00256.74638 151.49513z" fill="rgba(109,0,141,.24705882)"/><path d="M266.98575 152.68575H271.74825V150.3045H266.98575z" style="fill:rgba(109,0,141,.24705882);stroke:rgba(109,0,141,.24705882);stroke-width:.09525;stroke-miterlimit:41.994751"/><path d="M269.84325 151.49513A.47625 .47625 0 00268.89075 151.49513A.47625 .47625 0 00269.84325 151.49513z" fill="rgba(109,0,141,.24705882)"/><path d="M219.36075 129.82575H236.0295V124.11075H219.36075z" style="fill:rgba(109,0,141,.24705882);stroke:rgba(109,0,141,.24705882);stroke-width:.09525;stroke-miterlimit:41.994751"/><path d="M228.17137 126.96825A.47625 .47625 0 00227.21887 126.96825A.47625 .47625 0 00228.17137 126.96825z" fill="rgba(109,0,141,.24705882)"/><path d="M219.36075 141.82725H236.0295V139.827H219.36075z" style="fill:rgba(109,0,141,.24705882);stroke:rgba(109,0,141,.24705882);stroke-width:.09525;stroke-miterlimit:41.994751"/><path d="M228.17137 140.82713A.47625 .47625 0 00227.21887 140.82713A.47625 .47625 0 00228.17137 140.82713z" fill="rgba(109,0,141,.24705882)"/><path d="M219.36075 139.827H236.0295V135.15975H219.36075z" style="fill:rgba(109,0,141,.24705882);stroke:rgba(109,0,141,.24705882);stroke-width:.09525;stroke-miterlimit:41.994751"/><path d="M228.17137 137.49338A.47625 .47625 0 00227.21887 137.49338A.47625 .47625 0 00228.17137 137.49338z" fill="rgba(109,0,141,.24705882)"/><path d="M219.36075 135.15975H236.0295V129.82575H219.36075z" style="fill:rgba(109,0,141,.24705882);stroke:rgba(109,0,141,.24705882);stroke-width:.09525;stroke-miterlimit:41.994751"/><path d="M228.17137 132.49275A.47625 .47625 0 00227.21887 132.49275A.47625 .47625 0 00228.17137 132.49275z" fill="rgba(109,0,141,.24705882)"/><path d="M240.792 135.15975H271.74825V123.20588H240.792z" style="fill:rgba(109,0,141,.24705882);stroke:rgba(109,0,141,.24705882);stroke-width:.09525;stroke-miterlimit:41.994751"/><path d="M256.74638 129.17805A.47625 .47625 0 00255.79388 129.17805A.47625 .47625 0 00256.74638 129.17805z" fill="rgba(109,0,141,.24705882)"/><path d="M205.07325 152.68575H219.36075V143.16075H205.07325z" style="fill:rgba(109,0,141,.24705882);stroke:rgba(109,0,141,.24705882);stroke-width:.09525;stroke-miterlimit:41.994751"/><path d="M212.69325 147.92325A.47625 .47625 0 00211.74075 147.92325A.47625 .47625 0 00212.69325 147.92325z" fill="rgba(109,0,141,.24705882)"/><path d="M240.792 139.827H271.74825V135.15975H240.792z" style="fill:rgba(109,0,141,.24705882);stroke:rgba(109,0,141,.24705882);stroke-width:.09525;stroke-miterlimit:41.994751"/><path d="M256.74638 137.49338A.47625 .47625 0 00255.79388 137.49338A.47625 .47625 0 00256.74638 137.49338z" fill="rgba(109,0,141,.24705882)"/><path d="M240.792 123.20588H271.74825V116.967H240.792z" style="fill:rgba(109,0,141,.24705882);stroke:rgba(109,0,141,.24705882);stroke-width:.09525;stroke-miterlimit:41.994751"/><path d="M256.74638 120.08168A.47625 .47625 0 00255.79388 120.08168A.47625 .47625 0 00256.74638 120.08168z" fill="rgba(109,0,141,.24705882)"/><path d="M219.36075 152.68575H236.0295V141.82725H219.36075z" style="fill:rgba(109,0,141,.24705882);stroke:rgba(109,0,141,.24705882);stroke-width:.09525;stroke-miterlimit:41.994751"/><path d="M228.17137 147.2565A.47625 .47625 0 00227.21887 147.2565A.47625 .47625 0 00228.17137 147.2565z" fill="rgba(109,0,141,.24705882)"/><path d="M205.07325 124.11075H219.36075V116.967H205.07325z" style="fill:rgba(109,0,141,.24705882);stroke:rgba(109,0,141,.24705882);stroke-width:.09525;stroke-miterlimit:41.994751"/><path d="M212.69325 120.53888A.47625 .47625 0 00211.74075 120.53888A.47625 .47625 0 00212.69325 120.53888z" fill="rgba(109,0,141,.24705882)"/><path d="M240.792 150.3045H271.74825V139.827H240.792z" style="fill:rgba(109,0,141,.24705882);stroke:rgba(109,0,141,.24705882);stroke-width:.09525;stroke-miterlimit:41.994751"/><path d="M256.74638 145.06575A.47625 .47625 0 00255.79388 145.06575A.47625 .47625 0 00256.74638 145.06575z" fill="rgba(109,0,141,.24705882)"/><path d="M236.0295 138.39825H240.792V136.017H236.0295z" style="fill:rgba(109,0,141,.24705882);stroke:rgba(109,0,141,.24705882);stroke-width:.09525;stroke-miterlimit:41.994751"/><path d="M238.887 137.20763A.47625 .47625 0 00237.9345 137.20763A.47625 .47625 0 00238.887 137.20763z" fill="rgba(109,0,141,.24705882)"/><path d="M240.792 152.68575H245.5545V150.3045H240.792z" style="fill:rgba(109,0,141,.24705882);stroke:rgba(109,0,141,.24705882);stroke-width:.09525;stroke-miterlimit:41.994751"/><path d="M243.6495 151.49513A.47625 .47625 0 00242.697 151.49513A.47625 .47625 0 00243.6495 151.49513z" fill="rgba(109,0,141,.24705882)"/><path d="M219.36075 124.11075H236.0295V116.967H219.36075z" style="fill:rgba(109,0,141,.24705882);stroke:rgba(109,0,141,.24705882);stroke-width:.09525;stroke-miterlimit:41.994751"/><path d="M228.17137 120.53888A.47625 .47625 0 00227.21887 120.53888A.47625 .47625 0 00228.17137 120.53888z" fill="rgba(109,0,141,.24705882)"/><path d="M205.07325 128.87325H219.36075V124.11075H205.07325z" style="fill:rgba(109,0,141,.24705882);stroke:rgba(109,0,141,.24705882);stroke-width:.09525;stroke-miterlimit:41.994751"/><path d="M212.69325 126.492A.47625 .47625 0 00211.74075 126.492A.47625 .47625 0 00212.69325 126.492z" fill="rgba(109,0,141,.24705882)"/><path d="M262.22325 152.68575H266.98575V150.3045H262.22325z" style="fill:rgba(109,0,141,.24705882);stroke:rgba(109,0,141,.24705882);stroke-width:.09525;stroke-miterlimit:41.994751"/><path d="M265.08075 151.49513A.47625 .47625 0 00264.12825 151.49513A.47625 .47625 0 00265.08075 151.49513z" fill="rgba(109,0,141,.24705882)"/><path d="M256.27013 129.17805V120.08168" style="fill:none;stroke:rgba(109,0,141,.24705882);stroke-width:.09525;stroke-miterlimit:41.994751"/><path d="M212.217 120.53888H227.69512" style="fill:none;stroke:rgba(109,0,141,.24705882);stroke-width:.09525;stroke-miterlimit:41.994751"/><path d="M269.367 151.49513H264.6045" style="fill:none;stroke:rgba(109,0,141,.24705882);stroke-width:.09525;stroke-miterlimit:41.994751"/><path d="M256.27013 145.06575L264.6045 151.49513" style="fill:none;stroke:rgba(109,0,141,.24705882);stroke-width:.09525;stroke-miterlimit:41.994751"/><path d="M256.27013 145.06575L243.17325 151.49513" style="fill:none;stroke:rgba(109,0,141,.24705882);stroke-width:.09525;stroke-miterlimit:41.994751"/><path d="M212.217 126.492V120.53888" style="fill:none;stroke:rgba(109,0,141,.24705882);stroke-width:.09525;stroke-miterlimit:41.994751"/><path d="M256.27013 145.06575L269.367 151.49513" style="fill:none;stroke:rgba(109,0,141,.24705882);stroke-width:.09525;stroke-miterlimit:41.994751"/><path d="M227.69512 126.96825V120.53888" style="fill:none;stroke:rgba(109,0,141,.24705882);stroke-width:.09525;stroke-miterlimit:41.994751"/><path d="M227.69512 126.96825L212.217 126.492" style="fill:none;stroke:rgba(109,0,141,.24705882);stroke-width:.09525;stroke-miterlimit:41.994751"/><path d="M227.69512 140.82713V137.49338" style="fill:none;stroke:rgba(109,0,141,.24705882);stroke-width:.09525;stroke-miterlimit:41.994751"/><path d="M227.69512 137.49338V132.49275" style="fill:none;stroke:rgba(109,0,141,.24705882);stroke-width:.09525;stroke-miterlimit:41.994751"/><path d="M227.69512 137.49338L238.41075 137.20763" style="fill:none;stroke:rgba(109,0,141,.24705882);stroke-width:.09525;stroke-miterlimit:41.994751"/><path d="M256.27013 145.06575V151.49513" style="fill:none;stroke:rgba(109,0,141,.24705882);stroke-width:.09525;stroke-miterlimit:41.994751"/><path d="M227.69512 132.49275V126.96825" style="fill:none;stroke:rgba(109,0,141,.24705882);stroke-width:.09525;stroke-miterlimit:41.994751"/><path d="M256.27013 137.49338V129.17805" style="fill:none;stroke:rgba(109,0,141,.24705882);stroke-width:.09525;stroke-miterlimit:41.994751"/><path d="M256.27013 137.49338L238.41075 137.20763" style="fill:none;stroke:rgba(109,0,141,.24705882);stroke-width:.09525;stroke-miterlimit:41.994751"/><path d="M212.217 147.92325L227.69512 147.2565" style="fill:none;stroke:rgba(109,0,141,.24705882);stroke-width:.09525;stroke-miterlimit:41.994751"/><path d="M227.69512 147.2565V140.82713" style="fill:none;stroke:rgba(109,0,141,.24705882);stroke-width:.09525;stroke-miterlimit:41.994751"/><path d="M256.27013 145.06575V137.49338" style="fill:none;stroke:rgba(109,0,141,.24705882);stroke-width:.09525;stroke-miterlimit:41.994751"/><path d="M211.02637 136.017L212.217 147.92325" style="fill:none;stroke:rgba(97,0,157,.24705882);stroke-width:.09525;stroke-miterlimit:41.994751"/><path d="M227.69512 140.82713L211.02637 136.017" style="fill:none;stroke:rgba(97,0,157,.24705882);stroke-width:.09525;stroke-miterlimit:41.994751"/><path d="M227.69512 137.49338L211.02637 136.017" style="fill:none;stroke:rgba(97,0,157,.24705882);stroke-width:.09525;stroke-miterlimit:41.994751"/><path d="M227.69512 132.49275L211.02637 136.017" style="fill:none;stroke:rgba(97,0,157,.24705882);stroke-width:.09525;stroke-miterlimit:41.994751"/><path d="M211.02637 136.017L212.217 126.492" style="fill:none;stroke:rgba(97,0,157,.24705882);stroke-width:.09525;stroke-miterlimit:41.994751"/><path d="M174.117 157.44825H197.9295V114.58575H174.117z" style="fill:rgba(97,0,157,.24705882);stroke:rgba(97,0,157,.24705882);stroke-width:.09525;stroke-miterlimit:41.994751"/><path d="M186.4995 136.017A.47625 .47625 0 00185.547 136.017A.47625 .47625 0 00186.4995 136.017z" fill="rgba(97,0,157,.24705882)"/><path d="M205.07325 140.7795H216.9795V131.2545H205.07325z" style="fill:rgba(85,0,170,.24705882);stroke:rgba(85,0,170,.24705882);stroke-width:.09525;stroke-miterlimit:41.994751"/><path d="M211.50262 136.017A.47625 .47625 0 00210.55012 136.017A.47625 .47625 0 00211.50262 136.017z" fill="rgba(85,0,170,.24705882)"/><path d="M186.02325 136.017L206.26387 146.73263" style="fill:none;stroke:rgba(48,0,206,.24705882);stroke-width:.09525;stroke-miterlimit:41.994751"/><path d="M212.217 157.44825H245.5545V124.11075H212.217z" style="fill:rgba(0,0,255,.24705882);stroke:rgba(0,0,255,.24705882);stroke-width:.09525;stroke-miterlimit:41.994751"/><path d="M229.362 140.7795A.47625 .47625 0 00228.4095 140.7795A.47625 .47625 0 00229.362 140.7795z" fill="rgba(0,0,255,.24705882)"/><path d="M212.217 119.34825H214.59825V114.58575H212.217z" style="fill:rgba(0,0,255,.24705882);stroke:rgba(0,0,255,.24705882);stroke-width:.09525;stroke-miterlimit:41.994751"/><path d="M213.88387 116.967A.47625 .47625 0 00212.93138 116.967A.47625 .47625 0 00213.88387 116.967z" fill="rgba(0,0,255,.24705882)"/><path d="M212.217 124.11075H214.59825V119.34825H212.217z" style="fill:rgba(0,0,255,.24705882);stroke:rgba(0,0,255,.24705882);stroke-width:.09525;stroke-miterlimit:41.994751"/><path d="M213.88387 121.7295A.47625 .47625 0 00212.93138 121.7295A.47625 .47625 0 00213.88387 121.7295z" fill="rgba(0,0,255,.24705882)"/><path d="M221.742 124.11075H245.5545V114.58575H221.742z" style="fill:rgba(0,0,255,.24705882);stroke:rgba(0,0,255,.24705882);stroke-width:.09525;stroke-miterlimit:41.994751"/><path d="M234.1245 119.34825A.47625 .47625 0 00233.172 119.34825A.47625 .47625 0 00234.1245 119.34825z" fill="rgba(0,0,255,.24705882)"/><path d="M200.31075 136.017H212.217V114.58575H200.31075z" style="fill:rgba(0,0,255,.24705882);stroke:rgba(0,0,255,.24705882);stroke-width:.09525;stroke-miterlimit:41.994751"/><path d="M206.74012 125.30138A.47625 .47625 0 00205.78762 125.30138A.47625 .47625 0 00206.74012 125.30138z" fill="rgba(0,0,255,.24705882)"/><path d="M214.59825 116.967H221.742V114.58575H214.59825z" style="fill:rgba(0,0,255,.24705882);stroke:rgba(0,0,255,.24705882);stroke-width:.09525;stroke-miterlimit:41.994751"/><path d="M218.64637 115.77638A.47625 .47625 0 00217.69387 115.77638A.47625 .47625 0 00218.64637 115.77638z" fill="rgba(0,0,255,.24705882)"/><path d="M200.31075 157.44825H212.217V136.017H200.31075z" style="fill:rgba(0,0,255,.24705882);stroke:rgba(0,0,255,.24705882);stroke-width:.09525;stroke-miterlimit:41.994751"/><path d="M206.74012 146.73263A.47625 .47625 0 00205.78762 146.73263A.47625 .47625 0 00206.74012 146.73263z" fill="rgba(0,0,255,.24705882)"/><path d="M245.5545 157.44825H288.417V114.58575H245.5545z" style="fill:rgba(0,0,255,.24705882);stroke:rgba(0,0,255,.24705882);stroke-width:.09525;stroke-miterlimit:41.994751"/><path d="M267.462 136.017A.47625 .47625 0 00266.5095 136.017A.47625 .47625 0 00267.462 136.017z" fill="rgba(0,0,255,.24705882)"/><path d="M228.88575 140.7795L206.26387 125.30138" style="fill:none;stroke:rgba(0,0,255,.24705882);stroke-width:.09525;stroke-miterlimit:41.994751"/><path d="M206.26387 125.30138L213.40762 121.7295" style="fill:none;stroke:rgba(0,0,255,.24705882);stroke-width:.09525;stroke-miterlimit:41.994751"/><path d="M228.88575 140.7795L213.40762 121.7295" style="fill:none;stroke:rgba(0,0,255,.24705882);stroke-width:.09525;stroke-miterlimit:41.994751"/><path d="M228.88575 140.7795L206.26387 146.73263" style="fill:none;stroke:rgba(0,0,255,.24705882);stroke-width:.09525;stroke-miterlimit:41.994751"/><path d="M266.98575 136.017L228.88575 140.7795" style="fill:none;stroke:rgba(0,0,255,.24705882);stroke-width:.09525;stroke-miterlimit:41.994751"/><path d="M266.98575 136.017L233.64825 119.34825" style="fill:none;stroke:rgba(0,0,255,.24705882);stroke-width:.09525;stroke-miterlimit:41.994751"/><path d="M206.26387 125.30138V146.73263" style="fill:none;stroke:rgba(0,0,255,.24705882);stroke-width:.09525;stroke-miterlimit:41.994751"/><path d="M228.88575 140.7795L233.64825 119.34825" style="fill:none;stroke:rgba(0,0,255,.24705882);stroke-width:.09525;stroke-miterlimit:41.994751"/><path d="M213.40762 116.967L218.17012 115.77638" style="fill:none;stroke:rgba(0,0,255,.24705882);stroke-width:.09525;stroke-miterlimit:41.994751"/><path d="M233.64825 119.34825L218.17012 115.77638" style="fill:none;stroke:rgba(0,0,255,.24705882);stroke-width:.09525;stroke-miterlimit:41.994751"/><path d="M213.40762 116.967V121.7295" style="fill:none;stroke:rgba(0,0,255,.24705882);stroke-width:.09525;stroke-miterlimit:41.994751"/><path d="M206.26387 125.30138L213.40762 116.967" style="fill:none;stroke:rgba(0,0,255,.24705882);stroke-width:.09525;stroke-miterlimit:41.994751"/></svg>