<svg version="1.1" width="213.9315mm" height="207.8355mm" viewBox="0 0 213.9315 207.8355" xmlns="http://www.w3.org/2000/svg" xmlns:xlink="http://www.w3.org/1999/xlink"><path d="M97.82175 158.78175H99.72675" style="fill:none;stroke:#f00;stroke-width:.09525;stroke-miterlimit:41.994751"/><path d="M97.82175 158.78175V156.87675" style="fill:none;stroke:#0f0;stroke-width:.09525;stroke-miterlimit:41.994751"/><path d="M98.58375 114.58575H121.82475V89.43975H98.58375z" style="fill:rgba(255,0,0,.24705882);stroke:rgba(255,0,0,.24705882);stroke-width:.09525;stroke-miterlimit:41.994751"/><path d="M110.28997 103.03193A.47625 .47625 0 00109.33747 103.03193A.47625 .47625 0 00110.28997 103.03193z" fill="rgba(255,0,0,.24705882)"/><path d="M152.68575 88.48725H213.64575V.28575H152.68575z" style="fill:rgba(255,0,0,.24705882);stroke:rgba(255,0,0,.24705882);stroke-width:.09525;stroke-miterlimit:41.994751"/><path d="M164.00145 77.371575A.47625 .47625 0 00163.04895 77.371575A.47625 .47625 0 00164.00145 77.371575z" fill="rgba(255,0,0,.24705882)"/><path d="M.28575 88.572975H69.62775V64.29375H.28575z" style="fill:rgba(255,0,0,.24705882);stroke:rgba(255,0,0,.24705882);stroke-width:.09525;stroke-miterlimit:41.994751"/><path d="M56.9595 75.26655A.47625 .47625 0 0056.007 75.26655A.47625 .47625 0 0056.9595 75.26655z" fill="rgba(255,0,0,.24705882)"/><path d="M69.62775 64.29375H98.58375V.28575H69.62775z" style="fill:rgba(255,0,0,.24705882);stroke:rgba(255,0,0,.24705882);stroke-width:.09525;stroke-miterlimit:41.994751"/><path d="M83.677125 53.425725A.47625 .47625 0 0082.724625 53.425725A.47625 .47625 0 0083.677125 53.425725z" fill="rgba(255,0,0,.24705882)"/><path d="M98.58375 64.29375H124.15837V.28575H98.58375z" style="fill:rgba(255,0,0,.24705882);stroke:rgba(255,0,0,.24705882);stroke-width:.09525;stroke-miterlimit:41.994751"/><path d="M112.19497 51.787425A.47625 .47625 0 00111.24247 51.787425A.47625 .47625 0 00112.19497 51.787425z" fill="rgba(255,0,0,.24705882)"/><path d="M58.359675 88.67775A.47625 .47625 0 0057.407175 88.67775A.47625 .47625 0 0058.359675 88.67775z" fill="rgba(255,0,0,.24705882)"/><path d="M127.15875 76.48575H152.68575V70.38975H127.15875z" style="fill:rgba(255,0,0,.24705882);stroke:rgba(255,0,0,.24705882);stroke-width:.09525;stroke-miterlimit:41.994751"/><path d="M141.86535 73.2282A.47625 .47625 0 00140.91285 73.2282A.47625 .47625 0 00141.86535 73.2282z" fill="rgba(255,0,0,.24705882)"/><path d="M140.99857 88.915875A.47625 .47625 0 00140.04608 88.915875A.47625 .47625 0 00140.99857 88.915875z" fill="rgba(255,0,0,.24705882)"/><path d="M172.43107 88.668225A.47625 .47625 0 00171.47857 88.668225A.47625 .47625 0 00172.43107 88.668225z" fill="rgba(255,0,0,.24705882)"/><path d="M121.82475 124.94895H126.96825V89.43975H121.82475z" style="fill:rgba(255,0,0,.24705882);stroke:rgba(255,0,0,.24705882);stroke-width:.09525;stroke-miterlimit:41.994751"/><path d="M125.43472 104.55593A.47625 .47625 0 00124.48222 104.55593A.47625 .47625 0 00125.43472 104.55593z" fill="rgba(255,0,0,.24705882)"/><path d="M121.82475 141.25575H126.96825V133.01662H121.82475z" style="fill:rgba(255,0,0,.24705882);stroke:rgba(255,0,0,.24705882);stroke-width:.09525;stroke-miterlimit:41.994751"/><path d="M124.7775 137.5029A.47625 .47625 0 00123.825 137.5029A.47625 .47625 0 00124.7775 137.5029z" fill="rgba(255,0,0,.24705882)"/><path d="M98.58375 141.25575H121.82475V114.58575H98.58375z" style="fill:rgba(255,0,0,.24705882);stroke:rgba(255,0,0,.24705882);stroke-width:.09525;stroke-miterlimit:41.994751"/><path d="M109.7661 124.3203A.47625 .47625 0 00108.8136 124.3203A.47625 .47625 0 00109.7661 124.3203z" fill="rgba(255,0,0,.24705882)"/><path d="M98.58375 88.67775H124.15837V64.29375H98.58375z" style="fill:rgba(255,0,0,.24705882);stroke:rgba(255,0,0,.24705882);stroke-width:.09525;stroke-miterlimit:41.994751"/><path d="M110.9091 77.257275A.47625 .47625 0 00109.9566 77.257275A.47625 .47625 0 00110.9091 77.257275z" fill="rgba(255,0,0,.24705882)"/><path d="M70.38975 114.58575H97.82175V89.43975H70.38975z" style="fill:rgba(255,0,0,.24705882);stroke:rgba(255,0,0,.24705882);stroke-width:.09525;stroke-miterlimit:41.994751"/><path d="M86.286975 98.12655A.47625 .47625 0 0085.334475 98.12655A.47625 .47625 0 0086.286975 98.12655z" fill="rgba(255,0,0,.24705882)"/><path d="M124.15837 70.38975H152.68575V.28575H124.15837z" style="fill:rgba(255,0,0,.24705882);stroke:rgba(255,0,0,.24705882);stroke-width:.09525;stroke-miterlimit:41.994751"/><path d="M138.6078 50.492025A.47625 .47625 0 00137.6553 50.492025A.47625 .47625 0 00138.6078 50.492025z" fill="rgba(255,0,0,.24705882)"/><path d="M84.782025 64.48425A.47625 .47625 0 0083.829525 64.48425A.47625 .47625 0 0084.782025 64.48425z" fill="rgba(255,0,0,.24705882)"/><path d="M124.15837 88.67775H152.68575V76.48575H124.15837z" style="fill:rgba(255,0,0,.24705882);stroke:rgba(255,0,0,.24705882);stroke-width:.09525;stroke-miterlimit:41.994751"/><path d="M140.96047 83.4009A.47625 .47625 0 00140.00797 83.4009A.47625 .47625 0 00140.96047 83.4009z" fill="rgba(255,0,0,.24705882)"/><path d="M70.38975 89.43975H97.82175V65.05575H70.38975z" style="fill:rgba(255,0,0,.24705882);stroke:rgba(255,0,0,.24705882);stroke-width:.09525;stroke-miterlimit:41.994751"/><path d="M83.334225 76.190475A.47625 .47625 0 0082.381725 76.190475A.47625 .47625 0 0083.334225 76.190475z" fill="rgba(255,0,0,.24705882)"/><path d="M126.96825 141.25575H151.92375V114.58575H126.96825z" style="fill:rgba(255,0,0,.24705882);stroke:rgba(255,0,0,.24705882);stroke-width:.09525;stroke-miterlimit:41.994751"/><path d="M139.49362 125.17755A.47625 .47625 0 00138.54112 125.17755A.47625 .47625 0 00139.49362 125.17755z" fill="rgba(255,0,0,.24705882)"/><path d="M126.96825 114.58575H151.92375V89.43975H126.96825z" style="fill:rgba(255,0,0,.24705882);stroke:rgba(255,0,0,.24705882);stroke-width:.09525;stroke-miterlimit:41.994751"/><path d="M140.82712 101.45077A.47625 .47625 0 00139.87463 101.45077A.47625 .47625 0 00140.82712 101.45077z" fill="rgba(255,0,0,.24705882)"/><path d="M127.12065 73.447275A.47625 .47625 0 00126.16815 73.447275A.47625 .47625 0 00127.12065 73.447275z" fill="rgba(255,0,0,.24705882)"/><path d="M.28575 64.29375H69.62775V.28575H.28575z" style="fill:rgba(255,0,0,.24705882);stroke:rgba(255,0,0,.24705882);stroke-width:.09525;stroke-miterlimit:41.994751"/><path d="M57.8358 57.01665A.47625 .47625 0 0056.8833 57.01665A.47625 .47625 0 0057.8358 57.01665z" fill="rgba(255,0,0,.24705882)"/><path d="M140.35088 101.45077L139.01737 125.17755" style="fill:none;stroke:rgba(255,0,0,.24705882);stroke-width:.09525;stroke-miterlimit:41.994751"/><path d="M141.3891 73.2282L138.13155 50.492025" style="fill:none;stroke:rgba(255,0,0,.24705882);stroke-width:.09525;stroke-miterlimit:41.994751"/><path d="M109.81372 103.03193L85.810725 98.12655" style="fill:none;stroke:rgba(255,0,0,.24705882);stroke-width:.09525;stroke-miterlimit:41.994751"/><path d="M83.200875 53.425725L57.35955 57.01665" style="fill:none;stroke:rgba(255,0,0,.24705882);stroke-width:.09525;stroke-miterlimit:41.994751"/><path d="M56.48325 75.26655L57.883425 88.67775" style="fill:none;stroke:rgba(255,0,0,.24705882);stroke-width:.09525;stroke-miterlimit:41.994751"/><path d="M57.35955 57.01665L56.48325 75.26655" style="fill:none;stroke:rgba(255,0,0,.24705882);stroke-width:.09525;stroke-miterlimit:41.994751"/><path d="M140.48422 83.4009L140.52232 88.915875" style="fill:none;stroke:rgba(255,0,0,.24705882);stroke-width:.09525;stroke-miterlimit:41.994751"/><path d="M139.01737 125.17755L124.30125 137.5029" style="fill:none;stroke:rgba(255,0,0,.24705882);stroke-width:.09525;stroke-miterlimit:41.994751"/><path d="M140.48422 83.4009L141.3891 73.2282" style="fill:none;stroke:rgba(255,0,0,.24705882);stroke-width:.09525;stroke-miterlimit:41.994751"/><path d="M82.857975 76.190475L84.305775 64.48425" style="fill:none;stroke:rgba(255,0,0,.24705882);stroke-width:.09525;stroke-miterlimit:41.994751"/><path d="M140.48422 83.4009L163.5252 77.371575" style="fill:none;stroke:rgba(255,0,0,.24705882);stroke-width:.09525;stroke-miterlimit:41.994751"/><path d="M84.305775 64.48425L83.200875 53.425725" style="fill:none;stroke:rgba(255,0,0,.24705882);stroke-width:.09525;stroke-miterlimit:41.994751"/><path d="M138.13155 50.492025L111.71872 51.787425" style="fill:none;stroke:rgba(255,0,0,.24705882);stroke-width:.09525;stroke-miterlimit:41.994751"/><path d="M85.810725 98.12655L82.857975 76.190475" style="fill:none;stroke:rgba(255,0,0,.24705882);stroke-width:.09525;stroke-miterlimit:41.994751"/><path d="M141.3891 73.2282L126.6444 73.447275" style="fill:none;stroke:rgba(255,0,0,.24705882);stroke-width:.09525;stroke-miterlimit:41.994751"/><path d="M111.71872 51.787425L83.200875 53.425725" style="fill:none;stroke:rgba(255,0,0,.24705882);stroke-width:.09525;stroke-miterlimit:41.994751"/><path d="M163.5252 77.371575L141.3891 73.2282" style="fill:none;stroke:rgba(255,0,0,.24705882);stroke-width:.09525;stroke-miterlimit:41.994751"/><path d="M109.28985 124.3203L109.81372 103.03193" style="fill:none;stroke:rgba(255,0,0,.24705882);stroke-width:.09525;stroke-miterlimit:41.994751"/><path d="M110.43285 77.257275L111.71872 51.787425" style="fill:none;stroke:rgba(255,0,0,.24705882);stroke-width:.09525;stroke-miterlimit:41.994751"/><path d="M140.52232 88.915875L140.35088 101.45077" style="fill:none;stroke:rgba(255,0,0,.24705882);stroke-width:.09525;stroke-miterlimit:41.994751"/><path d="M124.30125 137.5029L109.28985 124.3203" style="fill:none;stroke:rgba(255,0,0,.24705882);stroke-width:.09525;stroke-miterlimit:41.994751"/><path d="M171.95482 88.668225L163.5252 77.371575" style="fill:none;stroke:rgba(255,0,0,.24705882);stroke-width:.09525;stroke-miterlimit:41.994751"/><path d="M109.81372 103.03193L124.95847 104.55593" style="fill:none;stroke:rgba(255,0,0,.24705882);stroke-width:.09525;stroke-miterlimit:41.994751"/><path d="M124.95847 104.55593L140.35088 101.45077" style="fill:none;stroke:rgba(255,0,0,.24705882);stroke-width:.09525;stroke-miterlimit:41.994751"/><path d="M124.30125 137.5029L124.26315 133.0071" style="fill:none;stroke:rgba(255,0,0,.24705882);stroke-width:.09525;stroke-miterlimit:41.994751"/><path d="M126.6444 73.447275L123.94882 73.332975" style="fill:none;stroke:rgba(255,0,0,.24705882);stroke-width:.09525;stroke-miterlimit:41.994751"/><path d="M57.883425 88.67775L58.1025 95.0214" style="fill:none;stroke:rgba(250,0,0,.24705882);stroke-width:.09525;stroke-miterlimit:41.994751"/><path d="M124.42507 73.332975A.47625 .47625 0 00123.47258 73.332975A.47625 .47625 0 00124.42507 73.332975z" fill="rgba(250,0,4,.24705882)"/><path d="M124.7394 133.0071A.47625 .47625 0 00123.7869 133.0071A.47625 .47625 0 00124.7394 133.0071z" fill="rgba(250,0,4,.24705882)"/><path d="M171.82147 96.0501L171.95482 88.668225" style="fill:none;stroke:rgba(250,0,4,.24705882);stroke-width:.09525;stroke-miterlimit:41.994751"/><path d="M.28575 98.802825H69.62775V91.487625H.28575z" style="fill:rgba(246,0,4,.24705882);stroke:rgba(246,0,4,.24705882);stroke-width:.09525;stroke-miterlimit:41.994751"/><path d="M58.57875 95.0214A.47625 .47625 0 0057.62625 95.0214A.47625 .47625 0 0058.57875 95.0214z" fill="rgba(246,0,4,.24705882)"/><path d="M124.26315 133.0071L124.38697 130.57822" style="fill:none;stroke:rgba(246,0,8,.24705882);stroke-width:.09525;stroke-miterlimit:41.994751"/><path d="M152.68575 99.907725H213.64575V92.37345H152.68575z" style="fill:rgba(246,0,8,.24705882);stroke:rgba(246,0,8,.24705882);stroke-width:.09525;stroke-miterlimit:41.994751"/><path d="M172.29772 96.0501A.47625 .47625 0 00171.34522 96.0501A.47625 .47625 0 00172.29772 96.0501z" fill="rgba(246,0,8,.24705882)"/><path d="M124.86322 130.57822A.47625 .47625 0 00123.91072 130.57822A.47625 .47625 0 00124.86322 130.57822z" fill="rgba(242,0,12,.24705882)"/><path d="M123.94882 73.332975L118.9101 73.485375" style="fill:none;stroke:rgba(242,0,12,.24705882);stroke-width:.09525;stroke-miterlimit:41.994751"/><path d="M58.1025 95.0214L57.502425 102.81285" style="fill:none;stroke:rgba(242,0,12,.24705882);stroke-width:.09525;stroke-miterlimit:41.994751"/><path d="M170.48798 104.68927L171.82147 96.0501" style="fill:none;stroke:rgba(242,0,12,.24705882);stroke-width:.09525;stroke-miterlimit:41.994751"/><path d="M124.38697 130.57822L124.19647 127.0635" style="fill:none;stroke:rgba(238,0,16,.24705882);stroke-width:.09525;stroke-miterlimit:41.994751"/><path d="M.28575 106.4133H69.62775V100.4697H.28575z" style="fill:rgba(238,0,16,.24705882);stroke:rgba(238,0,16,.24705882);stroke-width:.09525;stroke-miterlimit:41.994751"/><path d="M57.978675 102.81285A.47625 .47625 0 0057.026175 102.81285A.47625 .47625 0 0057.978675 102.81285z" fill="rgba(238,0,16,.24705882)"/><path d="M152.68575 109.58513H213.64575V100.47922H152.68575z" style="fill:rgba(234,0,16,.24705882);stroke:rgba(234,0,16,.24705882);stroke-width:.09525;stroke-miterlimit:41.994751"/><path d="M170.96422 104.68927A.47625 .47625 0 00170.01173 104.68927A.47625 .47625 0 00170.96422 104.68927z" fill="rgba(234,0,16,.24705882)"/><path d="M119.38635 73.485375A.47625 .47625 0 00118.43385 73.485375A.47625 .47625 0 00119.38635 73.485375z" fill="rgba(234,0,20,.24705882)"/><path d="M124.67272 127.0635A.47625 .47625 0 00123.72022 127.0635A.47625 .47625 0 00124.67272 127.0635z" fill="rgba(234,0,20,.24705882)"/><path d="M57.62625 110.49L57.502425 102.81285" style="fill:none;stroke:rgba(234,0,20,.24705882);stroke-width:.09525;stroke-miterlimit:41.994751"/><path d="M169.3926 112.71885L170.48798 104.68927" style="fill:none;stroke:rgba(230,0,24,.24705882);stroke-width:.09525;stroke-miterlimit:41.994751"/><path d="M.28575 114.6048H69.62775V106.58475H.28575z" style="fill:rgba(230,0,24,.24705882);stroke:rgba(230,0,24,.24705882);stroke-width:.09525;stroke-miterlimit:41.994751"/><path d="M58.1025 110.49A.47625 .47625 0 0057.15 110.49A.47625 .47625 0 0058.1025 110.49z" fill="rgba(230,0,24,.24705882)"/><path d="M124.19647 127.0635L124.12027 123.49162" style="fill:none;stroke:rgba(226,0,24,.24705882);stroke-width:.09525;stroke-miterlimit:41.994751"/><path d="M118.9101 73.485375L114.63338 73.466325" style="fill:none;stroke:rgba(226,0,24,.24705882);stroke-width:.09525;stroke-miterlimit:41.994751"/><path d="M152.68575 118.12905H213.64575V110.23282H152.68575z" style="fill:rgba(226,0,28,.24705882);stroke:rgba(226,0,28,.24705882);stroke-width:.09525;stroke-miterlimit:41.994751"/><path d="M169.86885 112.71885A.47625 .47625 0 00168.91635 112.71885A.47625 .47625 0 00169.86885 112.71885z" fill="rgba(226,0,28,.24705882)"/><path d="M57.62625 110.49L57.7215 120.97702" style="fill:none;stroke:rgba(222,0,32,.24705882);stroke-width:.09525;stroke-miterlimit:41.994751"/><path d="M124.59652 123.49162A.47625 .47625 0 00123.64402 123.49162A.47625 .47625 0 00124.59652 123.49162z" fill="rgba(222,0,32,.24705882)"/><path d="M167.81145 122.10097L169.3926 112.71885" style="fill:none;stroke:rgba(222,0,32,.24705882);stroke-width:.09525;stroke-miterlimit:41.994751"/><path d="M115.10962 73.466325A.47625 .47625 0 00114.15713 73.466325A.47625 .47625 0 00115.10962 73.466325z" fill="rgba(218,0,32,.24705882)"/><path d="M.28575 125.07278H69.62775V116.23358H.28575z" style="fill:rgba(214,0,36,.24705882);stroke:rgba(214,0,36,.24705882);stroke-width:.09525;stroke-miterlimit:41.994751"/><path d="M58.19775 120.97702A.47625 .47625 0 0057.24525 120.97702A.47625 .47625 0 0058.19775 120.97702z" fill="rgba(214,0,36,.24705882)"/><path d="M124.12027 123.49162L124.26315 119.91975" style="fill:none;stroke:rgba(214,0,40,.24705882);stroke-width:.09525;stroke-miterlimit:41.994751"/><path d="M152.68575 126.29197H213.64575V118.53862H152.68575z" style="fill:rgba(214,0,40,.24705882);stroke:rgba(214,0,40,.24705882);stroke-width:.09525;stroke-miterlimit:41.994751"/><path d="M168.2877 122.10097A.47625 .47625 0 00167.3352 122.10097A.47625 .47625 0 00168.2877 122.10097z" fill="rgba(214,0,40,.24705882)"/><path d="M114.63338 73.466325L110.54715 73.504425" style="fill:none;stroke:rgba(214,0,40,.24705882);stroke-width:.09525;stroke-miterlimit:41.994751"/><path d="M166.79228 129.91147L167.81145 122.10097" style="fill:none;stroke:rgba(210,0,44,.24705882);stroke-width:.09525;stroke-miterlimit:41.994751"/><path d="M57.7215 120.97702L57.55005 131.12115" style="fill:none;stroke:rgba(210,0,44,.24705882);stroke-width:.09525;stroke-miterlimit:41.994751"/><path d="M124.7394 119.91975A.47625 .47625 0 00123.7869 119.91975A.47625 .47625 0 00124.7394 119.91975z" fill="rgba(206,0,44,.24705882)"/><path d="M111.0234 73.504425A.47625 .47625 0 00110.0709 73.504425A.47625 .47625 0 00111.0234 73.504425z" fill="rgba(206,0,48,.24705882)"/><path d="M152.68575 136.57898H213.64575V126.28245H152.68575z" style="fill:rgba(206,0,48,.24705882);stroke:rgba(206,0,48,.24705882);stroke-width:.09525;stroke-miterlimit:41.994751"/><path d="M167.26853 129.91147A.47625 .47625 0 00166.31603 129.91147A.47625 .47625 0 00167.26853 129.91147z" fill="rgba(206,0,48,.24705882)"/><path d="M.28575 136.5504H69.62775V126.20625H.28575z" style="fill:rgba(202,0,48,.24705882);stroke:rgba(202,0,48,.24705882);stroke-width:.09525;stroke-miterlimit:41.994751"/><path d="M58.0263 131.12115A.47625 .47625 0 0057.0738 131.12115A.47625 .47625 0 0058.0263 131.12115z" fill="rgba(202,0,48,.24705882)"/><path d="M124.26315 119.91975L124.31077 117.13845" style="fill:none;stroke:rgba(202,0,48,.24705882);stroke-width:.09525;stroke-miterlimit:41.994751"/><path d="M110.54715 73.504425L107.8611 73.218675" style="fill:none;stroke:rgba(202,0,52,.24705882);stroke-width:.09525;stroke-miterlimit:41.994751"/><path d="M166.28745 139.827L166.79228 129.91147" style="fill:none;stroke:rgba(198,0,52,.24705882);stroke-width:.09525;stroke-miterlimit:41.994751"/><path d="M124.78702 117.13845A.47625 .47625 0 00123.83452 117.13845A.47625 .47625 0 00124.78702 117.13845z" fill="rgba(198,0,56,.24705882)"/><path d="M108.33735 73.218675A.47625 .47625 0 00107.38485 73.218675A.47625 .47625 0 00108.33735 73.218675z" fill="rgba(198,0,56,.24705882)"/><path d="M57.55005 131.12115L57.997725 141.85582" style="fill:none;stroke:rgba(198,0,56,.24705882);stroke-width:.09525;stroke-miterlimit:41.994751"/><path d="M152.68575 142.27492H213.64575V137.05523H152.68575z" style="fill:rgba(194,0,60,.24705882);stroke:rgba(194,0,60,.24705882);stroke-width:.09525;stroke-miterlimit:41.994751"/><path d="M166.7637 139.827A.47625 .47625 0 00165.8112 139.827A.47625 .47625 0 00166.7637 139.827z" fill="rgba(194,0,60,.24705882)"/><path d="M107.8611 73.218675L105.10837 73.447275" style="fill:none;stroke:rgba(194,0,60,.24705882);stroke-width:.09525;stroke-miterlimit:41.994751"/><path d="M124.31077 117.13845L124.21552 112.7379" style="fill:none;stroke:rgba(194,0,60,.24705882);stroke-width:.09525;stroke-miterlimit:41.994751"/><path d="M166.28745 139.827L166.1922 142.32255" style="fill:none;stroke:rgba(190,0,60,.24705882);stroke-width:.09525;stroke-miterlimit:41.994751"/><path d="M58.473975 141.85582A.47625 .47625 0 0057.521475 141.85582A.47625 .47625 0 0058.473975 141.85582z" fill="rgba(190,0,64,.24705882)"/><path d="M57.997725 141.85582L57.93105 146.63737" style="fill:none;stroke:rgba(190,0,64,.24705882);stroke-width:.09525;stroke-miterlimit:41.994751"/><path d="M.28575 207.54975H69.62775V150.20925H.28575z" style="fill:rgba(190,0,64,.24705882);stroke:rgba(190,0,64,.24705882);stroke-width:.09525;stroke-miterlimit:41.994751"/><path d="M58.27395 160.86773A.47625 .47625 0 0057.32145 160.86773A.47625 .47625 0 0058.27395 160.86773z" fill="rgba(190,0,64,.24705882)"/><path d="M.28575 150.20925H69.62775V141.9987H.28575z" style="fill:rgba(190,0,64,.24705882);stroke:rgba(190,0,64,.24705882);stroke-width:.09525;stroke-miterlimit:41.994751"/><path d="M58.4073 146.63737A.47625 .47625 0 0057.4548 146.63737A.47625 .47625 0 0058.4073 146.63737z" fill="rgba(190,0,64,.24705882)"/><path d="M152.68575 150.2283H213.64575V142.40828H152.68575z" style="fill:rgba(190,0,64,.24705882);stroke:rgba(190,0,64,.24705882);stroke-width:.09525;stroke-miterlimit:41.994751"/><path d="M165.5064 146.8755A.47625 .47625 0 00164.5539 146.8755A.47625 .47625 0 00165.5064 146.8755z" fill="rgba(190,0,64,.24705882)"/><path d="M166.66845 142.32255A.47625 .47625 0 00165.71595 142.32255A.47625 .47625 0 00166.66845 142.32255z" fill="rgba(190,0,64,.24705882)"/><path d="M70.151625 146.06588A.47625 .47625 0 0069.199125 146.06588A.47625 .47625 0 0070.151625 146.06588z" fill="rgba(190,0,64,.24705882)"/><path d="M152.68575 207.54975H213.64575V150.20925H152.68575z" style="fill:rgba(190,0,64,.24705882);stroke:rgba(190,0,64,.24705882);stroke-width:.09525;stroke-miterlimit:41.994751"/><path d="M163.74427 162.1155A.47625 .47625 0 00162.79178 162.1155A.47625 .47625 0 00163.74427 162.1155z" fill="rgba(190,0,64,.24705882)"/><path d="M69.62775 207.54975H116.49075V150.20925H69.62775z" style="fill:rgba(190,0,64,.24705882);stroke:rgba(190,0,64,.24705882);stroke-width:.09525;stroke-miterlimit:41.994751"/><path d="M95.0976 161.07727A.47625 .47625 0 0094.1451 161.07727A.47625 .47625 0 0095.0976 161.07727z" fill="rgba(190,0,64,.24705882)"/><path d="M116.49075 207.54975H152.67622V150.20925H116.49075z" style="fill:rgba(190,0,64,.24705882);stroke:rgba(190,0,64,.24705882);stroke-width:.09525;stroke-miterlimit:41.994751"/><path d="M134.51205 159.76282A.47625 .47625 0 00133.55955 159.76282A.47625 .47625 0 00134.51205 159.76282z" fill="rgba(190,0,64,.24705882)"/><path d="M163.26802 162.1155L165.03015 146.8755" style="fill:none;stroke:rgba(190,0,64,.24705882);stroke-width:.09525;stroke-miterlimit:41.994751"/><path d="M134.0358 159.76282L163.26802 162.1155" style="fill:none;stroke:rgba(190,0,64,.24705882);stroke-width:.09525;stroke-miterlimit:41.994751"/><path d="M57.93105 146.63737L69.675375 146.06587" style="fill:none;stroke:rgba(190,0,64,.24705882);stroke-width:.09525;stroke-miterlimit:41.994751"/><path d="M94.62135 161.07727L134.0358 159.76282" style="fill:none;stroke:rgba(190,0,64,.24705882);stroke-width:.09525;stroke-miterlimit:41.994751"/><path d="M165.03015 146.8755L166.1922 142.32255" style="fill:none;stroke:rgba(190,0,64,.24705882);stroke-width:.09525;stroke-miterlimit:41.994751"/><path d="M57.93105 146.63737L57.7977 160.86772" style="fill:none;stroke:rgba(190,0,64,.24705882);stroke-width:.09525;stroke-miterlimit:41.994751"/><path d="M57.7977 160.86772L94.62135 161.07727" style="fill:none;stroke:rgba(190,0,64,.24705882);stroke-width:.09525;stroke-miterlimit:41.994751"/><path d="M134.0358 159.76282L146.32305 146.17065" style="fill:none;stroke:rgba(190,0,64,.24705882);stroke-width:.09525;stroke-miterlimit:41.994751"/><path d="M69.675375 146.06587L84.229575 132.14985" style="fill:none;stroke:rgba(190,0,64,.24705882);stroke-width:.09525;stroke-miterlimit:41.994751"/><path d="M134.0358 159.76282L131.98792 145.39912" style="fill:none;stroke:rgba(190,0,64,.24705882);stroke-width:.09525;stroke-miterlimit:41.994751"/><path d="M146.32305 146.17065L165.03015 146.8755" style="fill:none;stroke:rgba(190,0,64,.24705882);stroke-width:.09525;stroke-miterlimit:41.994751"/><path d="M121.7295 146.38972L134.0358 159.76282" style="fill:none;stroke:rgba(190,0,64,.24705882);stroke-width:.09525;stroke-miterlimit:41.994751"/><path d="M105.58462 73.447275A.47625 .47625 0 00104.63213 73.447275A.47625 .47625 0 00105.58462 73.447275z" fill="rgba(186,0,64,.24705882)"/><path d="M105.10837 73.447275L101.56507 73.6473" style="fill:none;stroke:rgba(186,0,64,.24705882);stroke-width:.09525;stroke-miterlimit:41.994751"/><path d="M70.38975 149.44725H97.82175V115.34775H70.38975z" style="fill:rgba(186,0,68,.24705882);stroke:rgba(186,0,68,.24705882);stroke-width:.09525;stroke-miterlimit:41.994751"/><path d="M84.705825 132.14985A.47625 .47625 0 0083.753325 132.14985A.47625 .47625 0 0084.705825 132.14985z" fill="rgba(186,0,68,.24705882)"/><path d="M113.82375 112.014H121.06275V89.43975H113.82375z" style="fill:rgba(186,0,68,.24705882);stroke:rgba(186,0,68,.24705882);stroke-width:.09525;stroke-miterlimit:41.994751"/><path d="M117.29085 107.12767A.47625 .47625 0 00116.33835 107.12767A.47625 .47625 0 00117.29085 107.12767z" fill="rgba(186,0,68,.24705882)"/><path d="M74.094975 86.058375A.47625 .47625 0 0073.142475 86.058375A.47625 .47625 0 0074.094975 86.058375z" fill="rgba(186,0,68,.24705882)"/><path d="M106.20375 127.64453H113.82375V115.34775H106.20375z" style="fill:rgba(186,0,68,.24705882);stroke:rgba(186,0,68,.24705882);stroke-width:.09525;stroke-miterlimit:41.994751"/><path d="M110.44237 121.44375A.47625 .47625 0 00109.48987 121.44375A.47625 .47625 0 00110.44237 121.44375z" fill="rgba(186,0,68,.24705882)"/><path d="M124.69177 112.7379A.47625 .47625 0 00123.73928 112.7379A.47625 .47625 0 00124.69177 112.7379z" fill="rgba(186,0,68,.24705882)"/><path d="M70.38975 85.62975H77.24775V65.05575H70.38975z" style="fill:rgba(186,0,68,.24705882);stroke:rgba(186,0,68,.24705882);stroke-width:.09525;stroke-miterlimit:41.994751"/><path d="M74.037825 78.04785A.47625 .47625 0 0073.085325 78.04785A.47625 .47625 0 0074.037825 78.04785z" fill="rgba(186,0,68,.24705882)"/><path d="M98.536125 111.26153A.47625 .47625 0 0097.583625 111.26153A.47625 .47625 0 0098.536125 111.26153z" fill="rgba(186,0,68,.24705882)"/><path d="M127.73025 141.25575H151.92375V119.15775H127.73025z" style="fill:rgba(186,0,68,.24705882);stroke:rgba(186,0,68,.24705882);stroke-width:.09525;stroke-miterlimit:41.994751"/><path d="M139.47457 131.2926A.47625 .47625 0 00138.52208 131.2926A.47625 .47625 0 00139.47457 131.2926z" fill="rgba(186,0,68,.24705882)"/><path d="M121.4247 141.5034A.47625 .47625 0 00120.4722 141.5034A.47625 .47625 0 00121.4247 141.5034z" fill="rgba(186,0,68,.24705882)"/><path d="M127.93027 136.94092A.47625 .47625 0 00126.97778 136.94092A.47625 .47625 0 00127.93027 136.94092z" fill="rgba(186,0,68,.24705882)"/><path d="M88.67775 114.58575H97.82175V107.72775H88.67775z" style="fill:rgba(186,0,68,.24705882);stroke:rgba(186,0,68,.24705882);stroke-width:.09525;stroke-miterlimit:41.994751"/><path d="M93.430725 111.53775A.47625 .47625 0 0092.478225 111.53775A.47625 .47625 0 0093.430725 111.53775z" fill="rgba(186,0,68,.24705882)"/><path d="M92.992575 114.95722A.47625 .47625 0 0092.040075 114.95722A.47625 .47625 0 0092.992575 114.95722z" fill="rgba(186,0,68,.24705882)"/><path d="M70.38975 103.15575H78.00975V86.39175H70.38975z" style="fill:rgba(186,0,68,.24705882);stroke:rgba(186,0,68,.24705882);stroke-width:.09525;stroke-miterlimit:41.994751"/><path d="M75.371325 95.2881A.47625 .47625 0 0074.418825 95.2881A.47625 .47625 0 0075.371325 95.2881z" fill="rgba(186,0,68,.24705882)"/><path d="M78.00975 103.15575H97.82175V65.05575H78.00975z" style="fill:rgba(186,0,68,.24705882);stroke:rgba(186,0,68,.24705882);stroke-width:.09525;stroke-miterlimit:41.994751"/><path d="M88.0491 89.1159A.47625 .47625 0 0087.0966 89.1159A.47625 .47625 0 0088.0491 89.1159z" fill="rgba(186,0,68,.24705882)"/><path d="M116.49075 150.20925H128.04457V142.01775H116.49075z" style="fill:rgba(186,0,68,.24705882);stroke:rgba(186,0,68,.24705882);stroke-width:.09525;stroke-miterlimit:41.994751"/><path d="M122.20575 146.38972A.47625 .47625 0 00121.25325 146.38972A.47625 .47625 0 00122.20575 146.38972z" fill="rgba(186,0,68,.24705882)"/><path d="M110.3757 127.99695A.47625 .47625 0 00109.4232 127.99695A.47625 .47625 0 00110.3757 127.99695z" fill="rgba(186,0,68,.24705882)"/><path d="M140.17942 118.88152A.47625 .47625 0 00139.22692 118.88152A.47625 .47625 0 00140.17942 118.88152z" fill="rgba(186,0,68,.24705882)"/><path d="M86.2584 103.62247A.47625 .47625 0 0085.3059 103.62247A.47625 .47625 0 0086.2584 103.62247z" fill="rgba(186,0,68,.24705882)"/><path d="M127.73025 118.39575H151.92375V112.014H127.73025z" style="fill:rgba(186,0,68,.24705882);stroke:rgba(186,0,68,.24705882);stroke-width:.09525;stroke-miterlimit:41.994751"/><path d="M139.85557 115.1001A.47625 .47625 0 00138.90308 115.1001A.47625 .47625 0 00139.85557 115.1001z" fill="rgba(186,0,68,.24705882)"/><path d="M87.22995 104.52735A.47625 .47625 0 0086.27745 104.52735A.47625 .47625 0 0087.22995 104.52735z" fill="rgba(186,0,68,.24705882)"/><path d="M127.73025 112.014H151.92375V89.43975H127.73025z" style="fill:rgba(186,0,68,.24705882);stroke:rgba(186,0,68,.24705882);stroke-width:.09525;stroke-miterlimit:41.994751"/><path d="M138.75068 100.57447A.47625 .47625 0 00137.79818 100.57447A.47625 .47625 0 00138.75068 100.57447z" fill="rgba(186,0,68,.24705882)"/><path d="M88.75395 105.9561A.47625 .47625 0 0087.80145 105.9561A.47625 .47625 0 0088.75395 105.9561z" fill="rgba(186,0,68,.24705882)"/><path d="M98.58375 149.44725H115.72875V128.30175H98.58375z" style="fill:rgba(186,0,68,.24705882);stroke:rgba(186,0,68,.24705882);stroke-width:.09525;stroke-miterlimit:41.994751"/><path d="M109.24222 138.61732A.47625 .47625 0 00108.28973 138.61732A.47625 .47625 0 00109.24222 138.61732z" fill="rgba(186,0,68,.24705882)"/><path d="M128.10172 150.20925H140.25562V142.01775H128.10172z" style="fill:rgba(186,0,68,.24705882);stroke:rgba(186,0,68,.24705882);stroke-width:.09525;stroke-miterlimit:41.994751"/><path d="M132.46417 145.39912A.47625 .47625 0 00131.51167 145.39912A.47625 .47625 0 00132.46417 145.39912z" fill="rgba(186,0,68,.24705882)"/><path d="M98.58375 76.48575H105.10837V70.38975H98.58375z" style="fill:rgba(186,0,68,.24705882);stroke:rgba(186,0,68,.24705882);stroke-width:.09525;stroke-miterlimit:41.994751"/><path d="M102.04132 73.6473A.47625 .47625 0 00101.08882 73.6473A.47625 .47625 0 00102.04132 73.6473z" fill="rgba(186,0,68,.24705882)"/><path d="M121.06275 112.014H127.73025V101.2317H121.06275z" style="fill:rgba(186,0,68,.24705882);stroke:rgba(186,0,68,.24705882);stroke-width:.09525;stroke-miterlimit:41.994751"/><path d="M125.40615 107.88967A.47625 .47625 0 00124.45365 107.88967A.47625 .47625 0 00125.40615 107.88967z" fill="rgba(186,0,68,.24705882)"/><path d="M116.33835 137.2743A.47625 .47625 0 00115.38585 137.2743A.47625 .47625 0 00116.33835 137.2743z" fill="rgba(186,0,68,.24705882)"/><path d="M116.49075 141.25575H123.72975V133.01662H116.49075z" style="fill:rgba(186,0,68,.24705882);stroke:rgba(186,0,68,.24705882);stroke-width:.09525;stroke-miterlimit:41.994751"/><path d="M119.77687 137.40765A.47625 .47625 0 00118.82438 137.40765A.47625 .47625 0 00119.77687 137.40765z" fill="rgba(186,0,68,.24705882)"/><path d="M123.72975 141.25575H127.01587V133.01662H123.72975z" style="fill:rgba(186,0,68,.24705882);stroke:rgba(186,0,68,.24705882);stroke-width:.09525;stroke-miterlimit:41.994751"/><path d="M125.18707 137.22668A.47625 .47625 0 00124.23458 137.22668A.47625 .47625 0 00125.18707 137.22668z" fill="rgba(186,0,68,.24705882)"/><path d="M121.06275 101.14597H127.73025V89.43975H121.06275z" style="fill:rgba(186,0,68,.24705882);stroke:rgba(186,0,68,.24705882);stroke-width:.09525;stroke-miterlimit:41.994751"/><path d="M122.7582 94.078425A.47625 .47625 0 00121.8057 94.078425A.47625 .47625 0 00122.7582 94.078425z" fill="rgba(186,0,68,.24705882)"/><path d="M98.58375 88.67775H112.88077V77.24775H98.58375z" style="fill:rgba(186,0,68,.24705882);stroke:rgba(186,0,68,.24705882);stroke-width:.09525;stroke-miterlimit:41.994751"/><path d="M103.6701 82.9437A.47625 .47625 0 00102.7176 82.9437A.47625 .47625 0 00103.6701 82.9437z" fill="rgba(186,0,68,.24705882)"/><path d="M113.0427 88.67775H126.39675V77.24775H113.0427z" style="fill:rgba(186,0,68,.24705882);stroke:rgba(186,0,68,.24705882);stroke-width:.09525;stroke-miterlimit:41.994751"/><path d="M121.28182 81.886425A.47625 .47625 0 00120.32933 81.886425A.47625 .47625 0 00121.28182 81.886425z" fill="rgba(186,0,68,.24705882)"/><path d="M70.38975 114.58575H78.00975V103.91775H70.38975z" style="fill:rgba(186,0,68,.24705882);stroke:rgba(186,0,68,.24705882);stroke-width:.09525;stroke-miterlimit:41.994751"/><path d="M74.437875 109.48987A.47625 .47625 0 0073.485375 109.48987A.47625 .47625 0 0074.437875 109.48987z" fill="rgba(186,0,68,.24705882)"/><path d="M101.67937 77.238225A.47625 .47625 0 00100.72688 77.238225A.47625 .47625 0 00101.67937 77.238225z" fill="rgba(186,0,68,.24705882)"/><path d="M74.609325 103.42245A.47625 .47625 0 0073.656825 103.42245A.47625 .47625 0 0074.609325 103.42245z" fill="rgba(186,0,68,.24705882)"/><path d="M106.27995 123.15825A.47625 .47625 0 00105.32745 123.15825A.47625 .47625 0 00106.27995 123.15825z" fill="rgba(186,0,68,.24705882)"/><path d="M119.4054 132.7023A.47625 .47625 0 00118.4529 132.7023A.47625 .47625 0 00119.4054 132.7023z" fill="rgba(186,0,68,.24705882)"/><path d="M89.849325 107.00385A.47625 .47625 0 0088.896825 107.00385A.47625 .47625 0 0089.849325 107.00385z" fill="rgba(186,0,68,.24705882)"/><path d="M116.49075 132.36892H121.06275V112.89982H116.49075z" style="fill:rgba(186,0,68,.24705882);stroke:rgba(186,0,68,.24705882);stroke-width:.09525;stroke-miterlimit:41.994751"/><path d="M119.22442 122.1486A.47625 .47625 0 00118.27192 122.1486A.47625 .47625 0 00119.22442 122.1486z" fill="rgba(186,0,68,.24705882)"/><path d="M98.58375 127.53975H105.44175V119.15775H98.58375z" style="fill:rgba(186,0,68,.24705882);stroke:rgba(186,0,68,.24705882);stroke-width:.09525;stroke-miterlimit:41.994751"/><path d="M102.31755 123.1773A.47625 .47625 0 00101.36505 123.1773A.47625 .47625 0 00102.31755 123.1773z" fill="rgba(186,0,68,.24705882)"/><path d="M119.27205 112.42357A.47625 .47625 0 00118.31955 112.42357A.47625 .47625 0 00119.27205 112.42357z" fill="rgba(186,0,68,.24705882)"/><path d="M98.58375 115.34775H113.82375V108.48975H98.58375z" style="fill:rgba(186,0,68,.24705882);stroke:rgba(186,0,68,.24705882);stroke-width:.09525;stroke-miterlimit:41.994751"/><path d="M110.31855 110.97577A.47625 .47625 0 00109.36605 110.97577A.47625 .47625 0 00110.31855 110.97577z" fill="rgba(186,0,68,.24705882)"/><path d="M122.85345 88.744425A.47625 .47625 0 00121.90095 88.744425A.47625 .47625 0 00122.85345 88.744425z" fill="rgba(186,0,68,.24705882)"/><path d="M140.33182 150.20925H152.68575V142.01775H140.33182z" style="fill:rgba(186,0,68,.24705882);stroke:rgba(186,0,68,.24705882);stroke-width:.09525;stroke-miterlimit:41.994751"/><path d="M146.7993 146.17065A.47625 .47625 0 00145.8468 146.17065A.47625 .47625 0 00146.7993 146.17065z" fill="rgba(186,0,68,.24705882)"/><path d="M98.58375 102.39375H113.82375V89.43975H98.58375z" style="fill:rgba(186,0,68,.24705882);stroke:rgba(186,0,68,.24705882);stroke-width:.09525;stroke-miterlimit:41.994751"/><path d="M104.70832 95.278575A.47625 .47625 0 00103.75583 95.278575A.47625 .47625 0 00104.70832 95.278575z" fill="rgba(186,0,68,.24705882)"/><path d="M98.58375 108.48975H113.82375V102.39375H98.58375z" style="fill:rgba(186,0,68,.24705882);stroke:rgba(186,0,68,.24705882);stroke-width:.09525;stroke-miterlimit:41.994751"/><path d="M110.109 106.4133A.47625 .47625 0 00109.1565 106.4133A.47625 .47625 0 00110.109 106.4133z" fill="rgba(186,0,68,.24705882)"/><path d="M116.8146 107.12767L104.23207 95.278575" style="fill:none;stroke:rgba(186,0,68,.24705882);stroke-width:.09525;stroke-miterlimit:41.994751"/><path d="M124.9299 107.88967L104.23207 95.278575" style="fill:none;stroke:rgba(186,0,68,.24705882);stroke-width:.09525;stroke-miterlimit:41.994751"/><path d="M116.8146 107.12767L122.28195 94.078425" style="fill:none;stroke:rgba(186,0,68,.24705882);stroke-width:.09525;stroke-miterlimit:41.994751"/><path d="M116.8146 107.12767L118.7958 112.42357" style="fill:none;stroke:rgba(186,0,68,.24705882);stroke-width:.09525;stroke-miterlimit:41.994751"/><path d="M109.89945 127.99695L108.76597 138.61732" style="fill:none;stroke:rgba(186,0,68,.24705882);stroke-width:.09525;stroke-miterlimit:41.994751"/><path d="M104.23207 95.278575L109.63275 106.4133" style="fill:none;stroke:rgba(186,0,68,.24705882);stroke-width:.09525;stroke-miterlimit:41.994751"/><path d="M109.63275 106.4133L122.28195 94.078425" style="fill:none;stroke:rgba(186,0,68,.24705882);stroke-width:.09525;stroke-miterlimit:41.994751"/><path d="M109.63275 106.4133L116.8146 107.12767" style="fill:none;stroke:rgba(186,0,68,.24705882);stroke-width:.09525;stroke-miterlimit:41.994751"/><path d="M109.8423 110.97577L109.63275 106.4133" style="fill:none;stroke:rgba(186,0,68,.24705882);stroke-width:.09525;stroke-miterlimit:41.994751"/><path d="M146.32305 146.17065L131.98792 145.39912" style="fill:none;stroke:rgba(186,0,68,.24705882);stroke-width:.09525;stroke-miterlimit:41.994751"/><path d="M122.3772 88.744425L122.28195 94.078425" style="fill:none;stroke:rgba(186,0,68,.24705882);stroke-width:.09525;stroke-miterlimit:41.994751"/><path d="M109.8423 110.97577L109.96612 121.44375" style="fill:none;stroke:rgba(186,0,68,.24705882);stroke-width:.09525;stroke-miterlimit:41.994751"/><path d="M101.20312 77.238225L103.19385 82.9437" style="fill:none;stroke:rgba(186,0,68,.24705882);stroke-width:.09525;stroke-miterlimit:41.994751"/><path d="M118.74817 122.1486L118.7958 112.42357" style="fill:none;stroke:rgba(186,0,68,.24705882);stroke-width:.09525;stroke-miterlimit:41.994751"/><path d="M101.8413 123.1773L105.8037 123.15825" style="fill:none;stroke:rgba(186,0,68,.24705882);stroke-width:.09525;stroke-miterlimit:41.994751"/><path d="M118.92915 132.7023L118.74817 122.1486" style="fill:none;stroke:rgba(186,0,68,.24705882);stroke-width:.09525;stroke-miterlimit:41.994751"/><path d="M88.2777 105.9561L86.7537 104.52735" style="fill:none;stroke:rgba(186,0,68,.24705882);stroke-width:.09525;stroke-miterlimit:41.994751"/><path d="M89.373075 107.00385L88.2777 105.9561" style="fill:none;stroke:rgba(186,0,68,.24705882);stroke-width:.09525;stroke-miterlimit:41.994751"/><path d="M105.8037 123.15825L109.96612 121.44375" style="fill:none;stroke:rgba(186,0,68,.24705882);stroke-width:.09525;stroke-miterlimit:41.994751"/><path d="M74.133075 103.42245L74.895075 95.2881" style="fill:none;stroke:rgba(186,0,68,.24705882);stroke-width:.09525;stroke-miterlimit:41.994751"/><path d="M120.80558 81.886425L122.3772 88.744425" style="fill:none;stroke:rgba(186,0,68,.24705882);stroke-width:.09525;stroke-miterlimit:41.994751"/><path d="M122.28195 94.078425L104.23207 95.278575" style="fill:none;stroke:rgba(186,0,68,.24705882);stroke-width:.09525;stroke-miterlimit:41.994751"/><path d="M103.19385 82.9437L120.80558 81.886425" style="fill:none;stroke:rgba(186,0,68,.24705882);stroke-width:.09525;stroke-miterlimit:41.994751"/><path d="M122.28195 94.078425L124.9299 107.88967" style="fill:none;stroke:rgba(186,0,68,.24705882);stroke-width:.09525;stroke-miterlimit:41.994751"/><path d="M73.618725 86.058375L74.895075 95.2881" style="fill:none;stroke:rgba(186,0,68,.24705882);stroke-width:.09525;stroke-miterlimit:41.994751"/><path d="M73.961625 109.48987L74.133075 103.42245" style="fill:none;stroke:rgba(186,0,68,.24705882);stroke-width:.09525;stroke-miterlimit:41.994751"/><path d="M124.9299 107.88967L124.21552 112.7379" style="fill:none;stroke:rgba(186,0,68,.24705882);stroke-width:.09525;stroke-miterlimit:41.994751"/><path d="M116.8146 107.12767L124.9299 107.88967" style="fill:none;stroke:rgba(186,0,68,.24705882);stroke-width:.09525;stroke-miterlimit:41.994751"/><path d="M119.30062 137.40765L118.92915 132.7023" style="fill:none;stroke:rgba(186,0,68,.24705882);stroke-width:.09525;stroke-miterlimit:41.994751"/><path d="M119.30062 137.40765L124.71082 137.22668" style="fill:none;stroke:rgba(186,0,68,.24705882);stroke-width:.09525;stroke-miterlimit:41.994751"/><path d="M124.9299 107.88967L138.27443 100.57447" style="fill:none;stroke:rgba(186,0,68,.24705882);stroke-width:.09525;stroke-miterlimit:41.994751"/><path d="M101.56507 73.6473L101.20312 77.238225" style="fill:none;stroke:rgba(186,0,68,.24705882);stroke-width:.09525;stroke-miterlimit:41.994751"/><path d="M131.98792 145.39912L121.7295 146.38972" style="fill:none;stroke:rgba(186,0,68,.24705882);stroke-width:.09525;stroke-miterlimit:41.994751"/><path d="M115.8621 137.2743L119.30062 137.40765" style="fill:none;stroke:rgba(186,0,68,.24705882);stroke-width:.09525;stroke-miterlimit:41.994751"/><path d="M138.27443 100.57447L122.28195 94.078425" style="fill:none;stroke:rgba(186,0,68,.24705882);stroke-width:.09525;stroke-miterlimit:41.994751"/><path d="M138.27443 100.57447L139.37932 115.1001" style="fill:none;stroke:rgba(186,0,68,.24705882);stroke-width:.09525;stroke-miterlimit:41.994751"/><path d="M86.7537 104.52735L85.78215 103.62247" style="fill:none;stroke:rgba(186,0,68,.24705882);stroke-width:.09525;stroke-miterlimit:41.994751"/><path d="M108.76597 138.61732L115.8621 137.2743" style="fill:none;stroke:rgba(186,0,68,.24705882);stroke-width:.09525;stroke-miterlimit:41.994751"/><path d="M139.37932 115.1001L139.70317 118.88152" style="fill:none;stroke:rgba(186,0,68,.24705882);stroke-width:.09525;stroke-miterlimit:41.994751"/><path d="M85.78215 103.62247L87.57285 89.1159" style="fill:none;stroke:rgba(186,0,68,.24705882);stroke-width:.09525;stroke-miterlimit:41.994751"/><path d="M139.70317 118.88152L138.99832 131.2926" style="fill:none;stroke:rgba(186,0,68,.24705882);stroke-width:.09525;stroke-miterlimit:41.994751"/><path d="M121.7295 146.38972L120.94845 141.5034" style="fill:none;stroke:rgba(186,0,68,.24705882);stroke-width:.09525;stroke-miterlimit:41.994751"/><path d="M87.57285 89.1159L74.895075 95.2881" style="fill:none;stroke:rgba(186,0,68,.24705882);stroke-width:.09525;stroke-miterlimit:41.994751"/><path d="M120.94845 141.5034L119.30062 137.40765" style="fill:none;stroke:rgba(186,0,68,.24705882);stroke-width:.09525;stroke-miterlimit:41.994751"/><path d="M120.94845 141.5034L124.71082 137.22668" style="fill:none;stroke:rgba(186,0,68,.24705882);stroke-width:.09525;stroke-miterlimit:41.994751"/><path d="M84.229575 132.14985L92.516325 114.95722" style="fill:none;stroke:rgba(186,0,68,.24705882);stroke-width:.09525;stroke-miterlimit:41.994751"/><path d="M92.516325 114.95722L92.954475 111.53775" style="fill:none;stroke:rgba(186,0,68,.24705882);stroke-width:.09525;stroke-miterlimit:41.994751"/><path d="M127.45403 136.94092L124.71082 137.22668" style="fill:none;stroke:rgba(186,0,68,.24705882);stroke-width:.09525;stroke-miterlimit:41.994751"/><path d="M92.954475 111.53775L89.373075 107.00385" style="fill:none;stroke:rgba(186,0,68,.24705882);stroke-width:.09525;stroke-miterlimit:41.994751"/><path d="M92.954475 111.53775L98.059875 111.26152" style="fill:none;stroke:rgba(186,0,68,.24705882);stroke-width:.09525;stroke-miterlimit:41.994751"/><path d="M127.45403 136.94092L138.99832 131.2926" style="fill:none;stroke:rgba(186,0,68,.24705882);stroke-width:.09525;stroke-miterlimit:41.994751"/><path d="M98.059875 111.26152L109.8423 110.97577" style="fill:none;stroke:rgba(186,0,68,.24705882);stroke-width:.09525;stroke-miterlimit:41.994751"/><path d="M73.561575 78.04785L73.618725 86.058375" style="fill:none;stroke:rgba(186,0,68,.24705882);stroke-width:.09525;stroke-miterlimit:41.994751"/><path d="M109.96612 121.44375L109.89945 127.99695" style="fill:none;stroke:rgba(186,0,68,.24705882);stroke-width:.09525;stroke-miterlimit:41.994751"/><path d="M124.69177 132.95947L124.71082 137.22668" style="fill:none;stroke:rgba(186,0,68,.24705882);stroke-width:.09525;stroke-miterlimit:41.994751"/><path d="M109.16602 149.99017L134.0358 159.76282" style="fill:none;stroke:rgba(182,0,68,.24705882);stroke-width:.09525;stroke-miterlimit:41.994751"/><path d="M94.62135 161.07727L104.93693 149.87587" style="fill:none;stroke:rgba(182,0,68,.24705882);stroke-width:.09525;stroke-miterlimit:41.994751"/><path d="M109.16602 149.99017L94.62135 161.07727" style="fill:none;stroke:rgba(182,0,68,.24705882);stroke-width:.09525;stroke-miterlimit:41.994751"/><path d="M125.16802 132.95947A.47625 .47625 0 00124.21552 132.95947A.47625 .47625 0 00125.16802 132.95947z" fill="rgba(182,0,72,.24705882)"/><path d="M145.38008 89.154L138.27443 100.57447" style="fill:none;stroke:rgba(182,0,72,.24705882);stroke-width:.09525;stroke-miterlimit:41.994751"/><path d="M108.76597 138.61732L109.16602 149.99017" style="fill:none;stroke:rgba(182,0,72,.24705882);stroke-width:.09525;stroke-miterlimit:41.994751"/><path d="M146.32305 146.17065L145.30388 141.62722" style="fill:none;stroke:rgba(182,0,72,.24705882);stroke-width:.09525;stroke-miterlimit:41.994751"/><path d="M138.27443 100.57447L135.32167 89.13495" style="fill:none;stroke:rgba(182,0,72,.24705882);stroke-width:.09525;stroke-miterlimit:41.994751"/><path d="M138.27443 100.57447L140.40803 89.354025" style="fill:none;stroke:rgba(182,0,72,.24705882);stroke-width:.09525;stroke-miterlimit:41.994751"/><path d="M104.93693 149.87587L108.76597 138.61732" style="fill:none;stroke:rgba(182,0,72,.24705882);stroke-width:.09525;stroke-miterlimit:41.994751"/><path d="M145.30388 141.62722L138.99832 131.2926" style="fill:none;stroke:rgba(182,0,72,.24705882);stroke-width:.09525;stroke-miterlimit:41.994751"/><path d="M90.9828 64.7319L87.57285 89.1159" style="fill:none;stroke:rgba(182,0,72,.24705882);stroke-width:.09525;stroke-miterlimit:41.994751"/><path d="M131.58787 141.6939L131.98792 145.39912" style="fill:none;stroke:rgba(182,0,72,.24705882);stroke-width:.09525;stroke-miterlimit:41.994751"/><path d="M138.99832 131.2926L131.58787 141.6939" style="fill:none;stroke:rgba(182,0,72,.24705882);stroke-width:.09525;stroke-miterlimit:41.994751"/><path d="M81.4578 64.6938L87.57285 89.1159" style="fill:none;stroke:rgba(182,0,72,.24705882);stroke-width:.09525;stroke-miterlimit:41.994751"/><path d="M87.57285 89.1159L86.458425 64.77" style="fill:none;stroke:rgba(182,0,72,.24705882);stroke-width:.09525;stroke-miterlimit:41.994751"/><path d="M124.7394 130.63537L124.69177 132.95947" style="fill:none;stroke:rgba(178,0,72,.24705882);stroke-width:.09525;stroke-miterlimit:41.994751"/><path d="M145.78012 141.62723A.47625 .47625 0 00144.82763 141.62723A.47625 .47625 0 00145.78012 141.62723z" fill="rgba(178,0,76,.24705882)"/><path d="M140.88428 89.354025A.47625 .47625 0 00139.93178 89.354025A.47625 .47625 0 00140.88428 89.354025z" fill="rgba(178,0,76,.24705882)"/><path d="M105.41317 149.87588A.47625 .47625 0 00104.46068 149.87588A.47625 .47625 0 00105.41317 149.87588z" fill="rgba(178,0,76,.24705882)"/><path d="M135.79792 89.13495A.47625 .47625 0 00134.84543 89.13495A.47625 .47625 0 00135.79792 89.13495z" fill="rgba(178,0,76,.24705882)"/><path d="M109.64227 149.99017A.47625 .47625 0 00108.68977 149.99017A.47625 .47625 0 00109.64227 149.99017z" fill="rgba(178,0,76,.24705882)"/><path d="M145.85632 89.154A.47625 .47625 0 00144.90383 89.154A.47625 .47625 0 00145.85632 89.154z" fill="rgba(178,0,76,.24705882)"/><path d="M91.45905 64.7319A.47625 .47625 0 0090.50655 64.7319A.47625 .47625 0 0091.45905 64.7319z" fill="rgba(178,0,76,.24705882)"/><path d="M132.06412 141.6939A.47625 .47625 0 00131.11163 141.6939A.47625 .47625 0 00132.06412 141.6939z" fill="rgba(178,0,76,.24705882)"/><path d="M81.93405 64.6938A.47625 .47625 0 0080.98155 64.6938A.47625 .47625 0 0081.93405 64.6938z" fill="rgba(178,0,76,.24705882)"/><path d="M86.934675 64.77A.47625 .47625 0 0085.982175 64.77A.47625 .47625 0 0086.934675 64.77z" fill="rgba(178,0,76,.24705882)"/><path d="M125.21565 130.63538A.47625 .47625 0 00124.26315 130.63538A.47625 .47625 0 00125.21565 130.63538z" fill="rgba(178,0,76,.24705882)"/><path d="M124.67272 129.25425L124.7394 130.63537" style="fill:none;stroke:rgba(174,0,80,.24705882);stroke-width:.09525;stroke-miterlimit:41.994751"/><path d="M69.9897 109.74705L73.961625 109.48987" style="fill:none;stroke:rgba(170,0,85,.24705882);stroke-width:.09525;stroke-miterlimit:41.994751"/><path d="M125.14897 129.25425A.47625 .47625 0 00124.19647 129.25425A.47625 .47625 0 00125.14897 129.25425z" fill="rgba(170,0,85,.24705882)"/><path d="M124.7013 126.31102L124.67272 129.25425" style="fill:none;stroke:rgba(165,0,89,.24705882);stroke-width:.09525;stroke-miterlimit:41.994751"/><path d="M125.17755 126.31103A.47625 .47625 0 00124.22505 126.31103A.47625 .47625 0 00125.17755 126.31103z" fill="rgba(161,0,93,.24705882)"/><path d="M124.71082 123.49162L124.7013 126.31102" style="fill:none;stroke:rgba(157,0,97,.24705882);stroke-width:.09525;stroke-miterlimit:41.994751"/><path d="M70.46595 109.74705A.47625 .47625 0 0069.51345 109.74705A.47625 .47625 0 0070.46595 109.74705z" fill="rgba(153,0,97,.24705882)"/><path d="M125.18707 123.49162A.47625 .47625 0 00124.23458 123.49162A.47625 .47625 0 00125.18707 123.49162z" fill="rgba(149,0,105,.24705882)"/><path d="M124.60605 119.91975L124.71082 123.49162" style="fill:none;stroke:rgba(145,0,109,.24705882);stroke-width:.09525;stroke-miterlimit:41.994751"/><path d="M125.0823 119.91975A.47625 .47625 0 00124.1298 119.91975A.47625 .47625 0 00125.0823 119.91975z" fill="rgba(137,0,113,.24705882)"/><path d="M124.53937 117.5004L124.60605 119.91975" style="fill:none;stroke:rgba(133,0,121,.24705882);stroke-width:.09525;stroke-miterlimit:41.994751"/><path d="M125.01562 117.5004A.47625 .47625 0 00124.06312 117.5004A.47625 .47625 0 00125.01562 117.5004z" fill="rgba(129,0,125,.24705882)"/><path d="M124.53937 115.15725V117.5004" style="fill:none;stroke:rgba(125,0,125,.24705882);stroke-width:.09525;stroke-miterlimit:41.994751"/><path d="M125.01562 115.15725A.47625 .47625 0 00124.06312 115.15725A.47625 .47625 0 00125.01562 115.15725z" fill="rgba(125,0,129,.24705882)"/><path d="M124.44412 113.63325L124.53937 115.15725" style="fill:none;stroke:rgba(121,0,133,.24705882);stroke-width:.09525;stroke-miterlimit:41.994751"/><path d="M116.49075 150.20925H132.207V142.01775H116.49075z" style="fill:rgba(121,0,133,.24705882);stroke:rgba(121,0,133,.24705882);stroke-width:.09525;stroke-miterlimit:41.994751"/><path d="M127.32067 146.44687A.47625 .47625 0 00126.36818 146.44687A.47625 .47625 0 00127.32067 146.44687z" fill="rgba(121,0,133,.24705882)"/><path d="M140.2461 146.4183L126.84443 146.44687" style="fill:none;stroke:rgba(121,0,133,.24705882);stroke-width:.09525;stroke-miterlimit:41.994751"/><path d="M132.3594 150.20925H152.68575V142.01775H132.3594z" style="fill:rgba(121,0,133,.24705882);stroke:rgba(121,0,133,.24705882);stroke-width:.09525;stroke-miterlimit:41.994751"/><path d="M140.72235 146.4183A.47625 .47625 0 00139.76985 146.4183A.47625 .47625 0 00140.72235 146.4183z" fill="rgba(121,0,133,.24705882)"/><path d="M118.50052 110.35665A.47625 .47625 0 00117.54802 110.35665A.47625 .47625 0 00118.50052 110.35665z" fill="rgba(117,0,137,.24705882)"/><path d="M98.58375 141.25575H115.72875V130.01625H98.58375z" style="fill:rgba(117,0,137,.24705882);stroke:rgba(117,0,137,.24705882);stroke-width:.09525;stroke-miterlimit:41.994751"/><path d="M109.28032 135.20738A.47625 .47625 0 00108.32783 135.20738A.47625 .47625 0 00109.28032 135.20738z" fill="rgba(117,0,137,.24705882)"/><path d="M108.83265 109.32795A.47625 .47625 0 00107.88015 109.32795A.47625 .47625 0 00108.83265 109.32795z" fill="rgba(117,0,137,.24705882)"/><path d="M113.63325 109.58513A.47625 .47625 0 00112.68075 109.58513A.47625 .47625 0 00113.63325 109.58513z" fill="rgba(117,0,137,.24705882)"/><path d="M98.58375 117.348H103.9368V109.82325H98.58375z" style="fill:rgba(117,0,137,.24705882);stroke:rgba(117,0,137,.24705882);stroke-width:.09525;stroke-miterlimit:41.994751"/><path d="M102.9462 113.81422A.47625 .47625 0 00101.9937 113.81422A.47625 .47625 0 00102.9462 113.81422z" fill="rgba(117,0,137,.24705882)"/><path d="M140.90332 119.18632A.47625 .47625 0 00139.95083 119.18632A.47625 .47625 0 00140.90332 119.18632z" fill="rgba(117,0,137,.24705882)"/><path d="M123.0249 106.89907A.47625 .47625 0 00122.0724 106.89907A.47625 .47625 0 00123.0249 106.89907z" fill="rgba(117,0,137,.24705882)"/><path d="M143.92275 128.30175H151.92375V119.634H143.92275z" style="fill:rgba(117,0,137,.24705882);stroke:rgba(117,0,137,.24705882);stroke-width:.09525;stroke-miterlimit:41.994751"/><path d="M148.40902 124.12027A.47625 .47625 0 00147.45652 124.12027A.47625 .47625 0 00148.40902 124.12027z" fill="rgba(117,0,137,.24705882)"/><path d="M98.39325 125.25375H107.72775V118.11H98.39325z" style="fill:rgba(117,0,137,.24705882);stroke:rgba(117,0,137,.24705882);stroke-width:.09525;stroke-miterlimit:41.994751"/><path d="M103.61295 121.63425A.47625 .47625 0 00102.66045 121.63425A.47625 .47625 0 00103.61295 121.63425z" fill="rgba(117,0,137,.24705882)"/><path d="M101.8413 125.64427A.47625 .47625 0 00100.8888 125.64427A.47625 .47625 0 00101.8413 125.64427z" fill="rgba(117,0,137,.24705882)"/><path d="M120.84367 109.78515A.47625 .47625 0 00119.89118 109.78515A.47625 .47625 0 00120.84367 109.78515z" fill="rgba(117,0,137,.24705882)"/><path d="M113.2713 121.26278A.47625 .47625 0 00112.3188 121.26278A.47625 .47625 0 00113.2713 121.26278z" fill="rgba(117,0,137,.24705882)"/><path d="M108.48975 130.01625H115.72875V121.82475H108.48975z" style="fill:rgba(117,0,137,.24705882);stroke:rgba(117,0,137,.24705882);stroke-width:.09525;stroke-miterlimit:41.994751"/><path d="M112.64265 123.77737A.47625 .47625 0 00111.69015 123.77737A.47625 .47625 0 00112.64265 123.77737z" fill="rgba(117,0,137,.24705882)"/><path d="M137.63625 128.30175H143.92275V119.634H137.63625z" style="fill:rgba(117,0,137,.24705882);stroke:rgba(117,0,137,.24705882);stroke-width:.09525;stroke-miterlimit:41.994751"/><path d="M141.17002 125.0061A.47625 .47625 0 00140.21752 125.0061A.47625 .47625 0 00141.17002 125.0061z" fill="rgba(117,0,137,.24705882)"/><path d="M98.58375 106.4895H118.96725V89.43975H98.58375z" style="fill:rgba(117,0,137,.24705882);stroke:rgba(117,0,137,.24705882);stroke-width:.09525;stroke-miterlimit:41.994751"/><path d="M109.74705 97.678875A.47625 .47625 0 00108.79455 97.678875A.47625 .47625 0 00109.74705 97.678875z" fill="rgba(117,0,137,.24705882)"/><path d="M137.77912 125.8443A.47625 .47625 0 00136.82663 125.8443A.47625 .47625 0 00137.77912 125.8443z" fill="rgba(117,0,137,.24705882)"/><path d="M118.09095 112.3188A.47625 .47625 0 00117.13845 112.3188A.47625 .47625 0 00118.09095 112.3188z" fill="rgba(117,0,137,.24705882)"/><path d="M124.92037 113.63325A.47625 .47625 0 00123.96788 113.63325A.47625 .47625 0 00124.92037 113.63325z" fill="rgba(117,0,137,.24705882)"/><path d="M98.58375 109.06125H104.72737V106.4895H98.58375z" style="fill:rgba(117,0,137,.24705882);stroke:rgba(117,0,137,.24705882);stroke-width:.09525;stroke-miterlimit:41.994751"/><path d="M103.42245 107.62297A.47625 .47625 0 00102.46995 107.62297A.47625 .47625 0 00103.42245 107.62297z" fill="rgba(117,0,137,.24705882)"/><path d="M115.72875 141.25575H126.96825V130.01625H115.72875z" style="fill:rgba(117,0,137,.24705882);stroke:rgba(117,0,137,.24705882);stroke-width:.09525;stroke-miterlimit:41.994751"/><path d="M120.6627 135.3693A.47625 .47625 0 00119.7102 135.3693A.47625 .47625 0 00120.6627 135.3693z" fill="rgba(117,0,137,.24705882)"/><path d="M98.58375 130.01625H108.48975V126.01575H98.58375z" style="fill:rgba(117,0,137,.24705882);stroke:rgba(117,0,137,.24705882);stroke-width:.09525;stroke-miterlimit:41.994751"/><path d="M102.57472 127.7493A.47625 .47625 0 00101.62223 127.7493A.47625 .47625 0 00102.57472 127.7493z" fill="rgba(117,0,137,.24705882)"/><path d="M129.17805 110.0709A.47625 .47625 0 00128.22555 110.0709A.47625 .47625 0 00129.17805 110.0709z" fill="rgba(117,0,137,.24705882)"/><path d="M119.72925 106.4895H128.30175V89.43975H119.72925z" style="fill:rgba(117,0,137,.24705882);stroke:rgba(117,0,137,.24705882);stroke-width:.09525;stroke-miterlimit:41.994751"/><path d="M123.20587 100.59352A.47625 .47625 0 00122.25338 100.59352A.47625 .47625 0 00123.20587 100.59352z" fill="rgba(117,0,137,.24705882)"/><path d="M137.63625 133.63575H151.92375V128.30175H137.63625z" style="fill:rgba(117,0,137,.24705882);stroke:rgba(117,0,137,.24705882);stroke-width:.09525;stroke-miterlimit:41.994751"/><path d="M145.6563 131.31165A.47625 .47625 0 00144.7038 131.31165A.47625 .47625 0 00145.6563 131.31165z" fill="rgba(117,0,137,.24705882)"/><path d="M98.58375 149.44725H115.72875V141.25575H98.58375z" style="fill:rgba(117,0,137,.24705882);stroke:rgba(117,0,137,.24705882);stroke-width:.09525;stroke-miterlimit:41.994751"/><path d="M107.9373 145.43723A.47625 .47625 0 00106.9848 145.43723A.47625 .47625 0 00107.9373 145.43723z" fill="rgba(117,0,137,.24705882)"/><path d="M110.2995 121.06275H121.06275V112.68075H110.2995z" style="fill:rgba(117,0,137,.24705882);stroke:rgba(117,0,137,.24705882);stroke-width:.09525;stroke-miterlimit:41.994751"/><path d="M116.3955 116.32882A.47625 .47625 0 00115.443 116.32882A.47625 .47625 0 00116.3955 116.32882z" fill="rgba(117,0,137,.24705882)"/><path d="M142.6845 141.25575H151.92375V133.63575H142.6845z" style="fill:rgba(117,0,137,.24705882);stroke:rgba(117,0,137,.24705882);stroke-width:.09525;stroke-miterlimit:41.994751"/><path d="M147.7899 136.5504A.47625 .47625 0 00146.8374 136.5504A.47625 .47625 0 00147.7899 136.5504z" fill="rgba(117,0,137,.24705882)"/><path d="M127.73025 141.25575H136.87425V119.634H127.73025z" style="fill:rgba(117,0,137,.24705882);stroke:rgba(117,0,137,.24705882);stroke-width:.09525;stroke-miterlimit:41.994751"/><path d="M132.49275 125.4252A.47625 .47625 0 00131.54025 125.4252A.47625 .47625 0 00132.49275 125.4252z" fill="rgba(117,0,137,.24705882)"/><path d="M129.06375 118.872H151.92375V89.43975H129.06375z" style="fill:rgba(117,0,137,.24705882);stroke:rgba(117,0,137,.24705882);stroke-width:.09525;stroke-miterlimit:41.994751"/><path d="M140.33182 109.81372A.47625 .47625 0 00139.37932 109.81372A.47625 .47625 0 00140.33182 109.81372z" fill="rgba(117,0,137,.24705882)"/><path d="M137.63625 141.25575H141.9225V134.39775H137.63625z" style="fill:rgba(117,0,137,.24705882);stroke:rgba(117,0,137,.24705882);stroke-width:.09525;stroke-miterlimit:41.994751"/><path d="M139.68412 138.54112A.47625 .47625 0 00138.73163 138.54112A.47625 .47625 0 00139.68412 138.54112z" fill="rgba(117,0,137,.24705882)"/><path d="M103.94633 117.348H107.72775V114.38572H103.94633z" style="fill:rgba(117,0,137,.24705882);stroke:rgba(117,0,137,.24705882);stroke-width:.09525;stroke-miterlimit:41.994751"/><path d="M106.68952 114.93818A.47625 .47625 0 00105.73703 114.93818A.47625 .47625 0 00106.68952 114.93818z" fill="rgba(117,0,137,.24705882)"/><path d="M121.06275 112.68075H128.30175V107.2515H121.06275z" style="fill:rgba(117,0,137,.24705882);stroke:rgba(117,0,137,.24705882);stroke-width:.09525;stroke-miterlimit:41.994751"/><path d="M124.95847 110.2614A.47625 .47625 0 00124.00598 110.2614A.47625 .47625 0 00124.95847 110.2614z" fill="rgba(117,0,137,.24705882)"/><path d="M117.6147 112.3188L115.91925 116.32882" style="fill:none;stroke:rgba(117,0,137,.24705882);stroke-width:.09525;stroke-miterlimit:41.994751"/><path d="M120.36742 109.78515L118.02427 110.35665" style="fill:none;stroke:rgba(117,0,137,.24705882);stroke-width:.09525;stroke-miterlimit:41.994751"/><path d="M124.48222 110.2614L124.44412 113.63325" style="fill:none;stroke:rgba(117,0,137,.24705882);stroke-width:.09525;stroke-miterlimit:41.994751"/><path d="M124.48222 110.2614L120.36742 109.78515" style="fill:none;stroke:rgba(117,0,137,.24705882);stroke-width:.09525;stroke-miterlimit:41.994751"/><path d="M106.21327 114.93817L102.46995 113.81422" style="fill:none;stroke:rgba(117,0,137,.24705882);stroke-width:.09525;stroke-miterlimit:41.994751"/><path d="M147.31365 136.5504L145.18005 131.31165" style="fill:none;stroke:rgba(117,0,137,.24705882);stroke-width:.09525;stroke-miterlimit:41.994751"/><path d="M145.18005 131.31165L147.93277 124.12027" style="fill:none;stroke:rgba(117,0,137,.24705882);stroke-width:.09525;stroke-miterlimit:41.994751"/><path d="M145.18005 131.31165L140.69377 125.0061" style="fill:none;stroke:rgba(117,0,137,.24705882);stroke-width:.09525;stroke-miterlimit:41.994751"/><path d="M102.09847 127.7493L108.80407 135.20737" style="fill:none;stroke:rgba(117,0,137,.24705882);stroke-width:.09525;stroke-miterlimit:41.994751"/><path d="M102.9462 107.62297L109.2708 97.678875" style="fill:none;stroke:rgba(117,0,137,.24705882);stroke-width:.09525;stroke-miterlimit:41.994751"/><path d="M117.6147 112.3188L113.157 109.58512" style="fill:none;stroke:rgba(117,0,137,.24705882);stroke-width:.09525;stroke-miterlimit:41.994751"/><path d="M108.80407 135.20737L107.46105 145.43722" style="fill:none;stroke:rgba(117,0,137,.24705882);stroke-width:.09525;stroke-miterlimit:41.994751"/><path d="M108.80407 135.20737L120.18645 135.3693" style="fill:none;stroke:rgba(117,0,137,.24705882);stroke-width:.09525;stroke-miterlimit:41.994751"/><path d="M108.80407 135.20737L112.1664 123.77737" style="fill:none;stroke:rgba(117,0,137,.24705882);stroke-width:.09525;stroke-miterlimit:41.994751"/><path d="M118.02427 110.35665L117.6147 112.3188" style="fill:none;stroke:rgba(117,0,137,.24705882);stroke-width:.09525;stroke-miterlimit:41.994751"/><path d="M112.1664 123.77737L112.79505 121.26277" style="fill:none;stroke:rgba(117,0,137,.24705882);stroke-width:.09525;stroke-miterlimit:41.994751"/><path d="M118.02427 110.35665L113.157 109.58512" style="fill:none;stroke:rgba(117,0,137,.24705882);stroke-width:.09525;stroke-miterlimit:41.994751"/><path d="M112.79505 121.26277L115.91925 116.32882" style="fill:none;stroke:rgba(117,0,137,.24705882);stroke-width:.09525;stroke-miterlimit:41.994751"/><path d="M120.36742 109.78515L117.6147 112.3188" style="fill:none;stroke:rgba(117,0,137,.24705882);stroke-width:.09525;stroke-miterlimit:41.994751"/><path d="M101.36505 125.64427L102.09847 127.7493" style="fill:none;stroke:rgba(117,0,137,.24705882);stroke-width:.09525;stroke-miterlimit:41.994751"/><path d="M137.30288 125.8443L140.69377 125.0061" style="fill:none;stroke:rgba(117,0,137,.24705882);stroke-width:.09525;stroke-miterlimit:41.994751"/><path d="M122.72962 100.59352L122.54865 106.89907" style="fill:none;stroke:rgba(117,0,137,.24705882);stroke-width:.09525;stroke-miterlimit:41.994751"/><path d="M103.1367 121.63425L101.36505 125.64427" style="fill:none;stroke:rgba(117,0,137,.24705882);stroke-width:.09525;stroke-miterlimit:41.994751"/><path d="M140.69377 125.0061L140.42708 119.18632" style="fill:none;stroke:rgba(117,0,137,.24705882);stroke-width:.09525;stroke-miterlimit:41.994751"/><path d="M122.54865 106.89907L124.48222 110.2614" style="fill:none;stroke:rgba(117,0,137,.24705882);stroke-width:.09525;stroke-miterlimit:41.994751"/><path d="M140.42708 119.18632L139.85557 109.81372" style="fill:none;stroke:rgba(117,0,137,.24705882);stroke-width:.09525;stroke-miterlimit:41.994751"/><path d="M137.30288 125.8443L132.0165 125.4252" style="fill:none;stroke:rgba(117,0,137,.24705882);stroke-width:.09525;stroke-miterlimit:41.994751"/><path d="M113.157 109.58512L109.2708 97.678875" style="fill:none;stroke:rgba(117,0,137,.24705882);stroke-width:.09525;stroke-miterlimit:41.994751"/><path d="M113.157 109.58512L115.91925 116.32882" style="fill:none;stroke:rgba(117,0,137,.24705882);stroke-width:.09525;stroke-miterlimit:41.994751"/><path d="M139.85557 109.81372L128.7018 110.0709" style="fill:none;stroke:rgba(117,0,137,.24705882);stroke-width:.09525;stroke-miterlimit:41.994751"/><path d="M108.3564 109.32795L113.157 109.58512" style="fill:none;stroke:rgba(117,0,137,.24705882);stroke-width:.09525;stroke-miterlimit:41.994751"/><path d="M108.3564 109.32795L109.2708 97.678875" style="fill:none;stroke:rgba(117,0,137,.24705882);stroke-width:.09525;stroke-miterlimit:41.994751"/><path d="M128.7018 110.0709L124.48222 110.2614" style="fill:none;stroke:rgba(117,0,137,.24705882);stroke-width:.09525;stroke-miterlimit:41.994751"/><path d="M102.46995 113.81422L108.3564 109.32795" style="fill:none;stroke:rgba(117,0,137,.24705882);stroke-width:.09525;stroke-miterlimit:41.994751"/><path d="M147.31365 136.5504L142.28445 136.19797" style="fill:none;stroke:rgba(113,0,137,.24705882);stroke-width:.09525;stroke-miterlimit:41.994751"/><path d="M142.28445 136.19797L139.20788 138.54112" style="fill:none;stroke:rgba(113,0,137,.24705882);stroke-width:.09525;stroke-miterlimit:41.994751"/><path d="M69.62775 150.20925H97.82175V129.70192H69.62775z" style="fill:rgba(113,0,141,.24705882);stroke:rgba(113,0,141,.24705882);stroke-width:.09525;stroke-miterlimit:41.994751"/><path d="M85.163025 149.28533A.47625 .47625 0 0084.210525 149.28533A.47625 .47625 0 0085.163025 149.28533z" fill="rgba(113,0,141,.24705882)"/><path d="M98.58375 88.67775H127.15875V76.67625H98.58375z" style="fill:rgba(113,0,141,.24705882);stroke:rgba(113,0,141,.24705882);stroke-width:.09525;stroke-miterlimit:41.994751"/><path d="M109.02315 82.8294A.47625 .47625 0 00108.07065 82.8294A.47625 .47625 0 00109.02315 82.8294z" fill="rgba(113,0,141,.24705882)"/><path d="M126.84443 146.44687L132.53085 141.62722" style="fill:none;stroke:rgba(113,0,141,.24705882);stroke-width:.09525;stroke-miterlimit:41.994751"/><path d="M126.84443 146.44687L121.70092 141.58912" style="fill:none;stroke:rgba(113,0,141,.24705882);stroke-width:.09525;stroke-miterlimit:41.994751"/><path d="M140.2461 146.4183L132.53085 141.62722" style="fill:none;stroke:rgba(113,0,141,.24705882);stroke-width:.09525;stroke-miterlimit:41.994751"/><path d="M146.13255 141.52245L140.2461 146.4183" style="fill:none;stroke:rgba(113,0,141,.24705882);stroke-width:.09525;stroke-miterlimit:41.994751"/><path d="M142.7607 136.19797A.47625 .47625 0 00141.8082 136.19797A.47625 .47625 0 00142.7607 136.19797z" fill="rgba(113,0,141,.24705882)"/><path d="M140.25563 89.0016L139.85557 109.81372" style="fill:none;stroke:rgba(113,0,141,.24705882);stroke-width:.09525;stroke-miterlimit:41.994751"/><path d="M132.0165 125.4252L132.53085 141.62722" style="fill:none;stroke:rgba(113,0,141,.24705882);stroke-width:.09525;stroke-miterlimit:41.994751"/><path d="M110.65192 89.049225L109.2708 97.678875" style="fill:none;stroke:rgba(113,0,141,.24705882);stroke-width:.09525;stroke-miterlimit:41.994751"/><path d="M139.85557 109.81372L144.91335 89.0397" style="fill:none;stroke:rgba(113,0,141,.24705882);stroke-width:.09525;stroke-miterlimit:41.994751"/><path d="M109.2708 97.678875L105.69892 89.068275" style="fill:none;stroke:rgba(113,0,141,.24705882);stroke-width:.09525;stroke-miterlimit:41.994751"/><path d="M139.85557 109.81372L135.3312 89.144475" style="fill:none;stroke:rgba(113,0,141,.24705882);stroke-width:.09525;stroke-miterlimit:41.994751"/><path d="M139.85557 109.81372L152.27617 110.27092" style="fill:none;stroke:rgba(113,0,141,.24705882);stroke-width:.09525;stroke-miterlimit:41.994751"/><path d="M146.13255 141.52245L147.31365 136.5504" style="fill:none;stroke:rgba(113,0,141,.24705882);stroke-width:.09525;stroke-miterlimit:41.994751"/><path d="M120.18645 135.3693L121.70092 141.58912" style="fill:none;stroke:rgba(113,0,141,.24705882);stroke-width:.09525;stroke-miterlimit:41.994751"/><path d="M107.46105 145.43722L109.26127 149.68537" style="fill:none;stroke:rgba(113,0,141,.24705882);stroke-width:.09525;stroke-miterlimit:41.994751"/><path d="M107.46105 145.43722L105.16552 149.82825" style="fill:none;stroke:rgba(113,0,141,.24705882);stroke-width:.09525;stroke-miterlimit:41.994751"/><path d="M108.5469 82.8294L105.69892 89.068275" style="fill:none;stroke:rgba(109,0,141,.24705882);stroke-width:.09525;stroke-miterlimit:41.994751"/><path d="M108.5469 82.8294L110.65192 89.049225" style="fill:none;stroke:rgba(109,0,141,.24705882);stroke-width:.09525;stroke-miterlimit:41.994751"/><path d="M108.5469 82.8294L94.5642 79.4766" style="fill:none;stroke:rgba(109,0,145,.24705882);stroke-width:.09525;stroke-miterlimit:41.994751"/><path d="M105.64177 149.82825A.47625 .47625 0 00104.68927 149.82825A.47625 .47625 0 00105.64177 149.82825z" fill="rgba(105,0,145,.24705882)"/><path d="M133.0071 141.62723A.47625 .47625 0 00132.0546 141.62723A.47625 .47625 0 00133.0071 141.62723z" fill="rgba(105,0,145,.24705882)"/><path d="M109.73752 149.68537A.47625 .47625 0 00108.78503 149.68537A.47625 .47625 0 00109.73752 149.68537z" fill="rgba(105,0,145,.24705882)"/><path d="M140.73188 89.0016A.47625 .47625 0 00139.77938 89.0016A.47625 .47625 0 00140.73188 89.0016z" fill="rgba(105,0,145,.24705882)"/><path d="M145.3896 89.0397A.47625 .47625 0 00144.4371 89.0397A.47625 .47625 0 00145.3896 89.0397z" fill="rgba(105,0,145,.24705882)"/><path d="M122.17717 141.58912A.47625 .47625 0 00121.22468 141.58912A.47625 .47625 0 00122.17717 141.58912z" fill="rgba(105,0,145,.24705882)"/><path d="M146.6088 141.52245A.47625 .47625 0 00145.6563 141.52245A.47625 .47625 0 00146.6088 141.52245z" fill="rgba(105,0,145,.24705882)"/><path d="M106.17517 89.068275A.47625 .47625 0 00105.22267 89.068275A.47625 .47625 0 00106.17517 89.068275z" fill="rgba(105,0,145,.24705882)"/><path d="M152.75242 110.27092A.47625 .47625 0 00151.79993 110.27092A.47625 .47625 0 00152.75242 110.27092z" fill="rgba(105,0,145,.24705882)"/><path d="M111.12817 89.049225A.47625 .47625 0 00110.17567 89.049225A.47625 .47625 0 00111.12817 89.049225z" fill="rgba(105,0,145,.24705882)"/><path d="M135.80745 89.144475A.47625 .47625 0 00134.85495 89.144475A.47625 .47625 0 00135.80745 89.144475z" fill="rgba(105,0,145,.24705882)"/><path d="M152.30475 125.32995L147.93277 124.12027" style="fill:none;stroke:rgba(101,0,153,.24705882);stroke-width:.09525;stroke-miterlimit:41.994751"/><path d="M92.18295 85.66785H97.7646V64.29375H92.18295z" style="fill:rgba(101,0,153,.24705882);stroke:rgba(101,0,153,.24705882);stroke-width:.09525;stroke-miterlimit:41.994751"/><path d="M95.04045 79.4766A.47625 .47625 0 0094.08795 79.4766A.47625 .47625 0 0095.04045 79.4766z" fill="rgba(101,0,153,.24705882)"/><path d="M70.608825 87.0204H77.447775V64.29375H70.608825z" style="fill:rgba(93,0,157,.24705882);stroke:rgba(93,0,157,.24705882);stroke-width:.09525;stroke-miterlimit:41.994751"/><path d="M75.695175 80.286225A.47625 .47625 0 0074.742675 80.286225A.47625 .47625 0 0075.695175 80.286225z" fill="rgba(93,0,157,.24705882)"/><path d="M94.5642 79.4766L91.0971 80.152875" style="fill:none;stroke:rgba(93,0,161,.24705882);stroke-width:.09525;stroke-miterlimit:41.994751"/><path d="M88.3158 89.296875H92.725875V64.29375H88.3158z" style="fill:rgba(85,0,165,.24705882);stroke:rgba(85,0,165,.24705882);stroke-width:.09525;stroke-miterlimit:41.994751"/><path d="M91.57335 80.152875A.47625 .47625 0 0090.62085 80.152875A.47625 .47625 0 0091.57335 80.152875z" fill="rgba(85,0,165,.24705882)"/><path d="M152.781 125.32995A.47625 .47625 0 00151.8285 125.32995A.47625 .47625 0 00152.781 125.32995z" fill="rgba(85,0,170,.24705882)"/><path d="M80.095725 80.667225L75.218925 80.286225" style="fill:none;stroke:rgba(85,0,170,.24705882);stroke-width:.09525;stroke-miterlimit:41.994751"/><path d="M76.7715 93.202125H81.410175V64.29375H76.7715z" style="fill:rgba(72,0,178,.24705882);stroke:rgba(72,0,178,.24705882);stroke-width:.09525;stroke-miterlimit:41.994751"/><path d="M80.571975 80.667225A.47625 .47625 0 0079.619475 80.667225A.47625 .47625 0 0080.571975 80.667225z" fill="rgba(72,0,178,.24705882)"/><path d="M91.0971 80.152875L84.191475 81.0006" style="fill:none;stroke:rgba(72,0,182,.24705882);stroke-width:.09525;stroke-miterlimit:41.994751"/><path d="M84.191475 81.0006L80.095725 80.667225" style="fill:none;stroke:rgba(64,0,186,.24705882);stroke-width:.09525;stroke-miterlimit:41.994751"/><path d="M81.59115 98.421825H88.79205V64.29375H81.59115z" style="fill:rgba(56,0,198,.24705882);stroke:rgba(56,0,198,.24705882);stroke-width:.09525;stroke-miterlimit:41.994751"/><path d="M84.667725 81.0006A.47625 .47625 0 0083.715225 81.0006A.47625 .47625 0 0084.667725 81.0006z" fill="rgba(56,0,198,.24705882)"/><path d="M84.686775 149.28533L82.12455 115.11915" style="fill:none;stroke:rgba(56,0,198,.24705882);stroke-width:.09525;stroke-miterlimit:41.994751"/><path d="M84.191475 81.0006L116.82412 98.27895" style="fill:none;stroke:rgba(28,0,226,.24705882);stroke-width:.09525;stroke-miterlimit:41.994751"/><path d="M82.12455 115.11915L84.191475 81.0006" style="fill:none;stroke:rgba(28,0,226,.24705882);stroke-width:.09525;stroke-miterlimit:41.994751"/><path d="M97.82175 150.20925H152.68575V88.67775H97.82175z" style="fill:rgba(0,0,255,.24705882);stroke:rgba(0,0,255,.24705882);stroke-width:.09525;stroke-miterlimit:41.994751"/><path d="M117.30037 98.27895A.47625 .47625 0 00116.34788 98.27895A.47625 .47625 0 00117.30037 98.27895z" fill="rgba(0,0,255,.24705882)"/><path d="M69.62775 129.63525H97.82175V98.097975H69.62775z" style="fill:rgba(0,0,255,.24705882);stroke:rgba(0,0,255,.24705882);stroke-width:.09525;stroke-miterlimit:41.994751"/><path d="M82.6008 115.11915A.47625 .47625 0 0081.6483 115.11915A.47625 .47625 0 0082.6008 115.11915z" fill="rgba(0,0,255,.24705882)"/></svg>