<svg version="1.1" width="254.3175mm" height="476.72625mm" viewBox="0 0 254.3175 476.72625" xmlns="http://www.w3.org/2000/svg" xmlns:xlink="http://www.w3.org/1999/xlink"><path d="M132.11175 15.4305H134.01675" style="fill:none;stroke:#f00;stroke-width:.09525;stroke-miterlimit:41.994751"/><path d="M132.11175 15.4305V13.5255" style="fill:none;stroke:#0f0;stroke-width:.09525;stroke-miterlimit:41.994751"/><path d="M113.7666 81.714975H132.34035V73.352025H113.7666z" style="fill:rgba(255,0,0,.24705882);stroke:rgba(255,0,0,.24705882);stroke-width:.09525;stroke-miterlimit:41.994751"/><path d="M123.16777 77.809725A.47625 .47625 0 00122.21528 77.809725A.47625 .47625 0 00123.16777 77.809725z" fill="rgba(255,0,0,.24705882)"/><path d="M132.34035 81.70545H135.91223V73.3425H132.34035z" style="fill:rgba(255,0,0,.24705882);stroke:rgba(255,0,0,.24705882);stroke-width:.09525;stroke-miterlimit:41.994751"/><path d="M134.52157 76.75245A.47625 .47625 0 00133.56907 76.75245A.47625 .47625 0 00134.52157 76.75245z" fill="rgba(255,0,0,.24705882)"/><path d="M122.69152 77.809725L134.04532 76.75245" style="fill:none;stroke:rgba(255,0,0,.24705882);stroke-width:.09525;stroke-miterlimit:41.994751"/><path d="M107.66107 78.076425L122.69152 77.809725" style="fill:none;stroke:rgba(255,0,0,.24705882);stroke-width:.09525;stroke-miterlimit:41.994751"/><path d="M102.43185 93.1545H113.7666V74.1807H102.43185z" style="fill:rgba(255,0,0,.24705882);stroke:rgba(255,0,0,.24705882);stroke-width:.09525;stroke-miterlimit:41.994751"/><path d="M108.13732 78.076425A.47625 .47625 0 00107.18483 78.076425A.47625 .47625 0 00108.13732 78.076425z" fill="rgba(255,0,0,.24705882)"/><path d="M129.87338 77.123925L134.04532 76.75245" style="fill:none;stroke:rgba(214,0,36,.24705882);stroke-width:.09525;stroke-miterlimit:41.994751"/><path d="M135.00735 76.666725L134.04532 76.75245" style="fill:none;stroke:rgba(210,0,44,.24705882);stroke-width:.09525;stroke-miterlimit:41.994751"/><path d="M164.4396 167.05897H189.1665V127.53975H164.4396z" style="fill:rgba(178,0,76,.24705882);stroke:rgba(178,0,76,.24705882);stroke-width:.09525;stroke-miterlimit:41.994751"/><path d="M174.5742 140.3604A.47625 .47625 0 00173.6217 140.3604A.47625 .47625 0 00174.5742 140.3604z" fill="rgba(178,0,76,.24705882)"/><path d="M174.09795 140.3604L190.70955 146.86597" style="fill:none;stroke:rgba(178,0,76,.24705882);stroke-width:.09525;stroke-miterlimit:41.994751"/><path d="M174.09795 140.3604L157.44825 154.0764" style="fill:none;stroke:rgba(178,0,76,.24705882);stroke-width:.09525;stroke-miterlimit:41.994751"/><path d="M136.40752 107.18482A.47625 .47625 0 00135.45503 107.18482A.47625 .47625 0 00136.40752 107.18482z" fill="rgba(174,0,76,.24705882)"/><path d="M147.50415 71.789925A.47625 .47625 0 00146.55165 71.789925A.47625 .47625 0 00147.50415 71.789925z" fill="rgba(174,0,76,.24705882)"/><path d="M168.60202 125.13945H173.52645V116.80508H168.60202z" style="fill:rgba(174,0,76,.24705882);stroke:rgba(174,0,76,.24705882);stroke-width:.09525;stroke-miterlimit:41.994751"/><path d="M170.79278 121.5771A.47625 .47625 0 00169.84028 121.5771A.47625 .47625 0 00170.79278 121.5771z" fill="rgba(174,0,76,.24705882)"/><path d="M207.7212 87.449025A.47625 .47625 0 00206.7687 87.449025A.47625 .47625 0 00207.7212 87.449025z" fill="rgba(174,0,76,.24705882)"/><path d="M189.1284 95.04045A.47625 .47625 0 00188.1759 95.04045A.47625 .47625 0 00189.1284 95.04045z" fill="rgba(174,0,76,.24705882)"/><path d="M151.0665 125.1585H162.02978V109.9185H151.0665z" style="fill:rgba(174,0,76,.24705882);stroke:rgba(174,0,76,.24705882);stroke-width:.09525;stroke-miterlimit:41.994751"/><path d="M157.8102 118.0719A.47625 .47625 0 00156.8577 118.0719A.47625 .47625 0 00157.8102 118.0719z" fill="rgba(174,0,76,.24705882)"/><path d="M162.02978 125.1585H168.60202V109.9185H162.02978z" style="fill:rgba(174,0,76,.24705882);stroke:rgba(174,0,76,.24705882);stroke-width:.09525;stroke-miterlimit:41.994751"/><path d="M164.92538 112.04257A.47625 .47625 0 00163.97288 112.04257A.47625 .47625 0 00164.92538 112.04257z" fill="rgba(174,0,76,.24705882)"/><path d="M69.05625 75.60945H81.810225V54.31155H69.05625z" style="fill:rgba(174,0,76,.24705882);stroke:rgba(174,0,76,.24705882);stroke-width:.09525;stroke-miterlimit:41.994751"/><path d="M74.295 64.017525A.47625 .47625 0 0073.3425 64.017525A.47625 .47625 0 0074.295 64.017525z" fill="rgba(174,0,76,.24705882)"/><path d="M38.99535 186.06135A.47625 .47625 0 0038.04285 186.06135A.47625 .47625 0 0038.99535 186.06135z" fill="rgba(174,0,76,.24705882)"/><path d="M145.94205 153.81923A.47625 .47625 0 00144.98955 153.81923A.47625 .47625 0 00145.94205 153.81923z" fill="rgba(174,0,76,.24705882)"/><path d="M71.5899 38.9001A.47625 .47625 0 0070.6374 38.9001A.47625 .47625 0 0071.5899 38.9001z" fill="rgba(174,0,76,.24705882)"/><path d="M4.962525 86.991825A.47625 .47625 0 004.010025 86.991825A.47625 .47625 0 004.962525 86.991825z" fill="rgba(174,0,76,.24705882)"/><path d="M58.61685 24.107775A.47625 .47625 0 0057.66435 24.107775A.47625 .47625 0 0058.61685 24.107775z" fill="rgba(174,0,76,.24705882)"/><path d="M5.915025 186.1185A.47625 .47625 0 004.962525 186.1185A.47625 .47625 0 005.915025 186.1185z" fill="rgba(174,0,76,.24705882)"/><path d="M13.35405 113.24273A.47625 .47625 0 0012.40155 113.24273A.47625 .47625 0 0013.35405 113.24273z" fill="rgba(174,0,76,.24705882)"/><path d="M10.144125 27.117675A.47625 .47625 0 009.191625 27.117675A.47625 .47625 0 0010.144125 27.117675z" fill="rgba(174,0,76,.24705882)"/><path d="M4.7244 163.95382A.47625 .47625 0 003.7719 163.95382A.47625 .47625 0 004.7244 163.95382z" fill="rgba(174,0,76,.24705882)"/><path d="M124.64415 50.5968H153.40965V18.53565H124.64415z" style="fill:rgba(174,0,76,.24705882);stroke:rgba(174,0,76,.24705882);stroke-width:.09525;stroke-miterlimit:41.994751"/><path d="M140.97952 34.147125A.47625 .47625 0 00140.02703 34.147125A.47625 .47625 0 00140.97952 34.147125z" fill="rgba(174,0,76,.24705882)"/><path d="M92.535375 39.881175H122.95822V23.060025H92.535375z" style="fill:rgba(174,0,76,.24705882);stroke:rgba(174,0,76,.24705882);stroke-width:.09525;stroke-miterlimit:41.994751"/><path d="M104.70833 32.204025A.47625 .47625 0 00103.75583 32.204025A.47625 .47625 0 00104.70833 32.204025z" fill="rgba(174,0,76,.24705882)"/><path d="M140.67472 183.0324A.47625 .47625 0 00139.72223 183.0324A.47625 .47625 0 00140.67472 183.0324z" fill="rgba(174,0,76,.24705882)"/><path d="M138.65542 151.36178A.47625 .47625 0 00137.70292 151.36178A.47625 .47625 0 00138.65542 151.36178z" fill="rgba(174,0,76,.24705882)"/><path d="M124.97752 70.19925H153.01913V50.5968H124.97752z" style="fill:rgba(174,0,76,.24705882);stroke:rgba(174,0,76,.24705882);stroke-width:.09525;stroke-miterlimit:41.994751"/><path d="M141.2748 61.20765A.47625 .47625 0 00140.3223 61.20765A.47625 .47625 0 00141.2748 61.20765z" fill="rgba(174,0,76,.24705882)"/><path d="M57.635775 75.618975H69.046725V54.31155H57.635775z" style="fill:rgba(174,0,76,.24705882);stroke:rgba(174,0,76,.24705882);stroke-width:.09525;stroke-miterlimit:41.994751"/><path d="M67.056 65.2272A.47625 .47625 0 0066.1035 65.2272A.47625 .47625 0 0067.056 65.2272z" fill="rgba(174,0,76,.24705882)"/><path d="M147.4851 167.04945H164.80155V127.4445H147.4851z" style="fill:rgba(174,0,76,.24705882);stroke:rgba(174,0,76,.24705882);stroke-width:.09525;stroke-miterlimit:41.994751"/><path d="M157.9245 154.0764A.47625 .47625 0 00156.972 154.0764A.47625 .47625 0 00157.9245 154.0764z" fill="rgba(174,0,76,.24705882)"/><path d="M35.442525 75.6285H57.62625V53.940075H35.442525z" style="fill:rgba(174,0,76,.24705882);stroke:rgba(174,0,76,.24705882);stroke-width:.09525;stroke-miterlimit:41.994751"/><path d="M48.758475 61.1505A.47625 .47625 0 0047.805975 61.1505A.47625 .47625 0 0048.758475 61.1505z" fill="rgba(174,0,76,.24705882)"/><path d="M145.8468 125.14898H151.0665V111.4425H145.8468z" style="fill:rgba(174,0,76,.24705882);stroke:rgba(174,0,76,.24705882);stroke-width:.09525;stroke-miterlimit:41.994751"/><path d="M150.1521 113.33797A.47625 .47625 0 00149.1996 113.33797A.47625 .47625 0 00150.1521 113.33797z" fill="rgba(174,0,76,.24705882)"/><path d="M35.347275 53.921025H57.4167V17.783175H35.347275z" style="fill:rgba(174,0,76,.24705882);stroke:rgba(174,0,76,.24705882);stroke-width:.09525;stroke-miterlimit:41.994751"/><path d="M48.9966 24.6888A.47625 .47625 0 0048.0441 24.6888A.47625 .47625 0 0048.9966 24.6888z" fill="rgba(174,0,76,.24705882)"/><path d="M54.38775 124.38698H84.1248V77.943075H54.38775z" style="fill:rgba(174,0,76,.24705882);stroke:rgba(174,0,76,.24705882);stroke-width:.09525;stroke-miterlimit:41.994751"/><path d="M72.932925 108.7755A.47625 .47625 0 0071.980425 108.7755A.47625 .47625 0 0072.932925 108.7755z" fill="rgba(174,0,76,.24705882)"/><path d="M.923925 15.497175A.47625 .47625 0 00-.028575 15.497175A.47625 .47625 0 00.923925 15.497175z" fill="rgba(174,0,76,.24705882)"/><path d="M191.57632 149.5425H203.73975V125.1204H191.57632z" style="fill:rgba(174,0,76,.24705882);stroke:rgba(174,0,76,.24705882);stroke-width:.09525;stroke-miterlimit:41.994751"/><path d="M197.06273 142.75117A.47625 .47625 0 00196.11023 142.75117A.47625 .47625 0 00197.06273 142.75117z" fill="rgba(174,0,76,.24705882)"/><path d="M6.7056 1.61925A.47625 .47625 0 005.7531 1.61925A.47625 .47625 0 006.7056 1.61925z" fill="rgba(174,0,76,.24705882)"/><path d="M96.9645 135.80745H107.65155V74.114025H96.9645z" style="fill:rgba(174,0,76,.24705882);stroke:rgba(174,0,76,.24705882);stroke-width:.09525;stroke-miterlimit:41.994751"/><path d="M104.14635 113.54753A.47625 .47625 0 00103.19385 113.54753A.47625 .47625 0 00104.14635 113.54753z" fill="rgba(174,0,76,.24705882)"/><path d="M169.97362 18.049875A.47625 .47625 0 00169.02113 18.049875A.47625 .47625 0 00169.97362 18.049875z" fill="rgba(174,0,76,.24705882)"/><path d="M149.5044 4.162425A.47625 .47625 0 00148.5519 4.162425A.47625 .47625 0 00149.5044 4.162425z" fill="rgba(174,0,76,.24705882)"/><path d="M84.134325 135.80745H96.9645V74.1045H84.134325z" style="fill:rgba(174,0,76,.24705882);stroke:rgba(174,0,76,.24705882);stroke-width:.09525;stroke-miterlimit:41.994751"/><path d="M92.344875 107.2515A.47625 .47625 0 0091.392375 107.2515A.47625 .47625 0 0092.344875 107.2515z" fill="rgba(174,0,76,.24705882)"/><path d="M191.643 125.11088H203.7207V111.45203H191.643z" style="fill:rgba(174,0,76,.24705882);stroke:rgba(174,0,76,.24705882);stroke-width:.09525;stroke-miterlimit:41.994751"/><path d="M198.58673 120.25313A.47625 .47625 0 00197.63423 120.25313A.47625 .47625 0 00198.58673 120.25313z" fill="rgba(174,0,76,.24705882)"/><path d="M72.018525 5.5245A.47625 .47625 0 0071.066025 5.5245A.47625 .47625 0 0072.018525 5.5245z" fill="rgba(174,0,76,.24705882)"/><path d="M171.19282 106.42282A.47625 .47625 0 00170.24033 106.42282A.47625 .47625 0 00171.19282 106.42282z" fill="rgba(174,0,76,.24705882)"/><path d="M71.008875 25.39365A.47625 .47625 0 0070.056375 25.39365A.47625 .47625 0 0071.008875 25.39365z" fill="rgba(174,0,76,.24705882)"/><path d="M191.1858 146.86597A.47625 .47625 0 00190.2333 146.86597A.47625 .47625 0 00191.1858 146.86597z" fill="rgba(174,0,76,.24705882)"/><path d="M92.821125 31.118175A.47625 .47625 0 0091.868625 31.118175A.47625 .47625 0 0092.821125 31.118175z" fill="rgba(174,0,76,.24705882)"/><path d="M83.353275 71.808975H122.76772V39.900225H83.353275z" style="fill:rgba(174,0,76,.24705882);stroke:rgba(174,0,76,.24705882);stroke-width:.09525;stroke-miterlimit:41.994751"/><path d="M106.32757 53.197125A.47625 .47625 0 00105.37508 53.197125A.47625 .47625 0 00106.32757 53.197125z" fill="rgba(174,0,76,.24705882)"/><path d="M150.12353 97.240725A.47625 .47625 0 00149.17103 97.240725A.47625 .47625 0 00150.12353 97.240725z" fill="rgba(174,0,76,.24705882)"/><path d="M107.65155 135.81698H112.53787V74.1045H107.65155z" style="fill:rgba(174,0,76,.24705882);stroke:rgba(174,0,76,.24705882);stroke-width:.09525;stroke-miterlimit:41.994751"/><path d="M110.46142 78.08595A.47625 .47625 0 00109.50893 78.08595A.47625 .47625 0 00110.46142 78.08595z" fill="rgba(174,0,76,.24705882)"/><path d="M110.32807 73.523475A.47625 .47625 0 00109.37558 73.523475A.47625 .47625 0 00110.32807 73.523475z" fill="rgba(174,0,76,.24705882)"/><path d="M112.5474 112.89983H117.63375V74.114025H112.5474z" style="fill:rgba(174,0,76,.24705882);stroke:rgba(174,0,76,.24705882);stroke-width:.09525;stroke-miterlimit:41.994751"/><path d="M115.42395 77.62875A.47625 .47625 0 00114.47145 77.62875A.47625 .47625 0 00115.42395 77.62875z" fill="rgba(174,0,76,.24705882)"/><path d="M115.10962 121.22467A.47625 .47625 0 00114.15713 121.22467A.47625 .47625 0 00115.10962 121.22467z" fill="rgba(174,0,76,.24705882)"/><path d="M133.47383 73.580625A.47625 .47625 0 00132.52133 73.580625A.47625 .47625 0 00133.47383 73.580625z" fill="rgba(174,0,76,.24705882)"/><path d="M215.86507 89.220675A.47625 .47625 0 00214.91258 89.220675A.47625 .47625 0 00215.86507 89.220675z" fill="rgba(174,0,76,.24705882)"/><path d="M134.47395 122.2629A.47625 .47625 0 00133.52145 122.2629A.47625 .47625 0 00134.47395 122.2629z" fill="rgba(174,0,76,.24705882)"/><path d="M231.3051 117.17655A.47625 .47625 0 00230.3526 117.17655A.47625 .47625 0 00231.3051 117.17655z" fill="rgba(174,0,76,.24705882)"/><path d="M208.54987 104.87025A.47625 .47625 0 00207.59737 104.87025A.47625 .47625 0 00208.54987 104.87025z" fill="rgba(174,0,76,.24705882)"/><path d="M169.2783 61.883925A.47625 .47625 0 00168.3258 61.883925A.47625 .47625 0 00169.2783 61.883925z" fill="rgba(174,0,76,.24705882)"/><path d="M173.53598 125.13945H191.63348V111.47108H173.53598z" style="fill:rgba(174,0,76,.24705882);stroke:rgba(174,0,76,.24705882);stroke-width:.09525;stroke-miterlimit:41.994751"/><path d="M189.3189 119.43397A.47625 .47625 0 00188.3664 119.43397A.47625 .47625 0 00189.3189 119.43397z" fill="rgba(174,0,76,.24705882)"/><path d="M117.70995 81.70545H130.5687V73.36155H117.70995z" style="fill:rgba(174,0,76,.24705882);stroke:rgba(174,0,76,.24705882);stroke-width:.09525;stroke-miterlimit:41.994751"/><path d="M130.34963 77.123925A.47625 .47625 0 00129.39713 77.123925A.47625 .47625 0 00130.34963 77.123925z" fill="rgba(174,0,76,.24705882)"/><path d="M138.21728 80.37195H152.64765V73.332975H138.21728z" style="fill:rgba(174,0,76,.24705882);stroke:rgba(174,0,76,.24705882);stroke-width:.09525;stroke-miterlimit:41.994751"/><path d="M147.26602 76.761975A.47625 .47625 0 00146.31352 76.761975A.47625 .47625 0 00147.26602 76.761975z" fill="rgba(174,0,76,.24705882)"/><path d="M36.25215 .4191A.47625 .47625 0 0035.29965 .4191A.47625 .47625 0 0036.25215 .4191z" fill="rgba(174,0,76,.24705882)"/><path d="M168.80205 61.883925L169.49738 18.049875" style="fill:none;stroke:rgba(174,0,76,.24705882);stroke-width:.09525;stroke-miterlimit:41.994751"/><path d="M215.38882 89.220675L208.07362 104.87025" style="fill:none;stroke:rgba(174,0,76,.24705882);stroke-width:.09525;stroke-miterlimit:41.994751"/><path d="M35.7759 .4191L71.542275 5.5245" style="fill:none;stroke:rgba(174,0,76,.24705882);stroke-width:.09525;stroke-miterlimit:41.994751"/><path d="M103.6701 113.54752L91.868625 107.2515" style="fill:none;stroke:rgba(174,0,76,.24705882);stroke-width:.09525;stroke-miterlimit:41.994751"/><path d="M168.80205 61.883925L170.71658 106.42282" style="fill:none;stroke:rgba(174,0,76,.24705882);stroke-width:.09525;stroke-miterlimit:41.994751"/><path d="M208.07362 104.87025L230.82885 117.17655" style="fill:none;stroke:rgba(174,0,76,.24705882);stroke-width:.09525;stroke-miterlimit:41.994751"/><path d="M198.11048 120.25312L188.84265 119.43398" style="fill:none;stroke:rgba(174,0,76,.24705882);stroke-width:.09525;stroke-miterlimit:41.994751"/><path d="M188.84265 119.43398L170.31653 121.5771" style="fill:none;stroke:rgba(174,0,76,.24705882);stroke-width:.09525;stroke-miterlimit:41.994751"/><path d="M133.9977 122.2629L138.17917 151.36177" style="fill:none;stroke:rgba(174,0,76,.24705882);stroke-width:.09525;stroke-miterlimit:41.994751"/><path d="M190.70955 146.86597L196.58648 142.75117" style="fill:none;stroke:rgba(174,0,76,.24705882);stroke-width:.09525;stroke-miterlimit:41.994751"/><path d="M149.64728 97.240725L170.71658 106.42282" style="fill:none;stroke:rgba(174,0,76,.24705882);stroke-width:.09525;stroke-miterlimit:41.994751"/><path d="M133.9977 122.2629L135.93127 107.18482" style="fill:none;stroke:rgba(174,0,76,.24705882);stroke-width:.09525;stroke-miterlimit:41.994751"/><path d="M132.99758 73.580625L129.87338 77.123925" style="fill:none;stroke:rgba(174,0,76,.24705882);stroke-width:.09525;stroke-miterlimit:41.994751"/><path d="M114.63338 121.22468L133.9977 122.2629" style="fill:none;stroke:rgba(174,0,76,.24705882);stroke-width:.09525;stroke-miterlimit:41.994751"/><path d="M114.9477 77.62875L129.87338 77.123925" style="fill:none;stroke:rgba(174,0,76,.24705882);stroke-width:.09525;stroke-miterlimit:41.994751"/><path d="M109.85183 73.523475L109.98517 78.08595" style="fill:none;stroke:rgba(174,0,76,.24705882);stroke-width:.09525;stroke-miterlimit:41.994751"/><path d="M109.98517 78.08595L114.9477 77.62875" style="fill:none;stroke:rgba(174,0,76,.24705882);stroke-width:.09525;stroke-miterlimit:41.994751"/><path d="M109.98517 78.08595L91.868625 107.2515" style="fill:none;stroke:rgba(174,0,76,.24705882);stroke-width:.09525;stroke-miterlimit:41.994751"/><path d="M109.85183 73.523475L105.85133 53.197125" style="fill:none;stroke:rgba(174,0,76,.24705882);stroke-width:.09525;stroke-miterlimit:41.994751"/><path d="M196.58648 142.75117L198.11048 120.25312" style="fill:none;stroke:rgba(174,0,76,.24705882);stroke-width:.09525;stroke-miterlimit:41.994751"/><path d="M92.344875 31.118175L70.532625 25.39365" style="fill:none;stroke:rgba(174,0,76,.24705882);stroke-width:.09525;stroke-miterlimit:41.994751"/><path d="M70.532625 25.39365L58.1406 24.107775" style="fill:none;stroke:rgba(174,0,76,.24705882);stroke-width:.09525;stroke-miterlimit:41.994751"/><path d="M71.542275 5.5245L70.532625 25.39365" style="fill:none;stroke:rgba(174,0,76,.24705882);stroke-width:.09525;stroke-miterlimit:41.994751"/><path d="M6.22935 1.61925L35.7759 .4191" style="fill:none;stroke:rgba(174,0,76,.24705882);stroke-width:.09525;stroke-miterlimit:41.994751"/><path d="M71.542275 5.5245L149.02815 4.162425" style="fill:none;stroke:rgba(174,0,76,.24705882);stroke-width:.09525;stroke-miterlimit:41.994751"/><path d="M91.868625 107.2515L72.456675 108.7755" style="fill:none;stroke:rgba(174,0,76,.24705882);stroke-width:.09525;stroke-miterlimit:41.994751"/><path d="M169.49738 18.049875L149.02815 4.162425" style="fill:none;stroke:rgba(174,0,76,.24705882);stroke-width:.09525;stroke-miterlimit:41.994751"/><path d="M71.11365 38.9001L70.532625 25.39365" style="fill:none;stroke:rgba(174,0,76,.24705882);stroke-width:.09525;stroke-miterlimit:41.994751"/><path d="M170.31653 121.5771L157.33395 118.0719" style="fill:none;stroke:rgba(174,0,76,.24705882);stroke-width:.09525;stroke-miterlimit:41.994751"/><path d="M207.24495 87.449025L215.38882 89.220675" style="fill:none;stroke:rgba(174,0,76,.24705882);stroke-width:.09525;stroke-miterlimit:41.994751"/><path d="M135.93127 107.18482L149.64728 97.240725" style="fill:none;stroke:rgba(174,0,76,.24705882);stroke-width:.09525;stroke-miterlimit:41.994751"/><path d="M.447675 15.497175L6.22935 1.61925" style="fill:none;stroke:rgba(174,0,76,.24705882);stroke-width:.09525;stroke-miterlimit:41.994751"/><path d="M48.52035 24.6888L48.282225 61.1505" style="fill:none;stroke:rgba(174,0,76,.24705882);stroke-width:.09525;stroke-miterlimit:41.994751"/><path d="M48.282225 61.1505L66.57975 65.2272" style="fill:none;stroke:rgba(174,0,76,.24705882);stroke-width:.09525;stroke-miterlimit:41.994751"/><path d="M138.17917 151.36177L140.19848 183.0324" style="fill:none;stroke:rgba(174,0,76,.24705882);stroke-width:.09525;stroke-miterlimit:41.994751"/><path d="M140.79855 61.20765L168.80205 61.883925" style="fill:none;stroke:rgba(174,0,76,.24705882);stroke-width:.09525;stroke-miterlimit:41.994751"/><path d="M157.33395 118.0719L149.67585 113.33798" style="fill:none;stroke:rgba(174,0,76,.24705882);stroke-width:.09525;stroke-miterlimit:41.994751"/><path d="M140.79855 61.20765L147.0279 71.789925" style="fill:none;stroke:rgba(174,0,76,.24705882);stroke-width:.09525;stroke-miterlimit:41.994751"/><path d="M140.79855 61.20765L140.50328 34.147125" style="fill:none;stroke:rgba(174,0,76,.24705882);stroke-width:.09525;stroke-miterlimit:41.994751"/><path d="M104.23208 32.204025L105.85133 53.197125" style="fill:none;stroke:rgba(174,0,76,.24705882);stroke-width:.09525;stroke-miterlimit:41.994751"/><path d="M104.23208 32.204025L92.344875 31.118175" style="fill:none;stroke:rgba(174,0,76,.24705882);stroke-width:.09525;stroke-miterlimit:41.994751"/><path d="M9.667875 27.117675L.447675 15.497175" style="fill:none;stroke:rgba(174,0,76,.24705882);stroke-width:.09525;stroke-miterlimit:41.994751"/><path d="M4.24815 163.95382L5.438775 186.1185" style="fill:none;stroke:rgba(174,0,76,.24705882);stroke-width:.09525;stroke-miterlimit:41.994751"/><path d="M12.8778 113.24273L4.24815 163.95382" style="fill:none;stroke:rgba(174,0,76,.24705882);stroke-width:.09525;stroke-miterlimit:41.994751"/><path d="M12.8778 113.24273L4.486275 86.991825" style="fill:none;stroke:rgba(174,0,76,.24705882);stroke-width:.09525;stroke-miterlimit:41.994751"/><path d="M58.1406 24.107775L48.52035 24.6888" style="fill:none;stroke:rgba(174,0,76,.24705882);stroke-width:.09525;stroke-miterlimit:41.994751"/><path d="M4.486275 86.991825L9.667875 27.117675" style="fill:none;stroke:rgba(174,0,76,.24705882);stroke-width:.09525;stroke-miterlimit:41.994751"/><path d="M147.0279 71.789925L146.78977 76.761975" style="fill:none;stroke:rgba(174,0,76,.24705882);stroke-width:.09525;stroke-miterlimit:41.994751"/><path d="M38.5191 186.06135L5.438775 186.1185" style="fill:none;stroke:rgba(174,0,76,.24705882);stroke-width:.09525;stroke-miterlimit:41.994751"/><path d="M145.4658 153.81923L138.17917 151.36177" style="fill:none;stroke:rgba(174,0,76,.24705882);stroke-width:.09525;stroke-miterlimit:41.994751"/><path d="M73.81875 64.017525L66.57975 65.2272" style="fill:none;stroke:rgba(174,0,76,.24705882);stroke-width:.09525;stroke-miterlimit:41.994751"/><path d="M188.65215 95.04045L207.24495 87.449025" style="fill:none;stroke:rgba(174,0,76,.24705882);stroke-width:.09525;stroke-miterlimit:41.994751"/><path d="M188.65215 95.04045L170.71658 106.42282" style="fill:none;stroke:rgba(174,0,76,.24705882);stroke-width:.09525;stroke-miterlimit:41.994751"/><path d="M145.4658 153.81923L157.44825 154.0764" style="fill:none;stroke:rgba(174,0,76,.24705882);stroke-width:.09525;stroke-miterlimit:41.994751"/><path d="M157.33395 118.0719L164.44913 112.04257" style="fill:none;stroke:rgba(174,0,76,.24705882);stroke-width:.09525;stroke-miterlimit:41.994751"/><path d="M58.7502 177.7365L38.5191 186.06135" style="fill:none;stroke:rgba(174,0,80,.24705882);stroke-width:.09525;stroke-miterlimit:41.994751"/><path d="M140.19848 183.0324L119.16728 183.24195" style="fill:none;stroke:rgba(174,0,80,.24705882);stroke-width:.09525;stroke-miterlimit:41.994751"/><path d="M125.8443 313.4106A.47625 .47625 0 00124.8918 313.4106A.47625 .47625 0 00125.8443 313.4106z" fill="rgba(170,0,85,.24705882)"/><path d="M40.052625 231.31463A.47625 .47625 0 0039.100125 231.31463A.47625 .47625 0 0040.052625 231.31463z" fill="rgba(170,0,85,.24705882)"/><path d="M229.68585 271.24343H253.99365V247.2309H229.68585z" style="fill:rgba(170,0,85,.24705882);stroke:rgba(170,0,85,.24705882);stroke-width:.09525;stroke-miterlimit:41.994751"/><path d="M244.42102 258.5466A.47625 .47625 0 00243.46852 258.5466A.47625 .47625 0 00244.42102 258.5466z" fill="rgba(170,0,85,.24705882)"/><path d="M120.07215 232.19092A.47625 .47625 0 00119.11965 232.19092A.47625 .47625 0 00120.07215 232.19092z" fill="rgba(170,0,85,.24705882)"/><path d="M59.22645 177.7365A.47625 .47625 0 0058.27395 177.7365A.47625 .47625 0 0059.22645 177.7365z" fill="rgba(170,0,85,.24705882)"/><path d="M149.15197 322.24027A.47625 .47625 0 00148.19948 322.24027A.47625 .47625 0 00149.15197 322.24027z" fill="rgba(170,0,85,.24705882)"/><path d="M203.13968 296.69423A.47625 .47625 0 00202.18718 296.69423A.47625 .47625 0 00203.13968 296.69423z" fill="rgba(170,0,85,.24705882)"/><path d="M169.34497 357.06367A.47625 .47625 0 00168.39247 357.06367A.47625 .47625 0 00169.34497 357.06367z" fill="rgba(170,0,85,.24705882)"/><path d="M119.64352 183.24195A.47625 .47625 0 00118.69103 183.24195A.47625 .47625 0 00119.64352 183.24195z" fill="rgba(170,0,85,.24705882)"/><path d="M96.6978 355.46348A.47625 .47625 0 0095.7453 355.46348A.47625 .47625 0 0096.6978 355.46348z" fill="rgba(170,0,85,.24705882)"/><path d="M102.36517 366.95063A.47625 .47625 0 00101.41268 366.95063A.47625 .47625 0 00102.36517 366.95063z" fill="rgba(170,0,85,.24705882)"/><path d="M169.38307 367.72215A.47625 .47625 0 00168.43058 367.72215A.47625 .47625 0 00169.38307 367.72215z" fill="rgba(170,0,85,.24705882)"/><path d="M120.30075 399.4023A.47625 .47625 0 00119.34825 399.4023A.47625 .47625 0 00120.30075 399.4023z" fill="rgba(170,0,85,.24705882)"/><path d="M154.27642 397.39252A.47625 .47625 0 00153.32393 397.39252A.47625 .47625 0 00154.27642 397.39252z" fill="rgba(170,0,85,.24705882)"/><path d="M196.66267 339.21383A.47625 .47625 0 00195.71017 339.21383A.47625 .47625 0 00196.66267 339.21383z" fill="rgba(170,0,85,.24705882)"/><path d="M196.4055 243.03037A.47625 .47625 0 00195.453 243.03037A.47625 .47625 0 00196.4055 243.03037z" fill="rgba(170,0,85,.24705882)"/><path d="M81.36255 208.788A.47625 .47625 0 0080.41005 208.788A.47625 .47625 0 0081.36255 208.788z" fill="rgba(170,0,85,.24705882)"/><path d="M171.65955 383.03835A.47625 .47625 0 00170.70705 383.03835A.47625 .47625 0 00171.65955 383.03835z" fill="rgba(170,0,85,.24705882)"/><path d="M195.55777 353.12985A.47625 .47625 0 00194.60528 353.12985A.47625 .47625 0 00195.55777 353.12985z" fill="rgba(170,0,85,.24705882)"/><path d="M197.64375 314.4012A.47625 .47625 0 00196.69125 314.4012A.47625 .47625 0 00197.64375 314.4012z" fill="rgba(170,0,85,.24705882)"/><path d="M98.974275 420.4716A.47625 .47625 0 0098.021775 420.4716A.47625 .47625 0 0098.974275 420.4716z" fill="rgba(170,0,85,.24705882)"/><path d="M120.7008 240.96345H174.7647V228.77145H120.7008z" style="fill:rgba(170,0,85,.24705882);stroke:rgba(170,0,85,.24705882);stroke-width:.09525;stroke-miterlimit:41.994751"/><path d="M164.4015 234.80077A.47625 .47625 0 00163.449 234.80077A.47625 .47625 0 00164.4015 234.80077z" fill="rgba(170,0,85,.24705882)"/><path d="M152.1714 313.26772A.47625 .47625 0 00151.2189 313.26772A.47625 .47625 0 00152.1714 313.26772z" fill="rgba(170,0,85,.24705882)"/><path d="M156.49575 228.78098H175.05045V198.32955H156.49575z" style="fill:rgba(170,0,85,.24705882);stroke:rgba(170,0,85,.24705882);stroke-width:.09525;stroke-miterlimit:41.994751"/><path d="M165.33495 206.21625A.47625 .47625 0 00164.38245 206.21625A.47625 .47625 0 00165.33495 206.21625z" fill="rgba(170,0,85,.24705882)"/><path d="M179.8701 195.39585H193.06223V186.13755H179.8701z" style="fill:rgba(170,0,85,.24705882);stroke:rgba(170,0,85,.24705882);stroke-width:.09525;stroke-miterlimit:41.994751"/><path d="M187.62345 190.45238A.47625 .47625 0 00186.67095 190.45238A.47625 .47625 0 00187.62345 190.45238z" fill="rgba(170,0,85,.24705882)"/><path d="M168.69727 198.43433H179.86057V186.12803H168.69727z" style="fill:rgba(170,0,85,.24705882);stroke:rgba(170,0,85,.24705882);stroke-width:.09525;stroke-miterlimit:41.994751"/><path d="M175.69815 191.0334A.47625 .47625 0 00174.74565 191.0334A.47625 .47625 0 00175.69815 191.0334z" fill="rgba(170,0,85,.24705882)"/><path d="M175.05998 216.56992H186.97575V198.43432H175.05998z" style="fill:rgba(170,0,85,.24705882);stroke:rgba(170,0,85,.24705882);stroke-width:.09525;stroke-miterlimit:41.994751"/><path d="M175.9839 206.39722A.47625 .47625 0 00175.0314 206.39722A.47625 .47625 0 00175.9839 206.39722z" fill="rgba(170,0,85,.24705882)"/><path d="M186.98528 242.30648H205.25422V198.3105H186.98528z" style="fill:rgba(170,0,85,.24705882);stroke:rgba(170,0,85,.24705882);stroke-width:.09525;stroke-miterlimit:41.994751"/><path d="M195.80543 209.2071A.47625 .47625 0 00194.85293 209.2071A.47625 .47625 0 00195.80543 209.2071z" fill="rgba(170,0,85,.24705882)"/><path d="M186.74715 273.28177A.47625 .47625 0 00185.79465 273.28177A.47625 .47625 0 00186.74715 273.28177z" fill="rgba(170,0,85,.24705882)"/><path d="M132.11175 332.43203H138.20775V314.1345H132.11175z" style="fill:rgba(170,0,85,.24705882);stroke:rgba(170,0,85,.24705882);stroke-width:.09525;stroke-miterlimit:41.994751"/><path d="M136.21703 322.64985A.47625 .47625 0 00135.26453 322.64985A.47625 .47625 0 00136.21703 322.64985z" fill="rgba(170,0,85,.24705882)"/><path d="M96.10725 205.34948A.47625 .47625 0 0095.15475 205.34948A.47625 .47625 0 0096.10725 205.34948z" fill="rgba(170,0,85,.24705882)"/><path d="M158.60077 269.1765A.47625 .47625 0 00157.64828 269.1765A.47625 .47625 0 00158.60077 269.1765z" fill="rgba(170,0,85,.24705882)"/><path d="M146.73262 277.49183A.47625 .47625 0 00145.78012 277.49183A.47625 .47625 0 00146.73262 277.49183z" fill="rgba(170,0,85,.24705882)"/><path d="M102.61282 180.64163A.47625 .47625 0 00101.66033 180.64163A.47625 .47625 0 00102.61282 180.64163z" fill="rgba(170,0,85,.24705882)"/><path d="M129.03517 277.75852A.47625 .47625 0 00128.08267 277.75852A.47625 .47625 0 00129.03517 277.75852z" fill="rgba(170,0,85,.24705882)"/><path d="M104.98455 451.53262A.47625 .47625 0 00104.03205 451.53262A.47625 .47625 0 00104.98455 451.53262z" fill="rgba(170,0,85,.24705882)"/><path d="M108.90885 336.97545H138.19823V332.43203H108.90885z" style="fill:rgba(170,0,85,.24705882);stroke:rgba(170,0,85,.24705882);stroke-width:.09525;stroke-miterlimit:41.994751"/><path d="M135.49312 335.15617A.47625 .47625 0 00134.54063 335.15617A.47625 .47625 0 00135.49312 335.15617z" fill="rgba(170,0,85,.24705882)"/><path d="M137.15048 298.25633A.47625 .47625 0 00136.19798 298.25633A.47625 .47625 0 00137.15048 298.25633z" fill="rgba(170,0,85,.24705882)"/><path d="M82.2579 476.27858A.47625 .47625 0 0081.3054 476.27858A.47625 .47625 0 0082.2579 476.27858z" fill="rgba(170,0,85,.24705882)"/><path d="M127.05397 298.9707A.47625 .47625 0 00126.10148 298.9707A.47625 .47625 0 00127.05397 298.9707z" fill="rgba(170,0,85,.24705882)"/><path d="M63.5127 313.40107H95.5167V306.52402H63.5127z" style="fill:rgba(170,0,85,.24705882);stroke:rgba(170,0,85,.24705882);stroke-width:.09525;stroke-miterlimit:41.994751"/><path d="M93.545025 309.6768A.47625 .47625 0 0092.592525 309.6768A.47625 .47625 0 0093.545025 309.6768z" fill="rgba(170,0,85,.24705882)"/><path d="M60.10275 336.98498H108.91837V332.40345H60.10275z" style="fill:rgba(170,0,85,.24705882);stroke:rgba(170,0,85,.24705882);stroke-width:.09525;stroke-miterlimit:41.994751"/><path d="M96.2025 334.66087A.47625 .47625 0 0095.25 334.66087A.47625 .47625 0 0096.2025 334.66087z" fill="rgba(170,0,85,.24705882)"/><path d="M100.40302 297.04665A.47625 .47625 0 0099.450525 297.04665A.47625 .47625 0 00100.40302 297.04665z" fill="rgba(170,0,85,.24705882)"/><path d="M89.887425 292.86517A.47625 .47625 0 0088.934925 292.86517A.47625 .47625 0 0089.887425 292.86517z" fill="rgba(170,0,85,.24705882)"/><path d="M76.095225 283.64497H95.526225V271.4625H76.095225z" style="fill:rgba(170,0,85,.24705882);stroke:rgba(170,0,85,.24705882);stroke-width:.09525;stroke-miterlimit:41.994751"/><path d="M90.020775 278.91105A.47625 .47625 0 0089.068275 278.91105A.47625 .47625 0 0090.020775 278.91105z" fill="rgba(170,0,85,.24705882)"/><path d="M58.969275 283.66402H76.095225V271.4625H58.969275z" style="fill:rgba(170,0,85,.24705882);stroke:rgba(170,0,85,.24705882);stroke-width:.09525;stroke-miterlimit:41.994751"/><path d="M61.788675 278.5872A.47625 .47625 0 0060.836175 278.5872A.47625 .47625 0 0061.788675 278.5872z" fill="rgba(170,0,85,.24705882)"/><path d="M217.4367 271.4625H229.67632V259.28955H217.4367z" style="fill:rgba(170,0,85,.24705882);stroke:rgba(170,0,85,.24705882);stroke-width:.09525;stroke-miterlimit:41.994751"/><path d="M224.55187 265.42365A.47625 .47625 0 00223.59938 265.42365A.47625 .47625 0 00224.55187 265.42365z" fill="rgba(170,0,85,.24705882)"/><path d="M58.95975 329.91742H63.5127V283.67355H58.95975z" style="fill:rgba(170,0,85,.24705882);stroke:rgba(170,0,85,.24705882);stroke-width:.09525;stroke-miterlimit:41.994751"/><path d="M61.66485 309.13387A.47625 .47625 0 0060.71235 309.13387A.47625 .47625 0 0061.66485 309.13387z" fill="rgba(170,0,85,.24705882)"/><path d="M57.521475 447.34163A.47625 .47625 0 0056.568975 447.34163A.47625 .47625 0 0057.521475 447.34163z" fill="rgba(170,0,85,.24705882)"/><path d="M64.59855 415.54717A.47625 .47625 0 0063.64605 415.54717A.47625 .47625 0 0064.59855 415.54717z" fill="rgba(170,0,85,.24705882)"/><path d="M39.728775 355.67302A.47625 .47625 0 0038.776275 355.67302A.47625 .47625 0 0039.728775 355.67302z" fill="rgba(170,0,85,.24705882)"/><path d="M64.379475 411.16567A.47625 .47625 0 0063.426975 411.16567A.47625 .47625 0 0064.379475 411.16567z" fill="rgba(170,0,85,.24705882)"/><path d="M86.27745 416.7759A.47625 .47625 0 0085.32495 416.7759A.47625 .47625 0 0086.27745 416.7759z" fill="rgba(170,0,85,.24705882)"/><path d="M38.2143 313.76302A.47625 .47625 0 0037.2618 313.76302A.47625 .47625 0 0038.2143 313.76302z" fill="rgba(170,0,85,.24705882)"/><path d="M53.578125 415.45192A.47625 .47625 0 0052.625625 415.45192A.47625 .47625 0 0053.578125 415.45192z" fill="rgba(170,0,85,.24705882)"/><path d="M199.25347 268.54785A.47625 .47625 0 00198.30097 268.54785A.47625 .47625 0 00199.25347 268.54785z" fill="rgba(170,0,85,.24705882)"/><path d="M63.541275 332.39392H95.53575V313.4106H63.541275z" style="fill:rgba(170,0,85,.24705882);stroke:rgba(170,0,85,.24705882);stroke-width:.09525;stroke-miterlimit:41.994751"/><path d="M79.57185 325.09778A.47625 .47625 0 0078.61935 325.09778A.47625 .47625 0 0079.57185 325.09778z" fill="rgba(170,0,85,.24705882)"/><path d="M53.62575 231.93375A.47625 .47625 0 0052.67325 231.93375A.47625 .47625 0 0053.62575 231.93375z" fill="rgba(170,0,85,.24705882)"/><path d="M37.6047 265.45222A.47625 .47625 0 0036.6522 265.45222A.47625 .47625 0 0037.6047 265.45222z" fill="rgba(170,0,85,.24705882)"/><path d="M195.92925 243.03037L195.32918 209.2071" style="fill:none;stroke:rgba(170,0,85,.24705882);stroke-width:.09525;stroke-miterlimit:41.994751"/><path d="M126.57773 298.9707L136.67423 298.25633" style="fill:none;stroke:rgba(170,0,85,.24705882);stroke-width:.09525;stroke-miterlimit:41.994751"/><path d="M39.576375 231.31463L37.12845 265.45222" style="fill:none;stroke:rgba(170,0,85,.24705882);stroke-width:.09525;stroke-miterlimit:41.994751"/><path d="M198.77722 268.54785L186.2709 273.28177" style="fill:none;stroke:rgba(170,0,85,.24705882);stroke-width:.09525;stroke-miterlimit:41.994751"/><path d="M53.1495 231.93375L39.576375 231.31463" style="fill:none;stroke:rgba(170,0,85,.24705882);stroke-width:.09525;stroke-miterlimit:41.994751"/><path d="M79.0956 325.09778L93.068775 309.6768" style="fill:none;stroke:rgba(170,0,85,.24705882);stroke-width:.09525;stroke-miterlimit:41.994751"/><path d="M198.77722 268.54785L224.07563 265.42365" style="fill:none;stroke:rgba(170,0,85,.24705882);stroke-width:.09525;stroke-miterlimit:41.994751"/><path d="M53.1495 231.93375L80.8863 208.788" style="fill:none;stroke:rgba(170,0,85,.24705882);stroke-width:.09525;stroke-miterlimit:41.994751"/><path d="M53.101875 415.45192L57.045225 447.34163" style="fill:none;stroke:rgba(170,0,85,.24705882);stroke-width:.09525;stroke-miterlimit:41.994751"/><path d="M196.18642 339.21383L195.08152 353.12985" style="fill:none;stroke:rgba(170,0,85,.24705882);stroke-width:.09525;stroke-miterlimit:41.994751"/><path d="M119.8245 399.4023L98.498025 420.4716" style="fill:none;stroke:rgba(170,0,85,.24705882);stroke-width:.09525;stroke-miterlimit:41.994751"/><path d="M119.5959 232.19092L53.1495 231.93375" style="fill:none;stroke:rgba(170,0,85,.24705882);stroke-width:.09525;stroke-miterlimit:41.994751"/><path d="M119.5959 232.19092L163.92525 234.80077" style="fill:none;stroke:rgba(170,0,85,.24705882);stroke-width:.09525;stroke-miterlimit:41.994751"/><path d="M63.903225 411.16567L101.88893 366.95063" style="fill:none;stroke:rgba(170,0,85,.24705882);stroke-width:.09525;stroke-miterlimit:41.994751"/><path d="M148.67572 322.24027L135.74078 322.64985" style="fill:none;stroke:rgba(170,0,85,.24705882);stroke-width:.09525;stroke-miterlimit:41.994751"/><path d="M80.8863 208.788L102.13657 180.64163" style="fill:none;stroke:rgba(170,0,85,.24705882);stroke-width:.09525;stroke-miterlimit:41.994751"/><path d="M123.41542 34.1757L104.23208 32.204025" style="fill:none;stroke:rgba(170,0,85,.24705882);stroke-width:.09525;stroke-miterlimit:41.994751"/><path d="M57.045225 447.34163L81.78165 476.27858" style="fill:none;stroke:rgba(170,0,85,.24705882);stroke-width:.09525;stroke-miterlimit:41.994751"/><path d="M64.1223 415.54717L53.101875 415.45192" style="fill:none;stroke:rgba(170,0,85,.24705882);stroke-width:.09525;stroke-miterlimit:41.994751"/><path d="M64.1223 415.54717L63.903225 411.16567" style="fill:none;stroke:rgba(170,0,85,.24705882);stroke-width:.09525;stroke-miterlimit:41.994751"/><path d="M61.1886 309.13387L79.0956 325.09778" style="fill:none;stroke:rgba(170,0,85,.24705882);stroke-width:.09525;stroke-miterlimit:41.994751"/><path d="M61.1886 309.13387L61.312425 278.5872" style="fill:none;stroke:rgba(170,0,85,.24705882);stroke-width:.09525;stroke-miterlimit:41.994751"/><path d="M224.07563 265.42365L243.94477 258.5466" style="fill:none;stroke:rgba(170,0,85,.24705882);stroke-width:.09525;stroke-miterlimit:41.994751"/><path d="M61.312425 278.5872L89.544525 278.91105" style="fill:none;stroke:rgba(170,0,85,.24705882);stroke-width:.09525;stroke-miterlimit:41.994751"/><path d="M195.92925 243.03037L198.77722 268.54785" style="fill:none;stroke:rgba(170,0,85,.24705882);stroke-width:.09525;stroke-miterlimit:41.994751"/><path d="M95.72625 334.66087L79.0956 325.09778" style="fill:none;stroke:rgba(170,0,85,.24705882);stroke-width:.09525;stroke-miterlimit:41.994751"/><path d="M89.411175 292.86517L89.544525 278.91105" style="fill:none;stroke:rgba(170,0,85,.24705882);stroke-width:.09525;stroke-miterlimit:41.994751"/><path d="M95.72625 334.66087L135.01687 335.15617" style="fill:none;stroke:rgba(170,0,85,.24705882);stroke-width:.09525;stroke-miterlimit:41.994751"/><path d="M99.926775 297.04665L89.411175 292.86517" style="fill:none;stroke:rgba(170,0,85,.24705882);stroke-width:.09525;stroke-miterlimit:41.994751"/><path d="M99.926775 297.04665L126.57773 298.9707" style="fill:none;stroke:rgba(170,0,85,.24705882);stroke-width:.09525;stroke-miterlimit:41.994751"/><path d="M202.66343 296.69423L198.77722 268.54785" style="fill:none;stroke:rgba(170,0,85,.24705882);stroke-width:.09525;stroke-miterlimit:41.994751"/><path d="M168.86872 357.06367L96.22155 355.46348" style="fill:none;stroke:rgba(170,0,85,.24705882);stroke-width:.09525;stroke-miterlimit:41.994751"/><path d="M171.1833 383.03835L168.90682 367.72215" style="fill:none;stroke:rgba(170,0,85,.24705882);stroke-width:.09525;stroke-miterlimit:41.994751"/><path d="M197.1675 314.4012L196.18642 339.21383" style="fill:none;stroke:rgba(170,0,85,.24705882);stroke-width:.09525;stroke-miterlimit:41.994751"/><path d="M119.16728 183.24195L102.13657 180.64163" style="fill:none;stroke:rgba(170,0,85,.24705882);stroke-width:.09525;stroke-miterlimit:41.994751"/><path d="M202.66343 296.69423L197.1675 314.4012" style="fill:none;stroke:rgba(170,0,85,.24705882);stroke-width:.09525;stroke-miterlimit:41.994751"/><path d="M168.86872 357.06367L195.08152 353.12985" style="fill:none;stroke:rgba(170,0,85,.24705882);stroke-width:.09525;stroke-miterlimit:41.994751"/><path d="M163.92525 234.80077L164.8587 206.21625" style="fill:none;stroke:rgba(170,0,85,.24705882);stroke-width:.09525;stroke-miterlimit:41.994751"/><path d="M197.1675 314.4012L151.69515 313.26772" style="fill:none;stroke:rgba(170,0,85,.24705882);stroke-width:.09525;stroke-miterlimit:41.994751"/><path d="M96.22155 355.46348L101.88893 366.95063" style="fill:none;stroke:rgba(170,0,85,.24705882);stroke-width:.09525;stroke-miterlimit:41.994751"/><path d="M126.57773 298.9707L125.36805 313.4106" style="fill:none;stroke:rgba(170,0,85,.24705882);stroke-width:.09525;stroke-miterlimit:41.994751"/><path d="M153.80017 397.39252L171.1833 383.03835" style="fill:none;stroke:rgba(170,0,85,.24705882);stroke-width:.09525;stroke-miterlimit:41.994751"/><path d="M126.57773 298.9707L128.55892 277.75852" style="fill:none;stroke:rgba(170,0,85,.24705882);stroke-width:.09525;stroke-miterlimit:41.994751"/><path d="M81.78165 476.27858L104.5083 451.53262" style="fill:none;stroke:rgba(170,0,85,.24705882);stroke-width:.09525;stroke-miterlimit:41.994751"/><path d="M151.69515 313.26772L148.67572 322.24027" style="fill:none;stroke:rgba(170,0,85,.24705882);stroke-width:.09525;stroke-miterlimit:41.994751"/><path d="M96.22155 355.46348L39.252525 355.67302" style="fill:none;stroke:rgba(170,0,85,.24705882);stroke-width:.09525;stroke-miterlimit:41.994751"/><path d="M119.8245 399.4023L153.80017 397.39252" style="fill:none;stroke:rgba(170,0,85,.24705882);stroke-width:.09525;stroke-miterlimit:41.994751"/><path d="M104.5083 451.53262L98.498025 420.4716" style="fill:none;stroke:rgba(170,0,85,.24705882);stroke-width:.09525;stroke-miterlimit:41.994751"/><path d="M175.2219 191.0334L187.1472 190.45237" style="fill:none;stroke:rgba(170,0,85,.24705882);stroke-width:.09525;stroke-miterlimit:41.994751"/><path d="M37.12845 265.45222L37.73805 313.76302" style="fill:none;stroke:rgba(170,0,85,.24705882);stroke-width:.09525;stroke-miterlimit:41.994751"/><path d="M128.55892 277.75852L146.25637 277.49183" style="fill:none;stroke:rgba(170,0,85,.24705882);stroke-width:.09525;stroke-miterlimit:41.994751"/><path d="M98.498025 420.4716L85.8012 416.7759" style="fill:none;stroke:rgba(170,0,85,.24705882);stroke-width:.09525;stroke-miterlimit:41.994751"/><path d="M102.13657 180.64163L58.7502 177.7365" style="fill:none;stroke:rgba(170,0,85,.24705882);stroke-width:.09525;stroke-miterlimit:41.994751"/><path d="M146.25637 277.49183L158.12453 269.1765" style="fill:none;stroke:rgba(170,0,85,.24705882);stroke-width:.09525;stroke-miterlimit:41.994751"/><path d="M168.90682 367.72215L168.86872 357.06367" style="fill:none;stroke:rgba(170,0,85,.24705882);stroke-width:.09525;stroke-miterlimit:41.994751"/><path d="M158.12453 269.1765L186.2709 273.28177" style="fill:none;stroke:rgba(170,0,85,.24705882);stroke-width:.09525;stroke-miterlimit:41.994751"/><path d="M135.74078 322.64985L135.01687 335.15617" style="fill:none;stroke:rgba(170,0,85,.24705882);stroke-width:.09525;stroke-miterlimit:41.994751"/><path d="M95.631 205.34948L119.5959 232.19092" style="fill:none;stroke:rgba(170,0,85,.24705882);stroke-width:.09525;stroke-miterlimit:41.994751"/><path d="M95.631 205.34948L102.13657 180.64163" style="fill:none;stroke:rgba(170,0,85,.24705882);stroke-width:.09525;stroke-miterlimit:41.994751"/><path d="M101.88893 366.95063L119.8245 399.4023" style="fill:none;stroke:rgba(170,0,85,.24705882);stroke-width:.09525;stroke-miterlimit:41.994751"/><path d="M95.631 205.34948L80.8863 208.788" style="fill:none;stroke:rgba(170,0,85,.24705882);stroke-width:.09525;stroke-miterlimit:41.994751"/><path d="M175.50765 206.39723L164.8587 206.21625" style="fill:none;stroke:rgba(170,0,85,.24705882);stroke-width:.09525;stroke-miterlimit:41.994751"/><path d="M175.50765 206.39723L175.2219 191.0334" style="fill:none;stroke:rgba(170,0,85,.24705882);stroke-width:.09525;stroke-miterlimit:41.994751"/><path d="M123.41542 34.1757L140.50328 34.147125" style="fill:none;stroke:rgba(170,0,85,.24705882);stroke-width:.09525;stroke-miterlimit:41.994751"/><path d="M175.50765 206.39723L195.32918 209.2071" style="fill:none;stroke:rgba(170,0,85,.24705882);stroke-width:.09525;stroke-miterlimit:41.994751"/><path d="M135.00735 76.666725L132.99758 73.580625" style="fill:none;stroke:rgba(170,0,85,.24705882);stroke-width:.09525;stroke-miterlimit:41.994751"/><path d="M37.73805 313.76302L38.3667 340.1187" style="fill:none;stroke:rgba(165,0,85,.24705882);stroke-width:.09525;stroke-miterlimit:41.994751"/><path d="M38.3667 340.1187L39.252525 355.67302" style="fill:none;stroke:rgba(165,0,85,.24705882);stroke-width:.09525;stroke-miterlimit:41.994751"/><path d="M123.89167 34.1757A.47625 .47625 0 00122.93918 34.1757A.47625 .47625 0 00123.89167 34.1757z" fill="rgba(165,0,89,.24705882)"/><path d="M38.84295 340.1187A.47625 .47625 0 0037.89045 340.1187A.47625 .47625 0 0038.84295 340.1187z" fill="rgba(165,0,89,.24705882)"/><path d="M72.456675 108.7755L69.180075 124.6632" style="fill:none;stroke:rgba(165,0,89,.24705882);stroke-width:.09525;stroke-miterlimit:41.994751"/><path d="M135.4836 76.666725A.47625 .47625 0 00134.5311 76.666725A.47625 .47625 0 00135.4836 76.666725z" fill="rgba(165,0,89,.24705882)"/><path d="M170.56418 110.4138L170.71658 106.42282" style="fill:none;stroke:rgba(157,0,97,.24705882);stroke-width:.09525;stroke-miterlimit:41.994751"/><path d="M114.78578 118.5291L114.63338 121.22468" style="fill:none;stroke:rgba(157,0,97,.24705882);stroke-width:.09525;stroke-miterlimit:41.994751"/><path d="M164.44913 112.04257L168.31628 111.4425" style="fill:none;stroke:rgba(157,0,97,.24705882);stroke-width:.09525;stroke-miterlimit:41.994751"/><path d="M103.6701 113.54752L113.58562 115.6716" style="fill:none;stroke:rgba(157,0,97,.24705882);stroke-width:.09525;stroke-miterlimit:41.994751"/><path d="M69.656325 124.6632A.47625 .47625 0 0068.703825 124.6632A.47625 .47625 0 0069.656325 124.6632z" fill="rgba(153,0,101,.24705882)"/><path d="M73.81875 64.017525L74.35215 53.3781" style="fill:none;stroke:rgba(153,0,101,.24705882);stroke-width:.09525;stroke-miterlimit:41.994751"/><path d="M71.561325 39.98595L71.11365 38.9001" style="fill:none;stroke:rgba(153,0,101,.24705882);stroke-width:.09525;stroke-miterlimit:41.994751"/><path d="M93.068775 309.6768L92.52585 306.76215" style="fill:none;stroke:rgba(153,0,101,.24705882);stroke-width:.09525;stroke-miterlimit:41.994751"/><path d="M93.70695 302.84737L99.926775 297.04665" style="fill:none;stroke:rgba(153,0,101,.24705882);stroke-width:.09525;stroke-miterlimit:41.994751"/><path d="M69.180075 124.6632L67.79895 125.349" style="fill:none;stroke:rgba(145,0,109,.24705882);stroke-width:.09525;stroke-miterlimit:41.994751"/><path d="M171.04042 110.4138A.47625 .47625 0 00170.08793 110.4138A.47625 .47625 0 00171.04042 110.4138z" fill="rgba(141,0,113,.24705882)"/><path d="M115.26202 118.5291A.47625 .47625 0 00114.30953 118.5291A.47625 .47625 0 00115.26202 118.5291z" fill="rgba(141,0,113,.24705882)"/><path d="M169.63072 111.28057L170.56418 110.4138" style="fill:none;stroke:rgba(137,0,113,.24705882);stroke-width:.09525;stroke-miterlimit:41.994751"/><path d="M93.373575 305.27625A.47625 .47625 0 0092.421075 305.27625A.47625 .47625 0 0093.373575 305.27625z" fill="rgba(137,0,117,.24705882)"/><path d="M93.0021 306.76215A.47625 .47625 0 0092.0496 306.76215A.47625 .47625 0 0093.0021 306.76215z" fill="rgba(137,0,117,.24705882)"/><path d="M94.1832 302.84737A.47625 .47625 0 0093.2307 302.84737A.47625 .47625 0 0094.1832 302.84737z" fill="rgba(137,0,117,.24705882)"/><path d="M92.897325 305.27625L93.70695 302.84737" style="fill:none;stroke:rgba(137,0,117,.24705882);stroke-width:.09525;stroke-miterlimit:41.994751"/><path d="M92.52585 306.76215L92.897325 305.27625" style="fill:none;stroke:rgba(137,0,117,.24705882);stroke-width:.09525;stroke-miterlimit:41.994751"/><path d="M113.58562 115.6716L114.78578 118.5291" style="fill:none;stroke:rgba(137,0,117,.24705882);stroke-width:.09525;stroke-miterlimit:41.994751"/><path d="M170.10697 111.28057A.47625 .47625 0 00169.15447 111.28057A.47625 .47625 0 00170.10697 111.28057z" fill="rgba(137,0,117,.24705882)"/><path d="M168.31628 111.4425L169.63072 111.28057" style="fill:none;stroke:rgba(137,0,117,.24705882);stroke-width:.09525;stroke-miterlimit:41.994751"/><path d="M168.79253 111.4425A.47625 .47625 0 00167.84003 111.4425A.47625 .47625 0 00168.79253 111.4425z" fill="rgba(137,0,117,.24705882)"/><path d="M114.06187 115.6716A.47625 .47625 0 00113.10938 115.6716A.47625 .47625 0 00114.06187 115.6716z" fill="rgba(137,0,117,.24705882)"/><path d="M53.730525 136.55993H83.30565V125.71095H53.730525z" style="fill:rgba(133,0,121,.24705882);stroke:rgba(133,0,121,.24705882);stroke-width:.09525;stroke-miterlimit:41.994751"/><path d="M68.40855 128.56845A.47625 .47625 0 0067.45605 128.56845A.47625 .47625 0 0068.40855 128.56845z" fill="rgba(133,0,121,.24705882)"/><path d="M74.8284 53.3781A.47625 .47625 0 0073.8759 53.3781A.47625 .47625 0 0074.8284 53.3781z" fill="rgba(133,0,121,.24705882)"/><path d="M72.037575 39.98595A.47625 .47625 0 0071.085075 39.98595A.47625 .47625 0 0072.037575 39.98595z" fill="rgba(133,0,121,.24705882)"/><path d="M68.2752 125.349A.47625 .47625 0 0067.3227 125.349A.47625 .47625 0 0068.2752 125.349z" fill="rgba(133,0,121,.24705882)"/><path d="M74.35215 53.3781L71.561325 39.98595" style="fill:none;stroke:rgba(133,0,121,.24705882);stroke-width:.09525;stroke-miterlimit:41.994751"/><path d="M67.79895 125.349L67.9323 128.56845" style="fill:none;stroke:rgba(133,0,121,.24705882);stroke-width:.09525;stroke-miterlimit:41.994751"/><path d="M149.66633 111.24247L149.67585 113.33798" style="fill:none;stroke:rgba(129,0,121,.24705882);stroke-width:.09525;stroke-miterlimit:41.994751"/><path d="M80.8863 208.788L89.239725 217.4367" style="fill:none;stroke:rgba(129,0,125,.24705882);stroke-width:.09525;stroke-miterlimit:41.994751"/><path d="M95.631 205.34948L89.239725 217.4367" style="fill:none;stroke:rgba(129,0,125,.24705882);stroke-width:.09525;stroke-miterlimit:41.994751"/><path d="M89.715975 217.4367A.47625 .47625 0 0088.763475 217.4367A.47625 .47625 0 0089.715975 217.4367z" fill="rgba(85,0,165,.24705882)"/><path d="M161.22967 102.34612A.47625 .47625 0 00160.27717 102.34612A.47625 .47625 0 00161.22967 102.34612z" fill="rgba(85,0,165,.24705882)"/><path d="M150.14257 111.24248A.47625 .47625 0 00149.19008 111.24248A.47625 .47625 0 00150.14257 111.24248z" fill="rgba(85,0,165,.24705882)"/><path d="M182.70855 99.1743A.47625 .47625 0 00181.75605 99.1743A.47625 .47625 0 00182.70855 99.1743z" fill="rgba(85,0,165,.24705882)"/><path d="M180.0987 115.76685A.47625 .47625 0 00179.1462 115.76685A.47625 .47625 0 00180.0987 115.76685z" fill="rgba(85,0,165,.24705882)"/><path d="M173.79315 92.668725A.47625 .47625 0 00172.84065 92.668725A.47625 .47625 0 00173.79315 92.668725z" fill="rgba(85,0,165,.24705882)"/><path d="M160.75342 102.34613L149.66633 111.24247" style="fill:none;stroke:rgba(85,0,165,.24705882);stroke-width:.09525;stroke-miterlimit:41.994751"/><path d="M160.75342 102.34613L173.3169 92.668725" style="fill:none;stroke:rgba(85,0,165,.24705882);stroke-width:.09525;stroke-miterlimit:41.994751"/><path d="M182.2323 99.1743L179.62245 115.76685" style="fill:none;stroke:rgba(85,0,165,.24705882);stroke-width:.09525;stroke-miterlimit:41.994751"/><path d="M173.3169 92.668725L182.2323 99.1743" style="fill:none;stroke:rgba(85,0,165,.24705882);stroke-width:.09525;stroke-miterlimit:41.994751"/><path d="M86.458425 218.37967L89.239725 217.4367" style="fill:none;stroke:rgba(48,0,206,.24705882);stroke-width:.09525;stroke-miterlimit:41.994751"/><path d="M86.934675 218.37967A.47625 .47625 0 0085.982175 218.37967A.47625 .47625 0 0086.934675 218.37967z" fill="rgba(8,0,246,.24705882)"/><path d="M86.39175 224.16135L86.458425 218.37967" style="fill:none;stroke:rgba(4,0,246,.24705882);stroke-width:.09525;stroke-miterlimit:41.994751"/><path d="M86.896575 172.92638A.47625 .47625 0 0085.944075 172.92638A.47625 .47625 0 0086.896575 172.92638z" fill="rgba(4,0,250,.24705882)"/><path d="M86.868 224.16135A.47625 .47625 0 0085.9155 224.16135A.47625 .47625 0 0086.868 224.16135z" fill="rgba(4,0,250,.24705882)"/><path d="M86.69655 251.41237A.47625 .47625 0 0085.74405 251.41237A.47625 .47625 0 0086.69655 251.41237z" fill="rgba(4,0,250,.24705882)"/><path d="M86.458425 218.37967L86.2965 212.57895" style="fill:none;stroke:rgba(4,0,250,.24705882);stroke-width:.09525;stroke-miterlimit:41.994751"/><path d="M86.2203 251.41237L86.39175 224.16135" style="fill:none;stroke:rgba(4,0,250,.24705882);stroke-width:.09525;stroke-miterlimit:41.994751"/><path d="M86.2965 212.57895L86.420325 172.92638" style="fill:none;stroke:rgba(0,0,255,.24705882);stroke-width:.09525;stroke-miterlimit:41.994751"/><path d="M86.77275 212.57895A.47625 .47625 0 0085.82025 212.57895A.47625 .47625 0 0086.77275 212.57895z" fill="rgba(0,0,255,.24705882)"/></svg>