<svg version="1.1" width="321.08775mm" height="318.516mm" viewBox="0 0 321.08775 318.516" xmlns="http://www.w3.org/2000/svg" xmlns:xlink="http://www.w3.org/1999/xlink"><path d="M276.12975 203.73975H278.03475" style="fill:none;stroke:#f00;stroke-width:.09525;stroke-miterlimit:41.994751"/><path d="M276.12975 203.73975V201.83475" style="fill:none;stroke:#0f0;stroke-width:.09525;stroke-miterlimit:41.994751"/><path d="M260.12775 224.69475H284.13075V200.69175H260.12775z" style="fill:rgba(255,0,0,.24705882);stroke:rgba(255,0,0,.24705882);stroke-width:.09525;stroke-miterlimit:41.994751"/><path d="M273.2151 204.91133A.47625 .47625 0 00272.2626 204.91133A.47625 .47625 0 00273.2151 204.91133z" fill="rgba(255,0,0,.24705882)"/><path d="M289.3695 210.60728A.47625 .47625 0 00288.417 210.60728A.47625 .47625 0 00289.3695 210.60728z" fill="rgba(255,0,0,.24705882)"/><path d="M272.73885 204.91133L288.89325 210.60728" style="fill:none;stroke:rgba(255,0,0,.24705882);stroke-width:.09525;stroke-miterlimit:41.994751"/><path d="M288.89325 210.60728L287.22638 218.25585" style="fill:none;stroke:rgba(250,0,4,.24705882);stroke-width:.09525;stroke-miterlimit:41.994751"/><path d="M287.70263 218.25585A.47625 .47625 0 00286.75013 218.25585A.47625 .47625 0 00287.70263 218.25585z" fill="rgba(242,0,8,.24705882)"/><path d="M287.22638 218.25585L282.06383 225.03765" style="fill:none;stroke:rgba(234,0,20,.24705882);stroke-width:.09525;stroke-miterlimit:41.994751"/><path d="M282.54008 225.03765A.47625 .47625 0 00281.58758 225.03765A.47625 .47625 0 00282.54008 225.03765z" fill="rgba(226,0,28,.24705882)"/><path d="M282.06383 225.03765L275.9964 227.69513" style="fill:none;stroke:rgba(218,0,32,.24705882);stroke-width:.09525;stroke-miterlimit:41.994751"/><path d="M276.47265 227.69513A.47625 .47625 0 00275.52015 227.69513A.47625 .47625 0 00276.47265 227.69513z" fill="rgba(214,0,40,.24705882)"/><path d="M275.9964 227.69513L270.65287 228.42855" style="fill:none;stroke:rgba(210,0,44,.24705882);stroke-width:.09525;stroke-miterlimit:41.994751"/><path d="M271.12912 228.42855A.47625 .47625 0 00270.17663 228.42855A.47625 .47625 0 00271.12912 228.42855z" fill="rgba(206,0,44,.24705882)"/><path d="M264.02348 226.37115A.47625 .47625 0 00263.07098 226.37115A.47625 .47625 0 00264.02348 226.37115z" fill="rgba(206,0,44,.24705882)"/><path d="M259.6515 221.16098A.47625 .47625 0 00258.699 221.16098A.47625 .47625 0 00259.6515 221.16098z" fill="rgba(206,0,44,.24705882)"/><path d="M257.29883 216.7128A.47625 .47625 0 00256.34633 216.7128A.47625 .47625 0 00257.29883 216.7128z" fill="rgba(206,0,44,.24705882)"/><path d="M263.54723 226.37115L259.17525 221.16098" style="fill:none;stroke:rgba(206,0,44,.24705882);stroke-width:.09525;stroke-miterlimit:41.994751"/><path d="M259.17525 221.16098L256.82258 216.7128" style="fill:none;stroke:rgba(206,0,44,.24705882);stroke-width:.09525;stroke-miterlimit:41.994751"/><path d="M270.65287 228.42855L263.54723 226.37115" style="fill:none;stroke:rgba(206,0,44,.24705882);stroke-width:.09525;stroke-miterlimit:41.994751"/><path d="M256.82258 216.7128L256.36537 212.20748" style="fill:none;stroke:rgba(206,0,48,.24705882);stroke-width:.09525;stroke-miterlimit:41.994751"/><path d="M256.84162 212.20748A.47625 .47625 0 00255.88912 212.20748A.47625 .47625 0 00256.84162 212.20748z" fill="rgba(206,0,48,.24705882)"/><path d="M256.36537 212.20748L256.81305 207.14018" style="fill:none;stroke:rgba(198,0,52,.24705882);stroke-width:.09525;stroke-miterlimit:41.994751"/><path d="M257.2893 207.14017A.47625 .47625 0 00256.3368 207.14017A.47625 .47625 0 00257.2893 207.14017z" fill="rgba(194,0,56,.24705882)"/><path d="M256.81305 207.14018L258.91807 203.36828" style="fill:none;stroke:rgba(190,0,64,.24705882);stroke-width:.09525;stroke-miterlimit:41.994751"/><path d="M259.39432 203.36828A.47625 .47625 0 00258.44182 203.36828A.47625 .47625 0 00259.39432 203.36828z" fill="rgba(186,0,68,.24705882)"/><path d="M.200025 78.2955H53.43525V60.198H.200025z" style="fill:rgba(186,0,68,.24705882);stroke:rgba(186,0,68,.24705882);stroke-width:.09525;stroke-miterlimit:41.994751"/><path d="M40.014525 70.380225A.47625 .47625 0 0039.062025 70.380225A.47625 .47625 0 0040.014525 70.380225z" fill="rgba(186,0,68,.24705882)"/><path d="M39.538275 70.380225L38.91915 34.4805" style="fill:none;stroke:rgba(186,0,68,.24705882);stroke-width:.09525;stroke-miterlimit:41.994751"/><path d="M2.428875 60.198H69.62775V.314325H2.428875z" style="fill:rgba(186,0,68,.24705882);stroke:rgba(186,0,68,.24705882);stroke-width:.09525;stroke-miterlimit:41.994751"/><path d="M39.3954 34.4805A.47625 .47625 0 0038.4429 34.4805A.47625 .47625 0 0039.3954 34.4805z" fill="rgba(186,0,68,.24705882)"/><path d="M197.1675 236.88675H215.8365V200.025H197.1675z" style="fill:rgba(186,0,68,.24705882);stroke:rgba(186,0,68,.24705882);stroke-width:.09525;stroke-miterlimit:41.994751"/><path d="M203.99693 216.05558A.47625 .47625 0 00203.04443 216.05558A.47625 .47625 0 00203.99693 216.05558z" fill="rgba(186,0,68,.24705882)"/><path d="M258.91807 203.36828L260.7564 201.02513" style="fill:none;stroke:rgba(182,0,68,.24705882);stroke-width:.09525;stroke-miterlimit:41.994751"/><path d="M203.52068 216.05558L219.09405 215.51265" style="fill:none;stroke:rgba(182,0,68,.24705882);stroke-width:.09525;stroke-miterlimit:41.994751"/><path d="M203.52068 216.05558L220.599 207.8355" style="fill:none;stroke:rgba(182,0,72,.24705882);stroke-width:.09525;stroke-miterlimit:41.994751"/><path d="M203.52068 216.05558L223.06598 199.71068" style="fill:none;stroke:rgba(182,0,72,.24705882);stroke-width:.09525;stroke-miterlimit:41.994751"/><path d="M220.92285 223.71368L203.52068 216.05558" style="fill:none;stroke:rgba(182,0,72,.24705882);stroke-width:.09525;stroke-miterlimit:41.994751"/><path d="M38.2905 81.47685L39.538275 70.380225" style="fill:none;stroke:rgba(182,0,72,.24705882);stroke-width:.09525;stroke-miterlimit:41.994751"/><path d="M224.64713 231.3813L203.52068 216.05558" style="fill:none;stroke:rgba(182,0,72,.24705882);stroke-width:.09525;stroke-miterlimit:41.994751"/><path d="M219.5703 215.51265A.47625 .47625 0 00218.6178 215.51265A.47625 .47625 0 00219.5703 215.51265z" fill="rgba(182,0,72,.24705882)"/><path d="M219.09405 215.51265L220.599 207.8355" style="fill:none;stroke:rgba(182,0,72,.24705882);stroke-width:.09525;stroke-miterlimit:41.994751"/><path d="M33.50895 279.29205H70.96125V251.74575H33.50895z" style="fill:rgba(182,0,72,.24705882);stroke:rgba(182,0,72,.24705882);stroke-width:.09525;stroke-miterlimit:41.994751"/><path d="M55.45455 264.00443A.47625 .47625 0 0054.50205 264.00443A.47625 .47625 0 0055.45455 264.00443z" fill="rgba(182,0,72,.24705882)"/><path d="M221.07525 207.8355A.47625 .47625 0 00220.12275 207.8355A.47625 .47625 0 00221.07525 207.8355z" fill="rgba(182,0,72,.24705882)"/><path d="M219.09405 215.51265L220.92285 223.71368" style="fill:none;stroke:rgba(182,0,72,.24705882);stroke-width:.09525;stroke-miterlimit:41.994751"/><path d="M220.599 207.8355L223.06598 199.71068" style="fill:none;stroke:rgba(182,0,72,.24705882);stroke-width:.09525;stroke-miterlimit:41.994751"/><path d="M203.52068 216.05558L202.68248 183.38483" style="fill:none;stroke:rgba(182,0,72,.24705882);stroke-width:.09525;stroke-miterlimit:41.994751"/><path d="M223.54223 199.71068A.47625 .47625 0 00222.58973 199.71068A.47625 .47625 0 00223.54223 199.71068z" fill="rgba(182,0,72,.24705882)"/><path d="M39.538275 70.380225L56.207025 72.33285" style="fill:none;stroke:rgba(182,0,72,.24705882);stroke-width:.09525;stroke-miterlimit:41.994751"/><path d="M221.3991 223.71368A.47625 .47625 0 00220.4466 223.71368A.47625 .47625 0 00221.3991 223.71368z" fill="rgba(182,0,72,.24705882)"/><path d="M187.65203 217.96058L203.52068 216.05558" style="fill:none;stroke:rgba(182,0,72,.24705882);stroke-width:.09525;stroke-miterlimit:41.994751"/><path d="M223.06598 199.71068L227.13315 191.11913" style="fill:none;stroke:rgba(182,0,72,.24705882);stroke-width:.09525;stroke-miterlimit:41.994751"/><path d="M124.49175 232.31475H136.68375V200.025H124.49175z" style="fill:rgba(182,0,72,.24705882);stroke:rgba(182,0,72,.24705882);stroke-width:.09525;stroke-miterlimit:41.994751"/><path d="M129.86385 219.31313A.47625 .47625 0 00128.91135 219.31313A.47625 .47625 0 00129.86385 219.31313z" fill="rgba(182,0,72,.24705882)"/><path d="M261.23265 201.02513A.47625 .47625 0 00260.28015 201.02513A.47625 .47625 0 00261.23265 201.02513z" fill="rgba(182,0,72,.24705882)"/><path d="M321.09728 222.15158A.47625 .47625 0 00320.14478 222.15158A.47625 .47625 0 00321.09728 222.15158z" fill="rgba(182,0,72,.24705882)"/><path d="M302.64735 169.99268A.47625 .47625 0 00301.69485 169.99268A.47625 .47625 0 00302.64735 169.99268z" fill="rgba(182,0,72,.24705882)"/><path d="M319.10655 234.70553A.47625 .47625 0 00318.15405 234.70553A.47625 .47625 0 00319.10655 234.70553z" fill="rgba(182,0,72,.24705882)"/><path d="M278.2443 161.82975A.47625 .47625 0 00277.2918 161.82975A.47625 .47625 0 00278.2443 161.82975z" fill="rgba(182,0,72,.24705882)"/><path d="M310.95315 246.0879A.47625 .47625 0 00310.00065 246.0879A.47625 .47625 0 00310.95315 246.0879z" fill="rgba(182,0,72,.24705882)"/><path d="M268.5288 162.31553A.47625 .47625 0 00267.5763 162.31553A.47625 .47625 0 00268.5288 162.31553z" fill="rgba(182,0,72,.24705882)"/><path d="M300.69473 253.72695A.47625 .47625 0 00299.74223 253.72695A.47625 .47625 0 00300.69473 253.72695z" fill="rgba(182,0,72,.24705882)"/><path d="M259.842 162.85845A.47625 .47625 0 00258.8895 162.85845A.47625 .47625 0 00259.842 162.85845z" fill="rgba(182,0,72,.24705882)"/><path d="M288.17888 261.45173A.47625 .47625 0 00287.22638 261.45173A.47625 .47625 0 00288.17888 261.45173z" fill="rgba(182,0,72,.24705882)"/><path d="M250.55513 166.27793A.47625 .47625 0 00249.60263 166.27793A.47625 .47625 0 00250.55513 166.27793z" fill="rgba(182,0,72,.24705882)"/><path d="M274.0152 263.89965A.47625 .47625 0 00273.0627 263.89965A.47625 .47625 0 00274.0152 263.89965z" fill="rgba(182,0,72,.24705882)"/><path d="M242.99228 171.30713A.47625 .47625 0 00242.03978 171.30713A.47625 .47625 0 00242.99228 171.30713z" fill="rgba(182,0,72,.24705882)"/><path d="M262.90905 262.93763A.47625 .47625 0 00261.95655 262.93763A.47625 .47625 0 00262.90905 262.93763z" fill="rgba(182,0,72,.24705882)"/><path d="M236.82008 176.43158A.47625 .47625 0 00235.86758 176.43158A.47625 .47625 0 00236.82008 176.43158z" fill="rgba(182,0,72,.24705882)"/><path d="M232.09567 183.93727A.47625 .47625 0 00231.14318 183.93727A.47625 .47625 0 00232.09567 183.93727z" fill="rgba(182,0,72,.24705882)"/><path d="M227.6094 191.11912A.47625 .47625 0 00226.6569 191.11912A.47625 .47625 0 00227.6094 191.11912z" fill="rgba(182,0,72,.24705882)"/><path d="M243.56377 253.43168A.47625 .47625 0 00242.61128 253.43168A.47625 .47625 0 00243.56377 253.43168z" fill="rgba(182,0,72,.24705882)"/><path d="M195.6435 280.416H220.98953V264.06158H195.6435z" style="fill:rgba(182,0,72,.24705882);stroke:rgba(182,0,72,.24705882);stroke-width:.09525;stroke-miterlimit:41.994751"/><path d="M212.15033 272.06258A.47625 .47625 0 00211.19783 272.06258A.47625 .47625 0 00212.15033 272.06258z" fill="rgba(182,0,72,.24705882)"/><path d="M53.70195 88.86825H66.38925V78.2955H53.70195z" style="fill:rgba(182,0,72,.24705882);stroke:rgba(182,0,72,.24705882);stroke-width:.09525;stroke-miterlimit:41.994751"/><path d="M59.483625 84.963A.47625 .47625 0 0058.531125 84.963A.47625 .47625 0 0059.483625 84.963z" fill="rgba(182,0,72,.24705882)"/><path d="M311.41035 178.70805A.47625 .47625 0 00310.45785 178.70805A.47625 .47625 0 00311.41035 178.70805z" fill="rgba(182,0,72,.24705882)"/><path d="M320.39243 210.78825A.47625 .47625 0 00319.43993 210.78825A.47625 .47625 0 00320.39243 210.78825z" fill="rgba(182,0,72,.24705882)"/><path d="M221.79915 280.416H232.2195V266.11897H221.79915z" style="fill:rgba(182,0,72,.24705882);stroke:rgba(182,0,72,.24705882);stroke-width:.09525;stroke-miterlimit:41.994751"/><path d="M227.29507 273.03413A.47625 .47625 0 00226.34258 273.03413A.47625 .47625 0 00227.29507 273.03413z" fill="rgba(182,0,72,.24705882)"/><path d="M320.12572 198.47243A.47625 .47625 0 00319.17323 198.47243A.47625 .47625 0 00320.12572 198.47243z" fill="rgba(182,0,72,.24705882)"/><path d="M239.70615 268.09065A.47625 .47625 0 00238.75365 268.09065A.47625 .47625 0 00239.70615 268.09065z" fill="rgba(182,0,72,.24705882)"/><path d="M272.9865 253.39357A.47625 .47625 0 00272.034 253.39357A.47625 .47625 0 00272.9865 253.39357z" fill="rgba(182,0,72,.24705882)"/><path d="M273.43417 258.82283A.47625 .47625 0 00272.48167 258.82283A.47625 .47625 0 00273.43417 258.82283z" fill="rgba(182,0,72,.24705882)"/><path d="M52.10175 162.59175H70.96125V146.85645H52.10175z" style="fill:rgba(182,0,72,.24705882);stroke:rgba(182,0,72,.24705882);stroke-width:.09525;stroke-miterlimit:41.994751"/><path d="M58.112025 154.89555A.47625 .47625 0 0057.159525 154.89555A.47625 .47625 0 0058.112025 154.89555z" fill="rgba(182,0,72,.24705882)"/><path d="M316.05855 188.1378A.47625 .47625 0 00315.10605 188.1378A.47625 .47625 0 00316.05855 188.1378z" fill="rgba(182,0,72,.24705882)"/><path d="M319.64947 198.47243L315.5823 188.1378" style="fill:none;stroke:rgba(182,0,72,.24705882);stroke-width:.09525;stroke-miterlimit:41.994751"/><path d="M259.36575 162.85845L250.07888 166.27793" style="fill:none;stroke:rgba(182,0,72,.24705882);stroke-width:.09525;stroke-miterlimit:41.994751"/><path d="M226.81883 273.03413L239.2299 268.09065" style="fill:none;stroke:rgba(182,0,72,.24705882);stroke-width:.09525;stroke-miterlimit:41.994751"/><path d="M310.9341 178.70805L302.1711 169.99268" style="fill:none;stroke:rgba(182,0,72,.24705882);stroke-width:.09525;stroke-miterlimit:41.994751"/><path d="M319.91618 210.78825L319.64947 198.47243" style="fill:none;stroke:rgba(182,0,72,.24705882);stroke-width:.09525;stroke-miterlimit:41.994751"/><path d="M211.67408 272.06258L226.81883 273.03413" style="fill:none;stroke:rgba(182,0,72,.24705882);stroke-width:.09525;stroke-miterlimit:41.994751"/><path d="M320.62103 222.15158L319.91618 210.78825" style="fill:none;stroke:rgba(182,0,72,.24705882);stroke-width:.09525;stroke-miterlimit:41.994751"/><path d="M315.5823 188.1378L310.9341 178.70805" style="fill:none;stroke:rgba(182,0,72,.24705882);stroke-width:.09525;stroke-miterlimit:41.994751"/><path d="M239.2299 268.09065L243.08752 253.43168" style="fill:none;stroke:rgba(182,0,72,.24705882);stroke-width:.09525;stroke-miterlimit:41.994751"/><path d="M277.76805 161.82975L268.05255 162.31553" style="fill:none;stroke:rgba(182,0,72,.24705882);stroke-width:.09525;stroke-miterlimit:41.994751"/><path d="M318.6303 234.70553L320.62103 222.15158" style="fill:none;stroke:rgba(182,0,72,.24705882);stroke-width:.09525;stroke-miterlimit:41.994751"/><path d="M268.05255 162.31553L259.36575 162.85845" style="fill:none;stroke:rgba(182,0,72,.24705882);stroke-width:.09525;stroke-miterlimit:41.994751"/><path d="M310.4769 246.0879L318.6303 234.70553" style="fill:none;stroke:rgba(182,0,72,.24705882);stroke-width:.09525;stroke-miterlimit:41.994751"/><path d="M272.95792 258.82283L273.53895 263.89965" style="fill:none;stroke:rgba(182,0,72,.24705882);stroke-width:.09525;stroke-miterlimit:41.994751"/><path d="M300.21848 253.72695L310.4769 246.0879" style="fill:none;stroke:rgba(182,0,72,.24705882);stroke-width:.09525;stroke-miterlimit:41.994751"/><path d="M250.07888 166.27793L242.51603 171.30713" style="fill:none;stroke:rgba(182,0,72,.24705882);stroke-width:.09525;stroke-miterlimit:41.994751"/><path d="M287.70263 261.45173L300.21848 253.72695" style="fill:none;stroke:rgba(182,0,72,.24705882);stroke-width:.09525;stroke-miterlimit:41.994751"/><path d="M242.51603 171.30713L236.34383 176.43158" style="fill:none;stroke:rgba(182,0,72,.24705882);stroke-width:.09525;stroke-miterlimit:41.994751"/><path d="M273.53895 263.89965L287.70263 261.45173" style="fill:none;stroke:rgba(182,0,72,.24705882);stroke-width:.09525;stroke-miterlimit:41.994751"/><path d="M236.34383 176.43158L231.61943 183.93727" style="fill:none;stroke:rgba(182,0,72,.24705882);stroke-width:.09525;stroke-miterlimit:41.994751"/><path d="M262.4328 262.93763L273.53895 263.89965" style="fill:none;stroke:rgba(182,0,72,.24705882);stroke-width:.09525;stroke-miterlimit:41.994751"/><path d="M231.61943 183.93727L227.13315 191.11913" style="fill:none;stroke:rgba(182,0,72,.24705882);stroke-width:.09525;stroke-miterlimit:41.994751"/><path d="M262.4328 262.93763L272.95792 258.82283" style="fill:none;stroke:rgba(182,0,72,.24705882);stroke-width:.09525;stroke-miterlimit:41.994751"/><path d="M272.51025 253.39357L272.95792 258.82283" style="fill:none;stroke:rgba(182,0,72,.24705882);stroke-width:.09525;stroke-miterlimit:41.994751"/><path d="M272.95792 258.82283L287.70263 261.45173" style="fill:none;stroke:rgba(182,0,72,.24705882);stroke-width:.09525;stroke-miterlimit:41.994751"/><path d="M243.08752 253.43168L251.18377 259.03238" style="fill:none;stroke:rgba(182,0,72,.24705882);stroke-width:.09525;stroke-miterlimit:41.994751"/><path d="M251.18377 259.03238L262.4328 262.93763" style="fill:none;stroke:rgba(182,0,72,.24705882);stroke-width:.09525;stroke-miterlimit:41.994751"/><path d="M239.2299 268.09065L251.18377 259.03238" style="fill:none;stroke:rgba(182,0,72,.24705882);stroke-width:.09525;stroke-miterlimit:41.994751"/><path d="M251.66002 259.03238A.47625 .47625 0 00250.70753 259.03238A.47625 .47625 0 00251.66002 259.03238z" fill="rgba(182,0,72,.24705882)"/><path d="M289.35998 163.36328L277.76805 161.82975" style="fill:none;stroke:rgba(182,0,72,.24705882);stroke-width:.09525;stroke-miterlimit:41.994751"/><path d="M302.1711 169.99268L289.35998 163.36328" style="fill:none;stroke:rgba(182,0,72,.24705882);stroke-width:.09525;stroke-miterlimit:41.994751"/><path d="M58.378725 92.0877L59.007375 84.963" style="fill:none;stroke:rgba(182,0,72,.24705882);stroke-width:.09525;stroke-miterlimit:41.994751"/><path d="M289.83623 163.36328A.47625 .47625 0 00288.88373 163.36328A.47625 .47625 0 00289.83623 163.36328z" fill="rgba(182,0,72,.24705882)"/><path d="M15.6591 219.6465H30.95625V155.93377H15.6591z" style="fill:rgba(182,0,72,.24705882);stroke:rgba(182,0,72,.24705882);stroke-width:.09525;stroke-miterlimit:41.994751"/><path d="M25.2222 203.2254A.47625 .47625 0 0024.2697 203.2254A.47625 .47625 0 0025.2222 203.2254z" fill="rgba(182,0,72,.24705882)"/><path d="M235.56277 245.71643L243.08752 253.43168" style="fill:none;stroke:rgba(182,0,72,.24705882);stroke-width:.09525;stroke-miterlimit:41.994751"/><path d="M129.3876 219.31313L140.80808 218.57018" style="fill:none;stroke:rgba(182,0,72,.24705882);stroke-width:.09525;stroke-miterlimit:41.994751"/><path d="M65.05575 236.88675H70.96125V194.2719H65.05575z" style="fill:rgba(182,0,72,.24705882);stroke:rgba(182,0,72,.24705882);stroke-width:.09525;stroke-miterlimit:41.994751"/><path d="M67.72275 208.88325A.47625 .47625 0 0066.77025 208.88325A.47625 .47625 0 0067.72275 208.88325z" fill="rgba(182,0,72,.24705882)"/><path d="M53.387625 96.345375H62.3697V88.86825H53.387625z" style="fill:rgba(182,0,72,.24705882);stroke:rgba(182,0,72,.24705882);stroke-width:.09525;stroke-miterlimit:41.994751"/><path d="M58.854975 92.0877A.47625 .47625 0 0057.902475 92.0877A.47625 .47625 0 0058.854975 92.0877z" fill="rgba(182,0,72,.24705882)"/><path d="M145.3515 236.88675H150.6855V204.216H145.3515z" style="fill:rgba(178,0,72,.24705882);stroke:rgba(178,0,72,.24705882);stroke-width:.09525;stroke-miterlimit:41.994751"/><path d="M148.57095 217.04618A.47625 .47625 0 00147.61845 217.04618A.47625 .47625 0 00148.57095 217.04618z" fill="rgba(178,0,72,.24705882)"/><path d="M220.92285 223.71368L224.64713 231.3813" style="fill:none;stroke:rgba(178,0,72,.24705882);stroke-width:.09525;stroke-miterlimit:41.994751"/><path d="M63.712725 92.287725L58.378725 92.0877" style="fill:none;stroke:rgba(178,0,72,.24705882);stroke-width:.09525;stroke-miterlimit:41.994751"/><path d="M236.03902 245.71643A.47625 .47625 0 00235.08652 245.71643A.47625 .47625 0 00236.03902 245.71643z" fill="rgba(178,0,72,.24705882)"/><path d="M140.80808 218.57018L148.0947 217.04618" style="fill:none;stroke:rgba(178,0,72,.24705882);stroke-width:.09525;stroke-miterlimit:41.994751"/><path d="M64.188975 92.287725A.47625 .47625 0 0063.236475 92.287725A.47625 .47625 0 0064.188975 92.287725z" fill="rgba(178,0,72,.24705882)"/><path d="M136.68375 236.88675H145.3515V200.025H136.68375z" style="fill:rgba(178,0,72,.24705882);stroke:rgba(178,0,72,.24705882);stroke-width:.09525;stroke-miterlimit:41.994751"/><path d="M141.28432 218.57018A.47625 .47625 0 00140.33183 218.57018A.47625 .47625 0 00141.28432 218.57018z" fill="rgba(178,0,72,.24705882)"/><path d="M57.635775 154.89555L57.74055 162.89655" style="fill:none;stroke:rgba(178,0,72,.24705882);stroke-width:.09525;stroke-miterlimit:41.994751"/><path d="M197.1675 163.449H216.5985V149.82825H197.1675z" style="fill:rgba(178,0,72,.24705882);stroke:rgba(178,0,72,.24705882);stroke-width:.09525;stroke-miterlimit:41.994751"/><path d="M205.57807 159.69615A.47625 .47625 0 00204.62557 159.69615A.47625 .47625 0 00205.57807 159.69615z" fill="rgba(178,0,72,.24705882)"/><path d="M31.242 202.68248L24.74595 203.2254" style="fill:none;stroke:rgba(178,0,72,.24705882);stroke-width:.09525;stroke-miterlimit:41.994751"/><path d="M211.67408 272.06258L211.1502 280.5303" style="fill:none;stroke:rgba(178,0,72,.24705882);stroke-width:.09525;stroke-miterlimit:41.994751"/><path d="M65.05575 251.74575H70.96125V236.88675H65.05575z" style="fill:rgba(178,0,72,.24705882);stroke:rgba(178,0,72,.24705882);stroke-width:.09525;stroke-miterlimit:41.994751"/><path d="M67.8561 244.21148A.47625 .47625 0 0066.9036 244.21148A.47625 .47625 0 0067.8561 244.21148z" fill="rgba(178,0,72,.24705882)"/><path d="M58.378725 92.0877L38.2905 81.47685" style="fill:none;stroke:rgba(178,0,72,.24705882);stroke-width:.09525;stroke-miterlimit:41.994751"/><path d="M228.96195 238.15358L235.56277 245.71643" style="fill:none;stroke:rgba(178,0,72,.24705882);stroke-width:.09525;stroke-miterlimit:41.994751"/><path d="M225.12338 231.3813A.47625 .47625 0 00224.17088 231.3813A.47625 .47625 0 00225.12338 231.3813z" fill="rgba(178,0,72,.24705882)"/><path d="M67.541775 184.30875L67.2465 208.88325" style="fill:none;stroke:rgba(178,0,72,.24705882);stroke-width:.09525;stroke-miterlimit:41.994751"/><path d="M219.09405 215.51265L226.79025 215.33168" style="fill:none;stroke:rgba(178,0,72,.24705882);stroke-width:.09525;stroke-miterlimit:41.994751"/><path d="M130.61632 232.9815L129.3876 219.31313" style="fill:none;stroke:rgba(178,0,72,.24705882);stroke-width:.09525;stroke-miterlimit:41.994751"/><path d="M58.2168 162.89655A.47625 .47625 0 0057.2643 162.89655A.47625 .47625 0 0058.2168 162.89655z" fill="rgba(178,0,76,.24705882)"/><path d="M31.71825 194.7672H51.33975V166.497H31.71825z" style="fill:rgba(178,0,76,.24705882);stroke:rgba(178,0,76,.24705882);stroke-width:.09525;stroke-miterlimit:41.994751"/><path d="M42.052875 185.02313A.47625 .47625 0 0041.100375 185.02313A.47625 .47625 0 0042.052875 185.02313z" fill="rgba(178,0,76,.24705882)"/><path d="M52.10175 222.6945H64.29375V197.99617H52.10175z" style="fill:rgba(178,0,76,.24705882);stroke:rgba(178,0,76,.24705882);stroke-width:.09525;stroke-miterlimit:41.994751"/><path d="M58.27395 208.57845A.47625 .47625 0 0057.32145 208.57845A.47625 .47625 0 0058.27395 208.57845z" fill="rgba(178,0,76,.24705882)"/><path d="M52.10175 197.94855H64.29375V163.35375H52.10175z" style="fill:rgba(178,0,76,.24705882);stroke:rgba(178,0,76,.24705882);stroke-width:.09525;stroke-miterlimit:41.994751"/><path d="M58.674 185.48033A.47625 .47625 0 0057.7215 185.48033A.47625 .47625 0 0058.674 185.48033z" fill="rgba(178,0,76,.24705882)"/><path d="M58.493025 223.21838A.47625 .47625 0 0057.540525 223.21838A.47625 .47625 0 0058.493025 223.21838z" fill="rgba(178,0,76,.24705882)"/><path d="M196.4055 304.038H231.4575V281.178H196.4055z" style="fill:rgba(178,0,76,.24705882);stroke:rgba(178,0,76,.24705882);stroke-width:.09525;stroke-miterlimit:41.994751"/><path d="M211.33118 288.21698A.47625 .47625 0 00210.37868 288.21698A.47625 .47625 0 00211.33118 288.21698z" fill="rgba(178,0,76,.24705882)"/><path d="M51.33975 250.98375H64.29375V223.4565H51.33975z" style="fill:rgba(178,0,76,.24705882);stroke:rgba(178,0,76,.24705882);stroke-width:.09525;stroke-miterlimit:41.994751"/><path d="M57.47385 235.39133A.47625 .47625 0 0056.52135 235.39133A.47625 .47625 0 0057.47385 235.39133z" fill="rgba(178,0,76,.24705882)"/><path d="M31.71825 250.98375H51.33975V223.4565H31.71825z" style="fill:rgba(178,0,76,.24705882);stroke:rgba(178,0,76,.24705882);stroke-width:.09525;stroke-miterlimit:41.994751"/><path d="M44.681775 236.3343A.47625 .47625 0 0043.729275 236.3343A.47625 .47625 0 0044.681775 236.3343z" fill="rgba(178,0,76,.24705882)"/><path d="M31.71825 202.68248A.47625 .47625 0 0030.76575 202.68248A.47625 .47625 0 0031.71825 202.68248z" fill="rgba(178,0,76,.24705882)"/><path d="M31.71825 166.497H51.33975V158.6865H31.71825z" style="fill:rgba(178,0,76,.24705882);stroke:rgba(178,0,76,.24705882);stroke-width:.09525;stroke-miterlimit:41.994751"/><path d="M35.433 162.74415A.47625 .47625 0 0034.4805 162.74415A.47625 .47625 0 0035.433 162.74415z" fill="rgba(178,0,76,.24705882)"/><path d="M31.71825 223.4565H51.33975V194.82435H31.71825z" style="fill:rgba(178,0,76,.24705882);stroke:rgba(178,0,76,.24705882);stroke-width:.09525;stroke-miterlimit:41.994751"/><path d="M41.462325 203.51115A.47625 .47625 0 0040.509825 203.51115A.47625 .47625 0 0041.462325 203.51115z" fill="rgba(178,0,76,.24705882)"/><path d="M58.19775 185.48033L57.7977 208.57845" style="fill:none;stroke:rgba(178,0,76,.24705882);stroke-width:.09525;stroke-miterlimit:41.994751"/><path d="M40.986075 203.51115L31.242 202.68248" style="fill:none;stroke:rgba(178,0,76,.24705882);stroke-width:.09525;stroke-miterlimit:41.994751"/><path d="M40.986075 203.51115L41.576625 185.02313" style="fill:none;stroke:rgba(178,0,76,.24705882);stroke-width:.09525;stroke-miterlimit:41.994751"/><path d="M41.576625 185.02313L58.19775 185.48033" style="fill:none;stroke:rgba(178,0,76,.24705882);stroke-width:.09525;stroke-miterlimit:41.994751"/><path d="M41.576625 185.02313L34.95675 162.74415" style="fill:none;stroke:rgba(178,0,76,.24705882);stroke-width:.09525;stroke-miterlimit:41.994751"/><path d="M44.205525 236.3343L40.986075 203.51115" style="fill:none;stroke:rgba(178,0,76,.24705882);stroke-width:.09525;stroke-miterlimit:41.994751"/><path d="M44.205525 236.3343L56.9976 235.39133" style="fill:none;stroke:rgba(178,0,76,.24705882);stroke-width:.09525;stroke-miterlimit:41.994751"/><path d="M58.016775 223.21838L56.9976 235.39133" style="fill:none;stroke:rgba(178,0,76,.24705882);stroke-width:.09525;stroke-miterlimit:41.994751"/><path d="M57.7977 208.57845L58.016775 223.21838" style="fill:none;stroke:rgba(178,0,76,.24705882);stroke-width:.09525;stroke-miterlimit:41.994751"/><path d="M57.74055 162.89655L58.19775 185.48033" style="fill:none;stroke:rgba(178,0,76,.24705882);stroke-width:.09525;stroke-miterlimit:41.994751"/><path d="M224.64713 231.3813L228.96195 238.15358" style="fill:none;stroke:rgba(178,0,76,.24705882);stroke-width:.09525;stroke-miterlimit:41.994751"/><path d="M.428625 107.38485H53.43525V78.31455H.428625z" style="fill:rgba(178,0,76,.24705882);stroke:rgba(178,0,76,.24705882);stroke-width:.09525;stroke-miterlimit:41.994751"/><path d="M38.76675 81.47685A.47625 .47625 0 0037.81425 81.47685A.47625 .47625 0 0038.76675 81.47685z" fill="rgba(178,0,76,.24705882)"/><path d="M211.1502 280.5303L210.85493 288.21698" style="fill:none;stroke:rgba(178,0,76,.24705882);stroke-width:.09525;stroke-miterlimit:41.994751"/><path d="M229.4382 238.15358A.47625 .47625 0 00228.4857 238.15358A.47625 .47625 0 00229.4382 238.15358z" fill="rgba(178,0,76,.24705882)"/><path d="M115.4049 219.84653L129.3876 219.31313" style="fill:none;stroke:rgba(178,0,76,.24705882);stroke-width:.09525;stroke-miterlimit:41.994751"/><path d="M211.62645 280.5303A.47625 .47625 0 00210.67395 280.5303A.47625 .47625 0 00211.62645 280.5303z" fill="rgba(178,0,76,.24705882)"/><path d="M211.67408 272.06258L188.69025 263.50913" style="fill:none;stroke:rgba(178,0,76,.24705882);stroke-width:.09525;stroke-miterlimit:41.994751"/><path d="M202.68248 183.38483L205.10182 159.69615" style="fill:none;stroke:rgba(178,0,76,.24705882);stroke-width:.09525;stroke-miterlimit:41.994751"/><path d="M65.05575 194.3481H70.96125V162.59175H65.05575z" style="fill:rgba(178,0,76,.24705882);stroke:rgba(178,0,76,.24705882);stroke-width:.09525;stroke-miterlimit:41.994751"/><path d="M68.018025 184.30875A.47625 .47625 0 0067.065525 184.30875A.47625 .47625 0 0068.018025 184.30875z" fill="rgba(178,0,76,.24705882)"/><path d="M148.0947 217.04618L173.5455 219.43695" style="fill:none;stroke:rgba(178,0,76,.24705882);stroke-width:.09525;stroke-miterlimit:41.994751"/><path d="M205.10182 159.69615L169.53548 158.82938" style="fill:none;stroke:rgba(178,0,76,.24705882);stroke-width:.09525;stroke-miterlimit:41.994751"/><path d="M114.77625 163.449H136.2075V149.82825H114.77625z" style="fill:rgba(178,0,76,.24705882);stroke:rgba(178,0,76,.24705882);stroke-width:.09525;stroke-miterlimit:41.994751"/><path d="M132.49275 157.64828A.47625 .47625 0 00131.54025 157.64828A.47625 .47625 0 00132.49275 157.64828z" fill="rgba(178,0,76,.24705882)"/><path d="M131.09257 232.9815A.47625 .47625 0 00130.14007 232.9815A.47625 .47625 0 00131.09257 232.9815z" fill="rgba(178,0,76,.24705882)"/><path d="M260.7564 201.02513L263.25195 199.1487" style="fill:none;stroke:rgba(178,0,76,.24705882);stroke-width:.09525;stroke-miterlimit:41.994751"/><path d="M148.0947 217.04618L148.00898 202.05383" style="fill:none;stroke:rgba(178,0,76,.24705882);stroke-width:.09525;stroke-miterlimit:41.994751"/><path d="M197.1675 200.025H215.8365V163.449H197.1675z" style="fill:rgba(178,0,76,.24705882);stroke:rgba(178,0,76,.24705882);stroke-width:.09525;stroke-miterlimit:41.994751"/><path d="M203.15873 183.38483A.47625 .47625 0 00202.20623 183.38483A.47625 .47625 0 00203.15873 183.38483z" fill="rgba(178,0,76,.24705882)"/><path d="M180.11775 282.5115H195.6435V236.88675H180.11775z" style="fill:rgba(178,0,76,.24705882);stroke:rgba(178,0,76,.24705882);stroke-width:.09525;stroke-miterlimit:41.994751"/><path d="M189.1665 263.50913A.47625 .47625 0 00188.214 263.50913A.47625 .47625 0 00189.1665 263.50913z" fill="rgba(178,0,76,.24705882)"/><path d="M103.91775 236.88675H124.49175V202.40625H103.91775z" style="fill:rgba(178,0,76,.24705882);stroke:rgba(178,0,76,.24705882);stroke-width:.09525;stroke-miterlimit:41.994751"/><path d="M115.88115 219.84653A.47625 .47625 0 00114.92865 219.84653A.47625 .47625 0 00115.88115 219.84653z" fill="rgba(178,0,76,.24705882)"/><path d="M187.65203 217.96058L188.69025 263.50913" style="fill:none;stroke:rgba(178,0,76,.24705882);stroke-width:.09525;stroke-miterlimit:41.994751"/><path d="M180.11775 236.88675H197.1675V200.025H180.11775z" style="fill:rgba(178,0,76,.24705882);stroke:rgba(178,0,76,.24705882);stroke-width:.09525;stroke-miterlimit:41.994751"/><path d="M188.12828 217.96058A.47625 .47625 0 00187.17578 217.96058A.47625 .47625 0 00188.12828 217.96058z" fill="rgba(178,0,76,.24705882)"/><path d="M188.69025 263.50913L189.27128 286.22625" style="fill:none;stroke:rgba(178,0,76,.24705882);stroke-width:.09525;stroke-miterlimit:41.994751"/><path d="M180.11775 303.59033H195.6435V282.5115H180.11775z" style="fill:rgba(178,0,76,.24705882);stroke:rgba(178,0,76,.24705882);stroke-width:.09525;stroke-miterlimit:41.994751"/><path d="M189.74752 286.22625A.47625 .47625 0 00188.79503 286.22625A.47625 .47625 0 00189.74752 286.22625z" fill="rgba(178,0,76,.24705882)"/><path d="M227.2665 215.33168A.47625 .47625 0 00226.314 215.33168A.47625 .47625 0 00227.2665 215.33168z" fill="rgba(178,0,76,.24705882)"/><path d="M169.53548 158.82938L132.0165 157.64828" style="fill:none;stroke:rgba(178,0,76,.24705882);stroke-width:.09525;stroke-miterlimit:41.994751"/><path d="M57.2262 98.6409L58.378725 92.0877" style="fill:none;stroke:rgba(178,0,76,.24705882);stroke-width:.09525;stroke-miterlimit:41.994751"/><path d="M131.51167 179.53673L129.3876 219.31313" style="fill:none;stroke:rgba(178,0,76,.24705882);stroke-width:.09525;stroke-miterlimit:41.994751"/><path d="M173.5455 219.43695L187.65203 217.96058" style="fill:none;stroke:rgba(178,0,76,.24705882);stroke-width:.09525;stroke-miterlimit:41.994751"/><path d="M115.4049 219.84653L106.78477 249.936" style="fill:none;stroke:rgba(178,0,76,.24705882);stroke-width:.09525;stroke-miterlimit:41.994751"/><path d="M56.683275 72.33285A.47625 .47625 0 0055.730775 72.33285A.47625 .47625 0 0056.683275 72.33285z" fill="rgba(174,0,76,.24705882)"/><path d="M150.6855 236.88675H180.11775V200.025H150.6855z" style="fill:rgba(174,0,76,.24705882);stroke:rgba(174,0,76,.24705882);stroke-width:.09525;stroke-miterlimit:41.994751"/><path d="M174.02175 219.43695A.47625 .47625 0 00173.06925 219.43695A.47625 .47625 0 00174.02175 219.43695z" fill="rgba(174,0,76,.24705882)"/><path d="M136.2075 163.449H197.1675V149.82825H136.2075z" style="fill:rgba(174,0,76,.24705882);stroke:rgba(174,0,76,.24705882);stroke-width:.09525;stroke-miterlimit:41.994751"/><path d="M170.01173 158.82938A.47625 .47625 0 00169.05923 158.82938A.47625 .47625 0 00170.01173 158.82938z" fill="rgba(174,0,76,.24705882)"/><path d="M103.91775 258.1275H111.15675V236.88675H103.91775z" style="fill:rgba(174,0,76,.24705882);stroke:rgba(174,0,76,.24705882);stroke-width:.09525;stroke-miterlimit:41.994751"/><path d="M107.26102 249.936A.47625 .47625 0 00106.30853 249.936A.47625 .47625 0 00107.26102 249.936z" fill="rgba(174,0,76,.24705882)"/><path d="M54.9783 264.00443L87.7062 280.20645" style="fill:none;stroke:rgba(174,0,80,.24705882);stroke-width:.09525;stroke-miterlimit:41.994751"/><path d="M56.207025 72.33285L59.978925 72.285225" style="fill:none;stroke:rgba(174,0,80,.24705882);stroke-width:.09525;stroke-miterlimit:41.994751"/><path d="M132.0165 157.64828L131.51167 179.53673" style="fill:none;stroke:rgba(174,0,80,.24705882);stroke-width:.09525;stroke-miterlimit:41.994751"/><path d="M107.5563 275.16773L106.78477 249.936" style="fill:none;stroke:rgba(174,0,80,.24705882);stroke-width:.09525;stroke-miterlimit:41.994751"/><path d="M263.7282 199.1487A.47625 .47625 0 00262.7757 199.1487A.47625 .47625 0 00263.7282 199.1487z" fill="rgba(174,0,80,.24705882)"/><path d="M145.3515 203.073H150.6855V200.025H145.3515z" style="fill:rgba(174,0,80,.24705882);stroke:rgba(174,0,80,.24705882);stroke-width:.09525;stroke-miterlimit:41.994751"/><path d="M148.48523 202.05383A.47625 .47625 0 00147.53273 202.05383A.47625 .47625 0 00148.48523 202.05383z" fill="rgba(174,0,80,.24705882)"/><path d="M87.5157 170.1927L57.635775 154.89555" style="fill:none;stroke:rgba(174,0,80,.24705882);stroke-width:.09525;stroke-miterlimit:41.994751"/><path d="M57.635775 154.89555L85.93455 138.7221" style="fill:none;stroke:rgba(174,0,80,.24705882);stroke-width:.09525;stroke-miterlimit:41.994751"/><path d="M67.2465 208.88325L87.61095 216.51278" style="fill:none;stroke:rgba(174,0,80,.24705882);stroke-width:.09525;stroke-miterlimit:41.994751"/><path d="M67.2465 208.88325L87.5157 170.1927" style="fill:none;stroke:rgba(174,0,80,.24705882);stroke-width:.09525;stroke-miterlimit:41.994751"/><path d="M103.91775 306.88598H111.15675V258.40373H103.91775z" style="fill:rgba(174,0,80,.24705882);stroke:rgba(174,0,80,.24705882);stroke-width:.09525;stroke-miterlimit:41.994751"/><path d="M108.03255 275.16773A.47625 .47625 0 00107.08005 275.16773A.47625 .47625 0 00108.03255 275.16773z" fill="rgba(174,0,80,.24705882)"/><path d="M67.37985 244.21148L87.544275 246.7737" style="fill:none;stroke:rgba(174,0,80,.24705882);stroke-width:.09525;stroke-miterlimit:41.994751"/><path d="M60.455175 72.285225A.47625 .47625 0 0059.502675 72.285225A.47625 .47625 0 0060.455175 72.285225z" fill="rgba(174,0,80,.24705882)"/><path d="M87.5157 170.1927L67.541775 184.30875" style="fill:none;stroke:rgba(174,0,80,.24705882);stroke-width:.09525;stroke-miterlimit:41.994751"/><path d="M59.940825 295.93223L54.9783 264.00443" style="fill:none;stroke:rgba(174,0,80,.24705882);stroke-width:.09525;stroke-miterlimit:41.994751"/><path d="M129.8829 236.26763L130.61632 232.9815" style="fill:none;stroke:rgba(174,0,80,.24705882);stroke-width:.09525;stroke-miterlimit:41.994751"/><path d="M263.25195 199.1487L265.03312 197.87235" style="fill:none;stroke:rgba(174,0,80,.24705882);stroke-width:.09525;stroke-miterlimit:41.994751"/><path d="M53.254275 103.8225H66.38925V96.307275H53.254275z" style="fill:rgba(174,0,80,.24705882);stroke:rgba(174,0,80,.24705882);stroke-width:.09525;stroke-miterlimit:41.994751"/><path d="M57.70245 98.6409A.47625 .47625 0 0056.74995 98.6409A.47625 .47625 0 0057.70245 98.6409z" fill="rgba(174,0,80,.24705882)"/><path d="M115.4049 219.84653L87.544275 246.7737" style="fill:none;stroke:rgba(174,0,80,.24705882);stroke-width:.09525;stroke-miterlimit:41.994751"/><path d="M87.61095 216.51278L115.4049 219.84653" style="fill:none;stroke:rgba(174,0,80,.24705882);stroke-width:.09525;stroke-miterlimit:41.994751"/><path d="M59.978925 72.285225L64.75095 72.266175" style="fill:none;stroke:rgba(174,0,80,.24705882);stroke-width:.09525;stroke-miterlimit:41.994751"/><path d="M189.27128 286.22625L168.6306 289.01707" style="fill:none;stroke:rgba(174,0,80,.24705882);stroke-width:.09525;stroke-miterlimit:41.994751"/><path d="M226.79025 215.33168L229.39058 215.23643" style="fill:none;stroke:rgba(174,0,80,.24705882);stroke-width:.09525;stroke-miterlimit:41.994751"/><path d="M114.77625 200.025H136.2075V163.449H114.77625z" style="fill:rgba(174,0,80,.24705882);stroke:rgba(174,0,80,.24705882);stroke-width:.09525;stroke-miterlimit:41.994751"/><path d="M131.98792 179.53673A.47625 .47625 0 00131.03543 179.53673A.47625 .47625 0 00131.98792 179.53673z" fill="rgba(174,0,80,.24705882)"/><path d="M106.78477 249.936L87.544275 246.7737" style="fill:none;stroke:rgba(170,0,80,.24705882);stroke-width:.09525;stroke-miterlimit:41.994751"/><path d="M106.78477 249.936L115.50015 258.32753" style="fill:none;stroke:rgba(170,0,80,.24705882);stroke-width:.09525;stroke-miterlimit:41.994751"/><path d="M106.78477 249.936L87.7062 280.20645" style="fill:none;stroke:rgba(170,0,80,.24705882);stroke-width:.09525;stroke-miterlimit:41.994751"/><path d="M106.78477 249.936L121.26277 241.5921" style="fill:none;stroke:rgba(170,0,80,.24705882);stroke-width:.09525;stroke-miterlimit:41.994751"/><path d="M116.586 251.83148L106.78477 249.936" style="fill:none;stroke:rgba(170,0,80,.24705882);stroke-width:.09525;stroke-miterlimit:41.994751"/><path d="M106.78477 249.936L87.61095 216.51278" style="fill:none;stroke:rgba(170,0,80,.24705882);stroke-width:.09525;stroke-miterlimit:41.994751"/><path d="M265.50937 197.87235A.47625 .47625 0 00264.55687 197.87235A.47625 .47625 0 00265.50937 197.87235z" fill="rgba(170,0,80,.24705882)"/><path d="M148.00898 202.05383L148.02802 199.5297" style="fill:none;stroke:rgba(170,0,80,.24705882);stroke-width:.09525;stroke-miterlimit:41.994751"/><path d="M107.5563 275.16773L87.544275 246.7737" style="fill:none;stroke:rgba(170,0,80,.24705882);stroke-width:.09525;stroke-miterlimit:41.994751"/><path d="M107.5563 275.16773L113.41418 276.76792" style="fill:none;stroke:rgba(170,0,80,.24705882);stroke-width:.09525;stroke-miterlimit:41.994751"/><path d="M114.58575 263.64247L107.5563 275.16773" style="fill:none;stroke:rgba(170,0,80,.24705882);stroke-width:.09525;stroke-miterlimit:41.994751"/><path d="M115.41442 287.86455L107.5563 275.16773" style="fill:none;stroke:rgba(170,0,80,.24705882);stroke-width:.09525;stroke-miterlimit:41.994751"/><path d="M87.7062 280.20645L107.5563 275.16773" style="fill:none;stroke:rgba(170,0,80,.24705882);stroke-width:.09525;stroke-miterlimit:41.994751"/><path d="M65.2272 72.266175A.47625 .47625 0 0064.2747 72.266175A.47625 .47625 0 0065.2272 72.266175z" fill="rgba(170,0,80,.24705882)"/><path d="M45.177075 250.98375L44.205525 236.3343" style="fill:none;stroke:rgba(170,0,80,.24705882);stroke-width:.09525;stroke-miterlimit:41.994751"/><path d="M64.627125 208.80705L67.2465 208.88325" style="fill:none;stroke:rgba(170,0,85,.24705882);stroke-width:.09525;stroke-miterlimit:41.994751"/><path d="M272.51025 253.39357L272.6055 251.7267" style="fill:none;stroke:rgba(170,0,85,.24705882);stroke-width:.09525;stroke-miterlimit:41.994751"/><path d="M64.627125 208.80705L57.7977 208.57845" style="fill:none;stroke:rgba(170,0,85,.24705882);stroke-width:.09525;stroke-miterlimit:41.994751"/><path d="M64.59855 184.22303L58.19775 185.48033" style="fill:none;stroke:rgba(170,0,85,.24705882);stroke-width:.09525;stroke-miterlimit:41.994751"/><path d="M265.03312 197.87235L267.07148 197.06273" style="fill:none;stroke:rgba(170,0,85,.24705882);stroke-width:.09525;stroke-miterlimit:41.994751"/><path d="M64.75095 72.266175L70.31355 72.418575" style="fill:none;stroke:rgba(170,0,85,.24705882);stroke-width:.09525;stroke-miterlimit:41.994751"/><path d="M64.59855 184.22303L67.541775 184.30875" style="fill:none;stroke:rgba(170,0,85,.24705882);stroke-width:.09525;stroke-miterlimit:41.994751"/><path d="M70.96125 318.31598H103.91775V258.1275H70.96125z" style="fill:rgba(170,0,85,.24705882);stroke:rgba(170,0,85,.24705882);stroke-width:.09525;stroke-miterlimit:41.994751"/><path d="M88.18245 280.20645A.47625 .47625 0 0087.22995 280.20645A.47625 .47625 0 0088.18245 280.20645z" fill="rgba(170,0,85,.24705882)"/><path d="M70.96125 258.1275H103.91775V236.88675H70.96125z" style="fill:rgba(170,0,85,.24705882);stroke:rgba(170,0,85,.24705882);stroke-width:.09525;stroke-miterlimit:41.994751"/><path d="M88.020525 246.7737A.47625 .47625 0 0087.068025 246.7737A.47625 .47625 0 0088.020525 246.7737z" fill="rgba(170,0,85,.24705882)"/><path d="M70.96125 202.40625H103.91775V142.97025H70.96125z" style="fill:rgba(170,0,85,.24705882);stroke:rgba(170,0,85,.24705882);stroke-width:.09525;stroke-miterlimit:41.994751"/><path d="M87.99195 170.1927A.47625 .47625 0 0087.03945 170.1927A.47625 .47625 0 0087.99195 170.1927z" fill="rgba(170,0,85,.24705882)"/><path d="M70.7898 72.418575A.47625 .47625 0 0069.8373 72.418575A.47625 .47625 0 0070.7898 72.418575z" fill="rgba(170,0,85,.24705882)"/><path d="M155.73375 294.7035H180.11775V282.5115H155.73375z" style="fill:rgba(170,0,85,.24705882);stroke:rgba(170,0,85,.24705882);stroke-width:.09525;stroke-miterlimit:41.994751"/><path d="M169.10685 289.01707A.47625 .47625 0 00168.15435 289.01707A.47625 .47625 0 00169.10685 289.01707z" fill="rgba(170,0,85,.24705882)"/><path d="M111.15675 271.8435H119.15775V258.1275H111.15675z" style="fill:rgba(170,0,85,.24705882);stroke:rgba(170,0,85,.24705882);stroke-width:.09525;stroke-miterlimit:41.994751"/><path d="M115.062 263.64247A.47625 .47625 0 00114.1095 263.64247A.47625 .47625 0 00115.062 263.64247z" fill="rgba(170,0,85,.24705882)"/><path d="M155.73375 275.6535H179.35575V258.8895H155.73375z" style="fill:rgba(170,0,85,.24705882);stroke:rgba(170,0,85,.24705882);stroke-width:.09525;stroke-miterlimit:41.994751"/><path d="M167.0685 266.90003A.47625 .47625 0 00166.116 266.90003A.47625 .47625 0 00167.0685 266.90003z" fill="rgba(170,0,85,.24705882)"/><path d="M155.81948 267.41438A.47625 .47625 0 00154.86698 267.41438A.47625 .47625 0 00155.81948 267.41438z" fill="rgba(170,0,85,.24705882)"/><path d="M111.15675 280.9875H116.10975V271.8435H111.15675z" style="fill:rgba(170,0,85,.24705882);stroke:rgba(170,0,85,.24705882);stroke-width:.09525;stroke-miterlimit:41.994751"/><path d="M113.89042 276.76792A.47625 .47625 0 00112.93793 276.76792A.47625 .47625 0 00113.89042 276.76792z" fill="rgba(170,0,85,.24705882)"/><path d="M119.91975 293.9415H154.97175V258.8895H119.91975z" style="fill:rgba(170,0,85,.24705882);stroke:rgba(170,0,85,.24705882);stroke-width:.09525;stroke-miterlimit:41.994751"/><path d="M148.8186 267.06195A.47625 .47625 0 00147.8661 267.06195A.47625 .47625 0 00148.8186 267.06195z" fill="rgba(170,0,85,.24705882)"/><path d="M70.96125 142.97025H103.91775V132.87375H70.96125z" style="fill:rgba(170,0,85,.24705882);stroke:rgba(170,0,85,.24705882);stroke-width:.09525;stroke-miterlimit:41.994751"/><path d="M86.4108 138.7221A.47625 .47625 0 0085.4583 138.7221A.47625 .47625 0 0086.4108 138.7221z" fill="rgba(170,0,85,.24705882)"/><path d="M111.15675 294.68445H119.15775V280.9875H111.15675z" style="fill:rgba(170,0,85,.24705882);stroke:rgba(170,0,85,.24705882);stroke-width:.09525;stroke-miterlimit:41.994751"/><path d="M115.89067 287.86455A.47625 .47625 0 00114.93818 287.86455A.47625 .47625 0 00115.89067 287.86455z" fill="rgba(170,0,85,.24705882)"/><path d="M148.50427 199.5297A.47625 .47625 0 00147.55177 199.5297A.47625 .47625 0 00148.50427 199.5297z" fill="rgba(170,0,85,.24705882)"/><path d="M70.96125 127.635H80.772V120.45315H70.96125z" style="fill:rgba(170,0,85,.24705882);stroke:rgba(170,0,85,.24705882);stroke-width:.09525;stroke-miterlimit:41.994751"/><path d="M77.0382 123.28208A.47625 .47625 0 0076.0857 123.28208A.47625 .47625 0 0077.0382 123.28208z" fill="rgba(170,0,85,.24705882)"/><path d="M136.9695 199.263H152.49525V188.49975H136.9695z" style="fill:rgba(170,0,85,.24705882);stroke:rgba(170,0,85,.24705882);stroke-width:.09525;stroke-miterlimit:41.994751"/><path d="M149.07577 194.37668A.47625 .47625 0 00148.12327 194.37668A.47625 .47625 0 00149.07577 194.37668z" fill="rgba(170,0,85,.24705882)"/><path d="M130.35915 236.26763A.47625 .47625 0 00129.40665 236.26763A.47625 .47625 0 00130.35915 236.26763z" fill="rgba(170,0,85,.24705882)"/><path d="M111.15675 245.9355H131.34975V236.88675H111.15675z" style="fill:rgba(170,0,85,.24705882);stroke:rgba(170,0,85,.24705882);stroke-width:.09525;stroke-miterlimit:41.994751"/><path d="M121.73902 241.5921A.47625 .47625 0 00120.78652 241.5921A.47625 .47625 0 00121.73902 241.5921z" fill="rgba(170,0,85,.24705882)"/><path d="M153.25725 199.263H196.4055V182.97525H153.25725z" style="fill:rgba(170,0,85,.24705882);stroke:rgba(170,0,85,.24705882);stroke-width:.09525;stroke-miterlimit:41.994751"/><path d="M175.70767 189.52845A.47625 .47625 0 00174.75518 189.52845A.47625 .47625 0 00175.70767 189.52845z" fill="rgba(170,0,85,.24705882)"/><path d="M156.31477 258.1275H173.25975V246.6975H156.31477z" style="fill:rgba(170,0,85,.24705882);stroke:rgba(170,0,85,.24705882);stroke-width:.09525;stroke-miterlimit:41.994751"/><path d="M169.2021 254.6985A.47625 .47625 0 00168.2496 254.6985A.47625 .47625 0 00169.2021 254.6985z" fill="rgba(170,0,85,.24705882)"/><path d="M155.97188 255.27953A.47625 .47625 0 00155.01938 255.27953A.47625 .47625 0 00155.97188 255.27953z" fill="rgba(170,0,85,.24705882)"/><path d="M157.82925 182.97525H196.4055V178.40325H157.82925z" style="fill:rgba(170,0,85,.24705882);stroke:rgba(170,0,85,.24705882);stroke-width:.09525;stroke-miterlimit:41.994751"/><path d="M175.40287 181.06073A.47625 .47625 0 00174.45038 181.06073A.47625 .47625 0 00175.40287 181.06073z" fill="rgba(170,0,85,.24705882)"/><path d="M150.13305 258.49898A.47625 .47625 0 00149.18055 258.49898A.47625 .47625 0 00150.13305 258.49898z" fill="rgba(170,0,85,.24705882)"/><path d="M153.25725 178.40325H196.4055V164.211H153.25725z" style="fill:rgba(170,0,85,.24705882);stroke:rgba(170,0,85,.24705882);stroke-width:.09525;stroke-miterlimit:41.994751"/><path d="M176.2887 171.15473A.47625 .47625 0 00175.3362 171.15473A.47625 .47625 0 00176.2887 171.15473z" fill="rgba(170,0,85,.24705882)"/><path d="M229.86683 215.23642A.47625 .47625 0 00228.91433 215.23642A.47625 .47625 0 00229.86683 215.23642z" fill="rgba(170,0,85,.24705882)"/><path d="M131.34975 245.9355H179.92725V237.07725H131.34975z" style="fill:rgba(170,0,85,.24705882);stroke:rgba(170,0,85,.24705882);stroke-width:.09525;stroke-miterlimit:41.994751"/><path d="M153.79065 241.12538A.47625 .47625 0 00152.83815 241.12538A.47625 .47625 0 00153.79065 241.12538z" fill="rgba(170,0,85,.24705882)"/><path d="M153.3144 195.31965A.47625 .47625 0 00152.3619 195.31965A.47625 .47625 0 00153.3144 195.31965z" fill="rgba(170,0,85,.24705882)"/><path d="M70.96125 120.30075H103.91775V4.28625H70.96125z" style="fill:rgba(170,0,85,.24705882);stroke:rgba(170,0,85,.24705882);stroke-width:.09525;stroke-miterlimit:41.994751"/><path d="M87.868125 70.80885A.47625 .47625 0 0086.915625 70.80885A.47625 .47625 0 0087.868125 70.80885z" fill="rgba(170,0,85,.24705882)"/><path d="M136.9695 187.73775H152.49525V164.211H136.9695z" style="fill:rgba(170,0,85,.24705882);stroke:rgba(170,0,85,.24705882);stroke-width:.09525;stroke-miterlimit:41.994751"/><path d="M144.21802 178.7652A.47625 .47625 0 00143.26552 178.7652A.47625 .47625 0 00144.21802 178.7652z" fill="rgba(170,0,85,.24705882)"/><path d="M70.96125 236.88675H103.91775V202.40625H70.96125z" style="fill:rgba(170,0,85,.24705882);stroke:rgba(170,0,85,.24705882);stroke-width:.09525;stroke-miterlimit:41.994751"/><path d="M88.0872 216.51278A.47625 .47625 0 0087.1347 216.51278A.47625 .47625 0 0088.0872 216.51278z" fill="rgba(170,0,85,.24705882)"/><path d="M144.30375 258.1275H154.97175V246.6975H144.30375z" style="fill:rgba(170,0,85,.24705882);stroke:rgba(170,0,85,.24705882);stroke-width:.09525;stroke-miterlimit:41.994751"/><path d="M151.16175 251.3076A.47625 .47625 0 00150.20925 251.3076A.47625 .47625 0 00151.16175 251.3076z" fill="rgba(170,0,85,.24705882)"/><path d="M267.54773 197.06273A.47625 .47625 0 00266.59523 197.06273A.47625 .47625 0 00267.54773 197.06273z" fill="rgba(170,0,85,.24705882)"/><path d="M132.30225 251.78385A.47625 .47625 0 00131.34975 251.78385A.47625 .47625 0 00132.30225 251.78385z" fill="rgba(170,0,85,.24705882)"/><path d="M115.9764 258.32753A.47625 .47625 0 00115.0239 258.32753A.47625 .47625 0 00115.9764 258.32753z" fill="rgba(170,0,85,.24705882)"/><path d="M144.57045 251.7267A.47625 .47625 0 00143.61795 251.7267A.47625 .47625 0 00144.57045 251.7267z" fill="rgba(170,0,85,.24705882)"/><path d="M111.15675 258.1275H131.34975V245.9355H111.15675z" style="fill:rgba(170,0,85,.24705882);stroke:rgba(170,0,85,.24705882);stroke-width:.09525;stroke-miterlimit:41.994751"/><path d="M117.06225 251.83148A.47625 .47625 0 00116.10975 251.83148A.47625 .47625 0 00117.06225 251.83148z" fill="rgba(170,0,85,.24705882)"/><path d="M144.27517 188.0235A.47625 .47625 0 00143.32268 188.0235A.47625 .47625 0 00144.27517 188.0235z" fill="rgba(170,0,85,.24705882)"/><path d="M132.11175 258.1275H143.54175V246.6975H132.11175z" style="fill:rgba(170,0,85,.24705882);stroke:rgba(170,0,85,.24705882);stroke-width:.09525;stroke-miterlimit:41.994751"/><path d="M137.11237 251.97435A.47625 .47625 0 00136.15987 251.97435A.47625 .47625 0 00137.11237 251.97435z" fill="rgba(170,0,85,.24705882)"/><path d="M116.586 251.83148L131.826 251.78385" style="fill:none;stroke:rgba(170,0,85,.24705882);stroke-width:.09525;stroke-miterlimit:41.994751"/><path d="M152.83815 195.31965L148.59952 194.37668" style="fill:none;stroke:rgba(170,0,85,.24705882);stroke-width:.09525;stroke-miterlimit:41.994751"/><path d="M136.63612 251.97435L144.0942 251.7267" style="fill:none;stroke:rgba(170,0,85,.24705882);stroke-width:.09525;stroke-miterlimit:41.994751"/><path d="M87.5157 170.1927L87.61095 216.51278" style="fill:none;stroke:rgba(170,0,85,.24705882);stroke-width:.09525;stroke-miterlimit:41.994751"/><path d="M148.59952 194.37668L143.79892 188.0235" style="fill:none;stroke:rgba(170,0,85,.24705882);stroke-width:.09525;stroke-miterlimit:41.994751"/><path d="M144.0942 251.7267L150.6855 251.3076" style="fill:none;stroke:rgba(170,0,85,.24705882);stroke-width:.09525;stroke-miterlimit:41.994751"/><path d="M116.586 251.83148L115.50015 258.32753" style="fill:none;stroke:rgba(170,0,85,.24705882);stroke-width:.09525;stroke-miterlimit:41.994751"/><path d="M143.79892 188.0235L143.74177 178.7652" style="fill:none;stroke:rgba(170,0,85,.24705882);stroke-width:.09525;stroke-miterlimit:41.994751"/><path d="M70.31355 72.418575L87.391875 70.80885" style="fill:none;stroke:rgba(170,0,85,.24705882);stroke-width:.09525;stroke-miterlimit:41.994751"/><path d="M131.826 251.78385L136.63612 251.97435" style="fill:none;stroke:rgba(170,0,85,.24705882);stroke-width:.09525;stroke-miterlimit:41.994751"/><path d="M85.93455 138.7221L87.5157 170.1927" style="fill:none;stroke:rgba(170,0,85,.24705882);stroke-width:.09525;stroke-miterlimit:41.994751"/><path d="M155.34323 267.41438L148.34235 267.06195" style="fill:none;stroke:rgba(170,0,85,.24705882);stroke-width:.09525;stroke-miterlimit:41.994751"/><path d="M174.92663 181.06073L175.81245 171.15473" style="fill:none;stroke:rgba(170,0,85,.24705882);stroke-width:.09525;stroke-miterlimit:41.994751"/><path d="M114.58575 263.64247L115.50015 258.32753" style="fill:none;stroke:rgba(170,0,85,.24705882);stroke-width:.09525;stroke-miterlimit:41.994751"/><path d="M148.34235 267.06195L149.6568 258.49898" style="fill:none;stroke:rgba(170,0,85,.24705882);stroke-width:.09525;stroke-miterlimit:41.994751"/><path d="M150.6855 251.3076L155.49563 255.27953" style="fill:none;stroke:rgba(170,0,85,.24705882);stroke-width:.09525;stroke-miterlimit:41.994751"/><path d="M87.391875 70.80885L76.56195 123.28208" style="fill:none;stroke:rgba(170,0,85,.24705882);stroke-width:.09525;stroke-miterlimit:41.994751"/><path d="M113.41418 276.76792L114.58575 263.64247" style="fill:none;stroke:rgba(170,0,85,.24705882);stroke-width:.09525;stroke-miterlimit:41.994751"/><path d="M121.26277 241.5921L153.3144 241.12538" style="fill:none;stroke:rgba(170,0,85,.24705882);stroke-width:.09525;stroke-miterlimit:41.994751"/><path d="M166.59225 266.90003L155.34323 267.41438" style="fill:none;stroke:rgba(170,0,85,.24705882);stroke-width:.09525;stroke-miterlimit:41.994751"/><path d="M149.6568 258.49898L150.6855 251.3076" style="fill:none;stroke:rgba(170,0,85,.24705882);stroke-width:.09525;stroke-miterlimit:41.994751"/><path d="M175.23143 189.52845L174.92663 181.06073" style="fill:none;stroke:rgba(170,0,85,.24705882);stroke-width:.09525;stroke-miterlimit:41.994751"/><path d="M113.41418 276.76792L115.41442 287.86455" style="fill:none;stroke:rgba(170,0,85,.24705882);stroke-width:.09525;stroke-miterlimit:41.994751"/><path d="M87.544275 246.7737L87.7062 280.20645" style="fill:none;stroke:rgba(170,0,85,.24705882);stroke-width:.09525;stroke-miterlimit:41.994751"/><path d="M175.23143 189.52845L152.83815 195.31965" style="fill:none;stroke:rgba(170,0,85,.24705882);stroke-width:.09525;stroke-miterlimit:41.994751"/><path d="M168.72585 254.6985L155.49563 255.27953" style="fill:none;stroke:rgba(170,0,85,.24705882);stroke-width:.09525;stroke-miterlimit:41.994751"/><path d="M87.61095 216.51278L87.544275 246.7737" style="fill:none;stroke:rgba(170,0,85,.24705882);stroke-width:.09525;stroke-miterlimit:41.994751"/><path d="M121.26277 241.5921L116.586 251.83148" style="fill:none;stroke:rgba(170,0,85,.24705882);stroke-width:.09525;stroke-miterlimit:41.994751"/><path d="M121.26277 241.5921L129.8829 236.26763" style="fill:none;stroke:rgba(170,0,85,.24705882);stroke-width:.09525;stroke-miterlimit:41.994751"/><path d="M148.59952 194.37668L148.02802 199.5297" style="fill:none;stroke:rgba(170,0,85,.24705882);stroke-width:.09525;stroke-miterlimit:41.994751"/><path d="M150.6855 251.3076L155.26702 249.76455" style="fill:none;stroke:rgba(165,0,85,.24705882);stroke-width:.09525;stroke-miterlimit:41.994751"/><path d="M87.7062 280.20645L59.940825 295.93223" style="fill:none;stroke:rgba(165,0,89,.24705882);stroke-width:.09525;stroke-miterlimit:41.994751"/><path d="M155.74327 249.76455A.47625 .47625 0 00154.79077 249.76455A.47625 .47625 0 00155.74327 249.76455z" fill="rgba(165,0,89,.24705882)"/><path d="M267.07148 197.06273L269.1765 196.28168" style="fill:none;stroke:rgba(165,0,89,.24705882);stroke-width:.09525;stroke-miterlimit:41.994751"/><path d="M117.77662 276.36788L148.34235 267.06195" style="fill:none;stroke:rgba(165,0,89,.24705882);stroke-width:.09525;stroke-miterlimit:41.994751"/><path d="M48.6156 311.44845H70.96125V279.5397H48.6156z" style="fill:rgba(165,0,89,.24705882);stroke:rgba(165,0,89,.24705882);stroke-width:.09525;stroke-miterlimit:41.994751"/><path d="M60.417075 295.93223A.47625 .47625 0 0059.464575 295.93223A.47625 .47625 0 0060.417075 295.93223z" fill="rgba(165,0,89,.24705882)"/><path d="M229.39058 215.23643L233.45775 215.21738" style="fill:none;stroke:rgba(165,0,89,.24705882);stroke-width:.09525;stroke-miterlimit:41.994751"/><path d="M157.25775 249.73597L155.26702 249.76455" style="fill:none;stroke:rgba(161,0,89,.24705882);stroke-width:.09525;stroke-miterlimit:41.994751"/><path d="M45.653325 250.98375A.47625 .47625 0 0044.700825 250.98375A.47625 .47625 0 0045.653325 250.98375z" fill="rgba(161,0,89,.24705882)"/><path d="M116.87175 279.4635H121.06275V273.3675H116.87175z" style="fill:rgba(161,0,93,.24705882);stroke:rgba(161,0,93,.24705882);stroke-width:.09525;stroke-miterlimit:41.994751"/><path d="M118.25287 276.36788A.47625 .47625 0 00117.30038 276.36788A.47625 .47625 0 00118.25287 276.36788z" fill="rgba(161,0,93,.24705882)"/><path d="M269.65275 196.28168A.47625 .47625 0 00268.70025 196.28168A.47625 .47625 0 00269.65275 196.28168z" fill="rgba(161,0,93,.24705882)"/><path d="M157.734 249.73597A.47625 .47625 0 00156.7815 249.73597A.47625 .47625 0 00157.734 249.73597z" fill="rgba(161,0,93,.24705882)"/><path d="M65.0748 184.22303A.47625 .47625 0 0064.1223 184.22303A.47625 .47625 0 0065.0748 184.22303z" fill="rgba(161,0,93,.24705882)"/><path d="M65.103375 208.80705A.47625 .47625 0 0064.150875 208.80705A.47625 .47625 0 0065.103375 208.80705z" fill="rgba(161,0,93,.24705882)"/><path d="M269.1765 196.28168L273.52943 196.98653" style="fill:none;stroke:rgba(161,0,93,.24705882);stroke-width:.09525;stroke-miterlimit:41.994751"/><path d="M158.40075 249.75503L157.25775 249.73597" style="fill:none;stroke:rgba(157,0,93,.24705882);stroke-width:.09525;stroke-miterlimit:41.994751"/><path d="M233.934 215.21738A.47625 .47625 0 00232.9815 215.21738A.47625 .47625 0 00233.934 215.21738z" fill="rgba(157,0,93,.24705882)"/><path d="M286.14052 182.02275A.47625 .47625 0 00285.18802 182.02275A.47625 .47625 0 00286.14052 182.02275z" fill="rgba(157,0,93,.24705882)"/><path d="M239.22037 215.02688A.47625 .47625 0 00238.26788 215.02688A.47625 .47625 0 00239.22037 215.02688z" fill="rgba(157,0,93,.24705882)"/><path d="M240.95392 221.18003A.47625 .47625 0 00240.00143 221.18003A.47625 .47625 0 00240.95392 221.18003z" fill="rgba(157,0,93,.24705882)"/><path d="M244.13527 227.39033A.47625 .47625 0 00243.18277 227.39033A.47625 .47625 0 00244.13527 227.39033z" fill="rgba(157,0,93,.24705882)"/><path d="M248.1453 232.76243A.47625 .47625 0 00247.1928 232.76243A.47625 .47625 0 00248.1453 232.76243z" fill="rgba(157,0,93,.24705882)"/><path d="M252.99353 237.84878A.47625 .47625 0 00252.04103 237.84878A.47625 .47625 0 00252.99353 237.84878z" fill="rgba(157,0,93,.24705882)"/><path d="M257.80365 241.76355A.47625 .47625 0 00256.85115 241.76355A.47625 .47625 0 00257.80365 241.76355z" fill="rgba(157,0,93,.24705882)"/><path d="M263.70915 244.221A.47625 .47625 0 00262.75665 244.221A.47625 .47625 0 00263.70915 244.221z" fill="rgba(157,0,93,.24705882)"/><path d="M269.5575 244.74488A.47625 .47625 0 00268.605 244.74488A.47625 .47625 0 00269.5575 244.74488z" fill="rgba(157,0,93,.24705882)"/><path d="M277.69185 244.13528A.47625 .47625 0 00276.73935 244.13528A.47625 .47625 0 00277.69185 244.13528z" fill="rgba(157,0,93,.24705882)"/><path d="M283.87358 242.75415A.47625 .47625 0 00282.92108 242.75415A.47625 .47625 0 00283.87358 242.75415z" fill="rgba(157,0,93,.24705882)"/><path d="M291.26497 239.5728A.47625 .47625 0 00290.31248 239.5728A.47625 .47625 0 00291.26497 239.5728z" fill="rgba(157,0,93,.24705882)"/><path d="M296.46562 236.17238A.47625 .47625 0 00295.51313 236.17238A.47625 .47625 0 00296.46562 236.17238z" fill="rgba(157,0,93,.24705882)"/><path d="M301.36147 229.99065A.47625 .47625 0 00300.40897 229.99065A.47625 .47625 0 00301.36147 229.99065z" fill="rgba(157,0,93,.24705882)"/><path d="M304.50473 223.4565A.47625 .47625 0 00303.55223 223.4565A.47625 .47625 0 00304.50473 223.4565z" fill="rgba(157,0,93,.24705882)"/><path d="M305.15242 216.03653A.47625 .47625 0 00304.19993 216.03653A.47625 .47625 0 00305.15242 216.03653z" fill="rgba(157,0,93,.24705882)"/><path d="M273.08175 251.7267A.47625 .47625 0 00272.12925 251.7267A.47625 .47625 0 00273.08175 251.7267z" fill="rgba(157,0,93,.24705882)"/><path d="M273.0627 248.65013A.47625 .47625 0 00272.1102 248.65013A.47625 .47625 0 00273.0627 248.65013z" fill="rgba(157,0,93,.24705882)"/><path d="M303.9999 210.0834A.47625 .47625 0 00303.0474 210.0834A.47625 .47625 0 00303.9999 210.0834z" fill="rgba(157,0,93,.24705882)"/><path d="M302.21873 203.08253A.47625 .47625 0 00301.26623 203.08253A.47625 .47625 0 00302.21873 203.08253z" fill="rgba(157,0,93,.24705882)"/><path d="M299.03737 196.4436A.47625 .47625 0 00298.08488 196.4436A.47625 .47625 0 00299.03737 196.4436z" fill="rgba(157,0,93,.24705882)"/><path d="M256.31775 213.3219A.47625 .47625 0 00255.36525 213.3219A.47625 .47625 0 00256.31775 213.3219z" fill="rgba(157,0,93,.24705882)"/><path d="M294.73208 190.28093A.47625 .47625 0 00293.77958 190.28093A.47625 .47625 0 00294.73208 190.28093z" fill="rgba(157,0,93,.24705882)"/><path d="M257.8608 217.98915A.47625 .47625 0 00256.9083 217.98915A.47625 .47625 0 00257.8608 217.98915z" fill="rgba(157,0,93,.24705882)"/><path d="M291.20783 186.08993A.47625 .47625 0 00290.25533 186.08993A.47625 .47625 0 00291.20783 186.08993z" fill="rgba(157,0,93,.24705882)"/><path d="M279.78735 179.53673A.47625 .47625 0 00278.83485 179.53673A.47625 .47625 0 00279.78735 179.53673z" fill="rgba(157,0,93,.24705882)"/><path d="M260.85165 224.69475H281.66377V200.69175H260.85165z" style="fill:rgba(157,0,93,.24705882);stroke:rgba(157,0,93,.24705882);stroke-width:.09525;stroke-miterlimit:41.994751"/><path d="M278.7777 219.58935A.47625 .47625 0 00277.8252 219.58935A.47625 .47625 0 00278.7777 219.58935z" fill="rgba(157,0,93,.24705882)"/><path d="M272.6436 178.9176A.47625 .47625 0 00271.6911 178.9176A.47625 .47625 0 00272.6436 178.9176z" fill="rgba(157,0,93,.24705882)"/><path d="M266.36662 179.25098A.47625 .47625 0 00265.41413 179.25098A.47625 .47625 0 00266.36662 179.25098z" fill="rgba(157,0,93,.24705882)"/><path d="M272.86267 244.32578A.47625 .47625 0 00271.91017 244.32578A.47625 .47625 0 00272.86267 244.32578z" fill="rgba(157,0,93,.24705882)"/><path d="M260.1087 182.81333A.47625 .47625 0 00259.1562 182.81333A.47625 .47625 0 00260.1087 182.81333z" fill="rgba(157,0,93,.24705882)"/><path d="M272.74838 236.04855A.47625 .47625 0 00271.79588 236.04855A.47625 .47625 0 00272.74838 236.04855z" fill="rgba(157,0,93,.24705882)"/><path d="M276.04402 199.78688A.47625 .47625 0 00275.09152 199.78688A.47625 .47625 0 00276.04402 199.78688z" fill="rgba(157,0,93,.24705882)"/><path d="M239.24895 206.9211A.47625 .47625 0 00238.29645 206.9211A.47625 .47625 0 00239.24895 206.9211z" fill="rgba(157,0,93,.24705882)"/><path d="M274.00567 196.98653A.47625 .47625 0 00273.05318 196.98653A.47625 .47625 0 00274.00567 196.98653z" fill="rgba(157,0,93,.24705882)"/><path d="M254.6604 185.67083A.47625 .47625 0 00253.7079 185.67083A.47625 .47625 0 00254.6604 185.67083z" fill="rgba(157,0,93,.24705882)"/><path d="M249.6312 189.8523A.47625 .47625 0 00248.6787 189.8523A.47625 .47625 0 00249.6312 189.8523z" fill="rgba(157,0,93,.24705882)"/><path d="M241.9731 200.12025A.47625 .47625 0 00241.0206 200.12025A.47625 .47625 0 00241.9731 200.12025z" fill="rgba(157,0,93,.24705882)"/><path d="M245.49735 193.9671A.47625 .47625 0 00244.54485 193.9671A.47625 .47625 0 00245.49735 193.9671z" fill="rgba(157,0,93,.24705882)"/><path d="M257.38455 217.98915L255.8415 213.3219" style="fill:none;stroke:rgba(157,0,93,.24705882);stroke-width:.09525;stroke-miterlimit:41.994751"/><path d="M269.08125 244.74488L272.38642 244.32578" style="fill:none;stroke:rgba(157,0,93,.24705882);stroke-width:.09525;stroke-miterlimit:41.994751"/><path d="M277.2156 244.13528L272.58645 248.65013" style="fill:none;stroke:rgba(157,0,93,.24705882);stroke-width:.09525;stroke-miterlimit:41.994751"/><path d="M249.15495 189.8523L245.0211 193.9671" style="fill:none;stroke:rgba(157,0,93,.24705882);stroke-width:.09525;stroke-miterlimit:41.994751"/><path d="M283.39733 242.75415L290.78872 239.5728" style="fill:none;stroke:rgba(157,0,93,.24705882);stroke-width:.09525;stroke-miterlimit:41.994751"/><path d="M254.18415 185.67083L249.15495 189.8523" style="fill:none;stroke:rgba(157,0,93,.24705882);stroke-width:.09525;stroke-miterlimit:41.994751"/><path d="M233.45775 215.21738L238.74412 215.02688" style="fill:none;stroke:rgba(157,0,93,.24705882);stroke-width:.09525;stroke-miterlimit:41.994751"/><path d="M298.56113 196.4436L294.25583 190.28093" style="fill:none;stroke:rgba(157,0,93,.24705882);stroke-width:.09525;stroke-miterlimit:41.994751"/><path d="M259.63245 182.81333L254.18415 185.67083" style="fill:none;stroke:rgba(157,0,93,.24705882);stroke-width:.09525;stroke-miterlimit:41.994751"/><path d="M273.52943 196.98653L275.56777 199.78688" style="fill:none;stroke:rgba(157,0,93,.24705882);stroke-width:.09525;stroke-miterlimit:41.994751"/><path d="M241.49685 200.12025L238.7727 206.9211" style="fill:none;stroke:rgba(157,0,93,.24705882);stroke-width:.09525;stroke-miterlimit:41.994751"/><path d="M275.56777 199.78688L278.30145 219.58935" style="fill:none;stroke:rgba(157,0,93,.24705882);stroke-width:.09525;stroke-miterlimit:41.994751"/><path d="M238.7727 206.9211L238.74412 215.02688" style="fill:none;stroke:rgba(157,0,93,.24705882);stroke-width:.09525;stroke-miterlimit:41.994751"/><path d="M272.27213 236.04855L278.30145 219.58935" style="fill:none;stroke:rgba(157,0,93,.24705882);stroke-width:.09525;stroke-miterlimit:41.994751"/><path d="M238.74412 215.02688L240.47768 221.18003" style="fill:none;stroke:rgba(157,0,93,.24705882);stroke-width:.09525;stroke-miterlimit:41.994751"/><path d="M265.89038 179.25098L259.63245 182.81333" style="fill:none;stroke:rgba(157,0,93,.24705882);stroke-width:.09525;stroke-miterlimit:41.994751"/><path d="M272.38642 244.32578L277.2156 244.13528" style="fill:none;stroke:rgba(157,0,93,.24705882);stroke-width:.09525;stroke-miterlimit:41.994751"/><path d="M272.16735 178.9176L265.89038 179.25098" style="fill:none;stroke:rgba(157,0,93,.24705882);stroke-width:.09525;stroke-miterlimit:41.994751"/><path d="M272.38642 244.32578L272.27213 236.04855" style="fill:none;stroke:rgba(157,0,93,.24705882);stroke-width:.09525;stroke-miterlimit:41.994751"/><path d="M279.3111 179.53673L272.16735 178.9176" style="fill:none;stroke:rgba(157,0,93,.24705882);stroke-width:.09525;stroke-miterlimit:41.994751"/><path d="M240.47768 221.18003L243.65902 227.39033" style="fill:none;stroke:rgba(157,0,93,.24705882);stroke-width:.09525;stroke-miterlimit:41.994751"/><path d="M285.66427 182.02275L279.3111 179.53673" style="fill:none;stroke:rgba(157,0,93,.24705882);stroke-width:.09525;stroke-miterlimit:41.994751"/><path d="M243.65902 227.39033L247.66905 232.76243" style="fill:none;stroke:rgba(157,0,93,.24705882);stroke-width:.09525;stroke-miterlimit:41.994751"/><path d="M290.73158 186.08993L285.66427 182.02275" style="fill:none;stroke:rgba(157,0,93,.24705882);stroke-width:.09525;stroke-miterlimit:41.994751"/><path d="M277.2156 244.13528L283.39733 242.75415" style="fill:none;stroke:rgba(157,0,93,.24705882);stroke-width:.09525;stroke-miterlimit:41.994751"/><path d="M294.25583 190.28093L290.73158 186.08993" style="fill:none;stroke:rgba(157,0,93,.24705882);stroke-width:.09525;stroke-miterlimit:41.994751"/><path d="M278.30145 219.58935L257.38455 217.98915" style="fill:none;stroke:rgba(157,0,93,.24705882);stroke-width:.09525;stroke-miterlimit:41.994751"/><path d="M76.56195 123.28208L83.848575 123.30113" style="fill:none;stroke:rgba(157,0,93,.24705882);stroke-width:.09525;stroke-miterlimit:41.994751"/><path d="M263.2329 244.221L269.08125 244.74488" style="fill:none;stroke:rgba(157,0,93,.24705882);stroke-width:.09525;stroke-miterlimit:41.994751"/><path d="M301.74248 203.08253L298.56113 196.4436" style="fill:none;stroke:rgba(157,0,93,.24705882);stroke-width:.09525;stroke-miterlimit:41.994751"/><path d="M290.78872 239.5728L295.98937 236.17238" style="fill:none;stroke:rgba(157,0,93,.24705882);stroke-width:.09525;stroke-miterlimit:41.994751"/><path d="M303.52365 210.0834L301.74248 203.08253" style="fill:none;stroke:rgba(157,0,93,.24705882);stroke-width:.09525;stroke-miterlimit:41.994751"/><path d="M295.98937 236.17238L300.88522 229.99065" style="fill:none;stroke:rgba(157,0,93,.24705882);stroke-width:.09525;stroke-miterlimit:41.994751"/><path d="M247.66905 232.76243L252.51728 237.84878" style="fill:none;stroke:rgba(157,0,93,.24705882);stroke-width:.09525;stroke-miterlimit:41.994751"/><path d="M272.58645 248.65013L269.08125 244.74488" style="fill:none;stroke:rgba(157,0,93,.24705882);stroke-width:.09525;stroke-miterlimit:41.994751"/><path d="M272.58645 248.65013L272.38642 244.32578" style="fill:none;stroke:rgba(157,0,93,.24705882);stroke-width:.09525;stroke-miterlimit:41.994751"/><path d="M252.51728 237.84878L257.3274 241.76355" style="fill:none;stroke:rgba(157,0,93,.24705882);stroke-width:.09525;stroke-miterlimit:41.994751"/><path d="M272.6055 251.7267L272.58645 248.65013" style="fill:none;stroke:rgba(157,0,93,.24705882);stroke-width:.09525;stroke-miterlimit:41.994751"/><path d="M304.67618 216.03653L303.52365 210.0834" style="fill:none;stroke:rgba(157,0,93,.24705882);stroke-width:.09525;stroke-miterlimit:41.994751"/><path d="M300.88522 229.99065L304.02848 223.4565" style="fill:none;stroke:rgba(157,0,93,.24705882);stroke-width:.09525;stroke-miterlimit:41.994751"/><path d="M245.0211 193.9671L241.49685 200.12025" style="fill:none;stroke:rgba(157,0,93,.24705882);stroke-width:.09525;stroke-miterlimit:41.994751"/><path d="M257.3274 241.76355L263.2329 244.221" style="fill:none;stroke:rgba(157,0,93,.24705882);stroke-width:.09525;stroke-miterlimit:41.994751"/><path d="M304.02848 223.4565L304.67618 216.03653" style="fill:none;stroke:rgba(157,0,93,.24705882);stroke-width:.09525;stroke-miterlimit:41.994751"/><path d="M158.877 249.75503A.47625 .47625 0 00157.9245 249.75503A.47625 .47625 0 00158.877 249.75503z" fill="rgba(157,0,97,.24705882)"/><path d="M159.61995 249.8979L158.40075 249.75503" style="fill:none;stroke:rgba(153,0,97,.24705882);stroke-width:.09525;stroke-miterlimit:41.994751"/><path d="M255.8415 213.3219L256.1463 209.36903" style="fill:none;stroke:rgba(153,0,97,.24705882);stroke-width:.09525;stroke-miterlimit:41.994751"/><path d="M160.0962 249.8979A.47625 .47625 0 00159.1437 249.8979A.47625 .47625 0 00160.0962 249.8979z" fill="rgba(153,0,101,.24705882)"/><path d="M161.82975 249.62168L159.61995 249.8979" style="fill:none;stroke:rgba(149,0,101,.24705882);stroke-width:.09525;stroke-miterlimit:41.994751"/><path d="M256.62255 209.36903A.47625 .47625 0 00255.67005 209.36903A.47625 .47625 0 00256.62255 209.36903z" fill="rgba(149,0,105,.24705882)"/><path d="M80.772 127.635H87.7443V120.37695H80.772z" style="fill:rgba(149,0,105,.24705882);stroke:rgba(149,0,105,.24705882);stroke-width:.09525;stroke-miterlimit:41.994751"/><path d="M84.324825 123.30113A.47625 .47625 0 0083.372325 123.30113A.47625 .47625 0 0084.324825 123.30113z" fill="rgba(149,0,105,.24705882)"/><path d="M162.306 249.62168A.47625 .47625 0 00161.3535 249.62168A.47625 .47625 0 00162.306 249.62168z" fill="rgba(149,0,105,.24705882)"/><path d="M41.595675 223.01835L40.986075 203.51115" style="fill:none;stroke:rgba(149,0,105,.24705882);stroke-width:.09525;stroke-miterlimit:41.994751"/><path d="M59.98845 196.96748L85.93455 138.7221" style="fill:none;stroke:rgba(145,0,105,.24705882);stroke-width:.09525;stroke-miterlimit:41.994751"/><path d="M94.4118 130.33058L85.93455 138.7221" style="fill:none;stroke:rgba(145,0,109,.24705882);stroke-width:.09525;stroke-miterlimit:41.994751"/><path d="M256.1463 209.36903L257.04165 204.05408" style="fill:none;stroke:rgba(145,0,109,.24705882);stroke-width:.09525;stroke-miterlimit:41.994751"/><path d="M117.77662 276.36788L116.87175 276.38693" style="fill:none;stroke:rgba(141,0,109,.24705882);stroke-width:.09525;stroke-miterlimit:41.994751"/><path d="M165.25875 249.48833L161.82975 249.62168" style="fill:none;stroke:rgba(141,0,109,.24705882);stroke-width:.09525;stroke-miterlimit:41.994751"/><path d="M137.14095 249.39308L129.3876 219.31313" style="fill:none;stroke:rgba(141,0,109,.24705882);stroke-width:.09525;stroke-miterlimit:41.994751"/><path d="M214.0839 292.608L187.65203 217.96058" style="fill:none;stroke:rgba(141,0,113,.24705882);stroke-width:.09525;stroke-miterlimit:41.994751"/><path d="M257.5179 204.05408A.47625 .47625 0 00256.5654 204.05408A.47625 .47625 0 00257.5179 204.05408z" fill="rgba(141,0,113,.24705882)"/><path d="M83.848575 123.30113L95.297625 124.06313" style="fill:none;stroke:rgba(141,0,113,.24705882);stroke-width:.09525;stroke-miterlimit:41.994751"/><path d="M45.177075 250.98375L45.28185 248.6787" style="fill:none;stroke:rgba(141,0,113,.24705882);stroke-width:.09525;stroke-miterlimit:41.994751"/><path d="M165.735 249.48833A.47625 .47625 0 00164.7825 249.48833A.47625 .47625 0 00165.735 249.48833z" fill="rgba(137,0,117,.24705882)"/><path d="M216.95092 257.73698A.47625 .47625 0 00215.99842 257.73698A.47625 .47625 0 00216.95092 257.73698z" fill="rgba(137,0,117,.24705882)"/><path d="M257.04165 204.05408L260.38493 199.72973" style="fill:none;stroke:rgba(137,0,117,.24705882);stroke-width:.09525;stroke-miterlimit:41.994751"/><path d="M168.68775 249.43118L165.25875 249.48833" style="fill:none;stroke:rgba(133,0,121,.24705882);stroke-width:.09525;stroke-miterlimit:41.994751"/><path d="M87.810975 127.635H103.91775V120.63413H87.810975z" style="fill:rgba(133,0,121,.24705882);stroke:rgba(133,0,121,.24705882);stroke-width:.09525;stroke-miterlimit:41.994751"/><path d="M95.773875 124.06313A.47625 .47625 0 0094.821375 124.06313A.47625 .47625 0 0095.773875 124.06313z" fill="rgba(133,0,121,.24705882)"/><path d="M260.86118 199.72973A.47625 .47625 0 00259.90868 199.72973A.47625 .47625 0 00260.86118 199.72973z" fill="rgba(133,0,121,.24705882)"/><path d="M63.7794 91.887675L63.712725 92.287725" style="fill:none;stroke:rgba(129,0,121,.24705882);stroke-width:.09525;stroke-miterlimit:41.994751"/><path d="M169.164 249.43118A.47625 .47625 0 00168.2115 249.43118A.47625 .47625 0 00169.164 249.43118z" fill="rgba(129,0,125,.24705882)"/><path d="M211.67408 272.06258L168.2877 276.77745" style="fill:none;stroke:rgba(129,0,125,.24705882);stroke-width:.09525;stroke-miterlimit:41.994751"/><path d="M95.297625 124.06313L94.4118 130.33058" style="fill:none;stroke:rgba(129,0,125,.24705882);stroke-width:.09525;stroke-miterlimit:41.994751"/><path d="M115.4049 219.84653L142.40828 193.65278" style="fill:none;stroke:rgba(129,0,125,.24705882);stroke-width:.09525;stroke-miterlimit:41.994751"/><path d="M260.38493 199.72973L264.7188 197.17703" style="fill:none;stroke:rgba(129,0,125,.24705882);stroke-width:.09525;stroke-miterlimit:41.994751"/><path d="M172.11675 249.60263L168.68775 249.43118" style="fill:none;stroke:rgba(125,0,129,.24705882);stroke-width:.09525;stroke-miterlimit:41.994751"/><path d="M171.1452 129.44475L169.53548 158.82938" style="fill:none;stroke:rgba(125,0,129,.24705882);stroke-width:.09525;stroke-miterlimit:41.994751"/><path d="M52.10175 222.6945H65.05575V162.59175H52.10175z" style="fill:rgba(125,0,129,.24705882);stroke:rgba(125,0,129,.24705882);stroke-width:.09525;stroke-miterlimit:41.994751"/><path d="M60.4647 196.96748A.47625 .47625 0 0059.5122 196.96748A.47625 .47625 0 0060.4647 196.96748z" fill="rgba(125,0,129,.24705882)"/><path d="M70.96125 132.87375H103.91775V127.635H70.96125z" style="fill:rgba(125,0,129,.24705882);stroke:rgba(125,0,129,.24705882);stroke-width:.09525;stroke-miterlimit:41.994751"/><path d="M94.88805 130.33058A.47625 .47625 0 0093.93555 130.33058A.47625 .47625 0 0094.88805 130.33058z" fill="rgba(125,0,129,.24705882)"/><path d="M117.348 276.38693A.47625 .47625 0 00116.3955 276.38693A.47625 .47625 0 00117.348 276.38693z" fill="rgba(125,0,129,.24705882)"/><path d="M265.19505 197.17703A.47625 .47625 0 00264.24255 197.17703A.47625 .47625 0 00265.19505 197.17703z" fill="rgba(121,0,129,.24705882)"/><path d="M172.593 249.60263A.47625 .47625 0 00171.6405 249.60263A.47625 .47625 0 00172.593 249.60263z" fill="rgba(121,0,133,.24705882)"/><path d="M175.4505 249.72645L172.11675 249.60263" style="fill:none;stroke:rgba(121,0,133,.24705882);stroke-width:.09525;stroke-miterlimit:41.994751"/><path d="M116.87175 276.38693L121.24373 276.52028" style="fill:none;stroke:rgba(121,0,133,.24705882);stroke-width:.09525;stroke-miterlimit:41.994751"/><path d="M144.3609 267.85253A.47625 .47625 0 00143.4084 267.85253A.47625 .47625 0 00144.3609 267.85253z" fill="rgba(121,0,133,.24705882)"/><path d="M144.30375 270.3195H154.97175V258.8895H144.30375z" style="fill:rgba(121,0,133,.24705882);stroke:rgba(121,0,133,.24705882);stroke-width:.09525;stroke-miterlimit:41.994751"/><path d="M151.01887 263.70915A.47625 .47625 0 00150.06637 263.70915A.47625 .47625 0 00151.01887 263.70915z" fill="rgba(121,0,133,.24705882)"/><path d="M137.44575 275.6535H143.54175V258.8895H137.44575z" style="fill:rgba(121,0,133,.24705882);stroke:rgba(121,0,133,.24705882);stroke-width:.09525;stroke-miterlimit:41.994751"/><path d="M140.33182 268.48118A.47625 .47625 0 00139.37932 268.48118A.47625 .47625 0 00140.33182 268.48118z" fill="rgba(121,0,133,.24705882)"/><path d="M144.30375 258.1275H154.97175V246.6975H144.30375z" style="fill:rgba(121,0,133,.24705882);stroke:rgba(121,0,133,.24705882);stroke-width:.09525;stroke-miterlimit:41.994751"/><path d="M149.05673 252.84113A.47625 .47625 0 00148.10423 252.84113A.47625 .47625 0 00149.05673 252.84113z" fill="rgba(121,0,133,.24705882)"/><path d="M176.04105 252.7935A.47625 .47625 0 00175.08855 252.7935A.47625 .47625 0 00176.04105 252.7935z" fill="rgba(121,0,133,.24705882)"/><path d="M119.91975 275.6535H137.44575V258.8895H119.91975z" style="fill:rgba(121,0,133,.24705882);stroke:rgba(121,0,133,.24705882);stroke-width:.09525;stroke-miterlimit:41.994751"/><path d="M131.46405 268.23352A.47625 .47625 0 00130.51155 268.23352A.47625 .47625 0 00131.46405 268.23352z" fill="rgba(121,0,133,.24705882)"/><path d="M172.11675 252.7935H179.35575V246.6975H172.11675z" style="fill:rgba(121,0,133,.24705882);stroke:rgba(121,0,133,.24705882);stroke-width:.09525;stroke-miterlimit:41.994751"/><path d="M175.92675 249.72645A.47625 .47625 0 00174.97425 249.72645A.47625 .47625 0 00175.92675 249.72645z" fill="rgba(121,0,133,.24705882)"/><path d="M155.73375 270.3195H179.35575V252.7935H155.73375z" style="fill:rgba(121,0,133,.24705882);stroke:rgba(121,0,133,.24705882);stroke-width:.09525;stroke-miterlimit:41.994751"/><path d="M167.07802 260.6802A.47625 .47625 0 00166.12552 260.6802A.47625 .47625 0 00167.07802 260.6802z" fill="rgba(121,0,133,.24705882)"/><path d="M119.91975 293.9415H137.44575V275.6535H119.91975z" style="fill:rgba(121,0,133,.24705882);stroke:rgba(121,0,133,.24705882);stroke-width:.09525;stroke-miterlimit:41.994751"/><path d="M130.1877 280.71128A.47625 .47625 0 00129.2352 280.71128A.47625 .47625 0 00130.1877 280.71128z" fill="rgba(121,0,133,.24705882)"/><path d="M138.29348 282.0543A.47625 .47625 0 00137.34098 282.0543A.47625 .47625 0 00138.29348 282.0543z" fill="rgba(121,0,133,.24705882)"/><path d="M144.30375 275.6535H154.97175V270.3195H144.30375z" style="fill:rgba(121,0,133,.24705882);stroke:rgba(121,0,133,.24705882);stroke-width:.09525;stroke-miterlimit:41.994751"/><path d="M150.1521 272.6436A.47625 .47625 0 00149.1996 272.6436A.47625 .47625 0 00150.1521 272.6436z" fill="rgba(121,0,133,.24705882)"/><path d="M149.98065 275.89163A.47625 .47625 0 00149.02815 275.89163A.47625 .47625 0 00149.98065 275.89163z" fill="rgba(121,0,133,.24705882)"/><path d="M138.20775 293.9415H154.97175V276.4155H138.20775z" style="fill:rgba(121,0,133,.24705882);stroke:rgba(121,0,133,.24705882);stroke-width:.09525;stroke-miterlimit:41.994751"/><path d="M149.55202 282.67343A.47625 .47625 0 00148.59952 282.67343A.47625 .47625 0 00149.55202 282.67343z" fill="rgba(121,0,133,.24705882)"/><path d="M149.67585 272.6436L149.5044 275.89163" style="fill:none;stroke:rgba(121,0,133,.24705882);stroke-width:.09525;stroke-miterlimit:41.994751"/><path d="M129.71145 280.71128L130.9878 268.23352" style="fill:none;stroke:rgba(121,0,133,.24705882);stroke-width:.09525;stroke-miterlimit:41.994751"/><path d="M166.60177 260.6802L175.5648 252.7935" style="fill:none;stroke:rgba(121,0,133,.24705882);stroke-width:.09525;stroke-miterlimit:41.994751"/><path d="M150.54262 263.70915L149.67585 272.6436" style="fill:none;stroke:rgba(121,0,133,.24705882);stroke-width:.09525;stroke-miterlimit:41.994751"/><path d="M149.07577 282.67343L137.81723 282.0543" style="fill:none;stroke:rgba(121,0,133,.24705882);stroke-width:.09525;stroke-miterlimit:41.994751"/><path d="M150.54262 263.70915L143.88465 267.85253" style="fill:none;stroke:rgba(121,0,133,.24705882);stroke-width:.09525;stroke-miterlimit:41.994751"/><path d="M149.5044 275.89163L149.07577 282.67343" style="fill:none;stroke:rgba(121,0,133,.24705882);stroke-width:.09525;stroke-miterlimit:41.994751"/><path d="M166.60177 260.6802L150.54262 263.70915" style="fill:none;stroke:rgba(121,0,133,.24705882);stroke-width:.09525;stroke-miterlimit:41.994751"/><path d="M130.9878 268.23352L139.85557 268.48118" style="fill:none;stroke:rgba(121,0,133,.24705882);stroke-width:.09525;stroke-miterlimit:41.994751"/><path d="M139.85557 268.48118L143.88465 267.85253" style="fill:none;stroke:rgba(121,0,133,.24705882);stroke-width:.09525;stroke-miterlimit:41.994751"/><path d="M175.5648 252.7935L175.4505 249.72645" style="fill:none;stroke:rgba(121,0,133,.24705882);stroke-width:.09525;stroke-miterlimit:41.994751"/><path d="M150.54262 263.70915L148.58048 252.84113" style="fill:none;stroke:rgba(121,0,133,.24705882);stroke-width:.09525;stroke-miterlimit:41.994751"/><path d="M264.7188 197.17703L268.9098 196.9008" style="fill:none;stroke:rgba(121,0,133,.24705882);stroke-width:.09525;stroke-miterlimit:41.994751"/><path d="M137.81723 282.0543L129.71145 280.71128" style="fill:none;stroke:rgba(121,0,133,.24705882);stroke-width:.09525;stroke-miterlimit:41.994751"/><path d="M121.24373 276.52028L130.9878 268.23352" style="fill:none;stroke:rgba(117,0,133,.24705882);stroke-width:.09525;stroke-miterlimit:41.994751"/><path d="M121.24373 276.52028L129.71145 280.71128" style="fill:none;stroke:rgba(117,0,133,.24705882);stroke-width:.09525;stroke-miterlimit:41.994751"/><path d="M269.38605 196.9008A.47625 .47625 0 00268.43355 196.9008A.47625 .47625 0 00269.38605 196.9008z" fill="rgba(117,0,137,.24705882)"/><path d="M43.053 250.98375H47.625V246.79275H43.053z" style="fill:rgba(117,0,137,.24705882);stroke:rgba(117,0,137,.24705882);stroke-width:.09525;stroke-miterlimit:41.994751"/><path d="M45.7581 248.6787A.47625 .47625 0 0044.8056 248.6787A.47625 .47625 0 0045.7581 248.6787z" fill="rgba(117,0,137,.24705882)"/><path d="M27.14625 246.79275H64.29375V223.4565H27.14625z" style="fill:rgba(117,0,137,.24705882);stroke:rgba(117,0,137,.24705882);stroke-width:.09525;stroke-miterlimit:41.994751"/><path d="M46.2153 233.934A.47625 .47625 0 0045.2628 233.934A.47625 .47625 0 0046.2153 233.934z" fill="rgba(117,0,137,.24705882)"/><path d="M42.071925 223.01835A.47625 .47625 0 0041.119425 223.01835A.47625 .47625 0 0042.071925 223.01835z" fill="rgba(117,0,137,.24705882)"/><path d="M121.71998 276.52028A.47625 .47625 0 00120.76748 276.52028A.47625 .47625 0 00121.71998 276.52028z" fill="rgba(117,0,137,.24705882)"/><path d="M45.73905 233.934L45.28185 248.6787" style="fill:none;stroke:rgba(117,0,137,.24705882);stroke-width:.09525;stroke-miterlimit:41.994751"/><path d="M45.73905 233.934L41.595675 223.01835" style="fill:none;stroke:rgba(117,0,137,.24705882);stroke-width:.09525;stroke-miterlimit:41.994751"/><path d="M268.9098 196.9008L274.18665 196.03403" style="fill:none;stroke:rgba(113,0,141,.24705882);stroke-width:.09525;stroke-miterlimit:41.994751"/><path d="M285.4071 201.4347A.47625 .47625 0 00284.4546 201.4347A.47625 .47625 0 00285.4071 201.4347z" fill="rgba(109,0,141,.24705882)"/><path d="M274.6629 196.03403A.47625 .47625 0 00273.7104 196.03403A.47625 .47625 0 00274.6629 196.03403z" fill="rgba(109,0,141,.24705882)"/><path d="M288.47415 205.55903A.47625 .47625 0 00287.52165 205.55903A.47625 .47625 0 00288.47415 205.55903z" fill="rgba(109,0,141,.24705882)"/><path d="M290.19817 212.0265A.47625 .47625 0 00289.24568 212.0265A.47625 .47625 0 00290.19817 212.0265z" fill="rgba(109,0,141,.24705882)"/><path d="M281.14943 198.40575A.47625 .47625 0 00280.19693 198.40575A.47625 .47625 0 00281.14943 198.40575z" fill="rgba(109,0,141,.24705882)"/><path d="M284.93085 201.4347L287.9979 205.55903" style="fill:none;stroke:rgba(109,0,141,.24705882);stroke-width:.09525;stroke-miterlimit:41.994751"/><path d="M274.18665 196.03403L280.67318 198.40575" style="fill:none;stroke:rgba(109,0,141,.24705882);stroke-width:.09525;stroke-miterlimit:41.994751"/><path d="M287.9979 205.55903L289.72192 212.0265" style="fill:none;stroke:rgba(109,0,141,.24705882);stroke-width:.09525;stroke-miterlimit:41.994751"/><path d="M280.67318 198.40575L284.93085 201.4347" style="fill:none;stroke:rgba(109,0,141,.24705882);stroke-width:.09525;stroke-miterlimit:41.994751"/><path d="M135.9027 250.64085A.47625 .47625 0 00134.9502 250.64085A.47625 .47625 0 00135.9027 250.64085z" fill="rgba(109,0,145,.24705882)"/><path d="M195.9102 304.19993H232.89577V280.035H195.9102z" style="fill:rgba(109,0,145,.24705882);stroke:rgba(109,0,145,.24705882);stroke-width:.09525;stroke-miterlimit:41.994751"/><path d="M214.56015 292.608A.47625 .47625 0 00213.60765 292.608A.47625 .47625 0 00214.56015 292.608z" fill="rgba(109,0,145,.24705882)"/><path d="M137.14095 249.39308L135.42645 250.64085" style="fill:none;stroke:rgba(105,0,145,.24705882);stroke-width:.09525;stroke-miterlimit:41.994751"/><path d="M131.34975 258.1275H143.54175V245.9355H131.34975z" style="fill:rgba(105,0,149,.24705882);stroke:rgba(105,0,149,.24705882);stroke-width:.09525;stroke-miterlimit:41.994751"/><path d="M137.6172 249.39308A.47625 .47625 0 00136.6647 249.39308A.47625 .47625 0 00137.6172 249.39308z" fill="rgba(105,0,149,.24705882)"/><path d="M289.72192 212.0265L288.78848 218.28443" style="fill:none;stroke:rgba(105,0,149,.24705882);stroke-width:.09525;stroke-miterlimit:41.994751"/><path d="M58.6359 251.74575H65.05575V222.6945H58.6359z" style="fill:rgba(101,0,149,.24705882);stroke:rgba(101,0,149,.24705882);stroke-width:.09525;stroke-miterlimit:41.994751"/><path d="M64.40805 237.95355A.47625 .47625 0 0063.45555 237.95355A.47625 .47625 0 0064.40805 237.95355z" fill="rgba(101,0,149,.24705882)"/><path d="M41.50995 201.33945L59.98845 196.96748" style="fill:none;stroke:rgba(101,0,153,.24705882);stroke-width:.09525;stroke-miterlimit:41.994751"/><path d="M26.38425 251.74575H32.4993V222.6945H26.38425z" style="fill:rgba(101,0,153,.24705882);stroke:rgba(101,0,153,.24705882);stroke-width:.09525;stroke-miterlimit:41.994751"/><path d="M29.66085 233.65778A.47625 .47625 0 0028.70835 233.65778A.47625 .47625 0 0029.66085 233.65778z" fill="rgba(101,0,153,.24705882)"/><path d="M289.26472 218.28442A.47625 .47625 0 00288.31223 218.28442A.47625 .47625 0 00289.26472 218.28442z" fill="rgba(97,0,153,.24705882)"/><path d="M288.78848 218.28443L286.11195 221.98013" style="fill:none;stroke:rgba(97,0,157,.24705882);stroke-width:.09525;stroke-miterlimit:41.994751"/><path d="M214.0839 292.608L168.2877 276.77745" style="fill:none;stroke:rgba(93,0,161,.24705882);stroke-width:.09525;stroke-miterlimit:41.994751"/><path d="M286.5882 221.98013A.47625 .47625 0 00285.6357 221.98013A.47625 .47625 0 00286.5882 221.98013z" fill="rgba(93,0,161,.24705882)"/><path d="M41.50995 201.33945L29.1846 233.65778" style="fill:none;stroke:rgba(89,0,165,.24705882);stroke-width:.09525;stroke-miterlimit:41.994751"/><path d="M286.11195 221.98013L282.78773 225.53295" style="fill:none;stroke:rgba(89,0,165,.24705882);stroke-width:.09525;stroke-miterlimit:41.994751"/><path d="M155.73375 282.5115H180.11775V271.0815H155.73375z" style="fill:rgba(89,0,165,.24705882);stroke:rgba(89,0,165,.24705882);stroke-width:.09525;stroke-miterlimit:41.994751"/><path d="M168.4401 279.28253A.47625 .47625 0 00167.4876 279.28253A.47625 .47625 0 00168.4401 279.28253z" fill="rgba(89,0,165,.24705882)"/><path d="M135.42645 250.64085L131.56883 260.46113" style="fill:none;stroke:rgba(85,0,165,.24705882);stroke-width:.09525;stroke-miterlimit:41.994751"/><path d="M136.2075 200.025H197.1675V163.449H136.2075z" style="fill:rgba(85,0,170,.24705882);stroke:rgba(85,0,170,.24705882);stroke-width:.09525;stroke-miterlimit:41.994751"/><path d="M164.48722 181.75605A.47625 .47625 0 00163.53473 181.75605A.47625 .47625 0 00164.48722 181.75605z" fill="rgba(85,0,170,.24705882)"/><path d="M283.26398 225.53295A.47625 .47625 0 00282.31148 225.53295A.47625 .47625 0 00283.26398 225.53295z" fill="rgba(85,0,170,.24705882)"/><path d="M168.2877 276.77745L167.96385 279.28253" style="fill:none;stroke:rgba(85,0,170,.24705882);stroke-width:.09525;stroke-miterlimit:41.994751"/><path d="M142.40828 193.65278L164.01098 181.75605" style="fill:none;stroke:rgba(80,0,174,.24705882);stroke-width:.09525;stroke-miterlimit:41.994751"/><path d="M64.25565 91.887675A.47625 .47625 0 0063.30315 91.887675A.47625 .47625 0 0064.25565 91.887675z" fill="rgba(80,0,174,.24705882)"/><path d="M45.81525 236.46765L63.9318 237.95355" style="fill:none;stroke:rgba(80,0,174,.24705882);stroke-width:.09525;stroke-miterlimit:41.994751"/><path d="M142.88452 193.65278A.47625 .47625 0 00141.93203 193.65278A.47625 .47625 0 00142.88452 193.65278z" fill="rgba(80,0,174,.24705882)"/><path d="M282.78773 225.53295L279.6159 227.85705" style="fill:none;stroke:rgba(80,0,174,.24705882);stroke-width:.09525;stroke-miterlimit:41.994751"/><path d="M29.1846 233.65778L45.81525 236.46765" style="fill:none;stroke:rgba(80,0,174,.24705882);stroke-width:.09525;stroke-miterlimit:41.994751"/><path d="M142.7226 169.13542L164.01098 181.75605" style="fill:none;stroke:rgba(76,0,174,.24705882);stroke-width:.09525;stroke-miterlimit:41.994751"/><path d="M168.76395 276.77745A.47625 .47625 0 00167.81145 276.77745A.47625 .47625 0 00168.76395 276.77745z" fill="rgba(76,0,174,.24705882)"/><path d="M30.95625 222.6945H52.10175V147.42795H30.95625z" style="fill:rgba(76,0,178,.24705882);stroke:rgba(76,0,178,.24705882);stroke-width:.09525;stroke-miterlimit:41.994751"/><path d="M41.9862 201.33945A.47625 .47625 0 0041.0337 201.33945A.47625 .47625 0 0041.9862 201.33945z" fill="rgba(76,0,178,.24705882)"/><path d="M70.65645 92.0115L63.7794 91.887675" style="fill:none;stroke:rgba(76,0,178,.24705882);stroke-width:.09525;stroke-miterlimit:41.994751"/><path d="M158.51505 133.55003H268.32878V107.58488H158.51505z" style="fill:rgba(76,0,178,.24705882);stroke:rgba(76,0,178,.24705882);stroke-width:.09525;stroke-miterlimit:41.994751"/><path d="M171.62145 129.44475A.47625 .47625 0 00170.66895 129.44475A.47625 .47625 0 00171.62145 129.44475z" fill="rgba(76,0,178,.24705882)"/><path d="M280.09215 227.85705A.47625 .47625 0 00279.13965 227.85705A.47625 .47625 0 00280.09215 227.85705z" fill="rgba(76,0,178,.24705882)"/><path d="M100.09823 88.687275H107.60393V84.67725H100.09823z" style="fill:rgba(72,0,182,.24705882);stroke:rgba(72,0,182,.24705882);stroke-width:.09525;stroke-miterlimit:41.994751"/><path d="M102.2223 86.991825A.47625 .47625 0 00101.2698 86.991825A.47625 .47625 0 00102.2223 86.991825z" fill="rgba(72,0,182,.24705882)"/><path d="M91.792425 104.775H99.983925V84.67725H91.792425z" style="fill:rgba(72,0,182,.24705882);stroke:rgba(72,0,182,.24705882);stroke-width:.09525;stroke-miterlimit:41.994751"/><path d="M95.11665 91.373325A.47625 .47625 0 0094.16415 91.373325A.47625 .47625 0 0095.11665 91.373325z" fill="rgba(72,0,182,.24705882)"/><path d="M71.1327 92.0115A.47625 .47625 0 0070.1802 92.0115A.47625 .47625 0 0071.1327 92.0115z" fill="rgba(72,0,182,.24705882)"/><path d="M72.86625 108.04208H91.754325V84.67725H72.86625z" style="fill:rgba(72,0,182,.24705882);stroke:rgba(72,0,182,.24705882);stroke-width:.09525;stroke-miterlimit:41.994751"/><path d="M87.144225 93.640275A.47625 .47625 0 0086.191725 93.640275A.47625 .47625 0 0087.144225 93.640275z" fill="rgba(72,0,182,.24705882)"/><path d="M101.97465 93.659325H107.57535V89.43975H101.97465z" style="fill:rgba(72,0,182,.24705882);stroke:rgba(72,0,182,.24705882);stroke-width:.09525;stroke-miterlimit:41.994751"/><path d="M104.9655 91.620975A.47625 .47625 0 00104.013 91.620975A.47625 .47625 0 00104.9655 91.620975z" fill="rgba(72,0,182,.24705882)"/><path d="M100.04108 105.02265H108.26115V94.287975H100.04108z" style="fill:rgba(72,0,182,.24705882);stroke:rgba(72,0,182,.24705882);stroke-width:.09525;stroke-miterlimit:41.994751"/><path d="M102.489 98.478975A.47625 .47625 0 00101.5365 98.478975A.47625 .47625 0 00102.489 98.478975z" fill="rgba(72,0,182,.24705882)"/><path d="M104.48925 91.620975L101.74605 86.991825" style="fill:none;stroke:rgba(72,0,182,.24705882);stroke-width:.09525;stroke-miterlimit:41.994751"/><path d="M101.74605 86.991825L94.6404 91.373325" style="fill:none;stroke:rgba(72,0,182,.24705882);stroke-width:.09525;stroke-miterlimit:41.994751"/><path d="M104.48925 91.620975L102.01275 98.478975" style="fill:none;stroke:rgba(72,0,182,.24705882);stroke-width:.09525;stroke-miterlimit:41.994751"/><path d="M86.667975 93.640275L70.65645 92.0115" style="fill:none;stroke:rgba(72,0,182,.24705882);stroke-width:.09525;stroke-miterlimit:41.994751"/><path d="M94.6404 91.373325L86.667975 93.640275" style="fill:none;stroke:rgba(72,0,182,.24705882);stroke-width:.09525;stroke-miterlimit:41.994751"/><path d="M102.01275 98.478975L94.6404 91.373325" style="fill:none;stroke:rgba(72,0,182,.24705882);stroke-width:.09525;stroke-miterlimit:41.994751"/><path d="M143.19885 169.13542A.47625 .47625 0 00142.24635 169.13542A.47625 .47625 0 00143.19885 169.13542z" fill="rgba(72,0,182,.24705882)"/><path d="M279.6159 227.85705L275.9202 229.9335" style="fill:none;stroke:rgba(72,0,182,.24705882);stroke-width:.09525;stroke-miterlimit:41.994751"/><path d="M276.39645 229.9335A.47625 .47625 0 00275.44395 229.9335A.47625 .47625 0 00276.39645 229.9335z" fill="rgba(68,0,186,.24705882)"/><path d="M99.9363 91.582875L94.6404 91.373325" style="fill:none;stroke:rgba(68,0,186,.24705882);stroke-width:.09525;stroke-miterlimit:41.994751"/><path d="M168.2877 276.77745L139.45552 287.01683" style="fill:none;stroke:rgba(64,0,186,.24705882);stroke-width:.09525;stroke-miterlimit:41.994751"/><path d="M275.9202 229.9335L272.3388 230.57168" style="fill:none;stroke:rgba(64,0,186,.24705882);stroke-width:.09525;stroke-miterlimit:41.994751"/><path d="M119.15775 271.0815H143.54175V258.1275H119.15775z" style="fill:rgba(64,0,190,.24705882);stroke:rgba(64,0,190,.24705882);stroke-width:.09525;stroke-miterlimit:41.994751"/><path d="M132.04507 260.46113A.47625 .47625 0 00131.09258 260.46113A.47625 .47625 0 00132.04507 260.46113z" fill="rgba(64,0,190,.24705882)"/><path d="M260.49922 224.74238A.47625 .47625 0 00259.54672 224.74238A.47625 .47625 0 00260.49922 224.74238z" fill="rgba(64,0,190,.24705882)"/><path d="M263.74725 226.89503A.47625 .47625 0 00262.79475 226.89503A.47625 .47625 0 00263.74725 226.89503z" fill="rgba(64,0,190,.24705882)"/><path d="M272.81505 230.57168A.47625 .47625 0 00271.86255 230.57168A.47625 .47625 0 00272.81505 230.57168z" fill="rgba(64,0,190,.24705882)"/><path d="M269.24318 229.96208A.47625 .47625 0 00268.29068 229.96208A.47625 .47625 0 00269.24318 229.96208z" fill="rgba(64,0,190,.24705882)"/><path d="M256.47967 219.40838A.47625 .47625 0 00255.52717 219.40838A.47625 .47625 0 00256.47967 219.40838z" fill="rgba(64,0,190,.24705882)"/><path d="M258.60375 222.74213A.47625 .47625 0 00257.65125 222.74213A.47625 .47625 0 00258.60375 222.74213z" fill="rgba(64,0,190,.24705882)"/><path d="M255.08902 214.85543A.47625 .47625 0 00254.13653 214.85543A.47625 .47625 0 00255.08902 214.85543z" fill="rgba(64,0,190,.24705882)"/><path d="M266.04278 228.97147A.47625 .47625 0 00265.09028 228.97147A.47625 .47625 0 00266.04278 228.97147z" fill="rgba(64,0,190,.24705882)"/><path d="M260.02297 224.74238L258.1275 222.74213" style="fill:none;stroke:rgba(64,0,190,.24705882);stroke-width:.09525;stroke-miterlimit:41.994751"/><path d="M265.56653 228.97147L263.271 226.89503" style="fill:none;stroke:rgba(64,0,190,.24705882);stroke-width:.09525;stroke-miterlimit:41.994751"/><path d="M263.271 226.89503L260.02297 224.74238" style="fill:none;stroke:rgba(64,0,190,.24705882);stroke-width:.09525;stroke-miterlimit:41.994751"/><path d="M272.3388 230.57168L268.76693 229.96208" style="fill:none;stroke:rgba(64,0,190,.24705882);stroke-width:.09525;stroke-miterlimit:41.994751"/><path d="M258.1275 222.74213L256.00342 219.40838" style="fill:none;stroke:rgba(64,0,190,.24705882);stroke-width:.09525;stroke-miterlimit:41.994751"/><path d="M256.00342 219.40838L254.61277 214.85543" style="fill:none;stroke:rgba(64,0,190,.24705882);stroke-width:.09525;stroke-miterlimit:41.994751"/><path d="M268.76693 229.96208L265.56653 228.97147" style="fill:none;stroke:rgba(64,0,190,.24705882);stroke-width:.09525;stroke-miterlimit:41.994751"/><path d="M98.85045 92.859225H101.47935V90.344625H98.85045z" style="fill:rgba(60,0,194,.24705882);stroke:rgba(60,0,194,.24705882);stroke-width:.09525;stroke-miterlimit:41.994751"/><path d="M100.41255 91.582875A.47625 .47625 0 0099.46005 91.582875A.47625 .47625 0 00100.41255 91.582875z" fill="rgba(60,0,194,.24705882)"/><path d="M139.2555 286.10243A.47625 .47625 0 00138.303 286.10243A.47625 .47625 0 00139.2555 286.10243z" fill="rgba(60,0,194,.24705882)"/><path d="M139.45552 287.01683L131.56883 260.46113" style="fill:none;stroke:rgba(56,0,194,.24705882);stroke-width:.09525;stroke-miterlimit:41.994751"/><path d="M33.670875 251.74575H60.17895V222.6945H33.670875z" style="fill:rgba(56,0,194,.24705882);stroke:rgba(56,0,194,.24705882);stroke-width:.09525;stroke-miterlimit:41.994751"/><path d="M46.2915 236.46765A.47625 .47625 0 0045.339 236.46765A.47625 .47625 0 0046.2915 236.46765z" fill="rgba(56,0,194,.24705882)"/><path d="M139.45552 287.01683L138.77925 286.10243" style="fill:none;stroke:rgba(56,0,198,.24705882);stroke-width:.09525;stroke-miterlimit:41.994751"/><path d="M119.15775 294.7035H155.73375V271.0815H119.15775z" style="fill:rgba(52,0,198,.24705882);stroke:rgba(52,0,198,.24705882);stroke-width:.09525;stroke-miterlimit:41.994751"/><path d="M139.93177 287.01683A.47625 .47625 0 00138.97928 287.01683A.47625 .47625 0 00139.93177 287.01683z" fill="rgba(52,0,198,.24705882)"/><path d="M171.1452 129.44475L117.31942 130.4163" style="fill:none;stroke:rgba(48,0,206,.24705882);stroke-width:.09525;stroke-miterlimit:41.994751"/><path d="M108.7374 91.640025L99.9363 91.582875" style="fill:none;stroke:rgba(48,0,206,.24705882);stroke-width:.09525;stroke-miterlimit:41.994751"/><path d="M142.7226 169.13542L117.31942 130.4163" style="fill:none;stroke:rgba(48,0,206,.24705882);stroke-width:.09525;stroke-miterlimit:41.994751"/><path d="M109.21365 91.640025A.47625 .47625 0 00108.26115 91.640025A.47625 .47625 0 00109.21365 91.640025z" fill="rgba(36,0,218,.24705882)"/><path d="M127.57785 89.963625L108.7374 91.640025" style="fill:none;stroke:rgba(32,0,222,.24705882);stroke-width:.09525;stroke-miterlimit:41.994751"/><path d="M112.41405 96.573975H149.07577V85.13445H112.41405z" style="fill:rgba(28,0,222,.24705882);stroke:rgba(28,0,222,.24705882);stroke-width:.09525;stroke-miterlimit:41.994751"/><path d="M128.0541 89.963625A.47625 .47625 0 00127.1016 89.963625A.47625 .47625 0 00128.0541 89.963625z" fill="rgba(28,0,222,.24705882)"/><path d="M138.77925 286.10243L161.11538 258.11798" style="fill:none;stroke:rgba(28,0,226,.24705882);stroke-width:.09525;stroke-miterlimit:41.994751"/><path d="M117.31942 130.4163L127.57785 89.963625" style="fill:none;stroke:rgba(28,0,226,.24705882);stroke-width:.09525;stroke-miterlimit:41.994751"/><path d="M111.07102 137.53148H150.7617V99.7458H111.07102z" style="fill:rgba(24,0,230,.24705882);stroke:rgba(24,0,230,.24705882);stroke-width:.09525;stroke-miterlimit:41.994751"/><path d="M117.79567 130.4163A.47625 .47625 0 00116.84318 130.4163A.47625 .47625 0 00117.79567 130.4163z" fill="rgba(24,0,230,.24705882)"/><path d="M143.54175 271.0815H180.11775V245.9355H143.54175z" style="fill:rgba(0,0,255,.24705882);stroke:rgba(0,0,255,.24705882);stroke-width:.09525;stroke-miterlimit:41.994751"/><path d="M161.59162 258.11798A.47625 .47625 0 00160.63913 258.11798A.47625 .47625 0 00161.59162 258.11798z" fill="rgba(0,0,255,.24705882)"/></svg>