<svg version="1.1" width="359.4735mm" height="350.3295mm" viewBox="0 0 359.4735 350.3295" xmlns="http://www.w3.org/2000/svg" xmlns:xlink="http://www.w3.org/1999/xlink"><path d="M168.68775 204.50175H170.59275" style="fill:none;stroke:#f00;stroke-width:.09525;stroke-miterlimit:41.994751"/><path d="M168.68775 204.50175V202.59675" style="fill:none;stroke:#0f0;stroke-width:.09525;stroke-miterlimit:41.994751"/><path d="M232.69575 232.69575H275.36775V210.37867H232.69575z" style="fill:rgba(255,0,0,.24705882);stroke:rgba(255,0,0,.24705882);stroke-width:.09525;stroke-miterlimit:41.994751"/><path d="M253.43167 229.07625A.47625 .47625 0 00252.47917 229.07625A.47625 .47625 0 00253.43167 229.07625z" fill="rgba(255,0,0,.24705882)"/><path d="M259.1181 232.84815L252.95542 229.07625" style="fill:none;stroke:rgba(226,0,28,.24705882);stroke-width:.09525;stroke-miterlimit:41.994751"/><path d="M262.36612 335.13712A.47625 .47625 0 00261.41362 335.13712A.47625 .47625 0 00262.36612 335.13712z" fill="rgba(198,0,56,.24705882)"/><path d="M236.65815 325.2978A.47625 .47625 0 00235.70565 325.2978A.47625 .47625 0 00236.65815 325.2978z" fill="rgba(198,0,56,.24705882)"/><path d="M231.01935 311.4294A.47625 .47625 0 00230.06685 311.4294A.47625 .47625 0 00231.01935 311.4294z" fill="rgba(198,0,56,.24705882)"/><path d="M261.16598 288.40747H290.60775V267.7668H261.16598z" style="fill:rgba(198,0,56,.24705882);stroke:rgba(198,0,56,.24705882);stroke-width:.09525;stroke-miterlimit:41.994751"/><path d="M283.5402 275.1201A.47625 .47625 0 00282.5877 275.1201A.47625 .47625 0 00283.5402 275.1201z" fill="rgba(198,0,56,.24705882)"/><path d="M257.5941 322.83083A.47625 .47625 0 00256.6416 322.83083A.47625 .47625 0 00257.5941 322.83083z" fill="rgba(198,0,56,.24705882)"/><path d="M258.37515 271.63395A.47625 .47625 0 00257.42265 271.63395A.47625 .47625 0 00258.37515 271.63395z" fill="rgba(198,0,56,.24705882)"/><path d="M276.21548 322.46887A.47625 .47625 0 00275.26298 322.46887A.47625 .47625 0 00276.21548 322.46887z" fill="rgba(198,0,56,.24705882)"/><path d="M242.74462 282.30195A.47625 .47625 0 00241.79212 282.30195A.47625 .47625 0 00242.74462 282.30195z" fill="rgba(198,0,56,.24705882)"/><path d="M250.6599 335.3181A.47625 .47625 0 00249.7074 335.3181A.47625 .47625 0 00250.6599 335.3181z" fill="rgba(198,0,56,.24705882)"/><path d="M233.25772 292.61753A.47625 .47625 0 00232.30523 292.61753A.47625 .47625 0 00233.25772 292.61753z" fill="rgba(198,0,56,.24705882)"/><path d="M254.98425 238.79175H266.99527V232.73385H254.98425z" style="fill:rgba(198,0,56,.24705882);stroke:rgba(198,0,56,.24705882);stroke-width:.09525;stroke-miterlimit:41.994751"/><path d="M259.59435 232.84815A.47625 .47625 0 00258.64185 232.84815A.47625 .47625 0 00259.59435 232.84815z" fill="rgba(198,0,56,.24705882)"/><path d="M257.8989 271.63395L242.26837 282.30195" style="fill:none;stroke:rgba(198,0,56,.24705882);stroke-width:.09525;stroke-miterlimit:41.994751"/><path d="M242.26837 282.30195L232.78148 292.61753" style="fill:none;stroke:rgba(198,0,56,.24705882);stroke-width:.09525;stroke-miterlimit:41.994751"/><path d="M250.18365 335.3181L236.1819 325.2978" style="fill:none;stroke:rgba(198,0,56,.24705882);stroke-width:.09525;stroke-miterlimit:41.994751"/><path d="M230.5431 311.4294L232.78148 292.61753" style="fill:none;stroke:rgba(198,0,56,.24705882);stroke-width:.09525;stroke-miterlimit:41.994751"/><path d="M275.73923 322.46887L257.11785 322.83083" style="fill:none;stroke:rgba(198,0,56,.24705882);stroke-width:.09525;stroke-miterlimit:41.994751"/><path d="M236.1819 325.2978L230.5431 311.4294" style="fill:none;stroke:rgba(198,0,56,.24705882);stroke-width:.09525;stroke-miterlimit:41.994751"/><path d="M283.06395 275.1201L257.8989 271.63395" style="fill:none;stroke:rgba(198,0,56,.24705882);stroke-width:.09525;stroke-miterlimit:41.994751"/><path d="M257.11785 322.83083L236.1819 325.2978" style="fill:none;stroke:rgba(198,0,56,.24705882);stroke-width:.09525;stroke-miterlimit:41.994751"/><path d="M261.88987 335.13712L250.18365 335.3181" style="fill:none;stroke:rgba(198,0,56,.24705882);stroke-width:.09525;stroke-miterlimit:41.994751"/><path d="M275.73923 322.46887L261.88987 335.13712" style="fill:none;stroke:rgba(198,0,56,.24705882);stroke-width:.09525;stroke-miterlimit:41.994751"/><path d="M257.11785 322.83083L256.87973 325.65975" style="fill:none;stroke:rgba(194,0,56,.24705882);stroke-width:.09525;stroke-miterlimit:41.994751"/><path d="M257.35598 325.65975A.47625 .47625 0 00256.40348 325.65975A.47625 .47625 0 00257.35598 325.65975z" fill="rgba(194,0,60,.24705882)"/><path d="M290.71252 322.94512L275.73923 322.46887" style="fill:none;stroke:rgba(194,0,60,.24705882);stroke-width:.09525;stroke-miterlimit:41.994751"/><path d="M232.78148 292.61753L217.3605 296.8752" style="fill:none;stroke:rgba(194,0,60,.24705882);stroke-width:.09525;stroke-miterlimit:41.994751"/><path d="M261.98512 239.10607L259.1181 232.84815" style="fill:none;stroke:rgba(194,0,60,.24705882);stroke-width:.09525;stroke-miterlimit:41.994751"/><path d="M283.06395 275.1201L290.69348 270.7005" style="fill:none;stroke:rgba(194,0,60,.24705882);stroke-width:.09525;stroke-miterlimit:41.994751"/><path d="M283.06395 275.1201L279.3492 265.3665" style="fill:none;stroke:rgba(194,0,60,.24705882);stroke-width:.09525;stroke-miterlimit:41.994751"/><path d="M283.06395 275.1201L290.79825 281.35897" style="fill:none;stroke:rgba(194,0,60,.24705882);stroke-width:.09525;stroke-miterlimit:41.994751"/><path d="M236.1819 325.2978L217.44622 320.56387" style="fill:none;stroke:rgba(194,0,60,.24705882);stroke-width:.09525;stroke-miterlimit:41.994751"/><path d="M298.75162 276.12975A.47625 .47625 0 00297.79913 276.12975A.47625 .47625 0 00298.75162 276.12975z" fill="rgba(190,0,64,.24705882)"/><path d="M295.25595 231.85755A.47625 .47625 0 00294.30345 231.85755A.47625 .47625 0 00295.25595 231.85755z" fill="rgba(190,0,64,.24705882)"/><path d="M258.83235 249.24067H272.88173V239.22037H258.83235z" style="fill:rgba(190,0,64,.24705882);stroke:rgba(190,0,64,.24705882);stroke-width:.09525;stroke-miterlimit:41.994751"/><path d="M267.462 247.77382A.47625 .47625 0 00266.5095 247.77382A.47625 .47625 0 00267.462 247.77382z" fill="rgba(190,0,64,.24705882)"/><path d="M222.6564 207.78787A.47625 .47625 0 00221.7039 207.78787A.47625 .47625 0 00222.6564 207.78787z" fill="rgba(190,0,64,.24705882)"/><path d="M248.26912 247.73573A.47625 .47625 0 00247.31662 247.73573A.47625 .47625 0 00248.26912 247.73573z" fill="rgba(190,0,64,.24705882)"/><path d="M220.7133 219.17977A.47625 .47625 0 00219.7608 219.17977A.47625 .47625 0 00220.7133 219.17977z" fill="rgba(190,0,64,.24705882)"/><path d="M291.18877 322.94512A.47625 .47625 0 00290.23627 322.94512A.47625 .47625 0 00291.18877 322.94512z" fill="rgba(190,0,64,.24705882)"/><path d="M215.6079 228.69525A.47625 .47625 0 00214.6554 228.69525A.47625 .47625 0 00215.6079 228.69525z" fill="rgba(190,0,64,.24705882)"/><path d="M217.92247 320.56387A.47625 .47625 0 00216.96998 320.56387A.47625 .47625 0 00217.92247 320.56387z" fill="rgba(190,0,64,.24705882)"/><path d="M298.75162 247.9929A.47625 .47625 0 00297.79913 247.9929A.47625 .47625 0 00298.75162 247.9929z" fill="rgba(190,0,64,.24705882)"/><path d="M210.34058 330.8985A.47625 .47625 0 00209.38808 330.8985A.47625 .47625 0 00210.34058 330.8985z" fill="rgba(190,0,64,.24705882)"/><path d="M290.7411 284.6451H294.3606V277.33942H290.7411z" style="fill:rgba(190,0,64,.24705882);stroke:rgba(190,0,64,.24705882);stroke-width:.09525;stroke-miterlimit:41.994751"/><path d="M291.2745 281.35897A.47625 .47625 0 00290.322 281.35897A.47625 .47625 0 00291.2745 281.35897z" fill="rgba(190,0,64,.24705882)"/><path d="M232.03852 247.85002A.47625 .47625 0 00231.08603 247.85002A.47625 .47625 0 00232.03852 247.85002z" fill="rgba(190,0,64,.24705882)"/><path d="M235.5342 198.35812A.47625 .47625 0 00234.5817 198.35812A.47625 .47625 0 00235.5342 198.35812z" fill="rgba(190,0,64,.24705882)"/><path d="M221.11335 242.07787A.47625 .47625 0 00220.16085 242.07787A.47625 .47625 0 00221.11335 242.07787z" fill="rgba(190,0,64,.24705882)"/><path d="M211.55978 308.01945A.47625 .47625 0 00210.60728 308.01945A.47625 .47625 0 00211.55978 308.01945z" fill="rgba(190,0,64,.24705882)"/><path d="M279.82545 265.3665A.47625 .47625 0 00278.87295 265.3665A.47625 .47625 0 00279.82545 265.3665z" fill="rgba(190,0,64,.24705882)"/><path d="M291.16973 270.7005A.47625 .47625 0 00290.21723 270.7005A.47625 .47625 0 00291.16973 270.7005z" fill="rgba(190,0,64,.24705882)"/><path d="M243.1542 199.47255A.47625 .47625 0 00242.2017 199.47255A.47625 .47625 0 00243.1542 199.47255z" fill="rgba(190,0,64,.24705882)"/><path d="M262.46137 239.10607A.47625 .47625 0 00261.50887 239.10607A.47625 .47625 0 00262.46137 239.10607z" fill="rgba(190,0,64,.24705882)"/><path d="M254.95567 200.9394A.47625 .47625 0 00254.00317 200.9394A.47625 .47625 0 00254.95567 200.9394z" fill="rgba(190,0,64,.24705882)"/><path d="M262.41375 265.23315H273.45322V252.58395H262.41375z" style="fill:rgba(190,0,64,.24705882);stroke:rgba(190,0,64,.24705882);stroke-width:.09525;stroke-miterlimit:41.994751"/><path d="M268.74787 259.36575A.47625 .47625 0 00267.79537 259.36575A.47625 .47625 0 00268.74787 259.36575z" fill="rgba(190,0,64,.24705882)"/><path d="M274.82482 200.4822A.47625 .47625 0 00273.87232 200.4822A.47625 .47625 0 00274.82482 200.4822z" fill="rgba(190,0,64,.24705882)"/><path d="M273.4437 265.35697H294.41775V252.54585H273.4437z" style="fill:rgba(190,0,64,.24705882);stroke:rgba(190,0,64,.24705882);stroke-width:.09525;stroke-miterlimit:41.994751"/><path d="M284.65463 260.88975A.47625 .47625 0 00283.70213 260.88975A.47625 .47625 0 00284.65463 260.88975z" fill="rgba(190,0,64,.24705882)"/><path d="M286.7025 208.13077A.47625 .47625 0 00285.75 208.13077A.47625 .47625 0 00286.7025 208.13077z" fill="rgba(190,0,64,.24705882)"/><path d="M294.63682 245.16397A.47625 .47625 0 00293.68433 245.16397A.47625 .47625 0 00294.63682 245.16397z" fill="rgba(190,0,64,.24705882)"/><path d="M296.94187 212.65515A.47625 .47625 0 00295.98937 212.65515A.47625 .47625 0 00296.94187 212.65515z" fill="rgba(190,0,64,.24705882)"/><path d="M217.83675 296.8752A.47625 .47625 0 00216.88425 296.8752A.47625 .47625 0 00217.83675 296.8752z" fill="rgba(190,0,64,.24705882)"/><path d="M222.9231 197.15797A.47625 .47625 0 00221.9706 197.15797A.47625 .47625 0 00222.9231 197.15797z" fill="rgba(190,0,64,.24705882)"/><path d="M220.6371 242.07787L231.56227 247.85002" style="fill:none;stroke:rgba(190,0,64,.24705882);stroke-width:.09525;stroke-miterlimit:41.994751"/><path d="M294.16057 245.16397L294.7797 231.85755" style="fill:none;stroke:rgba(190,0,64,.24705882);stroke-width:.09525;stroke-miterlimit:41.994751"/><path d="M217.3605 296.8752L211.08353 308.01945" style="fill:none;stroke:rgba(190,0,64,.24705882);stroke-width:.09525;stroke-miterlimit:41.994751"/><path d="M286.22625 208.13077L274.34857 200.4822" style="fill:none;stroke:rgba(190,0,64,.24705882);stroke-width:.09525;stroke-miterlimit:41.994751"/><path d="M222.44685 197.15797L235.05795 198.35812" style="fill:none;stroke:rgba(190,0,64,.24705882);stroke-width:.09525;stroke-miterlimit:41.994751"/><path d="M274.34857 200.4822L254.47942 200.9394" style="fill:none;stroke:rgba(190,0,64,.24705882);stroke-width:.09525;stroke-miterlimit:41.994751"/><path d="M284.17838 260.88975L279.3492 265.3665" style="fill:none;stroke:rgba(190,0,64,.24705882);stroke-width:.09525;stroke-miterlimit:41.994751"/><path d="M222.44685 197.15797L222.18015 207.78787" style="fill:none;stroke:rgba(190,0,64,.24705882);stroke-width:.09525;stroke-miterlimit:41.994751"/><path d="M254.47942 200.9394L242.67795 199.47255" style="fill:none;stroke:rgba(190,0,64,.24705882);stroke-width:.09525;stroke-miterlimit:41.994751"/><path d="M242.67795 199.47255L235.05795 198.35812" style="fill:none;stroke:rgba(190,0,64,.24705882);stroke-width:.09525;stroke-miterlimit:41.994751"/><path d="M268.27162 259.36575L284.17838 260.88975" style="fill:none;stroke:rgba(190,0,64,.24705882);stroke-width:.09525;stroke-miterlimit:41.994751"/><path d="M211.08353 308.01945L217.44622 320.56387" style="fill:none;stroke:rgba(190,0,64,.24705882);stroke-width:.09525;stroke-miterlimit:41.994751"/><path d="M294.7797 231.85755L296.46562 212.65515" style="fill:none;stroke:rgba(190,0,64,.24705882);stroke-width:.09525;stroke-miterlimit:41.994751"/><path d="M296.46562 212.65515L286.22625 208.13077" style="fill:none;stroke:rgba(190,0,64,.24705882);stroke-width:.09525;stroke-miterlimit:41.994751"/><path d="M284.17838 260.88975L294.16057 245.16397" style="fill:none;stroke:rgba(190,0,64,.24705882);stroke-width:.09525;stroke-miterlimit:41.994751"/><path d="M217.44622 320.56387L209.86433 330.8985" style="fill:none;stroke:rgba(190,0,64,.24705882);stroke-width:.09525;stroke-miterlimit:41.994751"/><path d="M298.27537 247.9929L294.16057 245.16397" style="fill:none;stroke:rgba(190,0,64,.24705882);stroke-width:.09525;stroke-miterlimit:41.994751"/><path d="M231.56227 247.85002L247.79287 247.73573" style="fill:none;stroke:rgba(190,0,64,.24705882);stroke-width:.09525;stroke-miterlimit:41.994751"/><path d="M215.13165 228.69525L220.6371 242.07787" style="fill:none;stroke:rgba(190,0,64,.24705882);stroke-width:.09525;stroke-miterlimit:41.994751"/><path d="M220.23705 219.17977L215.13165 228.69525" style="fill:none;stroke:rgba(190,0,64,.24705882);stroke-width:.09525;stroke-miterlimit:41.994751"/><path d="M247.79287 247.73573L266.98575 247.77382" style="fill:none;stroke:rgba(190,0,64,.24705882);stroke-width:.09525;stroke-miterlimit:41.994751"/><path d="M222.18015 207.78787L220.23705 219.17977" style="fill:none;stroke:rgba(190,0,64,.24705882);stroke-width:.09525;stroke-miterlimit:41.994751"/><path d="M266.98575 247.77382L261.98512 239.10607" style="fill:none;stroke:rgba(190,0,64,.24705882);stroke-width:.09525;stroke-miterlimit:41.994751"/><path d="M266.98575 247.77382L294.16057 245.16397" style="fill:none;stroke:rgba(190,0,64,.24705882);stroke-width:.09525;stroke-miterlimit:41.994751"/><path d="M266.98575 247.77382L268.27162 259.36575" style="fill:none;stroke:rgba(190,0,64,.24705882);stroke-width:.09525;stroke-miterlimit:41.994751"/><path d="M211.08353 308.01945L205.07325 308.23852" style="fill:none;stroke:rgba(186,0,68,.24705882);stroke-width:.09525;stroke-miterlimit:41.994751"/><path d="M268.27162 259.36575L262.18515 258.47992" style="fill:none;stroke:rgba(186,0,68,.24705882);stroke-width:.09525;stroke-miterlimit:41.994751"/><path d="M298.06583 251.8029L298.27537 247.9929" style="fill:none;stroke:rgba(186,0,68,.24705882);stroke-width:.09525;stroke-miterlimit:41.994751"/><path d="M296.51325 303.6951L275.73923 322.46887" style="fill:none;stroke:rgba(186,0,68,.24705882);stroke-width:.09525;stroke-miterlimit:41.994751"/><path d="M298.27537 276.12975L298.49445 279.28252" style="fill:none;stroke:rgba(186,0,68,.24705882);stroke-width:.09525;stroke-miterlimit:41.994751"/><path d="M294.48442 263.39482L290.69348 270.7005" style="fill:none;stroke:rgba(186,0,68,.24705882);stroke-width:.09525;stroke-miterlimit:41.994751"/><path d="M298.0563 272.89125L298.27537 276.12975" style="fill:none;stroke:rgba(186,0,68,.24705882);stroke-width:.09525;stroke-miterlimit:41.994751"/><path d="M205.08277 331.46047L209.86433 330.8985" style="fill:none;stroke:rgba(186,0,68,.24705882);stroke-width:.09525;stroke-miterlimit:41.994751"/><path d="M290.79825 281.35897L294.50347 284.67368" style="fill:none;stroke:rgba(186,0,68,.24705882);stroke-width:.09525;stroke-miterlimit:41.994751"/><path d="M262.6614 258.47992A.47625 .47625 0 00261.7089 258.47992A.47625 .47625 0 00262.6614 258.47992z" fill="rgba(182,0,68,.24705882)"/><path d="M197.72947 331.9272A.47625 .47625 0 00196.77697 331.9272A.47625 .47625 0 00197.72947 331.9272z" fill="rgba(182,0,68,.24705882)"/><path d="M294.97972 284.67368A.47625 .47625 0 00294.02722 284.67368A.47625 .47625 0 00294.97972 284.67368z" fill="rgba(182,0,68,.24705882)"/><path d="M205.55902 331.46047A.47625 .47625 0 00204.60653 331.46047A.47625 .47625 0 00205.55902 331.46047z" fill="rgba(182,0,68,.24705882)"/><path d="M298.9707 279.28252A.47625 .47625 0 00298.0182 279.28252A.47625 .47625 0 00298.9707 279.28252z" fill="rgba(182,0,68,.24705882)"/><path d="M298.53255 272.89125A.47625 .47625 0 00297.58005 272.89125A.47625 .47625 0 00298.53255 272.89125z" fill="rgba(182,0,68,.24705882)"/><path d="M205.5495 308.23852A.47625 .47625 0 00204.597 308.23852A.47625 .47625 0 00205.5495 308.23852z" fill="rgba(182,0,68,.24705882)"/><path d="M298.61827 262.98525A.47625 .47625 0 00297.66577 262.98525A.47625 .47625 0 00298.61827 262.98525z" fill="rgba(182,0,68,.24705882)"/><path d="M294.44633 300.40897H308.13375V282.50198H294.44633z" style="fill:rgba(182,0,68,.24705882);stroke:rgba(182,0,68,.24705882);stroke-width:.09525;stroke-miterlimit:41.994751"/><path d="M303.64747 291.6555A.47625 .47625 0 00302.69497 291.6555A.47625 .47625 0 00303.64747 291.6555z" fill="rgba(182,0,68,.24705882)"/><path d="M298.54208 251.8029A.47625 .47625 0 00297.58958 251.8029A.47625 .47625 0 00298.54208 251.8029z" fill="rgba(182,0,68,.24705882)"/><path d="M294.96067 263.39482A.47625 .47625 0 00294.00817 263.39482A.47625 .47625 0 00294.96067 263.39482z" fill="rgba(182,0,68,.24705882)"/><path d="M298.14202 262.98525L298.0563 272.89125" style="fill:none;stroke:rgba(182,0,68,.24705882);stroke-width:.09525;stroke-miterlimit:41.994751"/><path d="M197.25322 331.9272L205.08277 331.46047" style="fill:none;stroke:rgba(182,0,68,.24705882);stroke-width:.09525;stroke-miterlimit:41.994751"/><path d="M294.50347 284.67368L303.17122 291.6555" style="fill:none;stroke:rgba(182,0,68,.24705882);stroke-width:.09525;stroke-miterlimit:41.994751"/><path d="M215.13165 228.69525L210.71205 224.04705" style="fill:none;stroke:rgba(182,0,68,.24705882);stroke-width:.09525;stroke-miterlimit:41.994751"/><path d="M296.7228 322.4022L290.71252 322.94512" style="fill:none;stroke:rgba(182,0,68,.24705882);stroke-width:.09525;stroke-miterlimit:41.994751"/><path d="M294.48442 263.39482L298.14202 262.98525" style="fill:none;stroke:rgba(182,0,68,.24705882);stroke-width:.09525;stroke-miterlimit:41.994751"/><path d="M298.49445 279.28252L303.17122 291.6555" style="fill:none;stroke:rgba(182,0,68,.24705882);stroke-width:.09525;stroke-miterlimit:41.994751"/><path d="M205.07325 308.23852L197.25322 331.9272" style="fill:none;stroke:rgba(182,0,68,.24705882);stroke-width:.09525;stroke-miterlimit:41.994751"/><path d="M298.14202 262.98525L298.06583 251.8029" style="fill:none;stroke:rgba(182,0,68,.24705882);stroke-width:.09525;stroke-miterlimit:41.994751"/><path d="M296.51325 303.6951L303.17122 291.6555" style="fill:none;stroke:rgba(178,0,72,.24705882);stroke-width:.09525;stroke-miterlimit:41.994751"/><path d="M296.51325 303.6951L294.50347 284.67368" style="fill:none;stroke:rgba(178,0,72,.24705882);stroke-width:.09525;stroke-miterlimit:41.994751"/><path d="M256.72733 259.0038L262.18515 258.47992" style="fill:none;stroke:rgba(178,0,72,.24705882);stroke-width:.09525;stroke-miterlimit:41.994751"/><path d="M211.1883 224.04705A.47625 .47625 0 00210.2358 224.04705A.47625 .47625 0 00211.1883 224.04705z" fill="rgba(178,0,76,.24705882)"/><path d="M297.19905 322.4022A.47625 .47625 0 00296.24655 322.4022A.47625 .47625 0 00297.19905 322.4022z" fill="rgba(178,0,76,.24705882)"/><path d="M296.9895 303.6951A.47625 .47625 0 00296.037 303.6951A.47625 .47625 0 00296.9895 303.6951z" fill="rgba(178,0,76,.24705882)"/><path d="M257.20358 259.0038A.47625 .47625 0 00256.25108 259.0038A.47625 .47625 0 00257.20358 259.0038z" fill="rgba(178,0,76,.24705882)"/><path d="M304.25707 300.58995L303.17122 291.6555" style="fill:none;stroke:rgba(178,0,76,.24705882);stroke-width:.09525;stroke-miterlimit:41.994751"/><path d="M249.08828 259.5753L256.72733 259.0038" style="fill:none;stroke:rgba(174,0,80,.24705882);stroke-width:.09525;stroke-miterlimit:41.994751"/><path d="M299.79937 323.90715L296.7228 322.4022" style="fill:none;stroke:rgba(174,0,80,.24705882);stroke-width:.09525;stroke-miterlimit:41.994751"/><path d="M210.71205 224.04705L207.63547 217.94152" style="fill:none;stroke:rgba(174,0,80,.24705882);stroke-width:.09525;stroke-miterlimit:41.994751"/><path d="M296.51325 303.6951L301.31385 308.18138" style="fill:none;stroke:rgba(174,0,80,.24705882);stroke-width:.09525;stroke-miterlimit:41.994751"/><path d="M208.11172 217.94152A.47625 .47625 0 00207.15922 217.94152A.47625 .47625 0 00208.11172 217.94152z" fill="rgba(170,0,85,.24705882)"/><path d="M304.73332 300.58995A.47625 .47625 0 00303.78082 300.58995A.47625 .47625 0 00304.73332 300.58995z" fill="rgba(170,0,85,.24705882)"/><path d="M301.7901 308.18138A.47625 .47625 0 00300.8376 308.18138A.47625 .47625 0 00301.7901 308.18138z" fill="rgba(170,0,85,.24705882)"/><path d="M249.56453 259.5753A.47625 .47625 0 00248.61203 259.5753A.47625 .47625 0 00249.56453 259.5753z" fill="rgba(170,0,85,.24705882)"/><path d="M300.27562 323.90715A.47625 .47625 0 00299.32313 323.90715A.47625 .47625 0 00300.27562 323.90715z" fill="rgba(170,0,85,.24705882)"/><path d="M301.8282 318.80175H308.13375V300.8376H301.8282z" style="fill:rgba(170,0,85,.24705882);stroke:rgba(170,0,85,.24705882);stroke-width:.09525;stroke-miterlimit:41.994751"/><path d="M303.9618 311.22938A.47625 .47625 0 00303.0093 311.22938A.47625 .47625 0 00303.9618 311.22938z" fill="rgba(170,0,85,.24705882)"/><path d="M302.19968 323.64997A.47625 .47625 0 00301.24718 323.64997A.47625 .47625 0 00302.19968 323.64997z" fill="rgba(170,0,85,.24705882)"/><path d="M303.48555 311.22938L304.25707 300.58995" style="fill:none;stroke:rgba(170,0,85,.24705882);stroke-width:.09525;stroke-miterlimit:41.994751"/><path d="M301.72343 323.64997L299.79937 323.90715" style="fill:none;stroke:rgba(170,0,85,.24705882);stroke-width:.09525;stroke-miterlimit:41.994751"/><path d="M303.48555 311.22938L301.31385 308.18138" style="fill:none;stroke:rgba(170,0,85,.24705882);stroke-width:.09525;stroke-miterlimit:41.994751"/><path d="M301.72343 323.64997L303.48555 311.22938" style="fill:none;stroke:rgba(170,0,85,.24705882);stroke-width:.09525;stroke-miterlimit:41.994751"/><path d="M240.68723 264.5283L249.08828 259.5753" style="fill:none;stroke:rgba(165,0,89,.24705882);stroke-width:.09525;stroke-miterlimit:41.994751"/><path d="M300.99952 326.5551L301.72343 323.64997" style="fill:none;stroke:rgba(165,0,89,.24705882);stroke-width:.09525;stroke-miterlimit:41.994751"/><path d="M308.18138 312.5343L303.48555 311.22938" style="fill:none;stroke:rgba(165,0,89,.24705882);stroke-width:.09525;stroke-miterlimit:41.994751"/><path d="M208.38795 212.05507L207.63547 217.94152" style="fill:none;stroke:rgba(165,0,89,.24705882);stroke-width:.09525;stroke-miterlimit:41.994751"/><path d="M256.87973 325.65975H256.62255" style="fill:none;stroke:rgba(161,0,89,.24705882);stroke-width:.09525;stroke-miterlimit:41.994751"/><path d="M307.09552 318.80175H311.0865V307.37175H307.09552z" style="fill:rgba(161,0,89,.24705882);stroke:rgba(161,0,89,.24705882);stroke-width:.09525;stroke-miterlimit:41.994751"/><path d="M308.65762 312.5343A.47625 .47625 0 00307.70513 312.5343A.47625 .47625 0 00308.65762 312.5343z" fill="rgba(161,0,89,.24705882)"/><path d="M301.47577 326.5551A.47625 .47625 0 00300.52327 326.5551A.47625 .47625 0 00301.47577 326.5551z" fill="rgba(161,0,89,.24705882)"/><path d="M241.16348 264.5283A.47625 .47625 0 00240.21098 264.5283A.47625 .47625 0 00241.16348 264.5283z" fill="rgba(161,0,89,.24705882)"/><path d="M208.8642 212.05507A.47625 .47625 0 00207.9117 212.05507A.47625 .47625 0 00208.8642 212.05507z" fill="rgba(161,0,89,.24705882)"/><path d="M298.90402 329.55548L300.99952 326.5551" style="fill:none;stroke:rgba(161,0,93,.24705882);stroke-width:.09525;stroke-miterlimit:41.994751"/><path d="M233.10532 272.51025L240.68723 264.5283" style="fill:none;stroke:rgba(161,0,93,.24705882);stroke-width:.09525;stroke-miterlimit:41.994751"/><path d="M208.38795 212.05507L209.03565 204.2922" style="fill:none;stroke:rgba(161,0,93,.24705882);stroke-width:.09525;stroke-miterlimit:41.994751"/><path d="M299.38027 329.55548A.47625 .47625 0 00298.42777 329.55548A.47625 .47625 0 00299.38027 329.55548z" fill="rgba(157,0,93,.24705882)"/><path d="M311.14365 312.08662L308.18138 312.5343" style="fill:none;stroke:rgba(157,0,97,.24705882);stroke-width:.09525;stroke-miterlimit:41.994751"/><path d="M233.58157 272.51025A.47625 .47625 0 00232.62908 272.51025A.47625 .47625 0 00233.58157 272.51025z" fill="rgba(157,0,97,.24705882)"/><path d="M209.5119 204.2922A.47625 .47625 0 00208.5594 204.2922A.47625 .47625 0 00209.5119 204.2922z" fill="rgba(157,0,97,.24705882)"/><path d="M298.6659 333.42262L298.90402 329.55548" style="fill:none;stroke:rgba(153,0,97,.24705882);stroke-width:.09525;stroke-miterlimit:41.994751"/><path d="M209.03565 204.2922L210.58822 195.16725" style="fill:none;stroke:rgba(153,0,101,.24705882);stroke-width:.09525;stroke-miterlimit:41.994751"/><path d="M223.78987 277.2918L233.10532 272.51025" style="fill:none;stroke:rgba(153,0,101,.24705882);stroke-width:.09525;stroke-miterlimit:41.994751"/><path d="M299.14215 333.42262A.47625 .47625 0 00298.18965 333.42262A.47625 .47625 0 00299.14215 333.42262z" fill="rgba(153,0,101,.24705882)"/><path d="M311.1246 318.80175H314.99175V307.37175H311.1246z" style="fill:rgba(153,0,101,.24705882);stroke:rgba(153,0,101,.24705882);stroke-width:.09525;stroke-miterlimit:41.994751"/><path d="M311.6199 312.08662A.47625 .47625 0 00310.6674 312.08662A.47625 .47625 0 00311.6199 312.08662z" fill="rgba(153,0,101,.24705882)"/><path d="M299.18977 336.48015A.47625 .47625 0 00298.23728 336.48015A.47625 .47625 0 00299.18977 336.48015z" fill="rgba(153,0,101,.24705882)"/><path d="M298.71353 336.48015L298.6659 333.42262" style="fill:none;stroke:rgba(153,0,101,.24705882);stroke-width:.09525;stroke-miterlimit:41.994751"/><path d="M312.39142 238.5441A.47625 .47625 0 00311.43892 238.5441A.47625 .47625 0 00312.39142 238.5441z" fill="rgba(149,0,105,.24705882)"/><path d="M224.26612 277.2918A.47625 .47625 0 00223.31363 277.2918A.47625 .47625 0 00224.26612 277.2918z" fill="rgba(149,0,105,.24705882)"/><path d="M323.36422 243.09705A.47625 .47625 0 00322.41172 243.09705A.47625 .47625 0 00323.36422 243.09705z" fill="rgba(149,0,105,.24705882)"/><path d="M211.06447 195.16725A.47625 .47625 0 00210.11198 195.16725A.47625 .47625 0 00211.06447 195.16725z" fill="rgba(149,0,105,.24705882)"/><path d="M311.91517 238.5441L322.88797 243.09705" style="fill:none;stroke:rgba(149,0,105,.24705882);stroke-width:.09525;stroke-miterlimit:41.994751"/><path d="M298.71353 336.48015L300.58995 335.90865" style="fill:none;stroke:rgba(149,0,105,.24705882);stroke-width:.09525;stroke-miterlimit:41.994751"/><path d="M311.14365 312.08662L314.06782 307.29555" style="fill:none;stroke:rgba(149,0,105,.24705882);stroke-width:.09525;stroke-miterlimit:41.994751"/><path d="M210.58822 195.16725L210.312 190.83337" style="fill:none;stroke:rgba(145,0,105,.24705882);stroke-width:.09525;stroke-miterlimit:41.994751"/><path d="M223.78987 277.2918L216.96997 281.03512" style="fill:none;stroke:rgba(145,0,105,.24705882);stroke-width:.09525;stroke-miterlimit:41.994751"/><path d="M308.2671 306.7812H319.56375V280.70175H308.2671z" style="fill:rgba(145,0,109,.24705882);stroke:rgba(145,0,109,.24705882);stroke-width:.09525;stroke-miterlimit:41.994751"/><path d="M312.33427 287.4645A.47625 .47625 0 00311.38178 287.4645A.47625 .47625 0 00312.33427 287.4645z" fill="rgba(145,0,109,.24705882)"/><path d="M319.57327 290.56965H324.12622V277.66327H319.57327z" style="fill:rgba(145,0,109,.24705882);stroke:rgba(145,0,109,.24705882);stroke-width:.09525;stroke-miterlimit:41.994751"/><path d="M322.54507 282.44482A.47625 .47625 0 00321.59258 282.44482A.47625 .47625 0 00322.54507 282.44482z" fill="rgba(145,0,109,.24705882)"/><path d="M314.54407 307.29555A.47625 .47625 0 00313.59157 307.29555A.47625 .47625 0 00314.54407 307.29555z" fill="rgba(145,0,109,.24705882)"/><path d="M301.0662 335.90865A.47625 .47625 0 00300.1137 335.90865A.47625 .47625 0 00301.0662 335.90865z" fill="rgba(145,0,109,.24705882)"/><path d="M311.85802 287.4645L322.06883 282.44482" style="fill:none;stroke:rgba(145,0,109,.24705882);stroke-width:.09525;stroke-miterlimit:41.994751"/><path d="M314.06782 307.29555L311.85802 287.4645" style="fill:none;stroke:rgba(145,0,109,.24705882);stroke-width:.09525;stroke-miterlimit:41.994751"/><path d="M311.98185 318.92557L311.14365 312.08662" style="fill:none;stroke:rgba(145,0,109,.24705882);stroke-width:.09525;stroke-miterlimit:41.994751"/><path d="M311.91517 238.5441L309.1815 238.67745" style="fill:none;stroke:rgba(145,0,109,.24705882);stroke-width:.09525;stroke-miterlimit:41.994751"/><path d="M217.44622 281.03512A.47625 .47625 0 00216.49372 281.03512A.47625 .47625 0 00217.44622 281.03512z" fill="rgba(141,0,109,.24705882)"/><path d="M210.78825 190.83337A.47625 .47625 0 00209.83575 190.83337A.47625 .47625 0 00210.78825 190.83337z" fill="rgba(141,0,109,.24705882)"/><path d="M305.1429 335.4324L300.58995 335.90865" style="fill:none;stroke:rgba(141,0,113,.24705882);stroke-width:.09525;stroke-miterlimit:41.994751"/><path d="M210.312 190.83337L222.0087 183.81345" style="fill:none;stroke:rgba(141,0,113,.24705882);stroke-width:.09525;stroke-miterlimit:41.994751"/><path d="M216.96997 281.03512L210.39772 284.36888" style="fill:none;stroke:rgba(141,0,113,.24705882);stroke-width:.09525;stroke-miterlimit:41.994751"/><path d="M311.4675 320.8401A.47625 .47625 0 00310.515 320.8401A.47625 .47625 0 00311.4675 320.8401z" fill="rgba(137,0,113,.24705882)"/><path d="M305.61915 335.4324A.47625 .47625 0 00304.66665 335.4324A.47625 .47625 0 00305.61915 335.4324z" fill="rgba(137,0,113,.24705882)"/><path d="M309.65775 238.67745A.47625 .47625 0 00308.70525 238.67745A.47625 .47625 0 00309.65775 238.67745z" fill="rgba(137,0,113,.24705882)"/><path d="M311.52465 334.08938A.47625 .47625 0 00310.57215 334.08938A.47625 .47625 0 00311.52465 334.08938z" fill="rgba(137,0,113,.24705882)"/><path d="M312.4581 318.92557A.47625 .47625 0 00311.5056 318.92557A.47625 .47625 0 00312.4581 318.92557z" fill="rgba(137,0,113,.24705882)"/><path d="M311.0484 334.08938L305.1429 335.4324" style="fill:none;stroke:rgba(137,0,113,.24705882);stroke-width:.09525;stroke-miterlimit:41.994751"/><path d="M310.99125 320.8401L311.98185 318.92557" style="fill:none;stroke:rgba(137,0,113,.24705882);stroke-width:.09525;stroke-miterlimit:41.994751"/><path d="M311.0484 334.08938L310.99125 320.8401" style="fill:none;stroke:rgba(137,0,113,.24705882);stroke-width:.09525;stroke-miterlimit:41.994751"/><path d="M311.85802 287.4645L311.51513 280.6827" style="fill:none;stroke:rgba(137,0,113,.24705882);stroke-width:.09525;stroke-miterlimit:41.994751"/><path d="M210.87397 284.36888A.47625 .47625 0 00209.92147 284.36888A.47625 .47625 0 00210.87397 284.36888z" fill="rgba(137,0,117,.24705882)"/><path d="M222.48495 183.81345A.47625 .47625 0 00221.53245 183.81345A.47625 .47625 0 00222.48495 183.81345z" fill="rgba(137,0,117,.24705882)"/><path d="M309.1815 238.67745L308.33377 249.90742" style="fill:none;stroke:rgba(137,0,117,.24705882);stroke-width:.09525;stroke-miterlimit:41.994751"/><path d="M309.1815 238.67745L310.08637 246.02122" style="fill:none;stroke:rgba(137,0,117,.24705882);stroke-width:.09525;stroke-miterlimit:41.994751"/><path d="M210.39772 284.36888L204.99705 286.6263" style="fill:none;stroke:rgba(133,0,121,.24705882);stroke-width:.09525;stroke-miterlimit:41.994751"/><path d="M305.1429 237.65828L309.1815 238.67745" style="fill:none;stroke:rgba(133,0,121,.24705882);stroke-width:.09525;stroke-miterlimit:41.994751"/><path d="M222.0087 183.81345L222.21825 177.70792" style="fill:none;stroke:rgba(133,0,121,.24705882);stroke-width:.09525;stroke-miterlimit:41.994751"/><path d="M257.0988 325.65975A.47625 .47625 0 00256.1463 325.65975A.47625 .47625 0 00257.0988 325.65975z" fill="rgba(133,0,121,.24705882)"/><path d="M304.37138 271.56727A.47625 .47625 0 00303.41888 271.56727A.47625 .47625 0 00304.37138 271.56727z" fill="rgba(133,0,121,.24705882)"/><path d="M308.2671 267.6906H314.99175V260.95643H308.2671z" style="fill:rgba(133,0,121,.24705882);stroke:rgba(133,0,121,.24705882);stroke-width:.09525;stroke-miterlimit:41.994751"/><path d="M311.72467 263.39482A.47625 .47625 0 00310.77218 263.39482A.47625 .47625 0 00311.72467 263.39482z" fill="rgba(133,0,121,.24705882)"/><path d="M302.5521 261.7089H309.08625V249.45975H302.5521z" style="fill:rgba(133,0,121,.24705882);stroke:rgba(133,0,121,.24705882);stroke-width:.09525;stroke-miterlimit:41.994751"/><path d="M305.1048 254.1651A.47625 .47625 0 00304.1523 254.1651A.47625 .47625 0 00305.1048 254.1651z" fill="rgba(133,0,121,.24705882)"/><path d="M308.81002 249.90742A.47625 .47625 0 00307.85752 249.90742A.47625 .47625 0 00308.81002 249.90742z" fill="rgba(133,0,121,.24705882)"/><path d="M310.56262 246.02122A.47625 .47625 0 00309.61012 246.02122A.47625 .47625 0 00310.56262 246.02122z" fill="rgba(133,0,121,.24705882)"/><path d="M308.50522 280.61602H314.99175V267.79537H308.50522z" style="fill:rgba(133,0,121,.24705882);stroke:rgba(133,0,121,.24705882);stroke-width:.09525;stroke-miterlimit:41.994751"/><path d="M312.69622 272.4531A.47625 .47625 0 00311.74372 272.4531A.47625 .47625 0 00312.69622 272.4531z" fill="rgba(133,0,121,.24705882)"/><path d="M311.99138 280.6827A.47625 .47625 0 00311.03888 280.6827A.47625 .47625 0 00311.99138 280.6827z" fill="rgba(133,0,121,.24705882)"/><path d="M307.8099 263.89013A.47625 .47625 0 00306.8574 263.89013A.47625 .47625 0 00307.8099 263.89013z" fill="rgba(133,0,121,.24705882)"/><path d="M309.12435 260.82308H314.99175V251.21235H309.12435z" style="fill:rgba(133,0,121,.24705882);stroke:rgba(133,0,121,.24705882);stroke-width:.09525;stroke-miterlimit:41.994751"/><path d="M312.59145 252.66967A.47625 .47625 0 00311.63895 252.66967A.47625 .47625 0 00312.59145 252.66967z" fill="rgba(133,0,121,.24705882)"/><path d="M304.8762 263.47102A.47625 .47625 0 00303.9237 263.47102A.47625 .47625 0 00304.8762 263.47102z" fill="rgba(133,0,121,.24705882)"/><path d="M304.62855 254.1651L311.24842 263.39482" style="fill:none;stroke:rgba(133,0,121,.24705882);stroke-width:.09525;stroke-miterlimit:41.994751"/><path d="M312.21997 272.4531L311.51513 280.6827" style="fill:none;stroke:rgba(133,0,121,.24705882);stroke-width:.09525;stroke-miterlimit:41.994751"/><path d="M307.33365 263.89013L311.24842 263.39482" style="fill:none;stroke:rgba(133,0,121,.24705882);stroke-width:.09525;stroke-miterlimit:41.994751"/><path d="M308.33377 249.90742L312.1152 252.66967" style="fill:none;stroke:rgba(133,0,121,.24705882);stroke-width:.09525;stroke-miterlimit:41.994751"/><path d="M304.39995 263.47102L303.89513 271.56727" style="fill:none;stroke:rgba(133,0,121,.24705882);stroke-width:.09525;stroke-miterlimit:41.994751"/><path d="M312.1152 252.66967L311.24842 263.39482" style="fill:none;stroke:rgba(133,0,121,.24705882);stroke-width:.09525;stroke-miterlimit:41.994751"/><path d="M312.21997 272.4531L311.24842 263.39482" style="fill:none;stroke:rgba(133,0,121,.24705882);stroke-width:.09525;stroke-miterlimit:41.994751"/><path d="M303.89513 271.56727L312.21997 272.4531" style="fill:none;stroke:rgba(133,0,121,.24705882);stroke-width:.09525;stroke-miterlimit:41.994751"/><path d="M310.08637 246.02122L312.1152 252.66967" style="fill:none;stroke:rgba(133,0,121,.24705882);stroke-width:.09525;stroke-miterlimit:41.994751"/><path d="M304.39995 263.47102L304.62855 254.1651" style="fill:none;stroke:rgba(133,0,121,.24705882);stroke-width:.09525;stroke-miterlimit:41.994751"/><path d="M205.4733 286.6263A.47625 .47625 0 00204.5208 286.6263A.47625 .47625 0 00205.4733 286.6263z" fill="rgba(129,0,125,.24705882)"/><path d="M222.6945 177.70792A.47625 .47625 0 00221.742 177.70792A.47625 .47625 0 00222.6945 177.70792z" fill="rgba(129,0,125,.24705882)"/><path d="M185.93752 200.95845A.47625 .47625 0 00184.98503 200.95845A.47625 .47625 0 00185.93752 200.95845z" fill="rgba(129,0,125,.24705882)"/><path d="M300.51375 208.19745H302.79022V201.40612H300.51375z" style="fill:rgba(129,0,125,.24705882);stroke:rgba(129,0,125,.24705882);stroke-width:.09525;stroke-miterlimit:41.994751"/><path d="M301.69485 205.26375A.47625 .47625 0 00300.74235 205.26375A.47625 .47625 0 00301.69485 205.26375z" fill="rgba(129,0,125,.24705882)"/><path d="M285.30232 201.3966H302.79975V196.88175H285.30232z" style="fill:rgba(129,0,125,.24705882);stroke:rgba(129,0,125,.24705882);stroke-width:.09525;stroke-miterlimit:41.994751"/><path d="M301.70437 200.6727A.47625 .47625 0 00300.75187 200.6727A.47625 .47625 0 00301.70437 200.6727z" fill="rgba(129,0,125,.24705882)"/><path d="M183.85155 194.28142A.47625 .47625 0 00182.89905 194.28142A.47625 .47625 0 00183.85155 194.28142z" fill="rgba(129,0,125,.24705882)"/><path d="M199.24395 178.75567A.47625 .47625 0 00198.29145 178.75567A.47625 .47625 0 00199.24395 178.75567z" fill="rgba(129,0,125,.24705882)"/><path d="M185.46128 200.95845L183.3753 194.28142" style="fill:none;stroke:rgba(129,0,125,.24705882);stroke-width:.09525;stroke-miterlimit:41.994751"/><path d="M305.19052 249.05017L304.62855 254.1651" style="fill:none;stroke:rgba(129,0,125,.24705882);stroke-width:.09525;stroke-miterlimit:41.994751"/><path d="M301.2186 205.26375L301.22812 200.6727" style="fill:none;stroke:rgba(129,0,125,.24705882);stroke-width:.09525;stroke-miterlimit:41.994751"/><path d="M305.66677 249.05017A.47625 .47625 0 00304.71427 249.05017A.47625 .47625 0 00305.66677 249.05017z" fill="rgba(129,0,125,.24705882)"/><path d="M302.82832 248.78347H307.34317V234.98175H302.82832z" style="fill:rgba(129,0,125,.24705882);stroke:rgba(129,0,125,.24705882);stroke-width:.09525;stroke-miterlimit:41.994751"/><path d="M305.61915 237.65828A.47625 .47625 0 00304.66665 237.65828A.47625 .47625 0 00305.61915 237.65828z" fill="rgba(129,0,125,.24705882)"/><path d="M305.1429 237.65828L305.19052 249.05017" style="fill:none;stroke:rgba(129,0,125,.24705882);stroke-width:.09525;stroke-miterlimit:41.994751"/><path d="M235.79137 177.86985L222.21825 177.70792" style="fill:none;stroke:rgba(125,0,125,.24705882);stroke-width:.09525;stroke-miterlimit:41.994751"/><path d="M196.5198 289.83623L204.99705 286.6263" style="fill:none;stroke:rgba(125,0,125,.24705882);stroke-width:.09525;stroke-miterlimit:41.994751"/><path d="M312.1152 252.66967L315.34418 252.17437" style="fill:none;stroke:rgba(125,0,129,.24705882);stroke-width:.09525;stroke-miterlimit:41.994751"/><path d="M303.06645 205.94002L301.2186 205.26375" style="fill:none;stroke:rgba(125,0,129,.24705882);stroke-width:.09525;stroke-miterlimit:41.994751"/><path d="M236.26762 177.86985A.47625 .47625 0 00235.31512 177.86985A.47625 .47625 0 00236.26762 177.86985z" fill="rgba(125,0,129,.24705882)"/><path d="M223.7994 258.42278A.47625 .47625 0 00222.8469 258.42278A.47625 .47625 0 00223.7994 258.42278z" fill="rgba(125,0,129,.24705882)"/><path d="M200.2536 269.09078A.47625 .47625 0 00199.3011 269.09078A.47625 .47625 0 00200.2536 269.09078z" fill="rgba(125,0,129,.24705882)"/><path d="M200.89177 256.62255A.47625 .47625 0 00199.93928 256.62255A.47625 .47625 0 00200.89177 256.62255z" fill="rgba(125,0,129,.24705882)"/><path d="M241.46828 176.45063A.47625 .47625 0 00240.51578 176.45063A.47625 .47625 0 00241.46828 176.45063z" fill="rgba(125,0,129,.24705882)"/><path d="M196.99605 289.83623A.47625 .47625 0 00196.04355 289.83623A.47625 .47625 0 00196.99605 289.83623z" fill="rgba(125,0,129,.24705882)"/><path d="M255.93675 178.59375A.47625 .47625 0 00254.98425 178.59375A.47625 .47625 0 00255.93675 178.59375z" fill="rgba(125,0,129,.24705882)"/><path d="M200.41553 256.62255L223.32315 258.42278" style="fill:none;stroke:rgba(125,0,129,.24705882);stroke-width:.09525;stroke-miterlimit:41.994751"/><path d="M200.41553 256.62255L199.77735 269.09078" style="fill:none;stroke:rgba(125,0,129,.24705882);stroke-width:.09525;stroke-miterlimit:41.994751"/><path d="M222.21825 177.70792L221.67532 173.9265" style="fill:none;stroke:rgba(125,0,129,.24705882);stroke-width:.09525;stroke-miterlimit:41.994751"/><path d="M240.99203 176.45063L235.79137 177.86985" style="fill:none;stroke:rgba(125,0,129,.24705882);stroke-width:.09525;stroke-miterlimit:41.994751"/><path d="M305.1429 237.65828L305.23815 234.76268" style="fill:none;stroke:rgba(125,0,129,.24705882);stroke-width:.09525;stroke-miterlimit:41.994751"/><path d="M196.5198 289.83623L199.77735 269.09078" style="fill:none;stroke:rgba(125,0,129,.24705882);stroke-width:.09525;stroke-miterlimit:41.994751"/><path d="M183.3753 194.28142L183.06097 189.13792" style="fill:none;stroke:rgba(125,0,129,.24705882);stroke-width:.09525;stroke-miterlimit:41.994751"/><path d="M195.1863 179.69865L198.7677 178.75567" style="fill:none;stroke:rgba(125,0,129,.24705882);stroke-width:.09525;stroke-miterlimit:41.994751"/><path d="M193.25272 201.08227L185.46128 200.95845" style="fill:none;stroke:rgba(125,0,129,.24705882);stroke-width:.09525;stroke-miterlimit:41.994751"/><path d="M198.7677 178.75567L199.55828 183.9849" style="fill:none;stroke:rgba(125,0,129,.24705882);stroke-width:.09525;stroke-miterlimit:41.994751"/><path d="M198.7677 178.75567L201.04417 173.95507" style="fill:none;stroke:rgba(125,0,129,.24705882);stroke-width:.09525;stroke-miterlimit:41.994751"/><path d="M256.62255 325.65975L256.70828 325.85025" style="fill:none;stroke:rgba(121,0,129,.24705882);stroke-width:.09525;stroke-miterlimit:41.994751"/><path d="M255.4605 178.59375L262.509 177.52695" style="fill:none;stroke:rgba(121,0,133,.24705882);stroke-width:.09525;stroke-miterlimit:41.994751"/><path d="M196.31025 297.0276L196.5198 289.83623" style="fill:none;stroke:rgba(121,0,133,.24705882);stroke-width:.09525;stroke-miterlimit:41.994751"/><path d="M252.32677 179.53672L255.4605 178.59375" style="fill:none;stroke:rgba(121,0,133,.24705882);stroke-width:.09525;stroke-miterlimit:41.994751"/><path d="M240.99203 176.45063L239.78235 173.8503" style="fill:none;stroke:rgba(121,0,133,.24705882);stroke-width:.09525;stroke-miterlimit:41.994751"/><path d="M240.99203 176.45063L242.0493 179.74627" style="fill:none;stroke:rgba(121,0,133,.24705882);stroke-width:.09525;stroke-miterlimit:41.994751"/><path d="M200.7108 242.8113L200.41553 256.62255" style="fill:none;stroke:rgba(121,0,133,.24705882);stroke-width:.09525;stroke-miterlimit:41.994751"/><path d="M316.24905 196.596A.47625 .47625 0 00315.29655 196.596A.47625 .47625 0 00316.24905 196.596z" fill="rgba(117,0,133,.24705882)"/><path d="M300.51375 180.0987H319.55422V170.24985H300.51375z" style="fill:rgba(117,0,133,.24705882);stroke:rgba(117,0,133,.24705882);stroke-width:.09525;stroke-miterlimit:41.994751"/><path d="M305.8668 174.52657A.47625 .47625 0 00304.9143 174.52657A.47625 .47625 0 00305.8668 174.52657z" fill="rgba(117,0,133,.24705882)"/><path d="M284.54985 180.07012H298.2087V170.24032H284.54985z" style="fill:rgba(117,0,133,.24705882);stroke:rgba(117,0,133,.24705882);stroke-width:.09525;stroke-miterlimit:41.994751"/><path d="M292.2651 175.66957A.47625 .47625 0 00291.3126 175.66957A.47625 .47625 0 00292.2651 175.66957z" fill="rgba(117,0,133,.24705882)"/><path d="M292.23652 181.0893A.47625 .47625 0 00291.28402 181.0893A.47625 .47625 0 00292.23652 181.0893z" fill="rgba(117,0,133,.24705882)"/><path d="M304.67618 181.03215A.47625 .47625 0 00303.72368 181.03215A.47625 .47625 0 00304.67618 181.03215z" fill="rgba(117,0,133,.24705882)"/><path d="M282.99728 192.2907H304.25707V181.64175H282.99728z" style="fill:rgba(117,0,133,.24705882);stroke:rgba(117,0,133,.24705882);stroke-width:.09525;stroke-miterlimit:41.994751"/><path d="M291.81743 188.03302A.47625 .47625 0 00290.86493 188.03302A.47625 .47625 0 00291.81743 188.03302z" fill="rgba(117,0,133,.24705882)"/><path d="M316.52527 199.92975H325.65975V193.83375H316.52527z" style="fill:rgba(117,0,133,.24705882);stroke:rgba(117,0,133,.24705882);stroke-width:.09525;stroke-miterlimit:41.994751"/><path d="M322.62127 196.18642A.47625 .47625 0 00321.66877 196.18642A.47625 .47625 0 00322.62127 196.18642z" fill="rgba(117,0,133,.24705882)"/><path d="M309.2958 201.95857A.47625 .47625 0 00308.3433 201.95857A.47625 .47625 0 00309.2958 201.95857z" fill="rgba(117,0,133,.24705882)"/><path d="M305.04765 187.24245A.47625 .47625 0 00304.09515 187.24245A.47625 .47625 0 00305.04765 187.24245z" fill="rgba(117,0,133,.24705882)"/><path d="M305.08575 200.07262H314.99175V187.77585H305.08575z" style="fill:rgba(117,0,133,.24705882);stroke:rgba(117,0,133,.24705882);stroke-width:.09525;stroke-miterlimit:41.994751"/><path d="M309.6006 195.04342A.47625 .47625 0 00308.6481 195.04342A.47625 .47625 0 00309.6006 195.04342z" fill="rgba(117,0,133,.24705882)"/><path d="M264.70927 192.26212H282.98775V181.47983H264.70927z" style="fill:rgba(117,0,133,.24705882);stroke:rgba(117,0,133,.24705882);stroke-width:.09525;stroke-miterlimit:41.994751"/><path d="M272.5674 186.74715A.47625 .47625 0 00271.6149 186.74715A.47625 .47625 0 00272.5674 186.74715z" fill="rgba(117,0,133,.24705882)"/><path d="M305.7144 234.76268A.47625 .47625 0 00304.7619 234.76268A.47625 .47625 0 00305.7144 234.76268z" fill="rgba(117,0,133,.24705882)"/><path d="M302.8569 225.60915H306.60975V219.46553H302.8569z" style="fill:rgba(117,0,133,.24705882);stroke:rgba(117,0,133,.24705882);stroke-width:.09525;stroke-miterlimit:41.994751"/><path d="M305.34292 224.45662A.47625 .47625 0 00304.39042 224.45662A.47625 .47625 0 00305.34292 224.45662z" fill="rgba(117,0,133,.24705882)"/><path d="M264.66165 181.46077H282.98775V170.31652H264.66165z" style="fill:rgba(117,0,133,.24705882);stroke:rgba(117,0,133,.24705882);stroke-width:.09525;stroke-miterlimit:41.994751"/><path d="M274.50097 176.80305A.47625 .47625 0 00273.54847 176.80305A.47625 .47625 0 00274.50097 176.80305z" fill="rgba(117,0,133,.24705882)"/><path d="M303.5427 205.94002A.47625 .47625 0 00302.5902 205.94002A.47625 .47625 0 00303.5427 205.94002z" fill="rgba(117,0,133,.24705882)"/><path d="M302.86642 234.43882H311.2008V225.61867H302.86642z" style="fill:rgba(117,0,133,.24705882);stroke:rgba(117,0,133,.24705882);stroke-width:.09525;stroke-miterlimit:41.994751"/><path d="M309.57202 228.96195A.47625 .47625 0 00308.61953 228.96195A.47625 .47625 0 00309.57202 228.96195z" fill="rgba(117,0,133,.24705882)"/><path d="M311.21033 234.93412H314.99175V217.2843H311.21033z" style="fill:rgba(117,0,133,.24705882);stroke:rgba(117,0,133,.24705882);stroke-width:.09525;stroke-miterlimit:41.994751"/><path d="M313.7154 226.6569A.47625 .47625 0 00312.7629 226.6569A.47625 .47625 0 00313.7154 226.6569z" fill="rgba(117,0,133,.24705882)"/><path d="M308.9529 184.03252A.47625 .47625 0 00308.0004 184.03252A.47625 .47625 0 00308.9529 184.03252z" fill="rgba(117,0,133,.24705882)"/><path d="M306.58118 217.45575H311.18175V204.53033H306.58118z" style="fill:rgba(117,0,133,.24705882);stroke:rgba(117,0,133,.24705882);stroke-width:.09525;stroke-miterlimit:41.994751"/><path d="M309.19102 213.2838A.47625 .47625 0 00308.23852 213.2838A.47625 .47625 0 00309.19102 213.2838z" fill="rgba(117,0,133,.24705882)"/><path d="M311.19128 217.26525H314.98223V204.50175H311.19128z" style="fill:rgba(117,0,133,.24705882);stroke:rgba(117,0,133,.24705882);stroke-width:.09525;stroke-miterlimit:41.994751"/><path d="M314.0202 213.67432A.47625 .47625 0 00313.0677 213.67432A.47625 .47625 0 00314.0202 213.67432z" fill="rgba(117,0,133,.24705882)"/><path d="M302.8188 219.47505H306.5907V210.11197H302.8188z" style="fill:rgba(117,0,133,.24705882);stroke:rgba(117,0,133,.24705882);stroke-width:.09525;stroke-miterlimit:41.994751"/><path d="M305.562 213.56002A.47625 .47625 0 00304.6095 213.56002A.47625 .47625 0 00305.562 213.56002z" fill="rgba(117,0,133,.24705882)"/><path d="M305.08575 213.56002L304.86667 224.45662" style="fill:none;stroke:rgba(117,0,133,.24705882);stroke-width:.09525;stroke-miterlimit:41.994751"/><path d="M304.5714 187.24245L291.34118 188.03302" style="fill:none;stroke:rgba(117,0,133,.24705882);stroke-width:.09525;stroke-miterlimit:41.994751"/><path d="M304.19993 181.03215L304.5714 187.24245" style="fill:none;stroke:rgba(117,0,133,.24705882);stroke-width:.09525;stroke-miterlimit:41.994751"/><path d="M308.71477 213.2838L313.54395 213.67432" style="fill:none;stroke:rgba(117,0,133,.24705882);stroke-width:.09525;stroke-miterlimit:41.994751"/><path d="M308.71477 213.2838L305.08575 213.56002" style="fill:none;stroke:rgba(117,0,133,.24705882);stroke-width:.09525;stroke-miterlimit:41.994751"/><path d="M313.54395 213.67432L313.23915 226.6569" style="fill:none;stroke:rgba(117,0,133,.24705882);stroke-width:.09525;stroke-miterlimit:41.994751"/><path d="M309.12435 195.04342L304.5714 187.24245" style="fill:none;stroke:rgba(117,0,133,.24705882);stroke-width:.09525;stroke-miterlimit:41.994751"/><path d="M309.12435 195.04342L315.7728 196.596" style="fill:none;stroke:rgba(117,0,133,.24705882);stroke-width:.09525;stroke-miterlimit:41.994751"/><path d="M313.23915 226.6569L309.09578 228.96195" style="fill:none;stroke:rgba(117,0,133,.24705882);stroke-width:.09525;stroke-miterlimit:41.994751"/><path d="M309.09578 228.96195L304.86667 224.45662" style="fill:none;stroke:rgba(117,0,133,.24705882);stroke-width:.09525;stroke-miterlimit:41.994751"/><path d="M309.09578 228.96195L305.23815 234.76268" style="fill:none;stroke:rgba(117,0,133,.24705882);stroke-width:.09525;stroke-miterlimit:41.994751"/><path d="M305.39055 174.52657L304.19993 181.03215" style="fill:none;stroke:rgba(117,0,133,.24705882);stroke-width:.09525;stroke-miterlimit:41.994751"/><path d="M274.02472 176.80305L272.09115 186.74715" style="fill:none;stroke:rgba(117,0,133,.24705882);stroke-width:.09525;stroke-miterlimit:41.994751"/><path d="M272.09115 186.74715L291.34118 188.03302" style="fill:none;stroke:rgba(117,0,133,.24705882);stroke-width:.09525;stroke-miterlimit:41.994751"/><path d="M308.81955 201.95857L308.71477 213.2838" style="fill:none;stroke:rgba(117,0,133,.24705882);stroke-width:.09525;stroke-miterlimit:41.994751"/><path d="M308.81955 201.95857L309.12435 195.04342" style="fill:none;stroke:rgba(117,0,133,.24705882);stroke-width:.09525;stroke-miterlimit:41.994751"/><path d="M305.08575 213.56002L303.06645 205.94002" style="fill:none;stroke:rgba(117,0,133,.24705882);stroke-width:.09525;stroke-miterlimit:41.994751"/><path d="M304.5714 187.24245L308.47665 184.03252" style="fill:none;stroke:rgba(117,0,133,.24705882);stroke-width:.09525;stroke-miterlimit:41.994751"/><path d="M315.7728 196.596L322.14502 196.18642" style="fill:none;stroke:rgba(117,0,133,.24705882);stroke-width:.09525;stroke-miterlimit:41.994751"/><path d="M291.34118 188.03302L291.76027 181.0893" style="fill:none;stroke:rgba(117,0,133,.24705882);stroke-width:.09525;stroke-miterlimit:41.994751"/><path d="M291.76027 181.0893L291.78885 175.66957" style="fill:none;stroke:rgba(117,0,133,.24705882);stroke-width:.09525;stroke-miterlimit:41.994751"/><path d="M274.02472 176.80305L262.509 177.52695" style="fill:none;stroke:rgba(117,0,133,.24705882);stroke-width:.09525;stroke-miterlimit:41.994751"/><path d="M262.98525 177.52695A.47625 .47625 0 00262.03275 177.52695A.47625 .47625 0 00262.98525 177.52695z" fill="rgba(117,0,133,.24705882)"/><path d="M240.2586 173.8503A.47625 .47625 0 00239.3061 173.8503A.47625 .47625 0 00240.2586 173.8503z" fill="rgba(117,0,137,.24705882)"/><path d="M183.53722 189.13792A.47625 .47625 0 00182.58472 189.13792A.47625 .47625 0 00183.53722 189.13792z" fill="rgba(117,0,137,.24705882)"/><path d="M197.49135 233.20057A.47625 .47625 0 00196.53885 233.20057A.47625 .47625 0 00197.49135 233.20057z" fill="rgba(117,0,137,.24705882)"/><path d="M222.15157 173.9265A.47625 .47625 0 00221.19907 173.9265A.47625 .47625 0 00222.15157 173.9265z" fill="rgba(117,0,137,.24705882)"/><path d="M196.68172 206.39722A.47625 .47625 0 00195.72922 206.39722A.47625 .47625 0 00196.68172 206.39722z" fill="rgba(117,0,137,.24705882)"/><path d="M222.20872 170.47845A.47625 .47625 0 00221.25623 170.47845A.47625 .47625 0 00222.20872 170.47845z" fill="rgba(117,0,137,.24705882)"/><path d="M205.2828 344.6907H217.44622V334.87043H205.2828z" style="fill:rgba(117,0,137,.24705882);stroke:rgba(117,0,137,.24705882);stroke-width:.09525;stroke-miterlimit:41.994751"/><path d="M214.28392 340.7664A.47625 .47625 0 00213.33142 340.7664A.47625 .47625 0 00214.28392 340.7664z" fill="rgba(117,0,137,.24705882)"/><path d="M196.60553 200.11072A.47625 .47625 0 00195.65303 200.11072A.47625 .47625 0 00196.60553 200.11072z" fill="rgba(117,0,137,.24705882)"/><path d="M193.08128 308.5719H199.1487V295.94175H193.08128z" style="fill:rgba(117,0,137,.24705882);stroke:rgba(117,0,137,.24705882);stroke-width:.09525;stroke-miterlimit:41.994751"/><path d="M196.7865 297.0276A.47625 .47625 0 00195.834 297.0276A.47625 .47625 0 00196.7865 297.0276z" fill="rgba(117,0,137,.24705882)"/><path d="M201.18705 242.8113A.47625 .47625 0 00200.23455 242.8113A.47625 .47625 0 00201.18705 242.8113z" fill="rgba(117,0,137,.24705882)"/><path d="M205.2828 170.81182A.47625 .47625 0 00204.3303 170.81182A.47625 .47625 0 00205.2828 170.81182z" fill="rgba(117,0,137,.24705882)"/><path d="M193.08128 344.6907H205.33995V337.8708H193.08128z" style="fill:rgba(117,0,137,.24705882);stroke:rgba(117,0,137,.24705882);stroke-width:.09525;stroke-miterlimit:41.994751"/><path d="M196.07212 340.40445A.47625 .47625 0 00195.11963 340.40445A.47625 .47625 0 00196.07212 340.40445z" fill="rgba(117,0,137,.24705882)"/><path d="M201.52042 173.95507A.47625 .47625 0 00200.56793 173.95507A.47625 .47625 0 00201.52042 173.95507z" fill="rgba(117,0,137,.24705882)"/><path d="M196.49122 227.29507A.47625 .47625 0 00195.53872 227.29507A.47625 .47625 0 00196.49122 227.29507z" fill="rgba(117,0,137,.24705882)"/><path d="M196.68172 218.55112A.47625 .47625 0 00195.72922 218.55112A.47625 .47625 0 00196.68172 218.55112z" fill="rgba(117,0,137,.24705882)"/><path d="M200.03453 183.9849A.47625 .47625 0 00199.08203 183.9849A.47625 .47625 0 00200.03453 183.9849z" fill="rgba(117,0,137,.24705882)"/><path d="M195.66255 179.69865A.47625 .47625 0 00194.71005 179.69865A.47625 .47625 0 00195.66255 179.69865z" fill="rgba(117,0,137,.24705882)"/><path d="M315.82043 252.17437A.47625 .47625 0 00314.86793 252.17437A.47625 .47625 0 00315.82043 252.17437z" fill="rgba(117,0,137,.24705882)"/><path d="M199.09155 187.34722A.47625 .47625 0 00198.13905 187.34722A.47625 .47625 0 00199.09155 187.34722z" fill="rgba(117,0,137,.24705882)"/><path d="M247.43093 184.5183A.47625 .47625 0 00246.47843 184.5183A.47625 .47625 0 00247.43093 184.5183z" fill="rgba(117,0,137,.24705882)"/><path d="M193.08128 327.66H199.15822V308.5719H193.08128z" style="fill:rgba(117,0,137,.24705882);stroke:rgba(117,0,137,.24705882);stroke-width:.09525;stroke-miterlimit:41.994751"/><path d="M196.34835 321.31635A.47625 .47625 0 00195.39585 321.31635A.47625 .47625 0 00196.34835 321.31635z" fill="rgba(117,0,137,.24705882)"/><path d="M323.15467 257.20358A.47625 .47625 0 00322.20218 257.20358A.47625 .47625 0 00323.15467 257.20358z" fill="rgba(117,0,137,.24705882)"/><path d="M252.80302 179.53672A.47625 .47625 0 00251.85053 179.53672A.47625 .47625 0 00252.80302 179.53672z" fill="rgba(117,0,137,.24705882)"/><path d="M238.86795 171.30712A.47625 .47625 0 00237.91545 171.30712A.47625 .47625 0 00238.86795 171.30712z" fill="rgba(117,0,137,.24705882)"/><path d="M188.61405 180.24157A.47625 .47625 0 00187.66155 180.24157A.47625 .47625 0 00188.61405 180.24157z" fill="rgba(117,0,137,.24705882)"/><path d="M193.72897 201.08227A.47625 .47625 0 00192.77648 201.08227A.47625 .47625 0 00193.72897 201.08227z" fill="rgba(117,0,137,.24705882)"/><path d="M242.52555 179.74627A.47625 .47625 0 00241.57305 179.74627A.47625 .47625 0 00242.52555 179.74627z" fill="rgba(117,0,137,.24705882)"/><path d="M221.73247 170.47845L204.80655 170.81182" style="fill:none;stroke:rgba(117,0,137,.24705882);stroke-width:.09525;stroke-miterlimit:41.994751"/><path d="M188.1378 180.24157L195.1863 179.69865" style="fill:none;stroke:rgba(117,0,137,.24705882);stroke-width:.09525;stroke-miterlimit:41.994751"/><path d="M197.0151 233.20057L196.01497 227.29507" style="fill:none;stroke:rgba(117,0,137,.24705882);stroke-width:.09525;stroke-miterlimit:41.994751"/><path d="M221.73247 170.47845L238.3917 171.30712" style="fill:none;stroke:rgba(117,0,137,.24705882);stroke-width:.09525;stroke-miterlimit:41.994751"/><path d="M197.0151 233.20057L200.7108 242.8113" style="fill:none;stroke:rgba(117,0,137,.24705882);stroke-width:.09525;stroke-miterlimit:41.994751"/><path d="M322.67843 257.20358L315.34418 252.17437" style="fill:none;stroke:rgba(117,0,137,.24705882);stroke-width:.09525;stroke-miterlimit:41.994751"/><path d="M193.25272 201.08227L196.12928 200.11072" style="fill:none;stroke:rgba(117,0,137,.24705882);stroke-width:.09525;stroke-miterlimit:41.994751"/><path d="M196.12928 200.11072L196.20547 206.39722" style="fill:none;stroke:rgba(117,0,137,.24705882);stroke-width:.09525;stroke-miterlimit:41.994751"/><path d="M183.06097 189.13792L188.1378 180.24157" style="fill:none;stroke:rgba(117,0,137,.24705882);stroke-width:.09525;stroke-miterlimit:41.994751"/><path d="M238.3917 171.30712L239.78235 173.8503" style="fill:none;stroke:rgba(117,0,137,.24705882);stroke-width:.09525;stroke-miterlimit:41.994751"/><path d="M213.80767 340.7664L195.59588 340.40445" style="fill:none;stroke:rgba(117,0,137,.24705882);stroke-width:.09525;stroke-miterlimit:41.994751"/><path d="M188.1378 180.24157L198.6153 187.34722" style="fill:none;stroke:rgba(117,0,137,.24705882);stroke-width:.09525;stroke-miterlimit:41.994751"/><path d="M221.67532 173.9265L221.73247 170.47845" style="fill:none;stroke:rgba(117,0,137,.24705882);stroke-width:.09525;stroke-miterlimit:41.994751"/><path d="M246.95468 184.5183L242.0493 179.74627" style="fill:none;stroke:rgba(117,0,137,.24705882);stroke-width:.09525;stroke-miterlimit:41.994751"/><path d="M246.95468 184.5183L252.32677 179.53672" style="fill:none;stroke:rgba(117,0,137,.24705882);stroke-width:.09525;stroke-miterlimit:41.994751"/><path d="M204.80655 170.81182L201.04417 173.95507" style="fill:none;stroke:rgba(117,0,137,.24705882);stroke-width:.09525;stroke-miterlimit:41.994751"/><path d="M196.20547 218.55112L196.01497 227.29507" style="fill:none;stroke:rgba(117,0,137,.24705882);stroke-width:.09525;stroke-miterlimit:41.994751"/><path d="M195.8721 321.31635L196.31025 297.0276" style="fill:none;stroke:rgba(117,0,137,.24705882);stroke-width:.09525;stroke-miterlimit:41.994751"/><path d="M198.6153 187.34722L196.12928 200.11072" style="fill:none;stroke:rgba(117,0,137,.24705882);stroke-width:.09525;stroke-miterlimit:41.994751"/><path d="M198.6153 187.34722L199.55828 183.9849" style="fill:none;stroke:rgba(117,0,137,.24705882);stroke-width:.09525;stroke-miterlimit:41.994751"/><path d="M196.20547 218.55112V206.39722" style="fill:none;stroke:rgba(117,0,137,.24705882);stroke-width:.09525;stroke-miterlimit:41.994751"/><path d="M308.47665 184.03252L314.62027 183.9087" style="fill:none;stroke:rgba(117,0,137,.24705882);stroke-width:.09525;stroke-miterlimit:41.994751"/><path d="M257.18453 325.85025A.47625 .47625 0 00256.23203 325.85025A.47625 .47625 0 00257.18453 325.85025z" fill="rgba(113,0,141,.24705882)"/><path d="M257.12737 329.3745A.47625 .47625 0 00256.17487 329.3745A.47625 .47625 0 00257.12737 329.3745z" fill="rgba(113,0,141,.24705882)"/><path d="M256.65112 329.3745L256.70828 325.85025" style="fill:none;stroke:rgba(113,0,141,.24705882);stroke-width:.09525;stroke-miterlimit:41.994751"/><path d="M315.09652 183.9087A.47625 .47625 0 00314.14402 183.9087A.47625 .47625 0 00315.09652 183.9087z" fill="rgba(113,0,141,.24705882)"/><path d="M195.59588 340.40445L196.26262 337.05165" style="fill:none;stroke:rgba(113,0,141,.24705882);stroke-width:.09525;stroke-miterlimit:41.994751"/><path d="M195.8721 321.31635L196.20547 327.86002" style="fill:none;stroke:rgba(113,0,141,.24705882);stroke-width:.09525;stroke-miterlimit:41.994751"/><path d="M314.62027 183.9087L323.36423 184.08967" style="fill:none;stroke:rgba(109,0,145,.24705882);stroke-width:.09525;stroke-miterlimit:41.994751"/><path d="M193.0908 337.84222H205.25422V334.81327H193.0908z" style="fill:rgba(105,0,149,.24705882);stroke:rgba(105,0,149,.24705882);stroke-width:.09525;stroke-miterlimit:41.994751"/><path d="M196.73887 337.05165A.47625 .47625 0 00195.78637 337.05165A.47625 .47625 0 00196.73887 337.05165z" fill="rgba(105,0,149,.24705882)"/><path d="M193.10032 334.81327H199.16775V327.66952H193.10032z" style="fill:rgba(105,0,149,.24705882);stroke:rgba(105,0,149,.24705882);stroke-width:.09525;stroke-miterlimit:41.994751"/><path d="M196.68172 327.86002A.47625 .47625 0 00195.72922 327.86002A.47625 .47625 0 00196.68172 327.86002z" fill="rgba(105,0,149,.24705882)"/><path d="M196.26262 337.05165L196.20547 327.86002" style="fill:none;stroke:rgba(105,0,149,.24705882);stroke-width:.09525;stroke-miterlimit:41.994751"/><path d="M319.57327 186.21375H325.65975V181.64175H319.57327z" style="fill:rgba(105,0,149,.24705882);stroke:rgba(105,0,149,.24705882);stroke-width:.09525;stroke-miterlimit:41.994751"/><path d="M323.84048 184.08967A.47625 .47625 0 00322.88798 184.08967A.47625 .47625 0 00323.84048 184.08967z" fill="rgba(105,0,149,.24705882)"/><path d="M307.33365 263.89013L307.6575 263.6139" style="fill:none;stroke:rgba(105,0,149,.24705882);stroke-width:.09525;stroke-miterlimit:41.994751"/><path d="M323.36423 184.08967L322.7832 189.40462" style="fill:none;stroke:rgba(101,0,153,.24705882);stroke-width:.09525;stroke-miterlimit:41.994751"/><path d="M323.25945 189.40462A.47625 .47625 0 00322.30695 189.40462A.47625 .47625 0 00323.25945 189.40462z" fill="rgba(97,0,157,.24705882)"/><path d="M322.7832 189.40462L322.60222 197.1294" style="fill:none;stroke:rgba(93,0,157,.24705882);stroke-width:.09525;stroke-miterlimit:41.994751"/><path d="M319.5828 199.92022H325.65023V192.5574H319.5828z" style="fill:rgba(89,0,161,.24705882);stroke:rgba(89,0,161,.24705882);stroke-width:.09525;stroke-miterlimit:41.994751"/><path d="M323.07847 197.1294A.47625 .47625 0 00322.12597 197.1294A.47625 .47625 0 00323.07847 197.1294z" fill="rgba(89,0,161,.24705882)"/><path d="M322.60222 197.1294L317.35395 196.77697" style="fill:none;stroke:rgba(89,0,165,.24705882);stroke-width:.09525;stroke-miterlimit:41.994751"/><path d="M317.8302 196.77697A.47625 .47625 0 00316.8777 196.77697A.47625 .47625 0 00317.8302 196.77697z" fill="rgba(85,0,170,.24705882)"/><path d="M317.35395 196.77697L309.46725 196.03402" style="fill:none;stroke:rgba(80,0,174,.24705882);stroke-width:.09525;stroke-miterlimit:41.994751"/><path d="M282.25432 192.28117H299.75175V170.2308H282.25432z" style="fill:rgba(76,0,178,.24705882);stroke:rgba(76,0,178,.24705882);stroke-width:.09525;stroke-miterlimit:41.994751"/><path d="M289.1028 176.30775A.47625 .47625 0 00288.1503 176.30775A.47625 .47625 0 00289.1028 176.30775z" fill="rgba(76,0,178,.24705882)"/><path d="M302.16157 180.98452H319.52565V170.21175H302.16157z" style="fill:rgba(76,0,178,.24705882);stroke:rgba(76,0,178,.24705882);stroke-width:.09525;stroke-miterlimit:41.994751"/><path d="M309.46725 174.94567A.47625 .47625 0 00308.51475 174.94567A.47625 .47625 0 00309.46725 174.94567z" fill="rgba(76,0,178,.24705882)"/><path d="M305.08575 199.92022H314.98222V180.98452H305.08575z" style="fill:rgba(76,0,178,.24705882);stroke:rgba(76,0,178,.24705882);stroke-width:.09525;stroke-miterlimit:41.994751"/><path d="M309.9435 196.03402A.47625 .47625 0 00308.991 196.03402A.47625 .47625 0 00309.9435 196.03402z" fill="rgba(76,0,178,.24705882)"/><path d="M309.46725 196.03402L308.991 174.94567" style="fill:none;stroke:rgba(76,0,178,.24705882);stroke-width:.09525;stroke-miterlimit:41.994751"/><path d="M288.62655 176.30775L301.08525 175.1838" style="fill:none;stroke:rgba(76,0,178,.24705882);stroke-width:.09525;stroke-miterlimit:41.994751"/><path d="M308.991 174.94567L301.08525 175.1838" style="fill:none;stroke:rgba(76,0,178,.24705882);stroke-width:.09525;stroke-miterlimit:41.994751"/><path d="M301.5615 175.1838A.47625 .47625 0 00300.609 175.1838A.47625 .47625 0 00301.5615 175.1838z" fill="rgba(76,0,178,.24705882)"/><path d="M308.13375 263.6139A.47625 .47625 0 00307.18125 263.6139A.47625 .47625 0 00308.13375 263.6139z" fill="rgba(76,0,178,.24705882)"/><path d="M307.467 263.79487L307.6575 263.6139" style="fill:none;stroke:rgba(72,0,178,.24705882);stroke-width:.09525;stroke-miterlimit:41.994751"/><path d="M298.96118 278.41575H305.08575V256.3368H298.96118z" style="fill:rgba(72,0,182,.24705882);stroke:rgba(72,0,182,.24705882);stroke-width:.09525;stroke-miterlimit:41.994751"/><path d="M302.54257 264.59497A.47625 .47625 0 00301.59008 264.59497A.47625 .47625 0 00302.54257 264.59497z" fill="rgba(72,0,182,.24705882)"/><path d="M249.38355 255.79387A.47625 .47625 0 00248.43105 255.79387A.47625 .47625 0 00249.38355 255.79387z" fill="rgba(72,0,182,.24705882)"/><path d="M290.60775 278.41575H298.96118V247.93575H290.60775z" style="fill:rgba(72,0,182,.24705882);stroke:rgba(72,0,182,.24705882);stroke-width:.09525;stroke-miterlimit:41.994751"/><path d="M292.989 267.09052A.47625 .47625 0 00292.0365 267.09052A.47625 .47625 0 00292.989 267.09052z" fill="rgba(72,0,182,.24705882)"/><path d="M232.91482 265.05217A.47625 .47625 0 00231.96232 265.05217A.47625 .47625 0 00232.91482 265.05217z" fill="rgba(72,0,182,.24705882)"/><path d="M249.2121 267.1572A.47625 .47625 0 00248.2596 267.1572A.47625 .47625 0 00249.2121 267.1572z" fill="rgba(72,0,182,.24705882)"/><path d="M307.94325 263.79487A.47625 .47625 0 00306.99075 263.79487A.47625 .47625 0 00307.94325 263.79487z" fill="rgba(72,0,182,.24705882)"/><path d="M307.467 263.79487L302.06633 264.59497" style="fill:none;stroke:rgba(72,0,182,.24705882);stroke-width:.09525;stroke-miterlimit:41.994751"/><path d="M292.51275 267.09053L302.06633 264.59497" style="fill:none;stroke:rgba(72,0,182,.24705882);stroke-width:.09525;stroke-miterlimit:41.994751"/><path d="M232.43857 265.05217L248.73585 267.1572" style="fill:none;stroke:rgba(72,0,182,.24705882);stroke-width:.09525;stroke-miterlimit:41.994751"/><path d="M248.73585 267.1572L248.9073 255.79387" style="fill:none;stroke:rgba(72,0,182,.24705882);stroke-width:.09525;stroke-miterlimit:41.994751"/><path d="M248.73585 267.1572L277.5585 267.2334" style="fill:none;stroke:rgba(72,0,182,.24705882);stroke-width:.09525;stroke-miterlimit:41.994751"/><path d="M277.5585 267.2334L292.51275 267.09053" style="fill:none;stroke:rgba(72,0,182,.24705882);stroke-width:.09525;stroke-miterlimit:41.994751"/><path d="M278.03475 267.2334A.47625 .47625 0 00277.08225 267.2334A.47625 .47625 0 00278.03475 267.2334z" fill="rgba(72,0,182,.24705882)"/><path d="M272.53882 206.14957A.47625 .47625 0 00271.58632 206.14957A.47625 .47625 0 00272.53882 206.14957z" fill="rgba(24,0,230,.24705882)"/><path d="M272.06257 206.14957L272.15783 200.19645" style="fill:none;stroke:rgba(16,0,238,.24705882);stroke-width:.09525;stroke-miterlimit:41.994751"/><path d="M272.63407 200.19645A.47625 .47625 0 00271.68158 200.19645A.47625 .47625 0 00272.63407 200.19645z" fill="rgba(4,0,250,.24705882)"/><path d="M272.15783 200.19645L272.20545 196.70077" style="fill:none;stroke:rgba(0,0,250,.24705882);stroke-width:.09525;stroke-miterlimit:41.994751"/><path d="M.28575 350.04375H359.18775V.28575H.28575z" style="fill:rgba(0,0,255,.24705882);stroke:rgba(0,0,255,.24705882);stroke-width:.09525;stroke-miterlimit:41.994751"/><path d="M274.19617 138.40777A.47625 .47625 0 00273.24367 138.40777A.47625 .47625 0 00274.19617 138.40777z" fill="rgba(0,0,255,.24705882)"/><path d="M272.6817 196.70077A.47625 .47625 0 00271.7292 196.70077A.47625 .47625 0 00272.6817 196.70077z" fill="rgba(0,0,255,.24705882)"/><path d="M272.20545 196.70077L273.71992 138.40777" style="fill:none;stroke:rgba(0,0,255,.24705882);stroke-width:.09525;stroke-miterlimit:41.994751"/></svg>