<svg version="1.1" width="155.448mm" height="153.82875mm" viewBox="0 0 155.448 153.82875" xmlns="http://www.w3.org/2000/svg" xmlns:xlink="http://www.w3.org/1999/xlink"><path d="M81.81975 68.86575H83.72475" style="fill:none;stroke:#f00;stroke-width:.09525;stroke-miterlimit:41.994751"/><path d="M81.81975 68.86575V66.96075" style="fill:none;stroke:#0f0;stroke-width:.09525;stroke-miterlimit:41.994751"/><path d="M38.719125 4.391025A.47625 .47625 0 0037.766625 4.391025A.47625 .47625 0 0038.719125 4.391025z" fill="rgba(255,0,0,.24705882)"/><path d="M38.242875 4.391025L24.374475 29.918025" style="fill:none;stroke:rgba(250,0,4,.24705882);stroke-width:.09525;stroke-miterlimit:41.994751"/><path d="M90.96375 12.32535L38.242875 4.391025" style="fill:none;stroke:rgba(250,0,4,.24705882);stroke-width:.09525;stroke-miterlimit:41.994751"/><path d="M59.978925 26.584275A.47625 .47625 0 0059.026425 26.584275A.47625 .47625 0 0059.978925 26.584275z" fill="rgba(246,0,8,.24705882)"/><path d="M53.2257 58.131075A.47625 .47625 0 0052.2732 58.131075A.47625 .47625 0 0053.2257 58.131075z" fill="rgba(246,0,8,.24705882)"/><path d="M91.44 12.32535A.47625 .47625 0 0090.4875 12.32535A.47625 .47625 0 0091.44 12.32535z" fill="rgba(246,0,8,.24705882)"/><path d="M29.01315 60.9219A.47625 .47625 0 0028.06065 60.9219A.47625 .47625 0 0029.01315 60.9219z" fill="rgba(246,0,8,.24705882)"/><path d="M24.850725 29.918025A.47625 .47625 0 0023.898225 29.918025A.47625 .47625 0 0024.850725 29.918025z" fill="rgba(246,0,8,.24705882)"/><path d="M121.32945 .43815A.47625 .47625 0 00120.37695 .43815A.47625 .47625 0 00121.32945 .43815z" fill="rgba(246,0,8,.24705882)"/><path d="M100.8126 153.4287A.47625 .47625 0 0099.8601 153.4287A.47625 .47625 0 00100.8126 153.4287z" fill="rgba(246,0,8,.24705882)"/><path d="M59.502675 26.584275L52.74945 58.131075" style="fill:none;stroke:rgba(246,0,8,.24705882);stroke-width:.09525;stroke-miterlimit:41.994751"/><path d="M59.502675 26.584275L90.96375 12.32535" style="fill:none;stroke:rgba(246,0,8,.24705882);stroke-width:.09525;stroke-miterlimit:41.994751"/><path d="M24.374475 29.918025L28.5369 60.9219" style="fill:none;stroke:rgba(246,0,8,.24705882);stroke-width:.09525;stroke-miterlimit:41.994751"/><path d="M90.96375 12.32535L120.8532 .43815" style="fill:none;stroke:rgba(246,0,8,.24705882);stroke-width:.09525;stroke-miterlimit:41.994751"/><path d="M137.87437 81.333975A.47625 .47625 0 00136.92188 81.333975A.47625 .47625 0 00137.87437 81.333975z" fill="rgba(246,0,8,.24705882)"/><path d="M137.39812 81.333975L155.04795 54.9783" style="fill:none;stroke:rgba(242,0,12,.24705882);stroke-width:.09525;stroke-miterlimit:41.994751"/><path d="M155.5242 54.9783A.47625 .47625 0 00154.5717 54.9783A.47625 .47625 0 00155.5242 54.9783z" fill="rgba(242,0,12,.24705882)"/><path d="M41.595675 62.7888L28.5369 60.9219" style="fill:none;stroke:rgba(242,0,12,.24705882);stroke-width:.09525;stroke-miterlimit:41.994751"/><path d="M100.33635 153.4287L96.954975 128.53987" style="fill:none;stroke:rgba(242,0,12,.24705882);stroke-width:.09525;stroke-miterlimit:41.994751"/><path d="M52.74945 58.131075L41.595675 62.7888" style="fill:none;stroke:rgba(242,0,12,.24705882);stroke-width:.09525;stroke-miterlimit:41.994751"/><path d="M96.06915 115.49063L137.39812 81.333975" style="fill:none;stroke:rgba(242,0,12,.24705882);stroke-width:.09525;stroke-miterlimit:41.994751"/><path d="M72.9234 101.74605A.47625 .47625 0 0071.9709 101.74605A.47625 .47625 0 0072.9234 101.74605z" fill="rgba(238,0,16,.24705882)"/><path d="M42.071925 62.7888A.47625 .47625 0 0041.119425 62.7888A.47625 .47625 0 0042.071925 62.7888z" fill="rgba(238,0,16,.24705882)"/><path d="M97.431225 128.53987A.47625 .47625 0 0096.478725 128.53987A.47625 .47625 0 0097.431225 128.53987z" fill="rgba(238,0,16,.24705882)"/><path d="M96.5454 115.49063A.47625 .47625 0 0095.5929 115.49063A.47625 .47625 0 0096.5454 115.49063z" fill="rgba(238,0,16,.24705882)"/><path d="M42.38625 114.72863A.47625 .47625 0 0041.43375 114.72863A.47625 .47625 0 0042.38625 114.72863z" fill="rgba(238,0,16,.24705882)"/><path d="M42.46245 81.55305A.47625 .47625 0 0041.50995 81.55305A.47625 .47625 0 0042.46245 81.55305z" fill="rgba(238,0,16,.24705882)"/><path d="M74.3331 115.20488A.47625 .47625 0 0073.3806 115.20488A.47625 .47625 0 0074.3331 115.20488z" fill="rgba(238,0,16,.24705882)"/><path d="M72.44715 101.74605L73.85685 115.20488" style="fill:none;stroke:rgba(238,0,16,.24705882);stroke-width:.09525;stroke-miterlimit:41.994751"/><path d="M41.91 114.72863L41.9862 81.55305" style="fill:none;stroke:rgba(238,0,16,.24705882);stroke-width:.09525;stroke-miterlimit:41.994751"/><path d="M96.06915 115.49063L73.85685 115.20488" style="fill:none;stroke:rgba(238,0,16,.24705882);stroke-width:.09525;stroke-miterlimit:41.994751"/><path d="M96.06915 115.49063L96.954975 128.53987" style="fill:none;stroke:rgba(238,0,16,.24705882);stroke-width:.09525;stroke-miterlimit:41.994751"/><path d="M73.85685 115.20488L41.91 114.72863" style="fill:none;stroke:rgba(238,0,16,.24705882);stroke-width:.09525;stroke-miterlimit:41.994751"/><path d="M41.9862 81.55305L41.595675 62.7888" style="fill:none;stroke:rgba(238,0,16,.24705882);stroke-width:.09525;stroke-miterlimit:41.994751"/><path d="M139.01738 23.269575L120.8532 .43815" style="fill:none;stroke:rgba(238,0,16,.24705882);stroke-width:.09525;stroke-miterlimit:41.994751"/><path d="M155.04795 54.9783L139.01738 23.269575" style="fill:none;stroke:rgba(238,0,16,.24705882);stroke-width:.09525;stroke-miterlimit:41.994751"/><path d="M139.49363 23.269575A.47625 .47625 0 00138.54113 23.269575A.47625 .47625 0 00139.49363 23.269575z" fill="rgba(230,0,24,.24705882)"/><path d="M41.595675 62.7888L42.224325 50.65395" style="fill:none;stroke:rgba(214,0,40,.24705882);stroke-width:.09525;stroke-miterlimit:41.994751"/><path d="M41.9862 81.55305L23.936325 80.9244" style="fill:none;stroke:rgba(214,0,40,.24705882);stroke-width:.09525;stroke-miterlimit:41.994751"/><path d="M72.44715 101.74605L72.399525 96.18345" style="fill:none;stroke:rgba(214,0,40,.24705882);stroke-width:.09525;stroke-miterlimit:41.994751"/><path d="M42.700575 50.65395A.47625 .47625 0 0041.748075 50.65395A.47625 .47625 0 0042.700575 50.65395z" fill="rgba(186,0,68,.24705882)"/><path d="M42.224325 50.65395L42.186225 42.586275" style="fill:none;stroke:rgba(186,0,68,.24705882);stroke-width:.09525;stroke-miterlimit:41.994751"/><path d="M104.87977 32.585025A.47625 .47625 0 00103.92728 32.585025A.47625 .47625 0 00104.87977 32.585025z" fill="rgba(186,0,68,.24705882)"/><path d="M84.020025 43.9293A.47625 .47625 0 0083.067525 43.9293A.47625 .47625 0 0084.020025 43.9293z" fill="rgba(186,0,68,.24705882)"/><path d="M72.875775 96.18345A.47625 .47625 0 0071.923275 96.18345A.47625 .47625 0 0072.875775 96.18345z" fill="rgba(186,0,68,.24705882)"/><path d="M63.541275 95.53575H75.695175V87.163275H63.541275z" style="fill:rgba(186,0,68,.24705882);stroke:rgba(186,0,68,.24705882);stroke-width:.09525;stroke-miterlimit:41.994751"/><path d="M72.685275 91.182825A.47625 .47625 0 0071.732775 91.182825A.47625 .47625 0 0072.685275 91.182825z" fill="rgba(186,0,68,.24705882)"/><path d="M82.23885 86.382225H100.76497V72.44715H82.23885z" style="fill:rgba(186,0,68,.24705882);stroke:rgba(186,0,68,.24705882);stroke-width:.09525;stroke-miterlimit:41.994751"/><path d="M85.51545 79.409925A.47625 .47625 0 0084.56295 79.409925A.47625 .47625 0 0085.51545 79.409925z" fill="rgba(186,0,68,.24705882)"/><path d="M75.7047 95.545275H93.24975V87.1728H75.7047z" style="fill:rgba(186,0,68,.24705882);stroke:rgba(186,0,68,.24705882);stroke-width:.09525;stroke-miterlimit:41.994751"/><path d="M85.1154 91.11615A.47625 .47625 0 0084.1629 91.11615A.47625 .47625 0 0085.1154 91.11615z" fill="rgba(186,0,68,.24705882)"/><path d="M84.820125 86.96325A.47625 .47625 0 0083.867625 86.96325A.47625 .47625 0 0084.820125 86.96325z" fill="rgba(186,0,68,.24705882)"/><path d="M82.2579 72.456675H94.135575V52.130325H82.2579z" style="fill:rgba(186,0,68,.24705882);stroke:rgba(186,0,68,.24705882);stroke-width:.09525;stroke-miterlimit:41.994751"/><path d="M86.6775 58.38825A.47625 .47625 0 0085.725 58.38825A.47625 .47625 0 0086.6775 58.38825z" fill="rgba(186,0,68,.24705882)"/><path d="M101.56507 78.31455A.47625 .47625 0 00100.61258 78.31455A.47625 .47625 0 00101.56507 78.31455z" fill="rgba(186,0,68,.24705882)"/><path d="M61.5315 86.2965H82.23885V52.168425H61.5315z" style="fill:rgba(186,0,68,.24705882);stroke:rgba(186,0,68,.24705882);stroke-width:.09525;stroke-miterlimit:41.994751"/><path d="M66.0654 65.160525A.47625 .47625 0 0065.1129 65.160525A.47625 .47625 0 0066.0654 65.160525z" fill="rgba(186,0,68,.24705882)"/><path d="M84.077175 42.57675H104.22255V26.23185H84.077175z" style="fill:rgba(186,0,68,.24705882);stroke:rgba(186,0,68,.24705882);stroke-width:.09525;stroke-miterlimit:41.994751"/><path d="M92.097225 32.70885A.47625 .47625 0 0091.144725 32.70885A.47625 .47625 0 0092.097225 32.70885z" fill="rgba(186,0,68,.24705882)"/><path d="M101.64128 81.81975H115.3287V74.133075H101.64128z" style="fill:rgba(186,0,68,.24705882);stroke:rgba(186,0,68,.24705882);stroke-width:.09525;stroke-miterlimit:41.994751"/><path d="M110.89957 77.352525A.47625 .47625 0 00109.94708 77.352525A.47625 .47625 0 00110.89957 77.352525z" fill="rgba(186,0,68,.24705882)"/><path d="M101.66033 74.114025H115.2144V52.187475H101.66033z" style="fill:rgba(186,0,68,.24705882);stroke:rgba(186,0,68,.24705882);stroke-width:.09525;stroke-miterlimit:41.994751"/><path d="M111.64252 58.1025A.47625 .47625 0 00110.69003 58.1025A.47625 .47625 0 00111.64252 58.1025z" fill="rgba(186,0,68,.24705882)"/><path d="M24.412575 80.9244A.47625 .47625 0 0023.460075 80.9244A.47625 .47625 0 0024.412575 80.9244z" fill="rgba(186,0,68,.24705882)"/><path d="M36.51885 49.825275H47.91075V35.728275H36.51885z" style="fill:rgba(186,0,68,.24705882);stroke:rgba(186,0,68,.24705882);stroke-width:.09525;stroke-miterlimit:41.994751"/><path d="M42.662475 42.586275A.47625 .47625 0 0041.709975 42.586275A.47625 .47625 0 0042.662475 42.586275z" fill="rgba(186,0,68,.24705882)"/><path d="M84.10575 51.30165H92.211525V42.586275H84.10575z" style="fill:rgba(186,0,68,.24705882);stroke:rgba(186,0,68,.24705882);stroke-width:.09525;stroke-miterlimit:41.994751"/><path d="M88.29675 46.00575A.47625 .47625 0 0087.34425 46.00575A.47625 .47625 0 0088.29675 46.00575z" fill="rgba(186,0,68,.24705882)"/><path d="M124.45365 51.577875A.47625 .47625 0 00123.50115 51.577875A.47625 .47625 0 00124.45365 51.577875z" fill="rgba(186,0,68,.24705882)"/><path d="M87.887175 51.768375A.47625 .47625 0 0086.934675 51.768375A.47625 .47625 0 0087.887175 51.768375z" fill="rgba(186,0,68,.24705882)"/><path d="M.28575 95.5167H23.117175V66.608325H.28575z" style="fill:rgba(186,0,68,.24705882);stroke:rgba(186,0,68,.24705882);stroke-width:.09525;stroke-miterlimit:41.994751"/><path d="M12.392025 80.876775A.47625 .47625 0 0011.439525 80.876775A.47625 .47625 0 0012.392025 80.876775z" fill="rgba(186,0,68,.24705882)"/><path d="M115.22393 69.58965H139.55078V52.130325H115.22393z" style="fill:rgba(186,0,68,.24705882);stroke:rgba(186,0,68,.24705882);stroke-width:.09525;stroke-miterlimit:41.994751"/><path d="M124.45365 58.54065A.47625 .47625 0 00123.50115 58.54065A.47625 .47625 0 00124.45365 58.54065z" fill="rgba(186,0,68,.24705882)"/><path d="M105.07027 51.30165H130.50203V26.222325H105.07027z" style="fill:rgba(186,0,68,.24705882);stroke:rgba(186,0,68,.24705882);stroke-width:.09525;stroke-miterlimit:41.994751"/><path d="M124.14885 37.099875A.47625 .47625 0 00123.19635 37.099875A.47625 .47625 0 00124.14885 37.099875z" fill="rgba(186,0,68,.24705882)"/><path d="M93.21165 47.101125A.47625 .47625 0 0092.25915 47.101125A.47625 .47625 0 0093.21165 47.101125z" fill="rgba(186,0,68,.24705882)"/><path d="M65.084325 51.3207H83.34375V35.213925H65.084325z" style="fill:rgba(186,0,68,.24705882);stroke:rgba(186,0,68,.24705882);stroke-width:.09525;stroke-miterlimit:41.994751"/><path d="M75.1332 43.0911A.47625 .47625 0 0074.1807 43.0911A.47625 .47625 0 0075.1332 43.0911z" fill="rgba(186,0,68,.24705882)"/><path d="M23.936325 80.9244L11.915775 80.876775" style="fill:none;stroke:rgba(186,0,68,.24705882);stroke-width:.09525;stroke-miterlimit:41.994751"/><path d="M86.20125 58.38825L85.0392 79.409925" style="fill:none;stroke:rgba(186,0,68,.24705882);stroke-width:.09525;stroke-miterlimit:41.994751"/><path d="M104.40353 32.585025L91.620975 32.70885" style="fill:none;stroke:rgba(186,0,68,.24705882);stroke-width:.09525;stroke-miterlimit:41.994751"/><path d="M123.6726 37.099875L104.40353 32.585025" style="fill:none;stroke:rgba(186,0,68,.24705882);stroke-width:.09525;stroke-miterlimit:41.994751"/><path d="M92.7354 47.101125L87.8205 46.00575" style="fill:none;stroke:rgba(186,0,68,.24705882);stroke-width:.09525;stroke-miterlimit:41.994751"/><path d="M123.9774 58.54065V51.577875" style="fill:none;stroke:rgba(186,0,68,.24705882);stroke-width:.09525;stroke-miterlimit:41.994751"/><path d="M85.0392 79.409925L65.58915 65.160525" style="fill:none;stroke:rgba(186,0,68,.24705882);stroke-width:.09525;stroke-miterlimit:41.994751"/><path d="M123.9774 51.577875L123.6726 37.099875" style="fill:none;stroke:rgba(186,0,68,.24705882);stroke-width:.09525;stroke-miterlimit:41.994751"/><path d="M87.410925 51.768375L86.20125 58.38825" style="fill:none;stroke:rgba(186,0,68,.24705882);stroke-width:.09525;stroke-miterlimit:41.994751"/><path d="M111.16627 58.1025L123.9774 58.54065" style="fill:none;stroke:rgba(186,0,68,.24705882);stroke-width:.09525;stroke-miterlimit:41.994751"/><path d="M111.16627 58.1025L110.42333 77.352525" style="fill:none;stroke:rgba(186,0,68,.24705882);stroke-width:.09525;stroke-miterlimit:41.994751"/><path d="M85.0392 79.409925L101.08882 78.31455" style="fill:none;stroke:rgba(186,0,68,.24705882);stroke-width:.09525;stroke-miterlimit:41.994751"/><path d="M72.399525 96.18345L72.209025 91.182825" style="fill:none;stroke:rgba(186,0,68,.24705882);stroke-width:.09525;stroke-miterlimit:41.994751"/><path d="M85.0392 79.409925L84.343875 86.96325" style="fill:none;stroke:rgba(186,0,68,.24705882);stroke-width:.09525;stroke-miterlimit:41.994751"/><path d="M91.620975 32.70885L87.8205 46.00575" style="fill:none;stroke:rgba(186,0,68,.24705882);stroke-width:.09525;stroke-miterlimit:41.994751"/><path d="M101.08882 78.31455L110.42333 77.352525" style="fill:none;stroke:rgba(186,0,68,.24705882);stroke-width:.09525;stroke-miterlimit:41.994751"/><path d="M83.543775 43.9293L74.65695 43.0911" style="fill:none;stroke:rgba(186,0,68,.24705882);stroke-width:.09525;stroke-miterlimit:41.994751"/><path d="M87.8205 46.00575L83.543775 43.9293" style="fill:none;stroke:rgba(186,0,68,.24705882);stroke-width:.09525;stroke-miterlimit:41.994751"/><path d="M84.63915 91.11615L84.343875 86.96325" style="fill:none;stroke:rgba(186,0,68,.24705882);stroke-width:.09525;stroke-miterlimit:41.994751"/><path d="M87.8205 46.00575L87.410925 51.768375" style="fill:none;stroke:rgba(186,0,68,.24705882);stroke-width:.09525;stroke-miterlimit:41.994751"/><path d="M72.209025 91.182825L84.63915 91.11615" style="fill:none;stroke:rgba(186,0,68,.24705882);stroke-width:.09525;stroke-miterlimit:41.994751"/><path d="M92.7354 47.101125L98.993325 47.3964" style="fill:none;stroke:rgba(129,0,125,.24705882);stroke-width:.09525;stroke-miterlimit:41.994751"/><path d="M99.469575 47.3964A.47625 .47625 0 0098.517075 47.3964A.47625 .47625 0 0099.469575 47.3964z" fill="rgba(68,0,186,.24705882)"/><path d="M98.993325 47.3964L103.43197 47.18685" style="fill:none;stroke:rgba(32,0,222,.24705882);stroke-width:.09525;stroke-miterlimit:41.994751"/><path d="M103.90822 47.18685A.47625 .47625 0 00102.95573 47.18685A.47625 .47625 0 00103.90822 47.18685z" fill="rgba(0,0,255,.24705882)"/><path d="M73.47585 86.3727H85.601175V74.2569H73.47585z" style="fill:rgba(0,0,255,.24705882);stroke:rgba(0,0,255,.24705882);stroke-width:.09525;stroke-miterlimit:41.994751"/><path d="M77.714475 81.086325A.47625 .47625 0 0076.761975 81.086325A.47625 .47625 0 0077.714475 81.086325z" fill="rgba(0,0,255,.24705882)"/><path d="M62.3697 61.217175H72.628125V52.1208H62.3697z" style="fill:rgba(0,0,255,.24705882);stroke:rgba(0,0,255,.24705882);stroke-width:.09525;stroke-miterlimit:41.994751"/><path d="M67.26555 56.0832A.47625 .47625 0 0066.31305 56.0832A.47625 .47625 0 0067.26555 56.0832z" fill="rgba(0,0,255,.24705882)"/><path d="M109.39462 51.56835A.47625 .47625 0 00108.44213 51.56835A.47625 .47625 0 00109.39462 51.56835z" fill="rgba(0,0,255,.24705882)"/><path d="M104.70833 51.311175H116.205V25.92705H104.70833z" style="fill:rgba(0,0,255,.24705882);stroke:rgba(0,0,255,.24705882);stroke-width:.09525;stroke-miterlimit:41.994751"/><path d="M109.1565 46.95825A.47625 .47625 0 00108.204 46.95825A.47625 .47625 0 00109.1565 46.95825z" fill="rgba(0,0,255,.24705882)"/><path d="M62.093475 69.62775H72.5805V61.217175H62.093475z" style="fill:rgba(0,0,255,.24705882);stroke:rgba(0,0,255,.24705882);stroke-width:.09525;stroke-miterlimit:41.994751"/><path d="M66.38925 67.389375A.47625 .47625 0 0065.43675 67.389375A.47625 .47625 0 0066.38925 67.389375z" fill="rgba(0,0,255,.24705882)"/><path d="M66.69405 51.158775H82.1436V33.099375H66.69405z" style="fill:rgba(0,0,255,.24705882);stroke:rgba(0,0,255,.24705882);stroke-width:.09525;stroke-miterlimit:41.994751"/><path d="M75.1332 36.147375A.47625 .47625 0 0074.1807 36.147375A.47625 .47625 0 0075.1332 36.147375z" fill="rgba(0,0,255,.24705882)"/><path d="M85.601175 86.325075H98.288475V74.2188H85.601175z" style="fill:rgba(0,0,255,.24705882);stroke:rgba(0,0,255,.24705882);stroke-width:.09525;stroke-miterlimit:41.994751"/><path d="M94.3356 80.419575A.47625 .47625 0 0093.3831 80.419575A.47625 .47625 0 0094.3356 80.419575z" fill="rgba(0,0,255,.24705882)"/><path d="M116.22405 52.06365H130.92113V31.98495H116.22405z" style="fill:rgba(0,0,255,.24705882);stroke:rgba(0,0,255,.24705882);stroke-width:.09525;stroke-miterlimit:41.994751"/><path d="M125.29185 48.387A.47625 .47625 0 00124.33935 48.387A.47625 .47625 0 00125.29185 48.387z" fill="rgba(0,0,255,.24705882)"/><path d="M56.7309 82.6389H70.2183V69.656325H56.7309z" style="fill:rgba(0,0,255,.24705882);stroke:rgba(0,0,255,.24705882);stroke-width:.09525;stroke-miterlimit:41.994751"/><path d="M65.9892 80.000475A.47625 .47625 0 0065.0367 80.000475A.47625 .47625 0 0065.9892 80.000475z" fill="rgba(0,0,255,.24705882)"/><path d="M78.857475 51.435A.47625 .47625 0 0077.904975 51.435A.47625 .47625 0 0078.857475 51.435z" fill="rgba(0,0,255,.24705882)"/><path d="M73.5711 73.275825H100.71735V52.197H73.5711z" style="fill:rgba(0,0,255,.24705882);stroke:rgba(0,0,255,.24705882);stroke-width:.09525;stroke-miterlimit:41.994751"/><path d="M79.80045 66.170175A.47625 .47625 0 0078.84795 66.170175A.47625 .47625 0 0079.80045 66.170175z" fill="rgba(0,0,255,.24705882)"/><path d="M78.247875 73.9521A.47625 .47625 0 0077.295375 73.9521A.47625 .47625 0 0078.247875 73.9521z" fill="rgba(0,0,255,.24705882)"/><path d="M116.18595 69.370575H132.11175V52.06365H116.18595z" style="fill:rgba(0,0,255,.24705882);stroke:rgba(0,0,255,.24705882);stroke-width:.09525;stroke-miterlimit:41.994751"/><path d="M126.6063 63.807975A.47625 .47625 0 00125.6538 63.807975A.47625 .47625 0 00126.6063 63.807975z" fill="rgba(0,0,255,.24705882)"/><path d="M73.47585 66.1035A.47625 .47625 0 0072.52335 66.1035A.47625 .47625 0 0073.47585 66.1035z" fill="rgba(0,0,255,.24705882)"/><path d="M101.48887 65.4558A.47625 .47625 0 00100.53638 65.4558A.47625 .47625 0 00101.48887 65.4558z" fill="rgba(0,0,255,.24705882)"/><path d="M101.66033 81.8007H115.30965V52.130325H101.66033z" style="fill:rgba(0,0,255,.24705882);stroke:rgba(0,0,255,.24705882);stroke-width:.09525;stroke-miterlimit:41.994751"/><path d="M108.585 64.703325A.47625 .47625 0 00107.6325 64.703325A.47625 .47625 0 00108.585 64.703325z" fill="rgba(0,0,255,.24705882)"/><path d="M101.01262 65.4558L79.3242 66.170175" style="fill:none;stroke:rgba(0,0,255,.24705882);stroke-width:.09525;stroke-miterlimit:41.994751"/><path d="M101.01262 65.4558L108.10875 64.703325" style="fill:none;stroke:rgba(0,0,255,.24705882);stroke-width:.09525;stroke-miterlimit:41.994751"/><path d="M108.10875 64.703325L108.91837 51.56835" style="fill:none;stroke:rgba(0,0,255,.24705882);stroke-width:.09525;stroke-miterlimit:41.994751"/><path d="M72.9996 66.1035L65.913 67.389375" style="fill:none;stroke:rgba(0,0,255,.24705882);stroke-width:.09525;stroke-miterlimit:41.994751"/><path d="M77.771625 73.9521L77.238225 81.086325" style="fill:none;stroke:rgba(0,0,255,.24705882);stroke-width:.09525;stroke-miterlimit:41.994751"/><path d="M79.3242 66.170175L72.9996 66.1035" style="fill:none;stroke:rgba(0,0,255,.24705882);stroke-width:.09525;stroke-miterlimit:41.994751"/><path d="M77.771625 73.9521L79.3242 66.170175" style="fill:none;stroke:rgba(0,0,255,.24705882);stroke-width:.09525;stroke-miterlimit:41.994751"/><path d="M78.381225 51.435L74.65695 36.147375" style="fill:none;stroke:rgba(0,0,255,.24705882);stroke-width:.09525;stroke-miterlimit:41.994751"/><path d="M78.381225 51.435L79.3242 66.170175" style="fill:none;stroke:rgba(0,0,255,.24705882);stroke-width:.09525;stroke-miterlimit:41.994751"/><path d="M124.8156 48.387L126.13005 63.807975" style="fill:none;stroke:rgba(0,0,255,.24705882);stroke-width:.09525;stroke-miterlimit:41.994751"/><path d="M77.238225 81.086325L93.85935 80.419575" style="fill:none;stroke:rgba(0,0,255,.24705882);stroke-width:.09525;stroke-miterlimit:41.994751"/><path d="M108.68025 46.95825L124.8156 48.387" style="fill:none;stroke:rgba(0,0,255,.24705882);stroke-width:.09525;stroke-miterlimit:41.994751"/><path d="M65.913 67.389375L66.7893 56.0832" style="fill:none;stroke:rgba(0,0,255,.24705882);stroke-width:.09525;stroke-miterlimit:41.994751"/><path d="M108.91837 51.56835L108.68025 46.95825" style="fill:none;stroke:rgba(0,0,255,.24705882);stroke-width:.09525;stroke-miterlimit:41.994751"/><path d="M65.913 67.389375L65.51295 80.000475" style="fill:none;stroke:rgba(0,0,255,.24705882);stroke-width:.09525;stroke-miterlimit:41.994751"/><path d="M103.43197 47.18685L108.68025 46.95825" style="fill:none;stroke:rgba(0,0,255,.24705882);stroke-width:.09525;stroke-miterlimit:41.994751"/></svg>