<svg version="1.1" width="249.555mm" height="122.4915mm" viewBox="0 0 249.555 122.4915" xmlns="http://www.w3.org/2000/svg" xmlns:xlink="http://www.w3.org/1999/xlink"><path d="M170.02125 67.34175H171.92625" style="fill:none;stroke:#f00;stroke-width:.09525;stroke-miterlimit:41.994751"/><path d="M170.02125 67.34175V65.43675" style="fill:none;stroke:#0f0;stroke-width:.09525;stroke-miterlimit:41.994751"/><path d="M127.34925 61.24575H145.542V48.796575H127.34925z" style="fill:rgba(255,0,0,.24705882);stroke:rgba(255,0,0,.24705882);stroke-width:.09525;stroke-miterlimit:41.994751"/><path d="M139.50315 56.769A.47625 .47625 0 00138.55065 56.769A.47625 .47625 0 00139.50315 56.769z" fill="rgba(255,0,0,.24705882)"/><path d="M206.59725 36.86175H249.26925V.28575H206.59725z" style="fill:rgba(255,0,0,.24705882);stroke:rgba(255,0,0,.24705882);stroke-width:.09525;stroke-miterlimit:41.994751"/><path d="M214.60778 28.755975A.47625 .47625 0 00213.65528 28.755975A.47625 .47625 0 00214.60778 28.755975z" fill="rgba(255,0,0,.24705882)"/><path d="M160.71533 122.20575H206.59725V91.72575H160.71533z" style="fill:rgba(255,0,0,.24705882);stroke:rgba(255,0,0,.24705882);stroke-width:.09525;stroke-miterlimit:41.994751"/><path d="M191.80492 100.14585A.47625 .47625 0 00190.85243 100.14585A.47625 .47625 0 00191.80492 100.14585z" fill="rgba(255,0,0,.24705882)"/><path d="M127.34925 122.20575H160.72485V81.89595H127.34925z" style="fill:rgba(255,0,0,.24705882);stroke:rgba(255,0,0,.24705882);stroke-width:.09525;stroke-miterlimit:41.994751"/><path d="M155.5623 96.774A.47625 .47625 0 00154.6098 96.774A.47625 .47625 0 00155.5623 96.774z" fill="rgba(255,0,0,.24705882)"/><path d="M127.34925 74.96175H145.542V65.05575H127.34925z" style="fill:rgba(255,0,0,.24705882);stroke:rgba(255,0,0,.24705882);stroke-width:.09525;stroke-miterlimit:41.994751"/><path d="M143.15123 68.227575A.47625 .47625 0 00142.19873 68.227575A.47625 .47625 0 00143.15123 68.227575z" fill="rgba(255,0,0,.24705882)"/><path d="M127.34925 48.796575H145.542V46.6725H127.34925z" style="fill:rgba(255,0,0,.24705882);stroke:rgba(255,0,0,.24705882);stroke-width:.09525;stroke-miterlimit:41.994751"/><path d="M138.7983 47.87265A.47625 .47625 0 00137.8458 47.87265A.47625 .47625 0 00138.7983 47.87265z" fill="rgba(255,0,0,.24705882)"/><path d="M206.59725 122.20575H249.26925V91.72575H206.59725z" style="fill:rgba(255,0,0,.24705882);stroke:rgba(255,0,0,.24705882);stroke-width:.09525;stroke-miterlimit:41.994751"/><path d="M216.30322 98.6409A.47625 .47625 0 00215.35073 98.6409A.47625 .47625 0 00216.30322 98.6409z" fill="rgba(255,0,0,.24705882)"/><path d="M188.2902 42.95775H197.45325V.28575H188.2902z" style="fill:rgba(255,0,0,.24705882);stroke:rgba(255,0,0,.24705882);stroke-width:.09525;stroke-miterlimit:41.994751"/><path d="M193.6623 24.755475A.47625 .47625 0 00192.7098 24.755475A.47625 .47625 0 00193.6623 24.755475z" fill="rgba(255,0,0,.24705882)"/><path d="M145.542 36.86175H180.11775V.28575H145.542z" style="fill:rgba(255,0,0,.24705882);stroke:rgba(255,0,0,.24705882);stroke-width:.09525;stroke-miterlimit:41.994751"/><path d="M164.96347 22.717125A.47625 .47625 0 00164.01098 22.717125A.47625 .47625 0 00164.96347 22.717125z" fill="rgba(255,0,0,.24705882)"/><path d="M197.44373 36.86175H206.58773V.28575H197.44373z" style="fill:rgba(255,0,0,.24705882);stroke:rgba(255,0,0,.24705882);stroke-width:.09525;stroke-miterlimit:41.994751"/><path d="M202.18717 25.62225A.47625 .47625 0 00201.23468 25.62225A.47625 .47625 0 00202.18717 25.62225z" fill="rgba(255,0,0,.24705882)"/><path d="M180.10823 36.86175H188.29972V.28575H180.10823z" style="fill:rgba(255,0,0,.24705882);stroke:rgba(255,0,0,.24705882);stroke-width:.09525;stroke-miterlimit:41.994751"/><path d="M184.91835 24.6888A.47625 .47625 0 00183.96585 24.6888A.47625 .47625 0 00184.91835 24.6888z" fill="rgba(255,0,0,.24705882)"/><path d="M206.59725 91.72575H249.26925V61.24575H206.59725z" style="fill:rgba(255,0,0,.24705882);stroke:rgba(255,0,0,.24705882);stroke-width:.09525;stroke-miterlimit:41.994751"/><path d="M216.30322 73.066275A.47625 .47625 0 00215.35073 73.066275A.47625 .47625 0 00216.30322 73.066275z" fill="rgba(255,0,0,.24705882)"/><path d="M145.542 74.96175H151.73325V65.05575H145.542z" style="fill:rgba(255,0,0,.24705882);stroke:rgba(255,0,0,.24705882);stroke-width:.09525;stroke-miterlimit:41.994751"/><path d="M149.32342 69.656325A.47625 .47625 0 00148.37092 69.656325A.47625 .47625 0 00149.32342 69.656325z" fill="rgba(255,0,0,.24705882)"/><path d="M127.34925 81.905475H160.87725V74.971275H127.34925z" style="fill:rgba(255,0,0,.24705882);stroke:rgba(255,0,0,.24705882);stroke-width:.09525;stroke-miterlimit:41.994751"/><path d="M156.19095 78.305025A.47625 .47625 0 00155.23845 78.305025A.47625 .47625 0 00156.19095 78.305025z" fill="rgba(255,0,0,.24705882)"/><path d="M206.59725 50.701575H249.26925V36.86175H206.59725z" style="fill:rgba(255,0,0,.24705882);stroke:rgba(255,0,0,.24705882);stroke-width:.09525;stroke-miterlimit:41.994751"/><path d="M215.8746 43.272075A.47625 .47625 0 00214.9221 43.272075A.47625 .47625 0 00215.8746 43.272075z" fill="rgba(255,0,0,.24705882)"/><path d="M145.542 65.05575H151.73325V61.24575H145.542z" style="fill:rgba(255,0,0,.24705882);stroke:rgba(255,0,0,.24705882);stroke-width:.09525;stroke-miterlimit:41.994751"/><path d="M148.71383 63.2079A.47625 .47625 0 00147.76133 63.2079A.47625 .47625 0 00148.71383 63.2079z" fill="rgba(255,0,0,.24705882)"/><path d="M138.5697 12.6111A.47625 .47625 0 00137.6172 12.6111A.47625 .47625 0 00138.5697 12.6111z" fill="rgba(255,0,0,.24705882)"/><path d="M151.73325 74.96175H160.87725V65.05575H151.73325z" style="fill:rgba(255,0,0,.24705882);stroke:rgba(255,0,0,.24705882);stroke-width:.09525;stroke-miterlimit:41.994751"/><path d="M154.96222 68.86575A.47625 .47625 0 00154.00973 68.86575A.47625 .47625 0 00154.96222 68.86575z" fill="rgba(255,0,0,.24705882)"/><path d="M127.34925 65.05575H145.542V61.24575H127.34925z" style="fill:rgba(255,0,0,.24705882);stroke:rgba(255,0,0,.24705882);stroke-width:.09525;stroke-miterlimit:41.994751"/><path d="M140.2461 63.5127A.47625 .47625 0 00139.2936 63.5127A.47625 .47625 0 00140.2461 63.5127z" fill="rgba(255,0,0,.24705882)"/><path d="M127.34925 46.6725H145.542V36.86175H127.34925z" style="fill:rgba(255,0,0,.24705882);stroke:rgba(255,0,0,.24705882);stroke-width:.09525;stroke-miterlimit:41.994751"/><path d="M138.6078 42.148125A.47625 .47625 0 00137.6553 42.148125A.47625 .47625 0 00138.6078 42.148125z" fill="rgba(255,0,0,.24705882)"/><path d="M97.44075 30.76575H127.32068V.28575H97.44075z" style="fill:rgba(255,0,0,.24705882);stroke:rgba(255,0,0,.24705882);stroke-width:.09525;stroke-miterlimit:41.994751"/><path d="M116.52885 15.554325A.47625 .47625 0 00115.57635 15.554325A.47625 .47625 0 00116.52885 15.554325z" fill="rgba(255,0,0,.24705882)"/><path d="M127.35878 36.86175H145.542V.28575H127.35878z" style="fill:rgba(255,0,0,.24705882);stroke:rgba(255,0,0,.24705882);stroke-width:.09525;stroke-miterlimit:41.994751"/><path d="M139.76032 28.575A.47625 .47625 0 00138.80783 28.575A.47625 .47625 0 00139.76032 28.575z" fill="rgba(255,0,0,.24705882)"/><path d="M206.59725 61.24575H249.26925V50.7492H206.59725z" style="fill:rgba(255,0,0,.24705882);stroke:rgba(255,0,0,.24705882);stroke-width:.09525;stroke-miterlimit:41.994751"/><path d="M216.24608 57.0738A.47625 .47625 0 00215.29358 57.0738A.47625 .47625 0 00216.24608 57.0738z" fill="rgba(255,0,0,.24705882)"/><path d="M139.28408 28.575L138.09345 12.6111" style="fill:none;stroke:rgba(255,0,0,.24705882);stroke-width:.09525;stroke-miterlimit:41.994751"/><path d="M116.0526 15.554325L139.28408 28.575" style="fill:none;stroke:rgba(255,0,0,.24705882);stroke-width:.09525;stroke-miterlimit:41.994751"/><path d="M142.67498 68.227575L139.76985 63.5127" style="fill:none;stroke:rgba(255,0,0,.24705882);stroke-width:.09525;stroke-miterlimit:41.994751"/><path d="M214.13153 28.755975L201.71093 25.62225" style="fill:none;stroke:rgba(255,0,0,.24705882);stroke-width:.09525;stroke-miterlimit:41.994751"/><path d="M155.7147 78.305025L155.08605 96.774" style="fill:none;stroke:rgba(255,0,0,.24705882);stroke-width:.09525;stroke-miterlimit:41.994751"/><path d="M155.08605 96.774L191.32868 100.14585" style="fill:none;stroke:rgba(255,0,0,.24705882);stroke-width:.09525;stroke-miterlimit:41.994751"/><path d="M142.67498 68.227575L148.84717 69.656325" style="fill:none;stroke:rgba(255,0,0,.24705882);stroke-width:.09525;stroke-miterlimit:41.994751"/><path d="M215.82698 98.6409V73.066275" style="fill:none;stroke:rgba(255,0,0,.24705882);stroke-width:.09525;stroke-miterlimit:41.994751"/><path d="M139.0269 56.769L138.32205 47.87265" style="fill:none;stroke:rgba(255,0,0,.24705882);stroke-width:.09525;stroke-miterlimit:41.994751"/><path d="M215.82698 98.6409L191.32868 100.14585" style="fill:none;stroke:rgba(255,0,0,.24705882);stroke-width:.09525;stroke-miterlimit:41.994751"/><path d="M215.76983 57.0738L215.82698 73.066275" style="fill:none;stroke:rgba(255,0,0,.24705882);stroke-width:.09525;stroke-miterlimit:41.994751"/><path d="M215.76983 57.0738L215.39835 43.272075" style="fill:none;stroke:rgba(255,0,0,.24705882);stroke-width:.09525;stroke-miterlimit:41.994751"/><path d="M148.23758 63.2079L148.84717 69.656325" style="fill:none;stroke:rgba(255,0,0,.24705882);stroke-width:.09525;stroke-miterlimit:41.994751"/><path d="M138.32205 47.87265L138.13155 42.148125" style="fill:none;stroke:rgba(255,0,0,.24705882);stroke-width:.09525;stroke-miterlimit:41.994751"/><path d="M164.48722 22.717125L139.28408 28.575" style="fill:none;stroke:rgba(255,0,0,.24705882);stroke-width:.09525;stroke-miterlimit:41.994751"/><path d="M215.39835 43.272075L214.13153 28.755975" style="fill:none;stroke:rgba(255,0,0,.24705882);stroke-width:.09525;stroke-miterlimit:41.994751"/><path d="M193.18605 24.755475L184.4421 24.6888" style="fill:none;stroke:rgba(255,0,0,.24705882);stroke-width:.09525;stroke-miterlimit:41.994751"/><path d="M138.13155 42.148125L139.28408 28.575" style="fill:none;stroke:rgba(255,0,0,.24705882);stroke-width:.09525;stroke-miterlimit:41.994751"/><path d="M184.4421 24.6888L164.48722 22.717125" style="fill:none;stroke:rgba(255,0,0,.24705882);stroke-width:.09525;stroke-miterlimit:41.994751"/><path d="M139.76985 63.5127L139.0269 56.769" style="fill:none;stroke:rgba(255,0,0,.24705882);stroke-width:.09525;stroke-miterlimit:41.994751"/><path d="M139.76985 63.5127L148.23758 63.2079" style="fill:none;stroke:rgba(255,0,0,.24705882);stroke-width:.09525;stroke-miterlimit:41.994751"/><path d="M201.71093 25.62225L193.18605 24.755475" style="fill:none;stroke:rgba(255,0,0,.24705882);stroke-width:.09525;stroke-miterlimit:41.994751"/><path d="M154.48597 68.86575L148.84717 69.656325" style="fill:none;stroke:rgba(255,0,0,.24705882);stroke-width:.09525;stroke-miterlimit:41.994751"/><path d="M154.48597 68.86575L155.7147 78.305025" style="fill:none;stroke:rgba(255,0,0,.24705882);stroke-width:.09525;stroke-miterlimit:41.994751"/><path d="M148.84717 69.656325L155.7147 78.305025" style="fill:none;stroke:rgba(255,0,0,.24705882);stroke-width:.09525;stroke-miterlimit:41.994751"/><path d="M215.39835 43.272075L206.49248 43.824525" style="fill:none;stroke:rgba(255,0,0,.24705882);stroke-width:.09525;stroke-miterlimit:41.994751"/><path d="M215.76983 57.0738L206.41628 57.3786" style="fill:none;stroke:rgba(255,0,0,.24705882);stroke-width:.09525;stroke-miterlimit:41.994751"/><path d="M54.0639 15.0876L116.0526 15.554325" style="fill:none;stroke:rgba(255,0,0,.24705882);stroke-width:.09525;stroke-miterlimit:41.994751"/><path d="M187.32817 55.845075A.47625 .47625 0 00186.37568 55.845075A.47625 .47625 0 00187.32817 55.845075z" fill="rgba(255,0,0,.24705882)"/><path d="M197.83425 63.15075H206.21625V51.082575H197.83425z" style="fill:rgba(255,0,0,.24705882);stroke:rgba(255,0,0,.24705882);stroke-width:.09525;stroke-miterlimit:41.994751"/><path d="M202.82535 57.6453A.47625 .47625 0 00201.87285 57.6453A.47625 .47625 0 00202.82535 57.6453z" fill="rgba(255,0,0,.24705882)"/><path d="M206.89253 57.3786A.47625 .47625 0 00205.94003 57.3786A.47625 .47625 0 00206.89253 57.3786z" fill="rgba(255,0,0,.24705882)"/><path d="M183.4134 60.493275A.47625 .47625 0 00182.4609 60.493275A.47625 .47625 0 00183.4134 60.493275z" fill="rgba(255,0,0,.24705882)"/><path d="M197.83425 51.03495H206.21625V37.24275H197.83425z" style="fill:rgba(255,0,0,.24705882);stroke:rgba(255,0,0,.24705882);stroke-width:.09525;stroke-miterlimit:41.994751"/><path d="M202.9587 44.453175A.47625 .47625 0 00202.0062 44.453175A.47625 .47625 0 00202.9587 44.453175z" fill="rgba(255,0,0,.24705882)"/><path d="M206.96873 43.824525A.47625 .47625 0 00206.01623 43.824525A.47625 .47625 0 00206.96873 43.824525z" fill="rgba(255,0,0,.24705882)"/><path d="M170.21175 63.34125H182.02275V37.05225H170.21175z" style="fill:rgba(255,0,0,.24705882);stroke:rgba(255,0,0,.24705882);stroke-width:.09525;stroke-miterlimit:41.994751"/><path d="M176.12678 53.139975A.47625 .47625 0 00175.17428 53.139975A.47625 .47625 0 00176.12678 53.139975z" fill="rgba(255,0,0,.24705882)"/><path d="M161.06775 73.24725H170.02125V62.798325H161.06775z" style="fill:rgba(255,0,0,.24705882);stroke:rgba(255,0,0,.24705882);stroke-width:.09525;stroke-miterlimit:41.994751"/><path d="M166.116 68.227575A.47625 .47625 0 00165.1635 68.227575A.47625 .47625 0 00166.116 68.227575z" fill="rgba(255,0,0,.24705882)"/><path d="M202.48245 44.453175L202.3491 57.6453" style="fill:none;stroke:rgba(255,0,0,.24705882);stroke-width:.09525;stroke-miterlimit:41.994751"/><path d="M206.49248 43.824525L202.48245 44.453175" style="fill:none;stroke:rgba(255,0,0,.24705882);stroke-width:.09525;stroke-miterlimit:41.994751"/><path d="M182.93715 60.493275L175.65053 53.139975" style="fill:none;stroke:rgba(255,0,0,.24705882);stroke-width:.09525;stroke-miterlimit:41.994751"/><path d="M206.41628 57.3786L202.3491 57.6453" style="fill:none;stroke:rgba(255,0,0,.24705882);stroke-width:.09525;stroke-miterlimit:41.994751"/><path d="M182.40375 43.14825H188.11875V37.05225H182.40375z" style="fill:rgba(255,0,0,.24705882);stroke:rgba(255,0,0,.24705882);stroke-width:.09525;stroke-miterlimit:41.994751"/><path d="M185.68988 39.957375A.47625 .47625 0 00184.73738 39.957375A.47625 .47625 0 00185.68988 39.957375z" fill="rgba(255,0,0,.24705882)"/><path d="M187.24245 60.78855L186.85192 55.845075" style="fill:none;stroke:rgba(255,0,0,.24705882);stroke-width:.09525;stroke-miterlimit:41.994751"/><path d="M185.9661 50.492025L186.85192 55.845075" style="fill:none;stroke:rgba(255,0,0,.24705882);stroke-width:.09525;stroke-miterlimit:41.994751"/><path d="M187.24245 60.78855L182.93715 60.493275" style="fill:none;stroke:rgba(255,0,0,.24705882);stroke-width:.09525;stroke-miterlimit:41.994751"/><path d="M173.19308 68.17995L165.63975 68.227575" style="fill:none;stroke:rgba(255,0,0,.24705882);stroke-width:.09525;stroke-miterlimit:41.994751"/><path d="M185.9661 50.492025L185.21363 39.957375" style="fill:none;stroke:rgba(255,0,0,.24705882);stroke-width:.09525;stroke-miterlimit:41.994751"/><path d="M183.92775 71.999475H190.02375V64.208025H183.92775z" style="fill:rgba(255,0,0,.24705882);stroke:rgba(255,0,0,.24705882);stroke-width:.09525;stroke-miterlimit:41.994751"/><path d="M187.62345 67.7418A.47625 .47625 0 00186.67095 67.7418A.47625 .47625 0 00187.62345 67.7418z" fill="rgba(255,0,0,.24705882)"/><path d="M183.92775 64.169925H190.02375V56.683275H183.92775z" style="fill:rgba(255,0,0,.24705882);stroke:rgba(255,0,0,.24705882);stroke-width:.09525;stroke-miterlimit:41.994751"/><path d="M187.7187 60.78855A.47625 .47625 0 00186.7662 60.78855A.47625 .47625 0 00187.7187 60.78855z" fill="rgba(255,0,0,.24705882)"/><path d="M170.16413 73.24725H182.21325V63.72225H170.16413z" style="fill:rgba(255,0,0,.24705882);stroke:rgba(255,0,0,.24705882);stroke-width:.09525;stroke-miterlimit:41.994751"/><path d="M173.66933 68.17995A.47625 .47625 0 00172.71683 68.17995A.47625 .47625 0 00173.66933 68.17995z" fill="rgba(255,0,0,.24705882)"/><path d="M182.40375 54.95925H197.26275V43.14825H182.40375z" style="fill:rgba(255,0,0,.24705882);stroke:rgba(255,0,0,.24705882);stroke-width:.09525;stroke-miterlimit:41.994751"/><path d="M186.44235 50.492025A.47625 .47625 0 00185.48985 50.492025A.47625 .47625 0 00186.44235 50.492025z" fill="rgba(255,0,0,.24705882)"/><path d="M.28575 29.81325H97.3455V1.23825H.28575z" style="fill:rgba(255,0,0,.24705882);stroke:rgba(255,0,0,.24705882);stroke-width:.09525;stroke-miterlimit:41.994751"/><path d="M54.54015 15.0876A.47625 .47625 0 0053.58765 15.0876A.47625 .47625 0 0054.54015 15.0876z" fill="rgba(255,0,0,.24705882)"/><path d="M187.1472 67.7418L187.24245 60.78855" style="fill:none;stroke:rgba(255,0,0,.24705882);stroke-width:.09525;stroke-miterlimit:41.994751"/><path d="M155.7147 78.305025L161.0106 78.324075" style="fill:none;stroke:rgba(255,0,0,.24705882);stroke-width:.09525;stroke-miterlimit:41.994751"/><path d="M187.1472 67.7418L183.20385 67.95135" style="fill:none;stroke:rgba(250,0,0,.24705882);stroke-width:.09525;stroke-miterlimit:41.994751"/><path d="M202.2729 63.41745L202.3491 57.6453" style="fill:none;stroke:rgba(250,0,0,.24705882);stroke-width:.09525;stroke-miterlimit:41.994751"/><path d="M187.01385 73.2663L187.1472 67.7418" style="fill:none;stroke:rgba(250,0,0,.24705882);stroke-width:.09525;stroke-miterlimit:41.994751"/><path d="M183.20385 67.95135L173.19308 68.17995" style="fill:none;stroke:rgba(250,0,0,.24705882);stroke-width:.09525;stroke-miterlimit:41.994751"/><path d="M183.6801 67.95135A.47625 .47625 0 00182.7276 67.95135A.47625 .47625 0 00183.6801 67.95135z" fill="rgba(250,0,0,.24705882)"/><path d="M187.4901 73.2663A.47625 .47625 0 00186.5376 73.2663A.47625 .47625 0 00187.4901 73.2663z" fill="rgba(250,0,0,.24705882)"/><path d="M187.01385 73.2663L188.14733 81.772125" style="fill:none;stroke:rgba(250,0,4,.24705882);stroke-width:.09525;stroke-miterlimit:41.994751"/><path d="M191.73825 73.81875H206.21625V63.53175H191.73825z" style="fill:rgba(250,0,4,.24705882);stroke:rgba(250,0,4,.24705882);stroke-width:.09525;stroke-miterlimit:41.994751"/><path d="M200.69175 68.494275A.47625 .47625 0 00199.73925 68.494275A.47625 .47625 0 00200.69175 68.494275z" fill="rgba(250,0,4,.24705882)"/><path d="M173.84078 91.34475H184.023V73.81875H173.84078z" style="fill:rgba(250,0,4,.24705882);stroke:rgba(250,0,4,.24705882);stroke-width:.09525;stroke-miterlimit:41.994751"/><path d="M178.7652 82.400775A.47625 .47625 0 00177.8127 82.400775A.47625 .47625 0 00178.7652 82.400775z" fill="rgba(250,0,4,.24705882)"/><path d="M161.25825 91.34475H173.84078V73.81875H161.25825z" style="fill:rgba(250,0,4,.24705882);stroke:rgba(250,0,4,.24705882);stroke-width:.09525;stroke-miterlimit:41.994751"/><path d="M168.33533 79.45755A.47625 .47625 0 00167.38283 79.45755A.47625 .47625 0 00168.33533 79.45755z" fill="rgba(250,0,4,.24705882)"/><path d="M191.73825 91.34475H206.21625V73.81875H191.73825z" style="fill:rgba(250,0,4,.24705882);stroke:rgba(250,0,4,.24705882);stroke-width:.09525;stroke-miterlimit:41.994751"/><path d="M199.21537 80.8863A.47625 .47625 0 00198.26288 80.8863A.47625 .47625 0 00199.21537 80.8863z" fill="rgba(250,0,4,.24705882)"/><path d="M184.023 91.34475H191.73825V73.81875H184.023z" style="fill:rgba(250,0,4,.24705882);stroke:rgba(250,0,4,.24705882);stroke-width:.09525;stroke-miterlimit:41.994751"/><path d="M188.62358 81.772125A.47625 .47625 0 00187.67108 81.772125A.47625 .47625 0 00188.62358 81.772125z" fill="rgba(250,0,4,.24705882)"/><path d="M202.74915 63.41745A.47625 .47625 0 00201.79665 63.41745A.47625 .47625 0 00202.74915 63.41745z" fill="rgba(250,0,4,.24705882)"/><path d="M178.28895 82.400775L188.14733 81.772125" style="fill:none;stroke:rgba(250,0,4,.24705882);stroke-width:.09525;stroke-miterlimit:41.994751"/><path d="M200.2155 68.494275L202.2729 63.41745" style="fill:none;stroke:rgba(250,0,4,.24705882);stroke-width:.09525;stroke-miterlimit:41.994751"/><path d="M198.73913 80.8863L200.2155 68.494275" style="fill:none;stroke:rgba(250,0,4,.24705882);stroke-width:.09525;stroke-miterlimit:41.994751"/><path d="M188.14733 81.772125L198.73913 80.8863" style="fill:none;stroke:rgba(250,0,4,.24705882);stroke-width:.09525;stroke-miterlimit:41.994751"/><path d="M154.48597 68.86575L154.7622 63.9318" style="fill:none;stroke:rgba(250,0,4,.24705882);stroke-width:.09525;stroke-miterlimit:41.994751"/><path d="M167.85908 79.45755L178.28895 82.400775" style="fill:none;stroke:rgba(250,0,4,.24705882);stroke-width:.09525;stroke-miterlimit:41.994751"/><path d="M165.63975 68.227575L165.61118 61.47435" style="fill:none;stroke:rgba(250,0,4,.24705882);stroke-width:.09525;stroke-miterlimit:41.994751"/><path d="M161.0106 78.324075L167.85908 79.45755" style="fill:none;stroke:rgba(250,0,4,.24705882);stroke-width:.09525;stroke-miterlimit:41.994751"/><path d="M161.48685 78.324075A.47625 .47625 0 00160.53435 78.324075A.47625 .47625 0 00161.48685 78.324075z" fill="rgba(250,0,4,.24705882)"/><path d="M161.06775 62.7507H169.83075V59.49315H161.06775z" style="fill:rgba(246,0,4,.24705882);stroke:rgba(246,0,4,.24705882);stroke-width:.09525;stroke-miterlimit:41.994751"/><path d="M166.08742 61.47435A.47625 .47625 0 00165.13493 61.47435A.47625 .47625 0 00166.08742 61.47435z" fill="rgba(246,0,4,.24705882)"/><path d="M151.74277 64.284225H157.8102V63.53175H151.74277z" style="fill:rgba(246,0,8,.24705882);stroke:rgba(246,0,8,.24705882);stroke-width:.09525;stroke-miterlimit:41.994751"/><path d="M155.23845 63.9318A.47625 .47625 0 00154.28595 63.9318A.47625 .47625 0 00155.23845 63.9318z" fill="rgba(246,0,8,.24705882)"/><path d="M154.7622 63.9318L154.90508 62.455425" style="fill:none;stroke:rgba(242,0,12,.24705882);stroke-width:.09525;stroke-miterlimit:41.994751"/><path d="M165.61118 61.47435L165.51593 57.559575" style="fill:none;stroke:rgba(238,0,16,.24705882);stroke-width:.09525;stroke-miterlimit:41.994751"/><path d="M151.74277 62.760225H157.81973V62.00775H151.74277z" style="fill:rgba(238,0,16,.24705882);stroke:rgba(238,0,16,.24705882);stroke-width:.09525;stroke-miterlimit:41.994751"/><path d="M155.38133 62.455425A.47625 .47625 0 00154.42883 62.455425A.47625 .47625 0 00155.38133 62.455425z" fill="rgba(238,0,16,.24705882)"/><path d="M154.85745 61.09335L154.90508 62.455425" style="fill:none;stroke:rgba(234,0,20,.24705882);stroke-width:.09525;stroke-miterlimit:41.994751"/><path d="M155.3337 61.09335A.47625 .47625 0 00154.3812 61.09335A.47625 .47625 0 00155.3337 61.09335z" fill="rgba(234,0,20,.24705882)"/><path d="M145.923 60.86475H160.87725V37.24275H145.923z" style="fill:rgba(234,0,20,.24705882);stroke:rgba(234,0,20,.24705882);stroke-width:.09525;stroke-miterlimit:41.994751"/><path d="M153.43822 47.6631A.47625 .47625 0 00152.48573 47.6631A.47625 .47625 0 00153.43822 47.6631z" fill="rgba(234,0,20,.24705882)"/><path d="M152.96197 47.6631L154.85745 61.09335" style="fill:none;stroke:rgba(234,0,20,.24705882);stroke-width:.09525;stroke-miterlimit:41.994751"/><path d="M161.06775 59.6265H169.83075V54.31155H161.06775z" style="fill:rgba(230,0,24,.24705882);stroke:rgba(230,0,24,.24705882);stroke-width:.09525;stroke-miterlimit:41.994751"/><path d="M165.99218 57.559575A.47625 .47625 0 00165.03968 57.559575A.47625 .47625 0 00165.99218 57.559575z" fill="rgba(230,0,24,.24705882)"/><path d="M165.51593 57.559575L165.24922 51.7398" style="fill:none;stroke:rgba(218,0,36,.24705882);stroke-width:.09525;stroke-miterlimit:41.994751"/><path d="M161.06775 54.5211H169.83075V49.596675H161.06775z" style="fill:rgba(206,0,48,.24705882);stroke:rgba(206,0,48,.24705882);stroke-width:.09525;stroke-miterlimit:41.994751"/><path d="M165.72547 51.7398A.47625 .47625 0 00164.77298 51.7398A.47625 .47625 0 00165.72547 51.7398z" fill="rgba(206,0,48,.24705882)"/><path d="M167.15422 85.277325L139.76985 63.5127" style="fill:none;stroke:rgba(194,0,56,.24705882);stroke-width:.09525;stroke-miterlimit:41.994751"/><path d="M165.24922 51.7398L165.14445 46.510575" style="fill:none;stroke:rgba(194,0,60,.24705882);stroke-width:.09525;stroke-miterlimit:41.994751"/><path d="M161.06775 50.00625H169.83075V43.71975H161.06775z" style="fill:rgba(182,0,72,.24705882);stroke:rgba(182,0,72,.24705882);stroke-width:.09525;stroke-miterlimit:41.994751"/><path d="M165.6207 46.510575A.47625 .47625 0 00164.6682 46.510575A.47625 .47625 0 00165.6207 46.510575z" fill="rgba(182,0,72,.24705882)"/><path d="M165.14445 46.510575L162.8775 40.471725" style="fill:none;stroke:rgba(174,0,76,.24705882);stroke-width:.09525;stroke-miterlimit:41.994751"/><path d="M161.06775 43.710225H164.6301V37.05225H161.06775z" style="fill:rgba(170,0,85,.24705882);stroke:rgba(170,0,85,.24705882);stroke-width:.09525;stroke-miterlimit:41.994751"/><path d="M163.35375 40.471725A.47625 .47625 0 00162.40125 40.471725A.47625 .47625 0 00163.35375 40.471725z" fill="rgba(170,0,85,.24705882)"/><path d="M162.8775 40.471725L166.23982 40.5003" style="fill:none;stroke:rgba(165,0,89,.24705882);stroke-width:.09525;stroke-miterlimit:41.994751"/><path d="M164.63963 43.691175H167.17328V37.05225H164.63963z" style="fill:rgba(157,0,97,.24705882);stroke:rgba(157,0,97,.24705882);stroke-width:.09525;stroke-miterlimit:41.994751"/><path d="M166.71607 40.5003A.47625 .47625 0 00165.76358 40.5003A.47625 .47625 0 00166.71607 40.5003z" fill="rgba(157,0,97,.24705882)"/><path d="M166.23982 40.5003L168.30675 41.005125" style="fill:none;stroke:rgba(153,0,101,.24705882);stroke-width:.09525;stroke-miterlimit:41.994751"/><path d="M167.46855 43.7007H170.1927V37.05225H167.46855z" style="fill:rgba(145,0,109,.24705882);stroke:rgba(145,0,109,.24705882);stroke-width:.09525;stroke-miterlimit:41.994751"/><path d="M168.783 41.005125A.47625 .47625 0 00167.8305 41.005125A.47625 .47625 0 00168.783 41.005125z" fill="rgba(145,0,109,.24705882)"/><path d="M168.30675 41.005125L169.90695 40.719375" style="fill:none;stroke:rgba(141,0,113,.24705882);stroke-width:.09525;stroke-miterlimit:41.994751"/><path d="M167.63047 85.277325A.47625 .47625 0 00166.67798 85.277325A.47625 .47625 0 00167.63047 85.277325z" fill="rgba(133,0,117,.24705882)"/><path d="M170.21175 53.721H191.35725V37.05225H170.21175z" style="fill:rgba(133,0,117,.24705882);stroke:rgba(133,0,117,.24705882);stroke-width:.09525;stroke-miterlimit:41.994751"/><path d="M180.62258 41.024175A.47625 .47625 0 00179.67008 41.024175A.47625 .47625 0 00180.62258 41.024175z" fill="rgba(133,0,117,.24705882)"/><path d="M166.39222 73.332975A.47625 .47625 0 00165.43973 73.332975A.47625 .47625 0 00166.39222 73.332975z" fill="rgba(133,0,117,.24705882)"/><path d="M161.05823 91.544775H168.402V73.533H161.05823z" style="fill:rgba(133,0,117,.24705882);stroke:rgba(133,0,117,.24705882);stroke-width:.09525;stroke-miterlimit:41.994751"/><path d="M167.03993 83.058A.47625 .47625 0 00166.08743 83.058A.47625 .47625 0 00167.03993 83.058z" fill="rgba(133,0,117,.24705882)"/><path d="M170.21175 73.3425H191.35725V53.721H170.21175z" style="fill:rgba(133,0,117,.24705882);stroke:rgba(133,0,117,.24705882);stroke-width:.09525;stroke-miterlimit:41.994751"/><path d="M180.11775 67.465575A.47625 .47625 0 00179.16525 67.465575A.47625 .47625 0 00180.11775 67.465575z" fill="rgba(133,0,117,.24705882)"/><path d="M170.3832 40.719375A.47625 .47625 0 00169.4307 40.719375A.47625 .47625 0 00170.3832 40.719375z" fill="rgba(133,0,117,.24705882)"/><path d="M170.55465 68.1609A.47625 .47625 0 00169.60215 68.1609A.47625 .47625 0 00170.55465 68.1609z" fill="rgba(133,0,117,.24705882)"/><path d="M161.06775 73.24725H169.83075V63.0555H161.06775z" style="fill:rgba(133,0,117,.24705882);stroke:rgba(133,0,117,.24705882);stroke-width:.09525;stroke-miterlimit:41.994751"/><path d="M166.69702 67.26555A.47625 .47625 0 00165.74453 67.26555A.47625 .47625 0 00166.69702 67.26555z" fill="rgba(133,0,117,.24705882)"/><path d="M168.402 91.5924H191.54775V73.533H168.402z" style="fill:rgba(133,0,117,.24705882);stroke:rgba(133,0,117,.24705882);stroke-width:.09525;stroke-miterlimit:41.994751"/><path d="M176.34585 82.648425A.47625 .47625 0 00175.39335 82.648425A.47625 .47625 0 00176.34585 82.648425z" fill="rgba(133,0,117,.24705882)"/><path d="M166.56368 83.058L175.8696 82.648425" style="fill:none;stroke:rgba(133,0,117,.24705882);stroke-width:.09525;stroke-miterlimit:41.994751"/><path d="M169.90695 40.719375L180.14633 41.024175" style="fill:none;stroke:rgba(133,0,117,.24705882);stroke-width:.09525;stroke-miterlimit:41.994751"/><path d="M180.14633 41.024175L179.6415 67.465575" style="fill:none;stroke:rgba(133,0,117,.24705882);stroke-width:.09525;stroke-miterlimit:41.994751"/><path d="M166.22078 67.26555L165.91598 73.332975" style="fill:none;stroke:rgba(133,0,117,.24705882);stroke-width:.09525;stroke-miterlimit:41.994751"/><path d="M167.15422 85.277325L166.56368 83.058" style="fill:none;stroke:rgba(133,0,117,.24705882);stroke-width:.09525;stroke-miterlimit:41.994751"/><path d="M170.0784 68.1609L179.6415 67.465575" style="fill:none;stroke:rgba(133,0,117,.24705882);stroke-width:.09525;stroke-miterlimit:41.994751"/><path d="M170.0784 68.1609L166.22078 67.26555" style="fill:none;stroke:rgba(133,0,117,.24705882);stroke-width:.09525;stroke-miterlimit:41.994751"/><path d="M165.91598 73.332975L166.56368 83.058" style="fill:none;stroke:rgba(133,0,117,.24705882);stroke-width:.09525;stroke-miterlimit:41.994751"/><path d="M169.47833 36.985575L138.09345 12.6111" style="fill:none;stroke:rgba(125,0,125,.24705882);stroke-width:.09525;stroke-miterlimit:41.994751"/><path d="M171.76433 73.142475L167.15422 85.277325" style="fill:none;stroke:rgba(72,0,182,.24705882);stroke-width:.09525;stroke-miterlimit:41.994751"/><path d="M191.59538 73.533H205.68285V37.338H191.59538z" style="fill:rgba(64,0,190,.24705882);stroke:rgba(64,0,190,.24705882);stroke-width:.09525;stroke-miterlimit:41.994751"/><path d="M197.8152 54.663975A.47625 .47625 0 00196.8627 54.663975A.47625 .47625 0 00197.8152 54.663975z" fill="rgba(64,0,190,.24705882)"/><path d="M148.83765 54.454425H160.87725V39.0525H148.83765z" style="fill:rgba(64,0,190,.24705882);stroke:rgba(64,0,190,.24705882);stroke-width:.09525;stroke-miterlimit:41.994751"/><path d="M156.21 45.92955A.47625 .47625 0 00155.2575 45.92955A.47625 .47625 0 00156.21 45.92955z" fill="rgba(64,0,190,.24705882)"/><path d="M197.1675 82.1055L197.33895 54.663975" style="fill:none;stroke:rgba(64,0,190,.24705882);stroke-width:.09525;stroke-miterlimit:41.994751"/><path d="M191.72872 91.72575H204.94942V73.533H191.72872z" style="fill:rgba(64,0,190,.24705882);stroke:rgba(64,0,190,.24705882);stroke-width:.09525;stroke-miterlimit:41.994751"/><path d="M197.64375 82.1055A.47625 .47625 0 00196.69125 82.1055A.47625 .47625 0 00197.64375 82.1055z" fill="rgba(64,0,190,.24705882)"/><path d="M173.94555 45.51045L197.33895 54.663975" style="fill:none;stroke:rgba(40,0,210,.24705882);stroke-width:.09525;stroke-miterlimit:41.994751"/><path d="M197.33895 54.663975L174.4218 62.283975" style="fill:none;stroke:rgba(40,0,210,.24705882);stroke-width:.09525;stroke-miterlimit:41.994751"/><path d="M173.94555 45.51045L155.73375 45.92955" style="fill:none;stroke:rgba(40,0,210,.24705882);stroke-width:.09525;stroke-miterlimit:41.994751"/><path d="M160.87725 73.533H191.54775V55.91175H160.87725z" style="fill:rgba(20,0,234,.24705882);stroke:rgba(20,0,234,.24705882);stroke-width:.09525;stroke-miterlimit:41.994751"/><path d="M174.89805 62.283975A.47625 .47625 0 00173.94555 62.283975A.47625 .47625 0 00174.89805 62.283975z" fill="rgba(20,0,234,.24705882)"/><path d="M160.87725 55.91175H191.54775V36.86175H160.87725z" style="fill:rgba(20,0,234,.24705882);stroke:rgba(20,0,234,.24705882);stroke-width:.09525;stroke-miterlimit:41.994751"/><path d="M174.4218 45.51045A.47625 .47625 0 00173.4693 45.51045A.47625 .47625 0 00174.4218 45.51045z" fill="rgba(20,0,234,.24705882)"/><path d="M174.4218 62.283975L173.94555 45.51045" style="fill:none;stroke:rgba(20,0,234,.24705882);stroke-width:.09525;stroke-miterlimit:41.994751"/><path d="M174.4218 62.283975L171.76433 73.142475" style="fill:none;stroke:rgba(16,0,238,.24705882);stroke-width:.09525;stroke-miterlimit:41.994751"/><path d="M169.47833 36.985575L173.94555 45.51045" style="fill:none;stroke:rgba(8,0,246,.24705882);stroke-width:.09525;stroke-miterlimit:41.994751"/><path d="M172.24058 73.142475A.47625 .47625 0 00171.28808 73.142475A.47625 .47625 0 00172.24058 73.142475z" fill="rgba(8,0,246,.24705882)"/><path d="M169.95458 36.985575A.47625 .47625 0 00169.00208 36.985575A.47625 .47625 0 00169.95458 36.985575z" fill="rgba(0,0,255,.24705882)"/></svg>