<svg version="1.1" width="189.45225mm" height="439.38825mm" viewBox="0 0 189.45225 439.38825" xmlns="http://www.w3.org/2000/svg" xmlns:xlink="http://www.w3.org/1999/xlink"><path d="M94.39275 146.4945H96.29775" style="fill:none;stroke:#f00;stroke-width:.09525;stroke-miterlimit:41.994751"/><path d="M94.39275 146.4945V144.5895" style="fill:none;stroke:#0f0;stroke-width:.09525;stroke-miterlimit:41.994751"/><path d="M88.5444 52.10175H100.37445V11.83005H88.5444z" style="fill:rgba(0,0,0,.24705882);stroke:rgba(0,0,0,.24705882);stroke-width:.09525;stroke-miterlimit:41.994751"/><path d="M94.802325 31.4706A.47625 .47625 0 0093.849825 31.4706A.47625 .47625 0 0094.802325 31.4706z" fill="rgba(0,0,0,.24705882)"/><path d="M100.56495 11.5443H112.40453V.36195H100.56495z" style="fill:rgba(0,0,0,.24705882);stroke:rgba(0,0,0,.24705882);stroke-width:.09525;stroke-miterlimit:41.994751"/><path d="M107.38485 5.3721A.47625 .47625 0 00106.43235 5.3721A.47625 .47625 0 00107.38485 5.3721z" fill="rgba(0,0,0,.24705882)"/><path d="M88.41105 59.1693H100.26968V52.397025H88.41105z" style="fill:rgba(0,0,0,.24705882);stroke:rgba(0,0,0,.24705882);stroke-width:.09525;stroke-miterlimit:41.994751"/><path d="M95.373825 53.921025A.47625 .47625 0 0094.421325 53.921025A.47625 .47625 0 0095.373825 53.921025z" fill="rgba(0,0,0,.24705882)"/><path d="M.276225 233.91495H189.10935V59.22645H.276225z" style="fill:rgba(0,0,0,.24705882);stroke:rgba(0,0,0,.24705882);stroke-width:.09525;stroke-miterlimit:41.994751"/><path d="M94.840425 145.75155A.47625 .47625 0 0093.887925 145.75155A.47625 .47625 0 0094.840425 145.75155z" fill="rgba(0,0,0,.24705882)"/><path d="M88.75395 242.48745H100.19348V234.15308H88.75395z" style="fill:rgba(0,0,0,.24705882);stroke:rgba(0,0,0,.24705882);stroke-width:.09525;stroke-miterlimit:41.994751"/><path d="M95.2119 238.55363A.47625 .47625 0 0094.2594 238.55363A.47625 .47625 0 0095.2119 238.55363z" fill="rgba(0,0,0,.24705882)"/><path d="M76.2762 11.363325H88.496775V.371475H76.2762z" style="fill:rgba(0,0,0,.24705882);stroke:rgba(0,0,0,.24705882);stroke-width:.09525;stroke-miterlimit:41.994751"/><path d="M81.47685 5.591175A.47625 .47625 0 0080.52435 5.591175A.47625 .47625 0 0081.47685 5.591175z" fill="rgba(0,0,0,.24705882)"/><path d="M88.9254 439.1025H100.42208V243.10658H88.9254z" style="fill:rgba(0,0,0,.24705882);stroke:rgba(0,0,0,.24705882);stroke-width:.09525;stroke-miterlimit:41.994751"/><path d="M95.04045 328.88873A.47625 .47625 0 0094.08795 328.88873A.47625 .47625 0 0095.04045 328.88873z" fill="rgba(0,0,0,.24705882)"/><path d="M88.668225 11.458575H100.5078V.390525H88.668225z" style="fill:rgba(0,0,0,.24705882);stroke:rgba(0,0,0,.24705882);stroke-width:.09525;stroke-miterlimit:41.994751"/><path d="M94.497525 5.648325A.47625 .47625 0 0093.545025 5.648325A.47625 .47625 0 0094.497525 5.648325z" fill="rgba(0,0,0,.24705882)"/><path d="M94.897575 53.921025L94.326075 31.4706" style="fill:none;stroke:rgba(0,0,0,.24705882);stroke-width:.09525;stroke-miterlimit:41.994751"/><path d="M94.326075 31.4706L94.021275 5.648325" style="fill:none;stroke:rgba(0,0,0,.24705882);stroke-width:.09525;stroke-miterlimit:41.994751"/><path d="M94.5642 328.88873L94.73565 238.55363" style="fill:none;stroke:rgba(0,0,0,.24705882);stroke-width:.09525;stroke-miterlimit:41.994751"/><path d="M94.021275 5.648325L81.0006 5.591175" style="fill:none;stroke:rgba(0,0,0,.24705882);stroke-width:.09525;stroke-miterlimit:41.994751"/><path d="M94.021275 5.648325L106.9086 5.3721" style="fill:none;stroke:rgba(0,0,0,.24705882);stroke-width:.09525;stroke-miterlimit:41.994751"/><path d="M94.73565 238.55363L94.364175 145.75155" style="fill:none;stroke:rgba(0,0,0,.24705882);stroke-width:.09525;stroke-miterlimit:41.994751"/><path d="M94.364175 145.75155L94.897575 53.921025" style="fill:none;stroke:rgba(0,0,0,.24705882);stroke-width:.09525;stroke-miterlimit:41.994751"/></svg>