<svg version="1.1" width="955.3575mm" height="539.115mm" viewBox="0 0 955.3575 539.115" xmlns="http://www.w3.org/2000/svg" xmlns:xlink="http://www.w3.org/1999/xlink"><path d="M443.484 7.33425H445.389" style="fill:none;stroke:#f00;stroke-width:.09525;stroke-miterlimit:41.994751"/><path d="M443.484 7.33425V5.42925" style="fill:none;stroke:#0f0;stroke-width:.09525;stroke-miterlimit:41.994751"/><path d="M169.93552 526.91347A.47625 .47625 0 00168.98302 526.91347A.47625 .47625 0 00169.93552 526.91347z" fill="rgba(255,0,0,.24705882)"/><path d="M600.837 538.25775H620.0775V524.54175H600.837z" style="fill:rgba(255,0,0,.24705882);stroke:rgba(255,0,0,.24705882);stroke-width:.09525;stroke-miterlimit:41.994751"/><path d="M609.11423 531.44737A.47625 .47625 0 00608.16172 531.44737A.47625 .47625 0 00609.11423 531.44737z" fill="rgba(255,0,0,.24705882)"/><path d="M568.48057 538.25775H600.2655V524.54175H568.48057z" style="fill:rgba(255,0,0,.24705882);stroke:rgba(255,0,0,.24705882);stroke-width:.09525;stroke-miterlimit:41.994751"/><path d="M574.3956 531.42832A.47625 .47625 0 00573.4431 531.42832A.47625 .47625 0 00574.3956 531.42832z" fill="rgba(255,0,0,.24705882)"/><path d="M262.2042 526.0467A.47625 .47625 0 00261.2517 526.0467A.47625 .47625 0 00262.2042 526.0467z" fill="rgba(255,0,0,.24705882)"/><path d="M540.73425 538.25775H568.46152V524.54175H540.73425z" style="fill:rgba(255,0,0,.24705882);stroke:rgba(255,0,0,.24705882);stroke-width:.09525;stroke-miterlimit:41.994751"/><path d="M547.02075 533.48573A.47625 .47625 0 00546.06825 533.48573A.47625 .47625 0 00547.02075 533.48573z" fill="rgba(255,0,0,.24705882)"/><path d="M251.55525 538.25775H264.58545V531.20925H251.55525z" style="fill:rgba(255,0,0,.24705882);stroke:rgba(255,0,0,.24705882);stroke-width:.09525;stroke-miterlimit:41.994751"/><path d="M260.69925 534.4668A.47625 .47625 0 00259.74675 534.4668A.47625 .47625 0 00260.69925 534.4668z" fill="rgba(255,0,0,.24705882)"/><path d="M528.16125 538.25775H540.4866V531.20925H528.16125z" style="fill:rgba(255,0,0,.24705882);stroke:rgba(255,0,0,.24705882);stroke-width:.09525;stroke-miterlimit:41.994751"/><path d="M535.51455 533.88578A.47625 .47625 0 00534.56205 533.88578A.47625 .47625 0 00535.51455 533.88578z" fill="rgba(255,0,0,.24705882)"/><path d="M232.029 538.25775H244.50675V524.54175H232.029z" style="fill:rgba(255,0,0,.24705882);stroke:rgba(255,0,0,.24705882);stroke-width:.09525;stroke-miterlimit:41.994751"/><path d="M240.5253 531.32355A.47625 .47625 0 00239.5728 531.32355A.47625 .47625 0 00240.5253 531.32355z" fill="rgba(255,0,0,.24705882)"/><path d="M526.41818 531.33308A.47625 .47625 0 00525.46567 531.33308A.47625 .47625 0 00526.41818 531.33308z" fill="rgba(255,0,0,.24705882)"/><path d="M929.9067 13.9065H955.02413V6.829425H929.9067z" style="fill:rgba(255,0,0,.24705882);stroke:rgba(255,0,0,.24705882);stroke-width:.09525;stroke-miterlimit:41.994751"/><path d="M942.54638 8.763A.47625 .47625 0 00941.59387 8.763A.47625 .47625 0 00942.54638 8.763z" fill="rgba(255,0,0,.24705882)"/><path d="M159.35325 538.25775H170.37367V529.00897H159.35325z" style="fill:rgba(255,0,0,.24705882);stroke:rgba(255,0,0,.24705882);stroke-width:.09525;stroke-miterlimit:41.994751"/><path d="M168.9354 534.40965A.47625 .47625 0 00167.9829 534.40965A.47625 .47625 0 00168.9354 534.40965z" fill="rgba(255,0,0,.24705882)"/><path d="M171.92625 538.25775H231.4575V524.54175H171.92625z" style="fill:rgba(255,0,0,.24705882);stroke:rgba(255,0,0,.24705882);stroke-width:.09525;stroke-miterlimit:41.994751"/><path d="M198.24382 531.48547A.47625 .47625 0 00197.29133 531.48547A.47625 .47625 0 00198.24382 531.48547z" fill="rgba(255,0,0,.24705882)"/><path d="M197.76757 531.48547L240.04905 531.32355" style="fill:none;stroke:rgba(255,0,0,.24705882);stroke-width:.09525;stroke-miterlimit:41.994751"/><path d="M240.04905 531.32355L260.223 534.4668" style="fill:none;stroke:rgba(255,0,0,.24705882);stroke-width:.09525;stroke-miterlimit:41.994751"/><path d="M168.45915 534.40965L169.45927 526.91347" style="fill:none;stroke:rgba(255,0,0,.24705882);stroke-width:.09525;stroke-miterlimit:41.994751"/><path d="M573.91935 531.42832L608.63797 531.44737" style="fill:none;stroke:rgba(255,0,0,.24705882);stroke-width:.09525;stroke-miterlimit:41.994751"/><path d="M546.5445 533.48573L573.91935 531.42832" style="fill:none;stroke:rgba(255,0,0,.24705882);stroke-width:.09525;stroke-miterlimit:41.994751"/><path d="M260.223 534.4668L261.72795 526.0467" style="fill:none;stroke:rgba(255,0,0,.24705882);stroke-width:.09525;stroke-miterlimit:41.994751"/><path d="M535.0383 533.88578L546.5445 533.48573" style="fill:none;stroke:rgba(255,0,0,.24705882);stroke-width:.09525;stroke-miterlimit:41.994751"/><path d="M535.0383 533.88578L525.94192 531.33308" style="fill:none;stroke:rgba(255,0,0,.24705882);stroke-width:.09525;stroke-miterlimit:41.994751"/><path d="M608.63797 531.44737L627.06885 534.75255" style="fill:none;stroke:rgba(255,0,0,.24705882);stroke-width:.09525;stroke-miterlimit:41.994751"/><path d="M942.07012 8.763L925.89667 6.600825" style="fill:none;stroke:rgba(255,0,0,.24705882);stroke-width:.09525;stroke-miterlimit:41.994751"/><path d="M809.48212 538.25775H816.483V531.20925H809.48212z" style="fill:rgba(250,0,0,.24705882);stroke:rgba(250,0,0,.24705882);stroke-width:.09525;stroke-miterlimit:41.994751"/><path d="M813.49215 536.03842A.47625 .47625 0 00812.53965 536.03842A.47625 .47625 0 00813.49215 536.03842z" fill="rgba(250,0,0,.24705882)"/><path d="M817.34025 530.3901H822.66472V524.54175H817.34025z" style="fill:rgba(250,0,0,.24705882);stroke:rgba(250,0,0,.24705882);stroke-width:.09525;stroke-miterlimit:41.994751"/><path d="M820.84545 527.50403A.47625 .47625 0 00819.89295 527.50403A.47625 .47625 0 00820.84545 527.50403z" fill="rgba(250,0,0,.24705882)"/><path d="M717.423 534.543H722.757V524.54175H717.423z" style="fill:rgba(250,0,0,.24705882);stroke:rgba(250,0,0,.24705882);stroke-width:.09525;stroke-miterlimit:41.994751"/><path d="M721.51875 531.46642A.47625 .47625 0 00720.56625 531.46642A.47625 .47625 0 00721.51875 531.46642z" fill="rgba(250,0,0,.24705882)"/><path d="M693.89625 533.11425H717.39442V528.16125H693.89625z" style="fill:rgba(250,0,0,.24705882);stroke:rgba(250,0,0,.24705882);stroke-width:.09525;stroke-miterlimit:41.994751"/><path d="M698.20155 531.10447A.47625 .47625 0 00697.24905 531.10447A.47625 .47625 0 00698.20155 531.10447z" fill="rgba(250,0,0,.24705882)"/><path d="M647.79525 533.2095H662.84475V524.73225H647.79525z" style="fill:rgba(250,0,0,.24705882);stroke:rgba(250,0,0,.24705882);stroke-width:.09525;stroke-miterlimit:41.994751"/><path d="M655.6248 530.1234A.47625 .47625 0 00654.6723 530.1234A.47625 .47625 0 00655.6248 530.1234z" fill="rgba(250,0,0,.24705882)"/><path d="M786.003 532.64753H797.71875V524.54175H786.003z" style="fill:rgba(250,0,0,.24705882);stroke:rgba(250,0,0,.24705882);stroke-width:.09525;stroke-miterlimit:41.994751"/><path d="M796.31858 527.36115A.47625 .47625 0 00795.36608 527.36115A.47625 .47625 0 00796.31858 527.36115z" fill="rgba(250,0,0,.24705882)"/><path d="M797.60445 538.25775H809.4726V528.68512H797.60445z" style="fill:rgba(250,0,0,.24705882);stroke:rgba(250,0,0,.24705882);stroke-width:.09525;stroke-miterlimit:41.994751"/><path d="M798.83318 531.9903A.47625 .47625 0 00797.88067 531.9903A.47625 .47625 0 00798.83318 531.9903z" fill="rgba(250,0,0,.24705882)"/><path d="M822.48375 538.25775H869.11815V524.54175H822.48375z" style="fill:rgba(250,0,0,.24705882);stroke:rgba(250,0,0,.24705882);stroke-width:.09525;stroke-miterlimit:41.994751"/><path d="M848.62035 527.2659A.47625 .47625 0 00847.66785 527.2659A.47625 .47625 0 00848.62035 527.2659z" fill="rgba(250,0,0,.24705882)"/><path d="M817.34025 538.25775H822.29325V530.38058H817.34025z" style="fill:rgba(250,0,0,.24705882);stroke:rgba(250,0,0,.24705882);stroke-width:.09525;stroke-miterlimit:41.994751"/><path d="M820.50255 536.0289A.47625 .47625 0 00819.55005 536.0289A.47625 .47625 0 00820.50255 536.0289z" fill="rgba(250,0,0,.24705882)"/><path d="M722.85225 529.3995H786.20302V524.54175H722.85225z" style="fill:rgba(250,0,0,.24705882);stroke:rgba(250,0,0,.24705882);stroke-width:.09525;stroke-miterlimit:41.994751"/><path d="M724.15717 527.18017A.47625 .47625 0 00723.20467 527.18017A.47625 .47625 0 00724.15717 527.18017z" fill="rgba(250,0,0,.24705882)"/><path d="M869.12767 534.4668H880.01475V524.54175H869.12767z" style="fill:rgba(250,0,0,.24705882);stroke:rgba(250,0,0,.24705882);stroke-width:.09525;stroke-miterlimit:41.994751"/><path d="M874.63313 526.41818A.47625 .47625 0 00873.68062 526.41818A.47625 .47625 0 00874.63313 526.41818z" fill="rgba(250,0,0,.24705882)"/><path d="M653.36738 538.25775H692.79135V533.4H653.36738z" style="fill:rgba(250,0,0,.24705882);stroke:rgba(250,0,0,.24705882);stroke-width:.09525;stroke-miterlimit:41.994751"/><path d="M655.4343 536.2575A.47625 .47625 0 00654.4818 536.2575A.47625 .47625 0 00655.4343 536.2575z" fill="rgba(250,0,0,.24705882)"/><path d="M814.96852 527.58975A.47625 .47625 0 00814.01602 527.58975A.47625 .47625 0 00814.96852 527.58975z" fill="rgba(250,0,0,.24705882)"/><path d="M880.6815 538.25775H889.92075V524.54175H880.6815z" style="fill:rgba(250,0,0,.24705882);stroke:rgba(250,0,0,.24705882);stroke-width:.09525;stroke-miterlimit:41.994751"/><path d="M884.93918 532.36178A.47625 .47625 0 00883.98667 532.36178A.47625 .47625 0 00884.93918 532.36178z" fill="rgba(250,0,0,.24705882)"/><path d="M620.36325 538.14345H628.16422V530.76157H620.36325z" style="fill:rgba(250,0,0,.24705882);stroke:rgba(250,0,0,.24705882);stroke-width:.09525;stroke-miterlimit:41.994751"/><path d="M627.5451 534.75255A.47625 .47625 0 00626.5926 534.75255A.47625 .47625 0 00627.5451 534.75255z" fill="rgba(250,0,0,.24705882)"/><path d="M692.81993 538.25775H699.99225V533.11425H692.81993z" style="fill:rgba(250,0,0,.24705882);stroke:rgba(250,0,0,.24705882);stroke-width:.09525;stroke-miterlimit:41.994751"/><path d="M697.71578 535.84793A.47625 .47625 0 00696.76327 535.84793A.47625 .47625 0 00697.71578 535.84793z" fill="rgba(250,0,0,.24705882)"/><path d="" style="fill:rgba(250,0,0,.24705882);stroke:rgba(250,0,0,.24705882);stroke-width:.09525;stroke-miterlimit:41.994751"/><path d="M630.91695 531.2283A.47625 .47625 0 00629.96445 531.2283A.47625 .47625 0 00630.91695 531.2283z" fill="rgba(250,0,0,.24705882)"/><path d="M632.93625 533.2095H647.60475V524.73225H632.93625z" style="fill:rgba(250,0,0,.24705882);stroke:rgba(250,0,0,.24705882);stroke-width:.09525;stroke-miterlimit:41.994751"/><path d="M639.3942 529.33283A.47625 .47625 0 00638.4417 529.33283A.47625 .47625 0 00639.3942 529.33283z" fill="rgba(250,0,0,.24705882)"/><path d="M636.0795 538.25775H653.034V533.4H636.0795z" style="fill:rgba(250,0,0,.24705882);stroke:rgba(250,0,0,.24705882);stroke-width:.09525;stroke-miterlimit:41.994751"/><path d="M642.10883 535.82888A.47625 .47625 0 00641.15632 535.82888A.47625 .47625 0 00642.10883 535.82888z" fill="rgba(250,0,0,.24705882)"/><path d="M723.68092 527.18017L795.84233 527.36115" style="fill:none;stroke:rgba(250,0,0,.24705882);stroke-width:.09525;stroke-miterlimit:41.994751"/><path d="M820.3692 527.50403L848.1441 527.2659" style="fill:none;stroke:rgba(250,0,0,.24705882);stroke-width:.09525;stroke-miterlimit:41.994751"/><path d="M874.15688 526.41818L884.46293 532.36178" style="fill:none;stroke:rgba(250,0,0,.24705882);stroke-width:.09525;stroke-miterlimit:41.994751"/><path d="M848.1441 527.2659L874.15688 526.41818" style="fill:none;stroke:rgba(250,0,0,.24705882);stroke-width:.09525;stroke-miterlimit:41.994751"/><path d="M654.95805 536.2575L697.23952 535.84793" style="fill:none;stroke:rgba(250,0,0,.24705882);stroke-width:.09525;stroke-miterlimit:41.994751"/><path d="M654.95805 536.2575L655.14855 530.1234" style="fill:none;stroke:rgba(250,0,0,.24705882);stroke-width:.09525;stroke-miterlimit:41.994751"/><path d="M820.0263 536.0289L820.3692 527.50403" style="fill:none;stroke:rgba(250,0,0,.24705882);stroke-width:.09525;stroke-miterlimit:41.994751"/><path d="M813.0159 536.03842L814.49227 527.58975" style="fill:none;stroke:rgba(250,0,0,.24705882);stroke-width:.09525;stroke-miterlimit:41.994751"/><path d="M813.0159 536.03842L820.0263 536.0289" style="fill:none;stroke:rgba(250,0,0,.24705882);stroke-width:.09525;stroke-miterlimit:41.994751"/><path d="M798.35693 531.9903L813.0159 536.03842" style="fill:none;stroke:rgba(250,0,0,.24705882);stroke-width:.09525;stroke-miterlimit:41.994751"/><path d="M798.35693 531.9903L795.84233 527.36115" style="fill:none;stroke:rgba(250,0,0,.24705882);stroke-width:.09525;stroke-miterlimit:41.994751"/><path d="M721.0425 531.46642L723.68092 527.18017" style="fill:none;stroke:rgba(250,0,0,.24705882);stroke-width:.09525;stroke-miterlimit:41.994751"/><path d="M697.7253 531.10447L721.0425 531.46642" style="fill:none;stroke:rgba(250,0,0,.24705882);stroke-width:.09525;stroke-miterlimit:41.994751"/><path d="M697.23952 535.84793L697.7253 531.10447" style="fill:none;stroke:rgba(250,0,0,.24705882);stroke-width:.09525;stroke-miterlimit:41.994751"/><path d="M627.06885 534.75255L630.4407 531.2283" style="fill:none;stroke:rgba(250,0,0,.24705882);stroke-width:.09525;stroke-miterlimit:41.994751"/><path d="M641.63257 535.82888L654.95805 536.2575" style="fill:none;stroke:rgba(250,0,0,.24705882);stroke-width:.09525;stroke-miterlimit:41.994751"/><path d="M641.63257 535.82888L638.91795 529.33283" style="fill:none;stroke:rgba(250,0,0,.24705882);stroke-width:.09525;stroke-miterlimit:41.994751"/><path d="M168.84015 14.00175H174.21225V.28575H168.84015z" style="fill:rgba(250,0,4,.24705882);stroke:rgba(250,0,4,.24705882);stroke-width:.09525;stroke-miterlimit:41.994751"/><path d="M172.56442 7.1628A.47625 .47625 0 00171.61192 7.1628A.47625 .47625 0 00172.56442 7.1628z" fill="rgba(250,0,4,.24705882)"/><path d="M530.85683 7.286625A.47625 .47625 0 00529.90432 7.286625A.47625 .47625 0 00530.85683 7.286625z" fill="rgba(250,0,4,.24705882)"/><path d="M510.55905 14.00175H526.81822V.28575H510.55905z" style="fill:rgba(250,0,4,.24705882);stroke:rgba(250,0,4,.24705882);stroke-width:.09525;stroke-miterlimit:41.994751"/><path d="M522.9225 7.191375A.47625 .47625 0 00521.97 7.191375A.47625 .47625 0 00522.9225 7.191375z" fill="rgba(250,0,4,.24705882)"/><path d="M598.17 13.81125H607.21875V.47625H598.17z" style="fill:rgba(250,0,4,.24705882);stroke:rgba(250,0,4,.24705882);stroke-width:.09525;stroke-miterlimit:41.994751"/><path d="M601.51328 12.182475A.47625 .47625 0 00600.56077 12.182475A.47625 .47625 0 00601.51328 12.182475z" fill="rgba(250,0,4,.24705882)"/><path d="M528.77085 7.324725A.47625 .47625 0 00527.81835 7.324725A.47625 .47625 0 00528.77085 7.324725z" fill="rgba(250,0,4,.24705882)"/><path d="M583.71105 13.973175H589.94993V6.8961H583.71105z" style="fill:rgba(250,0,4,.24705882);stroke:rgba(250,0,4,.24705882);stroke-width:.09525;stroke-miterlimit:41.994751"/><path d="M586.36852 11.0109A.47625 .47625 0 00585.41602 11.0109A.47625 .47625 0 00586.36852 11.0109z" fill="rgba(250,0,4,.24705882)"/><path d="M536.067 13.81125H542.00108V.47625H536.067z" style="fill:rgba(250,0,4,.24705882);stroke:rgba(250,0,4,.24705882);stroke-width:.09525;stroke-miterlimit:41.994751"/><path d="M539.94368 7.239A.47625 .47625 0 00538.99117 7.239A.47625 .47625 0 00539.94368 7.239z" fill="rgba(250,0,4,.24705882)"/><path d="M574.95758 9.3345H583.73963V.47625H574.95758z" style="fill:rgba(250,0,4,.24705882);stroke:rgba(250,0,4,.24705882);stroke-width:.09525;stroke-miterlimit:41.994751"/><path d="M580.73925 3.90525A.47625 .47625 0 00579.78675 3.90525A.47625 .47625 0 00580.73925 3.90525z" fill="rgba(250,0,4,.24705882)"/><path d="M343.40482 7.41045A.47625 .47625 0 00342.45232 7.41045A.47625 .47625 0 00343.40482 7.41045z" fill="rgba(250,0,4,.24705882)"/><path d="M563.97525 8.924925H568.59488V.47625H563.97525z" style="fill:rgba(250,0,4,.24705882);stroke:rgba(250,0,4,.24705882);stroke-width:.09525;stroke-miterlimit:41.994751"/><path d="M567.87098 2.80035A.47625 .47625 0 00566.91847 2.80035A.47625 .47625 0 00567.87098 2.80035z" fill="rgba(250,0,4,.24705882)"/><path d="M450.62775 6.9342A.47625 .47625 0 00449.67525 6.9342A.47625 .47625 0 00450.62775 6.9342z" fill="rgba(250,0,4,.24705882)"/><path d="M89.068275 14.00175H98.021775V.28575H89.068275z" style="fill:rgba(250,0,4,.24705882);stroke:rgba(250,0,4,.24705882);stroke-width:.09525;stroke-miterlimit:41.994751"/><path d="M92.0877 7.248525A.47625 .47625 0 0091.1352 7.248525A.47625 .47625 0 0092.0877 7.248525z" fill="rgba(250,0,4,.24705882)"/><path d="M845.82 13.81125H885.444V.47625H845.82z" style="fill:rgba(250,0,4,.24705882);stroke:rgba(250,0,4,.24705882);stroke-width:.09525;stroke-miterlimit:41.994751"/><path d="M853.68765 7.191375A.47625 .47625 0 00852.73515 7.191375A.47625 .47625 0 00853.68765 7.191375z" fill="rgba(250,0,4,.24705882)"/><path d="M571.32855 2.600325A.47625 .47625 0 00570.37605 2.600325A.47625 .47625 0 00571.32855 2.600325z" fill="rgba(250,0,4,.24705882)"/><path d="M448.48462 7.439025A.47625 .47625 0 00447.53213 7.439025A.47625 .47625 0 00448.48462 7.439025z" fill="rgba(250,0,4,.24705882)"/><path d="M178.5747 14.00175H185.71845V.28575H178.5747z" style="fill:rgba(250,0,4,.24705882);stroke:rgba(250,0,4,.24705882);stroke-width:.09525;stroke-miterlimit:41.994751"/><path d="M180.85117 7.1628A.47625 .47625 0 00179.89867 7.1628A.47625 .47625 0 00180.85117 7.1628z" fill="rgba(250,0,4,.24705882)"/><path d="M73.533 14.00175H84.86775V.28575H73.533z" style="fill:rgba(250,0,4,.24705882);stroke:rgba(250,0,4,.24705882);stroke-width:.09525;stroke-miterlimit:41.994751"/><path d="M80.75295 7.3533A.47625 .47625 0 0079.80045 7.3533A.47625 .47625 0 0080.75295 7.3533z" fill="rgba(250,0,4,.24705882)"/><path d="M559.9176 13.81125H566.30887V5.4864H559.9176z" style="fill:rgba(250,0,4,.24705882);stroke:rgba(250,0,4,.24705882);stroke-width:.09525;stroke-miterlimit:41.994751"/><path d="M564.28005 10.925175A.47625 .47625 0 00563.32755 10.925175A.47625 .47625 0 00564.28005 10.925175z" fill="rgba(250,0,4,.24705882)"/><path d="M838.40955 9.820275H846.05813V5.12445H838.40955z" style="fill:rgba(250,0,4,.24705882);stroke:rgba(250,0,4,.24705882);stroke-width:.09525;stroke-miterlimit:41.994751"/><path d="M839.79068 6.981825A.47625 .47625 0 00838.83817 6.981825A.47625 .47625 0 00839.79068 6.981825z" fill="rgba(250,0,4,.24705882)"/><path d="M97.917 14.00175H168.8592V.28575H97.917z" style="fill:rgba(250,0,4,.24705882);stroke:rgba(250,0,4,.24705882);stroke-width:.09525;stroke-miterlimit:41.994751"/><path d="M140.75092 7.439025A.47625 .47625 0 00139.79842 7.439025A.47625 .47625 0 00140.75092 7.439025z" fill="rgba(250,0,4,.24705882)"/><path d="M834.64717 6.410325H838.40003V.47625H834.64717z" style="fill:rgba(250,0,4,.24705882);stroke:rgba(250,0,4,.24705882);stroke-width:.09525;stroke-miterlimit:41.994751"/><path d="M837.02843 3.381375A.47625 .47625 0 00836.07592 3.381375A.47625 .47625 0 00837.02843 3.381375z" fill="rgba(250,0,4,.24705882)"/><path d="M543.44888 10.734675A.47625 .47625 0 00542.49637 10.734675A.47625 .47625 0 00543.44888 10.734675z" fill="rgba(250,0,4,.24705882)"/><path d="M341.74747 7.44855A.47625 .47625 0 00340.79497 7.44855A.47625 .47625 0 00341.74747 7.44855z" fill="rgba(250,0,4,.24705882)"/><path d="M756.0945 13.81125H766.90537V5.4102H756.0945z" style="fill:rgba(250,0,4,.24705882);stroke:rgba(250,0,4,.24705882);stroke-width:.09525;stroke-miterlimit:41.994751"/><path d="M757.78995 7.63905A.47625 .47625 0 00756.83745 7.63905A.47625 .47625 0 00757.78995 7.63905z" fill="rgba(250,0,4,.24705882)"/><path d="M797.71875 7.14375H834.64717V.47625H797.71875z" style="fill:rgba(250,0,4,.24705882);stroke:rgba(250,0,4,.24705882);stroke-width:.09525;stroke-miterlimit:41.994751"/><path d="M802.29075 3.629025A.47625 .47625 0 00801.33825 3.629025A.47625 .47625 0 00802.29075 3.629025z" fill="rgba(250,0,4,.24705882)"/><path d="M797.71875 13.81125H805.14825V6.91515H797.71875z" style="fill:rgba(250,0,4,.24705882);stroke:rgba(250,0,4,.24705882);stroke-width:.09525;stroke-miterlimit:41.994751"/><path d="M802.03358 10.42035A.47625 .47625 0 00801.08107 10.42035A.47625 .47625 0 00802.03358 10.42035z" fill="rgba(250,0,4,.24705882)"/><path d="M766.84822 13.81125H797.6997V7.4295H766.84822z" style="fill:rgba(250,0,4,.24705882);stroke:rgba(250,0,4,.24705882);stroke-width:.09525;stroke-miterlimit:41.994751"/><path d="M771.22973 11.191875A.47625 .47625 0 00770.27722 11.191875A.47625 .47625 0 00771.22973 11.191875z" fill="rgba(250,0,4,.24705882)"/><path d="M885.32017 13.81125H919.89592V.47625H885.32017z" style="fill:rgba(250,0,4,.24705882);stroke:rgba(250,0,4,.24705882);stroke-width:.09525;stroke-miterlimit:41.994751"/><path d="M892.52107 7.324725A.47625 .47625 0 00891.56857 7.324725A.47625 .47625 0 00892.52107 7.324725z" fill="rgba(250,0,4,.24705882)"/><path d="M919.87687 13.763625H930.49725V.47625H919.87687z" style="fill:rgba(250,0,4,.24705882);stroke:rgba(250,0,4,.24705882);stroke-width:.09525;stroke-miterlimit:41.994751"/><path d="M926.37293 6.600825A.47625 .47625 0 00925.42042 6.600825A.47625 .47625 0 00926.37293 6.600825z" fill="rgba(250,0,4,.24705882)"/><path d="M83.505675 7.2771A.47625 .47625 0 0082.553175 7.2771A.47625 .47625 0 0083.505675 7.2771z" fill="rgba(250,0,4,.24705882)"/><path d="M563.8038 10.925175L567.39472 2.80035" style="fill:none;stroke:rgba(250,0,4,.24705882);stroke-width:.09525;stroke-miterlimit:41.994751"/><path d="M836.55218 3.381375L839.31443 6.981825" style="fill:none;stroke:rgba(250,0,4,.24705882);stroke-width:.09525;stroke-miterlimit:41.994751"/><path d="M585.89227 11.0109L601.03702 12.182475" style="fill:none;stroke:rgba(250,0,4,.24705882);stroke-width:.09525;stroke-miterlimit:41.994751"/><path d="M528.2946 7.324725L530.38058 7.286625" style="fill:none;stroke:rgba(250,0,4,.24705882);stroke-width:.09525;stroke-miterlimit:41.994751"/><path d="M580.263 3.90525L585.89227 11.0109" style="fill:none;stroke:rgba(250,0,4,.24705882);stroke-width:.09525;stroke-miterlimit:41.994751"/><path d="M853.2114 7.191375L892.04482 7.324725" style="fill:none;stroke:rgba(250,0,4,.24705882);stroke-width:.09525;stroke-miterlimit:41.994751"/><path d="M522.44625 7.191375L528.2946 7.324725" style="fill:none;stroke:rgba(250,0,4,.24705882);stroke-width:.09525;stroke-miterlimit:41.994751"/><path d="M172.08817 7.1628L140.27467 7.439025" style="fill:none;stroke:rgba(250,0,4,.24705882);stroke-width:.09525;stroke-miterlimit:41.994751"/><path d="M770.75347 11.191875L801.55732 10.42035" style="fill:none;stroke:rgba(250,0,4,.24705882);stroke-width:.09525;stroke-miterlimit:41.994751"/><path d="M539.46743 7.239L542.97262 10.734675" style="fill:none;stroke:rgba(250,0,4,.24705882);stroke-width:.09525;stroke-miterlimit:41.994751"/><path d="M801.55732 10.42035L801.8145 3.629025" style="fill:none;stroke:rgba(250,0,4,.24705882);stroke-width:.09525;stroke-miterlimit:41.994751"/><path d="M892.04482 7.324725L925.89667 6.600825" style="fill:none;stroke:rgba(250,0,4,.24705882);stroke-width:.09525;stroke-miterlimit:41.994751"/><path d="M757.3137 7.63905L770.75347 11.191875" style="fill:none;stroke:rgba(250,0,4,.24705882);stroke-width:.09525;stroke-miterlimit:41.994751"/><path d="M801.8145 3.629025L836.55218 3.381375" style="fill:none;stroke:rgba(250,0,4,.24705882);stroke-width:.09525;stroke-miterlimit:41.994751"/><path d="M567.39472 2.80035L570.8523 2.600325" style="fill:none;stroke:rgba(250,0,4,.24705882);stroke-width:.09525;stroke-miterlimit:41.994751"/><path d="M342.92857 7.41045L341.27122 7.44855" style="fill:none;stroke:rgba(250,0,4,.24705882);stroke-width:.09525;stroke-miterlimit:41.994751"/><path d="M91.61145 7.248525L140.27467 7.439025" style="fill:none;stroke:rgba(250,0,4,.24705882);stroke-width:.09525;stroke-miterlimit:41.994751"/><path d="M839.31443 6.981825L853.2114 7.191375" style="fill:none;stroke:rgba(250,0,4,.24705882);stroke-width:.09525;stroke-miterlimit:41.994751"/><path d="M448.00838 7.439025L450.1515 6.9342" style="fill:none;stroke:rgba(250,0,4,.24705882);stroke-width:.09525;stroke-miterlimit:41.994751"/><path d="M83.029425 7.2771L80.2767 7.3533" style="fill:none;stroke:rgba(250,0,4,.24705882);stroke-width:.09525;stroke-miterlimit:41.994751"/><path d="M884.46293 532.36178L889.73025 531.39975" style="fill:none;stroke:rgba(250,0,4,.24705882);stroke-width:.09525;stroke-miterlimit:41.994751"/><path d="M210.06435 7.553325L180.37492 7.1628" style="fill:none;stroke:rgba(250,0,4,.24705882);stroke-width:.09525;stroke-miterlimit:41.994751"/><path d="M890.2065 531.39975A.47625 .47625 0 00889.254 531.39975A.47625 .47625 0 00890.2065 531.39975z" fill="rgba(246,0,4,.24705882)"/><path d="M186.05183 12.7635H219.837V1.524H186.05183z" style="fill:rgba(246,0,8,.24705882);stroke:rgba(246,0,8,.24705882);stroke-width:.09525;stroke-miterlimit:41.994751"/><path d="M210.5406 7.553325A.47625 .47625 0 00209.5881 7.553325A.47625 .47625 0 00210.5406 7.553325z" fill="rgba(246,0,8,.24705882)"/><path d="M255.03187 12.7635H256.63207V1.524H255.03187z" style="fill:rgba(246,0,8,.24705882);stroke:rgba(246,0,8,.24705882);stroke-width:.09525;stroke-miterlimit:41.994751"/><path d="M255.87007 6.638925A.47625 .47625 0 00254.91757 6.638925A.47625 .47625 0 00255.87007 6.638925z" fill="rgba(246,0,8,.24705882)"/><path d="M255.27952 9.04875H258.98475V7.33425H255.27952z" style="fill:rgba(246,0,8,.24705882);stroke:rgba(246,0,8,.24705882);stroke-width:.09525;stroke-miterlimit:41.994751"/><path d="M257.58457 6.638925A.47625 .47625 0 00256.63207 6.638925A.47625 .47625 0 00257.58457 6.638925z" fill="rgba(246,0,8,.24705882)"/><path d="M221.8563 12.7635H255.1176V1.524H221.8563z" style="fill:rgba(246,0,8,.24705882);stroke:rgba(246,0,8,.24705882);stroke-width:.09525;stroke-miterlimit:41.994751"/><path d="M242.63032 6.981825A.47625 .47625 0 00241.67783 6.981825A.47625 .47625 0 00242.63032 6.981825z" fill="rgba(246,0,8,.24705882)"/><path d="M210.06435 7.553325L242.15408 6.981825" style="fill:none;stroke:rgba(246,0,8,.24705882);stroke-width:.09525;stroke-miterlimit:41.994751"/><path d="M255.39382 6.638925H257.10832" style="fill:none;stroke:rgba(246,0,8,.24705882);stroke-width:.09525;stroke-miterlimit:41.994751"/><path d="M242.15408 6.981825L255.39382 6.638925" style="fill:none;stroke:rgba(246,0,8,.24705882);stroke-width:.09525;stroke-miterlimit:41.994751"/><path d="M889.73025 531.39975L897.6741 531.56168" style="fill:none;stroke:rgba(242,0,12,.24705882);stroke-width:.09525;stroke-miterlimit:41.994751"/><path d="M814.49227 527.58975L814.02555 524.54175" style="fill:none;stroke:rgba(238,0,16,.24705882);stroke-width:.09525;stroke-miterlimit:41.994751"/><path d="M601.03702 12.182475L612.48608 9.1821" style="fill:none;stroke:rgba(238,0,16,.24705882);stroke-width:.09525;stroke-miterlimit:41.994751"/><path d="M630.4407 531.2283L629.92635 524.54175" style="fill:none;stroke:rgba(234,0,16,.24705882);stroke-width:.09525;stroke-miterlimit:41.994751"/><path d="M570.8523 2.600325L573.88125 3.44805" style="fill:none;stroke:rgba(234,0,20,.24705882);stroke-width:.09525;stroke-miterlimit:41.994751"/><path d="M573.88125 3.44805L580.263 3.90525" style="fill:none;stroke:rgba(234,0,20,.24705882);stroke-width:.09525;stroke-miterlimit:41.994751"/><path d="M555.2313 11.972925L563.8038 10.925175" style="fill:none;stroke:rgba(234,0,20,.24705882);stroke-width:.09525;stroke-miterlimit:41.994751"/><path d="M894.2451 537.29572H899.541V525.37995H894.2451z" style="fill:rgba(234,0,20,.24705882);stroke:rgba(234,0,20,.24705882);stroke-width:.09525;stroke-miterlimit:41.994751"/><path d="M898.15035 531.56168A.47625 .47625 0 00897.19785 531.56168A.47625 .47625 0 00898.15035 531.56168z" fill="rgba(234,0,20,.24705882)"/><path d="M91.61145 7.248525L88.90635 7.2771" style="fill:none;stroke:rgba(234,0,20,.24705882);stroke-width:.09525;stroke-miterlimit:41.994751"/><path d="M180.37492 7.1628L178.1937 7.3152" style="fill:none;stroke:rgba(234,0,20,.24705882);stroke-width:.09525;stroke-miterlimit:41.994751"/><path d="M531.78075 7.362825L539.46743 7.239" style="fill:none;stroke:rgba(234,0,20,.24705882);stroke-width:.09525;stroke-miterlimit:41.994751"/><path d="M530.38058 7.286625L531.78075 7.362825" style="fill:none;stroke:rgba(234,0,20,.24705882);stroke-width:.09525;stroke-miterlimit:41.994751"/><path d="M174.32655 7.25805L172.08817 7.1628" style="fill:none;stroke:rgba(234,0,20,.24705882);stroke-width:.09525;stroke-miterlimit:41.994751"/><path d="M85.0392 7.210425L83.029425 7.2771" style="fill:none;stroke:rgba(234,0,20,.24705882);stroke-width:.09525;stroke-miterlimit:41.994751"/><path d="M342.92857 7.41045L344.7288 7.4676" style="fill:none;stroke:rgba(230,0,20,.24705882);stroke-width:.09525;stroke-miterlimit:41.994751"/><path d="M450.1515 6.9342L453.79958 7.21995" style="fill:none;stroke:rgba(230,0,20,.24705882);stroke-width:.09525;stroke-miterlimit:41.994751"/><path d="M169.45927 526.91347L165.6969 526.70393" style="fill:none;stroke:rgba(230,0,24,.24705882);stroke-width:.09525;stroke-miterlimit:41.994751"/><path d="M261.72795 526.0467L258.07035 524.54175" style="fill:none;stroke:rgba(230,0,24,.24705882);stroke-width:.09525;stroke-miterlimit:41.994751"/><path d="M542.97262 10.734675L545.27768 11.496675" style="fill:none;stroke:rgba(226,0,28,.24705882);stroke-width:.09525;stroke-miterlimit:41.994751"/><path d="M572.25248 538.40062L573.91935 531.42832" style="fill:none;stroke:rgba(226,0,28,.24705882);stroke-width:.09525;stroke-miterlimit:41.994751"/><path d="M322.22123 7.591425L341.27122 7.44855" style="fill:none;stroke:rgba(226,0,28,.24705882);stroke-width:.09525;stroke-miterlimit:41.994751"/><path d="M259.2324 6.753225L257.10832 6.638925" style="fill:none;stroke:rgba(226,0,28,.24705882);stroke-width:.09525;stroke-miterlimit:41.994751"/><path d="M814.5018 524.54175A.47625 .47625 0 00813.5493 524.54175A.47625 .47625 0 00814.5018 524.54175z" fill="rgba(226,0,28,.24705882)"/><path d="M606.92348 13.611225H614.08628V5.04825H606.92348z" style="fill:rgba(222,0,28,.24705882);stroke:rgba(222,0,28,.24705882);stroke-width:.09525;stroke-miterlimit:41.994751"/><path d="M612.96233 9.1821A.47625 .47625 0 00612.00982 9.1821A.47625 .47625 0 00612.96233 9.1821z" fill="rgba(222,0,28,.24705882)"/><path d="M630.4026 524.54175A.47625 .47625 0 00629.4501 524.54175A.47625 .47625 0 00630.4026 524.54175z" fill="rgba(218,0,32,.24705882)"/><path d="M574.3575 3.44805A.47625 .47625 0 00573.405 3.44805A.47625 .47625 0 00574.3575 3.44805z" fill="rgba(218,0,36,.24705882)"/><path d="M555.70755 11.972925A.47625 .47625 0 00554.75505 11.972925A.47625 .47625 0 00555.70755 11.972925z" fill="rgba(218,0,36,.24705882)"/><path d="M178.66995 7.3152A.47625 .47625 0 00177.71745 7.3152A.47625 .47625 0 00178.66995 7.3152z" fill="rgba(214,0,40,.24705882)"/><path d="M532.257 7.362825A.47625 .47625 0 00531.3045 7.362825A.47625 .47625 0 00532.257 7.362825z" fill="rgba(214,0,40,.24705882)"/><path d="M89.3826 7.2771A.47625 .47625 0 0088.4301 7.2771A.47625 .47625 0 0089.3826 7.2771z" fill="rgba(214,0,40,.24705882)"/><path d="M174.8028 7.25805A.47625 .47625 0 00173.8503 7.25805A.47625 .47625 0 00174.8028 7.25805z" fill="rgba(214,0,40,.24705882)"/><path d="M85.51545 7.210425A.47625 .47625 0 0084.56295 7.210425A.47625 .47625 0 0085.51545 7.210425z" fill="rgba(214,0,40,.24705882)"/><path d="M178.1937 7.3152L174.32655 7.25805" style="fill:none;stroke:rgba(214,0,40,.24705882);stroke-width:.09525;stroke-miterlimit:41.994751"/><path d="M88.90635 7.2771L85.0392 7.210425" style="fill:none;stroke:rgba(214,0,40,.24705882);stroke-width:.09525;stroke-miterlimit:41.994751"/><path d="M345.20505 7.4676A.47625 .47625 0 00344.25255 7.4676A.47625 .47625 0 00345.20505 7.4676z" fill="rgba(214,0,40,.24705882)"/><path d="M451.9422 12.82065H460.4385V3.5433H451.9422z" style="fill:rgba(210,0,40,.24705882);stroke:rgba(210,0,40,.24705882);stroke-width:.09525;stroke-miterlimit:41.994751"/><path d="M454.27582 7.21995A.47625 .47625 0 00453.32333 7.21995A.47625 .47625 0 00454.27582 7.21995z" fill="rgba(210,0,40,.24705882)"/><path d="M545.27768 11.496675L555.2313 11.972925" style="fill:none;stroke:rgba(210,0,44,.24705882);stroke-width:.09525;stroke-miterlimit:41.994751"/><path d="M509.016 7.705725L522.44625 7.191375" style="fill:none;stroke:rgba(206,0,48,.24705882);stroke-width:.09525;stroke-miterlimit:41.994751"/><path d="M259.70865 6.753225A.47625 .47625 0 00258.75615 6.753225A.47625 .47625 0 00259.70865 6.753225z" fill="rgba(202,0,52,.24705882)"/><path d="M260.99452 6.562725A.47625 .47625 0 00260.04202 6.562725A.47625 .47625 0 00260.99452 6.562725z" fill="rgba(202,0,52,.24705882)"/><path d="M166.17315 526.70393A.47625 .47625 0 00165.22065 526.70393A.47625 .47625 0 00166.17315 526.70393z" fill="rgba(202,0,52,.24705882)"/><path d="M545.75393 11.496675A.47625 .47625 0 00544.80142 11.496675A.47625 .47625 0 00545.75393 11.496675z" fill="rgba(202,0,52,.24705882)"/><path d="M260.51827 6.562725L259.2324 6.753225" style="fill:none;stroke:rgba(202,0,52,.24705882);stroke-width:.09525;stroke-miterlimit:41.994751"/><path d="M814.02555 524.54175H810.79658" style="fill:none;stroke:rgba(202,0,52,.24705882);stroke-width:.09525;stroke-miterlimit:41.994751"/><path d="M258.5466 524.54175A.47625 .47625 0 00257.5941 524.54175A.47625 .47625 0 00258.5466 524.54175z" fill="rgba(202,0,52,.24705882)"/><path d="M612.48608 9.1821L617.4486 7.56285" style="fill:none;stroke:rgba(202,0,52,.24705882);stroke-width:.09525;stroke-miterlimit:41.994751"/><path d="M318.83032 13.81125H338.64232V.47625H318.83032z" style="fill:rgba(198,0,52,.24705882);stroke:rgba(198,0,52,.24705882);stroke-width:.09525;stroke-miterlimit:41.994751"/><path d="M322.69747 7.591425A.47625 .47625 0 00321.74498 7.591425A.47625 .47625 0 00322.69747 7.591425z" fill="rgba(198,0,52,.24705882)"/><path d="M572.72873 538.40062A.47625 .47625 0 00571.77622 538.40062A.47625 .47625 0 00572.72873 538.40062z" fill="rgba(198,0,56,.24705882)"/><path d="M750.43665 6.87705L757.3137 7.63905" style="fill:none;stroke:rgba(198,0,56,.24705882);stroke-width:.09525;stroke-miterlimit:41.994751"/><path d="M629.92635 524.54175H626.52593" style="fill:none;stroke:rgba(194,0,60,.24705882);stroke-width:.09525;stroke-miterlimit:41.994751"/><path d="M186.33758 531.14257L197.76757 531.48547" style="fill:none;stroke:rgba(194,0,60,.24705882);stroke-width:.09525;stroke-miterlimit:41.994751"/><path d="M644.41387 535.82888H641.63257" style="fill:none;stroke:rgba(190,0,64,.24705882);stroke-width:.09525;stroke-miterlimit:41.994751"/><path d="M453.79958 7.21995L465.15337 7.3914" style="fill:none;stroke:rgba(190,0,64,.24705882);stroke-width:.09525;stroke-miterlimit:41.994751"/><path d="M886.34887 527.92313L889.73025 531.39975" style="fill:none;stroke:rgba(186,0,64,.24705882);stroke-width:.09525;stroke-miterlimit:41.994751"/><path d="M351.50107 7.629525L344.7288 7.4676" style="fill:none;stroke:rgba(186,0,68,.24705882);stroke-width:.09525;stroke-miterlimit:41.994751"/><path d="M80.2767 7.3533L73.0377 7.33425" style="fill:none;stroke:rgba(186,0,68,.24705882);stroke-width:.09525;stroke-miterlimit:41.994751"/><path d="M468.42997 12.201525H487.8705V.70485H468.42997z" style="fill:rgba(186,0,68,.24705882);stroke:rgba(186,0,68,.24705882);stroke-width:.09525;stroke-miterlimit:41.994751"/><path d="M476.84055 7.239A.47625 .47625 0 00475.88805 7.239A.47625 .47625 0 00476.84055 7.239z" fill="rgba(186,0,68,.24705882)"/><path d="M476.3643 7.239L490.1565 8.21055" style="fill:none;stroke:rgba(182,0,72,.24705882);stroke-width:.09525;stroke-miterlimit:41.994751"/><path d="M811.27283 524.54175A.47625 .47625 0 00810.32033 524.54175A.47625 .47625 0 00811.27283 524.54175z" fill="rgba(182,0,72,.24705882)"/><path d="M442.40767 7.458075L448.00838 7.439025" style="fill:none;stroke:rgba(182,0,72,.24705882);stroke-width:.09525;stroke-miterlimit:41.994751"/><path d="M487.78477 14.00175H494.4999V1.609725H487.78477z" style="fill:rgba(182,0,72,.24705882);stroke:rgba(182,0,72,.24705882);stroke-width:.09525;stroke-miterlimit:41.994751"/><path d="M490.63275 8.21055A.47625 .47625 0 00489.68025 8.21055A.47625 .47625 0 00490.63275 8.21055z" fill="rgba(182,0,72,.24705882)"/><path d="M613.22902 10.201275H620.649V2.257425H613.22902z" style="fill:rgba(178,0,72,.24705882);stroke:rgba(178,0,72,.24705882);stroke-width:.09525;stroke-miterlimit:41.994751"/><path d="M617.92485 7.56285A.47625 .47625 0 00616.97235 7.56285A.47625 .47625 0 00617.92485 7.56285z" fill="rgba(178,0,72,.24705882)"/><path d="M260.51827 6.562725L261.99465 6.38175" style="fill:none;stroke:rgba(178,0,76,.24705882);stroke-width:.09525;stroke-miterlimit:41.994751"/><path d="M286.52152 6.61035L322.22123 7.591425" style="fill:none;stroke:rgba(178,0,76,.24705882);stroke-width:.09525;stroke-miterlimit:41.994751"/><path d="M465.15337 7.3914L476.3643 7.239" style="fill:none;stroke:rgba(178,0,76,.24705882);stroke-width:.09525;stroke-miterlimit:41.994751"/><path d="M887.3871 6.848475L892.04482 7.324725" style="fill:none;stroke:rgba(174,0,76,.24705882);stroke-width:.09525;stroke-miterlimit:41.994751"/><path d="M197.76757 531.48547L202.692 531.54263" style="fill:none;stroke:rgba(170,0,85,.24705882);stroke-width:.09525;stroke-miterlimit:41.994751"/><path d="M463.36267 13.1826H471.24937V2.41935H463.36267z" style="fill:rgba(170,0,85,.24705882);stroke:rgba(170,0,85,.24705882);stroke-width:.09525;stroke-miterlimit:41.994751"/><path d="M465.62962 7.3914A.47625 .47625 0 00464.67712 7.3914A.47625 .47625 0 00465.62962 7.3914z" fill="rgba(170,0,85,.24705882)"/><path d="M165.6969 526.70393L167.80192 530.0853" style="fill:none;stroke:rgba(165,0,89,.24705882);stroke-width:.09525;stroke-miterlimit:41.994751"/><path d="M627.00218 524.54175A.47625 .47625 0 00626.04967 524.54175A.47625 .47625 0 00627.00218 524.54175z" fill="rgba(165,0,89,.24705882)"/><path d="M184.30875 7.210425L178.1937 7.3152" style="fill:none;stroke:rgba(165,0,89,.24705882);stroke-width:.09525;stroke-miterlimit:41.994751"/><path d="M258.07035 524.54175L256.68922 531.495" style="fill:none;stroke:rgba(165,0,89,.24705882);stroke-width:.09525;stroke-miterlimit:41.994751"/><path d="M351.97732 7.629525A.47625 .47625 0 00351.02482 7.629525A.47625 .47625 0 00351.97732 7.629525z" fill="rgba(161,0,93,.24705882)"/><path d="M490.1565 8.21055L501.50077 7.515225" style="fill:none;stroke:rgba(157,0,97,.24705882);stroke-width:.09525;stroke-miterlimit:41.994751"/><path d="M509.49225 7.705725A.47625 .47625 0 00508.53975 7.705725A.47625 .47625 0 00509.49225 7.705725z" fill="rgba(157,0,97,.24705882)"/><path d="M281.49232 13.81125H318.27787V.47625H281.49232z" style="fill:rgba(157,0,97,.24705882);stroke:rgba(157,0,97,.24705882);stroke-width:.09525;stroke-miterlimit:41.994751"/><path d="M286.99777 6.61035A.47625 .47625 0 00286.04528 6.61035A.47625 .47625 0 00286.99777 6.61035z" fill="rgba(157,0,97,.24705882)"/><path d="M266.13802 5.553075A.47625 .47625 0 00265.18552 5.553075A.47625 .47625 0 00266.13802 5.553075z" fill="rgba(153,0,101,.24705882)"/><path d="M262.4709 6.38175A.47625 .47625 0 00261.5184 6.38175A.47625 .47625 0 00262.4709 6.38175z" fill="rgba(153,0,101,.24705882)"/><path d="M261.99465 6.38175L265.66177 5.553075" style="fill:none;stroke:rgba(153,0,101,.24705882);stroke-width:.09525;stroke-miterlimit:41.994751"/><path d="M580.25347 532.09508L572.25248 538.40062" style="fill:none;stroke:rgba(153,0,101,.24705882);stroke-width:.09525;stroke-miterlimit:41.994751"/><path d="M501.50077 7.515225L509.016 7.705725" style="fill:none;stroke:rgba(145,0,105,.24705882);stroke-width:.09525;stroke-miterlimit:41.994751"/><path d="M644.8806 10.7442H682.28527V3.429H644.8806z" style="fill:rgba(141,0,109,.24705882);stroke:rgba(141,0,109,.24705882);stroke-width:.09525;stroke-miterlimit:41.994751"/><path d="M680.86605 6.772275A.47625 .47625 0 00679.91355 6.772275A.47625 .47625 0 00680.86605 6.772275z" fill="rgba(141,0,109,.24705882)"/><path d="M683.98073 6.7056A.47625 .47625 0 00683.02822 6.7056A.47625 .47625 0 00683.98073 6.7056z" fill="rgba(141,0,109,.24705882)"/><path d="M621.2205 10.34415H639.10845V3.876675H621.2205z" style="fill:rgba(141,0,109,.24705882);stroke:rgba(141,0,109,.24705882);stroke-width:.09525;stroke-miterlimit:41.994751"/><path d="M630.2883 6.95325A.47625 .47625 0 00629.3358 6.95325A.47625 .47625 0 00630.2883 6.95325z" fill="rgba(141,0,109,.24705882)"/><path d="M726.72893 6.9342A.47625 .47625 0 00725.77642 6.9342A.47625 .47625 0 00726.72893 6.9342z" fill="rgba(141,0,109,.24705882)"/><path d="M640.66102 6.772275A.47625 .47625 0 00639.70852 6.772275A.47625 .47625 0 00640.66102 6.772275z" fill="rgba(141,0,109,.24705882)"/><path d="M731.4438 11.60145H750.77003V2.11455H731.4438z" style="fill:rgba(141,0,109,.24705882);stroke:rgba(141,0,109,.24705882);stroke-width:.09525;stroke-miterlimit:41.994751"/><path d="M750.9129 6.87705A.47625 .47625 0 00749.9604 6.87705A.47625 .47625 0 00750.9129 6.87705z" fill="rgba(141,0,109,.24705882)"/><path d="M689.32425 11.229975H723.60473V3.0099H689.32425z" style="fill:rgba(141,0,109,.24705882);stroke:rgba(141,0,109,.24705882);stroke-width:.09525;stroke-miterlimit:41.994751"/><path d="M722.53792 7.077075A.47625 .47625 0 00721.58542 7.077075A.47625 .47625 0 00722.53792 7.077075z" fill="rgba(141,0,109,.24705882)"/><path d="M629.81205 6.95325L640.18477 6.772275" style="fill:none;stroke:rgba(141,0,109,.24705882);stroke-width:.09525;stroke-miterlimit:41.994751"/><path d="M680.3898 6.772275L683.50447 6.7056" style="fill:none;stroke:rgba(141,0,109,.24705882);stroke-width:.09525;stroke-miterlimit:41.994751"/><path d="M722.06167 7.077075L726.25267 6.9342" style="fill:none;stroke:rgba(141,0,109,.24705882);stroke-width:.09525;stroke-miterlimit:41.994751"/><path d="M617.4486 7.56285L619.19168 7.0866" style="fill:none;stroke:rgba(141,0,109,.24705882);stroke-width:.09525;stroke-miterlimit:41.994751"/><path d="M495.3381 9.267825H507.61582V4.8387H495.3381z" style="fill:rgba(137,0,117,.24705882);stroke:rgba(137,0,117,.24705882);stroke-width:.09525;stroke-miterlimit:41.994751"/><path d="M501.97702 7.515225A.47625 .47625 0 00501.02452 7.515225A.47625 .47625 0 00501.97702 7.515225z" fill="rgba(137,0,117,.24705882)"/><path d="M626.52593 524.54175L626.46877 531.495" style="fill:none;stroke:rgba(133,0,117,.24705882);stroke-width:.09525;stroke-miterlimit:41.994751"/><path d="M351.50107 7.629525H353.0727" style="fill:none;stroke:rgba(133,0,117,.24705882);stroke-width:.09525;stroke-miterlimit:41.994751"/><path d="M729.62452 6.772275L750.43665 6.87705" style="fill:none;stroke:rgba(133,0,121,.24705882);stroke-width:.09525;stroke-miterlimit:41.994751"/><path d="M683.50447 6.7056H685.84762" style="fill:none;stroke:rgba(133,0,121,.24705882);stroke-width:.09525;stroke-miterlimit:41.994751"/><path d="M640.18477 6.772275L642.30885 6.7437" style="fill:none;stroke:rgba(133,0,121,.24705882);stroke-width:.09525;stroke-miterlimit:41.994751"/><path d="M680.3898 6.772275L642.30885 6.7437" style="fill:none;stroke:rgba(133,0,121,.24705882);stroke-width:.09525;stroke-miterlimit:41.994751"/><path d="M685.84762 6.7056L722.06167 7.077075" style="fill:none;stroke:rgba(133,0,121,.24705882);stroke-width:.09525;stroke-miterlimit:41.994751"/><path d="M726.25267 6.9342L729.62452 6.772275" style="fill:none;stroke:rgba(133,0,121,.24705882);stroke-width:.09525;stroke-miterlimit:41.994751"/><path d="M810.79658 524.54175L810.32033 531.495" style="fill:none;stroke:rgba(133,0,121,.24705882);stroke-width:.09525;stroke-miterlimit:41.994751"/><path d="M267.6144 5.381625L286.52152 6.61035" style="fill:none;stroke:rgba(133,0,121,.24705882);stroke-width:.09525;stroke-miterlimit:41.994751"/><path d="M442.722 7.56285A.47625 .47625 0 00441.7695 7.56285A.47625 .47625 0 00442.722 7.56285z" fill="rgba(133,0,121,.24705882)"/><path d="M265.66177 5.553075L267.6144 5.381625" style="fill:none;stroke:rgba(133,0,121,.24705882);stroke-width:.09525;stroke-miterlimit:41.994751"/><path d="M171.92625 538.25775H189.80467V524.54175H171.92625z" style="fill:rgba(129,0,125,.24705882);stroke:rgba(129,0,125,.24705882);stroke-width:.09525;stroke-miterlimit:41.994751"/><path d="M186.81383 531.14257A.47625 .47625 0 00185.86133 531.14257A.47625 .47625 0 00186.81383 531.14257z" fill="rgba(129,0,125,.24705882)"/><path d="M251.55525 538.25775H254.95567V531.78075H251.55525z" style="fill:rgba(129,0,125,.24705882);stroke:rgba(129,0,125,.24705882);stroke-width:.09525;stroke-miterlimit:41.994751"/><path d="M253.34595 535.9908A.47625 .47625 0 00252.39345 535.9908A.47625 .47625 0 00253.34595 535.9908z" fill="rgba(129,0,125,.24705882)"/><path d="M257.69887 538.25775H263.271V532.20938H257.69887z" style="fill:rgba(129,0,125,.24705882);stroke:rgba(129,0,125,.24705882);stroke-width:.09525;stroke-miterlimit:41.994751"/><path d="M261.20407 536.80043A.47625 .47625 0 00260.25157 536.80043A.47625 .47625 0 00261.20407 536.80043z" fill="rgba(129,0,125,.24705882)"/><path d="M217.45575 538.25775H244.50675V524.54175H217.45575z" style="fill:rgba(129,0,125,.24705882);stroke:rgba(129,0,125,.24705882);stroke-width:.09525;stroke-miterlimit:41.994751"/><path d="M230.55262 531.3426A.47625 .47625 0 00229.60012 531.3426A.47625 .47625 0 00230.55262 531.3426z" fill="rgba(129,0,125,.24705882)"/><path d="M212.5218 534.06675H217.82722V528.066H212.5218z" style="fill:rgba(129,0,125,.24705882);stroke:rgba(129,0,125,.24705882);stroke-width:.09525;stroke-miterlimit:41.994751"/><path d="M217.69387 531.2664A.47625 .47625 0 00216.74137 531.2664A.47625 .47625 0 00217.69387 531.2664z" fill="rgba(129,0,125,.24705882)"/><path d="M259.6515 532.27605H263.271V527.9136H259.6515z" style="fill:rgba(129,0,125,.24705882);stroke:rgba(129,0,125,.24705882);stroke-width:.09525;stroke-miterlimit:41.994751"/><path d="M261.8613 529.53285A.47625 .47625 0 00260.9088 529.53285A.47625 .47625 0 00261.8613 529.53285z" fill="rgba(129,0,125,.24705882)"/><path d="M168.27817 530.0853A.47625 .47625 0 00167.32567 530.0853A.47625 .47625 0 00168.27817 530.0853z" fill="rgba(129,0,125,.24705882)"/><path d="M159.35325 538.25775H171.069V531.78075H159.35325z" style="fill:rgba(129,0,125,.24705882);stroke:rgba(129,0,125,.24705882);stroke-width:.09525;stroke-miterlimit:41.994751"/><path d="M169.26877 534.78112A.47625 .47625 0 00168.31627 534.78112A.47625 .47625 0 00169.26877 534.78112z" fill="rgba(129,0,125,.24705882)"/><path d="M260.72782 536.80043L252.8697 535.9908" style="fill:none;stroke:rgba(129,0,125,.24705882);stroke-width:.09525;stroke-miterlimit:41.994751"/><path d="M261.38505 529.53285L260.72782 536.80043" style="fill:none;stroke:rgba(129,0,125,.24705882);stroke-width:.09525;stroke-miterlimit:41.994751"/><path d="M217.21762 531.2664L230.07637 531.3426" style="fill:none;stroke:rgba(129,0,125,.24705882);stroke-width:.09525;stroke-miterlimit:41.994751"/><path d="M167.80192 530.0853L168.79252 534.78112" style="fill:none;stroke:rgba(129,0,125,.24705882);stroke-width:.09525;stroke-miterlimit:41.994751"/><path d="M168.79252 534.78112L186.33758 531.14257" style="fill:none;stroke:rgba(129,0,125,.24705882);stroke-width:.09525;stroke-miterlimit:41.994751"/><path d="M252.8697 535.9908L255.43192 533.10472" style="fill:none;stroke:rgba(129,0,125,.24705882);stroke-width:.09525;stroke-miterlimit:41.994751"/><path d="M357.09225 13.81125H438.50243V.47625H357.09225z" style="fill:rgba(129,0,125,.24705882);stroke:rgba(129,0,125,.24705882);stroke-width:.09525;stroke-miterlimit:41.994751"/><path d="M367.25543 7.9248A.47625 .47625 0 00366.30293 7.9248A.47625 .47625 0 00367.25543 7.9248z" fill="rgba(129,0,125,.24705882)"/><path d="M255.90817 533.10472A.47625 .47625 0 00254.95567 533.10472A.47625 .47625 0 00255.90817 533.10472z" fill="rgba(129,0,125,.24705882)"/><path d="M256.68922 531.495L261.38505 529.53285" style="fill:none;stroke:rgba(129,0,125,.24705882);stroke-width:.09525;stroke-miterlimit:41.994751"/><path d="M813.44452 531.84743H816.483V527.84693H813.44452z" style="fill:rgba(129,0,125,.24705882);stroke:rgba(129,0,125,.24705882);stroke-width:.09525;stroke-miterlimit:41.994751"/><path d="M815.40668 529.8186A.47625 .47625 0 00814.45417 529.8186A.47625 .47625 0 00815.40668 529.8186z" fill="rgba(129,0,125,.24705882)"/><path d="M822.48375 538.25775H868.39425V524.54175H822.48375z" style="fill:rgba(129,0,125,.24705882);stroke:rgba(129,0,125,.24705882);stroke-width:.09525;stroke-miterlimit:41.994751"/><path d="M848.08695 527.0373A.47625 .47625 0 00847.13445 527.0373A.47625 .47625 0 00848.08695 527.0373z" fill="rgba(129,0,125,.24705882)"/><path d="M632.8791 533.30475H647.27138V524.73225H632.8791z" style="fill:rgba(129,0,125,.24705882);stroke:rgba(129,0,125,.24705882);stroke-width:.09525;stroke-miterlimit:41.994751"/><path d="M641.81355 527.84692A.47625 .47625 0 00640.86105 527.84692A.47625 .47625 0 00641.81355 527.84692z" fill="rgba(129,0,125,.24705882)"/><path d="M877.69065 534.7335H880.11V524.54175H877.69065z" style="fill:rgba(129,0,125,.24705882);stroke:rgba(129,0,125,.24705882);stroke-width:.09525;stroke-miterlimit:41.994751"/><path d="M879.70995 531.1902A.47625 .47625 0 00878.75745 531.1902A.47625 .47625 0 00879.70995 531.1902z" fill="rgba(129,0,125,.24705882)"/><path d="M644.89013 535.82888A.47625 .47625 0 00643.93762 535.82888A.47625 .47625 0 00644.89013 535.82888z" fill="rgba(129,0,125,.24705882)"/><path d="M631.02173 529.30425A.47625 .47625 0 00630.06922 529.30425A.47625 .47625 0 00631.02173 529.30425z" fill="rgba(129,0,125,.24705882)"/><path d="M644.60438 538.25775H650.9385V533.86672H644.60438z" style="fill:rgba(129,0,125,.24705882);stroke:rgba(129,0,125,.24705882);stroke-width:.09525;stroke-miterlimit:41.994751"/><path d="M648.843 536.70517A.47625 .47625 0 00647.8905 536.70517A.47625 .47625 0 00648.843 536.70517z" fill="rgba(129,0,125,.24705882)"/><path d="M648.02385 533.5905H662.559V524.47508H648.02385z" style="fill:rgba(129,0,125,.24705882);stroke:rgba(129,0,125,.24705882);stroke-width:.09525;stroke-miterlimit:41.994751"/><path d="M655.99628 528.1041A.47625 .47625 0 00655.04377 528.1041A.47625 .47625 0 00655.99628 528.1041z" fill="rgba(129,0,125,.24705882)"/><path d="M868.30853 534.7335H877.76685V524.54175H868.30853z" style="fill:rgba(129,0,125,.24705882);stroke:rgba(129,0,125,.24705882);stroke-width:.09525;stroke-miterlimit:41.994751"/><path d="M876.72863 527.13255A.47625 .47625 0 00875.77612 527.13255A.47625 .47625 0 00876.72863 527.13255z" fill="rgba(129,0,125,.24705882)"/><path d="M880.58625 538.25775H889.92075V530.06625H880.58625z" style="fill:rgba(129,0,125,.24705882);stroke:rgba(129,0,125,.24705882);stroke-width:.09525;stroke-miterlimit:41.994751"/><path d="M886.6251 532.257A.47625 .47625 0 00885.6726 532.257A.47625 .47625 0 00886.6251 532.257z" fill="rgba(129,0,125,.24705882)"/><path d="M659.7396 538.25775H665.96895V533.9715H659.7396z" style="fill:rgba(129,0,125,.24705882);stroke:rgba(129,0,125,.24705882);stroke-width:.09525;stroke-miterlimit:41.994751"/><path d="M662.77808 535.84793A.47625 .47625 0 00661.82557 535.84793A.47625 .47625 0 00662.77808 535.84793z" fill="rgba(129,0,125,.24705882)"/><path d="M676.25595 530.99018A.47625 .47625 0 00675.30345 530.99018A.47625 .47625 0 00676.25595 530.99018z" fill="rgba(129,0,125,.24705882)"/><path d="M650.94802 538.25775H659.72055V533.9715H650.94802z" style="fill:rgba(129,0,125,.24705882);stroke:rgba(129,0,125,.24705882);stroke-width:.09525;stroke-miterlimit:41.994751"/><path d="M659.12048 535.90508A.47625 .47625 0 00658.16797 535.90508A.47625 .47625 0 00659.12048 535.90508z" fill="rgba(129,0,125,.24705882)"/><path d="M693.89625 533.50477H705.51675V524.72272H693.89625z" style="fill:rgba(129,0,125,.24705882);stroke:rgba(129,0,125,.24705882);stroke-width:.09525;stroke-miterlimit:41.994751"/><path d="M699.12548 529.49475A.47625 .47625 0 00698.17297 529.49475A.47625 .47625 0 00699.12548 529.49475z" fill="rgba(129,0,125,.24705882)"/><path d="M817.34025 530.4282H822.26467V524.54175H817.34025z" style="fill:rgba(129,0,125,.24705882);stroke:rgba(129,0,125,.24705882);stroke-width:.09525;stroke-miterlimit:41.994751"/><path d="M820.56923 526.4277A.47625 .47625 0 00819.61672 526.4277A.47625 .47625 0 00820.56923 526.4277z" fill="rgba(129,0,125,.24705882)"/><path d="M692.68657 538.25775H699.99225V533.56192H692.68657z" style="fill:rgba(129,0,125,.24705882);stroke:rgba(129,0,125,.24705882);stroke-width:.09525;stroke-miterlimit:41.994751"/><path d="M697.992 536.23845A.47625 .47625 0 00697.0395 536.23845A.47625 .47625 0 00697.992 536.23845z" fill="rgba(129,0,125,.24705882)"/><path d="M663.321 533.4H674.7129V524.54175H663.321z" style="fill:rgba(129,0,125,.24705882);stroke:rgba(129,0,125,.24705882);stroke-width:.09525;stroke-miterlimit:41.994751"/><path d="M671.57917 530.99018A.47625 .47625 0 00670.62667 530.99018A.47625 .47625 0 00671.57917 530.99018z" fill="rgba(129,0,125,.24705882)"/><path d="M817.34025 538.25775H822.29325V530.36153H817.34025z" style="fill:rgba(129,0,125,.24705882);stroke:rgba(129,0,125,.24705882);stroke-width:.09525;stroke-miterlimit:41.994751"/><path d="M820.72163 535.85745A.47625 .47625 0 00819.76912 535.85745A.47625 .47625 0 00820.72163 535.85745z" fill="rgba(129,0,125,.24705882)"/><path d="M665.96895 538.25775H692.67705V533.9715H665.96895z" style="fill:rgba(129,0,125,.24705882);stroke:rgba(129,0,125,.24705882);stroke-width:.09525;stroke-miterlimit:41.994751"/><path d="M686.66678 535.97175A.47625 .47625 0 00685.71427 535.97175A.47625 .47625 0 00686.66678 535.97175z" fill="rgba(129,0,125,.24705882)"/><path d="M804.76725 538.25775H816.483V531.78075H804.76725z" style="fill:rgba(129,0,125,.24705882);stroke:rgba(129,0,125,.24705882);stroke-width:.09525;stroke-miterlimit:41.994751"/><path d="M815.54003 535.98128A.47625 .47625 0 00814.58752 535.98128A.47625 .47625 0 00815.54003 535.98128z" fill="rgba(129,0,125,.24705882)"/><path d="M678.27525 533.2095H693.70575V524.73225H678.27525z" style="fill:rgba(129,0,125,.24705882);stroke:rgba(129,0,125,.24705882);stroke-width:.09525;stroke-miterlimit:41.994751"/><path d="M687.0954 530.97113A.47625 .47625 0 00686.1429 530.97113A.47625 .47625 0 00687.0954 530.97113z" fill="rgba(129,0,125,.24705882)"/><path d="M686.61915 530.97113L686.19052 535.97175" style="fill:none;stroke:rgba(129,0,125,.24705882);stroke-width:.09525;stroke-miterlimit:41.994751"/><path d="M675.7797 530.99018L686.61915 530.97113" style="fill:none;stroke:rgba(129,0,125,.24705882);stroke-width:.09525;stroke-miterlimit:41.994751"/><path d="M814.93043 529.8186L815.06377 535.98128" style="fill:none;stroke:rgba(129,0,125,.24705882);stroke-width:.09525;stroke-miterlimit:41.994751"/><path d="M521.97952 531.40928L525.94192 531.33308" style="fill:none;stroke:rgba(129,0,125,.24705882);stroke-width:.09525;stroke-miterlimit:41.994751"/><path d="M815.06377 535.98128L820.24537 535.85745" style="fill:none;stroke:rgba(129,0,125,.24705882);stroke-width:.09525;stroke-miterlimit:41.994751"/><path d="M686.19052 535.97175L697.51575 536.23845" style="fill:none;stroke:rgba(129,0,125,.24705882);stroke-width:.09525;stroke-miterlimit:41.994751"/><path d="M671.10292 530.99018H675.7797" style="fill:none;stroke:rgba(129,0,125,.24705882);stroke-width:.09525;stroke-miterlimit:41.994751"/><path d="M820.24537 535.85745L820.09298 526.4277" style="fill:none;stroke:rgba(129,0,125,.24705882);stroke-width:.09525;stroke-miterlimit:41.994751"/><path d="M686.19052 535.97175L662.30183 535.84793" style="fill:none;stroke:rgba(129,0,125,.24705882);stroke-width:.09525;stroke-miterlimit:41.994751"/><path d="M697.51575 536.23845L698.64923 529.49475" style="fill:none;stroke:rgba(129,0,125,.24705882);stroke-width:.09525;stroke-miterlimit:41.994751"/><path d="M820.09298 526.4277L847.6107 527.0373" style="fill:none;stroke:rgba(129,0,125,.24705882);stroke-width:.09525;stroke-miterlimit:41.994751"/><path d="M658.64423 535.90508L648.36675 536.70517" style="fill:none;stroke:rgba(129,0,125,.24705882);stroke-width:.09525;stroke-miterlimit:41.994751"/><path d="M847.6107 527.0373L876.25238 527.13255" style="fill:none;stroke:rgba(129,0,125,.24705882);stroke-width:.09525;stroke-miterlimit:41.994751"/><path d="M662.30183 535.84793L658.64423 535.90508" style="fill:none;stroke:rgba(129,0,125,.24705882);stroke-width:.09525;stroke-miterlimit:41.994751"/><path d="M648.36675 536.70517L644.41387 535.82888" style="fill:none;stroke:rgba(129,0,125,.24705882);stroke-width:.09525;stroke-miterlimit:41.994751"/><path d="M879.2337 531.1902L886.14885 532.257" style="fill:none;stroke:rgba(129,0,125,.24705882);stroke-width:.09525;stroke-miterlimit:41.994751"/><path d="M630.54548 529.30425L641.3373 527.84692" style="fill:none;stroke:rgba(129,0,125,.24705882);stroke-width:.09525;stroke-miterlimit:41.994751"/><path d="M876.25238 527.13255L879.2337 531.1902" style="fill:none;stroke:rgba(129,0,125,.24705882);stroke-width:.09525;stroke-miterlimit:41.994751"/><path d="M886.14885 532.257L886.34887 527.92313" style="fill:none;stroke:rgba(129,0,125,.24705882);stroke-width:.09525;stroke-miterlimit:41.994751"/><path d="M257.16547 531.495A.47625 .47625 0 00256.21297 531.495A.47625 .47625 0 00257.16547 531.495z" fill="rgba(125,0,125,.24705882)"/><path d="M885.39638 530.01863H889.14923V525.91335H885.39638z" style="fill:rgba(125,0,125,.24705882);stroke:rgba(125,0,125,.24705882);stroke-width:.09525;stroke-miterlimit:41.994751"/><path d="M886.82512 527.92313A.47625 .47625 0 00885.87262 527.92313A.47625 .47625 0 00886.82512 527.92313z" fill="rgba(125,0,125,.24705882)"/><path d="M686.32388 6.7056A.47625 .47625 0 00685.37137 6.7056A.47625 .47625 0 00686.32388 6.7056z" fill="rgba(125,0,129,.24705882)"/><path d="M642.7851 6.7437A.47625 .47625 0 00641.8326 6.7437A.47625 .47625 0 00642.7851 6.7437z" fill="rgba(125,0,129,.24705882)"/><path d="M730.10077 6.772275A.47625 .47625 0 00729.14827 6.772275A.47625 .47625 0 00730.10077 6.772275z" fill="rgba(125,0,129,.24705882)"/><path d="M619.19168 7.0866L629.81205 6.95325" style="fill:none;stroke:rgba(125,0,129,.24705882);stroke-width:.09525;stroke-miterlimit:41.994751"/><path d="M353.0727 7.629525L366.77918 7.9248" style="fill:none;stroke:rgba(117,0,133,.24705882);stroke-width:.09525;stroke-miterlimit:41.994751"/><path d="M366.77918 7.9248L442.40767 7.458075" style="fill:none;stroke:rgba(117,0,133,.24705882);stroke-width:.09525;stroke-miterlimit:41.994751"/><path d="M185.19457 12.7635H219.837V1.524H185.19457z" style="fill:rgba(117,0,137,.24705882);stroke:rgba(117,0,137,.24705882);stroke-width:.09525;stroke-miterlimit:41.994751"/><path d="M203.36827 6.8961A.47625 .47625 0 00202.41577 6.8961A.47625 .47625 0 00203.36827 6.8961z" fill="rgba(117,0,137,.24705882)"/><path d="M.28575 12.7635H73.09485V1.524H.28575z" style="fill:rgba(117,0,137,.24705882);stroke:rgba(117,0,137,.24705882);stroke-width:.09525;stroke-miterlimit:41.994751"/><path d="M58.721625 7.362825A.47625 .47625 0 0057.769125 7.362825A.47625 .47625 0 0058.721625 7.362825z" fill="rgba(117,0,137,.24705882)"/><path d="M73.51395 7.33425A.47625 .47625 0 0072.56145 7.33425A.47625 .47625 0 0073.51395 7.33425z" fill="rgba(117,0,137,.24705882)"/><path d="M73.0377 7.33425L58.245375 7.362825" style="fill:none;stroke:rgba(117,0,137,.24705882);stroke-width:.09525;stroke-miterlimit:41.994751"/><path d="M641.3373 527.84692L647.71905 527.27543" style="fill:none;stroke:rgba(117,0,137,.24705882);stroke-width:.09525;stroke-miterlimit:41.994751"/><path d="M647.71905 527.27543L655.52003 528.1041" style="fill:none;stroke:rgba(117,0,137,.24705882);stroke-width:.09525;stroke-miterlimit:41.994751"/><path d="M202.89202 6.8961L184.30875 7.210425" style="fill:none;stroke:rgba(117,0,137,.24705882);stroke-width:.09525;stroke-miterlimit:41.994751"/><path d="M626.46877 531.495L630.54548 529.30425" style="fill:none;stroke:rgba(117,0,137,.24705882);stroke-width:.09525;stroke-miterlimit:41.994751"/><path d="M184.785 7.210425A.47625 .47625 0 00183.8325 7.210425A.47625 .47625 0 00184.785 7.210425z" fill="rgba(117,0,137,.24705882)"/><path d="M890.78752 531.09495L897.6741 531.56168" style="fill:none;stroke:rgba(117,0,137,.24705882);stroke-width:.09525;stroke-miterlimit:41.994751"/><path d="M442.88392 7.458075A.47625 .47625 0 00441.93142 7.458075A.47625 .47625 0 00442.88392 7.458075z" fill="rgba(109,0,145,.24705882)"/><path d="M353.54895 7.629525A.47625 .47625 0 00352.59645 7.629525A.47625 .47625 0 00353.54895 7.629525z" fill="rgba(109,0,145,.24705882)"/><path d="M267.2334 11.18235H282.75915V.542925H267.2334z" style="fill:rgba(109,0,145,.24705882);stroke:rgba(109,0,145,.24705882);stroke-width:.09525;stroke-miterlimit:41.994751"/><path d="M268.09065 5.381625A.47625 .47625 0 00267.13815 5.381625A.47625 .47625 0 00268.09065 5.381625z" fill="rgba(109,0,145,.24705882)"/><path d="M850.6206 538.63875L847.6107 527.0373" style="fill:none;stroke:rgba(109,0,145,.24705882);stroke-width:.09525;stroke-miterlimit:41.994751"/><path d="M655.52003 528.1041L662.85427 531.19972" style="fill:none;stroke:rgba(109,0,145,.24705882);stroke-width:.09525;stroke-miterlimit:41.994751"/><path d="M662.85427 531.19972L671.10292 530.99018" style="fill:none;stroke:rgba(109,0,145,.24705882);stroke-width:.09525;stroke-miterlimit:41.994751"/><path d="M810.32033 531.495L814.93043 529.8186" style="fill:none;stroke:rgba(105,0,145,.24705882);stroke-width:.09525;stroke-miterlimit:41.994751"/><path d="M217.21762 531.2664L202.692 531.54263" style="fill:none;stroke:rgba(105,0,145,.24705882);stroke-width:.09525;stroke-miterlimit:41.994751"/><path d="M527.73262 537.60053H620.0775V525.76095H527.73262z" style="fill:rgba(105,0,145,.24705882);stroke:rgba(105,0,145,.24705882);stroke-width:.09525;stroke-miterlimit:41.994751"/><path d="M580.72973 532.09508A.47625 .47625 0 00579.77722 532.09508A.47625 .47625 0 00580.72973 532.09508z" fill="rgba(105,0,145,.24705882)"/><path d="M838.7715 7.25805A.47625 .47625 0 00837.819 7.25805A.47625 .47625 0 00838.7715 7.25805z" fill="rgba(105,0,149,.24705882)"/><path d="M841.39088 7.3152A.47625 .47625 0 00840.43837 7.3152A.47625 .47625 0 00841.39088 7.3152z" fill="rgba(105,0,149,.24705882)"/><path d="M761.24752 13.58265H836.4474V.6858H761.24752z" style="fill:rgba(105,0,149,.24705882);stroke:rgba(105,0,149,.24705882);stroke-width:.09525;stroke-miterlimit:41.994751"/><path d="M799.42372 7.553325A.47625 .47625 0 00798.47122 7.553325A.47625 .47625 0 00799.42372 7.553325z" fill="rgba(105,0,149,.24705882)"/><path d="M619.28692 3.29565A.47625 .47625 0 00618.33442 3.29565A.47625 .47625 0 00619.28692 3.29565z" fill="rgba(105,0,149,.24705882)"/><path d="M619.66793 7.0866A.47625 .47625 0 00618.71542 7.0866A.47625 .47625 0 00619.66793 7.0866z" fill="rgba(105,0,149,.24705882)"/><path d="M838.29525 7.25805L840.91463 7.3152" style="fill:none;stroke:rgba(105,0,149,.24705882);stroke-width:.09525;stroke-miterlimit:41.994751"/><path d="M798.94747 7.553325L838.29525 7.25805" style="fill:none;stroke:rgba(105,0,149,.24705882);stroke-width:.09525;stroke-miterlimit:41.994751"/><path d="M840.91463 7.3152L845.76285 7.248525" style="fill:none;stroke:rgba(105,0,149,.24705882);stroke-width:.09525;stroke-miterlimit:41.994751"/><path d="M845.60092 13.877925H884.28195V.6096H845.60092z" style="fill:rgba(105,0,149,.24705882);stroke:rgba(105,0,149,.24705882);stroke-width:.09525;stroke-miterlimit:41.994751"/><path d="M846.2391 7.248525A.47625 .47625 0 00845.2866 7.248525A.47625 .47625 0 00846.2391 7.248525z" fill="rgba(105,0,149,.24705882)"/><path d="M648.1953 527.27543A.47625 .47625 0 00647.2428 527.27543A.47625 .47625 0 00648.1953 527.27543z" fill="rgba(105,0,149,.24705882)"/><path d="M626.94502 531.495A.47625 .47625 0 00625.99252 531.495A.47625 .47625 0 00626.94502 531.495z" fill="rgba(105,0,149,.24705882)"/><path d="M845.76285 7.248525L887.3871 6.848475" style="fill:none;stroke:rgba(101,0,149,.24705882);stroke-width:.09525;stroke-miterlimit:41.994751"/><path d="M897.13117 13.249275H929.45902V1.16205H897.13117z" style="fill:rgba(101,0,153,.24705882);stroke:rgba(101,0,153,.24705882);stroke-width:.09525;stroke-miterlimit:41.994751"/><path d="M925.16325 7.3914A.47625 .47625 0 00924.21075 7.3914A.47625 .47625 0 00925.16325 7.3914z" fill="rgba(101,0,153,.24705882)"/><path d="M924.687 7.3914L887.3871 6.848475" style="fill:none;stroke:rgba(101,0,153,.24705882);stroke-width:.09525;stroke-miterlimit:41.994751"/><path d="M887.86335 6.848475A.47625 .47625 0 00886.91085 6.848475A.47625 .47625 0 00887.86335 6.848475z" fill="rgba(97,0,153,.24705882)"/><path d="M255.43192 533.10472L258.82282 533.19045" style="fill:none;stroke:rgba(93,0,161,.24705882);stroke-width:.09525;stroke-miterlimit:41.994751"/><path d="M851.09685 538.63875A.47625 .47625 0 00850.14435 538.63875A.47625 .47625 0 00851.09685 538.63875z" fill="rgba(89,0,161,.24705882)"/><path d="M663.33052 531.19972A.47625 .47625 0 00662.37802 531.19972A.47625 .47625 0 00663.33052 531.19972z" fill="rgba(89,0,165,.24705882)"/><path d="M810.79658 531.495A.47625 .47625 0 00809.84407 531.495A.47625 .47625 0 00810.79658 531.495z" fill="rgba(85,0,165,.24705882)"/><path d="M199.31062 534.06675H209.931V528.2565H199.31062z" style="fill:rgba(85,0,170,.24705882);stroke:rgba(85,0,170,.24705882);stroke-width:.09525;stroke-miterlimit:41.994751"/><path d="M203.16825 531.54263A.47625 .47625 0 00202.21575 531.54263A.47625 .47625 0 00203.16825 531.54263z" fill="rgba(85,0,170,.24705882)"/><path d="M259.29907 533.19045A.47625 .47625 0 00258.34657 533.19045A.47625 .47625 0 00259.29907 533.19045z" fill="rgba(56,0,198,.24705882)"/><path d="M844.11503 531.37117L850.6206 538.63875" style="fill:none;stroke:rgba(44,0,210,.24705882);stroke-width:.09525;stroke-miterlimit:41.994751"/><path d="M258.82282 533.19045L261.28027 533.49525" style="fill:none;stroke:rgba(32,0,222,.24705882);stroke-width:.09525;stroke-miterlimit:41.994751"/><path d="M261.75652 533.49525A.47625 .47625 0 00260.80402 533.49525A.47625 .47625 0 00261.75652 533.49525z" fill="rgba(8,0,246,.24705882)"/><path d="M261.28027 533.49525L265.01407 533.18093" style="fill:none;stroke:rgba(4,0,250,.24705882);stroke-width:.09525;stroke-miterlimit:41.994751"/><path d="M430.21567 531.63788A.47625 .47625 0 00429.26317 531.63788A.47625 .47625 0 00430.21567 531.63788z" fill="rgba(0,0,255,.24705882)"/><path d="M263.94727 536.53373H277.70137V526.11338H263.94727z" style="fill:rgba(0,0,255,.24705882);stroke:rgba(0,0,255,.24705882);stroke-width:.09525;stroke-miterlimit:41.994751"/><path d="M265.49032 533.18093A.47625 .47625 0 00264.53782 533.18093A.47625 .47625 0 00265.49032 533.18093z" fill="rgba(0,0,255,.24705882)"/><path d="M338.00415 531.55215A.47625 .47625 0 00337.05165 531.55215A.47625 .47625 0 00338.00415 531.55215z" fill="rgba(0,0,255,.24705882)"/><path d="M435.77827 531.46642A.47625 .47625 0 00434.82577 531.46642A.47625 .47625 0 00435.77827 531.46642z" fill="rgba(0,0,255,.24705882)"/><path d="M277.73947 537.39098H333.50835V525.5895H277.73947z" style="fill:rgba(0,0,255,.24705882);stroke:rgba(0,0,255,.24705882);stroke-width:.09525;stroke-miterlimit:41.994751"/><path d="M305.8668 531.5331A.47625 .47625 0 00304.9143 531.5331A.47625 .47625 0 00305.8668 531.5331z" fill="rgba(0,0,255,.24705882)"/><path d="M334.9371 531.4188A.47625 .47625 0 00333.9846 531.4188A.47625 .47625 0 00334.9371 531.4188z" fill="rgba(0,0,255,.24705882)"/><path d="M343.46197 531.495A.47625 .47625 0 00342.50948 531.495A.47625 .47625 0 00343.46197 531.495z" fill="rgba(0,0,255,.24705882)"/><path d="M522.45578 531.40928A.47625 .47625 0 00521.50327 531.40928A.47625 .47625 0 00522.45578 531.40928z" fill="rgba(0,0,255,.24705882)"/><path d="M438.78817 536.81948H520.31265V526.01813H438.78817z" style="fill:rgba(0,0,255,.24705882);stroke:rgba(0,0,255,.24705882);stroke-width:.09525;stroke-miterlimit:41.994751"/><path d="M471.95422 531.495A.47625 .47625 0 00471.00172 531.495A.47625 .47625 0 00471.95422 531.495z" fill="rgba(0,0,255,.24705882)"/><path d="M344.51925 536.97187H424.55782V525.69427H344.51925z" style="fill:rgba(0,0,255,.24705882);stroke:rgba(0,0,255,.24705882);stroke-width:.09525;stroke-miterlimit:41.994751"/><path d="M376.38037 531.63788A.47625 .47625 0 00375.42787 531.63788A.47625 .47625 0 00376.38037 531.63788z" fill="rgba(0,0,255,.24705882)"/><path d="M427.11052 531.65693A.47625 .47625 0 00426.15803 531.65693A.47625 .47625 0 00427.11052 531.65693z" fill="rgba(0,0,255,.24705882)"/><path d="M429.73942 531.63788L435.30202 531.46642" style="fill:none;stroke:rgba(0,0,255,.24705882);stroke-width:.09525;stroke-miterlimit:41.994751"/><path d="M375.90412 531.63788L426.63428 531.65693" style="fill:none;stroke:rgba(0,0,255,.24705882);stroke-width:.09525;stroke-miterlimit:41.994751"/><path d="M426.63428 531.65693L429.73942 531.63788" style="fill:none;stroke:rgba(0,0,255,.24705882);stroke-width:.09525;stroke-miterlimit:41.994751"/><path d="M334.46085 531.4188L337.5279 531.55215" style="fill:none;stroke:rgba(0,0,255,.24705882);stroke-width:.09525;stroke-miterlimit:41.994751"/><path d="M471.47797 531.495L521.97952 531.40928" style="fill:none;stroke:rgba(0,0,255,.24705882);stroke-width:.09525;stroke-miterlimit:41.994751"/><path d="M471.47797 531.495L435.30202 531.46642" style="fill:none;stroke:rgba(0,0,255,.24705882);stroke-width:.09525;stroke-miterlimit:41.994751"/><path d="M342.98573 531.495L375.90412 531.63788" style="fill:none;stroke:rgba(0,0,255,.24705882);stroke-width:.09525;stroke-miterlimit:41.994751"/><path d="M305.39055 531.5331L334.46085 531.4188" style="fill:none;stroke:rgba(0,0,255,.24705882);stroke-width:.09525;stroke-miterlimit:41.994751"/><path d="M337.5279 531.55215L342.98573 531.495" style="fill:none;stroke:rgba(0,0,255,.24705882);stroke-width:.09525;stroke-miterlimit:41.994751"/><path d="M265.01407 533.18093L305.39055 531.5331" style="fill:none;stroke:rgba(0,0,255,.24705882);stroke-width:.09525;stroke-miterlimit:41.994751"/><path d="M891.26378 531.09495A.47625 .47625 0 00890.31127 531.09495A.47625 .47625 0 00891.26378 531.09495z" fill="rgba(0,0,255,.24705882)"/><path d="M803.80523 537.03855H890.41605V525.78H803.80523z" style="fill:rgba(0,0,255,.24705882);stroke:rgba(0,0,255,.24705882);stroke-width:.09525;stroke-miterlimit:41.994751"/><path d="M844.59128 531.37117A.47625 .47625 0 00843.63878 531.37117A.47625 .47625 0 00844.59128 531.37117z" fill="rgba(0,0,255,.24705882)"/><path d="M844.11503 531.37117L890.78752 531.09495" style="fill:none;stroke:rgba(0,0,255,.24705882);stroke-width:.09525;stroke-miterlimit:41.994751"/></svg>