<svg version="1.1" width="176.9745mm" height="140.11275mm" viewBox="0 0 176.9745 140.11275" xmlns="http://www.w3.org/2000/svg" xmlns:xlink="http://www.w3.org/1999/xlink"><path d="M145.7325 88.773H147.6375" style="fill:none;stroke:#f00;stroke-width:.09525;stroke-miterlimit:41.994751"/><path d="M145.7325 88.773V86.868" style="fill:none;stroke:#0f0;stroke-width:.09525;stroke-miterlimit:41.994751"/><path d="M109.63275 58.293H176.68875V42.672H109.63275z" style="fill:rgba(255,0,0,.24705882);stroke:rgba(255,0,0,.24705882);stroke-width:.09525;stroke-miterlimit:41.994751"/><path d="M118.05285 49.43475A.47625 .47625 0 00117.10035 49.43475A.47625 .47625 0 00118.05285 49.43475z" fill="rgba(255,0,0,.24705882)"/><path d="M83.03895 136.54087A.47625 .47625 0 0082.08645 136.54087A.47625 .47625 0 0083.03895 136.54087z" fill="rgba(255,0,0,.24705882)"/><path d="M51.2445 66.646425H60.10275V42.672H51.2445z" style="fill:rgba(255,0,0,.24705882);stroke:rgba(255,0,0,.24705882);stroke-width:.09525;stroke-miterlimit:41.994751"/><path d="M55.083075 54.606825A.47625 .47625 0 0054.130575 54.606825A.47625 .47625 0 0055.083075 54.606825z" fill="rgba(255,0,0,.24705882)"/><path d="M151.41893 64.8081A.47625 .47625 0 00150.46643 64.8081A.47625 .47625 0 00151.41893 64.8081z" fill="rgba(255,0,0,.24705882)"/><path d="M100.36492 12.468225A.47625 .47625 0 0099.412425 12.468225A.47625 .47625 0 00100.36492 12.468225z" fill="rgba(255,0,0,.24705882)"/><path d="M51.2445 96.2025H60.10275V82.46745H51.2445z" style="fill:rgba(255,0,0,.24705882);stroke:rgba(255,0,0,.24705882);stroke-width:.09525;stroke-miterlimit:41.994751"/><path d="M56.0832 89.639775A.47625 .47625 0 0055.1307 89.639775A.47625 .47625 0 0056.0832 89.639775z" fill="rgba(255,0,0,.24705882)"/><path d="M99.564825 137.60768A.47625 .47625 0 0098.612325 137.60768A.47625 .47625 0 0099.564825 137.60768z" fill="rgba(255,0,0,.24705882)"/><path d="M.200025 66.646425H51.2445V42.672H.200025z" style="fill:rgba(255,0,0,.24705882);stroke:rgba(255,0,0,.24705882);stroke-width:.09525;stroke-miterlimit:41.994751"/><path d="M41.957625 55.26405A.47625 .47625 0 0041.005125 55.26405A.47625 .47625 0 0041.957625 55.26405z" fill="rgba(255,0,0,.24705882)"/><path d="M49.577625 114.80483A.47625 .47625 0 0048.625125 114.80483A.47625 .47625 0 0049.577625 114.80483z" fill="rgba(255,0,0,.24705882)"/><path d="M.200025 82.46745H51.2445V66.646425H.200025z" style="fill:rgba(255,0,0,.24705882);stroke:rgba(255,0,0,.24705882);stroke-width:.09525;stroke-miterlimit:41.994751"/><path d="M41.976675 74.23785A.47625 .47625 0 0041.024175 74.23785A.47625 .47625 0 0041.976675 74.23785z" fill="rgba(255,0,0,.24705882)"/><path d="M.200025 96.2025H51.2445V82.46745H.200025z" style="fill:rgba(255,0,0,.24705882);stroke:rgba(255,0,0,.24705882);stroke-width:.09525;stroke-miterlimit:41.994751"/><path d="M41.8719 91.659075A.47625 .47625 0 0040.9194 91.659075A.47625 .47625 0 0041.8719 91.659075z" fill="rgba(255,0,0,.24705882)"/><path d="M90.420825 139.827H109.63275V96.2025H90.420825z" style="fill:rgba(255,0,0,.24705882);stroke:rgba(255,0,0,.24705882);stroke-width:.09525;stroke-miterlimit:41.994751"/><path d="M99.72675 103.5558A.47625 .47625 0 0098.77425 103.5558A.47625 .47625 0 0099.72675 103.5558z" fill="rgba(255,0,0,.24705882)"/><path d="M.200025 139.827H60.10275V96.2025H.200025z" style="fill:rgba(255,0,0,.24705882);stroke:rgba(255,0,0,.24705882);stroke-width:.09525;stroke-miterlimit:41.994751"/><path d="M53.768625 102.58425A.47625 .47625 0 0052.816125 102.58425A.47625 .47625 0 0053.768625 102.58425z" fill="rgba(255,0,0,.24705882)"/><path d="M60.10275 139.827H76.25715V96.2025H60.10275z" style="fill:rgba(255,0,0,.24705882);stroke:rgba(255,0,0,.24705882);stroke-width:.09525;stroke-miterlimit:41.994751"/><path d="M68.760975 103.34625A.47625 .47625 0 0067.808475 103.34625A.47625 .47625 0 0068.760975 103.34625z" fill="rgba(255,0,0,.24705882)"/><path d="M76.342875 139.827H90.43035V96.2025H76.342875z" style="fill:rgba(255,0,0,.24705882);stroke:rgba(255,0,0,.24705882);stroke-width:.09525;stroke-miterlimit:41.994751"/><path d="M83.639025 103.38435A.47625 .47625 0 0082.686525 103.38435A.47625 .47625 0 0083.639025 103.38435z" fill="rgba(255,0,0,.24705882)"/><path d="M108.29925 66.294H111.4425V61.722H108.29925z" style="fill:rgba(255,0,0,.24705882);stroke:rgba(255,0,0,.24705882);stroke-width:.09525;stroke-miterlimit:41.994751"/><path d="M110.00423 63.979425A.47625 .47625 0 00109.05173 63.979425A.47625 .47625 0 00110.00423 63.979425z" fill="rgba(255,0,0,.24705882)"/><path d="M.200025 42.672H60.10275V.28575H.200025z" style="fill:rgba(255,0,0,.24705882);stroke:rgba(255,0,0,.24705882);stroke-width:.09525;stroke-miterlimit:41.994751"/><path d="M51.996975 36.3474A.47625 .47625 0 0051.044475 36.3474A.47625 .47625 0 0051.996975 36.3474z" fill="rgba(255,0,0,.24705882)"/><path d="M109.63275 139.827H176.68875V96.2025H109.63275z" style="fill:rgba(255,0,0,.24705882);stroke:rgba(255,0,0,.24705882);stroke-width:.09525;stroke-miterlimit:41.994751"/><path d="M117.6147 102.11753A.47625 .47625 0 00116.6622 102.11753A.47625 .47625 0 00117.6147 102.11753z" fill="rgba(255,0,0,.24705882)"/><path d="M109.63275 96.2025H176.68875V69.723H109.63275z" style="fill:rgba(255,0,0,.24705882);stroke:rgba(255,0,0,.24705882);stroke-width:.09525;stroke-miterlimit:41.994751"/><path d="M117.58613 83.19135A.47625 .47625 0 00116.63363 83.19135A.47625 .47625 0 00117.58613 83.19135z" fill="rgba(255,0,0,.24705882)"/><path d="M60.10275 42.672H109.63275V.28575H60.10275z" style="fill:rgba(255,0,0,.24705882);stroke:rgba(255,0,0,.24705882);stroke-width:.09525;stroke-miterlimit:41.994751"/><path d="M99.164775 34.11855A.47625 .47625 0 0098.212275 34.11855A.47625 .47625 0 0099.164775 34.11855z" fill="rgba(255,0,0,.24705882)"/><path d="M111.53775 69.723H176.68875V58.293H111.53775z" style="fill:rgba(255,0,0,.24705882);stroke:rgba(255,0,0,.24705882);stroke-width:.09525;stroke-miterlimit:41.994751"/><path d="M117.89093 64.246125A.47625 .47625 0 00116.93843 64.246125A.47625 .47625 0 00117.89093 64.246125z" fill="rgba(255,0,0,.24705882)"/><path d="M109.63275 42.672H176.68875V.28575H109.63275z" style="fill:rgba(255,0,0,.24705882);stroke:rgba(255,0,0,.24705882);stroke-width:.09525;stroke-miterlimit:41.994751"/><path d="M118.04333 35.52825A.47625 .47625 0 00117.09083 35.52825A.47625 .47625 0 00118.04333 35.52825z" fill="rgba(255,0,0,.24705882)"/><path d="M117.10988 83.19135L117.41468 64.246125" style="fill:none;stroke:rgba(255,0,0,.24705882);stroke-width:.09525;stroke-miterlimit:41.994751"/><path d="M68.284725 103.34625L53.292375 102.58425" style="fill:none;stroke:rgba(255,0,0,.24705882);stroke-width:.09525;stroke-miterlimit:41.994751"/><path d="M117.41468 64.246125L117.5766 49.43475" style="fill:none;stroke:rgba(255,0,0,.24705882);stroke-width:.09525;stroke-miterlimit:41.994751"/><path d="M117.41468 64.246125L109.52798 63.979425" style="fill:none;stroke:rgba(255,0,0,.24705882);stroke-width:.09525;stroke-miterlimit:41.994751"/><path d="M117.56708 35.52825L98.688525 34.11855" style="fill:none;stroke:rgba(255,0,0,.24705882);stroke-width:.09525;stroke-miterlimit:41.994751"/><path d="M150.94268 64.8081L117.41468 64.246125" style="fill:none;stroke:rgba(255,0,0,.24705882);stroke-width:.09525;stroke-miterlimit:41.994751"/><path d="M54.606825 54.606825L41.481375 55.26405" style="fill:none;stroke:rgba(255,0,0,.24705882);stroke-width:.09525;stroke-miterlimit:41.994751"/><path d="M98.688525 34.11855L99.888675 12.468225" style="fill:none;stroke:rgba(255,0,0,.24705882);stroke-width:.09525;stroke-miterlimit:41.994751"/><path d="M117.13845 102.11753L117.10988 83.19135" style="fill:none;stroke:rgba(255,0,0,.24705882);stroke-width:.09525;stroke-miterlimit:41.994751"/><path d="M98.688525 34.11855L51.520725 36.3474" style="fill:none;stroke:rgba(255,0,0,.24705882);stroke-width:.09525;stroke-miterlimit:41.994751"/><path d="M51.520725 36.3474L54.606825 54.606825" style="fill:none;stroke:rgba(255,0,0,.24705882);stroke-width:.09525;stroke-miterlimit:41.994751"/><path d="M49.101375 114.80482L53.292375 102.58425" style="fill:none;stroke:rgba(255,0,0,.24705882);stroke-width:.09525;stroke-miterlimit:41.994751"/><path d="M83.162775 103.38435L82.5627 136.54087" style="fill:none;stroke:rgba(255,0,0,.24705882);stroke-width:.09525;stroke-miterlimit:41.994751"/><path d="M83.162775 103.38435L68.284725 103.34625" style="fill:none;stroke:rgba(255,0,0,.24705882);stroke-width:.09525;stroke-miterlimit:41.994751"/><path d="M55.60695 89.639775L53.292375 102.58425" style="fill:none;stroke:rgba(255,0,0,.24705882);stroke-width:.09525;stroke-miterlimit:41.994751"/><path d="M99.088575 137.60768L99.2505 103.5558" style="fill:none;stroke:rgba(255,0,0,.24705882);stroke-width:.09525;stroke-miterlimit:41.994751"/><path d="M51.520725 36.3474L41.481375 55.26405" style="fill:none;stroke:rgba(255,0,0,.24705882);stroke-width:.09525;stroke-miterlimit:41.994751"/><path d="M117.5766 49.43475L117.56708 35.52825" style="fill:none;stroke:rgba(255,0,0,.24705882);stroke-width:.09525;stroke-miterlimit:41.994751"/><path d="M41.39565 91.659075L53.292375 102.58425" style="fill:none;stroke:rgba(255,0,0,.24705882);stroke-width:.09525;stroke-miterlimit:41.994751"/><path d="M41.39565 91.659075L55.60695 89.639775" style="fill:none;stroke:rgba(255,0,0,.24705882);stroke-width:.09525;stroke-miterlimit:41.994751"/><path d="M99.2505 103.5558L83.162775 103.38435" style="fill:none;stroke:rgba(255,0,0,.24705882);stroke-width:.09525;stroke-miterlimit:41.994751"/><path d="M41.500425 74.23785L41.39565 91.659075" style="fill:none;stroke:rgba(255,0,0,.24705882);stroke-width:.09525;stroke-miterlimit:41.994751"/><path d="M99.2505 103.5558L117.13845 102.11753" style="fill:none;stroke:rgba(255,0,0,.24705882);stroke-width:.09525;stroke-miterlimit:41.994751"/><path d="M41.481375 55.26405L41.500425 74.23785" style="fill:none;stroke:rgba(255,0,0,.24705882);stroke-width:.09525;stroke-miterlimit:41.994751"/><path d="M86.106 58.76925H108.10875V44.196H86.106z" style="fill:rgba(255,0,0,.24705882);stroke:rgba(255,0,0,.24705882);stroke-width:.09525;stroke-miterlimit:41.994751"/><path d="M96.0882 52.06365A.47625 .47625 0 0095.1357 52.06365A.47625 .47625 0 0096.0882 52.06365z" fill="rgba(255,0,0,.24705882)"/><path d="M69.62775 56.388H83.72475V44.196H69.62775z" style="fill:rgba(255,0,0,.24705882);stroke:rgba(255,0,0,.24705882);stroke-width:.09525;stroke-miterlimit:41.994751"/><path d="M73.980675 51.101625A.47625 .47625 0 0073.028175 51.101625A.47625 .47625 0 0073.980675 51.101625z" fill="rgba(255,0,0,.24705882)"/><path d="M61.62675 65.151H69.5325V58.76925H61.62675z" style="fill:rgba(255,0,0,.24705882);stroke:rgba(255,0,0,.24705882);stroke-width:.09525;stroke-miterlimit:41.994751"/><path d="M66.27495 61.8744A.47625 .47625 0 0065.32245 61.8744A.47625 .47625 0 0066.27495 61.8744z" fill="rgba(255,0,0,.24705882)"/><path d="M61.62675 56.388H69.62775V44.196H61.62675z" style="fill:rgba(255,0,0,.24705882);stroke:rgba(255,0,0,.24705882);stroke-width:.09525;stroke-miterlimit:41.994751"/><path d="M66.08445 50.834925A.47625 .47625 0 0065.13195 50.834925A.47625 .47625 0 0066.08445 50.834925z" fill="rgba(255,0,0,.24705882)"/><path d="M86.106 94.6785H108.10875V58.76925H86.106z" style="fill:rgba(255,0,0,.24705882);stroke:rgba(255,0,0,.24705882);stroke-width:.09525;stroke-miterlimit:41.994751"/><path d="M96.650175 65.66535A.47625 .47625 0 0095.697675 65.66535A.47625 .47625 0 0096.650175 65.66535z" fill="rgba(255,0,0,.24705882)"/><path d="M69.5325 81.81975H86.106V65.151H69.5325z" style="fill:rgba(255,0,0,.24705882);stroke:rgba(255,0,0,.24705882);stroke-width:.09525;stroke-miterlimit:41.994751"/><path d="M77.09535 75.142725A.47625 .47625 0 0076.14285 75.142725A.47625 .47625 0 0077.09535 75.142725z" fill="rgba(255,0,0,.24705882)"/><path d="M61.62675 94.6785H68.58V83.2485H61.62675z" style="fill:rgba(255,0,0,.24705882);stroke:rgba(255,0,0,.24705882);stroke-width:.09525;stroke-miterlimit:41.994751"/><path d="M65.7225 86.96325A.47625 .47625 0 0064.77 86.96325A.47625 .47625 0 0065.7225 86.96325z" fill="rgba(255,0,0,.24705882)"/><path d="M69.6468 86.6775A.47625 .47625 0 0068.6943 86.6775A.47625 .47625 0 0069.6468 86.6775z" fill="rgba(255,0,0,.24705882)"/><path d="M66.04635 57.6072A.47625 .47625 0 0065.09385 57.6072A.47625 .47625 0 0066.04635 57.6072z" fill="rgba(255,0,0,.24705882)"/><path d="M69.5325 94.6785H86.106V81.915H69.5325z" style="fill:rgba(255,0,0,.24705882);stroke:rgba(255,0,0,.24705882);stroke-width:.09525;stroke-miterlimit:41.994751"/><path d="M78.00975 86.1441A.47625 .47625 0 0077.05725 86.1441A.47625 .47625 0 0078.00975 86.1441z" fill="rgba(255,0,0,.24705882)"/><path d="M69.5325 65.151H86.106V58.76925H69.5325z" style="fill:rgba(255,0,0,.24705882);stroke:rgba(255,0,0,.24705882);stroke-width:.09525;stroke-miterlimit:41.994751"/><path d="M75.6666 62.19825A.47625 .47625 0 0074.7141 62.19825A.47625 .47625 0 0075.6666 62.19825z" fill="rgba(255,0,0,.24705882)"/><path d="M75.19035 62.19825L65.7987 61.8744" style="fill:none;stroke:rgba(255,0,0,.24705882);stroke-width:.09525;stroke-miterlimit:41.994751"/><path d="M75.19035 62.19825L96.173925 65.66535" style="fill:none;stroke:rgba(255,0,0,.24705882);stroke-width:.09525;stroke-miterlimit:41.994751"/><path d="M65.6082 50.834925L73.504425 51.101625" style="fill:none;stroke:rgba(255,0,0,.24705882);stroke-width:.09525;stroke-miterlimit:41.994751"/><path d="M96.173925 65.66535L77.5335 86.1441" style="fill:none;stroke:rgba(255,0,0,.24705882);stroke-width:.09525;stroke-miterlimit:41.994751"/><path d="M75.19035 62.19825L76.6191 75.142725" style="fill:none;stroke:rgba(255,0,0,.24705882);stroke-width:.09525;stroke-miterlimit:41.994751"/><path d="M65.7987 61.8744L65.5701 57.6072" style="fill:none;stroke:rgba(255,0,0,.24705882);stroke-width:.09525;stroke-miterlimit:41.994751"/><path d="M76.6191 75.142725L96.173925 65.66535" style="fill:none;stroke:rgba(255,0,0,.24705882);stroke-width:.09525;stroke-miterlimit:41.994751"/><path d="M95.61195 52.06365L96.173925 65.66535" style="fill:none;stroke:rgba(255,0,0,.24705882);stroke-width:.09525;stroke-miterlimit:41.994751"/><path d="M65.5701 57.6072L65.6082 50.834925" style="fill:none;stroke:rgba(255,0,0,.24705882);stroke-width:.09525;stroke-miterlimit:41.994751"/><path d="M69.17055 86.6775L77.5335 86.1441" style="fill:none;stroke:rgba(255,0,0,.24705882);stroke-width:.09525;stroke-miterlimit:41.994751"/><path d="M65.24625 86.96325L69.17055 86.6775" style="fill:none;stroke:rgba(255,0,0,.24705882);stroke-width:.09525;stroke-miterlimit:41.994751"/><path d="M76.6191 75.142725L77.5335 86.1441" style="fill:none;stroke:rgba(255,0,0,.24705882);stroke-width:.09525;stroke-miterlimit:41.994751"/><path d="M84.25815 95.564325L83.162775 103.38435" style="fill:none;stroke:rgba(250,0,4,.24705882);stroke-width:.09525;stroke-miterlimit:41.994751"/><path d="M84.25815 95.564325L77.5335 86.1441" style="fill:none;stroke:rgba(250,0,4,.24705882);stroke-width:.09525;stroke-miterlimit:41.994751"/><path d="M96.173925 65.66535L84.25815 95.564325" style="fill:none;stroke:rgba(250,0,4,.24705882);stroke-width:.09525;stroke-miterlimit:41.994751"/><path d="M65.7987 61.8744L65.503425 67.5513" style="fill:none;stroke:rgba(246,0,4,.24705882);stroke-width:.09525;stroke-miterlimit:41.994751"/><path d="M95.61195 52.06365L84.705825 50.5587" style="fill:none;stroke:rgba(246,0,8,.24705882);stroke-width:.09525;stroke-miterlimit:41.994751"/><path d="M84.705825 50.5587L73.504425 51.101625" style="fill:none;stroke:rgba(246,0,8,.24705882);stroke-width:.09525;stroke-miterlimit:41.994751"/><path d="M74.2569 57.43575L65.6082 50.834925" style="fill:none;stroke:rgba(246,0,8,.24705882);stroke-width:.09525;stroke-miterlimit:41.994751"/><path d="M74.2569 57.43575L73.504425 51.101625" style="fill:none;stroke:rgba(246,0,8,.24705882);stroke-width:.09525;stroke-miterlimit:41.994751"/><path d="M74.2569 57.43575L65.7987 61.8744" style="fill:none;stroke:rgba(246,0,8,.24705882);stroke-width:.09525;stroke-miterlimit:41.994751"/><path d="M75.19035 62.19825L74.2569 57.43575" style="fill:none;stroke:rgba(246,0,8,.24705882);stroke-width:.09525;stroke-miterlimit:41.994751"/><path d="M74.2569 57.43575L65.5701 57.6072" style="fill:none;stroke:rgba(246,0,8,.24705882);stroke-width:.09525;stroke-miterlimit:41.994751"/><path d="M95.61195 52.06365L84.1629 56.9214" style="fill:none;stroke:rgba(246,0,8,.24705882);stroke-width:.09525;stroke-miterlimit:41.994751"/><path d="M84.1629 56.9214L96.173925 65.66535" style="fill:none;stroke:rgba(246,0,8,.24705882);stroke-width:.09525;stroke-miterlimit:41.994751"/><path d="M84.1629 56.9214L73.504425 51.101625" style="fill:none;stroke:rgba(246,0,8,.24705882);stroke-width:.09525;stroke-miterlimit:41.994751"/><path d="M84.1629 56.9214L75.19035 62.19825" style="fill:none;stroke:rgba(246,0,8,.24705882);stroke-width:.09525;stroke-miterlimit:41.994751"/><path d="M84.7344 95.564325A.47625 .47625 0 0083.7819 95.564325A.47625 .47625 0 0084.7344 95.564325z" fill="rgba(246,0,8,.24705882)"/><path d="M61.62675 68.437125H69.4563V66.80835H61.62675z" style="fill:rgba(238,0,12,.24705882);stroke:rgba(238,0,12,.24705882);stroke-width:.09525;stroke-miterlimit:41.994751"/><path d="M65.979675 67.5513A.47625 .47625 0 0065.027175 67.5513A.47625 .47625 0 0065.979675 67.5513z" fill="rgba(238,0,12,.24705882)"/><path d="M83.72475 56.388H86.106V44.196H83.72475z" style="fill:rgba(234,0,20,.24705882);stroke:rgba(234,0,20,.24705882);stroke-width:.09525;stroke-miterlimit:41.994751"/><path d="M85.182075 50.5587A.47625 .47625 0 0084.229575 50.5587A.47625 .47625 0 0085.182075 50.5587z" fill="rgba(234,0,20,.24705882)"/><path d="M69.62775 58.76925H83.72475V56.388H69.62775z" style="fill:rgba(234,0,20,.24705882);stroke:rgba(234,0,20,.24705882);stroke-width:.09525;stroke-miterlimit:41.994751"/><path d="M74.73315 57.43575A.47625 .47625 0 0073.78065 57.43575A.47625 .47625 0 0074.73315 57.43575z" fill="rgba(234,0,20,.24705882)"/><path d="M83.72475 58.76925H86.106V56.388H83.72475z" style="fill:rgba(234,0,20,.24705882);stroke:rgba(234,0,20,.24705882);stroke-width:.09525;stroke-miterlimit:41.994751"/><path d="M84.63915 56.9214A.47625 .47625 0 0083.68665 56.9214A.47625 .47625 0 0084.63915 56.9214z" fill="rgba(234,0,20,.24705882)"/><path d="M84.1629 56.9214L74.2569 57.43575" style="fill:none;stroke:rgba(234,0,20,.24705882);stroke-width:.09525;stroke-miterlimit:41.994751"/><path d="M84.705825 50.5587L84.1629 56.9214" style="fill:none;stroke:rgba(234,0,20,.24705882);stroke-width:.09525;stroke-miterlimit:41.994751"/><path d="M65.503425 67.5513L65.8749 70.80885" style="fill:none;stroke:rgba(230,0,20,.24705882);stroke-width:.09525;stroke-miterlimit:41.994751"/><path d="M49.101375 114.80482L52.71135 78.69555" style="fill:none;stroke:rgba(226,0,28,.24705882);stroke-width:.09525;stroke-miterlimit:41.994751"/><path d="M61.62675 71.732775H69.51345V70.094475H61.62675z" style="fill:rgba(226,0,28,.24705882);stroke:rgba(226,0,28,.24705882);stroke-width:.09525;stroke-miterlimit:41.994751"/><path d="M66.35115 70.80885A.47625 .47625 0 0065.39865 70.80885A.47625 .47625 0 0066.35115 70.80885z" fill="rgba(226,0,28,.24705882)"/><path d="M65.8749 70.80885L66.093975 74.094975" style="fill:none;stroke:rgba(218,0,36,.24705882);stroke-width:.09525;stroke-miterlimit:41.994751"/><path d="M61.62675 75.0189H69.522975V73.3806H61.62675z" style="fill:rgba(210,0,44,.24705882);stroke:rgba(210,0,44,.24705882);stroke-width:.09525;stroke-miterlimit:41.994751"/><path d="M66.570225 74.094975A.47625 .47625 0 0065.617725 74.094975A.47625 .47625 0 0066.570225 74.094975z" fill="rgba(210,0,44,.24705882)"/><path d="M99.888675 12.468225L97.831275 41.4528" style="fill:none;stroke:rgba(202,0,52,.24705882);stroke-width:.09525;stroke-miterlimit:41.994751"/><path d="M99.088575 137.60768L98.136075 97.8408" style="fill:none;stroke:rgba(202,0,52,.24705882);stroke-width:.09525;stroke-miterlimit:41.994751"/><path d="M66.093975 74.094975L66.50355 77.40015" style="fill:none;stroke:rgba(202,0,52,.24705882);stroke-width:.09525;stroke-miterlimit:41.994751"/><path d="M82.5627 136.54087L83.524725 97.545525" style="fill:none;stroke:rgba(202,0,52,.24705882);stroke-width:.09525;stroke-miterlimit:41.994751"/><path d="M53.006625 76.533375A.47625 .47625 0 0052.054125 76.533375A.47625 .47625 0 0053.006625 76.533375z" fill="rgba(202,0,52,.24705882)"/><path d="M52.71135 78.69555L52.530375 76.533375" style="fill:none;stroke:rgba(198,0,56,.24705882);stroke-width:.09525;stroke-miterlimit:41.994751"/><path d="M51.2445 82.46745H60.10275V66.646425H51.2445z" style="fill:rgba(194,0,60,.24705882);stroke:rgba(194,0,60,.24705882);stroke-width:.09525;stroke-miterlimit:41.994751"/><path d="M53.1876 78.69555A.47625 .47625 0 0052.2351 78.69555A.47625 .47625 0 0053.1876 78.69555z" fill="rgba(194,0,60,.24705882)"/><path d="M61.62675 78.305025H69.51345V76.67625H61.62675z" style="fill:rgba(194,0,60,.24705882);stroke:rgba(194,0,60,.24705882);stroke-width:.09525;stroke-miterlimit:41.994751"/><path d="M66.9798 77.40015A.47625 .47625 0 0066.0273 77.40015A.47625 .47625 0 0066.9798 77.40015z" fill="rgba(194,0,60,.24705882)"/><path d="M66.50355 77.40015L66.151125 80.772" style="fill:none;stroke:rgba(186,0,68,.24705882);stroke-width:.09525;stroke-miterlimit:41.994751"/><path d="M150.94268 64.8081L115.4811 64.188975" style="fill:none;stroke:rgba(182,0,72,.24705882);stroke-width:.09525;stroke-miterlimit:41.994751"/><path d="M61.62675 81.600675H69.503925V79.9719H61.62675z" style="fill:rgba(178,0,76,.24705882);stroke:rgba(178,0,76,.24705882);stroke-width:.09525;stroke-miterlimit:41.994751"/><path d="M66.627375 80.772A.47625 .47625 0 0065.674875 80.772A.47625 .47625 0 0066.627375 80.772z" fill="rgba(178,0,76,.24705882)"/><path d="M66.151125 80.772L65.522475 88.477725" style="fill:none;stroke:rgba(174,0,80,.24705882);stroke-width:.09525;stroke-miterlimit:41.994751"/><path d="M61.62675 56.388H86.01075V44.196H61.62675z" style="fill:rgba(170,0,85,.24705882);stroke:rgba(170,0,85,.24705882);stroke-width:.09525;stroke-miterlimit:41.994751"/><path d="M73.999725 51.920775A.47625 .47625 0 0073.047225 51.920775A.47625 .47625 0 0073.999725 51.920775z" fill="rgba(170,0,85,.24705882)"/><path d="M61.62675 65.62725H68.0085V57.3405H61.62675z" style="fill:rgba(170,0,85,.24705882);stroke:rgba(170,0,85,.24705882);stroke-width:.09525;stroke-miterlimit:41.994751"/><path d="M65.51295 61.66485A.47625 .47625 0 0064.56045 61.66485A.47625 .47625 0 0065.51295 61.66485z" fill="rgba(170,0,85,.24705882)"/><path d="M93.259275 57.216675A.47625 .47625 0 0092.306775 57.216675A.47625 .47625 0 0093.259275 57.216675z" fill="rgba(170,0,85,.24705882)"/><path d="M69.81825 94.6785H108.10875V57.3405H69.81825z" style="fill:rgba(170,0,85,.24705882);stroke:rgba(170,0,85,.24705882);stroke-width:.09525;stroke-miterlimit:41.994751"/><path d="M91.7829 69.32295A.47625 .47625 0 0090.8304 69.32295A.47625 .47625 0 0091.7829 69.32295z" fill="rgba(170,0,85,.24705882)"/><path d="M87.048975 88.553925A.47625 .47625 0 0086.096475 88.553925A.47625 .47625 0 0087.048975 88.553925z" fill="rgba(170,0,85,.24705882)"/><path d="M75.0189 57.0738A.47625 .47625 0 0074.0664 57.0738A.47625 .47625 0 0075.0189 57.0738z" fill="rgba(170,0,85,.24705882)"/><path d="M86.96325 49.006125H91.1352V44.196H86.96325z" style="fill:rgba(170,0,85,.24705882);stroke:rgba(170,0,85,.24705882);stroke-width:.09525;stroke-miterlimit:41.994751"/><path d="M89.916 46.396275A.47625 .47625 0 0088.9635 46.396275A.47625 .47625 0 0089.916 46.396275z" fill="rgba(170,0,85,.24705882)"/><path d="M86.96325 53.35905H91.19235V50.19675H86.96325z" style="fill:rgba(170,0,85,.24705882);stroke:rgba(170,0,85,.24705882);stroke-width:.09525;stroke-miterlimit:41.994751"/><path d="M89.030175 51.5874A.47625 .47625 0 0088.077675 51.5874A.47625 .47625 0 0089.030175 51.5874z" fill="rgba(170,0,85,.24705882)"/><path d="M61.62675 94.6785H69.5325V81.6102H61.62675z" style="fill:rgba(170,0,85,.24705882);stroke:rgba(170,0,85,.24705882);stroke-width:.09525;stroke-miterlimit:41.994751"/><path d="M65.998725 88.477725A.47625 .47625 0 0065.046225 88.477725A.47625 .47625 0 0065.998725 88.477725z" fill="rgba(170,0,85,.24705882)"/><path d="M69.24675 61.617225A.47625 .47625 0 0068.29425 61.617225A.47625 .47625 0 0069.24675 61.617225z" fill="rgba(170,0,85,.24705882)"/><path d="M91.297125 56.9214H108.10875V44.196H91.297125z" style="fill:rgba(170,0,85,.24705882);stroke:rgba(170,0,85,.24705882);stroke-width:.09525;stroke-miterlimit:41.994751"/><path d="M92.554425 51.9303A.47625 .47625 0 0091.601925 51.9303A.47625 .47625 0 0092.554425 51.9303z" fill="rgba(170,0,85,.24705882)"/><path d="M70.151625 89.087325A.47625 .47625 0 0069.199125 89.087325A.47625 .47625 0 0070.151625 89.087325z" fill="rgba(170,0,85,.24705882)"/><path d="M86.96325 57.3405H91.2495V54.625875H86.96325z" style="fill:rgba(170,0,85,.24705882);stroke:rgba(170,0,85,.24705882);stroke-width:.09525;stroke-miterlimit:41.994751"/><path d="M90.12555 55.921275A.47625 .47625 0 0089.17305 55.921275A.47625 .47625 0 0090.12555 55.921275z" fill="rgba(170,0,85,.24705882)"/><path d="M69.675375 89.087325L91.30665 69.32295" style="fill:none;stroke:rgba(170,0,85,.24705882);stroke-width:.09525;stroke-miterlimit:41.994751"/><path d="M65.522475 88.477725L69.675375 89.087325" style="fill:none;stroke:rgba(170,0,85,.24705882);stroke-width:.09525;stroke-miterlimit:41.994751"/><path d="M68.7705 61.617225L91.30665 69.32295" style="fill:none;stroke:rgba(170,0,85,.24705882);stroke-width:.09525;stroke-miterlimit:41.994751"/><path d="M68.7705 61.617225L65.0367 61.66485" style="fill:none;stroke:rgba(170,0,85,.24705882);stroke-width:.09525;stroke-miterlimit:41.994751"/><path d="M91.30665 69.32295L74.54265 57.0738" style="fill:none;stroke:rgba(170,0,85,.24705882);stroke-width:.09525;stroke-miterlimit:41.994751"/><path d="M92.078175 51.9303L88.553925 51.5874" style="fill:none;stroke:rgba(170,0,85,.24705882);stroke-width:.09525;stroke-miterlimit:41.994751"/><path d="M92.078175 51.9303L92.783025 57.216675" style="fill:none;stroke:rgba(170,0,85,.24705882);stroke-width:.09525;stroke-miterlimit:41.994751"/><path d="M74.54265 57.0738L68.7705 61.617225" style="fill:none;stroke:rgba(170,0,85,.24705882);stroke-width:.09525;stroke-miterlimit:41.994751"/><path d="M91.30665 69.32295L86.572725 88.553925" style="fill:none;stroke:rgba(170,0,85,.24705882);stroke-width:.09525;stroke-miterlimit:41.994751"/><path d="M89.6493 55.921275L92.078175 51.9303" style="fill:none;stroke:rgba(170,0,85,.24705882);stroke-width:.09525;stroke-miterlimit:41.994751"/><path d="M74.54265 57.0738L73.523475 51.920775" style="fill:none;stroke:rgba(170,0,85,.24705882);stroke-width:.09525;stroke-miterlimit:41.994751"/><path d="M92.783025 57.216675L91.30665 69.32295" style="fill:none;stroke:rgba(170,0,85,.24705882);stroke-width:.09525;stroke-miterlimit:41.994751"/><path d="M92.078175 51.9303L89.43975 46.396275" style="fill:none;stroke:rgba(170,0,85,.24705882);stroke-width:.09525;stroke-miterlimit:41.994751"/><path d="M89.6493 55.921275L91.30665 69.32295" style="fill:none;stroke:rgba(170,0,85,.24705882);stroke-width:.09525;stroke-miterlimit:41.994751"/><path d="M91.30665 69.32295L83.600925 95.316675" style="fill:none;stroke:rgba(157,0,93,.24705882);stroke-width:.09525;stroke-miterlimit:41.994751"/><path d="M98.20275 95.19285L91.30665 69.32295" style="fill:none;stroke:rgba(157,0,93,.24705882);stroke-width:.09525;stroke-miterlimit:41.994751"/><path d="M98.1456 43.7007L92.078175 51.9303" style="fill:none;stroke:rgba(157,0,93,.24705882);stroke-width:.09525;stroke-miterlimit:41.994751"/><path d="M98.679 95.19285A.47625 .47625 0 0097.7265 95.19285A.47625 .47625 0 0098.679 95.19285z" fill="rgba(149,0,105,.24705882)"/><path d="M84.077175 95.316675A.47625 .47625 0 0083.124675 95.316675A.47625 .47625 0 0084.077175 95.316675z" fill="rgba(149,0,105,.24705882)"/><path d="M98.612325 97.8408A.47625 .47625 0 0097.659825 97.8408A.47625 .47625 0 0098.612325 97.8408z" fill="rgba(149,0,105,.24705882)"/><path d="M98.307525 41.4528A.47625 .47625 0 0097.355025 41.4528A.47625 .47625 0 0098.307525 41.4528z" fill="rgba(149,0,105,.24705882)"/><path d="M98.136075 97.8408L98.20275 95.19285" style="fill:none;stroke:rgba(149,0,105,.24705882);stroke-width:.09525;stroke-miterlimit:41.994751"/><path d="M97.831275 41.4528L98.1456 43.7007" style="fill:none;stroke:rgba(149,0,105,.24705882);stroke-width:.09525;stroke-miterlimit:41.994751"/><path d="M98.62185 43.7007A.47625 .47625 0 0097.66935 43.7007A.47625 .47625 0 0098.62185 43.7007z" fill="rgba(145,0,105,.24705882)"/><path d="M83.524725 97.545525L83.600925 95.316675" style="fill:none;stroke:rgba(145,0,105,.24705882);stroke-width:.09525;stroke-miterlimit:41.994751"/><path d="M84.000975 97.545525A.47625 .47625 0 0083.048475 97.545525A.47625 .47625 0 0084.000975 97.545525z" fill="rgba(145,0,105,.24705882)"/><path d="M52.530375 76.533375L60.836175 78.819375" style="fill:none;stroke:rgba(145,0,109,.24705882);stroke-width:.09525;stroke-miterlimit:41.994751"/><path d="M88.553925 51.5874L87.91575 51.787425" style="fill:none;stroke:rgba(133,0,117,.24705882);stroke-width:.09525;stroke-miterlimit:41.994751"/><path d="M86.572725 88.553925L81.0387 57.3405" style="fill:none;stroke:rgba(129,0,125,.24705882);stroke-width:.09525;stroke-miterlimit:41.994751"/><path d="M92.783025 57.216675L85.696425 81.915" style="fill:none;stroke:rgba(129,0,125,.24705882);stroke-width:.09525;stroke-miterlimit:41.994751"/><path d="M115.95735 64.188975A.47625 .47625 0 00115.00485 64.188975A.47625 .47625 0 00115.95735 64.188975z" fill="rgba(109,0,145,.24705882)"/><path d="M115.4811 64.188975L112.6617 63.95085" style="fill:none;stroke:rgba(105,0,145,.24705882);stroke-width:.09525;stroke-miterlimit:41.994751"/><path d="M113.13795 63.95085A.47625 .47625 0 00112.18545 63.95085A.47625 .47625 0 00113.13795 63.95085z" fill="rgba(105,0,145,.24705882)"/><path d="M73.332975 84.3915H75.142725V81.943575H73.332975z" style="fill:rgba(101,0,153,.24705882);stroke:rgba(101,0,153,.24705882);stroke-width:.09525;stroke-miterlimit:41.994751"/><path d="M75.41895 82.743675A.47625 .47625 0 0074.46645 82.743675A.47625 .47625 0 0075.41895 82.743675z" fill="rgba(101,0,153,.24705882)"/><path d="M96.10725 84.3915H99.1743V81.924525H96.10725z" style="fill:rgba(101,0,153,.24705882);stroke:rgba(101,0,153,.24705882);stroke-width:.09525;stroke-miterlimit:41.994751"/><path d="M99.0219 82.31505A.47625 .47625 0 0098.0694 82.31505A.47625 .47625 0 0099.0219 82.31505z" fill="rgba(101,0,153,.24705882)"/><path d="M75.15225 49.911H94.488V44.196H75.15225z" style="fill:rgba(101,0,153,.24705882);stroke:rgba(101,0,153,.24705882);stroke-width:.09525;stroke-miterlimit:41.994751"/><path d="M80.629125 47.2821A.47625 .47625 0 0079.676625 47.2821A.47625 .47625 0 0080.629125 47.2821z" fill="rgba(101,0,153,.24705882)"/><path d="M62.7888 52.29225H73.7235V44.196H62.7888z" style="fill:rgba(101,0,153,.24705882);stroke:rgba(101,0,153,.24705882);stroke-width:.09525;stroke-miterlimit:41.994751"/><path d="M68.951475 47.8536A.47625 .47625 0 0067.998975 47.8536A.47625 .47625 0 0068.951475 47.8536z" fill="rgba(101,0,153,.24705882)"/><path d="M71.8185 58.3692H73.828275V53.721H71.8185z" style="fill:rgba(101,0,153,.24705882);stroke:rgba(101,0,153,.24705882);stroke-width:.09525;stroke-miterlimit:41.994751"/><path d="M73.1139 56.721375A.47625 .47625 0 0072.1614 56.721375A.47625 .47625 0 0073.1139 56.721375z" fill="rgba(101,0,153,.24705882)"/><path d="M75.15225 53.54955H81.829275V50.00625H75.15225z" style="fill:rgba(101,0,153,.24705882);stroke:rgba(101,0,153,.24705882);stroke-width:.09525;stroke-miterlimit:41.994751"/><path d="M79.086075 52.911375A.47625 .47625 0 0078.133575 52.911375A.47625 .47625 0 0079.086075 52.911375z" fill="rgba(101,0,153,.24705882)"/><path d="M75.15225 57.3405H94.488V53.721H75.15225z" style="fill:rgba(101,0,153,.24705882);stroke:rgba(101,0,153,.24705882);stroke-width:.09525;stroke-miterlimit:41.994751"/><path d="M81.276825 55.406925A.47625 .47625 0 0080.324325 55.406925A.47625 .47625 0 0081.276825 55.406925z" fill="rgba(101,0,153,.24705882)"/><path d="M94.488 57.39765H96.421575V53.721H94.488z" style="fill:rgba(101,0,153,.24705882);stroke:rgba(101,0,153,.24705882);stroke-width:.09525;stroke-miterlimit:41.994751"/><path d="M95.145225 55.72125A.47625 .47625 0 0094.192725 55.72125A.47625 .47625 0 0095.145225 55.72125z" fill="rgba(101,0,153,.24705882)"/><path d="M86.96325 53.721H92.3925V49.911H86.96325z" style="fill:rgba(101,0,153,.24705882);stroke:rgba(101,0,153,.24705882);stroke-width:.09525;stroke-miterlimit:41.994751"/><path d="M88.392 51.787425A.47625 .47625 0 0087.4395 51.787425A.47625 .47625 0 0088.392 51.787425z" fill="rgba(101,0,153,.24705882)"/><path d="M99.2505 84.3915H106.01325V53.721H99.2505z" style="fill:rgba(101,0,153,.24705882);stroke:rgba(101,0,153,.24705882);stroke-width:.09525;stroke-miterlimit:41.994751"/><path d="M101.32695 70.075425A.47625 .47625 0 00100.37445 70.075425A.47625 .47625 0 00101.32695 70.075425z" fill="rgba(101,0,153,.24705882)"/><path d="M95.91675 94.6785H105.51795V85.725H95.91675z" style="fill:rgba(101,0,153,.24705882);stroke:rgba(101,0,153,.24705882);stroke-width:.09525;stroke-miterlimit:41.994751"/><path d="M101.0412 88.973025A.47625 .47625 0 00100.0887 88.973025A.47625 .47625 0 00101.0412 88.973025z" fill="rgba(101,0,153,.24705882)"/><path d="M75.15225 94.6785H94.488V81.915H75.15225z" style="fill:rgba(101,0,153,.24705882);stroke:rgba(101,0,153,.24705882);stroke-width:.09525;stroke-miterlimit:41.994751"/><path d="M85.486875 89.392125A.47625 .47625 0 0084.534375 89.392125A.47625 .47625 0 0085.486875 89.392125z" fill="rgba(101,0,153,.24705882)"/><path d="M80.857725 77.1906H94.021275V63.627H80.857725z" style="fill:rgba(101,0,153,.24705882);stroke:rgba(101,0,153,.24705882);stroke-width:.09525;stroke-miterlimit:41.994751"/><path d="M85.658325 69.789675A.47625 .47625 0 0084.705825 69.789675A.47625 .47625 0 0085.658325 69.789675z" fill="rgba(101,0,153,.24705882)"/><path d="M95.91675 52.29225H106.4895V44.196H95.91675z" style="fill:rgba(101,0,153,.24705882);stroke:rgba(101,0,153,.24705882);stroke-width:.09525;stroke-miterlimit:41.994751"/><path d="M102.96525 47.329725A.47625 .47625 0 00102.01275 47.329725A.47625 .47625 0 00102.96525 47.329725z" fill="rgba(101,0,153,.24705882)"/><path d="M62.9031 94.6785H73.7235V85.725H62.9031z" style="fill:rgba(101,0,153,.24705882);stroke:rgba(101,0,153,.24705882);stroke-width:.09525;stroke-miterlimit:41.994751"/><path d="M70.323075 88.98255A.47625 .47625 0 0069.370575 88.98255A.47625 .47625 0 0070.323075 88.98255z" fill="rgba(101,0,153,.24705882)"/><path d="M94.488 84.3915H96.078675V81.905475H94.488z" style="fill:rgba(101,0,153,.24705882);stroke:rgba(101,0,153,.24705882);stroke-width:.09525;stroke-miterlimit:41.994751"/><path d="M95.049975 83.07705A.47625 .47625 0 0094.097475 83.07705A.47625 .47625 0 0095.049975 83.07705z" fill="rgba(101,0,153,.24705882)"/><path d="M71.7804 84.3915H73.275825V81.915H71.7804z" style="fill:rgba(101,0,153,.24705882);stroke:rgba(101,0,153,.24705882);stroke-width:.09525;stroke-miterlimit:41.994751"/><path d="M72.8091 82.54365A.47625 .47625 0 0071.8566 82.54365A.47625 .47625 0 0072.8091 82.54365z" fill="rgba(101,0,153,.24705882)"/><path d="M96.60255 57.35955H99.19335V53.721H96.60255z" style="fill:rgba(101,0,153,.24705882);stroke:rgba(101,0,153,.24705882);stroke-width:.09525;stroke-miterlimit:41.994751"/><path d="M99.0219 56.778525A.47625 .47625 0 0098.0694 56.778525A.47625 .47625 0 0099.0219 56.778525z" fill="rgba(101,0,153,.24705882)"/><path d="M81.85785 53.721H86.325075V49.911H81.85785z" style="fill:rgba(101,0,153,.24705882);stroke:rgba(101,0,153,.24705882);stroke-width:.09525;stroke-miterlimit:41.994751"/><path d="M83.5914 51.9684A.47625 .47625 0 0082.6389 51.9684A.47625 .47625 0 0083.5914 51.9684z" fill="rgba(101,0,153,.24705882)"/><path d="M63.274575 84.3915H71.8185V53.721H63.274575z" style="fill:rgba(101,0,153,.24705882);stroke:rgba(101,0,153,.24705882);stroke-width:.09525;stroke-miterlimit:41.994751"/><path d="M70.1802 70.1802A.47625 .47625 0 0069.2277 70.1802A.47625 .47625 0 0070.1802 70.1802z" fill="rgba(101,0,153,.24705882)"/><path d="M74.9427 82.743675L85.010625 89.392125" style="fill:none;stroke:rgba(101,0,153,.24705882);stroke-width:.09525;stroke-miterlimit:41.994751"/><path d="M94.668975 55.72125L80.800575 55.406925" style="fill:none;stroke:rgba(101,0,153,.24705882);stroke-width:.09525;stroke-miterlimit:41.994751"/><path d="M72.33285 82.54365L74.9427 82.743675" style="fill:none;stroke:rgba(101,0,153,.24705882);stroke-width:.09525;stroke-miterlimit:41.994751"/><path d="M98.54565 56.778525L94.668975 55.72125" style="fill:none;stroke:rgba(101,0,153,.24705882);stroke-width:.09525;stroke-miterlimit:41.994751"/><path d="M69.70395 70.1802L69.846825 88.98255" style="fill:none;stroke:rgba(101,0,153,.24705882);stroke-width:.09525;stroke-miterlimit:41.994751"/><path d="M69.70395 70.1802L72.33285 82.54365" style="fill:none;stroke:rgba(101,0,153,.24705882);stroke-width:.09525;stroke-miterlimit:41.994751"/><path d="M94.573725 83.07705L98.54565 82.31505" style="fill:none;stroke:rgba(101,0,153,.24705882);stroke-width:.09525;stroke-miterlimit:41.994751"/><path d="M69.846825 88.98255L85.010625 89.392125" style="fill:none;stroke:rgba(101,0,153,.24705882);stroke-width:.09525;stroke-miterlimit:41.994751"/><path d="M85.182075 69.789675L69.70395 70.1802" style="fill:none;stroke:rgba(101,0,153,.24705882);stroke-width:.09525;stroke-miterlimit:41.994751"/><path d="M85.010625 89.392125L100.56495 88.973025" style="fill:none;stroke:rgba(101,0,153,.24705882);stroke-width:.09525;stroke-miterlimit:41.994751"/><path d="M85.010625 89.392125L94.573725 83.07705" style="fill:none;stroke:rgba(101,0,153,.24705882);stroke-width:.09525;stroke-miterlimit:41.994751"/><path d="M87.91575 51.787425L83.11515 51.9684" style="fill:none;stroke:rgba(101,0,153,.24705882);stroke-width:.09525;stroke-miterlimit:41.994751"/><path d="M100.56495 88.973025L100.8507 70.075425" style="fill:none;stroke:rgba(101,0,153,.24705882);stroke-width:.09525;stroke-miterlimit:41.994751"/><path d="M102.489 47.329725L80.152875 47.2821" style="fill:none;stroke:rgba(101,0,153,.24705882);stroke-width:.09525;stroke-miterlimit:41.994751"/><path d="M100.8507 70.075425L102.489 47.329725" style="fill:none;stroke:rgba(101,0,153,.24705882);stroke-width:.09525;stroke-miterlimit:41.994751"/><path d="M100.8507 70.075425L98.54565 56.778525" style="fill:none;stroke:rgba(101,0,153,.24705882);stroke-width:.09525;stroke-miterlimit:41.994751"/><path d="M83.11515 51.9684L80.152875 47.2821" style="fill:none;stroke:rgba(101,0,153,.24705882);stroke-width:.09525;stroke-miterlimit:41.994751"/><path d="M98.54565 82.31505L100.8507 70.075425" style="fill:none;stroke:rgba(101,0,153,.24705882);stroke-width:.09525;stroke-miterlimit:41.994751"/><path d="M80.152875 47.2821L68.475225 47.8536" style="fill:none;stroke:rgba(101,0,153,.24705882);stroke-width:.09525;stroke-miterlimit:41.994751"/><path d="M80.800575 55.406925L72.63765 56.721375" style="fill:none;stroke:rgba(101,0,153,.24705882);stroke-width:.09525;stroke-miterlimit:41.994751"/><path d="M80.800575 55.406925L83.11515 51.9684" style="fill:none;stroke:rgba(101,0,153,.24705882);stroke-width:.09525;stroke-miterlimit:41.994751"/><path d="M85.182075 69.789675L85.010625 89.392125" style="fill:none;stroke:rgba(101,0,153,.24705882);stroke-width:.09525;stroke-miterlimit:41.994751"/><path d="M78.609825 52.911375L80.800575 55.406925" style="fill:none;stroke:rgba(101,0,153,.24705882);stroke-width:.09525;stroke-miterlimit:41.994751"/><path d="M78.609825 52.911375L72.63765 56.721375" style="fill:none;stroke:rgba(101,0,153,.24705882);stroke-width:.09525;stroke-miterlimit:41.994751"/><path d="M78.609825 52.911375L80.152875 47.2821" style="fill:none;stroke:rgba(101,0,153,.24705882);stroke-width:.09525;stroke-miterlimit:41.994751"/><path d="M85.182075 69.789675L100.8507 70.075425" style="fill:none;stroke:rgba(101,0,153,.24705882);stroke-width:.09525;stroke-miterlimit:41.994751"/><path d="M72.63765 56.721375L69.70395 70.1802" style="fill:none;stroke:rgba(101,0,153,.24705882);stroke-width:.09525;stroke-miterlimit:41.994751"/><path d="M85.182075 69.789675L80.800575 55.406925" style="fill:none;stroke:rgba(101,0,153,.24705882);stroke-width:.09525;stroke-miterlimit:41.994751"/><path d="M68.475225 47.8536L69.70395 70.1802" style="fill:none;stroke:rgba(101,0,153,.24705882);stroke-width:.09525;stroke-miterlimit:41.994751"/><path d="M83.11515 51.9684L78.609825 52.911375" style="fill:none;stroke:rgba(101,0,153,.24705882);stroke-width:.09525;stroke-miterlimit:41.994751"/><path d="M81.0387 57.3405L83.11515 51.9684" style="fill:none;stroke:rgba(93,0,161,.24705882);stroke-width:.09525;stroke-miterlimit:41.994751"/><path d="M85.696425 81.915L85.010625 89.392125" style="fill:none;stroke:rgba(93,0,161,.24705882);stroke-width:.09525;stroke-miterlimit:41.994751"/><path d="M107.14673 97.7265H108.64215V41.148H107.14673z" style="fill:rgba(93,0,161,.24705882);stroke:rgba(93,0,161,.24705882);stroke-width:.09525;stroke-miterlimit:41.994751"/><path d="M108.204 76.8096A.47625 .47625 0 00107.2515 76.8096A.47625 .47625 0 00108.204 76.8096z" fill="rgba(93,0,161,.24705882)"/><path d="M60.44565 97.7265H62.322075V41.148H60.44565z" style="fill:rgba(89,0,165,.24705882);stroke:rgba(89,0,165,.24705882);stroke-width:.09525;stroke-miterlimit:41.994751"/><path d="M61.312425 78.819375A.47625 .47625 0 0060.359925 78.819375A.47625 .47625 0 0061.312425 78.819375z" fill="rgba(89,0,165,.24705882)"/><path d="M81.51495 57.3405A.47625 .47625 0 0080.56245 57.3405A.47625 .47625 0 0081.51495 57.3405z" fill="rgba(89,0,165,.24705882)"/><path d="M86.172675 81.915A.47625 .47625 0 0085.220175 81.915A.47625 .47625 0 0086.172675 81.915z" fill="rgba(85,0,170,.24705882)"/><path d="M60.836175 78.819375L64.7319 78.609825" style="fill:none;stroke:rgba(85,0,170,.24705882);stroke-width:.09525;stroke-miterlimit:41.994751"/><path d="M103.68915 76.8858L107.72775 76.8096" style="fill:none;stroke:rgba(85,0,170,.24705882);stroke-width:.09525;stroke-miterlimit:41.994751"/><path d="M63.37935 97.7265H65.808225V41.148H63.37935z" style="fill:rgba(80,0,174,.24705882);stroke:rgba(80,0,174,.24705882);stroke-width:.09525;stroke-miterlimit:41.994751"/><path d="M65.20815 78.609825A.47625 .47625 0 0064.25565 78.609825A.47625 .47625 0 0065.20815 78.609825z" fill="rgba(80,0,174,.24705882)"/><path d="M102.9462 97.7265H104.1273V41.148H102.9462z" style="fill:rgba(76,0,178,.24705882);stroke:rgba(76,0,178,.24705882);stroke-width:.09525;stroke-miterlimit:41.994751"/><path d="M104.1654 76.8858A.47625 .47625 0 00103.2129 76.8858A.47625 .47625 0 00104.1654 76.8858z" fill="rgba(76,0,178,.24705882)"/><path d="M64.7319 78.609825L71.5137 78.50505" style="fill:none;stroke:rgba(68,0,186,.24705882);stroke-width:.09525;stroke-miterlimit:41.994751"/><path d="M99.19335 77.0763L103.68915 76.8858" style="fill:none;stroke:rgba(64,0,186,.24705882);stroke-width:.09525;stroke-miterlimit:41.994751"/><path d="M98.059875 97.7265H99.621975V41.148H98.059875z" style="fill:rgba(56,0,198,.24705882);stroke:rgba(56,0,198,.24705882);stroke-width:.09525;stroke-miterlimit:41.994751"/><path d="M99.6696 77.0763A.47625 .47625 0 0098.7171 77.0763A.47625 .47625 0 0099.6696 77.0763z" fill="rgba(56,0,198,.24705882)"/><path d="M68.456175 97.7265H76.400025V41.148H68.456175z" style="fill:rgba(52,0,202,.24705882);stroke:rgba(52,0,202,.24705882);stroke-width:.09525;stroke-miterlimit:41.994751"/><path d="M71.98995 78.50505A.47625 .47625 0 0071.03745 78.50505A.47625 .47625 0 0071.98995 78.50505z" fill="rgba(52,0,202,.24705882)"/><path d="M94.726125 77.40015L99.19335 77.0763" style="fill:none;stroke:rgba(48,0,206,.24705882);stroke-width:.09525;stroke-miterlimit:41.994751"/><path d="M92.497275 97.7265H97.0407V41.148H92.497275z" style="fill:rgba(40,0,214,.24705882);stroke:rgba(40,0,214,.24705882);stroke-width:.09525;stroke-miterlimit:41.994751"/><path d="M95.202375 77.40015A.47625 .47625 0 0094.249875 77.40015A.47625 .47625 0 0095.202375 77.40015z" fill="rgba(40,0,214,.24705882)"/><path d="M71.5137 78.50505L84.8868 77.695425" style="fill:none;stroke:rgba(24,0,226,.24705882);stroke-width:.09525;stroke-miterlimit:41.994751"/><path d="M84.8868 77.695425L94.726125 77.40015" style="fill:none;stroke:rgba(20,0,234,.24705882);stroke-width:.09525;stroke-miterlimit:41.994751"/><path d="M81.1149 97.7265H87.944325V41.148H81.1149z" style="fill:rgba(0,0,255,.24705882);stroke:rgba(0,0,255,.24705882);stroke-width:.09525;stroke-miterlimit:41.994751"/><path d="M85.36305 77.695425A.47625 .47625 0 0084.41055 77.695425A.47625 .47625 0 0085.36305 77.695425z" fill="rgba(0,0,255,.24705882)"/></svg>