<svg version="1.1" width="385.572mm" height="281.3685mm" viewBox="0 0 385.572 281.3685" xmlns="http://www.w3.org/2000/svg" xmlns:xlink="http://www.w3.org/1999/xlink"><path d="M185.07075 126.96825H186.97575" style="fill:none;stroke:#f00;stroke-width:.09525;stroke-miterlimit:41.994751"/><path d="M185.07075 126.96825V125.06325" style="fill:none;stroke:#0f0;stroke-width:.09525;stroke-miterlimit:41.994751"/><path d="M164.65867 177.23167A.47625 .47625 0 00163.70618 177.23167A.47625 .47625 0 00164.65867 177.23167z" fill="rgba(255,0,0,.24705882)"/><path d="M163.43948 147.91372L164.18242 177.23167" style="fill:none;stroke:rgba(250,0,4,.24705882);stroke-width:.09525;stroke-miterlimit:41.994751"/><path d="M163.91573 147.91372A.47625 .47625 0 00162.96323 147.91372A.47625 .47625 0 00163.91573 147.91372z" fill="rgba(246,0,8,.24705882)"/><path d="M157.99117 93.97365L163.43948 147.91372" style="fill:none;stroke:rgba(230,0,20,.24705882);stroke-width:.09525;stroke-miterlimit:41.994751"/><path d="M162.55365 65.617725A.47625 .47625 0 00161.60115 65.617725A.47625 .47625 0 00162.55365 65.617725z" fill="rgba(218,0,36,.24705882)"/><path d="M158.46742 93.97365A.47625 .47625 0 00157.51493 93.97365A.47625 .47625 0 00158.46742 93.97365z" fill="rgba(218,0,36,.24705882)"/><path d="M129.71145 52.67325A.47625 .47625 0 00128.75895 52.67325A.47625 .47625 0 00129.71145 52.67325z" fill="rgba(218,0,36,.24705882)"/><path d="M93.8022 57.083325A.47625 .47625 0 0092.8497 57.083325A.47625 .47625 0 0093.8022 57.083325z" fill="rgba(218,0,36,.24705882)"/><path d="M129.2352 52.67325L162.0774 65.617725" style="fill:none;stroke:rgba(218,0,36,.24705882);stroke-width:.09525;stroke-miterlimit:41.994751"/><path d="M162.0774 65.617725L157.99117 93.97365" style="fill:none;stroke:rgba(218,0,36,.24705882);stroke-width:.09525;stroke-miterlimit:41.994751"/><path d="M93.32595 57.083325L129.2352 52.67325" style="fill:none;stroke:rgba(218,0,36,.24705882);stroke-width:.09525;stroke-miterlimit:41.994751"/><path d="M164.18242 177.23167L218.78925 197.04368" style="fill:none;stroke:rgba(214,0,40,.24705882);stroke-width:.09525;stroke-miterlimit:41.994751"/><path d="M70.6755 58.00725L93.32595 57.083325" style="fill:none;stroke:rgba(214,0,40,.24705882);stroke-width:.09525;stroke-miterlimit:41.994751"/><path d="M99.260025 166.6494L164.18242 177.23167" style="fill:none;stroke:rgba(214,0,40,.24705882);stroke-width:.09525;stroke-miterlimit:41.994751"/><path d="M66.9036 45.8724A.47625 .47625 0 0065.9511 45.8724A.47625 .47625 0 0066.9036 45.8724z" fill="rgba(210,0,40,.24705882)"/><path d="M55.368825 46.57725A.47625 .47625 0 0054.416325 46.57725A.47625 .47625 0 0055.368825 46.57725z" fill="rgba(210,0,40,.24705882)"/><path d="M71.15175 58.00725A.47625 .47625 0 0070.19925 58.00725A.47625 .47625 0 0071.15175 58.00725z" fill="rgba(210,0,40,.24705882)"/><path d="M66.42735 45.8724L54.892575 46.57725" style="fill:none;stroke:rgba(210,0,40,.24705882);stroke-width:.09525;stroke-miterlimit:41.994751"/><path d="M70.6755 58.00725L66.42735 45.8724" style="fill:none;stroke:rgba(210,0,40,.24705882);stroke-width:.09525;stroke-miterlimit:41.994751"/><path d="M241.31588 240.58245A.47625 .47625 0 00240.36338 240.58245A.47625 .47625 0 00241.31588 240.58245z" fill="rgba(198,0,52,.24705882)"/><path d="M277.1775 256.57493A.47625 .47625 0 00276.225 256.57493A.47625 .47625 0 00277.1775 256.57493z" fill="rgba(198,0,52,.24705882)"/><path d="M317.81115 80.3148A.47625 .47625 0 00316.85865 80.3148A.47625 .47625 0 00317.81115 80.3148z" fill="rgba(186,0,68,.24705882)"/><path d="M54.892575 46.57725L55.597425 66.551175" style="fill:none;stroke:rgba(182,0,68,.24705882);stroke-width:.09525;stroke-miterlimit:41.994751"/><path d="M322.15455 118.0338L317.3349 80.3148" style="fill:none;stroke:rgba(178,0,76,.24705882);stroke-width:.09525;stroke-miterlimit:41.994751"/><path d="M219.2655 197.04368A.47625 .47625 0 00218.313 197.04368A.47625 .47625 0 00219.2655 197.04368z" fill="rgba(174,0,80,.24705882)"/><path d="M16.849725 47.310675A.47625 .47625 0 0015.897225 47.310675A.47625 .47625 0 0016.849725 47.310675z" fill="rgba(174,0,80,.24705882)"/><path d="M158.47695 115.30012L218.78925 197.04368" style="fill:none;stroke:rgba(174,0,80,.24705882);stroke-width:.09525;stroke-miterlimit:41.994751"/><path d="M158.9532 115.30012A.47625 .47625 0 00158.0007 115.30012A.47625 .47625 0 00158.9532 115.30012z" fill="rgba(174,0,80,.24705882)"/><path d="M42.1386 21.08835L16.373475 47.310675" style="fill:none;stroke:rgba(170,0,80,.24705882);stroke-width:.09525;stroke-miterlimit:41.994751"/><path d="M84.201 164.03955A.47625 .47625 0 0083.2485 164.03955A.47625 .47625 0 0084.201 164.03955z" fill="rgba(170,0,80,.24705882)"/><path d="M85.486875 131.08305A.47625 .47625 0 0084.534375 131.08305A.47625 .47625 0 0085.486875 131.08305z" fill="rgba(170,0,80,.24705882)"/><path d="M83.99145 138.25537A.47625 .47625 0 0083.03895 138.25537A.47625 .47625 0 0083.99145 138.25537z" fill="rgba(170,0,80,.24705882)"/><path d="M125.2347 136.64565A.47625 .47625 0 00124.2822 136.64565A.47625 .47625 0 00125.2347 136.64565z" fill="rgba(170,0,80,.24705882)"/><path d="M99.736275 166.6494A.47625 .47625 0 0098.783775 166.6494A.47625 .47625 0 0099.736275 166.6494z" fill="rgba(170,0,80,.24705882)"/><path d="M83.72475 164.03955L99.260025 166.6494" style="fill:none;stroke:rgba(170,0,80,.24705882);stroke-width:.09525;stroke-miterlimit:41.994751"/><path d="M83.5152 138.25537L83.72475 164.03955" style="fill:none;stroke:rgba(170,0,80,.24705882);stroke-width:.09525;stroke-miterlimit:41.994751"/><path d="M83.5152 138.25537L124.75845 136.64565" style="fill:none;stroke:rgba(170,0,80,.24705882);stroke-width:.09525;stroke-miterlimit:41.994751"/><path d="M85.010625 131.08305L83.5152 138.25537" style="fill:none;stroke:rgba(170,0,80,.24705882);stroke-width:.09525;stroke-miterlimit:41.994751"/><path d="M42.61485 21.08835A.47625 .47625 0 0041.66235 21.08835A.47625 .47625 0 0042.61485 21.08835z" fill="rgba(170,0,85,.24705882)"/><path d="M176.0601 53.082825A.47625 .47625 0 00175.1076 53.082825A.47625 .47625 0 00176.0601 53.082825z" fill="rgba(170,0,85,.24705882)"/><path d="M322.6308 118.0338A.47625 .47625 0 00321.6783 118.0338A.47625 .47625 0 00322.6308 118.0338z" fill="rgba(170,0,85,.24705882)"/><path d="M240.4872 261.22312L240.83963 240.58245" style="fill:none;stroke:rgba(170,0,85,.24705882);stroke-width:.09525;stroke-miterlimit:41.994751"/><path d="M72.399525 35.042475L42.1386 21.08835" style="fill:none;stroke:rgba(170,0,85,.24705882);stroke-width:.09525;stroke-miterlimit:41.994751"/><path d="M175.58385 53.082825L176.403 91.201875" style="fill:none;stroke:rgba(170,0,85,.24705882);stroke-width:.09525;stroke-miterlimit:41.994751"/><path d="M278.12047 252.46965L276.70125 256.57493" style="fill:none;stroke:rgba(170,0,85,.24705882);stroke-width:.09525;stroke-miterlimit:41.994751"/><path d="M278.23478 260.62305L276.70125 256.57493" style="fill:none;stroke:rgba(170,0,85,.24705882);stroke-width:.09525;stroke-miterlimit:41.994751"/><path d="M176.403 91.201875L322.15455 118.0338" style="fill:none;stroke:rgba(165,0,85,.24705882);stroke-width:.09525;stroke-miterlimit:41.994751"/><path d="M72.875775 35.042475A.47625 .47625 0 0071.923275 35.042475A.47625 .47625 0 0072.875775 35.042475z" fill="rgba(165,0,89,.24705882)"/><path d="M325.7169 151.76182L322.15455 118.0338" style="fill:none;stroke:rgba(165,0,89,.24705882);stroke-width:.09525;stroke-miterlimit:41.994751"/><path d="M176.87925 91.201875A.47625 .47625 0 00175.92675 91.201875A.47625 .47625 0 00176.87925 91.201875z" fill="rgba(165,0,89,.24705882)"/><path d="M118.05285 118.9863A.47625 .47625 0 00117.10035 118.9863A.47625 .47625 0 00118.05285 118.9863z" fill="rgba(165,0,89,.24705882)"/><path d="M85.17255 101.85082L85.010625 131.08305" style="fill:none;stroke:rgba(165,0,89,.24705882);stroke-width:.09525;stroke-miterlimit:41.994751"/><path d="M324.78345 50.853975L317.3349 80.3148" style="fill:none;stroke:rgba(165,0,89,.24705882);stroke-width:.09525;stroke-miterlimit:41.994751"/><path d="M153.0477 90.1446L158.47695 115.30012" style="fill:none;stroke:rgba(165,0,89,.24705882);stroke-width:.09525;stroke-miterlimit:41.994751"/><path d="M169.61167 22.107525A.47625 .47625 0 00168.65918 22.107525A.47625 .47625 0 00169.61167 22.107525z" fill="rgba(161,0,89,.24705882)"/><path d="M16.373475 47.310675L.47625 83.372325" style="fill:none;stroke:rgba(161,0,89,.24705882);stroke-width:.09525;stroke-miterlimit:41.994751"/><path d="M157.49588 53.235225L175.58385 53.082825" style="fill:none;stroke:rgba(161,0,93,.24705882);stroke-width:.09525;stroke-miterlimit:41.994751"/><path d="M287.83598 24.755475L317.3349 80.3148" style="fill:none;stroke:rgba(161,0,93,.24705882);stroke-width:.09525;stroke-miterlimit:41.994751"/><path d="M130.99732 .40005L72.399525 35.042475" style="fill:none;stroke:rgba(161,0,93,.24705882);stroke-width:.09525;stroke-miterlimit:41.994751"/><path d="M218.78925 197.04368L233.553 219.62745" style="fill:none;stroke:rgba(161,0,93,.24705882);stroke-width:.09525;stroke-miterlimit:41.994751"/><path d="M130.85445 112.76647A.47625 .47625 0 00129.90195 112.76647A.47625 .47625 0 00130.85445 112.76647z" fill="rgba(161,0,93,.24705882)"/><path d="M212.73135 222.95167A.47625 .47625 0 00211.77885 222.95167A.47625 .47625 0 00212.73135 222.95167z" fill="rgba(161,0,93,.24705882)"/><path d="M326.19315 151.76182A.47625 .47625 0 00325.24065 151.76182A.47625 .47625 0 00326.19315 151.76182z" fill="rgba(161,0,93,.24705882)"/><path d="M85.17255 101.85082L117.5766 118.9863" style="fill:none;stroke:rgba(161,0,93,.24705882);stroke-width:.09525;stroke-miterlimit:41.994751"/><path d="M153.0477 90.1446L176.403 91.201875" style="fill:none;stroke:rgba(161,0,93,.24705882);stroke-width:.09525;stroke-miterlimit:41.994751"/><path d="M87.239475 80.114775A.47625 .47625 0 0086.286975 80.114775A.47625 .47625 0 0087.239475 80.114775z" fill="rgba(157,0,97,.24705882)"/><path d="M15.03045 116.3574A.47625 .47625 0 0014.07795 116.3574A.47625 .47625 0 0015.03045 116.3574z" fill="rgba(157,0,97,.24705882)"/><path d="M130.99732 .40005L86.763225 80.114775" style="fill:none;stroke:rgba(157,0,97,.24705882);stroke-width:.09525;stroke-miterlimit:41.994751"/><path d="M117.5766 118.9863L120.11978 121.58662" style="fill:none;stroke:rgba(157,0,97,.24705882);stroke-width:.09525;stroke-miterlimit:41.994751"/><path d="M131.47357 .40005A.47625 .47625 0 00130.52107 .40005A.47625 .47625 0 00131.47357 .40005z" fill="rgba(157,0,97,.24705882)"/><path d="M72.37095 41.805225L72.399525 35.042475" style="fill:none;stroke:rgba(157,0,97,.24705882);stroke-width:.09525;stroke-miterlimit:41.994751"/><path d="M86.763225 80.114775L85.17255 101.85082" style="fill:none;stroke:rgba(157,0,97,.24705882);stroke-width:.09525;stroke-miterlimit:41.994751"/><path d="M133.3119 76.33335L130.3782 112.76647" style="fill:none;stroke:rgba(157,0,97,.24705882);stroke-width:.09525;stroke-miterlimit:41.994751"/><path d="M130.3782 112.76647L130.7973 124.49175" style="fill:none;stroke:rgba(157,0,97,.24705882);stroke-width:.09525;stroke-miterlimit:41.994751"/><path d="M14.5542 116.3574L48.529875 110.46142" style="fill:none;stroke:rgba(157,0,97,.24705882);stroke-width:.09525;stroke-miterlimit:41.994751"/><path d="M85.6488 101.85082A.47625 .47625 0 0084.6963 101.85082A.47625 .47625 0 0085.6488 101.85082z" fill="rgba(157,0,97,.24705882)"/><path d="M14.5542 116.3574L.47625 83.372325" style="fill:none;stroke:rgba(157,0,97,.24705882);stroke-width:.09525;stroke-miterlimit:41.994751"/><path d="M212.2551 222.95167L207.77835 250.317" style="fill:none;stroke:rgba(157,0,97,.24705882);stroke-width:.09525;stroke-miterlimit:41.994751"/><path d="M263.3472 1.12395L130.99732 .40005" style="fill:none;stroke:rgba(157,0,97,.24705882);stroke-width:.09525;stroke-miterlimit:41.994751"/><path d="M374.34203 134.4549L322.15455 118.0338" style="fill:none;stroke:rgba(157,0,97,.24705882);stroke-width:.09525;stroke-miterlimit:41.994751"/><path d="M48.529875 110.46142L85.17255 101.85082" style="fill:none;stroke:rgba(157,0,97,.24705882);stroke-width:.09525;stroke-miterlimit:41.994751"/><path d="M233.553 219.62745L212.2551 222.95167" style="fill:none;stroke:rgba(157,0,97,.24705882);stroke-width:.09525;stroke-miterlimit:41.994751"/><path d="M133.3119 76.33335L86.763225 80.114775" style="fill:none;stroke:rgba(153,0,97,.24705882);stroke-width:.09525;stroke-miterlimit:41.994751"/><path d="M130.99732 .40005L133.3119 76.33335" style="fill:none;stroke:rgba(153,0,97,.24705882);stroke-width:.09525;stroke-miterlimit:41.994751"/><path d="M49.006125 110.46142A.47625 .47625 0 0048.053625 110.46142A.47625 .47625 0 0049.006125 110.46142z" fill="rgba(153,0,97,.24705882)"/><path d="M153.52395 90.1446A.47625 .47625 0 00152.57145 90.1446A.47625 .47625 0 00153.52395 90.1446z" fill="rgba(153,0,97,.24705882)"/><path d="M175.58385 53.082825L287.83598 24.755475" style="fill:none;stroke:rgba(153,0,97,.24705882);stroke-width:.09525;stroke-miterlimit:41.994751"/><path d="M56.073675 66.551175A.47625 .47625 0 0055.121175 66.551175A.47625 .47625 0 0056.073675 66.551175z" fill="rgba(153,0,97,.24705882)"/><path d="M.9525 83.372325A.47625 .47625 0 00-68278716e-22 83.372325A.47625 .47625 0 00.9525 83.372325z" fill="rgba(153,0,97,.24705882)"/><path d="M157.97213 53.235225A.47625 .47625 0 00157.01963 53.235225A.47625 .47625 0 00157.97213 53.235225z" fill="rgba(153,0,101,.24705882)"/><path d="M81.13395 79.8195L86.763225 80.114775" style="fill:none;stroke:rgba(153,0,101,.24705882);stroke-width:.09525;stroke-miterlimit:41.994751"/><path d="M263.82345 1.12395A.47625 .47625 0 00262.87095 1.12395A.47625 .47625 0 00263.82345 1.12395z" fill="rgba(153,0,101,.24705882)"/><path d="M326.30745 181.3179L325.7169 151.76182" style="fill:none;stroke:rgba(153,0,101,.24705882);stroke-width:.09525;stroke-miterlimit:41.994751"/><path d="M302.2092 203.15872A.47625 .47625 0 00301.2567 203.15872A.47625 .47625 0 00302.2092 203.15872z" fill="rgba(153,0,101,.24705882)"/><path d="M133.3119 76.33335L153.0477 90.1446" style="fill:none;stroke:rgba(153,0,101,.24705882);stroke-width:.09525;stroke-miterlimit:41.994751"/><path d="M53.6067 79.4766L55.597425 66.551175" style="fill:none;stroke:rgba(153,0,101,.24705882);stroke-width:.09525;stroke-miterlimit:41.994751"/><path d="M133.3119 76.33335L157.49588 53.235225" style="fill:none;stroke:rgba(153,0,101,.24705882);stroke-width:.09525;stroke-miterlimit:41.994751"/><path d="M185.07075 86.1822H139.73175V72.75195H185.07075z" style="fill:rgba(153,0,101,.24705882);stroke:rgba(153,0,101,.24705882);stroke-width:.09525;stroke-miterlimit:41.994751"/><path d="M133.78815 76.33335A.47625 .47625 0 00132.83565 76.33335A.47625 .47625 0 00133.78815 76.33335z" fill="rgba(153,0,101,.24705882)"/><path d="M120.59602 121.58662A.47625 .47625 0 00119.64353 121.58662A.47625 .47625 0 00120.59602 121.58662z" fill="rgba(153,0,101,.24705882)"/><path d="M131.27355 124.49175A.47625 .47625 0 00130.32105 124.49175A.47625 .47625 0 00131.27355 124.49175z" fill="rgba(153,0,101,.24705882)"/><path d="M72.009 52.758975A.47625 .47625 0 0071.0565 52.758975A.47625 .47625 0 0072.009 52.758975z" fill="rgba(153,0,101,.24705882)"/><path d="M54.08295 79.4766A.47625 .47625 0 0053.13045 79.4766A.47625 .47625 0 0054.08295 79.4766z" fill="rgba(153,0,101,.24705882)"/><path d="M73.313925 79.733775A.47625 .47625 0 0072.361425 79.733775A.47625 .47625 0 0073.313925 79.733775z" fill="rgba(153,0,101,.24705882)"/><path d="M72.837675 79.733775L53.6067 79.4766" style="fill:none;stroke:rgba(153,0,101,.24705882);stroke-width:.09525;stroke-miterlimit:41.994751"/><path d="M72.837675 79.733775L71.53275 52.758975" style="fill:none;stroke:rgba(153,0,101,.24705882);stroke-width:.09525;stroke-miterlimit:41.994751"/><path d="M208.2546 250.317A.47625 .47625 0 00207.3021 250.317A.47625 .47625 0 00208.2546 250.317z" fill="rgba(153,0,101,.24705882)"/><path d="M85.010625 131.08305L111.94732 144.5514" style="fill:none;stroke:rgba(153,0,101,.24705882);stroke-width:.09525;stroke-miterlimit:41.994751"/><path d="M350.22473 179.5272L325.7169 151.76182" style="fill:none;stroke:rgba(149,0,101,.24705882);stroke-width:.09525;stroke-miterlimit:41.994751"/><path d="M81.13395 79.8195L72.837675 79.733775" style="fill:none;stroke:rgba(149,0,101,.24705882);stroke-width:.09525;stroke-miterlimit:41.994751"/><path d="M71.53275 52.758975L72.37095 41.805225" style="fill:none;stroke:rgba(149,0,101,.24705882);stroke-width:.09525;stroke-miterlimit:41.994751"/><path d="M234.02925 219.62745A.47625 .47625 0 00233.07675 219.62745A.47625 .47625 0 00234.02925 219.62745z" fill="rgba(149,0,101,.24705882)"/><path d="M301.73295 203.15872L326.30745 181.3179" style="fill:none;stroke:rgba(149,0,101,.24705882);stroke-width:.09525;stroke-miterlimit:41.994751"/><path d="M282.79725 219.4179L301.73295 203.15872" style="fill:none;stroke:rgba(149,0,105,.24705882);stroke-width:.09525;stroke-miterlimit:41.994751"/><path d="M207.77835 250.317L206.502 261.66127" style="fill:none;stroke:rgba(149,0,105,.24705882);stroke-width:.09525;stroke-miterlimit:41.994751"/><path d="M81.6102 79.8195A.47625 .47625 0 0080.6577 79.8195A.47625 .47625 0 0081.6102 79.8195z" fill="rgba(149,0,105,.24705882)"/><path d="M72.8472 41.805225A.47625 .47625 0 0071.8947 41.805225A.47625 .47625 0 0072.8472 41.805225z" fill="rgba(149,0,105,.24705882)"/><path d="M233.553 219.62745L257.5941 216.95092" style="fill:none;stroke:rgba(149,0,105,.24705882);stroke-width:.09525;stroke-miterlimit:41.994751"/><path d="M229.3239 237.3249A.47625 .47625 0 00228.3714 237.3249A.47625 .47625 0 00229.3239 237.3249z" fill="rgba(149,0,105,.24705882)"/><path d="M258.07035 216.95092A.47625 .47625 0 00257.11785 216.95092A.47625 .47625 0 00258.07035 216.95092z" fill="rgba(149,0,105,.24705882)"/><path d="M228.84765 237.3249L240.6396 236.4105" style="fill:none;stroke:rgba(149,0,105,.24705882);stroke-width:.09525;stroke-miterlimit:41.994751"/><path d="M206.97825 261.66127A.47625 .47625 0 00206.02575 261.66127A.47625 .47625 0 00206.97825 261.66127z" fill="rgba(149,0,105,.24705882)"/><path d="M257.5941 216.95092L282.79725 219.4179" style="fill:none;stroke:rgba(149,0,105,.24705882);stroke-width:.09525;stroke-miterlimit:41.994751"/><path d="M324.05003 221.02763L301.73295 203.15872" style="fill:none;stroke:rgba(149,0,105,.24705882);stroke-width:.09525;stroke-miterlimit:41.994751"/><path d="M241.11585 236.4105A.47625 .47625 0 00240.16335 236.4105A.47625 .47625 0 00241.11585 236.4105z" fill="rgba(149,0,105,.24705882)"/><path d="M120.11978 121.58662L120.44362 123.89167" style="fill:none;stroke:rgba(149,0,105,.24705882);stroke-width:.09525;stroke-miterlimit:41.994751"/><path d="M326.7837 181.3179A.47625 .47625 0 00325.8312 181.3179A.47625 .47625 0 00326.7837 181.3179z" fill="rgba(149,0,105,.24705882)"/><path d="M283.2735 219.4179A.47625 .47625 0 00282.321 219.4179A.47625 .47625 0 00283.2735 219.4179z" fill="rgba(145,0,105,.24705882)"/><path d="M228.59047 267.93825L228.84765 237.3249" style="fill:none;stroke:rgba(145,0,109,.24705882);stroke-width:.09525;stroke-miterlimit:41.994751"/><path d="M312.55335 7.305675L263.3472 1.12395" style="fill:none;stroke:rgba(145,0,109,.24705882);stroke-width:.09525;stroke-miterlimit:41.994751"/><path d="M206.502 261.66127L216.18893 279.72068" style="fill:none;stroke:rgba(145,0,109,.24705882);stroke-width:.09525;stroke-miterlimit:41.994751"/><path d="M350.22473 179.5272L326.30745 181.3179" style="fill:none;stroke:rgba(145,0,109,.24705882);stroke-width:.09525;stroke-miterlimit:41.994751"/><path d="M298.84688 240.64912L282.79725 219.4179" style="fill:none;stroke:rgba(145,0,109,.24705882);stroke-width:.09525;stroke-miterlimit:41.994751"/><path d="M281.2161 275.9202A.47625 .47625 0 00280.2636 275.9202A.47625 .47625 0 00281.2161 275.9202z" fill="rgba(145,0,109,.24705882)"/><path d="M270.61478 274.92007L280.73985 275.9202" style="fill:none;stroke:rgba(145,0,109,.24705882);stroke-width:.09525;stroke-miterlimit:41.994751"/><path d="M271.09103 274.92007A.47625 .47625 0 00270.13853 274.92007A.47625 .47625 0 00271.09103 274.92007z" fill="rgba(145,0,109,.24705882)"/><path d="M280.73985 275.9202L299.32313 272.00543" style="fill:none;stroke:rgba(145,0,109,.24705882);stroke-width:.09525;stroke-miterlimit:41.994751"/><path d="M239.79188 280.92082L270.61478 274.92007" style="fill:none;stroke:rgba(145,0,109,.24705882);stroke-width:.09525;stroke-miterlimit:41.994751"/><path d="M274.4724 235.02937A.47625 .47625 0 00273.5199 235.02937A.47625 .47625 0 00274.4724 235.02937z" fill="rgba(145,0,109,.24705882)"/><path d="M240.26812 280.92082A.47625 .47625 0 00239.31563 280.92082A.47625 .47625 0 00240.26812 280.92082z" fill="rgba(145,0,109,.24705882)"/><path d="M299.79937 272.00543A.47625 .47625 0 00298.84688 272.00543A.47625 .47625 0 00299.79937 272.00543z" fill="rgba(145,0,109,.24705882)"/><path d="M354.49192 209.88338A.47625 .47625 0 00353.53942 209.88338A.47625 .47625 0 00354.49192 209.88338z" fill="rgba(145,0,109,.24705882)"/><path d="M257.5941 216.95092L258.2799 225.57105" style="fill:none;stroke:rgba(145,0,109,.24705882);stroke-width:.09525;stroke-miterlimit:41.994751"/><path d="M234.66743 280.62555L239.79188 280.92082" style="fill:none;stroke:rgba(141,0,109,.24705882);stroke-width:.09525;stroke-miterlimit:41.994751"/><path d="M299.32313 272.00543L298.61827 264.19493" style="fill:none;stroke:rgba(141,0,109,.24705882);stroke-width:.09525;stroke-miterlimit:41.994751"/><path d="M299.32313 272.00543L308.04802 248.11672" style="fill:none;stroke:rgba(141,0,109,.24705882);stroke-width:.09525;stroke-miterlimit:41.994751"/><path d="M216.66518 279.72068A.47625 .47625 0 00215.71268 279.72068A.47625 .47625 0 00216.66518 279.72068z" fill="rgba(141,0,109,.24705882)"/><path d="M216.18893 279.72068L234.66743 280.62555" style="fill:none;stroke:rgba(141,0,109,.24705882);stroke-width:.09525;stroke-miterlimit:41.994751"/><path d="M235.14368 280.62555A.47625 .47625 0 00234.19118 280.62555A.47625 .47625 0 00235.14368 280.62555z" fill="rgba(141,0,109,.24705882)"/><path d="M354.01567 209.88338L350.22473 179.5272" style="fill:none;stroke:rgba(141,0,109,.24705882);stroke-width:.09525;stroke-miterlimit:41.994751"/><path d="M240.6396 236.4105L240.46815 242.57317" style="fill:none;stroke:rgba(141,0,109,.24705882);stroke-width:.09525;stroke-miterlimit:41.994751"/><path d="M240.6396 236.4105L258.2799 225.57105" style="fill:none;stroke:rgba(141,0,109,.24705882);stroke-width:.09525;stroke-miterlimit:41.994751"/><path d="M240.6396 236.4105L257.15595 234.60075" style="fill:none;stroke:rgba(141,0,109,.24705882);stroke-width:.09525;stroke-miterlimit:41.994751"/><path d="M299.09452 264.19493A.47625 .47625 0 00298.14202 264.19493A.47625 .47625 0 00299.09452 264.19493z" fill="rgba(141,0,109,.24705882)"/><path d="M228.59047 267.93825L234.66743 280.62555" style="fill:none;stroke:rgba(141,0,109,.24705882);stroke-width:.09525;stroke-miterlimit:41.994751"/><path d="M324.05003 221.02763L354.01567 209.88338" style="fill:none;stroke:rgba(141,0,109,.24705882);stroke-width:.09525;stroke-miterlimit:41.994751"/><path d="M229.06672 267.93825A.47625 .47625 0 00228.11423 267.93825A.47625 .47625 0 00229.06672 267.93825z" fill="rgba(141,0,109,.24705882)"/><path d="M120.91987 123.89167A.47625 .47625 0 00119.96738 123.89167A.47625 .47625 0 00120.91987 123.89167z" fill="rgba(141,0,109,.24705882)"/><path d="M308.52427 248.11672A.47625 .47625 0 00307.57178 248.11672A.47625 .47625 0 00308.52427 248.11672z" fill="rgba(141,0,109,.24705882)"/><path d="M130.7973 124.49175L128.23507 124.69177" style="fill:none;stroke:rgba(141,0,109,.24705882);stroke-width:.09525;stroke-miterlimit:41.994751"/><path d="M308.04802 248.11672L298.84688 240.64912" style="fill:none;stroke:rgba(141,0,109,.24705882);stroke-width:.09525;stroke-miterlimit:41.994751"/><path d="M308.04802 248.11672L324.05003 221.02763" style="fill:none;stroke:rgba(141,0,109,.24705882);stroke-width:.09525;stroke-miterlimit:41.994751"/><path d="M350.70098 179.5272A.47625 .47625 0 00349.74848 179.5272A.47625 .47625 0 00350.70098 179.5272z" fill="rgba(141,0,113,.24705882)"/><path d="M299.32313 240.64912A.47625 .47625 0 00298.37063 240.64912A.47625 .47625 0 00299.32313 240.64912z" fill="rgba(141,0,113,.24705882)"/><path d="M324.52627 221.02763A.47625 .47625 0 00323.57378 221.02763A.47625 .47625 0 00324.52627 221.02763z" fill="rgba(141,0,113,.24705882)"/><path d="M325.2597 50.853975A.47625 .47625 0 00324.3072 50.853975A.47625 .47625 0 00325.2597 50.853975z" fill="rgba(141,0,113,.24705882)"/><path d="M374.81828 134.4549A.47625 .47625 0 00373.86578 134.4549A.47625 .47625 0 00374.81828 134.4549z" fill="rgba(141,0,113,.24705882)"/><path d="M239.79188 280.92082L240.4872 261.22312" style="fill:none;stroke:rgba(141,0,113,.24705882);stroke-width:.09525;stroke-miterlimit:41.994751"/><path d="M378.17107 171.5262L350.22473 179.5272" style="fill:none;stroke:rgba(141,0,113,.24705882);stroke-width:.09525;stroke-miterlimit:41.994751"/><path d="M323.17372 29.498925L324.78345 50.853975" style="fill:none;stroke:rgba(141,0,113,.24705882);stroke-width:.09525;stroke-miterlimit:41.994751"/><path d="M228.59047 267.93825L240.4872 261.22312" style="fill:none;stroke:rgba(141,0,113,.24705882);stroke-width:.09525;stroke-miterlimit:41.994751"/><path d="M278.23478 260.62305L280.73985 275.9202" style="fill:none;stroke:rgba(141,0,113,.24705882);stroke-width:.09525;stroke-miterlimit:41.994751"/><path d="M323.64997 29.498925A.47625 .47625 0 00322.69747 29.498925A.47625 .47625 0 00323.64997 29.498925z" fill="rgba(137,0,113,.24705882)"/><path d="M378.64732 171.5262A.47625 .47625 0 00377.69482 171.5262A.47625 .47625 0 00378.64732 171.5262z" fill="rgba(137,0,113,.24705882)"/><path d="M288.31223 24.755475A.47625 .47625 0 00287.35973 24.755475A.47625 .47625 0 00288.31223 24.755475z" fill="rgba(137,0,113,.24705882)"/><path d="M323.17372 29.498925L312.55335 7.305675" style="fill:none;stroke:rgba(137,0,117,.24705882);stroke-width:.09525;stroke-miterlimit:41.994751"/><path d="M287.83598 24.755475L312.55335 7.305675" style="fill:none;stroke:rgba(137,0,117,.24705882);stroke-width:.09525;stroke-miterlimit:41.994751"/><path d="M120.44362 123.89167L122.95822 124.30125" style="fill:none;stroke:rgba(137,0,117,.24705882);stroke-width:.09525;stroke-miterlimit:41.994751"/><path d="M257.6322 234.60075A.47625 .47625 0 00256.6797 234.60075A.47625 .47625 0 00257.6322 234.60075z" fill="rgba(137,0,117,.24705882)"/><path d="M337.2612 197.21513A.47625 .47625 0 00336.3087 197.21513A.47625 .47625 0 00337.2612 197.21513z" fill="rgba(137,0,117,.24705882)"/><path d="M258.83235 252.9459A.47625 .47625 0 00257.87985 252.9459A.47625 .47625 0 00258.83235 252.9459z" fill="rgba(137,0,117,.24705882)"/><path d="M240.9444 242.57317A.47625 .47625 0 00239.9919 242.57317A.47625 .47625 0 00240.9444 242.57317z" fill="rgba(137,0,117,.24705882)"/><path d="M258.75615 225.57105A.47625 .47625 0 00257.80365 225.57105A.47625 .47625 0 00258.75615 225.57105z" fill="rgba(137,0,117,.24705882)"/><path d="M240.96345 261.22312A.47625 .47625 0 00240.01095 261.22312A.47625 .47625 0 00240.96345 261.22312z" fill="rgba(137,0,117,.24705882)"/><path d="M258.5085 249.77407A.47625 .47625 0 00257.556 249.77407A.47625 .47625 0 00258.5085 249.77407z" fill="rgba(137,0,117,.24705882)"/><path d="M258.2799 225.57105L257.15595 234.60075" style="fill:none;stroke:rgba(137,0,117,.24705882);stroke-width:.09525;stroke-miterlimit:41.994751"/><path d="M257.15595 234.60075L258.03225 249.77407" style="fill:none;stroke:rgba(137,0,117,.24705882);stroke-width:.09525;stroke-miterlimit:41.994751"/><path d="M258.03225 249.77407L258.3561 252.9459" style="fill:none;stroke:rgba(137,0,117,.24705882);stroke-width:.09525;stroke-miterlimit:41.994751"/><path d="M317.34443 29.232225L323.17372 29.498925" style="fill:none;stroke:rgba(137,0,117,.24705882);stroke-width:.09525;stroke-miterlimit:41.994751"/><path d="M313.0296 7.305675A.47625 .47625 0 00312.0771 7.305675A.47625 .47625 0 00313.0296 7.305675z" fill="rgba(137,0,117,.24705882)"/><path d="M374.34203 134.4549L385.12432 152.34285" style="fill:none;stroke:rgba(137,0,117,.24705882);stroke-width:.09525;stroke-miterlimit:41.994751"/><path d="M317.82067 29.232225A.47625 .47625 0 00316.86818 29.232225A.47625 .47625 0 00317.82067 29.232225z" fill="rgba(137,0,117,.24705882)"/><path d="M278.71103 260.62305A.47625 .47625 0 00277.75853 260.62305A.47625 .47625 0 00278.71103 260.62305z" fill="rgba(137,0,117,.24705882)"/><path d="M278.59672 252.46965A.47625 .47625 0 00277.64423 252.46965A.47625 .47625 0 00278.59672 252.46965z" fill="rgba(137,0,117,.24705882)"/><path d="M385.12432 152.34285L378.17107 171.5262" style="fill:none;stroke:rgba(137,0,117,.24705882);stroke-width:.09525;stroke-miterlimit:41.994751"/><path d="M123.43447 124.30125A.47625 .47625 0 00122.48198 124.30125A.47625 .47625 0 00123.43447 124.30125z" fill="rgba(133,0,121,.24705882)"/><path d="M128.71132 124.69177A.47625 .47625 0 00127.75883 124.69177A.47625 .47625 0 00128.71132 124.69177z" fill="rgba(133,0,121,.24705882)"/><path d="M128.23507 124.69177L122.95822 124.30125" style="fill:none;stroke:rgba(133,0,121,.24705882);stroke-width:.09525;stroke-miterlimit:41.994751"/><path d="M128.23507 124.69177L111.94732 144.5514" style="fill:none;stroke:rgba(133,0,121,.24705882);stroke-width:.09525;stroke-miterlimit:41.994751"/><path d="M385.60057 152.34285A.47625 .47625 0 00384.64808 152.34285A.47625 .47625 0 00385.60057 152.34285z" fill="rgba(133,0,121,.24705882)"/><path d="M135.19785 127.08255A.47625 .47625 0 00134.24535 127.08255A.47625 .47625 0 00135.19785 127.08255z" fill="rgba(133,0,121,.24705882)"/><path d="M89.182574 161.97262H134.70255V127.12065H89.182574z" style="fill:rgba(133,0,121,.24705882);stroke:rgba(133,0,121,.24705882);stroke-width:.09525;stroke-miterlimit:41.994751"/><path d="M112.42357 144.5514A.47625 .47625 0 00111.47107 144.5514A.47625 .47625 0 00112.42357 144.5514z" fill="rgba(133,0,121,.24705882)"/><path d="M134.6454 161.87737L134.7216 127.08255" style="fill:none;stroke:rgba(133,0,121,.24705882);stroke-width:.09525;stroke-miterlimit:41.994751"/><path d="M89.677875 161.83927A.47625 .47625 0 0088.725375 161.83927A.47625 .47625 0 0089.677875 161.83927z" fill="rgba(133,0,121,.24705882)"/><path d="" style="fill:rgba(133,0,121,.24705882);stroke:rgba(133,0,121,.24705882);stroke-width:.09525;stroke-miterlimit:41.994751"/><path d="M135.12165 161.87737A.47625 .47625 0 00134.16915 161.87737A.47625 .47625 0 00135.12165 161.87737z" fill="rgba(133,0,121,.24705882)"/><path d="M89.411175 127.20637L89.201625 161.83927" style="fill:none;stroke:rgba(133,0,121,.24705882);stroke-width:.09525;stroke-miterlimit:41.994751"/><path d="M89.887425 127.20637A.47625 .47625 0 0088.934925 127.20637A.47625 .47625 0 0089.887425 127.20637z" fill="rgba(133,0,121,.24705882)"/><path d="M309.92445 29.689425L317.3349 80.3148" style="fill:none;stroke:rgba(129,0,121,.24705882);stroke-width:.09525;stroke-miterlimit:41.994751"/><path d="M326.30745 181.3179L331.41285 191.97637" style="fill:none;stroke:rgba(121,0,133,.24705882);stroke-width:.09525;stroke-miterlimit:41.994751"/><path d="M350.22473 179.5272L344.29065 190.70955" style="fill:none;stroke:rgba(117,0,133,.24705882);stroke-width:.09525;stroke-miterlimit:41.994751"/><path d="M324.05003 221.02763L332.22248 202.96822" style="fill:none;stroke:rgba(117,0,133,.24705882);stroke-width:.09525;stroke-miterlimit:41.994751"/><path d="M354.01567 209.88338L343.3191 202.01572" style="fill:none;stroke:rgba(117,0,133,.24705882);stroke-width:.09525;stroke-miterlimit:41.994751"/><path d="M207.77835 250.317L222.53258 248.47868" style="fill:none;stroke:rgba(113,0,137,.24705882);stroke-width:.09525;stroke-miterlimit:41.994751"/><path d="M234.33405 231.63847L233.553 219.62745" style="fill:none;stroke:rgba(113,0,141,.24705882);stroke-width:.09525;stroke-miterlimit:41.994751"/><path d="M258.3561 252.9459L258.48945 253.5936" style="fill:none;stroke:rgba(113,0,141,.24705882);stroke-width:.09525;stroke-miterlimit:41.994751"/><path d="M282.65438 230.94315L282.79725 219.4179" style="fill:none;stroke:rgba(113,0,141,.24705882);stroke-width:.09525;stroke-miterlimit:41.994751"/><path d="M134.7216 127.08255L111.89018 127.1397" style="fill:none;stroke:rgba(113,0,141,.24705882);stroke-width:.09525;stroke-miterlimit:41.994751"/><path d="M134.6454 161.87737H112.02353" style="fill:none;stroke:rgba(113,0,141,.24705882);stroke-width:.09525;stroke-miterlimit:41.994751"/><path d="M280.73985 275.9202L282.2829 266.79525" style="fill:none;stroke:rgba(109,0,141,.24705882);stroke-width:.09525;stroke-miterlimit:41.994751"/><path d="M234.66743 280.62555L233.53395 266.55712" style="fill:none;stroke:rgba(109,0,145,.24705882);stroke-width:.09525;stroke-miterlimit:41.994751"/><path d="M308.04802 248.11672L294.12248 249.5169" style="fill:none;stroke:rgba(109,0,145,.24705882);stroke-width:.09525;stroke-miterlimit:41.994751"/><path d="M309.92445 29.689425L312.55335 7.305675" style="fill:none;stroke:rgba(105,0,145,.24705882);stroke-width:.09525;stroke-miterlimit:41.994751"/><path d="M317.34443 29.232225L315.53467 29.556075" style="fill:none;stroke:rgba(105,0,149,.24705882);stroke-width:.09525;stroke-miterlimit:41.994751"/><path d="M331.8891 191.97637A.47625 .47625 0 00330.9366 191.97637A.47625 .47625 0 00331.8891 191.97637z" fill="rgba(97,0,157,.24705882)"/><path d="M332.22248 202.96822L331.41285 191.97637" style="fill:none;stroke:rgba(97,0,157,.24705882);stroke-width:.09525;stroke-miterlimit:41.994751"/><path d="M331.41285 191.97637L344.29065 190.70955" style="fill:none;stroke:rgba(97,0,157,.24705882);stroke-width:.09525;stroke-miterlimit:41.994751"/><path d="M332.69873 202.96822A.47625 .47625 0 00331.74623 202.96822A.47625 .47625 0 00332.69873 202.96822z" fill="rgba(93,0,157,.24705882)"/><path d="M344.7669 190.70955A.47625 .47625 0 00343.8144 190.70955A.47625 .47625 0 00344.7669 190.70955z" fill="rgba(93,0,157,.24705882)"/><path d="M343.3191 202.01572L332.22248 202.96822" style="fill:none;stroke:rgba(93,0,161,.24705882);stroke-width:.09525;stroke-miterlimit:41.994751"/><path d="M344.29065 190.70955L343.3191 202.01572" style="fill:none;stroke:rgba(93,0,161,.24705882);stroke-width:.09525;stroke-miterlimit:41.994751"/><path d="M343.79535 202.01572A.47625 .47625 0 00342.84285 202.01572A.47625 .47625 0 00343.79535 202.01572z" fill="rgba(93,0,161,.24705882)"/><path d="M298.61827 264.19493L298.65638 260.38492" style="fill:none;stroke:rgba(93,0,161,.24705882);stroke-width:.09525;stroke-miterlimit:41.994751"/><path d="M298.79925 245.3259L298.84688 240.64912" style="fill:none;stroke:rgba(93,0,161,.24705882);stroke-width:.09525;stroke-miterlimit:41.994751"/><path d="" style="fill:rgba(89,0,161,.24705882);stroke:rgba(89,0,161,.24705882);stroke-width:.09525;stroke-miterlimit:41.994751"/><path d="M112.49977 161.87737A.47625 .47625 0 00111.54728 161.87737A.47625 .47625 0 00112.49977 161.87737z" fill="rgba(89,0,161,.24705882)"/><path d="M111.89018 127.1397L112.02353 161.87737" style="fill:none;stroke:rgba(89,0,161,.24705882);stroke-width:.09525;stroke-miterlimit:41.994751"/><path d="M112.36643 127.1397A.47625 .47625 0 00111.41393 127.1397A.47625 .47625 0 00112.36643 127.1397z" fill="rgba(89,0,161,.24705882)"/><path d="M258.9657 253.5936A.47625 .47625 0 00258.0132 253.5936A.47625 .47625 0 00258.9657 253.5936z" fill="rgba(85,0,170,.24705882)"/><path d="M266.319 257.20358A.47625 .47625 0 00265.3665 257.20358A.47625 .47625 0 00266.319 257.20358z" fill="rgba(85,0,170,.24705882)"/><path d="M235.28655 241.7826A.47625 .47625 0 00234.33405 241.7826A.47625 .47625 0 00235.28655 241.7826z" fill="rgba(85,0,170,.24705882)"/><path d="M234.0483 257.2893A.47625 .47625 0 00233.0958 257.2893A.47625 .47625 0 00234.0483 257.2893z" fill="rgba(85,0,170,.24705882)"/><path d="M251.0409 255.74625A.47625 .47625 0 00250.0884 255.74625A.47625 .47625 0 00251.0409 255.74625z" fill="rgba(85,0,170,.24705882)"/><path d="M249.30735 248.5644A.47625 .47625 0 00248.35485 248.5644A.47625 .47625 0 00249.30735 248.5644z" fill="rgba(85,0,170,.24705882)"/><path d="M258.30847 257.1369A.47625 .47625 0 00257.35598 257.1369A.47625 .47625 0 00258.30847 257.1369z" fill="rgba(85,0,170,.24705882)"/><path d="M266.2047 250.00268A.47625 .47625 0 00265.2522 250.00268A.47625 .47625 0 00266.2047 250.00268z" fill="rgba(85,0,170,.24705882)"/><path d="M281.30183 250.6218A.47625 .47625 0 00280.34933 250.6218A.47625 .47625 0 00281.30183 250.6218z" fill="rgba(85,0,170,.24705882)"/><path d="M257.83222 257.1369L265.84275 257.20358" style="fill:none;stroke:rgba(85,0,170,.24705882);stroke-width:.09525;stroke-miterlimit:41.994751"/><path d="M258.48945 253.5936L257.83222 257.1369" style="fill:none;stroke:rgba(85,0,170,.24705882);stroke-width:.09525;stroke-miterlimit:41.994751"/><path d="M248.8311 248.5644L233.57205 257.2893" style="fill:none;stroke:rgba(85,0,170,.24705882);stroke-width:.09525;stroke-miterlimit:41.994751"/><path d="M257.83222 257.1369L250.56465 255.74625" style="fill:none;stroke:rgba(85,0,170,.24705882);stroke-width:.09525;stroke-miterlimit:41.994751"/><path d="M233.57205 257.2893L234.8103 241.7826" style="fill:none;stroke:rgba(85,0,170,.24705882);stroke-width:.09525;stroke-miterlimit:41.994751"/><path d="M250.56465 255.74625L248.8311 248.5644" style="fill:none;stroke:rgba(85,0,170,.24705882);stroke-width:.09525;stroke-miterlimit:41.994751"/><path d="M265.84275 257.20358L265.72845 250.00268" style="fill:none;stroke:rgba(85,0,170,.24705882);stroke-width:.09525;stroke-miterlimit:41.994751"/><path d="M222.53258 248.47868L234.8103 241.7826" style="fill:none;stroke:rgba(80,0,174,.24705882);stroke-width:.09525;stroke-miterlimit:41.994751"/><path d="M234.8103 241.7826L234.33405 231.63847" style="fill:none;stroke:rgba(80,0,174,.24705882);stroke-width:.09525;stroke-miterlimit:41.994751"/><path d="M222.53258 248.47868L233.57205 257.2893" style="fill:none;stroke:rgba(80,0,174,.24705882);stroke-width:.09525;stroke-miterlimit:41.994751"/><path d="M234.0102 266.55712A.47625 .47625 0 00233.0577 266.55712A.47625 .47625 0 00234.0102 266.55712z" fill="rgba(76,0,178,.24705882)"/><path d="M282.75915 266.79525A.47625 .47625 0 00281.80665 266.79525A.47625 .47625 0 00282.75915 266.79525z" fill="rgba(76,0,178,.24705882)"/><path d="M223.00883 248.47868A.47625 .47625 0 00222.05633 248.47868A.47625 .47625 0 00223.00883 248.47868z" fill="rgba(76,0,178,.24705882)"/><path d="M294.59873 249.5169A.47625 .47625 0 00293.64623 249.5169A.47625 .47625 0 00294.59873 249.5169z" fill="rgba(76,0,178,.24705882)"/><path d="M234.8103 231.63847A.47625 .47625 0 00233.8578 231.63847A.47625 .47625 0 00234.8103 231.63847z" fill="rgba(76,0,178,.24705882)"/><path d="M283.13063 230.94315A.47625 .47625 0 00282.17813 230.94315A.47625 .47625 0 00283.13063 230.94315z" fill="rgba(76,0,178,.24705882)"/><path d="M310.4007 29.689425A.47625 .47625 0 00309.4482 29.689425A.47625 .47625 0 00310.4007 29.689425z" fill="rgba(76,0,178,.24705882)"/><path d="M316.01092 29.556075A.47625 .47625 0 00315.05842 29.556075A.47625 .47625 0 00316.01092 29.556075z" fill="rgba(76,0,178,.24705882)"/><path d="M315.53467 29.556075L309.92445 29.689425" style="fill:none;stroke:rgba(76,0,178,.24705882);stroke-width:.09525;stroke-miterlimit:41.994751"/><path d="M234.94365 246.4308L234.8103 241.7826" style="fill:none;stroke:rgba(64,0,190,.24705882);stroke-width:.09525;stroke-miterlimit:41.994751"/><path d="M235.4199 246.4308A.47625 .47625 0 00234.4674 246.4308A.47625 .47625 0 00235.4199 246.4308z" fill="rgba(44,0,210,.24705882)"/><path d="M237.10582 254.7366A.47625 .47625 0 00236.15332 254.7366A.47625 .47625 0 00237.10582 254.7366z" fill="rgba(44,0,210,.24705882)"/><path d="M236.62957 254.7366L234.94365 246.4308" style="fill:none;stroke:rgba(44,0,210,.24705882);stroke-width:.09525;stroke-miterlimit:41.994751"/><path d="M299.13263 260.38492A.47625 .47625 0 00298.18013 260.38492A.47625 .47625 0 00299.13263 260.38492z" fill="rgba(40,0,214,.24705882)"/><path d="M299.2755 245.3259A.47625 .47625 0 00298.323 245.3259A.47625 .47625 0 00299.2755 245.3259z" fill="rgba(40,0,214,.24705882)"/><path d="M235.79138 251.60287L236.62957 254.7366" style="fill:none;stroke:rgba(36,0,218,.24705882);stroke-width:.09525;stroke-miterlimit:41.994751"/><path d="M282.04478 249.92647L298.65638 260.38492" style="fill:none;stroke:rgba(32,0,218,.24705882);stroke-width:.09525;stroke-miterlimit:41.994751"/><path d="M298.79925 245.3259L282.04478 249.92647" style="fill:none;stroke:rgba(32,0,222,.24705882);stroke-width:.09525;stroke-miterlimit:41.994751"/><path d="M282.52103 249.92647A.47625 .47625 0 00281.56853 249.92647A.47625 .47625 0 00282.52103 249.92647z" fill="rgba(28,0,226,.24705882)"/><path d="M274.60575 249.80265A.47625 .47625 0 00273.65325 249.80265A.47625 .47625 0 00274.60575 249.80265z" fill="rgba(28,0,226,.24705882)"/><path d="M236.26763 251.60287A.47625 .47625 0 00235.31513 251.60287A.47625 .47625 0 00236.26763 251.60287z" fill="rgba(28,0,226,.24705882)"/><path d="M282.04478 249.92647L274.1295 249.80265" style="fill:none;stroke:rgba(28,0,226,.24705882);stroke-width:.09525;stroke-miterlimit:41.994751"/><path d="M245.45925 250.15507L235.79138 251.60287" style="fill:none;stroke:rgba(20,0,234,.24705882);stroke-width:.09525;stroke-miterlimit:41.994751"/><path d="M274.1295 249.80265L270.9291 250.1265" style="fill:none;stroke:rgba(20,0,234,.24705882);stroke-width:.09525;stroke-miterlimit:41.994751"/><path d="M245.9355 250.15507A.47625 .47625 0 00244.983 250.15507A.47625 .47625 0 00245.9355 250.15507z" fill="rgba(12,0,242,.24705882)"/><path d="M271.40535 250.1265A.47625 .47625 0 00270.45285 250.1265A.47625 .47625 0 00271.40535 250.1265z" fill="rgba(12,0,242,.24705882)"/><path d="M260.00392 248.87872L245.45925 250.15507" style="fill:none;stroke:rgba(4,0,246,.24705882);stroke-width:.09525;stroke-miterlimit:41.994751"/><path d="M270.9291 250.1265L260.00392 248.87872" style="fill:none;stroke:rgba(4,0,250,.24705882);stroke-width:.09525;stroke-miterlimit:41.994751"/><path d="M260.48017 248.87872A.47625 .47625 0 00259.52767 248.87872A.47625 .47625 0 00260.48017 248.87872z" fill="rgba(0,0,255,.24705882)"/></svg>