<svg version="1.1" width="79.34325mm" height="55.34025mm" viewBox="0 0 79.34325 55.34025" xmlns="http://www.w3.org/2000/svg" xmlns:xlink="http://www.w3.org/1999/xlink"><path d="M30.2895 140.49375H32.1945" style="fill:none;stroke:#f00;stroke-width:.09525;stroke-miterlimit:41.994751"/><path d="M30.2895 140.49375V138.58875" style="fill:none;stroke:#0f0;stroke-width:.09525;stroke-miterlimit:41.994751"/><path d="M48.644175 30.76575H68.86575V21.62175H48.644175z" style="fill:rgba(255,0,0,.24705882);stroke:rgba(255,0,0,.24705882);stroke-width:.09525;stroke-miterlimit:41.994751"/><path d="M64.56045 26.3652A.47625 .47625 0 0063.60795 26.3652A.47625 .47625 0 0064.56045 26.3652z" fill="rgba(255,0,0,.24705882)"/><path d="M64.0842 26.3652L47.329725 26.19375" style="fill:none;stroke:rgba(255,0,0,.24705882);stroke-width:.09525;stroke-miterlimit:41.994751"/><path d="M58.740675 33.43275L64.0842 26.3652" style="fill:none;stroke:rgba(255,0,0,.24705882);stroke-width:.09525;stroke-miterlimit:41.994751"/><path d="M58.569225 12.7635L64.0842 26.3652" style="fill:none;stroke:rgba(255,0,0,.24705882);stroke-width:.09525;stroke-miterlimit:41.994751"/><path d="M42.19575 30.76575H46.00575V21.62175H42.19575z" style="fill:rgba(255,0,0,.24705882);stroke:rgba(255,0,0,.24705882);stroke-width:.09525;stroke-miterlimit:41.994751"/><path d="M44.577 26.19375A.47625 .47625 0 0043.6245 26.19375A.47625 .47625 0 0044.577 26.19375z" fill="rgba(255,0,0,.24705882)"/><path d="M5.42925 21.62175H17.04975V2.0955H5.42925z" style="fill:rgba(255,0,0,.24705882);stroke:rgba(255,0,0,.24705882);stroke-width:.09525;stroke-miterlimit:41.994751"/><path d="M11.71575 11.858625A.47625 .47625 0 0010.76325 11.858625A.47625 .47625 0 0011.71575 11.858625z" fill="rgba(255,0,0,.24705882)"/><path d="M32.09925 20.09775H42.19575V16.28775H32.09925z" style="fill:rgba(255,0,0,.24705882);stroke:rgba(255,0,0,.24705882);stroke-width:.09525;stroke-miterlimit:41.994751"/><path d="M37.62375 18.19275A.47625 .47625 0 0036.67125 18.19275A.47625 .47625 0 0037.62375 18.19275z" fill="rgba(255,0,0,.24705882)"/><path d="M32.09925 20.66925H42.19575V20.09775H32.09925z" style="fill:rgba(255,0,0,.24705882);stroke:rgba(255,0,0,.24705882);stroke-width:.09525;stroke-miterlimit:41.994751"/><path d="M37.62375 20.3835A.47625 .47625 0 0036.67125 20.3835A.47625 .47625 0 0037.62375 20.3835z" fill="rgba(255,0,0,.24705882)"/><path d="M46.00575 30.76575H48.644175V21.62175H46.00575z" style="fill:rgba(255,0,0,.24705882);stroke:rgba(255,0,0,.24705882);stroke-width:.09525;stroke-miterlimit:41.994751"/><path d="M47.805975 26.19375A.47625 .47625 0 0046.853475 26.19375A.47625 .47625 0 0047.805975 26.19375z" fill="rgba(255,0,0,.24705882)"/><path d="M42.19575 20.66925H46.00575V9.7155H42.19575z" style="fill:rgba(255,0,0,.24705882);stroke:rgba(255,0,0,.24705882);stroke-width:.09525;stroke-miterlimit:41.994751"/><path d="M44.577 15.18285A.47625 .47625 0 0043.6245 15.18285A.47625 .47625 0 0044.577 15.18285z" fill="rgba(255,0,0,.24705882)"/><path d="M47.244 3.914775H68.837176V2.00025H47.244z" style="fill:rgba(255,0,0,.24705882);stroke:rgba(255,0,0,.24705882);stroke-width:.09525;stroke-miterlimit:41.994751"/><path d="M58.5216 3.37185A.47625 .47625 0 0057.5691 3.37185A.47625 .47625 0 0058.5216 3.37185z" fill="rgba(255,0,0,.24705882)"/><path d="M42.19575 21.62175H46.00575V20.66925H42.19575z" style="fill:rgba(255,0,0,.24705882);stroke:rgba(255,0,0,.24705882);stroke-width:.09525;stroke-miterlimit:41.994751"/><path d="M44.577 21.1455A.47625 .47625 0 0043.6245 21.1455A.47625 .47625 0 0044.577 21.1455z" fill="rgba(255,0,0,.24705882)"/><path d="M31.623 20.09775H32.09925V16.28775H31.623z" style="fill:rgba(255,0,0,.24705882);stroke:rgba(255,0,0,.24705882);stroke-width:.09525;stroke-miterlimit:41.994751"/><path d="M32.337375 18.19275A.47625 .47625 0 0031.384875 18.19275A.47625 .47625 0 0032.337375 18.19275z" fill="rgba(255,0,0,.24705882)"/><path d="M34.4805 53.520975H37.1475V47.539275H34.4805z" style="fill:rgba(255,0,0,.24705882);stroke:rgba(255,0,0,.24705882);stroke-width:.09525;stroke-miterlimit:41.994751"/><path d="M36.29025 50.530125A.47625 .47625 0 0035.33775 50.530125A.47625 .47625 0 0036.29025 50.530125z" fill="rgba(255,0,0,.24705882)"/><path d="M46.9011 39.90975H48.644175V36.09975H46.9011z" style="fill:rgba(255,0,0,.24705882);stroke:rgba(255,0,0,.24705882);stroke-width:.09525;stroke-miterlimit:41.994751"/><path d="M48.25365 38.00475A.47625 .47625 0 0047.30115 38.00475A.47625 .47625 0 0048.25365 38.00475z" fill="rgba(255,0,0,.24705882)"/><path d="M37.1475 53.520975H47.0535V47.539275H37.1475z" style="fill:rgba(255,0,0,.24705882);stroke:rgba(255,0,0,.24705882);stroke-width:.09525;stroke-miterlimit:41.994751"/><path d="M42.57675 50.530125A.47625 .47625 0 0041.62425 50.530125A.47625 .47625 0 0042.57675 50.530125z" fill="rgba(255,0,0,.24705882)"/><path d="M24.9555 20.09775H31.623V16.28775H24.9555z" style="fill:rgba(255,0,0,.24705882);stroke:rgba(255,0,0,.24705882);stroke-width:.09525;stroke-miterlimit:41.994751"/><path d="M28.7655 18.19275A.47625 .47625 0 0027.813 18.19275A.47625 .47625 0 0028.7655 18.19275z" fill="rgba(255,0,0,.24705882)"/><path d="M37.1475 47.539275H47.0535V43.748325H37.1475z" style="fill:rgba(255,0,0,.24705882);stroke:rgba(255,0,0,.24705882);stroke-width:.09525;stroke-miterlimit:41.994751"/><path d="M42.57675 45.6438A.47625 .47625 0 0041.62425 45.6438A.47625 .47625 0 0042.57675 45.6438z" fill="rgba(255,0,0,.24705882)"/><path d="M30.2895 9.04875H36.3855V.762H30.2895z" style="fill:rgba(255,0,0,.24705882);stroke:rgba(255,0,0,.24705882);stroke-width:.09525;stroke-miterlimit:41.994751"/><path d="M33.81375 4.905375A.47625 .47625 0 0032.86125 4.905375A.47625 .47625 0 0033.81375 4.905375z" fill="rgba(255,0,0,.24705882)"/><path d="M24.9555 20.66925H31.623V20.09775H24.9555z" style="fill:rgba(255,0,0,.24705882);stroke:rgba(255,0,0,.24705882);stroke-width:.09525;stroke-miterlimit:41.994751"/><path d="M28.7655 20.3835A.47625 .47625 0 0027.813 20.3835A.47625 .47625 0 0028.7655 20.3835z" fill="rgba(255,0,0,.24705882)"/><path d="M24.9555 16.28775H31.623V14.76375H24.9555z" style="fill:rgba(255,0,0,.24705882);stroke:rgba(255,0,0,.24705882);stroke-width:.09525;stroke-miterlimit:41.994751"/><path d="M28.7655 15.52575A.47625 .47625 0 0027.813 15.52575A.47625 .47625 0 0028.7655 15.52575z" fill="rgba(255,0,0,.24705882)"/><path d="M26.4795 9.04875H30.2895V.762H26.4795z" style="fill:rgba(255,0,0,.24705882);stroke:rgba(255,0,0,.24705882);stroke-width:.09525;stroke-miterlimit:41.994751"/><path d="M28.86075 4.905375A.47625 .47625 0 0027.90825 4.905375A.47625 .47625 0 0028.86075 4.905375z" fill="rgba(255,0,0,.24705882)"/><path d="M32.09925 16.28775H42.19575V9.7155H32.09925z" style="fill:rgba(255,0,0,.24705882);stroke:rgba(255,0,0,.24705882);stroke-width:.09525;stroke-miterlimit:41.994751"/><path d="M37.62375 13.001625A.47625 .47625 0 0036.67125 13.001625A.47625 .47625 0 0037.62375 13.001625z" fill="rgba(255,0,0,.24705882)"/><path d="M48.301275 21.62175H68.837176V3.914775H48.301275z" style="fill:rgba(255,0,0,.24705882);stroke:rgba(255,0,0,.24705882);stroke-width:.09525;stroke-miterlimit:41.994751"/><path d="M59.045475 12.7635A.47625 .47625 0 0058.092975 12.7635A.47625 .47625 0 0059.045475 12.7635z" fill="rgba(255,0,0,.24705882)"/><path d="M25.24125 9.04875H26.4795V.762H25.24125z" style="fill:rgba(255,0,0,.24705882);stroke:rgba(255,0,0,.24705882);stroke-width:.09525;stroke-miterlimit:41.994751"/><path d="M26.336625 4.905375A.47625 .47625 0 0025.384125 4.905375A.47625 .47625 0 0026.336625 4.905375z" fill="rgba(255,0,0,.24705882)"/><path d="M24.9555 10.95375H26.4795V9.7155H24.9555z" style="fill:rgba(255,0,0,.24705882);stroke:rgba(255,0,0,.24705882);stroke-width:.09525;stroke-miterlimit:41.994751"/><path d="M26.19375 10.334625A.47625 .47625 0 0025.24125 10.334625A.47625 .47625 0 0026.19375 10.334625z" fill="rgba(255,0,0,.24705882)"/><path d="M26.4795 9.7155H30.2895V9.04875H26.4795z" style="fill:rgba(255,0,0,.24705882);stroke:rgba(255,0,0,.24705882);stroke-width:.09525;stroke-miterlimit:41.994751"/><path d="M28.86075 9.382125A.47625 .47625 0 0027.90825 9.382125A.47625 .47625 0 0028.86075 9.382125z" fill="rgba(255,0,0,.24705882)"/><path d="M24.9555 14.76375H31.623V10.95375H24.9555z" style="fill:rgba(255,0,0,.24705882);stroke:rgba(255,0,0,.24705882);stroke-width:.09525;stroke-miterlimit:41.994751"/><path d="M28.7655 12.85875A.47625 .47625 0 0027.813 12.85875A.47625 .47625 0 0028.7655 12.85875z" fill="rgba(255,0,0,.24705882)"/><path d="M40.262175 43.748325H44.0055V42.76725H40.262175z" style="fill:rgba(255,0,0,.24705882);stroke:rgba(255,0,0,.24705882);stroke-width:.09525;stroke-miterlimit:41.994751"/><path d="M42.61485 43.253025A.47625 .47625 0 0041.66235 43.253025A.47625 .47625 0 0042.61485 43.253025z" fill="rgba(255,0,0,.24705882)"/><path d="M30.2895 10.95375H31.623V9.7155H30.2895z" style="fill:rgba(255,0,0,.24705882);stroke:rgba(255,0,0,.24705882);stroke-width:.09525;stroke-miterlimit:41.994751"/><path d="M31.4325 10.334625A.47625 .47625 0 0030.48 10.334625A.47625 .47625 0 0031.4325 10.334625z" fill="rgba(255,0,0,.24705882)"/><path d="M18.0213 30.76575H42.19575V21.62175H18.0213z" style="fill:rgba(255,0,0,.24705882);stroke:rgba(255,0,0,.24705882);stroke-width:.09525;stroke-miterlimit:41.994751"/><path d="M30.5943 26.19375A.47625 .47625 0 0029.6418 26.19375A.47625 .47625 0 0030.5943 26.19375z" fill="rgba(255,0,0,.24705882)"/><path d="M26.4795 10.95375H30.2895V9.7155H26.4795z" style="fill:rgba(255,0,0,.24705882);stroke:rgba(255,0,0,.24705882);stroke-width:.09525;stroke-miterlimit:41.994751"/><path d="M28.86075 10.334625A.47625 .47625 0 0027.90825 10.334625A.47625 .47625 0 0028.86075 10.334625z" fill="rgba(255,0,0,.24705882)"/><path d="M37.1475 42.76725H46.9011V39.90975H37.1475z" style="fill:rgba(255,0,0,.24705882);stroke:rgba(255,0,0,.24705882);stroke-width:.09525;stroke-miterlimit:41.994751"/><path d="M42.50055 41.3385A.47625 .47625 0 0041.54805 41.3385A.47625 .47625 0 0042.50055 41.3385z" fill="rgba(255,0,0,.24705882)"/><path d="M5.42925 30.76575H18.0213V21.62175H5.42925z" style="fill:rgba(255,0,0,.24705882);stroke:rgba(255,0,0,.24705882);stroke-width:.09525;stroke-miterlimit:41.994751"/><path d="M12.201525 26.19375A.47625 .47625 0 0011.249025 26.19375A.47625 .47625 0 0012.201525 26.19375z" fill="rgba(255,0,0,.24705882)"/><path d="M19.2405 20.66925H24.09825V14.76375H19.2405z" style="fill:rgba(255,0,0,.24705882);stroke:rgba(255,0,0,.24705882);stroke-width:.09525;stroke-miterlimit:41.994751"/><path d="M22.145625 17.7165A.47625 .47625 0 0021.193125 17.7165A.47625 .47625 0 0022.145625 17.7165z" fill="rgba(255,0,0,.24705882)"/><path d="M37.1475 36.09975H46.9011V32.385H37.1475z" style="fill:rgba(255,0,0,.24705882);stroke:rgba(255,0,0,.24705882);stroke-width:.09525;stroke-miterlimit:41.994751"/><path d="M42.50055 34.242375A.47625 .47625 0 0041.54805 34.242375A.47625 .47625 0 0042.50055 34.242375z" fill="rgba(255,0,0,.24705882)"/><path d="M5.42925 54.6735H17.1831V30.76575H5.42925z" style="fill:rgba(255,0,0,.24705882);stroke:rgba(255,0,0,.24705882);stroke-width:.09525;stroke-miterlimit:41.994751"/><path d="M11.782425 42.719625A.47625 .47625 0 0010.829925 42.719625A.47625 .47625 0 0011.782425 42.719625z" fill="rgba(255,0,0,.24705882)"/><path d="M49.6062 54.654449H68.837176V39.90975H49.6062z" style="fill:rgba(255,0,0,.24705882);stroke:rgba(255,0,0,.24705882);stroke-width:.09525;stroke-miterlimit:41.994751"/><path d="M59.7027 47.2821A.47625 .47625 0 0058.7502 47.2821A.47625 .47625 0 0059.7027 47.2821z" fill="rgba(255,0,0,.24705882)"/><path d="M48.644175 36.09975H68.837176V30.76575H48.644175z" style="fill:rgba(255,0,0,.24705882);stroke:rgba(255,0,0,.24705882);stroke-width:.09525;stroke-miterlimit:41.994751"/><path d="M59.216925 33.43275A.47625 .47625 0 0058.264425 33.43275A.47625 .47625 0 0059.216925 33.43275z" fill="rgba(255,0,0,.24705882)"/><path d="M37.1475 39.90975H46.9011V36.09975H37.1475z" style="fill:rgba(255,0,0,.24705882);stroke:rgba(255,0,0,.24705882);stroke-width:.09525;stroke-miterlimit:41.994751"/><path d="M42.50055 38.00475A.47625 .47625 0 0041.54805 38.00475A.47625 .47625 0 0042.50055 38.00475z" fill="rgba(255,0,0,.24705882)"/><path d="M24.09825 14.76375H24.9555V10.95375H24.09825z" style="fill:rgba(255,0,0,.24705882);stroke:rgba(255,0,0,.24705882);stroke-width:.09525;stroke-miterlimit:41.994751"/><path d="M25.003125 12.85875A.47625 .47625 0 0024.050625 12.85875A.47625 .47625 0 0025.003125 12.85875z" fill="rgba(255,0,0,.24705882)"/><path d="M48.644175 39.90975H68.837176V36.09975H48.644175z" style="fill:rgba(255,0,0,.24705882);stroke:rgba(255,0,0,.24705882);stroke-width:.09525;stroke-miterlimit:41.994751"/><path d="M59.216925 38.00475A.47625 .47625 0 0058.264425 38.00475A.47625 .47625 0 0059.216925 38.00475z" fill="rgba(255,0,0,.24705882)"/><path d="M19.2405 10.95375H24.09825V9.7155H19.2405z" style="fill:rgba(255,0,0,.24705882);stroke:rgba(255,0,0,.24705882);stroke-width:.09525;stroke-miterlimit:41.994751"/><path d="M22.145625 10.334625A.47625 .47625 0 0021.193125 10.334625A.47625 .47625 0 0022.145625 10.334625z" fill="rgba(255,0,0,.24705882)"/><path d="M19.2405 14.76375H24.09825V10.95375H19.2405z" style="fill:rgba(255,0,0,.24705882);stroke:rgba(255,0,0,.24705882);stroke-width:.09525;stroke-miterlimit:41.994751"/><path d="M22.145625 12.85875A.47625 .47625 0 0021.193125 12.85875A.47625 .47625 0 0022.145625 12.85875z" fill="rgba(255,0,0,.24705882)"/><path d="M21.669375 12.85875V17.7165" style="fill:none;stroke:rgba(255,0,0,.24705882);stroke-width:.09525;stroke-miterlimit:41.994751"/><path d="M58.569225 12.7635L58.04535 3.37185" style="fill:none;stroke:rgba(255,0,0,.24705882);stroke-width:.09525;stroke-miterlimit:41.994751"/><path d="M24.526875 12.85875H21.669375" style="fill:none;stroke:rgba(255,0,0,.24705882);stroke-width:.09525;stroke-miterlimit:41.994751"/><path d="M58.740675 38.00475H47.7774" style="fill:none;stroke:rgba(255,0,0,.24705882);stroke-width:.09525;stroke-miterlimit:41.994751"/><path d="M58.740675 38.00475V33.43275" style="fill:none;stroke:rgba(255,0,0,.24705882);stroke-width:.09525;stroke-miterlimit:41.994751"/><path d="M44.10075 21.1455V15.18285" style="fill:none;stroke:rgba(255,0,0,.24705882);stroke-width:.09525;stroke-miterlimit:41.994751"/><path d="M42.0243 38.00475V34.242375" style="fill:none;stroke:rgba(255,0,0,.24705882);stroke-width:.09525;stroke-miterlimit:41.994751"/><path d="M42.0243 38.00475V41.3385" style="fill:none;stroke:rgba(255,0,0,.24705882);stroke-width:.09525;stroke-miterlimit:41.994751"/><path d="M11.725275 26.19375L11.2395 11.858625" style="fill:none;stroke:rgba(255,0,0,.24705882);stroke-width:.09525;stroke-miterlimit:41.994751"/><path d="M11.725275 26.19375L11.306175 42.719625" style="fill:none;stroke:rgba(255,0,0,.24705882);stroke-width:.09525;stroke-miterlimit:41.994751"/><path d="M30.11805 26.19375H44.10075" style="fill:none;stroke:rgba(255,0,0,.24705882);stroke-width:.09525;stroke-miterlimit:41.994751"/><path d="M30.11805 26.19375H11.725275" style="fill:none;stroke:rgba(255,0,0,.24705882);stroke-width:.09525;stroke-miterlimit:41.994751"/><path d="M28.3845 10.334625L28.28925 12.85875" style="fill:none;stroke:rgba(255,0,0,.24705882);stroke-width:.09525;stroke-miterlimit:41.994751"/><path d="M28.3845 10.334625H30.95625" style="fill:none;stroke:rgba(255,0,0,.24705882);stroke-width:.09525;stroke-miterlimit:41.994751"/><path d="M28.3845 10.334625V9.382125" style="fill:none;stroke:rgba(255,0,0,.24705882);stroke-width:.09525;stroke-miterlimit:41.994751"/><path d="M28.28925 12.85875H24.526875" style="fill:none;stroke:rgba(255,0,0,.24705882);stroke-width:.09525;stroke-miterlimit:41.994751"/><path d="M30.95625 10.334625L28.28925 12.85875" style="fill:none;stroke:rgba(255,0,0,.24705882);stroke-width:.09525;stroke-miterlimit:41.994751"/><path d="M28.28925 12.85875L25.7175 10.334625" style="fill:none;stroke:rgba(255,0,0,.24705882);stroke-width:.09525;stroke-miterlimit:41.994751"/><path d="M42.1386 43.253025L42.0243 41.3385" style="fill:none;stroke:rgba(255,0,0,.24705882);stroke-width:.09525;stroke-miterlimit:41.994751"/><path d="M25.7175 10.334625H28.3845" style="fill:none;stroke:rgba(255,0,0,.24705882);stroke-width:.09525;stroke-miterlimit:41.994751"/><path d="M28.3845 9.382125V4.905375" style="fill:none;stroke:rgba(255,0,0,.24705882);stroke-width:.09525;stroke-miterlimit:41.994751"/><path d="M44.10075 15.18285L37.1475 20.3835" style="fill:none;stroke:rgba(255,0,0,.24705882);stroke-width:.09525;stroke-miterlimit:41.994751"/><path d="M28.3845 4.905375H25.860375" style="fill:none;stroke:rgba(255,0,0,.24705882);stroke-width:.09525;stroke-miterlimit:41.994751"/><path d="M28.3845 4.905375H33.3375" style="fill:none;stroke:rgba(255,0,0,.24705882);stroke-width:.09525;stroke-miterlimit:41.994751"/><path d="M59.22645 47.2821L58.740675 38.00475" style="fill:none;stroke:rgba(255,0,0,.24705882);stroke-width:.09525;stroke-miterlimit:41.994751"/><path d="M47.329725 26.19375H44.10075" style="fill:none;stroke:rgba(255,0,0,.24705882);stroke-width:.09525;stroke-miterlimit:41.994751"/><path d="M28.28925 15.52575V12.85875" style="fill:none;stroke:rgba(255,0,0,.24705882);stroke-width:.09525;stroke-miterlimit:41.994751"/><path d="M28.28925 18.19275V15.52575" style="fill:none;stroke:rgba(255,0,0,.24705882);stroke-width:.09525;stroke-miterlimit:41.994751"/><path d="M28.28925 18.19275V20.3835" style="fill:none;stroke:rgba(255,0,0,.24705882);stroke-width:.09525;stroke-miterlimit:41.994751"/><path d="M42.1005 45.6438L42.1386 43.253025" style="fill:none;stroke:rgba(255,0,0,.24705882);stroke-width:.09525;stroke-miterlimit:41.994751"/><path d="M47.7774 38.00475H42.0243" style="fill:none;stroke:rgba(255,0,0,.24705882);stroke-width:.09525;stroke-miterlimit:41.994751"/><path d="M42.1005 50.530125V45.6438" style="fill:none;stroke:rgba(255,0,0,.24705882);stroke-width:.09525;stroke-miterlimit:41.994751"/><path d="M42.1005 50.530125H35.814" style="fill:none;stroke:rgba(255,0,0,.24705882);stroke-width:.09525;stroke-miterlimit:41.994751"/><path d="M31.861125 18.19275H28.28925" style="fill:none;stroke:rgba(255,0,0,.24705882);stroke-width:.09525;stroke-miterlimit:41.994751"/><path d="M37.1475 20.3835V18.19275" style="fill:none;stroke:rgba(255,0,0,.24705882);stroke-width:.09525;stroke-miterlimit:41.994751"/><path d="M44.10075 26.19375V21.1455" style="fill:none;stroke:rgba(255,0,0,.24705882);stroke-width:.09525;stroke-miterlimit:41.994751"/><path d="M37.1475 13.001625L44.10075 15.18285" style="fill:none;stroke:rgba(255,0,0,.24705882);stroke-width:.09525;stroke-miterlimit:41.994751"/><path d="M21.669375 12.85875V10.334625" style="fill:none;stroke:rgba(255,0,0,.24705882);stroke-width:.09525;stroke-miterlimit:41.994751"/><path d="M37.1475 18.19275H31.861125" style="fill:none;stroke:rgba(255,0,0,.24705882);stroke-width:.09525;stroke-miterlimit:41.994751"/><path d="M37.1475 18.19275V13.001625" style="fill:none;stroke:rgba(255,0,0,.24705882);stroke-width:.09525;stroke-miterlimit:41.994751"/><path d="M37.1475 18.19275L44.10075 15.18285" style="fill:none;stroke:rgba(255,0,0,.24705882);stroke-width:.09525;stroke-miterlimit:41.994751"/><path d="M58.04535 3.37185L57.940575 2.00025" style="fill:none;stroke:rgba(206,0,48,.24705882);stroke-width:.09525;stroke-miterlimit:41.994751"/><path d="M35.814 50.530125L26.6319 50.50155" style="fill:none;stroke:rgba(198,0,52,.24705882);stroke-width:.09525;stroke-miterlimit:41.994751"/><path d="M47.244 2.83845H68.837176V2.00025H47.244z" style="fill:rgba(157,0,97,.24705882);stroke:rgba(157,0,97,.24705882);stroke-width:.09525;stroke-miterlimit:41.994751"/><path d="M58.416825 2.00025A.47625 .47625 0 0057.464325 2.00025A.47625 .47625 0 0058.416825 2.00025z" fill="rgba(157,0,97,.24705882)"/><path d="M64.0842 26.3652L68.86575 25.96515" style="fill:none;stroke:rgba(153,0,101,.24705882);stroke-width:.09525;stroke-miterlimit:41.994751"/><path d="M47.244 11.37285L58.569225 12.7635" style="fill:none;stroke:rgba(153,0,101,.24705882);stroke-width:.09525;stroke-miterlimit:41.994751"/><path d="M11.2395 11.858625L18.4785 11.115675" style="fill:none;stroke:rgba(149,0,101,.24705882);stroke-width:.09525;stroke-miterlimit:41.994751"/><path d="M48.5775 47.7012L59.22645 47.2821" style="fill:none;stroke:rgba(149,0,105,.24705882);stroke-width:.09525;stroke-miterlimit:41.994751"/><path d="M58.00725 1.35255L57.940575 2.00025" style="fill:none;stroke:rgba(145,0,109,.24705882);stroke-width:.09525;stroke-miterlimit:41.994751"/><path d="M26.3271 39.8526H27.2415V36.09975H26.3271z" style="fill:rgba(145,0,109,.24705882);stroke:rgba(145,0,109,.24705882);stroke-width:.09525;stroke-miterlimit:41.994751"/><path d="M27.26055 37.976175A.47625 .47625 0 0026.30805 37.976175A.47625 .47625 0 0027.26055 37.976175z" fill="rgba(145,0,109,.24705882)"/><path d="M27.2415 36.09975H37.157025V32.28975H27.2415z" style="fill:rgba(145,0,109,.24705882);stroke:rgba(145,0,109,.24705882);stroke-width:.09525;stroke-miterlimit:41.994751"/><path d="M32.67075 34.19475A.47625 .47625 0 0031.71825 34.19475A.47625 .47625 0 0032.67075 34.19475z" fill="rgba(145,0,109,.24705882)"/><path d="M26.3271 53.520975H34.4805V47.539275H26.3271z" style="fill:rgba(145,0,109,.24705882);stroke:rgba(145,0,109,.24705882);stroke-width:.09525;stroke-miterlimit:41.994751"/><path d="M27.10815 50.50155A.47625 .47625 0 0026.15565 50.50155A.47625 .47625 0 0027.10815 50.50155z" fill="rgba(145,0,109,.24705882)"/><path d="M21.1455 53.520975H26.3271V47.539275H21.1455z" style="fill:rgba(145,0,109,.24705882);stroke:rgba(145,0,109,.24705882);stroke-width:.09525;stroke-miterlimit:41.994751"/><path d="M24.21255 50.50155A.47625 .47625 0 0023.26005 50.50155A.47625 .47625 0 0024.21255 50.50155z" fill="rgba(145,0,109,.24705882)"/><path d="M27.2415 39.8526H47.0535V36.09975H27.2415z" style="fill:rgba(145,0,109,.24705882);stroke:rgba(145,0,109,.24705882);stroke-width:.09525;stroke-miterlimit:41.994751"/><path d="M37.62375 37.976175A.47625 .47625 0 0036.67125 37.976175A.47625 .47625 0 0037.62375 37.976175z" fill="rgba(145,0,109,.24705882)"/><path d="M37.157025 36.09975H47.0535V32.28975H37.157025z" style="fill:rgba(145,0,109,.24705882);stroke:rgba(145,0,109,.24705882);stroke-width:.09525;stroke-miterlimit:41.994751"/><path d="M42.586275 34.19475A.47625 .47625 0 0041.633775 34.19475A.47625 .47625 0 0042.586275 34.19475z" fill="rgba(145,0,109,.24705882)"/><path d="M21.1455 47.539275H26.3271V39.8526H21.1455z" style="fill:rgba(145,0,109,.24705882);stroke:rgba(145,0,109,.24705882);stroke-width:.09525;stroke-miterlimit:41.994751"/><path d="M24.21255 43.691175A.47625 .47625 0 0023.26005 43.691175A.47625 .47625 0 0024.21255 43.691175z" fill="rgba(145,0,109,.24705882)"/><path d="M21.1455 36.09975H26.3271V32.28975H21.1455z" style="fill:rgba(145,0,109,.24705882);stroke:rgba(145,0,109,.24705882);stroke-width:.09525;stroke-miterlimit:41.994751"/><path d="M24.21255 34.19475A.47625 .47625 0 0023.26005 34.19475A.47625 .47625 0 0024.21255 34.19475z" fill="rgba(145,0,109,.24705882)"/><path d="M21.1455 39.8526H26.3271V36.09975H21.1455z" style="fill:rgba(145,0,109,.24705882);stroke:rgba(145,0,109,.24705882);stroke-width:.09525;stroke-miterlimit:41.994751"/><path d="M24.21255 37.976175A.47625 .47625 0 0023.26005 37.976175A.47625 .47625 0 0024.21255 37.976175z" fill="rgba(145,0,109,.24705882)"/><path d="M27.2415 42.95775H47.0535V39.8526H27.2415z" style="fill:rgba(145,0,109,.24705882);stroke:rgba(145,0,109,.24705882);stroke-width:.09525;stroke-miterlimit:41.994751"/><path d="M37.62375 41.405175A.47625 .47625 0 0036.67125 41.405175A.47625 .47625 0 0037.62375 41.405175z" fill="rgba(145,0,109,.24705882)"/><path d="M32.1945 34.19475H42.110025" style="fill:none;stroke:rgba(145,0,109,.24705882);stroke-width:.09525;stroke-miterlimit:41.994751"/><path d="M23.7363 43.691175V37.976175" style="fill:none;stroke:rgba(145,0,109,.24705882);stroke-width:.09525;stroke-miterlimit:41.994751"/><path d="M23.7363 37.976175V34.19475" style="fill:none;stroke:rgba(145,0,109,.24705882);stroke-width:.09525;stroke-miterlimit:41.994751"/><path d="M37.1475 37.976175V41.405175" style="fill:none;stroke:rgba(145,0,109,.24705882);stroke-width:.09525;stroke-miterlimit:41.994751"/><path d="M37.1475 37.976175L32.1945 34.19475" style="fill:none;stroke:rgba(145,0,109,.24705882);stroke-width:.09525;stroke-miterlimit:41.994751"/><path d="M42.110025 34.19475L37.1475 37.976175" style="fill:none;stroke:rgba(145,0,109,.24705882);stroke-width:.09525;stroke-miterlimit:41.994751"/><path d="M23.7363 50.50155V43.691175" style="fill:none;stroke:rgba(145,0,109,.24705882);stroke-width:.09525;stroke-miterlimit:41.994751"/><path d="M26.7843 37.976175H37.1475" style="fill:none;stroke:rgba(145,0,109,.24705882);stroke-width:.09525;stroke-miterlimit:41.994751"/><path d="M26.6319 50.50155H23.7363" style="fill:none;stroke:rgba(145,0,109,.24705882);stroke-width:.09525;stroke-miterlimit:41.994751"/><path d="M23.7363 37.976175H26.7843" style="fill:none;stroke:rgba(145,0,109,.24705882);stroke-width:.09525;stroke-miterlimit:41.994751"/><path d="M11.306175 42.719625L18.0975 41.89095" style="fill:none;stroke:rgba(137,0,117,.24705882);stroke-width:.09525;stroke-miterlimit:41.994751"/><path d="M48.6156 2.00025H67.3989V.352425H48.6156z" style="fill:rgba(137,0,117,.24705882);stroke:rgba(137,0,117,.24705882);stroke-width:.09525;stroke-miterlimit:41.994751"/><path d="M58.4835 1.35255A.47625 .47625 0 0057.531 1.35255A.47625 .47625 0 0058.4835 1.35255z" fill="rgba(137,0,117,.24705882)"/><path d="M58.00725 1.35255L68.86575 1.304925" style="fill:none;stroke:rgba(97,0,157,.24705882);stroke-width:.09525;stroke-miterlimit:41.994751"/><path d="M47.244 .847725L58.00725 1.35255" style="fill:none;stroke:rgba(93,0,157,.24705882);stroke-width:.09525;stroke-miterlimit:41.994751"/><path d="M67.3989 2.00025H68.837176V.352425H67.3989z" style="fill:rgba(56,0,198,.24705882);stroke:rgba(56,0,198,.24705882);stroke-width:.09525;stroke-miterlimit:41.994751"/><path d="M69.342 1.304925A.47625 .47625 0 0068.3895 1.304925A.47625 .47625 0 0069.342 1.304925z" fill="rgba(56,0,198,.24705882)"/><path d="M47.244 2.00025H48.6156V.352425H47.244z" style="fill:rgba(52,0,202,.24705882);stroke:rgba(52,0,202,.24705882);stroke-width:.09525;stroke-miterlimit:41.994751"/><path d="M47.72025 .847725A.47625 .47625 0 0046.76775 .847725A.47625 .47625 0 0047.72025 .847725z" fill="rgba(52,0,202,.24705882)"/><path d="M67.3227 30.76575H68.25615V21.62175H67.3227z" style="fill:rgba(52,0,202,.24705882);stroke:rgba(52,0,202,.24705882);stroke-width:.09525;stroke-miterlimit:41.994751"/><path d="M69.342 25.96515A.47625 .47625 0 0068.3895 25.96515A.47625 .47625 0 0069.342 25.96515z" fill="rgba(52,0,202,.24705882)"/><path d="M47.244 21.62175H48.301275V3.914775H47.244z" style="fill:rgba(48,0,202,.24705882);stroke:rgba(48,0,202,.24705882);stroke-width:.09525;stroke-miterlimit:41.994751"/><path d="M47.72025 11.37285A.47625 .47625 0 0046.76775 11.37285A.47625 .47625 0 0047.72025 11.37285z" fill="rgba(48,0,202,.24705882)"/><path d="M17.04975 21.62175H18.0213V2.0955H17.04975z" style="fill:rgba(48,0,206,.24705882);stroke:rgba(48,0,206,.24705882);stroke-width:.09525;stroke-miterlimit:41.994751"/><path d="M18.95475 11.115675A.47625 .47625 0 0018.00225 11.115675A.47625 .47625 0 0018.95475 11.115675z" fill="rgba(48,0,206,.24705882)"/><path d="M68.86575 1.304925L73.656825 1.266825" style="fill:none;stroke:rgba(44,0,206,.24705882);stroke-width:.09525;stroke-miterlimit:41.994751"/><path d="M68.86575 25.96515L73.656825 25.6413" style="fill:none;stroke:rgba(44,0,210,.24705882);stroke-width:.09525;stroke-miterlimit:41.994751"/><path d="M47.244 .847725L46.31055 .66675" style="fill:none;stroke:rgba(44,0,210,.24705882);stroke-width:.09525;stroke-miterlimit:41.994751"/><path d="M48.644175 54.654449H49.6062V39.90975H48.644175z" style="fill:rgba(44,0,210,.24705882);stroke:rgba(44,0,210,.24705882);stroke-width:.09525;stroke-miterlimit:41.994751"/><path d="M49.05375 47.7012A.47625 .47625 0 0048.10125 47.7012A.47625 .47625 0 0049.05375 47.7012z" fill="rgba(44,0,210,.24705882)"/><path d="M47.244 11.37285L46.948725 10.9347" style="fill:none;stroke:rgba(44,0,210,.24705882);stroke-width:.09525;stroke-miterlimit:41.994751"/><path d="M18.4785 11.115675L18.716625 10.696575" style="fill:none;stroke:rgba(40,0,210,.24705882);stroke-width:.09525;stroke-miterlimit:41.994751"/><path d="M68.25615 30.76575H79.028925V21.62175H68.25615z" style="fill:rgba(36,0,218,.24705882);stroke:rgba(36,0,218,.24705882);stroke-width:.09525;stroke-miterlimit:41.994751"/><path d="M74.133075 25.6413A.47625 .47625 0 0073.180575 25.6413A.47625 .47625 0 0074.133075 25.6413z" fill="rgba(36,0,218,.24705882)"/><path d="M68.25615 54.511575H79.028925V30.76575H68.25615z" style="fill:rgba(36,0,218,.24705882);stroke:rgba(36,0,218,.24705882);stroke-width:.09525;stroke-miterlimit:41.994751"/><path d="M74.133075 42.6339A.47625 .47625 0 0073.180575 42.6339A.47625 .47625 0 0074.133075 42.6339z" fill="rgba(36,0,218,.24705882)"/><path d="M68.25615 21.62175H79.028925V1.8669H68.25615z" style="fill:rgba(36,0,218,.24705882);stroke:rgba(36,0,218,.24705882);stroke-width:.09525;stroke-miterlimit:41.994751"/><path d="M74.133075 11.744325A.47625 .47625 0 0073.180575 11.744325A.47625 .47625 0 0074.133075 11.744325z" fill="rgba(36,0,218,.24705882)"/><path d="M68.25615 1.8669H79.028925V.66675H68.25615z" style="fill:rgba(36,0,218,.24705882);stroke:rgba(36,0,218,.24705882);stroke-width:.09525;stroke-miterlimit:41.994751"/><path d="M74.133075 1.266825A.47625 .47625 0 0073.180575 1.266825A.47625 .47625 0 0074.133075 1.266825z" fill="rgba(36,0,218,.24705882)"/><path d="M48.4632 55.006875H68.25615V54.511575H48.4632z" style="fill:rgba(36,0,218,.24705882);stroke:rgba(36,0,218,.24705882);stroke-width:.09525;stroke-miterlimit:41.994751"/><path d="M58.835925 54.759225A.47625 .47625 0 0057.883425 54.759225A.47625 .47625 0 0058.835925 54.759225z" fill="rgba(36,0,218,.24705882)"/><path d="M68.25615 55.006875H79.028925V54.511575H68.25615z" style="fill:rgba(36,0,218,.24705882);stroke:rgba(36,0,218,.24705882);stroke-width:.09525;stroke-miterlimit:41.994751"/><path d="M74.133075 54.759225A.47625 .47625 0 0073.180575 54.759225A.47625 .47625 0 0074.133075 54.759225z" fill="rgba(36,0,218,.24705882)"/><path d="M73.656825 54.759225V42.6339" style="fill:none;stroke:rgba(36,0,218,.24705882);stroke-width:.09525;stroke-miterlimit:41.994751"/><path d="M73.656825 42.6339V25.6413" style="fill:none;stroke:rgba(36,0,218,.24705882);stroke-width:.09525;stroke-miterlimit:41.994751"/><path d="M73.656825 11.744325V1.266825" style="fill:none;stroke:rgba(36,0,218,.24705882);stroke-width:.09525;stroke-miterlimit:41.994751"/><path d="M73.656825 25.6413V11.744325" style="fill:none;stroke:rgba(36,0,218,.24705882);stroke-width:.09525;stroke-miterlimit:41.994751"/><path d="M58.359675 54.759225H73.656825" style="fill:none;stroke:rgba(36,0,218,.24705882);stroke-width:.09525;stroke-miterlimit:41.994751"/><path d="M30.241875 .809625H46.7106V.30479535H30.241875z" style="fill:rgba(36,0,218,.24705882);stroke:rgba(36,0,218,.24705882);stroke-width:.09525;stroke-miterlimit:41.994751"/><path d="M46.7868 .66675A.47625 .47625 0 0045.8343 .66675A.47625 .47625 0 0046.7868 .66675z" fill="rgba(36,0,218,.24705882)"/><path d="M46.710599 21.564602H47.186849V.30479535H46.710599z" style="fill:rgba(36,0,218,.24705882);stroke:rgba(36,0,218,.24705882);stroke-width:.09525;stroke-miterlimit:41.994751"/><path d="M47.424975 10.9347A.47625 .47625 0 0046.472475 10.9347A.47625 .47625 0 0047.424975 10.9347z" fill="rgba(36,0,218,.24705882)"/><path d="M30.241875 21.564602H46.7106V.809625H30.241875z" style="fill:rgba(36,0,218,.24705882);stroke:rgba(36,0,218,.24705882);stroke-width:.09525;stroke-miterlimit:41.994751"/><path d="M38.95725 11.191875A.47625 .47625 0 0038.00475 11.191875A.47625 .47625 0 0038.95725 11.191875z" fill="rgba(36,0,218,.24705882)"/><path d="M18.8976 21.097875H30.241875V1.076325H18.8976z" style="fill:rgba(36,0,218,.24705882);stroke:rgba(36,0,218,.24705882);stroke-width:.09525;stroke-miterlimit:41.994751"/><path d="M25.05075 11.0871A.47625 .47625 0 0024.09825 11.0871A.47625 .47625 0 0025.05075 11.0871z" fill="rgba(36,0,218,.24705882)"/><path d="M18.526125 30.80385H30.241875V21.097875H18.526125z" style="fill:rgba(36,0,218,.24705882);stroke:rgba(36,0,218,.24705882);stroke-width:.09525;stroke-miterlimit:41.994751"/><path d="M24.86025 25.9461A.47625 .47625 0 0023.90775 25.9461A.47625 .47625 0 0024.86025 25.9461z" fill="rgba(36,0,218,.24705882)"/><path d="M18.526125 21.097875H18.8976V.30479535H18.526125z" style="fill:rgba(36,0,218,.24705882);stroke:rgba(36,0,218,.24705882);stroke-width:.09525;stroke-miterlimit:41.994751"/><path d="M19.192875 10.696575A.47625 .47625 0 0018.240375 10.696575A.47625 .47625 0 0019.192875 10.696575z" fill="rgba(36,0,218,.24705882)"/><path d="M18.8976 1.076325H30.241875V.30479535H18.8976z" style="fill:rgba(36,0,218,.24705882);stroke:rgba(36,0,218,.24705882);stroke-width:.09525;stroke-miterlimit:41.994751"/><path d="M25.05075 .6858A.47625 .47625 0 0024.09825 .6858A.47625 .47625 0 0025.05075 .6858z" fill="rgba(36,0,218,.24705882)"/><path d="M46.31055 .66675L46.948725 10.9347" style="fill:none;stroke:rgba(36,0,218,.24705882);stroke-width:.09525;stroke-miterlimit:41.994751"/><path d="M46.948725 10.9347L38.481 11.191875" style="fill:none;stroke:rgba(36,0,218,.24705882);stroke-width:.09525;stroke-miterlimit:41.994751"/><path d="M18.716625 10.696575L24.5745 11.0871" style="fill:none;stroke:rgba(36,0,218,.24705882);stroke-width:.09525;stroke-miterlimit:41.994751"/><path d="M24.5745 .6858L18.716625 10.696575" style="fill:none;stroke:rgba(36,0,218,.24705882);stroke-width:.09525;stroke-miterlimit:41.994751"/><path d="M24.5745 11.0871L24.384 25.9461" style="fill:none;stroke:rgba(36,0,218,.24705882);stroke-width:.09525;stroke-miterlimit:41.994751"/><path d="M38.481 11.191875L46.31055 .66675" style="fill:none;stroke:rgba(36,0,218,.24705882);stroke-width:.09525;stroke-miterlimit:41.994751"/><path d="M38.481 11.191875L24.5745 .6858" style="fill:none;stroke:rgba(36,0,218,.24705882);stroke-width:.09525;stroke-miterlimit:41.994751"/><path d="M24.5745 11.0871V.6858" style="fill:none;stroke:rgba(36,0,218,.24705882);stroke-width:.09525;stroke-miterlimit:41.994751"/><path d="M46.31055 .66675L24.5745 .6858" style="fill:none;stroke:rgba(36,0,218,.24705882);stroke-width:.09525;stroke-miterlimit:41.994751"/><path d="M38.481 11.191875L24.5745 11.0871" style="fill:none;stroke:rgba(36,0,218,.24705882);stroke-width:.09525;stroke-miterlimit:41.994751"/><path d="M18.716625 10.696575L24.384 25.9461" style="fill:none;stroke:rgba(36,0,218,.24705882);stroke-width:.09525;stroke-miterlimit:41.994751"/><path d="M48.5775 47.7012L43.45305 49.672875" style="fill:none;stroke:rgba(28,0,226,.24705882);stroke-width:.09525;stroke-miterlimit:41.994751"/><path d="M44.681775 54.683025L58.359675 54.759225" style="fill:none;stroke:rgba(28,0,226,.24705882);stroke-width:.09525;stroke-miterlimit:41.994751"/><path d="M24.384 25.9461L24.17445 38.776275" style="fill:none;stroke:rgba(24,0,230,.24705882);stroke-width:.09525;stroke-miterlimit:41.994751"/><path d="M42.72915 55.006875H48.4632V54.511575H42.72915z" style="fill:rgba(20,0,234,.24705882);stroke:rgba(20,0,234,.24705882);stroke-width:.09525;stroke-miterlimit:41.994751"/><path d="M45.158025 54.683025A.47625 .47625 0 0044.205525 54.683025A.47625 .47625 0 0045.158025 54.683025z" fill="rgba(20,0,234,.24705882)"/><path d="M17.1831 54.6735H18.0213V30.76575H17.1831z" style="fill:rgba(20,0,234,.24705882);stroke:rgba(20,0,234,.24705882);stroke-width:.09525;stroke-miterlimit:41.994751"/><path d="M18.57375 41.89095A.47625 .47625 0 0017.62125 41.89095A.47625 .47625 0 0018.57375 41.89095z" fill="rgba(20,0,234,.24705882)"/><path d="M43.45305 49.672875L44.681775 54.683025" style="fill:none;stroke:rgba(16,0,234,.24705882);stroke-width:.09525;stroke-miterlimit:41.994751"/><path d="M18.0975 41.89095L24.17445 38.776275" style="fill:none;stroke:rgba(16,0,238,.24705882);stroke-width:.09525;stroke-miterlimit:41.994751"/><path d="M9.906 1.781175L24.5745 .6858" style="fill:none;stroke:rgba(16,0,238,.24705882);stroke-width:.09525;stroke-miterlimit:41.994751"/><path d="M18.526125 44.9199H30.241875V30.80385H18.526125z" style="fill:rgba(16,0,238,.24705882);stroke:rgba(16,0,238,.24705882);stroke-width:.09525;stroke-miterlimit:41.994751"/><path d="M24.6507 38.776275A.47625 .47625 0 0023.6982 38.776275A.47625 .47625 0 0024.6507 38.776275z" fill="rgba(16,0,238,.24705882)"/><path d="M38.481 54.435375H48.415575V44.9199H38.481z" style="fill:rgba(16,0,238,.24705882);stroke:rgba(16,0,238,.24705882);stroke-width:.09525;stroke-miterlimit:41.994751"/><path d="M43.9293 49.672875A.47625 .47625 0 0042.9768 49.672875A.47625 .47625 0 0043.9293 49.672875z" fill="rgba(16,0,238,.24705882)"/><path d="M30.241875 44.9199H38.481V30.80385H30.241875z" style="fill:rgba(16,0,238,.24705882);stroke:rgba(16,0,238,.24705882);stroke-width:.09525;stroke-miterlimit:41.994751"/><path d="M34.985325 38.76675A.47625 .47625 0 0034.032825 38.76675A.47625 .47625 0 0034.985325 38.76675z" fill="rgba(16,0,238,.24705882)"/><path d="M38.481 44.9199H48.415575V30.80385H38.481z" style="fill:rgba(16,0,238,.24705882);stroke:rgba(16,0,238,.24705882);stroke-width:.09525;stroke-miterlimit:41.994751"/><path d="M43.9293 38.76675A.47625 .47625 0 0042.9768 38.76675A.47625 .47625 0 0043.9293 38.76675z" fill="rgba(16,0,238,.24705882)"/><path d="M24.17445 38.776275L34.509075 38.76675" style="fill:none;stroke:rgba(16,0,238,.24705882);stroke-width:.09525;stroke-miterlimit:41.994751"/><path d="M34.509075 38.76675H43.45305" style="fill:none;stroke:rgba(16,0,238,.24705882);stroke-width:.09525;stroke-miterlimit:41.994751"/><path d="M43.45305 38.76675V49.672875" style="fill:none;stroke:rgba(16,0,238,.24705882);stroke-width:.09525;stroke-miterlimit:41.994751"/><path d="M30.413325 54.702075L44.681775 54.683025" style="fill:none;stroke:rgba(8,0,246,.24705882);stroke-width:.09525;stroke-miterlimit:41.994751"/><path d="M34.3662 49.577625L34.509075 38.76675" style="fill:none;stroke:rgba(8,0,246,.24705882);stroke-width:.09525;stroke-miterlimit:41.994751"/><path d="M24.17445 38.776275L24.412575 49.577625" style="fill:none;stroke:rgba(8,0,246,.24705882);stroke-width:.09525;stroke-miterlimit:41.994751"/><path d="M34.3662 49.577625L43.45305 49.672875" style="fill:none;stroke:rgba(8,0,246,.24705882);stroke-width:.09525;stroke-miterlimit:41.994751"/><path d="M.20955 1.905H1.3335V1.666875H.20955z" style="fill:rgba(0,0,255,.24705882);stroke:rgba(0,0,255,.24705882);stroke-width:.09525;stroke-miterlimit:41.994751"/><path d="M1.247775 1.781175A.47625 .47625 0 00.295275 1.781175A.47625 .47625 0 001.247775 1.781175z" fill="rgba(0,0,255,.24705882)"/><path d="M18.526125 54.42585H30.241875V44.9199H18.526125z" style="fill:rgba(0,0,255,.24705882);stroke:rgba(0,0,255,.24705882);stroke-width:.09525;stroke-miterlimit:41.994751"/><path d="M24.888825 49.577625A.47625 .47625 0 0023.936325 49.577625A.47625 .47625 0 0024.888825 49.577625z" fill="rgba(0,0,255,.24705882)"/><path d="M1.3335 1.905H18.4785V1.666875H1.3335z" style="fill:rgba(0,0,255,.24705882);stroke:rgba(0,0,255,.24705882);stroke-width:.09525;stroke-miterlimit:41.994751"/><path d="M10.38225 1.781175A.47625 .47625 0 009.42975 1.781175A.47625 .47625 0 0010.38225 1.781175z" fill="rgba(0,0,255,.24705882)"/><path d="M.20955 55.006875H1.3335V54.511575H.20955z" style="fill:rgba(0,0,255,.24705882);stroke:rgba(0,0,255,.24705882);stroke-width:.09525;stroke-miterlimit:41.994751"/><path d="M1.247775 54.702075A.47625 .47625 0 00.295275 54.702075A.47625 .47625 0 001.247775 54.702075z" fill="rgba(0,0,255,.24705882)"/><path d="M30.241875 54.42585H38.490525V44.9199H30.241875z" style="fill:rgba(0,0,255,.24705882);stroke:rgba(0,0,255,.24705882);stroke-width:.09525;stroke-miterlimit:41.994751"/><path d="M34.84245 49.577625A.47625 .47625 0 0033.88995 49.577625A.47625 .47625 0 0034.84245 49.577625z" fill="rgba(0,0,255,.24705882)"/><path d="M.20955 54.511575H1.3335V1.905H.20955z" style="fill:rgba(0,0,255,.24705882);stroke:rgba(0,0,255,.24705882);stroke-width:.09525;stroke-miterlimit:41.994751"/><path d="M1.247775 28.203525A.47625 .47625 0 00.295275 28.203525A.47625 .47625 0 001.247775 28.203525z" fill="rgba(0,0,255,.24705882)"/><path d="M18.0975 55.006875H42.72915V54.511575H18.0975z" style="fill:rgba(0,0,255,.24705882);stroke:rgba(0,0,255,.24705882);stroke-width:.09525;stroke-miterlimit:41.994751"/><path d="M30.889575 54.702075A.47625 .47625 0 0029.937075 54.702075A.47625 .47625 0 0030.889575 54.702075z" fill="rgba(0,0,255,.24705882)"/><path d="M1.3335 55.006875H18.0975V54.511575H1.3335z" style="fill:rgba(0,0,255,.24705882);stroke:rgba(0,0,255,.24705882);stroke-width:.09525;stroke-miterlimit:41.994751"/><path d="M10.19175 54.702075A.47625 .47625 0 009.23925 54.702075A.47625 .47625 0 0010.19175 54.702075z" fill="rgba(0,0,255,.24705882)"/><path d="M.771525 28.203525V1.781175" style="fill:none;stroke:rgba(0,0,255,.24705882);stroke-width:.09525;stroke-miterlimit:41.994751"/><path d="M30.413325 54.702075L24.412575 49.577625" style="fill:none;stroke:rgba(0,0,255,.24705882);stroke-width:.09525;stroke-miterlimit:41.994751"/><path d="M24.412575 49.577625H34.3662" style="fill:none;stroke:rgba(0,0,255,.24705882);stroke-width:.09525;stroke-miterlimit:41.994751"/><path d="M.771525 1.781175H9.906" style="fill:none;stroke:rgba(0,0,255,.24705882);stroke-width:.09525;stroke-miterlimit:41.994751"/><path d="M.771525 54.702075H9.7155" style="fill:none;stroke:rgba(0,0,255,.24705882);stroke-width:.09525;stroke-miterlimit:41.994751"/><path d="M9.7155 54.702075H30.413325" style="fill:none;stroke:rgba(0,0,255,.24705882);stroke-width:.09525;stroke-miterlimit:41.994751"/><path d="M.771525 54.702075V28.203525" style="fill:none;stroke:rgba(0,0,255,.24705882);stroke-width:.09525;stroke-miterlimit:41.994751"/></svg>