<svg version="1.1" width="436.53075mm" height="434.62575mm" viewBox="0 0 436.53075 434.62575" xmlns="http://www.w3.org/2000/svg" xmlns:xlink="http://www.w3.org/1999/xlink"><path d="M710.565 228.50475H712.47" style="fill:none;stroke:#f00;stroke-width:.09525;stroke-miterlimit:41.994751"/><path d="M710.565 228.50475V226.59975" style="fill:none;stroke:#0f0;stroke-width:.09525;stroke-miterlimit:41.994751"/><path d="M436.12118 157.24822A.47625 .47625 0 00435.16868 157.24822A.47625 .47625 0 00436.12118 157.24822z" fill="rgba(255,0,0,.24705882)"/><path d="M436.04498 106.05135L435.64493 157.24822" style="fill:none;stroke:rgba(255,0,0,.24705882);stroke-width:.09525;stroke-miterlimit:41.994751"/><path d="M436.52123 106.05135A.47625 .47625 0 00435.56873 106.05135A.47625 .47625 0 00436.52123 106.05135z" fill="rgba(255,0,0,.24705882)"/><path d="M431.9397 79.829025L436.04498 106.05135" style="fill:none;stroke:rgba(255,0,0,.24705882);stroke-width:.09525;stroke-miterlimit:41.994751"/><path d="M432.41595 79.829025A.47625 .47625 0 00431.46345 79.829025A.47625 .47625 0 00432.41595 79.829025z" fill="rgba(255,0,0,.24705882)"/><path d="M435.64493 157.24822L433.11128 185.8899" style="fill:none;stroke:rgba(255,0,0,.24705882);stroke-width:.09525;stroke-miterlimit:41.994751"/><path d="M429.9966 208.30222A.47625 .47625 0 00429.0441 208.30222A.47625 .47625 0 00429.9966 208.30222z" fill="rgba(255,0,0,.24705882)"/><path d="M429.52035 208.30222L433.11128 185.8899" style="fill:none;stroke:rgba(255,0,0,.24705882);stroke-width:.09525;stroke-miterlimit:41.994751"/><path d="M433.58753 185.8899A.47625 .47625 0 00432.63503 185.8899A.47625 .47625 0 00433.58753 185.8899z" fill="rgba(255,0,0,.24705882)"/><path d="M380.75235 406.99372A.47625 .47625 0 00379.79985 406.99372A.47625 .47625 0 00380.75235 406.99372z" fill="rgba(250,0,4,.24705882)"/><path d="M418.35705 326.7837A.47625 .47625 0 00417.40455 326.7837A.47625 .47625 0 00418.35705 326.7837z" fill="rgba(250,0,4,.24705882)"/><path d="M431.9397 79.829025L401.13585 65.008125" style="fill:none;stroke:rgba(250,0,4,.24705882);stroke-width:.09525;stroke-miterlimit:41.994751"/><path d="M380.2761 406.99372L374.4087 389.01052" style="fill:none;stroke:rgba(250,0,4,.24705882);stroke-width:.09525;stroke-miterlimit:41.994751"/><path d="M379.37123 427.51058L380.2761 406.99372" style="fill:none;stroke:rgba(250,0,4,.24705882);stroke-width:.09525;stroke-miterlimit:41.994751"/><path d="M406.21268 342.138L417.8808 326.7837" style="fill:none;stroke:rgba(250,0,4,.24705882);stroke-width:.09525;stroke-miterlimit:41.994751"/><path d="M374.88495 389.01052A.47625 .47625 0 00373.93245 389.01052A.47625 .47625 0 00374.88495 389.01052z" fill="rgba(250,0,4,.24705882)"/><path d="M417.8808 326.7837L419.07143 306.82882" style="fill:none;stroke:rgba(246,0,4,.24705882);stroke-width:.09525;stroke-miterlimit:41.994751"/><path d="M391.79183 355.26345A.47625 .47625 0 00390.83933 355.26345A.47625 .47625 0 00391.79183 355.26345z" fill="rgba(246,0,4,.24705882)"/><path d="M308.40045 396.78292A.47625 .47625 0 00307.44795 396.78292A.47625 .47625 0 00308.40045 396.78292z" fill="rgba(246,0,4,.24705882)"/><path d="M391.31558 355.26345L406.21268 342.138" style="fill:none;stroke:rgba(246,0,4,.24705882);stroke-width:.09525;stroke-miterlimit:41.994751"/><path d="M379.84748 427.51058A.47625 .47625 0 00378.89498 427.51058A.47625 .47625 0 00379.84748 427.51058z" fill="rgba(246,0,4,.24705882)"/><path d="M406.68893 342.138A.47625 .47625 0 00405.73643 342.138A.47625 .47625 0 00406.68893 342.138z" fill="rgba(246,0,8,.24705882)"/><path d="M362.4453 167.91622L435.64493 157.24822" style="fill:none;stroke:rgba(246,0,8,.24705882);stroke-width:.09525;stroke-miterlimit:41.994751"/><path d="M419.54768 306.82882A.47625 .47625 0 00418.59518 306.82882A.47625 .47625 0 00419.54768 306.82882z" fill="rgba(246,0,8,.24705882)"/><path d="M401.6121 65.008125A.47625 .47625 0 00400.6596 65.008125A.47625 .47625 0 00401.6121 65.008125z" fill="rgba(246,0,8,.24705882)"/><path d="M395.65898 37.785675A.47625 .47625 0 00394.70648 37.785675A.47625 .47625 0 00395.65898 37.785675z" fill="rgba(246,0,8,.24705882)"/><path d="M429.52035 208.30222L362.4453 167.91622" style="fill:none;stroke:rgba(246,0,8,.24705882);stroke-width:.09525;stroke-miterlimit:41.994751"/><path d="M429.52035 208.30222L409.66073 202.41577" style="fill:none;stroke:rgba(246,0,8,.24705882);stroke-width:.09525;stroke-miterlimit:41.994751"/><path d="M401.13585 65.008125L395.18273 54.702075" style="fill:none;stroke:rgba(246,0,8,.24705882);stroke-width:.09525;stroke-miterlimit:41.994751"/><path d="M395.18273 54.702075V37.785675" style="fill:none;stroke:rgba(246,0,8,.24705882);stroke-width:.09525;stroke-miterlimit:41.994751"/><path d="M395.65898 54.702075A.47625 .47625 0 00394.70648 54.702075A.47625 .47625 0 00395.65898 54.702075z" fill="rgba(246,0,8,.24705882)"/><path d="M402.85988 189.0141L435.64493 157.24822" style="fill:none;stroke:rgba(246,0,8,.24705882);stroke-width:.09525;stroke-miterlimit:41.994751"/><path d="M374.91353 185.55652L435.64493 157.24822" style="fill:none;stroke:rgba(246,0,8,.24705882);stroke-width:.09525;stroke-miterlimit:41.994751"/><path d="M380.2761 406.99372L361.4166 430.93005" style="fill:none;stroke:rgba(246,0,8,.24705882);stroke-width:.09525;stroke-miterlimit:41.994751"/><path d="M419.07143 306.82882L418.17608 286.12147" style="fill:none;stroke:rgba(246,0,8,.24705882);stroke-width:.09525;stroke-miterlimit:41.994751"/><path d="M395.18273 37.785675V17.20215" style="fill:none;stroke:rgba(246,0,8,.24705882);stroke-width:.09525;stroke-miterlimit:41.994751"/><path d="M401.13585 65.008125L369.74145 44.86275" style="fill:none;stroke:rgba(242,0,8,.24705882);stroke-width:.09525;stroke-miterlimit:41.994751"/><path d="M395.18273 37.785675L369.74145 44.86275" style="fill:none;stroke:rgba(242,0,8,.24705882);stroke-width:.09525;stroke-miterlimit:41.994751"/><path d="M369.74145 44.86275L395.18273 54.702075" style="fill:none;stroke:rgba(242,0,8,.24705882);stroke-width:.09525;stroke-miterlimit:41.994751"/><path d="M394.716 10.8585A.47625 .47625 0 00393.7635 10.8585A.47625 .47625 0 00394.716 10.8585z" fill="rgba(242,0,8,.24705882)"/><path d="M395.18273 17.20215L394.23975 10.8585" style="fill:none;stroke:rgba(242,0,12,.24705882);stroke-width:.09525;stroke-miterlimit:41.994751"/><path d="M401.13585 65.008125L371.08448 62.76975" style="fill:none;stroke:rgba(242,0,12,.24705882);stroke-width:.09525;stroke-miterlimit:41.994751"/><path d="M395.65898 17.20215A.47625 .47625 0 00394.70648 17.20215A.47625 .47625 0 00395.65898 17.20215z" fill="rgba(242,0,12,.24705882)"/><path d="M394.23975 10.8585L369.74145 44.86275" style="fill:none;stroke:rgba(242,0,12,.24705882);stroke-width:.09525;stroke-miterlimit:41.994751"/><path d="M418.65233 286.12147A.47625 .47625 0 00417.69983 286.12147A.47625 .47625 0 00418.65233 286.12147z" fill="rgba(242,0,12,.24705882)"/><path d="M361.4166 430.93005L379.37123 427.51058" style="fill:none;stroke:rgba(242,0,12,.24705882);stroke-width:.09525;stroke-miterlimit:41.994751"/><path d="M371.08448 62.76975L395.18273 54.702075" style="fill:none;stroke:rgba(242,0,12,.24705882);stroke-width:.09525;stroke-miterlimit:41.994751"/><path d="M369.74145 44.86275L395.18273 17.20215" style="fill:none;stroke:rgba(242,0,12,.24705882);stroke-width:.09525;stroke-miterlimit:41.994751"/><path d="M370.2177 44.86275A.47625 .47625 0 00369.2652 44.86275A.47625 .47625 0 00370.2177 44.86275z" fill="rgba(242,0,12,.24705882)"/><path d="M307.9242 396.78292L325.23113 430.38712" style="fill:none;stroke:rgba(242,0,12,.24705882);stroke-width:.09525;stroke-miterlimit:41.994751"/><path d="M371.08448 62.76975L369.74145 44.86275" style="fill:none;stroke:rgba(242,0,12,.24705882);stroke-width:.09525;stroke-miterlimit:41.994751"/><path d="M307.9242 396.78292L305.35245 428.32972" style="fill:none;stroke:rgba(242,0,12,.24705882);stroke-width:.09525;stroke-miterlimit:41.994751"/><path d="M344.5383 360.1212L307.9242 396.78292" style="fill:none;stroke:rgba(242,0,12,.24705882);stroke-width:.09525;stroke-miterlimit:41.994751"/><path d="M336.3849 45.1104L369.74145 44.86275" style="fill:none;stroke:rgba(242,0,12,.24705882);stroke-width:.09525;stroke-miterlimit:41.994751"/><path d="M394.23975 10.8585H369.92243" style="fill:none;stroke:rgba(242,0,12,.24705882);stroke-width:.09525;stroke-miterlimit:41.994751"/><path d="M369.74145 44.86275L369.92243 10.8585" style="fill:none;stroke:rgba(242,0,12,.24705882);stroke-width:.09525;stroke-miterlimit:41.994751"/><path d="M371.56073 62.76975A.47625 .47625 0 00370.60823 62.76975A.47625 .47625 0 00371.56073 62.76975z" fill="rgba(242,0,12,.24705882)"/><path d="M336.86115 45.1104A.47625 .47625 0 00335.90865 45.1104A.47625 .47625 0 00336.86115 45.1104z" fill="rgba(238,0,12,.24705882)"/><path d="M369.74145 44.86275L355.3587 69.43725" style="fill:none;stroke:rgba(238,0,12,.24705882);stroke-width:.09525;stroke-miterlimit:41.994751"/><path d="M370.39868 10.8585A.47625 .47625 0 00369.44618 10.8585A.47625 .47625 0 00370.39868 10.8585z" fill="rgba(238,0,12,.24705882)"/><path d="M418.17608 286.12147L403.96478 283.77832" style="fill:none;stroke:rgba(238,0,16,.24705882);stroke-width:.09525;stroke-miterlimit:41.994751"/><path d="M355.3587 69.43725L371.08448 62.76975" style="fill:none;stroke:rgba(238,0,16,.24705882);stroke-width:.09525;stroke-miterlimit:41.994751"/><path d="M361.89285 430.93005A.47625 .47625 0 00360.94035 430.93005A.47625 .47625 0 00361.89285 430.93005z" fill="rgba(238,0,16,.24705882)"/><path d="M355.3587 69.43725L336.3849 45.1104" style="fill:none;stroke:rgba(238,0,16,.24705882);stroke-width:.09525;stroke-miterlimit:41.994751"/><path d="M344.805 434.15902L361.4166 430.93005" style="fill:none;stroke:rgba(238,0,16,.24705882);stroke-width:.09525;stroke-miterlimit:41.994751"/><path d="M345.28125 434.15902A.47625 .47625 0 00344.32875 434.15902A.47625 .47625 0 00345.28125 434.15902z" fill="rgba(238,0,16,.24705882)"/><path d="M369.74145 44.86275L326.42175 4.181475" style="fill:none;stroke:rgba(238,0,16,.24705882);stroke-width:.09525;stroke-miterlimit:41.994751"/><path d="M325.23113 430.38712L344.805 434.15902" style="fill:none;stroke:rgba(238,0,16,.24705882);stroke-width:.09525;stroke-miterlimit:41.994751"/><path d="M369.92243 10.8585L344.20493 .47625" style="fill:none;stroke:rgba(238,0,16,.24705882);stroke-width:.09525;stroke-miterlimit:41.994751"/><path d="M325.70738 430.38712A.47625 .47625 0 00324.75488 430.38712A.47625 .47625 0 00325.70738 430.38712z" fill="rgba(238,0,16,.24705882)"/><path d="M355.83495 69.43725A.47625 .47625 0 00354.88245 69.43725A.47625 .47625 0 00355.83495 69.43725z" fill="rgba(238,0,16,.24705882)"/><path d="M362.92155 167.91622A.47625 .47625 0 00361.96905 167.91622A.47625 .47625 0 00362.92155 167.91622z" fill="rgba(238,0,16,.24705882)"/><path d="M410.13698 202.41577A.47625 .47625 0 00409.18448 202.41577A.47625 .47625 0 00410.13698 202.41577z" fill="rgba(238,0,16,.24705882)"/><path d="M305.35245 428.32972L325.23113 430.38712" style="fill:none;stroke:rgba(238,0,16,.24705882);stroke-width:.09525;stroke-miterlimit:41.994751"/><path d="M402.85988 189.0141L362.4453 167.91622" style="fill:none;stroke:rgba(234,0,16,.24705882);stroke-width:.09525;stroke-miterlimit:41.994751"/><path d="M409.66073 202.41577L402.85988 189.0141" style="fill:none;stroke:rgba(234,0,16,.24705882);stroke-width:.09525;stroke-miterlimit:41.994751"/><path d="M374.91353 185.55652L362.4453 167.91622" style="fill:none;stroke:rgba(234,0,16,.24705882);stroke-width:.09525;stroke-miterlimit:41.994751"/><path d="M344.68118 .47625A.47625 .47625 0 00343.72868 .47625A.47625 .47625 0 00344.68118 .47625z" fill="rgba(234,0,16,.24705882)"/><path d="M305.8287 428.32972A.47625 .47625 0 00304.8762 428.32972A.47625 .47625 0 00305.8287 428.32972z" fill="rgba(234,0,16,.24705882)"/><path d="M310.34355 53.4543L336.3849 45.1104" style="fill:none;stroke:rgba(234,0,20,.24705882);stroke-width:.09525;stroke-miterlimit:41.994751"/><path d="M287.32163 428.32972H305.35245" style="fill:none;stroke:rgba(234,0,20,.24705882);stroke-width:.09525;stroke-miterlimit:41.994751"/><path d="M345.01455 360.1212A.47625 .47625 0 00344.06205 360.1212A.47625 .47625 0 00345.01455 360.1212z" fill="rgba(234,0,20,.24705882)"/><path d="M344.5383 360.1212L320.16383 328.78395" style="fill:none;stroke:rgba(234,0,20,.24705882);stroke-width:.09525;stroke-miterlimit:41.994751"/><path d="M270.10995 317.69685A.47625 .47625 0 00269.15745 317.69685A.47625 .47625 0 00270.10995 317.69685z" fill="rgba(234,0,20,.24705882)"/><path d="M287.79788 428.32972A.47625 .47625 0 00286.84538 428.32972A.47625 .47625 0 00287.79788 428.32972z" fill="rgba(234,0,20,.24705882)"/><path d="M320.64008 328.78395A.47625 .47625 0 00319.68758 328.78395A.47625 .47625 0 00320.64008 328.78395z" fill="rgba(234,0,20,.24705882)"/><path d="M320.16383 328.78395L269.6337 317.69685" style="fill:none;stroke:rgba(234,0,20,.24705882);stroke-width:.09525;stroke-miterlimit:41.994751"/><path d="M404.44103 283.77832A.47625 .47625 0 00403.48853 283.77832A.47625 .47625 0 00404.44103 283.77832z" fill="rgba(234,0,20,.24705882)"/><path d="M403.33613 189.0141A.47625 .47625 0 00402.38363 189.0141A.47625 .47625 0 00403.33613 189.0141z" fill="rgba(234,0,20,.24705882)"/><path d="M402.85988 189.0141L374.91353 185.55652" style="fill:none;stroke:rgba(234,0,20,.24705882);stroke-width:.09525;stroke-miterlimit:41.994751"/><path d="M339.7758 81.029175L336.3849 45.1104" style="fill:none;stroke:rgba(234,0,20,.24705882);stroke-width:.09525;stroke-miterlimit:41.994751"/><path d="M375.38978 185.55652A.47625 .47625 0 00374.43728 185.55652A.47625 .47625 0 00375.38978 185.55652z" fill="rgba(234,0,20,.24705882)"/><path d="M344.20493 .47625L326.42175 4.181475" style="fill:none;stroke:rgba(234,0,20,.24705882);stroke-width:.09525;stroke-miterlimit:41.994751"/><path d="M336.3849 45.1104L303.9237 7.534275" style="fill:none;stroke:rgba(234,0,20,.24705882);stroke-width:.09525;stroke-miterlimit:41.994751"/><path d="M258.02273 428.32972H287.32163" style="fill:none;stroke:rgba(234,0,20,.24705882);stroke-width:.09525;stroke-miterlimit:41.994751"/><path d="M403.96478 283.77832L388.9248 276.31072" style="fill:none;stroke:rgba(234,0,20,.24705882);stroke-width:.09525;stroke-miterlimit:41.994751"/><path d="M326.898 4.181475A.47625 .47625 0 00325.9455 4.181475A.47625 .47625 0 00326.898 4.181475z" fill="rgba(234,0,20,.24705882)"/><path d="M258.49898 428.32972A.47625 .47625 0 00257.54648 428.32972A.47625 .47625 0 00258.49898 428.32972z" fill="rgba(234,0,20,.24705882)"/><path d="M355.3587 69.43725L339.7758 81.029175" style="fill:none;stroke:rgba(234,0,20,.24705882);stroke-width:.09525;stroke-miterlimit:41.994751"/><path d="M389.40105 276.31072A.47625 .47625 0 00388.44855 276.31072A.47625 .47625 0 00389.40105 276.31072z" fill="rgba(230,0,20,.24705882)"/><path d="M326.42175 4.181475L310.34355 53.4543" style="fill:none;stroke:rgba(230,0,20,.24705882);stroke-width:.09525;stroke-miterlimit:41.994751"/><path d="M303.9237 7.534275L326.42175 4.181475" style="fill:none;stroke:rgba(230,0,24,.24705882);stroke-width:.09525;stroke-miterlimit:41.994751"/><path d="M269.6337 317.69685L283.1592 278.04427" style="fill:none;stroke:rgba(230,0,24,.24705882);stroke-width:.09525;stroke-miterlimit:41.994751"/><path d="M310.8198 53.4543A.47625 .47625 0 00309.8673 53.4543A.47625 .47625 0 00310.8198 53.4543z" fill="rgba(230,0,24,.24705882)"/><path d="M300.36135 277.72042A.47625 .47625 0 00299.40885 277.72042A.47625 .47625 0 00300.36135 277.72042z" fill="rgba(230,0,24,.24705882)"/><path d="M310.34355 53.4543L339.7758 81.029175" style="fill:none;stroke:rgba(230,0,24,.24705882);stroke-width:.09525;stroke-miterlimit:41.994751"/><path d="M316.1919 274.03425L299.8851 277.72042" style="fill:none;stroke:rgba(230,0,24,.24705882);stroke-width:.09525;stroke-miterlimit:41.994751"/><path d="M310.34355 53.4543L297.49433 52.320825" style="fill:none;stroke:rgba(230,0,24,.24705882);stroke-width:.09525;stroke-miterlimit:41.994751"/><path d="M340.25205 81.029175A.47625 .47625 0 00339.29955 81.029175A.47625 .47625 0 00340.25205 81.029175z" fill="rgba(230,0,24,.24705882)"/><path d="M316.66815 274.03425A.47625 .47625 0 00315.71565 274.03425A.47625 .47625 0 00316.66815 274.03425z" fill="rgba(230,0,24,.24705882)"/><path d="M388.9248 276.31072L373.84673 267.93825" style="fill:none;stroke:rgba(226,0,24,.24705882);stroke-width:.09525;stroke-miterlimit:41.994751"/><path d="M304.39995 7.534275A.47625 .47625 0 00303.44745 7.534275A.47625 .47625 0 00304.39995 7.534275z" fill="rgba(226,0,24,.24705882)"/><path d="M274.4343 55.8546A.47625 .47625 0 00273.4818 55.8546A.47625 .47625 0 00274.4343 55.8546z" fill="rgba(226,0,24,.24705882)"/><path d="M299.8851 277.72042L283.1592 278.04427" style="fill:none;stroke:rgba(226,0,24,.24705882);stroke-width:.09525;stroke-miterlimit:41.994751"/><path d="M283.77833 55.311675L273.95805 55.8546" style="fill:none;stroke:rgba(226,0,24,.24705882);stroke-width:.09525;stroke-miterlimit:41.994751"/><path d="M358.54958 81.7626L355.3587 69.43725" style="fill:none;stroke:rgba(226,0,24,.24705882);stroke-width:.09525;stroke-miterlimit:41.994751"/><path d="M286.5882 36.6903A.47625 .47625 0 00285.6357 36.6903A.47625 .47625 0 00286.5882 36.6903z" fill="rgba(226,0,24,.24705882)"/><path d="M297.97058 52.320825A.47625 .47625 0 00297.01808 52.320825A.47625 .47625 0 00297.97058 52.320825z" fill="rgba(226,0,24,.24705882)"/><path d="M284.25458 55.311675A.47625 .47625 0 00283.30208 55.311675A.47625 .47625 0 00284.25458 55.311675z" fill="rgba(226,0,24,.24705882)"/><path d="M286.11195 36.6903L297.49433 52.320825" style="fill:none;stroke:rgba(226,0,24,.24705882);stroke-width:.09525;stroke-miterlimit:41.994751"/><path d="M297.49433 52.320825L283.77833 55.311675" style="fill:none;stroke:rgba(226,0,24,.24705882);stroke-width:.09525;stroke-miterlimit:41.994751"/><path d="M283.77833 55.311675L286.11195 36.6903" style="fill:none;stroke:rgba(226,0,24,.24705882);stroke-width:.09525;stroke-miterlimit:41.994751"/><path d="M237.363 428.00587L258.02273 428.32972" style="fill:none;stroke:rgba(226,0,28,.24705882);stroke-width:.09525;stroke-miterlimit:41.994751"/><path d="M283.63545 278.04427A.47625 .47625 0 00282.68295 278.04427A.47625 .47625 0 00283.63545 278.04427z" fill="rgba(226,0,28,.24705882)"/><path d="M337.7946 267.37627L316.1919 274.03425" style="fill:none;stroke:rgba(226,0,28,.24705882);stroke-width:.09525;stroke-miterlimit:41.994751"/><path d="M273.95805 55.8546L254.00318 55.654575" style="fill:none;stroke:rgba(226,0,28,.24705882);stroke-width:.09525;stroke-miterlimit:41.994751"/><path d="M374.32298 267.93825A.47625 .47625 0 00373.37048 267.93825A.47625 .47625 0 00374.32298 267.93825z" fill="rgba(226,0,28,.24705882)"/><path d="M283.1592 278.04427L262.80428 275.64397" style="fill:none;stroke:rgba(222,0,28,.24705882);stroke-width:.09525;stroke-miterlimit:41.994751"/><path d="M373.84673 267.93825L358.26383 264.89977" style="fill:none;stroke:rgba(222,0,28,.24705882);stroke-width:.09525;stroke-miterlimit:41.994751"/><path d="M358.74008 264.89977A.47625 .47625 0 00357.78758 264.89977A.47625 .47625 0 00358.74008 264.89977z" fill="rgba(222,0,32,.24705882)"/><path d="M263.28053 275.64397A.47625 .47625 0 00262.32803 275.64397A.47625 .47625 0 00263.28053 275.64397z" fill="rgba(222,0,32,.24705882)"/><path d="M303.9237 7.534275L277.57755 21.54555" style="fill:none;stroke:rgba(222,0,32,.24705882);stroke-width:.09525;stroke-miterlimit:41.994751"/><path d="M303.9237 7.534275L284.52128 9.23925" style="fill:none;stroke:rgba(222,0,32,.24705882);stroke-width:.09525;stroke-miterlimit:41.994751"/><path d="M286.11195 36.6903L277.57755 21.54555" style="fill:none;stroke:rgba(222,0,32,.24705882);stroke-width:.09525;stroke-miterlimit:41.994751"/><path d="M358.26383 264.89977L337.7946 267.37627" style="fill:none;stroke:rgba(222,0,32,.24705882);stroke-width:.09525;stroke-miterlimit:41.994751"/><path d="M254.47943 55.654575A.47625 .47625 0 00253.52693 55.654575A.47625 .47625 0 00254.47943 55.654575z" fill="rgba(222,0,32,.24705882)"/><path d="M338.27085 267.37627A.47625 .47625 0 00337.31835 267.37627A.47625 .47625 0 00338.27085 267.37627z" fill="rgba(222,0,32,.24705882)"/><path d="M310.34355 53.4543L316.05855 87.7062" style="fill:none;stroke:rgba(222,0,32,.24705882);stroke-width:.09525;stroke-miterlimit:41.994751"/><path d="M262.7757 12.353925L254.00318 55.654575" style="fill:none;stroke:rgba(222,0,32,.24705882);stroke-width:.09525;stroke-miterlimit:41.994751"/><path d="M254.00318 55.654575L223.06598 36.071175" style="fill:none;stroke:rgba(218,0,32,.24705882);stroke-width:.09525;stroke-miterlimit:41.994751"/><path d="M339.7758 81.029175L316.05855 87.7062" style="fill:none;stroke:rgba(218,0,32,.24705882);stroke-width:.09525;stroke-miterlimit:41.994751"/><path d="M221.35147 61.77915L254.00318 55.654575" style="fill:none;stroke:rgba(218,0,32,.24705882);stroke-width:.09525;stroke-miterlimit:41.994751"/><path d="M263.25195 12.353925A.47625 .47625 0 00262.29945 12.353925A.47625 .47625 0 00263.25195 12.353925z" fill="rgba(218,0,32,.24705882)"/><path d="M237.83925 428.00587A.47625 .47625 0 00236.88675 428.00587A.47625 .47625 0 00237.83925 428.00587z" fill="rgba(218,0,36,.24705882)"/><path d="M223.54223 36.071175A.47625 .47625 0 00222.58973 36.071175A.47625 .47625 0 00223.54223 36.071175z" fill="rgba(218,0,36,.24705882)"/><path d="M262.80428 275.64397L241.00155 272.8341" style="fill:none;stroke:rgba(218,0,36,.24705882);stroke-width:.09525;stroke-miterlimit:41.994751"/><path d="M240.59197 14.868525L262.7757 12.353925" style="fill:none;stroke:rgba(218,0,36,.24705882);stroke-width:.09525;stroke-miterlimit:41.994751"/><path d="M359.02583 81.7626A.47625 .47625 0 00358.07333 81.7626A.47625 .47625 0 00359.02583 81.7626z" fill="rgba(218,0,36,.24705882)"/><path d="M223.06598 36.071175L221.35147 61.77915" style="fill:none;stroke:rgba(218,0,36,.24705882);stroke-width:.09525;stroke-miterlimit:41.994751"/><path d="M223.06598 36.071175L227.43795 16.3068" style="fill:none;stroke:rgba(218,0,36,.24705882);stroke-width:.09525;stroke-miterlimit:41.994751"/><path d="M277.57755 21.54555L262.7757 12.353925" style="fill:none;stroke:rgba(218,0,36,.24705882);stroke-width:.09525;stroke-miterlimit:41.994751"/><path d="M262.7757 12.353925L284.52128 9.23925" style="fill:none;stroke:rgba(218,0,36,.24705882);stroke-width:.09525;stroke-miterlimit:41.994751"/><path d="M241.06822 14.868525A.47625 .47625 0 00240.11572 14.868525A.47625 .47625 0 00241.06822 14.868525z" fill="rgba(218,0,36,.24705882)"/><path d="M221.82772 61.77915A.47625 .47625 0 00220.87523 61.77915A.47625 .47625 0 00221.82772 61.77915z" fill="rgba(218,0,36,.24705882)"/><path d="M227.43795 16.3068L240.59197 14.868525" style="fill:none;stroke:rgba(218,0,36,.24705882);stroke-width:.09525;stroke-miterlimit:41.994751"/><path d="M371.16068 112.11877L371.08448 62.76975" style="fill:none;stroke:rgba(218,0,36,.24705882);stroke-width:.09525;stroke-miterlimit:41.994751"/><path d="M227.9142 16.3068A.47625 .47625 0 00226.9617 16.3068A.47625 .47625 0 00227.9142 16.3068z" fill="rgba(218,0,36,.24705882)"/><path d="M278.0538 21.54555A.47625 .47625 0 00277.1013 21.54555A.47625 .47625 0 00278.0538 21.54555z" fill="rgba(218,0,36,.24705882)"/><path d="M284.52128 9.23925L277.57755 21.54555" style="fill:none;stroke:rgba(218,0,36,.24705882);stroke-width:.09525;stroke-miterlimit:41.994751"/><path d="M284.99753 9.23925A.47625 .47625 0 00284.04503 9.23925A.47625 .47625 0 00284.99753 9.23925z" fill="rgba(218,0,36,.24705882)"/><path d="M241.4778 272.8341A.47625 .47625 0 00240.5253 272.8341A.47625 .47625 0 00241.4778 272.8341z" fill="rgba(214,0,40,.24705882)"/><path d="M404.26005 131.72122L401.13585 65.008125" style="fill:none;stroke:rgba(214,0,40,.24705882);stroke-width:.09525;stroke-miterlimit:41.994751"/><path d="M217.12238 427.46295L237.363 428.00587" style="fill:none;stroke:rgba(214,0,40,.24705882);stroke-width:.09525;stroke-miterlimit:41.994751"/><path d="M316.5348 87.7062A.47625 .47625 0 00315.5823 87.7062A.47625 .47625 0 00316.5348 87.7062z" fill="rgba(210,0,44,.24705882)"/><path d="M347.80538 98.517075L358.54958 81.7626" style="fill:none;stroke:rgba(210,0,44,.24705882);stroke-width:.09525;stroke-miterlimit:41.994751"/><path d="M241.00155 272.8341L218.7321 270.29092" style="fill:none;stroke:rgba(210,0,44,.24705882);stroke-width:.09525;stroke-miterlimit:41.994751"/><path d="M217.2462 94.04985L221.35147 61.77915" style="fill:none;stroke:rgba(210,0,44,.24705882);stroke-width:.09525;stroke-miterlimit:41.994751"/><path d="M299.3136 358.38765L307.9242 396.78292" style="fill:none;stroke:rgba(210,0,44,.24705882);stroke-width:.09525;stroke-miterlimit:41.994751"/><path d="M254.00318 55.654575L297.2562 94.08795" style="fill:none;stroke:rgba(210,0,44,.24705882);stroke-width:.09525;stroke-miterlimit:41.994751"/><path d="M217.59863 427.46295A.47625 .47625 0 00216.64613 427.46295A.47625 .47625 0 00217.59863 427.46295z" fill="rgba(206,0,48,.24705882)"/><path d="M219.20835 270.29092A.47625 .47625 0 00218.25585 270.29092A.47625 .47625 0 00219.20835 270.29092z" fill="rgba(206,0,48,.24705882)"/><path d="M316.05855 87.7062L297.2562 94.08795" style="fill:none;stroke:rgba(202,0,48,.24705882);stroke-width:.09525;stroke-miterlimit:41.994751"/><path d="M348.28163 98.517075A.47625 .47625 0 00347.32913 98.517075A.47625 .47625 0 00348.28163 98.517075z" fill="rgba(202,0,48,.24705882)"/><path d="M299.3136 358.38765L320.16383 328.78395" style="fill:none;stroke:rgba(202,0,52,.24705882);stroke-width:.09525;stroke-miterlimit:41.994751"/><path d="M254.00318 55.654575L255.86055 109.31842" style="fill:none;stroke:rgba(202,0,52,.24705882);stroke-width:.09525;stroke-miterlimit:41.994751"/><path d="M217.72245 94.04985A.47625 .47625 0 00216.76995 94.04985A.47625 .47625 0 00217.72245 94.04985z" fill="rgba(202,0,52,.24705882)"/><path d="M196.89128 421.767L217.12238 427.46295" style="fill:none;stroke:rgba(202,0,52,.24705882);stroke-width:.09525;stroke-miterlimit:41.994751"/><path d="M218.7321 270.29092L198.85343 271.93875" style="fill:none;stroke:rgba(198,0,56,.24705882);stroke-width:.09525;stroke-miterlimit:41.994751"/><path d="M197.34847 387.71512A.47625 .47625 0 00196.39597 387.71512A.47625 .47625 0 00197.34847 387.71512z" fill="rgba(198,0,56,.24705882)"/><path d="M297.73245 94.08795A.47625 .47625 0 00296.77995 94.08795A.47625 .47625 0 00297.73245 94.08795z" fill="rgba(198,0,56,.24705882)"/><path d="M325.85025 110.91862L347.80538 98.517075" style="fill:none;stroke:rgba(194,0,60,.24705882);stroke-width:.09525;stroke-miterlimit:41.994751"/><path d="M371.63693 112.11877A.47625 .47625 0 00370.68443 112.11877A.47625 .47625 0 00371.63693 112.11877z" fill="rgba(194,0,60,.24705882)"/><path d="M197.36753 421.767A.47625 .47625 0 00196.41503 421.767A.47625 .47625 0 00197.36753 421.767z" fill="rgba(194,0,60,.24705882)"/><path d="M209.95005 108.70882L217.2462 94.04985" style="fill:none;stroke:rgba(190,0,60,.24705882);stroke-width:.09525;stroke-miterlimit:41.994751"/><path d="M199.32968 271.93875A.47625 .47625 0 00198.37718 271.93875A.47625 .47625 0 00199.32968 271.93875z" fill="rgba(190,0,60,.24705882)"/><path d="M217.2462 94.04985L255.86055 109.31842" style="fill:none;stroke:rgba(190,0,60,.24705882);stroke-width:.09525;stroke-miterlimit:41.994751"/><path d="M297.2562 94.08795L277.61565 106.17517" style="fill:none;stroke:rgba(190,0,64,.24705882);stroke-width:.09525;stroke-miterlimit:41.994751"/><path d="M371.16068 112.11877L325.85025 110.91862" style="fill:none;stroke:rgba(190,0,64,.24705882);stroke-width:.09525;stroke-miterlimit:41.994751"/><path d="M371.16068 112.11877L404.26005 131.72122" style="fill:none;stroke:rgba(190,0,64,.24705882);stroke-width:.09525;stroke-miterlimit:41.994751"/><path d="M180.87975 407.6319L196.89128 421.767" style="fill:none;stroke:rgba(186,0,64,.24705882);stroke-width:.09525;stroke-miterlimit:41.994751"/><path d="M171.2976 345.02407L196.87222 387.71512" style="fill:none;stroke:rgba(186,0,68,.24705882);stroke-width:.09525;stroke-miterlimit:41.994751"/><path d="M326.3265 110.91862A.47625 .47625 0 00325.374 110.91862A.47625 .47625 0 00326.3265 110.91862z" fill="rgba(186,0,68,.24705882)"/><path d="M278.0919 106.17517A.47625 .47625 0 00277.1394 106.17517A.47625 .47625 0 00278.0919 106.17517z" fill="rgba(186,0,68,.24705882)"/><path d="M371.16068 112.11877L361.5309 148.08517" style="fill:none;stroke:rgba(182,0,68,.24705882);stroke-width:.09525;stroke-miterlimit:41.994751"/><path d="M277.61565 106.17517L255.86055 109.31842" style="fill:none;stroke:rgba(182,0,72,.24705882);stroke-width:.09525;stroke-miterlimit:41.994751"/><path d="M210.4263 108.70882A.47625 .47625 0 00209.4738 108.70882A.47625 .47625 0 00210.4263 108.70882z" fill="rgba(182,0,72,.24705882)"/><path d="M404.7363 131.72122A.47625 .47625 0 00403.7838 131.72122A.47625 .47625 0 00404.7363 131.72122z" fill="rgba(182,0,72,.24705882)"/><path d="M385.6482 140.86522L404.26005 131.72122" style="fill:none;stroke:rgba(182,0,72,.24705882);stroke-width:.09525;stroke-miterlimit:41.994751"/><path d="M256.3368 109.31842A.47625 .47625 0 00255.3843 109.31842A.47625 .47625 0 00256.3368 109.31842z" fill="rgba(182,0,72,.24705882)"/><path d="M181.356 407.6319A.47625 .47625 0 00180.4035 407.6319A.47625 .47625 0 00181.356 407.6319z" fill="rgba(182,0,72,.24705882)"/><path d="M386.12445 140.86522A.47625 .47625 0 00385.17195 140.86522A.47625 .47625 0 00386.12445 140.86522z" fill="rgba(182,0,72,.24705882)"/><path d="M130.89255 370.12245A.47625 .47625 0 00129.94005 370.12245A.47625 .47625 0 00130.89255 370.12245z" fill="rgba(182,0,72,.24705882)"/><path d="M115.05247 357.05415L130.4163 370.12245" style="fill:none;stroke:rgba(182,0,72,.24705882);stroke-width:.09525;stroke-miterlimit:41.994751"/><path d="M115.52872 357.05415A.47625 .47625 0 00114.57622 357.05415A.47625 .47625 0 00115.52872 357.05415z" fill="rgba(182,0,72,.24705882)"/><path d="M230.06685 111.5187L209.95005 108.70882" style="fill:none;stroke:rgba(182,0,72,.24705882);stroke-width:.09525;stroke-miterlimit:41.994751"/><path d="M255.86055 109.31842L230.06685 111.5187" style="fill:none;stroke:rgba(178,0,72,.24705882);stroke-width:.09525;stroke-miterlimit:41.994751"/><path d="M130.4163 370.12245L145.03718 385.29577" style="fill:none;stroke:rgba(178,0,76,.24705882);stroke-width:.09525;stroke-miterlimit:41.994751"/><path d="M153.1239 346.19565A.47625 .47625 0 00152.1714 346.19565A.47625 .47625 0 00153.1239 346.19565z" fill="rgba(178,0,76,.24705882)"/><path d="M95.164275 352.10115L115.05247 357.05415" style="fill:none;stroke:rgba(178,0,76,.24705882);stroke-width:.09525;stroke-miterlimit:41.994751"/><path d="M336.40395 153.02865L325.85025 110.91862" style="fill:none;stroke:rgba(178,0,76,.24705882);stroke-width:.09525;stroke-miterlimit:41.994751"/><path d="M230.5431 111.5187A.47625 .47625 0 00229.5906 111.5187A.47625 .47625 0 00230.5431 111.5187z" fill="rgba(178,0,76,.24705882)"/><path d="M161.05822 395.03985L180.87975 407.6319" style="fill:none;stroke:rgba(178,0,76,.24705882);stroke-width:.09525;stroke-miterlimit:41.994751"/><path d="M304.8 114.74767L325.85025 110.91862" style="fill:none;stroke:rgba(178,0,76,.24705882);stroke-width:.09525;stroke-miterlimit:41.994751"/><path d="M145.51343 385.29577A.47625 .47625 0 00144.56093 385.29577A.47625 .47625 0 00145.51343 385.29577z" fill="rgba(178,0,76,.24705882)"/><path d="M115.05247 357.05415L127.23495 335.8134" style="fill:none;stroke:rgba(178,0,76,.24705882);stroke-width:.09525;stroke-miterlimit:41.994751"/><path d="M374.38965 155.73375L385.6482 140.86522" style="fill:none;stroke:rgba(178,0,76,.24705882);stroke-width:.09525;stroke-miterlimit:41.994751"/><path d="M152.64765 346.19565L171.2976 345.02407" style="fill:none;stroke:rgba(178,0,76,.24705882);stroke-width:.09525;stroke-miterlimit:41.994751"/><path d="M152.64765 346.19565L127.23495 335.8134" style="fill:none;stroke:rgba(174,0,76,.24705882);stroke-width:.09525;stroke-miterlimit:41.994751"/><path d="M95.640525 352.10115A.47625 .47625 0 0094.688025 352.10115A.47625 .47625 0 0095.640525 352.10115z" fill="rgba(174,0,76,.24705882)"/><path d="M145.03718 385.29577L161.05822 395.03985" style="fill:none;stroke:rgba(174,0,76,.24705882);stroke-width:.09525;stroke-miterlimit:41.994751"/><path d="M142.52258 327.02182L152.64765 346.19565" style="fill:none;stroke:rgba(174,0,80,.24705882);stroke-width:.09525;stroke-miterlimit:41.994751"/><path d="M161.53447 395.03985A.47625 .47625 0 00160.58197 395.03985A.47625 .47625 0 00161.53447 395.03985z" fill="rgba(174,0,80,.24705882)"/><path d="M127.23495 335.8134L95.164275 352.10115" style="fill:none;stroke:rgba(174,0,80,.24705882);stroke-width:.09525;stroke-miterlimit:41.994751"/><path d="M171.77385 345.02407A.47625 .47625 0 00170.82135 345.02407A.47625 .47625 0 00171.77385 345.02407z" fill="rgba(174,0,80,.24705882)"/><path d="M115.05247 357.05415L113.77613 324.29767" style="fill:none;stroke:rgba(174,0,80,.24705882);stroke-width:.09525;stroke-miterlimit:41.994751"/><path d="M362.00715 148.08517A.47625 .47625 0 00361.05465 148.08517A.47625 .47625 0 00362.00715 148.08517z" fill="rgba(174,0,80,.24705882)"/><path d="M171.2976 345.02407L190.48095 349.7199" style="fill:none;stroke:rgba(174,0,80,.24705882);stroke-width:.09525;stroke-miterlimit:41.994751"/><path d="M127.7112 335.8134A.47625 .47625 0 00126.7587 335.8134A.47625 .47625 0 00127.7112 335.8134z" fill="rgba(174,0,80,.24705882)"/><path d="M76.038075 342.35707L95.164275 352.10115" style="fill:none;stroke:rgba(174,0,80,.24705882);stroke-width:.09525;stroke-miterlimit:41.994751"/><path d="M361.5309 148.08517L374.38965 155.73375" style="fill:none;stroke:rgba(174,0,80,.24705882);stroke-width:.09525;stroke-miterlimit:41.994751"/><path d="M374.8659 155.73375A.47625 .47625 0 00373.9134 155.73375A.47625 .47625 0 00374.8659 155.73375z" fill="rgba(170,0,80,.24705882)"/><path d="M127.23495 335.8134L142.52258 327.02182" style="fill:none;stroke:rgba(170,0,80,.24705882);stroke-width:.09525;stroke-miterlimit:41.994751"/><path d="M226.07588 354.50145A.47625 .47625 0 00225.12338 354.50145A.47625 .47625 0 00226.07588 354.50145z" fill="rgba(170,0,80,.24705882)"/><path d="M336.40395 153.02865L361.5309 148.08517" style="fill:none;stroke:rgba(170,0,80,.24705882);stroke-width:.09525;stroke-miterlimit:41.994751"/><path d="M205.22565 353.08222L225.59963 354.50145" style="fill:none;stroke:rgba(170,0,80,.24705882);stroke-width:.09525;stroke-miterlimit:41.994751"/><path d="M190.9572 349.7199A.47625 .47625 0 00190.0047 349.7199A.47625 .47625 0 00190.9572 349.7199z" fill="rgba(170,0,80,.24705882)"/><path d="M254.26035 354.50145H225.59963" style="fill:none;stroke:rgba(170,0,80,.24705882);stroke-width:.09525;stroke-miterlimit:41.994751"/><path d="M190.48095 349.7199L205.22565 353.08222" style="fill:none;stroke:rgba(170,0,80,.24705882);stroke-width:.09525;stroke-miterlimit:41.994751"/><path d="M205.7019 353.08222A.47625 .47625 0 00204.7494 353.08222A.47625 .47625 0 00205.7019 353.08222z" fill="rgba(170,0,80,.24705882)"/><path d="M142.99883 327.02182A.47625 .47625 0 00142.04633 327.02182A.47625 .47625 0 00142.99883 327.02182z" fill="rgba(170,0,85,.24705882)"/><path d="M254.7366 354.50145A.47625 .47625 0 00253.7841 354.50145A.47625 .47625 0 00254.7366 354.50145z" fill="rgba(170,0,85,.24705882)"/><path d="M299.78985 358.38765A.47625 .47625 0 00298.83735 358.38765A.47625 .47625 0 00299.78985 358.38765z" fill="rgba(170,0,85,.24705882)"/><path d="M272.62455 359.283A.47625 .47625 0 00271.67205 359.283A.47625 .47625 0 00272.62455 359.283z" fill="rgba(170,0,85,.24705882)"/><path d="M113.77613 324.29767L95.164275 352.10115" style="fill:none;stroke:rgba(170,0,85,.24705882);stroke-width:.09525;stroke-miterlimit:41.994751"/><path d="M254.26035 354.50145L263.29958 358.91152" style="fill:none;stroke:rgba(170,0,85,.24705882);stroke-width:.09525;stroke-miterlimit:41.994751"/><path d="M263.29958 358.91152L272.1483 359.283" style="fill:none;stroke:rgba(170,0,85,.24705882);stroke-width:.09525;stroke-miterlimit:41.994751"/><path d="M283.3497 358.64482L299.3136 358.38765" style="fill:none;stroke:rgba(170,0,85,.24705882);stroke-width:.09525;stroke-miterlimit:41.994751"/><path d="M272.1483 359.283L283.3497 358.64482" style="fill:none;stroke:rgba(170,0,85,.24705882);stroke-width:.09525;stroke-miterlimit:41.994751"/><path d="M336.8802 153.02865A.47625 .47625 0 00335.9277 153.02865A.47625 .47625 0 00336.8802 153.02865z" fill="rgba(170,0,85,.24705882)"/><path d="M263.77583 358.91152A.47625 .47625 0 00262.82333 358.91152A.47625 .47625 0 00263.77583 358.91152z" fill="rgba(170,0,85,.24705882)"/><path d="M283.82595 358.64482A.47625 .47625 0 00282.87345 358.64482A.47625 .47625 0 00283.82595 358.64482z" fill="rgba(170,0,85,.24705882)"/><path d="M305.27625 114.74767A.47625 .47625 0 00304.32375 114.74767A.47625 .47625 0 00305.27625 114.74767z" fill="rgba(170,0,85,.24705882)"/><path d="M76.514325 342.35707A.47625 .47625 0 0075.561825 342.35707A.47625 .47625 0 0076.514325 342.35707z" fill="rgba(170,0,85,.24705882)"/><path d="M113.77613 324.29767L127.23495 335.8134" style="fill:none;stroke:rgba(170,0,85,.24705882);stroke-width:.09525;stroke-miterlimit:41.994751"/><path d="M298.52303 153.4287L336.40395 153.02865" style="fill:none;stroke:rgba(165,0,89,.24705882);stroke-width:.09525;stroke-miterlimit:41.994751"/><path d="M114.25238 324.29767A.47625 .47625 0 00113.29988 324.29767A.47625 .47625 0 00114.25238 324.29767z" fill="rgba(165,0,89,.24705882)"/><path d="M198.85343 271.93875L163.59188 267.462" style="fill:none;stroke:rgba(165,0,89,.24705882);stroke-width:.09525;stroke-miterlimit:41.994751"/><path d="M52.568475 330.6318L76.038075 342.35707" style="fill:none;stroke:rgba(165,0,89,.24705882);stroke-width:.09525;stroke-miterlimit:41.994751"/><path d="M298.99928 153.4287A.47625 .47625 0 00298.04678 153.4287A.47625 .47625 0 00298.99928 153.4287z" fill="rgba(161,0,93,.24705882)"/><path d="M67.30365 306.10492L76.038075 342.35707" style="fill:none;stroke:rgba(161,0,93,.24705882);stroke-width:.09525;stroke-miterlimit:41.994751"/><path d="M53.044725 330.6318A.47625 .47625 0 0052.092225 330.6318A.47625 .47625 0 0053.044725 330.6318z" fill="rgba(161,0,93,.24705882)"/><path d="M35.518725 321.89737L52.568475 330.6318" style="fill:none;stroke:rgba(157,0,93,.24705882);stroke-width:.09525;stroke-miterlimit:41.994751"/><path d="M114.9096 305.87632L113.77613 324.29767" style="fill:none;stroke:rgba(157,0,93,.24705882);stroke-width:.09525;stroke-miterlimit:41.994751"/><path d="M113.77613 324.29767L67.30365 306.10492" style="fill:none;stroke:rgba(157,0,93,.24705882);stroke-width:.09525;stroke-miterlimit:41.994751"/><path d="M35.994975 321.89737A.47625 .47625 0 0035.042475 321.89737A.47625 .47625 0 0035.994975 321.89737z" fill="rgba(157,0,97,.24705882)"/><path d="M278.49195 123.83452L304.8 114.74767" style="fill:none;stroke:rgba(157,0,97,.24705882);stroke-width:.09525;stroke-miterlimit:41.994751"/><path d="M16.983075 313.91542L35.518725 321.89737" style="fill:none;stroke:rgba(157,0,97,.24705882);stroke-width:.09525;stroke-miterlimit:41.994751"/><path d="M21.250275 291.465A.47625 .47625 0 0020.297775 291.465A.47625 .47625 0 0021.250275 291.465z" fill="rgba(157,0,97,.24705882)"/><path d="M67.30365 306.10492L52.568475 330.6318" style="fill:none;stroke:rgba(157,0,97,.24705882);stroke-width:.09525;stroke-miterlimit:41.994751"/><path d="M26.23185 278.21572L20.774025 291.465" style="fill:none;stroke:rgba(153,0,97,.24705882);stroke-width:.09525;stroke-miterlimit:41.994751"/><path d="M17.459325 313.91542A.47625 .47625 0 0016.506825 313.91542A.47625 .47625 0 0017.459325 313.91542z" fill="rgba(153,0,97,.24705882)"/><path d="M276.1107 156.18142L298.52303 153.4287" style="fill:none;stroke:rgba(153,0,97,.24705882);stroke-width:.09525;stroke-miterlimit:41.994751"/><path d="M283.1592 278.04427L299.47553 253.53645" style="fill:none;stroke:rgba(153,0,97,.24705882);stroke-width:.09525;stroke-miterlimit:41.994751"/><path d="M26.7081 278.21572A.47625 .47625 0 0025.7556 278.21572A.47625 .47625 0 0026.7081 278.21572z" fill="rgba(153,0,101,.24705882)"/><path d="M20.774025 291.465L.466725 297.88485" style="fill:none;stroke:rgba(153,0,101,.24705882);stroke-width:.09525;stroke-miterlimit:41.994751"/><path d="M.466725 297.88485L16.983075 313.91542" style="fill:none;stroke:rgba(153,0,101,.24705882);stroke-width:.09525;stroke-miterlimit:41.994751"/><path d="M298.52303 153.4287L278.49195 123.83452" style="fill:none;stroke:rgba(153,0,101,.24705882);stroke-width:.09525;stroke-miterlimit:41.994751"/><path d="M67.30365 306.10492L26.23185 278.21572" style="fill:none;stroke:rgba(153,0,101,.24705882);stroke-width:.09525;stroke-miterlimit:41.994751"/><path d="M115.38585 305.87632A.47625 .47625 0 00114.43335 305.87632A.47625 .47625 0 00115.38585 305.87632z" fill="rgba(153,0,101,.24705882)"/><path d="M.942975 297.88485A.47625 .47625 0 00-.009525 297.88485A.47625 .47625 0 00.942975 297.88485z" fill="rgba(153,0,101,.24705882)"/><path d="M114.9096 305.87632L67.30365 306.10492" style="fill:none;stroke:rgba(153,0,101,.24705882);stroke-width:.09525;stroke-miterlimit:41.994751"/><path d="M67.30365 306.10492L.466725 297.88485" style="fill:none;stroke:rgba(153,0,101,.24705882);stroke-width:.09525;stroke-miterlimit:41.994751"/><path d="M67.7799 306.10492A.47625 .47625 0 0066.8274 306.10492A.47625 .47625 0 0067.7799 306.10492z" fill="rgba(153,0,101,.24705882)"/><path d="M276.58695 156.18142A.47625 .47625 0 00275.63445 156.18142A.47625 .47625 0 00276.58695 156.18142z" fill="rgba(149,0,105,.24705882)"/><path d="M42.872025 271.67205L26.23185 278.21572" style="fill:none;stroke:rgba(145,0,105,.24705882);stroke-width:.09525;stroke-miterlimit:41.994751"/><path d="M278.9682 123.83452A.47625 .47625 0 00278.0157 123.83452A.47625 .47625 0 00278.9682 123.83452z" fill="rgba(145,0,109,.24705882)"/><path d="M117.55755 289.03612L114.9096 305.87632" style="fill:none;stroke:rgba(141,0,109,.24705882);stroke-width:.09525;stroke-miterlimit:41.994751"/><path d="M67.30365 306.10492L117.55755 289.03612" style="fill:none;stroke:rgba(141,0,109,.24705882);stroke-width:.09525;stroke-miterlimit:41.994751"/><path d="M260.44208 162.12502L276.1107 156.18142" style="fill:none;stroke:rgba(141,0,113,.24705882);stroke-width:.09525;stroke-miterlimit:41.994751"/><path d="M43.348275 271.67205A.47625 .47625 0 0042.395775 271.67205A.47625 .47625 0 0043.348275 271.67205z" fill="rgba(141,0,113,.24705882)"/><path d="M67.30365 306.10492L66.2559 269.4813" style="fill:none;stroke:rgba(137,0,113,.24705882);stroke-width:.09525;stroke-miterlimit:41.994751"/><path d="M164.06813 267.462A.47625 .47625 0 00163.11563 267.462A.47625 .47625 0 00164.06813 267.462z" fill="rgba(137,0,117,.24705882)"/><path d="M254.4699 128.12077L278.49195 123.83452" style="fill:none;stroke:rgba(133,0,121,.24705882);stroke-width:.09525;stroke-miterlimit:41.994751"/><path d="M118.0338 289.03612A.47625 .47625 0 00117.0813 289.03612A.47625 .47625 0 00118.0338 289.03612z" fill="rgba(133,0,121,.24705882)"/><path d="M163.59188 267.462L147.2184 265.54747" style="fill:none;stroke:rgba(133,0,121,.24705882);stroke-width:.09525;stroke-miterlimit:41.994751"/><path d="M66.2559 269.4813L42.872025 271.67205" style="fill:none;stroke:rgba(133,0,121,.24705882);stroke-width:.09525;stroke-miterlimit:41.994751"/><path d="M260.91833 162.12502A.47625 .47625 0 00259.96583 162.12502A.47625 .47625 0 00260.91833 162.12502z" fill="rgba(133,0,121,.24705882)"/><path d="M117.55755 289.03612L134.08343 269.89087" style="fill:none;stroke:rgba(129,0,125,.24705882);stroke-width:.09525;stroke-miterlimit:41.994751"/><path d="M147.69465 265.54747A.47625 .47625 0 00146.74215 265.54747A.47625 .47625 0 00147.69465 265.54747z" fill="rgba(129,0,125,.24705882)"/><path d="M260.44208 162.12502L254.4699 128.12077" style="fill:none;stroke:rgba(125,0,125,.24705882);stroke-width:.09525;stroke-miterlimit:41.994751"/><path d="M147.2184 265.54747L134.08343 269.89087" style="fill:none;stroke:rgba(125,0,129,.24705882);stroke-width:.09525;stroke-miterlimit:41.994751"/><path d="M66.73215 269.4813A.47625 .47625 0 0065.77965 269.4813A.47625 .47625 0 0066.73215 269.4813z" fill="rgba(125,0,129,.24705882)"/><path d="M134.55968 269.89087A.47625 .47625 0 00133.60718 269.89087A.47625 .47625 0 00134.55968 269.89087z" fill="rgba(125,0,129,.24705882)"/><path d="M77.51445 260.34682L66.2559 269.4813" style="fill:none;stroke:rgba(125,0,129,.24705882);stroke-width:.09525;stroke-miterlimit:41.994751"/><path d="M134.08343 269.89087L77.51445 260.34682" style="fill:none;stroke:rgba(121,0,129,.24705882);stroke-width:.09525;stroke-miterlimit:41.994751"/><path d="M254.94615 128.12077A.47625 .47625 0 00253.99365 128.12077A.47625 .47625 0 00254.94615 128.12077z" fill="rgba(121,0,129,.24705882)"/><path d="M225.14243 150.06637L260.44208 162.12502" style="fill:none;stroke:rgba(121,0,133,.24705882);stroke-width:.09525;stroke-miterlimit:41.994751"/><path d="M77.9907 260.34682A.47625 .47625 0 0077.0382 260.34682A.47625 .47625 0 0077.9907 260.34682z" fill="rgba(121,0,133,.24705882)"/><path d="M82.6389 245.9355L117.55755 289.03612" style="fill:none;stroke:rgba(121,0,133,.24705882);stroke-width:.09525;stroke-miterlimit:41.994751"/><path d="M332.613 226.98075H346.329V222.40875H332.613z" style="fill:rgba(121,0,133,.24705882);stroke:rgba(121,0,133,.24705882);stroke-width:.09525;stroke-miterlimit:41.994751"/><path d="M339.80438 224.54235A.47625 .47625 0 00338.85188 224.54235A.47625 .47625 0 00339.80438 224.54235z" fill="rgba(121,0,133,.24705882)"/><path d="M315.51563 226.21875H332.613V222.40875H315.51563z" style="fill:rgba(121,0,133,.24705882);stroke:rgba(121,0,133,.24705882);stroke-width:.09525;stroke-miterlimit:41.994751"/><path d="M324.54533 224.54235A.47625 .47625 0 00323.59283 224.54235A.47625 .47625 0 00324.54533 224.54235z" fill="rgba(121,0,133,.24705882)"/><path d="M332.613 231.93375H344.805V226.98075H332.613z" style="fill:rgba(121,0,133,.24705882);stroke:rgba(121,0,133,.24705882);stroke-width:.09525;stroke-miterlimit:41.994751"/><path d="M339.26145 229.49535A.47625 .47625 0 00338.30895 229.49535A.47625 .47625 0 00339.26145 229.49535z" fill="rgba(121,0,133,.24705882)"/><path d="M294.513 222.40875H346.329V193.45275H294.513z" style="fill:rgba(121,0,133,.24705882);stroke:rgba(121,0,133,.24705882);stroke-width:.09525;stroke-miterlimit:41.994751"/><path d="M320.84963 208.07362A.47625 .47625 0 00319.89713 208.07362A.47625 .47625 0 00320.84963 208.07362z" fill="rgba(121,0,133,.24705882)"/><path d="M294.513 226.98075H311.277V222.40875H294.513z" style="fill:rgba(121,0,133,.24705882);stroke:rgba(121,0,133,.24705882);stroke-width:.09525;stroke-miterlimit:41.994751"/><path d="M303.47603 224.54235A.47625 .47625 0 00302.52353 224.54235A.47625 .47625 0 00303.47603 224.54235z" fill="rgba(121,0,133,.24705882)"/><path d="M338.7852 229.49535L339.32813 224.54235" style="fill:none;stroke:rgba(121,0,133,.24705882);stroke-width:.09525;stroke-miterlimit:41.994751"/><path d="M339.32813 224.54235L320.37338 208.07362" style="fill:none;stroke:rgba(121,0,133,.24705882);stroke-width:.09525;stroke-miterlimit:41.994751"/><path d="M339.32813 224.54235H324.06908" style="fill:none;stroke:rgba(121,0,133,.24705882);stroke-width:.09525;stroke-miterlimit:41.994751"/><path d="M324.06908 224.54235L320.37338 208.07362" style="fill:none;stroke:rgba(121,0,133,.24705882);stroke-width:.09525;stroke-miterlimit:41.994751"/><path d="M302.99978 224.54235L320.37338 208.07362" style="fill:none;stroke:rgba(121,0,133,.24705882);stroke-width:.09525;stroke-miterlimit:41.994751"/><path d="M338.7852 232.31475V229.49535" style="fill:none;stroke:rgba(117,0,137,.24705882);stroke-width:.09525;stroke-miterlimit:41.994751"/><path d="M147.2184 265.54747L100.584 243.14467" style="fill:none;stroke:rgba(117,0,137,.24705882);stroke-width:.09525;stroke-miterlimit:41.994751"/><path d="M82.6389 245.9355L77.51445 260.34682" style="fill:none;stroke:rgba(113,0,137,.24705882);stroke-width:.09525;stroke-miterlimit:41.994751"/><path d="M134.08343 269.89087L100.584 243.14467" style="fill:none;stroke:rgba(113,0,141,.24705882);stroke-width:.09525;stroke-miterlimit:41.994751"/><path d="M226.98075 129.8829L254.4699 128.12077" style="fill:none;stroke:rgba(113,0,141,.24705882);stroke-width:.09525;stroke-miterlimit:41.994751"/><path d="M125.30138 239.81092L147.2184 265.54747" style="fill:none;stroke:rgba(113,0,141,.24705882);stroke-width:.09525;stroke-miterlimit:41.994751"/><path d="M332.94638 232.69575H344.6145V231.93375H332.94638z" style="fill:rgba(113,0,141,.24705882);stroke:rgba(113,0,141,.24705882);stroke-width:.09525;stroke-miterlimit:41.994751"/><path d="M339.26145 232.31475A.47625 .47625 0 00338.30895 232.31475A.47625 .47625 0 00339.26145 232.31475z" fill="rgba(113,0,141,.24705882)"/><path d="M338.7852 232.31475V233.07675" style="fill:none;stroke:rgba(113,0,141,.24705882);stroke-width:.09525;stroke-miterlimit:41.994751"/><path d="M225.61867 150.06637A.47625 .47625 0 00224.66618 150.06637A.47625 .47625 0 00225.61867 150.06637z" fill="rgba(109,0,141,.24705882)"/><path d="M332.94638 233.45775H344.6145V232.69575H332.94638z" style="fill:rgba(109,0,145,.24705882);stroke:rgba(109,0,145,.24705882);stroke-width:.09525;stroke-miterlimit:41.994751"/><path d="M339.26145 233.07675A.47625 .47625 0 00338.30895 233.07675A.47625 .47625 0 00339.26145 233.07675z" fill="rgba(109,0,145,.24705882)"/><path d="M338.7852 233.83875V233.07675" style="fill:none;stroke:rgba(109,0,145,.24705882);stroke-width:.09525;stroke-miterlimit:41.994751"/><path d="M83.11515 245.9355A.47625 .47625 0 0082.16265 245.9355A.47625 .47625 0 0083.11515 245.9355z" fill="rgba(109,0,145,.24705882)"/><path d="M332.94638 234.21975H344.6145V233.45775H332.94638z" style="fill:rgba(109,0,145,.24705882);stroke:rgba(109,0,145,.24705882);stroke-width:.09525;stroke-miterlimit:41.994751"/><path d="M339.26145 233.83875A.47625 .47625 0 00338.30895 233.83875A.47625 .47625 0 00339.26145 233.83875z" fill="rgba(109,0,145,.24705882)"/><path d="M338.7852 234.60075V233.83875" style="fill:none;stroke:rgba(105,0,149,.24705882);stroke-width:.09525;stroke-miterlimit:41.994751"/><path d="M100.584 243.14467L82.6389 245.9355" style="fill:none;stroke:rgba(105,0,149,.24705882);stroke-width:.09525;stroke-miterlimit:41.994751"/><path d="M227.457 129.8829A.47625 .47625 0 00226.5045 129.8829A.47625 .47625 0 00227.457 129.8829z" fill="rgba(105,0,149,.24705882)"/><path d="M206.02575 158.48647L225.14243 150.06637" style="fill:none;stroke:rgba(105,0,149,.24705882);stroke-width:.09525;stroke-miterlimit:41.994751"/><path d="M332.94638 234.98175H344.6145V234.21975H332.94638z" style="fill:rgba(105,0,149,.24705882);stroke:rgba(105,0,149,.24705882);stroke-width:.09525;stroke-miterlimit:41.994751"/><path d="M339.26145 234.60075A.47625 .47625 0 00338.30895 234.60075A.47625 .47625 0 00339.26145 234.60075z" fill="rgba(105,0,149,.24705882)"/><path d="M101.06025 243.14467A.47625 .47625 0 00100.10775 243.14467A.47625 .47625 0 00101.06025 243.14467z" fill="rgba(105,0,149,.24705882)"/><path d="M338.7852 235.36275V234.60075" style="fill:none;stroke:rgba(101,0,149,.24705882);stroke-width:.09525;stroke-miterlimit:41.994751"/><path d="M332.94638 235.74375H344.6145V234.98175H332.94638z" style="fill:rgba(101,0,153,.24705882);stroke:rgba(101,0,153,.24705882);stroke-width:.09525;stroke-miterlimit:41.994751"/><path d="M339.26145 235.36275A.47625 .47625 0 00338.30895 235.36275A.47625 .47625 0 00339.26145 235.36275z" fill="rgba(101,0,153,.24705882)"/><path d="M79.409925 227.50462L82.6389 245.9355" style="fill:none;stroke:rgba(101,0,153,.24705882);stroke-width:.09525;stroke-miterlimit:41.994751"/><path d="M209.169 130.27342L226.98075 129.8829" style="fill:none;stroke:rgba(101,0,153,.24705882);stroke-width:.09525;stroke-miterlimit:41.994751"/><path d="M125.30138 239.81092L100.584 243.14467" style="fill:none;stroke:rgba(101,0,153,.24705882);stroke-width:.09525;stroke-miterlimit:41.994751"/><path d="M220.37993 182.90857L225.14243 150.06637" style="fill:none;stroke:rgba(101,0,153,.24705882);stroke-width:.09525;stroke-miterlimit:41.994751"/><path d="M338.53755 235.92472L338.7852 235.36275" style="fill:none;stroke:rgba(101,0,153,.24705882);stroke-width:.09525;stroke-miterlimit:41.994751"/><path d="M206.502 158.48647A.47625 .47625 0 00205.5495 158.48647A.47625 .47625 0 00206.502 158.48647z" fill="rgba(101,0,153,.24705882)"/><path d="M332.94638 236.50575H344.6145V235.74375H332.94638z" style="fill:rgba(97,0,153,.24705882);stroke:rgba(97,0,153,.24705882);stroke-width:.09525;stroke-miterlimit:41.994751"/><path d="M339.0138 235.92472A.47625 .47625 0 00338.0613 235.92472A.47625 .47625 0 00339.0138 235.92472z" fill="rgba(97,0,153,.24705882)"/><path d="M125.77763 239.81092A.47625 .47625 0 00124.82513 239.81092A.47625 .47625 0 00125.77763 239.81092z" fill="rgba(97,0,153,.24705882)"/><path d="M197.65328 171.38332L206.02575 158.48647" style="fill:none;stroke:rgba(97,0,157,.24705882);stroke-width:.09525;stroke-miterlimit:41.994751"/><path d="M338.7852 236.88675L338.53755 235.92472" style="fill:none;stroke:rgba(97,0,157,.24705882);stroke-width:.09525;stroke-miterlimit:41.994751"/><path d="M209.64525 130.27342A.47625 .47625 0 00208.69275 130.27342A.47625 .47625 0 00209.64525 130.27342z" fill="rgba(97,0,157,.24705882)"/><path d="M143.97037 239.9919L125.30138 239.81092" style="fill:none;stroke:rgba(97,0,157,.24705882);stroke-width:.09525;stroke-miterlimit:41.994751"/><path d="M332.94638 237.26775H344.6145V236.50575H332.94638z" style="fill:rgba(97,0,157,.24705882);stroke:rgba(97,0,157,.24705882);stroke-width:.09525;stroke-miterlimit:41.994751"/><path d="M339.26145 236.88675A.47625 .47625 0 00338.30895 236.88675A.47625 .47625 0 00339.26145 236.88675z" fill="rgba(97,0,157,.24705882)"/><path d="M116.56695 223.01835L82.6389 245.9355" style="fill:none;stroke:rgba(97,0,157,.24705882);stroke-width:.09525;stroke-miterlimit:41.994751"/><path d="M198.12953 171.38332A.47625 .47625 0 00197.17703 171.38332A.47625 .47625 0 00198.12953 171.38332z" fill="rgba(97,0,157,.24705882)"/><path d="M79.886175 227.50462A.47625 .47625 0 0078.933675 227.50462A.47625 .47625 0 0079.886175 227.50462z" fill="rgba(97,0,157,.24705882)"/><path d="M144.44662 239.9919A.47625 .47625 0 00143.49412 239.9919A.47625 .47625 0 00144.44662 239.9919z" fill="rgba(93,0,157,.24705882)"/><path d="M324.06908 224.54235H313.40108" style="fill:none;stroke:rgba(93,0,157,.24705882);stroke-width:.09525;stroke-miterlimit:41.994751"/><path d="M338.53755 237.38205L338.7852 236.88675" style="fill:none;stroke:rgba(93,0,157,.24705882);stroke-width:.09525;stroke-miterlimit:41.994751"/><path d="M83.391375 209.56905L79.409925 227.50462" style="fill:none;stroke:rgba(93,0,161,.24705882);stroke-width:.09525;stroke-miterlimit:41.994751"/><path d="M116.56695 223.01835L100.584 243.14467" style="fill:none;stroke:rgba(93,0,161,.24705882);stroke-width:.09525;stroke-miterlimit:41.994751"/><path d="M158.70555 240.00142L143.97037 239.9919" style="fill:none;stroke:rgba(93,0,161,.24705882);stroke-width:.09525;stroke-miterlimit:41.994751"/><path d="M179.35575 151.22842L197.65328 171.38332" style="fill:none;stroke:rgba(93,0,161,.24705882);stroke-width:.09525;stroke-miterlimit:41.994751"/><path d="M332.94638 238.1631H344.6145V237.26775H332.94638z" style="fill:rgba(93,0,161,.24705882);stroke:rgba(93,0,161,.24705882);stroke-width:.09525;stroke-miterlimit:41.994751"/><path d="M339.0138 237.38205A.47625 .47625 0 00338.0613 237.38205A.47625 .47625 0 00339.0138 237.38205z" fill="rgba(93,0,161,.24705882)"/><path d="M194.51955 134.93115L209.169 130.27342" style="fill:none;stroke:rgba(93,0,161,.24705882);stroke-width:.09525;stroke-miterlimit:41.994751"/><path d="M83.867625 209.56905A.47625 .47625 0 0082.915125 209.56905A.47625 .47625 0 0083.867625 209.56905z" fill="rgba(93,0,161,.24705882)"/><path d="M338.84235 238.33455L338.53755 237.38205" style="fill:none;stroke:rgba(93,0,161,.24705882);stroke-width:.09525;stroke-miterlimit:41.994751"/><path d="M159.1818 240.00142A.47625 .47625 0 00158.2293 240.00142A.47625 .47625 0 00159.1818 240.00142z" fill="rgba(93,0,161,.24705882)"/><path d="M332.7273 238.3917H344.96692V237.71542H332.7273z" style="fill:rgba(93,0,161,.24705882);stroke:rgba(93,0,161,.24705882);stroke-width:.09525;stroke-miterlimit:41.994751"/><path d="M339.3186 238.33455A.47625 .47625 0 00338.3661 238.33455A.47625 .47625 0 00339.3186 238.33455z" fill="rgba(93,0,161,.24705882)"/><path d="M189.4332 182.35612L197.65328 171.38332" style="fill:none;stroke:rgba(93,0,161,.24705882);stroke-width:.09525;stroke-miterlimit:41.994751"/><path d="M125.30138 239.81092L116.56695 223.01835" style="fill:none;stroke:rgba(93,0,161,.24705882);stroke-width:.09525;stroke-miterlimit:41.994751"/><path d="M83.391375 209.56905L83.68665 192.10972" style="fill:none;stroke:rgba(93,0,161,.24705882);stroke-width:.09525;stroke-miterlimit:41.994751"/><path d="M179.832 151.22842A.47625 .47625 0 00178.8795 151.22842A.47625 .47625 0 00179.832 151.22842z" fill="rgba(93,0,161,.24705882)"/><path d="M84.1629 192.10972A.47625 .47625 0 0083.2104 192.10972A.47625 .47625 0 0084.1629 192.10972z" fill="rgba(89,0,161,.24705882)"/><path d="M220.85618 182.90857A.47625 .47625 0 00219.90368 182.90857A.47625 .47625 0 00220.85618 182.90857z" fill="rgba(89,0,161,.24705882)"/><path d="M338.709 244.05907L338.84235 238.33455" style="fill:none;stroke:rgba(89,0,161,.24705882);stroke-width:.09525;stroke-miterlimit:41.994751"/><path d="M179.35575 151.22842L194.51955 134.93115" style="fill:none;stroke:rgba(89,0,165,.24705882);stroke-width:.09525;stroke-miterlimit:41.994751"/><path d="M143.97037 239.9919L140.54138 220.5609" style="fill:none;stroke:rgba(89,0,165,.24705882);stroke-width:.09525;stroke-miterlimit:41.994751"/><path d="M302.65688 237.62017H331.851V228.50475H302.65688z" style="fill:rgba(89,0,165,.24705882);stroke:rgba(89,0,165,.24705882);stroke-width:.09525;stroke-miterlimit:41.994751"/><path d="M332.24153 233.0577A.47625 .47625 0 00331.28903 233.0577A.47625 .47625 0 00332.24153 233.0577z" fill="rgba(89,0,165,.24705882)"/><path d="M347.853 249.71692H352.03448V238.41075H347.853z" style="fill:rgba(89,0,165,.24705882);stroke:rgba(89,0,165,.24705882);stroke-width:.09525;stroke-miterlimit:41.994751"/><path d="M350.42475 244.05907A.47625 .47625 0 00349.47225 244.05907A.47625 .47625 0 00350.42475 244.05907z" fill="rgba(89,0,165,.24705882)"/><path d="M302.65688 238.41075H331.851V237.62017H302.65688z" style="fill:rgba(89,0,165,.24705882);stroke:rgba(89,0,165,.24705882);stroke-width:.09525;stroke-miterlimit:41.994751"/><path d="M332.24153 238.0107A.47625 .47625 0 00331.28903 238.0107A.47625 .47625 0 00332.24153 238.0107z" fill="rgba(89,0,165,.24705882)"/><path d="M280.797 228.50475H292.989V222.40875H280.797z" style="fill:rgba(89,0,165,.24705882);stroke:rgba(89,0,165,.24705882);stroke-width:.09525;stroke-miterlimit:41.994751"/><path d="M287.36925 225.45675A.47625 .47625 0 00286.41675 225.45675A.47625 .47625 0 00287.36925 225.45675z" fill="rgba(89,0,165,.24705882)"/><path d="M302.65688 249.71692H331.851V238.41075H302.65688z" style="fill:rgba(89,0,165,.24705882);stroke:rgba(89,0,165,.24705882);stroke-width:.09525;stroke-miterlimit:41.994751"/><path d="M332.24153 244.05907A.47625 .47625 0 00331.28903 244.05907A.47625 .47625 0 00332.24153 244.05907z" fill="rgba(89,0,165,.24705882)"/><path d="M292.989 249.71692H302.65688V228.50475H292.989z" style="fill:rgba(89,0,165,.24705882);stroke:rgba(89,0,165,.24705882);stroke-width:.09525;stroke-miterlimit:41.994751"/><path d="M298.30395 239.10607A.47625 .47625 0 00297.35145 239.10607A.47625 .47625 0 00298.30395 239.10607z" fill="rgba(89,0,165,.24705882)"/><path d="M331.851 249.71692H345.567V238.41075H331.851z" style="fill:rgba(89,0,165,.24705882);stroke:rgba(89,0,165,.24705882);stroke-width:.09525;stroke-miterlimit:41.994751"/><path d="M339.18525 244.05907A.47625 .47625 0 00338.23275 244.05907A.47625 .47625 0 00339.18525 244.05907z" fill="rgba(89,0,165,.24705882)"/><path d="M345.567 249.71692H347.853V238.41075H345.567z" style="fill:rgba(89,0,165,.24705882);stroke:rgba(89,0,165,.24705882);stroke-width:.09525;stroke-miterlimit:41.994751"/><path d="M347.18625 244.05907A.47625 .47625 0 00346.23375 244.05907A.47625 .47625 0 00347.18625 244.05907z" fill="rgba(89,0,165,.24705882)"/><path d="M270.67193 228.50475H280.797V222.40875H270.67193z" style="fill:rgba(89,0,165,.24705882);stroke:rgba(89,0,165,.24705882);stroke-width:.09525;stroke-miterlimit:41.994751"/><path d="M276.21548 225.45675A.47625 .47625 0 00275.26298 225.45675A.47625 .47625 0 00276.21548 225.45675z" fill="rgba(89,0,165,.24705882)"/><path d="M345.567 238.41075H347.853V228.50475H345.567z" style="fill:rgba(89,0,165,.24705882);stroke:rgba(89,0,165,.24705882);stroke-width:.09525;stroke-miterlimit:41.994751"/><path d="M347.18625 233.45775A.47625 .47625 0 00346.23375 233.45775A.47625 .47625 0 00347.18625 233.45775z" fill="rgba(89,0,165,.24705882)"/><path d="M280.797 249.71692H292.989V228.50475H280.797z" style="fill:rgba(89,0,165,.24705882);stroke:rgba(89,0,165,.24705882);stroke-width:.09525;stroke-miterlimit:41.994751"/><path d="M287.36925 239.10607A.47625 .47625 0 00286.41675 239.10607A.47625 .47625 0 00287.36925 239.10607z" fill="rgba(89,0,165,.24705882)"/><path d="M347.853 228.50475H352.03448V191.92875H347.853z" style="fill:rgba(89,0,165,.24705882);stroke:rgba(89,0,165,.24705882);stroke-width:.09525;stroke-miterlimit:41.994751"/><path d="M350.42475 210.21675A.47625 .47625 0 00349.47225 210.21675A.47625 .47625 0 00350.42475 210.21675z" fill="rgba(89,0,165,.24705882)"/><path d="M347.853 238.41075H352.03448V228.50475H347.853z" style="fill:rgba(89,0,165,.24705882);stroke:rgba(89,0,165,.24705882);stroke-width:.09525;stroke-miterlimit:41.994751"/><path d="M350.42475 233.45775A.47625 .47625 0 00349.47225 233.45775A.47625 .47625 0 00350.42475 233.45775z" fill="rgba(89,0,165,.24705882)"/><path d="M270.67193 222.40875H280.797V198.02475H270.67193z" style="fill:rgba(89,0,165,.24705882);stroke:rgba(89,0,165,.24705882);stroke-width:.09525;stroke-miterlimit:41.994751"/><path d="M276.21548 210.21675A.47625 .47625 0 00275.26298 210.21675A.47625 .47625 0 00276.21548 210.21675z" fill="rgba(89,0,165,.24705882)"/><path d="M347.853 191.92875H352.03448V183.35625H347.853z" style="fill:rgba(89,0,165,.24705882);stroke:rgba(89,0,165,.24705882);stroke-width:.09525;stroke-miterlimit:41.994751"/><path d="M350.42475 187.6425A.47625 .47625 0 00349.47225 187.6425A.47625 .47625 0 00350.42475 187.6425z" fill="rgba(89,0,165,.24705882)"/><path d="M270.67193 198.02475H280.797V191.92875H270.67193z" style="fill:rgba(89,0,165,.24705882);stroke:rgba(89,0,165,.24705882);stroke-width:.09525;stroke-miterlimit:41.994751"/><path d="M276.21548 194.97675A.47625 .47625 0 00275.26298 194.97675A.47625 .47625 0 00276.21548 194.97675z" fill="rgba(89,0,165,.24705882)"/><path d="M292.989 191.92875H347.853V183.35625H292.989z" style="fill:rgba(89,0,165,.24705882);stroke:rgba(89,0,165,.24705882);stroke-width:.09525;stroke-miterlimit:41.994751"/><path d="M320.89725 187.6425A.47625 .47625 0 00319.94475 187.6425A.47625 .47625 0 00320.89725 187.6425z" fill="rgba(89,0,165,.24705882)"/><path d="M280.797 191.92875H292.989V183.35625H280.797z" style="fill:rgba(89,0,165,.24705882);stroke:rgba(89,0,165,.24705882);stroke-width:.09525;stroke-miterlimit:41.994751"/><path d="M287.36925 187.6425A.47625 .47625 0 00286.41675 187.6425A.47625 .47625 0 00287.36925 187.6425z" fill="rgba(89,0,165,.24705882)"/><path d="M280.797 198.02475H292.989V191.92875H280.797z" style="fill:rgba(89,0,165,.24705882);stroke:rgba(89,0,165,.24705882);stroke-width:.09525;stroke-miterlimit:41.994751"/><path d="M287.36925 194.97675A.47625 .47625 0 00286.41675 194.97675A.47625 .47625 0 00287.36925 194.97675z" fill="rgba(89,0,165,.24705882)"/><path d="M297.8277 239.10607H286.893" style="fill:none;stroke:rgba(89,0,165,.24705882);stroke-width:.09525;stroke-miterlimit:41.994751"/><path d="M349.9485 187.6425H320.421" style="fill:none;stroke:rgba(89,0,165,.24705882);stroke-width:.09525;stroke-miterlimit:41.994751"/><path d="M286.893 187.6425V194.97675" style="fill:none;stroke:rgba(89,0,165,.24705882);stroke-width:.09525;stroke-miterlimit:41.994751"/><path d="M286.893 194.97675H275.73923" style="fill:none;stroke:rgba(89,0,165,.24705882);stroke-width:.09525;stroke-miterlimit:41.994751"/><path d="M346.71 244.05907V233.45775" style="fill:none;stroke:rgba(89,0,165,.24705882);stroke-width:.09525;stroke-miterlimit:41.994751"/><path d="M331.76528 233.0577V238.0107" style="fill:none;stroke:rgba(89,0,165,.24705882);stroke-width:.09525;stroke-miterlimit:41.994751"/><path d="M275.73923 194.97675V210.21675" style="fill:none;stroke:rgba(89,0,165,.24705882);stroke-width:.09525;stroke-miterlimit:41.994751"/><path d="M346.71 244.05907H349.9485" style="fill:none;stroke:rgba(89,0,165,.24705882);stroke-width:.09525;stroke-miterlimit:41.994751"/><path d="M349.9485 210.21675V187.6425" style="fill:none;stroke:rgba(89,0,165,.24705882);stroke-width:.09525;stroke-miterlimit:41.994751"/><path d="M346.71 233.45775H349.9485" style="fill:none;stroke:rgba(89,0,165,.24705882);stroke-width:.09525;stroke-miterlimit:41.994751"/><path d="M275.73923 210.21675V225.45675" style="fill:none;stroke:rgba(89,0,165,.24705882);stroke-width:.09525;stroke-miterlimit:41.994751"/><path d="M349.9485 244.05907V233.45775" style="fill:none;stroke:rgba(89,0,165,.24705882);stroke-width:.09525;stroke-miterlimit:41.994751"/><path d="M320.421 187.6425H286.893" style="fill:none;stroke:rgba(89,0,165,.24705882);stroke-width:.09525;stroke-miterlimit:41.994751"/><path d="M331.76528 233.0577L297.8277 239.10607" style="fill:none;stroke:rgba(89,0,165,.24705882);stroke-width:.09525;stroke-miterlimit:41.994751"/><path d="M349.9485 233.45775V210.21675" style="fill:none;stroke:rgba(89,0,165,.24705882);stroke-width:.09525;stroke-miterlimit:41.994751"/><path d="M297.8277 239.10607L331.76528 244.05907" style="fill:none;stroke:rgba(89,0,165,.24705882);stroke-width:.09525;stroke-miterlimit:41.994751"/><path d="M338.709 244.05907H346.71" style="fill:none;stroke:rgba(89,0,165,.24705882);stroke-width:.09525;stroke-miterlimit:41.994751"/><path d="M297.8277 239.10607L331.76528 238.0107" style="fill:none;stroke:rgba(89,0,165,.24705882);stroke-width:.09525;stroke-miterlimit:41.994751"/><path d="M331.76528 244.05907H338.709" style="fill:none;stroke:rgba(89,0,165,.24705882);stroke-width:.09525;stroke-miterlimit:41.994751"/><path d="M286.893 225.45675V239.10607" style="fill:none;stroke:rgba(89,0,165,.24705882);stroke-width:.09525;stroke-miterlimit:41.994751"/><path d="M331.76528 238.0107V244.05907" style="fill:none;stroke:rgba(89,0,165,.24705882);stroke-width:.09525;stroke-miterlimit:41.994751"/><path d="M275.73923 225.45675H286.893" style="fill:none;stroke:rgba(89,0,165,.24705882);stroke-width:.09525;stroke-miterlimit:41.994751"/><path d="M194.9958 134.93115A.47625 .47625 0 00194.0433 134.93115A.47625 .47625 0 00194.9958 134.93115z" fill="rgba(89,0,165,.24705882)"/><path d="M140.54138 220.5609L158.70555 240.00142" style="fill:none;stroke:rgba(89,0,165,.24705882);stroke-width:.09525;stroke-miterlimit:41.994751"/><path d="M189.90945 182.35612A.47625 .47625 0 00188.95695 182.35612A.47625 .47625 0 00189.90945 182.35612z" fill="rgba(89,0,165,.24705882)"/><path d="M83.68665 192.10972L83.1342 177.90795" style="fill:none;stroke:rgba(89,0,165,.24705882);stroke-width:.09525;stroke-miterlimit:41.994751"/><path d="M297.8277 239.10607L299.47553 253.53645" style="fill:none;stroke:rgba(85,0,165,.24705882);stroke-width:.09525;stroke-miterlimit:41.994751"/><path d="M112.45215 205.82572L83.391375 209.56905" style="fill:none;stroke:rgba(85,0,170,.24705882);stroke-width:.09525;stroke-miterlimit:41.994751"/><path d="M220.37993 182.90857L220.16085 207.52117" style="fill:none;stroke:rgba(85,0,170,.24705882);stroke-width:.09525;stroke-miterlimit:41.994751"/><path d="M83.61045 177.90795A.47625 .47625 0 0082.65795 177.90795A.47625 .47625 0 0083.61045 177.90795z" fill="rgba(85,0,170,.24705882)"/><path d="M117.0432 223.01835A.47625 .47625 0 00116.0907 223.01835A.47625 .47625 0 00117.0432 223.01835z" fill="rgba(85,0,170,.24705882)"/><path d="M171.17378 206.74965L189.4332 182.35612" style="fill:none;stroke:rgba(85,0,170,.24705882);stroke-width:.09525;stroke-miterlimit:41.994751"/><path d="M116.56695 223.01835L140.54138 220.5609" style="fill:none;stroke:rgba(85,0,170,.24705882);stroke-width:.09525;stroke-miterlimit:41.994751"/><path d="M141.01763 220.5609A.47625 .47625 0 00140.06513 220.5609A.47625 .47625 0 00141.01763 220.5609z" fill="rgba(85,0,170,.24705882)"/><path d="M189.4332 182.35612L191.59538 208.407" style="fill:none;stroke:rgba(85,0,170,.24705882);stroke-width:.09525;stroke-miterlimit:41.994751"/><path d="M299.95178 253.53645A.47625 .47625 0 00298.99928 253.53645A.47625 .47625 0 00299.95178 253.53645z" fill="rgba(85,0,170,.24705882)"/><path d="M281.559 201.83475H292.989V198.40575H281.559z" style="fill:rgba(85,0,170,.24705882);stroke:rgba(85,0,170,.24705882);stroke-width:.09525;stroke-miterlimit:41.994751"/><path d="M287.75025 200.22502A.47625 .47625 0 00286.79775 200.22502A.47625 .47625 0 00287.75025 200.22502z" fill="rgba(85,0,170,.24705882)"/><path d="M281.559 207.16875H292.989V201.83475H281.559z" style="fill:rgba(85,0,170,.24705882);stroke:rgba(85,0,170,.24705882);stroke-width:.09525;stroke-miterlimit:41.994751"/><path d="M287.75025 204.50175A.47625 .47625 0 00286.79775 204.50175A.47625 .47625 0 00287.75025 204.50175z" fill="rgba(85,0,170,.24705882)"/><path d="M281.559 222.02775H292.989V207.16875H281.559z" style="fill:rgba(85,0,170,.24705882);stroke:rgba(85,0,170,.24705882);stroke-width:.09525;stroke-miterlimit:41.994751"/><path d="M287.75025 214.503A.47625 .47625 0 00286.79775 214.503A.47625 .47625 0 00287.75025 214.503z" fill="rgba(85,0,170,.24705882)"/><path d="M287.274 214.503V204.50175" style="fill:none;stroke:rgba(85,0,170,.24705882);stroke-width:.09525;stroke-miterlimit:41.994751"/><path d="M287.274 204.50175V200.22502" style="fill:none;stroke:rgba(85,0,170,.24705882);stroke-width:.09525;stroke-miterlimit:41.994751"/><path d="M179.35575 151.22842L161.80118 137.52195" style="fill:none;stroke:rgba(80,0,170,.24705882);stroke-width:.09525;stroke-miterlimit:41.994751"/><path d="M255.77483 212.9409L275.73923 210.21675" style="fill:none;stroke:rgba(80,0,170,.24705882);stroke-width:.09525;stroke-miterlimit:41.994751"/><path d="M140.54138 220.5609L145.45628 194.28142" style="fill:none;stroke:rgba(80,0,170,.24705882);stroke-width:.09525;stroke-miterlimit:41.994751"/><path d="M255.77483 212.9409L275.73923 225.45675" style="fill:none;stroke:rgba(80,0,170,.24705882);stroke-width:.09525;stroke-miterlimit:41.994751"/><path d="M140.54138 220.5609L171.17378 206.74965" style="fill:none;stroke:rgba(80,0,170,.24705882);stroke-width:.09525;stroke-miterlimit:41.994751"/><path d="M83.1342 177.90795L107.823 181.19407" style="fill:none;stroke:rgba(80,0,174,.24705882);stroke-width:.09525;stroke-miterlimit:41.994751"/><path d="M191.9859 222.7707A.47625 .47625 0 00191.0334 222.7707A.47625 .47625 0 00191.9859 222.7707z" fill="rgba(80,0,174,.24705882)"/><path d="M191.50965 222.7707L171.17378 206.74965" style="fill:none;stroke:rgba(80,0,174,.24705882);stroke-width:.09525;stroke-miterlimit:41.994751"/><path d="M145.93253 194.28142A.47625 .47625 0 00144.98003 194.28142A.47625 .47625 0 00145.93253 194.28142z" fill="rgba(80,0,174,.24705882)"/><path d="M112.45215 205.82572L83.1342 177.90795" style="fill:none;stroke:rgba(80,0,174,.24705882);stroke-width:.09525;stroke-miterlimit:41.994751"/><path d="M177.8127 229.56202L191.50965 222.7707" style="fill:none;stroke:rgba(80,0,174,.24705882);stroke-width:.09525;stroke-miterlimit:41.994751"/><path d="M202.54913 238.22977L191.50965 222.7707" style="fill:none;stroke:rgba(80,0,174,.24705882);stroke-width:.09525;stroke-miterlimit:41.994751"/><path d="M182.98478 239.12512L191.50965 222.7707" style="fill:none;stroke:rgba(80,0,174,.24705882);stroke-width:.09525;stroke-miterlimit:41.994751"/><path d="M145.45628 194.28142L171.17378 206.74965" style="fill:none;stroke:rgba(80,0,174,.24705882);stroke-width:.09525;stroke-miterlimit:41.994751"/><path d="M116.56695 223.01835L112.45215 205.82572" style="fill:none;stroke:rgba(80,0,174,.24705882);stroke-width:.09525;stroke-miterlimit:41.994751"/><path d="M171.65003 206.74965A.47625 .47625 0 00170.69753 206.74965A.47625 .47625 0 00171.65003 206.74965z" fill="rgba(80,0,174,.24705882)"/><path d="M191.50965 222.7707L191.59538 208.407" style="fill:none;stroke:rgba(80,0,174,.24705882);stroke-width:.09525;stroke-miterlimit:41.994751"/><path d="M203.02538 238.22977A.47625 .47625 0 00202.07288 238.22977A.47625 .47625 0 00203.02538 238.22977z" fill="rgba(80,0,174,.24705882)"/><path d="M178.28895 229.56202A.47625 .47625 0 00177.33645 229.56202A.47625 .47625 0 00178.28895 229.56202z" fill="rgba(80,0,174,.24705882)"/><path d="M183.46103 239.12512A.47625 .47625 0 00182.50853 239.12512A.47625 .47625 0 00183.46103 239.12512z" fill="rgba(80,0,174,.24705882)"/><path d="M191.59538 208.407L171.17378 206.74965" style="fill:none;stroke:rgba(80,0,174,.24705882);stroke-width:.09525;stroke-miterlimit:41.994751"/><path d="M202.54913 238.22977L182.98478 239.12512" style="fill:none;stroke:rgba(80,0,174,.24705882);stroke-width:.09525;stroke-miterlimit:41.994751"/><path d="M177.8127 229.56202L202.54913 238.22977" style="fill:none;stroke:rgba(80,0,174,.24705882);stroke-width:.09525;stroke-miterlimit:41.994751"/><path d="M177.8127 229.56202L182.98478 239.12512" style="fill:none;stroke:rgba(80,0,174,.24705882);stroke-width:.09525;stroke-miterlimit:41.994751"/><path d="M192.07163 208.407A.47625 .47625 0 00191.11913 208.407A.47625 .47625 0 00192.07163 208.407z" fill="rgba(80,0,174,.24705882)"/><path d="M145.45628 194.28142L127.39688 184.8612" style="fill:none;stroke:rgba(80,0,174,.24705882);stroke-width:.09525;stroke-miterlimit:41.994751"/><path d="M204.39697 207.55927L191.59538 208.407" style="fill:none;stroke:rgba(80,0,174,.24705882);stroke-width:.09525;stroke-miterlimit:41.994751"/><path d="M204.87322 207.55927A.47625 .47625 0 00203.92073 207.55927A.47625 .47625 0 00204.87322 207.55927z" fill="rgba(80,0,174,.24705882)"/><path d="M220.16085 207.52117L204.39697 207.55927" style="fill:none;stroke:rgba(80,0,174,.24705882);stroke-width:.09525;stroke-miterlimit:41.994751"/><path d="M220.6371 207.52117A.47625 .47625 0 00219.6846 207.52117A.47625 .47625 0 00220.6371 207.52117z" fill="rgba(80,0,174,.24705882)"/><path d="M127.87313 184.8612A.47625 .47625 0 00126.92063 184.8612A.47625 .47625 0 00127.87313 184.8612z" fill="rgba(80,0,174,.24705882)"/><path d="M107.823 181.19407L127.39688 184.8612" style="fill:none;stroke:rgba(76,0,174,.24705882);stroke-width:.09525;stroke-miterlimit:41.994751"/><path d="M108.29925 181.19407A.47625 .47625 0 00107.34675 181.19407A.47625 .47625 0 00108.29925 181.19407z" fill="rgba(76,0,174,.24705882)"/><path d="M112.45215 205.82572L127.39688 184.8612" style="fill:none;stroke:rgba(76,0,174,.24705882);stroke-width:.09525;stroke-miterlimit:41.994751"/><path d="M255.77483 212.9409L220.16085 207.52117" style="fill:none;stroke:rgba(76,0,178,.24705882);stroke-width:.09525;stroke-miterlimit:41.994751"/><path d="M287.274 204.50175L293.28428 204.75892" style="fill:none;stroke:rgba(76,0,178,.24705882);stroke-width:.09525;stroke-miterlimit:41.994751"/><path d="M112.9284 205.82572A.47625 .47625 0 00111.9759 205.82572A.47625 .47625 0 00112.9284 205.82572z" fill="rgba(76,0,178,.24705882)"/><path d="M256.25108 212.9409A.47625 .47625 0 00255.29858 212.9409A.47625 .47625 0 00256.25108 212.9409z" fill="rgba(76,0,178,.24705882)"/><path d="M162.27743 137.52195A.47625 .47625 0 00161.32493 137.52195A.47625 .47625 0 00162.27743 137.52195z" fill="rgba(72,0,178,.24705882)"/><path d="M317.29682 211.5693H320.07809V208.99755H317.29682z" style="fill:rgba(72,0,182,.24705882);stroke:rgba(72,0,182,.24705882);stroke-width:.09525;stroke-miterlimit:41.994751"/><path d="M319.1637 210.28342A.47625 .47625 0 00318.2112 210.28342A.47625 .47625 0 00319.1637 210.28342z" fill="rgba(72,0,182,.24705882)"/><path d="M292.989 207.16875H293.751V201.83475H292.989z" style="fill:rgba(72,0,182,.24705882);stroke:rgba(72,0,182,.24705882);stroke-width:.09525;stroke-miterlimit:41.994751"/><path d="M293.76053 204.75892A.47625 .47625 0 00292.80803 204.75892A.47625 .47625 0 00293.76053 204.75892z" fill="rgba(72,0,182,.24705882)"/><path d="M337.185 206.02575H341.757V192.69075H337.185z" style="fill:rgba(72,0,182,.24705882);stroke:rgba(72,0,182,.24705882);stroke-width:.09525;stroke-miterlimit:41.994751"/><path d="M339.94725 199.40587A.47625 .47625 0 00338.99475 199.40587A.47625 .47625 0 00339.94725 199.40587z" fill="rgba(72,0,182,.24705882)"/><path d="M306.5907 227.74275H311.01032V222.40875H306.5907z" style="fill:rgba(72,0,182,.24705882);stroke:rgba(72,0,182,.24705882);stroke-width:.09525;stroke-miterlimit:41.994751"/><path d="M309.40058 225.00907A.47625 .47625 0 00308.44808 225.00907A.47625 .47625 0 00309.40058 225.00907z" fill="rgba(72,0,182,.24705882)"/><path d="M293.751 207.16875H320.802V201.83475H293.751z" style="fill:rgba(72,0,182,.24705882);stroke:rgba(72,0,182,.24705882);stroke-width:.09525;stroke-miterlimit:41.994751"/><path d="M307.83848 204.50175A.47625 .47625 0 00306.88598 204.50175A.47625 .47625 0 00307.83848 204.50175z" fill="rgba(72,0,182,.24705882)"/><path d="M293.751 227.74275H306.45734V209.2452H293.751z" style="fill:rgba(72,0,182,.24705882);stroke:rgba(72,0,182,.24705882);stroke-width:.09525;stroke-miterlimit:41.994751"/><path d="M300.70425 218.40825A.47625 .47625 0 00299.75175 218.40825A.47625 .47625 0 00300.70425 218.40825z" fill="rgba(72,0,182,.24705882)"/><path d="M293.751 201.83475H320.802V192.69075H293.751z" style="fill:rgba(72,0,182,.24705882);stroke:rgba(72,0,182,.24705882);stroke-width:.09525;stroke-miterlimit:41.994751"/><path d="M307.83848 197.34847A.47625 .47625 0 00306.88598 197.34847A.47625 .47625 0 00307.83848 197.34847z" fill="rgba(72,0,182,.24705882)"/><path d="M325.374 206.02575H337.185V192.69075H325.374z" style="fill:rgba(72,0,182,.24705882);stroke:rgba(72,0,182,.24705882);stroke-width:.09525;stroke-miterlimit:41.994751"/><path d="M331.75575 199.40587A.47625 .47625 0 00330.80325 199.40587A.47625 .47625 0 00331.75575 199.40587z" fill="rgba(72,0,182,.24705882)"/><path d="M293.751 208.98803H320.802V207.16875H293.751z" style="fill:rgba(72,0,182,.24705882);stroke:rgba(72,0,182,.24705882);stroke-width:.09525;stroke-miterlimit:41.994751"/><path d="M307.83848 208.08315A.47625 .47625 0 00306.88598 208.08315A.47625 .47625 0 00307.83848 208.08315z" fill="rgba(72,0,182,.24705882)"/><path d="M306.5907 211.71217H311.01032V209.3595H306.5907z" style="fill:rgba(72,0,182,.24705882);stroke:rgba(72,0,182,.24705882);stroke-width:.09525;stroke-miterlimit:41.994751"/><path d="M309.40058 210.53107A.47625 .47625 0 00308.44808 210.53107A.47625 .47625 0 00309.40058 210.53107z" fill="rgba(72,0,182,.24705882)"/><path d="M321.564 227.74275H337.185V210.21675H321.564z" style="fill:rgba(72,0,182,.24705882);stroke:rgba(72,0,182,.24705882);stroke-width:.09525;stroke-miterlimit:41.994751"/><path d="M329.96505 218.87497A.47625 .47625 0 00329.01255 218.87497A.47625 .47625 0 00329.96505 218.87497z" fill="rgba(72,0,182,.24705882)"/><path d="M337.185 227.74275H341.757V210.21675H337.185z" style="fill:rgba(72,0,182,.24705882);stroke:rgba(72,0,182,.24705882);stroke-width:.09525;stroke-miterlimit:41.994751"/><path d="M339.94725 218.87497A.47625 .47625 0 00338.99475 218.87497A.47625 .47625 0 00339.94725 218.87497z" fill="rgba(72,0,182,.24705882)"/><path d="M337.185 209.45475H341.757V206.02575H337.185z" style="fill:rgba(72,0,182,.24705882);stroke:rgba(72,0,182,.24705882);stroke-width:.09525;stroke-miterlimit:41.994751"/><path d="M339.94725 207.61642A.47625 .47625 0 00338.99475 207.61642A.47625 .47625 0 00339.94725 207.61642z" fill="rgba(72,0,182,.24705882)"/><path d="M341.757 227.74275H347.091V210.21675H341.757z" style="fill:rgba(72,0,182,.24705882);stroke:rgba(72,0,182,.24705882);stroke-width:.09525;stroke-miterlimit:41.994751"/><path d="M344.6907 218.87497A.47625 .47625 0 00343.7382 218.87497A.47625 .47625 0 00344.6907 218.87497z" fill="rgba(72,0,182,.24705882)"/><path d="M320.802 206.02575H325.374V192.69075H320.802z" style="fill:rgba(72,0,182,.24705882);stroke:rgba(72,0,182,.24705882);stroke-width:.09525;stroke-miterlimit:41.994751"/><path d="M323.60235 199.40587A.47625 .47625 0 00322.64985 199.40587A.47625 .47625 0 00323.60235 199.40587z" fill="rgba(72,0,182,.24705882)"/><path d="M337.185 228.50475H341.757V227.74275H337.185z" style="fill:rgba(72,0,182,.24705882);stroke:rgba(72,0,182,.24705882);stroke-width:.09525;stroke-miterlimit:41.994751"/><path d="M339.94725 227.96182A.47625 .47625 0 00338.99475 227.96182A.47625 .47625 0 00339.94725 227.96182z" fill="rgba(72,0,182,.24705882)"/><path d="M306.5907 222.40875H311.01032V211.71217H306.5907z" style="fill:rgba(72,0,182,.24705882);stroke:rgba(72,0,182,.24705882);stroke-width:.09525;stroke-miterlimit:41.994751"/><path d="M309.40058 217.0557A.47625 .47625 0 00308.44808 217.0557A.47625 .47625 0 00309.40058 217.0557z" fill="rgba(72,0,182,.24705882)"/><path d="M341.757 209.45475H347.091V206.02575H341.757z" style="fill:rgba(72,0,182,.24705882);stroke:rgba(72,0,182,.24705882);stroke-width:.09525;stroke-miterlimit:41.994751"/><path d="M344.6907 207.61642A.47625 .47625 0 00343.7382 207.61642A.47625 .47625 0 00344.6907 207.61642z" fill="rgba(72,0,182,.24705882)"/><path d="M341.757 206.02575H347.091V192.69075H341.757z" style="fill:rgba(72,0,182,.24705882);stroke:rgba(72,0,182,.24705882);stroke-width:.09525;stroke-miterlimit:41.994751"/><path d="M344.75738 199.40587A.47625 .47625 0 00343.80488 199.40587A.47625 .47625 0 00344.75738 199.40587z" fill="rgba(72,0,182,.24705882)"/><path d="M292.989 227.5713H293.751V209.2452H292.989z" style="fill:rgba(72,0,182,.24705882);stroke:rgba(72,0,182,.24705882);stroke-width:.09525;stroke-miterlimit:41.994751"/><path d="M293.9796 218.40825A.47625 .47625 0 00293.0271 218.40825A.47625 .47625 0 00293.9796 218.40825z" fill="rgba(72,0,182,.24705882)"/><path d="M306.5907 228.50475H311.01032V227.74275H306.5907z" style="fill:rgba(72,0,182,.24705882);stroke:rgba(72,0,182,.24705882);stroke-width:.09525;stroke-miterlimit:41.994751"/><path d="M309.40058 228.05707A.47625 .47625 0 00308.44808 228.05707A.47625 .47625 0 00309.40058 228.05707z" fill="rgba(72,0,182,.24705882)"/><path d="M294.00819 228.50475H306.45734V227.74275H294.00819z" style="fill:rgba(72,0,182,.24705882);stroke:rgba(72,0,182,.24705882);stroke-width:.09525;stroke-miterlimit:41.994751"/><path d="M300.70425 228.03802A.47625 .47625 0 00299.75175 228.03802A.47625 .47625 0 00300.70425 228.03802z" fill="rgba(72,0,182,.24705882)"/><path d="M321.79259 228.50475H337.185V227.74275H321.79259z" style="fill:rgba(72,0,182,.24705882);stroke:rgba(72,0,182,.24705882);stroke-width:.09525;stroke-miterlimit:41.994751"/><path d="M329.96505 227.96182A.47625 .47625 0 00329.01255 227.96182A.47625 .47625 0 00329.96505 227.96182z" fill="rgba(72,0,182,.24705882)"/><path d="M325.374 209.45475H337.185V206.02575H325.374z" style="fill:rgba(72,0,182,.24705882);stroke:rgba(72,0,182,.24705882);stroke-width:.09525;stroke-miterlimit:41.994751"/><path d="M331.82243 207.61642A.47625 .47625 0 00330.86993 207.61642A.47625 .47625 0 00331.82243 207.61642z" fill="rgba(72,0,182,.24705882)"/><path d="M337.185 210.21675H341.757V209.45475H337.185z" style="fill:rgba(72,0,182,.24705882);stroke:rgba(72,0,182,.24705882);stroke-width:.09525;stroke-miterlimit:41.994751"/><path d="M339.94725 209.79765A.47625 .47625 0 00338.99475 209.79765A.47625 .47625 0 00339.94725 209.79765z" fill="rgba(72,0,182,.24705882)"/><path d="M341.757 228.50475H347.091V227.74275H341.757z" style="fill:rgba(72,0,182,.24705882);stroke:rgba(72,0,182,.24705882);stroke-width:.09525;stroke-miterlimit:41.994751"/><path d="M344.6907 227.96182A.47625 .47625 0 00343.7382 227.96182A.47625 .47625 0 00344.6907 227.96182z" fill="rgba(72,0,182,.24705882)"/><path d="M293.28428 204.75892L307.36223 204.50175" style="fill:none;stroke:rgba(72,0,182,.24705882);stroke-width:.09525;stroke-miterlimit:41.994751"/><path d="M339.471 218.87497H344.21445" style="fill:none;stroke:rgba(72,0,182,.24705882);stroke-width:.09525;stroke-miterlimit:41.994751"/><path d="M339.471 199.40587H344.28113" style="fill:none;stroke:rgba(72,0,182,.24705882);stroke-width:.09525;stroke-miterlimit:41.994751"/><path d="M300.228 218.40825L307.36223 208.08315" style="fill:none;stroke:rgba(72,0,182,.24705882);stroke-width:.09525;stroke-miterlimit:41.994751"/><path d="M300.228 218.40825H293.50335" style="fill:none;stroke:rgba(72,0,182,.24705882);stroke-width:.09525;stroke-miterlimit:41.994751"/><path d="M300.228 218.40825V228.03802" style="fill:none;stroke:rgba(72,0,182,.24705882);stroke-width:.09525;stroke-miterlimit:41.994751"/><path d="M307.36223 197.34847L323.1261 199.40587" style="fill:none;stroke:rgba(72,0,182,.24705882);stroke-width:.09525;stroke-miterlimit:41.994751"/><path d="M308.92433 225.00907V228.05707" style="fill:none;stroke:rgba(72,0,182,.24705882);stroke-width:.09525;stroke-miterlimit:41.994751"/><path d="M308.92433 225.00907L300.228 218.40825" style="fill:none;stroke:rgba(72,0,182,.24705882);stroke-width:.09525;stroke-miterlimit:41.994751"/><path d="M307.36223 204.50175V197.34847" style="fill:none;stroke:rgba(72,0,182,.24705882);stroke-width:.09525;stroke-miterlimit:41.994751"/><path d="M344.21445 207.61642L344.28113 199.40587" style="fill:none;stroke:rgba(72,0,182,.24705882);stroke-width:.09525;stroke-miterlimit:41.994751"/><path d="M307.36223 204.50175L323.1261 199.40587" style="fill:none;stroke:rgba(72,0,182,.24705882);stroke-width:.09525;stroke-miterlimit:41.994751"/><path d="M331.2795 199.40587L331.34618 207.61642" style="fill:none;stroke:rgba(72,0,182,.24705882);stroke-width:.09525;stroke-miterlimit:41.994751"/><path d="M331.2795 199.40587H339.471" style="fill:none;stroke:rgba(72,0,182,.24705882);stroke-width:.09525;stroke-miterlimit:41.994751"/><path d="M339.471 218.87497V227.96182" style="fill:none;stroke:rgba(72,0,182,.24705882);stroke-width:.09525;stroke-miterlimit:41.994751"/><path d="M318.68745 210.28342L307.36223 208.08315" style="fill:none;stroke:rgba(72,0,182,.24705882);stroke-width:.09525;stroke-miterlimit:41.994751"/><path d="M344.21445 218.87497V227.96182" style="fill:none;stroke:rgba(72,0,182,.24705882);stroke-width:.09525;stroke-miterlimit:41.994751"/><path d="M308.92433 217.0557V225.00907" style="fill:none;stroke:rgba(72,0,182,.24705882);stroke-width:.09525;stroke-miterlimit:41.994751"/><path d="M308.92433 217.0557L300.228 218.40825" style="fill:none;stroke:rgba(72,0,182,.24705882);stroke-width:.09525;stroke-miterlimit:41.994751"/><path d="M308.92433 217.0557V210.53107" style="fill:none;stroke:rgba(72,0,182,.24705882);stroke-width:.09525;stroke-miterlimit:41.994751"/><path d="M339.471 207.61642H344.21445" style="fill:none;stroke:rgba(72,0,182,.24705882);stroke-width:.09525;stroke-miterlimit:41.994751"/><path d="M339.471 207.61642V199.40587" style="fill:none;stroke:rgba(72,0,182,.24705882);stroke-width:.09525;stroke-miterlimit:41.994751"/><path d="M307.36223 208.08315V204.50175" style="fill:none;stroke:rgba(72,0,182,.24705882);stroke-width:.09525;stroke-miterlimit:41.994751"/><path d="M323.1261 199.40587H331.2795" style="fill:none;stroke:rgba(72,0,182,.24705882);stroke-width:.09525;stroke-miterlimit:41.994751"/><path d="M339.471 207.61642V209.79765" style="fill:none;stroke:rgba(72,0,182,.24705882);stroke-width:.09525;stroke-miterlimit:41.994751"/><path d="M329.4888 218.87497H339.471" style="fill:none;stroke:rgba(72,0,182,.24705882);stroke-width:.09525;stroke-miterlimit:41.994751"/><path d="M329.4888 218.87497V227.96182" style="fill:none;stroke:rgba(72,0,182,.24705882);stroke-width:.09525;stroke-miterlimit:41.994751"/><path d="M339.471 207.61642H331.34618" style="fill:none;stroke:rgba(72,0,182,.24705882);stroke-width:.09525;stroke-miterlimit:41.994751"/><path d="M308.92433 210.53107L307.36223 208.08315" style="fill:none;stroke:rgba(72,0,182,.24705882);stroke-width:.09525;stroke-miterlimit:41.994751"/><path d="M339.471 218.87497V209.79765" style="fill:none;stroke:rgba(72,0,182,.24705882);stroke-width:.09525;stroke-miterlimit:41.994751"/><path d="M308.92433 210.53107L318.68745 210.28342" style="fill:none;stroke:rgba(72,0,182,.24705882);stroke-width:.09525;stroke-miterlimit:41.994751"/><path d="M308.92433 210.53107L300.228 218.40825" style="fill:none;stroke:rgba(72,0,182,.24705882);stroke-width:.09525;stroke-miterlimit:41.994751"/><path d="M313.40108 224.54235L308.92433 225.00907" style="fill:none;stroke:rgba(68,0,182,.24705882);stroke-width:.09525;stroke-miterlimit:41.994751"/><path d="M311.277 226.67595H315.51563V222.40875H311.277z" style="fill:rgba(68,0,186,.24705882);stroke:rgba(68,0,186,.24705882);stroke-width:.09525;stroke-miterlimit:41.994751"/><path d="M313.87733 224.54235A.47625 .47625 0 00312.92483 224.54235A.47625 .47625 0 00313.87733 224.54235z" fill="rgba(68,0,186,.24705882)"/><path d="M281.19705 209.6643A.47625 .47625 0 00280.24455 209.6643A.47625 .47625 0 00281.19705 209.6643z" fill="rgba(36,0,218,.24705882)"/><path d="M318.68745 210.28342L333.34643 210.29295" style="fill:none;stroke:rgba(36,0,218,.24705882);stroke-width:.09525;stroke-miterlimit:41.994751"/><path d="M286.50248 210.1596L280.7208 209.6643" style="fill:none;stroke:rgba(32,0,222,.24705882);stroke-width:.09525;stroke-miterlimit:41.994751"/><path d="M280.57794 222.75165H292.42703V197.56755H280.57794z" style="fill:rgba(28,0,222,.24705882);stroke:rgba(28,0,222,.24705882);stroke-width:.09525;stroke-miterlimit:41.994751"/><path d="M286.97872 210.1596A.47625 .47625 0 00286.02623 210.1596A.47625 .47625 0 00286.97872 210.1596z" fill="rgba(28,0,222,.24705882)"/><path d="M349.38653 190.85242A.47625 .47625 0 00348.43403 190.85242A.47625 .47625 0 00349.38653 190.85242z" fill="rgba(24,0,226,.24705882)"/><path d="M292.608 229.362A.47625 .47625 0 00291.6555 229.362A.47625 .47625 0 00292.608 229.362z" fill="rgba(24,0,226,.24705882)"/><path d="M292.4175 191.11912A.47625 .47625 0 00291.465 191.11912A.47625 .47625 0 00292.4175 191.11912z" fill="rgba(24,0,230,.24705882)"/><path d="M349.16745 228.78097A.47625 .47625 0 00348.21495 228.78097A.47625 .47625 0 00349.16745 228.78097z" fill="rgba(24,0,230,.24705882)"/><path d="M304.66665 223.32315L286.50248 210.1596" style="fill:none;stroke:rgba(24,0,230,.24705882);stroke-width:.09525;stroke-miterlimit:41.994751"/><path d="M304.47615 197.68185L286.50248 210.1596" style="fill:none;stroke:rgba(24,0,230,.24705882);stroke-width:.09525;stroke-miterlimit:41.994751"/><path d="M304.66665 223.32315L292.13175 229.362" style="fill:none;stroke:rgba(20,0,230,.24705882);stroke-width:.09525;stroke-miterlimit:41.994751"/><path d="M304.47615 197.68185L291.94125 191.11912" style="fill:none;stroke:rgba(20,0,234,.24705882);stroke-width:.09525;stroke-miterlimit:41.994751"/><path d="M334.68945 199.42492L348.91028 190.85242" style="fill:none;stroke:rgba(20,0,234,.24705882);stroke-width:.09525;stroke-miterlimit:41.994751"/><path d="M334.8609 220.66567L348.6912 228.78097" style="fill:none;stroke:rgba(20,0,234,.24705882);stroke-width:.09525;stroke-miterlimit:41.994751"/><path d="M299.67555 214.26487L286.50248 210.1596" style="fill:none;stroke:rgba(16,0,234,.24705882);stroke-width:.09525;stroke-miterlimit:41.994751"/><path d="M299.79938 206.82585L286.50248 210.1596" style="fill:none;stroke:rgba(16,0,234,.24705882);stroke-width:.09525;stroke-miterlimit:41.994751"/><path d="M291.465 229.98112H317.2968V216.31275H291.465z" style="fill:rgba(16,0,234,.24705882);stroke:rgba(16,0,234,.24705882);stroke-width:.09525;stroke-miterlimit:41.994751"/><path d="M305.1429 223.32315A.47625 .47625 0 00304.1904 223.32315A.47625 .47625 0 00305.1429 223.32315z" fill="rgba(16,0,234,.24705882)"/><path d="M291.465 204.53032H317.2968V190.5H291.465z" style="fill:rgba(16,0,238,.24705882);stroke:rgba(16,0,238,.24705882);stroke-width:.09525;stroke-miterlimit:41.994751"/><path d="M304.9524 197.68185A.47625 .47625 0 00303.9999 197.68185A.47625 .47625 0 00304.9524 197.68185z" fill="rgba(16,0,238,.24705882)"/><path d="M334.68945 199.42492L304.47615 197.68185" style="fill:none;stroke:rgba(16,0,238,.24705882);stroke-width:.09525;stroke-miterlimit:41.994751"/><path d="M318.88747 220.3704L304.66665 223.32315" style="fill:none;stroke:rgba(16,0,238,.24705882);stroke-width:.09525;stroke-miterlimit:41.994751"/><path d="M320.0781 209.04517H349.377V190.5H320.0781z" style="fill:rgba(16,0,238,.24705882);stroke:rgba(16,0,238,.24705882);stroke-width:.09525;stroke-miterlimit:41.994751"/><path d="M335.1657 199.42492A.47625 .47625 0 00334.2132 199.42492A.47625 .47625 0 00335.1657 199.42492z" fill="rgba(16,0,238,.24705882)"/><path d="M299.847 210.28342L286.50248 210.1596" style="fill:none;stroke:rgba(16,0,238,.24705882);stroke-width:.09525;stroke-miterlimit:41.994751"/><path d="M320.0781 229.98112H349.377V211.5693H320.0781z" style="fill:rgba(12,0,238,.24705882);stroke:rgba(12,0,238,.24705882);stroke-width:.09525;stroke-miterlimit:41.994751"/><path d="M335.33715 220.66567A.47625 .47625 0 00334.38465 220.66567A.47625 .47625 0 00335.33715 220.66567z" fill="rgba(12,0,238,.24705882)"/><path d="M318.88747 220.3704L334.8609 220.66567" style="fill:none;stroke:rgba(12,0,238,.24705882);stroke-width:.09525;stroke-miterlimit:41.994751"/><path d="M317.29682 229.98112H320.07809V216.31275H317.29682z" style="fill:rgba(12,0,238,.24705882);stroke:rgba(12,0,238,.24705882);stroke-width:.09525;stroke-miterlimit:41.994751"/><path d="M319.36372 220.3704A.47625 .47625 0 00318.41123 220.3704A.47625 .47625 0 00319.36372 220.3704z" fill="rgba(12,0,238,.24705882)"/><path d="M304.66665 223.32315L299.67555 214.26487" style="fill:none;stroke:rgba(12,0,242,.24705882);stroke-width:.09525;stroke-miterlimit:41.994751"/><path d="M299.79938 206.82585L304.47615 197.68185" style="fill:none;stroke:rgba(12,0,242,.24705882);stroke-width:.09525;stroke-miterlimit:41.994751"/><path d="M334.68945 199.42492L333.34643 210.29295" style="fill:none;stroke:rgba(8,0,246,.24705882);stroke-width:.09525;stroke-miterlimit:41.994751"/><path d="M333.34643 210.29295L334.8609 220.66567" style="fill:none;stroke:rgba(4,0,246,.24705882);stroke-width:.09525;stroke-miterlimit:41.994751"/><path d="M333.34643 210.29295L318.88747 220.3704" style="fill:none;stroke:rgba(4,0,246,.24705882);stroke-width:.09525;stroke-miterlimit:41.994751"/><path d="M291.465 216.31275H308.229V211.5693H291.465z" style="fill:rgba(4,0,246,.24705882);stroke:rgba(4,0,246,.24705882);stroke-width:.09525;stroke-miterlimit:41.994751"/><path d="M300.1518 214.26487A.47625 .47625 0 00299.1993 214.26487A.47625 .47625 0 00300.1518 214.26487z" fill="rgba(4,0,246,.24705882)"/><path d="M291.465 208.99755H308.229V204.53032H291.465z" style="fill:rgba(4,0,250,.24705882);stroke:rgba(4,0,250,.24705882);stroke-width:.09525;stroke-miterlimit:41.994751"/><path d="M300.27563 206.82585A.47625 .47625 0 00299.32313 206.82585A.47625 .47625 0 00300.27563 206.82585z" fill="rgba(4,0,250,.24705882)"/><path d="M299.67555 214.26487L299.847 210.28342" style="fill:none;stroke:rgba(4,0,250,.24705882);stroke-width:.09525;stroke-miterlimit:41.994751"/><path d="M299.79938 206.82585L299.847 210.28342" style="fill:none;stroke:rgba(0,0,250,.24705882);stroke-width:.09525;stroke-miterlimit:41.994751"/><path d="M291.465 211.5693H308.229V208.99755H291.465z" style="fill:rgba(0,0,255,.24705882);stroke:rgba(0,0,255,.24705882);stroke-width:.09525;stroke-miterlimit:41.994751"/><path d="M300.32325 210.28342A.47625 .47625 0 00299.37075 210.28342A.47625 .47625 0 00300.32325 210.28342z" fill="rgba(0,0,255,.24705882)"/><path d="M317.29682 211.5693H349.377V208.99755H317.29682z" style="fill:rgba(0,0,255,.24705882);stroke:rgba(0,0,255,.24705882);stroke-width:.09525;stroke-miterlimit:41.994751"/><path d="M333.82268 210.29295A.47625 .47625 0 00332.87018 210.29295A.47625 .47625 0 00333.82268 210.29295z" fill="rgba(0,0,255,.24705882)"/></svg>