<svg version="1.1" width="300.7995mm" height="228.4095mm" viewBox="0 0 300.7995 228.4095" xmlns="http://www.w3.org/2000/svg" xmlns:xlink="http://www.w3.org/1999/xlink"><path d="M220.7895 47.72025H222.6945" style="fill:none;stroke:#f00;stroke-width:.09525;stroke-miterlimit:41.994751"/><path d="M220.7895 47.72025V45.81525" style="fill:none;stroke:#0f0;stroke-width:.09525;stroke-miterlimit:41.994751"/><path d="M19.03095 180.68925H33.499425V151.92375H19.03095z" style="fill:rgba(255,0,0,.24705882);stroke:rgba(255,0,0,.24705882);stroke-width:.09525;stroke-miterlimit:41.994751"/><path d="M27.9654 160.39148A.47625 .47625 0 0027.0129 160.39148A.47625 .47625 0 0027.9654 160.39148z" fill="rgba(255,0,0,.24705882)"/><path d="M36.74745 155.27655A.47625 .47625 0 0035.79495 155.27655A.47625 .47625 0 0036.74745 155.27655z" fill="rgba(255,0,0,.24705882)"/><path d="M11.534775 227.48557A.47625 .47625 0 0010.582275 227.48557A.47625 .47625 0 0011.534775 227.48557z" fill="rgba(255,0,0,.24705882)"/><path d="M28.28925 186.17565A.47625 .47625 0 0027.33675 186.17565A.47625 .47625 0 0028.28925 186.17565z" fill="rgba(255,0,0,.24705882)"/><path d="M19.6596 227.98087A.47625 .47625 0 0018.7071 227.98087A.47625 .47625 0 0019.6596 227.98087z" fill="rgba(255,0,0,.24705882)"/><path d="M51.330225 186.78525A.47625 .47625 0 0050.377725 186.78525A.47625 .47625 0 0051.330225 186.78525z" fill="rgba(255,0,0,.24705882)"/><path d="M28.86075 209.95005A.47625 .47625 0 0027.90825 209.95005A.47625 .47625 0 0028.86075 209.95005z" fill="rgba(255,0,0,.24705882)"/><path d="M5.248275 186.02325A.47625 .47625 0 004.295775 186.02325A.47625 .47625 0 005.248275 186.02325z" fill="rgba(255,0,0,.24705882)"/><path d="M10.68705 210.47393A.47625 .47625 0 009.73455 210.47393A.47625 .47625 0 0010.68705 210.47393z" fill="rgba(255,0,0,.24705882)"/><path d="M19.345275 151.91422H37.43325V132.1689H19.345275z" style="fill:rgba(255,0,0,.24705882);stroke:rgba(255,0,0,.24705882);stroke-width:.09525;stroke-miterlimit:41.994751"/><path d="M29.43225 132.90232A.47625 .47625 0 0028.47975 132.90232A.47625 .47625 0 0029.43225 132.90232z" fill="rgba(255,0,0,.24705882)"/><path d="M50.853975 186.78525L27.813 186.17565" style="fill:none;stroke:rgba(255,0,0,.24705882);stroke-width:.09525;stroke-miterlimit:41.994751"/><path d="M27.813 186.17565L27.48915 160.39148" style="fill:none;stroke:rgba(255,0,0,.24705882);stroke-width:.09525;stroke-miterlimit:41.994751"/><path d="M19.18335 227.98087L11.058525 227.48557" style="fill:none;stroke:rgba(255,0,0,.24705882);stroke-width:.09525;stroke-miterlimit:41.994751"/><path d="M28.956 132.90232L36.2712 155.27655" style="fill:none;stroke:rgba(255,0,0,.24705882);stroke-width:.09525;stroke-miterlimit:41.994751"/><path d="M10.2108 210.47393L11.058525 227.48557" style="fill:none;stroke:rgba(255,0,0,.24705882);stroke-width:.09525;stroke-miterlimit:41.994751"/><path d="M28.3845 209.95005L10.2108 210.47393" style="fill:none;stroke:rgba(255,0,0,.24705882);stroke-width:.09525;stroke-miterlimit:41.994751"/><path d="M4.772025 186.02325L27.813 186.17565" style="fill:none;stroke:rgba(255,0,0,.24705882);stroke-width:.09525;stroke-miterlimit:41.994751"/><path d="M28.3845 209.95005L27.813 186.17565" style="fill:none;stroke:rgba(255,0,0,.24705882);stroke-width:.09525;stroke-miterlimit:41.994751"/><path d="M28.956 132.90232L27.48915 160.39148" style="fill:none;stroke:rgba(255,0,0,.24705882);stroke-width:.09525;stroke-miterlimit:41.994751"/><path d="M29.05125 110.85195L28.956 132.90232" style="fill:none;stroke:rgba(242,0,12,.24705882);stroke-width:.09525;stroke-miterlimit:41.994751"/><path d="M37.2999 166.83038A.47625 .47625 0 0036.3474 166.83038A.47625 .47625 0 0037.2999 166.83038z" fill="rgba(238,0,16,.24705882)"/><path d="M36.93795 175.7553L36.2712 155.27655" style="fill:none;stroke:rgba(234,0,20,.24705882);stroke-width:.09525;stroke-miterlimit:41.994751"/><path d="M19.250025 113.41418H37.480875V108.82312H19.250025z" style="fill:rgba(230,0,24,.24705882);stroke:rgba(230,0,24,.24705882);stroke-width:.09525;stroke-miterlimit:41.994751"/><path d="M29.5275 110.85195A.47625 .47625 0 0028.575 110.85195A.47625 .47625 0 0029.5275 110.85195z" fill="rgba(230,0,24,.24705882)"/><path d="M29.05125 110.85195L28.82265 91.9734" style="fill:none;stroke:rgba(222,0,32,.24705882);stroke-width:.09525;stroke-miterlimit:41.994751"/><path d="M37.4142 175.7553A.47625 .47625 0 0036.4617 175.7553A.47625 .47625 0 0037.4142 175.7553z" fill="rgba(214,0,40,.24705882)"/><path d="M41.367075 151.34273H58.0644V139.16025H41.367075z" style="fill:rgba(214,0,40,.24705882);stroke:rgba(214,0,40,.24705882);stroke-width:.09525;stroke-miterlimit:41.994751"/><path d="M50.5206 145.53248A.47625 .47625 0 0049.5681 145.53248A.47625 .47625 0 0050.5206 145.53248z" fill="rgba(214,0,40,.24705882)"/><path d="M.200025 178.74615H16.9164V166.6113H.200025z" style="fill:rgba(214,0,40,.24705882);stroke:rgba(214,0,40,.24705882);stroke-width:.09525;stroke-miterlimit:41.994751"/><path d="M6.4008 172.53585A.47625 .47625 0 005.4483 172.53585A.47625 .47625 0 006.4008 172.53585z" fill="rgba(214,0,40,.24705882)"/><path d="M.20955 151.32367H16.925925V139.1793H.20955z" style="fill:rgba(214,0,40,.24705882);stroke:rgba(214,0,40,.24705882);stroke-width:.09525;stroke-miterlimit:41.994751"/><path d="M7.762875 144.84668A.47625 .47625 0 006.810375 144.84668A.47625 .47625 0 007.762875 144.84668z" fill="rgba(214,0,40,.24705882)"/><path d="M.276225 206.17815H16.906875V194.03377H.276225z" style="fill:rgba(214,0,40,.24705882);stroke:rgba(214,0,40,.24705882);stroke-width:.09525;stroke-miterlimit:41.994751"/><path d="M6.010275 199.95833A.47625 .47625 0 005.057775 199.95833A.47625 .47625 0 006.010275 199.95833z" fill="rgba(214,0,40,.24705882)"/><path d="M18.49755 206.21625H32.1564V193.99568H18.49755z" style="fill:rgba(214,0,40,.24705882);stroke:rgba(214,0,40,.24705882);stroke-width:.09525;stroke-miterlimit:41.994751"/><path d="M21.288375 199.85355A.47625 .47625 0 0020.335875 199.85355A.47625 .47625 0 0021.288375 199.85355z" fill="rgba(214,0,40,.24705882)"/><path d="M32.1564 206.18768H39.79545V175.78388H32.1564z" style="fill:rgba(214,0,40,.24705882);stroke:rgba(214,0,40,.24705882);stroke-width:.09525;stroke-miterlimit:41.994751"/><path d="M36.623625 200.04405A.47625 .47625 0 0035.671125 200.04405A.47625 .47625 0 0036.623625 200.04405z" fill="rgba(214,0,40,.24705882)"/><path d="M18.4785 193.99568H24.526875V151.32368H18.4785z" style="fill:rgba(214,0,40,.24705882);stroke:rgba(214,0,40,.24705882);stroke-width:.09525;stroke-miterlimit:41.994751"/><path d="M22.4028 173.41215A.47625 .47625 0 0021.4503 173.41215A.47625 .47625 0 0022.4028 173.41215z" fill="rgba(214,0,40,.24705882)"/><path d="M41.367075 206.18768H58.0644V194.03377H41.367075z" style="fill:rgba(214,0,40,.24705882);stroke:rgba(214,0,40,.24705882);stroke-width:.09525;stroke-miterlimit:41.994751"/><path d="M52.168425 200.33933A.47625 .47625 0 0051.215925 200.33933A.47625 .47625 0 0052.168425 200.33933z" fill="rgba(214,0,40,.24705882)"/><path d="M18.488025 151.32367H39.7764V134.62635H18.488025z" style="fill:rgba(214,0,40,.24705882);stroke:rgba(214,0,40,.24705882);stroke-width:.09525;stroke-miterlimit:41.994751"/><path d="M22.4028 145.22768A.47625 .47625 0 0021.4503 145.22768A.47625 .47625 0 0022.4028 145.22768z" fill="rgba(214,0,40,.24705882)"/><path d="M21.92655 173.41215L20.812125 199.85355" style="fill:none;stroke:rgba(214,0,40,.24705882);stroke-width:.09525;stroke-miterlimit:41.994751"/><path d="M50.04435 145.53248L21.92655 145.22768" style="fill:none;stroke:rgba(214,0,40,.24705882);stroke-width:.09525;stroke-miterlimit:41.994751"/><path d="M7.286625 144.84668L21.92655 145.22768" style="fill:none;stroke:rgba(214,0,40,.24705882);stroke-width:.09525;stroke-miterlimit:41.994751"/><path d="M21.92655 145.22768V173.41215" style="fill:none;stroke:rgba(214,0,40,.24705882);stroke-width:.09525;stroke-miterlimit:41.994751"/><path d="M36.93795 175.7553L36.147375 200.04405" style="fill:none;stroke:rgba(214,0,40,.24705882);stroke-width:.09525;stroke-miterlimit:41.994751"/><path d="M5.534025 199.95833L20.812125 199.85355" style="fill:none;stroke:rgba(214,0,40,.24705882);stroke-width:.09525;stroke-miterlimit:41.994751"/><path d="M20.812125 199.85355L36.147375 200.04405" style="fill:none;stroke:rgba(214,0,40,.24705882);stroke-width:.09525;stroke-miterlimit:41.994751"/><path d="M5.92455 172.53585L21.92655 173.41215" style="fill:none;stroke:rgba(214,0,40,.24705882);stroke-width:.09525;stroke-miterlimit:41.994751"/><path d="M36.147375 200.04405L51.692175 200.33933" style="fill:none;stroke:rgba(214,0,40,.24705882);stroke-width:.09525;stroke-miterlimit:41.994751"/><path d="M19.269075 94.8309H37.47135V89.02065H19.269075z" style="fill:rgba(210,0,44,.24705882);stroke:rgba(210,0,44,.24705882);stroke-width:.09525;stroke-miterlimit:41.994751"/><path d="M29.2989 91.9734A.47625 .47625 0 0028.3464 91.9734A.47625 .47625 0 0029.2989 91.9734z" fill="rgba(210,0,44,.24705882)"/><path d="M28.870275 83.219925L28.82265 91.9734" style="fill:none;stroke:rgba(206,0,48,.24705882);stroke-width:.09525;stroke-miterlimit:41.994751"/><path d="M24.97455 60.036075H31.784925V53.444775H24.97455z" style="fill:rgba(202,0,52,.24705882);stroke:rgba(202,0,52,.24705882);stroke-width:.09525;stroke-miterlimit:41.994751"/><path d="M28.78455 53.825775A.47625 .47625 0 0027.83205 53.825775A.47625 .47625 0 0028.78455 53.825775z" fill="rgba(202,0,52,.24705882)"/><path d="M29.346525 83.219925A.47625 .47625 0 0028.394025 83.219925A.47625 .47625 0 0029.346525 83.219925z" fill="rgba(202,0,52,.24705882)"/><path d="M16.6497 82.705575H40.109775V59.98845H16.6497z" style="fill:rgba(202,0,52,.24705882);stroke:rgba(202,0,52,.24705882);stroke-width:.09525;stroke-miterlimit:41.994751"/><path d="M28.965525 70.2183A.47625 .47625 0 0028.013025 70.2183A.47625 .47625 0 0028.965525 70.2183z" fill="rgba(202,0,52,.24705882)"/><path d="M28.870275 83.219925L28.489275 70.2183" style="fill:none;stroke:rgba(202,0,52,.24705882);stroke-width:.09525;stroke-miterlimit:41.994751"/><path d="M28.489275 70.2183L28.3083 53.825775" style="fill:none;stroke:rgba(202,0,52,.24705882);stroke-width:.09525;stroke-miterlimit:41.994751"/><path d="M28.413075 46.2153L28.3083 53.825775" style="fill:none;stroke:rgba(190,0,64,.24705882);stroke-width:.09525;stroke-miterlimit:41.994751"/><path d="M25.01265 47.672625H31.8135V44.224575H25.01265z" style="fill:rgba(182,0,72,.24705882);stroke:rgba(182,0,72,.24705882);stroke-width:.09525;stroke-miterlimit:41.994751"/><path d="M28.889325 46.2153A.47625 .47625 0 0027.936825 46.2153A.47625 .47625 0 0028.889325 46.2153z" fill="rgba(182,0,72,.24705882)"/><path d="M28.4607 33.689925L28.413075 46.2153" style="fill:none;stroke:rgba(165,0,89,.24705882);stroke-width:.09525;stroke-miterlimit:41.994751"/><path d="M32.13735 49.96815H45.6438V27.936825H32.13735z" style="fill:rgba(153,0,101,.24705882);stroke:rgba(153,0,101,.24705882);stroke-width:.09525;stroke-miterlimit:41.994751"/><path d="M41.12895 37.35705A.47625 .47625 0 0040.17645 37.35705A.47625 .47625 0 0041.12895 37.35705z" fill="rgba(153,0,101,.24705882)"/><path d="M41.01465 30.99435A.47625 .47625 0 0040.06215 30.99435A.47625 .47625 0 0041.01465 30.99435z" fill="rgba(153,0,101,.24705882)"/><path d="M48.968025 50.434875A.47625 .47625 0 0048.015525 50.434875A.47625 .47625 0 0048.968025 50.434875z" fill="rgba(153,0,101,.24705882)"/><path d="M46.3296 44.986575A.47625 .47625 0 0045.3771 44.986575A.47625 .47625 0 0046.3296 44.986575z" fill="rgba(153,0,101,.24705882)"/><path d="M25.003125 110.9472H72.94245V50.80635H25.003125z" style="fill:rgba(153,0,101,.24705882);stroke:rgba(153,0,101,.24705882);stroke-width:.09525;stroke-miterlimit:41.994751"/><path d="M48.358425 83.91525A.47625 .47625 0 0047.405925 83.91525A.47625 .47625 0 0048.358425 83.91525z" fill="rgba(153,0,101,.24705882)"/><path d="M45.85335 44.986575L40.6527 37.35705" style="fill:none;stroke:rgba(153,0,101,.24705882);stroke-width:.09525;stroke-miterlimit:41.994751"/><path d="M40.6527 37.35705L40.5384 30.99435" style="fill:none;stroke:rgba(153,0,101,.24705882);stroke-width:.09525;stroke-miterlimit:41.994751"/><path d="M48.491775 50.434875L45.85335 44.986575" style="fill:none;stroke:rgba(153,0,101,.24705882);stroke-width:.09525;stroke-miterlimit:41.994751"/><path d="M48.491775 50.434875L47.882175 83.91525" style="fill:none;stroke:rgba(153,0,101,.24705882);stroke-width:.09525;stroke-miterlimit:41.994751"/><path d="M48.415575 111.3663L47.882175 83.91525" style="fill:none;stroke:rgba(149,0,101,.24705882);stroke-width:.09525;stroke-miterlimit:41.994751"/><path d="M40.5384 30.99435L28.508325 30.584775" style="fill:none;stroke:rgba(149,0,101,.24705882);stroke-width:.09525;stroke-miterlimit:41.994751"/><path d="M73.6854 126.93967A.47625 .47625 0 0072.7329 126.93967A.47625 .47625 0 0073.6854 126.93967z" fill="rgba(149,0,101,.24705882)"/><path d="M48.891825 111.3663A.47625 .47625 0 0047.939325 111.3663A.47625 .47625 0 0048.891825 111.3663z" fill="rgba(149,0,101,.24705882)"/><path d="M24.984075 33.9852H32.1183V27.9273H24.984075z" style="fill:rgba(149,0,101,.24705882);stroke:rgba(149,0,101,.24705882);stroke-width:.09525;stroke-miterlimit:41.994751"/><path d="M28.984575 30.584775A.47625 .47625 0 0028.032075 30.584775A.47625 .47625 0 0028.984575 30.584775z" fill="rgba(149,0,101,.24705882)"/><path d="M28.93695 33.689925A.47625 .47625 0 0027.98445 33.689925A.47625 .47625 0 0028.93695 33.689925z" fill="rgba(149,0,101,.24705882)"/><path d="M24.97455 140.68425H72.94245V112.5093H24.97455z" style="fill:rgba(149,0,101,.24705882);stroke:rgba(149,0,101,.24705882);stroke-width:.09525;stroke-miterlimit:41.994751"/><path d="M48.6537 127.38735A.47625 .47625 0 0047.7012 127.38735A.47625 .47625 0 0048.6537 127.38735z" fill="rgba(149,0,101,.24705882)"/><path d="M48.415575 111.3663L48.17745 127.38735" style="fill:none;stroke:rgba(149,0,101,.24705882);stroke-width:.09525;stroke-miterlimit:41.994751"/><path d="M28.508325 30.584775L28.4607 33.689925" style="fill:none;stroke:rgba(149,0,101,.24705882);stroke-width:.09525;stroke-miterlimit:41.994751"/><path d="M73.20915 126.93967L48.17745 127.38735" style="fill:none;stroke:rgba(149,0,101,.24705882);stroke-width:.09525;stroke-miterlimit:41.994751"/><path d="M91.1733 129.33997L73.20915 126.93967" style="fill:none;stroke:rgba(149,0,105,.24705882);stroke-width:.09525;stroke-miterlimit:41.994751"/><path d="M71.1327 81.162525L47.882175 83.91525" style="fill:none;stroke:rgba(149,0,105,.24705882);stroke-width:.09525;stroke-miterlimit:41.994751"/><path d="M116.25262 17.92605A.47625 .47625 0 00115.30013 17.92605A.47625 .47625 0 00116.25262 17.92605z" fill="rgba(149,0,105,.24705882)"/><path d="M158.69602 130.7592A.47625 .47625 0 00157.74353 130.7592A.47625 .47625 0 00158.69602 130.7592z" fill="rgba(149,0,105,.24705882)"/><path d="M80.75295 15.1257A.47625 .47625 0 0079.80045 15.1257A.47625 .47625 0 0080.75295 15.1257z" fill="rgba(149,0,105,.24705882)"/><path d="M206.85442 54.0258A.47625 .47625 0 00205.90193 54.0258A.47625 .47625 0 00206.85442 54.0258z" fill="rgba(149,0,105,.24705882)"/><path d="M95.983425 88.75395A.47625 .47625 0 0095.030925 88.75395A.47625 .47625 0 0095.983425 88.75395z" fill="rgba(149,0,105,.24705882)"/><path d="M131.66407 91.925775A.47625 .47625 0 00130.71158 91.925775A.47625 .47625 0 00131.66407 91.925775z" fill="rgba(149,0,105,.24705882)"/><path d="M23.14575 25.908H73.81875V.32385H23.14575z" style="fill:rgba(149,0,105,.24705882);stroke:rgba(149,0,105,.24705882);stroke-width:.09525;stroke-miterlimit:41.994751"/><path d="M53.673375 13.782675A.47625 .47625 0 0052.720875 13.782675A.47625 .47625 0 0053.673375 13.782675z" fill="rgba(149,0,105,.24705882)"/><path d="M73.790175 142.43685H102.87V111.12817H73.790175z" style="fill:rgba(149,0,105,.24705882);stroke:rgba(149,0,105,.24705882);stroke-width:.09525;stroke-miterlimit:41.994751"/><path d="M91.64955 129.33997A.47625 .47625 0 0090.69705 129.33997A.47625 .47625 0 0091.64955 129.33997z" fill="rgba(149,0,105,.24705882)"/><path d="M300.80903 96.4311A.47625 .47625 0 00299.85653 96.4311A.47625 .47625 0 00300.80903 96.4311z" fill="rgba(149,0,105,.24705882)"/><path d="M227.06647 99.450525A.47625 .47625 0 00226.11398 99.450525A.47625 .47625 0 00227.06647 99.450525z" fill="rgba(149,0,105,.24705882)"/><path d="M102.88905 144.40852H138.24585V118.36718H102.88905z" style="fill:rgba(149,0,105,.24705882);stroke:rgba(149,0,105,.24705882);stroke-width:.09525;stroke-miterlimit:41.994751"/><path d="M130.9878 128.83515A.47625 .47625 0 00130.0353 128.83515A.47625 .47625 0 00130.9878 128.83515z" fill="rgba(149,0,105,.24705882)"/><path d="M183.02287 182.3466A.47625 .47625 0 00182.07038 182.3466A.47625 .47625 0 00183.02287 182.3466z" fill="rgba(149,0,105,.24705882)"/><path d="M82.724625 47.8536A.47625 .47625 0 0081.772125 47.8536A.47625 .47625 0 0082.724625 47.8536z" fill="rgba(149,0,105,.24705882)"/><path d="M159.66757 95.049975A.47625 .47625 0 00158.71508 95.049975A.47625 .47625 0 00159.66757 95.049975z" fill="rgba(149,0,105,.24705882)"/><path d="M72.79005 177.09832A.47625 .47625 0 0071.83755 177.09832A.47625 .47625 0 0072.79005 177.09832z" fill="rgba(149,0,105,.24705882)"/><path d="M79.809975 160.08668A.47625 .47625 0 0078.857475 160.08668A.47625 .47625 0 0079.809975 160.08668z" fill="rgba(149,0,105,.24705882)"/><path d="M196.9389 95.84055A.47625 .47625 0 00195.9864 95.84055A.47625 .47625 0 00196.9389 95.84055z" fill="rgba(149,0,105,.24705882)"/><path d="M257.0988 97.355025A.47625 .47625 0 00256.1463 97.355025A.47625 .47625 0 00257.0988 97.355025z" fill="rgba(149,0,105,.24705882)"/><path d="M104.59402 184.10872A.47625 .47625 0 00103.64153 184.10872A.47625 .47625 0 00104.59402 184.10872z" fill="rgba(149,0,105,.24705882)"/><path d="M184.54688 135.39787A.47625 .47625 0 00183.59438 135.39787A.47625 .47625 0 00184.54688 135.39787z" fill="rgba(149,0,105,.24705882)"/><path d="M200.94893 151.45702A.47625 .47625 0 00199.99643 151.45702A.47625 .47625 0 00200.94893 151.45702z" fill="rgba(149,0,105,.24705882)"/><path d="M175.1457 107.07053A.47625 .47625 0 00174.1932 107.07053A.47625 .47625 0 00175.1457 107.07053z" fill="rgba(149,0,105,.24705882)"/><path d="M209.64525 123.42495A.47625 .47625 0 00208.69275 123.42495A.47625 .47625 0 00209.64525 123.42495z" fill="rgba(149,0,105,.24705882)"/><path d="M159.19133 95.049975L131.18783 91.925775" style="fill:none;stroke:rgba(149,0,105,.24705882);stroke-width:.09525;stroke-miterlimit:41.994751"/><path d="M174.66945 107.07053L158.21977 130.7592" style="fill:none;stroke:rgba(149,0,105,.24705882);stroke-width:.09525;stroke-miterlimit:41.994751"/><path d="M256.62255 97.355025L226.59023 99.450525" style="fill:none;stroke:rgba(149,0,105,.24705882);stroke-width:.09525;stroke-miterlimit:41.994751"/><path d="M256.62255 97.355025L300.33278 96.4311" style="fill:none;stroke:rgba(149,0,105,.24705882);stroke-width:.09525;stroke-miterlimit:41.994751"/><path d="M158.21977 130.7592L130.51155 128.83515" style="fill:none;stroke:rgba(149,0,105,.24705882);stroke-width:.09525;stroke-miterlimit:41.994751"/><path d="M130.51155 128.83515L91.1733 129.33997" style="fill:none;stroke:rgba(149,0,105,.24705882);stroke-width:.09525;stroke-miterlimit:41.994751"/><path d="M200.47268 151.45702L182.54663 182.3466" style="fill:none;stroke:rgba(149,0,105,.24705882);stroke-width:.09525;stroke-miterlimit:41.994751"/><path d="M159.19133 95.049975L174.66945 107.07053" style="fill:none;stroke:rgba(149,0,105,.24705882);stroke-width:.09525;stroke-miterlimit:41.994751"/><path d="M80.2767 15.1257L53.197125 13.782675" style="fill:none;stroke:rgba(149,0,105,.24705882);stroke-width:.09525;stroke-miterlimit:41.994751"/><path d="M95.507175 88.75395L82.248375 47.8536" style="fill:none;stroke:rgba(149,0,105,.24705882);stroke-width:.09525;stroke-miterlimit:41.994751"/><path d="M95.507175 88.75395L131.18783 91.925775" style="fill:none;stroke:rgba(149,0,105,.24705882);stroke-width:.09525;stroke-miterlimit:41.994751"/><path d="M95.507175 88.75395L91.1733 129.33997" style="fill:none;stroke:rgba(149,0,105,.24705882);stroke-width:.09525;stroke-miterlimit:41.994751"/><path d="M82.248375 47.8536L80.2767 15.1257" style="fill:none;stroke:rgba(149,0,105,.24705882);stroke-width:.09525;stroke-miterlimit:41.994751"/><path d="M226.59023 99.450525L196.46265 95.84055" style="fill:none;stroke:rgba(149,0,105,.24705882);stroke-width:.09525;stroke-miterlimit:41.994751"/><path d="M209.169 123.42495L200.47268 151.45702" style="fill:none;stroke:rgba(149,0,105,.24705882);stroke-width:.09525;stroke-miterlimit:41.994751"/><path d="M226.59023 99.450525L209.169 123.42495" style="fill:none;stroke:rgba(149,0,105,.24705882);stroke-width:.09525;stroke-miterlimit:41.994751"/><path d="M174.66945 107.07053L196.46265 95.84055" style="fill:none;stroke:rgba(149,0,105,.24705882);stroke-width:.09525;stroke-miterlimit:41.994751"/><path d="M115.77638 17.92605L80.2767 15.1257" style="fill:none;stroke:rgba(149,0,105,.24705882);stroke-width:.09525;stroke-miterlimit:41.994751"/><path d="M79.333725 160.08668L72.3138 177.09832" style="fill:none;stroke:rgba(149,0,105,.24705882);stroke-width:.09525;stroke-miterlimit:41.994751"/><path d="M104.11777 184.10872L79.333725 160.08668" style="fill:none;stroke:rgba(149,0,105,.24705882);stroke-width:.09525;stroke-miterlimit:41.994751"/><path d="M104.11777 184.10872L182.54663 182.3466" style="fill:none;stroke:rgba(149,0,105,.24705882);stroke-width:.09525;stroke-miterlimit:41.994751"/><path d="M91.1733 129.33997L79.333725 160.08668" style="fill:none;stroke:rgba(149,0,105,.24705882);stroke-width:.09525;stroke-miterlimit:41.994751"/><path d="M196.46265 95.84055L206.37817 54.0258" style="fill:none;stroke:rgba(149,0,105,.24705882);stroke-width:.09525;stroke-miterlimit:41.994751"/><path d="M184.07063 135.39787L209.169 123.42495" style="fill:none;stroke:rgba(149,0,105,.24705882);stroke-width:.09525;stroke-miterlimit:41.994751"/><path d="M184.07063 135.39787L158.21977 130.7592" style="fill:none;stroke:rgba(149,0,105,.24705882);stroke-width:.09525;stroke-miterlimit:41.994751"/><path d="M130.51155 128.83515L131.18783 91.925775" style="fill:none;stroke:rgba(149,0,105,.24705882);stroke-width:.09525;stroke-miterlimit:41.994751"/><path d="M184.07063 135.39787L182.54663 182.3466" style="fill:none;stroke:rgba(149,0,105,.24705882);stroke-width:.09525;stroke-miterlimit:41.994751"/><path d="M120.11025 56.207025L131.18783 91.925775" style="fill:none;stroke:rgba(149,0,105,.24705882);stroke-width:.09525;stroke-miterlimit:41.994751"/><path d="M115.77638 17.92605L120.11025 56.207025" style="fill:none;stroke:rgba(149,0,105,.24705882);stroke-width:.09525;stroke-miterlimit:41.994751"/><path d="M120.11025 56.207025L82.248375 47.8536" style="fill:none;stroke:rgba(149,0,105,.24705882);stroke-width:.09525;stroke-miterlimit:41.994751"/><path d="M180.41303 79.91475L196.46265 95.84055" style="fill:none;stroke:rgba(149,0,105,.24705882);stroke-width:.09525;stroke-miterlimit:41.994751"/><path d="M120.5865 56.207025A.47625 .47625 0 00119.634 56.207025A.47625 .47625 0 00120.5865 56.207025z" fill="rgba(149,0,105,.24705882)"/><path d="M180.88927 79.91475A.47625 .47625 0 00179.93678 79.91475A.47625 .47625 0 00180.88927 79.91475z" fill="rgba(149,0,105,.24705882)"/><path d="M158.21977 130.7592L157.98165 144.86572" style="fill:none;stroke:rgba(149,0,105,.24705882);stroke-width:.09525;stroke-miterlimit:41.994751"/><path d="M135.69315 176.48873A.47625 .47625 0 00134.74065 176.48873A.47625 .47625 0 00135.69315 176.48873z" fill="rgba(149,0,105,.24705882)"/><path d="M147.7518 167.4495A.47625 .47625 0 00146.7993 167.4495A.47625 .47625 0 00147.7518 167.4495z" fill="rgba(149,0,105,.24705882)"/><path d="M158.4579 144.86572A.47625 .47625 0 00157.5054 144.86572A.47625 .47625 0 00158.4579 144.86572z" fill="rgba(149,0,105,.24705882)"/><path d="M128.36843 147.68512A.47625 .47625 0 00127.41593 147.68512A.47625 .47625 0 00128.36843 147.68512z" fill="rgba(149,0,105,.24705882)"/><path d="M158.3436 154.35262A.47625 .47625 0 00157.3911 154.35262A.47625 .47625 0 00158.3436 154.35262z" fill="rgba(149,0,105,.24705882)"/><path d="M157.86735 154.35262L147.27555 167.4495" style="fill:none;stroke:rgba(149,0,105,.24705882);stroke-width:.09525;stroke-miterlimit:41.994751"/><path d="M157.86735 154.35262L157.98165 144.86572" style="fill:none;stroke:rgba(149,0,105,.24705882);stroke-width:.09525;stroke-miterlimit:41.994751"/><path d="M147.27555 167.4495L135.2169 176.48873" style="fill:none;stroke:rgba(149,0,105,.24705882);stroke-width:.09525;stroke-miterlimit:41.994751"/><path d="M148.87575 148.8567L127.89218 147.68512" style="fill:none;stroke:rgba(149,0,105,.24705882);stroke-width:.09525;stroke-miterlimit:41.994751"/><path d="M148.87575 148.8567L147.27555 167.4495" style="fill:none;stroke:rgba(149,0,105,.24705882);stroke-width:.09525;stroke-miterlimit:41.994751"/><path d="M149.352 148.8567A.47625 .47625 0 00148.3995 148.8567A.47625 .47625 0 00149.352 148.8567z" fill="rgba(149,0,105,.24705882)"/><path d="M69.542025 82.77225H72.9615V79.72425H69.542025z" style="fill:rgba(149,0,105,.24705882);stroke:rgba(149,0,105,.24705882);stroke-width:.09525;stroke-miterlimit:41.994751"/><path d="M71.60895 81.162525A.47625 .47625 0 0070.65645 81.162525A.47625 .47625 0 0071.60895 81.162525z" fill="rgba(149,0,105,.24705882)"/><path d="M48.491775 50.434875L52.720875 36.623625" style="fill:none;stroke:rgba(149,0,105,.24705882);stroke-width:.09525;stroke-miterlimit:41.994751"/><path d="M52.644675 26.6319L53.197125 13.782675" style="fill:none;stroke:rgba(145,0,109,.24705882);stroke-width:.09525;stroke-miterlimit:41.994751"/><path d="M53.197125 36.623625A.47625 .47625 0 0052.244625 36.623625A.47625 .47625 0 0053.197125 36.623625z" fill="rgba(145,0,109,.24705882)"/><path d="M52.644675 26.6319L52.720875 36.623625" style="fill:none;stroke:rgba(141,0,109,.24705882);stroke-width:.09525;stroke-miterlimit:41.994751"/><path d="M140.3985 30.0609L115.77638 17.92605" style="fill:none;stroke:rgba(141,0,113,.24705882);stroke-width:.09525;stroke-miterlimit:41.994751"/><path d="M53.120925 26.6319A.47625 .47625 0 0052.168425 26.6319A.47625 .47625 0 0053.120925 26.6319z" fill="rgba(141,0,113,.24705882)"/><path d="M206.37817 54.0258L181.0893 30.432375" style="fill:none;stroke:rgba(141,0,113,.24705882);stroke-width:.09525;stroke-miterlimit:41.994751"/><path d="M180.41303 79.91475L175.68863 54.473475" style="fill:none;stroke:rgba(141,0,113,.24705882);stroke-width:.09525;stroke-miterlimit:41.994751"/><path d="M206.37817 54.0258L173.5836 42.491025" style="fill:none;stroke:rgba(137,0,117,.24705882);stroke-width:.09525;stroke-miterlimit:41.994751"/><path d="M120.11025 56.207025L163.97287 35.60445" style="fill:none;stroke:rgba(133,0,117,.24705882);stroke-width:.09525;stroke-miterlimit:41.994751"/><path d="M140.87475 30.0609A.47625 .47625 0 00139.92225 30.0609A.47625 .47625 0 00140.87475 30.0609z" fill="rgba(133,0,117,.24705882)"/><path d="M181.56555 30.432375A.47625 .47625 0 00180.61305 30.432375A.47625 .47625 0 00181.56555 30.432375z" fill="rgba(133,0,121,.24705882)"/><path d="M176.16487 54.473475A.47625 .47625 0 00175.21238 54.473475A.47625 .47625 0 00176.16487 54.473475z" fill="rgba(129,0,121,.24705882)"/><path d="M163.97287 35.60445L140.3985 30.0609" style="fill:none;stroke:rgba(129,0,125,.24705882);stroke-width:.09525;stroke-miterlimit:41.994751"/><path d="M175.68863 54.473475L173.5836 42.491025" style="fill:none;stroke:rgba(129,0,125,.24705882);stroke-width:.09525;stroke-miterlimit:41.994751"/><path d="M181.0893 30.432375L163.97287 35.60445" style="fill:none;stroke:rgba(125,0,125,.24705882);stroke-width:.09525;stroke-miterlimit:41.994751"/><path d="M174.05985 42.491025A.47625 .47625 0 00173.10735 42.491025A.47625 .47625 0 00174.05985 42.491025z" fill="rgba(125,0,129,.24705882)"/><path d="M173.5836 42.491025L163.97287 35.60445" style="fill:none;stroke:rgba(121,0,129,.24705882);stroke-width:.09525;stroke-miterlimit:41.994751"/><path d="M164.44912 35.60445A.47625 .47625 0 00163.49662 35.60445A.47625 .47625 0 00164.44912 35.60445z" fill="rgba(121,0,133,.24705882)"/><path d="M71.523225 81.276825L71.1327 81.162525" style="fill:none;stroke:rgba(109,0,141,.24705882);stroke-width:.09525;stroke-miterlimit:41.994751"/><path d="M57.43575 126.65393A.47625 .47625 0 0056.48325 126.65393A.47625 .47625 0 0057.43575 126.65393z" fill="rgba(72,0,182,.24705882)"/><path d="M67.884675 98.707575A.47625 .47625 0 0066.932175 98.707575A.47625 .47625 0 0067.884675 98.707575z" fill="rgba(72,0,182,.24705882)"/><path d="M24.9936 94.154625H43.98645V90.43035H24.9936z" style="fill:rgba(72,0,182,.24705882);stroke:rgba(72,0,182,.24705882);stroke-width:.09525;stroke-miterlimit:41.994751"/><path d="M34.775775 92.230575A.47625 .47625 0 0033.823275 92.230575A.47625 .47625 0 0034.775775 92.230575z" fill="rgba(72,0,182,.24705882)"/><path d="M25.860375 110.89005H43.233975V94.973775H25.860375z" style="fill:rgba(72,0,182,.24705882);stroke:rgba(72,0,182,.24705882);stroke-width:.09525;stroke-miterlimit:41.994751"/><path d="M34.871025 102.82237A.47625 .47625 0 0033.918525 102.82237A.47625 .47625 0 0034.871025 102.82237z" fill="rgba(72,0,182,.24705882)"/><path d="M44.02455 72.82815H57.731025V64.0842H44.02455z" style="fill:rgba(72,0,182,.24705882);stroke:rgba(72,0,182,.24705882);stroke-width:.09525;stroke-miterlimit:41.994751"/><path d="M50.244375 70.866A.47625 .47625 0 0049.291875 70.866A.47625 .47625 0 0050.244375 70.866z" fill="rgba(72,0,182,.24705882)"/><path d="M25.2984 140.6652H72.90435V111.73777H25.2984z" style="fill:rgba(72,0,182,.24705882);stroke:rgba(72,0,182,.24705882);stroke-width:.09525;stroke-miterlimit:41.994751"/><path d="M45.672375 127.94932A.47625 .47625 0 0044.719875 127.94932A.47625 .47625 0 0045.672375 127.94932z" fill="rgba(72,0,182,.24705882)"/><path d="M66.817875 90.3732H72.932925V83.5533H66.817875z" style="fill:rgba(72,0,182,.24705882);stroke:rgba(72,0,182,.24705882);stroke-width:.09525;stroke-miterlimit:41.994751"/><path d="M70.056375 88.79205A.47625 .47625 0 0069.103875 88.79205A.47625 .47625 0 0070.056375 88.79205z" fill="rgba(72,0,182,.24705882)"/><path d="M24.984075 72.8091H44.0817V68.37045H24.984075z" style="fill:rgba(72,0,182,.24705882);stroke:rgba(72,0,182,.24705882);stroke-width:.09525;stroke-miterlimit:41.994751"/><path d="M34.756725 70.46595A.47625 .47625 0 0033.804225 70.46595A.47625 .47625 0 0034.756725 70.46595z" fill="rgba(72,0,182,.24705882)"/><path d="M50.5206 58.88355A.47625 .47625 0 0049.5681 58.88355A.47625 .47625 0 0050.5206 58.88355z" fill="rgba(72,0,182,.24705882)"/><path d="M57.731025 78.80985H66.760725V70.58025H57.731025z" style="fill:rgba(72,0,182,.24705882);stroke:rgba(72,0,182,.24705882);stroke-width:.09525;stroke-miterlimit:41.994751"/><path d="M60.931425 74.58075A.47625 .47625 0 0059.978925 74.58075A.47625 .47625 0 0060.931425 74.58075z" fill="rgba(72,0,182,.24705882)"/><path d="M58.95975 50.377725A.47625 .47625 0 0058.00725 50.377725A.47625 .47625 0 0058.95975 50.377725z" fill="rgba(72,0,182,.24705882)"/><path d="M44.0055 94.173675H72.837675V90.3732H44.0055z" style="fill:rgba(72,0,182,.24705882);stroke:rgba(72,0,182,.24705882);stroke-width:.09525;stroke-miterlimit:41.994751"/><path d="M50.301525 92.5449A.47625 .47625 0 0049.349025 92.5449A.47625 .47625 0 0050.301525 92.5449z" fill="rgba(72,0,182,.24705882)"/><path d="M44.0055 64.074675H72.894825V50.777775H44.0055z" style="fill:rgba(72,0,182,.24705882);stroke:rgba(72,0,182,.24705882);stroke-width:.09525;stroke-miterlimit:41.994751"/><path d="M58.169175 57.502425A.47625 .47625 0 0057.216675 57.502425A.47625 .47625 0 0058.169175 57.502425z" fill="rgba(72,0,182,.24705882)"/><path d="M57.769125 89.354025H66.646425V83.61045H57.769125z" style="fill:rgba(72,0,182,.24705882);stroke:rgba(72,0,182,.24705882);stroke-width:.09525;stroke-miterlimit:41.994751"/><path d="M61.43625 88.3158A.47625 .47625 0 0060.48375 88.3158A.47625 .47625 0 0061.43625 88.3158z" fill="rgba(72,0,182,.24705882)"/><path d="M57.5691 83.53425H66.779775V78.96225H57.5691z" style="fill:rgba(72,0,182,.24705882);stroke:rgba(72,0,182,.24705882);stroke-width:.09525;stroke-miterlimit:41.994751"/><path d="M61.20765 81.47685A.47625 .47625 0 0060.25515 81.47685A.47625 .47625 0 0061.20765 81.47685z" fill="rgba(72,0,182,.24705882)"/><path d="M66.8655 83.53425H71.8185V78.96225H66.8655z" style="fill:rgba(72,0,182,.24705882);stroke:rgba(72,0,182,.24705882);stroke-width:.09525;stroke-miterlimit:41.994751"/><path d="M71.999475 81.276825A.47625 .47625 0 0071.046975 81.276825A.47625 .47625 0 0071.999475 81.276825z" fill="rgba(72,0,182,.24705882)"/><path d="M50.815875 103.07002A.47625 .47625 0 0049.863375 103.07002A.47625 .47625 0 0050.815875 103.07002z" fill="rgba(72,0,182,.24705882)"/><path d="M67.656075 56.473725A.47625 .47625 0 0066.703575 56.473725A.47625 .47625 0 0067.656075 56.473725z" fill="rgba(72,0,182,.24705882)"/><path d="M43.8531 103.3653A.47625 .47625 0 0042.9006 103.3653A.47625 .47625 0 0043.8531 103.3653z" fill="rgba(72,0,182,.24705882)"/><path d="M58.1025 111.33772A.47625 .47625 0 0057.15 111.33772A.47625 .47625 0 0058.1025 111.33772z" fill="rgba(72,0,182,.24705882)"/><path d="M44.0055 110.92815H72.94245V94.1832H44.0055z" style="fill:rgba(72,0,182,.24705882);stroke:rgba(72,0,182,.24705882);stroke-width:.09525;stroke-miterlimit:41.994751"/><path d="M57.711975 103.72725A.47625 .47625 0 0056.759475 103.72725A.47625 .47625 0 0057.711975 103.72725z" fill="rgba(72,0,182,.24705882)"/><path d="M44.196 59.159775A.47625 .47625 0 0043.2435 59.159775A.47625 .47625 0 0044.196 59.159775z" fill="rgba(72,0,182,.24705882)"/><path d="M25.7175 89.620725H43.176825V73.675875H25.7175z" style="fill:rgba(72,0,182,.24705882);stroke:rgba(72,0,182,.24705882);stroke-width:.09525;stroke-miterlimit:41.994751"/><path d="M34.604325 82.038825A.47625 .47625 0 0033.651825 82.038825A.47625 .47625 0 0034.604325 82.038825z" fill="rgba(72,0,182,.24705882)"/><path d="M28.3845 48.71085H42.4815V32.394525H28.3845z" style="fill:rgba(72,0,182,.24705882);stroke:rgba(72,0,182,.24705882);stroke-width:.09525;stroke-miterlimit:41.994751"/><path d="M34.9377 38.88105A.47625 .47625 0 0033.9852 38.88105A.47625 .47625 0 0034.9377 38.88105z" fill="rgba(72,0,182,.24705882)"/><path d="M43.157775 38.661975A.47625 .47625 0 0042.205275 38.661975A.47625 .47625 0 0043.157775 38.661975z" fill="rgba(72,0,182,.24705882)"/><path d="M43.9674 82.12455A.47625 .47625 0 0043.0149 82.12455A.47625 .47625 0 0043.9674 82.12455z" fill="rgba(72,0,182,.24705882)"/><path d="M66.836925 78.933675H72.9615V64.074675H66.836925z" style="fill:rgba(72,0,182,.24705882);stroke:rgba(72,0,182,.24705882);stroke-width:.09525;stroke-miterlimit:41.994751"/><path d="M69.55155 74.5998A.47625 .47625 0 0068.59905 74.5998A.47625 .47625 0 0069.55155 74.5998z" fill="rgba(72,0,182,.24705882)"/><path d="M44.034075 90.4113H57.4929V72.8472H44.034075z" style="fill:rgba(72,0,182,.24705882);stroke:rgba(72,0,182,.24705882);stroke-width:.09525;stroke-miterlimit:41.994751"/><path d="M49.6062 81.829275A.47625 .47625 0 0048.6537 81.829275A.47625 .47625 0 0049.6062 81.829275z" fill="rgba(72,0,182,.24705882)"/><path d="M42.891075 50.00625H72.9615V34.547175H42.891075z" style="fill:rgba(72,0,182,.24705882);stroke:rgba(72,0,182,.24705882);stroke-width:.09525;stroke-miterlimit:41.994751"/><path d="M53.406675 37.69995A.47625 .47625 0 0052.454175 37.69995A.47625 .47625 0 0053.406675 37.69995z" fill="rgba(72,0,182,.24705882)"/><path d="M60.7314 81.47685L49.12995 81.829275" style="fill:none;stroke:rgba(72,0,182,.24705882);stroke-width:.09525;stroke-miterlimit:41.994751"/><path d="M57.62625 111.33772L45.196125 127.94932" style="fill:none;stroke:rgba(72,0,182,.24705882);stroke-width:.09525;stroke-miterlimit:41.994751"/><path d="M52.930425 37.69995L58.4835 50.377725" style="fill:none;stroke:rgba(72,0,182,.24705882);stroke-width:.09525;stroke-miterlimit:41.994751"/><path d="M49.768125 70.866L49.12995 81.829275" style="fill:none;stroke:rgba(72,0,182,.24705882);stroke-width:.09525;stroke-miterlimit:41.994751"/><path d="M42.681525 38.661975L34.46145 38.88105" style="fill:none;stroke:rgba(72,0,182,.24705882);stroke-width:.09525;stroke-miterlimit:41.994751"/><path d="M42.681525 38.661975L52.930425 37.69995" style="fill:none;stroke:rgba(72,0,182,.24705882);stroke-width:.09525;stroke-miterlimit:41.994751"/><path d="M56.9595 126.65393L45.196125 127.94932" style="fill:none;stroke:rgba(72,0,182,.24705882);stroke-width:.09525;stroke-miterlimit:41.994751"/><path d="M34.299525 92.230575L49.825275 92.5449" style="fill:none;stroke:rgba(72,0,182,.24705882);stroke-width:.09525;stroke-miterlimit:41.994751"/><path d="M69.0753 74.5998L60.455175 74.58075" style="fill:none;stroke:rgba(72,0,182,.24705882);stroke-width:.09525;stroke-miterlimit:41.994751"/><path d="M69.0753 74.5998L67.179825 56.473725" style="fill:none;stroke:rgba(72,0,182,.24705882);stroke-width:.09525;stroke-miterlimit:41.994751"/><path d="M56.9595 126.65393L57.62625 111.33772" style="fill:none;stroke:rgba(72,0,182,.24705882);stroke-width:.09525;stroke-miterlimit:41.994751"/><path d="M43.49115 82.12455L49.12995 81.829275" style="fill:none;stroke:rgba(72,0,182,.24705882);stroke-width:.09525;stroke-miterlimit:41.994751"/><path d="M69.580125 88.79205L67.408425 98.707575" style="fill:none;stroke:rgba(72,0,182,.24705882);stroke-width:.09525;stroke-miterlimit:41.994751"/><path d="M34.128075 82.038825L43.49115 82.12455" style="fill:none;stroke:rgba(72,0,182,.24705882);stroke-width:.09525;stroke-miterlimit:41.994751"/><path d="M60.96 88.3158L69.580125 88.79205" style="fill:none;stroke:rgba(72,0,182,.24705882);stroke-width:.09525;stroke-miterlimit:41.994751"/><path d="M49.12995 81.829275L49.825275 92.5449" style="fill:none;stroke:rgba(72,0,182,.24705882);stroke-width:.09525;stroke-miterlimit:41.994751"/><path d="M57.62625 111.33772L57.235725 103.72725" style="fill:none;stroke:rgba(72,0,182,.24705882);stroke-width:.09525;stroke-miterlimit:41.994751"/><path d="M67.408425 98.707575L57.235725 103.72725" style="fill:none;stroke:rgba(72,0,182,.24705882);stroke-width:.09525;stroke-miterlimit:41.994751"/><path d="M60.7314 81.47685L60.455175 74.58075" style="fill:none;stroke:rgba(72,0,182,.24705882);stroke-width:.09525;stroke-miterlimit:41.994751"/><path d="M43.37685 103.3653L50.339625 103.07002" style="fill:none;stroke:rgba(72,0,182,.24705882);stroke-width:.09525;stroke-miterlimit:41.994751"/><path d="M43.37685 103.3653L34.394775 102.82237" style="fill:none;stroke:rgba(72,0,182,.24705882);stroke-width:.09525;stroke-miterlimit:41.994751"/><path d="M50.339625 103.07002L57.235725 103.72725" style="fill:none;stroke:rgba(72,0,182,.24705882);stroke-width:.09525;stroke-miterlimit:41.994751"/><path d="M49.825275 92.5449L50.339625 103.07002" style="fill:none;stroke:rgba(72,0,182,.24705882);stroke-width:.09525;stroke-miterlimit:41.994751"/><path d="M57.692925 57.502425L50.04435 58.88355" style="fill:none;stroke:rgba(72,0,182,.24705882);stroke-width:.09525;stroke-miterlimit:41.994751"/><path d="M57.692925 57.502425L67.179825 56.473725" style="fill:none;stroke:rgba(72,0,182,.24705882);stroke-width:.09525;stroke-miterlimit:41.994751"/><path d="M60.7314 81.47685L60.96 88.3158" style="fill:none;stroke:rgba(72,0,182,.24705882);stroke-width:.09525;stroke-miterlimit:41.994751"/><path d="M49.768125 70.866L50.04435 58.88355" style="fill:none;stroke:rgba(72,0,182,.24705882);stroke-width:.09525;stroke-miterlimit:41.994751"/><path d="M58.4835 50.377725L57.692925 57.502425" style="fill:none;stroke:rgba(72,0,182,.24705882);stroke-width:.09525;stroke-miterlimit:41.994751"/><path d="M34.280475 70.46595L49.768125 70.866" style="fill:none;stroke:rgba(72,0,182,.24705882);stroke-width:.09525;stroke-miterlimit:41.994751"/><path d="M50.04435 58.88355L43.71975 59.159775" style="fill:none;stroke:rgba(72,0,182,.24705882);stroke-width:.09525;stroke-miterlimit:41.994751"/><path d="M52.930425 37.69995L56.1975 31.003875" style="fill:none;stroke:rgba(72,0,182,.24705882);stroke-width:.09525;stroke-miterlimit:41.994751"/><path d="M50.04435 58.88355L57.7215 67.11315" style="fill:none;stroke:rgba(72,0,182,.24705882);stroke-width:.09525;stroke-miterlimit:41.994751"/><path d="M57.7215 67.11315L49.768125 70.866" style="fill:none;stroke:rgba(72,0,182,.24705882);stroke-width:.09525;stroke-miterlimit:41.994751"/><path d="M49.12995 81.829275L57.7215 67.11315" style="fill:none;stroke:rgba(72,0,182,.24705882);stroke-width:.09525;stroke-miterlimit:41.994751"/><path d="M42.91965 34.57575H56.283225V27.90825H42.91965z" style="fill:rgba(72,0,182,.24705882);stroke:rgba(72,0,182,.24705882);stroke-width:.09525;stroke-miterlimit:41.994751"/><path d="M56.67375 31.003875A.47625 .47625 0 0055.72125 31.003875A.47625 .47625 0 0056.67375 31.003875z" fill="rgba(72,0,182,.24705882)"/><path d="M58.19775 67.11315A.47625 .47625 0 0057.24525 67.11315A.47625 .47625 0 0058.19775 67.11315z" fill="rgba(72,0,182,.24705882)"/><path d="M43.71975 59.159775L36.566475 58.92165" style="fill:none;stroke:rgba(72,0,182,.24705882);stroke-width:.09525;stroke-miterlimit:41.994751"/><path d="M25.784175 67.465575H43.18635V51.56835H25.784175z" style="fill:rgba(72,0,182,.24705882);stroke:rgba(72,0,182,.24705882);stroke-width:.09525;stroke-miterlimit:41.994751"/><path d="M37.042725 58.92165A.47625 .47625 0 0036.090225 58.92165A.47625 .47625 0 0037.042725 58.92165z" fill="rgba(72,0,182,.24705882)"/><path d="M62.607825 67.027425L57.7215 67.11315" style="fill:none;stroke:rgba(64,0,190,.24705882);stroke-width:.09525;stroke-miterlimit:41.994751"/><path d="M71.523225 81.276825L71.8185 80.94345" style="fill:none;stroke:rgba(64,0,190,.24705882);stroke-width:.09525;stroke-miterlimit:41.994751"/><path d="M71.8185 80.94345L60.7314 81.47685" style="fill:none;stroke:rgba(64,0,190,.24705882);stroke-width:.09525;stroke-miterlimit:41.994751"/><path d="M56.1975 31.003875L67.0179 30.91815" style="fill:none;stroke:rgba(56,0,198,.24705882);stroke-width:.09525;stroke-miterlimit:41.994751"/><path d="M63.084075 67.027425A.47625 .47625 0 0062.131575 67.027425A.47625 .47625 0 0063.084075 67.027425z" fill="rgba(56,0,198,.24705882)"/><path d="M66.8655 83.53425H71.8185V78.96225H66.8655z" style="fill:rgba(52,0,202,.24705882);stroke:rgba(52,0,202,.24705882);stroke-width:.09525;stroke-miterlimit:41.994751"/><path d="M72.29475 80.94345A.47625 .47625 0 0071.34225 80.94345A.47625 .47625 0 0072.29475 80.94345z" fill="rgba(52,0,202,.24705882)"/><path d="M67.07505 66.57975L62.607825 67.027425" style="fill:none;stroke:rgba(48,0,206,.24705882);stroke-width:.09525;stroke-miterlimit:41.994751"/><path d="M70.3326 110.3376A.47625 .47625 0 0069.3801 110.3376A.47625 .47625 0 0070.3326 110.3376z" fill="rgba(40,0,210,.24705882)"/><path d="M67.5513 66.57975A.47625 .47625 0 0066.5988 66.57975A.47625 .47625 0 0067.5513 66.57975z" fill="rgba(40,0,210,.24705882)"/><path d="M66.894075 110.95672H72.913875V51.60645H66.894075z" style="fill:rgba(40,0,210,.24705882);stroke:rgba(40,0,210,.24705882);stroke-width:.09525;stroke-miterlimit:41.994751"/><path d="M70.551675 66.5988A.47625 .47625 0 0069.599175 66.5988A.47625 .47625 0 0070.551675 66.5988z" fill="rgba(40,0,210,.24705882)"/><path d="M66.875025 49.996725H72.94245V27.917775H66.875025z" style="fill:rgba(40,0,210,.24705882);stroke:rgba(40,0,210,.24705882);stroke-width:.09525;stroke-miterlimit:41.994751"/><path d="M67.49415 30.91815A.47625 .47625 0 0066.54165 30.91815A.47625 .47625 0 0067.49415 30.91815z" fill="rgba(40,0,210,.24705882)"/><path d="M70.170675 95.38335A.47625 .47625 0 0069.218175 95.38335A.47625 .47625 0 0070.170675 95.38335z" fill="rgba(40,0,210,.24705882)"/><path d="M67.07505 66.57975L70.075425 66.5988" style="fill:none;stroke:rgba(40,0,210,.24705882);stroke-width:.09525;stroke-miterlimit:41.994751"/><path d="M69.694425 95.38335L69.85635 110.3376" style="fill:none;stroke:rgba(40,0,210,.24705882);stroke-width:.09525;stroke-miterlimit:41.994751"/><path d="M70.075425 66.5988L69.694425 95.38335" style="fill:none;stroke:rgba(40,0,210,.24705882);stroke-width:.09525;stroke-miterlimit:41.994751"/><path d="M51.91125 113.3094A.47625 .47625 0 0050.95875 113.3094A.47625 .47625 0 0051.91125 113.3094z" fill="rgba(0,0,255,.24705882)"/><path d="M56.67375 101.06025A.47625 .47625 0 0055.72125 101.06025A.47625 .47625 0 0056.67375 101.06025z" fill="rgba(0,0,255,.24705882)"/><path d="M49.54905 87.068025A.47625 .47625 0 0048.59655 87.068025A.47625 .47625 0 0049.54905 87.068025z" fill="rgba(0,0,255,.24705882)"/><path d="M55.540275 68.894325A.47625 .47625 0 0054.587775 68.894325A.47625 .47625 0 0055.540275 68.894325z" fill="rgba(0,0,255,.24705882)"/><path d="M49.901475 60.302775A.47625 .47625 0 0048.948975 60.302775A.47625 .47625 0 0049.901475 60.302775z" fill="rgba(0,0,255,.24705882)"/><path d="M42.8625 42.186225A.47625 .47625 0 0041.91 42.186225A.47625 .47625 0 0042.8625 42.186225z" fill="rgba(0,0,255,.24705882)"/><path d="M49.749075 125.85382A.47625 .47625 0 0048.796575 125.85382A.47625 .47625 0 0049.749075 125.85382z" fill="rgba(0,0,255,.24705882)"/><path d="M56.1975 101.06025L51.435 113.3094" style="fill:none;stroke:rgba(0,0,255,.24705882);stroke-width:.09525;stroke-miterlimit:41.994751"/><path d="M49.0728 87.068025L56.1975 101.06025" style="fill:none;stroke:rgba(0,0,255,.24705882);stroke-width:.09525;stroke-miterlimit:41.994751"/><path d="M51.435 113.3094L49.272825 125.85382" style="fill:none;stroke:rgba(0,0,255,.24705882);stroke-width:.09525;stroke-miterlimit:41.994751"/><path d="M55.064025 68.894325L49.0728 87.068025" style="fill:none;stroke:rgba(0,0,255,.24705882);stroke-width:.09525;stroke-miterlimit:41.994751"/><path d="M49.425225 60.302775L55.064025 68.894325" style="fill:none;stroke:rgba(0,0,255,.24705882);stroke-width:.09525;stroke-miterlimit:41.994751"/><path d="M49.425225 60.302775L42.38625 42.186225" style="fill:none;stroke:rgba(0,0,255,.24705882);stroke-width:.09525;stroke-miterlimit:41.994751"/></svg>