<svg version="1.1" width="176.9745mm" height="140.11275mm" viewBox="0 0 176.9745 140.11275" xmlns="http://www.w3.org/2000/svg" xmlns:xlink="http://www.w3.org/1999/xlink"><path d="M145.7325 88.773H147.6375" style="fill:none;stroke:#f00;stroke-width:.09525;stroke-miterlimit:41.994751"/><path d="M145.7325 88.773V86.868" style="fill:none;stroke:#0f0;stroke-width:.09525;stroke-miterlimit:41.994751"/><path d="M95.4405 42.672H100.7745V.28575H95.4405z" style="fill:rgba(255,0,0,.24705882);stroke:rgba(255,0,0,.24705882);stroke-width:.09525;stroke-miterlimit:41.994751"/><path d="M98.58375 34.11855A.47625 .47625 0 0097.63125 34.11855A.47625 .47625 0 0098.58375 34.11855z" fill="rgba(255,0,0,.24705882)"/><path d="M51.2445 66.646425H60.10275V42.672H51.2445z" style="fill:rgba(255,0,0,.24705882);stroke:rgba(255,0,0,.24705882);stroke-width:.09525;stroke-miterlimit:41.994751"/><path d="M55.083075 54.606825A.47625 .47625 0 0054.130575 54.606825A.47625 .47625 0 0055.083075 54.606825z" fill="rgba(255,0,0,.24705882)"/><path d="M51.2445 96.2025H60.10275V82.46745H51.2445z" style="fill:rgba(255,0,0,.24705882);stroke:rgba(255,0,0,.24705882);stroke-width:.09525;stroke-miterlimit:41.994751"/><path d="M56.0832 89.639775A.47625 .47625 0 0055.1307 89.639775A.47625 .47625 0 0056.0832 89.639775z" fill="rgba(255,0,0,.24705882)"/><path d="M.200025 66.646425H51.2445V42.672H.200025z" style="fill:rgba(255,0,0,.24705882);stroke:rgba(255,0,0,.24705882);stroke-width:.09525;stroke-miterlimit:41.994751"/><path d="M41.957625 55.26405A.47625 .47625 0 0041.005125 55.26405A.47625 .47625 0 0041.957625 55.26405z" fill="rgba(255,0,0,.24705882)"/><path d="M.200025 82.46745H51.2445V66.646425H.200025z" style="fill:rgba(255,0,0,.24705882);stroke:rgba(255,0,0,.24705882);stroke-width:.09525;stroke-miterlimit:41.994751"/><path d="M41.976675 74.23785A.47625 .47625 0 0041.024175 74.23785A.47625 .47625 0 0041.976675 74.23785z" fill="rgba(255,0,0,.24705882)"/><path d="M.200025 96.2025H51.2445V82.46745H.200025z" style="fill:rgba(255,0,0,.24705882);stroke:rgba(255,0,0,.24705882);stroke-width:.09525;stroke-miterlimit:41.994751"/><path d="M41.8719 91.659075A.47625 .47625 0 0040.9194 91.659075A.47625 .47625 0 0041.8719 91.659075z" fill="rgba(255,0,0,.24705882)"/><path d="M.200025 139.827H60.10275V96.2025H.200025z" style="fill:rgba(255,0,0,.24705882);stroke:rgba(255,0,0,.24705882);stroke-width:.09525;stroke-miterlimit:41.994751"/><path d="M53.768625 102.58425A.47625 .47625 0 0052.816125 102.58425A.47625 .47625 0 0053.768625 102.58425z" fill="rgba(255,0,0,.24705882)"/><path d="M76.342875 139.827H90.43035V108.21353H76.342875z" style="fill:rgba(255,0,0,.24705882);stroke:rgba(255,0,0,.24705882);stroke-width:.09525;stroke-miterlimit:41.994751"/><path d="M83.639025 124.0155A.47625 .47625 0 0082.686525 124.0155A.47625 .47625 0 0083.639025 124.0155z" fill="rgba(255,0,0,.24705882)"/><path d="M109.63275 139.827H176.68875V96.2025H109.63275z" style="fill:rgba(255,0,0,.24705882);stroke:rgba(255,0,0,.24705882);stroke-width:.09525;stroke-miterlimit:41.994751"/><path d="M117.6147 102.11753A.47625 .47625 0 00116.6622 102.11753A.47625 .47625 0 00117.6147 102.11753z" fill="rgba(255,0,0,.24705882)"/><path d="M109.63275 96.2025H176.68875V69.723H109.63275z" style="fill:rgba(255,0,0,.24705882);stroke:rgba(255,0,0,.24705882);stroke-width:.09525;stroke-miterlimit:41.994751"/><path d="M117.58613 83.19135A.47625 .47625 0 00116.63363 83.19135A.47625 .47625 0 00117.58613 83.19135z" fill="rgba(255,0,0,.24705882)"/><path d="M111.53775 69.723H176.68875V58.293H111.53775z" style="fill:rgba(255,0,0,.24705882);stroke:rgba(255,0,0,.24705882);stroke-width:.09525;stroke-miterlimit:41.994751"/><path d="M117.89093 64.246125A.47625 .47625 0 00116.93843 64.246125A.47625 .47625 0 00117.89093 64.246125z" fill="rgba(255,0,0,.24705882)"/><path d="M108.29925 66.294H111.53775V61.722H108.29925z" style="fill:rgba(255,0,0,.24705882);stroke:rgba(255,0,0,.24705882);stroke-width:.09525;stroke-miterlimit:41.994751"/><path d="M110.00423 63.979425A.47625 .47625 0 00109.05173 63.979425A.47625 .47625 0 00110.00423 63.979425z" fill="rgba(255,0,0,.24705882)"/><path d="M109.63275 58.293H176.68875V42.672H109.63275z" style="fill:rgba(255,0,0,.24705882);stroke:rgba(255,0,0,.24705882);stroke-width:.09525;stroke-miterlimit:41.994751"/><path d="M118.05285 49.43475A.47625 .47625 0 00117.10035 49.43475A.47625 .47625 0 00118.05285 49.43475z" fill="rgba(255,0,0,.24705882)"/><path d="M109.63275 42.672H176.68875V.28575H109.63275z" style="fill:rgba(255,0,0,.24705882);stroke:rgba(255,0,0,.24705882);stroke-width:.09525;stroke-miterlimit:41.994751"/><path d="M118.04333 35.52825A.47625 .47625 0 00117.09083 35.52825A.47625 .47625 0 00118.04333 35.52825z" fill="rgba(255,0,0,.24705882)"/><path d="M60.10275 42.672H95.4405V.28575H60.10275z" style="fill:rgba(255,0,0,.24705882);stroke:rgba(255,0,0,.24705882);stroke-width:.09525;stroke-miterlimit:41.994751"/><path d="M78.247875 34.11855A.47625 .47625 0 0077.295375 34.11855A.47625 .47625 0 0078.247875 34.11855z" fill="rgba(255,0,0,.24705882)"/><path d="M.200025 42.672H60.10275V.28575H.200025z" style="fill:rgba(255,0,0,.24705882);stroke:rgba(255,0,0,.24705882);stroke-width:.09525;stroke-miterlimit:41.994751"/><path d="M51.996975 36.3474A.47625 .47625 0 0051.044475 36.3474A.47625 .47625 0 0051.996975 36.3474z" fill="rgba(255,0,0,.24705882)"/><path d="M76.342875 108.21353H90.43035V96.2025H76.342875z" style="fill:rgba(255,0,0,.24705882);stroke:rgba(255,0,0,.24705882);stroke-width:.09525;stroke-miterlimit:41.994751"/><path d="M83.639025 102.20325A.47625 .47625 0 0082.686525 102.20325A.47625 .47625 0 0083.639025 102.20325z" fill="rgba(255,0,0,.24705882)"/><path d="M60.10275 139.827H76.25715V96.2025H60.10275z" style="fill:rgba(255,0,0,.24705882);stroke:rgba(255,0,0,.24705882);stroke-width:.09525;stroke-miterlimit:41.994751"/><path d="M68.760975 103.34625A.47625 .47625 0 0067.808475 103.34625A.47625 .47625 0 0068.760975 103.34625z" fill="rgba(255,0,0,.24705882)"/><path d="M90.420825 139.827H109.63275V107.98493H90.420825z" style="fill:rgba(255,0,0,.24705882);stroke:rgba(255,0,0,.24705882);stroke-width:.09525;stroke-miterlimit:41.994751"/><path d="M99.72675 123.9012A.47625 .47625 0 0098.77425 123.9012A.47625 .47625 0 0099.72675 123.9012z" fill="rgba(255,0,0,.24705882)"/><path d="M100.7745 42.672H109.63275V.28575H100.7745z" style="fill:rgba(255,0,0,.24705882);stroke:rgba(255,0,0,.24705882);stroke-width:.09525;stroke-miterlimit:41.994751"/><path d="M105.67988 34.11855A.47625 .47625 0 00104.72738 34.11855A.47625 .47625 0 00105.67988 34.11855z" fill="rgba(255,0,0,.24705882)"/><path d="M90.420825 107.98493H109.63275V96.2025H90.420825z" style="fill:rgba(255,0,0,.24705882);stroke:rgba(255,0,0,.24705882);stroke-width:.09525;stroke-miterlimit:41.994751"/><path d="M99.72675 102.08895A.47625 .47625 0 0098.77425 102.08895A.47625 .47625 0 0099.72675 102.08895z" fill="rgba(255,0,0,.24705882)"/><path d="M51.520725 36.3474L54.606825 54.606825" style="fill:none;stroke:rgba(255,0,0,.24705882);stroke-width:.09525;stroke-miterlimit:41.994751"/><path d="M77.771625 34.11855L51.520725 36.3474" style="fill:none;stroke:rgba(255,0,0,.24705882);stroke-width:.09525;stroke-miterlimit:41.994751"/><path d="M99.2505 102.08895L83.162775 102.20325" style="fill:none;stroke:rgba(255,0,0,.24705882);stroke-width:.09525;stroke-miterlimit:41.994751"/><path d="M54.606825 54.606825L41.481375 55.26405" style="fill:none;stroke:rgba(255,0,0,.24705882);stroke-width:.09525;stroke-miterlimit:41.994751"/><path d="M98.1075 34.11855H105.20363" style="fill:none;stroke:rgba(255,0,0,.24705882);stroke-width:.09525;stroke-miterlimit:41.994751"/><path d="M83.162775 102.20325L99.2505 123.9012" style="fill:none;stroke:rgba(255,0,0,.24705882);stroke-width:.09525;stroke-miterlimit:41.994751"/><path d="M105.20363 34.11855L117.56708 35.52825" style="fill:none;stroke:rgba(255,0,0,.24705882);stroke-width:.09525;stroke-miterlimit:41.994751"/><path d="M55.60695 89.639775L53.292375 102.58425" style="fill:none;stroke:rgba(255,0,0,.24705882);stroke-width:.09525;stroke-miterlimit:41.994751"/><path d="M41.481375 55.26405L41.500425 74.23785" style="fill:none;stroke:rgba(255,0,0,.24705882);stroke-width:.09525;stroke-miterlimit:41.994751"/><path d="M41.500425 74.23785L41.39565 91.659075" style="fill:none;stroke:rgba(255,0,0,.24705882);stroke-width:.09525;stroke-miterlimit:41.994751"/><path d="M41.39565 91.659075L55.60695 89.639775" style="fill:none;stroke:rgba(255,0,0,.24705882);stroke-width:.09525;stroke-miterlimit:41.994751"/><path d="M41.39565 91.659075L53.292375 102.58425" style="fill:none;stroke:rgba(255,0,0,.24705882);stroke-width:.09525;stroke-miterlimit:41.994751"/><path d="M83.162775 124.0155V102.20325" style="fill:none;stroke:rgba(255,0,0,.24705882);stroke-width:.09525;stroke-miterlimit:41.994751"/><path d="M83.162775 124.0155L68.284725 103.34625" style="fill:none;stroke:rgba(255,0,0,.24705882);stroke-width:.09525;stroke-miterlimit:41.994751"/><path d="M117.13845 102.11753L117.10988 83.19135" style="fill:none;stroke:rgba(255,0,0,.24705882);stroke-width:.09525;stroke-miterlimit:41.994751"/><path d="M99.2505 123.9012L117.13845 102.11753" style="fill:none;stroke:rgba(255,0,0,.24705882);stroke-width:.09525;stroke-miterlimit:41.994751"/><path d="M99.2505 123.9012L83.162775 124.0155" style="fill:none;stroke:rgba(255,0,0,.24705882);stroke-width:.09525;stroke-miterlimit:41.994751"/><path d="M99.2505 123.9012V102.08895" style="fill:none;stroke:rgba(255,0,0,.24705882);stroke-width:.09525;stroke-miterlimit:41.994751"/><path d="M117.10988 83.19135L117.41468 64.246125" style="fill:none;stroke:rgba(255,0,0,.24705882);stroke-width:.09525;stroke-miterlimit:41.994751"/><path d="M83.162775 102.20325L68.284725 103.34625" style="fill:none;stroke:rgba(255,0,0,.24705882);stroke-width:.09525;stroke-miterlimit:41.994751"/><path d="M68.284725 103.34625L53.292375 102.58425" style="fill:none;stroke:rgba(255,0,0,.24705882);stroke-width:.09525;stroke-miterlimit:41.994751"/><path d="M117.41468 64.246125L109.52798 63.979425" style="fill:none;stroke:rgba(255,0,0,.24705882);stroke-width:.09525;stroke-miterlimit:41.994751"/><path d="M51.520725 36.3474L41.481375 55.26405" style="fill:none;stroke:rgba(255,0,0,.24705882);stroke-width:.09525;stroke-miterlimit:41.994751"/><path d="M99.2505 102.08895L117.13845 102.11753" style="fill:none;stroke:rgba(255,0,0,.24705882);stroke-width:.09525;stroke-miterlimit:41.994751"/><path d="M117.41468 64.246125L117.5766 49.43475" style="fill:none;stroke:rgba(255,0,0,.24705882);stroke-width:.09525;stroke-miterlimit:41.994751"/><path d="M117.5766 49.43475L117.56708 35.52825" style="fill:none;stroke:rgba(255,0,0,.24705882);stroke-width:.09525;stroke-miterlimit:41.994751"/><path d="M77.771625 34.11855H98.1075" style="fill:none;stroke:rgba(255,0,0,.24705882);stroke-width:.09525;stroke-miterlimit:41.994751"/><path d="M86.106 58.76925H108.10875V44.196H86.106z" style="fill:rgba(255,0,0,.24705882);stroke:rgba(255,0,0,.24705882);stroke-width:.09525;stroke-miterlimit:41.994751"/><path d="M96.0882 52.06365A.47625 .47625 0 0095.1357 52.06365A.47625 .47625 0 0096.0882 52.06365z" fill="rgba(255,0,0,.24705882)"/><path d="M86.106 94.6785H108.10875V66.294H86.106z" style="fill:rgba(255,0,0,.24705882);stroke:rgba(255,0,0,.24705882);stroke-width:.09525;stroke-miterlimit:41.994751"/><path d="M96.650175 80.48625A.47625 .47625 0 0095.697675 80.48625A.47625 .47625 0 0096.650175 80.48625z" fill="rgba(255,0,0,.24705882)"/><path d="M61.62675 56.388H69.62775V44.196H61.62675z" style="fill:rgba(255,0,0,.24705882);stroke:rgba(255,0,0,.24705882);stroke-width:.09525;stroke-miterlimit:41.994751"/><path d="M66.08445 50.834925A.47625 .47625 0 0065.13195 50.834925A.47625 .47625 0 0066.08445 50.834925z" fill="rgba(255,0,0,.24705882)"/><path d="M86.106 61.722H108.10875V58.76925H86.106z" style="fill:rgba(255,0,0,.24705882);stroke:rgba(255,0,0,.24705882);stroke-width:.09525;stroke-miterlimit:41.994751"/><path d="M96.650175 60.245625A.47625 .47625 0 0095.697675 60.245625A.47625 .47625 0 0096.650175 60.245625z" fill="rgba(255,0,0,.24705882)"/><path d="M61.62675 94.6785H68.58V83.2485H61.62675z" style="fill:rgba(255,0,0,.24705882);stroke:rgba(255,0,0,.24705882);stroke-width:.09525;stroke-miterlimit:41.994751"/><path d="M65.579625 86.96325A.47625 .47625 0 0064.627125 86.96325A.47625 .47625 0 0065.579625 86.96325z" fill="rgba(255,0,0,.24705882)"/><path d="M86.106 66.294H108.10875V61.722H86.106z" style="fill:rgba(255,0,0,.24705882);stroke:rgba(255,0,0,.24705882);stroke-width:.09525;stroke-miterlimit:41.994751"/><path d="M96.650175 64.008A.47625 .47625 0 0095.697675 64.008A.47625 .47625 0 0096.650175 64.008z" fill="rgba(255,0,0,.24705882)"/><path d="M69.5325 94.6785H86.106V84.48675H69.5325z" style="fill:rgba(255,0,0,.24705882);stroke:rgba(255,0,0,.24705882);stroke-width:.09525;stroke-miterlimit:41.994751"/><path d="M77.4954 89.582625A.47625 .47625 0 0076.5429 89.582625A.47625 .47625 0 0077.4954 89.582625z" fill="rgba(255,0,0,.24705882)"/><path d="M68.58 89.05875H69.5325V84.48675H68.58z" style="fill:rgba(255,0,0,.24705882);stroke:rgba(255,0,0,.24705882);stroke-width:.09525;stroke-miterlimit:41.994751"/><path d="M69.5325 86.96325A.47625 .47625 0 0068.58 86.96325A.47625 .47625 0 0069.5325 86.96325z" fill="rgba(255,0,0,.24705882)"/><path d="M69.5325 84.48675H86.106V65.151H69.5325z" style="fill:rgba(255,0,0,.24705882);stroke:rgba(255,0,0,.24705882);stroke-width:.09525;stroke-miterlimit:41.994751"/><path d="M77.4954 74.818875A.47625 .47625 0 0076.5429 74.818875A.47625 .47625 0 0077.4954 74.818875z" fill="rgba(255,0,0,.24705882)"/><path d="M69.5325 65.151H86.106V58.76925H69.5325z" style="fill:rgba(255,0,0,.24705882);stroke:rgba(255,0,0,.24705882);stroke-width:.09525;stroke-miterlimit:41.994751"/><path d="M75.6666 62.19825A.47625 .47625 0 0074.7141 62.19825A.47625 .47625 0 0075.6666 62.19825z" fill="rgba(255,0,0,.24705882)"/><path d="M61.62675 65.151H69.5325V56.388H61.62675z" style="fill:rgba(255,0,0,.24705882);stroke:rgba(255,0,0,.24705882);stroke-width:.09525;stroke-miterlimit:41.994751"/><path d="M66.27495 61.8744A.47625 .47625 0 0065.32245 61.8744A.47625 .47625 0 0066.27495 61.8744z" fill="rgba(255,0,0,.24705882)"/><path d="M69.62775 56.388H83.72475V44.196H69.62775z" style="fill:rgba(255,0,0,.24705882);stroke:rgba(255,0,0,.24705882);stroke-width:.09525;stroke-miterlimit:41.994751"/><path d="M73.980675 51.101625A.47625 .47625 0 0073.028175 51.101625A.47625 .47625 0 0073.980675 51.101625z" fill="rgba(255,0,0,.24705882)"/><path d="M75.19035 62.19825L65.7987 61.8744" style="fill:none;stroke:rgba(255,0,0,.24705882);stroke-width:.09525;stroke-miterlimit:41.994751"/><path d="M96.173925 80.48625L77.01915 89.582625" style="fill:none;stroke:rgba(255,0,0,.24705882);stroke-width:.09525;stroke-miterlimit:41.994751"/><path d="M96.173925 64.008L77.01915 74.818875" style="fill:none;stroke:rgba(255,0,0,.24705882);stroke-width:.09525;stroke-miterlimit:41.994751"/><path d="M77.01915 89.582625V74.818875" style="fill:none;stroke:rgba(255,0,0,.24705882);stroke-width:.09525;stroke-miterlimit:41.994751"/><path d="M96.173925 64.008V60.245625" style="fill:none;stroke:rgba(255,0,0,.24705882);stroke-width:.09525;stroke-miterlimit:41.994751"/><path d="M96.173925 80.48625V64.008" style="fill:none;stroke:rgba(255,0,0,.24705882);stroke-width:.09525;stroke-miterlimit:41.994751"/><path d="M69.05625 86.96325L77.01915 89.582625" style="fill:none;stroke:rgba(255,0,0,.24705882);stroke-width:.09525;stroke-miterlimit:41.994751"/><path d="M96.173925 60.245625L75.19035 62.19825" style="fill:none;stroke:rgba(255,0,0,.24705882);stroke-width:.09525;stroke-miterlimit:41.994751"/><path d="M65.6082 50.834925L73.504425 51.101625" style="fill:none;stroke:rgba(255,0,0,.24705882);stroke-width:.09525;stroke-miterlimit:41.994751"/><path d="M77.01915 74.818875L75.19035 62.19825" style="fill:none;stroke:rgba(255,0,0,.24705882);stroke-width:.09525;stroke-miterlimit:41.994751"/><path d="M96.173925 60.245625L95.61195 52.06365" style="fill:none;stroke:rgba(255,0,0,.24705882);stroke-width:.09525;stroke-miterlimit:41.994751"/><path d="M77.01915 74.818875L96.173925 80.48625" style="fill:none;stroke:rgba(255,0,0,.24705882);stroke-width:.09525;stroke-miterlimit:41.994751"/><path d="M65.103375 86.96325H69.05625" style="fill:none;stroke:rgba(255,0,0,.24705882);stroke-width:.09525;stroke-miterlimit:41.994751"/><path d="M96.173925 64.008L75.19035 62.19825" style="fill:none;stroke:rgba(255,0,0,.24705882);stroke-width:.09525;stroke-miterlimit:41.994751"/><path d="M65.7987 61.8744L65.6082 50.834925" style="fill:none;stroke:rgba(255,0,0,.24705882);stroke-width:.09525;stroke-miterlimit:41.994751"/><path d="M83.162775 102.20325L84.56295 95.754825" style="fill:none;stroke:rgba(250,0,4,.24705882);stroke-width:.09525;stroke-miterlimit:41.994751"/><path d="M84.56295 95.754825L96.173925 80.48625" style="fill:none;stroke:rgba(250,0,4,.24705882);stroke-width:.09525;stroke-miterlimit:41.994751"/><path d="M84.56295 95.754825L77.01915 89.582625" style="fill:none;stroke:rgba(250,0,4,.24705882);stroke-width:.09525;stroke-miterlimit:41.994751"/><path d="M74.2569 57.43575L73.504425 51.101625" style="fill:none;stroke:rgba(246,0,8,.24705882);stroke-width:.09525;stroke-miterlimit:41.994751"/><path d="M75.19035 62.19825L74.2569 57.43575" style="fill:none;stroke:rgba(246,0,8,.24705882);stroke-width:.09525;stroke-miterlimit:41.994751"/><path d="M95.61195 52.06365L84.705825 50.5587" style="fill:none;stroke:rgba(246,0,8,.24705882);stroke-width:.09525;stroke-miterlimit:41.994751"/><path d="M84.705825 50.5587L73.504425 51.101625" style="fill:none;stroke:rgba(246,0,8,.24705882);stroke-width:.09525;stroke-miterlimit:41.994751"/><path d="M96.173925 60.245625L84.1629 56.9214" style="fill:none;stroke:rgba(246,0,8,.24705882);stroke-width:.09525;stroke-miterlimit:41.994751"/><path d="M81.143475 96.2025H87.372825V94.6785H81.143475z" style="fill:rgba(242,0,8,.24705882);stroke:rgba(242,0,8,.24705882);stroke-width:.09525;stroke-miterlimit:41.994751"/><path d="M85.0392 95.754825A.47625 .47625 0 0084.0867 95.754825A.47625 .47625 0 0085.0392 95.754825z" fill="rgba(242,0,8,.24705882)"/><path d="M65.93205 72.71385L65.7987 61.8744" style="fill:none;stroke:rgba(234,0,20,.24705882);stroke-width:.09525;stroke-miterlimit:41.994751"/><path d="M69.62775 58.76925H83.72475V56.388H69.62775z" style="fill:rgba(234,0,20,.24705882);stroke:rgba(234,0,20,.24705882);stroke-width:.09525;stroke-miterlimit:41.994751"/><path d="M74.73315 57.43575A.47625 .47625 0 0073.78065 57.43575A.47625 .47625 0 0074.73315 57.43575z" fill="rgba(234,0,20,.24705882)"/><path d="M83.72475 56.388H86.106V44.196H83.72475z" style="fill:rgba(234,0,20,.24705882);stroke:rgba(234,0,20,.24705882);stroke-width:.09525;stroke-miterlimit:41.994751"/><path d="M85.182075 50.5587A.47625 .47625 0 0084.229575 50.5587A.47625 .47625 0 0085.182075 50.5587z" fill="rgba(234,0,20,.24705882)"/><path d="M83.72475 58.76925H86.106V56.388H83.72475z" style="fill:rgba(234,0,20,.24705882);stroke:rgba(234,0,20,.24705882);stroke-width:.09525;stroke-miterlimit:41.994751"/><path d="M84.63915 56.9214A.47625 .47625 0 0083.68665 56.9214A.47625 .47625 0 0084.63915 56.9214z" fill="rgba(234,0,20,.24705882)"/><path d="M84.705825 50.5587L84.1629 56.9214" style="fill:none;stroke:rgba(234,0,20,.24705882);stroke-width:.09525;stroke-miterlimit:41.994751"/><path d="M84.1629 56.9214L74.2569 57.43575" style="fill:none;stroke:rgba(234,0,20,.24705882);stroke-width:.09525;stroke-miterlimit:41.994751"/><path d="M55.60695 89.639775L52.71135 78.69555" style="fill:none;stroke:rgba(226,0,28,.24705882);stroke-width:.09525;stroke-miterlimit:41.994751"/><path d="M54.606825 54.606825L52.71135 78.69555" style="fill:none;stroke:rgba(226,0,28,.24705882);stroke-width:.09525;stroke-miterlimit:41.994751"/><path d="M41.500425 74.23785L52.71135 78.69555" style="fill:none;stroke:rgba(226,0,28,.24705882);stroke-width:.09525;stroke-miterlimit:41.994751"/><path d="M61.62675 81.600675H69.522975V66.80835H61.62675z" style="fill:rgba(214,0,36,.24705882);stroke:rgba(214,0,36,.24705882);stroke-width:.09525;stroke-miterlimit:41.994751"/><path d="M66.4083 72.71385A.47625 .47625 0 0065.4558 72.71385A.47625 .47625 0 0066.4083 72.71385z" fill="rgba(214,0,36,.24705882)"/><path d="M98.1075 34.11855L98.01225 43.33875" style="fill:none;stroke:rgba(202,0,52,.24705882);stroke-width:.09525;stroke-miterlimit:41.994751"/><path d="M99.2505 123.9012L97.945575 96.012" style="fill:none;stroke:rgba(202,0,52,.24705882);stroke-width:.09525;stroke-miterlimit:41.994751"/><path d="M83.162775 124.0155L83.372325 95.831025" style="fill:none;stroke:rgba(202,0,52,.24705882);stroke-width:.09525;stroke-miterlimit:41.994751"/><path d="M51.2445 82.46745H60.10275V66.646425H51.2445z" style="fill:rgba(194,0,60,.24705882);stroke:rgba(194,0,60,.24705882);stroke-width:.09525;stroke-miterlimit:41.994751"/><path d="M53.1876 78.69555A.47625 .47625 0 0052.2351 78.69555A.47625 .47625 0 0053.1876 78.69555z" fill="rgba(194,0,60,.24705882)"/><path d="M65.93205 72.71385L65.579625 88.477725" style="fill:none;stroke:rgba(194,0,60,.24705882);stroke-width:.09525;stroke-miterlimit:41.994751"/><path d="M86.96325 57.3405H108.10875V52.959H86.96325z" style="fill:rgba(170,0,85,.24705882);stroke:rgba(170,0,85,.24705882);stroke-width:.09525;stroke-miterlimit:41.994751"/><path d="M91.95435 55.14975A.47625 .47625 0 0091.00185 55.14975A.47625 .47625 0 0091.95435 55.14975z" fill="rgba(170,0,85,.24705882)"/><path d="M69.81825 94.6785H108.10875V86.868H69.81825z" style="fill:rgba(170,0,85,.24705882);stroke:rgba(170,0,85,.24705882);stroke-width:.09525;stroke-miterlimit:41.994751"/><path d="M91.7829 90.77325A.47625 .47625 0 0090.8304 90.77325A.47625 .47625 0 0091.7829 90.77325z" fill="rgba(170,0,85,.24705882)"/><path d="M69.5325 91.44H69.81825V86.868H69.5325z" style="fill:rgba(170,0,85,.24705882);stroke:rgba(170,0,85,.24705882);stroke-width:.09525;stroke-miterlimit:41.994751"/><path d="M70.151625 88.477725A.47625 .47625 0 0069.199125 88.477725A.47625 .47625 0 0070.151625 88.477725z" fill="rgba(170,0,85,.24705882)"/><path d="M86.96325 50.673H108.10875V44.196H86.96325z" style="fill:rgba(170,0,85,.24705882);stroke:rgba(170,0,85,.24705882);stroke-width:.09525;stroke-miterlimit:41.994751"/><path d="M91.95435 47.4345A.47625 .47625 0 0091.00185 47.4345A.47625 .47625 0 0091.95435 47.4345z" fill="rgba(170,0,85,.24705882)"/><path d="M91.9734 52.959H108.10875V50.673H91.9734z" style="fill:rgba(170,0,85,.24705882);stroke:rgba(170,0,85,.24705882);stroke-width:.09525;stroke-miterlimit:41.994751"/><path d="M100.51732 51.816A.47625 .47625 0 0099.564825 51.816A.47625 .47625 0 00100.51732 51.816z" fill="rgba(170,0,85,.24705882)"/><path d="M80.2005 65.62725H108.10875V57.3405H80.2005z" style="fill:rgba(170,0,85,.24705882);stroke:rgba(170,0,85,.24705882);stroke-width:.09525;stroke-miterlimit:41.994751"/><path d="M94.630875 61.483875A.47625 .47625 0 0093.678375 61.483875A.47625 .47625 0 0094.630875 61.483875z" fill="rgba(170,0,85,.24705882)"/><path d="M69.81825 86.868H108.10875V65.62725H69.81825z" style="fill:rgba(170,0,85,.24705882);stroke:rgba(170,0,85,.24705882);stroke-width:.09525;stroke-miterlimit:41.994751"/><path d="M91.7829 76.247625A.47625 .47625 0 0090.8304 76.247625A.47625 .47625 0 0091.7829 76.247625z" fill="rgba(170,0,85,.24705882)"/><path d="M69.81825 65.62725H80.2005V57.3405H69.81825z" style="fill:rgba(170,0,85,.24705882);stroke:rgba(170,0,85,.24705882);stroke-width:.09525;stroke-miterlimit:41.994751"/><path d="M75.485625 61.483875A.47625 .47625 0 0074.533125 61.483875A.47625 .47625 0 0075.485625 61.483875z" fill="rgba(170,0,85,.24705882)"/><path d="M86.96325 52.959H91.9734V50.673H86.96325z" style="fill:rgba(170,0,85,.24705882);stroke:rgba(170,0,85,.24705882);stroke-width:.09525;stroke-miterlimit:41.994751"/><path d="M89.944575 51.816A.47625 .47625 0 0088.992075 51.816A.47625 .47625 0 0089.944575 51.816z" fill="rgba(170,0,85,.24705882)"/><path d="M61.62675 94.6785H69.5325V81.6102H61.62675z" style="fill:rgba(170,0,85,.24705882);stroke:rgba(170,0,85,.24705882);stroke-width:.09525;stroke-miterlimit:41.994751"/><path d="M66.055875 88.477725A.47625 .47625 0 0065.103375 88.477725A.47625 .47625 0 0066.055875 88.477725z" fill="rgba(170,0,85,.24705882)"/><path d="M68.0085 57.3405H80.2005V56.388H68.0085z" style="fill:rgba(170,0,85,.24705882);stroke:rgba(170,0,85,.24705882);stroke-width:.09525;stroke-miterlimit:41.994751"/><path d="M73.999725 56.86425A.47625 .47625 0 0073.047225 56.86425A.47625 .47625 0 0073.999725 56.86425z" fill="rgba(170,0,85,.24705882)"/><path d="M61.62675 56.388H86.01075V44.196H61.62675z" style="fill:rgba(170,0,85,.24705882);stroke:rgba(170,0,85,.24705882);stroke-width:.09525;stroke-miterlimit:41.994751"/><path d="M73.999725 50.292A.47625 .47625 0 0073.047225 50.292A.47625 .47625 0 0073.999725 50.292z" fill="rgba(170,0,85,.24705882)"/><path d="M61.62675 65.62725H69.81825V57.3405H61.62675z" style="fill:rgba(170,0,85,.24705882);stroke:rgba(170,0,85,.24705882);stroke-width:.09525;stroke-miterlimit:41.994751"/><path d="M65.51295 61.66485A.47625 .47625 0 0064.56045 61.66485A.47625 .47625 0 0065.51295 61.66485z" fill="rgba(170,0,85,.24705882)"/><path d="M91.30665 76.247625L75.009375 61.483875" style="fill:none;stroke:rgba(170,0,85,.24705882);stroke-width:.09525;stroke-miterlimit:41.994751"/><path d="M75.009375 61.483875L65.0367 61.66485" style="fill:none;stroke:rgba(170,0,85,.24705882);stroke-width:.09525;stroke-miterlimit:41.994751"/><path d="M73.523475 56.86425V50.292" style="fill:none;stroke:rgba(170,0,85,.24705882);stroke-width:.09525;stroke-miterlimit:41.994751"/><path d="M89.468325 51.816L91.4781 47.4345" style="fill:none;stroke:rgba(170,0,85,.24705882);stroke-width:.09525;stroke-miterlimit:41.994751"/><path d="M65.579625 88.477725H69.675375" style="fill:none;stroke:rgba(170,0,85,.24705882);stroke-width:.09525;stroke-miterlimit:41.994751"/><path d="M91.4781 55.14975L89.468325 51.816" style="fill:none;stroke:rgba(170,0,85,.24705882);stroke-width:.09525;stroke-miterlimit:41.994751"/><path d="M75.009375 61.483875H94.154625" style="fill:none;stroke:rgba(170,0,85,.24705882);stroke-width:.09525;stroke-miterlimit:41.994751"/><path d="M100.04108 51.816L91.4781 55.14975" style="fill:none;stroke:rgba(170,0,85,.24705882);stroke-width:.09525;stroke-miterlimit:41.994751"/><path d="M75.009375 61.483875L73.523475 56.86425" style="fill:none;stroke:rgba(170,0,85,.24705882);stroke-width:.09525;stroke-miterlimit:41.994751"/><path d="M89.468325 51.816H100.04108" style="fill:none;stroke:rgba(170,0,85,.24705882);stroke-width:.09525;stroke-miterlimit:41.994751"/><path d="M91.4781 55.14975L94.154625 61.483875" style="fill:none;stroke:rgba(170,0,85,.24705882);stroke-width:.09525;stroke-miterlimit:41.994751"/><path d="M100.04108 51.816L91.4781 47.4345" style="fill:none;stroke:rgba(170,0,85,.24705882);stroke-width:.09525;stroke-miterlimit:41.994751"/><path d="M94.154625 61.483875L91.30665 76.247625" style="fill:none;stroke:rgba(170,0,85,.24705882);stroke-width:.09525;stroke-miterlimit:41.994751"/><path d="M69.675375 88.477725L91.30665 90.77325" style="fill:none;stroke:rgba(170,0,85,.24705882);stroke-width:.09525;stroke-miterlimit:41.994751"/><path d="M91.30665 90.77325V76.247625" style="fill:none;stroke:rgba(170,0,85,.24705882);stroke-width:.09525;stroke-miterlimit:41.994751"/><path d="M91.4781 47.4345L98.01225 43.33875" style="fill:none;stroke:rgba(157,0,93,.24705882);stroke-width:.09525;stroke-miterlimit:41.994751"/><path d="M97.945575 96.012L91.30665 90.77325" style="fill:none;stroke:rgba(157,0,93,.24705882);stroke-width:.09525;stroke-miterlimit:41.994751"/><path d="M83.372325 95.831025L91.30665 90.77325" style="fill:none;stroke:rgba(157,0,97,.24705882);stroke-width:.09525;stroke-miterlimit:41.994751"/><path d="M95.4405 44.196H100.7745V42.672H95.4405z" style="fill:rgba(145,0,105,.24705882);stroke:rgba(145,0,105,.24705882);stroke-width:.09525;stroke-miterlimit:41.994751"/><path d="M98.4885 43.33875A.47625 .47625 0 0097.536 43.33875A.47625 .47625 0 0098.4885 43.33875z" fill="rgba(145,0,105,.24705882)"/><path d="M95.4405 96.2025H100.7745V94.6785H95.4405z" style="fill:rgba(145,0,105,.24705882);stroke:rgba(145,0,105,.24705882);stroke-width:.09525;stroke-miterlimit:41.994751"/><path d="M98.421825 96.012A.47625 .47625 0 0097.469325 96.012A.47625 .47625 0 0098.421825 96.012z" fill="rgba(145,0,105,.24705882)"/><path d="M80.772 96.2025H86.106V94.6785H80.772z" style="fill:rgba(145,0,105,.24705882);stroke:rgba(145,0,105,.24705882);stroke-width:.09525;stroke-miterlimit:41.994751"/><path d="M83.848575 95.831025A.47625 .47625 0 0082.896075 95.831025A.47625 .47625 0 0083.848575 95.831025z" fill="rgba(145,0,105,.24705882)"/><path d="M52.71135 78.69555L60.836175 78.819375" style="fill:none;stroke:rgba(141,0,113,.24705882);stroke-width:.09525;stroke-miterlimit:41.994751"/><path d="M89.468325 51.816L87.91575 51.787425" style="fill:none;stroke:rgba(133,0,117,.24705882);stroke-width:.09525;stroke-miterlimit:41.994751"/><path d="M113.13795 63.95085A.47625 .47625 0 00112.18545 63.95085A.47625 .47625 0 00113.13795 63.95085z" fill="rgba(105,0,145,.24705882)"/><path d="M62.7888 52.29225H73.7235V44.196H62.7888z" style="fill:rgba(101,0,153,.24705882);stroke:rgba(101,0,153,.24705882);stroke-width:.09525;stroke-miterlimit:41.994751"/><path d="M68.951475 47.8536A.47625 .47625 0 0067.998975 47.8536A.47625 .47625 0 0068.951475 47.8536z" fill="rgba(101,0,153,.24705882)"/><path d="M94.488 57.39765H96.421575V53.721H94.488z" style="fill:rgba(101,0,153,.24705882);stroke:rgba(101,0,153,.24705882);stroke-width:.09525;stroke-miterlimit:41.994751"/><path d="M95.145225 55.72125A.47625 .47625 0 0094.192725 55.72125A.47625 .47625 0 0095.145225 55.72125z" fill="rgba(101,0,153,.24705882)"/><path d="M95.91675 94.6785H105.51795V85.725H95.91675z" style="fill:rgba(101,0,153,.24705882);stroke:rgba(101,0,153,.24705882);stroke-width:.09525;stroke-miterlimit:41.994751"/><path d="M101.0412 88.973025A.47625 .47625 0 00100.0887 88.973025A.47625 .47625 0 00101.0412 88.973025z" fill="rgba(101,0,153,.24705882)"/><path d="M75.15225 94.6785H94.488V81.915H75.15225z" style="fill:rgba(101,0,153,.24705882);stroke:rgba(101,0,153,.24705882);stroke-width:.09525;stroke-miterlimit:41.994751"/><path d="M85.486875 89.392125A.47625 .47625 0 0084.534375 89.392125A.47625 .47625 0 0085.486875 89.392125z" fill="rgba(101,0,153,.24705882)"/><path d="M71.8185 58.3692H73.828275V53.721H71.8185z" style="fill:rgba(101,0,153,.24705882);stroke:rgba(101,0,153,.24705882);stroke-width:.09525;stroke-miterlimit:41.994751"/><path d="M73.1139 56.721375A.47625 .47625 0 0072.1614 56.721375A.47625 .47625 0 0073.1139 56.721375z" fill="rgba(101,0,153,.24705882)"/><path d="M62.9031 94.6785H73.7235V85.725H62.9031z" style="fill:rgba(101,0,153,.24705882);stroke:rgba(101,0,153,.24705882);stroke-width:.09525;stroke-miterlimit:41.994751"/><path d="M70.323075 88.98255A.47625 .47625 0 0069.370575 88.98255A.47625 .47625 0 0070.323075 88.98255z" fill="rgba(101,0,153,.24705882)"/><path d="M75.15225 53.54955H81.829275V50.00625H75.15225z" style="fill:rgba(101,0,153,.24705882);stroke:rgba(101,0,153,.24705882);stroke-width:.09525;stroke-miterlimit:41.994751"/><path d="M79.086075 52.911375A.47625 .47625 0 0078.133575 52.911375A.47625 .47625 0 0079.086075 52.911375z" fill="rgba(101,0,153,.24705882)"/><path d="M75.15225 57.3405H94.488V53.721H75.15225z" style="fill:rgba(101,0,153,.24705882);stroke:rgba(101,0,153,.24705882);stroke-width:.09525;stroke-miterlimit:41.994751"/><path d="M81.276825 55.406925A.47625 .47625 0 0080.324325 55.406925A.47625 .47625 0 0081.276825 55.406925z" fill="rgba(101,0,153,.24705882)"/><path d="M63.274575 84.3915H71.8185V53.721H63.274575z" style="fill:rgba(101,0,153,.24705882);stroke:rgba(101,0,153,.24705882);stroke-width:.09525;stroke-miterlimit:41.994751"/><path d="M70.1802 70.1802A.47625 .47625 0 0069.2277 70.1802A.47625 .47625 0 0070.1802 70.1802z" fill="rgba(101,0,153,.24705882)"/><path d="M95.91675 52.29225H106.4895V44.196H95.91675z" style="fill:rgba(101,0,153,.24705882);stroke:rgba(101,0,153,.24705882);stroke-width:.09525;stroke-miterlimit:41.994751"/><path d="M102.96525 47.329725A.47625 .47625 0 00102.01275 47.329725A.47625 .47625 0 00102.96525 47.329725z" fill="rgba(101,0,153,.24705882)"/><path d="M86.96325 53.721H92.3925V49.911H86.96325z" style="fill:rgba(101,0,153,.24705882);stroke:rgba(101,0,153,.24705882);stroke-width:.09525;stroke-miterlimit:41.994751"/><path d="M88.392 51.787425A.47625 .47625 0 0087.4395 51.787425A.47625 .47625 0 0088.392 51.787425z" fill="rgba(101,0,153,.24705882)"/><path d="M71.7804 84.3915H73.275825V81.915H71.7804z" style="fill:rgba(101,0,153,.24705882);stroke:rgba(101,0,153,.24705882);stroke-width:.09525;stroke-miterlimit:41.994751"/><path d="M72.8091 82.54365A.47625 .47625 0 0071.8566 82.54365A.47625 .47625 0 0072.8091 82.54365z" fill="rgba(101,0,153,.24705882)"/><path d="M99.2505 84.3915H106.01325V53.721H99.2505z" style="fill:rgba(101,0,153,.24705882);stroke:rgba(101,0,153,.24705882);stroke-width:.09525;stroke-miterlimit:41.994751"/><path d="M101.32695 70.075425A.47625 .47625 0 00100.37445 70.075425A.47625 .47625 0 00101.32695 70.075425z" fill="rgba(101,0,153,.24705882)"/><path d="M75.15225 49.911H94.488V44.196H75.15225z" style="fill:rgba(101,0,153,.24705882);stroke:rgba(101,0,153,.24705882);stroke-width:.09525;stroke-miterlimit:41.994751"/><path d="M80.629125 47.2821A.47625 .47625 0 0079.676625 47.2821A.47625 .47625 0 0080.629125 47.2821z" fill="rgba(101,0,153,.24705882)"/><path d="M96.10725 84.3915H99.1743V81.924525H96.10725z" style="fill:rgba(101,0,153,.24705882);stroke:rgba(101,0,153,.24705882);stroke-width:.09525;stroke-miterlimit:41.994751"/><path d="M99.0219 82.31505A.47625 .47625 0 0098.0694 82.31505A.47625 .47625 0 0099.0219 82.31505z" fill="rgba(101,0,153,.24705882)"/><path d="M71.8185 81.81975H99.0981V57.3024H71.8185z" style="fill:rgba(101,0,153,.24705882);stroke:rgba(101,0,153,.24705882);stroke-width:.09525;stroke-miterlimit:41.994751"/><path d="M85.658325 69.789675A.47625 .47625 0 0084.705825 69.789675A.47625 .47625 0 0085.658325 69.789675z" fill="rgba(101,0,153,.24705882)"/><path d="M81.85785 53.721H86.325075V49.911H81.85785z" style="fill:rgba(101,0,153,.24705882);stroke:rgba(101,0,153,.24705882);stroke-width:.09525;stroke-miterlimit:41.994751"/><path d="M83.5914 51.9684A.47625 .47625 0 0082.6389 51.9684A.47625 .47625 0 0083.5914 51.9684z" fill="rgba(101,0,153,.24705882)"/><path d="M73.332975 84.3915H75.142725V81.943575H73.332975z" style="fill:rgba(101,0,153,.24705882);stroke:rgba(101,0,153,.24705882);stroke-width:.09525;stroke-miterlimit:41.994751"/><path d="M75.41895 82.743675A.47625 .47625 0 0074.46645 82.743675A.47625 .47625 0 0075.41895 82.743675z" fill="rgba(101,0,153,.24705882)"/><path d="M94.488 84.3915H96.078675V81.905475H94.488z" style="fill:rgba(101,0,153,.24705882);stroke:rgba(101,0,153,.24705882);stroke-width:.09525;stroke-miterlimit:41.994751"/><path d="M95.049975 83.07705A.47625 .47625 0 0094.097475 83.07705A.47625 .47625 0 0095.049975 83.07705z" fill="rgba(101,0,153,.24705882)"/><path d="M96.60255 57.35955H99.19335V53.721H96.60255z" style="fill:rgba(101,0,153,.24705882);stroke:rgba(101,0,153,.24705882);stroke-width:.09525;stroke-miterlimit:41.994751"/><path d="M99.0219 56.778525A.47625 .47625 0 0098.0694 56.778525A.47625 .47625 0 0099.0219 56.778525z" fill="rgba(101,0,153,.24705882)"/><path d="M83.11515 51.9684L78.609825 52.911375" style="fill:none;stroke:rgba(101,0,153,.24705882);stroke-width:.09525;stroke-miterlimit:41.994751"/><path d="M80.800575 55.406925L72.63765 56.721375" style="fill:none;stroke:rgba(101,0,153,.24705882);stroke-width:.09525;stroke-miterlimit:41.994751"/><path d="M87.91575 51.787425L83.11515 51.9684" style="fill:none;stroke:rgba(101,0,153,.24705882);stroke-width:.09525;stroke-miterlimit:41.994751"/><path d="M69.70395 70.1802L69.846825 88.98255" style="fill:none;stroke:rgba(101,0,153,.24705882);stroke-width:.09525;stroke-miterlimit:41.994751"/><path d="M69.70395 70.1802L72.33285 82.54365" style="fill:none;stroke:rgba(101,0,153,.24705882);stroke-width:.09525;stroke-miterlimit:41.994751"/><path d="M69.846825 88.98255L85.010625 89.392125" style="fill:none;stroke:rgba(101,0,153,.24705882);stroke-width:.09525;stroke-miterlimit:41.994751"/><path d="M85.010625 89.392125L100.56495 88.973025" style="fill:none;stroke:rgba(101,0,153,.24705882);stroke-width:.09525;stroke-miterlimit:41.994751"/><path d="M85.010625 89.392125L94.573725 83.07705" style="fill:none;stroke:rgba(101,0,153,.24705882);stroke-width:.09525;stroke-miterlimit:41.994751"/><path d="M100.56495 88.973025L100.8507 70.075425" style="fill:none;stroke:rgba(101,0,153,.24705882);stroke-width:.09525;stroke-miterlimit:41.994751"/><path d="M100.8507 70.075425L102.489 47.329725" style="fill:none;stroke:rgba(101,0,153,.24705882);stroke-width:.09525;stroke-miterlimit:41.994751"/><path d="M100.8507 70.075425L98.54565 56.778525" style="fill:none;stroke:rgba(101,0,153,.24705882);stroke-width:.09525;stroke-miterlimit:41.994751"/><path d="M102.489 47.329725L80.152875 47.2821" style="fill:none;stroke:rgba(101,0,153,.24705882);stroke-width:.09525;stroke-miterlimit:41.994751"/><path d="M80.152875 47.2821L68.475225 47.8536" style="fill:none;stroke:rgba(101,0,153,.24705882);stroke-width:.09525;stroke-miterlimit:41.994751"/><path d="M98.54565 82.31505L100.8507 70.075425" style="fill:none;stroke:rgba(101,0,153,.24705882);stroke-width:.09525;stroke-miterlimit:41.994751"/><path d="M98.54565 56.778525L94.668975 55.72125" style="fill:none;stroke:rgba(101,0,153,.24705882);stroke-width:.09525;stroke-miterlimit:41.994751"/><path d="M94.573725 83.07705L98.54565 82.31505" style="fill:none;stroke:rgba(101,0,153,.24705882);stroke-width:.09525;stroke-miterlimit:41.994751"/><path d="M74.9427 82.743675L85.010625 89.392125" style="fill:none;stroke:rgba(101,0,153,.24705882);stroke-width:.09525;stroke-miterlimit:41.994751"/><path d="M85.182075 69.789675L69.70395 70.1802" style="fill:none;stroke:rgba(101,0,153,.24705882);stroke-width:.09525;stroke-miterlimit:41.994751"/><path d="M85.182075 69.789675L85.010625 89.392125" style="fill:none;stroke:rgba(101,0,153,.24705882);stroke-width:.09525;stroke-miterlimit:41.994751"/><path d="M85.182075 69.789675L100.8507 70.075425" style="fill:none;stroke:rgba(101,0,153,.24705882);stroke-width:.09525;stroke-miterlimit:41.994751"/><path d="M85.182075 69.789675L80.800575 55.406925" style="fill:none;stroke:rgba(101,0,153,.24705882);stroke-width:.09525;stroke-miterlimit:41.994751"/><path d="M72.33285 82.54365L74.9427 82.743675" style="fill:none;stroke:rgba(101,0,153,.24705882);stroke-width:.09525;stroke-miterlimit:41.994751"/><path d="M94.668975 55.72125L80.800575 55.406925" style="fill:none;stroke:rgba(101,0,153,.24705882);stroke-width:.09525;stroke-miterlimit:41.994751"/><path d="M83.11515 51.9684L80.152875 47.2821" style="fill:none;stroke:rgba(101,0,153,.24705882);stroke-width:.09525;stroke-miterlimit:41.994751"/><path d="M80.800575 55.406925L83.11515 51.9684" style="fill:none;stroke:rgba(101,0,153,.24705882);stroke-width:.09525;stroke-miterlimit:41.994751"/><path d="M78.609825 52.911375L80.800575 55.406925" style="fill:none;stroke:rgba(101,0,153,.24705882);stroke-width:.09525;stroke-miterlimit:41.994751"/><path d="M78.609825 52.911375L72.63765 56.721375" style="fill:none;stroke:rgba(101,0,153,.24705882);stroke-width:.09525;stroke-miterlimit:41.994751"/><path d="M78.609825 52.911375L80.152875 47.2821" style="fill:none;stroke:rgba(101,0,153,.24705882);stroke-width:.09525;stroke-miterlimit:41.994751"/><path d="M68.475225 47.8536L69.70395 70.1802" style="fill:none;stroke:rgba(101,0,153,.24705882);stroke-width:.09525;stroke-miterlimit:41.994751"/><path d="M72.63765 56.721375L69.70395 70.1802" style="fill:none;stroke:rgba(101,0,153,.24705882);stroke-width:.09525;stroke-miterlimit:41.994751"/><path d="M107.14673 97.7265H108.64215V41.148H107.14673z" style="fill:rgba(93,0,161,.24705882);stroke:rgba(93,0,161,.24705882);stroke-width:.09525;stroke-miterlimit:41.994751"/><path d="M108.204 76.8096A.47625 .47625 0 00107.2515 76.8096A.47625 .47625 0 00108.204 76.8096z" fill="rgba(93,0,161,.24705882)"/><path d="M60.44565 97.7265H62.322075V41.148H60.44565z" style="fill:rgba(89,0,165,.24705882);stroke:rgba(89,0,165,.24705882);stroke-width:.09525;stroke-miterlimit:41.994751"/><path d="M61.312425 78.819375A.47625 .47625 0 0060.359925 78.819375A.47625 .47625 0 0061.312425 78.819375z" fill="rgba(89,0,165,.24705882)"/><path d="M60.836175 78.819375L64.7319 78.609825" style="fill:none;stroke:rgba(85,0,170,.24705882);stroke-width:.09525;stroke-miterlimit:41.994751"/><path d="M103.68915 76.8858L107.72775 76.8096" style="fill:none;stroke:rgba(85,0,170,.24705882);stroke-width:.09525;stroke-miterlimit:41.994751"/><path d="M63.37935 97.7265H65.808225V41.148H63.37935z" style="fill:rgba(80,0,174,.24705882);stroke:rgba(80,0,174,.24705882);stroke-width:.09525;stroke-miterlimit:41.994751"/><path d="M65.20815 78.609825A.47625 .47625 0 0064.25565 78.609825A.47625 .47625 0 0065.20815 78.609825z" fill="rgba(80,0,174,.24705882)"/><path d="M102.9462 97.7265H104.1273V41.148H102.9462z" style="fill:rgba(76,0,178,.24705882);stroke:rgba(76,0,178,.24705882);stroke-width:.09525;stroke-miterlimit:41.994751"/><path d="M104.1654 76.8858A.47625 .47625 0 00103.2129 76.8858A.47625 .47625 0 00104.1654 76.8858z" fill="rgba(76,0,178,.24705882)"/><path d="M64.7319 78.609825L71.5137 78.50505" style="fill:none;stroke:rgba(68,0,186,.24705882);stroke-width:.09525;stroke-miterlimit:41.994751"/><path d="M99.19335 77.0763L103.68915 76.8858" style="fill:none;stroke:rgba(64,0,186,.24705882);stroke-width:.09525;stroke-miterlimit:41.994751"/><path d="M98.059875 97.7265H99.621975V41.148H98.059875z" style="fill:rgba(56,0,198,.24705882);stroke:rgba(56,0,198,.24705882);stroke-width:.09525;stroke-miterlimit:41.994751"/><path d="M99.6696 77.0763A.47625 .47625 0 0098.7171 77.0763A.47625 .47625 0 0099.6696 77.0763z" fill="rgba(56,0,198,.24705882)"/><path d="M68.456175 97.7265H76.400025V41.148H68.456175z" style="fill:rgba(52,0,202,.24705882);stroke:rgba(52,0,202,.24705882);stroke-width:.09525;stroke-miterlimit:41.994751"/><path d="M71.98995 78.50505A.47625 .47625 0 0071.03745 78.50505A.47625 .47625 0 0071.98995 78.50505z" fill="rgba(52,0,202,.24705882)"/><path d="M94.726125 77.40015L99.19335 77.0763" style="fill:none;stroke:rgba(48,0,206,.24705882);stroke-width:.09525;stroke-miterlimit:41.994751"/><path d="M92.497275 97.7265H97.0407V41.148H92.497275z" style="fill:rgba(40,0,214,.24705882);stroke:rgba(40,0,214,.24705882);stroke-width:.09525;stroke-miterlimit:41.994751"/><path d="M95.202375 77.40015A.47625 .47625 0 0094.249875 77.40015A.47625 .47625 0 0095.202375 77.40015z" fill="rgba(40,0,214,.24705882)"/><path d="M71.5137 78.50505L84.8868 77.695425" style="fill:none;stroke:rgba(24,0,226,.24705882);stroke-width:.09525;stroke-miterlimit:41.994751"/><path d="M84.8868 77.695425L94.726125 77.40015" style="fill:none;stroke:rgba(20,0,234,.24705882);stroke-width:.09525;stroke-miterlimit:41.994751"/><path d="M81.1149 97.7265H87.944325V41.148H81.1149z" style="fill:rgba(0,0,255,.24705882);stroke:rgba(0,0,255,.24705882);stroke-width:.09525;stroke-miterlimit:41.994751"/><path d="M85.36305 77.695425A.47625 .47625 0 0084.41055 77.695425A.47625 .47625 0 0085.36305 77.695425z" fill="rgba(0,0,255,.24705882)"/></svg>