<svg version="1.1" width="132.969mm" height="72.67575mm" viewBox="0 0 132.969 72.67575" xmlns="http://www.w3.org/2000/svg" xmlns:xlink="http://www.w3.org/1999/xlink"><path d="M73.24725 79.248H75.15225" style="fill:none;stroke:#f00;stroke-width:.09525;stroke-miterlimit:41.994751"/><path d="M73.24725 79.248V77.343" style="fill:none;stroke:#0f0;stroke-width:.09525;stroke-miterlimit:41.994751"/><path d="M79.34325 28.870273H90.4494V13.4112H79.34325z" style="fill:rgba(255,0,0,.24705882);stroke:rgba(255,0,0,.24705882);stroke-width:.09525;stroke-miterlimit:41.994751"/><path d="M85.372575 21.135975A.47625 .47625 0 0084.420075 21.135975A.47625 .47625 0 0085.372575 21.135975z" fill="rgba(255,0,0,.24705882)"/><path d="M51.07305 37.176075H61.47435V34.032825H51.07305z" style="fill:rgba(255,0,0,.24705882);stroke:rgba(255,0,0,.24705882);stroke-width:.09525;stroke-miterlimit:41.994751"/><path d="M55.749825 35.537775A.47625 .47625 0 0054.797325 35.537775A.47625 .47625 0 0055.749825 35.537775z" fill="rgba(255,0,0,.24705882)"/><path d="M22.536148 35.499675H24.717375V28.3464H22.536148z" style="fill:rgba(255,0,0,.24705882);stroke:rgba(255,0,0,.24705882);stroke-width:.09525;stroke-miterlimit:41.994751"/><path d="M24.09825 31.918275A.47625 .47625 0 0023.14575 31.918275A.47625 .47625 0 0024.09825 31.918275z" fill="rgba(255,0,0,.24705882)"/><path d="M22.545676 19.56435H24.717375V12.4968H22.545676z" style="fill:rgba(255,0,0,.24705882);stroke:rgba(255,0,0,.24705882);stroke-width:.09525;stroke-miterlimit:41.994751"/><path d="M24.13635 16.030575A.47625 .47625 0 0023.18385 16.030575A.47625 .47625 0 0024.13635 16.030575z" fill="rgba(255,0,0,.24705882)"/><path d="M90.4494 13.39215H97.536V3.1337273H90.4494z" style="fill:rgba(255,0,0,.24705882);stroke:rgba(255,0,0,.24705882);stroke-width:.09525;stroke-miterlimit:41.994751"/><path d="M91.87815 8.24865A.47625 .47625 0 0090.92565 8.24865A.47625 .47625 0 0091.87815 8.24865z" fill="rgba(255,0,0,.24705882)"/><path d="M79.676625 6.34365H90.4494V3.1337273H79.676625z" style="fill:rgba(255,0,0,.24705882);stroke:rgba(255,0,0,.24705882);stroke-width:.09525;stroke-miterlimit:41.994751"/><path d="M85.544025 4.74345A.47625 .47625 0 0084.591525 4.74345A.47625 .47625 0 0085.544025 4.74345z" fill="rgba(255,0,0,.24705882)"/><path d="M72.5805 23.536275H74.50455V12.05865H72.5805z" style="fill:rgba(255,0,0,.24705882);stroke:rgba(255,0,0,.24705882);stroke-width:.09525;stroke-miterlimit:41.994751"/><path d="M74.018775 17.7927A.47625 .47625 0 0073.066275 17.7927A.47625 .47625 0 0074.018775 17.7927z" fill="rgba(255,0,0,.24705882)"/><path d="M74.50455 28.870273H79.34325V23.9268H74.50455z" style="fill:rgba(255,0,0,.24705882);stroke:rgba(255,0,0,.24705882);stroke-width:.09525;stroke-miterlimit:41.994751"/><path d="M77.40015 26.393775A.47625 .47625 0 0076.44765 26.393775A.47625 .47625 0 0077.40015 26.393775z" fill="rgba(255,0,0,.24705882)"/><path d="M60.71235 13.7922H70.685025V11.344275H60.71235z" style="fill:rgba(255,0,0,.24705882);stroke:rgba(255,0,0,.24705882);stroke-width:.09525;stroke-miterlimit:41.994751"/><path d="M66.1797 12.563475A.47625 .47625 0 0065.2272 12.563475A.47625 .47625 0 0066.1797 12.563475z" fill="rgba(255,0,0,.24705882)"/><path d="M70.685025 34.032825H72.5805V23.67915H70.685025z" style="fill:rgba(255,0,0,.24705882);stroke:rgba(255,0,0,.24705882);stroke-width:.09525;stroke-miterlimit:41.994751"/><path d="M72.170925 28.851225A.47625 .47625 0 0071.218425 28.851225A.47625 .47625 0 0072.170925 28.851225z" fill="rgba(255,0,0,.24705882)"/><path d="M51.07305 34.032825H70.685025V23.8887H51.07305z" style="fill:rgba(255,0,0,.24705882);stroke:rgba(255,0,0,.24705882);stroke-width:.09525;stroke-miterlimit:41.994751"/><path d="M61.36005 28.956A.47625 .47625 0 0060.40755 28.956A.47625 .47625 0 0061.36005 28.956z" fill="rgba(255,0,0,.24705882)"/><path d="M37.766625 37.176075H45.62475V34.032825H37.766625z" style="fill:rgba(255,0,0,.24705882);stroke:rgba(255,0,0,.24705882);stroke-width:.09525;stroke-miterlimit:41.994751"/><path d="M42.2148 35.6235A.47625 .47625 0 0041.2623 35.6235A.47625 .47625 0 0042.2148 35.6235z" fill="rgba(255,0,0,.24705882)"/><path d="M54.663975 13.7922H60.71235V11.344275H54.663975z" style="fill:rgba(255,0,0,.24705882);stroke:rgba(255,0,0,.24705882);stroke-width:.09525;stroke-miterlimit:41.994751"/><path d="M58.169175 12.563475A.47625 .47625 0 0057.216675 12.563475A.47625 .47625 0 0058.169175 12.563475z" fill="rgba(255,0,0,.24705882)"/><path d="M48.2727 23.8887H70.685025V13.7922H48.2727z" style="fill:rgba(255,0,0,.24705882);stroke:rgba(255,0,0,.24705882);stroke-width:.09525;stroke-miterlimit:41.994751"/><path d="M59.959875 18.84045A.47625 .47625 0 0059.007375 18.84045A.47625 .47625 0 0059.959875 18.84045z" fill="rgba(255,0,0,.24705882)"/><path d="M46.986825 13.7922H54.663975V11.515725H46.986825z" style="fill:rgba(255,0,0,.24705882);stroke:rgba(255,0,0,.24705882);stroke-width:.09525;stroke-miterlimit:41.994751"/><path d="M51.30165 12.6492A.47625 .47625 0 0050.34915 12.6492A.47625 .47625 0 0051.30165 12.6492z" fill="rgba(255,0,0,.24705882)"/><path d="M45.634275 34.032825H51.07305V23.8887H45.634275z" style="fill:rgba(255,0,0,.24705882);stroke:rgba(255,0,0,.24705882);stroke-width:.09525;stroke-miterlimit:41.994751"/><path d="M48.834675 28.956A.47625 .47625 0 0047.882175 28.956A.47625 .47625 0 0048.834675 28.956z" fill="rgba(255,0,0,.24705882)"/><path d="M.26669884 14.449425H8.791575V11.1633H.26669884z" style="fill:rgba(255,0,0,.24705882);stroke:rgba(255,0,0,.24705882);stroke-width:.09525;stroke-miterlimit:41.994751"/><path d="M5.000625 12.8016A.47625 .47625 0 004.048125 12.8016A.47625 .47625 0 005.000625 12.8016z" fill="rgba(255,0,0,.24705882)"/><path d="M66.69405 11.344275H72.170925V8.715375H66.69405z" style="fill:rgba(255,0,0,.24705882);stroke:rgba(255,0,0,.24705882);stroke-width:.09525;stroke-miterlimit:41.994751"/><path d="M69.961125 9.6774A.47625 .47625 0 0069.008625 9.6774A.47625 .47625 0 0069.961125 9.6774z" fill="rgba(255,0,0,.24705882)"/><path d="M8.791575 12.030075H22.536148V.37147733H8.791575z" style="fill:rgba(255,0,0,.24705882);stroke:rgba(255,0,0,.24705882);stroke-width:.09525;stroke-miterlimit:41.994751"/><path d="M14.8209 6.200775A.47625 .47625 0 0013.8684 6.200775A.47625 .47625 0 0014.8209 6.200775z" fill="rgba(255,0,0,.24705882)"/><path d="M8.791575 23.574375H18.1737V12.030075H8.791575z" style="fill:rgba(255,0,0,.24705882);stroke:rgba(255,0,0,.24705882);stroke-width:.09525;stroke-miterlimit:41.994751"/><path d="M13.96365 17.802225A.47625 .47625 0 0013.01115 17.802225A.47625 .47625 0 0013.96365 17.802225z" fill="rgba(255,0,0,.24705882)"/><path d="M18.183225 40.262176H22.536148V36.014025H18.183225z" style="fill:rgba(255,0,0,.24705882);stroke:rgba(255,0,0,.24705882);stroke-width:.09525;stroke-miterlimit:41.994751"/><path d="M20.831175 38.1381A.47625 .47625 0 0019.878675 38.1381A.47625 .47625 0 0020.831175 38.1381z" fill="rgba(255,0,0,.24705882)"/><path d="M18.1737 23.574375H22.536148V20.02155H18.1737z" style="fill:rgba(255,0,0,.24705882);stroke:rgba(255,0,0,.24705882);stroke-width:.09525;stroke-miterlimit:41.994751"/><path d="M20.831175 21.7932A.47625 .47625 0 0019.878675 21.7932A.47625 .47625 0 0020.831175 21.7932z" fill="rgba(255,0,0,.24705882)"/><path d="M18.183225 27.955875H22.536148V23.574375H18.183225z" style="fill:rgba(255,0,0,.24705882);stroke:rgba(255,0,0,.24705882);stroke-width:.09525;stroke-miterlimit:41.994751"/><path d="M20.831175 25.765125A.47625 .47625 0 0019.878675 25.765125A.47625 .47625 0 0020.831175 25.765125z" fill="rgba(255,0,0,.24705882)"/><path d="M18.183225 36.014025H22.536148V27.955875H18.183225z" style="fill:rgba(255,0,0,.24705882);stroke:rgba(255,0,0,.24705882);stroke-width:.09525;stroke-miterlimit:41.994751"/><path d="M20.831175 31.98495A.47625 .47625 0 0019.878675 31.98495A.47625 .47625 0 0020.831175 31.98495z" fill="rgba(255,0,0,.24705882)"/><path d="M.26669884 32.09925H8.791575V14.449425H.26669884z" style="fill:rgba(255,0,0,.24705882);stroke:rgba(255,0,0,.24705882);stroke-width:.09525;stroke-miterlimit:41.994751"/><path d="M5.000625 23.269575A.47625 .47625 0 004.048125 23.269575A.47625 .47625 0 005.000625 23.269575z" fill="rgba(255,0,0,.24705882)"/><path d="M8.791575 40.262176H18.183225V23.574375H8.791575z" style="fill:rgba(255,0,0,.24705882);stroke:rgba(255,0,0,.24705882);stroke-width:.09525;stroke-miterlimit:41.994751"/><path d="M13.96365 31.918275A.47625 .47625 0 0013.01115 31.918275A.47625 .47625 0 0013.96365 31.918275z" fill="rgba(255,0,0,.24705882)"/><path d="M27.060525 23.8887H48.2727V13.7922H27.060525z" style="fill:rgba(255,0,0,.24705882);stroke:rgba(255,0,0,.24705882);stroke-width:.09525;stroke-miterlimit:41.994751"/><path d="M38.147625 18.84045A.47625 .47625 0 0037.195125 18.84045A.47625 .47625 0 0038.147625 18.84045z" fill="rgba(255,0,0,.24705882)"/><path d="M5.92455 11.1633H8.791575V.37147733H5.92455z" style="fill:rgba(255,0,0,.24705882);stroke:rgba(255,0,0,.24705882);stroke-width:.09525;stroke-miterlimit:41.994751"/><path d="M7.839075 5.77215A.47625 .47625 0 006.886575 5.77215A.47625 .47625 0 007.839075 5.77215z" fill="rgba(255,0,0,.24705882)"/><path d="M18.1737 20.02155H22.536148V12.030075H18.1737z" style="fill:rgba(255,0,0,.24705882);stroke:rgba(255,0,0,.24705882);stroke-width:.09525;stroke-miterlimit:41.994751"/><path d="M20.831175 16.02105A.47625 .47625 0 0019.878675 16.02105A.47625 .47625 0 0020.831175 16.02105z" fill="rgba(255,0,0,.24705882)"/><path d="M27.079575 37.176075H37.766625V34.032825H27.079575z" style="fill:rgba(255,0,0,.24705882);stroke:rgba(255,0,0,.24705882);stroke-width:.09525;stroke-miterlimit:41.994751"/><path d="M32.89935 35.518725A.47625 .47625 0 0031.94685 35.518725A.47625 .47625 0 0032.89935 35.518725z" fill="rgba(255,0,0,.24705882)"/><path d="M43.75785 13.7922H46.986825V11.52525H43.75785z" style="fill:rgba(255,0,0,.24705882);stroke:rgba(255,0,0,.24705882);stroke-width:.09525;stroke-miterlimit:41.994751"/><path d="M45.85335 12.658725A.47625 .47625 0 0044.90085 12.658725A.47625 .47625 0 0045.85335 12.658725z" fill="rgba(255,0,0,.24705882)"/><path d="M24.717375 27.879675H27.060525V20.02155H24.717375z" style="fill:rgba(255,0,0,.24705882);stroke:rgba(255,0,0,.24705882);stroke-width:.09525;stroke-miterlimit:41.994751"/><path d="M26.3652 23.94585A.47625 .47625 0 0025.4127 23.94585A.47625 .47625 0 0026.3652 23.94585z" fill="rgba(255,0,0,.24705882)"/><path d="M24.717375 20.02155H27.060525V11.953875H24.717375z" style="fill:rgba(255,0,0,.24705882);stroke:rgba(255,0,0,.24705882);stroke-width:.09525;stroke-miterlimit:41.994751"/><path d="M26.3652 15.98295A.47625 .47625 0 0025.4127 15.98295A.47625 .47625 0 0026.3652 15.98295z" fill="rgba(255,0,0,.24705882)"/><path d="M27.060525 13.7922H43.75785V6.3722273H27.060525z" style="fill:rgba(255,0,0,.24705882);stroke:rgba(255,0,0,.24705882);stroke-width:.09525;stroke-miterlimit:41.994751"/><path d="M35.8902 10.086975A.47625 .47625 0 0034.9377 10.086975A.47625 .47625 0 0035.8902 10.086975z" fill="rgba(255,0,0,.24705882)"/><path d="M43.75785 11.52525H46.986825V6.3722273H43.75785z" style="fill:rgba(255,0,0,.24705882);stroke:rgba(255,0,0,.24705882);stroke-width:.09525;stroke-miterlimit:41.994751"/><path d="M45.85335 8.9535A.47625 .47625 0 0044.90085 8.9535A.47625 .47625 0 0045.85335 8.9535z" fill="rgba(255,0,0,.24705882)"/><path d="M24.717375 11.953875H27.060525V6.3722273H24.717375z" style="fill:rgba(255,0,0,.24705882);stroke:rgba(255,0,0,.24705882);stroke-width:.09525;stroke-miterlimit:41.994751"/><path d="M26.3652 9.16305A.47625 .47625 0 0025.4127 9.16305A.47625 .47625 0 0026.3652 9.16305z" fill="rgba(255,0,0,.24705882)"/><path d="M70.685025 23.67915H72.5805V11.3538H70.685025z" style="fill:rgba(255,0,0,.24705882);stroke:rgba(255,0,0,.24705882);stroke-width:.09525;stroke-miterlimit:41.994751"/><path d="M72.513825 17.516475A.47625 .47625 0 0071.561325 17.516475A.47625 .47625 0 0072.513825 17.516475z" fill="rgba(255,0,0,.24705882)"/><path d="M79.34325 13.4112H90.4494V6.34365H79.34325z" style="fill:rgba(255,0,0,.24705882);stroke:rgba(255,0,0,.24705882);stroke-width:.09525;stroke-miterlimit:41.994751"/><path d="M85.372575 9.877425A.47625 .47625 0 0084.420075 9.877425A.47625 .47625 0 0085.372575 9.877425z" fill="rgba(255,0,0,.24705882)"/><path d="M27.060525 34.032825H45.634275V23.8887H27.060525z" style="fill:rgba(255,0,0,.24705882);stroke:rgba(255,0,0,.24705882);stroke-width:.09525;stroke-miterlimit:41.994751"/><path d="M36.82365 28.956A.47625 .47625 0 0035.87115 28.956A.47625 .47625 0 0036.82365 28.956z" fill="rgba(255,0,0,.24705882)"/><path d="M74.50455 23.9268H79.34325V11.79195H74.50455z" style="fill:rgba(255,0,0,.24705882);stroke:rgba(255,0,0,.24705882);stroke-width:.09525;stroke-miterlimit:41.994751"/><path d="M77.40015 17.859375A.47625 .47625 0 0076.44765 17.859375A.47625 .47625 0 0077.40015 17.859375z" fill="rgba(255,0,0,.24705882)"/><path d="M74.50455 11.79195H79.34325V6.34365H74.50455z" style="fill:rgba(255,0,0,.24705882);stroke:rgba(255,0,0,.24705882);stroke-width:.09525;stroke-miterlimit:41.994751"/><path d="M77.40015 9.0678A.47625 .47625 0 0076.44765 9.0678A.47625 .47625 0 0077.40015 9.0678z" fill="rgba(255,0,0,.24705882)"/><path d="M25.88895 23.94585V15.98295" style="fill:none;stroke:rgba(255,0,0,.24705882);stroke-width:.09525;stroke-miterlimit:41.994751"/><path d="M4.524375 23.269575V12.8016" style="fill:none;stroke:rgba(255,0,0,.24705882);stroke-width:.09525;stroke-miterlimit:41.994751"/><path d="M72.037575 17.516475L69.484875 9.6774" style="fill:none;stroke:rgba(255,0,0,.24705882);stroke-width:.09525;stroke-miterlimit:41.994751"/><path d="M36.3474 28.956L32.4231 35.518725" style="fill:none;stroke:rgba(255,0,0,.24705882);stroke-width:.09525;stroke-miterlimit:41.994751"/><path d="M36.3474 28.956L41.73855 35.6235" style="fill:none;stroke:rgba(255,0,0,.24705882);stroke-width:.09525;stroke-miterlimit:41.994751"/><path d="M36.3474 28.956H48.358425" style="fill:none;stroke:rgba(255,0,0,.24705882);stroke-width:.09525;stroke-miterlimit:41.994751"/><path d="M55.273575 35.537775L48.358425 28.956" style="fill:none;stroke:rgba(255,0,0,.24705882);stroke-width:.09525;stroke-miterlimit:41.994751"/><path d="M76.9239 17.859375L84.896325 21.135975" style="fill:none;stroke:rgba(255,0,0,.24705882);stroke-width:.09525;stroke-miterlimit:41.994751"/><path d="M76.9239 17.859375V9.0678" style="fill:none;stroke:rgba(255,0,0,.24705882);stroke-width:.09525;stroke-miterlimit:41.994751"/><path d="M76.9239 17.859375L73.542525 17.7927" style="fill:none;stroke:rgba(255,0,0,.24705882);stroke-width:.09525;stroke-miterlimit:41.994751"/><path d="M37.671375 18.84045L35.41395 10.086975" style="fill:none;stroke:rgba(255,0,0,.24705882);stroke-width:.09525;stroke-miterlimit:41.994751"/><path d="M36.3474 28.956L25.88895 23.94585" style="fill:none;stroke:rgba(255,0,0,.24705882);stroke-width:.09525;stroke-miterlimit:41.994751"/><path d="M59.483625 18.84045L73.542525 17.7927" style="fill:none;stroke:rgba(255,0,0,.24705882);stroke-width:.09525;stroke-miterlimit:41.994751"/><path d="M59.483625 18.84045L65.70345 12.563475" style="fill:none;stroke:rgba(255,0,0,.24705882);stroke-width:.09525;stroke-miterlimit:41.994751"/><path d="M59.483625 18.84045L71.694675 28.851225" style="fill:none;stroke:rgba(255,0,0,.24705882);stroke-width:.09525;stroke-miterlimit:41.994751"/><path d="M72.037575 17.516475L59.483625 18.84045" style="fill:none;stroke:rgba(255,0,0,.24705882);stroke-width:.09525;stroke-miterlimit:41.994751"/><path d="M84.896325 9.877425L76.9239 9.0678" style="fill:none;stroke:rgba(255,0,0,.24705882);stroke-width:.09525;stroke-miterlimit:41.994751"/><path d="M84.896325 9.877425L76.9239 17.859375" style="fill:none;stroke:rgba(255,0,0,.24705882);stroke-width:.09525;stroke-miterlimit:41.994751"/><path d="M84.896325 9.877425L91.4019 8.24865" style="fill:none;stroke:rgba(255,0,0,.24705882);stroke-width:.09525;stroke-miterlimit:41.994751"/><path d="M84.896325 9.877425L85.067775 4.74345" style="fill:none;stroke:rgba(255,0,0,.24705882);stroke-width:.09525;stroke-miterlimit:41.994751"/><path d="M25.88895 9.16305L35.41395 10.086975" style="fill:none;stroke:rgba(255,0,0,.24705882);stroke-width:.09525;stroke-miterlimit:41.994751"/><path d="M45.3771 8.9535L35.41395 10.086975" style="fill:none;stroke:rgba(255,0,0,.24705882);stroke-width:.09525;stroke-miterlimit:41.994751"/><path d="M35.41395 10.086975L45.3771 12.658725" style="fill:none;stroke:rgba(255,0,0,.24705882);stroke-width:.09525;stroke-miterlimit:41.994751"/><path d="M45.3771 12.658725L37.671375 18.84045" style="fill:none;stroke:rgba(255,0,0,.24705882);stroke-width:.09525;stroke-miterlimit:41.994751"/><path d="M25.88895 15.98295V9.16305" style="fill:none;stroke:rgba(255,0,0,.24705882);stroke-width:.09525;stroke-miterlimit:41.994751"/><path d="M25.88895 15.98295L35.41395 10.086975" style="fill:none;stroke:rgba(255,0,0,.24705882);stroke-width:.09525;stroke-miterlimit:41.994751"/><path d="M25.88895 15.98295L23.6601 16.030575" style="fill:none;stroke:rgba(255,0,0,.24705882);stroke-width:.09525;stroke-miterlimit:41.994751"/><path d="M45.3771 12.658725L50.8254 12.6492" style="fill:none;stroke:rgba(255,0,0,.24705882);stroke-width:.09525;stroke-miterlimit:41.994751"/><path d="M59.483625 18.84045L57.692925 12.563475" style="fill:none;stroke:rgba(255,0,0,.24705882);stroke-width:.09525;stroke-miterlimit:41.994751"/><path d="M45.3771 12.658725V8.9535" style="fill:none;stroke:rgba(255,0,0,.24705882);stroke-width:.09525;stroke-miterlimit:41.994751"/><path d="M85.067775 4.74345L91.4019 8.24865" style="fill:none;stroke:rgba(255,0,0,.24705882);stroke-width:.09525;stroke-miterlimit:41.994751"/><path d="M37.671375 18.84045L25.88895 15.98295" style="fill:none;stroke:rgba(255,0,0,.24705882);stroke-width:.09525;stroke-miterlimit:41.994751"/><path d="M59.483625 18.84045L50.8254 12.6492" style="fill:none;stroke:rgba(255,0,0,.24705882);stroke-width:.09525;stroke-miterlimit:41.994751"/><path d="M76.9239 26.393775L84.896325 21.135975" style="fill:none;stroke:rgba(255,0,0,.24705882);stroke-width:.09525;stroke-miterlimit:41.994751"/><path d="M76.9239 26.393775V17.859375" style="fill:none;stroke:rgba(255,0,0,.24705882);stroke-width:.09525;stroke-miterlimit:41.994751"/><path d="M59.483625 18.84045L69.484875 9.6774" style="fill:none;stroke:rgba(255,0,0,.24705882);stroke-width:.09525;stroke-miterlimit:41.994751"/><path d="M59.483625 18.84045H37.671375" style="fill:none;stroke:rgba(255,0,0,.24705882);stroke-width:.09525;stroke-miterlimit:41.994751"/><path d="M32.4231 35.518725L41.73855 35.6235" style="fill:none;stroke:rgba(255,0,0,.24705882);stroke-width:.09525;stroke-miterlimit:41.994751"/><path d="M71.694675 28.851225L72.037575 17.516475" style="fill:none;stroke:rgba(255,0,0,.24705882);stroke-width:.09525;stroke-miterlimit:41.994751"/><path d="M20.354925 16.02105L13.4874 17.802225" style="fill:none;stroke:rgba(255,0,0,.24705882);stroke-width:.09525;stroke-miterlimit:41.994751"/><path d="M20.354925 16.02105L14.34465 6.200775" style="fill:none;stroke:rgba(255,0,0,.24705882);stroke-width:.09525;stroke-miterlimit:41.994751"/><path d="M20.354925 16.02105L23.6601 16.030575" style="fill:none;stroke:rgba(255,0,0,.24705882);stroke-width:.09525;stroke-miterlimit:41.994751"/><path d="M60.8838 28.956L59.483625 18.84045" style="fill:none;stroke:rgba(255,0,0,.24705882);stroke-width:.09525;stroke-miterlimit:41.994751"/><path d="M20.354925 31.98495V25.765125" style="fill:none;stroke:rgba(255,0,0,.24705882);stroke-width:.09525;stroke-miterlimit:41.994751"/><path d="M20.354925 31.98495L23.622 31.918275" style="fill:none;stroke:rgba(255,0,0,.24705882);stroke-width:.09525;stroke-miterlimit:41.994751"/><path d="M36.3474 28.956L37.671375 18.84045" style="fill:none;stroke:rgba(255,0,0,.24705882);stroke-width:.09525;stroke-miterlimit:41.994751"/><path d="M20.354925 31.98495L13.4874 31.918275" style="fill:none;stroke:rgba(255,0,0,.24705882);stroke-width:.09525;stroke-miterlimit:41.994751"/><path d="M41.73855 35.6235L48.358425 28.956" style="fill:none;stroke:rgba(255,0,0,.24705882);stroke-width:.09525;stroke-miterlimit:41.994751"/><path d="M13.4874 31.918275V17.802225" style="fill:none;stroke:rgba(255,0,0,.24705882);stroke-width:.09525;stroke-miterlimit:41.994751"/><path d="M13.4874 31.918275L20.354925 38.1381" style="fill:none;stroke:rgba(255,0,0,.24705882);stroke-width:.09525;stroke-miterlimit:41.994751"/><path d="M60.8838 28.956L55.273575 35.537775" style="fill:none;stroke:rgba(255,0,0,.24705882);stroke-width:.09525;stroke-miterlimit:41.994751"/><path d="M4.524375 23.269575L13.4874 31.918275" style="fill:none;stroke:rgba(255,0,0,.24705882);stroke-width:.09525;stroke-miterlimit:41.994751"/><path d="M84.896325 21.135975V9.877425" style="fill:none;stroke:rgba(255,0,0,.24705882);stroke-width:.09525;stroke-miterlimit:41.994751"/><path d="M60.8838 28.956L71.694675 28.851225" style="fill:none;stroke:rgba(255,0,0,.24705882);stroke-width:.09525;stroke-miterlimit:41.994751"/><path d="M20.354925 25.765125V21.7932" style="fill:none;stroke:rgba(255,0,0,.24705882);stroke-width:.09525;stroke-miterlimit:41.994751"/><path d="M20.354925 25.765125L13.4874 17.802225" style="fill:none;stroke:rgba(255,0,0,.24705882);stroke-width:.09525;stroke-miterlimit:41.994751"/><path d="M20.354925 25.765125L13.4874 31.918275" style="fill:none;stroke:rgba(255,0,0,.24705882);stroke-width:.09525;stroke-miterlimit:41.994751"/><path d="M37.671375 18.84045L50.8254 12.6492" style="fill:none;stroke:rgba(255,0,0,.24705882);stroke-width:.09525;stroke-miterlimit:41.994751"/><path d="M20.354925 21.7932V16.02105" style="fill:none;stroke:rgba(255,0,0,.24705882);stroke-width:.09525;stroke-miterlimit:41.994751"/><path d="M20.354925 21.7932L13.4874 31.918275" style="fill:none;stroke:rgba(255,0,0,.24705882);stroke-width:.09525;stroke-miterlimit:41.994751"/><path d="M37.671375 18.84045L25.88895 23.94585" style="fill:none;stroke:rgba(255,0,0,.24705882);stroke-width:.09525;stroke-miterlimit:41.994751"/><path d="M20.354925 38.1381V31.98495" style="fill:none;stroke:rgba(255,0,0,.24705882);stroke-width:.09525;stroke-miterlimit:41.994751"/><path d="M48.358425 28.956L59.483625 18.84045" style="fill:none;stroke:rgba(255,0,0,.24705882);stroke-width:.09525;stroke-miterlimit:41.994751"/><path d="M13.4874 17.802225L20.354925 21.7932" style="fill:none;stroke:rgba(255,0,0,.24705882);stroke-width:.09525;stroke-miterlimit:41.994751"/><path d="M13.4874 17.802225L14.34465 6.200775" style="fill:none;stroke:rgba(255,0,0,.24705882);stroke-width:.09525;stroke-miterlimit:41.994751"/><path d="M13.4874 17.802225L4.524375 12.8016" style="fill:none;stroke:rgba(255,0,0,.24705882);stroke-width:.09525;stroke-miterlimit:41.994751"/><path d="M13.4874 17.802225L4.524375 23.269575" style="fill:none;stroke:rgba(255,0,0,.24705882);stroke-width:.09525;stroke-miterlimit:41.994751"/><path d="M48.358425 28.956H60.8838" style="fill:none;stroke:rgba(255,0,0,.24705882);stroke-width:.09525;stroke-miterlimit:41.994751"/><path d="M14.34465 6.200775L4.524375 12.8016" style="fill:none;stroke:rgba(255,0,0,.24705882);stroke-width:.09525;stroke-miterlimit:41.994751"/><path d="M14.34465 6.200775L7.362825 5.77215" style="fill:none;stroke:rgba(255,0,0,.24705882);stroke-width:.09525;stroke-miterlimit:41.994751"/><path d="M48.358425 28.956L37.671375 18.84045" style="fill:none;stroke:rgba(255,0,0,.24705882);stroke-width:.09525;stroke-miterlimit:41.994751"/><path d="M36.3474 28.956L25.88895 31.956375" style="fill:none;stroke:rgba(255,0,0,.24705882);stroke-width:.09525;stroke-miterlimit:41.994751"/><path d="M25.88895 31.956375V23.94585" style="fill:none;stroke:rgba(255,0,0,.24705882);stroke-width:.09525;stroke-miterlimit:41.994751"/><path d="M25.88895 31.956375L23.622 31.918275" style="fill:none;stroke:rgba(255,0,0,.24705882);stroke-width:.09525;stroke-miterlimit:41.994751"/><path d="M24.717375 36.02355H27.060525V27.879675H24.717375z" style="fill:rgba(255,0,0,.24705882);stroke:rgba(255,0,0,.24705882);stroke-width:.09525;stroke-miterlimit:41.994751"/><path d="M26.3652 31.956375A.47625 .47625 0 0025.4127 31.956375A.47625 .47625 0 0026.3652 31.956375z" fill="rgba(255,0,0,.24705882)"/><path d="M53.0733 43.5102L55.273575 35.537775" style="fill:none;stroke:rgba(255,0,0,.24705882);stroke-width:.09525;stroke-miterlimit:41.994751"/><path d="M63.827025 43.5102L55.273575 35.537775" style="fill:none;stroke:rgba(255,0,0,.24705882);stroke-width:.09525;stroke-miterlimit:41.994751"/><path d="M48.3489 43.5102L55.273575 35.537775" style="fill:none;stroke:rgba(255,0,0,.24705882);stroke-width:.09525;stroke-miterlimit:41.994751"/><path d="M25.88895 39.557325L32.4231 35.518725" style="fill:none;stroke:rgba(255,0,0,.24705882);stroke-width:.09525;stroke-miterlimit:41.994751"/><path d="M55.273575 35.537775L67.027425 35.60445" style="fill:none;stroke:rgba(255,0,0,.24705882);stroke-width:.09525;stroke-miterlimit:41.994751"/><path d="M48.3489 43.5102L41.73855 35.6235" style="fill:none;stroke:rgba(255,0,0,.24705882);stroke-width:.09525;stroke-miterlimit:41.994751"/><path d="M41.7195 43.5102L32.4231 35.518725" style="fill:none;stroke:rgba(255,0,0,.24705882);stroke-width:.09525;stroke-miterlimit:41.994751"/><path d="M60.8838 28.956L67.027425 35.60445" style="fill:none;stroke:rgba(255,0,0,.24705882);stroke-width:.09525;stroke-miterlimit:41.994751"/><path d="M41.73855 35.6235L41.7195 43.5102" style="fill:none;stroke:rgba(255,0,0,.24705882);stroke-width:.09525;stroke-miterlimit:41.994751"/><path d="M32.432625 42.071925L32.4231 35.518725" style="fill:none;stroke:rgba(255,0,0,.24705882);stroke-width:.09525;stroke-miterlimit:41.994751"/><path d="M32.432625 42.071925L41.73855 35.6235" style="fill:none;stroke:rgba(255,0,0,.24705882);stroke-width:.09525;stroke-miterlimit:41.994751"/><path d="M71.694675 28.851225L67.027425 35.60445" style="fill:none;stroke:rgba(255,0,0,.24705882);stroke-width:.09525;stroke-miterlimit:41.994751"/><path d="M25.88895 39.557325V31.956375" style="fill:none;stroke:rgba(255,0,0,.24705882);stroke-width:.09525;stroke-miterlimit:41.994751"/><path d="M45.62475 49.85385H51.07305V37.176075H45.62475z" style="fill:rgba(255,0,0,.24705882);stroke:rgba(255,0,0,.24705882);stroke-width:.09525;stroke-miterlimit:41.994751"/><path d="M48.82515 43.5102A.47625 .47625 0 0047.87265 43.5102A.47625 .47625 0 0048.82515 43.5102z" fill="rgba(255,0,0,.24705882)"/><path d="M51.07305 49.85385H55.07355V37.176075H51.07305z" style="fill:rgba(255,0,0,.24705882);stroke:rgba(255,0,0,.24705882);stroke-width:.09525;stroke-miterlimit:41.994751"/><path d="M53.54955 43.5102A.47625 .47625 0 0052.59705 43.5102A.47625 .47625 0 0053.54955 43.5102z" fill="rgba(255,0,0,.24705882)"/><path d="M61.47435 37.176075H72.5805V34.032825H61.47435z" style="fill:rgba(255,0,0,.24705882);stroke:rgba(255,0,0,.24705882);stroke-width:.09525;stroke-miterlimit:41.994751"/><path d="M67.503675 35.60445A.47625 .47625 0 0066.551175 35.60445A.47625 .47625 0 0067.503675 35.60445z" fill="rgba(255,0,0,.24705882)"/><path d="M55.07355 49.85385H72.5805V37.176075H55.07355z" style="fill:rgba(255,0,0,.24705882);stroke:rgba(255,0,0,.24705882);stroke-width:.09525;stroke-miterlimit:41.994751"/><path d="M64.303275 43.5102A.47625 .47625 0 0063.350775 43.5102A.47625 .47625 0 0064.303275 43.5102z" fill="rgba(255,0,0,.24705882)"/><path d="M27.060525 46.967775H37.804725V37.176075H27.060525z" style="fill:rgba(255,0,0,.24705882);stroke:rgba(255,0,0,.24705882);stroke-width:.09525;stroke-miterlimit:41.994751"/><path d="M32.908875 42.071925A.47625 .47625 0 0031.956375 42.071925A.47625 .47625 0 0032.908875 42.071925z" fill="rgba(255,0,0,.24705882)"/><path d="M37.804725 49.85385H45.62475V37.176075H37.804725z" style="fill:rgba(255,0,0,.24705882);stroke:rgba(255,0,0,.24705882);stroke-width:.09525;stroke-miterlimit:41.994751"/><path d="M42.19575 43.5102A.47625 .47625 0 0041.24325 43.5102A.47625 .47625 0 0042.19575 43.5102z" fill="rgba(255,0,0,.24705882)"/><path d="M24.717375 43.0911H27.079575V36.02355H24.717375z" style="fill:rgba(255,0,0,.24705882);stroke:rgba(255,0,0,.24705882);stroke-width:.09525;stroke-miterlimit:41.994751"/><path d="M26.3652 39.557325A.47625 .47625 0 0025.4127 39.557325A.47625 .47625 0 0026.3652 39.557325z" fill="rgba(255,0,0,.24705882)"/><path d="M32.432625 42.071925L41.7195 43.5102" style="fill:none;stroke:rgba(255,0,0,.24705882);stroke-width:.09525;stroke-miterlimit:41.994751"/><path d="M53.0733 43.5102H63.827025" style="fill:none;stroke:rgba(255,0,0,.24705882);stroke-width:.09525;stroke-miterlimit:41.994751"/><path d="M63.827025 43.5102L67.027425 35.60445" style="fill:none;stroke:rgba(255,0,0,.24705882);stroke-width:.09525;stroke-miterlimit:41.994751"/><path d="M41.7195 43.5102H48.3489" style="fill:none;stroke:rgba(255,0,0,.24705882);stroke-width:.09525;stroke-miterlimit:41.994751"/><path d="M25.88895 39.557325L32.432625 42.071925" style="fill:none;stroke:rgba(255,0,0,.24705882);stroke-width:.09525;stroke-miterlimit:41.994751"/><path d="M48.3489 43.5102H53.0733" style="fill:none;stroke:rgba(255,0,0,.24705882);stroke-width:.09525;stroke-miterlimit:41.994751"/><path d="M41.7195 43.5102L30.870525 48.396525" style="fill:none;stroke:rgba(250,0,0,.24705882);stroke-width:.09525;stroke-miterlimit:41.994751"/><path d="M51.2445 51.920775L41.7195 43.5102" style="fill:none;stroke:rgba(250,0,0,.24705882);stroke-width:.09525;stroke-miterlimit:41.994751"/><path d="M25.898475 45.100875L25.88895 39.557325" style="fill:none;stroke:rgba(250,0,0,.24705882);stroke-width:.09525;stroke-miterlimit:41.994751"/><path d="M25.898475 45.100875L32.432625 42.071925" style="fill:none;stroke:rgba(250,0,0,.24705882);stroke-width:.09525;stroke-miterlimit:41.994751"/><path d="M63.827025 43.5102L51.2445 51.920775" style="fill:none;stroke:rgba(250,0,0,.24705882);stroke-width:.09525;stroke-miterlimit:41.994751"/><path d="M48.3489 43.5102L51.2445 51.920775" style="fill:none;stroke:rgba(250,0,0,.24705882);stroke-width:.09525;stroke-miterlimit:41.994751"/><path d="M63.827025 43.5102L66.2178 51.920775" style="fill:none;stroke:rgba(250,0,0,.24705882);stroke-width:.09525;stroke-miterlimit:41.994751"/><path d="M63.827025 43.5102L74.895075 42.414825" style="fill:none;stroke:rgba(250,0,0,.24705882);stroke-width:.09525;stroke-miterlimit:41.994751"/><path d="M74.895075 42.414825L67.027425 35.60445" style="fill:none;stroke:rgba(250,0,0,.24705882);stroke-width:.09525;stroke-miterlimit:41.994751"/><path d="M53.0733 43.5102L51.2445 51.920775" style="fill:none;stroke:rgba(250,0,0,.24705882);stroke-width:.09525;stroke-miterlimit:41.994751"/><path d="M40.224075 51.920775L41.7195 43.5102" style="fill:none;stroke:rgba(250,0,0,.24705882);stroke-width:.09525;stroke-miterlimit:41.994751"/><path d="M25.88895 39.557325L22.5171 46.3677" style="fill:none;stroke:rgba(250,0,0,.24705882);stroke-width:.09525;stroke-miterlimit:41.994751"/><path d="M32.432625 42.071925L30.870525 48.396525" style="fill:none;stroke:rgba(250,0,0,.24705882);stroke-width:.09525;stroke-miterlimit:41.994751"/><path d="M42.681525 66.303525H59.9313V62.131575H42.681525z" style="fill:rgba(250,0,4,.24705882);stroke:rgba(250,0,4,.24705882);stroke-width:.09525;stroke-miterlimit:41.994751"/><path d="M51.768375 65.0367A.47625 .47625 0 0050.815875 65.0367A.47625 .47625 0 0051.768375 65.0367z" fill="rgba(250,0,4,.24705882)"/><path d="M24.717375 49.66335H37.804725V46.967775H24.717375z" style="fill:rgba(250,0,4,.24705882);stroke:rgba(250,0,4,.24705882);stroke-width:.09525;stroke-miterlimit:41.994751"/><path d="M31.346775 48.396525A.47625 .47625 0 0030.394275 48.396525A.47625 .47625 0 0031.346775 48.396525z" fill="rgba(250,0,4,.24705882)"/><path d="M48.758475 72.342375H72.399525V66.303525H48.758475z" style="fill:rgba(250,0,4,.24705882);stroke:rgba(250,0,4,.24705882);stroke-width:.09525;stroke-miterlimit:41.994751"/><path d="M61.05525 69.32295A.47625 .47625 0 0060.10275 69.32295A.47625 .47625 0 0061.05525 69.32295z" fill="rgba(250,0,4,.24705882)"/><path d="M24.717375 46.967775H27.079575V43.0911H24.717375z" style="fill:rgba(250,0,4,.24705882);stroke:rgba(250,0,4,.24705882);stroke-width:.09525;stroke-miterlimit:41.994751"/><path d="M26.374725 45.100875A.47625 .47625 0 0025.422225 45.100875A.47625 .47625 0 0026.374725 45.100875z" fill="rgba(250,0,4,.24705882)"/><path d="M37.804725 53.978176H42.6339V49.85385H37.804725z" style="fill:rgba(250,0,4,.24705882);stroke:rgba(250,0,4,.24705882);stroke-width:.09525;stroke-miterlimit:41.994751"/><path d="M40.700325 51.920775A.47625 .47625 0 0039.747825 51.920775A.47625 .47625 0 0040.700325 51.920775z" fill="rgba(250,0,4,.24705882)"/><path d="M59.9313 66.303525H72.399525V62.131575H59.9313z" style="fill:rgba(250,0,4,.24705882);stroke:rgba(250,0,4,.24705882);stroke-width:.09525;stroke-miterlimit:41.994751"/><path d="M65.97015 64.9605A.47625 .47625 0 0065.01765 64.9605A.47625 .47625 0 0065.97015 64.9605z" fill="rgba(250,0,4,.24705882)"/><path d="M25.203151 66.303525H42.681525V62.131575H25.203151z" style="fill:rgba(250,0,4,.24705882);stroke:rgba(250,0,4,.24705882);stroke-width:.09525;stroke-miterlimit:41.994751"/><path d="M34.928175 64.5795A.47625 .47625 0 0033.975675 64.5795A.47625 .47625 0 0034.928175 64.5795z" fill="rgba(250,0,4,.24705882)"/><path d="M72.5805 47.653575H76.962V37.176075H72.5805z" style="fill:rgba(250,0,4,.24705882);stroke:rgba(250,0,4,.24705882);stroke-width:.09525;stroke-miterlimit:41.994751"/><path d="M75.371325 42.414825A.47625 .47625 0 0074.418825 42.414825A.47625 .47625 0 0075.371325 42.414825z" fill="rgba(250,0,4,.24705882)"/><path d="M25.203151 72.342375H48.758475V66.303525H25.203151z" style="fill:rgba(250,0,4,.24705882);stroke:rgba(250,0,4,.24705882);stroke-width:.09525;stroke-miterlimit:41.994751"/><path d="M37.461825 69.32295A.47625 .47625 0 0036.509325 69.32295A.47625 .47625 0 0037.461825 69.32295z" fill="rgba(250,0,4,.24705882)"/><path d="M42.6339 53.978176H59.845575V49.85385H42.6339z" style="fill:rgba(250,0,4,.24705882);stroke:rgba(250,0,4,.24705882);stroke-width:.09525;stroke-miterlimit:41.994751"/><path d="M51.72075 51.920775A.47625 .47625 0 0050.76825 51.920775A.47625 .47625 0 0051.72075 51.920775z" fill="rgba(250,0,4,.24705882)"/><path d="M20.345398 49.663349H24.688801V43.072051H20.345398z" style="fill:rgba(250,0,4,.24705882);stroke:rgba(250,0,4,.24705882);stroke-width:.09525;stroke-miterlimit:41.994751"/><path d="M22.99335 46.3677A.47625 .47625 0 0022.04085 46.3677A.47625 .47625 0 0022.99335 46.3677z" fill="rgba(250,0,4,.24705882)"/><path d="M59.845575 53.978176H72.5805V49.85385H59.845575z" style="fill:rgba(250,0,4,.24705882);stroke:rgba(250,0,4,.24705882);stroke-width:.09525;stroke-miterlimit:41.994751"/><path d="M66.69405 51.920775A.47625 .47625 0 0065.74155 51.920775A.47625 .47625 0 0066.69405 51.920775z" fill="rgba(250,0,4,.24705882)"/><path d="M30.870525 48.396525L25.898475 45.100875" style="fill:none;stroke:rgba(250,0,4,.24705882);stroke-width:.09525;stroke-miterlimit:41.994751"/><path d="M65.4939 64.9605L60.579 69.32295" style="fill:none;stroke:rgba(250,0,4,.24705882);stroke-width:.09525;stroke-miterlimit:41.994751"/><path d="M36.985575 69.32295L34.451925 64.5795" style="fill:none;stroke:rgba(250,0,4,.24705882);stroke-width:.09525;stroke-miterlimit:41.994751"/><path d="M36.985575 69.32295H60.579" style="fill:none;stroke:rgba(250,0,4,.24705882);stroke-width:.09525;stroke-miterlimit:41.994751"/><path d="M51.292125 65.0367L36.985575 69.32295" style="fill:none;stroke:rgba(250,0,4,.24705882);stroke-width:.09525;stroke-miterlimit:41.994751"/><path d="M22.5171 46.3677L30.870525 48.396525" style="fill:none;stroke:rgba(250,0,4,.24705882);stroke-width:.09525;stroke-miterlimit:41.994751"/><path d="M51.292125 65.0367L60.579 69.32295" style="fill:none;stroke:rgba(250,0,4,.24705882);stroke-width:.09525;stroke-miterlimit:41.994751"/><path d="M25.898475 45.100875L22.5171 46.3677" style="fill:none;stroke:rgba(250,0,4,.24705882);stroke-width:.09525;stroke-miterlimit:41.994751"/><path d="M32.432625 42.071925L30.76575 52.206525" style="fill:none;stroke:rgba(222,0,32,.24705882);stroke-width:.09525;stroke-miterlimit:41.994751"/><path d="M30.870525 48.396525L30.76575 52.206525" style="fill:none;stroke:rgba(222,0,32,.24705882);stroke-width:.09525;stroke-miterlimit:41.994751"/><path d="M30.76575 52.206525L25.898475 45.100875" style="fill:none;stroke:rgba(222,0,32,.24705882);stroke-width:.09525;stroke-miterlimit:41.994751"/><path d="M40.224075 51.920775L30.76575 52.206525" style="fill:none;stroke:rgba(222,0,32,.24705882);stroke-width:.09525;stroke-miterlimit:41.994751"/><path d="M59.483625 18.84045L60.150375 8.639175" style="fill:none;stroke:rgba(218,0,32,.24705882);stroke-width:.09525;stroke-miterlimit:41.994751"/><path d="M65.70345 12.563475L60.150375 8.639175" style="fill:none;stroke:rgba(218,0,32,.24705882);stroke-width:.09525;stroke-miterlimit:41.994751"/><path d="M57.692925 12.563475L60.150375 8.639175" style="fill:none;stroke:rgba(218,0,32,.24705882);stroke-width:.09525;stroke-miterlimit:41.994751"/><path d="M51.254025 57.912L41.7195 43.5102" style="fill:none;stroke:rgba(214,0,36,.24705882);stroke-width:.09525;stroke-miterlimit:41.994751"/><path d="M51.254025 57.912L63.827025 43.5102" style="fill:none;stroke:rgba(214,0,36,.24705882);stroke-width:.09525;stroke-miterlimit:41.994751"/><path d="M48.3489 43.5102L51.254025 57.912" style="fill:none;stroke:rgba(214,0,36,.24705882);stroke-width:.09525;stroke-miterlimit:41.994751"/><path d="M34.42335 57.912L41.7195 43.5102" style="fill:none;stroke:rgba(214,0,36,.24705882);stroke-width:.09525;stroke-miterlimit:41.994751"/><path d="M65.47485 57.912L63.827025 43.5102" style="fill:none;stroke:rgba(214,0,36,.24705882);stroke-width:.09525;stroke-miterlimit:41.994751"/><path d="M53.0733 43.5102L51.254025 57.912" style="fill:none;stroke:rgba(214,0,36,.24705882);stroke-width:.09525;stroke-miterlimit:41.994751"/><path d="M51.254025 57.912L60.579 69.32295" style="fill:none;stroke:rgba(214,0,40,.24705882);stroke-width:.09525;stroke-miterlimit:41.994751"/><path d="M40.224075 51.920775L34.42335 57.912" style="fill:none;stroke:rgba(214,0,40,.24705882);stroke-width:.09525;stroke-miterlimit:41.994751"/><path d="M65.47485 57.912L60.579 69.32295" style="fill:none;stroke:rgba(214,0,40,.24705882);stroke-width:.09525;stroke-miterlimit:41.994751"/><path d="M66.2178 51.920775L65.47485 57.912" style="fill:none;stroke:rgba(214,0,40,.24705882);stroke-width:.09525;stroke-miterlimit:41.994751"/><path d="M65.4939 64.9605L65.47485 57.912" style="fill:none;stroke:rgba(214,0,40,.24705882);stroke-width:.09525;stroke-miterlimit:41.994751"/><path d="M51.2445 51.920775L51.254025 57.912" style="fill:none;stroke:rgba(214,0,40,.24705882);stroke-width:.09525;stroke-miterlimit:41.994751"/><path d="M51.292125 65.0367L51.254025 57.912" style="fill:none;stroke:rgba(214,0,40,.24705882);stroke-width:.09525;stroke-miterlimit:41.994751"/><path d="M34.451925 64.5795L34.42335 57.912" style="fill:none;stroke:rgba(214,0,40,.24705882);stroke-width:.09525;stroke-miterlimit:41.994751"/><path d="M51.254025 57.912L36.985575 69.32295" style="fill:none;stroke:rgba(214,0,40,.24705882);stroke-width:.09525;stroke-miterlimit:41.994751"/><path d="M34.42335 57.912L36.985575 69.32295" style="fill:none;stroke:rgba(214,0,40,.24705882);stroke-width:.09525;stroke-miterlimit:41.994751"/><path d="M4.524375 12.8016L.981075 6.276975" style="fill:none;stroke:rgba(210,0,40,.24705882);stroke-width:.09525;stroke-miterlimit:41.994751"/><path d="M14.34465 6.200775L.981075 6.276975" style="fill:none;stroke:rgba(210,0,40,.24705882);stroke-width:.09525;stroke-miterlimit:41.994751"/><path d="M7.362825 5.77215L.981075 6.276975" style="fill:none;stroke:rgba(210,0,40,.24705882);stroke-width:.09525;stroke-miterlimit:41.994751"/><path d="M.981075 6.276975L13.4874 17.802225" style="fill:none;stroke:rgba(210,0,40,.24705882);stroke-width:.09525;stroke-miterlimit:41.994751"/><path d="M.981075 6.276975L4.524375 23.269575" style="fill:none;stroke:rgba(210,0,40,.24705882);stroke-width:.09525;stroke-miterlimit:41.994751"/><path d="M65.70345 12.563475L69.47535 8.277225" style="fill:none;stroke:rgba(202,0,52,.24705882);stroke-width:.09525;stroke-miterlimit:41.994751"/><path d="M69.47535 8.277225L69.484875 9.6774" style="fill:none;stroke:rgba(202,0,52,.24705882);stroke-width:.09525;stroke-miterlimit:41.994751"/><path d="M59.483625 18.84045L69.47535 8.277225" style="fill:none;stroke:rgba(202,0,52,.24705882);stroke-width:.09525;stroke-miterlimit:41.994751"/><path d="M24.736426 53.968651H36.795074V50.444401H24.736426z" style="fill:rgba(194,0,60,.24705882);stroke:rgba(194,0,60,.24705882);stroke-width:.09525;stroke-miterlimit:41.994751"/><path d="M31.242 52.206525A.47625 .47625 0 0030.2895 52.206525A.47625 .47625 0 0031.242 52.206525z" fill="rgba(194,0,60,.24705882)"/><path d="M34.42335 57.912L30.76575 52.206525" style="fill:none;stroke:rgba(186,0,68,.24705882);stroke-width:.09525;stroke-miterlimit:41.994751"/><path d="M54.6735 10.53465H66.69405V6.3722273H54.6735z" style="fill:rgba(186,0,68,.24705882);stroke:rgba(186,0,68,.24705882);stroke-width:.09525;stroke-miterlimit:41.994751"/><path d="M60.626625 8.639175A.47625 .47625 0 0059.674125 8.639175A.47625 .47625 0 0060.626625 8.639175z" fill="rgba(186,0,68,.24705882)"/><path d="M77.97165 60.25515H82.572225V56.9976H77.97165z" style="fill:rgba(178,0,76,.24705882);stroke:rgba(178,0,76,.24705882);stroke-width:.09525;stroke-miterlimit:41.994751"/><path d="M81.333975 58.702575A.47625 .47625 0 0080.381475 58.702575A.47625 .47625 0 0081.333975 58.702575z" fill="rgba(178,0,76,.24705882)"/><path d="M21.58365 60.074175H26.2128V55.94985H21.58365z" style="fill:rgba(178,0,76,.24705882);stroke:rgba(178,0,76,.24705882);stroke-width:.09525;stroke-miterlimit:41.994751"/><path d="M24.374475 58.00725A.47625 .47625 0 0023.421975 58.00725A.47625 .47625 0 0024.374475 58.00725z" fill="rgba(178,0,76,.24705882)"/><path d="M59.87415 61.70295H71.066025V54.130575H59.87415z" style="fill:rgba(178,0,76,.24705882);stroke:rgba(178,0,76,.24705882);stroke-width:.09525;stroke-miterlimit:41.994751"/><path d="M65.9511 57.912A.47625 .47625 0 0064.9986 57.912A.47625 .47625 0 0065.9511 57.912z" fill="rgba(178,0,76,.24705882)"/><path d="M42.624375 61.70295H59.87415V54.130575H42.624375z" style="fill:rgba(178,0,76,.24705882);stroke:rgba(178,0,76,.24705882);stroke-width:.09525;stroke-miterlimit:41.994751"/><path d="M51.730275 57.912A.47625 .47625 0 0050.777775 57.912A.47625 .47625 0 0051.730275 57.912z" fill="rgba(178,0,76,.24705882)"/><path d="M26.2128 61.70295H42.624375V54.130575H26.2128z" style="fill:rgba(178,0,76,.24705882);stroke:rgba(178,0,76,.24705882);stroke-width:.09525;stroke-miterlimit:41.994751"/><path d="M34.8996 57.912A.47625 .47625 0 0033.9471 57.912A.47625 .47625 0 0034.8996 57.912z" fill="rgba(178,0,76,.24705882)"/><path d="M71.066025 60.25515H77.97165V55.75935H71.066025z" style="fill:rgba(178,0,76,.24705882);stroke:rgba(178,0,76,.24705882);stroke-width:.09525;stroke-miterlimit:41.994751"/><path d="M74.99985 57.997725A.47625 .47625 0 0074.04735 57.997725A.47625 .47625 0 0074.99985 57.997725z" fill="rgba(178,0,76,.24705882)"/><path d="M34.42335 57.912H51.254025" style="fill:none;stroke:rgba(178,0,76,.24705882);stroke-width:.09525;stroke-miterlimit:41.994751"/><path d="M51.254025 57.912H65.47485" style="fill:none;stroke:rgba(178,0,76,.24705882);stroke-width:.09525;stroke-miterlimit:41.994751"/><path d="M74.5236 57.997725L80.857725 58.702575" style="fill:none;stroke:rgba(178,0,76,.24705882);stroke-width:.09525;stroke-miterlimit:41.994751"/><path d="M23.898225 58.00725L34.42335 57.912" style="fill:none;stroke:rgba(178,0,76,.24705882);stroke-width:.09525;stroke-miterlimit:41.994751"/><path d="M65.47485 57.912L74.5236 57.997725" style="fill:none;stroke:rgba(178,0,76,.24705882);stroke-width:.09525;stroke-miterlimit:41.994751"/><path d="M.26669884 11.1633H5.92455V.37147733H.26669884z" style="fill:rgba(165,0,85,.24705882);stroke:rgba(165,0,85,.24705882);stroke-width:.09525;stroke-miterlimit:41.994751"/><path d="M1.457325 6.276975A.47625 .47625 0 00.504825 6.276975A.47625 .47625 0 001.457325 6.276975z" fill="rgba(165,0,85,.24705882)"/><path d="M69.47535 8.277225L60.150375 8.639175" style="fill:none;stroke:rgba(165,0,89,.24705882);stroke-width:.09525;stroke-miterlimit:41.994751"/><path d="M81.47685 45.996225L80.857725 58.702575" style="fill:none;stroke:rgba(161,0,93,.24705882);stroke-width:.09525;stroke-miterlimit:41.994751"/><path d="M66.69405 8.715375H72.170925V6.3722273H66.69405z" style="fill:rgba(149,0,105,.24705882);stroke:rgba(149,0,105,.24705882);stroke-width:.09525;stroke-miterlimit:41.994751"/><path d="M69.9516 8.277225A.47625 .47625 0 0068.9991 8.277225A.47625 .47625 0 0069.9516 8.277225z" fill="rgba(149,0,105,.24705882)"/><path d="M79.619475 35.452051H83.410425V31.213426H79.619475z" style="fill:rgba(145,0,109,.24705882);stroke:rgba(145,0,109,.24705882);stroke-width:.09525;stroke-miterlimit:41.994751"/><path d="M81.9912 33.43275A.47625 .47625 0 0081.0387 33.43275A.47625 .47625 0 0081.9912 33.43275z" fill="rgba(145,0,109,.24705882)"/><path d="M79.619475 56.207025H83.410425V35.45205H79.619475z" style="fill:rgba(145,0,109,.24705882);stroke:rgba(145,0,109,.24705882);stroke-width:.09525;stroke-miterlimit:41.994751"/><path d="M81.9531 45.996225A.47625 .47625 0 0081.0006 45.996225A.47625 .47625 0 0081.9531 45.996225z" fill="rgba(145,0,109,.24705882)"/><path d="M81.47685 45.996225L81.51495 33.43275" style="fill:none;stroke:rgba(145,0,109,.24705882);stroke-width:.09525;stroke-miterlimit:41.994751"/><path d="M81.51495 33.43275L86.667975 33.3756" style="fill:none;stroke:rgba(141,0,113,.24705882);stroke-width:.09525;stroke-miterlimit:41.994751"/><path d="M83.410425 35.452051H89.963625V31.213426H83.410425z" style="fill:rgba(137,0,117,.24705882);stroke:rgba(137,0,117,.24705882);stroke-width:.09525;stroke-miterlimit:41.994751"/><path d="M87.144225 33.3756A.47625 .47625 0 0086.191725 33.3756A.47625 .47625 0 0087.144225 33.3756z" fill="rgba(137,0,117,.24705882)"/><path d="M72.037575 17.516475L72.06615 14.182725" style="fill:none;stroke:rgba(125,0,125,.24705882);stroke-width:.09525;stroke-miterlimit:41.994751"/><path d="M72.037575 17.516475L72.06615 21.478875" style="fill:none;stroke:rgba(125,0,125,.24705882);stroke-width:.09525;stroke-miterlimit:41.994751"/><path d="M86.667975 33.3756L92.86875 33.4137" style="fill:none;stroke:rgba(121,0,133,.24705882);stroke-width:.09525;stroke-miterlimit:41.994751"/><path d="M89.963625 35.452051H96.097725V31.213426H89.963625z" style="fill:rgba(109,0,145,.24705882);stroke:rgba(109,0,145,.24705882);stroke-width:.09525;stroke-miterlimit:41.994751"/><path d="M93.345 33.4137A.47625 .47625 0 0092.3925 33.4137A.47625 .47625 0 0093.345 33.4137z" fill="rgba(109,0,145,.24705882)"/><path d="M92.86875 33.4137L98.212275 33.4518" style="fill:none;stroke:rgba(97,0,157,.24705882);stroke-width:.09525;stroke-miterlimit:41.994751"/><path d="M96.097725 35.452051H100.99357V31.213426H96.097725z" style="fill:rgba(85,0,170,.24705882);stroke:rgba(85,0,170,.24705882);stroke-width:.09525;stroke-miterlimit:41.994751"/><path d="M98.688525 33.4518A.47625 .47625 0 0097.736025 33.4518A.47625 .47625 0 0098.688525 33.4518z" fill="rgba(85,0,170,.24705882)"/><path d="M98.212275 33.4518L102.62235 33.4899" style="fill:none;stroke:rgba(72,0,178,.24705882);stroke-width:.09525;stroke-miterlimit:41.994751"/><path d="M100.99357 35.452051H104.60355V31.213426H100.99357z" style="fill:rgba(64,0,190,.24705882);stroke:rgba(64,0,190,.24705882);stroke-width:.09525;stroke-miterlimit:41.994751"/><path d="M103.0986 33.4899A.47625 .47625 0 00102.1461 33.4899A.47625 .47625 0 00103.0986 33.4899z" fill="rgba(64,0,190,.24705882)"/><path d="M102.62235 33.4899L106.47045 33.528" style="fill:none;stroke:rgba(56,0,198,.24705882);stroke-width:.09525;stroke-miterlimit:41.994751"/><path d="M104.60355 35.452051H109.92803V31.213426H104.60355z" style="fill:rgba(48,0,206,.24705882);stroke:rgba(48,0,206,.24705882);stroke-width:.09525;stroke-miterlimit:41.994751"/><path d="M106.9467 33.528A.47625 .47625 0 00105.9942 33.528A.47625 .47625 0 00106.9467 33.528z" fill="rgba(48,0,206,.24705882)"/><path d="M106.47045 33.528L121.28182 33.3375" style="fill:none;stroke:rgba(40,0,214,.24705882);stroke-width:.09525;stroke-miterlimit:41.994751"/><path d="M109.92803 35.452051H132.63563V31.213426H109.92803z" style="fill:rgba(36,0,218,.24705882);stroke:rgba(36,0,218,.24705882);stroke-width:.09525;stroke-miterlimit:41.994751"/><path d="M121.75807 33.3375A.47625 .47625 0 00120.80558 33.3375A.47625 .47625 0 00121.75807 33.3375z" fill="rgba(36,0,218,.24705882)"/><path d="M71.247 25.136477H72.8853V17.821275H71.247z" style="fill:rgba(0,0,255,.24705882);stroke:rgba(0,0,255,.24705882);stroke-width:.09525;stroke-miterlimit:41.994751"/><path d="M72.5424 21.478875A.47625 .47625 0 0071.5899 21.478875A.47625 .47625 0 0072.5424 21.478875z" fill="rgba(0,0,255,.24705882)"/><path d="M71.247 17.821275H72.8853V10.5537H71.247z" style="fill:rgba(0,0,255,.24705882);stroke:rgba(0,0,255,.24705882);stroke-width:.09525;stroke-miterlimit:41.994751"/><path d="M72.5424 14.182725A.47625 .47625 0 0071.5899 14.182725A.47625 .47625 0 0072.5424 14.182725z" fill="rgba(0,0,255,.24705882)"/><path d="M72.06615 21.478875V14.182725" style="fill:none;stroke:rgba(0,0,255,.24705882);stroke-width:.09525;stroke-miterlimit:41.994751"/></svg>