<svg version="1.1" width="97.05975mm" height="192.88125mm" viewBox="0 0 97.05975 192.88125" xmlns="http://www.w3.org/2000/svg" xmlns:xlink="http://www.w3.org/1999/xlink"><path d="M-244.0305 -195.2625H-242.1255" style="fill:none;stroke:#f00;stroke-width:.09525;stroke-miterlimit:41.994751"/><path d="M-244.0305 -195.2625V-197.1675" style="fill:none;stroke:#0f0;stroke-width:.09525;stroke-miterlimit:41.994751"/><path d="M81.88642 96.4692H96.07867V60.579H81.88642z" style="fill:rgba(255,0,0,.24705882);stroke:rgba(255,0,0,.24705882);stroke-width:.09525;stroke-miterlimit:41.994751"/><path d="M89.4588 78.5241A.47625 .47625 0 0088.5063 78.5241A.47625 .47625 0 0089.4588 78.5241z" fill="rgba(255,0,0,.24705882)"/><path d="M81.88642 192.03352H96.07867V103.4034H81.88642z" style="fill:rgba(255,0,0,.24705882);stroke:rgba(255,0,0,.24705882);stroke-width:.09525;stroke-miterlimit:41.994751"/><path d="M89.4588 147.7137A.47625 .47625 0 0088.5063 147.7137A.47625 .47625 0 0089.4588 147.7137z" fill="rgba(255,0,0,.24705882)"/><path d="M81.88642 103.40341H96.07867V96.4692H81.88642z" style="fill:rgba(255,0,0,.24705882);stroke:rgba(255,0,0,.24705882);stroke-width:.09525;stroke-miterlimit:41.994751"/><path d="M89.4588 99.9363A.47625 .47625 0 0088.5063 99.9363A.47625 .47625 0 0089.4588 99.9363z" fill="rgba(255,0,0,.24705882)"/><path d="M81.88642 60.579H96.07867V47.97742H81.88642z" style="fill:rgba(255,0,0,.24705882);stroke:rgba(255,0,0,.24705882);stroke-width:.09525;stroke-miterlimit:41.994751"/><path d="M89.4588 54.27345A.47625 .47625 0 0088.5063 54.27345A.47625 .47625 0 0089.4588 54.27345z" fill="rgba(255,0,0,.24705882)"/><path d="M88.98255 78.5241V54.27345" style="fill:none;stroke:rgba(255,0,0,.24705882);stroke-width:.09525;stroke-miterlimit:41.994751"/><path d="M88.98255 99.9363V147.7137" style="fill:none;stroke:rgba(255,0,0,.24705882);stroke-width:.09525;stroke-miterlimit:41.994751"/><path d="M88.98255 99.9363V78.5241" style="fill:none;stroke:rgba(255,0,0,.24705882);stroke-width:.09525;stroke-miterlimit:41.994751"/><path d="M88.98255 54.27345L78.58125 54.625875" style="fill:none;stroke:rgba(250,0,4,.24705882);stroke-width:.09525;stroke-miterlimit:41.994751"/><path d="M56.86425 89.677875H57.521475V61.36958H56.86425z" style="fill:rgba(246,0,8,.24705882);stroke:rgba(246,0,8,.24705882);stroke-width:.09525;stroke-miterlimit:41.994751"/><path d="M57.673875 75.523725A.47625 .47625 0 0056.721375 75.523725A.47625 .47625 0 0057.673875 75.523725z" fill="rgba(246,0,8,.24705882)"/><path d="M57.521466 89.677875H81.200625V61.36958H57.521466z" style="fill:rgba(246,0,8,.24705882);stroke:rgba(246,0,8,.24705882);stroke-width:.09525;stroke-miterlimit:41.994751"/><path d="M69.8373 75.523725A.47625 .47625 0 0068.8848 75.523725A.47625 .47625 0 0069.8373 75.523725z" fill="rgba(246,0,8,.24705882)"/><path d="M54.19725 61.369575H56.86425V48.529875H54.19725z" style="fill:rgba(246,0,8,.24705882);stroke:rgba(246,0,8,.24705882);stroke-width:.09525;stroke-miterlimit:41.994751"/><path d="M56.007 54.949725A.47625 .47625 0 0055.0545 54.949725A.47625 .47625 0 0056.007 54.949725z" fill="rgba(246,0,8,.24705882)"/><path d="M57.521466 96.059625H81.200625V89.677875H57.521466z" style="fill:rgba(246,0,8,.24705882);stroke:rgba(246,0,8,.24705882);stroke-width:.09525;stroke-miterlimit:41.994751"/><path d="M69.8373 92.86875A.47625 .47625 0 0068.8848 92.86875A.47625 .47625 0 0069.8373 92.86875z" fill="rgba(246,0,8,.24705882)"/><path d="M60.331341 61.21717H64.827159V60.731409H60.331341z" style="fill:rgba(246,0,8,.24705882);stroke:rgba(246,0,8,.24705882);stroke-width:.09525;stroke-miterlimit:41.994751"/><path d="M63.0555 60.969525A.47625 .47625 0 0062.103 60.969525A.47625 .47625 0 0063.0555 60.969525z" fill="rgba(246,0,8,.24705882)"/><path d="M50.00625 61.369575H54.19725V48.529875H50.00625z" style="fill:rgba(246,0,8,.24705882);stroke:rgba(246,0,8,.24705882);stroke-width:.09525;stroke-miterlimit:41.994751"/><path d="M52.578 54.949725A.47625 .47625 0 0051.6255 54.949725A.47625 .47625 0 0052.578 54.949725z" fill="rgba(246,0,8,.24705882)"/><path d="M33.62325 89.677875H56.86425V61.36958H33.62325z" style="fill:rgba(246,0,8,.24705882);stroke:rgba(246,0,8,.24705882);stroke-width:.09525;stroke-miterlimit:41.994751"/><path d="M45.72 75.523725A.47625 .47625 0 0044.7675 75.523725A.47625 .47625 0 0045.72 75.523725z" fill="rgba(246,0,8,.24705882)"/><path d="M33.62325 61.369575H50.00625V48.529875H33.62325z" style="fill:rgba(246,0,8,.24705882);stroke:rgba(246,0,8,.24705882);stroke-width:.09525;stroke-miterlimit:41.994751"/><path d="M42.291 54.949725A.47625 .47625 0 0041.3385 54.949725A.47625 .47625 0 0042.291 54.949725z" fill="rgba(246,0,8,.24705882)"/><path d="M57.521466 60.655205H66.73215V48.596545H57.521466z" style="fill:rgba(246,0,8,.24705882);stroke:rgba(246,0,8,.24705882);stroke-width:.09525;stroke-miterlimit:41.994751"/><path d="M62.5983 54.625875A.47625 .47625 0 0061.6458 54.625875A.47625 .47625 0 0062.5983 54.625875z" fill="rgba(246,0,8,.24705882)"/><path d="M75.409425 60.655205H81.762591V48.596545H75.409425z" style="fill:rgba(246,0,8,.24705882);stroke:rgba(246,0,8,.24705882);stroke-width:.09525;stroke-miterlimit:41.994751"/><path d="M79.0575 54.625875A.47625 .47625 0 0078.105 54.625875A.47625 .47625 0 0079.0575 54.625875z" fill="rgba(246,0,8,.24705882)"/><path d="M66.73215 60.655205H75.409425V48.596545H66.73215z" style="fill:rgba(246,0,8,.24705882);stroke:rgba(246,0,8,.24705882);stroke-width:.09525;stroke-miterlimit:41.994751"/><path d="M71.5518 54.625875A.47625 .47625 0 0070.5993 54.625875A.47625 .47625 0 0071.5518 54.625875z" fill="rgba(246,0,8,.24705882)"/><path d="M52.10175 54.949725L45.24375 75.523725" style="fill:none;stroke:rgba(246,0,8,.24705882);stroke-width:.09525;stroke-miterlimit:41.994751"/><path d="M45.24375 75.523725L41.81475 54.949725" style="fill:none;stroke:rgba(246,0,8,.24705882);stroke-width:.09525;stroke-miterlimit:41.994751"/><path d="M71.07555 54.625875H78.58125" style="fill:none;stroke:rgba(246,0,8,.24705882);stroke-width:.09525;stroke-miterlimit:41.994751"/><path d="M41.81475 54.949725H52.10175" style="fill:none;stroke:rgba(246,0,8,.24705882);stroke-width:.09525;stroke-miterlimit:41.994751"/><path d="M57.197625 75.523725H69.36105" style="fill:none;stroke:rgba(246,0,8,.24705882);stroke-width:.09525;stroke-miterlimit:41.994751"/><path d="M52.10175 54.949725H55.53075" style="fill:none;stroke:rgba(246,0,8,.24705882);stroke-width:.09525;stroke-miterlimit:41.994751"/><path d="M62.57925 60.969525L62.12205 54.625875" style="fill:none;stroke:rgba(246,0,8,.24705882);stroke-width:.09525;stroke-miterlimit:41.994751"/><path d="M62.12205 54.625875H71.07555" style="fill:none;stroke:rgba(246,0,8,.24705882);stroke-width:.09525;stroke-miterlimit:41.994751"/><path d="M69.36105 75.523725L62.57925 60.969525" style="fill:none;stroke:rgba(246,0,8,.24705882);stroke-width:.09525;stroke-miterlimit:41.994751"/><path d="M55.53075 54.949725L45.24375 75.523725" style="fill:none;stroke:rgba(246,0,8,.24705882);stroke-width:.09525;stroke-miterlimit:41.994751"/><path d="M69.36105 92.86875V75.523725" style="fill:none;stroke:rgba(246,0,8,.24705882);stroke-width:.09525;stroke-miterlimit:41.994751"/><path d="M45.24375 75.523725H57.197625" style="fill:none;stroke:rgba(246,0,8,.24705882);stroke-width:.09525;stroke-miterlimit:41.994751"/><path d="M70.19925 24.279225L88.98255 54.27345" style="fill:none;stroke:rgba(242,0,8,.24705882);stroke-width:.09525;stroke-miterlimit:41.994751"/><path d="M88.98255 99.9363L57.407175 100.6221" style="fill:none;stroke:rgba(242,0,12,.24705882);stroke-width:.09525;stroke-miterlimit:41.994751"/><path d="M56.67375 93.221175L69.36105 92.86875" style="fill:none;stroke:rgba(238,0,12,.24705882);stroke-width:.09525;stroke-miterlimit:41.994751"/><path d="M70.19925 24.279225L78.58125 54.625875" style="fill:none;stroke:rgba(238,0,16,.24705882);stroke-width:.09525;stroke-miterlimit:41.994751"/><path d="M70.19925 24.279225L71.07555 54.625875" style="fill:none;stroke:rgba(238,0,16,.24705882);stroke-width:.09525;stroke-miterlimit:41.994751"/><path d="M70.19925 24.279225L62.12205 54.625875" style="fill:none;stroke:rgba(238,0,16,.24705882);stroke-width:.09525;stroke-miterlimit:41.994751"/><path d="M56.29275 96.07867H57.40717V90.116034H56.29275z" style="fill:rgba(234,0,20,.24705882);stroke:rgba(234,0,20,.24705882);stroke-width:.09525;stroke-miterlimit:41.994751"/><path d="M57.15 93.221175A.47625 .47625 0 0056.1975 93.221175A.47625 .47625 0 0057.15 93.221175z" fill="rgba(234,0,20,.24705882)"/><path d="M33.061284 47.805966H40.566975V.762H33.061284z" style="fill:rgba(230,0,20,.24705882);stroke:rgba(230,0,20,.24705882);stroke-width:.09525;stroke-miterlimit:41.994751"/><path d="M37.290375 24.279225A.47625 .47625 0 0036.337875 24.279225A.47625 .47625 0 0037.290375 24.279225z" fill="rgba(230,0,20,.24705882)"/><path d="M43.672125 47.805966H96.726375V.762H43.672125z" style="fill:rgba(230,0,20,.24705882);stroke:rgba(230,0,20,.24705882);stroke-width:.09525;stroke-miterlimit:41.994751"/><path d="M70.6755 24.279225A.47625 .47625 0 0069.723 24.279225A.47625 .47625 0 0070.6755 24.279225z" fill="rgba(230,0,20,.24705882)"/><path d="M40.566975 47.805966H43.672125V.762H40.566975z" style="fill:rgba(230,0,20,.24705882);stroke:rgba(230,0,20,.24705882);stroke-width:.09525;stroke-miterlimit:41.994751"/><path d="M42.5958 24.279225A.47625 .47625 0 0041.6433 24.279225A.47625 .47625 0 0042.5958 24.279225z" fill="rgba(230,0,20,.24705882)"/><path d="M42.11955 24.279225H70.19925" style="fill:none;stroke:rgba(230,0,20,.24705882);stroke-width:.09525;stroke-miterlimit:41.994751"/><path d="M36.814125 24.279225H42.11955" style="fill:none;stroke:rgba(230,0,20,.24705882);stroke-width:.09525;stroke-miterlimit:41.994751"/><path d="M1.6859203 104.44162H33.023175V96.793045H1.6859203z" style="fill:rgba(230,0,24,.24705882);stroke:rgba(230,0,24,.24705882);stroke-width:.09525;stroke-miterlimit:41.994751"/><path d="M17.8308 100.6221A.47625 .47625 0 0016.8783 100.6221A.47625 .47625 0 0017.8308 100.6221z" fill="rgba(230,0,24,.24705882)"/><path d="M1.6859203 192.65265H33.023175V104.44162H1.6859203z" style="fill:rgba(230,0,24,.24705882);stroke:rgba(230,0,24,.24705882);stroke-width:.09525;stroke-miterlimit:41.994751"/><path d="M17.8308 148.54237A.47625 .47625 0 0016.8783 148.54237A.47625 .47625 0 0017.8308 148.54237z" fill="rgba(230,0,24,.24705882)"/><path d="M33.023175 192.49072H81.781659V104.44162H33.023175z" style="fill:rgba(230,0,24,.24705882);stroke:rgba(230,0,24,.24705882);stroke-width:.09525;stroke-miterlimit:41.994751"/><path d="M57.883425 148.46617A.47625 .47625 0 0056.930925 148.46617A.47625 .47625 0 0057.883425 148.46617z" fill="rgba(230,0,24,.24705882)"/><path d="M33.023175 104.44162H81.781659V96.793045H33.023175z" style="fill:rgba(230,0,24,.24705882);stroke:rgba(230,0,24,.24705882);stroke-width:.09525;stroke-miterlimit:41.994751"/><path d="M57.883425 100.6221A.47625 .47625 0 0056.930925 100.6221A.47625 .47625 0 0057.883425 100.6221z" fill="rgba(230,0,24,.24705882)"/><path d="M17.35455 100.6221H57.407175" style="fill:none;stroke:rgba(230,0,24,.24705882);stroke-width:.09525;stroke-miterlimit:41.994751"/><path d="M17.35455 100.6221V148.54237" style="fill:none;stroke:rgba(230,0,24,.24705882);stroke-width:.09525;stroke-miterlimit:41.994751"/><path d="M57.407175 100.6221V148.46617" style="fill:none;stroke:rgba(230,0,24,.24705882);stroke-width:.09525;stroke-miterlimit:41.994751"/><path d="M52.10175 54.949725V48.2727" style="fill:none;stroke:rgba(218,0,32,.24705882);stroke-width:.09525;stroke-miterlimit:41.994751"/><path d="M16.678275 23.460075L36.814125 24.279225" style="fill:none;stroke:rgba(218,0,36,.24705882);stroke-width:.09525;stroke-miterlimit:41.994751"/><path d="M17.35455 100.6221L15.763875 85.639275" style="fill:none;stroke:rgba(218,0,36,.24705882);stroke-width:.09525;stroke-miterlimit:41.994751"/><path d="M32.146875 86.858475L17.35455 100.6221" style="fill:none;stroke:rgba(218,0,36,.24705882);stroke-width:.09525;stroke-miterlimit:41.994751"/><path d="M70.19925 24.279225L52.10175 48.2727" style="fill:none;stroke:rgba(214,0,40,.24705882);stroke-width:.09525;stroke-miterlimit:41.994751"/><path d="M.2952843 96.65017H31.232475V74.628375H.2952843z" style="fill:rgba(202,0,52,.24705882);stroke:rgba(202,0,52,.24705882);stroke-width:.09525;stroke-miterlimit:41.994751"/><path d="M16.240125 85.639275A.47625 .47625 0 0015.287625 85.639275A.47625 .47625 0 0016.240125 85.639275z" fill="rgba(202,0,52,.24705882)"/><path d="M31.232475 77.066775H33.05175V74.628375H31.232475z" style="fill:rgba(202,0,52,.24705882);stroke:rgba(202,0,52,.24705882);stroke-width:.09525;stroke-miterlimit:41.994751"/><path d="M32.623125 75.847575A.47625 .47625 0 0031.670625 75.847575A.47625 .47625 0 0032.623125 75.847575z" fill="rgba(202,0,52,.24705882)"/><path d="M.2952843 70.818375H33.05175V63.674625H.2952843z" style="fill:rgba(202,0,52,.24705882);stroke:rgba(202,0,52,.24705882);stroke-width:.09525;stroke-miterlimit:41.994751"/><path d="M17.154525 67.2465A.47625 .47625 0 0016.202025 67.2465A.47625 .47625 0 0017.154525 67.2465z" fill="rgba(202,0,52,.24705882)"/><path d="M.2952843 58.9407H33.05175V46.5582H.2952843z" style="fill:rgba(202,0,52,.24705882);stroke:rgba(202,0,52,.24705882);stroke-width:.09525;stroke-miterlimit:41.994751"/><path d="M17.154525 52.74945A.47625 .47625 0 0016.202025 52.74945A.47625 .47625 0 0017.154525 52.74945z" fill="rgba(202,0,52,.24705882)"/><path d="M.2952843 63.674625H33.05175V58.9407H.2952843z" style="fill:rgba(202,0,52,.24705882);stroke:rgba(202,0,52,.24705882);stroke-width:.09525;stroke-miterlimit:41.994751"/><path d="M17.154525 61.3029A.47625 .47625 0 0016.202025 61.3029A.47625 .47625 0 0017.154525 61.3029z" fill="rgba(202,0,52,.24705882)"/><path d="M.2952843 46.5582H33.05175V.3714657H.2952843z" style="fill:rgba(202,0,52,.24705882);stroke:rgba(202,0,52,.24705882);stroke-width:.09525;stroke-miterlimit:41.994751"/><path d="M17.154525 23.460075A.47625 .47625 0 0016.202025 23.460075A.47625 .47625 0 0017.154525 23.460075z" fill="rgba(202,0,52,.24705882)"/><path d="M31.232475 96.65017H33.05175V77.066775H31.232475z" style="fill:rgba(202,0,52,.24705882);stroke:rgba(202,0,52,.24705882);stroke-width:.09525;stroke-miterlimit:41.994751"/><path d="M32.623125 86.858475A.47625 .47625 0 0031.670625 86.858475A.47625 .47625 0 0032.623125 86.858475z" fill="rgba(202,0,52,.24705882)"/><path d="M.2952843 74.628375H29.24175V70.818375H.2952843z" style="fill:rgba(202,0,52,.24705882);stroke:rgba(202,0,52,.24705882);stroke-width:.09525;stroke-miterlimit:41.994751"/><path d="M17.154525 72.723375A.47625 .47625 0 0016.202025 72.723375A.47625 .47625 0 0017.154525 72.723375z" fill="rgba(202,0,52,.24705882)"/><path d="M32.146875 86.858475V75.847575" style="fill:none;stroke:rgba(202,0,52,.24705882);stroke-width:.09525;stroke-miterlimit:41.994751"/><path d="M15.763875 85.639275L16.678275 72.723375" style="fill:none;stroke:rgba(202,0,52,.24705882);stroke-width:.09525;stroke-miterlimit:41.994751"/><path d="M15.763875 85.639275L32.146875 86.858475" style="fill:none;stroke:rgba(202,0,52,.24705882);stroke-width:.09525;stroke-miterlimit:41.994751"/><path d="M16.678275 61.3029V52.74945" style="fill:none;stroke:rgba(202,0,52,.24705882);stroke-width:.09525;stroke-miterlimit:41.994751"/><path d="M16.678275 67.2465V61.3029" style="fill:none;stroke:rgba(202,0,52,.24705882);stroke-width:.09525;stroke-miterlimit:41.994751"/><path d="M16.678275 52.74945V23.460075" style="fill:none;stroke:rgba(202,0,52,.24705882);stroke-width:.09525;stroke-miterlimit:41.994751"/><path d="M16.678275 72.723375V67.2465" style="fill:none;stroke:rgba(202,0,52,.24705882);stroke-width:.09525;stroke-miterlimit:41.994751"/><path d="M50.07292 48.48225H54.13058V48.063159H50.07292z" style="fill:rgba(194,0,60,.24705882);stroke:rgba(194,0,60,.24705882);stroke-width:.09525;stroke-miterlimit:41.994751"/><path d="M52.578 48.2727A.47625 .47625 0 0051.6255 48.2727A.47625 .47625 0 0052.578 48.2727z" fill="rgba(194,0,60,.24705882)"/><path d="M48.29175 93.125925L56.67375 93.221175" style="fill:none;stroke:rgba(186,0,68,.24705882);stroke-width:.09525;stroke-miterlimit:41.994751"/><path d="M40.29075 96.07867H56.29275V90.116034H40.29075z" style="fill:rgba(137,0,117,.24705882);stroke:rgba(137,0,117,.24705882);stroke-width:.09525;stroke-miterlimit:41.994751"/><path d="M48.768 93.125925A.47625 .47625 0 0047.8155 93.125925A.47625 .47625 0 0048.768 93.125925z" fill="rgba(137,0,117,.24705882)"/><path d="M16.678275 61.3029L32.13735 61.24575" style="fill:none;stroke:rgba(101,0,153,.24705882);stroke-width:.09525;stroke-miterlimit:41.994751"/><path d="M39.747825 93.3831L48.29175 93.125925" style="fill:none;stroke:rgba(93,0,161,.24705882);stroke-width:.09525;stroke-miterlimit:41.994751"/><path d="M33.728034 77.562075H39.109659V72.9615H33.728034z" style="fill:rgba(48,0,202,.24705882);stroke:rgba(48,0,202,.24705882);stroke-width:.09525;stroke-miterlimit:41.994751"/><path d="M36.89985 75.257025A.47625 .47625 0 0035.94735 75.257025A.47625 .47625 0 0036.89985 75.257025z" fill="rgba(48,0,202,.24705882)"/><path d="M39.21442 96.07867H40.29075V90.116034H39.21442z" style="fill:rgba(48,0,202,.24705882);stroke:rgba(48,0,202,.24705882);stroke-width:.09525;stroke-miterlimit:41.994751"/><path d="M40.224075 93.3831A.47625 .47625 0 0039.271575 93.3831A.47625 .47625 0 0040.224075 93.3831z" fill="rgba(48,0,202,.24705882)"/><path d="M33.728034 96.021534H39.109659V77.562075H33.728034z" style="fill:rgba(48,0,202,.24705882);stroke:rgba(48,0,202,.24705882);stroke-width:.09525;stroke-miterlimit:41.994751"/><path d="M36.89985 86.7918A.47625 .47625 0 0035.94735 86.7918A.47625 .47625 0 0036.89985 86.7918z" fill="rgba(48,0,202,.24705882)"/><path d="M39.243 77.485875H39.795455V72.971034H39.243z" style="fill:rgba(48,0,202,.24705882);stroke:rgba(48,0,202,.24705882);stroke-width:.09525;stroke-miterlimit:41.994751"/><path d="M39.995475 75.22845A.47625 .47625 0 0039.042975 75.22845A.47625 .47625 0 0039.995475 75.22845z" fill="rgba(48,0,202,.24705882)"/><path d="M33.708966 72.304284H56.778534V48.567966H33.708966z" style="fill:rgba(48,0,202,.24705882);stroke:rgba(48,0,202,.24705882);stroke-width:.09525;stroke-miterlimit:41.994751"/><path d="M45.3009 59.64555A.47625 .47625 0 0044.3484 59.64555A.47625 .47625 0 0045.3009 59.64555z" fill="rgba(48,0,202,.24705882)"/><path d="M33.794705 72.93292H39.14775V72.36142H33.794705z" style="fill:rgba(48,0,202,.24705882);stroke:rgba(48,0,202,.24705882);stroke-width:.09525;stroke-miterlimit:41.994751"/><path d="M36.947475 72.647175A.47625 .47625 0 0035.994975 72.647175A.47625 .47625 0 0036.947475 72.647175z" fill="rgba(48,0,202,.24705882)"/><path d="M39.88117 89.611205H56.769V72.809091H39.88117z" style="fill:rgba(48,0,202,.24705882);stroke:rgba(48,0,202,.24705882);stroke-width:.09525;stroke-miterlimit:41.994751"/><path d="M48.8061 81.21015A.47625 .47625 0 0047.8536 81.21015A.47625 .47625 0 0048.8061 81.21015z" fill="rgba(48,0,202,.24705882)"/><path d="M39.747825 93.3831L36.4236 86.7918" style="fill:none;stroke:rgba(48,0,202,.24705882);stroke-width:.09525;stroke-miterlimit:41.994751"/><path d="M36.4236 75.257025L39.519225 75.22845" style="fill:none;stroke:rgba(48,0,202,.24705882);stroke-width:.09525;stroke-miterlimit:41.994751"/><path d="M36.4236 86.7918V75.257025" style="fill:none;stroke:rgba(48,0,202,.24705882);stroke-width:.09525;stroke-miterlimit:41.994751"/><path d="M39.519225 75.22845L48.32985 81.21015" style="fill:none;stroke:rgba(48,0,202,.24705882);stroke-width:.09525;stroke-miterlimit:41.994751"/><path d="M36.471225 72.647175L36.4236 75.257025" style="fill:none;stroke:rgba(48,0,202,.24705882);stroke-width:.09525;stroke-miterlimit:41.994751"/><path d="M36.471225 72.647175L44.82465 59.64555" style="fill:none;stroke:rgba(48,0,202,.24705882);stroke-width:.09525;stroke-miterlimit:41.994751"/><path d="M33.4137 65.903475L44.82465 59.64555" style="fill:none;stroke:rgba(24,0,230,.24705882);stroke-width:.09525;stroke-miterlimit:41.994751"/><path d="M38.395275 48.244125L44.82465 59.64555" style="fill:none;stroke:rgba(24,0,230,.24705882);stroke-width:.09525;stroke-miterlimit:41.994751"/><path d="M36.35692 48.501295H40.443159V47.996466H36.35692z" style="fill:rgba(0,0,255,.24705882);stroke:rgba(0,0,255,.24705882);stroke-width:.09525;stroke-miterlimit:41.994751"/><path d="M38.871525 48.244125A.47625 .47625 0 0037.919025 48.244125A.47625 .47625 0 0038.871525 48.244125z" fill="rgba(0,0,255,.24705882)"/><path d="M31.213425 63.7413H33.05175V58.7502H31.213425z" style="fill:rgba(0,0,255,.24705882);stroke:rgba(0,0,255,.24705882);stroke-width:.09525;stroke-miterlimit:41.994751"/><path d="M32.6136 61.24575A.47625 .47625 0 0031.6611 61.24575A.47625 .47625 0 0032.6136 61.24575z" fill="rgba(0,0,255,.24705882)"/><path d="M33.05175 67.865625H33.766125V63.7413H33.05175z" style="fill:rgba(0,0,255,.24705882);stroke:rgba(0,0,255,.24705882);stroke-width:.09525;stroke-miterlimit:41.994751"/><path d="M33.88995 65.903475A.47625 .47625 0 0032.93745 65.903475A.47625 .47625 0 0033.88995 65.903475z" fill="rgba(0,0,255,.24705882)"/><path d="M31.213425 67.865625H33.05175V63.7413H31.213425z" style="fill:rgba(0,0,255,.24705882);stroke:rgba(0,0,255,.24705882);stroke-width:.09525;stroke-miterlimit:41.994751"/><path d="M32.6136 65.903475A.47625 .47625 0 0031.6611 65.903475A.47625 .47625 0 0032.6136 65.903475z" fill="rgba(0,0,255,.24705882)"/><path d="M32.13735 65.903475V61.24575" style="fill:none;stroke:rgba(0,0,255,.24705882);stroke-width:.09525;stroke-miterlimit:41.994751"/><path d="M32.13735 65.903475H33.4137" style="fill:none;stroke:rgba(0,0,255,.24705882);stroke-width:.09525;stroke-miterlimit:41.994751"/></svg>