<svg version="1.1" width="92.67825mm" height="158.97225mm" viewBox="0 0 92.67825 158.97225" xmlns="http://www.w3.org/2000/svg" xmlns:xlink="http://www.w3.org/1999/xlink"><path d="M-247.0785 -197.45325H-245.1735" style="fill:none;stroke:#f00;stroke-width:.09525;stroke-miterlimit:41.994751"/><path d="M-247.0785 -197.45325V-199.35825" style="fill:none;stroke:#0f0;stroke-width:.09525;stroke-miterlimit:41.994751"/><path d="M46.853475 158.58173A.47625 .47625 0 0045.900975 158.58173A.47625 .47625 0 0046.853475 158.58173z" fill="rgba(255,0,0,.24705882)"/><path d="M47.005875 140.7795L46.377225 158.58173" style="fill:none;stroke:rgba(226,0,28,.24705882);stroke-width:.09525;stroke-miterlimit:41.994751"/><path d="M70.570725 153.43823A.47625 .47625 0 0069.618225 153.43823A.47625 .47625 0 0070.570725 153.43823z" fill="rgba(222,0,32,.24705882)"/><path d="M70.094475 153.43823L47.005875 140.7795" style="fill:none;stroke:rgba(210,0,44,.24705882);stroke-width:.09525;stroke-miterlimit:41.994751"/><path d="M47.482125 140.7795A.47625 .47625 0 0046.529625 140.7795A.47625 .47625 0 0047.482125 140.7795z" fill="rgba(198,0,56,.24705882)"/><path d="M56.6547 132.98805L47.005875 140.7795" style="fill:none;stroke:rgba(182,0,72,.24705882);stroke-width:.09525;stroke-miterlimit:41.994751"/><path d="M36.337875 131.31165L47.005875 140.7795" style="fill:none;stroke:rgba(174,0,80,.24705882);stroke-width:.09525;stroke-miterlimit:41.994751"/><path d="M57.13095 132.98805A.47625 .47625 0 0056.17845 132.98805A.47625 .47625 0 0057.13095 132.98805z" fill="rgba(165,0,89,.24705882)"/><path d="M83.296125 106.27995A.47625 .47625 0 0082.343625 106.27995A.47625 .47625 0 0083.296125 106.27995z" fill="rgba(165,0,89,.24705882)"/><path d="M82.6389 42.872025A.47625 .47625 0 0081.6864 42.872025A.47625 .47625 0 0082.6389 42.872025z" fill="rgba(165,0,89,.24705882)"/><path d="M49.7205 42.6339A.47625 .47625 0 0048.768 42.6339A.47625 .47625 0 0049.7205 42.6339z" fill="rgba(165,0,89,.24705882)"/><path d="M82.35315 77.59065A.47625 .47625 0 0081.40065 77.59065A.47625 .47625 0 0082.35315 77.59065z" fill="rgba(165,0,89,.24705882)"/><path d="M59.2836 42.567225A.47625 .47625 0 0058.3311 42.567225A.47625 .47625 0 0059.2836 42.567225z" fill="rgba(165,0,89,.24705882)"/><path d="M81.8769 77.59065L82.16265 42.872025" style="fill:none;stroke:rgba(165,0,89,.24705882);stroke-width:.09525;stroke-miterlimit:41.994751"/><path d="M82.819875 106.27995L81.8769 77.59065" style="fill:none;stroke:rgba(165,0,89,.24705882);stroke-width:.09525;stroke-miterlimit:41.994751"/><path d="M82.16265 42.872025L58.80735 42.567225" style="fill:none;stroke:rgba(165,0,89,.24705882);stroke-width:.09525;stroke-miterlimit:41.994751"/><path d="M58.80735 42.567225L49.24425 42.6339" style="fill:none;stroke:rgba(165,0,89,.24705882);stroke-width:.09525;stroke-miterlimit:41.994751"/><path d="M56.6547 132.98805L59.597925 110.95673" style="fill:none;stroke:rgba(165,0,89,.24705882);stroke-width:.09525;stroke-miterlimit:41.994751"/><path d="M59.597925 110.95673L82.819875 106.27995" style="fill:none;stroke:rgba(165,0,89,.24705882);stroke-width:.09525;stroke-miterlimit:41.994751"/><path d="M49.24425 42.6339L49.9872 16.2306" style="fill:none;stroke:rgba(161,0,89,.24705882);stroke-width:.09525;stroke-miterlimit:41.994751"/><path d="M60.074175 110.95673A.47625 .47625 0 0059.121675 110.95673A.47625 .47625 0 0060.074175 110.95673z" fill="rgba(161,0,89,.24705882)"/><path d="M58.80735 42.567225L59.56935 54.3687" style="fill:none;stroke:rgba(161,0,93,.24705882);stroke-width:.09525;stroke-miterlimit:41.994751"/><path d="M.352425 25.193625H92.37345V.371475H.352425z" style="fill:rgba(161,0,93,.24705882);stroke:rgba(161,0,93,.24705882);stroke-width:.09525;stroke-miterlimit:41.994751"/><path d="M50.46345 16.2306A.47625 .47625 0 0049.51095 16.2306A.47625 .47625 0 0050.46345 16.2306z" fill="rgba(161,0,93,.24705882)"/><path d="M19.002375 35.9283L49.24425 42.6339" style="fill:none;stroke:rgba(161,0,93,.24705882);stroke-width:.09525;stroke-miterlimit:41.994751"/><path d="M23.574375 77.333475A.47625 .47625 0 0022.621875 77.333475A.47625 .47625 0 0023.574375 77.333475z" fill="rgba(161,0,93,.24705882)"/><path d="M54.42585 93.945075H61.255275V80.514825H54.42585z" style="fill:rgba(161,0,93,.24705882);stroke:rgba(161,0,93,.24705882);stroke-width:.09525;stroke-miterlimit:41.994751"/><path d="M55.483125 91.239975A.47625 .47625 0 0054.530625 91.239975A.47625 .47625 0 0055.483125 91.239975z" fill="rgba(161,0,93,.24705882)"/><path d="M53.81625 80.514825H71.30415V70.9041H53.81625z" style="fill:rgba(161,0,93,.24705882);stroke:rgba(161,0,93,.24705882);stroke-width:.09525;stroke-miterlimit:41.994751"/><path d="M60.702825 74.1426A.47625 .47625 0 0059.750325 74.1426A.47625 .47625 0 0060.702825 74.1426z" fill="rgba(161,0,93,.24705882)"/><path d="M26.4795 87.429975H32.2326V74.00925H26.4795z" style="fill:rgba(161,0,93,.24705882);stroke:rgba(161,0,93,.24705882);stroke-width:.09525;stroke-miterlimit:41.994751"/><path d="M31.118175 77.219175A.47625 .47625 0 0030.165675 77.219175A.47625 .47625 0 0031.118175 77.219175z" fill="rgba(161,0,93,.24705882)"/><path d="M53.7972 70.9041H71.294625V59.159775H53.7972z" style="fill:rgba(161,0,93,.24705882);stroke:rgba(161,0,93,.24705882);stroke-width:.09525;stroke-miterlimit:41.994751"/><path d="M59.750325 63.807975A.47625 .47625 0 0058.797825 63.807975A.47625 .47625 0 0059.750325 63.807975z" fill="rgba(161,0,93,.24705882)"/><path d="M59.9313 58.6359A.47625 .47625 0 0058.9788 58.6359A.47625 .47625 0 0059.9313 58.6359z" fill="rgba(161,0,93,.24705882)"/><path d="M26.489025 56.473725H53.7972V46.4058H26.489025z" style="fill:rgba(161,0,93,.24705882);stroke:rgba(161,0,93,.24705882);stroke-width:.09525;stroke-miterlimit:41.994751"/><path d="M49.2633 49.93005A.47625 .47625 0 0048.3108 49.93005A.47625 .47625 0 0049.2633 49.93005z" fill="rgba(161,0,93,.24705882)"/><path d="M60.0456 54.3687A.47625 .47625 0 0059.0931 54.3687A.47625 .47625 0 0060.0456 54.3687z" fill="rgba(161,0,93,.24705882)"/><path d="M32.2326 87.4014H53.7972V56.48325H32.2326z" style="fill:rgba(161,0,93,.24705882);stroke:rgba(161,0,93,.24705882);stroke-width:.09525;stroke-miterlimit:41.994751"/><path d="M46.586775 70.92315A.47625 .47625 0 0045.634275 70.92315A.47625 .47625 0 0046.586775 70.92315z" fill="rgba(161,0,93,.24705882)"/><path d="M71.30415 80.5053H78.20025V59.178825H71.30415z" style="fill:rgba(161,0,93,.24705882);stroke:rgba(161,0,93,.24705882);stroke-width:.09525;stroke-miterlimit:41.994751"/><path d="M74.6379 78.0669A.47625 .47625 0 0073.6854 78.0669A.47625 .47625 0 0074.6379 78.0669z" fill="rgba(161,0,93,.24705882)"/><path d="M61.2648 90.9066H74.990325V80.514825H61.2648z" style="fill:rgba(161,0,93,.24705882);stroke:rgba(161,0,93,.24705882);stroke-width:.09525;stroke-miterlimit:41.994751"/><path d="M63.045975 86.915625A.47625 .47625 0 0062.093475 86.915625A.47625 .47625 0 0063.045975 86.915625z" fill="rgba(161,0,93,.24705882)"/><path d="M48.78705 49.93005L46.110525 70.92315" style="fill:none;stroke:rgba(161,0,93,.24705882);stroke-width:.09525;stroke-miterlimit:41.994751"/><path d="M74.16165 78.0669L62.569725 86.915625" style="fill:none;stroke:rgba(161,0,93,.24705882);stroke-width:.09525;stroke-miterlimit:41.994751"/><path d="M60.226575 74.1426L46.110525 70.92315" style="fill:none;stroke:rgba(161,0,93,.24705882);stroke-width:.09525;stroke-miterlimit:41.994751"/><path d="M60.226575 74.1426L59.274075 63.807975" style="fill:none;stroke:rgba(161,0,93,.24705882);stroke-width:.09525;stroke-miterlimit:41.994751"/><path d="M46.110525 70.92315L30.641925 77.219175" style="fill:none;stroke:rgba(161,0,93,.24705882);stroke-width:.09525;stroke-miterlimit:41.994751"/><path d="M59.56935 54.3687L59.45505 58.6359" style="fill:none;stroke:rgba(161,0,93,.24705882);stroke-width:.09525;stroke-miterlimit:41.994751"/><path d="M74.16165 78.0669L59.274075 63.807975" style="fill:none;stroke:rgba(161,0,93,.24705882);stroke-width:.09525;stroke-miterlimit:41.994751"/><path d="M59.45505 58.6359L59.274075 63.807975" style="fill:none;stroke:rgba(161,0,93,.24705882);stroke-width:.09525;stroke-miterlimit:41.994751"/><path d="M59.274075 63.807975L46.110525 70.92315" style="fill:none;stroke:rgba(161,0,93,.24705882);stroke-width:.09525;stroke-miterlimit:41.994751"/><path d="M62.569725 86.915625L60.226575 74.1426" style="fill:none;stroke:rgba(161,0,93,.24705882);stroke-width:.09525;stroke-miterlimit:41.994751"/><path d="M62.569725 86.915625L55.006875 91.239975" style="fill:none;stroke:rgba(161,0,93,.24705882);stroke-width:.09525;stroke-miterlimit:41.994751"/><path d="M74.16165 78.0669L60.226575 74.1426" style="fill:none;stroke:rgba(161,0,93,.24705882);stroke-width:.09525;stroke-miterlimit:41.994751"/><path d="M19.364325 93.278325L23.098125 77.333475" style="fill:none;stroke:rgba(161,0,93,.24705882);stroke-width:.09525;stroke-miterlimit:41.994751"/><path d="M19.840575 93.278325A.47625 .47625 0 0018.888075 93.278325A.47625 .47625 0 0019.840575 93.278325z" fill="rgba(157,0,93,.24705882)"/><path d="M22.202775 111.7092L19.364325 93.278325" style="fill:none;stroke:rgba(157,0,93,.24705882);stroke-width:.09525;stroke-miterlimit:41.994751"/><path d="M22.679025 111.7092A.47625 .47625 0 0021.726525 111.7092A.47625 .47625 0 0022.679025 111.7092z" fill="rgba(157,0,93,.24705882)"/><path d="M23.098125 77.333475L19.002375 35.9283" style="fill:none;stroke:rgba(157,0,97,.24705882);stroke-width:.09525;stroke-miterlimit:41.994751"/><path d="M19.478625 35.9283A.47625 .47625 0 0018.526125 35.9283A.47625 .47625 0 0019.478625 35.9283z" fill="rgba(157,0,97,.24705882)"/><path d="M36.337875 131.31165L22.202775 111.7092" style="fill:none;stroke:rgba(153,0,101,.24705882);stroke-width:.09525;stroke-miterlimit:41.994751"/><path d="M49.01565 46.015275L49.24425 42.6339" style="fill:none;stroke:rgba(153,0,101,.24705882);stroke-width:.09525;stroke-miterlimit:41.994751"/><path d="M78.457425 78.133575L81.8769 77.59065" style="fill:none;stroke:rgba(153,0,101,.24705882);stroke-width:.09525;stroke-miterlimit:41.994751"/><path d="M23.098125 77.333475L26.23185 77.28585" style="fill:none;stroke:rgba(149,0,105,.24705882);stroke-width:.09525;stroke-miterlimit:41.994751"/><path d="M49.01565 46.015275L48.78705 49.93005" style="fill:none;stroke:rgba(149,0,105,.24705882);stroke-width:.09525;stroke-miterlimit:41.994751"/><path d="M78.457425 78.133575L74.16165 78.0669" style="fill:none;stroke:rgba(149,0,105,.24705882);stroke-width:.09525;stroke-miterlimit:41.994751"/><path d="M26.23185 77.28585L30.641925 77.219175" style="fill:none;stroke:rgba(149,0,105,.24705882);stroke-width:.09525;stroke-miterlimit:41.994751"/><path d="M36.814125 131.31165A.47625 .47625 0 0035.861625 131.31165A.47625 .47625 0 0036.814125 131.31165z" fill="rgba(149,0,105,.24705882)"/><path d="M26.7081 77.28585A.47625 .47625 0 0025.7556 77.28585A.47625 .47625 0 0026.7081 77.28585z" fill="rgba(137,0,113,.24705882)"/><path d="M49.4919 46.015275A.47625 .47625 0 0048.5394 46.015275A.47625 .47625 0 0049.4919 46.015275z" fill="rgba(137,0,113,.24705882)"/><path d="M78.933675 78.133575A.47625 .47625 0 0077.981175 78.133575A.47625 .47625 0 0078.933675 78.133575z" fill="rgba(137,0,113,.24705882)"/><path d="M55.006875 91.239975L44.97705 91.0971" style="fill:none;stroke:rgba(137,0,117,.24705882);stroke-width:.09525;stroke-miterlimit:41.994751"/><path d="M44.06265 93.93555H46.15815V87.8967H44.06265z" style="fill:rgba(117,0,137,.24705882);stroke:rgba(117,0,137,.24705882);stroke-width:.09525;stroke-miterlimit:41.994751"/><path d="M45.4533 91.0971A.47625 .47625 0 0044.5008 91.0971A.47625 .47625 0 0045.4533 91.0971z" fill="rgba(117,0,137,.24705882)"/><path d="M44.97705 91.0971L36.090225 90.801825" style="fill:none;stroke:rgba(97,0,153,.24705882);stroke-width:.09525;stroke-miterlimit:41.994751"/><path d="M54.797325 91.0971A.47625 .47625 0 0053.844825 91.0971A.47625 .47625 0 0054.797325 91.0971z" fill="rgba(80,0,174,.24705882)"/><path d="M54.397275 94.01175H68.0466V86.106H54.397275z" style="fill:rgba(80,0,174,.24705882);stroke:rgba(80,0,174,.24705882);stroke-width:.09525;stroke-miterlimit:41.994751"/><path d="M59.331225 90.268425A.47625 .47625 0 0058.378725 90.268425A.47625 .47625 0 0059.331225 90.268425z" fill="rgba(80,0,174,.24705882)"/><path d="M54.397275 75.819H68.0466V58.607325H54.397275z" style="fill:rgba(80,0,174,.24705882);stroke:rgba(80,0,174,.24705882);stroke-width:.09525;stroke-miterlimit:41.994751"/><path d="M58.740675 66.627375A.47625 .47625 0 0057.788175 66.627375A.47625 .47625 0 0058.740675 66.627375z" fill="rgba(80,0,174,.24705882)"/><path d="M36.8046 78.171675H53.7972V70.54215H36.8046z" style="fill:rgba(80,0,174,.24705882);stroke:rgba(80,0,174,.24705882);stroke-width:.09525;stroke-miterlimit:41.994751"/><path d="M45.748575 73.713975A.47625 .47625 0 0044.796075 73.713975A.47625 .47625 0 0045.748575 73.713975z" fill="rgba(80,0,174,.24705882)"/><path d="M54.797325 67.275075A.47625 .47625 0 0053.844825 67.275075A.47625 .47625 0 0054.797325 67.275075z" fill="rgba(80,0,174,.24705882)"/><path d="M36.814125 87.429975H53.81625V78.171675H36.814125z" style="fill:rgba(80,0,174,.24705882);stroke:rgba(80,0,174,.24705882);stroke-width:.09525;stroke-miterlimit:41.994751"/><path d="M45.1866 82.73415A.47625 .47625 0 0044.2341 82.73415A.47625 .47625 0 0045.1866 82.73415z" fill="rgba(80,0,174,.24705882)"/><path d="M54.359175 83.886675A.47625 .47625 0 0053.406675 83.886675A.47625 .47625 0 0054.359175 83.886675z" fill="rgba(80,0,174,.24705882)"/><path d="M36.566475 90.801825A.47625 .47625 0 0035.613975 90.801825A.47625 .47625 0 0036.566475 90.801825z" fill="rgba(80,0,174,.24705882)"/><path d="M14.430375 82.6389H25.54605V70.704075H14.430375z" style="fill:rgba(80,0,174,.24705882);stroke:rgba(80,0,174,.24705882);stroke-width:.09525;stroke-miterlimit:41.994751"/><path d="M20.469225 74.666475A.47625 .47625 0 0019.516725 74.666475A.47625 .47625 0 0020.469225 74.666475z" fill="rgba(80,0,174,.24705882)"/><path d="M37.042725 72.951975A.47625 .47625 0 0036.090225 72.951975A.47625 .47625 0 0037.042725 72.951975z" fill="rgba(80,0,174,.24705882)"/><path d="M14.42085 93.78315H25.05075V82.629375H14.42085z" style="fill:rgba(80,0,174,.24705882);stroke:rgba(80,0,174,.24705882);stroke-width:.09525;stroke-miterlimit:41.994751"/><path d="M20.0025 88.56345A.47625 .47625 0 0019.05 88.56345A.47625 .47625 0 0020.0025 88.56345z" fill="rgba(80,0,174,.24705882)"/><path d="M26.489025 73.1139A.47625 .47625 0 0025.536525 73.1139A.47625 .47625 0 0026.489025 73.1139z" fill="rgba(80,0,174,.24705882)"/><path d="M26.469975 93.964125H36.090225V87.144225H26.469975z" style="fill:rgba(80,0,174,.24705882);stroke:rgba(80,0,174,.24705882);stroke-width:.09525;stroke-miterlimit:41.994751"/><path d="M31.365825 91.049475A.47625 .47625 0 0030.413325 91.049475A.47625 .47625 0 0031.365825 91.049475z" fill="rgba(80,0,174,.24705882)"/><path d="M54.397275 86.106H68.0466V75.819H54.397275z" style="fill:rgba(80,0,174,.24705882);stroke:rgba(80,0,174,.24705882);stroke-width:.09525;stroke-miterlimit:41.994751"/><path d="M59.216925 82.877025A.47625 .47625 0 0058.264425 82.877025A.47625 .47625 0 0059.216925 82.877025z" fill="rgba(80,0,174,.24705882)"/><path d="M36.0807 63.522225H53.77815V46.38675H36.0807z" style="fill:rgba(80,0,174,.24705882);stroke:rgba(80,0,174,.24705882);stroke-width:.09525;stroke-miterlimit:41.994751"/><path d="M40.605075 56.17845A.47625 .47625 0 0039.652575 56.17845A.47625 .47625 0 0040.605075 56.17845z" fill="rgba(80,0,174,.24705882)"/><path d="M26.5176 70.16115H36.0807V46.38675H26.5176z" style="fill:rgba(80,0,174,.24705882);stroke:rgba(80,0,174,.24705882);stroke-width:.09525;stroke-miterlimit:41.994751"/><path d="M31.6992 66.1416A.47625 .47625 0 0030.7467 66.1416A.47625 .47625 0 0031.6992 66.1416z" fill="rgba(80,0,174,.24705882)"/><path d="M26.469975 77.89545H36.0807V70.16115H26.469975z" style="fill:rgba(80,0,174,.24705882);stroke:rgba(80,0,174,.24705882);stroke-width:.09525;stroke-miterlimit:41.994751"/><path d="M31.5087 72.82815A.47625 .47625 0 0030.5562 72.82815A.47625 .47625 0 0031.5087 72.82815z" fill="rgba(80,0,174,.24705882)"/><path d="M36.0807 69.1515H53.787675V63.53175H36.0807z" style="fill:rgba(80,0,174,.24705882);stroke:rgba(80,0,174,.24705882);stroke-width:.09525;stroke-miterlimit:41.994751"/><path d="M40.566975 67.198875A.47625 .47625 0 0039.614475 67.198875A.47625 .47625 0 0040.566975 67.198875z" fill="rgba(80,0,174,.24705882)"/><path d="M26.46045 87.144225H36.0807V77.89545H26.46045z" style="fill:rgba(80,0,174,.24705882);stroke:rgba(80,0,174,.24705882);stroke-width:.09525;stroke-miterlimit:41.994751"/><path d="M31.623 82.800825A.47625 .47625 0 0030.6705 82.800825A.47625 .47625 0 0031.623 82.800825z" fill="rgba(80,0,174,.24705882)"/><path d="M58.740675 82.877025L58.854975 90.268425" style="fill:none;stroke:rgba(80,0,174,.24705882);stroke-width:.09525;stroke-miterlimit:41.994751"/><path d="M58.264425 66.627375L58.740675 82.877025" style="fill:none;stroke:rgba(80,0,174,.24705882);stroke-width:.09525;stroke-miterlimit:41.994751"/><path d="M40.090725 67.198875L40.128825 56.17845" style="fill:none;stroke:rgba(80,0,174,.24705882);stroke-width:.09525;stroke-miterlimit:41.994751"/><path d="M31.03245 72.82815L36.566475 72.951975" style="fill:none;stroke:rgba(80,0,174,.24705882);stroke-width:.09525;stroke-miterlimit:41.994751"/><path d="M31.14675 82.800825L31.03245 72.82815" style="fill:none;stroke:rgba(80,0,174,.24705882);stroke-width:.09525;stroke-miterlimit:41.994751"/><path d="M36.090225 90.801825L30.889575 91.049475" style="fill:none;stroke:rgba(80,0,174,.24705882);stroke-width:.09525;stroke-miterlimit:41.994751"/><path d="M30.889575 91.049475L31.14675 82.800825" style="fill:none;stroke:rgba(80,0,174,.24705882);stroke-width:.09525;stroke-miterlimit:41.994751"/><path d="M58.740675 82.877025L53.882925 83.886675" style="fill:none;stroke:rgba(80,0,174,.24705882);stroke-width:.09525;stroke-miterlimit:41.994751"/><path d="M19.52625 88.56345L19.992975 74.666475" style="fill:none;stroke:rgba(80,0,174,.24705882);stroke-width:.09525;stroke-miterlimit:41.994751"/><path d="M31.22295 66.1416L40.090725 67.198875" style="fill:none;stroke:rgba(80,0,174,.24705882);stroke-width:.09525;stroke-miterlimit:41.994751"/><path d="M31.03245 72.82815L31.22295 66.1416" style="fill:none;stroke:rgba(80,0,174,.24705882);stroke-width:.09525;stroke-miterlimit:41.994751"/><path d="M19.992975 74.666475L26.012775 73.1139" style="fill:none;stroke:rgba(80,0,174,.24705882);stroke-width:.09525;stroke-miterlimit:41.994751"/><path d="M58.854975 90.268425L54.321075 91.0971" style="fill:none;stroke:rgba(80,0,174,.24705882);stroke-width:.09525;stroke-miterlimit:41.994751"/><path d="M26.012775 73.1139L31.03245 72.82815" style="fill:none;stroke:rgba(80,0,174,.24705882);stroke-width:.09525;stroke-miterlimit:41.994751"/><path d="M44.71035 82.73415L53.882925 83.886675" style="fill:none;stroke:rgba(80,0,174,.24705882);stroke-width:.09525;stroke-miterlimit:41.994751"/><path d="M54.321075 67.275075L58.264425 66.627375" style="fill:none;stroke:rgba(80,0,174,.24705882);stroke-width:.09525;stroke-miterlimit:41.994751"/><path d="M45.272325 73.713975L44.71035 82.73415" style="fill:none;stroke:rgba(80,0,174,.24705882);stroke-width:.09525;stroke-miterlimit:41.994751"/><path d="M54.321075 67.275075L40.090725 67.198875" style="fill:none;stroke:rgba(80,0,174,.24705882);stroke-width:.09525;stroke-miterlimit:41.994751"/><path d="M36.566475 72.951975L45.272325 73.713975" style="fill:none;stroke:rgba(80,0,174,.24705882);stroke-width:.09525;stroke-miterlimit:41.994751"/><path d="M40.090725 67.198875L40.02405 69.1515" style="fill:none;stroke:rgba(76,0,178,.24705882);stroke-width:.09525;stroke-miterlimit:41.994751"/><path d="M40.5003 69.1515A.47625 .47625 0 0039.5478 69.1515A.47625 .47625 0 0040.5003 69.1515z" fill="rgba(72,0,182,.24705882)"/><path d="M40.02405 69.1515H40.071675" style="fill:none;stroke:rgba(36,0,214,.24705882);stroke-width:.09525;stroke-miterlimit:41.994751"/><path d="M40.547925 69.1515A.47625 .47625 0 0039.595425 69.1515A.47625 .47625 0 0040.547925 69.1515z" fill="rgba(4,0,250,.24705882)"/><path d="M40.0431 70.2945L40.071675 69.1515" style="fill:none;stroke:rgba(0,0,255,.24705882);stroke-width:.09525;stroke-miterlimit:41.994751"/><path d="M33.251775 56.29275H47.2059V46.3296H33.251775z" style="fill:rgba(0,0,255,.24705882);stroke:rgba(0,0,255,.24705882);stroke-width:.09525;stroke-miterlimit:41.994751"/><path d="M40.74795 48.434625A.47625 .47625 0 0039.79545 48.434625A.47625 .47625 0 0040.74795 48.434625z" fill="rgba(0,0,255,.24705882)"/><path d="M38.2905 65.903475H41.91V56.29275H38.2905z" style="fill:rgba(0,0,255,.24705882);stroke:rgba(0,0,255,.24705882);stroke-width:.09525;stroke-miterlimit:41.994751"/><path d="M41.233725 60.7314A.47625 .47625 0 0040.281225 60.7314A.47625 .47625 0 0041.233725 60.7314z" fill="rgba(0,0,255,.24705882)"/><path d="M41.919525 82.362675H47.939325V66.741675H41.919525z" style="fill:rgba(0,0,255,.24705882);stroke:rgba(0,0,255,.24705882);stroke-width:.09525;stroke-miterlimit:41.994751"/><path d="M45.481875 70.875525A.47625 .47625 0 0044.529375 70.875525A.47625 .47625 0 0045.481875 70.875525z" fill="rgba(0,0,255,.24705882)"/><path d="M33.3756 68.513325H38.2905V56.29275H33.3756z" style="fill:rgba(0,0,255,.24705882);stroke:rgba(0,0,255,.24705882);stroke-width:.09525;stroke-miterlimit:41.994751"/><path d="M34.8996 62.188725A.47625 .47625 0 0033.9471 62.188725A.47625 .47625 0 0034.8996 62.188725z" fill="rgba(0,0,255,.24705882)"/><path d="M40.51935 70.2945A.47625 .47625 0 0039.56685 70.2945A.47625 .47625 0 0040.51935 70.2945z" fill="rgba(0,0,255,.24705882)"/><path d="M33.861375 82.362675H38.280975V68.513325H33.861375z" style="fill:rgba(0,0,255,.24705882);stroke:rgba(0,0,255,.24705882);stroke-width:.09525;stroke-miterlimit:41.994751"/><path d="M35.5854 71.485125A.47625 .47625 0 0034.6329 71.485125A.47625 .47625 0 0035.5854 71.485125z" fill="rgba(0,0,255,.24705882)"/><path d="M41.91 66.741675H47.882175V56.302275H41.91z" style="fill:rgba(0,0,255,.24705882);stroke:rgba(0,0,255,.24705882);stroke-width:.09525;stroke-miterlimit:41.994751"/><path d="M45.500925 62.550675A.47625 .47625 0 0044.548425 62.550675A.47625 .47625 0 0045.500925 62.550675z" fill="rgba(0,0,255,.24705882)"/><path d="M38.280975 82.35315H41.91V70.96125H38.280975z" style="fill:rgba(0,0,255,.24705882);stroke:rgba(0,0,255,.24705882);stroke-width:.09525;stroke-miterlimit:41.994751"/><path d="M40.51935 73.866375A.47625 .47625 0 0039.56685 73.866375A.47625 .47625 0 0040.51935 73.866375z" fill="rgba(0,0,255,.24705882)"/><path d="M33.861375 93.9927H48.02505V82.362675H33.861375z" style="fill:rgba(0,0,255,.24705882);stroke:rgba(0,0,255,.24705882);stroke-width:.09525;stroke-miterlimit:41.994751"/><path d="M40.624125 91.049475A.47625 .47625 0 0039.671625 91.049475A.47625 .47625 0 0040.624125 91.049475z" fill="rgba(0,0,255,.24705882)"/><path d="M40.757475 60.7314L40.2717 48.434625" style="fill:none;stroke:rgba(0,0,255,.24705882);stroke-width:.09525;stroke-miterlimit:41.994751"/><path d="M40.0431 73.866375V70.2945" style="fill:none;stroke:rgba(0,0,255,.24705882);stroke-width:.09525;stroke-miterlimit:41.994751"/><path d="M40.757475 60.7314L45.024675 62.550675" style="fill:none;stroke:rgba(0,0,255,.24705882);stroke-width:.09525;stroke-miterlimit:41.994751"/><path d="M40.0431 73.866375L35.10915 71.485125" style="fill:none;stroke:rgba(0,0,255,.24705882);stroke-width:.09525;stroke-miterlimit:41.994751"/><path d="M45.024675 62.550675L45.005625 70.875525" style="fill:none;stroke:rgba(0,0,255,.24705882);stroke-width:.09525;stroke-miterlimit:41.994751"/><path d="M40.147875 91.049475L40.0431 73.866375" style="fill:none;stroke:rgba(0,0,255,.24705882);stroke-width:.09525;stroke-miterlimit:41.994751"/><path d="M35.10915 71.485125L34.42335 62.188725" style="fill:none;stroke:rgba(0,0,255,.24705882);stroke-width:.09525;stroke-miterlimit:41.994751"/><path d="M45.005625 70.875525L40.0431 73.866375" style="fill:none;stroke:rgba(0,0,255,.24705882);stroke-width:.09525;stroke-miterlimit:41.994751"/><path d="M34.42335 62.188725L40.757475 60.7314" style="fill:none;stroke:rgba(0,0,255,.24705882);stroke-width:.09525;stroke-miterlimit:41.994751"/></svg>