<svg version="1.1" width="149.9235mm" height="198.12mm" viewBox="0 0 149.9235 198.12" xmlns="http://www.w3.org/2000/svg" xmlns:xlink="http://www.w3.org/1999/xlink"><path d="M61.341 114.58575H63.246" style="fill:none;stroke:#f00;stroke-width:.09525;stroke-miterlimit:41.994751"/><path d="M61.341 114.58575V112.68075" style="fill:none;stroke:#0f0;stroke-width:.09525;stroke-miterlimit:41.994751"/><path d="M147.98992 .6096A.47625 .47625 0 00147.03743 .6096A.47625 .47625 0 00147.98992 .6096z" fill="rgba(255,0,0,.24705882)"/><path d="M146.685 .89535L147.51368 .6096" style="fill:none;stroke:rgba(234,0,20,.24705882);stroke-width:.09525;stroke-miterlimit:41.994751"/><path d="M147.16125 .89535A.47625 .47625 0 00146.20875 .89535A.47625 .47625 0 00147.16125 .89535z" fill="rgba(214,0,40,.24705882)"/><path d="M146.685 .43815V.89535" style="fill:none;stroke:rgba(153,0,101,.24705882);stroke-width:.09525;stroke-miterlimit:41.994751"/><path d="M76.857225 148.15185A.47625 .47625 0 0075.904725 148.15185A.47625 .47625 0 0076.857225 148.15185z" fill="rgba(145,0,109,.24705882)"/><path d="M75.980925 132.969L76.380975 148.15185" style="fill:none;stroke:rgba(141,0,113,.24705882);stroke-width:.09525;stroke-miterlimit:41.994751"/><path d="M111.26153 146.42783A.47625 .47625 0 00110.30903 146.42783A.47625 .47625 0 00111.26153 146.42783z" fill="rgba(141,0,113,.24705882)"/><path d="M103.77487 114.44288A.47625 .47625 0 00102.82238 114.44288A.47625 .47625 0 00103.77487 114.44288z" fill="rgba(141,0,113,.24705882)"/><path d="M95.1738 129.58763A.47625 .47625 0 0094.2213 129.58763A.47625 .47625 0 0095.1738 129.58763z" fill="rgba(141,0,113,.24705882)"/><path d="M100.70782 149.47583A.47625 .47625 0 0099.755325 149.47583A.47625 .47625 0 00100.70782 149.47583z" fill="rgba(141,0,113,.24705882)"/><path d="M82.934175 132.2832A.47625 .47625 0 0081.981675 132.2832A.47625 .47625 0 0082.934175 132.2832z" fill="rgba(141,0,113,.24705882)"/><path d="M82.20075 114.74768A.47625 .47625 0 0081.24825 114.74768A.47625 .47625 0 0082.20075 114.74768z" fill="rgba(141,0,113,.24705882)"/><path d="M112.65217 138.19823A.47625 .47625 0 00111.69968 138.19823A.47625 .47625 0 00112.65217 138.19823z" fill="rgba(141,0,113,.24705882)"/><path d="M76.457175 132.969A.47625 .47625 0 0075.504675 132.969A.47625 .47625 0 0076.457175 132.969z" fill="rgba(141,0,113,.24705882)"/><path d="M104.2416 106.09898A.47625 .47625 0 00103.2891 106.09898A.47625 .47625 0 00104.2416 106.09898z" fill="rgba(141,0,113,.24705882)"/><path d="M76.323825 114.32858A.47625 .47625 0 0075.371325 114.32858A.47625 .47625 0 0076.323825 114.32858z" fill="rgba(141,0,113,.24705882)"/><path d="M96.774 114.08093A.47625 .47625 0 0095.8215 114.08093A.47625 .47625 0 0096.774 114.08093z" fill="rgba(141,0,113,.24705882)"/><path d="M75.847575 114.32858L75.980925 132.969" style="fill:none;stroke:rgba(141,0,113,.24705882);stroke-width:.09525;stroke-miterlimit:41.994751"/><path d="M112.17593 138.19823L103.29863 114.44288" style="fill:none;stroke:rgba(141,0,113,.24705882);stroke-width:.09525;stroke-miterlimit:41.994751"/><path d="M103.29863 114.44288L96.29775 114.08093" style="fill:none;stroke:rgba(141,0,113,.24705882);stroke-width:.09525;stroke-miterlimit:41.994751"/><path d="M103.29863 114.44288L103.76535 106.09898" style="fill:none;stroke:rgba(141,0,113,.24705882);stroke-width:.09525;stroke-miterlimit:41.994751"/><path d="M96.29775 114.08093L81.7245 114.74768" style="fill:none;stroke:rgba(141,0,113,.24705882);stroke-width:.09525;stroke-miterlimit:41.994751"/><path d="M82.457925 132.2832L75.980925 132.969" style="fill:none;stroke:rgba(141,0,113,.24705882);stroke-width:.09525;stroke-miterlimit:41.994751"/><path d="M94.69755 129.58763L103.29863 114.44288" style="fill:none;stroke:rgba(141,0,113,.24705882);stroke-width:.09525;stroke-miterlimit:41.994751"/><path d="M94.69755 129.58763L82.457925 132.2832" style="fill:none;stroke:rgba(141,0,113,.24705882);stroke-width:.09525;stroke-miterlimit:41.994751"/><path d="M100.23157 149.47583L110.78528 146.42783" style="fill:none;stroke:rgba(141,0,113,.24705882);stroke-width:.09525;stroke-miterlimit:41.994751"/><path d="M110.78528 146.42783L112.17593 138.19823" style="fill:none;stroke:rgba(141,0,113,.24705882);stroke-width:.09525;stroke-miterlimit:41.994751"/><path d="M81.7245 114.74768L75.847575 114.32858" style="fill:none;stroke:rgba(141,0,113,.24705882);stroke-width:.09525;stroke-miterlimit:41.994751"/><path d="M103.29863 114.44288L111.90922 108.88028" style="fill:none;stroke:rgba(137,0,117,.24705882);stroke-width:.09525;stroke-miterlimit:41.994751"/><path d="M112.38547 108.88028A.47625 .47625 0 00111.43297 108.88028A.47625 .47625 0 00112.38547 108.88028z" fill="rgba(137,0,117,.24705882)"/><path d="M104.32733 101.24123L103.76535 106.09898" style="fill:none;stroke:rgba(133,0,121,.24705882);stroke-width:.09525;stroke-miterlimit:41.994751"/><path d="M111.90922 108.88028L111.9378 116.2812" style="fill:none;stroke:rgba(125,0,129,.24705882);stroke-width:.09525;stroke-miterlimit:41.994751"/><path d="M104.80357 101.24123A.47625 .47625 0 00103.85108 101.24123A.47625 .47625 0 00104.80357 101.24123z" fill="rgba(125,0,129,.24705882)"/><path d="M112.41405 116.2812A.47625 .47625 0 00111.46155 116.2812A.47625 .47625 0 00112.41405 116.2812z" fill="rgba(113,0,137,.24705882)"/><path d="M104.47973 95.297625L104.32733 101.24123" style="fill:none;stroke:rgba(113,0,141,.24705882);stroke-width:.09525;stroke-miterlimit:41.994751"/><path d="M111.9378 116.2812L111.83303 120.78652" style="fill:none;stroke:rgba(105,0,145,.24705882);stroke-width:.09525;stroke-miterlimit:41.994751"/><path d="M77.4573 197.71995A.47625 .47625 0 0076.5048 197.71995A.47625 .47625 0 0077.4573 197.71995z" fill="rgba(105,0,149,.24705882)"/><path d="M76.98105 197.71995H102.70808" style="fill:none;stroke:rgba(105,0,149,.24705882);stroke-width:.09525;stroke-miterlimit:41.994751"/><path d="M5.381625 101.54603A.47625 .47625 0 004.429125 101.54603A.47625 .47625 0 005.381625 101.54603z" fill="rgba(105,0,149,.24705882)"/><path d="M131.84505 150.85695A.47625 .47625 0 00130.89255 150.85695A.47625 .47625 0 00131.84505 150.85695z" fill="rgba(105,0,149,.24705882)"/><path d="M70.61835 5.31495A.47625 .47625 0 0069.66585 5.31495A.47625 .47625 0 0070.61835 5.31495z" fill="rgba(105,0,149,.24705882)"/><path d="M1.609725 73.561575A.47625 .47625 0 00.657225 73.561575A.47625 .47625 0 001.609725 73.561575z" fill="rgba(105,0,149,.24705882)"/><path d="M37.50945 94.783275A.47625 .47625 0 0036.55695 94.783275A.47625 .47625 0 0037.50945 94.783275z" fill="rgba(105,0,149,.24705882)"/><path d="M103.18433 197.71995A.47625 .47625 0 00102.23183 197.71995A.47625 .47625 0 00103.18433 197.71995z" fill="rgba(105,0,149,.24705882)"/><path d="M30.34665 139.95083A.47625 .47625 0 0029.39415 139.95083A.47625 .47625 0 0030.34665 139.95083z" fill="rgba(105,0,149,.24705882)"/><path d="M109.74705 178.1175A.47625 .47625 0 00108.79455 178.1175A.47625 .47625 0 00109.74705 178.1175z" fill="rgba(105,0,149,.24705882)"/><path d="M42.72915 9.7536A.47625 .47625 0 0041.77665 9.7536A.47625 .47625 0 0042.72915 9.7536z" fill="rgba(105,0,149,.24705882)"/><path d="M40.0431 83.3628A.47625 .47625 0 0039.0906 83.3628A.47625 .47625 0 0040.0431 83.3628z" fill="rgba(105,0,149,.24705882)"/><path d="M44.281725 142.5702A.47625 .47625 0 0043.329225 142.5702A.47625 .47625 0 0044.281725 142.5702z" fill="rgba(105,0,149,.24705882)"/><path d="M135.9027 120.8913A.47625 .47625 0 00134.9502 120.8913A.47625 .47625 0 00135.9027 120.8913z" fill="rgba(105,0,149,.24705882)"/><path d="M86.572725 43.081575A.47625 .47625 0 0085.620225 43.081575A.47625 .47625 0 0086.572725 43.081575z" fill="rgba(105,0,149,.24705882)"/><path d="M.89535 31.765875A.47625 .47625 0 00-.05715 31.765875A.47625 .47625 0 00.89535 31.765875z" fill="rgba(105,0,149,.24705882)"/><path d="M4.905375 101.54603L29.8704 139.95083" style="fill:none;stroke:rgba(105,0,149,.24705882);stroke-width:.09525;stroke-miterlimit:41.994751"/><path d="M70.1421 5.31495L42.2529 9.7536" style="fill:none;stroke:rgba(105,0,149,.24705882);stroke-width:.09525;stroke-miterlimit:41.994751"/><path d="M.4191 31.765875L1.133475 73.561575" style="fill:none;stroke:rgba(105,0,149,.24705882);stroke-width:.09525;stroke-miterlimit:41.994751"/><path d="M39.56685 83.3628L37.0332 94.783275" style="fill:none;stroke:rgba(105,0,149,.24705882);stroke-width:.09525;stroke-miterlimit:41.994751"/><path d="M86.096475 43.081575L70.1421 5.31495" style="fill:none;stroke:rgba(105,0,149,.24705882);stroke-width:.09525;stroke-miterlimit:41.994751"/><path d="M109.2708 178.1175L102.70808 197.71995" style="fill:none;stroke:rgba(105,0,149,.24705882);stroke-width:.09525;stroke-miterlimit:41.994751"/><path d="M29.8704 139.95083L43.805475 142.5702" style="fill:none;stroke:rgba(105,0,149,.24705882);stroke-width:.09525;stroke-miterlimit:41.994751"/><path d="M1.133475 73.561575L4.905375 101.54603" style="fill:none;stroke:rgba(105,0,149,.24705882);stroke-width:.09525;stroke-miterlimit:41.994751"/><path d="M105.25125 89.8017L86.096475 43.081575" style="fill:none;stroke:rgba(105,0,149,.24705882);stroke-width:.09525;stroke-miterlimit:41.994751"/><path d="M105.7275 89.8017A.47625 .47625 0 00104.775 89.8017A.47625 .47625 0 00105.7275 89.8017z" fill="rgba(105,0,149,.24705882)"/><path d="M86.096475 43.081575L75.68565 43.024425" style="fill:none;stroke:rgba(105,0,149,.24705882);stroke-width:.09525;stroke-miterlimit:41.994751"/><path d="M146.97075 28.603575A.47625 .47625 0 00146.01825 28.603575A.47625 .47625 0 00146.97075 28.603575z" fill="rgba(105,0,149,.24705882)"/><path d="M142.1511 2.428875L70.1421 5.31495" style="fill:none;stroke:rgba(105,0,149,.24705882);stroke-width:.09525;stroke-miterlimit:41.994751"/><path d="M76.1619 43.024425A.47625 .47625 0 0075.2094 43.024425A.47625 .47625 0 0076.1619 43.024425z" fill="rgba(105,0,149,.24705882)"/><path d="M142.1511 2.428875L146.4945 28.603575" style="fill:none;stroke:rgba(105,0,149,.24705882);stroke-width:.09525;stroke-miterlimit:41.994751"/><path d="M75.68565 43.024425L74.914125 52.4637" style="fill:none;stroke:rgba(105,0,149,.24705882);stroke-width:.09525;stroke-miterlimit:41.994751"/><path d="M29.8704 139.95083L43.79595 165.41115" style="fill:none;stroke:rgba(105,0,149,.24705882);stroke-width:.09525;stroke-miterlimit:41.994751"/><path d="M75.390375 52.4637A.47625 .47625 0 0074.437875 52.4637A.47625 .47625 0 0075.390375 52.4637z" fill="rgba(105,0,149,.24705882)"/><path d="M142.62735 2.428875A.47625 .47625 0 00141.67485 2.428875A.47625 .47625 0 00142.62735 2.428875z" fill="rgba(105,0,149,.24705882)"/><path d="M44.2722 165.41115A.47625 .47625 0 0043.3197 165.41115A.47625 .47625 0 0044.2722 165.41115z" fill="rgba(105,0,149,.24705882)"/><path d="M55.34025 189.88088L76.98105 197.71995" style="fill:none;stroke:rgba(105,0,149,.24705882);stroke-width:.09525;stroke-miterlimit:41.994751"/><path d="M42.2529 9.7536L20.183475 6.410325" style="fill:none;stroke:rgba(105,0,149,.24705882);stroke-width:.09525;stroke-miterlimit:41.994751"/><path d="M20.183475 6.410325L.4191 31.765875" style="fill:none;stroke:rgba(105,0,149,.24705882);stroke-width:.09525;stroke-miterlimit:41.994751"/><path d="M43.79595 165.41115L55.34025 189.88088" style="fill:none;stroke:rgba(101,0,149,.24705882);stroke-width:.09525;stroke-miterlimit:41.994751"/><path d="M135.42645 120.8913L134.81685 99.240975" style="fill:none;stroke:rgba(101,0,149,.24705882);stroke-width:.09525;stroke-miterlimit:41.994751"/><path d="M134.81685 99.240975L105.25125 89.8017" style="fill:none;stroke:rgba(101,0,149,.24705882);stroke-width:.09525;stroke-miterlimit:41.994751"/><path d="M20.659725 6.410325A.47625 .47625 0 0019.707225 6.410325A.47625 .47625 0 0020.659725 6.410325z" fill="rgba(101,0,149,.24705882)"/><path d="M55.8165 189.88088A.47625 .47625 0 0054.864 189.88088A.47625 .47625 0 0055.8165 189.88088z" fill="rgba(101,0,149,.24705882)"/><path d="M135.2931 99.240975A.47625 .47625 0 00134.3406 99.240975A.47625 .47625 0 00135.2931 99.240975z" fill="rgba(101,0,149,.24705882)"/><path d="M146.06588 58.2549L146.4945 28.603575" style="fill:none;stroke:rgba(101,0,153,.24705882);stroke-width:.09525;stroke-miterlimit:41.994751"/><path d="M149.5044 89.43975L134.81685 99.240975" style="fill:none;stroke:rgba(101,0,153,.24705882);stroke-width:.09525;stroke-miterlimit:41.994751"/><path d="M105.25125 89.8017L104.47973 95.297625" style="fill:none;stroke:rgba(101,0,153,.24705882);stroke-width:.09525;stroke-miterlimit:41.994751"/><path d="M109.2708 178.1175L141.06525 169.4307" style="fill:none;stroke:rgba(101,0,153,.24705882);stroke-width:.09525;stroke-miterlimit:41.994751"/><path d="M102.70808 197.71995L141.06525 169.4307" style="fill:none;stroke:rgba(101,0,153,.24705882);stroke-width:.09525;stroke-miterlimit:41.994751"/><path d="M58.1406 85.1916L39.56685 83.3628" style="fill:none;stroke:rgba(101,0,153,.24705882);stroke-width:.09525;stroke-miterlimit:41.994751"/><path d="M43.805475 142.5702L55.521225 142.4559" style="fill:none;stroke:rgba(101,0,153,.24705882);stroke-width:.09525;stroke-miterlimit:41.994751"/><path d="M124.52032 149.79968L131.3688 150.85695" style="fill:none;stroke:rgba(101,0,153,.24705882);stroke-width:.09525;stroke-miterlimit:41.994751"/><path d="M37.77615 21.1836L42.2529 9.7536" style="fill:none;stroke:rgba(101,0,153,.24705882);stroke-width:.09525;stroke-miterlimit:41.994751"/><path d="M39.56685 83.3628L38.280975 78.152625" style="fill:none;stroke:rgba(101,0,153,.24705882);stroke-width:.09525;stroke-miterlimit:41.994751"/><path d="M37.0332 94.783275L58.1406 85.1916" style="fill:none;stroke:rgba(101,0,153,.24705882);stroke-width:.09525;stroke-miterlimit:41.994751"/><path d="M149.98065 89.43975A.47625 .47625 0 00149.02815 89.43975A.47625 .47625 0 00149.98065 89.43975z" fill="rgba(101,0,153,.24705882)"/><path d="M149.5044 89.43975L146.06588 58.2549" style="fill:none;stroke:rgba(101,0,153,.24705882);stroke-width:.09525;stroke-miterlimit:41.994751"/><path d="M146.54212 58.2549A.47625 .47625 0 00145.58963 58.2549A.47625 .47625 0 00146.54212 58.2549z" fill="rgba(101,0,153,.24705882)"/><path d="M80.076675 175.63147L76.98105 197.71995" style="fill:none;stroke:rgba(101,0,153,.24705882);stroke-width:.09525;stroke-miterlimit:41.994751"/><path d="M75.0189 175.66958L76.98105 197.71995" style="fill:none;stroke:rgba(101,0,153,.24705882);stroke-width:.09525;stroke-miterlimit:41.994751"/><path d="M84.5058 175.65053L102.70808 197.71995" style="fill:none;stroke:rgba(101,0,153,.24705882);stroke-width:.09525;stroke-miterlimit:41.994751"/><path d="M89.163525 173.84078L102.70808 197.71995" style="fill:none;stroke:rgba(101,0,153,.24705882);stroke-width:.09525;stroke-miterlimit:41.994751"/><path d="M92.8116 170.27843L109.2708 178.1175" style="fill:none;stroke:rgba(101,0,153,.24705882);stroke-width:.09525;stroke-miterlimit:41.994751"/><path d="M94.554675 165.8493L109.2708 178.1175" style="fill:none;stroke:rgba(101,0,153,.24705882);stroke-width:.09525;stroke-miterlimit:41.994751"/><path d="M64.67475 165.49687L43.79595 165.41115" style="fill:none;stroke:rgba(101,0,153,.24705882);stroke-width:.09525;stroke-miterlimit:41.994751"/><path d="M64.684275 160.69628L43.79595 165.41115" style="fill:none;stroke:rgba(101,0,153,.24705882);stroke-width:.09525;stroke-miterlimit:41.994751"/><path d="M144.73237 155.1051L135.42645 120.8913" style="fill:none;stroke:rgba(101,0,153,.24705882);stroke-width:.09525;stroke-miterlimit:41.994751"/><path d="M144.73237 155.1051L131.3688 150.85695" style="fill:none;stroke:rgba(101,0,153,.24705882);stroke-width:.09525;stroke-miterlimit:41.994751"/><path d="M70.58025 173.5455L55.34025 189.88088" style="fill:none;stroke:rgba(101,0,153,.24705882);stroke-width:.09525;stroke-miterlimit:41.994751"/><path d="M66.5607 170.307L55.34025 189.88088" style="fill:none;stroke:rgba(101,0,153,.24705882);stroke-width:.09525;stroke-miterlimit:41.994751"/><path d="M104.95597 95.297625A.47625 .47625 0 00104.00348 95.297625A.47625 .47625 0 00104.95597 95.297625z" fill="rgba(101,0,153,.24705882)"/><path d="M141.5415 169.4307A.47625 .47625 0 00140.589 169.4307A.47625 .47625 0 00141.5415 169.4307z" fill="rgba(97,0,153,.24705882)"/><path d="M39.26205 53.425725A.47625 .47625 0 0038.30955 53.425725A.47625 .47625 0 0039.26205 53.425725z" fill="rgba(97,0,153,.24705882)"/><path d="M74.285475 104.5083A.47625 .47625 0 0073.332975 104.5083A.47625 .47625 0 0074.285475 104.5083z" fill="rgba(97,0,153,.24705882)"/><path d="M104.34637 126.06338A.47625 .47625 0 00103.39388 126.06338A.47625 .47625 0 00104.34637 126.06338z" fill="rgba(97,0,153,.24705882)"/><path d="M46.643925 53.692425A.47625 .47625 0 0045.691425 53.692425A.47625 .47625 0 0046.643925 53.692425z" fill="rgba(97,0,153,.24705882)"/><path d="M78.35265 165.57308A.47625 .47625 0 0077.40015 165.57308A.47625 .47625 0 0078.35265 165.57308z" fill="rgba(97,0,153,.24705882)"/><path d="M38.2524 21.1836A.47625 .47625 0 0037.2999 21.1836A.47625 .47625 0 0038.2524 21.1836z" fill="rgba(97,0,153,.24705882)"/><path d="M124.99657 149.79968A.47625 .47625 0 00124.04408 149.79968A.47625 .47625 0 00124.99657 149.79968z" fill="rgba(97,0,153,.24705882)"/><path d="M48.948975 37.7952A.47625 .47625 0 0047.996475 37.7952A.47625 .47625 0 0048.948975 37.7952z" fill="rgba(97,0,153,.24705882)"/><path d="M100.23157 151.3332A.47625 .47625 0 0099.279075 151.3332A.47625 .47625 0 00100.23157 151.3332z" fill="rgba(97,0,153,.24705882)"/><path d="M38.204775 39.0144A.47625 .47625 0 0037.252275 39.0144A.47625 .47625 0 0038.204775 39.0144z" fill="rgba(97,0,153,.24705882)"/><path d="M112.4712 128.04458A.47625 .47625 0 00111.5187 128.04458A.47625 .47625 0 00112.4712 128.04458z" fill="rgba(97,0,153,.24705882)"/><path d="M49.387125 47.863125A.47625 .47625 0 0048.434625 47.863125A.47625 .47625 0 0049.387125 47.863125z" fill="rgba(97,0,153,.24705882)"/><path d="M112.30927 120.78652A.47625 .47625 0 00111.35678 120.78652A.47625 .47625 0 00112.30927 120.78652z" fill="rgba(97,0,153,.24705882)"/><path d="M55.997475 142.4559A.47625 .47625 0 0055.044975 142.4559A.47625 .47625 0 0055.997475 142.4559z" fill="rgba(97,0,153,.24705882)"/><path d="M104.10825 120.98655A.47625 .47625 0 00103.15575 120.98655A.47625 .47625 0 00104.10825 120.98655z" fill="rgba(97,0,153,.24705882)"/><path d="M68.799075 62.865A.47625 .47625 0 0067.846575 62.865A.47625 .47625 0 0068.799075 62.865z" fill="rgba(97,0,153,.24705882)"/><path d="M68.8848 85.753575A.47625 .47625 0 0067.9323 85.753575A.47625 .47625 0 0068.8848 85.753575z" fill="rgba(97,0,153,.24705882)"/><path d="M100.71735 112.45215A.47625 .47625 0 0099.76485 112.45215A.47625 .47625 0 00100.71735 112.45215z" fill="rgba(97,0,153,.24705882)"/><path d="M38.757225 78.152625A.47625 .47625 0 0037.804725 78.152625A.47625 .47625 0 0038.757225 78.152625z" fill="rgba(97,0,153,.24705882)"/><path d="M54.1782 60.283725A.47625 .47625 0 0053.2257 60.283725A.47625 .47625 0 0054.1782 60.283725z" fill="rgba(97,0,153,.24705882)"/><path d="M85.010625 120.90082A.47625 .47625 0 0084.058125 120.90082A.47625 .47625 0 0085.010625 120.90082z" fill="rgba(97,0,153,.24705882)"/><path d="M53.9115 52.758975A.47625 .47625 0 0052.959 52.758975A.47625 .47625 0 0053.9115 52.758975z" fill="rgba(97,0,153,.24705882)"/><path d="M87.887175 111.92827A.47625 .47625 0 0086.934675 111.92827A.47625 .47625 0 0087.887175 111.92827z" fill="rgba(97,0,153,.24705882)"/><path d="M58.169175 59.34075A.47625 .47625 0 0057.216675 59.34075A.47625 .47625 0 0058.169175 59.34075z" fill="rgba(97,0,153,.24705882)"/><path d="M77.8764 157.53397A.47625 .47625 0 0076.9239 157.53397A.47625 .47625 0 0077.8764 157.53397z" fill="rgba(97,0,153,.24705882)"/><path d="M117.348 148.6662A.47625 .47625 0 00116.3955 148.6662A.47625 .47625 0 00117.348 148.6662z" fill="rgba(97,0,153,.24705882)"/><path d="M63.941325 142.3035A.47625 .47625 0 0062.988825 142.3035A.47625 .47625 0 0063.941325 142.3035z" fill="rgba(97,0,153,.24705882)"/><path d="M58.61685 85.1916A.47625 .47625 0 0057.66435 85.1916A.47625 .47625 0 0058.61685 85.1916z" fill="rgba(97,0,153,.24705882)"/><path d="M73.980675 115.62398A.47625 .47625 0 0073.028175 115.62398A.47625 .47625 0 0073.980675 115.62398z" fill="rgba(97,0,153,.24705882)"/><path d="M66.8655 116.30978A.47625 .47625 0 0065.913 116.30978A.47625 .47625 0 0066.8655 116.30978z" fill="rgba(97,0,153,.24705882)"/><path d="M70.4469 115.43348A.47625 .47625 0 0069.4944 115.43348A.47625 .47625 0 0070.4469 115.43348z" fill="rgba(97,0,153,.24705882)"/><path d="M86.953725 144.00848A.47625 .47625 0 0086.001225 144.00848A.47625 .47625 0 0086.953725 144.00848z" fill="rgba(97,0,153,.24705882)"/><path d="M76.819125 142.36065A.47625 .47625 0 0075.866625 142.36065A.47625 .47625 0 0076.819125 142.36065z" fill="rgba(97,0,153,.24705882)"/><path d="M74.037825 121.1199A.47625 .47625 0 0073.085325 121.1199A.47625 .47625 0 0074.037825 121.1199z" fill="rgba(97,0,153,.24705882)"/><path d="M85.601175 125.52045A.47625 .47625 0 0084.648675 125.52045A.47625 .47625 0 0085.601175 125.52045z" fill="rgba(97,0,153,.24705882)"/><path d="M74.08545 126.47295A.47625 .47625 0 0073.13295 126.47295A.47625 .47625 0 0074.08545 126.47295z" fill="rgba(97,0,153,.24705882)"/><path d="M68.40855 85.753575L68.322825 62.865" style="fill:none;stroke:rgba(97,0,153,.24705882);stroke-width:.09525;stroke-miterlimit:41.994751"/><path d="M46.167675 53.692425L53.43525 52.758975" style="fill:none;stroke:rgba(97,0,153,.24705882);stroke-width:.09525;stroke-miterlimit:41.994751"/><path d="M85.124925 125.52045L73.6092 126.47295" style="fill:none;stroke:rgba(97,0,153,.24705882);stroke-width:.09525;stroke-miterlimit:41.994751"/><path d="M68.322825 62.865L57.692925 59.34075" style="fill:none;stroke:rgba(97,0,153,.24705882);stroke-width:.09525;stroke-miterlimit:41.994751"/><path d="M38.280975 78.152625L38.7858 53.425725" style="fill:none;stroke:rgba(97,0,153,.24705882);stroke-width:.09525;stroke-miterlimit:41.994751"/><path d="M73.6092 126.47295L73.561575 121.1199" style="fill:none;stroke:rgba(97,0,153,.24705882);stroke-width:.09525;stroke-miterlimit:41.994751"/><path d="M73.6092 126.47295L76.342875 142.36065" style="fill:none;stroke:rgba(97,0,153,.24705882);stroke-width:.09525;stroke-miterlimit:41.994751"/><path d="M73.561575 121.1199L73.504425 115.62398" style="fill:none;stroke:rgba(97,0,153,.24705882);stroke-width:.09525;stroke-miterlimit:41.994751"/><path d="M76.342875 142.36065L63.465075 142.3035" style="fill:none;stroke:rgba(97,0,153,.24705882);stroke-width:.09525;stroke-miterlimit:41.994751"/><path d="M76.342875 142.36065L86.477475 144.00848" style="fill:none;stroke:rgba(97,0,153,.24705882);stroke-width:.09525;stroke-miterlimit:41.994751"/><path d="M69.97065 115.43348L66.38925 116.30978" style="fill:none;stroke:rgba(97,0,153,.24705882);stroke-width:.09525;stroke-miterlimit:41.994751"/><path d="M86.477475 144.00848L99.755325 151.3332" style="fill:none;stroke:rgba(97,0,153,.24705882);stroke-width:.09525;stroke-miterlimit:41.994751"/><path d="M77.40015 157.53397L76.342875 142.36065" style="fill:none;stroke:rgba(97,0,153,.24705882);stroke-width:.09525;stroke-miterlimit:41.994751"/><path d="M87.410925 111.92827L84.534375 120.90082" style="fill:none;stroke:rgba(97,0,153,.24705882);stroke-width:.09525;stroke-miterlimit:41.994751"/><path d="M84.534375 120.90082L85.124925 125.52045" style="fill:none;stroke:rgba(97,0,153,.24705882);stroke-width:.09525;stroke-miterlimit:41.994751"/><path d="M53.43525 52.758975L53.70195 60.283725" style="fill:none;stroke:rgba(97,0,153,.24705882);stroke-width:.09525;stroke-miterlimit:41.994751"/><path d="M100.2411 112.45215L87.410925 111.92827" style="fill:none;stroke:rgba(97,0,153,.24705882);stroke-width:.09525;stroke-miterlimit:41.994751"/><path d="M53.70195 60.283725L57.692925 59.34075" style="fill:none;stroke:rgba(97,0,153,.24705882);stroke-width:.09525;stroke-miterlimit:41.994751"/><path d="M103.87013 126.06338L103.632 120.98655" style="fill:none;stroke:rgba(97,0,153,.24705882);stroke-width:.09525;stroke-miterlimit:41.994751"/><path d="M85.124925 125.52045L86.477475 144.00848" style="fill:none;stroke:rgba(97,0,153,.24705882);stroke-width:.09525;stroke-miterlimit:41.994751"/><path d="M103.632 120.98655L100.2411 112.45215" style="fill:none;stroke:rgba(97,0,153,.24705882);stroke-width:.09525;stroke-miterlimit:41.994751"/><path d="M111.83303 120.78652L111.99495 128.04458" style="fill:none;stroke:rgba(97,0,153,.24705882);stroke-width:.09525;stroke-miterlimit:41.994751"/><path d="M38.7858 53.425725L46.167675 53.692425" style="fill:none;stroke:rgba(97,0,153,.24705882);stroke-width:.09525;stroke-miterlimit:41.994751"/><path d="M38.7858 53.425725L37.728525 39.0144" style="fill:none;stroke:rgba(97,0,153,.24705882);stroke-width:.09525;stroke-miterlimit:41.994751"/><path d="M111.99495 128.04458L103.87013 126.06338" style="fill:none;stroke:rgba(97,0,153,.24705882);stroke-width:.09525;stroke-miterlimit:41.994751"/><path d="M68.40855 85.753575L73.809225 104.5083" style="fill:none;stroke:rgba(97,0,153,.24705882);stroke-width:.09525;stroke-miterlimit:41.994751"/><path d="M99.755325 151.3332L116.87175 148.6662" style="fill:none;stroke:rgba(97,0,153,.24705882);stroke-width:.09525;stroke-miterlimit:41.994751"/><path d="M37.728525 39.0144L48.472725 37.7952" style="fill:none;stroke:rgba(97,0,153,.24705882);stroke-width:.09525;stroke-miterlimit:41.994751"/><path d="M116.87175 148.6662L124.52032 149.79968" style="fill:none;stroke:rgba(97,0,153,.24705882);stroke-width:.09525;stroke-miterlimit:41.994751"/><path d="M37.728525 39.0144L37.77615 21.1836" style="fill:none;stroke:rgba(97,0,153,.24705882);stroke-width:.09525;stroke-miterlimit:41.994751"/><path d="M73.504425 115.62398L69.97065 115.43348" style="fill:none;stroke:rgba(97,0,153,.24705882);stroke-width:.09525;stroke-miterlimit:41.994751"/><path d="M48.472725 37.7952L48.910875 47.863125" style="fill:none;stroke:rgba(97,0,153,.24705882);stroke-width:.09525;stroke-miterlimit:41.994751"/><path d="M73.504425 115.62398L73.809225 104.5083" style="fill:none;stroke:rgba(97,0,153,.24705882);stroke-width:.09525;stroke-miterlimit:41.994751"/><path d="M68.40855 85.753575L58.1406 85.1916" style="fill:none;stroke:rgba(97,0,153,.24705882);stroke-width:.09525;stroke-miterlimit:41.994751"/><path d="M77.8764 165.57308L77.40015 157.53397" style="fill:none;stroke:rgba(97,0,153,.24705882);stroke-width:.09525;stroke-miterlimit:41.994751"/><path d="M116.87175 148.6662L111.99495 128.04458" style="fill:none;stroke:rgba(97,0,153,.24705882);stroke-width:.09525;stroke-miterlimit:41.994751"/><path d="M55.521225 142.4559L63.465075 142.3035" style="fill:none;stroke:rgba(97,0,153,.24705882);stroke-width:.09525;stroke-miterlimit:41.994751"/><path d="M94.630875 160.41053L141.06525 169.4307" style="fill:none;stroke:rgba(97,0,157,.24705882);stroke-width:.09525;stroke-miterlimit:41.994751"/><path d="M94.630875 160.41053L77.8764 165.57308" style="fill:none;stroke:rgba(97,0,157,.24705882);stroke-width:.09525;stroke-miterlimit:41.994751"/><path d="M66.5607 170.307L77.8764 165.57308" style="fill:none;stroke:rgba(97,0,157,.24705882);stroke-width:.09525;stroke-miterlimit:41.994751"/><path d="M77.8764 165.57308L64.67475 165.49687" style="fill:none;stroke:rgba(97,0,157,.24705882);stroke-width:.09525;stroke-miterlimit:41.994751"/><path d="M77.8764 165.57308L64.684275 160.69628" style="fill:none;stroke:rgba(97,0,157,.24705882);stroke-width:.09525;stroke-miterlimit:41.994751"/><path d="M77.8764 165.57308L70.58025 173.5455" style="fill:none;stroke:rgba(97,0,157,.24705882);stroke-width:.09525;stroke-miterlimit:41.994751"/><path d="M77.8764 165.57308L75.0189 175.66958" style="fill:none;stroke:rgba(97,0,157,.24705882);stroke-width:.09525;stroke-miterlimit:41.994751"/><path d="M77.8764 165.57308L80.076675 175.63147" style="fill:none;stroke:rgba(97,0,157,.24705882);stroke-width:.09525;stroke-miterlimit:41.994751"/><path d="M94.554675 165.8493L77.8764 165.57308" style="fill:none;stroke:rgba(97,0,157,.24705882);stroke-width:.09525;stroke-miterlimit:41.994751"/><path d="M92.8116 170.27843L77.8764 165.57308" style="fill:none;stroke:rgba(97,0,157,.24705882);stroke-width:.09525;stroke-miterlimit:41.994751"/><path d="M89.163525 173.84078L77.8764 165.57308" style="fill:none;stroke:rgba(97,0,157,.24705882);stroke-width:.09525;stroke-miterlimit:41.994751"/><path d="M84.5058 175.65053L77.8764 165.57308" style="fill:none;stroke:rgba(97,0,157,.24705882);stroke-width:.09525;stroke-miterlimit:41.994751"/><path d="M141.06525 169.4307L144.73237 155.1051" style="fill:none;stroke:rgba(97,0,157,.24705882);stroke-width:.09525;stroke-miterlimit:41.994751"/><path d="M84.98205 175.65053A.47625 .47625 0 0084.02955 175.65053A.47625 .47625 0 0084.98205 175.65053z" fill="rgba(97,0,157,.24705882)"/><path d="M95.107125 160.41053A.47625 .47625 0 0094.154625 160.41053A.47625 .47625 0 0095.107125 160.41053z" fill="rgba(97,0,157,.24705882)"/><path d="M71.0565 173.5455A.47625 .47625 0 0070.104 173.5455A.47625 .47625 0 0071.0565 173.5455z" fill="rgba(97,0,157,.24705882)"/><path d="M95.030925 165.8493A.47625 .47625 0 0094.078425 165.8493A.47625 .47625 0 0095.030925 165.8493z" fill="rgba(97,0,157,.24705882)"/><path d="M75.49515 175.66958A.47625 .47625 0 0074.54265 175.66958A.47625 .47625 0 0075.49515 175.66958z" fill="rgba(97,0,157,.24705882)"/><path d="M65.151 165.49687A.47625 .47625 0 0064.1985 165.49687A.47625 .47625 0 0065.151 165.49687z" fill="rgba(97,0,157,.24705882)"/><path d="M80.552925 175.63147A.47625 .47625 0 0079.600425 175.63147A.47625 .47625 0 0080.552925 175.63147z" fill="rgba(97,0,157,.24705882)"/><path d="M67.03695 170.307A.47625 .47625 0 0066.08445 170.307A.47625 .47625 0 0067.03695 170.307z" fill="rgba(97,0,157,.24705882)"/><path d="M93.28785 170.27843A.47625 .47625 0 0092.33535 170.27843A.47625 .47625 0 0093.28785 170.27843z" fill="rgba(97,0,157,.24705882)"/><path d="M65.160525 160.69628A.47625 .47625 0 0064.208025 160.69628A.47625 .47625 0 0065.160525 160.69628z" fill="rgba(97,0,157,.24705882)"/><path d="M89.639775 173.84078A.47625 .47625 0 0088.687275 173.84078A.47625 .47625 0 0089.639775 173.84078z" fill="rgba(97,0,157,.24705882)"/><path d="M145.20862 155.1051A.47625 .47625 0 00144.25612 155.1051A.47625 .47625 0 00145.20862 155.1051z" fill="rgba(97,0,157,.24705882)"/><path d="M85.124925 125.52045L89.773125 125.40615" style="fill:none;stroke:rgba(97,0,157,.24705882);stroke-width:.09525;stroke-miterlimit:41.994751"/><path d="M145.68488 .85725L142.1511 2.428875" style="fill:none;stroke:rgba(97,0,157,.24705882);stroke-width:.09525;stroke-miterlimit:41.994751"/><path d="M90.249375 125.40615A.47625 .47625 0 0089.296875 125.40615A.47625 .47625 0 0090.249375 125.40615z" fill="rgba(93,0,157,.24705882)"/><path d="M18.53565 100.3554L37.0332 94.783275" style="fill:none;stroke:rgba(93,0,161,.24705882);stroke-width:.09525;stroke-miterlimit:41.994751"/><path d="M18.53565 100.3554L4.905375 101.54603" style="fill:none;stroke:rgba(93,0,161,.24705882);stroke-width:.09525;stroke-miterlimit:41.994751"/><path d="M147.16125 .43815A.47625 .47625 0 00146.20875 .43815A.47625 .47625 0 00147.16125 .43815z" fill="rgba(89,0,161,.24705882)"/><path d="M146.685 .43815L145.68488 .85725" style="fill:none;stroke:rgba(89,0,165,.24705882);stroke-width:.09525;stroke-miterlimit:41.994751"/><path d="M89.773125 125.40615L94.992825 124.80608" style="fill:none;stroke:rgba(89,0,165,.24705882);stroke-width:.09525;stroke-miterlimit:41.994751"/><path d="M146.16112 .85725A.47625 .47625 0 00145.20863 .85725A.47625 .47625 0 00146.16112 .85725z" fill="rgba(85,0,165,.24705882)"/><path d="M19.0119 100.3554A.47625 .47625 0 0018.0594 100.3554A.47625 .47625 0 0019.0119 100.3554z" fill="rgba(85,0,170,.24705882)"/><path d="M95.469075 124.80608A.47625 .47625 0 0094.516575 124.80608A.47625 .47625 0 0095.469075 124.80608z" fill="rgba(80,0,174,.24705882)"/><path d="M94.992825 124.80608L96.45015 127.3302" style="fill:none;stroke:rgba(76,0,178,.24705882);stroke-width:.09525;stroke-miterlimit:41.994751"/><path d="M74.247375 54.930675L74.914125 52.4637" style="fill:none;stroke:rgba(76,0,178,.24705882);stroke-width:.09525;stroke-miterlimit:41.994751"/><path d="M48.910875 47.863125L49.01565 48.63465" style="fill:none;stroke:rgba(76,0,178,.24705882);stroke-width:.09525;stroke-miterlimit:41.994751"/><path d="M96.9264 127.3302A.47625 .47625 0 0095.9739 127.3302A.47625 .47625 0 0096.9264 127.3302z" fill="rgba(72,0,182,.24705882)"/><path d="M96.45015 127.3302L95.869125 131.6355" style="fill:none;stroke:rgba(68,0,186,.24705882);stroke-width:.09525;stroke-miterlimit:41.994751"/><path d="M96.345375 131.6355A.47625 .47625 0 0095.392875 131.6355A.47625 .47625 0 0096.345375 131.6355z" fill="rgba(60,0,194,.24705882)"/><path d="M95.869125 131.6355L95.850075 132.56895" style="fill:none;stroke:rgba(60,0,194,.24705882);stroke-width:.09525;stroke-miterlimit:41.994751"/><path d="M87.4014 131.92125A.47625 .47625 0 0086.4489 131.92125A.47625 .47625 0 0087.4014 131.92125z" fill="rgba(56,0,198,.24705882)"/><path d="M85.6869 121.1961A.47625 .47625 0 0084.7344 121.1961A.47625 .47625 0 0085.6869 121.1961z" fill="rgba(56,0,198,.24705882)"/><path d="M78.7146 112.70933A.47625 .47625 0 0077.7621 112.70933A.47625 .47625 0 0078.7146 112.70933z" fill="rgba(56,0,198,.24705882)"/><path d="M96.326325 132.56895A.47625 .47625 0 0095.373825 132.56895A.47625 .47625 0 0096.326325 132.56895z" fill="rgba(56,0,198,.24705882)"/><path d="M96.012 137.14095A.47625 .47625 0 0095.0595 137.14095A.47625 .47625 0 0096.012 137.14095z" fill="rgba(56,0,198,.24705882)"/><path d="M97.259775 143.54175A.47625 .47625 0 0096.307275 143.54175A.47625 .47625 0 0097.259775 143.54175z" fill="rgba(56,0,198,.24705882)"/><path d="M103.29862 132.06412A.47625 .47625 0 00102.34613 132.06412A.47625 .47625 0 00103.29862 132.06412z" fill="rgba(56,0,198,.24705882)"/><path d="M111.94732 137.02665A.47625 .47625 0 00110.99483 137.02665A.47625 .47625 0 00111.94732 137.02665z" fill="rgba(56,0,198,.24705882)"/><path d="M108.71835 145.58963A.47625 .47625 0 00107.76585 145.58963A.47625 .47625 0 00108.71835 145.58963z" fill="rgba(56,0,198,.24705882)"/><path d="M108.9279 136.57898A.47625 .47625 0 00107.9754 136.57898A.47625 .47625 0 00108.9279 136.57898z" fill="rgba(56,0,198,.24705882)"/><path d="M103.11765 136.18845A.47625 .47625 0 00102.16515 136.18845A.47625 .47625 0 00103.11765 136.18845z" fill="rgba(56,0,198,.24705882)"/><path d="M87.125175 139.47458A.47625 .47625 0 0086.172675 139.47458A.47625 .47625 0 0087.125175 139.47458z" fill="rgba(56,0,198,.24705882)"/><path d="M67.846575 150.17115A.47625 .47625 0 0066.894075 150.17115A.47625 .47625 0 0067.846575 150.17115z" fill="rgba(56,0,198,.24705882)"/><path d="M96.669225 150.99983A.47625 .47625 0 0095.716725 150.99983A.47625 .47625 0 0096.669225 150.99983z" fill="rgba(56,0,198,.24705882)"/><path d="M103.57485 127.64453A.47625 .47625 0 00102.62235 127.64453A.47625 .47625 0 00103.57485 127.64453z" fill="rgba(56,0,198,.24705882)"/><path d="M115.43347 136.73138A.47625 .47625 0 00114.48098 136.73138A.47625 .47625 0 00115.43347 136.73138z" fill="rgba(56,0,198,.24705882)"/><path d="M113.09032 126.13958A.47625 .47625 0 00112.13783 126.13958A.47625 .47625 0 00113.09032 126.13958z" fill="rgba(56,0,198,.24705882)"/><path d="M108.68025 154.09545A.47625 .47625 0 00107.72775 154.09545A.47625 .47625 0 00108.68025 154.09545z" fill="rgba(56,0,198,.24705882)"/><path d="M122.50102 152.71433A.47625 .47625 0 00121.54853 152.71433A.47625 .47625 0 00122.50102 152.71433z" fill="rgba(56,0,198,.24705882)"/><path d="M81.24825 140.65568A.47625 .47625 0 0080.29575 140.65568A.47625 .47625 0 0081.24825 140.65568z" fill="rgba(56,0,198,.24705882)"/><path d="M86.65845 126.97778A.47625 .47625 0 0085.70595 126.97778A.47625 .47625 0 0086.65845 126.97778z" fill="rgba(56,0,198,.24705882)"/><path d="M85.1916 112.1664A.47625 .47625 0 0084.2391 112.1664A.47625 .47625 0 0085.1916 112.1664z" fill="rgba(56,0,198,.24705882)"/><path d="M71.5518 128.72085A.47625 .47625 0 0070.5993 128.72085A.47625 .47625 0 0071.5518 128.72085z" fill="rgba(56,0,198,.24705882)"/><path d="M96.192975 150.99983L67.370325 150.17115" style="fill:none;stroke:rgba(56,0,198,.24705882);stroke-width:.09525;stroke-miterlimit:41.994751"/><path d="M111.47107 137.02665L108.45165 136.57898" style="fill:none;stroke:rgba(56,0,198,.24705882);stroke-width:.09525;stroke-miterlimit:41.994751"/><path d="M86.1822 126.97778L85.21065 121.1961" style="fill:none;stroke:rgba(56,0,198,.24705882);stroke-width:.09525;stroke-miterlimit:41.994751"/><path d="M102.82237 132.06412L103.0986 127.64453" style="fill:none;stroke:rgba(56,0,198,.24705882);stroke-width:.09525;stroke-miterlimit:41.994751"/><path d="M84.71535 112.1664L78.23835 112.70933" style="fill:none;stroke:rgba(56,0,198,.24705882);stroke-width:.09525;stroke-miterlimit:41.994751"/><path d="M102.6414 136.18845L108.45165 136.57898" style="fill:none;stroke:rgba(56,0,198,.24705882);stroke-width:.09525;stroke-miterlimit:41.994751"/><path d="M108.204 154.09545L122.02478 152.71433" style="fill:none;stroke:rgba(56,0,198,.24705882);stroke-width:.09525;stroke-miterlimit:41.994751"/><path d="M102.6414 136.18845L102.82237 132.06412" style="fill:none;stroke:rgba(56,0,198,.24705882);stroke-width:.09525;stroke-miterlimit:41.994751"/><path d="M95.53575 137.14095L86.648925 139.47458" style="fill:none;stroke:rgba(56,0,198,.24705882);stroke-width:.09525;stroke-miterlimit:41.994751"/><path d="M114.95722 136.73138L112.61407 126.13958" style="fill:none;stroke:rgba(56,0,198,.24705882);stroke-width:.09525;stroke-miterlimit:41.994751"/><path d="M96.783525 143.54175L96.192975 150.99983" style="fill:none;stroke:rgba(56,0,198,.24705882);stroke-width:.09525;stroke-miterlimit:41.994751"/><path d="M86.648925 139.47458L80.772 140.65568" style="fill:none;stroke:rgba(56,0,198,.24705882);stroke-width:.09525;stroke-miterlimit:41.994751"/><path d="M95.53575 137.14095L96.783525 143.54175" style="fill:none;stroke:rgba(56,0,198,.24705882);stroke-width:.09525;stroke-miterlimit:41.994751"/><path d="M111.47107 137.02665L114.95722 136.73138" style="fill:none;stroke:rgba(56,0,198,.24705882);stroke-width:.09525;stroke-miterlimit:41.994751"/><path d="M86.92515 131.92125L86.1822 126.97778" style="fill:none;stroke:rgba(56,0,198,.24705882);stroke-width:.09525;stroke-miterlimit:41.994751"/><path d="M108.2421 145.58963L108.204 154.09545" style="fill:none;stroke:rgba(56,0,198,.24705882);stroke-width:.09525;stroke-miterlimit:41.994751"/><path d="M85.21065 121.1961L84.71535 112.1664" style="fill:none;stroke:rgba(56,0,198,.24705882);stroke-width:.09525;stroke-miterlimit:41.994751"/><path d="M86.92515 131.92125L86.648925 139.47458" style="fill:none;stroke:rgba(56,0,198,.24705882);stroke-width:.09525;stroke-miterlimit:41.994751"/><path d="M108.45165 136.57898L108.2421 145.58963" style="fill:none;stroke:rgba(56,0,198,.24705882);stroke-width:.09525;stroke-miterlimit:41.994751"/><path d="M95.850075 132.56895L95.53575 137.14095" style="fill:none;stroke:rgba(56,0,198,.24705882);stroke-width:.09525;stroke-miterlimit:41.994751"/><path d="M102.6414 136.18845L95.53575 137.14095" style="fill:none;stroke:rgba(56,0,198,.24705882);stroke-width:.09525;stroke-miterlimit:41.994751"/><path d="M80.772 140.65568L80.724375 143.16075" style="fill:none;stroke:rgba(56,0,198,.24705882);stroke-width:.09525;stroke-miterlimit:41.994751"/><path d="M81.200625 143.16075A.47625 .47625 0 0080.248125 143.16075A.47625 .47625 0 0081.200625 143.16075z" fill="rgba(56,0,198,.24705882)"/><path d="M49.4919 48.63465A.47625 .47625 0 0048.5394 48.63465A.47625 .47625 0 0049.4919 48.63465z" fill="rgba(52,0,198,.24705882)"/><path d="M49.01565 48.63465L48.97755 49.81575" style="fill:none;stroke:rgba(52,0,198,.24705882);stroke-width:.09525;stroke-miterlimit:41.994751"/><path d="M49.8729 67.437A.47625 .47625 0 0048.9204 67.437A.47625 .47625 0 0049.8729 67.437z" fill="rgba(52,0,198,.24705882)"/><path d="M49.4538 49.81575A.47625 .47625 0 0048.5013 49.81575A.47625 .47625 0 0049.4538 49.81575z" fill="rgba(52,0,198,.24705882)"/><path d="M48.97755 49.81575L49.39665 67.437" style="fill:none;stroke:rgba(52,0,198,.24705882);stroke-width:.09525;stroke-miterlimit:41.994751"/><path d="M77.9526 104.51783A.47625 .47625 0 0077.0001 104.51783A.47625 .47625 0 0077.9526 104.51783z" fill="rgba(52,0,202,.24705882)"/><path d="M74.723625 54.930675A.47625 .47625 0 0073.771125 54.930675A.47625 .47625 0 0074.723625 54.930675z" fill="rgba(48,0,202,.24705882)"/><path d="M70.513575 87.0204L77.47635 104.51783" style="fill:none;stroke:rgba(48,0,206,.24705882);stroke-width:.09525;stroke-miterlimit:41.994751"/><path d="M77.657325 105.58463L78.23835 112.70933" style="fill:none;stroke:rgba(48,0,206,.24705882);stroke-width:.09525;stroke-miterlimit:41.994751"/><path d="M74.247375 54.930675L71.4375 64.7319" style="fill:none;stroke:rgba(48,0,206,.24705882);stroke-width:.09525;stroke-miterlimit:41.994751"/><path d="M71.91375 64.7319A.47625 .47625 0 0070.96125 64.7319A.47625 .47625 0 0071.91375 64.7319z" fill="rgba(48,0,206,.24705882)"/><path d="M77.47635 104.51783L77.657325 105.58463" style="fill:none;stroke:rgba(48,0,206,.24705882);stroke-width:.09525;stroke-miterlimit:41.994751"/><path d="M71.4375 64.7319L70.513575 87.0204" style="fill:none;stroke:rgba(48,0,206,.24705882);stroke-width:.09525;stroke-miterlimit:41.994751"/><path d="M70.989825 87.0204A.47625 .47625 0 0070.037325 87.0204A.47625 .47625 0 0070.989825 87.0204z" fill="rgba(44,0,206,.24705882)"/><path d="M78.133575 105.58463A.47625 .47625 0 0077.181075 105.58463A.47625 .47625 0 0078.133575 105.58463z" fill="rgba(40,0,210,.24705882)"/><path d="M80.724375 143.16075H80.8482" style="fill:none;stroke:rgba(40,0,214,.24705882);stroke-width:.09525;stroke-miterlimit:41.994751"/><path d="M71.4375 64.7319L55.159275 71.027925" style="fill:none;stroke:rgba(36,0,218,.24705882);stroke-width:.09525;stroke-miterlimit:41.994751"/><path d="M55.635525 71.027925A.47625 .47625 0 0054.683025 71.027925A.47625 .47625 0 0055.635525 71.027925z" fill="rgba(24,0,230,.24705882)"/><path d="M81.32445 143.16075A.47625 .47625 0 0080.37195 143.16075A.47625 .47625 0 0081.32445 143.16075z" fill="rgba(20,0,230,.24705882)"/><path d="M24.603075 55.64505A.47625 .47625 0 0023.650575 55.64505A.47625 .47625 0 0024.603075 55.64505z" fill="rgba(20,0,234,.24705882)"/><path d="M80.8482 143.16075L80.90535 143.68463" style="fill:none;stroke:rgba(20,0,234,.24705882);stroke-width:.09525;stroke-miterlimit:41.994751"/><path d="M92.611575 131.72123A.47625 .47625 0 0091.659075 131.72123A.47625 .47625 0 0092.611575 131.72123z" fill="rgba(16,0,238,.24705882)"/><path d="M92.725875 111.19485A.47625 .47625 0 0091.773375 111.19485A.47625 .47625 0 0092.725875 111.19485z" fill="rgba(16,0,238,.24705882)"/><path d="M92.592525 150.24735A.47625 .47625 0 0091.640025 150.24735A.47625 .47625 0 0092.592525 150.24735z" fill="rgba(16,0,238,.24705882)"/><path d="M104.38447 130.78778A.47625 .47625 0 00103.43198 130.78778A.47625 .47625 0 00104.38447 130.78778z" fill="rgba(16,0,238,.24705882)"/><path d="M81.3816 143.68463A.47625 .47625 0 0080.4291 143.68463A.47625 .47625 0 0081.3816 143.68463z" fill="rgba(16,0,238,.24705882)"/><path d="M82.3722 149.99017A.47625 .47625 0 0081.4197 149.99017A.47625 .47625 0 0082.3722 149.99017z" fill="rgba(16,0,238,.24705882)"/><path d="M92.135325 131.72123L92.249625 111.19485" style="fill:none;stroke:rgba(16,0,238,.24705882);stroke-width:.09525;stroke-miterlimit:41.994751"/><path d="M92.135325 131.72123L103.90823 130.78778" style="fill:none;stroke:rgba(16,0,238,.24705882);stroke-width:.09525;stroke-miterlimit:41.994751"/><path d="M81.89595 149.99017L80.90535 143.68463" style="fill:none;stroke:rgba(16,0,238,.24705882);stroke-width:.09525;stroke-miterlimit:41.994751"/><path d="M81.89595 149.99017L92.116275 150.24735" style="fill:none;stroke:rgba(16,0,238,.24705882);stroke-width:.09525;stroke-miterlimit:41.994751"/><path d="M92.116275 150.24735L92.135325 131.72123" style="fill:none;stroke:rgba(16,0,238,.24705882);stroke-width:.09525;stroke-miterlimit:41.994751"/><path d="M55.159275 71.027925L40.414575 52.59705" style="fill:none;stroke:rgba(12,0,242,.24705882);stroke-width:.09525;stroke-miterlimit:41.994751"/><path d="M40.414575 52.59705L24.126825 55.64505" style="fill:none;stroke:rgba(8,0,242,.24705882);stroke-width:.09525;stroke-miterlimit:41.994751"/><path d="M40.890825 52.59705A.47625 .47625 0 0039.938325 52.59705A.47625 .47625 0 0040.890825 52.59705z" fill="rgba(0,0,255,.24705882)"/></svg>