<svg version="1.1" width="115.15725mm" height="380.90475mm" viewBox="0 0 115.15725 380.90475" xmlns="http://www.w3.org/2000/svg" xmlns:xlink="http://www.w3.org/1999/xlink"><path d="M52.959 152.68575H54.864" style="fill:none;stroke:#f00;stroke-width:.09525;stroke-miterlimit:41.994751"/><path d="M52.959 152.68575V150.78075" style="fill:none;stroke:#0f0;stroke-width:.09525;stroke-miterlimit:41.994751"/><path d="M71.53275 112.76647A.47625 .47625 0 0070.58025 112.76647A.47625 .47625 0 0071.53275 112.76647z" fill="rgba(255,0,0,.24705882)"/><path d="M38.681025 200.91082A.47625 .47625 0 0037.728525 200.91082A.47625 .47625 0 0038.681025 200.91082z" fill="rgba(242,0,12,.24705882)"/><path d="M62.779275 112.06162L71.0565 112.76647" style="fill:none;stroke:rgba(238,0,12,.24705882);stroke-width:.09525;stroke-miterlimit:41.994751"/><path d="M86.248875 103.60342L71.0565 112.76647" style="fill:none;stroke:rgba(234,0,16,.24705882);stroke-width:.09525;stroke-miterlimit:41.994751"/><path d="M57.24525 287.96932A.47625 .47625 0 0056.29275 287.96932A.47625 .47625 0 0057.24525 287.96932z" fill="rgba(234,0,20,.24705882)"/><path d="M46.5582 278.61577L56.769 287.96932" style="fill:none;stroke:rgba(234,0,20,.24705882);stroke-width:.09525;stroke-miterlimit:41.994751"/><path d="M47.03445 278.61577A.47625 .47625 0 0046.08195 278.61577A.47625 .47625 0 0047.03445 278.61577z" fill="rgba(234,0,20,.24705882)"/><path d="M44.02455 253.08877L38.204775 200.91082" style="fill:none;stroke:rgba(230,0,20,.24705882);stroke-width:.09525;stroke-miterlimit:41.994751"/><path d="M45.539025 203.04442L38.204775 200.91082" style="fill:none;stroke:rgba(230,0,24,.24705882);stroke-width:.09525;stroke-miterlimit:41.994751"/><path d="M56.769 287.96932L54.949725 301.84725" style="fill:none;stroke:rgba(230,0,24,.24705882);stroke-width:.09525;stroke-miterlimit:41.994751"/><path d="M55.425975 301.84725A.47625 .47625 0 0054.473475 301.84725A.47625 .47625 0 0055.425975 301.84725z" fill="rgba(230,0,24,.24705882)"/><path d="M46.5582 278.61577L44.02455 253.08877" style="fill:none;stroke:rgba(226,0,24,.24705882);stroke-width:.09525;stroke-miterlimit:41.994751"/><path d="M38.204775 200.91082L29.651325 257.08927" style="fill:none;stroke:rgba(226,0,28,.24705882);stroke-width:.09525;stroke-miterlimit:41.994751"/><path d="M46.034325 165.14445L38.204775 200.91082" style="fill:none;stroke:rgba(226,0,28,.24705882);stroke-width:.09525;stroke-miterlimit:41.994751"/><path d="M38.204775 200.91082L30.775275 199.50113" style="fill:none;stroke:rgba(226,0,28,.24705882);stroke-width:.09525;stroke-miterlimit:41.994751"/><path d="M67.103625 125.83477A.47625 .47625 0 0066.151125 125.83477A.47625 .47625 0 0067.103625 125.83477z" fill="rgba(222,0,28,.24705882)"/><path d="M60.245625 266.4333L46.5582 278.61577" style="fill:none;stroke:rgba(222,0,28,.24705882);stroke-width:.09525;stroke-miterlimit:41.994751"/><path d="M63.255525 112.06162A.47625 .47625 0 0062.303025 112.06162A.47625 .47625 0 0063.255525 112.06162z" fill="rgba(222,0,28,.24705882)"/><path d="M62.69355 279.67305L56.769 287.96932" style="fill:none;stroke:rgba(222,0,28,.24705882);stroke-width:.09525;stroke-miterlimit:41.994751"/><path d="M34.34715 276.85365L46.5582 278.61577" style="fill:none;stroke:rgba(222,0,32,.24705882);stroke-width:.09525;stroke-miterlimit:41.994751"/><path d="M44.5008 253.08877A.47625 .47625 0 0043.5483 253.08877A.47625 .47625 0 0044.5008 253.08877z" fill="rgba(222,0,32,.24705882)"/><path d="M54.949725 301.84725L64.131825 315.79185" style="fill:none;stroke:rgba(222,0,32,.24705882);stroke-width:.09525;stroke-miterlimit:41.994751"/><path d="M44.02455 253.08877L56.9595 251.12662" style="fill:none;stroke:rgba(222,0,32,.24705882);stroke-width:.09525;stroke-miterlimit:41.994751"/><path d="M57.43575 251.12662A.47625 .47625 0 0056.48325 251.12662A.47625 .47625 0 0057.43575 251.12662z" fill="rgba(222,0,32,.24705882)"/><path d="M46.015275 203.04442A.47625 .47625 0 0045.062775 203.04442A.47625 .47625 0 0046.015275 203.04442z" fill="rgba(222,0,32,.24705882)"/><path d="M65.541525 334.7847A.47625 .47625 0 0064.589025 334.7847A.47625 .47625 0 0065.541525 334.7847z" fill="rgba(222,0,32,.24705882)"/><path d="M48.396525 345.86227L65.065275 334.7847" style="fill:none;stroke:rgba(222,0,32,.24705882);stroke-width:.09525;stroke-miterlimit:41.994751"/><path d="M48.872775 345.86227A.47625 .47625 0 0047.920275 345.86227A.47625 .47625 0 0048.872775 345.86227z" fill="rgba(222,0,32,.24705882)"/><path d="M56.44515 49.329975A.47625 .47625 0 0055.49265 49.329975A.47625 .47625 0 0056.44515 49.329975z" fill="rgba(218,0,32,.24705882)"/><path d="M66.627375 125.83477L56.473725 129.22567" style="fill:none;stroke:rgba(218,0,32,.24705882);stroke-width:.09525;stroke-miterlimit:41.994751"/><path d="M64.131825 315.79185L65.065275 334.7847" style="fill:none;stroke:rgba(218,0,36,.24705882);stroke-width:.09525;stroke-miterlimit:41.994751"/><path d="M51.56835 104.74642L62.779275 112.06162" style="fill:none;stroke:rgba(218,0,36,.24705882);stroke-width:.09525;stroke-miterlimit:41.994751"/><path d="M56.9595 251.12662L60.245625 266.4333" style="fill:none;stroke:rgba(218,0,36,.24705882);stroke-width:.09525;stroke-miterlimit:41.994751"/><path d="M71.2089 168.45915A.47625 .47625 0 0070.2564 168.45915A.47625 .47625 0 0071.2089 168.45915z" fill="rgba(218,0,36,.24705882)"/><path d="M29.651325 257.08927L44.02455 253.08877" style="fill:none;stroke:rgba(218,0,36,.24705882);stroke-width:.09525;stroke-miterlimit:41.994751"/><path d="M65.065275 334.7847L69.0753 342.00465" style="fill:none;stroke:rgba(218,0,36,.24705882);stroke-width:.09525;stroke-miterlimit:41.994751"/><path d="M54.6735 201.95857L45.539025 203.04442" style="fill:none;stroke:rgba(218,0,36,.24705882);stroke-width:.09525;stroke-miterlimit:41.994751"/><path d="M74.7903 236.95342L56.9595 251.12662" style="fill:none;stroke:rgba(218,0,36,.24705882);stroke-width:.09525;stroke-miterlimit:41.994751"/><path d="M86.725125 103.60342A.47625 .47625 0 0085.772625 103.60342A.47625 .47625 0 0086.725125 103.60342z" fill="rgba(218,0,36,.24705882)"/><path d="M48.396525 345.86227L25.43175 351.49155" style="fill:none;stroke:rgba(218,0,36,.24705882);stroke-width:.09525;stroke-miterlimit:41.994751"/><path d="M70.73265 168.45915L77.619225 156.64815" style="fill:none;stroke:rgba(218,0,36,.24705882);stroke-width:.09525;stroke-miterlimit:41.994751"/><path d="M41.176575 40.281225L55.9689 49.329975" style="fill:none;stroke:rgba(218,0,36,.24705882);stroke-width:.09525;stroke-miterlimit:41.994751"/><path d="M55.9689 49.329975L83.9343 33.16605" style="fill:none;stroke:rgba(218,0,36,.24705882);stroke-width:.09525;stroke-miterlimit:41.994751"/><path d="M55.9689 49.329975L78.285975 58.3692" style="fill:none;stroke:rgba(218,0,36,.24705882);stroke-width:.09525;stroke-miterlimit:41.994751"/><path d="M64.608075 315.79185A.47625 .47625 0 0063.655575 315.79185A.47625 .47625 0 0064.608075 315.79185z" fill="rgba(214,0,36,.24705882)"/><path d="M86.62035 137.15047A.47625 .47625 0 0085.66785 137.15047A.47625 .47625 0 0086.62035 137.15047z" fill="rgba(214,0,36,.24705882)"/><path d="M45.062775 301.95202L54.949725 301.84725" style="fill:none;stroke:rgba(214,0,36,.24705882);stroke-width:.09525;stroke-miterlimit:41.994751"/><path d="M86.1441 137.15047L56.473725 129.22567" style="fill:none;stroke:rgba(214,0,36,.24705882);stroke-width:.09525;stroke-miterlimit:41.994751"/><path d="M56.949975 129.22567A.47625 .47625 0 0055.997475 129.22567A.47625 .47625 0 0056.949975 129.22567z" fill="rgba(214,0,36,.24705882)"/><path d="M77.619225 156.64815L86.1441 137.15047" style="fill:none;stroke:rgba(214,0,36,.24705882);stroke-width:.09525;stroke-miterlimit:41.994751"/><path d="M56.473725 129.22567L77.619225 156.64815" style="fill:none;stroke:rgba(214,0,36,.24705882);stroke-width:.09525;stroke-miterlimit:41.994751"/><path d="M78.095475 156.64815A.47625 .47625 0 0077.142975 156.64815A.47625 .47625 0 0078.095475 156.64815z" fill="rgba(214,0,36,.24705882)"/><path d="M70.73265 168.45915L69.4563 186.24232" style="fill:none;stroke:rgba(214,0,36,.24705882);stroke-width:.09525;stroke-miterlimit:41.994751"/><path d="M46.034325 165.14445L70.73265 168.45915" style="fill:none;stroke:rgba(214,0,40,.24705882);stroke-width:.09525;stroke-miterlimit:41.994751"/><path d="M60.721875 266.4333A.47625 .47625 0 0059.769375 266.4333A.47625 .47625 0 0060.721875 266.4333z" fill="rgba(214,0,40,.24705882)"/><path d="M86.1441 137.15047L95.0214 136.84567" style="fill:none;stroke:rgba(214,0,40,.24705882);stroke-width:.09525;stroke-miterlimit:41.994751"/><path d="M56.473725 129.22567L38.547675 135.37882" style="fill:none;stroke:rgba(214,0,40,.24705882);stroke-width:.09525;stroke-miterlimit:41.994751"/><path d="M62.69355 279.67305L60.245625 266.4333" style="fill:none;stroke:rgba(214,0,40,.24705882);stroke-width:.09525;stroke-miterlimit:41.994751"/><path d="M56.473725 129.22567L46.034325 165.14445" style="fill:none;stroke:rgba(214,0,40,.24705882);stroke-width:.09525;stroke-miterlimit:41.994751"/><path d="M74.647425 264.29017L60.245625 266.4333" style="fill:none;stroke:rgba(214,0,40,.24705882);stroke-width:.09525;stroke-miterlimit:41.994751"/><path d="M77.619225 156.64815L84.858225 154.686" style="fill:none;stroke:rgba(214,0,40,.24705882);stroke-width:.09525;stroke-miterlimit:41.994751"/><path d="M69.55155 342.00465A.47625 .47625 0 0068.59905 342.00465A.47625 .47625 0 0069.55155 342.00465z" fill="rgba(214,0,40,.24705882)"/><path d="M22.374225 227.16172A.47625 .47625 0 0021.421725 227.16172A.47625 .47625 0 0022.374225 227.16172z" fill="rgba(214,0,40,.24705882)"/><path d="M55.14975 201.95857A.47625 .47625 0 0054.19725 201.95857A.47625 .47625 0 0055.14975 201.95857z" fill="rgba(214,0,40,.24705882)"/><path d="M63.1698 279.67305A.47625 .47625 0 0062.2173 279.67305A.47625 .47625 0 0063.1698 279.67305z" fill="rgba(214,0,40,.24705882)"/><path d="M69.0753 342.00465L76.514325 366.95062" style="fill:none;stroke:rgba(214,0,40,.24705882);stroke-width:.09525;stroke-miterlimit:41.994751"/><path d="M69.0753 342.00465L77.3811 342.519" style="fill:none;stroke:rgba(214,0,40,.24705882);stroke-width:.09525;stroke-miterlimit:41.994751"/><path d="M21.897975 227.16172L29.651325 257.08927" style="fill:none;stroke:rgba(214,0,40,.24705882);stroke-width:.09525;stroke-miterlimit:41.994751"/><path d="M76.79055 287.9217L62.69355 279.67305" style="fill:none;stroke:rgba(214,0,40,.24705882);stroke-width:.09525;stroke-miterlimit:41.994751"/><path d="M69.656325 204.80655L54.6735 201.95857" style="fill:none;stroke:rgba(214,0,40,.24705882);stroke-width:.09525;stroke-miterlimit:41.994751"/><path d="M41.652825 40.281225A.47625 .47625 0 0040.700325 40.281225A.47625 .47625 0 0041.652825 40.281225z" fill="rgba(214,0,40,.24705882)"/><path d="M25.908 351.49155A.47625 .47625 0 0024.9555 351.49155A.47625 .47625 0 0025.908 351.49155z" fill="rgba(214,0,40,.24705882)"/><path d="M114.08093 168.7068A.47625 .47625 0 00113.12843 168.7068A.47625 .47625 0 00114.08093 168.7068z" fill="rgba(214,0,40,.24705882)"/><path d="M75.26655 236.95342A.47625 .47625 0 0074.31405 236.95342A.47625 .47625 0 0075.26655 236.95342z" fill="rgba(214,0,40,.24705882)"/><path d="M114.73815 137.49337A.47625 .47625 0 00113.78565 137.49337A.47625 .47625 0 00114.73815 137.49337z" fill="rgba(214,0,40,.24705882)"/><path d="M110.55667 370.39867A.47625 .47625 0 00109.60418 370.39867A.47625 .47625 0 00110.55667 370.39867z" fill="rgba(214,0,40,.24705882)"/><path d="M34.8234 276.85365A.47625 .47625 0 0033.8709 276.85365A.47625 .47625 0 0034.8234 276.85365z" fill="rgba(214,0,40,.24705882)"/><path d="M34.242375 166.54462A.47625 .47625 0 0033.289875 166.54462A.47625 .47625 0 0034.242375 166.54462z" fill="rgba(214,0,40,.24705882)"/><path d="M114.55718 190.49047A.47625 .47625 0 00113.60468 190.49047A.47625 .47625 0 00114.55718 190.49047z" fill="rgba(214,0,40,.24705882)"/><path d="M21.059775 254.06985A.47625 .47625 0 0020.107275 254.06985A.47625 .47625 0 0021.059775 254.06985z" fill="rgba(214,0,40,.24705882)"/><path d="M75.123675 264.29017A.47625 .47625 0 0074.171175 264.29017A.47625 .47625 0 0075.123675 264.29017z" fill="rgba(214,0,40,.24705882)"/><path d="M39.023925 135.37882A.47625 .47625 0 0038.071425 135.37882A.47625 .47625 0 0039.023925 135.37882z" fill="rgba(214,0,40,.24705882)"/><path d="M81.43875 225.4377A.47625 .47625 0 0080.48625 225.4377A.47625 .47625 0 0081.43875 225.4377z" fill="rgba(214,0,40,.24705882)"/><path d="M47.41545 87.410925A.47625 .47625 0 0046.46295 87.410925A.47625 .47625 0 0047.41545 87.410925z" fill="rgba(214,0,40,.24705882)"/><path d="M108.5469 380.3904A.47625 .47625 0 00107.5944 380.3904A.47625 .47625 0 00108.5469 380.3904z" fill="rgba(214,0,40,.24705882)"/><path d="M52.0446 104.74642A.47625 .47625 0 0051.0921 104.74642A.47625 .47625 0 0052.0446 104.74642z" fill="rgba(214,0,40,.24705882)"/><path d="M96.231075 192.15735A.47625 .47625 0 0095.278575 192.15735A.47625 .47625 0 0096.231075 192.15735z" fill="rgba(214,0,40,.24705882)"/><path d="M22.278975 162.6108A.47625 .47625 0 0021.326475 162.6108A.47625 .47625 0 0022.278975 162.6108z" fill="rgba(214,0,40,.24705882)"/><path d="M85.429725 70.265925A.47625 .47625 0 0084.477225 70.265925A.47625 .47625 0 0085.429725 70.265925z" fill="rgba(214,0,40,.24705882)"/><path d="M33.518475 22.545675A.47625 .47625 0 0032.565975 22.545675A.47625 .47625 0 0033.518475 22.545675z" fill="rgba(214,0,40,.24705882)"/><path d="M7.934325 .40005A.47625 .47625 0 006.981825 .40005A.47625 .47625 0 007.934325 .40005z" fill="rgba(214,0,40,.24705882)"/><path d="M69.93255 186.24232A.47625 .47625 0 0068.98005 186.24232A.47625 .47625 0 0069.93255 186.24232z" fill="rgba(214,0,40,.24705882)"/><path d="M102.31755 70.723125A.47625 .47625 0 00101.36505 70.723125A.47625 .47625 0 00102.31755 70.723125z" fill="rgba(214,0,40,.24705882)"/><path d="M90.135075 380.47613A.47625 .47625 0 0089.182575 380.47613A.47625 .47625 0 0090.135075 380.47613z" fill="rgba(214,0,40,.24705882)"/><path d="M114.7191 73.17105A.47625 .47625 0 00113.7666 73.17105A.47625 .47625 0 00114.7191 73.17105z" fill="rgba(214,0,40,.24705882)"/><path d="M4.3815 248.6406A.47625 .47625 0 003.429 248.6406A.47625 .47625 0 004.3815 248.6406z" fill="rgba(214,0,40,.24705882)"/><path d="M115.15725 93.2688A.47625 .47625 0 00114.20475 93.2688A.47625 .47625 0 00115.15725 93.2688z" fill="rgba(214,0,40,.24705882)"/><path d="M.885825 236.5629A.47625 .47625 0 00-.066675 236.5629A.47625 .47625 0 00.885825 236.5629z" fill="rgba(214,0,40,.24705882)"/><path d="M70.132575 204.80655A.47625 .47625 0 0069.180075 204.80655A.47625 .47625 0 0070.132575 204.80655z" fill="rgba(214,0,40,.24705882)"/><path d="M1.057275 223.17075A.47625 .47625 0 00.104775 223.17075A.47625 .47625 0 001.057275 223.17075z" fill="rgba(214,0,40,.24705882)"/><path d="M105.39413 60.759975A.47625 .47625 0 00104.44163 60.759975A.47625 .47625 0 00105.39413 60.759975z" fill="rgba(214,0,40,.24705882)"/><path d="M85.97265 214.20772A.47625 .47625 0 0085.02015 214.20772A.47625 .47625 0 0085.97265 214.20772z" fill="rgba(214,0,40,.24705882)"/><path d="M108.966 67.98945A.47625 .47625 0 00108.0135 67.98945A.47625 .47625 0 00108.966 67.98945z" fill="rgba(214,0,40,.24705882)"/><path d="M76.990575 366.95062A.47625 .47625 0 0076.038075 366.95062A.47625 .47625 0 0076.990575 366.95062z" fill="rgba(214,0,40,.24705882)"/><path d="M77.89545 293.05567A.47625 .47625 0 0076.94295 293.05567A.47625 .47625 0 0077.89545 293.05567z" fill="rgba(214,0,40,.24705882)"/><path d="M77.85735 342.519A.47625 .47625 0 0076.90485 342.519A.47625 .47625 0 0077.85735 342.519z" fill="rgba(214,0,40,.24705882)"/><path d="M95.49765 136.84567A.47625 .47625 0 0094.54515 136.84567A.47625 .47625 0 0095.49765 136.84567z" fill="rgba(214,0,40,.24705882)"/><path d="M115.2144 213.40762A.47625 .47625 0 00114.2619 213.40762A.47625 .47625 0 00115.2144 213.40762z" fill="rgba(214,0,40,.24705882)"/><path d="M77.2668 287.9217A.47625 .47625 0 0076.3143 287.9217A.47625 .47625 0 0077.2668 287.9217z" fill="rgba(214,0,40,.24705882)"/><path d="M114.7572 234.28643A.47625 .47625 0 00113.8047 234.28643A.47625 .47625 0 00114.7572 234.28643z" fill="rgba(214,0,40,.24705882)"/><path d="M95.221425 288.33128A.47625 .47625 0 0094.268925 288.33128A.47625 .47625 0 0095.221425 288.33128z" fill="rgba(214,0,40,.24705882)"/><path d="M30.127575 257.08927A.47625 .47625 0 0029.175075 257.08927A.47625 .47625 0 0030.127575 257.08927z" fill="rgba(214,0,40,.24705882)"/><path d="M78.762225 58.3692A.47625 .47625 0 0077.809725 58.3692A.47625 .47625 0 0078.762225 58.3692z" fill="rgba(214,0,40,.24705882)"/><path d="M104.34637 44.434125A.47625 .47625 0 00103.39388 44.434125A.47625 .47625 0 00104.34637 44.434125z" fill="rgba(214,0,40,.24705882)"/><path d="M113.66182 293.9796A.47625 .47625 0 00112.70933 293.9796A.47625 .47625 0 00113.66182 293.9796z" fill="rgba(214,0,40,.24705882)"/><path d="M8.391525 359.21632A.47625 .47625 0 007.439025 359.21632A.47625 .47625 0 008.391525 359.21632z" fill="rgba(214,0,40,.24705882)"/><path d="M87.8967 367.11255A.47625 .47625 0 0086.9442 367.11255A.47625 .47625 0 0087.8967 367.11255z" fill="rgba(214,0,40,.24705882)"/><path d="M100.7364 29.50845A.47625 .47625 0 0099.7839 29.50845A.47625 .47625 0 00100.7364 29.50845z" fill="rgba(214,0,40,.24705882)"/><path d="M84.41055 33.16605A.47625 .47625 0 0083.45805 33.16605A.47625 .47625 0 0084.41055 33.16605z" fill="rgba(214,0,40,.24705882)"/><path d="M83.9343 33.16605L78.285975 58.3692" style="fill:none;stroke:rgba(214,0,40,.24705882);stroke-width:.09525;stroke-miterlimit:41.994751"/><path d="M114.28095 234.28643L80.9625 225.4377" style="fill:none;stroke:rgba(214,0,40,.24705882);stroke-width:.09525;stroke-miterlimit:41.994751"/><path d="M100.26015 29.50845L83.9343 33.16605" style="fill:none;stroke:rgba(214,0,40,.24705882);stroke-width:.09525;stroke-miterlimit:41.994751"/><path d="M100.26015 29.50845L103.87013 44.434125" style="fill:none;stroke:rgba(214,0,40,.24705882);stroke-width:.09525;stroke-miterlimit:41.994751"/><path d="M114.28095 234.28643L113.18558 293.9796" style="fill:none;stroke:rgba(214,0,40,.24705882);stroke-width:.09525;stroke-miterlimit:41.994751"/><path d="M80.9625 225.4377L85.4964 214.20772" style="fill:none;stroke:rgba(214,0,40,.24705882);stroke-width:.09525;stroke-miterlimit:41.994751"/><path d="M78.285975 58.3692L84.953475 70.265925" style="fill:none;stroke:rgba(214,0,40,.24705882);stroke-width:.09525;stroke-miterlimit:41.994751"/><path d="M103.87013 44.434125L104.91788 60.759975" style="fill:none;stroke:rgba(214,0,40,.24705882);stroke-width:.09525;stroke-miterlimit:41.994751"/><path d="M113.18558 293.9796L94.745175 288.33128" style="fill:none;stroke:rgba(214,0,40,.24705882);stroke-width:.09525;stroke-miterlimit:41.994751"/><path d="M25.43175 351.49155L7.915275 359.21632" style="fill:none;stroke:rgba(214,0,40,.24705882);stroke-width:.09525;stroke-miterlimit:41.994751"/><path d="M94.745175 288.33128L76.79055 287.9217" style="fill:none;stroke:rgba(214,0,40,.24705882);stroke-width:.09525;stroke-miterlimit:41.994751"/><path d="M114.73815 213.40762L114.28095 234.28643" style="fill:none;stroke:rgba(214,0,40,.24705882);stroke-width:.09525;stroke-miterlimit:41.994751"/><path d="M76.79055 287.9217L77.4192 293.05567" style="fill:none;stroke:rgba(214,0,40,.24705882);stroke-width:.09525;stroke-miterlimit:41.994751"/><path d="M85.4964 214.20772L69.656325 204.80655" style="fill:none;stroke:rgba(214,0,40,.24705882);stroke-width:.09525;stroke-miterlimit:41.994751"/><path d="M108.48975 67.98945L104.91788 60.759975" style="fill:none;stroke:rgba(214,0,40,.24705882);stroke-width:.09525;stroke-miterlimit:41.994751"/><path d="M76.514325 366.95062L87.42045 367.11255" style="fill:none;stroke:rgba(214,0,40,.24705882);stroke-width:.09525;stroke-miterlimit:41.994751"/><path d="M108.48975 67.98945L114.24285 73.17105" style="fill:none;stroke:rgba(214,0,40,.24705882);stroke-width:.09525;stroke-miterlimit:41.994751"/><path d="M69.656325 204.80655L69.4563 186.24232" style="fill:none;stroke:rgba(214,0,40,.24705882);stroke-width:.09525;stroke-miterlimit:41.994751"/><path d="M.409575 236.5629L.581025 223.17075" style="fill:none;stroke:rgba(214,0,40,.24705882);stroke-width:.09525;stroke-miterlimit:41.994751"/><path d="M114.681 93.2688L114.2619 137.49337" style="fill:none;stroke:rgba(214,0,40,.24705882);stroke-width:.09525;stroke-miterlimit:41.994751"/><path d="M3.90525 248.6406L.409575 236.5629" style="fill:none;stroke:rgba(214,0,40,.24705882);stroke-width:.09525;stroke-miterlimit:41.994751"/><path d="M3.90525 248.6406L20.583525 254.06985" style="fill:none;stroke:rgba(214,0,40,.24705882);stroke-width:.09525;stroke-miterlimit:41.994751"/><path d="M114.24285 73.17105L114.681 93.2688" style="fill:none;stroke:rgba(214,0,40,.24705882);stroke-width:.09525;stroke-miterlimit:41.994751"/><path d="M89.658825 380.47613L87.42045 367.11255" style="fill:none;stroke:rgba(214,0,40,.24705882);stroke-width:.09525;stroke-miterlimit:41.994751"/><path d="M101.8413 70.723125L108.48975 67.98945" style="fill:none;stroke:rgba(214,0,40,.24705882);stroke-width:.09525;stroke-miterlimit:41.994751"/><path d="M108.07065 380.3904L89.658825 380.47613" style="fill:none;stroke:rgba(214,0,40,.24705882);stroke-width:.09525;stroke-miterlimit:41.994751"/><path d="M33.042225 22.545675L7.458075 .40005" style="fill:none;stroke:rgba(214,0,40,.24705882);stroke-width:.09525;stroke-miterlimit:41.994751"/><path d="M46.9392 87.410925L51.56835 104.74642" style="fill:none;stroke:rgba(214,0,40,.24705882);stroke-width:.09525;stroke-miterlimit:41.994751"/><path d="M41.176575 40.281225L33.042225 22.545675" style="fill:none;stroke:rgba(214,0,40,.24705882);stroke-width:.09525;stroke-miterlimit:41.994751"/><path d="M114.08093 190.49047L114.73815 213.40762" style="fill:none;stroke:rgba(214,0,40,.24705882);stroke-width:.09525;stroke-miterlimit:41.994751"/><path d="M20.583525 254.06985L29.651325 257.08927" style="fill:none;stroke:rgba(214,0,40,.24705882);stroke-width:.09525;stroke-miterlimit:41.994751"/><path d="M110.08043 370.39867L108.07065 380.3904" style="fill:none;stroke:rgba(214,0,40,.24705882);stroke-width:.09525;stroke-miterlimit:41.994751"/><path d="M95.0214 136.84567L114.2619 137.49337" style="fill:none;stroke:rgba(214,0,40,.24705882);stroke-width:.09525;stroke-miterlimit:41.994751"/><path d="M33.766125 166.54462L21.802725 162.6108" style="fill:none;stroke:rgba(214,0,40,.24705882);stroke-width:.09525;stroke-miterlimit:41.994751"/><path d="M114.2619 137.49337L113.60468 168.7068" style="fill:none;stroke:rgba(214,0,40,.24705882);stroke-width:.09525;stroke-miterlimit:41.994751"/><path d="M74.7903 236.95342L80.9625 225.4377" style="fill:none;stroke:rgba(214,0,40,.24705882);stroke-width:.09525;stroke-miterlimit:41.994751"/><path d="M113.60468 168.7068L114.08093 190.49047" style="fill:none;stroke:rgba(214,0,40,.24705882);stroke-width:.09525;stroke-miterlimit:41.994751"/><path d="M33.766125 166.54462L46.034325 165.14445" style="fill:none;stroke:rgba(214,0,40,.24705882);stroke-width:.09525;stroke-miterlimit:41.994751"/><path d="M46.034325 165.14445L38.547675 135.37882" style="fill:none;stroke:rgba(214,0,40,.24705882);stroke-width:.09525;stroke-miterlimit:41.994751"/><path d="M46.510575 165.14445A.47625 .47625 0 0045.558075 165.14445A.47625 .47625 0 0046.510575 165.14445z" fill="rgba(214,0,40,.24705882)"/><path d="M91.697175 155.2194A.47625 .47625 0 0090.744675 155.2194A.47625 .47625 0 0091.697175 155.2194z" fill="rgba(210,0,40,.24705882)"/><path d="M85.334475 154.686A.47625 .47625 0 0084.381975 154.686A.47625 .47625 0 0085.334475 154.686z" fill="rgba(210,0,40,.24705882)"/><path d="M92.935425 170.09745A.47625 .47625 0 0091.982925 170.09745A.47625 .47625 0 0092.935425 170.09745z" fill="rgba(210,0,40,.24705882)"/><path d="M98.040825 164.25862A.47625 .47625 0 0097.088325 164.25862A.47625 .47625 0 0098.040825 164.25862z" fill="rgba(210,0,40,.24705882)"/><path d="M105.17505 169.30687A.47625 .47625 0 00104.22255 169.30687A.47625 .47625 0 00105.17505 169.30687z" fill="rgba(210,0,40,.24705882)"/><path d="M91.220925 155.2194L92.459175 170.09745" style="fill:none;stroke:rgba(210,0,40,.24705882);stroke-width:.09525;stroke-miterlimit:41.994751"/><path d="M84.858225 154.686L91.220925 155.2194" style="fill:none;stroke:rgba(210,0,40,.24705882);stroke-width:.09525;stroke-miterlimit:41.994751"/><path d="M97.564575 164.25862L92.459175 170.09745" style="fill:none;stroke:rgba(210,0,40,.24705882);stroke-width:.09525;stroke-miterlimit:41.994751"/><path d="M97.564575 164.25862L104.6988 169.30687" style="fill:none;stroke:rgba(210,0,40,.24705882);stroke-width:.09525;stroke-miterlimit:41.994751"/><path d="M71.0565 112.76647L83.91525 114.17617" style="fill:none;stroke:rgba(210,0,44,.24705882);stroke-width:.09525;stroke-miterlimit:41.994751"/><path d="M31.251525 199.50113A.47625 .47625 0 0030.299025 199.50113A.47625 .47625 0 0031.251525 199.50113z" fill="rgba(210,0,44,.24705882)"/><path d="M34.34715 276.85365L20.431125 280.5684" style="fill:none;stroke:rgba(210,0,44,.24705882);stroke-width:.09525;stroke-miterlimit:41.994751"/><path d="M29.651325 257.08927L20.431125 280.5684" style="fill:none;stroke:rgba(210,0,44,.24705882);stroke-width:.09525;stroke-miterlimit:41.994751"/><path d="M99.850575 215.7222L85.4964 214.20772" style="fill:none;stroke:rgba(210,0,44,.24705882);stroke-width:.09525;stroke-miterlimit:41.994751"/><path d="M21.802725 162.6108L9.42975 159.04845" style="fill:none;stroke:rgba(206,0,44,.24705882);stroke-width:.09525;stroke-miterlimit:41.994751"/><path d="M30.775275 199.50113H28.3083" style="fill:none;stroke:rgba(206,0,48,.24705882);stroke-width:.09525;stroke-miterlimit:41.994751"/><path d="M87.42045 367.11255L94.7928 366.9411" style="fill:none;stroke:rgba(206,0,48,.24705882);stroke-width:.09525;stroke-miterlimit:41.994751"/><path d="M34.356675 78.7908L46.9392 87.410925" style="fill:none;stroke:rgba(206,0,48,.24705882);stroke-width:.09525;stroke-miterlimit:41.994751"/><path d="M37.557075 311.06745A.47625 .47625 0 0036.604575 311.06745A.47625 .47625 0 0037.557075 311.06745z" fill="rgba(206,0,48,.24705882)"/><path d="M6.276975 324.1167A.47625 .47625 0 005.324475 324.1167A.47625 .47625 0 006.276975 324.1167z" fill="rgba(206,0,48,.24705882)"/><path d="M13.4112 301.6377A.47625 .47625 0 0012.4587 301.6377A.47625 .47625 0 0013.4112 301.6377z" fill="rgba(206,0,48,.24705882)"/><path d="M9.525 292.29368A.47625 .47625 0 008.5725 292.29368A.47625 .47625 0 009.525 292.29368z" fill="rgba(206,0,48,.24705882)"/><path d="M6.105525 316.12523A.47625 .47625 0 005.153025 316.12523A.47625 .47625 0 006.105525 316.12523z" fill="rgba(206,0,48,.24705882)"/><path d="M9.782175 282.61627A.47625 .47625 0 008.829675 282.61627A.47625 .47625 0 009.782175 282.61627z" fill="rgba(206,0,48,.24705882)"/><path d="M37.2618 302.18062A.47625 .47625 0 0036.3093 302.18062A.47625 .47625 0 0037.2618 302.18062z" fill="rgba(206,0,48,.24705882)"/><path d="M20.907375 280.5684A.47625 .47625 0 0019.954875 280.5684A.47625 .47625 0 0020.907375 280.5684z" fill="rgba(206,0,48,.24705882)"/><path d="M5.800725 324.1167L5.629275 316.12523" style="fill:none;stroke:rgba(206,0,48,.24705882);stroke-width:.09525;stroke-miterlimit:41.994751"/><path d="M12.93495 301.6377L9.04875 292.29368" style="fill:none;stroke:rgba(206,0,48,.24705882);stroke-width:.09525;stroke-miterlimit:41.994751"/><path d="M5.629275 316.12523L12.93495 301.6377" style="fill:none;stroke:rgba(206,0,48,.24705882);stroke-width:.09525;stroke-miterlimit:41.994751"/><path d="M12.93495 301.6377L36.78555 302.18062" style="fill:none;stroke:rgba(206,0,48,.24705882);stroke-width:.09525;stroke-miterlimit:41.994751"/><path d="M9.305925 282.61627L20.431125 280.5684" style="fill:none;stroke:rgba(206,0,48,.24705882);stroke-width:.09525;stroke-miterlimit:41.994751"/><path d="M9.04875 292.29368L9.305925 282.61627" style="fill:none;stroke:rgba(206,0,48,.24705882);stroke-width:.09525;stroke-miterlimit:41.994751"/><path d="M36.78555 302.18062L37.080825 311.06745" style="fill:none;stroke:rgba(206,0,48,.24705882);stroke-width:.09525;stroke-miterlimit:41.994751"/><path d="M28.78455 199.50113A.47625 .47625 0 0027.83205 199.50113A.47625 .47625 0 0028.78455 199.50113z" fill="rgba(202,0,48,.24705882)"/><path d="M45.062775 301.95202L36.78555 302.18062" style="fill:none;stroke:rgba(202,0,48,.24705882);stroke-width:.09525;stroke-miterlimit:41.994751"/><path d="M74.647425 264.29017H78.6765" style="fill:none;stroke:rgba(202,0,48,.24705882);stroke-width:.09525;stroke-miterlimit:41.994751"/><path d="M100.32682 215.7222A.47625 .47625 0 0099.374325 215.7222A.47625 .47625 0 00100.32682 215.7222z" fill="rgba(202,0,48,.24705882)"/><path d="M105.47985 216.6747A.47625 .47625 0 00104.52735 216.6747A.47625 .47625 0 00105.47985 216.6747z" fill="rgba(202,0,48,.24705882)"/><path d="M105.0036 216.6747L99.850575 215.7222" style="fill:none;stroke:rgba(202,0,48,.24705882);stroke-width:.09525;stroke-miterlimit:41.994751"/><path d="M66.627375 125.83477L78.84795 125.43472" style="fill:none;stroke:rgba(202,0,48,.24705882);stroke-width:.09525;stroke-miterlimit:41.994751"/><path d="M45.539025 301.95202A.47625 .47625 0 0044.586525 301.95202A.47625 .47625 0 0045.539025 301.95202z" fill="rgba(202,0,52,.24705882)"/><path d="M104.91788 60.759975L104.013 60.7695" style="fill:none;stroke:rgba(202,0,52,.24705882);stroke-width:.09525;stroke-miterlimit:41.994751"/><path d="M77.3811 342.519L80.56245 342.57615" style="fill:none;stroke:rgba(202,0,52,.24705882);stroke-width:.09525;stroke-miterlimit:41.994751"/><path d="M21.288375 220.20847L21.897975 227.16172" style="fill:none;stroke:rgba(202,0,52,.24705882);stroke-width:.09525;stroke-miterlimit:41.994751"/><path d="M6.048375 158.94367A.47625 .47625 0 005.095875 158.94367A.47625 .47625 0 006.048375 158.94367z" fill="rgba(202,0,52,.24705882)"/><path d="M9.906 159.04845A.47625 .47625 0 008.9535 159.04845A.47625 .47625 0 009.906 159.04845z" fill="rgba(202,0,52,.24705882)"/><path d="M9.42975 159.04845L5.572125 158.94367" style="fill:none;stroke:rgba(202,0,52,.24705882);stroke-width:.09525;stroke-miterlimit:41.994751"/><path d="M95.26905 366.9411A.47625 .47625 0 0094.31655 366.9411A.47625 .47625 0 0095.26905 366.9411z" fill="rgba(198,0,52,.24705882)"/><path d="M98.46945 366.93158A.47625 .47625 0 0097.51695 366.93158A.47625 .47625 0 0098.46945 366.93158z" fill="rgba(198,0,52,.24705882)"/><path d="M97.9932 366.93158L94.7928 366.9411" style="fill:none;stroke:rgba(198,0,52,.24705882);stroke-width:.09525;stroke-miterlimit:41.994751"/><path d="M16.9164 130.10197A.47625 .47625 0 0015.9639 130.10197A.47625 .47625 0 0016.9164 130.10197z" fill="rgba(198,0,56,.24705882)"/><path d="M34.832925 78.7908A.47625 .47625 0 0033.880425 78.7908A.47625 .47625 0 0034.832925 78.7908z" fill="rgba(198,0,56,.24705882)"/><path d="M16.78305 79.9719A.47625 .47625 0 0015.83055 79.9719A.47625 .47625 0 0016.78305 79.9719z" fill="rgba(198,0,56,.24705882)"/><path d="M17.230725 104.02252A.47625 .47625 0 0016.278225 104.02252A.47625 .47625 0 0017.230725 104.02252z" fill="rgba(198,0,56,.24705882)"/><path d="M31.68015 134.74065A.47625 .47625 0 0030.72765 134.74065A.47625 .47625 0 0031.68015 134.74065z" fill="rgba(198,0,56,.24705882)"/><path d="M16.3068 79.9719L34.356675 78.7908" style="fill:none;stroke:rgba(198,0,56,.24705882);stroke-width:.09525;stroke-miterlimit:41.994751"/><path d="M16.754475 104.02252L16.44015 130.10197" style="fill:none;stroke:rgba(198,0,56,.24705882);stroke-width:.09525;stroke-miterlimit:41.994751"/><path d="M31.2039 134.74065L16.44015 130.10197" style="fill:none;stroke:rgba(198,0,56,.24705882);stroke-width:.09525;stroke-miterlimit:41.994751"/><path d="M16.3068 79.9719L16.754475 104.02252" style="fill:none;stroke:rgba(198,0,56,.24705882);stroke-width:.09525;stroke-miterlimit:41.994751"/><path d="M86.648925 272.23402L62.69355 279.67305" style="fill:none;stroke:rgba(198,0,56,.24705882);stroke-width:.09525;stroke-miterlimit:41.994751"/><path d="M28.3083 199.50113L25.460325 199.7583" style="fill:none;stroke:rgba(198,0,56,.24705882);stroke-width:.09525;stroke-miterlimit:41.994751"/><path d="M38.547675 135.37882L34.528125 135.4836" style="fill:none;stroke:rgba(194,0,56,.24705882);stroke-width:.09525;stroke-miterlimit:41.994751"/><path d="M79.15275 264.29017A.47625 .47625 0 0078.20025 264.29017A.47625 .47625 0 0079.15275 264.29017z" fill="rgba(194,0,60,.24705882)"/><path d="M104.48925 60.7695A.47625 .47625 0 00103.53675 60.7695A.47625 .47625 0 00104.48925 60.7695z" fill="rgba(194,0,60,.24705882)"/><path d="M74.609325 315.64898A.47625 .47625 0 0073.656825 315.64898A.47625 .47625 0 0074.609325 315.64898z" fill="rgba(194,0,60,.24705882)"/><path d="M110.5662 348.17685A.47625 .47625 0 00109.6137 348.17685A.47625 .47625 0 00110.5662 348.17685z" fill="rgba(194,0,60,.24705882)"/><path d="M81.0387 342.57615A.47625 .47625 0 0080.0862 342.57615A.47625 .47625 0 0081.0387 342.57615z" fill="rgba(194,0,60,.24705882)"/><path d="M85.8012 350.51047A.47625 .47625 0 0084.8487 350.51047A.47625 .47625 0 0085.8012 350.51047z" fill="rgba(194,0,60,.24705882)"/><path d="M99.202875 353.74897A.47625 .47625 0 0098.250375 353.74897A.47625 .47625 0 0099.202875 353.74897z" fill="rgba(194,0,60,.24705882)"/><path d="M91.26855 315.34417A.47625 .47625 0 0090.31605 315.34417A.47625 .47625 0 0091.26855 315.34417z" fill="rgba(194,0,60,.24705882)"/><path d="M83.34375 351.57727A.47625 .47625 0 0082.39125 351.57727A.47625 .47625 0 0083.34375 351.57727z" fill="rgba(194,0,60,.24705882)"/><path d="M108.7374 353.4537A.47625 .47625 0 00107.7849 353.4537A.47625 .47625 0 00108.7374 353.4537z" fill="rgba(194,0,60,.24705882)"/><path d="M110.6043 343.38577A.47625 .47625 0 00109.6518 343.38577A.47625 .47625 0 00110.6043 343.38577z" fill="rgba(194,0,60,.24705882)"/><path d="M80.52435 315.13463A.47625 .47625 0 0079.57185 315.13463A.47625 .47625 0 0080.52435 315.13463z" fill="rgba(194,0,60,.24705882)"/><path d="M91.201875 340.98548A.47625 .47625 0 0090.249375 340.98548A.47625 .47625 0 0091.201875 340.98548z" fill="rgba(194,0,60,.24705882)"/><path d="M110.08995 348.17685L108.26115 353.4537" style="fill:none;stroke:rgba(194,0,60,.24705882);stroke-width:.09525;stroke-miterlimit:41.994751"/><path d="M98.726625 353.74897L108.26115 353.4537" style="fill:none;stroke:rgba(194,0,60,.24705882);stroke-width:.09525;stroke-miterlimit:41.994751"/><path d="M90.725625 340.98548L90.7923 315.34417" style="fill:none;stroke:rgba(194,0,60,.24705882);stroke-width:.09525;stroke-miterlimit:41.994751"/><path d="M80.0481 315.13463L74.133075 315.64898" style="fill:none;stroke:rgba(194,0,60,.24705882);stroke-width:.09525;stroke-miterlimit:41.994751"/><path d="M90.7923 315.34417L80.0481 315.13463" style="fill:none;stroke:rgba(194,0,60,.24705882);stroke-width:.09525;stroke-miterlimit:41.994751"/><path d="M90.725625 340.98548L110.12805 343.38577" style="fill:none;stroke:rgba(194,0,60,.24705882);stroke-width:.09525;stroke-miterlimit:41.994751"/><path d="M85.32495 350.51047L82.8675 351.57727" style="fill:none;stroke:rgba(194,0,60,.24705882);stroke-width:.09525;stroke-miterlimit:41.994751"/><path d="M80.56245 342.57615L90.725625 340.98548" style="fill:none;stroke:rgba(194,0,60,.24705882);stroke-width:.09525;stroke-miterlimit:41.994751"/><path d="M110.12805 343.38577L110.08995 348.17685" style="fill:none;stroke:rgba(194,0,60,.24705882);stroke-width:.09525;stroke-miterlimit:41.994751"/><path d="M85.32495 350.51047L98.726625 353.74897" style="fill:none;stroke:rgba(194,0,60,.24705882);stroke-width:.09525;stroke-miterlimit:41.994751"/><path d="M77.4192 293.05567L77.6097 295.10355" style="fill:none;stroke:rgba(194,0,60,.24705882);stroke-width:.09525;stroke-miterlimit:41.994751"/><path d="M25.936575 199.7583A.47625 .47625 0 0024.984075 199.7583A.47625 .47625 0 0025.936575 199.7583z" fill="rgba(190,0,60,.24705882)"/><path d="M25.460325 199.7583L20.907375 200.35837" style="fill:none;stroke:rgba(190,0,60,.24705882);stroke-width:.09525;stroke-miterlimit:41.994751"/><path d="M21.16455 192.08115A.47625 .47625 0 0020.21205 192.08115A.47625 .47625 0 0021.16455 192.08115z" fill="rgba(190,0,60,.24705882)"/><path d="M7.286625 191.13817A.47625 .47625 0 006.334125 191.13817A.47625 .47625 0 007.286625 191.13817z" fill="rgba(190,0,60,.24705882)"/><path d="M21.764625 220.20847A.47625 .47625 0 0020.812125 220.20847A.47625 .47625 0 0021.764625 220.20847z" fill="rgba(190,0,60,.24705882)"/><path d="M16.087725 208.85467A.47625 .47625 0 0015.135225 208.85467A.47625 .47625 0 0016.087725 208.85467z" fill="rgba(190,0,60,.24705882)"/><path d="M21.383625 200.35837A.47625 .47625 0 0020.431125 200.35837A.47625 .47625 0 0021.383625 200.35837z" fill="rgba(190,0,60,.24705882)"/><path d="M20.7645 208.95945A.47625 .47625 0 0019.812 208.95945A.47625 .47625 0 0020.7645 208.95945z" fill="rgba(190,0,60,.24705882)"/><path d="M7.781925 208.8642A.47625 .47625 0 006.829425 208.8642A.47625 .47625 0 007.781925 208.8642z" fill="rgba(190,0,60,.24705882)"/><path d="M15.98295 191.69062A.47625 .47625 0 0015.03045 191.69062A.47625 .47625 0 0015.98295 191.69062z" fill="rgba(190,0,60,.24705882)"/><path d="M20.907375 200.35837L20.28825 208.95945" style="fill:none;stroke:rgba(190,0,60,.24705882);stroke-width:.09525;stroke-miterlimit:41.994751"/><path d="M20.6883 192.08115L20.907375 200.35837" style="fill:none;stroke:rgba(190,0,60,.24705882);stroke-width:.09525;stroke-miterlimit:41.994751"/><path d="M20.28825 208.95945L21.288375 220.20847" style="fill:none;stroke:rgba(190,0,60,.24705882);stroke-width:.09525;stroke-miterlimit:41.994751"/><path d="M6.810375 191.13817L15.5067 191.69062" style="fill:none;stroke:rgba(190,0,60,.24705882);stroke-width:.09525;stroke-miterlimit:41.994751"/><path d="M15.611475 208.85467L7.305675 208.8642" style="fill:none;stroke:rgba(190,0,60,.24705882);stroke-width:.09525;stroke-miterlimit:41.994751"/><path d="M20.28825 208.95945L15.611475 208.85467" style="fill:none;stroke:rgba(190,0,60,.24705882);stroke-width:.09525;stroke-miterlimit:41.994751"/><path d="M15.5067 191.69062L20.6883 192.08115" style="fill:none;stroke:rgba(190,0,60,.24705882);stroke-width:.09525;stroke-miterlimit:41.994751"/><path d="M86.248875 103.60342L87.887175 109.66132" style="fill:none;stroke:rgba(190,0,60,.24705882);stroke-width:.09525;stroke-miterlimit:41.994751"/><path d="M84.953475 70.265925L89.21115 70.7136" style="fill:none;stroke:rgba(190,0,64,.24705882);stroke-width:.09525;stroke-miterlimit:41.994751"/><path d="M95.8215 71.008875L101.8413 70.723125" style="fill:none;stroke:rgba(190,0,64,.24705882);stroke-width:.09525;stroke-miterlimit:41.994751"/><path d="M78.6765 264.29017L81.9531 264.57592" style="fill:none;stroke:rgba(190,0,64,.24705882);stroke-width:.09525;stroke-miterlimit:41.994751"/><path d="M34.528125 135.4836L31.2039 134.74065" style="fill:none;stroke:rgba(186,0,64,.24705882);stroke-width:.09525;stroke-miterlimit:41.994751"/><path d="M110.9472 168.94492L113.60468 168.7068" style="fill:none;stroke:rgba(186,0,64,.24705882);stroke-width:.09525;stroke-miterlimit:41.994751"/><path d="M104.6988 169.30687L110.9472 168.94492" style="fill:none;stroke:rgba(186,0,68,.24705882);stroke-width:.09525;stroke-miterlimit:41.994751"/><path d="M79.3242 125.43472A.47625 .47625 0 0078.3717 125.43472A.47625 .47625 0 0079.3242 125.43472z" fill="rgba(182,0,72,.24705882)"/><path d="M82.42935 264.57592A.47625 .47625 0 0081.47685 264.57592A.47625 .47625 0 0082.42935 264.57592z" fill="rgba(182,0,72,.24705882)"/><path d="M37.080825 311.06745L25.060275 311.98185" style="fill:none;stroke:rgba(182,0,72,.24705882);stroke-width:.09525;stroke-miterlimit:41.994751"/><path d="M81.9531 264.57592L86.96325 264.01395" style="fill:none;stroke:rgba(182,0,72,.24705882);stroke-width:.09525;stroke-miterlimit:41.994751"/><path d="M87.125175 272.23402A.47625 .47625 0 0086.172675 272.23402A.47625 .47625 0 0087.125175 272.23402z" fill="rgba(182,0,72,.24705882)"/><path d="M87.4395 264.01395A.47625 .47625 0 0086.487 264.01395A.47625 .47625 0 0087.4395 264.01395z" fill="rgba(182,0,72,.24705882)"/><path d="M87.601425 255.97485A.47625 .47625 0 0086.648925 255.97485A.47625 .47625 0 0087.601425 255.97485z" fill="rgba(182,0,72,.24705882)"/><path d="M101.58413 255.06045A.47625 .47625 0 00100.63163 255.06045A.47625 .47625 0 00101.58413 255.06045z" fill="rgba(182,0,72,.24705882)"/><path d="M92.249625 255.54622A.47625 .47625 0 0091.297125 255.54622A.47625 .47625 0 0092.249625 255.54622z" fill="rgba(182,0,72,.24705882)"/><path d="M100.51732 272.43405A.47625 .47625 0 0099.564825 272.43405A.47625 .47625 0 00100.51732 272.43405z" fill="rgba(182,0,72,.24705882)"/><path d="M92.33535 272.3007A.47625 .47625 0 0091.38285 272.3007A.47625 .47625 0 0092.33535 272.3007z" fill="rgba(182,0,72,.24705882)"/><path d="M101.10788 255.06045L91.773375 255.54622" style="fill:none;stroke:rgba(182,0,72,.24705882);stroke-width:.09525;stroke-miterlimit:41.994751"/><path d="M91.8591 272.3007L100.04108 272.43405" style="fill:none;stroke:rgba(182,0,72,.24705882);stroke-width:.09525;stroke-miterlimit:41.994751"/><path d="M86.96325 264.01395L87.125175 255.97485" style="fill:none;stroke:rgba(182,0,72,.24705882);stroke-width:.09525;stroke-miterlimit:41.994751"/><path d="M86.96325 264.01395L86.648925 272.23402" style="fill:none;stroke:rgba(182,0,72,.24705882);stroke-width:.09525;stroke-miterlimit:41.994751"/><path d="M87.125175 255.97485L91.773375 255.54622" style="fill:none;stroke:rgba(182,0,72,.24705882);stroke-width:.09525;stroke-miterlimit:41.994751"/><path d="M86.648925 272.23402L91.8591 272.3007" style="fill:none;stroke:rgba(182,0,72,.24705882);stroke-width:.09525;stroke-miterlimit:41.994751"/><path d="M35.004375 135.4836A.47625 .47625 0 0034.051875 135.4836A.47625 .47625 0 0035.004375 135.4836z" fill="rgba(178,0,76,.24705882)"/><path d="M78.84795 125.43472L84.201 125.32995" style="fill:none;stroke:rgba(174,0,80,.24705882);stroke-width:.09525;stroke-miterlimit:41.994751"/><path d="M78.095475 297.65625A.47625 .47625 0 0077.142975 297.65625A.47625 .47625 0 0078.095475 297.65625z" fill="rgba(170,0,80,.24705882)"/><path d="M78.08595 295.10355A.47625 .47625 0 0077.13345 295.10355A.47625 .47625 0 0078.08595 295.10355z" fill="rgba(170,0,80,.24705882)"/><path d="M77.6097 295.10355L77.619225 297.65625" style="fill:none;stroke:rgba(170,0,80,.24705882);stroke-width:.09525;stroke-miterlimit:41.994751"/><path d="M93.602175 58.46445A.47625 .47625 0 0092.649675 58.46445A.47625 .47625 0 0093.602175 58.46445z" fill="rgba(165,0,89,.24705882)"/><path d="M93.05925 64.436625A.47625 .47625 0 0092.10675 64.436625A.47625 .47625 0 0093.05925 64.436625z" fill="rgba(165,0,89,.24705882)"/><path d="M103.88917 125.63475A.47625 .47625 0 00102.93668 125.63475A.47625 .47625 0 00103.88917 125.63475z" fill="rgba(165,0,89,.24705882)"/><path d="M84.67725 125.32995A.47625 .47625 0 0083.72475 125.32995A.47625 .47625 0 0084.67725 125.32995z" fill="rgba(165,0,89,.24705882)"/><path d="M104.0511 121.21515A.47625 .47625 0 00103.0986 121.21515A.47625 .47625 0 00104.0511 121.21515z" fill="rgba(165,0,89,.24705882)"/><path d="M89.6874 70.7136A.47625 .47625 0 0088.7349 70.7136A.47625 .47625 0 0089.6874 70.7136z" fill="rgba(165,0,89,.24705882)"/><path d="M92.840175 77.485875A.47625 .47625 0 0091.887675 77.485875A.47625 .47625 0 0092.840175 77.485875z" fill="rgba(165,0,89,.24705882)"/><path d="M96.29775 71.008875A.47625 .47625 0 0095.34525 71.008875A.47625 .47625 0 0096.29775 71.008875z" fill="rgba(165,0,89,.24705882)"/><path d="M98.783775 101.1174A.47625 .47625 0 0097.831275 101.1174A.47625 .47625 0 0098.783775 101.1174z" fill="rgba(165,0,89,.24705882)"/><path d="M84.3915 114.17618A.47625 .47625 0 0083.439 114.17618A.47625 .47625 0 0084.3915 114.17618z" fill="rgba(165,0,89,.24705882)"/><path d="M89.430225 118.9863A.47625 .47625 0 0088.477725 118.9863A.47625 .47625 0 0089.430225 118.9863z" fill="rgba(165,0,89,.24705882)"/><path d="M93.0783 71.03745A.47625 .47625 0 0092.1258 71.03745A.47625 .47625 0 0093.0783 71.03745z" fill="rgba(165,0,89,.24705882)"/><path d="M99.1743 91.125675A.47625 .47625 0 0098.2218 91.125675A.47625 .47625 0 0099.1743 91.125675z" fill="rgba(165,0,89,.24705882)"/><path d="M88.363425 109.66132A.47625 .47625 0 0087.410925 109.66132A.47625 .47625 0 0088.363425 109.66132z" fill="rgba(165,0,89,.24705882)"/><path d="M98.307525 101.1174L98.69805 91.125675" style="fill:none;stroke:rgba(165,0,89,.24705882);stroke-width:.09525;stroke-miterlimit:41.994751"/><path d="M92.363925 77.485875L92.60205 71.03745" style="fill:none;stroke:rgba(165,0,89,.24705882);stroke-width:.09525;stroke-miterlimit:41.994751"/><path d="M93.125925 58.46445L92.583 64.436625" style="fill:none;stroke:rgba(165,0,89,.24705882);stroke-width:.09525;stroke-miterlimit:41.994751"/><path d="M92.60205 71.03745L92.583 64.436625" style="fill:none;stroke:rgba(165,0,89,.24705882);stroke-width:.09525;stroke-miterlimit:41.994751"/><path d="M92.60205 71.03745L95.8215 71.008875" style="fill:none;stroke:rgba(165,0,89,.24705882);stroke-width:.09525;stroke-miterlimit:41.994751"/><path d="M83.91525 114.17617L88.953975 118.9863" style="fill:none;stroke:rgba(165,0,89,.24705882);stroke-width:.09525;stroke-miterlimit:41.994751"/><path d="M92.60205 71.03745L89.21115 70.7136" style="fill:none;stroke:rgba(165,0,89,.24705882);stroke-width:.09525;stroke-miterlimit:41.994751"/><path d="M103.57485 121.21515L98.307525 101.1174" style="fill:none;stroke:rgba(165,0,89,.24705882);stroke-width:.09525;stroke-miterlimit:41.994751"/><path d="M84.201 125.32995L103.41293 125.63475" style="fill:none;stroke:rgba(165,0,89,.24705882);stroke-width:.09525;stroke-miterlimit:41.994751"/><path d="M84.201 125.32995L88.953975 118.9863" style="fill:none;stroke:rgba(165,0,89,.24705882);stroke-width:.09525;stroke-miterlimit:41.994751"/><path d="M88.953975 118.9863L87.887175 109.66132" style="fill:none;stroke:rgba(165,0,89,.24705882);stroke-width:.09525;stroke-miterlimit:41.994751"/><path d="M103.41293 125.63475L103.57485 121.21515" style="fill:none;stroke:rgba(165,0,89,.24705882);stroke-width:.09525;stroke-miterlimit:41.994751"/><path d="M98.69805 91.125675L92.363925 77.485875" style="fill:none;stroke:rgba(165,0,89,.24705882);stroke-width:.09525;stroke-miterlimit:41.994751"/><path d="M111.42345 168.94492A.47625 .47625 0 00110.47095 168.94492A.47625 .47625 0 00111.42345 168.94492z" fill="rgba(161,0,93,.24705882)"/><path d="M25.536525 311.98185A.47625 .47625 0 0024.584025 311.98185A.47625 .47625 0 0025.536525 311.98185z" fill="rgba(161,0,93,.24705882)"/><path d="M77.619225 297.65625L77.543025 298.99928" style="fill:none;stroke:rgba(157,0,93,.24705882);stroke-width:.09525;stroke-miterlimit:41.994751"/><path d="M109.07077 359.8926L110.08043 370.39867" style="fill:none;stroke:rgba(157,0,97,.24705882);stroke-width:.09525;stroke-miterlimit:41.994751"/><path d="M78.019275 298.99928A.47625 .47625 0 0077.066775 298.99928A.47625 .47625 0 0078.019275 298.99928z" fill="rgba(145,0,105,.24705882)"/><path d="M75.64755 301.12335A.47625 .47625 0 0074.69505 301.12335A.47625 .47625 0 0075.64755 301.12335z" fill="rgba(145,0,105,.24705882)"/><path d="M77.543025 298.99928L75.1713 301.12335" style="fill:none;stroke:rgba(145,0,105,.24705882);stroke-width:.09525;stroke-miterlimit:41.994751"/><path d="M25.060275 311.98185L20.335875 312.21045" style="fill:none;stroke:rgba(145,0,109,.24705882);stroke-width:.09525;stroke-miterlimit:41.994751"/><path d="M20.812125 312.21045A.47625 .47625 0 0019.859625 312.21045A.47625 .47625 0 0020.812125 312.21045z" fill="rgba(125,0,125,.24705882)"/><path d="M20.335875 312.21045L16.430625 312.039" style="fill:none;stroke:rgba(125,0,125,.24705882);stroke-width:.09525;stroke-miterlimit:41.994751"/><path d="M16.906875 312.039A.47625 .47625 0 0015.954375 312.039A.47625 .47625 0 0016.906875 312.039z" fill="rgba(125,0,125,.24705882)"/><path d="M75.1713 301.12335L74.1807 301.28527" style="fill:none;stroke:rgba(125,0,125,.24705882);stroke-width:.09525;stroke-miterlimit:41.994751"/><path d="M78.285975 58.3692L88.8492 58.95975" style="fill:none;stroke:rgba(125,0,129,.24705882);stroke-width:.09525;stroke-miterlimit:41.994751"/><path d="M104.013 60.7695L101.727 60.569475" style="fill:none;stroke:rgba(121,0,129,.24705882);stroke-width:.09525;stroke-miterlimit:41.994751"/><path d="M73.0377 302.91405A.47625 .47625 0 0072.0852 302.91405A.47625 .47625 0 0073.0377 302.91405z" fill="rgba(105,0,145,.24705882)"/><path d="M74.65695 301.28527A.47625 .47625 0 0073.70445 301.28527A.47625 .47625 0 0074.65695 301.28527z" fill="rgba(105,0,145,.24705882)"/><path d="M74.1807 301.28527L72.56145 302.91405" style="fill:none;stroke:rgba(105,0,145,.24705882);stroke-width:.09525;stroke-miterlimit:41.994751"/><path d="M109.54702 359.8926A.47625 .47625 0 00108.59453 359.8926A.47625 .47625 0 00109.54702 359.8926z" fill="rgba(101,0,149,.24705882)"/><path d="M103.56533 347.94825L109.07077 359.8926" style="fill:none;stroke:rgba(97,0,157,.24705882);stroke-width:.09525;stroke-miterlimit:41.994751"/><path d="M16.430625 312.039L16.163925 299.38027" style="fill:none;stroke:rgba(93,0,161,.24705882);stroke-width:.09525;stroke-miterlimit:41.994751"/><path d="M104.04157 347.94825A.47625 .47625 0 00103.08908 347.94825A.47625 .47625 0 00104.04157 347.94825z" fill="rgba(89,0,161,.24705882)"/><path d="M72.56145 302.91405L72.723375 304.59997" style="fill:none;stroke:rgba(76,0,174,.24705882);stroke-width:.09525;stroke-miterlimit:41.994751"/><path d="M75.11415 314.95365A.47625 .47625 0 0074.16165 314.95365A.47625 .47625 0 0075.11415 314.95365z" fill="rgba(76,0,178,.24705882)"/><path d="M81.429225 318.39217L103.56533 347.94825" style="fill:none;stroke:rgba(72,0,178,.24705882);stroke-width:.09525;stroke-miterlimit:41.994751"/><path d="M74.6379 314.95365L81.429225 318.39217" style="fill:none;stroke:rgba(68,0,186,.24705882);stroke-width:.09525;stroke-miterlimit:41.994751"/><path d="M74.6379 314.95365L72.723375 304.59997" style="fill:none;stroke:rgba(64,0,190,.24705882);stroke-width:.09525;stroke-miterlimit:41.994751"/><path d="M81.905475 318.39217A.47625 .47625 0 0080.952975 318.39217A.47625 .47625 0 0081.905475 318.39217z" fill="rgba(60,0,194,.24705882)"/><path d="M16.640175 299.38027A.47625 .47625 0 0015.687675 299.38027A.47625 .47625 0 0016.640175 299.38027z" fill="rgba(56,0,198,.24705882)"/><path d="M102.20325 60.569475A.47625 .47625 0 00101.25075 60.569475A.47625 .47625 0 00102.20325 60.569475z" fill="rgba(52,0,202,.24705882)"/><path d="M73.199625 304.59997A.47625 .47625 0 0072.247125 304.59997A.47625 .47625 0 0073.199625 304.59997z" fill="rgba(48,0,202,.24705882)"/><path d="M89.32545 58.95975A.47625 .47625 0 0088.37295 58.95975A.47625 .47625 0 0089.32545 58.95975z" fill="rgba(40,0,214,.24705882)"/><path d="M16.163925 299.38027L16.05915 292.90328" style="fill:none;stroke:rgba(32,0,222,.24705882);stroke-width:.09525;stroke-miterlimit:41.994751"/><path d="M101.727 60.569475L95.2881 60.093225" style="fill:none;stroke:rgba(24,0,230,.24705882);stroke-width:.09525;stroke-miterlimit:41.994751"/><path d="M95.2881 60.093225L88.8492 58.95975" style="fill:none;stroke:rgba(20,0,234,.24705882);stroke-width:.09525;stroke-miterlimit:41.994751"/><path d="M16.5354 292.90328A.47625 .47625 0 0015.5829 292.90328A.47625 .47625 0 0016.5354 292.90328z" fill="rgba(8,0,246,.24705882)"/><path d="M16.05915 292.90328L12.55395 279.8064" style="fill:none;stroke:rgba(8,0,246,.24705882);stroke-width:.09525;stroke-miterlimit:41.994751"/><path d="M7.305675 281.93048A.47625 .47625 0 006.353175 281.93048A.47625 .47625 0 007.305675 281.93048z" fill="rgba(8,0,246,.24705882)"/><path d="M13.0302 279.8064A.47625 .47625 0 0012.0777 279.8064A.47625 .47625 0 0013.0302 279.8064z" fill="rgba(8,0,246,.24705882)"/><path d="M4.219575 304.74285A.47625 .47625 0 003.267075 304.74285A.47625 .47625 0 004.219575 304.74285z" fill="rgba(8,0,246,.24705882)"/><path d="M6.829425 281.93048L3.743325 304.74285" style="fill:none;stroke:rgba(8,0,246,.24705882);stroke-width:.09525;stroke-miterlimit:41.994751"/><path d="M12.55395 279.8064L6.829425 281.93048" style="fill:none;stroke:rgba(8,0,246,.24705882);stroke-width:.09525;stroke-miterlimit:41.994751"/><path d="M95.76435 60.093225A.47625 .47625 0 0094.81185 60.093225A.47625 .47625 0 0095.76435 60.093225z" fill="rgba(0,0,255,.24705882)"/></svg>