<svg version="1.1" width="1016.9843mm" height="695.5155mm" viewBox="0 0 1016.9843 695.5155" xmlns="http://www.w3.org/2000/svg" xmlns:xlink="http://www.w3.org/1999/xlink"><path d="M652.55775 585.50175H654.46275" style="fill:none;stroke:#f00;stroke-width:.09525;stroke-miterlimit:41.994751"/><path d="M652.55775 585.50175V583.59675" style="fill:none;stroke:#0f0;stroke-width:.09525;stroke-miterlimit:41.994751"/><path d="M407.03183 695.22975H617.13428V451.26592H407.03183z" style="fill:rgba(255,0,0,.24705882);stroke:rgba(255,0,0,.24705882);stroke-width:.09525;stroke-miterlimit:41.994751"/><path d="M518.11238 551.4594A.47625 .47625 0 00517.15987 551.4594A.47625 .47625 0 00518.11238 551.4594z" fill="rgba(255,0,0,.24705882)"/><path d="M257.01308 417.75697H274.18665V396.83055H257.01308z" style="fill:rgba(255,0,0,.24705882);stroke:rgba(255,0,0,.24705882);stroke-width:.09525;stroke-miterlimit:41.994751"/><path d="M266.90955 407.07945A.47625 .47625 0 00265.95705 407.07945A.47625 .47625 0 00266.90955 407.07945z" fill="rgba(255,0,0,.24705882)"/><path d="M627.99278 563.81332L517.63612 551.4594" style="fill:none;stroke:rgba(250,0,4,.24705882);stroke-width:.09525;stroke-miterlimit:41.994751"/><path d="M517.63612 551.4594L629.17388 501.11025" style="fill:none;stroke:rgba(250,0,4,.24705882);stroke-width:.09525;stroke-miterlimit:41.994751"/><path d="M330.9747 545.0967L517.63612 551.4594" style="fill:none;stroke:rgba(250,0,4,.24705882);stroke-width:.09525;stroke-miterlimit:41.994751"/><path d="M384.00038 407.49855L517.63612 551.4594" style="fill:none;stroke:rgba(250,0,4,.24705882);stroke-width:.09525;stroke-miterlimit:41.994751"/><path d="M266.4333 407.07945L264.15683 348.8055" style="fill:none;stroke:rgba(250,0,4,.24705882);stroke-width:.09525;stroke-miterlimit:41.994751"/><path d="M330.9747 545.0967L266.4333 407.07945" style="fill:none;stroke:rgba(250,0,4,.24705882);stroke-width:.09525;stroke-miterlimit:41.994751"/><path d="M266.4333 407.07945L145.38008 345.74797" style="fill:none;stroke:rgba(250,0,4,.24705882);stroke-width:.09525;stroke-miterlimit:41.994751"/><path d="M323.78333 408.051L266.4333 407.07945" style="fill:none;stroke:rgba(250,0,4,.24705882);stroke-width:.09525;stroke-miterlimit:41.994751"/><path d="M635.36513 635.06985L517.63612 551.4594" style="fill:none;stroke:rgba(250,0,4,.24705882);stroke-width:.09525;stroke-miterlimit:41.994751"/><path d="M539.01975 432.7779L517.63612 551.4594" style="fill:none;stroke:rgba(246,0,8,.24705882);stroke-width:.09525;stroke-miterlimit:41.994751"/><path d="M927.1254 396.45907H1016.6509V308.50522H927.1254z" style="fill:rgba(246,0,8,.24705882);stroke:rgba(246,0,8,.24705882);stroke-width:.09525;stroke-miterlimit:41.994751"/><path d="M956.10998 347.91015A.47625 .47625 0 00955.15748 347.91015A.47625 .47625 0 00956.10998 347.91015z" fill="rgba(246,0,8,.24705882)"/><path d="M274.32 416.9283H371.9703V396.7734H274.32z" style="fill:rgba(246,0,8,.24705882);stroke:rgba(246,0,8,.24705882);stroke-width:.09525;stroke-miterlimit:41.994751"/><path d="M324.25958 408.051A.47625 .47625 0 00323.30708 408.051A.47625 .47625 0 00324.25958 408.051z" fill="rgba(246,0,8,.24705882)"/><path d="M372.48465 416.48062H395.23035V396.80197H372.48465z" style="fill:rgba(246,0,8,.24705882);stroke:rgba(246,0,8,.24705882);stroke-width:.09525;stroke-miterlimit:41.994751"/><path d="M384.47663 407.49855A.47625 .47625 0 00383.52413 407.49855A.47625 .47625 0 00384.47663 407.49855z" fill="rgba(246,0,8,.24705882)"/><path d="M372.11318 298.52302H395.69708V282.68295H372.11318z" style="fill:rgba(246,0,8,.24705882);stroke:rgba(246,0,8,.24705882);stroke-width:.09525;stroke-miterlimit:41.994751"/><path d="M385.41008 292.93185A.47625 .47625 0 00384.45758 292.93185A.47625 .47625 0 00385.41008 292.93185z" fill="rgba(246,0,8,.24705882)"/><path d="M590.4738 107.41342H664.74975V.36195H590.4738z" style="fill:rgba(246,0,8,.24705882);stroke:rgba(246,0,8,.24705882);stroke-width:.09525;stroke-miterlimit:41.994751"/><path d="M599.39873 60.7695A.47625 .47625 0 00598.44623 60.7695A.47625 .47625 0 00599.39873 60.7695z" fill="rgba(246,0,8,.24705882)"/><path d="M665.34983 365.8362H677.09415V329.7555H665.34983z" style="fill:rgba(246,0,8,.24705882);stroke:rgba(246,0,8,.24705882);stroke-width:.09525;stroke-miterlimit:41.994751"/><path d="M672.03638 348.97695A.47625 .47625 0 00671.08388 348.97695A.47625 .47625 0 00672.03638 348.97695z" fill="rgba(246,0,8,.24705882)"/><path d="M257.00355 695.22975H404.83155V417.22357H257.00355z" style="fill:rgba(246,0,8,.24705882);stroke:rgba(246,0,8,.24705882);stroke-width:.09525;stroke-miterlimit:41.994751"/><path d="M331.45095 545.0967A.47625 .47625 0 00330.49845 545.0967A.47625 .47625 0 00331.45095 545.0967z" fill="rgba(246,0,8,.24705882)"/><path d="M617.23905 546.41115H664.52115V451.28497H617.23905z" style="fill:rgba(246,0,8,.24705882);stroke:rgba(246,0,8,.24705882);stroke-width:.09525;stroke-miterlimit:41.994751"/><path d="M629.65013 501.11025A.47625 .47625 0 00628.69763 501.11025A.47625 .47625 0 00629.65013 501.11025z" fill="rgba(246,0,8,.24705882)"/><path d="M256.73685 282.27337H404.17433V.28575H256.73685z" style="fill:rgba(246,0,8,.24705882);stroke:rgba(246,0,8,.24705882);stroke-width:.09525;stroke-miterlimit:41.994751"/><path d="M331.8891 143.55128A.47625 .47625 0 00330.9366 143.55128A.47625 .47625 0 00331.8891 143.55128z" fill="rgba(246,0,8,.24705882)"/><path d="M274.23428 298.72305H371.75123V282.5496H274.23428z" style="fill:rgba(246,0,8,.24705882);stroke:rgba(246,0,8,.24705882);stroke-width:.09525;stroke-miterlimit:41.994751"/><path d="M325.09778 291.846A.47625 .47625 0 00324.14528 291.846A.47625 .47625 0 00325.09778 291.846z" fill="rgba(246,0,8,.24705882)"/><path d="M257.4036 298.77067H273.69135V282.60675H257.4036z" style="fill:rgba(246,0,8,.24705882);stroke:rgba(246,0,8,.24705882);stroke-width:.09525;stroke-miterlimit:41.994751"/><path d="M266.0142 291.25545A.47625 .47625 0 00265.0617 291.25545A.47625 .47625 0 00266.0142 291.25545z" fill="rgba(246,0,8,.24705882)"/><path d="M677.17988 389.93445H761.97143V305.13337H677.17988z" style="fill:rgba(246,0,8,.24705882);stroke:rgba(246,0,8,.24705882);stroke-width:.09525;stroke-miterlimit:41.994751"/><path d="M720.52815 347.80537A.47625 .47625 0 00719.57565 347.80537A.47625 .47625 0 00720.52815 347.80537z" fill="rgba(246,0,8,.24705882)"/><path d="M257.79413 396.56385H273.73898V299.02785H257.79413z" style="fill:rgba(246,0,8,.24705882);stroke:rgba(246,0,8,.24705882);stroke-width:.09525;stroke-miterlimit:41.994751"/><path d="M264.63308 348.8055A.47625 .47625 0 00263.68058 348.8055A.47625 .47625 0 00264.63308 348.8055z" fill="rgba(246,0,8,.24705882)"/><path d="M641.1087 390.4869H664.74975V305.01907H641.1087z" style="fill:rgba(246,0,8,.24705882);stroke:rgba(246,0,8,.24705882);stroke-width:.09525;stroke-miterlimit:41.994751"/><path d="M652.70063 348.97695A.47625 .47625 0 00651.74812 348.97695A.47625 .47625 0 00652.70063 348.97695z" fill="rgba(246,0,8,.24705882)"/><path d="M.28575 416.91877H257.15595V282.56865H.28575z" style="fill:rgba(246,0,8,.24705882);stroke:rgba(246,0,8,.24705882);stroke-width:.09525;stroke-miterlimit:41.994751"/><path d="M145.85633 345.74797A.47625 .47625 0 00144.90383 345.74797A.47625 .47625 0 00145.85633 345.74797z" fill="rgba(246,0,8,.24705882)"/><path d="M590.45475 148.3614H649.80503V108.3945H590.45475z" style="fill:rgba(246,0,8,.24705882);stroke:rgba(246,0,8,.24705882);stroke-width:.09525;stroke-miterlimit:41.994751"/><path d="M598.31288 129.86385A.47625 .47625 0 00597.36037 129.86385A.47625 .47625 0 00598.31288 129.86385z" fill="rgba(246,0,8,.24705882)"/><path d="M404.65058 282.22575H589.37843V.28575H404.65058z" style="fill:rgba(246,0,8,.24705882);stroke:rgba(246,0,8,.24705882);stroke-width:.09525;stroke-miterlimit:41.994751"/><path d="M481.30778 134.12153A.47625 .47625 0 00480.35528 134.12153A.47625 .47625 0 00481.30778 134.12153z" fill="rgba(246,0,8,.24705882)"/><path d="M395.91615 415.64243H640.82295V282.61627H395.91615z" style="fill:rgba(246,0,8,.24705882);stroke:rgba(246,0,8,.24705882);stroke-width:.09525;stroke-miterlimit:41.994751"/><path d="M575.97675 348.82455A.47625 .47625 0 00575.02425 348.82455A.47625 .47625 0 00575.97675 348.82455z" fill="rgba(246,0,8,.24705882)"/><path d="M372.2751 396.56385H396.00188V298.73257H372.2751z" style="fill:rgba(246,0,8,.24705882);stroke:rgba(246,0,8,.24705882);stroke-width:.09525;stroke-miterlimit:41.994751"/><path d="M386.5245 350.7105A.47625 .47625 0 00385.572 350.7105A.47625 .47625 0 00386.5245 350.7105z" fill="rgba(246,0,8,.24705882)"/><path d="M590.63573 281.7876H640.4991V244.89727H590.63573z" style="fill:rgba(246,0,8,.24705882);stroke:rgba(246,0,8,.24705882);stroke-width:.09525;stroke-miterlimit:41.994751"/><path d="M613.40048 263.14717A.47625 .47625 0 00612.44798 263.14717A.47625 .47625 0 00613.40048 263.14717z" fill="rgba(246,0,8,.24705882)"/><path d="M617.5248 585.31125H649.76693V546.8493H617.5248z" style="fill:rgba(246,0,8,.24705882);stroke:rgba(246,0,8,.24705882);stroke-width:.09525;stroke-miterlimit:41.994751"/><path d="M628.46903 563.81332A.47625 .47625 0 00627.51653 563.81332A.47625 .47625 0 00628.46903 563.81332z" fill="rgba(246,0,8,.24705882)"/><path d="M590.21663 244.3353H664.2735V149.21865H590.21663z" style="fill:rgba(246,0,8,.24705882);stroke:rgba(246,0,8,.24705882);stroke-width:.09525;stroke-miterlimit:41.994751"/><path d="M602.64675 199.85355A.47625 .47625 0 00601.69425 199.85355A.47625 .47625 0 00602.64675 199.85355z" fill="rgba(246,0,8,.24705882)"/><path d="M597.83663 129.86385L480.83153 134.12153" style="fill:none;stroke:rgba(246,0,8,.24705882);stroke-width:.09525;stroke-miterlimit:41.994751"/><path d="M597.83663 129.86385L602.1705 199.85355" style="fill:none;stroke:rgba(246,0,8,.24705882);stroke-width:.09525;stroke-miterlimit:41.994751"/><path d="M575.5005 348.82455L384.93383 292.93185" style="fill:none;stroke:rgba(246,0,8,.24705882);stroke-width:.09525;stroke-miterlimit:41.994751"/><path d="M575.5005 348.82455L384.00038 407.49855" style="fill:none;stroke:rgba(246,0,8,.24705882);stroke-width:.09525;stroke-miterlimit:41.994751"/><path d="M627.99278 563.81332L629.17388 501.11025" style="fill:none;stroke:rgba(246,0,8,.24705882);stroke-width:.09525;stroke-miterlimit:41.994751"/><path d="M575.5005 348.82455L386.04825 350.7105" style="fill:none;stroke:rgba(246,0,8,.24705882);stroke-width:.09525;stroke-miterlimit:41.994751"/><path d="M602.1705 199.85355L612.92423 263.14718" style="fill:none;stroke:rgba(246,0,8,.24705882);stroke-width:.09525;stroke-miterlimit:41.994751"/><path d="M480.83153 134.12153L575.5005 348.82455" style="fill:none;stroke:rgba(246,0,8,.24705882);stroke-width:.09525;stroke-miterlimit:41.994751"/><path d="M480.83153 134.12153L384.93383 292.93185" style="fill:none;stroke:rgba(246,0,8,.24705882);stroke-width:.09525;stroke-miterlimit:41.994751"/><path d="M480.83153 134.12153L331.41285 143.55128" style="fill:none;stroke:rgba(246,0,8,.24705882);stroke-width:.09525;stroke-miterlimit:41.994751"/><path d="M602.1705 199.85355L480.83153 134.12153" style="fill:none;stroke:rgba(246,0,8,.24705882);stroke-width:.09525;stroke-miterlimit:41.994751"/><path d="M384.93383 292.93185L331.41285 143.55128" style="fill:none;stroke:rgba(246,0,8,.24705882);stroke-width:.09525;stroke-miterlimit:41.994751"/><path d="M612.92423 263.14718L575.5005 348.82455" style="fill:none;stroke:rgba(246,0,8,.24705882);stroke-width:.09525;stroke-miterlimit:41.994751"/><path d="M384.93383 292.93185L386.04825 350.7105" style="fill:none;stroke:rgba(246,0,8,.24705882);stroke-width:.09525;stroke-miterlimit:41.994751"/><path d="M597.83663 129.86385L598.92248 60.7695" style="fill:none;stroke:rgba(246,0,8,.24705882);stroke-width:.09525;stroke-miterlimit:41.994751"/><path d="M264.15683 348.8055L145.38008 345.74797" style="fill:none;stroke:rgba(246,0,8,.24705882);stroke-width:.09525;stroke-miterlimit:41.994751"/><path d="M265.53795 291.25545L331.41285 143.55128" style="fill:none;stroke:rgba(246,0,8,.24705882);stroke-width:.09525;stroke-miterlimit:41.994751"/><path d="M265.53795 291.25545L324.62153 291.846" style="fill:none;stroke:rgba(246,0,8,.24705882);stroke-width:.09525;stroke-miterlimit:41.994751"/><path d="M265.53795 291.25545L145.38008 345.74797" style="fill:none;stroke:rgba(246,0,8,.24705882);stroke-width:.09525;stroke-miterlimit:41.994751"/><path d="M598.92248 60.7695L480.83153 134.12153" style="fill:none;stroke:rgba(246,0,8,.24705882);stroke-width:.09525;stroke-miterlimit:41.994751"/><path d="M264.15683 348.8055L265.53795 291.25545" style="fill:none;stroke:rgba(246,0,8,.24705882);stroke-width:.09525;stroke-miterlimit:41.994751"/><path d="M384.00038 407.49855L330.9747 545.0967" style="fill:none;stroke:rgba(246,0,8,.24705882);stroke-width:.09525;stroke-miterlimit:41.994751"/><path d="M384.00038 407.49855L323.78333 408.051" style="fill:none;stroke:rgba(246,0,8,.24705882);stroke-width:.09525;stroke-miterlimit:41.994751"/><path d="M384.00038 407.49855L386.04825 350.7105" style="fill:none;stroke:rgba(246,0,8,.24705882);stroke-width:.09525;stroke-miterlimit:41.994751"/><path d="M323.78333 408.051L330.9747 545.0967" style="fill:none;stroke:rgba(246,0,8,.24705882);stroke-width:.09525;stroke-miterlimit:41.994751"/><path d="M720.0519 347.80538L671.56013 348.97695" style="fill:none;stroke:rgba(246,0,8,.24705882);stroke-width:.09525;stroke-miterlimit:41.994751"/><path d="M652.22438 348.97695L575.5005 348.82455" style="fill:none;stroke:rgba(246,0,8,.24705882);stroke-width:.09525;stroke-miterlimit:41.994751"/><path d="M671.56013 348.97695H652.22438" style="fill:none;stroke:rgba(246,0,8,.24705882);stroke-width:.09525;stroke-miterlimit:41.994751"/><path d="M331.41285 143.55128L324.62153 291.846" style="fill:none;stroke:rgba(246,0,8,.24705882);stroke-width:.09525;stroke-miterlimit:41.994751"/><path d="M324.62153 291.846L384.93383 292.93185" style="fill:none;stroke:rgba(246,0,8,.24705882);stroke-width:.09525;stroke-miterlimit:41.994751"/><path d="M720.0519 347.80538L763.31445 347.7768" style="fill:none;stroke:rgba(246,0,8,.24705882);stroke-width:.09525;stroke-miterlimit:41.994751"/><path d="M762.06668 352.32975H765.3147V343.281H762.06668z" style="fill:rgba(246,0,8,.24705882);stroke:rgba(246,0,8,.24705882);stroke-width:.09525;stroke-miterlimit:41.994751"/><path d="M763.7907 347.7768A.47625 .47625 0 00762.8382 347.7768A.47625 .47625 0 00763.7907 347.7768z" fill="rgba(246,0,8,.24705882)"/><path d="M955.63373 347.91015L774.55395 347.79585" style="fill:none;stroke:rgba(246,0,8,.24705882);stroke-width:.09525;stroke-miterlimit:41.994751"/><path d="M763.31445 347.7768L774.55395 347.79585" style="fill:none;stroke:rgba(246,0,8,.24705882);stroke-width:.09525;stroke-miterlimit:41.994751"/><path d="M635.36513 635.06985L627.99278 563.81332" style="fill:none;stroke:rgba(246,0,8,.24705882);stroke-width:.09525;stroke-miterlimit:41.994751"/><path d="M765.43853 358.01617H926.8968V337.21357H765.43853z" style="fill:rgba(246,0,8,.24705882);stroke:rgba(246,0,8,.24705882);stroke-width:.09525;stroke-miterlimit:41.994751"/><path d="M775.0302 347.79585A.47625 .47625 0 00774.0777 347.79585A.47625 .47625 0 00775.0302 347.79585z" fill="rgba(246,0,8,.24705882)"/><path d="M617.4486 695.22975H664.64498V585.33983H617.4486z" style="fill:rgba(246,0,8,.24705882);stroke:rgba(246,0,8,.24705882);stroke-width:.09525;stroke-miterlimit:41.994751"/><path d="M635.84138 635.06985A.47625 .47625 0 00634.88887 635.06985A.47625 .47625 0 00635.84138 635.06985z" fill="rgba(246,0,8,.24705882)"/><path d="M575.5005 348.82455L539.01975 432.7779" style="fill:none;stroke:rgba(242,0,12,.24705882);stroke-width:.09525;stroke-miterlimit:41.994751"/><path d="M539.01975 432.7779L384.00038 407.49855" style="fill:none;stroke:rgba(242,0,12,.24705882);stroke-width:.09525;stroke-miterlimit:41.994751"/><path d="M406.32698 448.72275H640.461V416.33775H406.32698z" style="fill:rgba(238,0,16,.24705882);stroke:rgba(238,0,16,.24705882);stroke-width:.09525;stroke-miterlimit:41.994751"/><path d="M539.496 432.7779A.47625 .47625 0 00538.5435 432.7779A.47625 .47625 0 00539.496 432.7779z" fill="rgba(238,0,16,.24705882)"/><path d="M331.41285 143.55128L154.23833 146.97075" style="fill:none;stroke:rgba(238,0,16,.24705882);stroke-width:.09525;stroke-miterlimit:41.994751"/><path d="M154.23833 146.97075L265.53795 291.25545" style="fill:none;stroke:rgba(238,0,16,.24705882);stroke-width:.09525;stroke-miterlimit:41.994751"/><path d="M154.23833 146.97075L145.38008 345.74797" style="fill:none;stroke:rgba(238,0,16,.24705882);stroke-width:.09525;stroke-miterlimit:41.994751"/><path d="M155.34323 537.75293L266.4333 407.07945" style="fill:none;stroke:rgba(234,0,16,.24705882);stroke-width:.09525;stroke-miterlimit:41.994751"/><path d="M155.34323 537.75293L145.38008 345.74797" style="fill:none;stroke:rgba(230,0,20,.24705882);stroke-width:.09525;stroke-miterlimit:41.994751"/><path d="M155.34323 537.75293L330.9747 545.0967" style="fill:none;stroke:rgba(230,0,20,.24705882);stroke-width:.09525;stroke-miterlimit:41.994751"/><path d="M369.73193 348.07208L386.04825 350.7105" style="fill:none;stroke:rgba(230,0,24,.24705882);stroke-width:.09525;stroke-miterlimit:41.994751"/><path d="M323.78333 408.051L323.48805 393.41107" style="fill:none;stroke:rgba(230,0,24,.24705882);stroke-width:.09525;stroke-miterlimit:41.994751"/><path d="M276.95843 348.51975L264.15683 348.8055" style="fill:none;stroke:rgba(230,0,24,.24705882);stroke-width:.09525;stroke-miterlimit:41.994751"/><path d="M323.83095 301.55198L324.62153 291.846" style="fill:none;stroke:rgba(230,0,24,.24705882);stroke-width:.09525;stroke-miterlimit:41.994751"/><path d="M.28575 280.66365H255.9558V.28575H.28575z" style="fill:rgba(226,0,28,.24705882);stroke:rgba(226,0,28,.24705882);stroke-width:.09525;stroke-miterlimit:41.994751"/><path d="M154.71458 146.97075A.47625 .47625 0 00153.76208 146.97075A.47625 .47625 0 00154.71458 146.97075z" fill="rgba(226,0,28,.24705882)"/><path d="M.3048 695.1726H257.175V417.2712H.3048z" style="fill:rgba(218,0,36,.24705882);stroke:rgba(218,0,36,.24705882);stroke-width:.09525;stroke-miterlimit:41.994751"/><path d="M155.81948 537.75293A.47625 .47625 0 00154.86698 537.75293A.47625 .47625 0 00155.81948 537.75293z" fill="rgba(218,0,36,.24705882)"/><path d="M276.32025 353.1489H280.93988V341.63317H276.32025z" style="fill:rgba(210,0,40,.24705882);stroke:rgba(210,0,40,.24705882);stroke-width:.09525;stroke-miterlimit:41.994751"/><path d="M277.43468 348.51975A.47625 .47625 0 00276.48218 348.51975A.47625 .47625 0 00277.43468 348.51975z" fill="rgba(210,0,40,.24705882)"/><path d="M366.1791 353.70135H370.88445V341.39505H366.1791z" style="fill:rgba(210,0,40,.24705882);stroke:rgba(210,0,40,.24705882);stroke-width:.09525;stroke-miterlimit:41.994751"/><path d="M370.20818 348.07207A.47625 .47625 0 00369.25568 348.07207A.47625 .47625 0 00370.20818 348.07207z" fill="rgba(210,0,40,.24705882)"/><path d="M316.60148 396.63052H328.81253V390.65835H316.60148z" style="fill:rgba(210,0,40,.24705882);stroke:rgba(210,0,40,.24705882);stroke-width:.09525;stroke-miterlimit:41.994751"/><path d="M323.9643 393.41107A.47625 .47625 0 00323.0118 393.41107A.47625 .47625 0 00323.9643 393.41107z" fill="rgba(210,0,40,.24705882)"/><path d="M315.22035 305.22862H330.58418V299.78985H315.22035z" style="fill:rgba(210,0,40,.24705882);stroke:rgba(210,0,40,.24705882);stroke-width:.09525;stroke-miterlimit:41.994751"/><path d="M324.3072 301.55197A.47625 .47625 0 00323.3547 301.55197A.47625 .47625 0 00324.3072 301.55197z" fill="rgba(210,0,40,.24705882)"/><path d="M323.83095 301.55198L323.469 313.53442" style="fill:none;stroke:rgba(210,0,44,.24705882);stroke-width:.09525;stroke-miterlimit:41.994751"/><path d="M323.2023 349.92945L369.73193 348.07208" style="fill:none;stroke:rgba(210,0,44,.24705882);stroke-width:.09525;stroke-miterlimit:41.994751"/><path d="M323.2023 349.92945L276.95843 348.51975" style="fill:none;stroke:rgba(210,0,44,.24705882);stroke-width:.09525;stroke-miterlimit:41.994751"/><path d="M322.75463 381.9906L323.48805 393.41107" style="fill:none;stroke:rgba(210,0,44,.24705882);stroke-width:.09525;stroke-miterlimit:41.994751"/><path d="M300.86618 323.79285H347.95778V305.8287H300.86618z" style="fill:rgba(206,0,48,.24705882);stroke:rgba(206,0,48,.24705882);stroke-width:.09525;stroke-miterlimit:41.994751"/><path d="M323.94525 313.53442A.47625 .47625 0 00322.99275 313.53442A.47625 .47625 0 00323.94525 313.53442z" fill="rgba(206,0,48,.24705882)"/><path d="M299.14215 389.86777H349.72942V372.9228H299.14215z" style="fill:rgba(206,0,48,.24705882);stroke:rgba(206,0,48,.24705882);stroke-width:.09525;stroke-miterlimit:41.994751"/><path d="M323.23088 381.9906A.47625 .47625 0 00322.27838 381.9906A.47625 .47625 0 00323.23088 381.9906z" fill="rgba(206,0,48,.24705882)"/><path d="M280.9113 372.53227H365.82668V323.94525H280.9113z" style="fill:rgba(206,0,48,.24705882);stroke:rgba(206,0,48,.24705882);stroke-width:.09525;stroke-miterlimit:41.994751"/><path d="M323.67855 349.92945A.47625 .47625 0 00322.72605 349.92945A.47625 .47625 0 00323.67855 349.92945z" fill="rgba(206,0,48,.24705882)"/><path d="M323.2023 349.92945L322.75463 381.9906" style="fill:none;stroke:rgba(206,0,48,.24705882);stroke-width:.09525;stroke-miterlimit:41.994751"/><path d="M323.469 313.53442L323.2023 349.92945" style="fill:none;stroke:rgba(206,0,48,.24705882);stroke-width:.09525;stroke-miterlimit:41.994751"/><path d="M598.92248 60.7695L670.57905 57.74055" style="fill:none;stroke:rgba(157,0,97,.24705882);stroke-width:.09525;stroke-miterlimit:41.994751"/><path d="M669.5313 194.691L602.1705 199.85355" style="fill:none;stroke:rgba(157,0,97,.24705882);stroke-width:.09525;stroke-miterlimit:41.994751"/><path d="M670.96958 500.80545L629.17388 501.11025" style="fill:none;stroke:rgba(157,0,97,.24705882);stroke-width:.09525;stroke-miterlimit:41.994751"/><path d="M670.179 633.34582L635.36513 635.06985" style="fill:none;stroke:rgba(157,0,97,.24705882);stroke-width:.09525;stroke-miterlimit:41.994751"/><path d="M715.16558 246.44985H771.02018V146.58975H715.16558z" style="fill:rgba(141,0,113,.24705882);stroke:rgba(141,0,113,.24705882);stroke-width:.09525;stroke-miterlimit:41.994751"/><path d="M747.87443 196.37692A.47625 .47625 0 00746.92192 196.37692A.47625 .47625 0 00747.87443 196.37692z" fill="rgba(141,0,113,.24705882)"/><path d="M716.9658 685.63807H770.84873V585.84465H716.9658z" style="fill:rgba(141,0,113,.24705882);stroke:rgba(141,0,113,.24705882);stroke-width:.09525;stroke-miterlimit:41.994751"/><path d="M740.07345 634.15545A.47625 .47625 0 00739.12095 634.15545A.47625 .47625 0 00740.07345 634.15545z" fill="rgba(141,0,113,.24705882)"/><path d="M714.3369 548.39235H771.42975V448.46557H714.3369z" style="fill:rgba(141,0,113,.24705882);stroke:rgba(141,0,113,.24705882);stroke-width:.09525;stroke-miterlimit:41.994751"/><path d="M737.05403 495.90007A.47625 .47625 0 00736.10153 495.90007A.47625 .47625 0 00737.05403 495.90007z" fill="rgba(141,0,113,.24705882)"/><path d="M714.80363 110.01375H770.7249V9.42975H714.80363z" style="fill:rgba(141,0,113,.24705882);stroke:rgba(141,0,113,.24705882);stroke-width:.09525;stroke-miterlimit:41.994751"/><path d="M733.79648 53.6448A.47625 .47625 0 00732.84398 53.6448A.47625 .47625 0 00733.79648 53.6448z" fill="rgba(141,0,113,.24705882)"/><path d="M698.43015 60.207525L733.32023 53.6448" style="fill:none;stroke:rgba(125,0,129,.24705882);stroke-width:.09525;stroke-miterlimit:41.994751"/><path d="M747.39818 196.37692L697.89675 193.30035" style="fill:none;stroke:rgba(125,0,129,.24705882);stroke-width:.09525;stroke-miterlimit:41.994751"/><path d="M705.29768 348.49117L720.0519 347.80538" style="fill:none;stroke:rgba(121,0,129,.24705882);stroke-width:.09525;stroke-miterlimit:41.994751"/><path d="M736.57778 495.90008L696.11558 501.17693" style="fill:none;stroke:rgba(121,0,133,.24705882);stroke-width:.09525;stroke-miterlimit:41.994751"/><path d="M695.5155 635.21272L739.5972 634.15545" style="fill:none;stroke:rgba(121,0,133,.24705882);stroke-width:.09525;stroke-miterlimit:41.994751"/><path d="M679.71353 110.01375H713.21295V9.42975H679.71353z" style="fill:rgba(109,0,145,.24705882);stroke:rgba(109,0,145,.24705882);stroke-width:.09525;stroke-miterlimit:41.994751"/><path d="M698.9064 60.207525A.47625 .47625 0 00697.9539 60.207525A.47625 .47625 0 00698.9064 60.207525z" fill="rgba(109,0,145,.24705882)"/><path d="M686.49533 244.97347H711.2508V146.58975H686.49533z" style="fill:rgba(105,0,145,.24705882);stroke:rgba(105,0,145,.24705882);stroke-width:.09525;stroke-miterlimit:41.994751"/><path d="M698.373 193.30035A.47625 .47625 0 00697.4205 193.30035A.47625 .47625 0 00698.373 193.30035z" fill="rgba(105,0,145,.24705882)"/><path d="M678.5991 547.18268H708.82193V450.73253H678.5991z" style="fill:rgba(105,0,149,.24705882);stroke:rgba(105,0,149,.24705882);stroke-width:.09525;stroke-miterlimit:41.994751"/><path d="M696.59183 501.17692A.47625 .47625 0 00695.63932 501.17692A.47625 .47625 0 00696.59183 501.17692z" fill="rgba(105,0,149,.24705882)"/><path d="M684.37125 686.08575H715.7847V585.50175H684.37125z" style="fill:rgba(101,0,149,.24705882);stroke:rgba(101,0,149,.24705882);stroke-width:.09525;stroke-miterlimit:41.994751"/><path d="M695.99175 635.21272A.47625 .47625 0 00695.03925 635.21272A.47625 .47625 0 00695.99175 635.21272z" fill="rgba(101,0,149,.24705882)"/><path d="M670.57905 57.74055L698.43015 60.207525" style="fill:none;stroke:rgba(89,0,165,.24705882);stroke-width:.09525;stroke-miterlimit:41.994751"/><path d="M697.89675 193.30035L669.5313 194.691" style="fill:none;stroke:rgba(89,0,165,.24705882);stroke-width:.09525;stroke-miterlimit:41.994751"/><path d="M696.11558 501.17693L670.96958 500.80545" style="fill:none;stroke:rgba(85,0,165,.24705882);stroke-width:.09525;stroke-miterlimit:41.994751"/><path d="M670.179 633.34582L695.5155 635.21272" style="fill:none;stroke:rgba(85,0,170,.24705882);stroke-width:.09525;stroke-miterlimit:41.994751"/><path d="M664.74975 687.75262H676.72268V583.98727H664.74975z" style="fill:rgba(68,0,186,.24705882);stroke:rgba(68,0,186,.24705882);stroke-width:.09525;stroke-miterlimit:41.994751"/><path d="M670.65525 633.34582A.47625 .47625 0 00669.70275 633.34582A.47625 .47625 0 00670.65525 633.34582z" fill="rgba(68,0,186,.24705882)"/><path d="M664.74975 245.19255H676.79888V145.0467H664.74975z" style="fill:rgba(68,0,186,.24705882);stroke:rgba(68,0,186,.24705882);stroke-width:.09525;stroke-miterlimit:41.994751"/><path d="M670.00755 194.691A.47625 .47625 0 00669.05505 194.691A.47625 .47625 0 00670.00755 194.691z" fill="rgba(68,0,186,.24705882)"/><path d="M664.74975 111.52822H676.72268V7.94385H664.74975z" style="fill:rgba(68,0,186,.24705882);stroke:rgba(68,0,186,.24705882);stroke-width:.09525;stroke-miterlimit:41.994751"/><path d="M671.0553 57.74055A.47625 .47625 0 00670.1028 57.74055A.47625 .47625 0 00671.0553 57.74055z" fill="rgba(68,0,186,.24705882)"/><path d="M664.74975 550.3164H676.85603V450.43725H664.74975z" style="fill:rgba(68,0,186,.24705882);stroke:rgba(68,0,186,.24705882);stroke-width:.09525;stroke-miterlimit:41.994751"/><path d="M671.44583 500.80545A.47625 .47625 0 00670.49333 500.80545A.47625 .47625 0 00671.44583 500.80545z" fill="rgba(68,0,186,.24705882)"/><path d="M665.17838 393.24915H765.28613V302.37113H665.17838z" style="fill:rgba(0,0,255,.24705882);stroke:rgba(0,0,255,.24705882);stroke-width:.09525;stroke-miterlimit:41.994751"/><path d="M705.77393 348.49117A.47625 .47625 0 00704.82142 348.49117A.47625 .47625 0 00705.77393 348.49117z" fill="rgba(0,0,255,.24705882)"/></svg>