<svg version="1.1" width="1146.9053mm" height="892.39725mm" viewBox="0 0 1146.9053 892.39725" xmlns="http://www.w3.org/2000/svg" xmlns:xlink="http://www.w3.org/1999/xlink"><path d="M651.7005 274.60575H653.6055" style="fill:none;stroke:#f00;stroke-width:.09525;stroke-miterlimit:41.994751"/><path d="M651.7005 274.60575V272.70075" style="fill:none;stroke:#0f0;stroke-width:.09525;stroke-miterlimit:41.994751"/><path d="M653.59598 22.736175A.47625 .47625 0 00652.64347 22.736175A.47625 .47625 0 00653.59598 22.736175z" fill="rgba(255,0,0,.24705882)"/><path d="M585.09217 147.78037H599.1225V140.11275H585.09217z" style="fill:rgba(255,0,0,.24705882);stroke:rgba(255,0,0,.24705882);stroke-width:.09525;stroke-miterlimit:41.994751"/><path d="M595.94115 143.55127A.47625 .47625 0 00594.98865 143.55127A.47625 .47625 0 00595.94115 143.55127z" fill="rgba(255,0,0,.24705882)"/><path d="M615.61028 167.259H637.9845V144.14182H615.61028z" style="fill:rgba(255,0,0,.24705882);stroke:rgba(255,0,0,.24705882);stroke-width:.09525;stroke-miterlimit:41.994751"/><path d="M635.06033 150.52357A.47625 .47625 0 00634.10782 150.52357A.47625 .47625 0 00635.06033 150.52357z" fill="rgba(255,0,0,.24705882)"/><path d="M653.6817 119.57685A.47625 .47625 0 00652.7292 119.57685A.47625 .47625 0 00653.6817 119.57685z" fill="rgba(255,0,0,.24705882)"/><path d="M584.93025 154.17165H615.51503V147.828H584.93025z" style="fill:rgba(255,0,0,.24705882);stroke:rgba(255,0,0,.24705882);stroke-width:.09525;stroke-miterlimit:41.994751"/><path d="M595.22678 150.97125A.47625 .47625 0 00594.27427 150.97125A.47625 .47625 0 00595.22678 150.97125z" fill="rgba(255,0,0,.24705882)"/><path d="M638.29883 167.12565H659.59673V125.28232H638.29883z" style="fill:rgba(255,0,0,.24705882);stroke:rgba(255,0,0,.24705882);stroke-width:.09525;stroke-miterlimit:41.994751"/><path d="M654.28178 136.53135A.47625 .47625 0 00653.32927 136.53135A.47625 .47625 0 00654.28178 136.53135z" fill="rgba(255,0,0,.24705882)"/><path d="M615.75315 144.0942H637.93687V125.44425H615.75315z" style="fill:rgba(255,0,0,.24705882);stroke:rgba(255,0,0,.24705882);stroke-width:.09525;stroke-miterlimit:41.994751"/><path d="M634.72695 136.41705A.47625 .47625 0 00633.77445 136.41705A.47625 .47625 0 00634.72695 136.41705z" fill="rgba(255,0,0,.24705882)"/><path d="M594.75053 150.97125L634.58407 150.52357" style="fill:none;stroke:rgba(255,0,0,.24705882);stroke-width:.09525;stroke-miterlimit:41.994751"/><path d="M634.58407 150.52357L634.2507 136.41705" style="fill:none;stroke:rgba(255,0,0,.24705882);stroke-width:.09525;stroke-miterlimit:41.994751"/><path d="M595.4649 143.55127L594.75053 150.97125" style="fill:none;stroke:rgba(255,0,0,.24705882);stroke-width:.09525;stroke-miterlimit:41.994751"/><path d="M653.80552 136.53135L653.20545 119.57685" style="fill:none;stroke:rgba(255,0,0,.24705882);stroke-width:.09525;stroke-miterlimit:41.994751"/><path d="M634.2507 136.41705L653.80552 136.53135" style="fill:none;stroke:rgba(255,0,0,.24705882);stroke-width:.09525;stroke-miterlimit:41.994751"/><path d="M622.88738 21.4503L653.11973 22.736175" style="fill:none;stroke:rgba(255,0,0,.24705882);stroke-width:.09525;stroke-miterlimit:41.994751"/><path d="M623.36363 21.4503A.47625 .47625 0 00622.41112 21.4503A.47625 .47625 0 00623.36363 21.4503z" fill="rgba(250,0,0,.24705882)"/><path d="M595.4649 143.55127L605.2185 143.64652" style="fill:none;stroke:rgba(250,0,4,.24705882);stroke-width:.09525;stroke-miterlimit:41.994751"/><path d="M653.20545 119.57685L653.76743 112.2045" style="fill:none;stroke:rgba(246,0,8,.24705882);stroke-width:.09525;stroke-miterlimit:41.994751"/><path d="M605.69475 143.64652A.47625 .47625 0 00604.74225 143.64652A.47625 .47625 0 00605.69475 143.64652z" fill="rgba(242,0,12,.24705882)"/><path d="M653.11973 22.736175L708.0123 25.669875" style="fill:none;stroke:rgba(242,0,12,.24705882);stroke-width:.09525;stroke-miterlimit:41.994751"/><path d="M653.11973 22.736175L653.8722 107.7849" style="fill:none;stroke:rgba(242,0,12,.24705882);stroke-width:.09525;stroke-miterlimit:41.994751"/><path d="M533.99055 14.125575L622.88738 21.4503" style="fill:none;stroke:rgba(238,0,12,.24705882);stroke-width:.09525;stroke-miterlimit:41.994751"/><path d="M622.88738 21.4503L619.22978 108.02302" style="fill:none;stroke:rgba(238,0,12,.24705882);stroke-width:.09525;stroke-miterlimit:41.994751"/><path d="M654.24368 112.2045A.47625 .47625 0 00653.29117 112.2045A.47625 .47625 0 00654.24368 112.2045z" fill="rgba(238,0,16,.24705882)"/><path d="M615.34357 143.62747L605.2185 143.64652" style="fill:none;stroke:rgba(234,0,20,.24705882);stroke-width:.09525;stroke-miterlimit:41.994751"/><path d="M653.76743 112.2045L653.8722 107.7849" style="fill:none;stroke:rgba(234,0,20,.24705882);stroke-width:.09525;stroke-miterlimit:41.994751"/><path d="M399.3261 613.61955A.47625 .47625 0 00398.3736 613.61955A.47625 .47625 0 00399.3261 613.61955z" fill="rgba(230,0,24,.24705882)"/><path d="M398.84985 613.61955L628.03088 611.5431" style="fill:none;stroke:rgba(226,0,24,.24705882);stroke-width:.09525;stroke-miterlimit:41.994751"/><path d="M495.53813 481.02202L398.84985 613.61955" style="fill:none;stroke:rgba(226,0,24,.24705882);stroke-width:.09525;stroke-miterlimit:41.994751"/><path d="M708.48855 25.669875A.47625 .47625 0 00707.53605 25.669875A.47625 .47625 0 00708.48855 25.669875z" fill="rgba(226,0,24,.24705882)"/><path d="M953.643 33.251775L708.0123 25.669875" style="fill:none;stroke:rgba(226,0,24,.24705882);stroke-width:.09525;stroke-miterlimit:41.994751"/><path d="M592.20735 179.73675A.47625 .47625 0 00591.25485 179.73675A.47625 .47625 0 00592.20735 179.73675z" fill="rgba(226,0,24,.24705882)"/><path d="M690.69585 163.91572A.47625 .47625 0 00689.74335 163.91572A.47625 .47625 0 00690.69585 163.91572z" fill="rgba(226,0,24,.24705882)"/><path d="M596.55075 154.20975H615.48645V147.54225H596.55075z" style="fill:rgba(226,0,24,.24705882);stroke:rgba(226,0,24,.24705882);stroke-width:.09525;stroke-miterlimit:41.994751"/><path d="M597.45563 150.55215A.47625 .47625 0 00596.50312 150.55215A.47625 .47625 0 00597.45563 150.55215z" fill="rgba(226,0,24,.24705882)"/><path d="M630.6312 494.12842A.47625 .47625 0 00629.6787 494.12842A.47625 .47625 0 00630.6312 494.12842z" fill="rgba(226,0,24,.24705882)"/><path d="M615.9246 162.73462H641.36588V141.49387H615.9246z" style="fill:rgba(226,0,24,.24705882);stroke:rgba(226,0,24,.24705882);stroke-width:.09525;stroke-miterlimit:41.994751"/><path d="M626.87835 150.3045A.47625 .47625 0 00625.92585 150.3045A.47625 .47625 0 00626.87835 150.3045z" fill="rgba(226,0,24,.24705882)"/><path d="M611.5431 163.13467A.47625 .47625 0 00610.5906 163.13467A.47625 .47625 0 00611.5431 163.13467z" fill="rgba(226,0,24,.24705882)"/><path d="M953.11913 183.8706A.47625 .47625 0 00952.16662 183.8706A.47625 .47625 0 00953.11913 183.8706z" fill="rgba(226,0,24,.24705882)"/><path d="M680.085 190.41427A.47625 .47625 0 00679.1325 190.41427A.47625 .47625 0 00680.085 190.41427z" fill="rgba(226,0,24,.24705882)"/><path d="M607.5045 163.19182A.47625 .47625 0 00606.552 163.19182A.47625 .47625 0 00607.5045 163.19182z" fill="rgba(226,0,24,.24705882)"/><path d="M592.3407 175.12665A.47625 .47625 0 00591.3882 175.12665A.47625 .47625 0 00592.3407 175.12665z" fill="rgba(226,0,24,.24705882)"/><path d="M676.40835 119.253A.47625 .47625 0 00675.45585 119.253A.47625 .47625 0 00676.40835 119.253z" fill="rgba(226,0,24,.24705882)"/><path d="M607.37115 157.734A.47625 .47625 0 00606.41865 157.734A.47625 .47625 0 00607.37115 157.734z" fill="rgba(226,0,24,.24705882)"/><path d="M496.01438 481.02202A.47625 .47625 0 00495.06188 481.02202A.47625 .47625 0 00496.01438 481.02202z" fill="rgba(226,0,24,.24705882)"/><path d="M611.86695 157.79115A.47625 .47625 0 00610.91445 157.79115A.47625 .47625 0 00611.86695 157.79115z" fill="rgba(226,0,24,.24705882)"/><path d="M636.69863 144.1704A.47625 .47625 0 00635.74613 144.1704A.47625 .47625 0 00636.69863 144.1704z" fill="rgba(226,0,24,.24705882)"/><path d="M676.55123 117.14797A.47625 .47625 0 00675.59872 117.14797A.47625 .47625 0 00676.55123 117.14797z" fill="rgba(226,0,24,.24705882)"/><path d="M638.80365 310.75312A.47625 .47625 0 00637.85115 310.75312A.47625 .47625 0 00638.80365 310.75312z" fill="rgba(226,0,24,.24705882)"/><path d="M607.64738 168.38295A.47625 .47625 0 00606.69488 168.38295A.47625 .47625 0 00607.64738 168.38295z" fill="rgba(226,0,24,.24705882)"/><path d="M954.11925 33.251775A.47625 .47625 0 00953.16675 33.251775A.47625 .47625 0 00954.11925 33.251775z" fill="rgba(226,0,24,.24705882)"/><path d="M615.99128 118.04332H622.554V274.60575H615.99128z" style="fill:rgba(226,0,24,.24705882);stroke:rgba(226,0,24,.24705882);stroke-width:.09525;stroke-miterlimit:41.994751"/><path d="M619.63935 117.87187A.47625 .47625 0 00618.68685 117.87187A.47625 .47625 0 00619.63935 117.87187z" fill="rgba(226,0,24,.24705882)"/><path d="M642.20407 190.70955H662.60663V156.81007H642.20407z" style="fill:rgba(226,0,24,.24705882);stroke:rgba(226,0,24,.24705882);stroke-width:.09525;stroke-miterlimit:41.994751"/><path d="M646.58558 162.8775A.47625 .47625 0 00645.63307 162.8775A.47625 .47625 0 00646.58558 162.8775z" fill="rgba(226,0,24,.24705882)"/><path d="M641.88975 156.60052H655.11998V141.60817H641.88975z" style="fill:rgba(226,0,24,.24705882);stroke:rgba(226,0,24,.24705882);stroke-width:.09525;stroke-miterlimit:41.994751"/><path d="M647.25233 150.47595A.47625 .47625 0 00646.29982 150.47595A.47625 .47625 0 00647.25233 150.47595z" fill="rgba(226,0,24,.24705882)"/><path d="M616.02938 141.34147H622.39208V118.85295H616.02938z" style="fill:rgba(226,0,24,.24705882);stroke:rgba(226,0,24,.24705882);stroke-width:.09525;stroke-miterlimit:41.994751"/><path d="M619.64888 131.22592A.47625 .47625 0 00618.69637 131.22592A.47625 .47625 0 00619.64888 131.22592z" fill="rgba(226,0,24,.24705882)"/><path d="M792.72765 366.3696A.47625 .47625 0 00791.77515 366.3696A.47625 .47625 0 00792.72765 366.3696z" fill="rgba(226,0,24,.24705882)"/><path d="M615.8865 190.7286H642.0612V162.9537H615.8865z" style="fill:rgba(226,0,24,.24705882);stroke:rgba(226,0,24,.24705882);stroke-width:.09525;stroke-miterlimit:41.994751"/><path d="M627.6594 175.24095A.47625 .47625 0 00626.7069 175.24095A.47625 .47625 0 00627.6594 175.24095z" fill="rgba(226,0,24,.24705882)"/><path d="M592.55978 178.08892A.47625 .47625 0 00591.60727 178.08892A.47625 .47625 0 00592.55978 178.08892z" fill="rgba(226,0,24,.24705882)"/><path d="M662.30183 141.8082H670.8648V130.46392H662.30183z" style="fill:rgba(226,0,24,.24705882);stroke:rgba(226,0,24,.24705882);stroke-width:.09525;stroke-miterlimit:41.994751"/><path d="M665.3022 140.97A.47625 .47625 0 00664.3497 140.97A.47625 .47625 0 00665.3022 140.97z" fill="rgba(226,0,24,.24705882)"/><path d="M628.14518 190.48095A.47625 .47625 0 00627.19268 190.48095A.47625 .47625 0 00628.14518 190.48095z" fill="rgba(226,0,24,.24705882)"/><path d="M662.68282 190.31902H689.0385V157.0101H662.68282z" style="fill:rgba(226,0,24,.24705882);stroke:rgba(226,0,24,.24705882);stroke-width:.09525;stroke-miterlimit:41.994751"/><path d="M679.2849 163.9824A.47625 .47625 0 00678.3324 163.9824A.47625 .47625 0 00679.2849 163.9824z" fill="rgba(226,0,24,.24705882)"/><path d="M592.66455 164.4015A.47625 .47625 0 00591.71205 164.4015A.47625 .47625 0 00592.66455 164.4015z" fill="rgba(226,0,24,.24705882)"/><path d="M657.69173 137.72197A.47625 .47625 0 00656.73923 137.72197A.47625 .47625 0 00657.69173 137.72197z" fill="rgba(226,0,24,.24705882)"/><path d="M620.12513 143.72272A.47625 .47625 0 00619.17263 143.72272A.47625 .47625 0 00620.12513 143.72272z" fill="rgba(226,0,24,.24705882)"/><path d="M440.40743 4.448175A.47625 .47625 0 00439.45493 4.448175A.47625 .47625 0 00440.40743 4.448175z" fill="rgba(226,0,24,.24705882)"/><path d="M628.2309 192.11925A.47625 .47625 0 00627.2784 192.11925A.47625 .47625 0 00628.2309 192.11925z" fill="rgba(226,0,24,.24705882)"/><path d="M645.39495 191.39535A.47625 .47625 0 00644.44245 191.39535A.47625 .47625 0 00645.39495 191.39535z" fill="rgba(226,0,24,.24705882)"/><path d="M623.41125 137.47432H632.36475V118.39575H623.41125z" style="fill:rgba(226,0,24,.24705882);stroke:rgba(226,0,24,.24705882);stroke-width:.09525;stroke-miterlimit:41.994751"/><path d="M627.78323 125.74905A.47625 .47625 0 00626.83073 125.74905A.47625 .47625 0 00627.78323 125.74905z" fill="rgba(226,0,24,.24705882)"/><path d="M671.10293 141.8082H688.93372V130.8354H671.10293z" style="fill:rgba(226,0,24,.24705882);stroke:rgba(226,0,24,.24705882);stroke-width:.09525;stroke-miterlimit:41.994751"/><path d="M678.55148 140.04607A.47625 .47625 0 00677.59897 140.04607A.47625 .47625 0 00678.55148 140.04607z" fill="rgba(226,0,24,.24705882)"/><path d="M633.53633 125.51092A.47625 .47625 0 00632.58382 125.51092A.47625 .47625 0 00633.53633 125.51092z" fill="rgba(226,0,24,.24705882)"/><path d="M671.4363 156.8196H689.00993V141.9987H671.4363z" style="fill:rgba(226,0,24,.24705882);stroke:rgba(226,0,24,.24705882);stroke-width:.09525;stroke-miterlimit:41.994751"/><path d="M678.9039 150.54262A.47625 .47625 0 00677.9514 150.54262A.47625 .47625 0 00678.9039 150.54262z" fill="rgba(226,0,24,.24705882)"/><path d="M655.2438 156.41955H671.10293V141.93202H655.2438z" style="fill:rgba(226,0,24,.24705882);stroke:rgba(226,0,24,.24705882);stroke-width:.09525;stroke-miterlimit:41.994751"/><path d="M665.01645 150.39975A.47625 .47625 0 00664.06395 150.39975A.47625 .47625 0 00665.01645 150.39975z" fill="rgba(226,0,24,.24705882)"/><path d="M633.50775 140.49375H660.7302V118.40527H633.50775z" style="fill:rgba(226,0,24,.24705882);stroke:rgba(226,0,24,.24705882);stroke-width:.09525;stroke-miterlimit:41.994751"/><path d="M646.98563 127.85407A.47625 .47625 0 00646.03312 127.85407A.47625 .47625 0 00646.98563 127.85407z" fill="rgba(226,0,24,.24705882)"/><path d="M680.57078 192.03352A.47625 .47625 0 00679.61828 192.03352A.47625 .47625 0 00680.57078 192.03352z" fill="rgba(226,0,24,.24705882)"/><path d="M649.95743 144.49425A.47625 .47625 0 00649.00492 144.49425A.47625 .47625 0 00649.95743 144.49425z" fill="rgba(226,0,24,.24705882)"/><path d="M661.797 120.99607A.47625 .47625 0 00660.8445 120.99607A.47625 .47625 0 00661.797 120.99607z" fill="rgba(226,0,24,.24705882)"/><path d="M615.6198 175.1457A.47625 .47625 0 00614.6673 175.1457A.47625 .47625 0 00615.6198 175.1457z" fill="rgba(226,0,24,.24705882)"/><path d="M611.83838 168.402A.47625 .47625 0 00610.88587 168.402A.47625 .47625 0 00611.83838 168.402z" fill="rgba(226,0,24,.24705882)"/><path d="M635.889 138.90307A.47625 .47625 0 00634.9365 138.90307A.47625 .47625 0 00635.889 138.90307z" fill="rgba(226,0,24,.24705882)"/><path d="M636.67958 150.52357A.47625 .47625 0 00635.72708 150.52357A.47625 .47625 0 00636.67958 150.52357z" fill="rgba(226,0,24,.24705882)"/><path d="M661.85415 130.2639H688.95277V118.47195H661.85415z" style="fill:rgba(226,0,24,.24705882);stroke:rgba(226,0,24,.24705882);stroke-width:.09525;stroke-miterlimit:41.994751"/><path d="M672.6174 121.3485A.47625 .47625 0 00671.6649 121.3485A.47625 .47625 0 00672.6174 121.3485z" fill="rgba(226,0,24,.24705882)"/><path d="M689.229 163.9443A.47625 .47625 0 00688.2765 163.9443A.47625 .47625 0 00689.229 163.9443z" fill="rgba(226,0,24,.24705882)"/><path d="M967.33995 617.96295A.47625 .47625 0 00966.38745 617.96295A.47625 .47625 0 00967.33995 617.96295z" fill="rgba(226,0,24,.24705882)"/><path d="M628.50713 611.5431A.47625 .47625 0 00627.55462 611.5431A.47625 .47625 0 00628.50713 611.5431z" fill="rgba(226,0,24,.24705882)"/><path d="M504.28208 358.42575A.47625 .47625 0 00503.32958 358.42575A.47625 .47625 0 00504.28208 358.42575z" fill="rgba(226,0,24,.24705882)"/><path d="M850.2015 490.9947A.47625 .47625 0 00849.249 490.9947A.47625 .47625 0 00850.2015 490.9947z" fill="rgba(226,0,24,.24705882)"/><path d="M619.76318 150.13305A.47625 .47625 0 00618.81067 150.13305A.47625 .47625 0 00619.76318 150.13305z" fill="rgba(226,0,24,.24705882)"/><path d="M615.81983 143.62748A.47625 .47625 0 00614.86732 143.62748A.47625 .47625 0 00615.81983 143.62748z" fill="rgba(226,0,24,.24705882)"/><path d="M858.14535 367.38877A.47625 .47625 0 00857.19285 367.38877A.47625 .47625 0 00858.14535 367.38877z" fill="rgba(226,0,24,.24705882)"/><path d="M648.5382 137.8839A.47625 .47625 0 00647.5857 137.8839A.47625 .47625 0 00648.5382 137.8839z" fill="rgba(226,0,24,.24705882)"/><path d="M534.4668 14.125575A.47625 .47625 0 00533.5143 14.125575A.47625 .47625 0 00534.4668 14.125575z" fill="rgba(226,0,24,.24705882)"/><path d="M821.67413 178.62232A.47625 .47625 0 00820.72163 178.62232A.47625 .47625 0 00821.67413 178.62232z" fill="rgba(226,0,24,.24705882)"/><path d="M591.86445 175.12665L615.14355 175.1457" style="fill:none;stroke:rgba(226,0,24,.24705882);stroke-width:.09525;stroke-miterlimit:41.994751"/><path d="M664.82595 140.97L672.14115 121.3485" style="fill:none;stroke:rgba(226,0,24,.24705882);stroke-width:.09525;stroke-miterlimit:41.994751"/><path d="M657.21548 137.72197L646.50937 127.85407" style="fill:none;stroke:rgba(226,0,24,.24705882);stroke-width:.09525;stroke-miterlimit:41.994751"/><path d="M619.17263 131.22592L619.64888 143.72272" style="fill:none;stroke:rgba(226,0,24,.24705882);stroke-width:.09525;stroke-miterlimit:41.994751"/><path d="M821.19788 178.62232L952.64288 183.8706" style="fill:none;stroke:rgba(226,0,24,.24705882);stroke-width:.09525;stroke-miterlimit:41.994751"/><path d="M672.14115 121.3485L661.32075 120.99607" style="fill:none;stroke:rgba(226,0,24,.24705882);stroke-width:.09525;stroke-miterlimit:41.994751"/><path d="M533.99055 14.125575L439.93118 4.448175" style="fill:none;stroke:rgba(226,0,24,.24705882);stroke-width:.09525;stroke-miterlimit:41.994751"/><path d="M821.19788 178.62232L953.643 33.251775" style="fill:none;stroke:rgba(226,0,24,.24705882);stroke-width:.09525;stroke-miterlimit:41.994751"/><path d="M648.06195 137.8839L646.50937 127.85407" style="fill:none;stroke:rgba(226,0,24,.24705882);stroke-width:.09525;stroke-miterlimit:41.994751"/><path d="M619.17263 131.22592L619.1631 117.87187" style="fill:none;stroke:rgba(226,0,24,.24705882);stroke-width:.09525;stroke-miterlimit:41.994751"/><path d="M636.22238 144.1704L636.20333 150.52357" style="fill:none;stroke:rgba(226,0,24,.24705882);stroke-width:.09525;stroke-miterlimit:41.994751"/><path d="M606.8949 157.734L611.3907 157.79115" style="fill:none;stroke:rgba(226,0,24,.24705882);stroke-width:.09525;stroke-miterlimit:41.994751"/><path d="M952.64288 183.8706L953.643 33.251775" style="fill:none;stroke:rgba(226,0,24,.24705882);stroke-width:.09525;stroke-miterlimit:41.994751"/><path d="M628.03088 611.5431L966.8637 617.96295" style="fill:none;stroke:rgba(226,0,24,.24705882);stroke-width:.09525;stroke-miterlimit:41.994751"/><path d="M607.02825 163.19182L592.1883 164.4015" style="fill:none;stroke:rgba(226,0,24,.24705882);stroke-width:.09525;stroke-miterlimit:41.994751"/><path d="M615.14355 175.1457L627.18315 175.24095" style="fill:none;stroke:rgba(226,0,24,.24705882);stroke-width:.09525;stroke-miterlimit:41.994751"/><path d="M661.32075 120.99607L646.50937 127.85407" style="fill:none;stroke:rgba(226,0,24,.24705882);stroke-width:.09525;stroke-miterlimit:41.994751"/><path d="M678.80865 163.9824L646.10933 162.8775" style="fill:none;stroke:rgba(226,0,24,.24705882);stroke-width:.09525;stroke-miterlimit:41.994751"/><path d="M857.6691 367.38877L792.2514 366.3696" style="fill:none;stroke:rgba(226,0,24,.24705882);stroke-width:.09525;stroke-miterlimit:41.994751"/><path d="M619.28692 150.13305L626.4021 150.3045" style="fill:none;stroke:rgba(226,0,24,.24705882);stroke-width:.09525;stroke-miterlimit:41.994751"/><path d="M646.50937 127.85407L635.41275 138.90307" style="fill:none;stroke:rgba(226,0,24,.24705882);stroke-width:.09525;stroke-miterlimit:41.994751"/><path d="M664.5402 150.39975L646.77607 150.47595" style="fill:none;stroke:rgba(226,0,24,.24705882);stroke-width:.09525;stroke-miterlimit:41.994751"/><path d="M664.5402 150.39975L664.82595 140.97" style="fill:none;stroke:rgba(226,0,24,.24705882);stroke-width:.09525;stroke-miterlimit:41.994751"/><path d="M646.50937 127.85407L633.06007 125.51092" style="fill:none;stroke:rgba(226,0,24,.24705882);stroke-width:.09525;stroke-miterlimit:41.994751"/><path d="M678.42765 150.54262L664.5402 150.39975" style="fill:none;stroke:rgba(226,0,24,.24705882);stroke-width:.09525;stroke-miterlimit:41.994751"/><path d="M678.42765 150.54262L678.80865 163.9824" style="fill:none;stroke:rgba(226,0,24,.24705882);stroke-width:.09525;stroke-miterlimit:41.994751"/><path d="M633.06007 125.51092L627.30698 125.74905" style="fill:none;stroke:rgba(226,0,24,.24705882);stroke-width:.09525;stroke-miterlimit:41.994751"/><path d="M678.07523 140.04607L678.42765 150.54262" style="fill:none;stroke:rgba(226,0,24,.24705882);stroke-width:.09525;stroke-miterlimit:41.994751"/><path d="M678.07523 140.04607L675.9321 119.253" style="fill:none;stroke:rgba(226,0,24,.24705882);stroke-width:.09525;stroke-miterlimit:41.994751"/><path d="M619.64888 143.72272L619.28692 150.13305" style="fill:none;stroke:rgba(226,0,24,.24705882);stroke-width:.09525;stroke-miterlimit:41.994751"/><path d="M849.72525 490.9947L966.8637 617.96295" style="fill:none;stroke:rgba(226,0,24,.24705882);stroke-width:.09525;stroke-miterlimit:41.994751"/><path d="M678.80865 163.9824L688.75275 163.9443" style="fill:none;stroke:rgba(226,0,24,.24705882);stroke-width:.09525;stroke-miterlimit:41.994751"/><path d="M607.02825 163.19182L611.06685 163.13467" style="fill:none;stroke:rgba(226,0,24,.24705882);stroke-width:.09525;stroke-miterlimit:41.994751"/><path d="M849.72525 490.9947L857.6691 367.38877" style="fill:none;stroke:rgba(226,0,24,.24705882);stroke-width:.09525;stroke-miterlimit:41.994751"/><path d="M675.9321 119.253L672.14115 121.3485" style="fill:none;stroke:rgba(226,0,24,.24705882);stroke-width:.09525;stroke-miterlimit:41.994751"/><path d="M627.18315 175.24095L626.4021 150.3045" style="fill:none;stroke:rgba(226,0,24,.24705882);stroke-width:.09525;stroke-miterlimit:41.994751"/><path d="M495.53813 481.02202L630.15495 494.12842" style="fill:none;stroke:rgba(226,0,24,.24705882);stroke-width:.09525;stroke-miterlimit:41.994751"/><path d="M495.53813 481.02202L503.80583 358.42575" style="fill:none;stroke:rgba(226,0,24,.24705882);stroke-width:.09525;stroke-miterlimit:41.994751"/><path d="M627.18315 175.24095L627.66893 190.48095" style="fill:none;stroke:rgba(226,0,24,.24705882);stroke-width:.09525;stroke-miterlimit:41.994751"/><path d="M646.77607 150.47595L649.48118 144.49425" style="fill:none;stroke:rgba(226,0,24,.24705882);stroke-width:.09525;stroke-miterlimit:41.994751"/><path d="M646.77607 150.47595L636.20333 150.52357" style="fill:none;stroke:rgba(226,0,24,.24705882);stroke-width:.09525;stroke-miterlimit:41.994751"/><path d="M619.28692 150.13305L596.97938 150.55215" style="fill:none;stroke:rgba(226,0,24,.24705882);stroke-width:.09525;stroke-miterlimit:41.994751"/><path d="M679.60875 190.41427L678.80865 163.9824" style="fill:none;stroke:rgba(226,0,24,.24705882);stroke-width:.09525;stroke-miterlimit:41.994751"/><path d="M592.1883 164.4015L607.17113 168.38295" style="fill:none;stroke:rgba(226,0,24,.24705882);stroke-width:.09525;stroke-miterlimit:41.994751"/><path d="M592.1883 164.4015L606.8949 157.734" style="fill:none;stroke:rgba(226,0,24,.24705882);stroke-width:.09525;stroke-miterlimit:41.994751"/><path d="M592.1883 164.4015L591.86445 175.12665" style="fill:none;stroke:rgba(226,0,24,.24705882);stroke-width:.09525;stroke-miterlimit:41.994751"/><path d="M607.17113 168.38295L611.36212 168.402" style="fill:none;stroke:rgba(226,0,24,.24705882);stroke-width:.09525;stroke-miterlimit:41.994751"/><path d="M646.10933 162.8775L644.9187 191.39535" style="fill:none;stroke:rgba(226,0,24,.24705882);stroke-width:.09525;stroke-miterlimit:41.994751"/><path d="M619.64888 143.72272L615.34357 143.62747" style="fill:none;stroke:rgba(226,0,24,.24705882);stroke-width:.09525;stroke-miterlimit:41.994751"/><path d="M630.15495 494.12842L628.03088 611.5431" style="fill:none;stroke:rgba(226,0,24,.24705882);stroke-width:.09525;stroke-miterlimit:41.994751"/><path d="M630.15495 494.12842L849.72525 490.9947" style="fill:none;stroke:rgba(226,0,24,.24705882);stroke-width:.09525;stroke-miterlimit:41.994751"/><path d="M626.4021 150.3045L636.20333 150.52357" style="fill:none;stroke:rgba(226,0,24,.24705882);stroke-width:.09525;stroke-miterlimit:41.994751"/><path d="M646.10933 162.8775L646.77607 150.47595" style="fill:none;stroke:rgba(226,0,24,.24705882);stroke-width:.09525;stroke-miterlimit:41.994751"/><path d="M591.86445 175.12665L592.08353 178.08892" style="fill:none;stroke:rgba(226,0,24,.24705882);stroke-width:.09525;stroke-miterlimit:41.994751"/><path d="M439.93118 4.448175L437.5785 79.41945" style="fill:none;stroke:rgba(226,0,24,.24705882);stroke-width:.09525;stroke-miterlimit:41.994751"/><path d="M438.05475 79.41945A.47625 .47625 0 00437.10225 79.41945A.47625 .47625 0 00438.05475 79.41945z" fill="rgba(226,0,24,.24705882)"/><path d="M702.95452 163.51567L821.19788 178.62232" style="fill:none;stroke:rgba(226,0,24,.24705882);stroke-width:.09525;stroke-miterlimit:41.994751"/><path d="M619.1631 117.87187L619.22978 108.02302" style="fill:none;stroke:rgba(226,0,24,.24705882);stroke-width:.09525;stroke-miterlimit:41.994751"/><path d="M690.2196 163.91572L702.95452 163.51567" style="fill:none;stroke:rgba(226,0,24,.24705882);stroke-width:.09525;stroke-miterlimit:41.994751"/><path d="M676.07497 117.14797L675.73208 107.49915" style="fill:none;stroke:rgba(226,0,24,.24705882);stroke-width:.09525;stroke-miterlimit:41.994751"/><path d="M849.72525 490.9947L968.06385 491.4138" style="fill:none;stroke:rgba(226,0,28,.24705882);stroke-width:.09525;stroke-miterlimit:41.994751"/><path d="M968.06385 491.4138L966.8637 617.96295" style="fill:none;stroke:rgba(226,0,28,.24705882);stroke-width:.09525;stroke-miterlimit:41.994751"/><path d="M417.18547 294.8559L398.84985 613.61955" style="fill:none;stroke:rgba(226,0,28,.24705882);stroke-width:.09525;stroke-miterlimit:41.994751"/><path d="M703.43078 163.51567A.47625 .47625 0 00702.47827 163.51567A.47625 .47625 0 00703.43078 163.51567z" fill="rgba(226,0,28,.24705882)"/><path d="M676.20833 107.49915A.47625 .47625 0 00675.25582 107.49915A.47625 .47625 0 00676.20833 107.49915z" fill="rgba(226,0,28,.24705882)"/><path d="M654.34845 107.7849A.47625 .47625 0 00653.39595 107.7849A.47625 .47625 0 00654.34845 107.7849z" fill="rgba(226,0,28,.24705882)"/><path d="M619.70603 108.02302A.47625 .47625 0 00618.75352 108.02302A.47625 .47625 0 00619.70603 108.02302z" fill="rgba(226,0,28,.24705882)"/><path d="M703.64033 107.65155A.47625 .47625 0 00702.68782 107.65155A.47625 .47625 0 00703.64033 107.65155z" fill="rgba(226,0,28,.24705882)"/><path d="M675.73208 107.49915L703.16408 107.65155" style="fill:none;stroke:rgba(226,0,28,.24705882);stroke-width:.09525;stroke-miterlimit:41.994751"/><path d="M675.73208 107.49915L653.8722 107.7849" style="fill:none;stroke:rgba(226,0,28,.24705882);stroke-width:.09525;stroke-miterlimit:41.994751"/><path d="M619.22978 108.02302L653.8722 107.7849" style="fill:none;stroke:rgba(226,0,28,.24705882);stroke-width:.09525;stroke-miterlimit:41.994751"/><path d="M702.95452 163.51567L703.16408 107.65155" style="fill:none;stroke:rgba(226,0,28,.24705882);stroke-width:.09525;stroke-miterlimit:41.994751"/><path d="M968.5401 491.4138A.47625 .47625 0 00967.5876 491.4138A.47625 .47625 0 00968.5401 491.4138z" fill="rgba(226,0,28,.24705882)"/><path d="M638.3274 310.75312L638.30835 283.22587" style="fill:none;stroke:rgba(226,0,28,.24705882);stroke-width:.09525;stroke-miterlimit:41.994751"/><path d="M700.278 281.4828L821.19788 178.62232" style="fill:none;stroke:rgba(226,0,28,.24705882);stroke-width:.09525;stroke-miterlimit:41.994751"/><path d="M700.278 281.4828L857.6691 367.38877" style="fill:none;stroke:rgba(226,0,28,.24705882);stroke-width:.09525;stroke-miterlimit:41.994751"/><path d="M630.15495 494.12842L630.75503 434.44477" style="fill:none;stroke:rgba(226,0,28,.24705882);stroke-width:.09525;stroke-miterlimit:41.994751"/><path d="M639.22275 339.48052L638.3274 310.75312" style="fill:none;stroke:rgba(226,0,28,.24705882);stroke-width:.09525;stroke-miterlimit:41.994751"/><path d="M857.6691 367.38877L861.57435 296.65612" style="fill:none;stroke:rgba(226,0,28,.24705882);stroke-width:.09525;stroke-miterlimit:41.994751"/><path d="M944.35613 284.66415L952.64288 183.8706" style="fill:none;stroke:rgba(226,0,28,.24705882);stroke-width:.09525;stroke-miterlimit:41.994751"/><path d="M644.9187 191.39535L644.06145 221.6277" style="fill:none;stroke:rgba(226,0,28,.24705882);stroke-width:.09525;stroke-miterlimit:41.994751"/><path d="M680.09453 192.03352L682.35195 222.49447" style="fill:none;stroke:rgba(226,0,28,.24705882);stroke-width:.09525;stroke-miterlimit:41.994751"/><path d="M496.89068 287.1978L503.80583 358.42575" style="fill:none;stroke:rgba(226,0,28,.24705882);stroke-width:.09525;stroke-miterlimit:41.994751"/><path d="M792.2514 366.3696L664.5021 360.9594" style="fill:none;stroke:rgba(226,0,28,.24705882);stroke-width:.09525;stroke-miterlimit:41.994751"/><path d="M627.75465 192.11925L626.08778 221.10382" style="fill:none;stroke:rgba(226,0,28,.24705882);stroke-width:.09525;stroke-miterlimit:41.994751"/><path d="M638.3274 310.75312L664.39733 339.29002" style="fill:none;stroke:rgba(226,0,28,.24705882);stroke-width:.09525;stroke-miterlimit:41.994751"/><path d="M591.7311 179.73675L593.81708 220.3704" style="fill:none;stroke:rgba(226,0,28,.24705882);stroke-width:.09525;stroke-miterlimit:41.994751"/><path d="M638.3274 310.75312L619.75365 339.53767" style="fill:none;stroke:rgba(226,0,28,.24705882);stroke-width:.09525;stroke-miterlimit:41.994751"/><path d="M861.57435 296.65612L821.19788 178.62232" style="fill:none;stroke:rgba(226,0,28,.24705882);stroke-width:.09525;stroke-miterlimit:41.994751"/><path d="M417.18547 294.8559L437.5785 79.41945" style="fill:none;stroke:rgba(226,0,28,.24705882);stroke-width:.09525;stroke-miterlimit:41.994751"/><path d="M702.95452 163.51567L702.80213 222.5802" style="fill:none;stroke:rgba(226,0,28,.24705882);stroke-width:.09525;stroke-miterlimit:41.994751"/><path d="M944.35613 284.66415L968.06385 491.4138" style="fill:none;stroke:rgba(226,0,28,.24705882);stroke-width:.09525;stroke-miterlimit:41.994751"/><path d="M497.36693 287.1978A.47625 .47625 0 00496.41443 287.1978A.47625 .47625 0 00497.36693 287.1978z" fill="rgba(226,0,28,.24705882)"/><path d="M653.09115 368.4651H670.96958V350.4057H653.09115z" style="fill:rgba(226,0,28,.24705882);stroke:rgba(226,0,28,.24705882);stroke-width:.09525;stroke-miterlimit:41.994751"/><path d="M664.97835 360.9594A.47625 .47625 0 00664.02585 360.9594A.47625 .47625 0 00664.97835 360.9594z" fill="rgba(226,0,28,.24705882)"/><path d="M700.75425 281.4828A.47625 .47625 0 00699.80175 281.4828A.47625 .47625 0 00700.75425 281.4828z" fill="rgba(226,0,28,.24705882)"/><path d="M417.66172 294.8559A.47625 .47625 0 00416.70923 294.8559A.47625 .47625 0 00417.66172 294.8559z" fill="rgba(226,0,28,.24705882)"/><path d="M652.55775 384.71475H670.46475V369.00802H652.55775z" style="fill:rgba(226,0,28,.24705882);stroke:rgba(226,0,28,.24705882);stroke-width:.09525;stroke-miterlimit:41.994751"/><path d="M664.90215 379.94272A.47625 .47625 0 00663.94965 379.94272A.47625 .47625 0 00664.90215 379.94272z" fill="rgba(226,0,28,.24705882)"/><path d="M862.0506 296.65612A.47625 .47625 0 00861.0981 296.65612A.47625 .47625 0 00862.0506 296.65612z" fill="rgba(226,0,28,.24705882)"/><path d="M594.29333 220.3704A.47625 .47625 0 00593.34082 220.3704A.47625 .47625 0 00594.29333 220.3704z" fill="rgba(226,0,28,.24705882)"/><path d="M631.0503 384.85762H652.3101V369.16042H631.0503z" style="fill:rgba(226,0,28,.24705882);stroke:rgba(226,0,28,.24705882);stroke-width:.09525;stroke-miterlimit:41.994751"/><path d="M641.05155 380.67615A.47625 .47625 0 00640.09905 380.67615A.47625 .47625 0 00641.05155 380.67615z" fill="rgba(226,0,28,.24705882)"/><path d="M610.40963 349.20555H630.79313V331.06042H610.40963z" style="fill:rgba(226,0,28,.24705882);stroke:rgba(226,0,28,.24705882);stroke-width:.09525;stroke-miterlimit:41.994751"/><path d="M620.2299 339.53767A.47625 .47625 0 00619.2774 339.53767A.47625 .47625 0 00620.2299 339.53767z" fill="rgba(226,0,28,.24705882)"/><path d="M944.83238 284.66415A.47625 .47625 0 00943.87987 284.66415A.47625 .47625 0 00944.83238 284.66415z" fill="rgba(226,0,28,.24705882)"/><path d="M631.11698 369.10327H652.9959V350.46285H631.11698z" style="fill:rgba(226,0,28,.24705882);stroke:rgba(226,0,28,.24705882);stroke-width:.09525;stroke-miterlimit:41.994751"/><path d="M640.17525 357.42562A.47625 .47625 0 00639.22275 357.42562A.47625 .47625 0 00640.17525 357.42562z" fill="rgba(226,0,28,.24705882)"/><path d="M650.50035 434.35905A.47625 .47625 0 00649.54785 434.35905A.47625 .47625 0 00650.50035 434.35905z" fill="rgba(226,0,28,.24705882)"/><path d="M631.23128 434.44477A.47625 .47625 0 00630.27877 434.44477A.47625 .47625 0 00631.23128 434.44477z" fill="rgba(226,0,28,.24705882)"/><path d="M651.80528 350.07232H670.95053V331.33665H651.80528z" style="fill:rgba(226,0,28,.24705882);stroke:rgba(226,0,28,.24705882);stroke-width:.09525;stroke-miterlimit:41.994751"/><path d="M664.87358 339.29002A.47625 .47625 0 00663.92107 339.29002A.47625 .47625 0 00664.87358 339.29002z" fill="rgba(226,0,28,.24705882)"/><path d="M610.46677 384.8481H630.98362V370.39867H610.46677z" style="fill:rgba(226,0,28,.24705882);stroke:rgba(226,0,28,.24705882);stroke-width:.09525;stroke-miterlimit:41.994751"/><path d="M621.4872 381.40005A.47625 .47625 0 00620.5347 381.40005A.47625 .47625 0 00621.4872 381.40005z" fill="rgba(226,0,28,.24705882)"/><path d="M703.27838 222.5802A.47625 .47625 0 00702.32587 222.5802A.47625 .47625 0 00703.27838 222.5802z" fill="rgba(226,0,28,.24705882)"/><path d="M682.8282 222.49447A.47625 .47625 0 00681.8757 222.49447A.47625 .47625 0 00682.8282 222.49447z" fill="rgba(226,0,28,.24705882)"/><path d="M93.716475 289.15042A.47625 .47625 0 0092.763975 289.15042A.47625 .47625 0 0093.716475 289.15042z" fill="rgba(226,0,28,.24705882)"/><path d="M630.9741 350.28187H651.53858V331.37475H630.9741z" style="fill:rgba(226,0,28,.24705882);stroke:rgba(226,0,28,.24705882);stroke-width:.09525;stroke-miterlimit:41.994751"/><path d="M639.699 339.48052A.47625 .47625 0 00638.7465 339.48052A.47625 .47625 0 00639.699 339.48052z" fill="rgba(226,0,28,.24705882)"/><path d="M610.42867 370.23675H630.91695V349.43415H610.42867z" style="fill:rgba(226,0,28,.24705882);stroke:rgba(226,0,28,.24705882);stroke-width:.09525;stroke-miterlimit:41.994751"/><path d="M620.98238 359.5116A.47625 .47625 0 00620.02987 359.5116A.47625 .47625 0 00620.98238 359.5116z" fill="rgba(226,0,28,.24705882)"/><path d="M626.56403 221.10382A.47625 .47625 0 00625.61153 221.10382A.47625 .47625 0 00626.56403 221.10382z" fill="rgba(226,0,28,.24705882)"/><path d="M638.7846 283.22587A.47625 .47625 0 00637.8321 283.22587A.47625 .47625 0 00638.7846 283.22587z" fill="rgba(226,0,28,.24705882)"/><path d="M270.65287 299.085A.47625 .47625 0 00269.70038 299.085A.47625 .47625 0 00270.65287 299.085z" fill="rgba(226,0,28,.24705882)"/><path d="M644.5377 221.6277A.47625 .47625 0 00643.5852 221.6277A.47625 .47625 0 00644.5377 221.6277z" fill="rgba(226,0,28,.24705882)"/><path d="M664.5021 360.9594L664.4259 379.94272" style="fill:none;stroke:rgba(226,0,28,.24705882);stroke-width:.09525;stroke-miterlimit:41.994751"/><path d="M639.699 357.42562L639.22275 339.48052" style="fill:none;stroke:rgba(226,0,28,.24705882);stroke-width:.09525;stroke-miterlimit:41.994751"/><path d="M496.89068 287.1978L417.18547 294.8559" style="fill:none;stroke:rgba(226,0,28,.24705882);stroke-width:.09525;stroke-miterlimit:41.994751"/><path d="M620.50612 359.5116L619.75365 339.53767" style="fill:none;stroke:rgba(226,0,28,.24705882);stroke-width:.09525;stroke-miterlimit:41.994751"/><path d="M593.81708 220.3704L626.08778 221.10382" style="fill:none;stroke:rgba(226,0,28,.24705882);stroke-width:.09525;stroke-miterlimit:41.994751"/><path d="M638.30835 283.22587L644.06145 221.6277" style="fill:none;stroke:rgba(226,0,28,.24705882);stroke-width:.09525;stroke-miterlimit:41.994751"/><path d="M621.01095 381.40005L620.50612 359.5116" style="fill:none;stroke:rgba(226,0,28,.24705882);stroke-width:.09525;stroke-miterlimit:41.994751"/><path d="M496.89068 287.1978L638.30835 283.22587" style="fill:none;stroke:rgba(226,0,28,.24705882);stroke-width:.09525;stroke-miterlimit:41.994751"/><path d="M93.240225 289.15042L270.17663 299.085" style="fill:none;stroke:rgba(226,0,28,.24705882);stroke-width:.09525;stroke-miterlimit:41.994751"/><path d="M626.08778 221.10382L638.30835 283.22587" style="fill:none;stroke:rgba(226,0,28,.24705882);stroke-width:.09525;stroke-miterlimit:41.994751"/><path d="M700.278 281.4828L702.80213 222.5802" style="fill:none;stroke:rgba(226,0,28,.24705882);stroke-width:.09525;stroke-miterlimit:41.994751"/><path d="M700.278 281.4828L638.30835 283.22587" style="fill:none;stroke:rgba(226,0,28,.24705882);stroke-width:.09525;stroke-miterlimit:41.994751"/><path d="M619.75365 339.53767L639.22275 339.48052" style="fill:none;stroke:rgba(226,0,28,.24705882);stroke-width:.09525;stroke-miterlimit:41.994751"/><path d="M270.17663 299.085L417.18547 294.8559" style="fill:none;stroke:rgba(226,0,28,.24705882);stroke-width:.09525;stroke-miterlimit:41.994751"/><path d="M861.57435 296.65612L944.35613 284.66415" style="fill:none;stroke:rgba(226,0,28,.24705882);stroke-width:.09525;stroke-miterlimit:41.994751"/><path d="M640.5753 380.67615L664.4259 379.94272" style="fill:none;stroke:rgba(226,0,28,.24705882);stroke-width:.09525;stroke-miterlimit:41.994751"/><path d="M644.06145 221.6277L626.08778 221.10382" style="fill:none;stroke:rgba(226,0,28,.24705882);stroke-width:.09525;stroke-miterlimit:41.994751"/><path d="M639.22275 339.48052L664.39733 339.29002" style="fill:none;stroke:rgba(226,0,28,.24705882);stroke-width:.09525;stroke-miterlimit:41.994751"/><path d="M702.80213 222.5802L682.35195 222.49447" style="fill:none;stroke:rgba(226,0,28,.24705882);stroke-width:.09525;stroke-miterlimit:41.994751"/><path d="M682.35195 222.49447L700.278 281.4828" style="fill:none;stroke:rgba(226,0,28,.24705882);stroke-width:.09525;stroke-miterlimit:41.994751"/><path d="M682.35195 222.49447L644.06145 221.6277" style="fill:none;stroke:rgba(226,0,28,.24705882);stroke-width:.09525;stroke-miterlimit:41.994751"/><path d="M640.5753 380.67615L639.699 357.42562" style="fill:none;stroke:rgba(226,0,28,.24705882);stroke-width:.09525;stroke-miterlimit:41.994751"/><path d="M664.39733 339.29002L664.5021 360.9594" style="fill:none;stroke:rgba(226,0,28,.24705882);stroke-width:.09525;stroke-miterlimit:41.994751"/><path d="M630.75503 434.44477L650.0241 434.35905" style="fill:none;stroke:rgba(226,0,28,.24705882);stroke-width:.09525;stroke-miterlimit:41.994751"/><path d="M700.278 281.4828L861.57435 296.65612" style="fill:none;stroke:rgba(226,0,28,.24705882);stroke-width:.09525;stroke-miterlimit:41.994751"/><path d="M640.5753 380.67615L621.01095 381.40005" style="fill:none;stroke:rgba(226,0,28,.24705882);stroke-width:.09525;stroke-miterlimit:41.994751"/><path d="M650.0241 434.35905L651.69097 434.24475" style="fill:none;stroke:rgba(226,0,28,.24705882);stroke-width:.09525;stroke-miterlimit:41.994751"/><path d="M652.16723 434.24475A.47625 .47625 0 00651.21472 434.24475A.47625 .47625 0 00652.16723 434.24475z" fill="rgba(226,0,28,.24705882)"/><path d="M621.01095 381.40005L620.9919 385.04812" style="fill:none;stroke:rgba(226,0,28,.24705882);stroke-width:.09525;stroke-miterlimit:41.994751"/><path d="M496.89068 287.1978L515.01675 188.99505" style="fill:none;stroke:rgba(226,0,28,.24705882);stroke-width:.09525;stroke-miterlimit:41.994751"/><path d="M651.69097 434.24475L653.62455 434.13045" style="fill:none;stroke:rgba(226,0,28,.24705882);stroke-width:.09525;stroke-miterlimit:41.994751"/><path d="M437.5785 79.41945L369.36045 75.49515" style="fill:none;stroke:rgba(226,0,28,.24705882);stroke-width:.09525;stroke-miterlimit:41.994751"/><path d="M661.74938 417.89032A.47625 .47625 0 00660.79688 417.89032A.47625 .47625 0 00661.74938 417.89032z" fill="rgba(222,0,28,.24705882)"/><path d="M621.54435 402.4122A.47625 .47625 0 00620.59185 402.4122A.47625 .47625 0 00621.54435 402.4122z" fill="rgba(222,0,28,.24705882)"/><path d="M657.36788 412.89922A.47625 .47625 0 00656.41538 412.89922A.47625 .47625 0 00657.36788 412.89922z" fill="rgba(222,0,28,.24705882)"/><path d="M666.91193 417.89985A.47625 .47625 0 00665.95943 417.89985A.47625 .47625 0 00666.91193 417.89985z" fill="rgba(222,0,28,.24705882)"/><path d="M639.59423 417.93795A.47625 .47625 0 00638.64172 417.93795A.47625 .47625 0 00639.59423 417.93795z" fill="rgba(222,0,28,.24705882)"/><path d="M621.47768 389.02957A.47625 .47625 0 00620.52517 389.02957A.47625 .47625 0 00621.47768 389.02957z" fill="rgba(222,0,28,.24705882)"/><path d="M657.12975 388.93432A.47625 .47625 0 00656.17725 388.93432A.47625 .47625 0 00657.12975 388.93432z" fill="rgba(222,0,28,.24705882)"/><path d="M657.25358 402.20265A.47625 .47625 0 00656.30107 402.20265A.47625 .47625 0 00657.25358 402.20265z" fill="rgba(222,0,28,.24705882)"/><path d="M621.6015 418.09035A.47625 .47625 0 00620.649 418.09035A.47625 .47625 0 00621.6015 418.09035z" fill="rgba(222,0,28,.24705882)"/><path d="M657.1869 417.89032A.47625 .47625 0 00656.2344 417.89032A.47625 .47625 0 00657.1869 417.89032z" fill="rgba(222,0,28,.24705882)"/><path d="M639.68948 388.9629A.47625 .47625 0 00638.73698 388.9629A.47625 .47625 0 00639.68948 388.9629z" fill="rgba(222,0,28,.24705882)"/><path d="M639.67995 402.35505A.47625 .47625 0 00638.72745 402.35505A.47625 .47625 0 00639.67995 402.35505z" fill="rgba(222,0,28,.24705882)"/><path d="M666.95955 412.46107A.47625 .47625 0 00666.00705 412.46107A.47625 .47625 0 00666.95955 412.46107z" fill="rgba(222,0,28,.24705882)"/><path d="M621.46815 385.04812A.47625 .47625 0 00620.51565 385.04812A.47625 .47625 0 00621.46815 385.04812z" fill="rgba(222,0,28,.24705882)"/><path d="M667.00718 421.29075A.47625 .47625 0 00666.05467 421.29075A.47625 .47625 0 00667.00718 421.29075z" fill="rgba(222,0,28,.24705882)"/><path d="M667.1691 434.17807A.47625 .47625 0 00666.2166 434.17807A.47625 .47625 0 00667.1691 434.17807z" fill="rgba(222,0,28,.24705882)"/><path d="M666.95003 401.7264A.47625 .47625 0 00665.99752 401.7264A.47625 .47625 0 00666.95003 401.7264z" fill="rgba(222,0,28,.24705882)"/><path d="M654.1008 434.13045A.47625 .47625 0 00653.1483 434.13045A.47625 .47625 0 00654.1008 434.13045z" fill="rgba(222,0,28,.24705882)"/><path d="M667.02623 388.91527A.47625 .47625 0 00666.07372 388.91527A.47625 .47625 0 00667.02623 388.91527z" fill="rgba(222,0,28,.24705882)"/><path d="M656.6535 388.93432L656.77733 402.20265" style="fill:none;stroke:rgba(222,0,28,.24705882);stroke-width:.09525;stroke-miterlimit:41.994751"/><path d="M621.0681 402.4122L621.12525 418.09035" style="fill:none;stroke:rgba(222,0,28,.24705882);stroke-width:.09525;stroke-miterlimit:41.994751"/><path d="M620.9919 385.04812L621.00143 389.02957" style="fill:none;stroke:rgba(222,0,28,.24705882);stroke-width:.09525;stroke-miterlimit:41.994751"/><path d="M656.77733 402.20265L656.89163 412.89922" style="fill:none;stroke:rgba(222,0,28,.24705882);stroke-width:.09525;stroke-miterlimit:41.994751"/><path d="M656.6535 388.93432L639.21323 388.9629" style="fill:none;stroke:rgba(222,0,28,.24705882);stroke-width:.09525;stroke-miterlimit:41.994751"/><path d="M656.71065 417.89032L656.89163 412.89922" style="fill:none;stroke:rgba(222,0,28,.24705882);stroke-width:.09525;stroke-miterlimit:41.994751"/><path d="M656.71065 417.89032H661.27313" style="fill:none;stroke:rgba(222,0,28,.24705882);stroke-width:.09525;stroke-miterlimit:41.994751"/><path d="M661.27313 417.89032L666.43568 417.89985" style="fill:none;stroke:rgba(222,0,28,.24705882);stroke-width:.09525;stroke-miterlimit:41.994751"/><path d="M666.47378 401.7264L666.54998 388.91527" style="fill:none;stroke:rgba(222,0,28,.24705882);stroke-width:.09525;stroke-miterlimit:41.994751"/><path d="M639.11798 417.93795L656.71065 417.89032" style="fill:none;stroke:rgba(222,0,28,.24705882);stroke-width:.09525;stroke-miterlimit:41.994751"/><path d="M621.00143 389.02957L621.0681 402.4122" style="fill:none;stroke:rgba(222,0,28,.24705882);stroke-width:.09525;stroke-miterlimit:41.994751"/><path d="M639.21323 388.9629L621.00143 389.02957" style="fill:none;stroke:rgba(222,0,28,.24705882);stroke-width:.09525;stroke-miterlimit:41.994751"/><path d="M639.2037 402.35505L639.11798 417.93795" style="fill:none;stroke:rgba(222,0,28,.24705882);stroke-width:.09525;stroke-miterlimit:41.994751"/><path d="M639.2037 402.35505L639.21323 388.9629" style="fill:none;stroke:rgba(222,0,28,.24705882);stroke-width:.09525;stroke-miterlimit:41.994751"/><path d="M666.53093 421.29075L666.43568 417.89985" style="fill:none;stroke:rgba(222,0,28,.24705882);stroke-width:.09525;stroke-miterlimit:41.994751"/><path d="M639.2037 402.35505L656.77733 402.20265" style="fill:none;stroke:rgba(222,0,28,.24705882);stroke-width:.09525;stroke-miterlimit:41.994751"/><path d="M653.62455 434.13045L666.69285 434.17807" style="fill:none;stroke:rgba(222,0,28,.24705882);stroke-width:.09525;stroke-miterlimit:41.994751"/><path d="M639.2037 402.35505L621.0681 402.4122" style="fill:none;stroke:rgba(222,0,28,.24705882);stroke-width:.09525;stroke-miterlimit:41.994751"/><path d="M621.12525 418.09035L639.11798 417.93795" style="fill:none;stroke:rgba(222,0,28,.24705882);stroke-width:.09525;stroke-miterlimit:41.994751"/><path d="M666.43568 417.89985L666.4833 412.46107" style="fill:none;stroke:rgba(222,0,28,.24705882);stroke-width:.09525;stroke-miterlimit:41.994751"/><path d="M666.4833 412.46107L666.47378 401.7264" style="fill:none;stroke:rgba(222,0,28,.24705882);stroke-width:.09525;stroke-miterlimit:41.994751"/><path d="M666.69285 434.17807L666.53093 421.29075" style="fill:none;stroke:rgba(222,0,28,.24705882);stroke-width:.09525;stroke-miterlimit:41.994751"/><path d="M515.493 188.99505A.47625 .47625 0 00514.5405 188.99505A.47625 .47625 0 00515.493 188.99505z" fill="rgba(222,0,28,.24705882)"/><path d="M596.97938 150.55215L593.7885 150.73312" style="fill:none;stroke:rgba(222,0,28,.24705882);stroke-width:.09525;stroke-miterlimit:41.994751"/><path d="M377.6091 .43815A.47625 .47625 0 00376.6566 .43815A.47625 .47625 0 00377.6091 .43815z" fill="rgba(222,0,28,.24705882)"/><path d="M688.75275 163.9443L689.65763 164.1729" style="fill:none;stroke:rgba(222,0,32,.24705882);stroke-width:.09525;stroke-miterlimit:41.994751"/><path d="M591.7311 178.73662V179.73675" style="fill:none;stroke:rgba(222,0,32,.24705882);stroke-width:.09525;stroke-miterlimit:41.994751"/><path d="M592.08353 178.08892L591.7311 178.73662" style="fill:none;stroke:rgba(222,0,32,.24705882);stroke-width:.09525;stroke-miterlimit:41.994751"/><path d="M679.60875 190.41427L679.45635 191.48107" style="fill:none;stroke:rgba(222,0,32,.24705882);stroke-width:.09525;stroke-miterlimit:41.994751"/><path d="M676.07497 118.2243L675.9321 119.253" style="fill:none;stroke:rgba(222,0,32,.24705882);stroke-width:.09525;stroke-miterlimit:41.994751"/><path d="M676.07497 117.14797V118.2243" style="fill:none;stroke:rgba(222,0,32,.24705882);stroke-width:.09525;stroke-miterlimit:41.994751"/><path d="M627.66893 190.48095L627.80228 190.86195" style="fill:none;stroke:rgba(222,0,32,.24705882);stroke-width:.09525;stroke-miterlimit:41.994751"/><path d="M689.65763 164.1729L690.2196 163.91572" style="fill:none;stroke:rgba(222,0,32,.24705882);stroke-width:.09525;stroke-miterlimit:41.994751"/><path d="M627.75465 192.11925L627.80228 190.86195" style="fill:none;stroke:rgba(222,0,32,.24705882);stroke-width:.09525;stroke-miterlimit:41.994751"/><path d="M679.45635 191.48107L680.09453 192.03352" style="fill:none;stroke:rgba(222,0,32,.24705882);stroke-width:.09525;stroke-miterlimit:41.994751"/><path d="M377.13285 .43815L369.36045 75.49515" style="fill:none;stroke:rgba(222,0,32,.24705882);stroke-width:.09525;stroke-miterlimit:41.994751"/><path d="M649.48118 144.49425L649.04303 140.90332" style="fill:none;stroke:rgba(222,0,32,.24705882);stroke-width:.09525;stroke-miterlimit:41.994751"/><path d="M661.73985 140.54137L664.82595 140.97" style="fill:none;stroke:rgba(222,0,32,.24705882);stroke-width:.09525;stroke-miterlimit:41.994751"/><path d="M657.21548 137.72197L661.73985 140.54137" style="fill:none;stroke:rgba(222,0,32,.24705882);stroke-width:.09525;stroke-miterlimit:41.994751"/><path d="M636.41287 141.48435L635.41275 138.90307" style="fill:none;stroke:rgba(222,0,32,.24705882);stroke-width:.09525;stroke-miterlimit:41.994751"/><path d="M636.41287 141.48435L636.22238 144.1704" style="fill:none;stroke:rgba(222,0,32,.24705882);stroke-width:.09525;stroke-miterlimit:41.994751"/><path d="M648.06195 137.8839L649.04303 140.90332" style="fill:none;stroke:rgba(222,0,32,.24705882);stroke-width:.09525;stroke-miterlimit:41.994751"/><path d="M369.8367 75.49515A.47625 .47625 0 00368.8842 75.49515A.47625 .47625 0 00369.8367 75.49515z" fill="rgba(222,0,32,.24705882)"/><path d="M522.5034 106.49902L533.99055 14.125575" style="fill:none;stroke:rgba(222,0,32,.24705882);stroke-width:.09525;stroke-miterlimit:41.994751"/><path d="M522.5034 106.49902L437.5785 79.41945" style="fill:none;stroke:rgba(222,0,32,.24705882);stroke-width:.09525;stroke-miterlimit:41.994751"/><path d="M594.26475 150.73312A.47625 .47625 0 00593.31225 150.73312A.47625 .47625 0 00594.26475 150.73312z" fill="rgba(218,0,32,.24705882)"/><path d="M619.22978 108.02302L522.5034 106.49902" style="fill:none;stroke:rgba(218,0,32,.24705882);stroke-width:.09525;stroke-miterlimit:41.994751"/><path d="M656.77733 402.20265L661.12072 402.36457" style="fill:none;stroke:rgba(218,0,36,.24705882);stroke-width:.09525;stroke-miterlimit:41.994751"/><path d="M660.9969 388.57237L666.54998 388.91527" style="fill:none;stroke:rgba(218,0,36,.24705882);stroke-width:.09525;stroke-miterlimit:41.994751"/><path d="M661.51125 412.11817L666.4833 412.46107" style="fill:none;stroke:rgba(218,0,36,.24705882);stroke-width:.09525;stroke-miterlimit:41.994751"/><path d="M661.12072 402.36457L666.47378 401.7264" style="fill:none;stroke:rgba(218,0,36,.24705882);stroke-width:.09525;stroke-miterlimit:41.994751"/><path d="M660.9969 388.57237L656.6535 388.93432" style="fill:none;stroke:rgba(218,0,36,.24705882);stroke-width:.09525;stroke-miterlimit:41.994751"/><path d="M656.89163 412.89922L661.51125 412.11817" style="fill:none;stroke:rgba(218,0,36,.24705882);stroke-width:.09525;stroke-miterlimit:41.994751"/><path d="M515.01675 188.99505L522.5034 106.49902" style="fill:none;stroke:rgba(218,0,36,.24705882);stroke-width:.09525;stroke-miterlimit:41.994751"/><path d="M628.27853 190.86195A.47625 .47625 0 00627.32602 190.86195A.47625 .47625 0 00628.27853 190.86195z" fill="rgba(218,0,36,.24705882)"/><path d="M592.20735 178.73663A.47625 .47625 0 00591.25485 178.73663A.47625 .47625 0 00592.20735 178.73663z" fill="rgba(218,0,36,.24705882)"/><path d="M679.9326 191.48107A.47625 .47625 0 00678.9801 191.48107A.47625 .47625 0 00679.9326 191.48107z" fill="rgba(218,0,36,.24705882)"/><path d="M690.13388 164.1729A.47625 .47625 0 00689.18138 164.1729A.47625 .47625 0 00690.13388 164.1729z" fill="rgba(218,0,36,.24705882)"/><path d="M676.55123 118.2243A.47625 .47625 0 00675.59872 118.2243A.47625 .47625 0 00676.55123 118.2243z" fill="rgba(218,0,36,.24705882)"/><path d="M593.7885 150.73312L588.2259 150.9141" style="fill:none;stroke:rgba(218,0,36,.24705882);stroke-width:.09525;stroke-miterlimit:41.994751"/><path d="M636.88913 141.48435A.47625 .47625 0 00635.93662 141.48435A.47625 .47625 0 00636.88913 141.48435z" fill="rgba(214,0,36,.24705882)"/><path d="M662.2161 140.54137A.47625 .47625 0 00661.2636 140.54137A.47625 .47625 0 00662.2161 140.54137z" fill="rgba(214,0,36,.24705882)"/><path d="M649.51928 140.90332A.47625 .47625 0 00648.56678 140.90332A.47625 .47625 0 00649.51928 140.90332z" fill="rgba(214,0,36,.24705882)"/><path d="M277.95855 621.2205L398.84985 613.61955" style="fill:none;stroke:rgba(214,0,36,.24705882);stroke-width:.09525;stroke-miterlimit:41.994751"/><path d="M270.17663 299.085L277.95855 621.2205" style="fill:none;stroke:rgba(214,0,40,.24705882);stroke-width:.09525;stroke-miterlimit:41.994751"/><path d="M585.84465 147.31365H590.23568V140.1318H585.84465z" style="fill:rgba(214,0,40,.24705882);stroke:rgba(214,0,40,.24705882);stroke-width:.09525;stroke-miterlimit:41.994751"/><path d="M588.74025 143.64652A.47625 .47625 0 00587.78775 143.64652A.47625 .47625 0 00588.74025 143.64652z" fill="rgba(214,0,40,.24705882)"/><path d="M585.597 154.1145H590.87385V147.47557H585.597z" style="fill:rgba(214,0,40,.24705882);stroke:rgba(214,0,40,.24705882);stroke-width:.09525;stroke-miterlimit:41.994751"/><path d="M588.70215 150.9141A.47625 .47625 0 00587.74965 150.9141A.47625 .47625 0 00588.70215 150.9141z" fill="rgba(214,0,40,.24705882)"/><path d="M588.2259 150.9141L588.264 143.64652" style="fill:none;stroke:rgba(214,0,40,.24705882);stroke-width:.09525;stroke-miterlimit:41.994751"/><path d="M661.9875 412.11817A.47625 .47625 0 00661.035 412.11817A.47625 .47625 0 00661.9875 412.11817z" fill="rgba(214,0,40,.24705882)"/><path d="M661.47315 388.57237A.47625 .47625 0 00660.52065 388.57237A.47625 .47625 0 00661.47315 388.57237z" fill="rgba(214,0,40,.24705882)"/><path d="M661.59698 402.36457A.47625 .47625 0 00660.64447 402.36457A.47625 .47625 0 00661.59698 402.36457z" fill="rgba(214,0,40,.24705882)"/><path d="M522.97965 106.49902A.47625 .47625 0 00522.02715 106.49902A.47625 .47625 0 00522.97965 106.49902z" fill="rgba(214,0,40,.24705882)"/><path d="M588.264 143.64652L593.95042 143.65605" style="fill:none;stroke:rgba(210,0,44,.24705882);stroke-width:.09525;stroke-miterlimit:41.994751"/><path d="M594.42668 143.65605A.47625 .47625 0 00593.47417 143.65605A.47625 .47625 0 00594.42668 143.65605z" fill="rgba(206,0,48,.24705882)"/><path d="M93.487875 11.90625L93.240225 289.15042" style="fill:none;stroke:rgba(202,0,52,.24705882);stroke-width:.09525;stroke-miterlimit:41.994751"/><path d="M278.4348 621.2205A.47625 .47625 0 00277.4823 621.2205A.47625 .47625 0 00278.4348 621.2205z" fill="rgba(202,0,52,.24705882)"/><path d="M599.41778 143.88465L593.95042 143.65605" style="fill:none;stroke:rgba(202,0,52,.24705882);stroke-width:.09525;stroke-miterlimit:41.994751"/><path d="M377.13285 .43815L93.487875 11.90625" style="fill:none;stroke:rgba(202,0,52,.24705882);stroke-width:.09525;stroke-miterlimit:41.994751"/><path d="M653.31023 138.99832H667.04528V118.491H653.31023z" style="fill:rgba(198,0,56,.24705882);stroke:rgba(198,0,56,.24705882);stroke-width:.09525;stroke-miterlimit:41.994751"/><path d="M662.51138 129.58762A.47625 .47625 0 00661.55887 129.58762A.47625 .47625 0 00662.51138 129.58762z" fill="rgba(198,0,56,.24705882)"/><path d="M644.8806 154.12402H663.82583V140.2461H644.8806z" style="fill:rgba(198,0,56,.24705882);stroke:rgba(198,0,56,.24705882);stroke-width:.09525;stroke-miterlimit:41.994751"/><path d="M656.43443 147.24697A.47625 .47625 0 00655.48192 147.24697A.47625 .47625 0 00656.43443 147.24697z" fill="rgba(198,0,56,.24705882)"/><path d="M667.22625 139.35075H688.6956V118.42432H667.22625z" style="fill:rgba(198,0,56,.24705882);stroke:rgba(198,0,56,.24705882);stroke-width:.09525;stroke-miterlimit:41.994751"/><path d="M671.12198 129.35902A.47625 .47625 0 00670.16948 129.35902A.47625 .47625 0 00671.12198 129.35902z" fill="rgba(198,0,56,.24705882)"/><path d="M673.88423 154.18117H688.1241V140.11275H673.88423z" style="fill:rgba(198,0,56,.24705882);stroke:rgba(198,0,56,.24705882);stroke-width:.09525;stroke-miterlimit:41.994751"/><path d="M678.942 147.13267A.47625 .47625 0 00677.9895 147.13267A.47625 .47625 0 00678.942 147.13267z" fill="rgba(198,0,56,.24705882)"/><path d="M689.16233 128.86372A.47625 .47625 0 00688.20983 128.86372A.47625 .47625 0 00689.16233 128.86372z" fill="rgba(198,0,56,.24705882)"/><path d="M689.40045 147.05647A.47625 .47625 0 00688.44795 147.05647A.47625 .47625 0 00689.40045 147.05647z" fill="rgba(198,0,56,.24705882)"/><path d="M689.20995 172.71682A.47625 .47625 0 00688.25745 172.71682A.47625 .47625 0 00689.20995 172.71682z" fill="rgba(198,0,56,.24705882)"/><path d="M678.85628 154.54312A.47625 .47625 0 00677.90377 154.54312A.47625 .47625 0 00678.85628 154.54312z" fill="rgba(198,0,56,.24705882)"/><path d="M662.3685 190.29045A.47625 .47625 0 00661.416 190.29045A.47625 .47625 0 00662.3685 190.29045z" fill="rgba(198,0,56,.24705882)"/><path d="M671.25533 139.64602A.47625 .47625 0 00670.30282 139.64602A.47625 .47625 0 00671.25533 139.64602z" fill="rgba(198,0,56,.24705882)"/><path d="M625.4496 118.872A.47625 .47625 0 00624.4971 118.872A.47625 .47625 0 00625.4496 118.872z" fill="rgba(198,0,56,.24705882)"/><path d="M667.8168 190.50952H689.0385V155.04795H667.8168z" style="fill:rgba(198,0,56,.24705882);stroke:rgba(198,0,56,.24705882);stroke-width:.09525;stroke-miterlimit:41.994751"/><path d="M679.02773 173.18355A.47625 .47625 0 00678.07522 173.18355A.47625 .47625 0 00679.02773 173.18355z" fill="rgba(198,0,56,.24705882)"/><path d="M616.1151 159.61042H622.68735V140.33182H616.1151z" style="fill:rgba(198,0,56,.24705882);stroke:rgba(198,0,56,.24705882);stroke-width:.09525;stroke-miterlimit:41.994751"/><path d="M619.6584 147.1041A.47625 .47625 0 00618.7059 147.1041A.47625 .47625 0 00619.6584 147.1041z" fill="rgba(198,0,56,.24705882)"/><path d="M616.74375 128.99707A.47625 .47625 0 00615.79125 128.99707A.47625 .47625 0 00616.74375 128.99707z" fill="rgba(198,0,56,.24705882)"/><path d="M629.84063 190.28092A.47625 .47625 0 00628.88812 190.28092A.47625 .47625 0 00629.84063 190.28092z" fill="rgba(198,0,56,.24705882)"/><path d="M615.9627 190.55715H622.64925V159.81997H615.9627z" style="fill:rgba(198,0,56,.24705882);stroke:rgba(198,0,56,.24705882);stroke-width:.09525;stroke-miterlimit:41.994751"/><path d="M619.4679 172.10722A.47625 .47625 0 00618.5154 172.10722A.47625 .47625 0 00619.4679 172.10722z" fill="rgba(198,0,56,.24705882)"/><path d="M600.88463 178.40325A.47625 .47625 0 00599.93212 178.40325A.47625 .47625 0 00600.88463 178.40325z" fill="rgba(198,0,56,.24705882)"/><path d="M616.1532 139.19835H629.51678V118.54815H616.1532z" style="fill:rgba(198,0,56,.24705882);stroke:rgba(198,0,56,.24705882);stroke-width:.09525;stroke-miterlimit:41.994751"/><path d="M625.42103 128.6637A.47625 .47625 0 00624.46852 128.6637A.47625 .47625 0 00625.42103 128.6637z" fill="rgba(198,0,56,.24705882)"/><path d="M629.93588 139.1412H651.8529V118.51957H629.93588z" style="fill:rgba(198,0,56,.24705882);stroke:rgba(198,0,56,.24705882);stroke-width:.09525;stroke-miterlimit:41.994751"/><path d="M634.90793 128.46367A.47625 .47625 0 00633.95542 128.46367A.47625 .47625 0 00634.90793 128.46367z" fill="rgba(198,0,56,.24705882)"/><path d="M585.88275 178.59375H615.1245V155.16225H585.88275z" style="fill:rgba(198,0,56,.24705882);stroke:rgba(198,0,56,.24705882);stroke-width:.09525;stroke-miterlimit:41.994751"/><path d="M600.78938 171.8691A.47625 .47625 0 00599.83687 171.8691A.47625 .47625 0 00600.78938 171.8691z" fill="rgba(198,0,56,.24705882)"/><path d="M599.9226 150.4188A.47625 .47625 0 00598.9701 150.4188A.47625 .47625 0 00599.9226 150.4188z" fill="rgba(198,0,56,.24705882)"/><path d="M663.94013 154.0764H673.66515V140.16037H663.94013z" style="fill:rgba(198,0,56,.24705882);stroke:rgba(198,0,56,.24705882);stroke-width:.09525;stroke-miterlimit:41.994751"/><path d="M671.26485 147.1422A.47625 .47625 0 00670.31235 147.1422A.47625 .47625 0 00671.26485 147.1422z" fill="rgba(198,0,56,.24705882)"/><path d="M599.89403 143.88465A.47625 .47625 0 00598.94152 143.88465A.47625 .47625 0 00599.89403 143.88465z" fill="rgba(198,0,56,.24705882)"/><path d="M645.73785 190.75717H666.88335V155.30512H645.73785z" style="fill:rgba(198,0,56,.24705882);stroke:rgba(198,0,56,.24705882);stroke-width:.09525;stroke-miterlimit:41.994751"/><path d="M656.77733 173.06925A.47625 .47625 0 00655.82483 173.06925A.47625 .47625 0 00656.77733 173.06925z" fill="rgba(198,0,56,.24705882)"/><path d="M599.3892 153.7335H616.04843V140.97H599.3892z" style="fill:rgba(198,0,56,.24705882);stroke:rgba(198,0,56,.24705882);stroke-width:.09525;stroke-miterlimit:41.994751"/><path d="M606.23768 147.12315A.47625 .47625 0 00605.28517 147.12315A.47625 .47625 0 00606.23768 147.12315z" fill="rgba(198,0,56,.24705882)"/><path d="M656.86305 154.71457A.47625 .47625 0 00655.91055 154.71457A.47625 .47625 0 00656.86305 154.71457z" fill="rgba(198,0,56,.24705882)"/><path d="M662.31135 118.74817A.47625 .47625 0 00661.35885 118.74817A.47625 .47625 0 00662.31135 118.74817z" fill="rgba(198,0,56,.24705882)"/><path d="M623.5065 189.738H644.4996V154.97175H623.5065z" style="fill:rgba(198,0,56,.24705882);stroke:rgba(198,0,56,.24705882);stroke-width:.09525;stroke-miterlimit:41.994751"/><path d="M634.6698 171.2595A.47625 .47625 0 00633.7173 171.2595A.47625 .47625 0 00634.6698 171.2595z" fill="rgba(198,0,56,.24705882)"/><path d="M622.7826 154.02877H644.66152V140.22705H622.7826z" style="fill:rgba(198,0,56,.24705882);stroke:rgba(198,0,56,.24705882);stroke-width:.09525;stroke-miterlimit:41.994751"/><path d="M634.60313 147.08505A.47625 .47625 0 00633.65062 147.08505A.47625 .47625 0 00634.60313 147.08505z" fill="rgba(198,0,56,.24705882)"/><path d="M634.5936 139.62697A.47625 .47625 0 00633.6411 139.62697A.47625 .47625 0 00634.5936 139.62697z" fill="rgba(198,0,56,.24705882)"/><path d="M634.4412 154.70505A.47625 .47625 0 00633.4887 154.70505A.47625 .47625 0 00634.4412 154.70505z" fill="rgba(198,0,56,.24705882)"/><path d="M662.03512 129.58762L670.64573 129.35902" style="fill:none;stroke:rgba(198,0,56,.24705882);stroke-width:.09525;stroke-miterlimit:41.994751"/><path d="M624.94478 128.6637L624.97335 118.872" style="fill:none;stroke:rgba(198,0,56,.24705882);stroke-width:.09525;stroke-miterlimit:41.994751"/><path d="M634.11735 139.62697L634.43168 128.46367" style="fill:none;stroke:rgba(198,0,56,.24705882);stroke-width:.09525;stroke-miterlimit:41.994751"/><path d="M678.46575 147.13267L688.9242 147.05647" style="fill:none;stroke:rgba(198,0,56,.24705882);stroke-width:.09525;stroke-miterlimit:41.994751"/><path d="M634.12688 147.08505L655.95817 147.24697" style="fill:none;stroke:rgba(198,0,56,.24705882);stroke-width:.09525;stroke-miterlimit:41.994751"/><path d="M634.12688 147.08505L633.96495 154.70505" style="fill:none;stroke:rgba(198,0,56,.24705882);stroke-width:.09525;stroke-miterlimit:41.994751"/><path d="M634.12688 147.08505L634.11735 139.62697" style="fill:none;stroke:rgba(198,0,56,.24705882);stroke-width:.09525;stroke-miterlimit:41.994751"/><path d="M688.68608 128.86372L670.64573 129.35902" style="fill:none;stroke:rgba(198,0,56,.24705882);stroke-width:.09525;stroke-miterlimit:41.994751"/><path d="M634.19355 171.2595L633.96495 154.70505" style="fill:none;stroke:rgba(198,0,56,.24705882);stroke-width:.09525;stroke-miterlimit:41.994751"/><path d="M634.19355 171.2595L629.36437 190.28092" style="fill:none;stroke:rgba(198,0,56,.24705882);stroke-width:.09525;stroke-miterlimit:41.994751"/><path d="M678.46575 147.13267L670.7886 147.1422" style="fill:none;stroke:rgba(198,0,56,.24705882);stroke-width:.09525;stroke-miterlimit:41.994751"/><path d="M678.46575 147.13267L678.38003 154.54312" style="fill:none;stroke:rgba(198,0,56,.24705882);stroke-width:.09525;stroke-miterlimit:41.994751"/><path d="M655.95817 147.24697L670.7886 147.1422" style="fill:none;stroke:rgba(198,0,56,.24705882);stroke-width:.09525;stroke-miterlimit:41.994751"/><path d="M670.77908 139.64602L670.64573 129.35902" style="fill:none;stroke:rgba(198,0,56,.24705882);stroke-width:.09525;stroke-miterlimit:41.994751"/><path d="M662.03512 129.58762L661.8351 118.74817" style="fill:none;stroke:rgba(198,0,56,.24705882);stroke-width:.09525;stroke-miterlimit:41.994751"/><path d="M688.7337 172.71682L678.55147 173.18355" style="fill:none;stroke:rgba(198,0,56,.24705882);stroke-width:.09525;stroke-miterlimit:41.994751"/><path d="M605.76143 147.12315L619.18215 147.1041" style="fill:none;stroke:rgba(198,0,56,.24705882);stroke-width:.09525;stroke-miterlimit:41.994751"/><path d="M605.76143 147.12315L599.41778 143.88465" style="fill:none;stroke:rgba(198,0,56,.24705882);stroke-width:.09525;stroke-miterlimit:41.994751"/><path d="M605.76143 147.12315L599.44635 150.4188" style="fill:none;stroke:rgba(198,0,56,.24705882);stroke-width:.09525;stroke-miterlimit:41.994751"/><path d="M656.3868 154.71457L656.30108 173.06925" style="fill:none;stroke:rgba(198,0,56,.24705882);stroke-width:.09525;stroke-miterlimit:41.994751"/><path d="M656.30108 173.06925L661.89225 190.29045" style="fill:none;stroke:rgba(198,0,56,.24705882);stroke-width:.09525;stroke-miterlimit:41.994751"/><path d="M678.38003 154.54312L678.55147 173.18355" style="fill:none;stroke:rgba(198,0,56,.24705882);stroke-width:.09525;stroke-miterlimit:41.994751"/><path d="M670.7886 147.1422L670.77908 139.64602" style="fill:none;stroke:rgba(198,0,56,.24705882);stroke-width:.09525;stroke-miterlimit:41.994751"/><path d="M600.31313 171.8691L600.40837 178.40325" style="fill:none;stroke:rgba(198,0,56,.24705882);stroke-width:.09525;stroke-miterlimit:41.994751"/><path d="M634.43168 128.46367L624.94478 128.6637" style="fill:none;stroke:rgba(198,0,56,.24705882);stroke-width:.09525;stroke-miterlimit:41.994751"/><path d="M619.18215 147.1041L634.12688 147.08505" style="fill:none;stroke:rgba(198,0,56,.24705882);stroke-width:.09525;stroke-miterlimit:41.994751"/><path d="M624.94478 128.6637L616.2675 128.99707" style="fill:none;stroke:rgba(198,0,56,.24705882);stroke-width:.09525;stroke-miterlimit:41.994751"/><path d="M655.95817 147.24697L656.3868 154.71457" style="fill:none;stroke:rgba(198,0,56,.24705882);stroke-width:.09525;stroke-miterlimit:41.994751"/><path d="M619.18215 147.1041L618.99165 172.10722" style="fill:none;stroke:rgba(198,0,56,.24705882);stroke-width:.09525;stroke-miterlimit:41.994751"/><path d="M618.99165 172.10722L615.24833 172.0596" style="fill:none;stroke:rgba(198,0,56,.24705882);stroke-width:.09525;stroke-miterlimit:41.994751"/><path d="M615.24833 172.0596L600.31313 171.8691" style="fill:none;stroke:rgba(198,0,56,.24705882);stroke-width:.09525;stroke-miterlimit:41.994751"/><path d="M615.72458 172.0596A.47625 .47625 0 00614.77207 172.0596A.47625 .47625 0 00615.72458 172.0596z" fill="rgba(198,0,56,.24705882)"/><path d="M624.97335 118.872L624.92573 118.3386" style="fill:none;stroke:rgba(194,0,60,.24705882);stroke-width:.09525;stroke-miterlimit:41.994751"/><path d="M688.9242 147.05647L689.10518 147.1422" style="fill:none;stroke:rgba(194,0,60,.24705882);stroke-width:.09525;stroke-miterlimit:41.994751"/><path d="M661.8351 118.74817L661.84463 118.34812" style="fill:none;stroke:rgba(194,0,60,.24705882);stroke-width:.09525;stroke-miterlimit:41.994751"/><path d="M688.7337 172.71682L689.16233 172.80255" style="fill:none;stroke:rgba(194,0,60,.24705882);stroke-width:.09525;stroke-miterlimit:41.994751"/><path d="M616.2675 128.99707L615.79125 128.83515" style="fill:none;stroke:rgba(194,0,60,.24705882);stroke-width:.09525;stroke-miterlimit:41.994751"/><path d="M661.89225 190.29045L661.57793 190.86195" style="fill:none;stroke:rgba(194,0,60,.24705882);stroke-width:.09525;stroke-miterlimit:41.994751"/><path d="M600.40837 178.40325L600.3036 178.78425" style="fill:none;stroke:rgba(194,0,60,.24705882);stroke-width:.09525;stroke-miterlimit:41.994751"/><path d="M689.229 128.92087L688.68608 128.86372" style="fill:none;stroke:rgba(194,0,60,.24705882);stroke-width:.09525;stroke-miterlimit:41.994751"/><path d="M629.36437 190.28092L628.74525 190.97625" style="fill:none;stroke:rgba(194,0,60,.24705882);stroke-width:.09525;stroke-miterlimit:41.994751"/><path d="M599.44635 150.4188L598.80818 150.23782" style="fill:none;stroke:rgba(194,0,60,.24705882);stroke-width:.09525;stroke-miterlimit:41.994751"/><path d="M689.58143 147.1422A.47625 .47625 0 00688.62892 147.1422A.47625 .47625 0 00689.58143 147.1422z" fill="rgba(190,0,64,.24705882)"/><path d="M689.63858 172.80255A.47625 .47625 0 00688.68607 172.80255A.47625 .47625 0 00689.63858 172.80255z" fill="rgba(190,0,64,.24705882)"/><path d="M662.32088 118.34812A.47625 .47625 0 00661.36838 118.34812A.47625 .47625 0 00662.32088 118.34812z" fill="rgba(190,0,64,.24705882)"/><path d="M662.05418 190.86195A.47625 .47625 0 00661.10168 190.86195A.47625 .47625 0 00662.05418 190.86195z" fill="rgba(190,0,64,.24705882)"/><path d="M616.2675 128.83515A.47625 .47625 0 00615.315 128.83515A.47625 .47625 0 00616.2675 128.83515z" fill="rgba(190,0,64,.24705882)"/><path d="M625.40198 118.3386A.47625 .47625 0 00624.44948 118.3386A.47625 .47625 0 00625.40198 118.3386z" fill="rgba(190,0,64,.24705882)"/><path d="M600.77985 178.78425A.47625 .47625 0 00599.82735 178.78425A.47625 .47625 0 00600.77985 178.78425z" fill="rgba(190,0,64,.24705882)"/><path d="M689.70525 128.92087A.47625 .47625 0 00688.75275 128.92087A.47625 .47625 0 00689.70525 128.92087z" fill="rgba(190,0,64,.24705882)"/><path d="M629.2215 190.97625A.47625 .47625 0 00628.269 190.97625A.47625 .47625 0 00629.2215 190.97625z" fill="rgba(190,0,64,.24705882)"/><path d="M599.28443 150.23782A.47625 .47625 0 00598.33192 150.23782A.47625 .47625 0 00599.28443 150.23782z" fill="rgba(186,0,64,.24705882)"/><path d="M1120.6163 411.83242A.47625 .47625 0 001119.6638 411.83242A.47625 .47625 0 001120.6163 411.83242z" fill="rgba(186,0,68,.24705882)"/><path d="M93.964125 11.90625A.47625 .47625 0 0093.011625 11.90625A.47625 .47625 0 0093.964125 11.90625z" fill="rgba(182,0,72,.24705882)"/><path d="M1146.9053 773.6205A.47625 .47625 0 001145.9528 773.6205A.47625 .47625 0 001146.9053 773.6205z" fill="rgba(117,0,133,.24705882)"/><path d="M.904875 891.93052A.47625 .47625 0 00-.047625 891.93052A.47625 .47625 0 00.904875 891.93052z" fill="rgba(0,0,255,.24705882)"/></svg>