<svg version="1.1" width="230.886mm" height="239.268mm" viewBox="0 0 230.886 239.268" xmlns="http://www.w3.org/2000/svg" xmlns:xlink="http://www.w3.org/1999/xlink"><path d="M-13.1445 253.1745H-11.2395" style="fill:none;stroke:#f00;stroke-width:.09525;stroke-miterlimit:41.994751"/><path d="M-13.1445 253.1745V251.2695" style="fill:none;stroke:#0f0;stroke-width:.09525;stroke-miterlimit:41.994751"/><path d="M91.45905 132.30225A.47625 .47625 0 0090.50655 132.30225A.47625 .47625 0 0091.45905 132.30225z" fill="rgba(255,0,0,.24705882)"/><path d="M92.98305 146.7612A.47625 .47625 0 0092.03055 146.7612A.47625 .47625 0 0092.98305 146.7612z" fill="rgba(255,0,0,.24705882)"/><path d="M90.9828 132.30225L92.5068 146.7612" style="fill:none;stroke:rgba(255,0,0,.24705882);stroke-width:.09525;stroke-miterlimit:41.994751"/><path d="M92.5068 146.7612L81.867375 146.7231" style="fill:none;stroke:rgba(250,0,0,.24705882);stroke-width:.09525;stroke-miterlimit:41.994751"/><path d="M82.343625 146.7231A.47625 .47625 0 0081.391125 146.7231A.47625 .47625 0 0082.343625 146.7231z" fill="rgba(246,0,4,.24705882)"/><path d="M81.867375 146.7231L72.399525 146.19923" style="fill:none;stroke:rgba(246,0,8,.24705882);stroke-width:.09525;stroke-miterlimit:41.994751"/><path d="M70.4088 152.56193H74.73315V140.61757H70.4088z" style="fill:rgba(242,0,12,.24705882);stroke:rgba(242,0,12,.24705882);stroke-width:.09525;stroke-miterlimit:41.994751"/><path d="M72.875775 146.19923A.47625 .47625 0 0071.923275 146.19923A.47625 .47625 0 0072.875775 146.19923z" fill="rgba(242,0,12,.24705882)"/><path d="M21.20265 118.11A.47625 .47625 0 0020.25015 118.11A.47625 .47625 0 0021.20265 118.11z" fill="rgba(242,0,12,.24705882)"/><path d="M21.174075 140.60805H32.55645V112.59502H21.174075z" style="fill:rgba(242,0,12,.24705882);stroke:rgba(242,0,12,.24705882);stroke-width:.09525;stroke-miterlimit:41.994751"/><path d="M27.422475 116.02402A.47625 .47625 0 0026.469975 116.02402A.47625 .47625 0 0027.422475 116.02402z" fill="rgba(242,0,12,.24705882)"/><path d="M20.6121 152.58097H70.4088V140.69377H20.6121z" style="fill:rgba(242,0,12,.24705882);stroke:rgba(242,0,12,.24705882);stroke-width:.09525;stroke-miterlimit:41.994751"/><path d="M27.051 146.44687A.47625 .47625 0 0026.0985 146.44687A.47625 .47625 0 0027.051 146.44687z" fill="rgba(242,0,12,.24705882)"/><path d="M72.399525 146.19923L26.57475 146.44687" style="fill:none;stroke:rgba(242,0,12,.24705882);stroke-width:.09525;stroke-miterlimit:41.994751"/><path d="M26.57475 146.44687L26.946225 116.02402" style="fill:none;stroke:rgba(242,0,12,.24705882);stroke-width:.09525;stroke-miterlimit:41.994751"/><path d="M26.946225 116.02402L20.7264 118.11" style="fill:none;stroke:rgba(242,0,12,.24705882);stroke-width:.09525;stroke-miterlimit:41.994751"/><path d="M91.1352 131.2164L90.9828 132.30225" style="fill:none;stroke:rgba(198,0,52,.24705882);stroke-width:.09525;stroke-miterlimit:41.994751"/><path d="M20.7264 118.11L20.7645 118.32907" style="fill:none;stroke:rgba(174,0,76,.24705882);stroke-width:.09525;stroke-miterlimit:41.994751"/><path d="M154.93365 115.88115H172.64062V98.4885H154.93365z" style="fill:rgba(141,0,109,.24705882);stroke:rgba(141,0,109,.24705882);stroke-width:.09525;stroke-miterlimit:41.994751"/><path d="M166.02075 110.7186A.47625 .47625 0 00165.06825 110.7186A.47625 .47625 0 00166.02075 110.7186z" fill="rgba(141,0,109,.24705882)"/><path d="M122.301 104.19397H137.37908V83.3628H122.301z" style="fill:rgba(141,0,109,.24705882);stroke:rgba(141,0,109,.24705882);stroke-width:.09525;stroke-miterlimit:41.994751"/><path d="M127.93027 92.6211A.47625 .47625 0 00126.97778 92.6211A.47625 .47625 0 00127.93027 92.6211z" fill="rgba(141,0,109,.24705882)"/><path d="M69.1515 170.84992H78.266925V146.47545H69.1515z" style="fill:rgba(141,0,109,.24705882);stroke:rgba(141,0,109,.24705882);stroke-width:.09525;stroke-miterlimit:41.994751"/><path d="M72.532875 166.16362A.47625 .47625 0 0071.580375 166.16362A.47625 .47625 0 0072.532875 166.16362z" fill="rgba(141,0,109,.24705882)"/><path d="M164.58248 94.307025A.47625 .47625 0 00163.62998 94.307025A.47625 .47625 0 00164.58248 94.307025z" fill="rgba(141,0,109,.24705882)"/><path d="M78.381225 170.8785H117.9195V161.78212H78.381225z" style="fill:rgba(141,0,109,.24705882);stroke:rgba(141,0,109,.24705882);stroke-width:.09525;stroke-miterlimit:41.994751"/><path d="M113.6904 166.32555A.47625 .47625 0 00112.7379 166.32555A.47625 .47625 0 00113.6904 166.32555z" fill="rgba(141,0,109,.24705882)"/><path d="M163.2204 76.552425A.47625 .47625 0 00162.2679 76.552425A.47625 .47625 0 00163.2204 76.552425z" fill="rgba(141,0,109,.24705882)"/><path d="M108.8136 161.7726H117.8814V143.54175H108.8136z" style="fill:rgba(141,0,109,.24705882);stroke:rgba(141,0,109,.24705882);stroke-width:.09525;stroke-miterlimit:41.994751"/><path d="M113.73802 146.73262A.47625 .47625 0 00112.78553 146.73262A.47625 .47625 0 00113.73802 146.73262z" fill="rgba(141,0,109,.24705882)"/><path d="M128.84467 127.8255A.47625 .47625 0 00127.89218 127.8255A.47625 .47625 0 00128.84467 127.8255z" fill="rgba(141,0,109,.24705882)"/><path d="M158.04833 72.0471H172.71683V58.27395H158.04833z" style="fill:rgba(141,0,109,.24705882);stroke:rgba(141,0,109,.24705882);stroke-width:.09525;stroke-miterlimit:41.994751"/><path d="M164.75393 63.53175A.47625 .47625 0 00163.80143 63.53175A.47625 .47625 0 00164.75393 63.53175z" fill="rgba(141,0,109,.24705882)"/><path d="M162.35362 87.38235A.47625 .47625 0 00161.40113 87.38235A.47625 .47625 0 00162.35362 87.38235z" fill="rgba(141,0,109,.24705882)"/><path d="M141.86535 81.734025A.47625 .47625 0 00140.91285 81.734025A.47625 .47625 0 00141.86535 81.734025z" fill="rgba(141,0,109,.24705882)"/><path d="M124.0536 162.23933H133.06425V137.15048H124.0536z" style="fill:rgba(141,0,109,.24705882);stroke:rgba(141,0,109,.24705882);stroke-width:.09525;stroke-miterlimit:41.994751"/><path d="M128.016 146.9898A.47625 .47625 0 00127.0635 146.9898A.47625 .47625 0 00128.016 146.9898z" fill="rgba(141,0,109,.24705882)"/><path d="M141.1605 91.449525A.47625 .47625 0 00140.208 91.449525A.47625 .47625 0 00141.1605 91.449525z" fill="rgba(141,0,109,.24705882)"/><path d="M133.0833 153.91447H161.8488V135.16927H133.0833z" style="fill:rgba(141,0,109,.24705882);stroke:rgba(141,0,109,.24705882);stroke-width:.09525;stroke-miterlimit:41.994751"/><path d="M145.76108 146.23732A.47625 .47625 0 00144.80858 146.23732A.47625 .47625 0 00145.76108 146.23732z" fill="rgba(141,0,109,.24705882)"/><path d="M147.84705 129.91147A.47625 .47625 0 00146.89455 129.91147A.47625 .47625 0 00147.84705 129.91147z" fill="rgba(141,0,109,.24705882)"/><path d="M121.02465 116.00498H137.41718V104.2035H121.02465z" style="fill:rgba(141,0,109,.24705882);stroke:rgba(141,0,109,.24705882);stroke-width:.09525;stroke-miterlimit:41.994751"/><path d="M129.14948 110.5662A.47625 .47625 0 00128.19698 110.5662A.47625 .47625 0 00129.14948 110.5662z" fill="rgba(141,0,109,.24705882)"/><path d="M165.10635 129.58763A.47625 .47625 0 00164.15385 129.58763A.47625 .47625 0 00165.10635 129.58763z" fill="rgba(141,0,109,.24705882)"/><path d="M150.1902 93.0783A.47625 .47625 0 00149.2377 93.0783A.47625 .47625 0 00150.1902 93.0783z" fill="rgba(141,0,109,.24705882)"/><path d="M122.7963 146.96123A.47625 .47625 0 00121.8438 146.96123A.47625 .47625 0 00122.7963 146.96123z" fill="rgba(141,0,109,.24705882)"/><path d="M128.93993 165.61118A.47625 .47625 0 00127.98743 165.61118A.47625 .47625 0 00128.93993 165.61118z" fill="rgba(141,0,109,.24705882)"/><path d="M69.1515 146.44687H78.31455V122.12955H69.1515z" style="fill:rgba(141,0,109,.24705882);stroke:rgba(141,0,109,.24705882);stroke-width:.09525;stroke-miterlimit:41.994751"/><path d="M75.49515 130.16865A.47625 .47625 0 0074.54265 130.16865A.47625 .47625 0 0075.49515 130.16865z" fill="rgba(141,0,109,.24705882)"/><path d="M165.51593 119.4435A.47625 .47625 0 00164.56343 119.4435A.47625 .47625 0 00165.51593 119.4435z" fill="rgba(141,0,109,.24705882)"/><path d="M147.15172 164.7825A.47625 .47625 0 00146.19923 164.7825A.47625 .47625 0 00147.15172 164.7825z" fill="rgba(141,0,109,.24705882)"/><path d="M108.8136 143.53222H117.86235V122.28195H108.8136z" style="fill:rgba(141,0,109,.24705882);stroke:rgba(141,0,109,.24705882);stroke-width:.09525;stroke-miterlimit:41.994751"/><path d="M113.10938 125.87287A.47625 .47625 0 00112.15688 125.87287A.47625 .47625 0 00113.10938 125.87287z" fill="rgba(141,0,109,.24705882)"/><path d="M167.43045 165.07778A.47625 .47625 0 00166.47795 165.07778A.47625 .47625 0 00167.43045 165.07778z" fill="rgba(141,0,109,.24705882)"/><path d="M154.08593 111.09007A.47625 .47625 0 00153.13343 111.09007A.47625 .47625 0 00154.08593 111.09007z" fill="rgba(141,0,109,.24705882)"/><path d="M169.21162 146.77072A.47625 .47625 0 00168.25913 146.77072A.47625 .47625 0 00169.21162 146.77072z" fill="rgba(141,0,109,.24705882)"/><path d="M78.31455 131.2164H108.80407V122.1105H78.31455z" style="fill:rgba(141,0,109,.24705882);stroke:rgba(141,0,109,.24705882);stroke-width:.09525;stroke-miterlimit:41.994751"/><path d="M91.6305 126.67298A.47625 .47625 0 0090.678 126.67298A.47625 .47625 0 0091.6305 126.67298z" fill="rgba(141,0,109,.24705882)"/><path d="M165.3159 146.77072A.47625 .47625 0 00164.3634 146.77072A.47625 .47625 0 00165.3159 146.77072z" fill="rgba(141,0,109,.24705882)"/><path d="M122.4915 83.372325H137.86485V60.131325H122.4915z" style="fill:rgba(141,0,109,.24705882);stroke:rgba(141,0,109,.24705882);stroke-width:.09525;stroke-miterlimit:41.994751"/><path d="M129.07327 63.1317A.47625 .47625 0 00128.12078 63.1317A.47625 .47625 0 00129.07327 63.1317z" fill="rgba(141,0,109,.24705882)"/><path d="M91.61145 131.2164A.47625 .47625 0 0090.65895 131.2164A.47625 .47625 0 0091.61145 131.2164z" fill="rgba(141,0,109,.24705882)"/><path d="M141.62723 62.055375A.47625 .47625 0 00140.67473 62.055375A.47625 .47625 0 00141.62723 62.055375z" fill="rgba(141,0,109,.24705882)"/><path d="M154.8384 61.4553A.47625 .47625 0 00153.8859 61.4553A.47625 .47625 0 00154.8384 61.4553z" fill="rgba(141,0,109,.24705882)"/><path d="M150.25688 72.018525A.47625 .47625 0 00149.30438 72.018525A.47625 .47625 0 00150.25688 72.018525z" fill="rgba(141,0,109,.24705882)"/><path d="M148.72335 56.492775A.47625 .47625 0 00147.77085 56.492775A.47625 .47625 0 00148.72335 56.492775z" fill="rgba(141,0,109,.24705882)"/><path d="M149.71395 93.0783L149.78063 72.018525" style="fill:none;stroke:rgba(141,0,109,.24705882);stroke-width:.09525;stroke-miterlimit:41.994751"/><path d="M149.71395 93.0783L164.10623 94.307025" style="fill:none;stroke:rgba(141,0,109,.24705882);stroke-width:.09525;stroke-miterlimit:41.994751"/><path d="M127.53975 146.9898L128.46368 165.61118" style="fill:none;stroke:rgba(141,0,109,.24705882);stroke-width:.09525;stroke-miterlimit:41.994751"/><path d="M154.36215 61.4553L164.27768 63.53175" style="fill:none;stroke:rgba(141,0,109,.24705882);stroke-width:.09525;stroke-miterlimit:41.994751"/><path d="M164.83965 146.77072H168.73538" style="fill:none;stroke:rgba(141,0,109,.24705882);stroke-width:.09525;stroke-miterlimit:41.994751"/><path d="M168.73538 146.77072L164.6301 129.58763" style="fill:none;stroke:rgba(141,0,109,.24705882);stroke-width:.09525;stroke-miterlimit:41.994751"/><path d="M166.9542 165.07778L168.73538 146.77072" style="fill:none;stroke:rgba(141,0,109,.24705882);stroke-width:.09525;stroke-miterlimit:41.994751"/><path d="M146.67548 164.7825L166.9542 165.07778" style="fill:none;stroke:rgba(141,0,109,.24705882);stroke-width:.09525;stroke-miterlimit:41.994751"/><path d="M146.67548 164.7825L128.46368 165.61118" style="fill:none;stroke:rgba(141,0,109,.24705882);stroke-width:.09525;stroke-miterlimit:41.994751"/><path d="M141.15098 62.055375L128.59703 63.1317" style="fill:none;stroke:rgba(141,0,109,.24705882);stroke-width:.09525;stroke-miterlimit:41.994751"/><path d="M141.15098 62.055375L141.3891 81.734025" style="fill:none;stroke:rgba(141,0,109,.24705882);stroke-width:.09525;stroke-miterlimit:41.994751"/><path d="M91.15425 126.67298L91.1352 131.2164" style="fill:none;stroke:rgba(141,0,109,.24705882);stroke-width:.09525;stroke-miterlimit:41.994751"/><path d="M112.63313 125.87287L91.15425 126.67298" style="fill:none;stroke:rgba(141,0,109,.24705882);stroke-width:.09525;stroke-miterlimit:41.994751"/><path d="M112.63313 125.87287L113.26178 146.73262" style="fill:none;stroke:rgba(141,0,109,.24705882);stroke-width:.09525;stroke-miterlimit:41.994751"/><path d="M165.5445 110.7186L153.60968 111.09007" style="fill:none;stroke:rgba(141,0,109,.24705882);stroke-width:.09525;stroke-miterlimit:41.994751"/><path d="M165.5445 110.7186L165.03968 119.4435" style="fill:none;stroke:rgba(141,0,109,.24705882);stroke-width:.09525;stroke-miterlimit:41.994751"/><path d="M75.0189 130.16865L91.15425 126.67298" style="fill:none;stroke:rgba(141,0,109,.24705882);stroke-width:.09525;stroke-miterlimit:41.994751"/><path d="M165.03968 119.4435L164.6301 129.58763" style="fill:none;stroke:rgba(141,0,109,.24705882);stroke-width:.09525;stroke-miterlimit:41.994751"/><path d="M72.056625 166.16362L75.0189 130.16865" style="fill:none;stroke:rgba(141,0,109,.24705882);stroke-width:.09525;stroke-miterlimit:41.994751"/><path d="M161.87738 87.38235L164.10623 94.307025" style="fill:none;stroke:rgba(141,0,109,.24705882);stroke-width:.09525;stroke-miterlimit:41.994751"/><path d="M149.71395 93.0783L140.68425 91.449525" style="fill:none;stroke:rgba(141,0,109,.24705882);stroke-width:.09525;stroke-miterlimit:41.994751"/><path d="M113.21415 166.32555L72.056625 166.16362" style="fill:none;stroke:rgba(141,0,109,.24705882);stroke-width:.09525;stroke-miterlimit:41.994751"/><path d="M164.10623 94.307025L165.5445 110.7186" style="fill:none;stroke:rgba(141,0,109,.24705882);stroke-width:.09525;stroke-miterlimit:41.994751"/><path d="M113.26178 146.73262L113.21415 166.32555" style="fill:none;stroke:rgba(141,0,109,.24705882);stroke-width:.09525;stroke-miterlimit:41.994751"/><path d="M127.45403 92.6211L128.67323 110.5662" style="fill:none;stroke:rgba(141,0,109,.24705882);stroke-width:.09525;stroke-miterlimit:41.994751"/><path d="M127.45403 92.6211L140.68425 91.449525" style="fill:none;stroke:rgba(141,0,109,.24705882);stroke-width:.09525;stroke-miterlimit:41.994751"/><path d="M127.45403 92.6211L128.59703 63.1317" style="fill:none;stroke:rgba(141,0,109,.24705882);stroke-width:.09525;stroke-miterlimit:41.994751"/><path d="M122.32005 146.96123L113.26178 146.73262" style="fill:none;stroke:rgba(141,0,109,.24705882);stroke-width:.09525;stroke-miterlimit:41.994751"/><path d="M164.6301 129.58763L147.3708 129.91147" style="fill:none;stroke:rgba(141,0,109,.24705882);stroke-width:.09525;stroke-miterlimit:41.994751"/><path d="M145.28483 146.23732L127.53975 146.9898" style="fill:none;stroke:rgba(141,0,109,.24705882);stroke-width:.09525;stroke-miterlimit:41.994751"/><path d="M145.28483 146.23732L146.67548 164.7825" style="fill:none;stroke:rgba(141,0,109,.24705882);stroke-width:.09525;stroke-miterlimit:41.994751"/><path d="M147.3708 129.91147L145.28483 146.23732" style="fill:none;stroke:rgba(141,0,109,.24705882);stroke-width:.09525;stroke-miterlimit:41.994751"/><path d="M147.3708 129.91147L128.36843 127.8255" style="fill:none;stroke:rgba(141,0,109,.24705882);stroke-width:.09525;stroke-miterlimit:41.994751"/><path d="M127.53975 146.9898L128.36843 127.8255" style="fill:none;stroke:rgba(141,0,109,.24705882);stroke-width:.09525;stroke-miterlimit:41.994751"/><path d="M164.27768 63.53175L162.74415 76.552425" style="fill:none;stroke:rgba(141,0,109,.24705882);stroke-width:.09525;stroke-miterlimit:41.994751"/><path d="M127.53975 146.9898L122.32005 146.96123" style="fill:none;stroke:rgba(141,0,109,.24705882);stroke-width:.09525;stroke-miterlimit:41.994751"/><path d="M149.78063 72.018525L148.30425 68.6562" style="fill:none;stroke:rgba(141,0,113,.24705882);stroke-width:.09525;stroke-miterlimit:41.994751"/><path d="M162.02978 82.038825L161.87738 87.38235" style="fill:none;stroke:rgba(137,0,117,.24705882);stroke-width:.09525;stroke-miterlimit:41.994751"/><path d="M141.72248 86.46795L140.68425 91.449525" style="fill:none;stroke:rgba(137,0,117,.24705882);stroke-width:.09525;stroke-miterlimit:41.994751"/><path d="M162.74415 76.552425L162.02978 82.038825" style="fill:none;stroke:rgba(137,0,117,.24705882);stroke-width:.09525;stroke-miterlimit:41.994751"/><path d="M141.3891 81.734025L141.72248 86.46795" style="fill:none;stroke:rgba(137,0,117,.24705882);stroke-width:.09525;stroke-miterlimit:41.994751"/><path d="M148.26615 61.43625L148.2471 56.492775" style="fill:none;stroke:rgba(137,0,117,.24705882);stroke-width:.09525;stroke-miterlimit:41.994751"/><path d="M154.36215 61.4553L148.26615 61.43625" style="fill:none;stroke:rgba(137,0,117,.24705882);stroke-width:.09525;stroke-miterlimit:41.994751"/><path d="M148.26615 61.43625L141.15098 62.055375" style="fill:none;stroke:rgba(137,0,117,.24705882);stroke-width:.09525;stroke-miterlimit:41.994751"/><path d="M137.40765 110.11852L153.60968 111.09007" style="fill:none;stroke:rgba(137,0,117,.24705882);stroke-width:.09525;stroke-miterlimit:41.994751"/><path d="M148.7805 68.6562A.47625 .47625 0 00147.828 68.6562A.47625 .47625 0 00148.7805 68.6562z" fill="rgba(137,0,117,.24705882)"/><path d="M148.2471 56.492775L148.50428 33.651825" style="fill:none;stroke:rgba(137,0,117,.24705882);stroke-width:.09525;stroke-miterlimit:41.994751"/><path d="M148.30425 68.6562L148.26615 61.43625" style="fill:none;stroke:rgba(133,0,121,.24705882);stroke-width:.09525;stroke-miterlimit:41.994751"/><path d="M162.50602 82.038825A.47625 .47625 0 00161.55353 82.038825A.47625 .47625 0 00162.50602 82.038825z" fill="rgba(133,0,121,.24705882)"/><path d="M142.19873 86.46795A.47625 .47625 0 00141.24623 86.46795A.47625 .47625 0 00142.19873 86.46795z" fill="rgba(133,0,121,.24705882)"/><path d="M148.7424 61.43625A.47625 .47625 0 00147.7899 61.43625A.47625 .47625 0 00148.7424 61.43625z" fill="rgba(129,0,121,.24705882)"/><path d="M137.8839 110.11852A.47625 .47625 0 00136.9314 110.11852A.47625 .47625 0 00137.8839 110.11852z" fill="rgba(129,0,125,.24705882)"/><path d="M148.98053 33.651825A.47625 .47625 0 00148.02803 33.651825A.47625 .47625 0 00148.98053 33.651825z" fill="rgba(129,0,125,.24705882)"/><path d="M163.13468 146.51355L164.83965 146.77072" style="fill:none;stroke:rgba(125,0,125,.24705882);stroke-width:.09525;stroke-miterlimit:41.994751"/><path d="M116.70982 109.89945L137.40765 110.11852" style="fill:none;stroke:rgba(121,0,133,.24705882);stroke-width:.09525;stroke-miterlimit:41.994751"/><path d="M148.4757 11.1633L148.50428 33.651825" style="fill:none;stroke:rgba(121,0,133,.24705882);stroke-width:.09525;stroke-miterlimit:41.994751"/><path d="M214.89352 188.19495A.47625 .47625 0 00213.94102 188.19495A.47625 .47625 0 00214.89352 188.19495z" fill="rgba(113,0,141,.24705882)"/><path d="M214.41727 188.19495L214.5792 204.62557" style="fill:none;stroke:rgba(113,0,141,.24705882);stroke-width:.09525;stroke-miterlimit:41.994751"/><path d="M214.41727 188.19495L214.36965 159.0294" style="fill:none;stroke:rgba(113,0,141,.24705882);stroke-width:.09525;stroke-miterlimit:41.994751"/><path d="M180.54638 187.7187L214.41727 188.19495" style="fill:none;stroke:rgba(113,0,141,.24705882);stroke-width:.09525;stroke-miterlimit:41.994751"/><path d="M124.88227 66.7893A.47625 .47625 0 00123.92978 66.7893A.47625 .47625 0 00124.88227 66.7893z" fill="rgba(113,0,141,.24705882)"/><path d="M199.88213 61.47435H230.59073V.32385H199.88213z" style="fill:rgba(113,0,141,.24705882);stroke:rgba(113,0,141,.24705882);stroke-width:.09525;stroke-miterlimit:41.994751"/><path d="M214.55062 11.3157A.47625 .47625 0 00213.59813 11.3157A.47625 .47625 0 00214.55062 11.3157z" fill="rgba(113,0,141,.24705882)"/><path d="M52.778025 153.00007A.47625 .47625 0 0051.825525 153.00007A.47625 .47625 0 0052.778025 153.00007z" fill="rgba(113,0,141,.24705882)"/><path d="M52.5399 113.44275A.47625 .47625 0 0051.5874 113.44275A.47625 .47625 0 0052.5399 113.44275z" fill="rgba(113,0,141,.24705882)"/><path d="M81.85785 187.51868A.47625 .47625 0 0080.90535 187.51868A.47625 .47625 0 0081.85785 187.51868z" fill="rgba(113,0,141,.24705882)"/><path d="M137.05523 187.4139A.47625 .47625 0 00136.10273 187.4139A.47625 .47625 0 00137.05523 187.4139z" fill="rgba(113,0,141,.24705882)"/><path d="M215.05545 204.62557A.47625 .47625 0 00214.10295 204.62557A.47625 .47625 0 00215.05545 204.62557z" fill="rgba(113,0,141,.24705882)"/><path d="M52.63515 187.31865A.47625 .47625 0 0051.68265 187.31865A.47625 .47625 0 0052.63515 187.31865z" fill="rgba(113,0,141,.24705882)"/><path d="M124.14885 11.41095A.47625 .47625 0 00123.19635 11.41095A.47625 .47625 0 00124.14885 11.41095z" fill="rgba(113,0,141,.24705882)"/><path d="M53.044725 10.76325A.47625 .47625 0 0052.092225 10.76325A.47625 .47625 0 0053.044725 10.76325z" fill="rgba(113,0,141,.24705882)"/><path d="M149.2758 67.065525A.47625 .47625 0 00148.3233 67.065525A.47625 .47625 0 00149.2758 67.065525z" fill="rgba(113,0,141,.24705882)"/><path d="M51.311175 34.00425A.47625 .47625 0 0050.358675 34.00425A.47625 .47625 0 0051.311175 34.00425z" fill="rgba(113,0,141,.24705882)"/><path d="M148.95195 11.1633A.47625 .47625 0 00147.99945 11.1633A.47625 .47625 0 00148.95195 11.1633z" fill="rgba(113,0,141,.24705882)"/><path d="M181.02263 187.7187A.47625 .47625 0 00180.07013 187.7187A.47625 .47625 0 00181.02263 187.7187z" fill="rgba(113,0,141,.24705882)"/><path d="M214.8459 159.0294A.47625 .47625 0 00213.8934 159.0294A.47625 .47625 0 00214.8459 159.0294z" fill="rgba(113,0,141,.24705882)"/><path d="M214.8459 146.05635A.47625 .47625 0 00213.8934 146.05635A.47625 .47625 0 00214.8459 146.05635z" fill="rgba(113,0,141,.24705882)"/><path d="M52.682775 96.974025A.47625 .47625 0 0051.730275 96.974025A.47625 .47625 0 0052.682775 96.974025z" fill="rgba(113,0,141,.24705882)"/><path d="M214.96973 128.22555A.47625 .47625 0 00214.01723 128.22555A.47625 .47625 0 00214.96973 128.22555z" fill="rgba(113,0,141,.24705882)"/><path d="M6.9342 34.680525A.47625 .47625 0 005.9817 34.680525A.47625 .47625 0 006.9342 34.680525z" fill="rgba(113,0,141,.24705882)"/><path d="M215.0364 110.2995A.47625 .47625 0 00214.0839 110.2995A.47625 .47625 0 00215.0364 110.2995z" fill="rgba(113,0,141,.24705882)"/><path d="M150.31402 89.1159A.47625 .47625 0 00149.36153 89.1159A.47625 .47625 0 00150.31402 89.1159z" fill="rgba(113,0,141,.24705882)"/><path d="M52.63515 56.67375A.47625 .47625 0 0051.68265 56.67375A.47625 .47625 0 0052.63515 56.67375z" fill="rgba(113,0,141,.24705882)"/><path d="M53.044725 81.105375A.47625 .47625 0 0052.092225 81.105375A.47625 .47625 0 0053.044725 81.105375z" fill="rgba(113,0,141,.24705882)"/><path d="M175.89818 11.83005A.47625 .47625 0 00174.94568 11.83005A.47625 .47625 0 00175.89818 11.83005z" fill="rgba(113,0,141,.24705882)"/><path d="M214.85542 81.24825A.47625 .47625 0 00213.90293 81.24825A.47625 .47625 0 00214.85542 81.24825z" fill="rgba(113,0,141,.24705882)"/><path d="M148.79955 67.065525L124.40602 66.7893" style="fill:none;stroke:rgba(113,0,141,.24705882);stroke-width:.09525;stroke-miterlimit:41.994751"/><path d="M52.568475 81.105375L52.206525 96.974025" style="fill:none;stroke:rgba(113,0,141,.24705882);stroke-width:.09525;stroke-miterlimit:41.994751"/><path d="M175.42193 11.83005L214.07438 11.3157" style="fill:none;stroke:rgba(113,0,141,.24705882);stroke-width:.09525;stroke-miterlimit:41.994751"/><path d="M175.42193 11.83005L148.4757 11.1633" style="fill:none;stroke:rgba(113,0,141,.24705882);stroke-width:.09525;stroke-miterlimit:41.994751"/><path d="M180.54638 187.7187L136.57898 187.4139" style="fill:none;stroke:rgba(113,0,141,.24705882);stroke-width:.09525;stroke-miterlimit:41.994751"/><path d="M136.57898 187.4139L81.3816 187.51868" style="fill:none;stroke:rgba(113,0,141,.24705882);stroke-width:.09525;stroke-miterlimit:41.994751"/><path d="M81.3816 187.51868L52.1589 187.31865" style="fill:none;stroke:rgba(113,0,141,.24705882);stroke-width:.09525;stroke-miterlimit:41.994751"/><path d="M52.301775 153.00007L52.1589 187.31865" style="fill:none;stroke:rgba(113,0,141,.24705882);stroke-width:.09525;stroke-miterlimit:41.994751"/><path d="M52.301775 153.00007L52.06365 113.44275" style="fill:none;stroke:rgba(113,0,141,.24705882);stroke-width:.09525;stroke-miterlimit:41.994751"/><path d="M123.6726 11.41095L52.568475 10.76325" style="fill:none;stroke:rgba(113,0,141,.24705882);stroke-width:.09525;stroke-miterlimit:41.994751"/><path d="M214.56015 110.2995L214.37918 81.24825" style="fill:none;stroke:rgba(113,0,141,.24705882);stroke-width:.09525;stroke-miterlimit:41.994751"/><path d="M214.56015 110.2995L214.49348 128.22555" style="fill:none;stroke:rgba(113,0,141,.24705882);stroke-width:.09525;stroke-miterlimit:41.994751"/><path d="M123.6726 11.41095L148.4757 11.1633" style="fill:none;stroke:rgba(113,0,141,.24705882);stroke-width:.09525;stroke-miterlimit:41.994751"/><path d="M50.834925 34.00425L6.45795 34.680525" style="fill:none;stroke:rgba(113,0,141,.24705882);stroke-width:.09525;stroke-miterlimit:41.994751"/><path d="M52.206525 96.974025L52.06365 113.44275" style="fill:none;stroke:rgba(113,0,141,.24705882);stroke-width:.09525;stroke-miterlimit:41.994751"/><path d="M50.834925 34.00425L52.568475 10.76325" style="fill:none;stroke:rgba(113,0,141,.24705882);stroke-width:.09525;stroke-miterlimit:41.994751"/><path d="M52.1589 56.67375L50.834925 34.00425" style="fill:none;stroke:rgba(113,0,141,.24705882);stroke-width:.09525;stroke-miterlimit:41.994751"/><path d="M52.1589 56.67375L52.568475 81.105375" style="fill:none;stroke:rgba(113,0,141,.24705882);stroke-width:.09525;stroke-miterlimit:41.994751"/><path d="M214.49348 128.22555L214.36965 146.05635" style="fill:none;stroke:rgba(113,0,141,.24705882);stroke-width:.09525;stroke-miterlimit:41.994751"/><path d="M214.36965 146.05635V159.0294" style="fill:none;stroke:rgba(113,0,141,.24705882);stroke-width:.09525;stroke-miterlimit:41.994751"/><path d="M214.07438 11.3157L214.37918 81.24825" style="fill:none;stroke:rgba(113,0,141,.24705882);stroke-width:.09525;stroke-miterlimit:41.994751"/><path d="M68.29425 56.187975L52.1589 56.67375" style="fill:none;stroke:rgba(113,0,141,.24705882);stroke-width:.09525;stroke-miterlimit:41.994751"/><path d="M68.29425 56.187975L50.834925 34.00425" style="fill:none;stroke:rgba(113,0,141,.24705882);stroke-width:.09525;stroke-miterlimit:41.994751"/><path d="M68.7705 56.187975A.47625 .47625 0 0067.818 56.187975A.47625 .47625 0 0068.7705 56.187975z" fill="rgba(113,0,141,.24705882)"/><path d="M77.09535 68.14185L68.29425 56.187975" style="fill:none;stroke:rgba(113,0,141,.24705882);stroke-width:.09525;stroke-miterlimit:41.994751"/><path d="M77.5716 68.14185A.47625 .47625 0 0076.6191 68.14185A.47625 .47625 0 0077.5716 68.14185z" fill="rgba(113,0,141,.24705882)"/><path d="M124.40602 66.7893L124.48223 79.7052" style="fill:none;stroke:rgba(109,0,141,.24705882);stroke-width:.09525;stroke-miterlimit:41.994751"/><path d="M149.83777 89.1159L151.01888 97.4217" style="fill:none;stroke:rgba(109,0,141,.24705882);stroke-width:.09525;stroke-miterlimit:41.994751"/><path d="M63.49365 80.933925L52.568475 81.105375" style="fill:none;stroke:rgba(109,0,141,.24705882);stroke-width:.09525;stroke-miterlimit:41.994751"/><path d="M214.49348 128.22555L191.89065 127.66357" style="fill:none;stroke:rgba(109,0,141,.24705882);stroke-width:.09525;stroke-miterlimit:41.994751"/><path d="M214.36965 159.0294L191.50012 159.21037" style="fill:none;stroke:rgba(109,0,141,.24705882);stroke-width:.09525;stroke-miterlimit:41.994751"/><path d="M214.5792 204.62557L214.26488 214.75065" style="fill:none;stroke:rgba(109,0,141,.24705882);stroke-width:.09525;stroke-miterlimit:41.994751"/><path d="M6.45795 34.680525L7.0866 20.97405" style="fill:none;stroke:rgba(109,0,141,.24705882);stroke-width:.09525;stroke-miterlimit:41.994751"/><path d="M191.55728 146.04682L214.36965 146.05635" style="fill:none;stroke:rgba(109,0,141,.24705882);stroke-width:.09525;stroke-miterlimit:41.994751"/><path d="M63.827025 97.63125L52.206525 96.974025" style="fill:none;stroke:rgba(109,0,141,.24705882);stroke-width:.09525;stroke-miterlimit:41.994751"/><path d="M163.05848 88.801575L149.83777 89.1159" style="fill:none;stroke:rgba(109,0,141,.24705882);stroke-width:.09525;stroke-miterlimit:41.994751"/><path d="M180.213 175.4505L180.54638 187.7187" style="fill:none;stroke:rgba(109,0,141,.24705882);stroke-width:.09525;stroke-miterlimit:41.994751"/><path d="M124.18695 33.35655L123.6726 11.41095" style="fill:none;stroke:rgba(109,0,141,.24705882);stroke-width:.09525;stroke-miterlimit:41.994751"/><path d="M124.40602 66.7893L124.26315 54.61635" style="fill:none;stroke:rgba(109,0,141,.24705882);stroke-width:.09525;stroke-miterlimit:41.994751"/><path d="M124.40602 66.7893L119.253 70.50405" style="fill:none;stroke:rgba(109,0,141,.24705882);stroke-width:.09525;stroke-miterlimit:41.994751"/><path d="M63.293625 113.78565L52.06365 113.44275" style="fill:none;stroke:rgba(109,0,141,.24705882);stroke-width:.09525;stroke-miterlimit:41.994751"/><path d="M191.97638 111.31867L214.56015 110.2995" style="fill:none;stroke:rgba(109,0,141,.24705882);stroke-width:.09525;stroke-miterlimit:41.994751"/><path d="M79.657575 32.832675L50.834925 34.00425" style="fill:none;stroke:rgba(109,0,141,.24705882);stroke-width:.09525;stroke-miterlimit:41.994751"/><path d="M180.61305 81.581625L214.37918 81.24825" style="fill:none;stroke:rgba(109,0,141,.24705882);stroke-width:.09525;stroke-miterlimit:41.994751"/><path d="M149.83777 89.1159L142.78928 89.13495" style="fill:none;stroke:rgba(109,0,141,.24705882);stroke-width:.09525;stroke-miterlimit:41.994751"/><path d="M79.657575 32.832675L68.29425 56.187975" style="fill:none;stroke:rgba(109,0,141,.24705882);stroke-width:.09525;stroke-miterlimit:41.994751"/><path d="M77.09535 68.14185L81.43875 89.963625" style="fill:none;stroke:rgba(109,0,141,.24705882);stroke-width:.09525;stroke-miterlimit:41.994751"/><path d="M148.79955 67.065525L175.73625 67.351275" style="fill:none;stroke:rgba(109,0,141,.24705882);stroke-width:.09525;stroke-miterlimit:41.994751"/><path d="M175.42193 11.83005L175.73625 67.351275" style="fill:none;stroke:rgba(109,0,141,.24705882);stroke-width:.09525;stroke-miterlimit:41.994751"/><path d="M.981075 153.0477L52.301775 153.00007" style="fill:none;stroke:rgba(109,0,141,.24705882);stroke-width:.09525;stroke-miterlimit:41.994751"/><path d="M52.1589 187.31865L1.00965 186.8424" style="fill:none;stroke:rgba(109,0,141,.24705882);stroke-width:.09525;stroke-miterlimit:41.994751"/><path d="M5.895975 55.68315L6.45795 34.680525" style="fill:none;stroke:rgba(109,0,141,.24705882);stroke-width:.09525;stroke-miterlimit:41.994751"/><path d="M52.1589 56.67375L5.895975 55.68315" style="fill:none;stroke:rgba(109,0,141,.24705882);stroke-width:.09525;stroke-miterlimit:41.994751"/><path d="M163.53473 88.801575A.47625 .47625 0 00162.58223 88.801575A.47625 .47625 0 00163.53473 88.801575z" fill="rgba(109,0,141,.24705882)"/><path d="M127.69215 163.9062A.47625 .47625 0 00126.73965 163.9062A.47625 .47625 0 00127.69215 163.9062z" fill="rgba(109,0,141,.24705882)"/><path d="M176.49825 81.619725A.47625 .47625 0 00175.54575 81.619725A.47625 .47625 0 00176.49825 81.619725z" fill="rgba(109,0,141,.24705882)"/><path d="M181.0893 81.581625A.47625 .47625 0 00180.1368 81.581625A.47625 .47625 0 00181.0893 81.581625z" fill="rgba(109,0,141,.24705882)"/><path d="M178.18418 98.8695A.47625 .47625 0 00177.23168 98.8695A.47625 .47625 0 00178.18418 98.8695z" fill="rgba(109,0,141,.24705882)"/><path d="M163.3347 81.924525A.47625 .47625 0 00162.3822 81.924525A.47625 .47625 0 00163.3347 81.924525z" fill="rgba(109,0,141,.24705882)"/><path d="M174.90758 155.69565A.47625 .47625 0 00173.95508 155.69565A.47625 .47625 0 00174.90758 155.69565z" fill="rgba(109,0,141,.24705882)"/><path d="M175.8315 161.7345H184.9755V137.5029H175.8315z" style="fill:rgba(109,0,141,.24705882);stroke:rgba(109,0,141,.24705882);stroke-width:.09525;stroke-miterlimit:41.994751"/><path d="M181.2036 155.66707A.47625 .47625 0 00180.2511 155.66707A.47625 .47625 0 00181.2036 155.66707z" fill="rgba(109,0,141,.24705882)"/><path d="M183.08003 136.6266A.47625 .47625 0 00182.12753 136.6266A.47625 .47625 0 00183.08003 136.6266z" fill="rgba(109,0,141,.24705882)"/><path d="M124.7394 54.61635A.47625 .47625 0 00123.7869 54.61635A.47625 .47625 0 00124.7394 54.61635z" fill="rgba(109,0,141,.24705882)"/><path d="M63.769875 113.78565A.47625 .47625 0 0062.817375 113.78565A.47625 .47625 0 0063.769875 113.78565z" fill="rgba(109,0,141,.24705882)"/><path d="M80.133825 32.832675A.47625 .47625 0 0079.181325 32.832675A.47625 .47625 0 0080.133825 32.832675z" fill="rgba(109,0,141,.24705882)"/><path d="M132.26415 137.37908A.47625 .47625 0 00131.31165 137.37908A.47625 .47625 0 00132.26415 137.37908z" fill="rgba(109,0,141,.24705882)"/><path d="M143.26552 89.13495A.47625 .47625 0 00142.31303 89.13495A.47625 .47625 0 00143.26552 89.13495z" fill="rgba(109,0,141,.24705882)"/><path d="M121.09132 156.29573A.47625 .47625 0 00120.13882 156.29573A.47625 .47625 0 00121.09132 156.29573z" fill="rgba(109,0,141,.24705882)"/><path d="M108.78502 161.75355H117.9195V147.7518H108.78502z" style="fill:rgba(109,0,141,.24705882);stroke:rgba(109,0,141,.24705882);stroke-width:.09525;stroke-miterlimit:41.994751"/><path d="M113.71898 155.93377A.47625 .47625 0 00112.76648 155.93377A.47625 .47625 0 00113.71898 155.93377z" fill="rgba(109,0,141,.24705882)"/><path d="M124.6632 33.35655A.47625 .47625 0 00123.7107 33.35655A.47625 .47625 0 00124.6632 33.35655z" fill="rgba(109,0,141,.24705882)"/><path d="M108.80407 170.86897H117.9195V161.75355H108.80407z" style="fill:rgba(109,0,141,.24705882);stroke:rgba(109,0,141,.24705882);stroke-width:.09525;stroke-miterlimit:41.994751"/><path d="M114.95722 166.32555A.47625 .47625 0 00114.00473 166.32555A.47625 .47625 0 00114.95722 166.32555z" fill="rgba(109,0,141,.24705882)"/><path d="M69.1896 170.85945H108.78502V161.7345H69.1896z" style="fill:rgba(109,0,141,.24705882);stroke:rgba(109,0,141,.24705882);stroke-width:.09525;stroke-miterlimit:41.994751"/><path d="M73.24725 166.1922A.47625 .47625 0 0072.29475 166.1922A.47625 .47625 0 0073.24725 166.1922z" fill="rgba(109,0,141,.24705882)"/><path d="M69.161025 161.7345H78.27645V122.12955H69.161025z" style="fill:rgba(109,0,141,.24705882);stroke:rgba(109,0,141,.24705882);stroke-width:.09525;stroke-miterlimit:41.994751"/><path d="M74.4855 127.1778A.47625 .47625 0 0073.533 127.1778A.47625 .47625 0 0074.4855 127.1778z" fill="rgba(109,0,141,.24705882)"/><path d="M127.53975 156.52432A.47625 .47625 0 00126.58725 156.52432A.47625 .47625 0 00127.53975 156.52432z" fill="rgba(109,0,141,.24705882)"/><path d="M78.27645 131.22593H117.90045V122.1105H78.27645z" style="fill:rgba(109,0,141,.24705882);stroke:rgba(109,0,141,.24705882);stroke-width:.09525;stroke-miterlimit:41.994751"/><path d="M115.12867 126.35865A.47625 .47625 0 00114.17618 126.35865A.47625 .47625 0 00115.12867 126.35865z" fill="rgba(109,0,141,.24705882)"/><path d="M157.8483 135.3312A.47625 .47625 0 00156.8958 135.3312A.47625 .47625 0 00157.8483 135.3312z" fill="rgba(109,0,141,.24705882)"/><path d="M129.20663 150.39022A.47625 .47625 0 00128.25413 150.39022A.47625 .47625 0 00129.20663 150.39022z" fill="rgba(109,0,141,.24705882)"/><path d="M108.79455 147.7518H117.90045V131.22593H108.79455z" style="fill:rgba(109,0,141,.24705882);stroke:rgba(109,0,141,.24705882);stroke-width:.09525;stroke-miterlimit:41.994751"/><path d="M113.36655 136.0932A.47625 .47625 0 00112.41405 136.0932A.47625 .47625 0 00113.36655 136.0932z" fill="rgba(109,0,141,.24705882)"/><path d="M129.59715 137.33145A.47625 .47625 0 00128.64465 137.33145A.47625 .47625 0 00129.59715 137.33145z" fill="rgba(109,0,141,.24705882)"/><path d="M157.87688 155.59087A.47625 .47625 0 00156.92438 155.59087A.47625 .47625 0 00157.87688 155.59087z" fill="rgba(109,0,141,.24705882)"/><path d="M151.27605 138.76972A.47625 .47625 0 00150.32355 138.76972A.47625 .47625 0 00151.27605 138.76972z" fill="rgba(109,0,141,.24705882)"/><path d="M158.75317 146.14207A.47625 .47625 0 00157.80068 146.14207A.47625 .47625 0 00158.75317 146.14207z" fill="rgba(109,0,141,.24705882)"/><path d="M181.22265 88.18245A.47625 .47625 0 00180.27015 88.18245A.47625 .47625 0 00181.22265 88.18245z" fill="rgba(109,0,141,.24705882)"/><path d="M64.303275 97.63125A.47625 .47625 0 0063.350775 97.63125A.47625 .47625 0 0064.303275 97.63125z" fill="rgba(109,0,141,.24705882)"/><path d="M121.29135 136.3218A.47625 .47625 0 00120.33885 136.3218A.47625 .47625 0 00121.29135 136.3218z" fill="rgba(109,0,141,.24705882)"/><path d="M169.74502 138.17917A.47625 .47625 0 00168.79253 138.17917A.47625 .47625 0 00169.74502 138.17917z" fill="rgba(109,0,141,.24705882)"/><path d="M163.61093 146.51355A.47625 .47625 0 00162.65843 146.51355A.47625 .47625 0 00163.61093 146.51355z" fill="rgba(109,0,141,.24705882)"/><path d="M163.24898 155.83853A.47625 .47625 0 00162.29648 155.83853A.47625 .47625 0 00163.24898 155.83853z" fill="rgba(109,0,141,.24705882)"/><path d="M180.68925 175.4505A.47625 .47625 0 00179.73675 175.4505A.47625 .47625 0 00180.68925 175.4505z" fill="rgba(109,0,141,.24705882)"/><path d="M219.3417 238.28692A.47625 .47625 0 00218.3892 238.28692A.47625 .47625 0 00219.3417 238.28692z" fill="rgba(109,0,141,.24705882)"/><path d="M63.9699 80.933925A.47625 .47625 0 0063.0174 80.933925A.47625 .47625 0 0063.9699 80.933925z" fill="rgba(109,0,141,.24705882)"/><path d="M214.74113 214.75065A.47625 .47625 0 00213.78863 214.75065A.47625 .47625 0 00214.74113 214.75065z" fill="rgba(109,0,141,.24705882)"/><path d="M214.55062 227.08552A.47625 .47625 0 00213.59813 227.08552A.47625 .47625 0 00214.55062 227.08552z" fill="rgba(109,0,141,.24705882)"/><path d="M163.62045 97.7646A.47625 .47625 0 00162.66795 97.7646A.47625 .47625 0 00163.62045 97.7646z" fill="rgba(109,0,141,.24705882)"/><path d="M7.56285 20.97405A.47625 .47625 0 006.61035 20.97405A.47625 .47625 0 007.56285 20.97405z" fill="rgba(109,0,141,.24705882)"/><path d="M191.97637 159.21037A.47625 .47625 0 00191.02388 159.21037A.47625 .47625 0 00191.97637 159.21037z" fill="rgba(109,0,141,.24705882)"/><path d="M192.03352 146.04682A.47625 .47625 0 00191.08103 146.04682A.47625 .47625 0 00192.03352 146.04682z" fill="rgba(109,0,141,.24705882)"/><path d="M192.3669 127.66357A.47625 .47625 0 00191.4144 127.66357A.47625 .47625 0 00192.3669 127.66357z" fill="rgba(109,0,141,.24705882)"/><path d="M192.45263 111.31867A.47625 .47625 0 00191.50013 111.31867A.47625 .47625 0 00192.45263 111.31867z" fill="rgba(109,0,141,.24705882)"/><path d="M139.36028 97.469325A.47625 .47625 0 00138.40778 97.469325A.47625 .47625 0 00139.36028 97.469325z" fill="rgba(109,0,141,.24705882)"/><path d="M181.47983 98.5266A.47625 .47625 0 00180.52733 98.5266A.47625 .47625 0 00181.47983 98.5266z" fill="rgba(109,0,141,.24705882)"/><path d="M7.0485 8.239125A.47625 .47625 0 006.096 8.239125A.47625 .47625 0 007.0485 8.239125z" fill="rgba(109,0,141,.24705882)"/><path d="M151.49513 97.4217A.47625 .47625 0 00150.54263 97.4217A.47625 .47625 0 00151.49513 97.4217z" fill="rgba(109,0,141,.24705882)"/><path d="M81.915 89.963625A.47625 .47625 0 0080.9625 89.963625A.47625 .47625 0 0081.915 89.963625z" fill="rgba(109,0,141,.24705882)"/><path d="M112.78552 85.201125A.47625 .47625 0 00111.83302 85.201125A.47625 .47625 0 00112.78552 85.201125z" fill="rgba(109,0,141,.24705882)"/><path d="M119.72925 70.50405A.47625 .47625 0 00118.77675 70.50405A.47625 .47625 0 00119.72925 70.50405z" fill="rgba(109,0,141,.24705882)"/><path d="M111.6711 69.808725A.47625 .47625 0 00110.7186 69.808725A.47625 .47625 0 00111.6711 69.808725z" fill="rgba(109,0,141,.24705882)"/><path d="M112.4712 109.29937A.47625 .47625 0 00111.5187 109.29937A.47625 .47625 0 00112.4712 109.29937z" fill="rgba(109,0,141,.24705882)"/><path d="M124.95848 79.7052A.47625 .47625 0 00124.00598 79.7052A.47625 .47625 0 00124.95848 79.7052z" fill="rgba(109,0,141,.24705882)"/><path d="M117.18607 109.89945A.47625 .47625 0 00116.23358 109.89945A.47625 .47625 0 00117.18607 109.89945z" fill="rgba(109,0,141,.24705882)"/><path d="M174.43133 155.69565L162.77273 155.83853" style="fill:none;stroke:rgba(109,0,141,.24705882);stroke-width:.09525;stroke-miterlimit:41.994751"/><path d="M112.30927 85.201125L111.99495 109.29937" style="fill:none;stroke:rgba(109,0,141,.24705882);stroke-width:.09525;stroke-miterlimit:41.994751"/><path d="M120.8151 136.3218L112.8903 136.0932" style="fill:none;stroke:rgba(109,0,141,.24705882);stroke-width:.09525;stroke-miterlimit:41.994751"/><path d="M127.0635 156.52432L120.61507 156.29573" style="fill:none;stroke:rgba(109,0,141,.24705882);stroke-width:.09525;stroke-miterlimit:41.994751"/><path d="M157.37205 135.3312L150.7998 138.76972" style="fill:none;stroke:rgba(109,0,141,.24705882);stroke-width:.09525;stroke-miterlimit:41.994751"/><path d="M158.27693 146.14207L163.13468 146.51355" style="fill:none;stroke:rgba(109,0,141,.24705882);stroke-width:.09525;stroke-miterlimit:41.994751"/><path d="M162.85845 81.924525L163.05848 88.801575" style="fill:none;stroke:rgba(109,0,141,.24705882);stroke-width:.09525;stroke-miterlimit:41.994751"/><path d="M158.27693 146.14207L157.37205 135.3312" style="fill:none;stroke:rgba(109,0,141,.24705882);stroke-width:.09525;stroke-miterlimit:41.994751"/><path d="M180.61305 81.581625L176.022 81.619725" style="fill:none;stroke:rgba(109,0,141,.24705882);stroke-width:.09525;stroke-miterlimit:41.994751"/><path d="M111.99495 109.29937L116.70982 109.89945" style="fill:none;stroke:rgba(109,0,141,.24705882);stroke-width:.09525;stroke-miterlimit:41.994751"/><path d="M157.37205 135.3312L169.26878 138.17917" style="fill:none;stroke:rgba(109,0,141,.24705882);stroke-width:.09525;stroke-miterlimit:41.994751"/><path d="M111.19485 69.808725L119.253 70.50405" style="fill:none;stroke:rgba(109,0,141,.24705882);stroke-width:.09525;stroke-miterlimit:41.994751"/><path d="M111.19485 69.808725L112.30927 85.201125" style="fill:none;stroke:rgba(109,0,141,.24705882);stroke-width:.09525;stroke-miterlimit:41.994751"/><path d="M127.0635 156.52432L127.2159 163.9062" style="fill:none;stroke:rgba(109,0,141,.24705882);stroke-width:.09525;stroke-miterlimit:41.994751"/><path d="M180.7464 88.18245L181.00358 98.5266" style="fill:none;stroke:rgba(109,0,141,.24705882);stroke-width:.09525;stroke-miterlimit:41.994751"/><path d="M180.61305 81.581625L180.7464 88.18245" style="fill:none;stroke:rgba(109,0,141,.24705882);stroke-width:.09525;stroke-miterlimit:41.994751"/><path d="M163.05848 88.801575L163.1442 97.7646" style="fill:none;stroke:rgba(109,0,141,.24705882);stroke-width:.09525;stroke-miterlimit:41.994751"/><path d="M162.85845 81.924525L176.022 81.619725" style="fill:none;stroke:rgba(109,0,141,.24705882);stroke-width:.09525;stroke-miterlimit:41.994751"/><path d="M157.40063 155.59087L158.27693 146.14207" style="fill:none;stroke:rgba(109,0,141,.24705882);stroke-width:.09525;stroke-miterlimit:41.994751"/><path d="M124.18695 33.35655L79.657575 32.832675" style="fill:none;stroke:rgba(109,0,141,.24705882);stroke-width:.09525;stroke-miterlimit:41.994751"/><path d="M120.8151 136.3218L129.1209 137.33145" style="fill:none;stroke:rgba(109,0,141,.24705882);stroke-width:.09525;stroke-miterlimit:41.994751"/><path d="M124.18695 33.35655L124.26315 54.61635" style="fill:none;stroke:rgba(109,0,141,.24705882);stroke-width:.09525;stroke-miterlimit:41.994751"/><path d="M163.1442 97.7646L151.01888 97.4217" style="fill:none;stroke:rgba(109,0,141,.24705882);stroke-width:.09525;stroke-miterlimit:41.994751"/><path d="M131.7879 137.37908L150.7998 138.76972" style="fill:none;stroke:rgba(109,0,141,.24705882);stroke-width:.09525;stroke-miterlimit:41.994751"/><path d="M180.72735 155.66707L174.43133 155.69565" style="fill:none;stroke:rgba(109,0,141,.24705882);stroke-width:.09525;stroke-miterlimit:41.994751"/><path d="M180.72735 155.66707L182.60378 136.6266" style="fill:none;stroke:rgba(109,0,141,.24705882);stroke-width:.09525;stroke-miterlimit:41.994751"/><path d="M214.26488 214.75065L214.07438 227.08552" style="fill:none;stroke:rgba(109,0,141,.24705882);stroke-width:.09525;stroke-miterlimit:41.994751"/><path d="M120.61507 156.29573L113.24273 155.93377" style="fill:none;stroke:rgba(109,0,141,.24705882);stroke-width:.09525;stroke-miterlimit:41.994751"/><path d="M112.8903 136.0932L113.24273 155.93377" style="fill:none;stroke:rgba(109,0,141,.24705882);stroke-width:.09525;stroke-miterlimit:41.994751"/><path d="M113.24273 155.93377L114.48098 166.32555" style="fill:none;stroke:rgba(109,0,141,.24705882);stroke-width:.09525;stroke-miterlimit:41.994751"/><path d="M114.48098 166.32555L72.771 166.1922" style="fill:none;stroke:rgba(109,0,141,.24705882);stroke-width:.09525;stroke-miterlimit:41.994751"/><path d="M162.77273 155.83853L157.40063 155.59087" style="fill:none;stroke:rgba(109,0,141,.24705882);stroke-width:.09525;stroke-miterlimit:41.994751"/><path d="M127.0635 156.52432L128.73038 150.39022" style="fill:none;stroke:rgba(109,0,141,.24705882);stroke-width:.09525;stroke-miterlimit:41.994751"/><path d="M72.771 166.1922L74.00925 127.1778" style="fill:none;stroke:rgba(109,0,141,.24705882);stroke-width:.09525;stroke-miterlimit:41.994751"/><path d="M151.01888 97.4217L138.88403 97.469325" style="fill:none;stroke:rgba(109,0,141,.24705882);stroke-width:.09525;stroke-miterlimit:41.994751"/><path d="M74.00925 127.1778L114.65242 126.35865" style="fill:none;stroke:rgba(109,0,141,.24705882);stroke-width:.09525;stroke-miterlimit:41.994751"/><path d="M7.0866 20.97405L6.57225 8.239125" style="fill:none;stroke:rgba(109,0,141,.24705882);stroke-width:.09525;stroke-miterlimit:41.994751"/><path d="M114.65242 126.35865L112.8903 136.0932" style="fill:none;stroke:rgba(109,0,141,.24705882);stroke-width:.09525;stroke-miterlimit:41.994751"/><path d="M181.00358 98.5266L177.70793 98.8695" style="fill:none;stroke:rgba(109,0,141,.24705882);stroke-width:.09525;stroke-miterlimit:41.994751"/><path d="M181.00358 98.5266L182.60378 136.6266" style="fill:none;stroke:rgba(109,0,141,.24705882);stroke-width:.09525;stroke-miterlimit:41.994751"/><path d="M177.70793 98.8695L163.1442 97.7646" style="fill:none;stroke:rgba(109,0,141,.24705882);stroke-width:.09525;stroke-miterlimit:41.994751"/><path d="M163.05848 88.801575L180.7464 88.18245" style="fill:none;stroke:rgba(109,0,141,.24705882);stroke-width:.09525;stroke-miterlimit:41.994751"/><path d="M5.819775 81.1911L52.568475 81.105375" style="fill:none;stroke:rgba(109,0,141,.24705882);stroke-width:.09525;stroke-miterlimit:41.994751"/><path d="M87.753825 55.292625L68.29425 56.187975" style="fill:none;stroke:rgba(109,0,141,.24705882);stroke-width:.09525;stroke-miterlimit:41.994751"/><path d="M176.022 81.619725L175.73625 67.351275" style="fill:none;stroke:rgba(109,0,145,.24705882);stroke-width:.09525;stroke-miterlimit:41.994751"/><path d="M176.2125 67.351275A.47625 .47625 0 00175.26 67.351275A.47625 .47625 0 00176.2125 67.351275z" fill="rgba(109,0,145,.24705882)"/><path d="M1.457325 153.0477A.47625 .47625 0 00.504825 153.0477A.47625 .47625 0 001.457325 153.0477z" fill="rgba(109,0,145,.24705882)"/><path d="M116.1669 54.892575L124.18695 33.35655" style="fill:none;stroke:rgba(109,0,145,.24705882);stroke-width:.09525;stroke-miterlimit:41.994751"/><path d="M124.26315 54.61635L116.1669 54.892575" style="fill:none;stroke:rgba(109,0,145,.24705882);stroke-width:.09525;stroke-miterlimit:41.994751"/><path d="M.981075 153.0477L1.00965 186.8424" style="fill:none;stroke:rgba(109,0,145,.24705882);stroke-width:.09525;stroke-miterlimit:41.994751"/><path d="M1.4859 186.8424A.47625 .47625 0 00.5334 186.8424A.47625 .47625 0 001.4859 186.8424z" fill="rgba(109,0,145,.24705882)"/><path d="M87.753825 55.292625L79.657575 32.832675" style="fill:none;stroke:rgba(109,0,145,.24705882);stroke-width:.09525;stroke-miterlimit:41.994751"/><path d="M116.64315 54.892575A.47625 .47625 0 00115.69065 54.892575A.47625 .47625 0 00116.64315 54.892575z" fill="rgba(109,0,145,.24705882)"/><path d="M81.3816 187.51868L81.81975 238.29645" style="fill:none;stroke:rgba(109,0,145,.24705882);stroke-width:.09525;stroke-miterlimit:41.994751"/><path d="M6.372225 55.68315A.47625 .47625 0 005.419725 55.68315A.47625 .47625 0 006.372225 55.68315z" fill="rgba(109,0,145,.24705882)"/><path d="M5.895975 55.68315L5.819775 81.1911" style="fill:none;stroke:rgba(109,0,145,.24705882);stroke-width:.09525;stroke-miterlimit:41.994751"/><path d="M6.296025 81.1911A.47625 .47625 0 005.343525 81.1911A.47625 .47625 0 006.296025 81.1911z" fill="rgba(109,0,145,.24705882)"/><path d="M88.230075 55.292625A.47625 .47625 0 0087.277575 55.292625A.47625 .47625 0 0088.230075 55.292625z" fill="rgba(109,0,145,.24705882)"/><path d="M95.526225 55.0926L124.18695 33.35655" style="fill:none;stroke:rgba(109,0,145,.24705882);stroke-width:.09525;stroke-miterlimit:41.994751"/><path d="M21.24075 118.32907A.47625 .47625 0 0020.28825 118.32907A.47625 .47625 0 0021.24075 118.32907z" fill="rgba(109,0,145,.24705882)"/><path d="M116.1669 54.892575L95.526225 55.0926" style="fill:none;stroke:rgba(109,0,145,.24705882);stroke-width:.09525;stroke-miterlimit:41.994751"/><path d="M180.54638 187.7187L178.45087 237.99165" style="fill:none;stroke:rgba(109,0,145,.24705882);stroke-width:.09525;stroke-miterlimit:41.994751"/><path d="M95.526225 55.0926L87.753825 55.292625" style="fill:none;stroke:rgba(109,0,145,.24705882);stroke-width:.09525;stroke-miterlimit:41.994751"/><path d="M10.3632 116.70982A.47625 .47625 0 009.4107 116.70982A.47625 .47625 0 0010.3632 116.70982z" fill="rgba(105,0,145,.24705882)"/><path d="M1.00965 186.8424L.523875 238.7727" style="fill:none;stroke:rgba(105,0,145,.24705882);stroke-width:.09525;stroke-miterlimit:41.994751"/><path d="M20.7645 118.32907L20.3073 118.23382" style="fill:none;stroke:rgba(105,0,145,.24705882);stroke-width:.09525;stroke-miterlimit:41.994751"/><path d="M135.68363 238.09642L136.57898 187.4139" style="fill:none;stroke:rgba(105,0,145,.24705882);stroke-width:.09525;stroke-miterlimit:41.994751"/><path d="M178.45087 237.99165L218.86545 238.28692" style="fill:none;stroke:rgba(105,0,145,.24705882);stroke-width:.09525;stroke-miterlimit:41.994751"/><path d="M9.88695 116.70982L20.3073 118.23382" style="fill:none;stroke:rgba(105,0,145,.24705882);stroke-width:.09525;stroke-miterlimit:41.994751"/><path d="M96.002475 55.0926A.47625 .47625 0 0095.049975 55.0926A.47625 .47625 0 0096.002475 55.0926z" fill="rgba(105,0,145,.24705882)"/><path d="M82.296 238.29645A.47625 .47625 0 0081.3435 238.29645A.47625 .47625 0 0082.296 238.29645z" fill="rgba(105,0,149,.24705882)"/><path d="M20.78355 118.23382A.47625 .47625 0 0019.83105 118.23382A.47625 .47625 0 0020.78355 118.23382z" fill="rgba(105,0,149,.24705882)"/><path d="M136.78852 88.915875L142.78928 89.13495" style="fill:none;stroke:rgba(105,0,149,.24705882);stroke-width:.09525;stroke-miterlimit:41.994751"/><path d="M.523875 238.7727L81.81975 238.29645" style="fill:none;stroke:rgba(105,0,149,.24705882);stroke-width:.09525;stroke-miterlimit:41.994751"/><path d="M1.000125 238.7727A.47625 .47625 0 00.047625 238.7727A.47625 .47625 0 001.000125 238.7727z" fill="rgba(105,0,149,.24705882)"/><path d="M202.21575 146.23732A.47625 .47625 0 00201.26325 146.23732A.47625 .47625 0 00202.21575 146.23732z" fill="rgba(105,0,149,.24705882)"/><path d="M81.81975 238.29645L135.68363 238.09642" style="fill:none;stroke:rgba(105,0,149,.24705882);stroke-width:.09525;stroke-miterlimit:41.994751"/><path d="M178.92712 237.99165A.47625 .47625 0 00177.97463 237.99165A.47625 .47625 0 00178.92712 237.99165z" fill="rgba(105,0,149,.24705882)"/><path d="M178.45087 237.99165L135.68363 238.09642" style="fill:none;stroke:rgba(101,0,149,.24705882);stroke-width:.09525;stroke-miterlimit:41.994751"/><path d="M136.15987 238.09643A.47625 .47625 0 00135.20738 238.09643A.47625 .47625 0 00136.15987 238.09643z" fill="rgba(101,0,153,.24705882)"/><path d="M137.26477 88.915875A.47625 .47625 0 00136.31227 88.915875A.47625 .47625 0 00137.26477 88.915875z" fill="rgba(101,0,153,.24705882)"/><path d="M129.68287 88.782525L136.78852 88.915875" style="fill:none;stroke:rgba(97,0,157,.24705882);stroke-width:.09525;stroke-miterlimit:41.994751"/><path d="M72.799575 60.2742L68.29425 56.187975" style="fill:none;stroke:rgba(93,0,157,.24705882);stroke-width:.09525;stroke-miterlimit:41.994751"/><path d="M157.43873 133.58812L157.37205 135.3312" style="fill:none;stroke:rgba(93,0,161,.24705882);stroke-width:.09525;stroke-miterlimit:41.994751"/><path d="M66.2559 80.933925H63.49365" style="fill:none;stroke:rgba(93,0,161,.24705882);stroke-width:.09525;stroke-miterlimit:41.994751"/><path d="M180.0606 173.7741L180.213 175.4505" style="fill:none;stroke:rgba(93,0,161,.24705882);stroke-width:.09525;stroke-miterlimit:41.994751"/><path d="M69.62775 70.3707A.47625 .47625 0 0068.67525 70.3707A.47625 .47625 0 0069.62775 70.3707z" fill="rgba(93,0,161,.24705882)"/><path d="M69.62775 70.5231A.47625 .47625 0 0068.67525 70.5231A.47625 .47625 0 0069.62775 70.5231z" fill="rgba(93,0,161,.24705882)"/><path d="M69.62775 70.7517A.47625 .47625 0 0068.67525 70.7517A.47625 .47625 0 0069.62775 70.7517z" fill="rgba(93,0,161,.24705882)"/><path d="M69.62775 72.037575A.47625 .47625 0 0068.67525 72.037575A.47625 .47625 0 0069.62775 72.037575z" fill="rgba(93,0,161,.24705882)"/><path d="M69.62775 72.037575A.47625 .47625 0 0068.67525 72.037575A.47625 .47625 0 0069.62775 72.037575z" fill="rgba(93,0,161,.24705882)"/><path d="M69.62775 70.799325A.47625 .47625 0 0068.67525 70.799325A.47625 .47625 0 0069.62775 70.799325z" fill="rgba(93,0,161,.24705882)"/><path d="M69.62775 72.037575A.47625 .47625 0 0068.67525 72.037575A.47625 .47625 0 0069.62775 72.037575z" fill="rgba(93,0,161,.24705882)"/><path d="M69.62775 71.961375A.47625 .47625 0 0068.67525 71.961375A.47625 .47625 0 0069.62775 71.961375z" fill="rgba(93,0,161,.24705882)"/><path d="M69.62775 71.999475A.47625 .47625 0 0068.67525 71.999475A.47625 .47625 0 0069.62775 71.999475z" fill="rgba(93,0,161,.24705882)"/><path d="M69.62775 71.8566A.47625 .47625 0 0068.67525 71.8566A.47625 .47625 0 0069.62775 71.8566z" fill="rgba(93,0,161,.24705882)"/><path d="M69.62775 71.7804A.47625 .47625 0 0068.67525 71.7804A.47625 .47625 0 0069.62775 71.7804z" fill="rgba(93,0,161,.24705882)"/><path d="M69.62775 71.628A.47625 .47625 0 0068.67525 71.628A.47625 .47625 0 0069.62775 71.628z" fill="rgba(93,0,161,.24705882)"/><path d="M69.62775 71.628A.47625 .47625 0 0068.67525 71.628A.47625 .47625 0 0069.62775 71.628z" fill="rgba(93,0,161,.24705882)"/><path d="M69.62775 70.84695A.47625 .47625 0 0068.67525 70.84695A.47625 .47625 0 0069.62775 70.84695z" fill="rgba(93,0,161,.24705882)"/><path d="M69.62775 70.92315A.47625 .47625 0 0068.67525 70.92315A.47625 .47625 0 0069.62775 70.92315z" fill="rgba(93,0,161,.24705882)"/><path d="M120.777 66.951225L124.40602 66.7893" style="fill:none;stroke:rgba(89,0,161,.24705882);stroke-width:.09525;stroke-miterlimit:41.994751"/><path d="M130.15912 88.782525A.47625 .47625 0 00129.20663 88.782525A.47625 .47625 0 00130.15912 88.782525z" fill="rgba(89,0,161,.24705882)"/><path d="M120.777 79.543275L124.48223 79.7052" style="fill:none;stroke:rgba(89,0,165,.24705882);stroke-width:.09525;stroke-miterlimit:41.994751"/><path d="M123.53925 166.63035L127.2159 163.9062" style="fill:none;stroke:rgba(89,0,165,.24705882);stroke-width:.09525;stroke-miterlimit:41.994751"/><path d="M123.57735 136.98855L129.1209 137.33145" style="fill:none;stroke:rgba(89,0,165,.24705882);stroke-width:.09525;stroke-miterlimit:41.994751"/><path d="M66.360675 112.8141L63.293625 113.78565" style="fill:none;stroke:rgba(89,0,165,.24705882);stroke-width:.09525;stroke-miterlimit:41.994751"/><path d="M188.4807 158.85795L191.50012 159.21037" style="fill:none;stroke:rgba(89,0,165,.24705882);stroke-width:.09525;stroke-miterlimit:41.994751"/><path d="M123.444 151.59037L128.73038 150.39022" style="fill:none;stroke:rgba(89,0,165,.24705882);stroke-width:.09525;stroke-miterlimit:41.994751"/><path d="M139.00785 101.06977L138.88403 97.469325" style="fill:none;stroke:rgba(89,0,165,.24705882);stroke-width:.09525;stroke-miterlimit:41.994751"/><path d="M187.72823 111.39487L191.97638 111.31867" style="fill:none;stroke:rgba(89,0,165,.24705882);stroke-width:.09525;stroke-miterlimit:41.994751"/><path d="M150.9903 101.06025L151.01888 97.4217" style="fill:none;stroke:rgba(89,0,165,.24705882);stroke-width:.09525;stroke-miterlimit:41.994751"/><path d="M162.9918 101.06025L163.1442 97.7646" style="fill:none;stroke:rgba(89,0,165,.24705882);stroke-width:.09525;stroke-miterlimit:41.994751"/><path d="M187.73775 146.19923L191.55728 146.04682" style="fill:none;stroke:rgba(89,0,165,.24705882);stroke-width:.09525;stroke-miterlimit:41.994751"/><path d="M66.35115 97.6884L63.827025 97.63125" style="fill:none;stroke:rgba(89,0,165,.24705882);stroke-width:.09525;stroke-miterlimit:41.994751"/><path d="M187.72823 127.61595L191.89065 127.66357" style="fill:none;stroke:rgba(89,0,165,.24705882);stroke-width:.09525;stroke-miterlimit:41.994751"/><path d="M168.7068 133.75005L169.26878 138.17917" style="fill:none;stroke:rgba(89,0,165,.24705882);stroke-width:.09525;stroke-miterlimit:41.994751"/><path d="M131.7879 137.37908L131.22593 133.75957" style="fill:none;stroke:rgba(89,0,165,.24705882);stroke-width:.09525;stroke-miterlimit:41.994751"/><path d="M150.43785 133.4643L150.7998 138.76972" style="fill:none;stroke:rgba(89,0,165,.24705882);stroke-width:.09525;stroke-miterlimit:41.994751"/><path d="M116.26215 58.150125L116.1669 54.892575" style="fill:none;stroke:rgba(89,0,165,.24705882);stroke-width:.09525;stroke-miterlimit:41.994751"/><path d="M87.753825 58.245375V55.292625" style="fill:none;stroke:rgba(89,0,165,.24705882);stroke-width:.09525;stroke-miterlimit:41.994751"/><path d="M95.526225 55.0926L95.5548 58.2549" style="fill:none;stroke:rgba(89,0,165,.24705882);stroke-width:.09525;stroke-miterlimit:41.994751"/><path d="M120.45315 88.877775L129.68287 88.782525" style="fill:none;stroke:rgba(85,0,170,.24705882);stroke-width:.09525;stroke-miterlimit:41.994751"/><path d="M95.926275 58.302525A.47625 .47625 0 0094.973775 58.302525A.47625 .47625 0 0095.926275 58.302525z" fill="rgba(76,0,178,.24705882)"/><path d="M151.50465 101.12692A.47625 .47625 0 00150.55215 101.12692A.47625 .47625 0 00151.50465 101.12692z" fill="rgba(76,0,178,.24705882)"/><path d="M179.61293 101.1555A.47625 .47625 0 00178.66043 101.1555A.47625 .47625 0 00179.61293 101.1555z" fill="rgba(76,0,178,.24705882)"/><path d="M121.10085 79.600425A.47625 .47625 0 00120.14835 79.600425A.47625 .47625 0 00121.10085 79.600425z" fill="rgba(76,0,178,.24705882)"/><path d="M130.25438 133.3881A.47625 .47625 0 00129.30188 133.3881A.47625 .47625 0 00130.25438 133.3881z" fill="rgba(76,0,178,.24705882)"/><path d="M66.84645 112.82362A.47625 .47625 0 0065.89395 112.82362A.47625 .47625 0 0066.84645 112.82362z" fill="rgba(76,0,178,.24705882)"/><path d="M158.13405 119.0625H166.85895V102.0699H158.13405z" style="fill:rgba(76,0,178,.24705882);stroke:rgba(76,0,178,.24705882);stroke-width:.09525;stroke-miterlimit:41.994751"/><path d="M162.85845 111.31867A.47625 .47625 0 00161.90595 111.31867A.47625 .47625 0 00162.85845 111.31867z" fill="rgba(76,0,178,.24705882)"/><path d="M78.1812 170.8785H123.94882V161.49637H78.1812z" style="fill:rgba(76,0,178,.24705882);stroke:rgba(76,0,178,.24705882);stroke-width:.09525;stroke-miterlimit:41.994751"/><path d="M117.03368 166.48747A.47625 .47625 0 00116.08118 166.48747A.47625 .47625 0 00117.03368 166.48747z" fill="rgba(76,0,178,.24705882)"/><path d="M72.1614 97.107375A.47625 .47625 0 0071.2089 97.107375A.47625 .47625 0 0072.1614 97.107375z" fill="rgba(76,0,178,.24705882)"/><path d="M115.91925 97.3074A.47625 .47625 0 00114.96675 97.3074A.47625 .47625 0 00115.91925 97.3074z" fill="rgba(76,0,178,.24705882)"/><path d="M72.037575 81.086325A.47625 .47625 0 0071.085075 81.086325A.47625 .47625 0 0072.037575 81.086325z" fill="rgba(76,0,178,.24705882)"/><path d="M73.275825 60.2742A.47625 .47625 0 0072.323325 60.2742A.47625 .47625 0 0073.275825 60.2742z" fill="rgba(76,0,178,.24705882)"/><path d="M166.82085 119.0625H187.96635V101.31743H166.82085z" style="fill:rgba(76,0,178,.24705882);stroke:rgba(76,0,178,.24705882);stroke-width:.09525;stroke-miterlimit:41.994751"/><path d="M180.49875 111.3282A.47625 .47625 0 00179.54625 111.3282A.47625 .47625 0 00180.49875 111.3282z" fill="rgba(76,0,178,.24705882)"/><path d="M109.26127 119.0625H121.21515V101.05072H109.26127z" style="fill:rgba(76,0,178,.24705882);stroke:rgba(76,0,178,.24705882);stroke-width:.09525;stroke-miterlimit:41.994751"/><path d="M114.99532 111.7854A.47625 .47625 0 00114.04282 111.7854A.47625 .47625 0 00114.99532 111.7854z" fill="rgba(76,0,178,.24705882)"/><path d="M108.89933 161.544H123.87263V145.28482H108.89933z" style="fill:rgba(76,0,178,.24705882);stroke:rgba(76,0,178,.24705882);stroke-width:.09525;stroke-miterlimit:41.994751"/><path d="M116.64315 152.12377A.47625 .47625 0 00115.69065 152.12377A.47625 .47625 0 00116.64315 152.12377z" fill="rgba(76,0,178,.24705882)"/><path d="M169.7355 133.20712A.47625 .47625 0 00168.783 133.20712A.47625 .47625 0 00169.7355 133.20712z" fill="rgba(76,0,178,.24705882)"/><path d="M92.763975 97.621725A.47625 .47625 0 0091.811475 97.621725A.47625 .47625 0 0092.763975 97.621725z" fill="rgba(76,0,178,.24705882)"/><path d="M175.8315 165.6207H187.7949V155.34323H175.8315z" style="fill:rgba(76,0,178,.24705882);stroke:rgba(76,0,178,.24705882);stroke-width:.09525;stroke-miterlimit:41.994751"/><path d="M180.23205 158.6865A.47625 .47625 0 00179.27955 158.6865A.47625 .47625 0 00180.23205 158.6865z" fill="rgba(76,0,178,.24705882)"/><path d="M175.8315 173.63122H187.93777V165.5826H175.8315z" style="fill:rgba(76,0,178,.24705882);stroke:rgba(76,0,178,.24705882);stroke-width:.09525;stroke-miterlimit:41.994751"/><path d="M180.35587 168.49725A.47625 .47625 0 00179.40338 168.49725A.47625 .47625 0 00180.35587 168.49725z" fill="rgba(76,0,178,.24705882)"/><path d="M66.73215 80.933925A.47625 .47625 0 0065.77965 80.933925A.47625 .47625 0 0066.73215 80.933925z" fill="rgba(76,0,178,.24705882)"/><path d="M180.53685 173.7741A.47625 .47625 0 00179.58435 173.7741A.47625 .47625 0 00180.53685 173.7741z" fill="rgba(76,0,178,.24705882)"/><path d="M77.047725 119.0625H109.28032V106.89907H77.047725z" style="fill:rgba(76,0,178,.24705882);stroke:rgba(76,0,178,.24705882);stroke-width:.09525;stroke-miterlimit:41.994751"/><path d="M93.24975 112.67122A.47625 .47625 0 0092.29725 112.67122A.47625 .47625 0 0093.24975 112.67122z" fill="rgba(76,0,178,.24705882)"/><path d="M120.9294 88.877775A.47625 .47625 0 00119.9769 88.877775A.47625 .47625 0 00120.9294 88.877775z" fill="rgba(76,0,178,.24705882)"/><path d="M115.7859 88.706325A.47625 .47625 0 00114.8334 88.706325A.47625 .47625 0 00115.7859 88.706325z" fill="rgba(76,0,178,.24705882)"/><path d="M121.28182 67.008375A.47625 .47625 0 00120.32933 67.008375A.47625 .47625 0 00121.28182 67.008375z" fill="rgba(76,0,178,.24705882)"/><path d="M116.04307 81.391125A.47625 .47625 0 00115.09058 81.391125A.47625 .47625 0 00116.04307 81.391125z" fill="rgba(76,0,178,.24705882)"/><path d="M66.8655 97.74555A.47625 .47625 0 0065.913 97.74555A.47625 .47625 0 0066.8655 97.74555z" fill="rgba(76,0,178,.24705882)"/><path d="M139.446 101.12692A.47625 .47625 0 00138.4935 101.12692A.47625 .47625 0 00139.446 101.12692z" fill="rgba(76,0,178,.24705882)"/><path d="M95.126175 66.7131A.47625 .47625 0 0094.173675 66.7131A.47625 .47625 0 0095.126175 66.7131z" fill="rgba(76,0,178,.24705882)"/><path d="M94.421325 81.4959A.47625 .47625 0 0093.468825 81.4959A.47625 .47625 0 0094.421325 81.4959z" fill="rgba(76,0,178,.24705882)"/><path d="M163.50615 101.1174A.47625 .47625 0 00162.55365 101.1174A.47625 .47625 0 00163.50615 101.1174z" fill="rgba(76,0,178,.24705882)"/><path d="M88.191975 58.35015A.47625 .47625 0 0087.239475 58.35015A.47625 .47625 0 0088.191975 58.35015z" fill="rgba(76,0,178,.24705882)"/><path d="M127.0635 122.08192H133.1595V119.04345H127.0635z" style="fill:rgba(76,0,178,.24705882);stroke:rgba(76,0,178,.24705882);stroke-width:.09525;stroke-miterlimit:41.994751"/><path d="M130.66395 120.7389A.47625 .47625 0 00129.71145 120.7389A.47625 .47625 0 00130.66395 120.7389z" fill="rgba(76,0,178,.24705882)"/><path d="M154.82888 134.04532H164.45865V122.1105H154.82888z" style="fill:rgba(76,0,178,.24705882);stroke:rgba(76,0,178,.24705882);stroke-width:.09525;stroke-miterlimit:41.994751"/><path d="M157.79115 127.39687A.47625 .47625 0 00156.83865 127.39687A.47625 .47625 0 00157.79115 127.39687z" fill="rgba(76,0,178,.24705882)"/><path d="M69.1515 131.445H108.65168V122.1105H69.1515z" style="fill:rgba(76,0,178,.24705882);stroke:rgba(76,0,178,.24705882);stroke-width:.09525;stroke-miterlimit:41.994751"/><path d="M73.885425 126.50152A.47625 .47625 0 0072.932925 126.50152A.47625 .47625 0 0073.885425 126.50152z" fill="rgba(76,0,178,.24705882)"/><path d="M69.1515 170.8785H78.2193V131.39737H69.1515z" style="fill:rgba(76,0,178,.24705882);stroke:rgba(76,0,178,.24705882);stroke-width:.09525;stroke-miterlimit:41.994751"/><path d="M74.742675 166.2303A.47625 .47625 0 0073.790175 166.2303A.47625 .47625 0 0074.742675 166.2303z" fill="rgba(76,0,178,.24705882)"/><path d="M188.35688 111.37582A.47625 .47625 0 00187.40438 111.37582A.47625 .47625 0 00188.35688 111.37582z" fill="rgba(76,0,178,.24705882)"/><path d="M123.83452 166.46842A.47625 .47625 0 00122.88202 166.46842A.47625 .47625 0 00123.83452 166.46842z" fill="rgba(76,0,178,.24705882)"/><path d="M87.791925 66.132075A.47625 .47625 0 0086.839425 66.132075A.47625 .47625 0 0087.791925 66.132075z" fill="rgba(76,0,178,.24705882)"/><path d="M123.70118 137.56957A.47625 .47625 0 00122.74868 137.56957A.47625 .47625 0 00123.70118 137.56957z" fill="rgba(76,0,178,.24705882)"/><path d="M108.8898 145.33245H123.92977V134.36918H108.8898z" style="fill:rgba(76,0,178,.24705882);stroke:rgba(76,0,178,.24705882);stroke-width:.09525;stroke-miterlimit:41.994751"/><path d="M116.59552 137.72197A.47625 .47625 0 00115.64302 137.72197A.47625 .47625 0 00116.59552 137.72197z" fill="rgba(76,0,178,.24705882)"/><path d="M108.71835 134.35965H123.92977V122.1105H108.71835z" style="fill:rgba(76,0,178,.24705882);stroke:rgba(76,0,178,.24705882);stroke-width:.09525;stroke-miterlimit:41.994751"/><path d="M116.13833 127.38735A.47625 .47625 0 00115.18583 127.38735A.47625 .47625 0 00116.13833 127.38735z" fill="rgba(76,0,178,.24705882)"/><path d="M77.943075 65.560575A.47625 .47625 0 0076.990575 65.560575A.47625 .47625 0 0077.943075 65.560575z" fill="rgba(76,0,178,.24705882)"/><path d="M121.1961 119.0625H133.40715V100.86023H121.1961z" style="fill:rgba(76,0,178,.24705882);stroke:rgba(76,0,178,.24705882);stroke-width:.09525;stroke-miterlimit:41.994751"/><path d="M131.12115 111.43297A.47625 .47625 0 00130.16865 111.43297A.47625 .47625 0 00131.12115 111.43297z" fill="rgba(76,0,178,.24705882)"/><path d="M151.13317 133.28332A.47625 .47625 0 00150.18068 133.28332A.47625 .47625 0 00151.13317 133.28332z" fill="rgba(76,0,178,.24705882)"/><path d="M164.37293 133.25475H172.7835V122.1105H164.37293z" style="fill:rgba(76,0,178,.24705882);stroke:rgba(76,0,178,.24705882);stroke-width:.09525;stroke-miterlimit:41.994751"/><path d="M169.64025 127.07302A.47625 .47625 0 00168.68775 127.07302A.47625 .47625 0 00169.64025 127.07302z" fill="rgba(76,0,178,.24705882)"/><path d="M175.61243 155.38133H187.8711V143.01788H175.61243z" style="fill:rgba(76,0,178,.24705882);stroke:rgba(76,0,178,.24705882);stroke-width:.09525;stroke-miterlimit:41.994751"/><path d="M180.33683 145.86585A.47625 .47625 0 00179.38433 145.86585A.47625 .47625 0 00180.33683 145.86585z" fill="rgba(76,0,178,.24705882)"/><path d="M144.8943 134.14057H154.8003V122.1105H144.8943z" style="fill:rgba(76,0,178,.24705882);stroke:rgba(76,0,178,.24705882);stroke-width:.09525;stroke-miterlimit:41.994751"/><path d="M151.45702 127.24448A.47625 .47625 0 00150.50453 127.24448A.47625 .47625 0 00151.45702 127.24448z" fill="rgba(76,0,178,.24705882)"/><path d="M66.2559 119.0625H77.01915V107.18482H66.2559z" style="fill:rgba(76,0,178,.24705882);stroke:rgba(76,0,178,.24705882);stroke-width:.09525;stroke-miterlimit:41.994751"/><path d="M72.0852 112.67122A.47625 .47625 0 0071.1327 112.67122A.47625 .47625 0 0072.0852 112.67122z" fill="rgba(76,0,178,.24705882)"/><path d="M146.7612 119.0625H158.0769V101.86988H146.7612z" style="fill:rgba(76,0,178,.24705882);stroke:rgba(76,0,178,.24705882);stroke-width:.09525;stroke-miterlimit:41.994751"/><path d="M151.50465 111.28057A.47625 .47625 0 00150.55215 111.28057A.47625 .47625 0 00151.50465 111.28057z" fill="rgba(76,0,178,.24705882)"/><path d="M116.18595 66.894075A.47625 .47625 0 00115.23345 66.894075A.47625 .47625 0 00116.18595 66.894075z" fill="rgba(76,0,178,.24705882)"/><path d="M188.2902 127.5588A.47625 .47625 0 00187.3377 127.5588A.47625 .47625 0 00188.2902 127.5588z" fill="rgba(76,0,178,.24705882)"/><path d="M133.3119 119.0625H146.7993V101.63175H133.3119z" style="fill:rgba(76,0,178,.24705882);stroke:rgba(76,0,178,.24705882);stroke-width:.09525;stroke-miterlimit:41.994751"/><path d="M138.80783 111.29962A.47625 .47625 0 00137.85533 111.29962A.47625 .47625 0 00138.80783 111.29962z" fill="rgba(76,0,178,.24705882)"/><path d="M175.8315 143.0274H187.85205V119.07202H175.8315z" style="fill:rgba(76,0,178,.24705882);stroke:rgba(76,0,178,.24705882);stroke-width:.09525;stroke-miterlimit:41.994751"/><path d="M180.5559 127.37782A.47625 .47625 0 00179.6034 127.37782A.47625 .47625 0 00180.5559 127.37782z" fill="rgba(76,0,178,.24705882)"/><path d="M124.08218 133.97865H144.8943V122.1105H124.08218z" style="fill:rgba(76,0,178,.24705882);stroke:rgba(76,0,178,.24705882);stroke-width:.09525;stroke-miterlimit:41.994751"/><path d="M131.03543 127.35877A.47625 .47625 0 00130.08293 127.35877A.47625 .47625 0 00131.03543 127.35877z" fill="rgba(76,0,178,.24705882)"/><path d="M116.64315 58.50255A.47625 .47625 0 00115.69065 58.50255A.47625 .47625 0 00116.64315 58.50255z" fill="rgba(76,0,178,.24705882)"/><path d="M123.18682 151.81898A.47625 .47625 0 00122.23433 151.81898A.47625 .47625 0 00123.18682 151.81898z" fill="rgba(76,0,178,.24705882)"/><path d="M157.91497 133.58812A.47625 .47625 0 00156.96248 133.58812A.47625 .47625 0 00157.91497 133.58812z" fill="rgba(76,0,178,.24705882)"/><path d="M138.33158 111.29962L138.96975 101.12692" style="fill:none;stroke:rgba(76,0,178,.24705882);stroke-width:.09525;stroke-miterlimit:41.994751"/><path d="M92.287725 97.621725L71.68515 97.107375" style="fill:none;stroke:rgba(76,0,178,.24705882);stroke-width:.09525;stroke-miterlimit:41.994751"/><path d="M157.43873 133.58812L157.3149 127.39687" style="fill:none;stroke:rgba(76,0,178,.24705882);stroke-width:.09525;stroke-miterlimit:41.994751"/><path d="M157.3149 127.39687L150.98077 127.24448" style="fill:none;stroke:rgba(76,0,178,.24705882);stroke-width:.09525;stroke-miterlimit:41.994751"/><path d="M180.07965 127.37782L187.81395 127.5588" style="fill:none;stroke:rgba(76,0,178,.24705882);stroke-width:.09525;stroke-miterlimit:41.994751"/><path d="M157.3149 127.39687L169.164 127.07302" style="fill:none;stroke:rgba(76,0,178,.24705882);stroke-width:.09525;stroke-miterlimit:41.994751"/><path d="M179.7558 158.6865L179.86058 145.86585" style="fill:none;stroke:rgba(76,0,178,.24705882);stroke-width:.09525;stroke-miterlimit:41.994751"/><path d="M150.98077 127.24448L150.65693 133.28332" style="fill:none;stroke:rgba(76,0,178,.24705882);stroke-width:.09525;stroke-miterlimit:41.994751"/><path d="M130.55918 127.35877L130.1877 120.7389" style="fill:none;stroke:rgba(76,0,178,.24705882);stroke-width:.09525;stroke-miterlimit:41.994751"/><path d="M150.98077 127.24448L130.55918 127.35877" style="fill:none;stroke:rgba(76,0,178,.24705882);stroke-width:.09525;stroke-miterlimit:41.994751"/><path d="M169.164 127.07302L169.25925 133.20712" style="fill:none;stroke:rgba(76,0,178,.24705882);stroke-width:.09525;stroke-miterlimit:41.994751"/><path d="M180.07965 127.37782L180.0225 111.3282" style="fill:none;stroke:rgba(76,0,178,.24705882);stroke-width:.09525;stroke-miterlimit:41.994751"/><path d="M130.55918 127.35877L129.77813 133.3881" style="fill:none;stroke:rgba(76,0,178,.24705882);stroke-width:.09525;stroke-miterlimit:41.994751"/><path d="M114.51907 111.7854L92.7735 112.67122" style="fill:none;stroke:rgba(76,0,178,.24705882);stroke-width:.09525;stroke-miterlimit:41.994751"/><path d="M130.6449 111.43297L114.51907 111.7854" style="fill:none;stroke:rgba(76,0,178,.24705882);stroke-width:.09525;stroke-miterlimit:41.994751"/><path d="M114.51907 111.7854L115.443 97.3074" style="fill:none;stroke:rgba(76,0,178,.24705882);stroke-width:.09525;stroke-miterlimit:41.994751"/><path d="M180.0225 111.3282L187.88063 111.37582" style="fill:none;stroke:rgba(76,0,178,.24705882);stroke-width:.09525;stroke-miterlimit:41.994751"/><path d="M130.1877 120.7389L130.6449 111.43297" style="fill:none;stroke:rgba(76,0,178,.24705882);stroke-width:.09525;stroke-miterlimit:41.994751"/><path d="M115.66208 127.38735L130.55918 127.35877" style="fill:none;stroke:rgba(76,0,178,.24705882);stroke-width:.09525;stroke-miterlimit:41.994751"/><path d="M115.66208 127.38735L73.409175 126.50152" style="fill:none;stroke:rgba(76,0,178,.24705882);stroke-width:.09525;stroke-miterlimit:41.994751"/><path d="M180.0225 111.3282L179.13668 101.1555" style="fill:none;stroke:rgba(76,0,178,.24705882);stroke-width:.09525;stroke-miterlimit:41.994751"/><path d="M116.11927 137.72197L115.66208 127.38735" style="fill:none;stroke:rgba(76,0,178,.24705882);stroke-width:.09525;stroke-miterlimit:41.994751"/><path d="M116.11927 137.72197L123.22493 137.56957" style="fill:none;stroke:rgba(76,0,178,.24705882);stroke-width:.09525;stroke-miterlimit:41.994751"/><path d="M162.3822 111.31867L180.0225 111.3282" style="fill:none;stroke:rgba(76,0,178,.24705882);stroke-width:.09525;stroke-miterlimit:41.994751"/><path d="M151.0284 111.28057L138.33158 111.29962" style="fill:none;stroke:rgba(76,0,178,.24705882);stroke-width:.09525;stroke-miterlimit:41.994751"/><path d="M92.287725 97.621725L115.443 97.3074" style="fill:none;stroke:rgba(76,0,178,.24705882);stroke-width:.09525;stroke-miterlimit:41.994751"/><path d="M115.7097 66.894075L115.56682 81.391125" style="fill:none;stroke:rgba(76,0,178,.24705882);stroke-width:.09525;stroke-miterlimit:41.994751"/><path d="M71.561325 81.086325L77.466825 65.560575" style="fill:none;stroke:rgba(76,0,178,.24705882);stroke-width:.09525;stroke-miterlimit:41.994751"/><path d="M87.315675 66.132075L77.466825 65.560575" style="fill:none;stroke:rgba(76,0,178,.24705882);stroke-width:.09525;stroke-miterlimit:41.994751"/><path d="M115.7097 66.894075L120.80558 67.008375" style="fill:none;stroke:rgba(76,0,178,.24705882);stroke-width:.09525;stroke-miterlimit:41.994751"/><path d="M162.3822 111.31867L151.0284 111.28057" style="fill:none;stroke:rgba(76,0,178,.24705882);stroke-width:.09525;stroke-miterlimit:41.994751"/><path d="M71.561325 81.086325L71.68515 97.107375" style="fill:none;stroke:rgba(76,0,178,.24705882);stroke-width:.09525;stroke-miterlimit:41.994751"/><path d="M93.945075 81.4959L115.56682 81.391125" style="fill:none;stroke:rgba(76,0,178,.24705882);stroke-width:.09525;stroke-miterlimit:41.994751"/><path d="M73.409175 126.50152L74.266425 166.2303" style="fill:none;stroke:rgba(76,0,178,.24705882);stroke-width:.09525;stroke-miterlimit:41.994751"/><path d="M93.945075 81.4959L94.649925 66.7131" style="fill:none;stroke:rgba(76,0,178,.24705882);stroke-width:.09525;stroke-miterlimit:41.994751"/><path d="M71.68515 97.107375L66.38925 97.74555" style="fill:none;stroke:rgba(76,0,178,.24705882);stroke-width:.09525;stroke-miterlimit:41.994751"/><path d="M116.55743 166.48747L116.1669 152.12377" style="fill:none;stroke:rgba(76,0,178,.24705882);stroke-width:.09525;stroke-miterlimit:41.994751"/><path d="M115.7097 66.894075L94.649925 66.7131" style="fill:none;stroke:rgba(76,0,178,.24705882);stroke-width:.09525;stroke-miterlimit:41.994751"/><path d="M92.7735 112.67122L92.287725 97.621725" style="fill:none;stroke:rgba(76,0,178,.24705882);stroke-width:.09525;stroke-miterlimit:41.994751"/><path d="M71.561325 81.086325L66.2559 80.933925" style="fill:none;stroke:rgba(76,0,178,.24705882);stroke-width:.09525;stroke-miterlimit:41.994751"/><path d="M179.87963 168.49725L180.0606 173.7741" style="fill:none;stroke:rgba(76,0,178,.24705882);stroke-width:.09525;stroke-miterlimit:41.994751"/><path d="M71.561325 81.086325L93.945075 81.4959" style="fill:none;stroke:rgba(76,0,178,.24705882);stroke-width:.09525;stroke-miterlimit:41.994751"/><path d="M162.3822 111.31867L163.0299 101.1174" style="fill:none;stroke:rgba(76,0,178,.24705882);stroke-width:.09525;stroke-miterlimit:41.994751"/><path d="M92.7735 112.67122H71.60895" style="fill:none;stroke:rgba(76,0,178,.24705882);stroke-width:.09525;stroke-miterlimit:41.994751"/><path d="M92.287725 97.621725L93.945075 81.4959" style="fill:none;stroke:rgba(76,0,178,.24705882);stroke-width:.09525;stroke-miterlimit:41.994751"/><path d="M138.33158 111.29962L130.6449 111.43297" style="fill:none;stroke:rgba(76,0,178,.24705882);stroke-width:.09525;stroke-miterlimit:41.994751"/><path d="M115.30965 88.706325L120.45315 88.877775" style="fill:none;stroke:rgba(76,0,178,.24705882);stroke-width:.09525;stroke-miterlimit:41.994751"/><path d="M115.30965 88.706325L115.443 97.3074" style="fill:none;stroke:rgba(76,0,178,.24705882);stroke-width:.09525;stroke-miterlimit:41.994751"/><path d="M115.56682 81.391125L115.30965 88.706325" style="fill:none;stroke:rgba(76,0,178,.24705882);stroke-width:.09525;stroke-miterlimit:41.994751"/><path d="M115.56682 81.391125L120.6246 79.600425" style="fill:none;stroke:rgba(76,0,178,.24705882);stroke-width:.09525;stroke-miterlimit:41.994751"/><path d="M179.87963 168.49725L179.7558 158.6865" style="fill:none;stroke:rgba(76,0,178,.24705882);stroke-width:.09525;stroke-miterlimit:41.994751"/><path d="M71.60895 112.67122L66.3702 112.82362" style="fill:none;stroke:rgba(76,0,178,.24705882);stroke-width:.09525;stroke-miterlimit:41.994751"/><path d="M116.55743 166.48747L123.35827 166.46842" style="fill:none;stroke:rgba(76,0,178,.24705882);stroke-width:.09525;stroke-miterlimit:41.994751"/><path d="M94.649925 66.7131L95.450025 58.302525" style="fill:none;stroke:rgba(76,0,178,.24705882);stroke-width:.09525;stroke-miterlimit:41.994751"/><path d="M116.1669 152.12377L116.11927 137.72197" style="fill:none;stroke:rgba(76,0,178,.24705882);stroke-width:.09525;stroke-miterlimit:41.994751"/><path d="M151.0284 111.28057V101.12692" style="fill:none;stroke:rgba(76,0,178,.24705882);stroke-width:.09525;stroke-miterlimit:41.994751"/><path d="M116.1669 152.12377L122.71058 151.81898" style="fill:none;stroke:rgba(76,0,178,.24705882);stroke-width:.09525;stroke-miterlimit:41.994751"/><path d="M179.86058 145.86585L180.07965 127.37782" style="fill:none;stroke:rgba(76,0,178,.24705882);stroke-width:.09525;stroke-miterlimit:41.994751"/><path d="M87.715725 58.35015L87.315675 66.132075" style="fill:none;stroke:rgba(76,0,178,.24705882);stroke-width:.09525;stroke-miterlimit:41.994751"/><path d="M87.315675 66.132075L94.649925 66.7131" style="fill:none;stroke:rgba(76,0,178,.24705882);stroke-width:.09525;stroke-miterlimit:41.994751"/><path d="M116.55743 166.48747L74.266425 166.2303" style="fill:none;stroke:rgba(76,0,178,.24705882);stroke-width:.09525;stroke-miterlimit:41.994751"/><path d="M179.86058 145.86585L187.74728 146.1897" style="fill:none;stroke:rgba(76,0,178,.24705882);stroke-width:.09525;stroke-miterlimit:41.994751"/><path d="M188.22352 146.1897A.47625 .47625 0 00187.27103 146.1897A.47625 .47625 0 00188.22352 146.1897z" fill="rgba(76,0,178,.24705882)"/><path d="M179.7558 158.6865L187.82348 158.77222" style="fill:none;stroke:rgba(76,0,178,.24705882);stroke-width:.09525;stroke-miterlimit:41.994751"/><path d="M188.29973 158.77222A.47625 .47625 0 00187.34723 158.77222A.47625 .47625 0 00188.29973 158.77222z" fill="rgba(76,0,178,.24705882)"/><path d="M120.6246 79.600425L120.777 79.543275" style="fill:none;stroke:rgba(72,0,182,.24705882);stroke-width:.09525;stroke-miterlimit:41.994751"/><path d="M66.3702 112.82362L66.360675 112.8141" style="fill:none;stroke:rgba(72,0,182,.24705882);stroke-width:.09525;stroke-miterlimit:41.994751"/><path d="M123.35827 166.46842L123.53925 166.63035" style="fill:none;stroke:rgba(72,0,182,.24705882);stroke-width:.09525;stroke-miterlimit:41.994751"/><path d="M123.22493 137.56957L123.57735 136.98855" style="fill:none;stroke:rgba(72,0,182,.24705882);stroke-width:.09525;stroke-miterlimit:41.994751"/><path d="M120.80558 67.008375L120.777 66.951225" style="fill:none;stroke:rgba(72,0,182,.24705882);stroke-width:.09525;stroke-miterlimit:41.994751"/><path d="M122.71058 151.81898L123.444 151.59037" style="fill:none;stroke:rgba(72,0,182,.24705882);stroke-width:.09525;stroke-miterlimit:41.994751"/><path d="M138.96975 101.12692L139.00785 101.06977" style="fill:none;stroke:rgba(72,0,182,.24705882);stroke-width:.09525;stroke-miterlimit:41.994751"/><path d="M87.715725 58.35015L87.753825 58.245375" style="fill:none;stroke:rgba(72,0,182,.24705882);stroke-width:.09525;stroke-miterlimit:41.994751"/><path d="M187.88063 111.37582L187.72823 111.39487" style="fill:none;stroke:rgba(72,0,182,.24705882);stroke-width:.09525;stroke-miterlimit:41.994751"/><path d="M151.0284 101.12692L150.9903 101.06025" style="fill:none;stroke:rgba(72,0,182,.24705882);stroke-width:.09525;stroke-miterlimit:41.994751"/><path d="M163.0299 101.1174L162.9918 101.06025" style="fill:none;stroke:rgba(72,0,182,.24705882);stroke-width:.09525;stroke-miterlimit:41.994751"/><path d="M95.5548 58.2549L95.450025 58.302525" style="fill:none;stroke:rgba(72,0,182,.24705882);stroke-width:.09525;stroke-miterlimit:41.994751"/><path d="M66.38925 97.74555L66.35115 97.6884" style="fill:none;stroke:rgba(72,0,182,.24705882);stroke-width:.09525;stroke-miterlimit:41.994751"/><path d="M187.81395 127.5588L187.72823 127.61595" style="fill:none;stroke:rgba(72,0,182,.24705882);stroke-width:.09525;stroke-miterlimit:41.994751"/><path d="M116.1669 58.50255L116.26215 58.150125" style="fill:none;stroke:rgba(72,0,182,.24705882);stroke-width:.09525;stroke-miterlimit:41.994751"/><path d="M169.25925 133.20712L168.7068 133.75005" style="fill:none;stroke:rgba(72,0,182,.24705882);stroke-width:.09525;stroke-miterlimit:41.994751"/><path d="M129.77813 133.3881L131.22593 133.75957" style="fill:none;stroke:rgba(72,0,182,.24705882);stroke-width:.09525;stroke-miterlimit:41.994751"/><path d="M150.65693 133.28332L150.43785 133.4643" style="fill:none;stroke:rgba(72,0,182,.24705882);stroke-width:.09525;stroke-miterlimit:41.994751"/><path d="M187.74728 146.1897L187.73775 146.19923" style="fill:none;stroke:rgba(72,0,182,.24705882);stroke-width:.09525;stroke-miterlimit:41.994751"/><path d="M187.82348 158.77222L188.4807 158.85795" style="fill:none;stroke:rgba(72,0,182,.24705882);stroke-width:.09525;stroke-miterlimit:41.994751"/><path d="M121.25325 79.543275A.47625 .47625 0 00120.30075 79.543275A.47625 .47625 0 00121.25325 79.543275z" fill="rgba(68,0,186,.24705882)"/><path d="M124.0536 136.98855A.47625 .47625 0 00123.1011 136.98855A.47625 .47625 0 00124.0536 136.98855z" fill="rgba(68,0,186,.24705882)"/><path d="M124.0155 166.63035A.47625 .47625 0 00123.063 166.63035A.47625 .47625 0 00124.0155 166.63035z" fill="rgba(68,0,186,.24705882)"/><path d="M66.836925 112.8141A.47625 .47625 0 0065.884425 112.8141A.47625 .47625 0 0066.836925 112.8141z" fill="rgba(68,0,186,.24705882)"/><path d="M188.95695 158.85795A.47625 .47625 0 00188.00445 158.85795A.47625 .47625 0 00188.95695 158.85795z" fill="rgba(68,0,186,.24705882)"/><path d="M121.25325 66.951225A.47625 .47625 0 00120.30075 66.951225A.47625 .47625 0 00121.25325 66.951225z" fill="rgba(68,0,186,.24705882)"/><path d="M139.4841 101.06977A.47625 .47625 0 00138.5316 101.06977A.47625 .47625 0 00139.4841 101.06977z" fill="rgba(68,0,186,.24705882)"/><path d="M123.92025 151.59037A.47625 .47625 0 00122.96775 151.59037A.47625 .47625 0 00123.92025 151.59037z" fill="rgba(68,0,186,.24705882)"/><path d="M88.230075 58.245375A.47625 .47625 0 0087.277575 58.245375A.47625 .47625 0 0088.230075 58.245375z" fill="rgba(68,0,186,.24705882)"/><path d="M188.20448 111.39487A.47625 .47625 0 00187.25198 111.39487A.47625 .47625 0 00188.20448 111.39487z" fill="rgba(68,0,186,.24705882)"/><path d="M151.46655 101.06025A.47625 .47625 0 00150.51405 101.06025A.47625 .47625 0 00151.46655 101.06025z" fill="rgba(68,0,186,.24705882)"/><path d="M163.46805 101.06025A.47625 .47625 0 00162.51555 101.06025A.47625 .47625 0 00163.46805 101.06025z" fill="rgba(68,0,186,.24705882)"/><path d="M96.03105 58.2549A.47625 .47625 0 0095.07855 58.2549A.47625 .47625 0 0096.03105 58.2549z" fill="rgba(68,0,186,.24705882)"/><path d="M188.214 146.19923A.47625 .47625 0 00187.2615 146.19923A.47625 .47625 0 00188.214 146.19923z" fill="rgba(68,0,186,.24705882)"/><path d="M66.8274 97.6884A.47625 .47625 0 0065.8749 97.6884A.47625 .47625 0 0066.8274 97.6884z" fill="rgba(68,0,186,.24705882)"/><path d="M188.20448 127.61595A.47625 .47625 0 00187.25198 127.61595A.47625 .47625 0 00188.20448 127.61595z" fill="rgba(68,0,186,.24705882)"/><path d="M116.7384 58.150125A.47625 .47625 0 00115.7859 58.150125A.47625 .47625 0 00116.7384 58.150125z" fill="rgba(68,0,186,.24705882)"/><path d="M131.70218 133.75957A.47625 .47625 0 00130.74968 133.75957A.47625 .47625 0 00131.70218 133.75957z" fill="rgba(68,0,186,.24705882)"/><path d="M169.18305 133.75005A.47625 .47625 0 00168.23055 133.75005A.47625 .47625 0 00169.18305 133.75005z" fill="rgba(68,0,186,.24705882)"/><path d="M150.9141 133.4643A.47625 .47625 0 00149.9616 133.4643A.47625 .47625 0 00150.9141 133.4643z" fill="rgba(68,0,186,.24705882)"/><path d="M214.02675 206.91157L214.5792 204.62557" style="fill:none;stroke:rgba(60,0,194,.24705882);stroke-width:.09525;stroke-miterlimit:41.994751"/><path d="M6.53415 28.013025L6.45795 34.680525" style="fill:none;stroke:rgba(60,0,194,.24705882);stroke-width:.09525;stroke-miterlimit:41.994751"/><path d="M6.57225 8.239125L6.477 6.905625" style="fill:none;stroke:rgba(52,0,198,.24705882);stroke-width:.09525;stroke-miterlimit:41.994751"/><path d="M214.07438 227.08552L213.86483 227.80943" style="fill:none;stroke:rgba(52,0,198,.24705882);stroke-width:.09525;stroke-miterlimit:41.994751"/><path d="M11.934825 17.230725A.47625 .47625 0 0010.982325 17.230725A.47625 .47625 0 0011.934825 17.230725z" fill="rgba(8,0,246,.24705882)"/><path d="M12.0777 10.734675A.47625 .47625 0 0011.1252 10.734675A.47625 .47625 0 0012.0777 10.734675z" fill="rgba(8,0,246,.24705882)"/><path d="M214.3887 218.63685A.47625 .47625 0 00213.4362 218.63685A.47625 .47625 0 00214.3887 218.63685z" fill="rgba(8,0,246,.24705882)"/><path d="M7.21995 17.383125A.47625 .47625 0 006.26745 17.383125A.47625 .47625 0 007.21995 17.383125z" fill="rgba(8,0,246,.24705882)"/><path d="M219.37027 224.38995A.47625 .47625 0 00218.41778 224.38995A.47625 .47625 0 00219.37027 224.38995z" fill="rgba(8,0,246,.24705882)"/><path d="M7.0104 28.013025A.47625 .47625 0 006.0579 28.013025A.47625 .47625 0 007.0104 28.013025z" fill="rgba(8,0,246,.24705882)"/><path d="M214.41727 211.31213A.47625 .47625 0 00213.46478 211.31213A.47625 .47625 0 00214.41727 211.31213z" fill="rgba(8,0,246,.24705882)"/><path d="M219.32265 218.60827A.47625 .47625 0 00218.37015 218.60827A.47625 .47625 0 00219.32265 218.60827z" fill="rgba(8,0,246,.24705882)"/><path d="M7.10565 21.0312A.47625 .47625 0 006.15315 21.0312A.47625 .47625 0 007.10565 21.0312z" fill="rgba(8,0,246,.24705882)"/><path d="M7.18185 17.306925A.47625 .47625 0 006.22935 17.306925A.47625 .47625 0 007.18185 17.306925z" fill="rgba(8,0,246,.24705882)"/><path d="M209.49285 224.4471A.47625 .47625 0 00208.54035 224.4471A.47625 .47625 0 00209.49285 224.4471z" fill="rgba(8,0,246,.24705882)"/><path d="M209.63573 218.63685A.47625 .47625 0 00208.68323 218.63685A.47625 .47625 0 00209.63573 218.63685z" fill="rgba(8,0,246,.24705882)"/><path d="M214.503 206.91157A.47625 .47625 0 00213.5505 206.91157A.47625 .47625 0 00214.503 206.91157z" fill="rgba(8,0,246,.24705882)"/><path d="M1.952625 17.116425A.47625 .47625 0 001.000125 17.116425A.47625 .47625 0 001.952625 17.116425z" fill="rgba(8,0,246,.24705882)"/><path d="M2.286 10.99185A.47625 .47625 0 001.3335 10.99185A.47625 .47625 0 002.286 10.99185z" fill="rgba(8,0,246,.24705882)"/><path d="M218.89402 224.38995L218.8464 218.60827" style="fill:none;stroke:rgba(8,0,246,.24705882);stroke-width:.09525;stroke-miterlimit:41.994751"/><path d="M213.91245 218.63685L213.94102 211.31212" style="fill:none;stroke:rgba(8,0,246,.24705882);stroke-width:.09525;stroke-miterlimit:41.994751"/><path d="M11.60145 10.734675L11.458575 17.230725" style="fill:none;stroke:rgba(8,0,246,.24705882);stroke-width:.09525;stroke-miterlimit:41.994751"/><path d="M209.0166 224.4471L209.15948 218.63685" style="fill:none;stroke:rgba(8,0,246,.24705882);stroke-width:.09525;stroke-miterlimit:41.994751"/><path d="M213.91245 218.63685L218.8464 218.60827" style="fill:none;stroke:rgba(8,0,246,.24705882);stroke-width:.09525;stroke-miterlimit:41.994751"/><path d="M11.458575 17.230725L6.7056 17.306925" style="fill:none;stroke:rgba(8,0,246,.24705882);stroke-width:.09525;stroke-miterlimit:41.994751"/><path d="M1.80975 10.99185L1.476375 17.116425" style="fill:none;stroke:rgba(8,0,246,.24705882);stroke-width:.09525;stroke-miterlimit:41.994751"/><path d="M6.7056 17.306925L1.476375 17.116425" style="fill:none;stroke:rgba(8,0,246,.24705882);stroke-width:.09525;stroke-miterlimit:41.994751"/><path d="M6.7056 17.306925L6.6294 21.0312" style="fill:none;stroke:rgba(8,0,246,.24705882);stroke-width:.09525;stroke-miterlimit:41.994751"/><path d="M209.15948 218.63685H213.91245" style="fill:none;stroke:rgba(8,0,246,.24705882);stroke-width:.09525;stroke-miterlimit:41.994751"/><path d="M213.94102 211.31212L214.02675 206.91157" style="fill:none;stroke:rgba(8,0,246,.24705882);stroke-width:.09525;stroke-miterlimit:41.994751"/><path d="M6.6294 21.0312L6.53415 28.013025" style="fill:none;stroke:rgba(8,0,246,.24705882);stroke-width:.09525;stroke-miterlimit:41.994751"/><path d="M6.477 6.905625L1.80975 10.99185" style="fill:none;stroke:rgba(4,0,250,.24705882);stroke-width:.09525;stroke-miterlimit:41.994751"/><path d="M213.86483 227.80943L209.0166 224.4471" style="fill:none;stroke:rgba(4,0,250,.24705882);stroke-width:.09525;stroke-miterlimit:41.994751"/><path d="M213.86483 227.80943L218.89402 224.38995" style="fill:none;stroke:rgba(4,0,250,.24705882);stroke-width:.09525;stroke-miterlimit:41.994751"/><path d="M6.477 6.905625L11.60145 10.734675" style="fill:none;stroke:rgba(4,0,250,.24705882);stroke-width:.09525;stroke-miterlimit:41.994751"/><path d="M6.95325 6.905625A.47625 .47625 0 006.00075 6.905625A.47625 .47625 0 006.95325 6.905625z" fill="rgba(0,0,255,.24705882)"/><path d="M214.34108 227.80943A.47625 .47625 0 00213.38858 227.80943A.47625 .47625 0 00214.34108 227.80943z" fill="rgba(0,0,255,.24705882)"/></svg>