<svg version="1.1" width="204.31125mm" height="237.26775mm" viewBox="0 0 204.31125 237.26775" xmlns="http://www.w3.org/2000/svg" xmlns:xlink="http://www.w3.org/1999/xlink"><path d="M151.638 49.62525H153.543" style="fill:none;stroke:#f00;stroke-width:.09525;stroke-miterlimit:41.994751"/><path d="M151.638 49.62525V47.72025" style="fill:none;stroke:#0f0;stroke-width:.09525;stroke-miterlimit:41.994751"/><path d="M121.03418 89.163525H128.42558V78.7146H121.03418z" style="fill:rgba(255,0,0,.24705882);stroke:rgba(255,0,0,.24705882);stroke-width:.09525;stroke-miterlimit:41.994751"/><path d="M125.3871 85.9155A.47625 .47625 0 00124.4346 85.9155A.47625 .47625 0 00125.3871 85.9155z" fill="rgba(255,0,0,.24705882)"/><path d="M124.8537 90.7542L124.91085 85.9155" style="fill:none;stroke:rgba(255,0,0,.24705882);stroke-width:.09525;stroke-miterlimit:41.994751"/><path d="M125.32995 90.7542A.47625 .47625 0 00124.37745 90.7542A.47625 .47625 0 00125.32995 90.7542z" fill="rgba(250,0,0,.24705882)"/><path d="M124.80608 95.335725L124.8537 90.7542" style="fill:none;stroke:rgba(246,0,8,.24705882);stroke-width:.09525;stroke-miterlimit:41.994751"/><path d="M125.28233 95.335725A.47625 .47625 0 00124.32983 95.335725A.47625 .47625 0 00125.28233 95.335725z" fill="rgba(242,0,12,.24705882)"/><path d="M125.33947 98.7933A.47625 .47625 0 00124.38698 98.7933A.47625 .47625 0 00125.33947 98.7933z" fill="rgba(242,0,12,.24705882)"/><path d="M121.6533 110.31855H129.68287V101.32695H121.6533z" style="fill:rgba(242,0,12,.24705882);stroke:rgba(242,0,12,.24705882);stroke-width:.09525;stroke-miterlimit:41.994751"/><path d="M125.72047 105.94657A.47625 .47625 0 00124.76798 105.94657A.47625 .47625 0 00125.72047 105.94657z" fill="rgba(242,0,12,.24705882)"/><path d="M125.24423 105.94657L124.86322 98.7933" style="fill:none;stroke:rgba(242,0,12,.24705882);stroke-width:.09525;stroke-miterlimit:41.994751"/><path d="M124.86322 98.7933L124.80608 95.335725" style="fill:none;stroke:rgba(242,0,12,.24705882);stroke-width:.09525;stroke-miterlimit:41.994751"/><path d="M131.84505 105.98467L125.24423 105.94657" style="fill:none;stroke:rgba(238,0,16,.24705882);stroke-width:.09525;stroke-miterlimit:41.994751"/><path d="M132.3213 105.98468A.47625 .47625 0 00131.3688 105.98468A.47625 .47625 0 00132.3213 105.98468z" fill="rgba(238,0,16,.24705882)"/><path d="M137.922 105.8037L131.84505 105.98467" style="fill:none;stroke:rgba(226,0,28,.24705882);stroke-width:.09525;stroke-miterlimit:41.994751"/><path d="M138.39825 105.8037A.47625 .47625 0 00137.44575 105.8037A.47625 .47625 0 00138.39825 105.8037z" fill="rgba(214,0,36,.24705882)"/><path d="M144.78 106.01325L137.922 105.8037" style="fill:none;stroke:rgba(206,0,48,.24705882);stroke-width:.09525;stroke-miterlimit:41.994751"/><path d="M145.25625 106.01325A.47625 .47625 0 00144.30375 106.01325A.47625 .47625 0 00145.25625 106.01325z" fill="rgba(194,0,60,.24705882)"/><path d="M173.36452 236.87723A.47625 .47625 0 00172.41202 236.87723A.47625 .47625 0 00173.36452 236.87723z" fill="rgba(182,0,72,.24705882)"/><path d="M186.63285 234.7722L172.88827 236.87723" style="fill:none;stroke:rgba(182,0,72,.24705882);stroke-width:.09525;stroke-miterlimit:41.994751"/><path d="M152.91435 106.04182L144.78 106.01325" style="fill:none;stroke:rgba(178,0,76,.24705882);stroke-width:.09525;stroke-miterlimit:41.994751"/><path d="M187.1091 234.7722A.47625 .47625 0 00186.1566 234.7722A.47625 .47625 0 00187.1091 234.7722z" fill="rgba(178,0,76,.24705882)"/><path d="M172.88827 236.87723L163.64902 234.47692" style="fill:none;stroke:rgba(174,0,80,.24705882);stroke-width:.09525;stroke-miterlimit:41.994751"/><path d="M154.81935 116.4717H176.1363V107.79442H154.81935z" style="fill:rgba(161,0,89,.24705882);stroke:rgba(161,0,89,.24705882);stroke-width:.09525;stroke-miterlimit:41.994751"/><path d="M160.782 112.22355A.47625 .47625 0 00159.8295 112.22355A.47625 .47625 0 00160.782 112.22355z" fill="rgba(161,0,89,.24705882)"/><path d="M136.94092 92.4306H164.10622V83.581875H136.94092z" style="fill:rgba(161,0,89,.24705882);stroke:rgba(161,0,89,.24705882);stroke-width:.09525;stroke-miterlimit:41.994751"/><path d="M160.50577 88.22055A.47625 .47625 0 00159.55328 88.22055A.47625 .47625 0 00160.50577 88.22055z" fill="rgba(161,0,89,.24705882)"/><path d="M79.15275 105.74655H95.631V82.781775H79.15275z" style="fill:rgba(161,0,89,.24705882);stroke:rgba(161,0,89,.24705882);stroke-width:.09525;stroke-miterlimit:41.994751"/><path d="M82.743675 88.1634A.47625 .47625 0 0081.791175 88.1634A.47625 .47625 0 0082.743675 88.1634z" fill="rgba(161,0,89,.24705882)"/><path d="M90.08745 14.525625H99.76485V.36195H90.08745z" style="fill:rgba(161,0,89,.24705882);stroke:rgba(161,0,89,.24705882);stroke-width:.09525;stroke-miterlimit:41.994751"/><path d="M95.19285 5.438775A.47625 .47625 0 0094.24035 5.438775A.47625 .47625 0 0095.19285 5.438775z" fill="rgba(161,0,89,.24705882)"/><path d="M180.7464 117.2337H189.38557V108.65167H180.7464z" style="fill:rgba(161,0,89,.24705882);stroke:rgba(161,0,89,.24705882);stroke-width:.09525;stroke-miterlimit:41.994751"/><path d="M186.3471 113.71897A.47625 .47625 0 00185.3946 113.71897A.47625 .47625 0 00186.3471 113.71897z" fill="rgba(161,0,89,.24705882)"/><path d="M102.07943 5.457825A.47625 .47625 0 00101.12693 5.457825A.47625 .47625 0 00102.07943 5.457825z" fill="rgba(161,0,89,.24705882)"/><path d="M104.4321 10.6299H113.26178V.352425H104.4321z" style="fill:rgba(161,0,89,.24705882);stroke:rgba(161,0,89,.24705882);stroke-width:.09525;stroke-miterlimit:41.994751"/><path d="M110.51857 5.50545A.47625 .47625 0 00109.56608 5.50545A.47625 .47625 0 00110.51857 5.50545z" fill="rgba(161,0,89,.24705882)"/><path d="M154.51455 83.562825H164.18243V70.342125H154.51455z" style="fill:rgba(161,0,89,.24705882);stroke:rgba(161,0,89,.24705882);stroke-width:.09525;stroke-miterlimit:41.994751"/><path d="M160.03905 76.266675A.47625 .47625 0 00159.08655 76.266675A.47625 .47625 0 00160.03905 76.266675z" fill="rgba(161,0,89,.24705882)"/><path d="M131.58787 62.42685H148.9329V59.845575H131.58787z" style="fill:rgba(161,0,89,.24705882);stroke:rgba(161,0,89,.24705882);stroke-width:.09525;stroke-miterlimit:41.994751"/><path d="M141.30337 61.102875A.47625 .47625 0 00140.35088 61.102875A.47625 .47625 0 00141.30337 61.102875z" fill="rgba(161,0,89,.24705882)"/><path d="M130.0734 55.4355H150.62835V36.890325H130.0734z" style="fill:rgba(161,0,89,.24705882);stroke:rgba(161,0,89,.24705882);stroke-width:.09525;stroke-miterlimit:41.994751"/><path d="M141.33195 54.00675A.47625 .47625 0 00140.37945 54.00675A.47625 .47625 0 00141.33195 54.00675z" fill="rgba(161,0,89,.24705882)"/><path d="M86.325075 23.71725H107.0229V14.6685H86.325075z" style="fill:rgba(161,0,89,.24705882);stroke:rgba(161,0,89,.24705882);stroke-width:.09525;stroke-miterlimit:41.994751"/><path d="M94.859475 19.8882A.47625 .47625 0 0093.906975 19.8882A.47625 .47625 0 0094.859475 19.8882z" fill="rgba(161,0,89,.24705882)"/><path d="M77.0382 31.1658H86.325075V14.373225H77.0382z" style="fill:rgba(161,0,89,.24705882);stroke:rgba(161,0,89,.24705882);stroke-width:.09525;stroke-miterlimit:41.994751"/><path d="M81.714975 19.516725A.47625 .47625 0 0080.762475 19.516725A.47625 .47625 0 0081.714975 19.516725z" fill="rgba(161,0,89,.24705882)"/><path d="M154.65743 107.77537H164.1729V92.4306H154.65743z" style="fill:rgba(161,0,89,.24705882);stroke:rgba(161,0,89,.24705882);stroke-width:.09525;stroke-miterlimit:41.994751"/><path d="M160.00095 105.96562A.47625 .47625 0 00159.04845 105.96562A.47625 .47625 0 00160.00095 105.96562z" fill="rgba(161,0,89,.24705882)"/><path d="M107.03243 23.707725H125.79668V14.754225H107.03243z" style="fill:rgba(161,0,89,.24705882);stroke:rgba(161,0,89,.24705882);stroke-width:.09525;stroke-miterlimit:41.994751"/><path d="M121.52947 19.764375A.47625 .47625 0 00120.57698 19.764375A.47625 .47625 0 00121.52947 19.764375z" fill="rgba(161,0,89,.24705882)"/><path d="M77.4192 68.71335H85.753575V47.03445H77.4192z" style="fill:rgba(161,0,89,.24705882);stroke:rgba(161,0,89,.24705882);stroke-width:.09525;stroke-miterlimit:41.994751"/><path d="M82.0293 60.302775A.47625 .47625 0 0081.0768 60.302775A.47625 .47625 0 0082.0293 60.302775z" fill="rgba(161,0,89,.24705882)"/><path d="M153.3906 106.04182A.47625 .47625 0 00152.4381 106.04182A.47625 .47625 0 00153.3906 106.04182z" fill="rgba(161,0,89,.24705882)"/><path d="M77.219175 78.762225H85.9536V68.703825H77.219175z" style="fill:rgba(161,0,89,.24705882);stroke:rgba(161,0,89,.24705882);stroke-width:.09525;stroke-miterlimit:41.994751"/><path d="M81.791175 71.408925A.47625 .47625 0 0080.838675 71.408925A.47625 .47625 0 0081.791175 71.408925z" fill="rgba(161,0,89,.24705882)"/><path d="M116.3574 58.969275H125.83478V23.71725H116.3574z" style="fill:rgba(161,0,89,.24705882);stroke:rgba(161,0,89,.24705882);stroke-width:.09525;stroke-miterlimit:41.994751"/><path d="M121.3104 45.558075A.47625 .47625 0 00120.3579 45.558075A.47625 .47625 0 00121.3104 45.558075z" fill="rgba(161,0,89,.24705882)"/><path d="M129.74955 76.71435H150.36165V62.42685H129.74955z" style="fill:rgba(161,0,89,.24705882);stroke:rgba(161,0,89,.24705882);stroke-width:.09525;stroke-miterlimit:41.994751"/><path d="M143.57032 69.7611A.47625 .47625 0 00142.61783 69.7611A.47625 .47625 0 00143.57032 69.7611z" fill="rgba(161,0,89,.24705882)"/><path d="M82.248375 81.17205A.47625 .47625 0 0081.295875 81.17205A.47625 .47625 0 0082.248375 81.17205z" fill="rgba(161,0,89,.24705882)"/><path d="M179.12715 113.78565A.47625 .47625 0 00178.17465 113.78565A.47625 .47625 0 00179.12715 113.78565z" fill="rgba(161,0,89,.24705882)"/><path d="M128.83515 69.161025A.47625 .47625 0 00127.88265 69.161025A.47625 .47625 0 00128.83515 69.161025z" fill="rgba(161,0,89,.24705882)"/><path d="M116.41455 83.5533H125.73V58.9788H116.41455z" style="fill:rgba(161,0,89,.24705882);stroke:rgba(161,0,89,.24705882);stroke-width:.09525;stroke-miterlimit:41.994751"/><path d="M122.13907 69.28485A.47625 .47625 0 00121.18658 69.28485A.47625 .47625 0 00122.13907 69.28485z" fill="rgba(161,0,89,.24705882)"/><path d="M89.220675 70.837425A.47625 .47625 0 0088.268175 70.837425A.47625 .47625 0 0089.220675 70.837425z" fill="rgba(161,0,89,.24705882)"/><path d="M90.65895 74.99985H112.67123V67.865625H90.65895z" style="fill:rgba(161,0,89,.24705882);stroke:rgba(161,0,89,.24705882);stroke-width:.09525;stroke-miterlimit:41.994751"/><path d="M106.93717 71.1708A.47625 .47625 0 00105.98468 71.1708A.47625 .47625 0 00106.93717 71.1708z" fill="rgba(161,0,89,.24705882)"/><path d="M116.3574 92.592525H136.94093V83.5914H116.3574z" style="fill:rgba(161,0,89,.24705882);stroke:rgba(161,0,89,.24705882);stroke-width:.09525;stroke-miterlimit:41.994751"/><path d="M122.0343 87.677625A.47625 .47625 0 00121.0818 87.677625A.47625 .47625 0 00122.0343 87.677625z" fill="rgba(161,0,89,.24705882)"/><path d="M99.621975 67.8942H111.04245V52.035075H99.621975z" style="fill:rgba(161,0,89,.24705882);stroke:rgba(161,0,89,.24705882);stroke-width:.09525;stroke-miterlimit:41.994751"/><path d="M106.69905 56.816625A.47625 .47625 0 00105.74655 56.816625A.47625 .47625 0 00106.69905 56.816625z" fill="rgba(161,0,89,.24705882)"/><path d="M114.95722 87.601425A.47625 .47625 0 00114.00473 87.601425A.47625 .47625 0 00114.95722 87.601425z" fill="rgba(161,0,89,.24705882)"/><path d="M89.97315 62.19825H99.621975V52.1208H89.97315z" style="fill:rgba(161,0,89,.24705882);stroke:rgba(161,0,89,.24705882);stroke-width:.09525;stroke-miterlimit:41.994751"/><path d="M94.77375 56.949975A.47625 .47625 0 0093.82125 56.949975A.47625 .47625 0 0094.77375 56.949975z" fill="rgba(161,0,89,.24705882)"/><path d="M94.2975 56.949975L106.2228 56.816625" style="fill:none;stroke:rgba(161,0,89,.24705882);stroke-width:.09525;stroke-miterlimit:41.994751"/><path d="M160.02953 88.22055L159.5247 105.96562" style="fill:none;stroke:rgba(161,0,89,.24705882);stroke-width:.09525;stroke-miterlimit:41.994751"/><path d="M159.5628 76.266675L160.02953 88.22055" style="fill:none;stroke:rgba(161,0,89,.24705882);stroke-width:.09525;stroke-miterlimit:41.994751"/><path d="M101.60318 5.457825L110.04233 5.50545" style="fill:none;stroke:rgba(161,0,89,.24705882);stroke-width:.09525;stroke-miterlimit:41.994751"/><path d="M106.2228 56.816625L106.46093 71.1708" style="fill:none;stroke:rgba(161,0,89,.24705882);stroke-width:.09525;stroke-miterlimit:41.994751"/><path d="M140.82712 61.102875L143.09408 69.7611" style="fill:none;stroke:rgba(161,0,89,.24705882);stroke-width:.09525;stroke-miterlimit:41.994751"/><path d="M106.46093 71.1708L88.744425 70.837425" style="fill:none;stroke:rgba(161,0,89,.24705882);stroke-width:.09525;stroke-miterlimit:41.994751"/><path d="M121.55805 87.677625L114.48098 87.601425" style="fill:none;stroke:rgba(161,0,89,.24705882);stroke-width:.09525;stroke-miterlimit:41.994751"/><path d="M88.744425 70.837425L81.314925 71.408925" style="fill:none;stroke:rgba(161,0,89,.24705882);stroke-width:.09525;stroke-miterlimit:41.994751"/><path d="M121.55805 87.677625L121.66282 69.28485" style="fill:none;stroke:rgba(161,0,89,.24705882);stroke-width:.09525;stroke-miterlimit:41.994751"/><path d="M178.6509 113.78565L185.87085 113.71897" style="fill:none;stroke:rgba(161,0,89,.24705882);stroke-width:.09525;stroke-miterlimit:41.994751"/><path d="M128.3589 69.161025L121.66282 69.28485" style="fill:none;stroke:rgba(161,0,89,.24705882);stroke-width:.09525;stroke-miterlimit:41.994751"/><path d="M81.772125 81.17205L82.267425 88.1634" style="fill:none;stroke:rgba(161,0,89,.24705882);stroke-width:.09525;stroke-miterlimit:41.994751"/><path d="M128.3589 69.161025L143.09408 69.7611" style="fill:none;stroke:rgba(161,0,89,.24705882);stroke-width:.09525;stroke-miterlimit:41.994751"/><path d="M81.314925 71.408925L81.772125 81.17205" style="fill:none;stroke:rgba(161,0,89,.24705882);stroke-width:.09525;stroke-miterlimit:41.994751"/><path d="M81.314925 71.408925L81.55305 60.302775" style="fill:none;stroke:rgba(161,0,89,.24705882);stroke-width:.09525;stroke-miterlimit:41.994751"/><path d="M120.83415 45.558075L121.66282 69.28485" style="fill:none;stroke:rgba(161,0,89,.24705882);stroke-width:.09525;stroke-miterlimit:41.994751"/><path d="M160.30575 112.22355L178.6509 113.78565" style="fill:none;stroke:rgba(161,0,89,.24705882);stroke-width:.09525;stroke-miterlimit:41.994751"/><path d="M94.7166 5.438775L101.60318 5.457825" style="fill:none;stroke:rgba(161,0,89,.24705882);stroke-width:.09525;stroke-miterlimit:41.994751"/><path d="M160.02953 88.22055L121.55805 87.677625" style="fill:none;stroke:rgba(161,0,89,.24705882);stroke-width:.09525;stroke-miterlimit:41.994751"/><path d="M94.7166 5.438775L94.383225 19.8882" style="fill:none;stroke:rgba(161,0,89,.24705882);stroke-width:.09525;stroke-miterlimit:41.994751"/><path d="M159.5247 105.96562L160.30575 112.22355" style="fill:none;stroke:rgba(161,0,89,.24705882);stroke-width:.09525;stroke-miterlimit:41.994751"/><path d="M121.05322 19.764375L120.83415 45.558075" style="fill:none;stroke:rgba(161,0,89,.24705882);stroke-width:.09525;stroke-miterlimit:41.994751"/><path d="M94.383225 19.8882L121.05322 19.764375" style="fill:none;stroke:rgba(161,0,89,.24705882);stroke-width:.09525;stroke-miterlimit:41.994751"/><path d="M81.238725 19.516725L94.383225 19.8882" style="fill:none;stroke:rgba(161,0,89,.24705882);stroke-width:.09525;stroke-miterlimit:41.994751"/><path d="M159.5247 105.96562L152.91435 106.04182" style="fill:none;stroke:rgba(161,0,89,.24705882);stroke-width:.09525;stroke-miterlimit:41.994751"/><path d="M110.04233 5.50545L115.062 5.4102" style="fill:none;stroke:rgba(161,0,89,.24705882);stroke-width:.09525;stroke-miterlimit:41.994751"/><path d="M115.53825 5.4102A.47625 .47625 0 00114.58575 5.4102A.47625 .47625 0 00115.53825 5.4102z" fill="rgba(161,0,89,.24705882)"/><path d="M164.12527 234.47692A.47625 .47625 0 00163.17278 234.47692A.47625 .47625 0 00164.12527 234.47692z" fill="rgba(161,0,93,.24705882)"/><path d="M114.48098 87.601425L100.03155 88.22055" style="fill:none;stroke:rgba(161,0,93,.24705882);stroke-width:.09525;stroke-miterlimit:41.994751"/><path d="M100.03155 88.22055L82.267425 88.1634" style="fill:none;stroke:rgba(161,0,93,.24705882);stroke-width:.09525;stroke-miterlimit:41.994751"/><path d="M185.87085 113.71897L185.2041 107.42295" style="fill:none;stroke:rgba(161,0,93,.24705882);stroke-width:.09525;stroke-miterlimit:41.994751"/><path d="M95.697675 104.29875H111.69967V82.743675H95.697675z" style="fill:rgba(161,0,93,.24705882);stroke:rgba(161,0,93,.24705882);stroke-width:.09525;stroke-miterlimit:41.994751"/><path d="M100.5078 88.22055A.47625 .47625 0 0099.5553 88.22055A.47625 .47625 0 00100.5078 88.22055z" fill="rgba(161,0,93,.24705882)"/><path d="M185.68035 107.42295A.47625 .47625 0 00184.72785 107.42295A.47625 .47625 0 00185.68035 107.42295z" fill="rgba(161,0,93,.24705882)"/><path d="M81.55305 60.302775L81.276825 37.861875" style="fill:none;stroke:rgba(157,0,97,.24705882);stroke-width:.09525;stroke-miterlimit:41.994751"/><path d="M81.276825 37.861875L81.238725 19.516725" style="fill:none;stroke:rgba(157,0,97,.24705882);stroke-width:.09525;stroke-miterlimit:41.994751"/><path d="M140.82712 61.102875L140.75092 59.502675" style="fill:none;stroke:rgba(153,0,101,.24705882);stroke-width:.09525;stroke-miterlimit:41.994751"/><path d="M140.84618 56.607075L140.8557 54.00675" style="fill:none;stroke:rgba(153,0,101,.24705882);stroke-width:.09525;stroke-miterlimit:41.994751"/><path d="M78.590775 46.88205H85.696425V31.29915H78.590775z" style="fill:rgba(149,0,105,.24705882);stroke:rgba(149,0,105,.24705882);stroke-width:.09525;stroke-miterlimit:41.994751"/><path d="M81.753075 37.861875A.47625 .47625 0 0080.800575 37.861875A.47625 .47625 0 0081.753075 37.861875z" fill="rgba(149,0,105,.24705882)"/><path d="M185.2041 107.42295L185.1279 100.67925" style="fill:none;stroke:rgba(149,0,105,.24705882);stroke-width:.09525;stroke-miterlimit:41.994751"/><path d="M163.64902 234.47692L148.07565 230.19067" style="fill:none;stroke:rgba(149,0,105,.24705882);stroke-width:.09525;stroke-miterlimit:41.994751"/><path d="M141.32243 56.607075A.47625 .47625 0 00140.36993 56.607075A.47625 .47625 0 00141.32243 56.607075z" fill="rgba(141,0,113,.24705882)"/><path d="M141.22717 59.502675A.47625 .47625 0 00140.27468 59.502675A.47625 .47625 0 00141.22717 59.502675z" fill="rgba(141,0,113,.24705882)"/><path d="M140.75092 59.502675L140.84618 56.607075" style="fill:none;stroke:rgba(141,0,113,.24705882);stroke-width:.09525;stroke-miterlimit:41.994751"/><path d="M115.062 5.4102L128.25413 5.31495" style="fill:none;stroke:rgba(141,0,113,.24705882);stroke-width:.09525;stroke-miterlimit:41.994751"/><path d="M185.60415 100.67925A.47625 .47625 0 00184.65165 100.67925A.47625 .47625 0 00185.60415 100.67925z" fill="rgba(141,0,113,.24705882)"/><path d="M148.5519 230.19067A.47625 .47625 0 00147.5994 230.19067A.47625 .47625 0 00148.5519 230.19067z" fill="rgba(133,0,117,.24705882)"/><path d="M185.1279 100.67925L184.9755 93.82125" style="fill:none;stroke:rgba(129,0,125,.24705882);stroke-width:.09525;stroke-miterlimit:41.994751"/><path d="M128.73038 5.31495A.47625 .47625 0 00127.77788 5.31495A.47625 .47625 0 00128.73038 5.31495z" fill="rgba(117,0,137,.24705882)"/><path d="M185.45175 93.82125A.47625 .47625 0 00184.49925 93.82125A.47625 .47625 0 00185.45175 93.82125z" fill="rgba(117,0,137,.24705882)"/><path d="M148.07565 230.19067L120.67222 222.47543" style="fill:none;stroke:rgba(117,0,137,.24705882);stroke-width:.09525;stroke-miterlimit:41.994751"/><path d="M184.9755 93.82125L184.99455 86.96325" style="fill:none;stroke:rgba(105,0,149,.24705882);stroke-width:.09525;stroke-miterlimit:41.994751"/><path d="M128.25413 5.31495L137.03618 5.438775" style="fill:none;stroke:rgba(101,0,153,.24705882);stroke-width:.09525;stroke-miterlimit:41.994751"/><path d="M121.14847 222.47543A.47625 .47625 0 00120.19598 222.47543A.47625 .47625 0 00121.14847 222.47543z" fill="rgba(97,0,157,.24705882)"/><path d="M.9525 190.09043A.47625 .47625 0 00-68278716e-22 190.09043A.47625 .47625 0 00.9525 190.09043z" fill="rgba(93,0,157,.24705882)"/><path d="M185.4708 86.96325A.47625 .47625 0 00184.5183 86.96325A.47625 .47625 0 00185.4708 86.96325z" fill="rgba(93,0,161,.24705882)"/><path d="M184.99455 86.96325L184.91835 78.914625" style="fill:none;stroke:rgba(89,0,161,.24705882);stroke-width:.09525;stroke-miterlimit:41.994751"/><path d="M92.021025 85.21065H135.66458V60.96H92.021025z" style="fill:rgba(85,0,165,.24705882);stroke:rgba(85,0,165,.24705882);stroke-width:.09525;stroke-miterlimit:41.994751"/><path d="M115.824 68.532375A.47625 .47625 0 00114.8715 68.532375A.47625 .47625 0 00115.824 68.532375z" fill="rgba(85,0,165,.24705882)"/><path d="M97.507425 25.422225A.47625 .47625 0 0096.554925 25.422225A.47625 .47625 0 0097.507425 25.422225z" fill="rgba(85,0,165,.24705882)"/><path d="M128.18745 94.002225A.47625 .47625 0 00127.23495 94.002225A.47625 .47625 0 00128.18745 94.002225z" fill="rgba(85,0,165,.24705882)"/><path d="M106.09897 49.96815A.47625 .47625 0 00105.14648 49.96815A.47625 .47625 0 00106.09897 49.96815z" fill="rgba(85,0,165,.24705882)"/><path d="M122.66295 42.719625H140.56043V38.19525H122.66295z" style="fill:rgba(85,0,165,.24705882);stroke:rgba(85,0,165,.24705882);stroke-width:.09525;stroke-miterlimit:41.994751"/><path d="M139.05548 40.471725A.47625 .47625 0 00138.10298 40.471725A.47625 .47625 0 00139.05548 40.471725z" fill="rgba(85,0,165,.24705882)"/><path d="M141.1605 48.3108H150.5712V24.1554H141.1605z" style="fill:rgba(85,0,165,.24705882);stroke:rgba(85,0,165,.24705882);stroke-width:.09525;stroke-miterlimit:41.994751"/><path d="M144.65617 40.67175A.47625 .47625 0 00143.70368 40.67175A.47625 .47625 0 00144.65617 40.67175z" fill="rgba(85,0,165,.24705882)"/><path d="M116.967 44.910375H122.66295V34.29H116.967z" style="fill:rgba(85,0,165,.24705882);stroke:rgba(85,0,165,.24705882);stroke-width:.09525;stroke-miterlimit:41.994751"/><path d="M119.4816 40.29075A.47625 .47625 0 00118.5291 40.29075A.47625 .47625 0 00119.4816 40.29075z" fill="rgba(85,0,165,.24705882)"/><path d="M139.6365 94.0689A.47625 .47625 0 00138.684 94.0689A.47625 .47625 0 00139.6365 94.0689z" fill="rgba(85,0,165,.24705882)"/><path d="M140.90332 97.621725H162.41078V84.115275H140.90332z" style="fill:rgba(85,0,165,.24705882);stroke:rgba(85,0,165,.24705882);stroke-width:.09525;stroke-miterlimit:41.994751"/><path d="M153.20962 94.649925A.47625 .47625 0 00152.25713 94.649925A.47625 .47625 0 00153.20962 94.649925z" fill="rgba(85,0,165,.24705882)"/><path d="M116.967 34.29H135.19785V28.241625H116.967z" style="fill:rgba(85,0,165,.24705882);stroke:rgba(85,0,165,.24705882);stroke-width:.09525;stroke-miterlimit:41.994751"/><path d="M119.73878 30.565725A.47625 .47625 0 00118.78628 30.565725A.47625 .47625 0 00119.73878 30.565725z" fill="rgba(85,0,165,.24705882)"/><path d="M166.1541 111.05197H175.78387V104.53687H166.1541z" style="fill:rgba(85,0,165,.24705882);stroke:rgba(85,0,165,.24705882);stroke-width:.09525;stroke-miterlimit:41.994751"/><path d="M171.04042 109.05173A.47625 .47625 0 00170.08793 109.05173A.47625 .47625 0 00171.04042 109.05173z" fill="rgba(85,0,165,.24705882)"/><path d="M166.878 100.11728H176.68875V71.9328H166.878z" style="fill:rgba(85,0,165,.24705882);stroke:rgba(85,0,165,.24705882);stroke-width:.09525;stroke-miterlimit:41.994751"/><path d="M171.9834 78.58125A.47625 .47625 0 00171.0309 78.58125A.47625 .47625 0 00171.9834 78.58125z" fill="rgba(85,0,165,.24705882)"/><path d="M199.3392 70.761225A.47625 .47625 0 00198.3867 70.761225A.47625 .47625 0 00199.3392 70.761225z" fill="rgba(85,0,165,.24705882)"/><path d="M166.02075 76.98105A.47625 .47625 0 00165.06825 76.98105A.47625 .47625 0 00166.02075 76.98105z" fill="rgba(85,0,165,.24705882)"/><path d="M190.5381 68.189475H203.89215V52.397025H190.5381z" style="fill:rgba(85,0,165,.24705882);stroke:rgba(85,0,165,.24705882);stroke-width:.09525;stroke-miterlimit:41.994751"/><path d="M199.12013 60.436125A.47625 .47625 0 00198.16763 60.436125A.47625 .47625 0 00199.12013 60.436125z" fill="rgba(85,0,165,.24705882)"/><path d="M139.1031 77.123925A.47625 .47625 0 00138.1506 77.123925A.47625 .47625 0 00139.1031 77.123925z" fill="rgba(85,0,165,.24705882)"/><path d="M121.59615 23.593425H132.1308V14.773275H121.59615z" style="fill:rgba(85,0,165,.24705882);stroke:rgba(85,0,165,.24705882);stroke-width:.09525;stroke-miterlimit:41.994751"/><path d="M125.16803 18.869025A.47625 .47625 0 00124.21553 18.869025A.47625 .47625 0 00125.16803 18.869025z" fill="rgba(85,0,165,.24705882)"/><path d="M163.11562 68.056125H190.54762V52.244625H163.11562z" style="fill:rgba(85,0,165,.24705882);stroke:rgba(85,0,165,.24705882);stroke-width:.09525;stroke-miterlimit:41.994751"/><path d="M186.50903 59.26455A.47625 .47625 0 00185.55653 59.26455A.47625 .47625 0 00186.50903 59.26455z" fill="rgba(85,0,165,.24705882)"/><path d="M91.620975 60.96H135.95985V52.578H91.620975z" style="fill:rgba(85,0,165,.24705882);stroke:rgba(85,0,165,.24705882);stroke-width:.09525;stroke-miterlimit:41.994751"/><path d="M105.89895 57.4929A.47625 .47625 0 00104.94645 57.4929A.47625 .47625 0 00105.89895 57.4929z" fill="rgba(85,0,165,.24705882)"/><path d="M91.659075 23.79345H102.108V16.93545H91.659075z" style="fill:rgba(85,0,165,.24705882);stroke:rgba(85,0,165,.24705882);stroke-width:.09525;stroke-miterlimit:41.994751"/><path d="M97.32645 19.6977A.47625 .47625 0 0096.37395 19.6977A.47625 .47625 0 0097.32645 19.6977z" fill="rgba(85,0,165,.24705882)"/><path d="M141.02715 84.1248H162.306V68.456175H141.02715z" style="fill:rgba(85,0,165,.24705882);stroke:rgba(85,0,165,.24705882);stroke-width:.09525;stroke-miterlimit:41.994751"/><path d="M150.94268 77.5716A.47625 .47625 0 00149.99018 77.5716A.47625 .47625 0 00150.94268 77.5716z" fill="rgba(85,0,165,.24705882)"/><path d="M185.48032 70.399275A.47625 .47625 0 00184.52783 70.399275A.47625 .47625 0 00185.48032 70.399275z" fill="rgba(85,0,165,.24705882)"/><path d="M132.1308 24.164925H150.43785V14.582775H132.1308z" style="fill:rgba(85,0,165,.24705882);stroke:rgba(85,0,165,.24705882);stroke-width:.09525;stroke-miterlimit:41.994751"/><path d="M145.72297 19.611975A.47625 .47625 0 00144.77048 19.611975A.47625 .47625 0 00145.72297 19.611975z" fill="rgba(85,0,165,.24705882)"/><path d="M180.0225 83.7057H190.119V72.285225H180.0225z" style="fill:rgba(85,0,165,.24705882);stroke:rgba(85,0,165,.24705882);stroke-width:.09525;stroke-miterlimit:41.994751"/><path d="M185.3946 78.914625A.47625 .47625 0 00184.4421 78.914625A.47625 .47625 0 00185.3946 78.914625z" fill="rgba(85,0,165,.24705882)"/><path d="M194.31 117.07178H204.00645V72.380475H194.31z" style="fill:rgba(85,0,165,.24705882);stroke:rgba(85,0,165,.24705882);stroke-width:.09525;stroke-miterlimit:41.994751"/><path d="M199.54875 114.38572A.47625 .47625 0 00198.59625 114.38572A.47625 .47625 0 00199.54875 114.38572z" fill="rgba(85,0,165,.24705882)"/><path d="M139.09357 59.121675A.47625 .47625 0 00138.14108 59.121675A.47625 .47625 0 00139.09357 59.121675z" fill="rgba(85,0,165,.24705882)"/><path d="M192.52882 113.59515A.47625 .47625 0 00191.57632 113.59515A.47625 .47625 0 00192.52882 113.59515z" fill="rgba(85,0,165,.24705882)"/><path d="M146.10397 12.392025A.47625 .47625 0 00145.15148 12.392025A.47625 .47625 0 00146.10397 12.392025z" fill="rgba(85,0,165,.24705882)"/><path d="M180.41303 117.03368H189.70943V108.9279H180.41303z" style="fill:rgba(85,0,165,.24705882);stroke:rgba(85,0,165,.24705882);stroke-width:.09525;stroke-miterlimit:41.994751"/><path d="M185.22315 113.21415A.47625 .47625 0 00184.27065 113.21415A.47625 .47625 0 00185.22315 113.21415z" fill="rgba(85,0,165,.24705882)"/><path d="M96.86925 47.9679H112.34737V33.39465H96.86925z" style="fill:rgba(85,0,165,.24705882);stroke:rgba(85,0,165,.24705882);stroke-width:.09525;stroke-miterlimit:41.994751"/><path d="M105.54653 37.47135A.47625 .47625 0 00104.59403 37.47135A.47625 .47625 0 00105.54653 37.47135z" fill="rgba(85,0,165,.24705882)"/><path d="M138.8364 9.915525H149.98065V.4953H138.8364z" style="fill:rgba(85,0,165,.24705882);stroke:rgba(85,0,165,.24705882);stroke-width:.09525;stroke-miterlimit:41.994751"/><path d="M145.8468 4.714875A.47625 .47625 0 00144.8943 4.714875A.47625 .47625 0 00145.8468 4.714875z" fill="rgba(85,0,165,.24705882)"/><path d="M153.162 5.362575A.47625 .47625 0 00152.2095 5.362575A.47625 .47625 0 00153.162 5.362575z" fill="rgba(85,0,165,.24705882)"/><path d="M146.19923 50.644425A.47625 .47625 0 00145.24673 50.644425A.47625 .47625 0 00146.19923 50.644425z" fill="rgba(85,0,165,.24705882)"/><path d="M154.5717 10.57275H163.62045V.409575H154.5717z" style="fill:rgba(85,0,165,.24705882);stroke:rgba(85,0,165,.24705882);stroke-width:.09525;stroke-miterlimit:41.994751"/><path d="M159.04845 5.457825A.47625 .47625 0 00158.09595 5.457825A.47625 .47625 0 00159.04845 5.457825z" fill="rgba(85,0,165,.24705882)"/><path d="M141.13192 68.44665H150.7236V52.6923H141.13192z" style="fill:rgba(85,0,165,.24705882);stroke:rgba(85,0,165,.24705882);stroke-width:.09525;stroke-miterlimit:41.994751"/><path d="M146.32305 59.07405A.47625 .47625 0 00145.37055 59.07405A.47625 .47625 0 00146.32305 59.07405z" fill="rgba(85,0,165,.24705882)"/><path d="M137.51243 5.438775A.47625 .47625 0 00136.55993 5.438775A.47625 .47625 0 00137.51243 5.438775z" fill="rgba(85,0,165,.24705882)"/><path d="M91.773375 33.3756H101.93655V28.32735H91.773375z" style="fill:rgba(85,0,165,.24705882);stroke:rgba(85,0,165,.24705882);stroke-width:.09525;stroke-miterlimit:41.994751"/><path d="M97.6503 29.92755A.47625 .47625 0 0096.6978 29.92755A.47625 .47625 0 0097.6503 29.92755z" fill="rgba(85,0,165,.24705882)"/><path d="M150.73313 68.456175H163.09658V52.86375H150.73313z" style="fill:rgba(85,0,165,.24705882);stroke:rgba(85,0,165,.24705882);stroke-width:.09525;stroke-miterlimit:41.994751"/><path d="M153.9621 58.5597A.47625 .47625 0 00153.0096 58.5597A.47625 .47625 0 00153.9621 58.5597z" fill="rgba(85,0,165,.24705882)"/><path d="M124.69178 18.869025L145.24672 19.611975" style="fill:none;stroke:rgba(85,0,165,.24705882);stroke-width:.09525;stroke-miterlimit:41.994751"/><path d="M198.86295 70.761225L199.0725 114.38572" style="fill:none;stroke:rgba(85,0,165,.24705882);stroke-width:.09525;stroke-miterlimit:41.994751"/><path d="M144.17992 40.67175L138.57923 40.471725" style="fill:none;stroke:rgba(85,0,165,.24705882);stroke-width:.09525;stroke-miterlimit:41.994751"/><path d="M115.34775 68.532375L105.4227 57.4929" style="fill:none;stroke:rgba(85,0,165,.24705882);stroke-width:.09525;stroke-miterlimit:41.994751"/><path d="M144.17992 40.67175L145.24672 19.611975" style="fill:none;stroke:rgba(85,0,165,.24705882);stroke-width:.09525;stroke-miterlimit:41.994751"/><path d="M139.16025 94.0689L152.73337 94.649925" style="fill:none;stroke:rgba(85,0,165,.24705882);stroke-width:.09525;stroke-miterlimit:41.994751"/><path d="M138.57923 40.471725L119.00535 40.29075" style="fill:none;stroke:rgba(85,0,165,.24705882);stroke-width:.09525;stroke-miterlimit:41.994751"/><path d="M97.031175 25.422225L96.8502 19.6977" style="fill:none;stroke:rgba(85,0,165,.24705882);stroke-width:.09525;stroke-miterlimit:41.994751"/><path d="M97.031175 25.422225L97.17405 29.92755" style="fill:none;stroke:rgba(85,0,165,.24705882);stroke-width:.09525;stroke-miterlimit:41.994751"/><path d="M152.73337 94.649925L150.46643 77.5716" style="fill:none;stroke:rgba(85,0,165,.24705882);stroke-width:.09525;stroke-miterlimit:41.994751"/><path d="M119.26253 30.565725L119.00535 40.29075" style="fill:none;stroke:rgba(85,0,165,.24705882);stroke-width:.09525;stroke-miterlimit:41.994751"/><path d="M171.50715 78.58125L170.56418 109.05172" style="fill:none;stroke:rgba(85,0,165,.24705882);stroke-width:.09525;stroke-miterlimit:41.994751"/><path d="M105.62273 49.96815L105.07028 37.47135" style="fill:none;stroke:rgba(85,0,165,.24705882);stroke-width:.09525;stroke-miterlimit:41.994751"/><path d="M153.48585 58.5597L145.8468 59.07405" style="fill:none;stroke:rgba(85,0,165,.24705882);stroke-width:.09525;stroke-miterlimit:41.994751"/><path d="M105.62273 49.96815L105.4227 57.4929" style="fill:none;stroke:rgba(85,0,165,.24705882);stroke-width:.09525;stroke-miterlimit:41.994751"/><path d="M165.5445 76.98105L171.50715 78.58125" style="fill:none;stroke:rgba(85,0,165,.24705882);stroke-width:.09525;stroke-miterlimit:41.994751"/><path d="M198.64388 60.436125L198.86295 70.761225" style="fill:none;stroke:rgba(85,0,165,.24705882);stroke-width:.09525;stroke-miterlimit:41.994751"/><path d="M138.62685 77.123925L115.34775 68.532375" style="fill:none;stroke:rgba(85,0,165,.24705882);stroke-width:.09525;stroke-miterlimit:41.994751"/><path d="M137.03618 5.438775L145.37055 4.714875" style="fill:none;stroke:rgba(85,0,165,.24705882);stroke-width:.09525;stroke-miterlimit:41.994751"/><path d="M186.03278 59.26455L198.64388 60.436125" style="fill:none;stroke:rgba(85,0,165,.24705882);stroke-width:.09525;stroke-miterlimit:41.994751"/><path d="M150.46643 77.5716L165.5445 76.98105" style="fill:none;stroke:rgba(85,0,165,.24705882);stroke-width:.09525;stroke-miterlimit:41.994751"/><path d="M145.8468 59.07405L138.61732 59.121675" style="fill:none;stroke:rgba(85,0,165,.24705882);stroke-width:.09525;stroke-miterlimit:41.994751"/><path d="M150.46643 77.5716L138.62685 77.123925" style="fill:none;stroke:rgba(85,0,165,.24705882);stroke-width:.09525;stroke-miterlimit:41.994751"/><path d="M150.46643 77.5716L153.48585 58.5597" style="fill:none;stroke:rgba(85,0,165,.24705882);stroke-width:.09525;stroke-miterlimit:41.994751"/><path d="M127.7112 94.002225L139.16025 94.0689" style="fill:none;stroke:rgba(85,0,165,.24705882);stroke-width:.09525;stroke-miterlimit:41.994751"/><path d="M152.68575 5.362575L158.5722 5.457825" style="fill:none;stroke:rgba(85,0,165,.24705882);stroke-width:.09525;stroke-miterlimit:41.994751"/><path d="M186.03278 59.26455L153.48585 58.5597" style="fill:none;stroke:rgba(85,0,165,.24705882);stroke-width:.09525;stroke-miterlimit:41.994751"/><path d="M145.37055 4.714875L152.68575 5.362575" style="fill:none;stroke:rgba(85,0,165,.24705882);stroke-width:.09525;stroke-miterlimit:41.994751"/><path d="M105.07028 37.47135L97.17405 29.92755" style="fill:none;stroke:rgba(85,0,165,.24705882);stroke-width:.09525;stroke-miterlimit:41.994751"/><path d="M185.00408 70.399275L186.03278 59.26455" style="fill:none;stroke:rgba(85,0,165,.24705882);stroke-width:.09525;stroke-miterlimit:41.994751"/><path d="M192.05257 113.59515L184.7469 113.21415" style="fill:none;stroke:rgba(85,0,165,.24705882);stroke-width:.09525;stroke-miterlimit:41.994751"/><path d="M145.62772 12.392025L145.37055 4.714875" style="fill:none;stroke:rgba(85,0,165,.24705882);stroke-width:.09525;stroke-miterlimit:41.994751"/><path d="M145.62772 12.392025L145.24672 19.611975" style="fill:none;stroke:rgba(85,0,165,.24705882);stroke-width:.09525;stroke-miterlimit:41.994751"/><path d="M138.61732 59.121675L115.34775 68.532375" style="fill:none;stroke:rgba(85,0,165,.24705882);stroke-width:.09525;stroke-miterlimit:41.994751"/><path d="M145.72298 50.644425L145.8468 59.07405" style="fill:none;stroke:rgba(85,0,165,.24705882);stroke-width:.09525;stroke-miterlimit:41.994751"/><path d="M145.72298 50.644425L144.17992 40.67175" style="fill:none;stroke:rgba(85,0,165,.24705882);stroke-width:.09525;stroke-miterlimit:41.994751"/><path d="M199.0725 114.38572L192.05257 113.59515" style="fill:none;stroke:rgba(85,0,165,.24705882);stroke-width:.09525;stroke-miterlimit:41.994751"/><path d="M184.91835 78.914625L185.00408 70.399275" style="fill:none;stroke:rgba(85,0,165,.24705882);stroke-width:.09525;stroke-miterlimit:41.994751"/><path d="M184.7469 113.21415L185.11838 106.2609" style="fill:none;stroke:rgba(80,0,170,.24705882);stroke-width:.09525;stroke-miterlimit:41.994751"/><path d="M185.59463 106.2609A.47625 .47625 0 00184.64213 106.2609A.47625 .47625 0 00185.59463 106.2609z" fill="rgba(80,0,174,.24705882)"/><path d="M120.67222 222.47543L78.628875 202.75868" style="fill:none;stroke:rgba(72,0,182,.24705882);stroke-width:.09525;stroke-miterlimit:41.994751"/><path d="M185.11838 106.2609L185.13743 99.53625" style="fill:none;stroke:rgba(68,0,186,.24705882);stroke-width:.09525;stroke-miterlimit:41.994751"/><path d="M114.66195 93.868875L127.7112 94.002225" style="fill:none;stroke:rgba(64,0,190,.24705882);stroke-width:.09525;stroke-miterlimit:41.994751"/><path d="M34.109025 191.05245L.47625 190.09043" style="fill:none;stroke:rgba(60,0,194,.24705882);stroke-width:.09525;stroke-miterlimit:41.994751"/><path d="M185.61368 99.53625A.47625 .47625 0 00184.66118 99.53625A.47625 .47625 0 00185.61368 99.53625z" fill="rgba(60,0,194,.24705882)"/><path d="M79.105125 202.75868A.47625 .47625 0 0078.152625 202.75868A.47625 .47625 0 0079.105125 202.75868z" fill="rgba(48,0,202,.24705882)"/><path d="M185.13743 99.53625L185.0136 90.801825" style="fill:none;stroke:rgba(44,0,210,.24705882);stroke-width:.09525;stroke-miterlimit:41.994751"/><path d="M115.1382 93.868875A.47625 .47625 0 00114.1857 93.868875A.47625 .47625 0 00115.1382 93.868875z" fill="rgba(40,0,214,.24705882)"/><path d="M78.628875 202.75868L54.949725 195.7578" style="fill:none;stroke:rgba(36,0,218,.24705882);stroke-width:.09525;stroke-miterlimit:41.994751"/><path d="M49.958625 108.04207A.47625 .47625 0 0049.006125 108.04207A.47625 .47625 0 0049.958625 108.04207z" fill="rgba(36,0,218,.24705882)"/><path d="M49.54905 152.71432L49.482375 108.04207" style="fill:none;stroke:rgba(36,0,218,.24705882);stroke-width:.09525;stroke-miterlimit:41.994751"/><path d="M50.0253 152.71432A.47625 .47625 0 0049.0728 152.71432A.47625 .47625 0 0050.0253 152.71432z" fill="rgba(32,0,218,.24705882)"/><path d="M49.482375 108.04207L51.53025 81.8769" style="fill:none;stroke:rgba(32,0,218,.24705882);stroke-width:.09525;stroke-miterlimit:41.994751"/><path d="M48.053625 79.200375H60.198V58.3311H48.053625z" style="fill:rgba(32,0,222,.24705882);stroke:rgba(32,0,222,.24705882);stroke-width:.09525;stroke-miterlimit:41.994751"/><path d="M54.23535 58.912125A.47625 .47625 0 0053.28285 58.912125A.47625 .47625 0 0054.23535 58.912125z" fill="rgba(32,0,222,.24705882)"/><path d="M51.53025 81.8769L53.7591 58.912125" style="fill:none;stroke:rgba(32,0,222,.24705882);stroke-width:.09525;stroke-miterlimit:41.994751"/><path d="M52.0065 81.8769A.47625 .47625 0 0051.054 81.8769A.47625 .47625 0 0052.0065 81.8769z" fill="rgba(32,0,222,.24705882)"/><path d="M50.034825 173.79315L49.54905 152.71432" style="fill:none;stroke:rgba(32,0,222,.24705882);stroke-width:.09525;stroke-miterlimit:41.994751"/><path d="M185.48985 90.801825A.47625 .47625 0 00184.53735 90.801825A.47625 .47625 0 00185.48985 90.801825z" fill="rgba(28,0,226,.24705882)"/><path d="M34.585275 191.05245A.47625 .47625 0 0033.632775 191.05245A.47625 .47625 0 0034.585275 191.05245z" fill="rgba(28,0,226,.24705882)"/><path d="M50.511075 173.79315A.47625 .47625 0 0049.558575 173.79315A.47625 .47625 0 0050.511075 173.79315z" fill="rgba(28,0,226,.24705882)"/><path d="M54.949725 195.7578L34.109025 191.05245" style="fill:none;stroke:rgba(24,0,230,.24705882);stroke-width:.09525;stroke-miterlimit:41.994751"/><path d="M105.09885 93.964125L114.66195 93.868875" style="fill:none;stroke:rgba(24,0,230,.24705882);stroke-width:.09525;stroke-miterlimit:41.994751"/><path d="M53.7591 58.912125L53.74005 53.05425" style="fill:none;stroke:rgba(24,0,230,.24705882);stroke-width:.09525;stroke-miterlimit:41.994751"/><path d="M50.034825 173.79315L54.949725 195.7578" style="fill:none;stroke:rgba(24,0,230,.24705882);stroke-width:.09525;stroke-miterlimit:41.994751"/><path d="M55.425975 195.7578A.47625 .47625 0 0054.473475 195.7578A.47625 .47625 0 0055.425975 195.7578z" fill="rgba(24,0,230,.24705882)"/><path d="M185.0136 90.801825L185.11838 83.9724" style="fill:none;stroke:rgba(20,0,234,.24705882);stroke-width:.09525;stroke-miterlimit:41.994751"/><path d="M54.2163 53.05425A.47625 .47625 0 0053.2638 53.05425A.47625 .47625 0 0054.2163 53.05425z" fill="rgba(16,0,234,.24705882)"/><path d="M53.74005 53.05425L53.3019 50.682525" style="fill:none;stroke:rgba(12,0,238,.24705882);stroke-width:.09525;stroke-miterlimit:41.994751"/><path d="M144.8181 109.7661H160.72485V92.249625H144.8181z" style="fill:rgba(8,0,242,.24705882);stroke:rgba(8,0,242,.24705882);stroke-width:.09525;stroke-miterlimit:41.994751"/><path d="M151.05697 103.30815A.47625 .47625 0 00150.10448 103.30815A.47625 .47625 0 00151.05697 103.30815z" fill="rgba(8,0,242,.24705882)"/><path d="M75.438 41.12895H87.810975V30.660975H75.438z" style="fill:rgba(8,0,242,.24705882);stroke:rgba(8,0,242,.24705882);stroke-width:.09525;stroke-miterlimit:41.994751"/><path d="M79.8957 35.8521A.47625 .47625 0 0078.9432 35.8521A.47625 .47625 0 0079.8957 35.8521z" fill="rgba(8,0,242,.24705882)"/><path d="M69.332475 49.5681H70.866V41.176575H69.332475z" style="fill:rgba(8,0,242,.24705882);stroke:rgba(8,0,242,.24705882);stroke-width:.09525;stroke-miterlimit:41.994751"/><path d="M70.989825 46.23435A.47625 .47625 0 0070.037325 46.23435A.47625 .47625 0 0070.989825 46.23435z" fill="rgba(8,0,242,.24705882)"/><path d="M157.98165 84.705825H174.498V75.4761H157.98165z" style="fill:rgba(8,0,242,.24705882);stroke:rgba(8,0,242,.24705882);stroke-width:.09525;stroke-miterlimit:41.994751"/><path d="M171.08805 79.276575A.47625 .47625 0 00170.13555 79.276575A.47625 .47625 0 00171.08805 79.276575z" fill="rgba(8,0,242,.24705882)"/><path d="M39.7002 49.749075H57.883425V30.5943H39.7002z" style="fill:rgba(8,0,242,.24705882);stroke:rgba(8,0,242,.24705882);stroke-width:.09525;stroke-miterlimit:41.994751"/><path d="M53.8734 44.815125A.47625 .47625 0 0052.9209 44.815125A.47625 .47625 0 0053.8734 44.815125z" fill="rgba(8,0,242,.24705882)"/><path d="M61.341 29.022675A.47625 .47625 0 0060.3885 29.022675A.47625 .47625 0 0061.341 29.022675z" fill="rgba(8,0,242,.24705882)"/><path d="M140.49375 85.3059H157.98165V75.3999H140.49375z" style="fill:rgba(8,0,242,.24705882);stroke:rgba(8,0,242,.24705882);stroke-width:.09525;stroke-miterlimit:41.994751"/><path d="M146.44688 79.562325A.47625 .47625 0 00145.49438 79.562325A.47625 .47625 0 00146.44688 79.562325z" fill="rgba(8,0,242,.24705882)"/><path d="M73.523475 36.014025A.47625 .47625 0 0072.570975 36.014025A.47625 .47625 0 0073.523475 36.014025z" fill="rgba(8,0,242,.24705882)"/><path d="M57.902475 41.157525H70.837425V31.33725H57.902475z" style="fill:rgba(8,0,242,.24705882);stroke:rgba(8,0,242,.24705882);stroke-width:.09525;stroke-miterlimit:41.994751"/><path d="M61.922025 36.09975A.47625 .47625 0 0060.969525 36.09975A.47625 .47625 0 0061.922025 36.09975z" fill="rgba(8,0,242,.24705882)"/><path d="M140.84618 75.41895H150.24735V52.0827H140.84618z" style="fill:rgba(8,0,242,.24705882);stroke:rgba(8,0,242,.24705882);stroke-width:.09525;stroke-miterlimit:41.994751"/><path d="M145.3134 58.759725A.47625 .47625 0 00144.3609 58.759725A.47625 .47625 0 00145.3134 58.759725z" fill="rgba(8,0,242,.24705882)"/><path d="M63.8175 49.615725H69.32295V41.16705H63.8175z" style="fill:rgba(8,0,242,.24705882);stroke:rgba(8,0,242,.24705882);stroke-width:.09525;stroke-miterlimit:41.994751"/><path d="M66.23685 45.89145A.47625 .47625 0 0065.28435 45.89145A.47625 .47625 0 0066.23685 45.89145z" fill="rgba(8,0,242,.24705882)"/><path d="M154.31453 71.5899H160.90582V62.550675H154.31453z" style="fill:rgba(8,0,242,.24705882);stroke:rgba(8,0,242,.24705882);stroke-width:.09525;stroke-miterlimit:41.994751"/><path d="M158.33407 68.132325A.47625 .47625 0 00157.38157 68.132325A.47625 .47625 0 00158.33407 68.132325z" fill="rgba(8,0,242,.24705882)"/><path d="M60.436125 76.67625H71.628V49.6062H60.436125z" style="fill:rgba(8,0,242,.24705882);stroke:rgba(8,0,242,.24705882);stroke-width:.09525;stroke-miterlimit:41.994751"/><path d="M66.19875 60.702825A.47625 .47625 0 0065.24625 60.702825A.47625 .47625 0 0066.19875 60.702825z" fill="rgba(8,0,242,.24705882)"/><path d="M105.5751 93.964125A.47625 .47625 0 00104.6226 93.964125A.47625 .47625 0 00105.5751 93.964125z" fill="rgba(8,0,242,.24705882)"/><path d="M125.74905 64.17945H136.398V52.416075H125.74905z" style="fill:rgba(8,0,242,.24705882);stroke:rgba(8,0,242,.24705882);stroke-width:.09525;stroke-miterlimit:41.994751"/><path d="M131.85458 58.15965A.47625 .47625 0 00130.90208 58.15965A.47625 .47625 0 00131.85458 58.15965z" fill="rgba(8,0,242,.24705882)"/><path d="M154.61933 62.54115H161.5059V51.939825H154.61933z" style="fill:rgba(8,0,242,.24705882);stroke:rgba(8,0,242,.24705882);stroke-width:.09525;stroke-miterlimit:41.994751"/><path d="M158.12453 57.902475A.47625 .47625 0 00157.17203 57.902475A.47625 .47625 0 00158.12453 57.902475z" fill="rgba(8,0,242,.24705882)"/><path d="M100.19347 27.689175A.47625 .47625 0 0099.240975 27.689175A.47625 .47625 0 00100.19347 27.689175z" fill="rgba(8,0,242,.24705882)"/><path d="M90.297 35.994975A.47625 .47625 0 0089.3445 35.994975A.47625 .47625 0 0090.297 35.994975z" fill="rgba(8,0,242,.24705882)"/><path d="M102.6795 46.101H136.38847V27.708225H102.6795z" style="fill:rgba(8,0,242,.24705882);stroke:rgba(8,0,242,.24705882);stroke-width:.09525;stroke-miterlimit:41.994751"/><path d="M135.99795 33.442275A.47625 .47625 0 00135.04545 33.442275A.47625 .47625 0 00135.99795 33.442275z" fill="rgba(8,0,242,.24705882)"/><path d="M185.59463 83.9724A.47625 .47625 0 00184.64213 83.9724A.47625 .47625 0 00185.59463 83.9724z" fill="rgba(8,0,242,.24705882)"/><path d="M140.80808 48.44415H152.8953V27.593925H140.80808z" style="fill:rgba(8,0,242,.24705882);stroke:rgba(8,0,242,.24705882);stroke-width:.09525;stroke-miterlimit:41.994751"/><path d="M145.91348 32.946975A.47625 .47625 0 00144.96098 32.946975A.47625 .47625 0 00145.91348 32.946975z" fill="rgba(8,0,242,.24705882)"/><path d="M180.54638 83.439H189.94755V66.227325H180.54638z" style="fill:rgba(8,0,242,.24705882);stroke:rgba(8,0,242,.24705882);stroke-width:.09525;stroke-miterlimit:41.994751"/><path d="M185.68035 76.895325A.47625 .47625 0 00184.72785 76.895325A.47625 .47625 0 00185.68035 76.895325z" fill="rgba(8,0,242,.24705882)"/><path d="M152.88577 48.453675H162.6489V27.632025H152.88577z" style="fill:rgba(8,0,242,.24705882);stroke:rgba(8,0,242,.24705882);stroke-width:.09525;stroke-miterlimit:41.994751"/><path d="M159.5628 42.757725A.47625 .47625 0 00158.6103 42.757725A.47625 .47625 0 00159.5628 42.757725z" fill="rgba(8,0,242,.24705882)"/><path d="M78.209775 98.88855H87.63V81.2673H78.209775z" style="fill:rgba(8,0,242,.24705882);stroke:rgba(8,0,242,.24705882);stroke-width:.09525;stroke-miterlimit:41.994751"/><path d="M83.00085 94.35465A.47625 .47625 0 0082.04835 94.35465A.47625 .47625 0 0083.00085 94.35465z" fill="rgba(8,0,242,.24705882)"/><path d="M185.55652 64.589025A.47625 .47625 0 00184.60403 64.589025A.47625 .47625 0 00185.55652 64.589025z" fill="rgba(8,0,242,.24705882)"/><path d="M78.5241 81.257775H87.601425V62.865H78.5241z" style="fill:rgba(8,0,242,.24705882);stroke:rgba(8,0,242,.24705882);stroke-width:.09525;stroke-miterlimit:41.994751"/><path d="M83.38185 69.9516A.47625 .47625 0 0082.42935 69.9516A.47625 .47625 0 0083.38185 69.9516z" fill="rgba(8,0,242,.24705882)"/><path d="M126.02528 84.63915H136.61707V64.1985H126.02528z" style="fill:rgba(8,0,242,.24705882);stroke:rgba(8,0,242,.24705882);stroke-width:.09525;stroke-miterlimit:41.994751"/><path d="M131.83552 68.82765A.47625 .47625 0 00130.88303 68.82765A.47625 .47625 0 00131.83552 68.82765z" fill="rgba(8,0,242,.24705882)"/><path d="M162.6489 48.072675H175.17427V38.319075H162.6489z" style="fill:rgba(8,0,242,.24705882);stroke:rgba(8,0,242,.24705882);stroke-width:.09525;stroke-miterlimit:41.994751"/><path d="M170.59275 42.99585A.47625 .47625 0 00169.64025 42.99585A.47625 .47625 0 00170.59275 42.99585z" fill="rgba(8,0,242,.24705882)"/><path d="M165.4302 109.728H174.63135V84.705825H165.4302z" style="fill:rgba(8,0,242,.24705882);stroke:rgba(8,0,242,.24705882);stroke-width:.09525;stroke-miterlimit:41.994751"/><path d="M170.52607 104.76548A.47625 .47625 0 00169.57358 104.76548A.47625 .47625 0 00170.52607 104.76548z" fill="rgba(8,0,242,.24705882)"/><path d="M174.83138 61.8363H188.88075V52.0065H174.83138z" style="fill:rgba(8,0,242,.24705882);stroke:rgba(8,0,242,.24705882);stroke-width:.09525;stroke-miterlimit:41.994751"/><path d="M185.11838 57.1119A.47625 .47625 0 00184.16588 57.1119A.47625 .47625 0 00185.11838 57.1119z" fill="rgba(8,0,242,.24705882)"/><path d="M126.111 67.7418A.47625 .47625 0 00125.1585 67.7418A.47625 .47625 0 00126.111 67.7418z" fill="rgba(8,0,242,.24705882)"/><path d="M139.07452 58.7883A.47625 .47625 0 00138.12203 58.7883A.47625 .47625 0 00139.07452 58.7883z" fill="rgba(8,0,242,.24705882)"/><path d="M165.26828 62.303025H174.83138V52.67325H165.26828z" style="fill:rgba(8,0,242,.24705882);stroke:rgba(8,0,242,.24705882);stroke-width:.09525;stroke-miterlimit:41.994751"/><path d="M170.52607 57.216675A.47625 .47625 0 00169.57358 57.216675A.47625 .47625 0 00170.52607 57.216675z" fill="rgba(8,0,242,.24705882)"/><path d="M170.4213 50.453925A.47625 .47625 0 00169.4688 50.453925A.47625 .47625 0 00170.4213 50.453925z" fill="rgba(8,0,242,.24705882)"/><path d="M165.36353 75.4761H174.62183V62.303025H165.36353z" style="fill:rgba(8,0,242,.24705882);stroke:rgba(8,0,242,.24705882);stroke-width:.09525;stroke-miterlimit:41.994751"/><path d="M171.58335 68.56095A.47625 .47625 0 00170.63085 68.56095A.47625 .47625 0 00171.58335 68.56095z" fill="rgba(8,0,242,.24705882)"/><path d="M53.77815 50.682525A.47625 .47625 0 0052.82565 50.682525A.47625 .47625 0 0053.77815 50.682525z" fill="rgba(8,0,242,.24705882)"/><path d="M163.50615 68.018025A.47625 .47625 0 00162.55365 68.018025A.47625 .47625 0 00163.50615 68.018025z" fill="rgba(8,0,242,.24705882)"/><path d="M152.48573 58.854975A.47625 .47625 0 00151.53323 58.854975A.47625 .47625 0 00152.48573 58.854975z" fill="rgba(8,0,242,.24705882)"/><path d="M103.39387 67.64655A.47625 .47625 0 00102.44138 67.64655A.47625 .47625 0 00103.39387 67.64655z" fill="rgba(8,0,242,.24705882)"/><path d="M163.74427 104.4702A.47625 .47625 0 00162.79178 104.4702A.47625 .47625 0 00163.74427 104.4702z" fill="rgba(8,0,242,.24705882)"/><path d="M178.94618 52.0065H188.92838V24.51735H178.94618z" style="fill:rgba(8,0,242,.24705882);stroke:rgba(8,0,242,.24705882);stroke-width:.09525;stroke-miterlimit:41.994751"/><path d="M183.2229 29.384625A.47625 .47625 0 00182.2704 29.384625A.47625 .47625 0 00183.2229 29.384625z" fill="rgba(8,0,242,.24705882)"/><path d="M92.001975 68.67525H102.35565V52.59705H92.001975z" style="fill:rgba(8,0,242,.24705882);stroke:rgba(8,0,242,.24705882);stroke-width:.09525;stroke-miterlimit:41.994751"/><path d="M98.298 67.465575A.47625 .47625 0 0097.3455 67.465575A.47625 .47625 0 0098.298 67.465575z" fill="rgba(8,0,242,.24705882)"/><path d="M90.211275 70.932675A.47625 .47625 0 0089.258775 70.932675A.47625 .47625 0 0090.211275 70.932675z" fill="rgba(8,0,242,.24705882)"/><path d="M97.17405 49.7205A.47625 .47625 0 0096.22155 49.7205A.47625 .47625 0 0097.17405 49.7205z" fill="rgba(8,0,242,.24705882)"/><path d="M92.1639 74.037825H102.78428V68.67525H92.1639z" style="fill:rgba(8,0,242,.24705882);stroke:rgba(8,0,242,.24705882);stroke-width:.09525;stroke-miterlimit:41.994751"/><path d="M97.5741 71.5137A.47625 .47625 0 0096.6216 71.5137A.47625 .47625 0 0097.5741 71.5137z" fill="rgba(8,0,242,.24705882)"/><path d="M81.295875 26.850975H103.60343V17.62125H81.295875z" style="fill:rgba(8,0,242,.24705882);stroke:rgba(8,0,242,.24705882);stroke-width:.09525;stroke-miterlimit:41.994751"/><path d="M100.26968 21.478875A.47625 .47625 0 0099.317175 21.478875A.47625 .47625 0 00100.26968 21.478875z" fill="rgba(8,0,242,.24705882)"/><path d="M91.8972 85.086825H102.91763V74.037825H91.8972z" style="fill:rgba(8,0,242,.24705882);stroke:rgba(8,0,242,.24705882);stroke-width:.09525;stroke-miterlimit:41.994751"/><path d="M97.536 81.772125A.47625 .47625 0 0096.5835 81.772125A.47625 .47625 0 0097.536 81.772125z" fill="rgba(8,0,242,.24705882)"/><path d="M57.912 26.76525H81.3054V17.630775H57.912z" style="fill:rgba(8,0,242,.24705882);stroke:rgba(8,0,242,.24705882);stroke-width:.09525;stroke-miterlimit:41.994751"/><path d="M61.274325 22.61235A.47625 .47625 0 0060.321825 22.61235A.47625 .47625 0 0061.274325 22.61235z" fill="rgba(8,0,242,.24705882)"/><path d="M90.3351 93.926025A.47625 .47625 0 0089.3826 93.926025A.47625 .47625 0 0090.3351 93.926025z" fill="rgba(8,0,242,.24705882)"/><path d="M57.883425 49.577625H63.8175V41.157525H57.883425z" style="fill:rgba(8,0,242,.24705882);stroke:rgba(8,0,242,.24705882);stroke-width:.09525;stroke-miterlimit:41.994751"/><path d="M61.636275 44.8818A.47625 .47625 0 0060.683775 44.8818A.47625 .47625 0 0061.636275 44.8818z" fill="rgba(8,0,242,.24705882)"/><path d="M92.22105 48.0822H102.66997V28.3464H92.22105z" style="fill:rgba(8,0,242,.24705882);stroke:rgba(8,0,242,.24705882);stroke-width:.09525;stroke-miterlimit:41.994751"/><path d="M100.63162 36.02355A.47625 .47625 0 0099.679125 36.02355A.47625 .47625 0 00100.63162 36.02355z" fill="rgba(8,0,242,.24705882)"/><path d="M170.1165 42.99585L159.08655 42.757725" style="fill:none;stroke:rgba(8,0,242,.24705882);stroke-width:.09525;stroke-miterlimit:41.994751"/><path d="M61.445775 36.09975L61.160025 44.8818" style="fill:none;stroke:rgba(8,0,242,.24705882);stroke-width:.09525;stroke-miterlimit:41.994751"/><path d="M100.15538 36.02355L96.6978 49.7205" style="fill:none;stroke:rgba(8,0,242,.24705882);stroke-width:.09525;stroke-miterlimit:41.994751"/><path d="M100.15538 36.02355L135.5217 33.442275" style="fill:none;stroke:rgba(8,0,242,.24705882);stroke-width:.09525;stroke-miterlimit:41.994751"/><path d="M89.85885 93.926025L105.09885 93.964125" style="fill:none;stroke:rgba(8,0,242,.24705882);stroke-width:.09525;stroke-miterlimit:41.994751"/><path d="M60.798075 22.61235L60.86475 29.022675" style="fill:none;stroke:rgba(8,0,242,.24705882);stroke-width:.09525;stroke-miterlimit:41.994751"/><path d="M97.09785 71.5137L97.82175 67.465575" style="fill:none;stroke:rgba(8,0,242,.24705882);stroke-width:.09525;stroke-miterlimit:41.994751"/><path d="M97.09785 71.5137L97.05975 81.772125" style="fill:none;stroke:rgba(8,0,242,.24705882);stroke-width:.09525;stroke-miterlimit:41.994751"/><path d="M99.793425 21.478875L60.798075 22.61235" style="fill:none;stroke:rgba(8,0,242,.24705882);stroke-width:.09525;stroke-miterlimit:41.994751"/><path d="M89.735025 70.932675L82.9056 69.9516" style="fill:none;stroke:rgba(8,0,242,.24705882);stroke-width:.09525;stroke-miterlimit:41.994751"/><path d="M89.735025 70.932675L97.09785 71.5137" style="fill:none;stroke:rgba(8,0,242,.24705882);stroke-width:.09525;stroke-miterlimit:41.994751"/><path d="M96.6978 49.7205L97.82175 67.465575" style="fill:none;stroke:rgba(8,0,242,.24705882);stroke-width:.09525;stroke-miterlimit:41.994751"/><path d="M163.26802 104.4702L170.04982 104.76547" style="fill:none;stroke:rgba(8,0,242,.24705882);stroke-width:.09525;stroke-miterlimit:41.994751"/><path d="M97.82175 67.465575L102.91763 67.64655" style="fill:none;stroke:rgba(8,0,242,.24705882);stroke-width:.09525;stroke-miterlimit:41.994751"/><path d="M152.00948 58.854975L157.64828 57.902475" style="fill:none;stroke:rgba(8,0,242,.24705882);stroke-width:.09525;stroke-miterlimit:41.994751"/><path d="M170.6118 79.276575L170.04982 104.76547" style="fill:none;stroke:rgba(8,0,242,.24705882);stroke-width:.09525;stroke-miterlimit:41.994751"/><path d="M163.0299 68.018025L157.85782 68.132325" style="fill:none;stroke:rgba(8,0,242,.24705882);stroke-width:.09525;stroke-miterlimit:41.994751"/><path d="M150.58073 103.30815L163.26802 104.4702" style="fill:none;stroke:rgba(8,0,242,.24705882);stroke-width:.09525;stroke-miterlimit:41.994751"/><path d="M171.1071 68.56095L170.04982 57.216675" style="fill:none;stroke:rgba(8,0,242,.24705882);stroke-width:.09525;stroke-miterlimit:41.994751"/><path d="M53.39715 44.815125L53.3019 50.682525" style="fill:none;stroke:rgba(8,0,242,.24705882);stroke-width:.09525;stroke-miterlimit:41.994751"/><path d="M138.59828 58.7883L144.83715 58.759725" style="fill:none;stroke:rgba(8,0,242,.24705882);stroke-width:.09525;stroke-miterlimit:41.994751"/><path d="M171.1071 68.56095L170.6118 79.276575" style="fill:none;stroke:rgba(8,0,242,.24705882);stroke-width:.09525;stroke-miterlimit:41.994751"/><path d="M171.1071 68.56095L163.0299 68.018025" style="fill:none;stroke:rgba(8,0,242,.24705882);stroke-width:.09525;stroke-miterlimit:41.994751"/><path d="M53.39715 44.815125L61.160025 44.8818" style="fill:none;stroke:rgba(8,0,242,.24705882);stroke-width:.09525;stroke-miterlimit:41.994751"/><path d="M169.94505 50.453925L170.04982 57.216675" style="fill:none;stroke:rgba(8,0,242,.24705882);stroke-width:.09525;stroke-miterlimit:41.994751"/><path d="M169.94505 50.453925L170.1165 42.99585" style="fill:none;stroke:rgba(8,0,242,.24705882);stroke-width:.09525;stroke-miterlimit:41.994751"/><path d="M170.04982 57.216675L184.64213 57.1119" style="fill:none;stroke:rgba(8,0,242,.24705882);stroke-width:.09525;stroke-miterlimit:41.994751"/><path d="M145.97063 79.562325L170.6118 79.276575" style="fill:none;stroke:rgba(8,0,242,.24705882);stroke-width:.09525;stroke-miterlimit:41.994751"/><path d="M89.82075 35.994975L100.15538 36.02355" style="fill:none;stroke:rgba(8,0,242,.24705882);stroke-width:.09525;stroke-miterlimit:41.994751"/><path d="M89.82075 35.994975L79.41945 35.8521" style="fill:none;stroke:rgba(8,0,242,.24705882);stroke-width:.09525;stroke-miterlimit:41.994751"/><path d="M184.64213 57.1119L182.74665 29.384625" style="fill:none;stroke:rgba(8,0,242,.24705882);stroke-width:.09525;stroke-miterlimit:41.994751"/><path d="M125.63475 67.7418L131.35927 68.82765" style="fill:none;stroke:rgba(8,0,242,.24705882);stroke-width:.09525;stroke-miterlimit:41.994751"/><path d="M185.08028 64.589025L184.64213 57.1119" style="fill:none;stroke:rgba(8,0,242,.24705882);stroke-width:.09525;stroke-miterlimit:41.994751"/><path d="M82.9056 69.9516L82.5246 94.35465" style="fill:none;stroke:rgba(8,0,242,.24705882);stroke-width:.09525;stroke-miterlimit:41.994751"/><path d="M185.2041 76.895325L185.08028 64.589025" style="fill:none;stroke:rgba(8,0,242,.24705882);stroke-width:.09525;stroke-miterlimit:41.994751"/><path d="M145.43723 32.946975L159.08655 42.757725" style="fill:none;stroke:rgba(8,0,242,.24705882);stroke-width:.09525;stroke-miterlimit:41.994751"/><path d="M185.11838 83.9724L185.2041 76.895325" style="fill:none;stroke:rgba(8,0,242,.24705882);stroke-width:.09525;stroke-miterlimit:41.994751"/><path d="M135.5217 33.442275L145.43723 32.946975" style="fill:none;stroke:rgba(8,0,242,.24705882);stroke-width:.09525;stroke-miterlimit:41.994751"/><path d="M82.5246 94.35465L89.85885 93.926025" style="fill:none;stroke:rgba(8,0,242,.24705882);stroke-width:.09525;stroke-miterlimit:41.994751"/><path d="M99.717225 27.689175L99.793425 21.478875" style="fill:none;stroke:rgba(8,0,242,.24705882);stroke-width:.09525;stroke-miterlimit:41.994751"/><path d="M99.717225 27.689175L100.15538 36.02355" style="fill:none;stroke:rgba(8,0,242,.24705882);stroke-width:.09525;stroke-miterlimit:41.994751"/><path d="M131.35927 68.82765L131.37833 58.15965" style="fill:none;stroke:rgba(8,0,242,.24705882);stroke-width:.09525;stroke-miterlimit:41.994751"/><path d="M65.7225 60.702825L65.7606 45.89145" style="fill:none;stroke:rgba(8,0,242,.24705882);stroke-width:.09525;stroke-miterlimit:41.994751"/><path d="M157.85782 68.132325L157.64828 57.902475" style="fill:none;stroke:rgba(8,0,242,.24705882);stroke-width:.09525;stroke-miterlimit:41.994751"/><path d="M65.7606 45.89145L70.513575 46.23435" style="fill:none;stroke:rgba(8,0,242,.24705882);stroke-width:.09525;stroke-miterlimit:41.994751"/><path d="M131.37833 58.15965L138.59828 58.7883" style="fill:none;stroke:rgba(8,0,242,.24705882);stroke-width:.09525;stroke-miterlimit:41.994751"/><path d="M61.160025 44.8818L65.7606 45.89145" style="fill:none;stroke:rgba(8,0,242,.24705882);stroke-width:.09525;stroke-miterlimit:41.994751"/><path d="M61.445775 36.09975L73.047225 36.014025" style="fill:none;stroke:rgba(8,0,242,.24705882);stroke-width:.09525;stroke-miterlimit:41.994751"/><path d="M144.83715 58.759725L152.00948 58.854975" style="fill:none;stroke:rgba(8,0,242,.24705882);stroke-width:.09525;stroke-miterlimit:41.994751"/><path d="M73.047225 36.014025L79.41945 35.8521" style="fill:none;stroke:rgba(8,0,242,.24705882);stroke-width:.09525;stroke-miterlimit:41.994751"/><path d="M144.83715 58.759725L145.97063 79.562325" style="fill:none;stroke:rgba(8,0,242,.24705882);stroke-width:.09525;stroke-miterlimit:41.994751"/><path d="M60.86475 29.022675L61.445775 36.09975" style="fill:none;stroke:rgba(8,0,242,.24705882);stroke-width:.09525;stroke-miterlimit:41.994751"/><path d="M72.837675 46.3677L70.513575 46.23435" style="fill:none;stroke:rgba(4,0,246,.24705882);stroke-width:.09525;stroke-miterlimit:41.994751"/><path d="M120.71033 67.941825L125.63475 67.7418" style="fill:none;stroke:rgba(4,0,250,.24705882);stroke-width:.09525;stroke-miterlimit:41.994751"/><path d="M102.91763 67.64655L107.98493 67.7799" style="fill:none;stroke:rgba(4,0,250,.24705882);stroke-width:.09525;stroke-miterlimit:41.994751"/><path d="M73.313925 46.3677A.47625 .47625 0 0072.361425 46.3677A.47625 .47625 0 0073.313925 46.3677z" fill="rgba(0,0,250,.24705882)"/><path d="M74.50455 46.472475L72.837675 46.3677" style="fill:none;stroke:rgba(0,0,255,.24705882);stroke-width:.09525;stroke-miterlimit:41.994751"/><path d="M114.3762 72.10425H121.13895V63.76035H114.3762z" style="fill:rgba(0,0,255,.24705882);stroke:rgba(0,0,255,.24705882);stroke-width:.09525;stroke-miterlimit:41.994751"/><path d="M121.18658 67.941825A.47625 .47625 0 00120.23408 67.941825A.47625 .47625 0 00121.18658 67.941825z" fill="rgba(0,0,255,.24705882)"/><path d="M107.46105 72.02805H114.35715V63.7413H107.46105z" style="fill:rgba(0,0,255,.24705882);stroke:rgba(0,0,255,.24705882);stroke-width:.09525;stroke-miterlimit:41.994751"/><path d="M108.46117 67.7799A.47625 .47625 0 00107.50868 67.7799A.47625 .47625 0 00108.46117 67.7799z" fill="rgba(0,0,255,.24705882)"/><path d="M76.18095 61.05525H81.524475V43.52925H76.18095z" style="fill:rgba(0,0,255,.24705882);stroke:rgba(0,0,255,.24705882);stroke-width:.09525;stroke-miterlimit:41.994751"/><path d="M79.143225 46.701075A.47625 .47625 0 0078.190725 46.701075A.47625 .47625 0 0079.143225 46.701075z" fill="rgba(0,0,255,.24705882)"/><path d="M74.9808 46.472475A.47625 .47625 0 0074.0283 46.472475A.47625 .47625 0 0074.9808 46.472475z" fill="rgba(0,0,255,.24705882)"/><path d="M107.98493 67.7799L120.71033 67.941825" style="fill:none;stroke:rgba(0,0,255,.24705882);stroke-width:.09525;stroke-miterlimit:41.994751"/><path d="M78.666975 46.701075L74.50455 46.472475" style="fill:none;stroke:rgba(0,0,255,.24705882);stroke-width:.09525;stroke-miterlimit:41.994751"/></svg>