<svg version="1.1" width="131.2545mm" height="128.5875mm" viewBox="0 0 131.2545 128.5875" xmlns="http://www.w3.org/2000/svg" xmlns:xlink="http://www.w3.org/1999/xlink"><path d="M73.43775 91.72575H75.34275" style="fill:none;stroke:#f00;stroke-width:.09525;stroke-miterlimit:41.994751"/><path d="M73.43775 91.72575V89.82075" style="fill:none;stroke:#0f0;stroke-width:.09525;stroke-miterlimit:41.994751"/><path d="M47.729775 39.624A.47625 .47625 0 0046.777275 39.624A.47625 .47625 0 0047.729775 39.624z" fill="rgba(255,0,0,.24705882)"/><path d="M22.00275 69.1515H46.76775V35.33775H22.00275z" style="fill:rgba(255,0,0,.24705882);stroke:rgba(255,0,0,.24705882);stroke-width:.09525;stroke-miterlimit:41.994751"/><path d="M42.757725 39.633525A.47625 .47625 0 0041.805225 39.633525A.47625 .47625 0 0042.757725 39.633525z" fill="rgba(255,0,0,.24705882)"/><path d="M25.81275 102.25088H42.95775V69.5325H25.81275z" style="fill:rgba(255,0,0,.24705882);stroke:rgba(255,0,0,.24705882);stroke-width:.09525;stroke-miterlimit:41.994751"/><path d="M34.680525 73.914A.47625 .47625 0 0033.728025 73.914A.47625 .47625 0 0034.680525 73.914z" fill="rgba(255,0,0,.24705882)"/><path d="M45.177075 71.91375A.47625 .47625 0 0044.224575 71.91375A.47625 .47625 0 0045.177075 71.91375z" fill="rgba(255,0,0,.24705882)"/><path d="M47.52975 43.71975H59.72175V35.33775H47.52975z" style="fill:rgba(255,0,0,.24705882);stroke:rgba(255,0,0,.24705882);stroke-width:.09525;stroke-miterlimit:41.994751"/><path d="M49.4919 39.443025A.47625 .47625 0 0048.5394 39.443025A.47625 .47625 0 0049.4919 39.443025z" fill="rgba(255,0,0,.24705882)"/><path d="M42.281475 39.633525L47.253525 39.624" style="fill:none;stroke:rgba(255,0,0,.24705882);stroke-width:.09525;stroke-miterlimit:41.994751"/><path d="M44.700825 71.91375L34.204275 73.914" style="fill:none;stroke:rgba(255,0,0,.24705882);stroke-width:.09525;stroke-miterlimit:41.994751"/><path d="M47.253525 39.624L49.01565 39.443025" style="fill:none;stroke:rgba(255,0,0,.24705882);stroke-width:.09525;stroke-miterlimit:41.994751"/><path d="M62.00775 39.26205L49.01565 39.443025" style="fill:none;stroke:rgba(234,0,16,.24705882);stroke-width:.09525;stroke-miterlimit:41.994751"/><path d="M34.204275 73.914L34.30905 101.4603" style="fill:none;stroke:rgba(230,0,24,.24705882);stroke-width:.09525;stroke-miterlimit:41.994751"/><path d="M56.67375 43.71975H65.81775V35.33775H56.67375z" style="fill:rgba(218,0,36,.24705882);stroke:rgba(218,0,36,.24705882);stroke-width:.09525;stroke-miterlimit:41.994751"/><path d="M62.484 39.26205A.47625 .47625 0 0061.5315 39.26205A.47625 .47625 0 0062.484 39.26205z" fill="rgba(218,0,36,.24705882)"/><path d="M25.81275 118.97678H42.95775V88.3539H25.81275z" style="fill:rgba(206,0,48,.24705882);stroke:rgba(206,0,48,.24705882);stroke-width:.09525;stroke-miterlimit:41.994751"/><path d="M34.7853 101.4603A.47625 .47625 0 0033.8328 101.4603A.47625 .47625 0 0034.7853 101.4603z" fill="rgba(206,0,48,.24705882)"/><path d="M69.713475 39.404925L62.00775 39.26205" style="fill:none;stroke:rgba(194,0,60,.24705882);stroke-width:.09525;stroke-miterlimit:41.994751"/><path d="" style="fill:none;stroke:rgba(194,0,60,.24705882);stroke-width:.09525;stroke-miterlimit:41.994751"/><path d="M34.30905 101.4603L34.34715 118.44338" style="fill:none;stroke:rgba(182,0,72,.24705882);stroke-width:.09525;stroke-miterlimit:41.994751"/><path d="M34.88055 72.247125A.47625 .47625 0 0033.92805 72.247125A.47625 .47625 0 0034.88055 72.247125z" fill="rgba(174,0,80,.24705882)"/><path d="M64.10325 43.71975H76.48575V35.33775H64.10325z" style="fill:rgba(174,0,80,.24705882);stroke:rgba(174,0,80,.24705882);stroke-width:.09525;stroke-miterlimit:41.994751"/><path d="M70.189725 39.404925A.47625 .47625 0 0069.237225 39.404925A.47625 .47625 0 0070.189725 39.404925z" fill="rgba(174,0,80,.24705882)"/><path d="M25.81275 128.30175H42.95775V103.73677H25.81275z" style="fill:rgba(157,0,93,.24705882);stroke:rgba(157,0,93,.24705882);stroke-width:.09525;stroke-miterlimit:41.994751"/><path d="M34.8234 118.44338A.47625 .47625 0 0033.8709 118.44338A.47625 .47625 0 0034.8234 118.44338z" fill="rgba(157,0,93,.24705882)"/><path d="M34.34715 118.44338L41.529 118.73865" style="fill:none;stroke:rgba(157,0,97,.24705882);stroke-width:.09525;stroke-miterlimit:41.994751"/><path d="M42.00525 118.73865A.47625 .47625 0 0041.05275 118.73865A.47625 .47625 0 0042.00525 118.73865z" fill="rgba(157,0,97,.24705882)"/><path d="M26.8986 119.634L34.34715 118.44338" style="fill:none;stroke:rgba(157,0,97,.24705882);stroke-width:.09525;stroke-miterlimit:41.994751"/><path d="M27.37485 119.634A.47625 .47625 0 0026.42235 119.634A.47625 .47625 0 0027.37485 119.634z" fill="rgba(153,0,101,.24705882)"/><path d="M34.4043 72.247125L34.566225 69.28485" style="fill:none;stroke:rgba(153,0,101,.24705882);stroke-width:.09525;stroke-miterlimit:41.994751"/><path d="M69.713475 39.404925L77.24775 39.3573" style="fill:none;stroke:rgba(153,0,101,.24705882);stroke-width:.09525;stroke-miterlimit:41.994751"/><path d="M41.529 118.73865L44.224575 118.6434" style="fill:none;stroke:rgba(145,0,109,.24705882);stroke-width:.09525;stroke-miterlimit:41.994751"/><path d="M24.888825 119.49113L26.8986 119.634" style="fill:none;stroke:rgba(141,0,109,.24705882);stroke-width:.09525;stroke-miterlimit:41.994751"/><path d="M46.00575 127.15875H130.96875V76.86675H46.00575z" style="fill:rgba(129,0,121,.24705882);stroke:rgba(129,0,121,.24705882);stroke-width:.09525;stroke-miterlimit:41.994751"/><path d="M83.2866 85.9155A.47625 .47625 0 0082.3341 85.9155A.47625 .47625 0 0083.2866 85.9155z" fill="rgba(129,0,121,.24705882)"/><path d="M46.586775 68.33235A.47625 .47625 0 0045.634275 68.33235A.47625 .47625 0 0046.586775 68.33235z" fill="rgba(129,0,121,.24705882)"/><path d="M44.700825 118.6434A.47625 .47625 0 0043.748325 118.6434A.47625 .47625 0 0044.700825 118.6434z" fill="rgba(129,0,121,.24705882)"/><path d="M25.365075 119.49113A.47625 .47625 0 0024.412575 119.49113A.47625 .47625 0 0025.365075 119.49113z" fill="rgba(129,0,121,.24705882)"/><path d="M65.62725 44.10075H70.856475V43.71975H65.62725z" style="fill:rgba(129,0,121,.24705882);stroke:rgba(129,0,121,.24705882);stroke-width:.09525;stroke-miterlimit:41.994751"/><path d="M70.92315 43.8912A.47625 .47625 0 0069.97065 43.8912A.47625 .47625 0 0070.92315 43.8912z" fill="rgba(129,0,121,.24705882)"/><path d="M65.7987 35.0901A.47625 .47625 0 0064.8462 35.0901A.47625 .47625 0 0065.7987 35.0901z" fill="rgba(129,0,121,.24705882)"/><path d="M59.72175 44.10075H65.62725V34.95675H59.72175z" style="fill:rgba(129,0,121,.24705882);stroke:rgba(129,0,121,.24705882);stroke-width:.09525;stroke-miterlimit:41.994751"/><path d="M63.179325 39.7002A.47625 .47625 0 0062.226825 39.7002A.47625 .47625 0 0063.179325 39.7002z" fill="rgba(129,0,121,.24705882)"/><path d="M45.177075 71.91375A.47625 .47625 0 0044.224575 71.91375A.47625 .47625 0 0045.177075 71.91375z" fill="rgba(129,0,121,.24705882)"/><path d="M78.476475 54.416325A.47625 .47625 0 0077.523975 54.416325A.47625 .47625 0 0078.476475 54.416325z" fill="rgba(129,0,121,.24705882)"/><path d="M75.428475 43.71975H78.39075V35.33775H75.428475z" style="fill:rgba(129,0,121,.24705882);stroke:rgba(129,0,121,.24705882);stroke-width:.09525;stroke-miterlimit:41.994751"/><path d="M77.724 39.3573A.47625 .47625 0 0076.7715 39.3573A.47625 .47625 0 0077.724 39.3573z" fill="rgba(129,0,121,.24705882)"/><path d="M6.753225 42.27195A.47625 .47625 0 005.800725 42.27195A.47625 .47625 0 006.753225 42.27195z" fill="rgba(129,0,121,.24705882)"/><path d="M33.81375 14.76375H58.19775V1.04775H33.81375z" style="fill:rgba(129,0,121,.24705882);stroke:rgba(129,0,121,.24705882);stroke-width:.09525;stroke-miterlimit:41.994751"/><path d="M47.5488 8.296275A.47625 .47625 0 0046.5963 8.296275A.47625 .47625 0 0047.5488 8.296275z" fill="rgba(129,0,121,.24705882)"/><path d="M83.867625 66.398775A.47625 .47625 0 0082.915125 66.398775A.47625 .47625 0 0083.867625 66.398775z" fill="rgba(129,0,121,.24705882)"/><path d="M34.11855 25.365075A.47625 .47625 0 0033.16605 25.365075A.47625 .47625 0 0034.11855 25.365075z" fill="rgba(129,0,121,.24705882)"/><path d="M.28575 128.30175H4.85775V.28575H.28575z" style="fill:rgba(129,0,121,.24705882);stroke:rgba(129,0,121,.24705882);stroke-width:.09525;stroke-miterlimit:41.994751"/><path d="M2.428875 42.033825A.47625 .47625 0 001.476375 42.033825A.47625 .47625 0 002.428875 42.033825z" fill="rgba(129,0,121,.24705882)"/><path d="M78.514575 31.3182A.47625 .47625 0 0077.562075 31.3182A.47625 .47625 0 0078.514575 31.3182z" fill="rgba(129,0,121,.24705882)"/><path d="M88.29675 44.10075H108.29925V17.04975H88.29675z" style="fill:rgba(129,0,121,.24705882);stroke:rgba(129,0,121,.24705882);stroke-width:.09525;stroke-miterlimit:41.994751"/><path d="M96.25965 36.052125A.47625 .47625 0 0095.30715 36.052125A.47625 .47625 0 0096.25965 36.052125z" fill="rgba(129,0,121,.24705882)"/><path d="M59.15025 66.38925H77.62875V44.86275H59.15025z" style="fill:rgba(129,0,121,.24705882);stroke:rgba(129,0,121,.24705882);stroke-width:.09525;stroke-miterlimit:41.994751"/><path d="M69.103875 54.644925A.47625 .47625 0 0068.151375 54.644925A.47625 .47625 0 0069.103875 54.644925z" fill="rgba(129,0,121,.24705882)"/><path d="M13.43025 42.76725H33.43275V14.95425H13.43025z" style="fill:rgba(129,0,121,.24705882);stroke:rgba(129,0,121,.24705882);stroke-width:.09525;stroke-miterlimit:41.994751"/><path d="M23.955375 29.88945A.47625 .47625 0 0023.002875 29.88945A.47625 .47625 0 0023.955375 29.88945z" fill="rgba(129,0,121,.24705882)"/><path d="M78.39075 65.81775H88.29675V44.10075H78.39075z" style="fill:rgba(129,0,121,.24705882);stroke:rgba(129,0,121,.24705882);stroke-width:.09525;stroke-miterlimit:41.994751"/><path d="M83.6676 54.08295A.47625 .47625 0 0082.7151 54.08295A.47625 .47625 0 0083.6676 54.08295z" fill="rgba(129,0,121,.24705882)"/><path d="M65.62725 35.33775H71.0184V34.95675H65.62725z" style="fill:rgba(129,0,121,.24705882);stroke:rgba(129,0,121,.24705882);stroke-width:.09525;stroke-miterlimit:41.994751"/><path d="M70.970775 35.10915A.47625 .47625 0 0070.018275 35.10915A.47625 .47625 0 0070.970775 35.10915z" fill="rgba(129,0,121,.24705882)"/><path d="M97.431225 44.4627A.47625 .47625 0 0096.478725 44.4627A.47625 .47625 0 0097.431225 44.4627z" fill="rgba(129,0,121,.24705882)"/><path d="M59.15025 34.19475H77.62875V17.04975H59.15025z" style="fill:rgba(129,0,121,.24705882);stroke:rgba(129,0,121,.24705882);stroke-width:.09525;stroke-miterlimit:41.994751"/><path d="M68.9229 26.355675A.47625 .47625 0 0067.9704 26.355675A.47625 .47625 0 0068.9229 26.355675z" fill="rgba(129,0,121,.24705882)"/><path d="M35.042475 69.28485A.47625 .47625 0 0034.089975 69.28485A.47625 .47625 0 0035.042475 69.28485z" fill="rgba(129,0,121,.24705882)"/><path d="M46.00575 76.86675H58.19775V67.34175H46.00575z" style="fill:rgba(129,0,121,.24705882);stroke:rgba(129,0,121,.24705882);stroke-width:.09525;stroke-miterlimit:41.994751"/><path d="M53.66385 71.6661A.47625 .47625 0 0052.71135 71.6661A.47625 .47625 0 0053.66385 71.6661z" fill="rgba(129,0,121,.24705882)"/><path d="M65.7225 43.881675A.47625 .47625 0 0064.77 43.881675A.47625 .47625 0 0065.7225 43.881675z" fill="rgba(129,0,121,.24705882)"/><path d="M25.81275 69.62775H45.62475V67.34175H25.81275z" style="fill:rgba(129,0,121,.24705882);stroke:rgba(129,0,121,.24705882);stroke-width:.09525;stroke-miterlimit:41.994751"/><path d="M35.709225 67.979925A.47625 .47625 0 0034.756725 67.979925A.47625 .47625 0 0035.709225 67.979925z" fill="rgba(129,0,121,.24705882)"/><path d="M23.52675 69.62775H25.81275V67.34175H23.52675z" style="fill:rgba(129,0,121,.24705882);stroke:rgba(129,0,121,.24705882);stroke-width:.09525;stroke-miterlimit:41.994751"/><path d="M24.7269 68.0466A.47625 .47625 0 0023.7744 68.0466A.47625 .47625 0 0024.7269 68.0466z" fill="rgba(129,0,121,.24705882)"/><path d="M58.19775 76.86675H81.05775V67.34175H58.19775z" style="fill:rgba(129,0,121,.24705882);stroke:rgba(129,0,121,.24705882);stroke-width:.09525;stroke-miterlimit:41.994751"/><path d="M69.2658 72.456675A.47625 .47625 0 0068.3133 72.456675A.47625 .47625 0 0069.2658 72.456675z" fill="rgba(129,0,121,.24705882)"/><path d="M23.52675 128.30175H25.81275V69.62775H23.52675z" style="fill:rgba(129,0,121,.24705882);stroke:rgba(129,0,121,.24705882);stroke-width:.09525;stroke-miterlimit:41.994751"/><path d="M24.4221 97.107375A.47625 .47625 0 0023.4696 97.107375A.47625 .47625 0 0024.4221 97.107375z" fill="rgba(129,0,121,.24705882)"/><path d="M81.05775 76.86675H85.62975V67.34175H81.05775z" style="fill:rgba(129,0,121,.24705882);stroke:rgba(129,0,121,.24705882);stroke-width:.09525;stroke-miterlimit:41.994751"/><path d="M84.4296 72.399525A.47625 .47625 0 0083.4771 72.399525A.47625 .47625 0 0084.4296 72.399525z" fill="rgba(129,0,121,.24705882)"/><path d="M42.95775 128.30175H45.62475V76.86675H42.95775z" style="fill:rgba(129,0,121,.24705882);stroke:rgba(129,0,121,.24705882);stroke-width:.09525;stroke-miterlimit:41.994751"/><path d="M44.815125 101.06978A.47625 .47625 0 0043.862625 101.06978A.47625 .47625 0 0044.815125 101.06978z" fill="rgba(129,0,121,.24705882)"/><path d="M42.95775 76.86675H45.62475V74.19975H42.95775z" style="fill:rgba(129,0,121,.24705882);stroke:rgba(129,0,121,.24705882);stroke-width:.09525;stroke-miterlimit:41.994751"/><path d="M44.67225 75.523725A.47625 .47625 0 0043.71975 75.523725A.47625 .47625 0 0044.67225 75.523725z" fill="rgba(129,0,121,.24705882)"/><path d="M85.62975 76.86675H109.25175V67.34175H85.62975z" style="fill:rgba(129,0,121,.24705882);stroke:rgba(129,0,121,.24705882);stroke-width:.09525;stroke-miterlimit:41.994751"/><path d="M97.32645 72.44715A.47625 .47625 0 0096.37395 72.44715A.47625 .47625 0 0097.32645 72.44715z" fill="rgba(129,0,121,.24705882)"/><path d="M46.42485 75.542775A.47625 .47625 0 0045.47235 75.542775A.47625 .47625 0 0046.42485 75.542775z" fill="rgba(129,0,121,.24705882)"/><path d="M5.23875 127.15875H23.14575V66.96075H5.23875z" style="fill:rgba(129,0,121,.24705882);stroke:rgba(129,0,121,.24705882);stroke-width:.09525;stroke-miterlimit:41.994751"/><path d="M15.630525 89.430225A.47625 .47625 0 0014.678025 89.430225A.47625 .47625 0 0015.630525 89.430225z" fill="rgba(129,0,121,.24705882)"/><path d="M46.00575 67.34175H58.19775V42.95775H46.00575z" style="fill:rgba(129,0,121,.24705882);stroke:rgba(129,0,121,.24705882);stroke-width:.09525;stroke-miterlimit:41.994751"/><path d="M52.701825 53.9877A.47625 .47625 0 0051.749325 53.9877A.47625 .47625 0 0052.701825 53.9877z" fill="rgba(129,0,121,.24705882)"/><path d="M78.39075 44.10075H88.29675V34.95675H78.39075z" style="fill:rgba(129,0,121,.24705882);stroke:rgba(129,0,121,.24705882);stroke-width:.09525;stroke-miterlimit:41.994751"/><path d="M83.391375 39.119175A.47625 .47625 0 0082.438875 39.119175A.47625 .47625 0 0083.391375 39.119175z" fill="rgba(129,0,121,.24705882)"/><path d="M109.25175 76.86675H130.96875V67.34175H109.25175z" style="fill:rgba(129,0,121,.24705882);stroke:rgba(129,0,121,.24705882);stroke-width:.09525;stroke-miterlimit:41.994751"/><path d="M119.53875 72.513825A.47625 .47625 0 00118.58625 72.513825A.47625 .47625 0 00119.53875 72.513825z" fill="rgba(129,0,121,.24705882)"/><path d="M23.14575 66.96075H33.81375V42.95775H23.14575z" style="fill:rgba(129,0,121,.24705882);stroke:rgba(129,0,121,.24705882);stroke-width:.09525;stroke-miterlimit:41.994751"/><path d="M27.90825 54.95925A.47625 .47625 0 0026.95575 54.95925A.47625 .47625 0 0027.90825 54.95925z" fill="rgba(129,0,121,.24705882)"/><path d="M5.23875 66.96075H23.14575V42.95775H5.23875z" style="fill:rgba(129,0,121,.24705882);stroke:rgba(129,0,121,.24705882);stroke-width:.09525;stroke-miterlimit:41.994751"/><path d="M15.37335 54.778275A.47625 .47625 0 0014.42085 54.778275A.47625 .47625 0 0015.37335 54.778275z" fill="rgba(129,0,121,.24705882)"/><path d="M109.25175 67.34175H130.96875V15.52575H109.25175z" style="fill:rgba(129,0,121,.24705882);stroke:rgba(129,0,121,.24705882);stroke-width:.09525;stroke-miterlimit:41.994751"/><path d="M118.72912 40.005A.47625 .47625 0 00117.77662 40.005A.47625 .47625 0 00118.72912 40.005z" fill="rgba(129,0,121,.24705882)"/><path d="M33.81375 66.96075H46.00575V42.95775H33.81375z" style="fill:rgba(129,0,121,.24705882);stroke:rgba(129,0,121,.24705882);stroke-width:.09525;stroke-miterlimit:41.994751"/><path d="M44.605575 53.47335A.47625 .47625 0 0043.653075 53.47335A.47625 .47625 0 0044.605575 53.47335z" fill="rgba(129,0,121,.24705882)"/><path d="M33.81375 42.95775H58.19775V14.76375H33.81375z" style="fill:rgba(129,0,121,.24705882);stroke:rgba(129,0,121,.24705882);stroke-width:.09525;stroke-miterlimit:41.994751"/><path d="M46.948725 27.841575A.47625 .47625 0 0045.996225 27.841575A.47625 .47625 0 0046.948725 27.841575z" fill="rgba(129,0,121,.24705882)"/><path d="M78.39075 34.95675H88.29675V16.47825H78.39075z" style="fill:rgba(129,0,121,.24705882);stroke:rgba(129,0,121,.24705882);stroke-width:.09525;stroke-miterlimit:41.994751"/><path d="M83.372325 31.765875A.47625 .47625 0 0082.419825 31.765875A.47625 .47625 0 0083.372325 31.765875z" fill="rgba(129,0,121,.24705882)"/><path d="M5.23875 42.95775H13.23975V14.76375H5.23875z" style="fill:rgba(129,0,121,.24705882);stroke:rgba(129,0,121,.24705882);stroke-width:.09525;stroke-miterlimit:41.994751"/><path d="M9.229725 28.355925A.47625 .47625 0 008.277225 28.355925A.47625 .47625 0 009.229725 28.355925z" fill="rgba(129,0,121,.24705882)"/><path d="M5.23875 14.76375H13.23975V1.04775H5.23875z" style="fill:rgba(129,0,121,.24705882);stroke:rgba(129,0,121,.24705882);stroke-width:.09525;stroke-miterlimit:41.994751"/><path d="M9.9822 7.5438A.47625 .47625 0 009.0297 7.5438A.47625 .47625 0 009.9822 7.5438z" fill="rgba(129,0,121,.24705882)"/><path d="M109.25175 15.52575H130.96875V1.04775H109.25175z" style="fill:rgba(129,0,121,.24705882);stroke:rgba(129,0,121,.24705882);stroke-width:.09525;stroke-miterlimit:41.994751"/><path d="M119.80545 9.6012A.47625 .47625 0 00118.85295 9.6012A.47625 .47625 0 00119.80545 9.6012z" fill="rgba(129,0,121,.24705882)"/><path d="M13.23975 14.76375H33.81375V1.04775H13.23975z" style="fill:rgba(129,0,121,.24705882);stroke:rgba(129,0,121,.24705882);stroke-width:.09525;stroke-miterlimit:41.994751"/><path d="M24.907875 7.686675A.47625 .47625 0 0023.955375 7.686675A.47625 .47625 0 0024.907875 7.686675z" fill="rgba(129,0,121,.24705882)"/><path d="M58.19775 15.52575H109.25175V1.04775H58.19775z" style="fill:rgba(129,0,121,.24705882);stroke:rgba(129,0,121,.24705882);stroke-width:.09525;stroke-miterlimit:41.994751"/><path d="M83.658075 7.86765A.47625 .47625 0 0082.705575 7.86765A.47625 .47625 0 0083.658075 7.86765z" fill="rgba(129,0,121,.24705882)"/><path d="M89.05875 66.38925H107.72775V44.86275H89.05875z" style="fill:rgba(129,0,121,.24705882);stroke:rgba(129,0,121,.24705882);stroke-width:.09525;stroke-miterlimit:41.994751"/><path d="M98.43135 52.52085A.47625 .47625 0 0097.47885 52.52085A.47625 .47625 0 0098.43135 52.52085z" fill="rgba(129,0,121,.24705882)"/><path d="M47.07255 8.296275L83.181825 7.86765" style="fill:none;stroke:rgba(129,0,121,.24705882);stroke-width:.09525;stroke-miterlimit:41.994751"/><path d="M35.232975 67.979925L44.129325 53.47335" style="fill:none;stroke:rgba(129,0,121,.24705882);stroke-width:.09525;stroke-miterlimit:41.994751"/><path d="M47.07255 8.296275L46.472475 27.841575" style="fill:none;stroke:rgba(129,0,121,.24705882);stroke-width:.09525;stroke-miterlimit:41.994751"/><path d="M119.3292 9.6012L118.25287 40.005" style="fill:none;stroke:rgba(129,0,121,.24705882);stroke-width:.09525;stroke-miterlimit:41.994751"/><path d="M24.431625 7.686675L47.07255 8.296275" style="fill:none;stroke:rgba(129,0,121,.24705882);stroke-width:.09525;stroke-miterlimit:41.994751"/><path d="M82.896075 31.765875L82.915125 39.119175" style="fill:none;stroke:rgba(129,0,121,.24705882);stroke-width:.09525;stroke-miterlimit:41.994751"/><path d="M9.50595 7.5438L24.431625 7.686675" style="fill:none;stroke:rgba(129,0,121,.24705882);stroke-width:.09525;stroke-miterlimit:41.994751"/><path d="M82.896075 31.765875L95.7834 36.052125" style="fill:none;stroke:rgba(129,0,121,.24705882);stroke-width:.09525;stroke-miterlimit:41.994751"/><path d="M8.753475 28.355925L9.50595 7.5438" style="fill:none;stroke:rgba(129,0,121,.24705882);stroke-width:.09525;stroke-miterlimit:41.994751"/><path d="M118.25287 40.005L119.0625 72.513825" style="fill:none;stroke:rgba(129,0,121,.24705882);stroke-width:.09525;stroke-miterlimit:41.994751"/><path d="M46.472475 27.841575L52.225575 53.9877" style="fill:none;stroke:rgba(129,0,121,.24705882);stroke-width:.09525;stroke-miterlimit:41.994751"/><path d="M68.44665 26.355675L78.038325 31.3182" style="fill:none;stroke:rgba(129,0,121,.24705882);stroke-width:.09525;stroke-miterlimit:41.994751"/><path d="M44.129325 53.47335L46.472475 27.841575" style="fill:none;stroke:rgba(129,0,121,.24705882);stroke-width:.09525;stroke-miterlimit:41.994751"/><path d="M44.129325 53.47335L52.225575 53.9877" style="fill:none;stroke:rgba(129,0,121,.24705882);stroke-width:.09525;stroke-miterlimit:41.994751"/><path d="M119.0625 72.513825L96.8502 72.44715" style="fill:none;stroke:rgba(129,0,121,.24705882);stroke-width:.09525;stroke-miterlimit:41.994751"/><path d="M14.8971 54.778275L6.276975 42.27195" style="fill:none;stroke:rgba(129,0,121,.24705882);stroke-width:.09525;stroke-miterlimit:41.994751"/><path d="M14.8971 54.778275L8.753475 28.355925" style="fill:none;stroke:rgba(129,0,121,.24705882);stroke-width:.09525;stroke-miterlimit:41.994751"/><path d="M14.8971 54.778275L27.432 54.95925" style="fill:none;stroke:rgba(129,0,121,.24705882);stroke-width:.09525;stroke-miterlimit:41.994751"/><path d="M119.0625 72.513825L82.81035 85.9155" style="fill:none;stroke:rgba(129,0,121,.24705882);stroke-width:.09525;stroke-miterlimit:41.994751"/><path d="M27.432 54.95925L44.129325 53.47335" style="fill:none;stroke:rgba(129,0,121,.24705882);stroke-width:.09525;stroke-miterlimit:41.994751"/><path d="M27.432 54.95925L35.232975 67.979925" style="fill:none;stroke:rgba(129,0,121,.24705882);stroke-width:.09525;stroke-miterlimit:41.994751"/><path d="M15.154275 89.430225L24.25065 68.0466" style="fill:none;stroke:rgba(129,0,121,.24705882);stroke-width:.09525;stroke-miterlimit:41.994751"/><path d="M82.915125 39.119175L77.24775 39.3573" style="fill:none;stroke:rgba(129,0,121,.24705882);stroke-width:.09525;stroke-miterlimit:41.994751"/><path d="M82.915125 39.119175L95.7834 36.052125" style="fill:none;stroke:rgba(129,0,121,.24705882);stroke-width:.09525;stroke-miterlimit:41.994751"/><path d="M82.915125 39.119175L83.19135 54.08295" style="fill:none;stroke:rgba(129,0,121,.24705882);stroke-width:.09525;stroke-miterlimit:41.994751"/><path d="M15.154275 89.430225L14.8971 54.778275" style="fill:none;stroke:rgba(129,0,121,.24705882);stroke-width:.09525;stroke-miterlimit:41.994751"/><path d="M52.225575 53.9877L53.1876 71.6661" style="fill:none;stroke:rgba(129,0,121,.24705882);stroke-width:.09525;stroke-miterlimit:41.994751"/><path d="M96.8502 72.44715L83.95335 72.399525" style="fill:none;stroke:rgba(129,0,121,.24705882);stroke-width:.09525;stroke-miterlimit:41.994751"/><path d="M45.9486 75.542775L44.196 75.523725" style="fill:none;stroke:rgba(129,0,121,.24705882);stroke-width:.09525;stroke-miterlimit:41.994751"/><path d="M83.95335 72.399525L83.391375 66.398775" style="fill:none;stroke:rgba(129,0,121,.24705882);stroke-width:.09525;stroke-miterlimit:41.994751"/><path d="M44.196 75.523725L44.338875 101.06978" style="fill:none;stroke:rgba(129,0,121,.24705882);stroke-width:.09525;stroke-miterlimit:41.994751"/><path d="M83.95335 72.399525L68.78955 72.456675" style="fill:none;stroke:rgba(129,0,121,.24705882);stroke-width:.09525;stroke-miterlimit:41.994751"/><path d="M44.338875 101.06978L82.81035 85.9155" style="fill:none;stroke:rgba(129,0,121,.24705882);stroke-width:.09525;stroke-miterlimit:41.994751"/><path d="M68.78955 72.456675L53.1876 71.6661" style="fill:none;stroke:rgba(129,0,121,.24705882);stroke-width:.09525;stroke-miterlimit:41.994751"/><path d="M23.94585 97.107375L15.154275 89.430225" style="fill:none;stroke:rgba(129,0,121,.24705882);stroke-width:.09525;stroke-miterlimit:41.994751"/><path d="M23.94585 97.107375L24.888825 119.49113" style="fill:none;stroke:rgba(129,0,121,.24705882);stroke-width:.09525;stroke-miterlimit:41.994751"/><path d="M53.1876 71.6661L44.700825 71.91375" style="fill:none;stroke:rgba(129,0,121,.24705882);stroke-width:.09525;stroke-miterlimit:41.994751"/><path d="M24.25065 68.0466L14.8971 54.778275" style="fill:none;stroke:rgba(129,0,121,.24705882);stroke-width:.09525;stroke-miterlimit:41.994751"/><path d="M24.25065 68.0466L27.432 54.95925" style="fill:none;stroke:rgba(129,0,121,.24705882);stroke-width:.09525;stroke-miterlimit:41.994751"/><path d="M24.25065 68.0466L23.94585 97.107375" style="fill:none;stroke:rgba(129,0,121,.24705882);stroke-width:.09525;stroke-miterlimit:41.994751"/><path d="M53.1876 71.6661L45.9486 75.542775" style="fill:none;stroke:rgba(129,0,121,.24705882);stroke-width:.09525;stroke-miterlimit:41.994751"/><path d="M83.181825 7.86765L119.3292 9.6012" style="fill:none;stroke:rgba(129,0,121,.24705882);stroke-width:.09525;stroke-miterlimit:41.994751"/><path d="M35.232975 67.979925L24.25065 68.0466" style="fill:none;stroke:rgba(129,0,121,.24705882);stroke-width:.09525;stroke-miterlimit:41.994751"/><path d="M35.232975 67.979925L46.110525 68.33235" style="fill:none;stroke:rgba(129,0,121,.24705882);stroke-width:.09525;stroke-miterlimit:41.994751"/><path d="M53.1876 71.6661L82.81035 85.9155" style="fill:none;stroke:rgba(129,0,121,.24705882);stroke-width:.09525;stroke-miterlimit:41.994751"/><path d="M46.110525 68.33235L53.1876 71.6661" style="fill:none;stroke:rgba(129,0,121,.24705882);stroke-width:.09525;stroke-miterlimit:41.994751"/><path d="M82.81035 85.9155L96.8502 72.44715" style="fill:none;stroke:rgba(129,0,121,.24705882);stroke-width:.09525;stroke-miterlimit:41.994751"/><path d="M34.566225 69.28485L35.232975 67.979925" style="fill:none;stroke:rgba(129,0,121,.24705882);stroke-width:.09525;stroke-miterlimit:41.994751"/><path d="M82.81035 85.9155L83.95335 72.399525" style="fill:none;stroke:rgba(129,0,121,.24705882);stroke-width:.09525;stroke-miterlimit:41.994751"/><path d="M82.81035 85.9155L68.78955 72.456675" style="fill:none;stroke:rgba(129,0,121,.24705882);stroke-width:.09525;stroke-miterlimit:41.994751"/><path d="M78.038325 31.3182L82.896075 31.765875" style="fill:none;stroke:rgba(129,0,121,.24705882);stroke-width:.09525;stroke-miterlimit:41.994751"/><path d="M83.19135 54.08295L78.000225 54.416325" style="fill:none;stroke:rgba(129,0,121,.24705882);stroke-width:.09525;stroke-miterlimit:41.994751"/><path d="M83.19135 54.08295L83.391375 66.398775" style="fill:none;stroke:rgba(129,0,121,.24705882);stroke-width:.09525;stroke-miterlimit:41.994751"/><path d="M95.7834 36.052125L96.954975 44.4627" style="fill:none;stroke:rgba(129,0,121,.24705882);stroke-width:.09525;stroke-miterlimit:41.994751"/><path d="M33.6423 25.365075L46.472475 27.841575" style="fill:none;stroke:rgba(129,0,121,.24705882);stroke-width:.09525;stroke-miterlimit:41.994751"/><path d="M33.6423 25.365075L23.479125 29.88945" style="fill:none;stroke:rgba(129,0,121,.24705882);stroke-width:.09525;stroke-miterlimit:41.994751"/><path d="M78.000225 54.416325L68.627625 54.644925" style="fill:none;stroke:rgba(129,0,121,.24705882);stroke-width:.09525;stroke-miterlimit:41.994751"/><path d="M1.952625 42.033825L6.276975 42.27195" style="fill:none;stroke:rgba(129,0,121,.24705882);stroke-width:.09525;stroke-miterlimit:41.994751"/><path d="M1.952625 42.033825L15.154275 89.430225" style="fill:none;stroke:rgba(129,0,121,.24705882);stroke-width:.09525;stroke-miterlimit:41.994751"/><path d="M1.952625 42.033825L9.50595 7.5438" style="fill:none;stroke:rgba(129,0,121,.24705882);stroke-width:.09525;stroke-miterlimit:41.994751"/><path d="M1.952625 42.033825L8.753475 28.355925" style="fill:none;stroke:rgba(129,0,121,.24705882);stroke-width:.09525;stroke-miterlimit:41.994751"/><path d="M1.952625 42.033825L14.8971 54.778275" style="fill:none;stroke:rgba(129,0,121,.24705882);stroke-width:.09525;stroke-miterlimit:41.994751"/><path d="M6.276975 42.27195L8.753475 28.355925" style="fill:none;stroke:rgba(129,0,121,.24705882);stroke-width:.09525;stroke-miterlimit:41.994751"/><path d="M77.24775 39.3573L70.4469 43.8912" style="fill:none;stroke:rgba(129,0,121,.24705882);stroke-width:.09525;stroke-miterlimit:41.994751"/><path d="M62.703075 39.7002L65.32245 35.0901" style="fill:none;stroke:rgba(129,0,121,.24705882);stroke-width:.09525;stroke-miterlimit:41.994751"/><path d="M70.4469 43.8912L65.24625 43.881675" style="fill:none;stroke:rgba(129,0,121,.24705882);stroke-width:.09525;stroke-miterlimit:41.994751"/><path d="M44.224575 118.6434L44.338875 101.06978" style="fill:none;stroke:rgba(129,0,121,.24705882);stroke-width:.09525;stroke-miterlimit:41.994751"/><path d="M65.24625 43.881675L62.703075 39.7002" style="fill:none;stroke:rgba(129,0,121,.24705882);stroke-width:.09525;stroke-miterlimit:41.994751"/><path d="M65.32245 35.0901L70.494525 35.10915" style="fill:none;stroke:rgba(129,0,121,.24705882);stroke-width:.09525;stroke-miterlimit:41.994751"/><path d="M70.494525 35.10915L77.24775 39.3573" style="fill:none;stroke:rgba(129,0,121,.24705882);stroke-width:.09525;stroke-miterlimit:41.994751"/><path d="M96.954975 44.4627L97.9551 52.52085" style="fill:none;stroke:rgba(129,0,121,.24705882);stroke-width:.09525;stroke-miterlimit:41.994751"/><path d="M6.276975 42.27195L5.095875 39.862125" style="fill:none;stroke:rgba(113,0,137,.24705882);stroke-width:.09525;stroke-miterlimit:41.994751"/><path d="M1.952625 42.033825L5.095875 39.862125" style="fill:none;stroke:rgba(113,0,137,.24705882);stroke-width:.09525;stroke-miterlimit:41.994751"/><path d="M118.25287 40.005L120.00547 51.463575" style="fill:none;stroke:rgba(113,0,141,.24705882);stroke-width:.09525;stroke-miterlimit:41.994751"/><path d="M5.572125 39.862125A.47625 .47625 0 004.619625 39.862125A.47625 .47625 0 005.572125 39.862125z" fill="rgba(97,0,157,.24705882)"/><path d="M117.22418 54.23535H123.8631V47.9298H117.22418z" style="fill:rgba(93,0,161,.24705882);stroke:rgba(93,0,161,.24705882);stroke-width:.09525;stroke-miterlimit:41.994751"/><path d="M120.48172 51.463575A.47625 .47625 0 00119.52922 51.463575A.47625 .47625 0 00120.48172 51.463575z" fill="rgba(93,0,161,.24705882)"/><path d="M5.095875 39.862125L8.048625 39.64305" style="fill:none;stroke:rgba(85,0,170,.24705882);stroke-width:.09525;stroke-miterlimit:41.994751"/><path d="M8.524875 39.64305A.47625 .47625 0 007.572375 39.64305A.47625 .47625 0 008.524875 39.64305z" fill="rgba(72,0,182,.24705882)"/><path d="M8.048625 39.64305L18.792825 28.317825" style="fill:none;stroke:rgba(72,0,182,.24705882);stroke-width:.09525;stroke-miterlimit:41.994751"/><path d="M10.3632 42.95775H33.81375V14.76375H10.3632z" style="fill:rgba(72,0,182,.24705882);stroke:rgba(72,0,182,.24705882);stroke-width:.09525;stroke-miterlimit:41.994751"/><path d="M19.269075 28.317825A.47625 .47625 0 0018.316575 28.317825A.47625 .47625 0 0019.269075 28.317825z" fill="rgba(72,0,182,.24705882)"/><path d="M83.7819 37.023675L82.81035 85.9155" style="fill:none;stroke:rgba(64,0,190,.24705882);stroke-width:.09525;stroke-miterlimit:41.994751"/><path d="M56.67375 68.86575H110.77575V14.00175H56.67375z" style="fill:rgba(0,0,255,.24705882);stroke:rgba(0,0,255,.24705882);stroke-width:.09525;stroke-miterlimit:41.994751"/><path d="M84.25815 37.023675A.47625 .47625 0 0083.30565 37.023675A.47625 .47625 0 0084.25815 37.023675z" fill="rgba(0,0,255,.24705882)"/></svg>