<svg version="1.1" width="146.685mm" height="130.20675mm" viewBox="0 0 146.685 130.20675" xmlns="http://www.w3.org/2000/svg" xmlns:xlink="http://www.w3.org/1999/xlink"><path d="M-8.001 -1.23825H-6.096" style="fill:none;stroke:#f00;stroke-width:.09525;stroke-miterlimit:41.994751"/><path d="M-8.001 -1.23825V-3.14325" style="fill:none;stroke:#0f0;stroke-width:.09525;stroke-miterlimit:41.994751"/><path d="M87.7443 129.79718A.47625 .47625 0 0086.7918 129.79718A.47625 .47625 0 0087.7443 129.79718z" fill="rgba(255,0,0,.24705882)"/><path d="M109.37557 80.5434A.47625 .47625 0 00108.42307 80.5434A.47625 .47625 0 00109.37557 80.5434z" fill="rgba(250,0,4,.24705882)"/><path d="M115.1382 53.6067L108.89932 80.5434" style="fill:none;stroke:rgba(246,0,8,.24705882);stroke-width:.09525;stroke-miterlimit:41.994751"/><path d="M93.849825 96.478725A.47625 .47625 0 0092.897325 96.478725A.47625 .47625 0 0093.849825 96.478725z" fill="rgba(242,0,8,.24705882)"/><path d="M102.3747 32.204025A.47625 .47625 0 00101.4222 32.204025A.47625 .47625 0 00102.3747 32.204025z" fill="rgba(242,0,12,.24705882)"/><path d="M101.89845 32.204025L115.1382 53.6067" style="fill:none;stroke:rgba(242,0,12,.24705882);stroke-width:.09525;stroke-miterlimit:41.994751"/><path d="M115.61445 53.6067A.47625 .47625 0 00114.66195 53.6067A.47625 .47625 0 00115.61445 53.6067z" fill="rgba(242,0,12,.24705882)"/><path d="M99.107625 112.6617L87.26805 129.79718" style="fill:none;stroke:rgba(242,0,12,.24705882);stroke-width:.09525;stroke-miterlimit:41.994751"/><path d="M87.26805 129.79718L55.34025 127.54927" style="fill:none;stroke:rgba(238,0,12,.24705882);stroke-width:.09525;stroke-miterlimit:41.994751"/><path d="M101.89845 32.204025L105.0036 7.44855" style="fill:none;stroke:rgba(238,0,16,.24705882);stroke-width:.09525;stroke-miterlimit:41.994751"/><path d="M14.811375 76.2762A.47625 .47625 0 0013.858875 76.2762A.47625 .47625 0 0014.811375 76.2762z" fill="rgba(238,0,16,.24705882)"/><path d="M115.1382 53.6067L75.03795 34.413825" style="fill:none;stroke:rgba(238,0,16,.24705882);stroke-width:.09525;stroke-miterlimit:41.994751"/><path d="M14.335125 76.2762L19.2786 51.0921" style="fill:none;stroke:rgba(234,0,16,.24705882);stroke-width:.09525;stroke-miterlimit:41.994751"/><path d="M105.47985 7.44855A.47625 .47625 0 00104.52735 7.44855A.47625 .47625 0 00105.47985 7.44855z" fill="rgba(234,0,20,.24705882)"/><path d="M131.61645 17.516475A.47625 .47625 0 00130.66395 17.516475A.47625 .47625 0 00131.61645 17.516475z" fill="rgba(234,0,20,.24705882)"/><path d="M19.75485 51.0921A.47625 .47625 0 0018.80235 51.0921A.47625 .47625 0 0019.75485 51.0921z" fill="rgba(234,0,20,.24705882)"/><path d="M28.775025 33.9471L19.2786 51.0921" style="fill:none;stroke:rgba(230,0,20,.24705882);stroke-width:.09525;stroke-miterlimit:41.994751"/><path d="M108.89932 80.5434L100.13632 89.982675" style="fill:none;stroke:rgba(230,0,24,.24705882);stroke-width:.09525;stroke-miterlimit:41.994751"/><path d="M46.720125 24.564975A.47625 .47625 0 0045.767625 24.564975A.47625 .47625 0 0046.720125 24.564975z" fill="rgba(230,0,24,.24705882)"/><path d="M46.243875 24.564975L75.03795 34.413825" style="fill:none;stroke:rgba(230,0,24,.24705882);stroke-width:.09525;stroke-miterlimit:41.994751"/><path d="M75.5142 34.413825A.47625 .47625 0 0074.5617 34.413825A.47625 .47625 0 0075.5142 34.413825z" fill="rgba(230,0,24,.24705882)"/><path d="M46.243875 24.564975L28.775025 33.9471" style="fill:none;stroke:rgba(230,0,24,.24705882);stroke-width:.09525;stroke-miterlimit:41.994751"/><path d="M29.251275 33.9471A.47625 .47625 0 0028.298775 33.9471A.47625 .47625 0 0029.251275 33.9471z" fill="rgba(230,0,24,.24705882)"/><path d="M73.485375 3.419475A.47625 .47625 0 0072.532875 3.419475A.47625 .47625 0 0073.485375 3.419475z" fill="rgba(230,0,24,.24705882)"/><path d="M90.8685 95.5929L93.373575 96.478725" style="fill:none;stroke:rgba(230,0,24,.24705882);stroke-width:.09525;stroke-miterlimit:41.994751"/><path d="M88.649175 3.9243L105.0036 7.44855" style="fill:none;stroke:rgba(230,0,24,.24705882);stroke-width:.09525;stroke-miterlimit:41.994751"/><path d="M19.2786 51.0921L11.48715 15.2019" style="fill:none;stroke:rgba(230,0,24,.24705882);stroke-width:.09525;stroke-miterlimit:41.994751"/><path d="M115.1382 53.6067L120.11977 37.0713" style="fill:none;stroke:rgba(230,0,24,.24705882);stroke-width:.09525;stroke-miterlimit:41.994751"/><path d="M93.373575 96.478725L100.52685 94.649925" style="fill:none;stroke:rgba(230,0,24,.24705882);stroke-width:.09525;stroke-miterlimit:41.994751"/><path d="M93.373575 96.478725L100.13632 89.982675" style="fill:none;stroke:rgba(230,0,24,.24705882);stroke-width:.09525;stroke-miterlimit:41.994751"/><path d="M11.48715 15.2019L28.775025 33.9471" style="fill:none;stroke:rgba(230,0,24,.24705882);stroke-width:.09525;stroke-miterlimit:41.994751"/><path d="M.4953 89.85885L14.335125 76.2762" style="fill:none;stroke:rgba(226,0,24,.24705882);stroke-width:.09525;stroke-miterlimit:41.994751"/><path d="M73.009125 3.419475L88.649175 3.9243" style="fill:none;stroke:rgba(226,0,24,.24705882);stroke-width:.09525;stroke-miterlimit:41.994751"/><path d="M52.197 1.16205L46.243875 24.564975" style="fill:none;stroke:rgba(226,0,24,.24705882);stroke-width:.09525;stroke-miterlimit:41.994751"/><path d="M11.9634 15.2019A.47625 .47625 0 0011.0109 15.2019A.47625 .47625 0 0011.9634 15.2019z" fill="rgba(226,0,28,.24705882)"/><path d="M99.583875 112.6617A.47625 .47625 0 0098.631375 112.6617A.47625 .47625 0 0099.583875 112.6617z" fill="rgba(226,0,28,.24705882)"/><path d="M115.50015 106.6419A.47625 .47625 0 00114.54765 106.6419A.47625 .47625 0 00115.50015 106.6419z" fill="rgba(226,0,28,.24705882)"/><path d="M131.1402 17.516475L120.11977 37.0713" style="fill:none;stroke:rgba(226,0,28,.24705882);stroke-width:.09525;stroke-miterlimit:41.994751"/><path d="M89.125425 3.9243A.47625 .47625 0 0088.172925 3.9243A.47625 .47625 0 0089.125425 3.9243z" fill="rgba(226,0,28,.24705882)"/><path d="M55.8165 127.54927A.47625 .47625 0 0054.864 127.54927A.47625 .47625 0 0055.8165 127.54927z" fill="rgba(226,0,28,.24705882)"/><path d="M52.67325 1.16205A.47625 .47625 0 0051.72075 1.16205A.47625 .47625 0 0052.67325 1.16205z" fill="rgba(222,0,28,.24705882)"/><path d="M100.52685 94.649925L99.107625 112.6617" style="fill:none;stroke:rgba(218,0,32,.24705882);stroke-width:.09525;stroke-miterlimit:41.994751"/><path d="M138.5697 105.97515L115.0239 106.6419" style="fill:none;stroke:rgba(218,0,32,.24705882);stroke-width:.09525;stroke-miterlimit:41.994751"/><path d="M100.52685 94.649925L115.0239 106.6419" style="fill:none;stroke:rgba(218,0,32,.24705882);stroke-width:.09525;stroke-miterlimit:41.994751"/><path d="M55.34025 127.54927L43.14825 122.682" style="fill:none;stroke:rgba(218,0,36,.24705882);stroke-width:.09525;stroke-miterlimit:41.994751"/><path d="M.97155 89.85885A.47625 .47625 0 00.01905 89.85885A.47625 .47625 0 00.97155 89.85885z" fill="rgba(218,0,36,.24705882)"/><path d="M120.59602 37.0713A.47625 .47625 0 00119.64352 37.0713A.47625 .47625 0 00120.59602 37.0713z" fill="rgba(218,0,36,.24705882)"/><path d="M91.34475 95.5929A.47625 .47625 0 0090.39225 95.5929A.47625 .47625 0 0091.34475 95.5929z" fill="rgba(218,0,36,.24705882)"/><path d="M14.944725 110.92815L.4953 89.85885" style="fill:none;stroke:rgba(214,0,36,.24705882);stroke-width:.09525;stroke-miterlimit:41.994751"/><path d="M139.04595 105.97515A.47625 .47625 0 00138.09345 105.97515A.47625 .47625 0 00139.04595 105.97515z" fill="rgba(214,0,40,.24705882)"/><path d="M101.0031 94.649925A.47625 .47625 0 00100.0506 94.649925A.47625 .47625 0 00101.0031 94.649925z" fill="rgba(214,0,40,.24705882)"/><path d="M140.0937 4.029075L131.1402 17.516475" style="fill:none;stroke:rgba(214,0,40,.24705882);stroke-width:.09525;stroke-miterlimit:41.994751"/><path d="M100.52685 94.649925L100.13632 89.982675" style="fill:none;stroke:rgba(214,0,40,.24705882);stroke-width:.09525;stroke-miterlimit:41.994751"/><path d="M100.61257 89.982675A.47625 .47625 0 0099.660075 89.982675A.47625 .47625 0 00100.61257 89.982675z" fill="rgba(214,0,40,.24705882)"/><path d="M43.6245 122.682A.47625 .47625 0 0042.672 122.682A.47625 .47625 0 0043.6245 122.682z" fill="rgba(214,0,40,.24705882)"/><path d="M43.14825 122.682L14.944725 110.92815" style="fill:none;stroke:rgba(214,0,40,.24705882);stroke-width:.09525;stroke-miterlimit:41.994751"/><path d="M15.420975 110.92815A.47625 .47625 0 0014.468475 110.92815A.47625 .47625 0 0015.420975 110.92815z" fill="rgba(214,0,40,.24705882)"/><path d="M138.5697 105.97515L145.542 96.878775" style="fill:none;stroke:rgba(210,0,44,.24705882);stroke-width:.09525;stroke-miterlimit:41.994751"/><path d="M87.944325 96.0501L90.8685 95.5929" style="fill:none;stroke:rgba(206,0,48,.24705882);stroke-width:.09525;stroke-miterlimit:41.994751"/><path d="M146.01825 96.878775A.47625 .47625 0 00145.06575 96.878775A.47625 .47625 0 00146.01825 96.878775z" fill="rgba(202,0,48,.24705882)"/><path d="M58.15965 .542925L52.197 1.16205" style="fill:none;stroke:rgba(202,0,52,.24705882);stroke-width:.09525;stroke-miterlimit:41.994751"/><path d="M140.56995 4.029075A.47625 .47625 0 00139.61745 4.029075A.47625 .47625 0 00140.56995 4.029075z" fill="rgba(194,0,60,.24705882)"/><path d="M68.21805 101.6127H76.56195V89.430225H68.21805z" style="fill:rgba(190,0,60,.24705882);stroke:rgba(190,0,60,.24705882);stroke-width:.09525;stroke-miterlimit:41.994751"/><path d="M73.01865 96.10725A.47625 .47625 0 0072.06615 96.10725A.47625 .47625 0 0073.01865 96.10725z" fill="rgba(190,0,60,.24705882)"/><path d="M68.2371 89.4207H79.5909V76.876275H68.2371z" style="fill:rgba(190,0,60,.24705882);stroke:rgba(190,0,60,.24705882);stroke-width:.09525;stroke-miterlimit:41.994751"/><path d="M73.78065 84.000975A.47625 .47625 0 0072.82815 84.000975A.47625 .47625 0 0073.78065 84.000975z" fill="rgba(190,0,60,.24705882)"/><path d="M83.058 89.9922A.47625 .47625 0 0082.1055 89.9922A.47625 .47625 0 0083.058 89.9922z" fill="rgba(190,0,60,.24705882)"/><path d="M77.352525 102.08895H87.3252V90.211275H77.352525z" style="fill:rgba(190,0,60,.24705882);stroke:rgba(190,0,60,.24705882);stroke-width:.09525;stroke-miterlimit:41.994751"/><path d="M82.77225 95.926275A.47625 .47625 0 0081.81975 95.926275A.47625 .47625 0 0082.77225 95.926275z" fill="rgba(190,0,60,.24705882)"/><path d="M79.600425 89.3826H87.239475V77.40015H79.600425z" style="fill:rgba(190,0,60,.24705882);stroke:rgba(190,0,60,.24705882);stroke-width:.09525;stroke-miterlimit:41.994751"/><path d="M83.296125 83.010375A.47625 .47625 0 0082.343625 83.010375A.47625 .47625 0 0083.296125 83.010375z" fill="rgba(190,0,60,.24705882)"/><path d="M68.199 76.86675H79.600425V61.255275H68.199z" style="fill:rgba(190,0,60,.24705882);stroke:rgba(190,0,60,.24705882);stroke-width:.09525;stroke-miterlimit:41.994751"/><path d="M74.114025 66.31305A.47625 .47625 0 0073.161525 66.31305A.47625 .47625 0 0074.114025 66.31305z" fill="rgba(190,0,60,.24705882)"/><path d="M68.341875 65.36055A.47625 .47625 0 0067.389375 65.36055A.47625 .47625 0 0068.341875 65.36055z" fill="rgba(190,0,60,.24705882)"/><path d="M33.175575 101.62223H67.408425V81.0768H33.175575z" style="fill:rgba(190,0,60,.24705882);stroke:rgba(190,0,60,.24705882);stroke-width:.09525;stroke-miterlimit:41.994751"/><path d="M42.052875 93.525975A.47625 .47625 0 0041.100375 93.525975A.47625 .47625 0 0042.052875 93.525975z" fill="rgba(190,0,60,.24705882)"/><path d="M68.227575 95.84055A.47625 .47625 0 0067.275075 95.84055A.47625 .47625 0 0068.227575 95.84055z" fill="rgba(190,0,60,.24705882)"/><path d="M33.1851 80.248125H67.3989V61.2648H33.1851z" style="fill:rgba(190,0,60,.24705882);stroke:rgba(190,0,60,.24705882);stroke-width:.09525;stroke-miterlimit:41.994751"/><path d="M42.23385 66.989325A.47625 .47625 0 0041.28135 66.989325A.47625 .47625 0 0042.23385 66.989325z" fill="rgba(190,0,60,.24705882)"/><path d="M84.14385 77.0001A.47625 .47625 0 0083.19135 77.0001A.47625 .47625 0 0084.14385 77.0001z" fill="rgba(190,0,60,.24705882)"/><path d="M38.46195 80.56245A.47625 .47625 0 0037.50945 80.56245A.47625 .47625 0 0038.46195 80.56245z" fill="rgba(190,0,60,.24705882)"/><path d="M88.420575 96.0501A.47625 .47625 0 0087.468075 96.0501A.47625 .47625 0 0088.420575 96.0501z" fill="rgba(190,0,60,.24705882)"/><path d="M73.3044 84.000975L72.5424 96.10725" style="fill:none;stroke:rgba(190,0,60,.24705882);stroke-width:.09525;stroke-miterlimit:41.994751"/><path d="M67.865625 65.36055L41.7576 66.989325" style="fill:none;stroke:rgba(190,0,60,.24705882);stroke-width:.09525;stroke-miterlimit:41.994751"/><path d="M87.944325 96.0501L82.296 95.926275" style="fill:none;stroke:rgba(190,0,60,.24705882);stroke-width:.09525;stroke-miterlimit:41.994751"/><path d="M73.637775 66.31305L67.865625 65.36055" style="fill:none;stroke:rgba(190,0,60,.24705882);stroke-width:.09525;stroke-miterlimit:41.994751"/><path d="M67.751325 95.84055L72.5424 96.10725" style="fill:none;stroke:rgba(190,0,60,.24705882);stroke-width:.09525;stroke-miterlimit:41.994751"/><path d="M73.3044 84.000975L73.637775 66.31305" style="fill:none;stroke:rgba(190,0,60,.24705882);stroke-width:.09525;stroke-miterlimit:41.994751"/><path d="M41.7576 66.989325L37.9857 80.56245" style="fill:none;stroke:rgba(190,0,60,.24705882);stroke-width:.09525;stroke-miterlimit:41.994751"/><path d="M37.9857 80.56245L41.576625 93.525975" style="fill:none;stroke:rgba(190,0,60,.24705882);stroke-width:.09525;stroke-miterlimit:41.994751"/><path d="M41.576625 93.525975L67.751325 95.84055" style="fill:none;stroke:rgba(190,0,60,.24705882);stroke-width:.09525;stroke-miterlimit:41.994751"/><path d="M82.819875 83.010375L73.3044 84.000975" style="fill:none;stroke:rgba(190,0,60,.24705882);stroke-width:.09525;stroke-miterlimit:41.994751"/><path d="M82.58175 89.9922L82.819875 83.010375" style="fill:none;stroke:rgba(190,0,60,.24705882);stroke-width:.09525;stroke-miterlimit:41.994751"/><path d="M82.819875 83.010375L83.6676 77.0001" style="fill:none;stroke:rgba(190,0,60,.24705882);stroke-width:.09525;stroke-miterlimit:41.994751"/><path d="M82.296 95.926275L82.58175 89.9922" style="fill:none;stroke:rgba(190,0,60,.24705882);stroke-width:.09525;stroke-miterlimit:41.994751"/><path d="M58.6359 .542925A.47625 .47625 0 0057.6834 .542925A.47625 .47625 0 0058.6359 .542925z" fill="rgba(178,0,76,.24705882)"/><path d="M83.83905 73.43775L83.6676 77.0001" style="fill:none;stroke:rgba(178,0,76,.24705882);stroke-width:.09525;stroke-miterlimit:41.994751"/><path d="M77.085825 96.116775L82.296 95.926275" style="fill:none;stroke:rgba(174,0,80,.24705882);stroke-width:.09525;stroke-miterlimit:41.994751"/><path d="M72.5424 96.10725L77.085825 96.116775" style="fill:none;stroke:rgba(174,0,80,.24705882);stroke-width:.09525;stroke-miterlimit:41.994751"/><path d="M145.36102 86.35365L145.542 96.878775" style="fill:none;stroke:rgba(170,0,85,.24705882);stroke-width:.09525;stroke-miterlimit:41.994751"/><path d="M84.3153 73.43775A.47625 .47625 0 0083.3628 73.43775A.47625 .47625 0 0084.3153 73.43775z" fill="rgba(165,0,89,.24705882)"/><path d="M77.562075 96.116775A.47625 .47625 0 0076.609575 96.116775A.47625 .47625 0 0077.562075 96.116775z" fill="rgba(157,0,97,.24705882)"/><path d="M83.53425 68.86575L83.83905 73.43775" style="fill:none;stroke:rgba(153,0,101,.24705882);stroke-width:.09525;stroke-miterlimit:41.994751"/><path d="M65.4177 1.143L58.15965 .542925" style="fill:none;stroke:rgba(153,0,101,.24705882);stroke-width:.09525;stroke-miterlimit:41.994751"/><path d="M84.0105 68.86575A.47625 .47625 0 0083.058 68.86575A.47625 .47625 0 0084.0105 68.86575z" fill="rgba(141,0,113,.24705882)"/><path d="M79.638525 68.551425H87.22995V61.2648H79.638525z" style="fill:rgba(141,0,113,.24705882);stroke:rgba(141,0,113,.24705882);stroke-width:.09525;stroke-miterlimit:41.994751"/><path d="M83.9343 65.179575A.47625 .47625 0 0082.9818 65.179575A.47625 .47625 0 0083.9343 65.179575z" fill="rgba(141,0,113,.24705882)"/><path d="M83.45805 65.179575L83.53425 68.86575" style="fill:none;stroke:rgba(141,0,113,.24705882);stroke-width:.09525;stroke-miterlimit:41.994751"/><path d="M145.83727 86.35365A.47625 .47625 0 00144.88477 86.35365A.47625 .47625 0 00145.83727 86.35365z" fill="rgba(137,0,117,.24705882)"/><path d="M76.723875 65.2653L83.45805 65.179575" style="fill:none;stroke:rgba(129,0,125,.24705882);stroke-width:.09525;stroke-miterlimit:41.994751"/><path d="M65.89395 1.143A.47625 .47625 0 0064.94145 1.143A.47625 .47625 0 0065.89395 1.143z" fill="rgba(125,0,125,.24705882)"/><path d="M77.200125 65.2653A.47625 .47625 0 0076.247625 65.2653A.47625 .47625 0 0077.200125 65.2653z" fill="rgba(121,0,133,.24705882)"/><path d="M76.8096 3.56235L65.4177 1.143" style="fill:none;stroke:rgba(117,0,133,.24705882);stroke-width:.09525;stroke-miterlimit:41.994751"/><path d="M77.28585 3.56235A.47625 .47625 0 0076.33335 3.56235A.47625 .47625 0 0077.28585 3.56235z" fill="rgba(109,0,141,.24705882)"/><path d="M76.723875 65.2653L72.71385 65.351025" style="fill:none;stroke:rgba(109,0,145,.24705882);stroke-width:.09525;stroke-miterlimit:41.994751"/><path d="M145.5039 79.34325L145.36102 86.35365" style="fill:none;stroke:rgba(105,0,149,.24705882);stroke-width:.09525;stroke-miterlimit:41.994751"/><path d="M25.54605 80.8101H32.36595V71.22795H25.54605z" style="fill:rgba(93,0,157,.24705882);stroke:rgba(93,0,157,.24705882);stroke-width:.09525;stroke-miterlimit:41.994751"/><path d="M30.089475 74.4093A.47625 .47625 0 0029.136975 74.4093A.47625 .47625 0 0030.089475 74.4093z" fill="rgba(93,0,157,.24705882)"/><path d="M33.194625 68.475225H50.00625V61.255275H33.194625z" style="fill:rgba(93,0,157,.24705882);stroke:rgba(93,0,157,.24705882);stroke-width:.09525;stroke-miterlimit:41.994751"/><path d="M36.576 64.608075A.47625 .47625 0 0035.6235 64.608075A.47625 .47625 0 0036.576 64.608075z" fill="rgba(93,0,157,.24705882)"/><path d="M39.2811 92.440125H51.72075V69.256275H39.2811z" style="fill:rgba(93,0,157,.24705882);stroke:rgba(93,0,157,.24705882);stroke-width:.09525;stroke-miterlimit:41.994751"/><path d="M46.396275 73.999725A.47625 .47625 0 0045.443775 73.999725A.47625 .47625 0 0046.396275 73.999725z" fill="rgba(93,0,157,.24705882)"/><path d="M43.30065 92.7735A.47625 .47625 0 0042.34815 92.7735A.47625 .47625 0 0043.30065 92.7735z" fill="rgba(93,0,157,.24705882)"/><path d="M77.352525 109.82325H87.8205V100.6983H77.352525z" style="fill:rgba(93,0,157,.24705882);stroke:rgba(93,0,157,.24705882);stroke-width:.09525;stroke-miterlimit:41.994751"/><path d="M84.401025 105.75608A.47625 .47625 0 0083.448525 105.75608A.47625 .47625 0 0084.401025 105.75608z" fill="rgba(93,0,157,.24705882)"/><path d="M51.730275 78.31455H62.855475V69.256275H51.730275z" style="fill:rgba(93,0,157,.24705882);stroke:rgba(93,0,157,.24705882);stroke-width:.09525;stroke-miterlimit:41.994751"/><path d="M57.55005 72.9234A.47625 .47625 0 0056.59755 72.9234A.47625 .47625 0 0057.55005 72.9234z" fill="rgba(93,0,157,.24705882)"/><path d="M54.511575 92.459175H60.86475V78.324075H54.511575z" style="fill:rgba(93,0,157,.24705882);stroke:rgba(93,0,157,.24705882);stroke-width:.09525;stroke-miterlimit:41.994751"/><path d="M57.978675 89.868375A.47625 .47625 0 0057.026175 89.868375A.47625 .47625 0 0057.978675 89.868375z" fill="rgba(93,0,157,.24705882)"/><path d="M47.729775 109.81373H77.343V102.39375H47.729775z" style="fill:rgba(93,0,157,.24705882);stroke:rgba(93,0,157,.24705882);stroke-width:.09525;stroke-miterlimit:41.994751"/><path d="M69.294375 105.43223A.47625 .47625 0 0068.341875 105.43223A.47625 .47625 0 0069.294375 105.43223z" fill="rgba(93,0,157,.24705882)"/><path d="M33.156525 93.2688H38.471475V80.267175H33.156525z" style="fill:rgba(93,0,157,.24705882);stroke:rgba(93,0,157,.24705882);stroke-width:.09525;stroke-miterlimit:41.994751"/><path d="M36.25215 90.573225A.47625 .47625 0 0035.29965 90.573225A.47625 .47625 0 0036.25215 90.573225z" fill="rgba(93,0,157,.24705882)"/><path d="M63.636525 77.70495H72.009V68.456175H63.636525z" style="fill:rgba(93,0,157,.24705882);stroke:rgba(93,0,157,.24705882);stroke-width:.09525;stroke-miterlimit:41.994751"/><path d="M68.113275 71.847075A.47625 .47625 0 0067.160775 71.847075A.47625 .47625 0 0068.113275 71.847075z" fill="rgba(93,0,157,.24705882)"/><path d="M63.560325 71.68515A.47625 .47625 0 0062.607825 71.68515A.47625 .47625 0 0063.560325 71.68515z" fill="rgba(93,0,157,.24705882)"/><path d="M50.00625 68.456175H71.98995V61.24575H50.00625z" style="fill:rgba(93,0,157,.24705882);stroke:rgba(93,0,157,.24705882);stroke-width:.09525;stroke-miterlimit:41.994751"/><path d="M67.637025 65.389125A.47625 .47625 0 0066.684525 65.389125A.47625 .47625 0 0067.637025 65.389125z" fill="rgba(93,0,157,.24705882)"/><path d="M73.24725 89.430225H87.249V82.153125H73.24725z" style="fill:rgba(93,0,157,.24705882);stroke:rgba(93,0,157,.24705882);stroke-width:.09525;stroke-miterlimit:41.994751"/><path d="M80.571975 84.077175A.47625 .47625 0 0079.619475 84.077175A.47625 .47625 0 0080.571975 84.077175z" fill="rgba(93,0,157,.24705882)"/><path d="M25.54605 71.218425H32.28975V60.71235H25.54605z" style="fill:rgba(93,0,157,.24705882);stroke:rgba(93,0,157,.24705882);stroke-width:.09525;stroke-miterlimit:41.994751"/><path d="M29.337 65.51295A.47625 .47625 0 0028.3845 65.51295A.47625 .47625 0 0029.337 65.51295z" fill="rgba(93,0,157,.24705882)"/><path d="M37.233225 109.81373H47.710725V102.4128H37.233225z" style="fill:rgba(93,0,157,.24705882);stroke:rgba(93,0,157,.24705882);stroke-width:.09525;stroke-miterlimit:41.994751"/><path d="M43.053 105.56558A.47625 .47625 0 0042.1005 105.56558A.47625 .47625 0 0043.053 105.56558z" fill="rgba(93,0,157,.24705882)"/><path d="M33.156525 101.63175H40.1955V93.278325H33.156525z" style="fill:rgba(93,0,157,.24705882);stroke:rgba(93,0,157,.24705882);stroke-width:.09525;stroke-miterlimit:41.994751"/><path d="M36.55695 98.1075A.47625 .47625 0 0035.60445 98.1075A.47625 .47625 0 0036.55695 98.1075z" fill="rgba(93,0,157,.24705882)"/><path d="M25.69845 109.81373H37.2237V102.3747H25.69845z" style="fill:rgba(93,0,157,.24705882);stroke:rgba(93,0,157,.24705882);stroke-width:.09525;stroke-miterlimit:41.994751"/><path d="M29.022675 105.9942A.47625 .47625 0 0028.070175 105.9942A.47625 .47625 0 0029.022675 105.9942z" fill="rgba(93,0,157,.24705882)"/><path d="M63.636525 89.430225H73.24725V77.714475H63.636525z" style="fill:rgba(93,0,157,.24705882);stroke:rgba(93,0,157,.24705882);stroke-width:.09525;stroke-miterlimit:41.994751"/><path d="M68.513325 83.772375A.47625 .47625 0 0067.560825 83.772375A.47625 .47625 0 0068.513325 83.772375z" fill="rgba(93,0,157,.24705882)"/><path d="M71.98995 68.48475H73.828275V61.24575H71.98995z" style="fill:rgba(93,0,157,.24705882);stroke:rgba(93,0,157,.24705882);stroke-width:.09525;stroke-miterlimit:41.994751"/><path d="M73.1901 65.351025A.47625 .47625 0 0072.2376 65.351025A.47625 .47625 0 0073.1901 65.351025z" fill="rgba(93,0,157,.24705882)"/><path d="M70.970775 101.62223H76.581V89.43975H70.970775z" style="fill:rgba(93,0,157,.24705882);stroke:rgba(93,0,157,.24705882);stroke-width:.09525;stroke-miterlimit:41.994751"/><path d="M74.780775 96.231075A.47625 .47625 0 0073.828275 96.231075A.47625 .47625 0 0074.780775 96.231075z" fill="rgba(93,0,157,.24705882)"/><path d="M33.08985 65.7225A.47625 .47625 0 0032.13735 65.7225A.47625 .47625 0 0033.08985 65.7225z" fill="rgba(93,0,157,.24705882)"/><path d="M63.627 101.63175H70.96125V89.43975H63.627z" style="fill:rgba(93,0,157,.24705882);stroke:rgba(93,0,157,.24705882);stroke-width:.09525;stroke-miterlimit:41.994751"/><path d="M68.799075 98.402775A.47625 .47625 0 0067.846575 98.402775A.47625 .47625 0 0068.799075 98.402775z" fill="rgba(93,0,157,.24705882)"/><path d="M83.0199 89.925525A.47625 .47625 0 0082.0674 89.925525A.47625 .47625 0 0083.0199 89.925525z" fill="rgba(93,0,157,.24705882)"/><path d="M40.1955 101.62223H63.636525V93.240225H40.1955z" style="fill:rgba(93,0,157,.24705882);stroke:rgba(93,0,157,.24705882);stroke-width:.09525;stroke-miterlimit:41.994751"/><path d="M42.99585 98.078925A.47625 .47625 0 0042.04335 98.078925A.47625 .47625 0 0042.99585 98.078925z" fill="rgba(93,0,157,.24705882)"/><path d="M77.352525 100.67925H87.810975V90.211275H77.352525z" style="fill:rgba(93,0,157,.24705882);stroke:rgba(93,0,157,.24705882);stroke-width:.09525;stroke-miterlimit:41.994751"/><path d="M82.7913 96.64065A.47625 .47625 0 0081.8388 96.64065A.47625 .47625 0 0082.7913 96.64065z" fill="rgba(93,0,157,.24705882)"/><path d="M25.536525 102.36518H32.36595V80.8101H25.536525z" style="fill:rgba(93,0,157,.24705882);stroke:rgba(93,0,157,.24705882);stroke-width:.09525;stroke-miterlimit:41.994751"/><path d="M29.4894 91.125675A.47625 .47625 0 0028.5369 91.125675A.47625 .47625 0 0029.4894 91.125675z" fill="rgba(93,0,157,.24705882)"/><path d="M33.156525 80.25765H38.471475V68.475225H33.156525z" style="fill:rgba(93,0,157,.24705882);stroke:rgba(93,0,157,.24705882);stroke-width:.09525;stroke-miterlimit:41.994751"/><path d="M36.204525 72.67575A.47625 .47625 0 0035.252025 72.67575A.47625 .47625 0 0036.204525 72.67575z" fill="rgba(93,0,157,.24705882)"/><path d="M73.256775 82.1436H87.22995V77.62875H73.256775z" style="fill:rgba(93,0,157,.24705882);stroke:rgba(93,0,157,.24705882);stroke-width:.09525;stroke-miterlimit:41.994751"/><path d="M80.63865 79.905225A.47625 .47625 0 0079.68615 79.905225A.47625 .47625 0 0080.63865 79.905225z" fill="rgba(93,0,157,.24705882)"/><path d="M29.613225 74.4093L28.86075 65.51295" style="fill:none;stroke:rgba(93,0,157,.24705882);stroke-width:.09525;stroke-miterlimit:41.994751"/><path d="M67.160775 65.389125L36.09975 64.608075" style="fill:none;stroke:rgba(93,0,157,.24705882);stroke-width:.09525;stroke-miterlimit:41.994751"/><path d="M35.7759 90.573225L35.728275 72.67575" style="fill:none;stroke:rgba(93,0,157,.24705882);stroke-width:.09525;stroke-miterlimit:41.994751"/><path d="M28.546425 105.9942L42.57675 105.56558" style="fill:none;stroke:rgba(93,0,157,.24705882);stroke-width:.09525;stroke-miterlimit:41.994751"/><path d="M68.818125 105.43223L83.924775 105.75608" style="fill:none;stroke:rgba(93,0,157,.24705882);stroke-width:.09525;stroke-miterlimit:41.994751"/><path d="M68.037075 83.772375L80.095725 84.077175" style="fill:none;stroke:rgba(93,0,157,.24705882);stroke-width:.09525;stroke-miterlimit:41.994751"/><path d="M80.095725 84.077175L80.1624 79.905225" style="fill:none;stroke:rgba(93,0,157,.24705882);stroke-width:.09525;stroke-miterlimit:41.994751"/><path d="M42.57675 105.56558L68.818125 105.43223" style="fill:none;stroke:rgba(93,0,157,.24705882);stroke-width:.09525;stroke-miterlimit:41.994751"/><path d="M42.8244 92.7735L45.920025 73.999725" style="fill:none;stroke:rgba(93,0,157,.24705882);stroke-width:.09525;stroke-miterlimit:41.994751"/><path d="M42.8244 92.7735L42.5196 98.078925" style="fill:none;stroke:rgba(93,0,157,.24705882);stroke-width:.09525;stroke-miterlimit:41.994751"/><path d="M45.920025 73.999725L57.0738 72.9234" style="fill:none;stroke:rgba(93,0,157,.24705882);stroke-width:.09525;stroke-miterlimit:41.994751"/><path d="M57.0738 72.9234L57.502425 89.868375" style="fill:none;stroke:rgba(93,0,157,.24705882);stroke-width:.09525;stroke-miterlimit:41.994751"/><path d="M67.637025 71.847075L68.037075 83.772375" style="fill:none;stroke:rgba(93,0,157,.24705882);stroke-width:.09525;stroke-miterlimit:41.994751"/><path d="M67.637025 71.847075L63.084075 71.68515" style="fill:none;stroke:rgba(93,0,157,.24705882);stroke-width:.09525;stroke-miterlimit:41.994751"/><path d="M67.637025 71.847075L67.160775 65.389125" style="fill:none;stroke:rgba(93,0,157,.24705882);stroke-width:.09525;stroke-miterlimit:41.994751"/><path d="M63.084075 71.68515L57.0738 72.9234" style="fill:none;stroke:rgba(93,0,157,.24705882);stroke-width:.09525;stroke-miterlimit:41.994751"/><path d="M36.0807 98.1075L35.7759 90.573225" style="fill:none;stroke:rgba(93,0,157,.24705882);stroke-width:.09525;stroke-miterlimit:41.994751"/><path d="M36.09975 64.608075L35.728275 72.67575" style="fill:none;stroke:rgba(93,0,157,.24705882);stroke-width:.09525;stroke-miterlimit:41.994751"/><path d="M74.304525 96.231075L68.322825 98.402775" style="fill:none;stroke:rgba(93,0,157,.24705882);stroke-width:.09525;stroke-miterlimit:41.994751"/><path d="M68.322825 98.402775L68.037075 83.772375" style="fill:none;stroke:rgba(93,0,157,.24705882);stroke-width:.09525;stroke-miterlimit:41.994751"/><path d="M82.54365 89.925525L80.095725 84.077175" style="fill:none;stroke:rgba(93,0,157,.24705882);stroke-width:.09525;stroke-miterlimit:41.994751"/><path d="M28.86075 65.51295L32.6136 65.7225" style="fill:none;stroke:rgba(93,0,157,.24705882);stroke-width:.09525;stroke-miterlimit:41.994751"/><path d="M67.160775 65.389125L72.71385 65.351025" style="fill:none;stroke:rgba(93,0,157,.24705882);stroke-width:.09525;stroke-miterlimit:41.994751"/><path d="M42.5196 98.078925L36.0807 98.1075" style="fill:none;stroke:rgba(93,0,157,.24705882);stroke-width:.09525;stroke-miterlimit:41.994751"/><path d="M42.5196 98.078925L68.322825 98.402775" style="fill:none;stroke:rgba(93,0,157,.24705882);stroke-width:.09525;stroke-miterlimit:41.994751"/><path d="M82.31505 96.64065L83.924775 105.75608" style="fill:none;stroke:rgba(93,0,157,.24705882);stroke-width:.09525;stroke-miterlimit:41.994751"/><path d="M29.01315 91.125675L28.546425 105.9942" style="fill:none;stroke:rgba(93,0,157,.24705882);stroke-width:.09525;stroke-miterlimit:41.994751"/><path d="M29.613225 74.4093L29.01315 91.125675" style="fill:none;stroke:rgba(93,0,157,.24705882);stroke-width:.09525;stroke-miterlimit:41.994751"/><path d="M32.6136 65.7225L36.09975 64.608075" style="fill:none;stroke:rgba(93,0,157,.24705882);stroke-width:.09525;stroke-miterlimit:41.994751"/><path d="M82.31505 96.64065L82.54365 89.925525" style="fill:none;stroke:rgba(93,0,157,.24705882);stroke-width:.09525;stroke-miterlimit:41.994751"/><path d="M80.01 77.81925L80.1624 79.905225" style="fill:none;stroke:rgba(85,0,165,.24705882);stroke-width:.09525;stroke-miterlimit:41.994751"/><path d="M80.48625 77.81925A.47625 .47625 0 0079.53375 77.81925A.47625 .47625 0 0080.48625 77.81925z" fill="rgba(76,0,174,.24705882)"/><path d="M82.31505 96.64065L77.104875 96.25965" style="fill:none;stroke:rgba(76,0,178,.24705882);stroke-width:.09525;stroke-miterlimit:41.994751"/><path d="M42.5196 98.078925L42.681525 102.17468" style="fill:none;stroke:rgba(76,0,178,.24705882);stroke-width:.09525;stroke-miterlimit:41.994751"/><path d="M68.322825 98.402775L68.71335 102.15563" style="fill:none;stroke:rgba(76,0,178,.24705882);stroke-width:.09525;stroke-miterlimit:41.994751"/><path d="M32.718375 73.2663L29.613225 74.4093" style="fill:none;stroke:rgba(76,0,178,.24705882);stroke-width:.09525;stroke-miterlimit:41.994751"/><path d="M77.104875 96.25965L74.304525 96.231075" style="fill:none;stroke:rgba(76,0,178,.24705882);stroke-width:.09525;stroke-miterlimit:41.994751"/><path d="M32.6898 90.497025L29.01315 91.125675" style="fill:none;stroke:rgba(76,0,178,.24705882);stroke-width:.09525;stroke-miterlimit:41.994751"/><path d="M35.728275 72.67575L32.718375 73.2663" style="fill:none;stroke:rgba(76,0,178,.24705882);stroke-width:.09525;stroke-miterlimit:41.994751"/><path d="M68.71335 102.15563L68.818125 105.43223" style="fill:none;stroke:rgba(76,0,178,.24705882);stroke-width:.09525;stroke-miterlimit:41.994751"/><path d="M35.7759 90.573225L32.6898 90.497025" style="fill:none;stroke:rgba(76,0,178,.24705882);stroke-width:.09525;stroke-miterlimit:41.994751"/><path d="M42.681525 102.17468L42.57675 105.56558" style="fill:none;stroke:rgba(76,0,178,.24705882);stroke-width:.09525;stroke-miterlimit:41.994751"/><path d="M133.32143 12.658725A.47625 .47625 0 00132.36893 12.658725A.47625 .47625 0 00133.32143 12.658725z" fill="rgba(76,0,178,.24705882)"/><path d="M145.98015 79.34325A.47625 .47625 0 00145.02765 79.34325A.47625 .47625 0 00145.98015 79.34325z" fill="rgba(76,0,178,.24705882)"/><path d="M146.70405 64.760475A.47625 .47625 0 00145.75155 64.760475A.47625 .47625 0 00146.70405 64.760475z" fill="rgba(76,0,178,.24705882)"/><path d="M125.1585 6.524625A.47625 .47625 0 00124.206 6.524625A.47625 .47625 0 00125.1585 6.524625z" fill="rgba(76,0,178,.24705882)"/><path d="M143.79892 28.7274A.47625 .47625 0 00142.84643 28.7274A.47625 .47625 0 00143.79892 28.7274z" fill="rgba(76,0,178,.24705882)"/><path d="M143.32268 28.7274L146.2278 64.760475" style="fill:none;stroke:rgba(76,0,178,.24705882);stroke-width:.09525;stroke-miterlimit:41.994751"/><path d="M124.68225 6.524625L132.84518 12.658725" style="fill:none;stroke:rgba(76,0,178,.24705882);stroke-width:.09525;stroke-miterlimit:41.994751"/><path d="M146.2278 64.760475L145.5039 79.34325" style="fill:none;stroke:rgba(76,0,178,.24705882);stroke-width:.09525;stroke-miterlimit:41.994751"/><path d="M132.84518 12.658725L143.32268 28.7274" style="fill:none;stroke:rgba(76,0,178,.24705882);stroke-width:.09525;stroke-miterlimit:41.994751"/><path d="M33.16605 90.497025A.47625 .47625 0 0032.21355 90.497025A.47625 .47625 0 0033.16605 90.497025z" fill="rgba(60,0,194,.24705882)"/><path d="M43.157775 102.17468A.47625 .47625 0 0042.205275 102.17468A.47625 .47625 0 0043.157775 102.17468z" fill="rgba(60,0,194,.24705882)"/><path d="M69.1896 102.15563A.47625 .47625 0 0068.2371 102.15563A.47625 .47625 0 0069.1896 102.15563z" fill="rgba(60,0,194,.24705882)"/><path d="M77.581125 96.25965A.47625 .47625 0 0076.628625 96.25965A.47625 .47625 0 0077.581125 96.25965z" fill="rgba(60,0,194,.24705882)"/><path d="M33.194625 73.2663A.47625 .47625 0 0032.242125 73.2663A.47625 .47625 0 0033.194625 73.2663z" fill="rgba(60,0,194,.24705882)"/><path d="M79.95285 77.81925H80.01" style="fill:none;stroke:rgba(36,0,214,.24705882);stroke-width:.09525;stroke-miterlimit:41.994751"/><path d="M80.4291 77.81925A.47625 .47625 0 0079.4766 77.81925A.47625 .47625 0 0080.4291 77.81925z" fill="rgba(0,0,255,.24705882)"/><path d="M80.01 75.1332L79.95285 77.81925" style="fill:none;stroke:rgba(0,0,255,.24705882);stroke-width:.09525;stroke-miterlimit:41.994751"/><path d="M33.16605 93.66885H49.6443V69.5325H33.16605z" style="fill:rgba(0,0,255,.24705882);stroke:rgba(0,0,255,.24705882);stroke-width:.09525;stroke-miterlimit:41.994751"/><path d="M38.319075 81.1911A.47625 .47625 0 0037.366575 81.1911A.47625 .47625 0 0038.319075 81.1911z" fill="rgba(0,0,255,.24705882)"/><path d="M49.653825 93.345H68.075175V69.5325H49.653825z" style="fill:rgba(0,0,255,.24705882);stroke:rgba(0,0,255,.24705882);stroke-width:.09525;stroke-miterlimit:41.994751"/><path d="M63.655575 80.6958A.47625 .47625 0 0062.703075 80.6958A.47625 .47625 0 0063.655575 80.6958z" fill="rgba(0,0,255,.24705882)"/><path d="M66.322575 93.240225H77.09535V69.637275H66.322575z" style="fill:rgba(0,0,255,.24705882);stroke:rgba(0,0,255,.24705882);stroke-width:.09525;stroke-miterlimit:41.994751"/><path d="M72.323325 76.933425A.47625 .47625 0 0071.370825 76.933425A.47625 .47625 0 0072.323325 76.933425z" fill="rgba(0,0,255,.24705882)"/><path d="M77.104875 77.428725H87.249V69.36105H77.104875z" style="fill:rgba(0,0,255,.24705882);stroke:rgba(0,0,255,.24705882);stroke-width:.09525;stroke-miterlimit:41.994751"/><path d="M80.48625 75.1332A.47625 .47625 0 0079.53375 75.1332A.47625 .47625 0 0080.48625 75.1332z" fill="rgba(0,0,255,.24705882)"/><path d="M71.847075 76.933425L80.01 75.1332" style="fill:none;stroke:rgba(0,0,255,.24705882);stroke-width:.09525;stroke-miterlimit:41.994751"/><path d="M63.179325 80.6958L71.847075 76.933425" style="fill:none;stroke:rgba(0,0,255,.24705882);stroke-width:.09525;stroke-miterlimit:41.994751"/><path d="M37.842825 81.1911L63.179325 80.6958" style="fill:none;stroke:rgba(0,0,255,.24705882);stroke-width:.09525;stroke-miterlimit:41.994751"/></svg>